ISO-10303-21;
HEADER;
FILE_DESCRIPTION(('KiCad electronic assembly'),'2;1');
FILE_NAME('S-Band LGR.step','2025-07-20T16:06:55',('Pcbnew'),('Kicad'),
  'Open CASCADE STEP processor 7.9','KiCad to STEP converter','Unknown'
  );
FILE_SCHEMA(('AUTOMOTIVE_DESIGN { 1 0 10303 214 1 1 1 1 }'));
ENDSEC;
DATA;
#1 = APPLICATION_PROTOCOL_DEFINITION('international standard',
  'automotive_design',2000,#2);
#2 = APPLICATION_CONTEXT(
  'core data for automotive mechanical design processes');
#3 = SHAPE_DEFINITION_REPRESENTATION(#4,#10);
#4 = PRODUCT_DEFINITION_SHAPE('','',#5);
#5 = PRODUCT_DEFINITION('design','',#6,#9);
#6 = PRODUCT_DEFINITION_FORMATION('','',#7);
#7 = PRODUCT('S-Band LGR 1','S-Band LGR 1','',(#8));
#8 = PRODUCT_CONTEXT('',#2,'mechanical');
#9 = PRODUCT_DEFINITION_CONTEXT('part definition',#2,'design');
#10 = SHAPE_REPRESENTATION('',(#11,#15,#19,#23),#27);
#11 = AXIS2_PLACEMENT_3D('',#12,#13,#14);
#12 = CARTESIAN_POINT('',(0.,0.,0.));
#13 = DIRECTION('',(0.,0.,1.));
#14 = DIRECTION('',(1.,0.,-0.));
#15 = AXIS2_PLACEMENT_3D('',#16,#17,#18);
#16 = CARTESIAN_POINT('',(5.,0.,1.595));
#17 = DIRECTION('',(0.,-0.,1.));
#18 = DIRECTION('',(1.110223024625E-16,1.,0.));
#19 = AXIS2_PLACEMENT_3D('',#20,#21,#22);
#20 = CARTESIAN_POINT('',(-4.7,0.,1.595));
#21 = DIRECTION('',(0.,-0.,1.));
#22 = DIRECTION('',(1.110223024625E-16,1.,0.));
#23 = AXIS2_PLACEMENT_3D('',#24,#25,#26);
#24 = CARTESIAN_POINT('',(0.,0.,0.));
#25 = DIRECTION('',(0.,0.,1.));
#26 = DIRECTION('',(1.,0.,-0.));
#27 = ( GEOMETRIC_REPRESENTATION_CONTEXT(3) 
GLOBAL_UNCERTAINTY_ASSIGNED_CONTEXT((#31)) GLOBAL_UNIT_ASSIGNED_CONTEXT(
(#28,#29,#30)) REPRESENTATION_CONTEXT('Context #1',
  '3D Context with UNIT and UNCERTAINTY') );
#28 = ( LENGTH_UNIT() NAMED_UNIT(*) SI_UNIT(.MILLI.,.METRE.) );
#29 = ( NAMED_UNIT(*) PLANE_ANGLE_UNIT() SI_UNIT($,.RADIAN.) );
#30 = ( NAMED_UNIT(*) SI_UNIT($,.STERADIAN.) SOLID_ANGLE_UNIT() );
#31 = UNCERTAINTY_MEASURE_WITH_UNIT(LENGTH_MEASURE(1.E-07),#28,
  'distance_accuracy_value','confusion accuracy');
#32 = PRODUCT_RELATED_PRODUCT_CATEGORY('part',$,(#7));
#33 = SHAPE_DEFINITION_REPRESENTATION(#34,#40);
#34 = PRODUCT_DEFINITION_SHAPE('','',#35);
#35 = PRODUCT_DEFINITION('design','',#36,#39);
#36 = PRODUCT_DEFINITION_FORMATION('','',#37);
#37 = PRODUCT('C_0402_1005Metric','C_0402_1005Metric','',(#38));
#38 = PRODUCT_CONTEXT('',#2,'mechanical');
#39 = PRODUCT_DEFINITION_CONTEXT('part definition',#2,'design');
#40 = ADVANCED_BREP_SHAPE_REPRESENTATION('',(#11,#41),#895);
#41 = MANIFOLD_SOLID_BREP('',#42);
#42 = CLOSED_SHELL('',(#43,#119,#150,#175,#200,#224,#248,#273,#298,#315,
    #401,#433,#457,#482,#506,#531,#555,#580,#597,#683,#714,#739,#764,
    #788,#812,#837,#862,#879));
#43 = ADVANCED_FACE('',(#44),#114,.F.);
#44 = FACE_BOUND('',#45,.F.);
#45 = EDGE_LOOP('',(#46,#56,#65,#73,#82,#90,#99,#107));
#46 = ORIENTED_EDGE('',*,*,#47,.F.);
#47 = EDGE_CURVE('',#48,#50,#52,.T.);
#48 = VERTEX_POINT('',#49);
#49 = CARTESIAN_POINT('',(-0.5,-0.25,2.E-02));
#50 = VERTEX_POINT('',#51);
#51 = CARTESIAN_POINT('',(-0.5,-0.25,0.48));
#52 = LINE('',#53,#54);
#53 = CARTESIAN_POINT('',(-0.5,-0.25,0.));
#54 = VECTOR('',#55,1.);
#55 = DIRECTION('',(0.,0.,1.));
#56 = ORIENTED_EDGE('',*,*,#57,.T.);
#57 = EDGE_CURVE('',#48,#58,#60,.T.);
#58 = VERTEX_POINT('',#59);
#59 = CARTESIAN_POINT('',(-0.5,-0.23,0.));
#60 = CIRCLE('',#61,2.E-02);
#61 = AXIS2_PLACEMENT_3D('',#62,#63,#64);
#62 = CARTESIAN_POINT('',(-0.5,-0.23,2.E-02));
#63 = DIRECTION('',(1.,0.,-0.));
#64 = DIRECTION('',(0.,0.,1.));
#65 = ORIENTED_EDGE('',*,*,#66,.T.);
#66 = EDGE_CURVE('',#58,#67,#69,.T.);
#67 = VERTEX_POINT('',#68);
#68 = CARTESIAN_POINT('',(-0.5,0.23,0.));
#69 = LINE('',#70,#71);
#70 = CARTESIAN_POINT('',(-0.5,-0.25,0.));
#71 = VECTOR('',#72,1.);
#72 = DIRECTION('',(0.,1.,0.));
#73 = ORIENTED_EDGE('',*,*,#74,.F.);
#74 = EDGE_CURVE('',#75,#67,#77,.T.);
#75 = VERTEX_POINT('',#76);
#76 = CARTESIAN_POINT('',(-0.5,0.25,2.E-02));
#77 = CIRCLE('',#78,2.E-02);
#78 = AXIS2_PLACEMENT_3D('',#79,#80,#81);
#79 = CARTESIAN_POINT('',(-0.5,0.23,2.E-02));
#80 = DIRECTION('',(-1.,0.,0.));
#81 = DIRECTION('',(0.,0.,1.));
#82 = ORIENTED_EDGE('',*,*,#83,.T.);
#83 = EDGE_CURVE('',#75,#84,#86,.T.);
#84 = VERTEX_POINT('',#85);
#85 = CARTESIAN_POINT('',(-0.5,0.25,0.48));
#86 = LINE('',#87,#88);
#87 = CARTESIAN_POINT('',(-0.5,0.25,0.));
#88 = VECTOR('',#89,1.);
#89 = DIRECTION('',(0.,0.,1.));
#90 = ORIENTED_EDGE('',*,*,#91,.T.);
#91 = EDGE_CURVE('',#84,#92,#94,.T.);
#92 = VERTEX_POINT('',#93);
#93 = CARTESIAN_POINT('',(-0.5,0.23,0.5));
#94 = CIRCLE('',#95,2.E-02);
#95 = AXIS2_PLACEMENT_3D('',#96,#97,#98);
#96 = CARTESIAN_POINT('',(-0.5,0.23,0.48));
#97 = DIRECTION('',(1.,0.,-0.));
#98 = DIRECTION('',(0.,0.,1.));
#99 = ORIENTED_EDGE('',*,*,#100,.F.);
#100 = EDGE_CURVE('',#101,#92,#103,.T.);
#101 = VERTEX_POINT('',#102);
#102 = CARTESIAN_POINT('',(-0.5,-0.23,0.5));
#103 = LINE('',#104,#105);
#104 = CARTESIAN_POINT('',(-0.5,-0.25,0.5));
#105 = VECTOR('',#106,1.);
#106 = DIRECTION('',(0.,1.,0.));
#107 = ORIENTED_EDGE('',*,*,#108,.F.);
#108 = EDGE_CURVE('',#50,#101,#109,.T.);
#109 = CIRCLE('',#110,2.E-02);
#110 = AXIS2_PLACEMENT_3D('',#111,#112,#113);
#111 = CARTESIAN_POINT('',(-0.5,-0.23,0.48));
#112 = DIRECTION('',(-1.,0.,0.));
#113 = DIRECTION('',(0.,0.,1.));
#114 = PLANE('',#115);
#115 = AXIS2_PLACEMENT_3D('',#116,#117,#118);
#116 = CARTESIAN_POINT('',(-0.5,-0.25,0.));
#117 = DIRECTION('',(1.,0.,0.));
#118 = DIRECTION('',(0.,0.,1.));
#119 = ADVANCED_FACE('',(#120),#145,.F.);
#120 = FACE_BOUND('',#121,.F.);
#121 = EDGE_LOOP('',(#122,#132,#138,#139));
#122 = ORIENTED_EDGE('',*,*,#123,.F.);
#123 = EDGE_CURVE('',#124,#126,#128,.T.);
#124 = VERTEX_POINT('',#125);
#125 = CARTESIAN_POINT('',(-0.3,-0.25,2.E-02));
#126 = VERTEX_POINT('',#127);
#127 = CARTESIAN_POINT('',(-0.3,-0.25,0.48));
#128 = LINE('',#129,#130);
#129 = CARTESIAN_POINT('',(-0.3,-0.25,0.));
#130 = VECTOR('',#131,1.);
#131 = DIRECTION('',(0.,0.,1.));
#132 = ORIENTED_EDGE('',*,*,#133,.F.);
#133 = EDGE_CURVE('',#48,#124,#134,.T.);
#134 = LINE('',#135,#136);
#135 = CARTESIAN_POINT('',(-0.5,-0.25,2.E-02));
#136 = VECTOR('',#137,1.);
#137 = DIRECTION('',(1.,0.,0.));
#138 = ORIENTED_EDGE('',*,*,#47,.T.);
#139 = ORIENTED_EDGE('',*,*,#140,.T.);
#140 = EDGE_CURVE('',#50,#126,#141,.T.);
#141 = LINE('',#142,#143);
#142 = CARTESIAN_POINT('',(-0.5,-0.25,0.48));
#143 = VECTOR('',#144,1.);
#144 = DIRECTION('',(1.,0.,0.));
#145 = PLANE('',#146);
#146 = AXIS2_PLACEMENT_3D('',#147,#148,#149);
#147 = CARTESIAN_POINT('',(-0.5,-0.25,0.));
#148 = DIRECTION('',(0.,1.,0.));
#149 = DIRECTION('',(0.,-0.,1.));
#150 = ADVANCED_FACE('',(#151),#170,.T.);
#151 = FACE_BOUND('',#152,.T.);
#152 = EDGE_LOOP('',(#153,#154,#162,#169));
#153 = ORIENTED_EDGE('',*,*,#57,.T.);
#154 = ORIENTED_EDGE('',*,*,#155,.T.);
#155 = EDGE_CURVE('',#58,#156,#158,.T.);
#156 = VERTEX_POINT('',#157);
#157 = CARTESIAN_POINT('',(-0.3,-0.23,0.));
#158 = LINE('',#159,#160);
#159 = CARTESIAN_POINT('',(-0.5,-0.23,0.));
#160 = VECTOR('',#161,1.);
#161 = DIRECTION('',(1.,0.,0.));
#162 = ORIENTED_EDGE('',*,*,#163,.F.);
#163 = EDGE_CURVE('',#124,#156,#164,.T.);
#164 = CIRCLE('',#165,2.E-02);
#165 = AXIS2_PLACEMENT_3D('',#166,#167,#168);
#166 = CARTESIAN_POINT('',(-0.3,-0.23,2.E-02));
#167 = DIRECTION('',(1.,0.,-0.));
#168 = DIRECTION('',(0.,0.,1.));
#169 = ORIENTED_EDGE('',*,*,#133,.F.);
#170 = CYLINDRICAL_SURFACE('',#171,2.E-02);
#171 = AXIS2_PLACEMENT_3D('',#172,#173,#174);
#172 = CARTESIAN_POINT('',(-0.5,-0.23,2.E-02));
#173 = DIRECTION('',(1.,0.,0.));
#174 = DIRECTION('',(0.,-1.,0.));
#175 = ADVANCED_FACE('',(#176),#195,.T.);
#176 = FACE_BOUND('',#177,.T.);
#177 = EDGE_LOOP('',(#178,#179,#188,#194));
#178 = ORIENTED_EDGE('',*,*,#140,.T.);
#179 = ORIENTED_EDGE('',*,*,#180,.T.);
#180 = EDGE_CURVE('',#126,#181,#183,.T.);
#181 = VERTEX_POINT('',#182);
#182 = CARTESIAN_POINT('',(-0.3,-0.23,0.5));
#183 = CIRCLE('',#184,2.E-02);
#184 = AXIS2_PLACEMENT_3D('',#185,#186,#187);
#185 = CARTESIAN_POINT('',(-0.3,-0.23,0.48));
#186 = DIRECTION('',(-1.,0.,0.));
#187 = DIRECTION('',(0.,0.,1.));
#188 = ORIENTED_EDGE('',*,*,#189,.F.);
#189 = EDGE_CURVE('',#101,#181,#190,.T.);
#190 = LINE('',#191,#192);
#191 = CARTESIAN_POINT('',(-0.5,-0.23,0.5));
#192 = VECTOR('',#193,1.);
#193 = DIRECTION('',(1.,0.,0.));
#194 = ORIENTED_EDGE('',*,*,#108,.F.);
#195 = CYLINDRICAL_SURFACE('',#196,2.E-02);
#196 = AXIS2_PLACEMENT_3D('',#197,#198,#199);
#197 = CARTESIAN_POINT('',(-0.5,-0.23,0.48));
#198 = DIRECTION('',(1.,0.,0.));
#199 = DIRECTION('',(0.,-1.,0.));
#200 = ADVANCED_FACE('',(#201),#219,.F.);
#201 = FACE_BOUND('',#202,.F.);
#202 = EDGE_LOOP('',(#203,#204,#205,#213));
#203 = ORIENTED_EDGE('',*,*,#66,.F.);
#204 = ORIENTED_EDGE('',*,*,#155,.T.);
#205 = ORIENTED_EDGE('',*,*,#206,.T.);
#206 = EDGE_CURVE('',#156,#207,#209,.T.);
#207 = VERTEX_POINT('',#208);
#208 = CARTESIAN_POINT('',(-0.3,0.23,0.));
#209 = LINE('',#210,#211);
#210 = CARTESIAN_POINT('',(-0.3,-0.25,0.));
#211 = VECTOR('',#212,1.);
#212 = DIRECTION('',(0.,1.,0.));
#213 = ORIENTED_EDGE('',*,*,#214,.F.);
#214 = EDGE_CURVE('',#67,#207,#215,.T.);
#215 = LINE('',#216,#217);
#216 = CARTESIAN_POINT('',(-0.5,0.23,0.));
#217 = VECTOR('',#218,1.);
#218 = DIRECTION('',(1.,0.,0.));
#219 = PLANE('',#220);
#220 = AXIS2_PLACEMENT_3D('',#221,#222,#223);
#221 = CARTESIAN_POINT('',(-0.5,-0.25,0.));
#222 = DIRECTION('',(0.,0.,1.));
#223 = DIRECTION('',(1.,0.,-0.));
#224 = ADVANCED_FACE('',(#225),#243,.T.);
#225 = FACE_BOUND('',#226,.T.);
#226 = EDGE_LOOP('',(#227,#228,#229,#237));
#227 = ORIENTED_EDGE('',*,*,#100,.F.);
#228 = ORIENTED_EDGE('',*,*,#189,.T.);
#229 = ORIENTED_EDGE('',*,*,#230,.T.);
#230 = EDGE_CURVE('',#181,#231,#233,.T.);
#231 = VERTEX_POINT('',#232);
#232 = CARTESIAN_POINT('',(-0.3,0.23,0.5));
#233 = LINE('',#234,#235);
#234 = CARTESIAN_POINT('',(-0.3,-0.25,0.5));
#235 = VECTOR('',#236,1.);
#236 = DIRECTION('',(0.,1.,0.));
#237 = ORIENTED_EDGE('',*,*,#238,.F.);
#238 = EDGE_CURVE('',#92,#231,#239,.T.);
#239 = LINE('',#240,#241);
#240 = CARTESIAN_POINT('',(-0.5,0.23,0.5));
#241 = VECTOR('',#242,1.);
#242 = DIRECTION('',(1.,0.,0.));
#243 = PLANE('',#244);
#244 = AXIS2_PLACEMENT_3D('',#245,#246,#247);
#245 = CARTESIAN_POINT('',(-0.5,-0.25,0.5));
#246 = DIRECTION('',(0.,0.,1.));
#247 = DIRECTION('',(1.,0.,-0.));
#248 = ADVANCED_FACE('',(#249),#268,.T.);
#249 = FACE_BOUND('',#250,.T.);
#250 = EDGE_LOOP('',(#251,#259,#266,#267));
#251 = ORIENTED_EDGE('',*,*,#252,.T.);
#252 = EDGE_CURVE('',#75,#253,#255,.T.);
#253 = VERTEX_POINT('',#254);
#254 = CARTESIAN_POINT('',(-0.3,0.25,2.E-02));
#255 = LINE('',#256,#257);
#256 = CARTESIAN_POINT('',(-0.5,0.25,2.E-02));
#257 = VECTOR('',#258,1.);
#258 = DIRECTION('',(1.,0.,0.));
#259 = ORIENTED_EDGE('',*,*,#260,.T.);
#260 = EDGE_CURVE('',#253,#207,#261,.T.);
#261 = CIRCLE('',#262,2.E-02);
#262 = AXIS2_PLACEMENT_3D('',#263,#264,#265);
#263 = CARTESIAN_POINT('',(-0.3,0.23,2.E-02));
#264 = DIRECTION('',(-1.,0.,0.));
#265 = DIRECTION('',(0.,0.,1.));
#266 = ORIENTED_EDGE('',*,*,#214,.F.);
#267 = ORIENTED_EDGE('',*,*,#74,.F.);
#268 = CYLINDRICAL_SURFACE('',#269,2.E-02);
#269 = AXIS2_PLACEMENT_3D('',#270,#271,#272);
#270 = CARTESIAN_POINT('',(-0.5,0.23,2.E-02));
#271 = DIRECTION('',(1.,0.,0.));
#272 = DIRECTION('',(-0.,1.,0.));
#273 = ADVANCED_FACE('',(#274),#293,.T.);
#274 = FACE_BOUND('',#275,.T.);
#275 = EDGE_LOOP('',(#276,#277,#278,#287));
#276 = ORIENTED_EDGE('',*,*,#91,.T.);
#277 = ORIENTED_EDGE('',*,*,#238,.T.);
#278 = ORIENTED_EDGE('',*,*,#279,.F.);
#279 = EDGE_CURVE('',#280,#231,#282,.T.);
#280 = VERTEX_POINT('',#281);
#281 = CARTESIAN_POINT('',(-0.3,0.25,0.48));
#282 = CIRCLE('',#283,2.E-02);
#283 = AXIS2_PLACEMENT_3D('',#284,#285,#286);
#284 = CARTESIAN_POINT('',(-0.3,0.23,0.48));
#285 = DIRECTION('',(1.,0.,-0.));
#286 = DIRECTION('',(0.,0.,1.));
#287 = ORIENTED_EDGE('',*,*,#288,.F.);
#288 = EDGE_CURVE('',#84,#280,#289,.T.);
#289 = LINE('',#290,#291);
#290 = CARTESIAN_POINT('',(-0.5,0.25,0.48));
#291 = VECTOR('',#292,1.);
#292 = DIRECTION('',(1.,0.,0.));
#293 = CYLINDRICAL_SURFACE('',#294,2.E-02);
#294 = AXIS2_PLACEMENT_3D('',#295,#296,#297);
#295 = CARTESIAN_POINT('',(-0.5,0.23,0.48));
#296 = DIRECTION('',(1.,0.,0.));
#297 = DIRECTION('',(-0.,1.,0.));
#298 = ADVANCED_FACE('',(#299),#310,.T.);
#299 = FACE_BOUND('',#300,.T.);
#300 = EDGE_LOOP('',(#301,#307,#308,#309));
#301 = ORIENTED_EDGE('',*,*,#302,.F.);
#302 = EDGE_CURVE('',#253,#280,#303,.T.);
#303 = LINE('',#304,#305);
#304 = CARTESIAN_POINT('',(-0.3,0.25,0.));
#305 = VECTOR('',#306,1.);
#306 = DIRECTION('',(0.,0.,1.));
#307 = ORIENTED_EDGE('',*,*,#252,.F.);
#308 = ORIENTED_EDGE('',*,*,#83,.T.);
#309 = ORIENTED_EDGE('',*,*,#288,.T.);
#310 = PLANE('',#311);
#311 = AXIS2_PLACEMENT_3D('',#312,#313,#314);
#312 = CARTESIAN_POINT('',(-0.5,0.25,0.));
#313 = DIRECTION('',(0.,1.,0.));
#314 = DIRECTION('',(0.,-0.,1.));
#315 = ADVANCED_FACE('',(#316,#326),#396,.T.);
#316 = FACE_BOUND('',#317,.T.);
#317 = EDGE_LOOP('',(#318,#319,#320,#321,#322,#323,#324,#325));
#318 = ORIENTED_EDGE('',*,*,#123,.F.);
#319 = ORIENTED_EDGE('',*,*,#163,.T.);
#320 = ORIENTED_EDGE('',*,*,#206,.T.);
#321 = ORIENTED_EDGE('',*,*,#260,.F.);
#322 = ORIENTED_EDGE('',*,*,#302,.T.);
#323 = ORIENTED_EDGE('',*,*,#279,.T.);
#324 = ORIENTED_EDGE('',*,*,#230,.F.);
#325 = ORIENTED_EDGE('',*,*,#180,.F.);
#326 = FACE_BOUND('',#327,.T.);
#327 = EDGE_LOOP('',(#328,#339,#347,#356,#364,#373,#381,#390));
#328 = ORIENTED_EDGE('',*,*,#329,.F.);
#329 = EDGE_CURVE('',#330,#332,#334,.T.);
#330 = VERTEX_POINT('',#331);
#331 = CARTESIAN_POINT('',(-0.3,-0.23,4.E-02));
#332 = VERTEX_POINT('',#333);
#333 = CARTESIAN_POINT('',(-0.3,-0.21,2.E-02));
#334 = CIRCLE('',#335,2.E-02);
#335 = AXIS2_PLACEMENT_3D('',#336,#337,#338);
#336 = CARTESIAN_POINT('',(-0.3,-0.21,4.E-02));
#337 = DIRECTION('',(1.,0.,-0.));
#338 = DIRECTION('',(0.,0.,1.));
#339 = ORIENTED_EDGE('',*,*,#340,.T.);
#340 = EDGE_CURVE('',#330,#341,#343,.T.);
#341 = VERTEX_POINT('',#342);
#342 = CARTESIAN_POINT('',(-0.3,-0.23,0.46));
#343 = LINE('',#344,#345);
#344 = CARTESIAN_POINT('',(-0.3,-0.23,2.E-02));
#345 = VECTOR('',#346,1.);
#346 = DIRECTION('',(0.,0.,1.));
#347 = ORIENTED_EDGE('',*,*,#348,.T.);
#348 = EDGE_CURVE('',#341,#349,#351,.T.);
#349 = VERTEX_POINT('',#350);
#350 = CARTESIAN_POINT('',(-0.3,-0.21,0.48));
#351 = CIRCLE('',#352,2.E-02);
#352 = AXIS2_PLACEMENT_3D('',#353,#354,#355);
#353 = CARTESIAN_POINT('',(-0.3,-0.21,0.46));
#354 = DIRECTION('',(-1.,0.,0.));
#355 = DIRECTION('',(0.,0.,1.));
#356 = ORIENTED_EDGE('',*,*,#357,.T.);
#357 = EDGE_CURVE('',#349,#358,#360,.T.);
#358 = VERTEX_POINT('',#359);
#359 = CARTESIAN_POINT('',(-0.3,0.21,0.48));
#360 = LINE('',#361,#362);
#361 = CARTESIAN_POINT('',(-0.3,-0.23,0.48));
#362 = VECTOR('',#363,1.);
#363 = DIRECTION('',(0.,1.,0.));
#364 = ORIENTED_EDGE('',*,*,#365,.F.);
#365 = EDGE_CURVE('',#366,#358,#368,.T.);
#366 = VERTEX_POINT('',#367);
#367 = CARTESIAN_POINT('',(-0.3,0.23,0.46));
#368 = CIRCLE('',#369,2.E-02);
#369 = AXIS2_PLACEMENT_3D('',#370,#371,#372);
#370 = CARTESIAN_POINT('',(-0.3,0.21,0.46));
#371 = DIRECTION('',(1.,0.,-0.));
#372 = DIRECTION('',(0.,0.,1.));
#373 = ORIENTED_EDGE('',*,*,#374,.F.);
#374 = EDGE_CURVE('',#375,#366,#377,.T.);
#375 = VERTEX_POINT('',#376);
#376 = CARTESIAN_POINT('',(-0.3,0.23,4.E-02));
#377 = LINE('',#378,#379);
#378 = CARTESIAN_POINT('',(-0.3,0.23,2.E-02));
#379 = VECTOR('',#380,1.);
#380 = DIRECTION('',(0.,0.,1.));
#381 = ORIENTED_EDGE('',*,*,#382,.T.);
#382 = EDGE_CURVE('',#375,#383,#385,.T.);
#383 = VERTEX_POINT('',#384);
#384 = CARTESIAN_POINT('',(-0.3,0.21,2.E-02));
#385 = CIRCLE('',#386,2.E-02);
#386 = AXIS2_PLACEMENT_3D('',#387,#388,#389);
#387 = CARTESIAN_POINT('',(-0.3,0.21,4.E-02));
#388 = DIRECTION('',(-1.,0.,0.));
#389 = DIRECTION('',(0.,0.,1.));
#390 = ORIENTED_EDGE('',*,*,#391,.F.);
#391 = EDGE_CURVE('',#332,#383,#392,.T.);
#392 = LINE('',#393,#394);
#393 = CARTESIAN_POINT('',(-0.3,-0.23,2.E-02));
#394 = VECTOR('',#395,1.);
#395 = DIRECTION('',(0.,1.,0.));
#396 = PLANE('',#397);
#397 = AXIS2_PLACEMENT_3D('',#398,#399,#400);
#398 = CARTESIAN_POINT('',(-0.3,-0.25,0.));
#399 = DIRECTION('',(1.,0.,0.));
#400 = DIRECTION('',(0.,0.,1.));
#401 = ADVANCED_FACE('',(#402),#428,.T.);
#402 = FACE_BOUND('',#403,.T.);
#403 = EDGE_LOOP('',(#404,#405,#413,#422));
#404 = ORIENTED_EDGE('',*,*,#329,.T.);
#405 = ORIENTED_EDGE('',*,*,#406,.T.);
#406 = EDGE_CURVE('',#332,#407,#409,.T.);
#407 = VERTEX_POINT('',#408);
#408 = CARTESIAN_POINT('',(0.3,-0.21,2.E-02));
#409 = LINE('',#410,#411);
#410 = CARTESIAN_POINT('',(-0.3,-0.21,2.E-02));
#411 = VECTOR('',#412,1.);
#412 = DIRECTION('',(1.,0.,0.));
#413 = ORIENTED_EDGE('',*,*,#414,.F.);
#414 = EDGE_CURVE('',#415,#407,#417,.T.);
#415 = VERTEX_POINT('',#416);
#416 = CARTESIAN_POINT('',(0.3,-0.23,4.E-02));
#417 = CIRCLE('',#418,2.E-02);
#418 = AXIS2_PLACEMENT_3D('',#419,#420,#421);
#419 = CARTESIAN_POINT('',(0.3,-0.21,4.E-02));
#420 = DIRECTION('',(1.,0.,-0.));
#421 = DIRECTION('',(0.,0.,1.));
#422 = ORIENTED_EDGE('',*,*,#423,.F.);
#423 = EDGE_CURVE('',#330,#415,#424,.T.);
#424 = LINE('',#425,#426);
#425 = CARTESIAN_POINT('',(-0.3,-0.23,4.E-02));
#426 = VECTOR('',#427,1.);
#427 = DIRECTION('',(1.,0.,0.));
#428 = CYLINDRICAL_SURFACE('',#429,2.E-02);
#429 = AXIS2_PLACEMENT_3D('',#430,#431,#432);
#430 = CARTESIAN_POINT('',(-0.3,-0.21,4.E-02));
#431 = DIRECTION('',(1.,0.,0.));
#432 = DIRECTION('',(0.,-1.,0.));
#433 = ADVANCED_FACE('',(#434),#452,.F.);
#434 = FACE_BOUND('',#435,.F.);
#435 = EDGE_LOOP('',(#436,#437,#438,#446));
#436 = ORIENTED_EDGE('',*,*,#391,.F.);
#437 = ORIENTED_EDGE('',*,*,#406,.T.);
#438 = ORIENTED_EDGE('',*,*,#439,.T.);
#439 = EDGE_CURVE('',#407,#440,#442,.T.);
#440 = VERTEX_POINT('',#441);
#441 = CARTESIAN_POINT('',(0.3,0.21,2.E-02));
#442 = LINE('',#443,#444);
#443 = CARTESIAN_POINT('',(0.3,-0.23,2.E-02));
#444 = VECTOR('',#445,1.);
#445 = DIRECTION('',(0.,1.,0.));
#446 = ORIENTED_EDGE('',*,*,#447,.F.);
#447 = EDGE_CURVE('',#383,#440,#448,.T.);
#448 = LINE('',#449,#450);
#449 = CARTESIAN_POINT('',(-0.3,0.21,2.E-02));
#450 = VECTOR('',#451,1.);
#451 = DIRECTION('',(1.,0.,0.));
#452 = PLANE('',#453);
#453 = AXIS2_PLACEMENT_3D('',#454,#455,#456);
#454 = CARTESIAN_POINT('',(-0.3,-0.23,2.E-02));
#455 = DIRECTION('',(0.,0.,1.));
#456 = DIRECTION('',(1.,0.,-0.));
#457 = ADVANCED_FACE('',(#458),#477,.T.);
#458 = FACE_BOUND('',#459,.T.);
#459 = EDGE_LOOP('',(#460,#468,#475,#476));
#460 = ORIENTED_EDGE('',*,*,#461,.T.);
#461 = EDGE_CURVE('',#375,#462,#464,.T.);
#462 = VERTEX_POINT('',#463);
#463 = CARTESIAN_POINT('',(0.3,0.23,4.E-02));
#464 = LINE('',#465,#466);
#465 = CARTESIAN_POINT('',(-0.3,0.23,4.E-02));
#466 = VECTOR('',#467,1.);
#467 = DIRECTION('',(1.,0.,0.));
#468 = ORIENTED_EDGE('',*,*,#469,.T.);
#469 = EDGE_CURVE('',#462,#440,#470,.T.);
#470 = CIRCLE('',#471,2.E-02);
#471 = AXIS2_PLACEMENT_3D('',#472,#473,#474);
#472 = CARTESIAN_POINT('',(0.3,0.21,4.E-02));
#473 = DIRECTION('',(-1.,0.,0.));
#474 = DIRECTION('',(0.,0.,1.));
#475 = ORIENTED_EDGE('',*,*,#447,.F.);
#476 = ORIENTED_EDGE('',*,*,#382,.F.);
#477 = CYLINDRICAL_SURFACE('',#478,2.E-02);
#478 = AXIS2_PLACEMENT_3D('',#479,#480,#481);
#479 = CARTESIAN_POINT('',(-0.3,0.21,4.E-02));
#480 = DIRECTION('',(1.,0.,0.));
#481 = DIRECTION('',(-0.,1.,0.));
#482 = ADVANCED_FACE('',(#483),#501,.T.);
#483 = FACE_BOUND('',#484,.T.);
#484 = EDGE_LOOP('',(#485,#493,#494,#495));
#485 = ORIENTED_EDGE('',*,*,#486,.F.);
#486 = EDGE_CURVE('',#462,#487,#489,.T.);
#487 = VERTEX_POINT('',#488);
#488 = CARTESIAN_POINT('',(0.3,0.23,0.46));
#489 = LINE('',#490,#491);
#490 = CARTESIAN_POINT('',(0.3,0.23,2.E-02));
#491 = VECTOR('',#492,1.);
#492 = DIRECTION('',(0.,0.,1.));
#493 = ORIENTED_EDGE('',*,*,#461,.F.);
#494 = ORIENTED_EDGE('',*,*,#374,.T.);
#495 = ORIENTED_EDGE('',*,*,#496,.T.);
#496 = EDGE_CURVE('',#366,#487,#497,.T.);
#497 = LINE('',#498,#499);
#498 = CARTESIAN_POINT('',(-0.3,0.23,0.46));
#499 = VECTOR('',#500,1.);
#500 = DIRECTION('',(1.,0.,0.));
#501 = PLANE('',#502);
#502 = AXIS2_PLACEMENT_3D('',#503,#504,#505);
#503 = CARTESIAN_POINT('',(-0.3,0.23,2.E-02));
#504 = DIRECTION('',(0.,1.,0.));
#505 = DIRECTION('',(0.,-0.,1.));
#506 = ADVANCED_FACE('',(#507),#526,.T.);
#507 = FACE_BOUND('',#508,.T.);
#508 = EDGE_LOOP('',(#509,#510,#518,#525));
#509 = ORIENTED_EDGE('',*,*,#365,.T.);
#510 = ORIENTED_EDGE('',*,*,#511,.T.);
#511 = EDGE_CURVE('',#358,#512,#514,.T.);
#512 = VERTEX_POINT('',#513);
#513 = CARTESIAN_POINT('',(0.3,0.21,0.48));
#514 = LINE('',#515,#516);
#515 = CARTESIAN_POINT('',(-0.3,0.21,0.48));
#516 = VECTOR('',#517,1.);
#517 = DIRECTION('',(1.,0.,0.));
#518 = ORIENTED_EDGE('',*,*,#519,.F.);
#519 = EDGE_CURVE('',#487,#512,#520,.T.);
#520 = CIRCLE('',#521,2.E-02);
#521 = AXIS2_PLACEMENT_3D('',#522,#523,#524);
#522 = CARTESIAN_POINT('',(0.3,0.21,0.46));
#523 = DIRECTION('',(1.,0.,-0.));
#524 = DIRECTION('',(0.,0.,1.));
#525 = ORIENTED_EDGE('',*,*,#496,.F.);
#526 = CYLINDRICAL_SURFACE('',#527,2.E-02);
#527 = AXIS2_PLACEMENT_3D('',#528,#529,#530);
#528 = CARTESIAN_POINT('',(-0.3,0.21,0.46));
#529 = DIRECTION('',(1.,0.,0.));
#530 = DIRECTION('',(-0.,1.,0.));
#531 = ADVANCED_FACE('',(#532),#550,.T.);
#532 = FACE_BOUND('',#533,.T.);
#533 = EDGE_LOOP('',(#534,#535,#543,#549));
#534 = ORIENTED_EDGE('',*,*,#357,.F.);
#535 = ORIENTED_EDGE('',*,*,#536,.T.);
#536 = EDGE_CURVE('',#349,#537,#539,.T.);
#537 = VERTEX_POINT('',#538);
#538 = CARTESIAN_POINT('',(0.3,-0.21,0.48));
#539 = LINE('',#540,#541);
#540 = CARTESIAN_POINT('',(-0.3,-0.21,0.48));
#541 = VECTOR('',#542,1.);
#542 = DIRECTION('',(1.,0.,0.));
#543 = ORIENTED_EDGE('',*,*,#544,.T.);
#544 = EDGE_CURVE('',#537,#512,#545,.T.);
#545 = LINE('',#546,#547);
#546 = CARTESIAN_POINT('',(0.3,-0.23,0.48));
#547 = VECTOR('',#548,1.);
#548 = DIRECTION('',(0.,1.,0.));
#549 = ORIENTED_EDGE('',*,*,#511,.F.);
#550 = PLANE('',#551);
#551 = AXIS2_PLACEMENT_3D('',#552,#553,#554);
#552 = CARTESIAN_POINT('',(-0.3,-0.23,0.48));
#553 = DIRECTION('',(0.,0.,1.));
#554 = DIRECTION('',(1.,0.,-0.));
#555 = ADVANCED_FACE('',(#556),#575,.T.);
#556 = FACE_BOUND('',#557,.T.);
#557 = EDGE_LOOP('',(#558,#566,#573,#574));
#558 = ORIENTED_EDGE('',*,*,#559,.T.);
#559 = EDGE_CURVE('',#341,#560,#562,.T.);
#560 = VERTEX_POINT('',#561);
#561 = CARTESIAN_POINT('',(0.3,-0.23,0.46));
#562 = LINE('',#563,#564);
#563 = CARTESIAN_POINT('',(-0.3,-0.23,0.46));
#564 = VECTOR('',#565,1.);
#565 = DIRECTION('',(1.,0.,0.));
#566 = ORIENTED_EDGE('',*,*,#567,.T.);
#567 = EDGE_CURVE('',#560,#537,#568,.T.);
#568 = CIRCLE('',#569,2.E-02);
#569 = AXIS2_PLACEMENT_3D('',#570,#571,#572);
#570 = CARTESIAN_POINT('',(0.3,-0.21,0.46));
#571 = DIRECTION('',(-1.,0.,0.));
#572 = DIRECTION('',(0.,0.,1.));
#573 = ORIENTED_EDGE('',*,*,#536,.F.);
#574 = ORIENTED_EDGE('',*,*,#348,.F.);
#575 = CYLINDRICAL_SURFACE('',#576,2.E-02);
#576 = AXIS2_PLACEMENT_3D('',#577,#578,#579);
#577 = CARTESIAN_POINT('',(-0.3,-0.21,0.46));
#578 = DIRECTION('',(1.,0.,0.));
#579 = DIRECTION('',(0.,-1.,0.));
#580 = ADVANCED_FACE('',(#581),#592,.F.);
#581 = FACE_BOUND('',#582,.F.);
#582 = EDGE_LOOP('',(#583,#589,#590,#591));
#583 = ORIENTED_EDGE('',*,*,#584,.F.);
#584 = EDGE_CURVE('',#415,#560,#585,.T.);
#585 = LINE('',#586,#587);
#586 = CARTESIAN_POINT('',(0.3,-0.23,2.E-02));
#587 = VECTOR('',#588,1.);
#588 = DIRECTION('',(0.,0.,1.));
#589 = ORIENTED_EDGE('',*,*,#423,.F.);
#590 = ORIENTED_EDGE('',*,*,#340,.T.);
#591 = ORIENTED_EDGE('',*,*,#559,.T.);
#592 = PLANE('',#593);
#593 = AXIS2_PLACEMENT_3D('',#594,#595,#596);
#594 = CARTESIAN_POINT('',(-0.3,-0.23,2.E-02));
#595 = DIRECTION('',(0.,1.,0.));
#596 = DIRECTION('',(0.,-0.,1.));
#597 = ADVANCED_FACE('',(#598,#668),#678,.F.);
#598 = FACE_BOUND('',#599,.F.);
#599 = EDGE_LOOP('',(#600,#610,#619,#627,#636,#644,#653,#661));
#600 = ORIENTED_EDGE('',*,*,#601,.F.);
#601 = EDGE_CURVE('',#602,#604,#606,.T.);
#602 = VERTEX_POINT('',#603);
#603 = CARTESIAN_POINT('',(0.3,-0.25,2.E-02));
#604 = VERTEX_POINT('',#605);
#605 = CARTESIAN_POINT('',(0.3,-0.25,0.48));
#606 = LINE('',#607,#608);
#607 = CARTESIAN_POINT('',(0.3,-0.25,0.));
#608 = VECTOR('',#609,1.);
#609 = DIRECTION('',(0.,0.,1.));
#610 = ORIENTED_EDGE('',*,*,#611,.T.);
#611 = EDGE_CURVE('',#602,#612,#614,.T.);
#612 = VERTEX_POINT('',#613);
#613 = CARTESIAN_POINT('',(0.3,-0.23,0.));
#614 = CIRCLE('',#615,2.E-02);
#615 = AXIS2_PLACEMENT_3D('',#616,#617,#618);
#616 = CARTESIAN_POINT('',(0.3,-0.23,2.E-02));
#617 = DIRECTION('',(1.,0.,-0.));
#618 = DIRECTION('',(0.,0.,1.));
#619 = ORIENTED_EDGE('',*,*,#620,.T.);
#620 = EDGE_CURVE('',#612,#621,#623,.T.);
#621 = VERTEX_POINT('',#622);
#622 = CARTESIAN_POINT('',(0.3,0.23,0.));
#623 = LINE('',#624,#625);
#624 = CARTESIAN_POINT('',(0.3,-0.25,0.));
#625 = VECTOR('',#626,1.);
#626 = DIRECTION('',(0.,1.,0.));
#627 = ORIENTED_EDGE('',*,*,#628,.F.);
#628 = EDGE_CURVE('',#629,#621,#631,.T.);
#629 = VERTEX_POINT('',#630);
#630 = CARTESIAN_POINT('',(0.3,0.25,2.E-02));
#631 = CIRCLE('',#632,2.E-02);
#632 = AXIS2_PLACEMENT_3D('',#633,#634,#635);
#633 = CARTESIAN_POINT('',(0.3,0.23,2.E-02));
#634 = DIRECTION('',(-1.,0.,0.));
#635 = DIRECTION('',(0.,0.,1.));
#636 = ORIENTED_EDGE('',*,*,#637,.T.);
#637 = EDGE_CURVE('',#629,#638,#640,.T.);
#638 = VERTEX_POINT('',#639);
#639 = CARTESIAN_POINT('',(0.3,0.25,0.48));
#640 = LINE('',#641,#642);
#641 = CARTESIAN_POINT('',(0.3,0.25,0.));
#642 = VECTOR('',#643,1.);
#643 = DIRECTION('',(0.,0.,1.));
#644 = ORIENTED_EDGE('',*,*,#645,.T.);
#645 = EDGE_CURVE('',#638,#646,#648,.T.);
#646 = VERTEX_POINT('',#647);
#647 = CARTESIAN_POINT('',(0.3,0.23,0.5));
#648 = CIRCLE('',#649,2.E-02);
#649 = AXIS2_PLACEMENT_3D('',#650,#651,#652);
#650 = CARTESIAN_POINT('',(0.3,0.23,0.48));
#651 = DIRECTION('',(1.,0.,-0.));
#652 = DIRECTION('',(0.,0.,1.));
#653 = ORIENTED_EDGE('',*,*,#654,.F.);
#654 = EDGE_CURVE('',#655,#646,#657,.T.);
#655 = VERTEX_POINT('',#656);
#656 = CARTESIAN_POINT('',(0.3,-0.23,0.5));
#657 = LINE('',#658,#659);
#658 = CARTESIAN_POINT('',(0.3,-0.25,0.5));
#659 = VECTOR('',#660,1.);
#660 = DIRECTION('',(0.,1.,0.));
#661 = ORIENTED_EDGE('',*,*,#662,.F.);
#662 = EDGE_CURVE('',#604,#655,#663,.T.);
#663 = CIRCLE('',#664,2.E-02);
#664 = AXIS2_PLACEMENT_3D('',#665,#666,#667);
#665 = CARTESIAN_POINT('',(0.3,-0.23,0.48));
#666 = DIRECTION('',(-1.,0.,0.));
#667 = DIRECTION('',(0.,0.,1.));
#668 = FACE_BOUND('',#669,.F.);
#669 = EDGE_LOOP('',(#670,#671,#672,#673,#674,#675,#676,#677));
#670 = ORIENTED_EDGE('',*,*,#414,.F.);
#671 = ORIENTED_EDGE('',*,*,#584,.T.);
#672 = ORIENTED_EDGE('',*,*,#567,.T.);
#673 = ORIENTED_EDGE('',*,*,#544,.T.);
#674 = ORIENTED_EDGE('',*,*,#519,.F.);
#675 = ORIENTED_EDGE('',*,*,#486,.F.);
#676 = ORIENTED_EDGE('',*,*,#469,.T.);
#677 = ORIENTED_EDGE('',*,*,#439,.F.);
#678 = PLANE('',#679);
#679 = AXIS2_PLACEMENT_3D('',#680,#681,#682);
#680 = CARTESIAN_POINT('',(0.3,-0.25,0.));
#681 = DIRECTION('',(1.,0.,0.));
#682 = DIRECTION('',(0.,0.,1.));
#683 = ADVANCED_FACE('',(#684),#709,.F.);
#684 = FACE_BOUND('',#685,.F.);
#685 = EDGE_LOOP('',(#686,#696,#702,#703));
#686 = ORIENTED_EDGE('',*,*,#687,.F.);
#687 = EDGE_CURVE('',#688,#690,#692,.T.);
#688 = VERTEX_POINT('',#689);
#689 = CARTESIAN_POINT('',(0.5,-0.25,2.E-02));
#690 = VERTEX_POINT('',#691);
#691 = CARTESIAN_POINT('',(0.5,-0.25,0.48));
#692 = LINE('',#693,#694);
#693 = CARTESIAN_POINT('',(0.5,-0.25,0.));
#694 = VECTOR('',#695,1.);
#695 = DIRECTION('',(0.,0.,1.));
#696 = ORIENTED_EDGE('',*,*,#697,.F.);
#697 = EDGE_CURVE('',#602,#688,#698,.T.);
#698 = LINE('',#699,#700);
#699 = CARTESIAN_POINT('',(0.3,-0.25,2.E-02));
#700 = VECTOR('',#701,1.);
#701 = DIRECTION('',(1.,0.,0.));
#702 = ORIENTED_EDGE('',*,*,#601,.T.);
#703 = ORIENTED_EDGE('',*,*,#704,.T.);
#704 = EDGE_CURVE('',#604,#690,#705,.T.);
#705 = LINE('',#706,#707);
#706 = CARTESIAN_POINT('',(0.3,-0.25,0.48));
#707 = VECTOR('',#708,1.);
#708 = DIRECTION('',(1.,0.,0.));
#709 = PLANE('',#710);
#710 = AXIS2_PLACEMENT_3D('',#711,#712,#713);
#711 = CARTESIAN_POINT('',(0.3,-0.25,0.));
#712 = DIRECTION('',(0.,1.,0.));
#713 = DIRECTION('',(0.,-0.,1.));
#714 = ADVANCED_FACE('',(#715),#734,.T.);
#715 = FACE_BOUND('',#716,.T.);
#716 = EDGE_LOOP('',(#717,#718,#726,#733));
#717 = ORIENTED_EDGE('',*,*,#611,.T.);
#718 = ORIENTED_EDGE('',*,*,#719,.T.);
#719 = EDGE_CURVE('',#612,#720,#722,.T.);
#720 = VERTEX_POINT('',#721);
#721 = CARTESIAN_POINT('',(0.5,-0.23,0.));
#722 = LINE('',#723,#724);
#723 = CARTESIAN_POINT('',(0.3,-0.23,0.));
#724 = VECTOR('',#725,1.);
#725 = DIRECTION('',(1.,0.,0.));
#726 = ORIENTED_EDGE('',*,*,#727,.F.);
#727 = EDGE_CURVE('',#688,#720,#728,.T.);
#728 = CIRCLE('',#729,2.E-02);
#729 = AXIS2_PLACEMENT_3D('',#730,#731,#732);
#730 = CARTESIAN_POINT('',(0.5,-0.23,2.E-02));
#731 = DIRECTION('',(1.,0.,-0.));
#732 = DIRECTION('',(0.,0.,1.));
#733 = ORIENTED_EDGE('',*,*,#697,.F.);
#734 = CYLINDRICAL_SURFACE('',#735,2.E-02);
#735 = AXIS2_PLACEMENT_3D('',#736,#737,#738);
#736 = CARTESIAN_POINT('',(0.3,-0.23,2.E-02));
#737 = DIRECTION('',(1.,0.,0.));
#738 = DIRECTION('',(0.,-1.,0.));
#739 = ADVANCED_FACE('',(#740),#759,.T.);
#740 = FACE_BOUND('',#741,.T.);
#741 = EDGE_LOOP('',(#742,#743,#752,#758));
#742 = ORIENTED_EDGE('',*,*,#704,.T.);
#743 = ORIENTED_EDGE('',*,*,#744,.T.);
#744 = EDGE_CURVE('',#690,#745,#747,.T.);
#745 = VERTEX_POINT('',#746);
#746 = CARTESIAN_POINT('',(0.5,-0.23,0.5));
#747 = CIRCLE('',#748,2.E-02);
#748 = AXIS2_PLACEMENT_3D('',#749,#750,#751);
#749 = CARTESIAN_POINT('',(0.5,-0.23,0.48));
#750 = DIRECTION('',(-1.,0.,0.));
#751 = DIRECTION('',(0.,0.,1.));
#752 = ORIENTED_EDGE('',*,*,#753,.F.);
#753 = EDGE_CURVE('',#655,#745,#754,.T.);
#754 = LINE('',#755,#756);
#755 = CARTESIAN_POINT('',(0.3,-0.23,0.5));
#756 = VECTOR('',#757,1.);
#757 = DIRECTION('',(1.,0.,0.));
#758 = ORIENTED_EDGE('',*,*,#662,.F.);
#759 = CYLINDRICAL_SURFACE('',#760,2.E-02);
#760 = AXIS2_PLACEMENT_3D('',#761,#762,#763);
#761 = CARTESIAN_POINT('',(0.3,-0.23,0.48));
#762 = DIRECTION('',(1.,0.,0.));
#763 = DIRECTION('',(0.,-1.,0.));
#764 = ADVANCED_FACE('',(#765),#783,.F.);
#765 = FACE_BOUND('',#766,.F.);
#766 = EDGE_LOOP('',(#767,#768,#769,#777));
#767 = ORIENTED_EDGE('',*,*,#620,.F.);
#768 = ORIENTED_EDGE('',*,*,#719,.T.);
#769 = ORIENTED_EDGE('',*,*,#770,.T.);
#770 = EDGE_CURVE('',#720,#771,#773,.T.);
#771 = VERTEX_POINT('',#772);
#772 = CARTESIAN_POINT('',(0.5,0.23,0.));
#773 = LINE('',#774,#775);
#774 = CARTESIAN_POINT('',(0.5,-0.25,0.));
#775 = VECTOR('',#776,1.);
#776 = DIRECTION('',(0.,1.,0.));
#777 = ORIENTED_EDGE('',*,*,#778,.F.);
#778 = EDGE_CURVE('',#621,#771,#779,.T.);
#779 = LINE('',#780,#781);
#780 = CARTESIAN_POINT('',(0.3,0.23,0.));
#781 = VECTOR('',#782,1.);
#782 = DIRECTION('',(1.,0.,0.));
#783 = PLANE('',#784);
#784 = AXIS2_PLACEMENT_3D('',#785,#786,#787);
#785 = CARTESIAN_POINT('',(0.3,-0.25,0.));
#786 = DIRECTION('',(0.,0.,1.));
#787 = DIRECTION('',(1.,0.,-0.));
#788 = ADVANCED_FACE('',(#789),#807,.T.);
#789 = FACE_BOUND('',#790,.T.);
#790 = EDGE_LOOP('',(#791,#792,#793,#801));
#791 = ORIENTED_EDGE('',*,*,#654,.F.);
#792 = ORIENTED_EDGE('',*,*,#753,.T.);
#793 = ORIENTED_EDGE('',*,*,#794,.T.);
#794 = EDGE_CURVE('',#745,#795,#797,.T.);
#795 = VERTEX_POINT('',#796);
#796 = CARTESIAN_POINT('',(0.5,0.23,0.5));
#797 = LINE('',#798,#799);
#798 = CARTESIAN_POINT('',(0.5,-0.25,0.5));
#799 = VECTOR('',#800,1.);
#800 = DIRECTION('',(0.,1.,0.));
#801 = ORIENTED_EDGE('',*,*,#802,.F.);
#802 = EDGE_CURVE('',#646,#795,#803,.T.);
#803 = LINE('',#804,#805);
#804 = CARTESIAN_POINT('',(0.3,0.23,0.5));
#805 = VECTOR('',#806,1.);
#806 = DIRECTION('',(1.,0.,0.));
#807 = PLANE('',#808);
#808 = AXIS2_PLACEMENT_3D('',#809,#810,#811);
#809 = CARTESIAN_POINT('',(0.3,-0.25,0.5));
#810 = DIRECTION('',(0.,0.,1.));
#811 = DIRECTION('',(1.,0.,-0.));
#812 = ADVANCED_FACE('',(#813),#832,.T.);
#813 = FACE_BOUND('',#814,.T.);
#814 = EDGE_LOOP('',(#815,#823,#830,#831));
#815 = ORIENTED_EDGE('',*,*,#816,.T.);
#816 = EDGE_CURVE('',#629,#817,#819,.T.);
#817 = VERTEX_POINT('',#818);
#818 = CARTESIAN_POINT('',(0.5,0.25,2.E-02));
#819 = LINE('',#820,#821);
#820 = CARTESIAN_POINT('',(0.3,0.25,2.E-02));
#821 = VECTOR('',#822,1.);
#822 = DIRECTION('',(1.,0.,0.));
#823 = ORIENTED_EDGE('',*,*,#824,.T.);
#824 = EDGE_CURVE('',#817,#771,#825,.T.);
#825 = CIRCLE('',#826,2.E-02);
#826 = AXIS2_PLACEMENT_3D('',#827,#828,#829);
#827 = CARTESIAN_POINT('',(0.5,0.23,2.E-02));
#828 = DIRECTION('',(-1.,0.,0.));
#829 = DIRECTION('',(0.,0.,1.));
#830 = ORIENTED_EDGE('',*,*,#778,.F.);
#831 = ORIENTED_EDGE('',*,*,#628,.F.);
#832 = CYLINDRICAL_SURFACE('',#833,2.E-02);
#833 = AXIS2_PLACEMENT_3D('',#834,#835,#836);
#834 = CARTESIAN_POINT('',(0.3,0.23,2.E-02));
#835 = DIRECTION('',(1.,0.,0.));
#836 = DIRECTION('',(-0.,1.,0.));
#837 = ADVANCED_FACE('',(#838),#857,.T.);
#838 = FACE_BOUND('',#839,.T.);
#839 = EDGE_LOOP('',(#840,#841,#842,#851));
#840 = ORIENTED_EDGE('',*,*,#645,.T.);
#841 = ORIENTED_EDGE('',*,*,#802,.T.);
#842 = ORIENTED_EDGE('',*,*,#843,.F.);
#843 = EDGE_CURVE('',#844,#795,#846,.T.);
#844 = VERTEX_POINT('',#845);
#845 = CARTESIAN_POINT('',(0.5,0.25,0.48));
#846 = CIRCLE('',#847,2.E-02);
#847 = AXIS2_PLACEMENT_3D('',#848,#849,#850);
#848 = CARTESIAN_POINT('',(0.5,0.23,0.48));
#849 = DIRECTION('',(1.,0.,-0.));
#850 = DIRECTION('',(0.,0.,1.));
#851 = ORIENTED_EDGE('',*,*,#852,.F.);
#852 = EDGE_CURVE('',#638,#844,#853,.T.);
#853 = LINE('',#854,#855);
#854 = CARTESIAN_POINT('',(0.3,0.25,0.48));
#855 = VECTOR('',#856,1.);
#856 = DIRECTION('',(1.,0.,0.));
#857 = CYLINDRICAL_SURFACE('',#858,2.E-02);
#858 = AXIS2_PLACEMENT_3D('',#859,#860,#861);
#859 = CARTESIAN_POINT('',(0.3,0.23,0.48));
#860 = DIRECTION('',(1.,0.,0.));
#861 = DIRECTION('',(-0.,1.,0.));
#862 = ADVANCED_FACE('',(#863),#874,.T.);
#863 = FACE_BOUND('',#864,.T.);
#864 = EDGE_LOOP('',(#865,#871,#872,#873));
#865 = ORIENTED_EDGE('',*,*,#866,.F.);
#866 = EDGE_CURVE('',#817,#844,#867,.T.);
#867 = LINE('',#868,#869);
#868 = CARTESIAN_POINT('',(0.5,0.25,0.));
#869 = VECTOR('',#870,1.);
#870 = DIRECTION('',(0.,0.,1.));
#871 = ORIENTED_EDGE('',*,*,#816,.F.);
#872 = ORIENTED_EDGE('',*,*,#637,.T.);
#873 = ORIENTED_EDGE('',*,*,#852,.T.);
#874 = PLANE('',#875);
#875 = AXIS2_PLACEMENT_3D('',#876,#877,#878);
#876 = CARTESIAN_POINT('',(0.3,0.25,0.));
#877 = DIRECTION('',(0.,1.,0.));
#878 = DIRECTION('',(0.,-0.,1.));
#879 = ADVANCED_FACE('',(#880),#890,.T.);
#880 = FACE_BOUND('',#881,.T.);
#881 = EDGE_LOOP('',(#882,#883,#884,#885,#886,#887,#888,#889));
#882 = ORIENTED_EDGE('',*,*,#687,.F.);
#883 = ORIENTED_EDGE('',*,*,#727,.T.);
#884 = ORIENTED_EDGE('',*,*,#770,.T.);
#885 = ORIENTED_EDGE('',*,*,#824,.F.);
#886 = ORIENTED_EDGE('',*,*,#866,.T.);
#887 = ORIENTED_EDGE('',*,*,#843,.T.);
#888 = ORIENTED_EDGE('',*,*,#794,.F.);
#889 = ORIENTED_EDGE('',*,*,#744,.F.);
#890 = PLANE('',#891);
#891 = AXIS2_PLACEMENT_3D('',#892,#893,#894);
#892 = CARTESIAN_POINT('',(0.5,-0.25,0.));
#893 = DIRECTION('',(1.,0.,0.));
#894 = DIRECTION('',(0.,0.,1.));
#895 = ( GEOMETRIC_REPRESENTATION_CONTEXT(3) 
GLOBAL_UNCERTAINTY_ASSIGNED_CONTEXT((#899)) GLOBAL_UNIT_ASSIGNED_CONTEXT
((#896,#897,#898)) REPRESENTATION_CONTEXT('Context #1',
  '3D Context with UNIT and UNCERTAINTY') );
#896 = ( LENGTH_UNIT() NAMED_UNIT(*) SI_UNIT(.MILLI.,.METRE.) );
#897 = ( NAMED_UNIT(*) PLANE_ANGLE_UNIT() SI_UNIT($,.RADIAN.) );
#898 = ( NAMED_UNIT(*) SI_UNIT($,.STERADIAN.) SOLID_ANGLE_UNIT() );
#899 = UNCERTAINTY_MEASURE_WITH_UNIT(LENGTH_MEASURE(1.E-07),#896,
  'distance_accuracy_value','confusion accuracy');
#900 = CONTEXT_DEPENDENT_SHAPE_REPRESENTATION(#901,#903);
#901 = ( REPRESENTATION_RELATIONSHIP('','',#40,#10) 
REPRESENTATION_RELATIONSHIP_WITH_TRANSFORMATION(#902) 
SHAPE_REPRESENTATION_RELATIONSHIP() );
#902 = ITEM_DEFINED_TRANSFORMATION('','',#11,#15);
#903 = PRODUCT_DEFINITION_SHAPE('Placement','Placement of an item',#904
  );
#904 = NEXT_ASSEMBLY_USAGE_OCCURRENCE('1','C1','',#5,#35,$);
#905 = PRODUCT_RELATED_PRODUCT_CATEGORY('part',$,(#37));
#906 = CONTEXT_DEPENDENT_SHAPE_REPRESENTATION(#907,#909);
#907 = ( REPRESENTATION_RELATIONSHIP('','',#40,#10) 
REPRESENTATION_RELATIONSHIP_WITH_TRANSFORMATION(#908) 
SHAPE_REPRESENTATION_RELATIONSHIP() );
#908 = ITEM_DEFINED_TRANSFORMATION('','',#11,#19);
#909 = PRODUCT_DEFINITION_SHAPE('Placement','Placement of an item',#910
  );
#910 = NEXT_ASSEMBLY_USAGE_OCCURRENCE('2','C2','',#5,#35,$);
#911 = SHAPE_DEFINITION_REPRESENTATION(#912,#918);
#912 = PRODUCT_DEFINITION_SHAPE('','',#913);
#913 = PRODUCT_DEFINITION('design','',#914,#917);
#914 = PRODUCT_DEFINITION_FORMATION('','',#915);
#915 = PRODUCT('S-Band LGR_PCB','S-Band LGR_PCB','',(#916));
#916 = PRODUCT_CONTEXT('',#2,'mechanical');
#917 = PRODUCT_DEFINITION_CONTEXT('part definition',#2,'design');
#918 = ADVANCED_BREP_SHAPE_REPRESENTATION('',(#11,#919),#1680);
#919 = MANIFOLD_SOLID_BREP('',#920);
#920 = CLOSED_SHELL('',(#921,#963,#994,#1027,#1203,#1379,#1396,#1413,
    #1425,#1442,#1459,#1476,#1498,#1515,#1532,#1549,#1566,#1583,#1600,
    #1617,#1634,#1651,#1663));
#921 = ADVANCED_FACE('',(#922),#958,.T.);
#922 = FACE_BOUND('',#923,.T.);
#923 = EDGE_LOOP('',(#924,#934,#943,#951));
#924 = ORIENTED_EDGE('',*,*,#925,.T.);
#925 = EDGE_CURVE('',#926,#928,#930,.T.);
#926 = VERTEX_POINT('',#927);
#927 = CARTESIAN_POINT('',(16.112919,10.068467,0.));
#928 = VERTEX_POINT('',#929);
#929 = CARTESIAN_POINT('',(16.112919,10.068467,1.51));
#930 = LINE('',#931,#932);
#931 = CARTESIAN_POINT('',(16.112919,10.068467,0.));
#932 = VECTOR('',#933,1.);
#933 = DIRECTION('',(0.,0.,1.));
#934 = ORIENTED_EDGE('',*,*,#935,.T.);
#935 = EDGE_CURVE('',#928,#936,#938,.T.);
#936 = VERTEX_POINT('',#937);
#937 = CARTESIAN_POINT('',(19.,1.221245432967E-15,1.51));
#938 = CIRCLE('',#939,18.999940895942);
#939 = AXIS2_PLACEMENT_3D('',#940,#941,#942);
#940 = CARTESIAN_POINT('',(5.910407604937E-05,2.620593383429E-05,1.51));
#941 = DIRECTION('',(0.,0.,-1.));
#942 = DIRECTION('',(0.848047895737,0.529919584972,0.));
#943 = ORIENTED_EDGE('',*,*,#944,.F.);
#944 = EDGE_CURVE('',#945,#936,#947,.T.);
#945 = VERTEX_POINT('',#946);
#946 = CARTESIAN_POINT('',(19.,1.221245432967E-15,0.));
#947 = LINE('',#948,#949);
#948 = CARTESIAN_POINT('',(19.,1.221245432967E-15,0.));
#949 = VECTOR('',#950,1.);
#950 = DIRECTION('',(0.,0.,1.));
#951 = ORIENTED_EDGE('',*,*,#952,.F.);
#952 = EDGE_CURVE('',#926,#945,#953,.T.);
#953 = CIRCLE('',#954,18.999940895942);
#954 = AXIS2_PLACEMENT_3D('',#955,#956,#957);
#955 = CARTESIAN_POINT('',(5.910407604937E-05,2.620593383429E-05,0.));
#956 = DIRECTION('',(0.,0.,-1.));
#957 = DIRECTION('',(0.848047895737,0.529919584972,0.));
#958 = CYLINDRICAL_SURFACE('',#959,18.999940895942);
#959 = AXIS2_PLACEMENT_3D('',#960,#961,#962);
#960 = CARTESIAN_POINT('',(5.910407604937E-05,2.620593383429E-05,0.));
#961 = DIRECTION('',(0.,0.,-1.));
#962 = DIRECTION('',(0.848047895737,0.529919584972,0.));
#963 = ADVANCED_FACE('',(#964),#989,.T.);
#964 = FACE_BOUND('',#965,.T.);
#965 = EDGE_LOOP('',(#966,#976,#982,#983));
#966 = ORIENTED_EDGE('',*,*,#967,.T.);
#967 = EDGE_CURVE('',#968,#970,#972,.T.);
#968 = VERTEX_POINT('',#969);
#969 = CARTESIAN_POINT('',(-16.112914,10.068466,0.));
#970 = VERTEX_POINT('',#971);
#971 = CARTESIAN_POINT('',(-16.112914,10.068466,1.51));
#972 = LINE('',#973,#974);
#973 = CARTESIAN_POINT('',(-16.112914,10.068466,0.));
#974 = VECTOR('',#975,1.);
#975 = DIRECTION('',(0.,0.,1.));
#976 = ORIENTED_EDGE('',*,*,#977,.T.);
#977 = EDGE_CURVE('',#970,#928,#978,.T.);
#978 = LINE('',#979,#980);
#979 = CARTESIAN_POINT('',(-16.112914,10.068466,1.51));
#980 = VECTOR('',#981,1.);
#981 = DIRECTION('',(1.,3.103100544373E-08,0.));
#982 = ORIENTED_EDGE('',*,*,#925,.F.);
#983 = ORIENTED_EDGE('',*,*,#984,.F.);
#984 = EDGE_CURVE('',#968,#926,#985,.T.);
#985 = LINE('',#986,#987);
#986 = CARTESIAN_POINT('',(-16.112914,10.068466,0.));
#987 = VECTOR('',#988,1.);
#988 = DIRECTION('',(1.,3.103100544373E-08,0.));
#989 = PLANE('',#990);
#990 = AXIS2_PLACEMENT_3D('',#991,#992,#993);
#991 = CARTESIAN_POINT('',(-16.112914,10.068466,0.));
#992 = DIRECTION('',(-3.103100544373E-08,1.,0.));
#993 = DIRECTION('',(1.,3.103100544373E-08,0.));
#994 = ADVANCED_FACE('',(#995),#1022,.T.);
#995 = FACE_BOUND('',#996,.T.);
#996 = EDGE_LOOP('',(#997,#998,#1007,#1015));
#997 = ORIENTED_EDGE('',*,*,#944,.T.);
#998 = ORIENTED_EDGE('',*,*,#999,.T.);
#999 = EDGE_CURVE('',#936,#1000,#1002,.T.);
#1000 = VERTEX_POINT('',#1001);
#1001 = CARTESIAN_POINT('',(16.112914,-10.068466,1.51));
#1002 = CIRCLE('',#1003,19.000005431354);
#1003 = AXIS2_PLACEMENT_3D('',#1004,#1005,#1006);
#1004 = CARTESIAN_POINT('',(-5.431354040297E-06,1.300943977212E-06,1.51)
  );
#1005 = DIRECTION('',(0.,0.,-1.));
#1006 = DIRECTION('',(1.,-6.847071606963E-08,0.));
#1007 = ORIENTED_EDGE('',*,*,#1008,.F.);
#1008 = EDGE_CURVE('',#1009,#1000,#1011,.T.);
#1009 = VERTEX_POINT('',#1010);
#1010 = CARTESIAN_POINT('',(16.112914,-10.068466,0.));
#1011 = LINE('',#1012,#1013);
#1012 = CARTESIAN_POINT('',(16.112914,-10.068466,0.));
#1013 = VECTOR('',#1014,1.);
#1014 = DIRECTION('',(0.,0.,1.));
#1015 = ORIENTED_EDGE('',*,*,#1016,.F.);
#1016 = EDGE_CURVE('',#945,#1009,#1017,.T.);
#1017 = CIRCLE('',#1018,19.000005431354);
#1018 = AXIS2_PLACEMENT_3D('',#1019,#1020,#1021);
#1019 = CARTESIAN_POINT('',(-5.431354040297E-06,1.300943977212E-06,0.));
#1020 = DIRECTION('',(0.,0.,-1.));
#1021 = DIRECTION('',(1.,-6.847071606963E-08,0.));
#1022 = CYLINDRICAL_SURFACE('',#1023,19.000005431354);
#1023 = AXIS2_PLACEMENT_3D('',#1024,#1025,#1026);
#1024 = CARTESIAN_POINT('',(-5.431354040297E-06,1.300943977212E-06,0.));
#1025 = DIRECTION('',(0.,0.,-1.));
#1026 = DIRECTION('',(1.,-6.847071606963E-08,0.));
#1027 = ADVANCED_FACE('',(#1028,#1057,#1068,#1079,#1090,#1187),#1198,.F.
  );
#1028 = FACE_BOUND('',#1029,.F.);
#1029 = EDGE_LOOP('',(#1030,#1031,#1032,#1041,#1050,#1056));
#1030 = ORIENTED_EDGE('',*,*,#952,.F.);
#1031 = ORIENTED_EDGE('',*,*,#984,.F.);
#1032 = ORIENTED_EDGE('',*,*,#1033,.F.);
#1033 = EDGE_CURVE('',#1034,#968,#1036,.T.);
#1034 = VERTEX_POINT('',#1035);
#1035 = CARTESIAN_POINT('',(-19.,-1.221245432967E-15,0.));
#1036 = CIRCLE('',#1037,19.000005431354);
#1037 = AXIS2_PLACEMENT_3D('',#1038,#1039,#1040);
#1038 = CARTESIAN_POINT('',(5.431354040297E-06,-1.300943977212E-06,0.));
#1039 = DIRECTION('',(0.,0.,-1.));
#1040 = DIRECTION('',(-1.,6.847071606963E-08,0.));
#1041 = ORIENTED_EDGE('',*,*,#1042,.F.);
#1042 = EDGE_CURVE('',#1043,#1034,#1045,.T.);
#1043 = VERTEX_POINT('',#1044);
#1044 = CARTESIAN_POINT('',(-16.112919,-10.068467,0.));
#1045 = CIRCLE('',#1046,18.999940895942);
#1046 = AXIS2_PLACEMENT_3D('',#1047,#1048,#1049);
#1047 = CARTESIAN_POINT('',(-5.910407604937E-05,-2.620593383429E-05,0.)
  );
#1048 = DIRECTION('',(0.,0.,-1.));
#1049 = DIRECTION('',(-0.848047895737,-0.529919584972,-0.));
#1050 = ORIENTED_EDGE('',*,*,#1051,.F.);
#1051 = EDGE_CURVE('',#1009,#1043,#1052,.T.);
#1052 = LINE('',#1053,#1054);
#1053 = CARTESIAN_POINT('',(16.112914,-10.068466,0.));
#1054 = VECTOR('',#1055,1.);
#1055 = DIRECTION('',(-1.,-3.103100544373E-08,0.));
#1056 = ORIENTED_EDGE('',*,*,#1016,.F.);
#1057 = FACE_BOUND('',#1058,.F.);
#1058 = EDGE_LOOP('',(#1059));
#1059 = ORIENTED_EDGE('',*,*,#1060,.T.);
#1060 = EDGE_CURVE('',#1061,#1061,#1063,.T.);
#1061 = VERTEX_POINT('',#1062);
#1062 = CARTESIAN_POINT('',(-14.,-8.2192,0.));
#1063 = CIRCLE('',#1064,1.2192);
#1064 = AXIS2_PLACEMENT_3D('',#1065,#1066,#1067);
#1065 = CARTESIAN_POINT('',(-14.,-7.,0.));
#1066 = DIRECTION('',(-0.,0.,-1.));
#1067 = DIRECTION('',(-0.,-1.,0.));
#1068 = FACE_BOUND('',#1069,.F.);
#1069 = EDGE_LOOP('',(#1070));
#1070 = ORIENTED_EDGE('',*,*,#1071,.T.);
#1071 = EDGE_CURVE('',#1072,#1072,#1074,.T.);
#1072 = VERTEX_POINT('',#1073);
#1073 = CARTESIAN_POINT('',(14.,-8.2192,0.));
#1074 = CIRCLE('',#1075,1.2192);
#1075 = AXIS2_PLACEMENT_3D('',#1076,#1077,#1078);
#1076 = CARTESIAN_POINT('',(14.,-7.,0.));
#1077 = DIRECTION('',(-0.,0.,-1.));
#1078 = DIRECTION('',(-0.,-1.,0.));
#1079 = FACE_BOUND('',#1080,.F.);
#1080 = EDGE_LOOP('',(#1081));
#1081 = ORIENTED_EDGE('',*,*,#1082,.T.);
#1082 = EDGE_CURVE('',#1083,#1083,#1085,.T.);
#1083 = VERTEX_POINT('',#1084);
#1084 = CARTESIAN_POINT('',(-14.,5.7808,0.));
#1085 = CIRCLE('',#1086,1.2192);
#1086 = AXIS2_PLACEMENT_3D('',#1087,#1088,#1089);
#1087 = CARTESIAN_POINT('',(-14.,7.,0.));
#1088 = DIRECTION('',(-0.,0.,-1.));
#1089 = DIRECTION('',(-0.,-1.,0.));
#1090 = FACE_BOUND('',#1091,.F.);
#1091 = EDGE_LOOP('',(#1092,#1103,#1112,#1120,#1129,#1138,#1146,#1155,
    #1163,#1172,#1181));
#1092 = ORIENTED_EDGE('',*,*,#1093,.T.);
#1093 = EDGE_CURVE('',#1094,#1096,#1098,.T.);
#1094 = VERTEX_POINT('',#1095);
#1095 = CARTESIAN_POINT('',(2.587952858922,-0.25,0.));
#1096 = VERTEX_POINT('',#1097);
#1097 = CARTESIAN_POINT('',(-4.930380657631E-32,-2.6,0.));
#1098 = CIRCLE('',#1099,2.6);
#1099 = AXIS2_PLACEMENT_3D('',#1100,#1101,#1102);
#1100 = CARTESIAN_POINT('',(-2.22044604925E-16,4.440892098501E-16,0.));
#1101 = DIRECTION('',(-0.,0.,-1.));
#1102 = DIRECTION('',(8.540177112501E-17,-1.,-0.));
#1103 = ORIENTED_EDGE('',*,*,#1104,.T.);
#1104 = EDGE_CURVE('',#1096,#1105,#1107,.T.);
#1105 = VERTEX_POINT('',#1106);
#1106 = CARTESIAN_POINT('',(-2.587952858922,-0.25,0.));
#1107 = CIRCLE('',#1108,2.6);
#1108 = AXIS2_PLACEMENT_3D('',#1109,#1110,#1111);
#1109 = CARTESIAN_POINT('',(-2.22044604925E-16,4.440892098501E-16,0.));
#1110 = DIRECTION('',(-0.,0.,-1.));
#1111 = DIRECTION('',(8.540177112501E-17,-1.,-0.));
#1112 = ORIENTED_EDGE('',*,*,#1113,.T.);
#1113 = EDGE_CURVE('',#1105,#1114,#1116,.T.);
#1114 = VERTEX_POINT('',#1115);
#1115 = CARTESIAN_POINT('',(-6.859936306378,-0.25,0.));
#1116 = LINE('',#1117,#1118);
#1117 = CARTESIAN_POINT('',(-4.875,-0.25,0.));
#1118 = VECTOR('',#1119,1.);
#1119 = DIRECTION('',(-1.,0.,0.));
#1120 = ORIENTED_EDGE('',*,*,#1121,.T.);
#1121 = EDGE_CURVE('',#1114,#1122,#1124,.T.);
#1122 = VERTEX_POINT('',#1123);
#1123 = CARTESIAN_POINT('',(-10.,-3.15,0.));
#1124 = CIRCLE('',#1125,3.15);
#1125 = AXIS2_PLACEMENT_3D('',#1126,#1127,#1128);
#1126 = CARTESIAN_POINT('',(-10.,-7.771561172376E-16,0.));
#1127 = DIRECTION('',(-0.,0.,-1.));
#1128 = DIRECTION('',(-0.,-1.,0.));
#1129 = ORIENTED_EDGE('',*,*,#1130,.T.);
#1130 = EDGE_CURVE('',#1122,#1131,#1133,.T.);
#1131 = VERTEX_POINT('',#1132);
#1132 = CARTESIAN_POINT('',(-6.859936306378,0.25,0.));
#1133 = CIRCLE('',#1134,3.15);
#1134 = AXIS2_PLACEMENT_3D('',#1135,#1136,#1137);
#1135 = CARTESIAN_POINT('',(-10.,-7.771561172376E-16,0.));
#1136 = DIRECTION('',(-0.,0.,-1.));
#1137 = DIRECTION('',(-0.,-1.,0.));
#1138 = ORIENTED_EDGE('',*,*,#1139,.T.);
#1139 = EDGE_CURVE('',#1131,#1140,#1142,.T.);
#1140 = VERTEX_POINT('',#1141);
#1141 = CARTESIAN_POINT('',(-2.587952858922,0.25,0.));
#1142 = LINE('',#1143,#1144);
#1143 = CARTESIAN_POINT('',(4.875,0.25,0.));
#1144 = VECTOR('',#1145,1.);
#1145 = DIRECTION('',(1.,0.,-0.));
#1146 = ORIENTED_EDGE('',*,*,#1147,.T.);
#1147 = EDGE_CURVE('',#1140,#1148,#1150,.T.);
#1148 = VERTEX_POINT('',#1149);
#1149 = CARTESIAN_POINT('',(2.587952858922,0.25,0.));
#1150 = CIRCLE('',#1151,2.6);
#1151 = AXIS2_PLACEMENT_3D('',#1152,#1153,#1154);
#1152 = CARTESIAN_POINT('',(-2.22044604925E-16,4.440892098501E-16,0.));
#1153 = DIRECTION('',(-0.,0.,-1.));
#1154 = DIRECTION('',(8.540177112501E-17,-1.,-0.));
#1155 = ORIENTED_EDGE('',*,*,#1156,.T.);
#1156 = EDGE_CURVE('',#1148,#1157,#1159,.T.);
#1157 = VERTEX_POINT('',#1158);
#1158 = CARTESIAN_POINT('',(6.859936306378,0.25,0.));
#1159 = LINE('',#1160,#1161);
#1160 = CARTESIAN_POINT('',(4.875,0.25,0.));
#1161 = VECTOR('',#1162,1.);
#1162 = DIRECTION('',(1.,0.,-0.));
#1163 = ORIENTED_EDGE('',*,*,#1164,.T.);
#1164 = EDGE_CURVE('',#1157,#1165,#1167,.T.);
#1165 = VERTEX_POINT('',#1166);
#1166 = CARTESIAN_POINT('',(10.,-3.15,0.));
#1167 = CIRCLE('',#1168,3.15);
#1168 = AXIS2_PLACEMENT_3D('',#1169,#1170,#1171);
#1169 = CARTESIAN_POINT('',(10.,-7.771561172376E-16,0.));
#1170 = DIRECTION('',(-0.,0.,-1.));
#1171 = DIRECTION('',(-0.,-1.,0.));
#1172 = ORIENTED_EDGE('',*,*,#1173,.T.);
#1173 = EDGE_CURVE('',#1165,#1174,#1176,.T.);
#1174 = VERTEX_POINT('',#1175);
#1175 = CARTESIAN_POINT('',(6.859936306378,-0.25,0.));
#1176 = CIRCLE('',#1177,3.15);
#1177 = AXIS2_PLACEMENT_3D('',#1178,#1179,#1180);
#1178 = CARTESIAN_POINT('',(10.,-7.771561172376E-16,0.));
#1179 = DIRECTION('',(-0.,0.,-1.));
#1180 = DIRECTION('',(-0.,-1.,0.));
#1181 = ORIENTED_EDGE('',*,*,#1182,.T.);
#1182 = EDGE_CURVE('',#1174,#1094,#1183,.T.);
#1183 = LINE('',#1184,#1185);
#1184 = CARTESIAN_POINT('',(-4.875,-0.25,0.));
#1185 = VECTOR('',#1186,1.);
#1186 = DIRECTION('',(-1.,0.,0.));
#1187 = FACE_BOUND('',#1188,.F.);
#1188 = EDGE_LOOP('',(#1189));
#1189 = ORIENTED_EDGE('',*,*,#1190,.T.);
#1190 = EDGE_CURVE('',#1191,#1191,#1193,.T.);
#1191 = VERTEX_POINT('',#1192);
#1192 = CARTESIAN_POINT('',(14.,5.7808,0.));
#1193 = CIRCLE('',#1194,1.2192);
#1194 = AXIS2_PLACEMENT_3D('',#1195,#1196,#1197);
#1195 = CARTESIAN_POINT('',(14.,7.,0.));
#1196 = DIRECTION('',(-0.,0.,-1.));
#1197 = DIRECTION('',(-0.,-1.,0.));
#1198 = PLANE('',#1199);
#1199 = AXIS2_PLACEMENT_3D('',#1200,#1201,#1202);
#1200 = CARTESIAN_POINT('',(0.,0.,0.));
#1201 = DIRECTION('',(0.,0.,1.));
#1202 = DIRECTION('',(1.,0.,-0.));
#1203 = ADVANCED_FACE('',(#1204,#1233,#1244,#1255,#1266,#1363),#1374,.T.
  );
#1204 = FACE_BOUND('',#1205,.T.);
#1205 = EDGE_LOOP('',(#1206,#1207,#1208,#1217,#1226,#1232));
#1206 = ORIENTED_EDGE('',*,*,#935,.F.);
#1207 = ORIENTED_EDGE('',*,*,#977,.F.);
#1208 = ORIENTED_EDGE('',*,*,#1209,.F.);
#1209 = EDGE_CURVE('',#1210,#970,#1212,.T.);
#1210 = VERTEX_POINT('',#1211);
#1211 = CARTESIAN_POINT('',(-19.,-1.221245432967E-15,1.51));
#1212 = CIRCLE('',#1213,19.000005431354);
#1213 = AXIS2_PLACEMENT_3D('',#1214,#1215,#1216);
#1214 = CARTESIAN_POINT('',(5.431354040297E-06,-1.300943977212E-06,1.51)
  );
#1215 = DIRECTION('',(0.,0.,-1.));
#1216 = DIRECTION('',(-1.,6.847071606963E-08,0.));
#1217 = ORIENTED_EDGE('',*,*,#1218,.F.);
#1218 = EDGE_CURVE('',#1219,#1210,#1221,.T.);
#1219 = VERTEX_POINT('',#1220);
#1220 = CARTESIAN_POINT('',(-16.112919,-10.068467,1.51));
#1221 = CIRCLE('',#1222,18.999940895942);
#1222 = AXIS2_PLACEMENT_3D('',#1223,#1224,#1225);
#1223 = CARTESIAN_POINT('',(-5.910407604937E-05,-2.620593383429E-05,1.51
    ));
#1224 = DIRECTION('',(0.,0.,-1.));
#1225 = DIRECTION('',(-0.848047895737,-0.529919584972,-0.));
#1226 = ORIENTED_EDGE('',*,*,#1227,.F.);
#1227 = EDGE_CURVE('',#1000,#1219,#1228,.T.);
#1228 = LINE('',#1229,#1230);
#1229 = CARTESIAN_POINT('',(16.112914,-10.068466,1.51));
#1230 = VECTOR('',#1231,1.);
#1231 = DIRECTION('',(-1.,-3.103100544373E-08,0.));
#1232 = ORIENTED_EDGE('',*,*,#999,.F.);
#1233 = FACE_BOUND('',#1234,.T.);
#1234 = EDGE_LOOP('',(#1235));
#1235 = ORIENTED_EDGE('',*,*,#1236,.T.);
#1236 = EDGE_CURVE('',#1237,#1237,#1239,.T.);
#1237 = VERTEX_POINT('',#1238);
#1238 = CARTESIAN_POINT('',(-14.,-8.2192,1.51));
#1239 = CIRCLE('',#1240,1.2192);
#1240 = AXIS2_PLACEMENT_3D('',#1241,#1242,#1243);
#1241 = CARTESIAN_POINT('',(-14.,-7.,1.51));
#1242 = DIRECTION('',(-0.,0.,-1.));
#1243 = DIRECTION('',(-0.,-1.,0.));
#1244 = FACE_BOUND('',#1245,.T.);
#1245 = EDGE_LOOP('',(#1246));
#1246 = ORIENTED_EDGE('',*,*,#1247,.T.);
#1247 = EDGE_CURVE('',#1248,#1248,#1250,.T.);
#1248 = VERTEX_POINT('',#1249);
#1249 = CARTESIAN_POINT('',(14.,-8.2192,1.51));
#1250 = CIRCLE('',#1251,1.2192);
#1251 = AXIS2_PLACEMENT_3D('',#1252,#1253,#1254);
#1252 = CARTESIAN_POINT('',(14.,-7.,1.51));
#1253 = DIRECTION('',(-0.,0.,-1.));
#1254 = DIRECTION('',(-0.,-1.,0.));
#1255 = FACE_BOUND('',#1256,.T.);
#1256 = EDGE_LOOP('',(#1257));
#1257 = ORIENTED_EDGE('',*,*,#1258,.T.);
#1258 = EDGE_CURVE('',#1259,#1259,#1261,.T.);
#1259 = VERTEX_POINT('',#1260);
#1260 = CARTESIAN_POINT('',(-14.,5.7808,1.51));
#1261 = CIRCLE('',#1262,1.2192);
#1262 = AXIS2_PLACEMENT_3D('',#1263,#1264,#1265);
#1263 = CARTESIAN_POINT('',(-14.,7.,1.51));
#1264 = DIRECTION('',(-0.,0.,-1.));
#1265 = DIRECTION('',(-0.,-1.,0.));
#1266 = FACE_BOUND('',#1267,.T.);
#1267 = EDGE_LOOP('',(#1268,#1279,#1288,#1296,#1305,#1314,#1322,#1331,
    #1339,#1348,#1357));
#1268 = ORIENTED_EDGE('',*,*,#1269,.T.);
#1269 = EDGE_CURVE('',#1270,#1272,#1274,.T.);
#1270 = VERTEX_POINT('',#1271);
#1271 = CARTESIAN_POINT('',(2.587952858922,-0.25,1.51));
#1272 = VERTEX_POINT('',#1273);
#1273 = CARTESIAN_POINT('',(-4.930380657631E-32,-2.6,1.51));
#1274 = CIRCLE('',#1275,2.6);
#1275 = AXIS2_PLACEMENT_3D('',#1276,#1277,#1278);
#1276 = CARTESIAN_POINT('',(-2.22044604925E-16,4.440892098501E-16,1.51)
  );
#1277 = DIRECTION('',(-0.,0.,-1.));
#1278 = DIRECTION('',(8.540177112501E-17,-1.,-0.));
#1279 = ORIENTED_EDGE('',*,*,#1280,.T.);
#1280 = EDGE_CURVE('',#1272,#1281,#1283,.T.);
#1281 = VERTEX_POINT('',#1282);
#1282 = CARTESIAN_POINT('',(-2.587952858922,-0.25,1.51));
#1283 = CIRCLE('',#1284,2.6);
#1284 = AXIS2_PLACEMENT_3D('',#1285,#1286,#1287);
#1285 = CARTESIAN_POINT('',(-2.22044604925E-16,4.440892098501E-16,1.51)
  );
#1286 = DIRECTION('',(-0.,0.,-1.));
#1287 = DIRECTION('',(8.540177112501E-17,-1.,-0.));
#1288 = ORIENTED_EDGE('',*,*,#1289,.T.);
#1289 = EDGE_CURVE('',#1281,#1290,#1292,.T.);
#1290 = VERTEX_POINT('',#1291);
#1291 = CARTESIAN_POINT('',(-6.859936306378,-0.25,1.51));
#1292 = LINE('',#1293,#1294);
#1293 = CARTESIAN_POINT('',(-4.875,-0.25,1.51));
#1294 = VECTOR('',#1295,1.);
#1295 = DIRECTION('',(-1.,0.,0.));
#1296 = ORIENTED_EDGE('',*,*,#1297,.T.);
#1297 = EDGE_CURVE('',#1290,#1298,#1300,.T.);
#1298 = VERTEX_POINT('',#1299);
#1299 = CARTESIAN_POINT('',(-10.,-3.15,1.51));
#1300 = CIRCLE('',#1301,3.15);
#1301 = AXIS2_PLACEMENT_3D('',#1302,#1303,#1304);
#1302 = CARTESIAN_POINT('',(-10.,-7.771561172376E-16,1.51));
#1303 = DIRECTION('',(-0.,0.,-1.));
#1304 = DIRECTION('',(-0.,-1.,0.));
#1305 = ORIENTED_EDGE('',*,*,#1306,.T.);
#1306 = EDGE_CURVE('',#1298,#1307,#1309,.T.);
#1307 = VERTEX_POINT('',#1308);
#1308 = CARTESIAN_POINT('',(-6.859936306378,0.25,1.51));
#1309 = CIRCLE('',#1310,3.15);
#1310 = AXIS2_PLACEMENT_3D('',#1311,#1312,#1313);
#1311 = CARTESIAN_POINT('',(-10.,-7.771561172376E-16,1.51));
#1312 = DIRECTION('',(-0.,0.,-1.));
#1313 = DIRECTION('',(-0.,-1.,0.));
#1314 = ORIENTED_EDGE('',*,*,#1315,.T.);
#1315 = EDGE_CURVE('',#1307,#1316,#1318,.T.);
#1316 = VERTEX_POINT('',#1317);
#1317 = CARTESIAN_POINT('',(-2.587952858922,0.25,1.51));
#1318 = LINE('',#1319,#1320);
#1319 = CARTESIAN_POINT('',(4.875,0.25,1.51));
#1320 = VECTOR('',#1321,1.);
#1321 = DIRECTION('',(1.,0.,-0.));
#1322 = ORIENTED_EDGE('',*,*,#1323,.T.);
#1323 = EDGE_CURVE('',#1316,#1324,#1326,.T.);
#1324 = VERTEX_POINT('',#1325);
#1325 = CARTESIAN_POINT('',(2.587952858922,0.25,1.51));
#1326 = CIRCLE('',#1327,2.6);
#1327 = AXIS2_PLACEMENT_3D('',#1328,#1329,#1330);
#1328 = CARTESIAN_POINT('',(-2.22044604925E-16,4.440892098501E-16,1.51)
  );
#1329 = DIRECTION('',(-0.,0.,-1.));
#1330 = DIRECTION('',(8.540177112501E-17,-1.,-0.));
#1331 = ORIENTED_EDGE('',*,*,#1332,.T.);
#1332 = EDGE_CURVE('',#1324,#1333,#1335,.T.);
#1333 = VERTEX_POINT('',#1334);
#1334 = CARTESIAN_POINT('',(6.859936306378,0.25,1.51));
#1335 = LINE('',#1336,#1337);
#1336 = CARTESIAN_POINT('',(4.875,0.25,1.51));
#1337 = VECTOR('',#1338,1.);
#1338 = DIRECTION('',(1.,0.,-0.));
#1339 = ORIENTED_EDGE('',*,*,#1340,.T.);
#1340 = EDGE_CURVE('',#1333,#1341,#1343,.T.);
#1341 = VERTEX_POINT('',#1342);
#1342 = CARTESIAN_POINT('',(10.,-3.15,1.51));
#1343 = CIRCLE('',#1344,3.15);
#1344 = AXIS2_PLACEMENT_3D('',#1345,#1346,#1347);
#1345 = CARTESIAN_POINT('',(10.,-7.771561172376E-16,1.51));
#1346 = DIRECTION('',(-0.,0.,-1.));
#1347 = DIRECTION('',(-0.,-1.,0.));
#1348 = ORIENTED_EDGE('',*,*,#1349,.T.);
#1349 = EDGE_CURVE('',#1341,#1350,#1352,.T.);
#1350 = VERTEX_POINT('',#1351);
#1351 = CARTESIAN_POINT('',(6.859936306378,-0.25,1.51));
#1352 = CIRCLE('',#1353,3.15);
#1353 = AXIS2_PLACEMENT_3D('',#1354,#1355,#1356);
#1354 = CARTESIAN_POINT('',(10.,-7.771561172376E-16,1.51));
#1355 = DIRECTION('',(-0.,0.,-1.));
#1356 = DIRECTION('',(-0.,-1.,0.));
#1357 = ORIENTED_EDGE('',*,*,#1358,.T.);
#1358 = EDGE_CURVE('',#1350,#1270,#1359,.T.);
#1359 = LINE('',#1360,#1361);
#1360 = CARTESIAN_POINT('',(-4.875,-0.25,1.51));
#1361 = VECTOR('',#1362,1.);
#1362 = DIRECTION('',(-1.,0.,0.));
#1363 = FACE_BOUND('',#1364,.T.);
#1364 = EDGE_LOOP('',(#1365));
#1365 = ORIENTED_EDGE('',*,*,#1366,.T.);
#1366 = EDGE_CURVE('',#1367,#1367,#1369,.T.);
#1367 = VERTEX_POINT('',#1368);
#1368 = CARTESIAN_POINT('',(14.,5.7808,1.51));
#1369 = CIRCLE('',#1370,1.2192);
#1370 = AXIS2_PLACEMENT_3D('',#1371,#1372,#1373);
#1371 = CARTESIAN_POINT('',(14.,7.,1.51));
#1372 = DIRECTION('',(-0.,0.,-1.));
#1373 = DIRECTION('',(-0.,-1.,0.));
#1374 = PLANE('',#1375);
#1375 = AXIS2_PLACEMENT_3D('',#1376,#1377,#1378);
#1376 = CARTESIAN_POINT('',(0.,0.,1.51));
#1377 = DIRECTION('',(0.,0.,1.));
#1378 = DIRECTION('',(1.,0.,-0.));
#1379 = ADVANCED_FACE('',(#1380),#1391,.T.);
#1380 = FACE_BOUND('',#1381,.T.);
#1381 = EDGE_LOOP('',(#1382,#1388,#1389,#1390));
#1382 = ORIENTED_EDGE('',*,*,#1383,.T.);
#1383 = EDGE_CURVE('',#1034,#1210,#1384,.T.);
#1384 = LINE('',#1385,#1386);
#1385 = CARTESIAN_POINT('',(-19.,-1.221245432967E-15,0.));
#1386 = VECTOR('',#1387,1.);
#1387 = DIRECTION('',(0.,0.,1.));
#1388 = ORIENTED_EDGE('',*,*,#1209,.T.);
#1389 = ORIENTED_EDGE('',*,*,#967,.F.);
#1390 = ORIENTED_EDGE('',*,*,#1033,.F.);
#1391 = CYLINDRICAL_SURFACE('',#1392,19.000005431354);
#1392 = AXIS2_PLACEMENT_3D('',#1393,#1394,#1395);
#1393 = CARTESIAN_POINT('',(5.431354040297E-06,-1.300943977212E-06,0.));
#1394 = DIRECTION('',(0.,0.,-1.));
#1395 = DIRECTION('',(-1.,6.847071606963E-08,0.));
#1396 = ADVANCED_FACE('',(#1397),#1408,.T.);
#1397 = FACE_BOUND('',#1398,.T.);
#1398 = EDGE_LOOP('',(#1399,#1400,#1401,#1407));
#1399 = ORIENTED_EDGE('',*,*,#1008,.T.);
#1400 = ORIENTED_EDGE('',*,*,#1227,.T.);
#1401 = ORIENTED_EDGE('',*,*,#1402,.F.);
#1402 = EDGE_CURVE('',#1043,#1219,#1403,.T.);
#1403 = LINE('',#1404,#1405);
#1404 = CARTESIAN_POINT('',(-16.112919,-10.068467,0.));
#1405 = VECTOR('',#1406,1.);
#1406 = DIRECTION('',(0.,0.,1.));
#1407 = ORIENTED_EDGE('',*,*,#1051,.F.);
#1408 = PLANE('',#1409);
#1409 = AXIS2_PLACEMENT_3D('',#1410,#1411,#1412);
#1410 = CARTESIAN_POINT('',(16.112914,-10.068466,0.));
#1411 = DIRECTION('',(3.103100544373E-08,-1.,0.));
#1412 = DIRECTION('',(-1.,-3.103100544373E-08,0.));
#1413 = ADVANCED_FACE('',(#1414),#1420,.T.);
#1414 = FACE_BOUND('',#1415,.T.);
#1415 = EDGE_LOOP('',(#1416,#1417,#1418,#1419));
#1416 = ORIENTED_EDGE('',*,*,#1402,.T.);
#1417 = ORIENTED_EDGE('',*,*,#1218,.T.);
#1418 = ORIENTED_EDGE('',*,*,#1383,.F.);
#1419 = ORIENTED_EDGE('',*,*,#1042,.F.);
#1420 = CYLINDRICAL_SURFACE('',#1421,18.999940895942);
#1421 = AXIS2_PLACEMENT_3D('',#1422,#1423,#1424);
#1422 = CARTESIAN_POINT('',(-5.910407604937E-05,-2.620593383429E-05,0.)
  );
#1423 = DIRECTION('',(0.,0.,-1.));
#1424 = DIRECTION('',(-0.848047895737,-0.529919584972,-0.));
#1425 = ADVANCED_FACE('',(#1426),#1437,.F.);
#1426 = FACE_BOUND('',#1427,.T.);
#1427 = EDGE_LOOP('',(#1428,#1429,#1435,#1436));
#1428 = ORIENTED_EDGE('',*,*,#1060,.T.);
#1429 = ORIENTED_EDGE('',*,*,#1430,.T.);
#1430 = EDGE_CURVE('',#1061,#1237,#1431,.T.);
#1431 = LINE('',#1432,#1433);
#1432 = CARTESIAN_POINT('',(-14.,-8.2192,-4.6E-02));
#1433 = VECTOR('',#1434,1.);
#1434 = DIRECTION('',(0.,0.,1.));
#1435 = ORIENTED_EDGE('',*,*,#1236,.F.);
#1436 = ORIENTED_EDGE('',*,*,#1430,.F.);
#1437 = CYLINDRICAL_SURFACE('',#1438,1.2192);
#1438 = AXIS2_PLACEMENT_3D('',#1439,#1440,#1441);
#1439 = CARTESIAN_POINT('',(-14.,-7.,-4.6E-02));
#1440 = DIRECTION('',(-0.,-0.,-1.));
#1441 = DIRECTION('',(-0.,-1.,0.));
#1442 = ADVANCED_FACE('',(#1443),#1454,.F.);
#1443 = FACE_BOUND('',#1444,.T.);
#1444 = EDGE_LOOP('',(#1445,#1446,#1452,#1453));
#1445 = ORIENTED_EDGE('',*,*,#1071,.T.);
#1446 = ORIENTED_EDGE('',*,*,#1447,.T.);
#1447 = EDGE_CURVE('',#1072,#1248,#1448,.T.);
#1448 = LINE('',#1449,#1450);
#1449 = CARTESIAN_POINT('',(14.,-8.2192,-4.6E-02));
#1450 = VECTOR('',#1451,1.);
#1451 = DIRECTION('',(0.,0.,1.));
#1452 = ORIENTED_EDGE('',*,*,#1247,.F.);
#1453 = ORIENTED_EDGE('',*,*,#1447,.F.);
#1454 = CYLINDRICAL_SURFACE('',#1455,1.2192);
#1455 = AXIS2_PLACEMENT_3D('',#1456,#1457,#1458);
#1456 = CARTESIAN_POINT('',(14.,-7.,-4.6E-02));
#1457 = DIRECTION('',(-0.,-0.,-1.));
#1458 = DIRECTION('',(-0.,-1.,0.));
#1459 = ADVANCED_FACE('',(#1460),#1471,.F.);
#1460 = FACE_BOUND('',#1461,.T.);
#1461 = EDGE_LOOP('',(#1462,#1463,#1469,#1470));
#1462 = ORIENTED_EDGE('',*,*,#1082,.T.);
#1463 = ORIENTED_EDGE('',*,*,#1464,.T.);
#1464 = EDGE_CURVE('',#1083,#1259,#1465,.T.);
#1465 = LINE('',#1466,#1467);
#1466 = CARTESIAN_POINT('',(-14.,5.7808,-4.6E-02));
#1467 = VECTOR('',#1468,1.);
#1468 = DIRECTION('',(0.,0.,1.));
#1469 = ORIENTED_EDGE('',*,*,#1258,.F.);
#1470 = ORIENTED_EDGE('',*,*,#1464,.F.);
#1471 = CYLINDRICAL_SURFACE('',#1472,1.2192);
#1472 = AXIS2_PLACEMENT_3D('',#1473,#1474,#1475);
#1473 = CARTESIAN_POINT('',(-14.,7.,-4.6E-02));
#1474 = DIRECTION('',(-0.,-0.,-1.));
#1475 = DIRECTION('',(-0.,-1.,0.));
#1476 = ADVANCED_FACE('',(#1477),#1493,.F.);
#1477 = FACE_BOUND('',#1478,.T.);
#1478 = EDGE_LOOP('',(#1479,#1480,#1486,#1487));
#1479 = ORIENTED_EDGE('',*,*,#1093,.T.);
#1480 = ORIENTED_EDGE('',*,*,#1481,.T.);
#1481 = EDGE_CURVE('',#1096,#1272,#1482,.T.);
#1482 = LINE('',#1483,#1484);
#1483 = CARTESIAN_POINT('',(-4.930380657631E-32,-2.6,-4.6E-02));
#1484 = VECTOR('',#1485,1.);
#1485 = DIRECTION('',(0.,0.,1.));
#1486 = ORIENTED_EDGE('',*,*,#1269,.F.);
#1487 = ORIENTED_EDGE('',*,*,#1488,.T.);
#1488 = EDGE_CURVE('',#1270,#1094,#1489,.T.);
#1489 = LINE('',#1490,#1491);
#1490 = CARTESIAN_POINT('',(2.587952858922,-0.25,-4.6E-02));
#1491 = VECTOR('',#1492,1.);
#1492 = DIRECTION('',(-0.,0.,-1.));
#1493 = CYLINDRICAL_SURFACE('',#1494,2.6);
#1494 = AXIS2_PLACEMENT_3D('',#1495,#1496,#1497);
#1495 = CARTESIAN_POINT('',(-2.22044604925E-16,4.440892098501E-16,
    -4.6E-02));
#1496 = DIRECTION('',(-0.,0.,-1.));
#1497 = DIRECTION('',(8.540177112501E-17,-1.,-0.));
#1498 = ADVANCED_FACE('',(#1499),#1510,.T.);
#1499 = FACE_BOUND('',#1500,.T.);
#1500 = EDGE_LOOP('',(#1501,#1502,#1503,#1504));
#1501 = ORIENTED_EDGE('',*,*,#1182,.T.);
#1502 = ORIENTED_EDGE('',*,*,#1488,.F.);
#1503 = ORIENTED_EDGE('',*,*,#1358,.F.);
#1504 = ORIENTED_EDGE('',*,*,#1505,.T.);
#1505 = EDGE_CURVE('',#1350,#1174,#1506,.T.);
#1506 = LINE('',#1507,#1508);
#1507 = CARTESIAN_POINT('',(6.859936306378,-0.25,-4.6E-02));
#1508 = VECTOR('',#1509,1.);
#1509 = DIRECTION('',(-0.,-0.,-1.));
#1510 = PLANE('',#1511);
#1511 = AXIS2_PLACEMENT_3D('',#1512,#1513,#1514);
#1512 = CARTESIAN_POINT('',(-9.75,-0.25,-4.6E-02));
#1513 = DIRECTION('',(0.,1.,0.));
#1514 = DIRECTION('',(1.,0.,0.));
#1515 = ADVANCED_FACE('',(#1516),#1527,.F.);
#1516 = FACE_BOUND('',#1517,.T.);
#1517 = EDGE_LOOP('',(#1518,#1524,#1525,#1526));
#1518 = ORIENTED_EDGE('',*,*,#1519,.F.);
#1519 = EDGE_CURVE('',#1165,#1341,#1520,.T.);
#1520 = LINE('',#1521,#1522);
#1521 = CARTESIAN_POINT('',(10.,-3.15,-4.6E-02));
#1522 = VECTOR('',#1523,1.);
#1523 = DIRECTION('',(0.,0.,1.));
#1524 = ORIENTED_EDGE('',*,*,#1173,.T.);
#1525 = ORIENTED_EDGE('',*,*,#1505,.F.);
#1526 = ORIENTED_EDGE('',*,*,#1349,.F.);
#1527 = CYLINDRICAL_SURFACE('',#1528,3.15);
#1528 = AXIS2_PLACEMENT_3D('',#1529,#1530,#1531);
#1529 = CARTESIAN_POINT('',(10.,-7.771561172376E-16,-4.6E-02));
#1530 = DIRECTION('',(-0.,-0.,-1.));
#1531 = DIRECTION('',(-0.,-1.,0.));
#1532 = ADVANCED_FACE('',(#1533),#1544,.F.);
#1533 = FACE_BOUND('',#1534,.T.);
#1534 = EDGE_LOOP('',(#1535,#1536,#1537,#1538));
#1535 = ORIENTED_EDGE('',*,*,#1164,.T.);
#1536 = ORIENTED_EDGE('',*,*,#1519,.T.);
#1537 = ORIENTED_EDGE('',*,*,#1340,.F.);
#1538 = ORIENTED_EDGE('',*,*,#1539,.T.);
#1539 = EDGE_CURVE('',#1333,#1157,#1540,.T.);
#1540 = LINE('',#1541,#1542);
#1541 = CARTESIAN_POINT('',(6.859936306378,0.25,-4.6E-02));
#1542 = VECTOR('',#1543,1.);
#1543 = DIRECTION('',(-0.,-0.,-1.));
#1544 = CYLINDRICAL_SURFACE('',#1545,3.15);
#1545 = AXIS2_PLACEMENT_3D('',#1546,#1547,#1548);
#1546 = CARTESIAN_POINT('',(10.,-7.771561172376E-16,-4.6E-02));
#1547 = DIRECTION('',(-0.,-0.,-1.));
#1548 = DIRECTION('',(-0.,-1.,0.));
#1549 = ADVANCED_FACE('',(#1550),#1561,.T.);
#1550 = FACE_BOUND('',#1551,.T.);
#1551 = EDGE_LOOP('',(#1552,#1553,#1554,#1555));
#1552 = ORIENTED_EDGE('',*,*,#1156,.T.);
#1553 = ORIENTED_EDGE('',*,*,#1539,.F.);
#1554 = ORIENTED_EDGE('',*,*,#1332,.F.);
#1555 = ORIENTED_EDGE('',*,*,#1556,.T.);
#1556 = EDGE_CURVE('',#1324,#1148,#1557,.T.);
#1557 = LINE('',#1558,#1559);
#1558 = CARTESIAN_POINT('',(2.587952858922,0.25,-4.6E-02));
#1559 = VECTOR('',#1560,1.);
#1560 = DIRECTION('',(-0.,0.,-1.));
#1561 = PLANE('',#1562);
#1562 = AXIS2_PLACEMENT_3D('',#1563,#1564,#1565);
#1563 = CARTESIAN_POINT('',(9.75,0.25,-4.6E-02));
#1564 = DIRECTION('',(0.,-1.,0.));
#1565 = DIRECTION('',(-1.,0.,0.));
#1566 = ADVANCED_FACE('',(#1567),#1578,.F.);
#1567 = FACE_BOUND('',#1568,.T.);
#1568 = EDGE_LOOP('',(#1569,#1575,#1576,#1577));
#1569 = ORIENTED_EDGE('',*,*,#1570,.T.);
#1570 = EDGE_CURVE('',#1316,#1140,#1571,.T.);
#1571 = LINE('',#1572,#1573);
#1572 = CARTESIAN_POINT('',(-2.587952858922,0.25,-4.6E-02));
#1573 = VECTOR('',#1574,1.);
#1574 = DIRECTION('',(-0.,0.,-1.));
#1575 = ORIENTED_EDGE('',*,*,#1147,.T.);
#1576 = ORIENTED_EDGE('',*,*,#1556,.F.);
#1577 = ORIENTED_EDGE('',*,*,#1323,.F.);
#1578 = CYLINDRICAL_SURFACE('',#1579,2.6);
#1579 = AXIS2_PLACEMENT_3D('',#1580,#1581,#1582);
#1580 = CARTESIAN_POINT('',(-2.22044604925E-16,4.440892098501E-16,
    -4.6E-02));
#1581 = DIRECTION('',(-0.,0.,-1.));
#1582 = DIRECTION('',(8.540177112501E-17,-1.,-0.));
#1583 = ADVANCED_FACE('',(#1584),#1595,.T.);
#1584 = FACE_BOUND('',#1585,.T.);
#1585 = EDGE_LOOP('',(#1586,#1587,#1588,#1589));
#1586 = ORIENTED_EDGE('',*,*,#1139,.T.);
#1587 = ORIENTED_EDGE('',*,*,#1570,.F.);
#1588 = ORIENTED_EDGE('',*,*,#1315,.F.);
#1589 = ORIENTED_EDGE('',*,*,#1590,.T.);
#1590 = EDGE_CURVE('',#1307,#1131,#1591,.T.);
#1591 = LINE('',#1592,#1593);
#1592 = CARTESIAN_POINT('',(-6.859936306378,0.25,-4.6E-02));
#1593 = VECTOR('',#1594,1.);
#1594 = DIRECTION('',(-0.,-0.,-1.));
#1595 = PLANE('',#1596);
#1596 = AXIS2_PLACEMENT_3D('',#1597,#1598,#1599);
#1597 = CARTESIAN_POINT('',(9.75,0.25,-4.6E-02));
#1598 = DIRECTION('',(0.,-1.,0.));
#1599 = DIRECTION('',(-1.,0.,0.));
#1600 = ADVANCED_FACE('',(#1601),#1612,.F.);
#1601 = FACE_BOUND('',#1602,.T.);
#1602 = EDGE_LOOP('',(#1603,#1609,#1610,#1611));
#1603 = ORIENTED_EDGE('',*,*,#1604,.F.);
#1604 = EDGE_CURVE('',#1122,#1298,#1605,.T.);
#1605 = LINE('',#1606,#1607);
#1606 = CARTESIAN_POINT('',(-10.,-3.15,-4.6E-02));
#1607 = VECTOR('',#1608,1.);
#1608 = DIRECTION('',(0.,0.,1.));
#1609 = ORIENTED_EDGE('',*,*,#1130,.T.);
#1610 = ORIENTED_EDGE('',*,*,#1590,.F.);
#1611 = ORIENTED_EDGE('',*,*,#1306,.F.);
#1612 = CYLINDRICAL_SURFACE('',#1613,3.15);
#1613 = AXIS2_PLACEMENT_3D('',#1614,#1615,#1616);
#1614 = CARTESIAN_POINT('',(-10.,-7.771561172376E-16,-4.6E-02));
#1615 = DIRECTION('',(-0.,-0.,-1.));
#1616 = DIRECTION('',(-0.,-1.,0.));
#1617 = ADVANCED_FACE('',(#1618),#1629,.F.);
#1618 = FACE_BOUND('',#1619,.T.);
#1619 = EDGE_LOOP('',(#1620,#1621,#1622,#1623));
#1620 = ORIENTED_EDGE('',*,*,#1121,.T.);
#1621 = ORIENTED_EDGE('',*,*,#1604,.T.);
#1622 = ORIENTED_EDGE('',*,*,#1297,.F.);
#1623 = ORIENTED_EDGE('',*,*,#1624,.T.);
#1624 = EDGE_CURVE('',#1290,#1114,#1625,.T.);
#1625 = LINE('',#1626,#1627);
#1626 = CARTESIAN_POINT('',(-6.859936306378,-0.25,-4.6E-02));
#1627 = VECTOR('',#1628,1.);
#1628 = DIRECTION('',(-0.,-0.,-1.));
#1629 = CYLINDRICAL_SURFACE('',#1630,3.15);
#1630 = AXIS2_PLACEMENT_3D('',#1631,#1632,#1633);
#1631 = CARTESIAN_POINT('',(-10.,-7.771561172376E-16,-4.6E-02));
#1632 = DIRECTION('',(-0.,-0.,-1.));
#1633 = DIRECTION('',(-0.,-1.,0.));
#1634 = ADVANCED_FACE('',(#1635),#1646,.T.);
#1635 = FACE_BOUND('',#1636,.T.);
#1636 = EDGE_LOOP('',(#1637,#1638,#1639,#1640));
#1637 = ORIENTED_EDGE('',*,*,#1113,.T.);
#1638 = ORIENTED_EDGE('',*,*,#1624,.F.);
#1639 = ORIENTED_EDGE('',*,*,#1289,.F.);
#1640 = ORIENTED_EDGE('',*,*,#1641,.T.);
#1641 = EDGE_CURVE('',#1281,#1105,#1642,.T.);
#1642 = LINE('',#1643,#1644);
#1643 = CARTESIAN_POINT('',(-2.587952858922,-0.25,-4.6E-02));
#1644 = VECTOR('',#1645,1.);
#1645 = DIRECTION('',(-0.,0.,-1.));
#1646 = PLANE('',#1647);
#1647 = AXIS2_PLACEMENT_3D('',#1648,#1649,#1650);
#1648 = CARTESIAN_POINT('',(-9.75,-0.25,-4.6E-02));
#1649 = DIRECTION('',(0.,1.,0.));
#1650 = DIRECTION('',(1.,0.,0.));
#1651 = ADVANCED_FACE('',(#1652),#1658,.F.);
#1652 = FACE_BOUND('',#1653,.T.);
#1653 = EDGE_LOOP('',(#1654,#1655,#1656,#1657));
#1654 = ORIENTED_EDGE('',*,*,#1481,.F.);
#1655 = ORIENTED_EDGE('',*,*,#1104,.T.);
#1656 = ORIENTED_EDGE('',*,*,#1641,.F.);
#1657 = ORIENTED_EDGE('',*,*,#1280,.F.);
#1658 = CYLINDRICAL_SURFACE('',#1659,2.6);
#1659 = AXIS2_PLACEMENT_3D('',#1660,#1661,#1662);
#1660 = CARTESIAN_POINT('',(-2.22044604925E-16,4.440892098501E-16,
    -4.6E-02));
#1661 = DIRECTION('',(-0.,0.,-1.));
#1662 = DIRECTION('',(8.540177112501E-17,-1.,-0.));
#1663 = ADVANCED_FACE('',(#1664),#1675,.F.);
#1664 = FACE_BOUND('',#1665,.T.);
#1665 = EDGE_LOOP('',(#1666,#1667,#1673,#1674));
#1666 = ORIENTED_EDGE('',*,*,#1190,.T.);
#1667 = ORIENTED_EDGE('',*,*,#1668,.T.);
#1668 = EDGE_CURVE('',#1191,#1367,#1669,.T.);
#1669 = LINE('',#1670,#1671);
#1670 = CARTESIAN_POINT('',(14.,5.7808,-4.6E-02));
#1671 = VECTOR('',#1672,1.);
#1672 = DIRECTION('',(0.,0.,1.));
#1673 = ORIENTED_EDGE('',*,*,#1366,.F.);
#1674 = ORIENTED_EDGE('',*,*,#1668,.F.);
#1675 = CYLINDRICAL_SURFACE('',#1676,1.2192);
#1676 = AXIS2_PLACEMENT_3D('',#1677,#1678,#1679);
#1677 = CARTESIAN_POINT('',(14.,7.,-4.6E-02));
#1678 = DIRECTION('',(-0.,-0.,-1.));
#1679 = DIRECTION('',(-0.,-1.,0.));
#1680 = ( GEOMETRIC_REPRESENTATION_CONTEXT(3) 
GLOBAL_UNCERTAINTY_ASSIGNED_CONTEXT((#1684)) 
GLOBAL_UNIT_ASSIGNED_CONTEXT((#1681,#1682,#1683)) REPRESENTATION_CONTEXT
('Context #1','3D Context with UNIT and UNCERTAINTY') );
#1681 = ( LENGTH_UNIT() NAMED_UNIT(*) SI_UNIT(.MILLI.,.METRE.) );
#1682 = ( NAMED_UNIT(*) PLANE_ANGLE_UNIT() SI_UNIT($,.RADIAN.) );
#1683 = ( NAMED_UNIT(*) SI_UNIT($,.STERADIAN.) SOLID_ANGLE_UNIT() );
#1684 = UNCERTAINTY_MEASURE_WITH_UNIT(LENGTH_MEASURE(1.E-07),#1681,
  'distance_accuracy_value','confusion accuracy');
#1685 = CONTEXT_DEPENDENT_SHAPE_REPRESENTATION(#1686,#1688);
#1686 = ( REPRESENTATION_RELATIONSHIP('','',#918,#10) 
REPRESENTATION_RELATIONSHIP_WITH_TRANSFORMATION(#1687) 
SHAPE_REPRESENTATION_RELATIONSHIP() );
#1687 = ITEM_DEFINED_TRANSFORMATION('','',#11,#23);
#1688 = PRODUCT_DEFINITION_SHAPE('Placement','Placement of an item',
  #1689);
#1689 = NEXT_ASSEMBLY_USAGE_OCCURRENCE('3','=>[0:1:1:3]','',#5,#913,$);
#1690 = PRODUCT_RELATED_PRODUCT_CATEGORY('part',$,(#915));
#1691 = MECHANICAL_DESIGN_GEOMETRIC_PRESENTATION_REPRESENTATION('',(
    #1692),#1680);
#1692 = STYLED_ITEM('color',(#1693),#919);
#1693 = PRESENTATION_STYLE_ASSIGNMENT((#1694));
#1694 = SURFACE_STYLE_USAGE(.BOTH.,#1695);
#1695 = SURFACE_SIDE_STYLE('',(#1696));
#1696 = SURFACE_STYLE_FILL_AREA(#1697);
#1697 = FILL_AREA_STYLE('',(#1698));
#1698 = FILL_AREA_STYLE_COLOUR('',#1699);
#1699 = COLOUR_RGB('',0.313304153717,0.484529207832,0.410020903123);
#1700 = MECHANICAL_DESIGN_GEOMETRIC_PRESENTATION_REPRESENTATION('',(
    #1701,#1709,#1716,#1723,#1730,#1737,#1744,#1751,#1758,#1765,#1772,
    #1780,#1787,#1794,#1801,#1808,#1815,#1822,#1829,#1836,#1843,#1850,
    #1857,#1864,#1871,#1878,#1885,#1892),#895);
#1701 = STYLED_ITEM('color',(#1702),#43);
#1702 = PRESENTATION_STYLE_ASSIGNMENT((#1703));
#1703 = SURFACE_STYLE_USAGE(.BOTH.,#1704);
#1704 = SURFACE_SIDE_STYLE('',(#1705));
#1705 = SURFACE_STYLE_FILL_AREA(#1706);
#1706 = FILL_AREA_STYLE('',(#1707));
#1707 = FILL_AREA_STYLE_COLOUR('',#1708);
#1708 = COLOUR_RGB('',0.823999987314,0.819999987296,0.781000009244);
#1709 = STYLED_ITEM('color',(#1710),#119);
#1710 = PRESENTATION_STYLE_ASSIGNMENT((#1711));
#1711 = SURFACE_STYLE_USAGE(.BOTH.,#1712);
#1712 = SURFACE_SIDE_STYLE('',(#1713));
#1713 = SURFACE_STYLE_FILL_AREA(#1714);
#1714 = FILL_AREA_STYLE('',(#1715));
#1715 = FILL_AREA_STYLE_COLOUR('',#1708);
#1716 = STYLED_ITEM('color',(#1717),#150);
#1717 = PRESENTATION_STYLE_ASSIGNMENT((#1718));
#1718 = SURFACE_STYLE_USAGE(.BOTH.,#1719);
#1719 = SURFACE_SIDE_STYLE('',(#1720));
#1720 = SURFACE_STYLE_FILL_AREA(#1721);
#1721 = FILL_AREA_STYLE('',(#1722));
#1722 = FILL_AREA_STYLE_COLOUR('',#1708);
#1723 = STYLED_ITEM('color',(#1724),#175);
#1724 = PRESENTATION_STYLE_ASSIGNMENT((#1725));
#1725 = SURFACE_STYLE_USAGE(.BOTH.,#1726);
#1726 = SURFACE_SIDE_STYLE('',(#1727));
#1727 = SURFACE_STYLE_FILL_AREA(#1728);
#1728 = FILL_AREA_STYLE('',(#1729));
#1729 = FILL_AREA_STYLE_COLOUR('',#1708);
#1730 = STYLED_ITEM('color',(#1731),#200);
#1731 = PRESENTATION_STYLE_ASSIGNMENT((#1732));
#1732 = SURFACE_STYLE_USAGE(.BOTH.,#1733);
#1733 = SURFACE_SIDE_STYLE('',(#1734));
#1734 = SURFACE_STYLE_FILL_AREA(#1735);
#1735 = FILL_AREA_STYLE('',(#1736));
#1736 = FILL_AREA_STYLE_COLOUR('',#1708);
#1737 = STYLED_ITEM('color',(#1738),#224);
#1738 = PRESENTATION_STYLE_ASSIGNMENT((#1739));
#1739 = SURFACE_STYLE_USAGE(.BOTH.,#1740);
#1740 = SURFACE_SIDE_STYLE('',(#1741));
#1741 = SURFACE_STYLE_FILL_AREA(#1742);
#1742 = FILL_AREA_STYLE('',(#1743));
#1743 = FILL_AREA_STYLE_COLOUR('',#1708);
#1744 = STYLED_ITEM('color',(#1745),#248);
#1745 = PRESENTATION_STYLE_ASSIGNMENT((#1746));
#1746 = SURFACE_STYLE_USAGE(.BOTH.,#1747);
#1747 = SURFACE_SIDE_STYLE('',(#1748));
#1748 = SURFACE_STYLE_FILL_AREA(#1749);
#1749 = FILL_AREA_STYLE('',(#1750));
#1750 = FILL_AREA_STYLE_COLOUR('',#1708);
#1751 = STYLED_ITEM('color',(#1752),#273);
#1752 = PRESENTATION_STYLE_ASSIGNMENT((#1753));
#1753 = SURFACE_STYLE_USAGE(.BOTH.,#1754);
#1754 = SURFACE_SIDE_STYLE('',(#1755));
#1755 = SURFACE_STYLE_FILL_AREA(#1756);
#1756 = FILL_AREA_STYLE('',(#1757));
#1757 = FILL_AREA_STYLE_COLOUR('',#1708);
#1758 = STYLED_ITEM('color',(#1759),#298);
#1759 = PRESENTATION_STYLE_ASSIGNMENT((#1760));
#1760 = SURFACE_STYLE_USAGE(.BOTH.,#1761);
#1761 = SURFACE_SIDE_STYLE('',(#1762));
#1762 = SURFACE_STYLE_FILL_AREA(#1763);
#1763 = FILL_AREA_STYLE('',(#1764));
#1764 = FILL_AREA_STYLE_COLOUR('',#1708);
#1765 = STYLED_ITEM('color',(#1766),#315);
#1766 = PRESENTATION_STYLE_ASSIGNMENT((#1767));
#1767 = SURFACE_STYLE_USAGE(.BOTH.,#1768);
#1768 = SURFACE_SIDE_STYLE('',(#1769));
#1769 = SURFACE_STYLE_FILL_AREA(#1770);
#1770 = FILL_AREA_STYLE('',(#1771));
#1771 = FILL_AREA_STYLE_COLOUR('',#1708);
#1772 = STYLED_ITEM('color',(#1773),#401);
#1773 = PRESENTATION_STYLE_ASSIGNMENT((#1774));
#1774 = SURFACE_STYLE_USAGE(.BOTH.,#1775);
#1775 = SURFACE_SIDE_STYLE('',(#1776));
#1776 = SURFACE_STYLE_FILL_AREA(#1777);
#1777 = FILL_AREA_STYLE('',(#1778));
#1778 = FILL_AREA_STYLE_COLOUR('',#1779);
#1779 = COLOUR_RGB('',0.379000005575,0.270000008848,0.214999999939);
#1780 = STYLED_ITEM('color',(#1781),#433);
#1781 = PRESENTATION_STYLE_ASSIGNMENT((#1782));
#1782 = SURFACE_STYLE_USAGE(.BOTH.,#1783);
#1783 = SURFACE_SIDE_STYLE('',(#1784));
#1784 = SURFACE_STYLE_FILL_AREA(#1785);
#1785 = FILL_AREA_STYLE('',(#1786));
#1786 = FILL_AREA_STYLE_COLOUR('',#1779);
#1787 = STYLED_ITEM('color',(#1788),#457);
#1788 = PRESENTATION_STYLE_ASSIGNMENT((#1789));
#1789 = SURFACE_STYLE_USAGE(.BOTH.,#1790);
#1790 = SURFACE_SIDE_STYLE('',(#1791));
#1791 = SURFACE_STYLE_FILL_AREA(#1792);
#1792 = FILL_AREA_STYLE('',(#1793));
#1793 = FILL_AREA_STYLE_COLOUR('',#1779);
#1794 = STYLED_ITEM('color',(#1795),#482);
#1795 = PRESENTATION_STYLE_ASSIGNMENT((#1796));
#1796 = SURFACE_STYLE_USAGE(.BOTH.,#1797);
#1797 = SURFACE_SIDE_STYLE('',(#1798));
#1798 = SURFACE_STYLE_FILL_AREA(#1799);
#1799 = FILL_AREA_STYLE('',(#1800));
#1800 = FILL_AREA_STYLE_COLOUR('',#1779);
#1801 = STYLED_ITEM('color',(#1802),#506);
#1802 = PRESENTATION_STYLE_ASSIGNMENT((#1803));
#1803 = SURFACE_STYLE_USAGE(.BOTH.,#1804);
#1804 = SURFACE_SIDE_STYLE('',(#1805));
#1805 = SURFACE_STYLE_FILL_AREA(#1806);
#1806 = FILL_AREA_STYLE('',(#1807));
#1807 = FILL_AREA_STYLE_COLOUR('',#1779);
#1808 = STYLED_ITEM('color',(#1809),#531);
#1809 = PRESENTATION_STYLE_ASSIGNMENT((#1810));
#1810 = SURFACE_STYLE_USAGE(.BOTH.,#1811);
#1811 = SURFACE_SIDE_STYLE('',(#1812));
#1812 = SURFACE_STYLE_FILL_AREA(#1813);
#1813 = FILL_AREA_STYLE('',(#1814));
#1814 = FILL_AREA_STYLE_COLOUR('',#1779);
#1815 = STYLED_ITEM('color',(#1816),#555);
#1816 = PRESENTATION_STYLE_ASSIGNMENT((#1817));
#1817 = SURFACE_STYLE_USAGE(.BOTH.,#1818);
#1818 = SURFACE_SIDE_STYLE('',(#1819));
#1819 = SURFACE_STYLE_FILL_AREA(#1820);
#1820 = FILL_AREA_STYLE('',(#1821));
#1821 = FILL_AREA_STYLE_COLOUR('',#1779);
#1822 = STYLED_ITEM('color',(#1823),#580);
#1823 = PRESENTATION_STYLE_ASSIGNMENT((#1824));
#1824 = SURFACE_STYLE_USAGE(.BOTH.,#1825);
#1825 = SURFACE_SIDE_STYLE('',(#1826));
#1826 = SURFACE_STYLE_FILL_AREA(#1827);
#1827 = FILL_AREA_STYLE('',(#1828));
#1828 = FILL_AREA_STYLE_COLOUR('',#1779);
#1829 = STYLED_ITEM('color',(#1830),#597);
#1830 = PRESENTATION_STYLE_ASSIGNMENT((#1831));
#1831 = SURFACE_STYLE_USAGE(.BOTH.,#1832);
#1832 = SURFACE_SIDE_STYLE('',(#1833));
#1833 = SURFACE_STYLE_FILL_AREA(#1834);
#1834 = FILL_AREA_STYLE('',(#1835));
#1835 = FILL_AREA_STYLE_COLOUR('',#1708);
#1836 = STYLED_ITEM('color',(#1837),#683);
#1837 = PRESENTATION_STYLE_ASSIGNMENT((#1838));
#1838 = SURFACE_STYLE_USAGE(.BOTH.,#1839);
#1839 = SURFACE_SIDE_STYLE('',(#1840));
#1840 = SURFACE_STYLE_FILL_AREA(#1841);
#1841 = FILL_AREA_STYLE('',(#1842));
#1842 = FILL_AREA_STYLE_COLOUR('',#1708);
#1843 = STYLED_ITEM('color',(#1844),#714);
#1844 = PRESENTATION_STYLE_ASSIGNMENT((#1845));
#1845 = SURFACE_STYLE_USAGE(.BOTH.,#1846);
#1846 = SURFACE_SIDE_STYLE('',(#1847));
#1847 = SURFACE_STYLE_FILL_AREA(#1848);
#1848 = FILL_AREA_STYLE('',(#1849));
#1849 = FILL_AREA_STYLE_COLOUR('',#1708);
#1850 = STYLED_ITEM('color',(#1851),#739);
#1851 = PRESENTATION_STYLE_ASSIGNMENT((#1852));
#1852 = SURFACE_STYLE_USAGE(.BOTH.,#1853);
#1853 = SURFACE_SIDE_STYLE('',(#1854));
#1854 = SURFACE_STYLE_FILL_AREA(#1855);
#1855 = FILL_AREA_STYLE('',(#1856));
#1856 = FILL_AREA_STYLE_COLOUR('',#1708);
#1857 = STYLED_ITEM('color',(#1858),#764);
#1858 = PRESENTATION_STYLE_ASSIGNMENT((#1859));
#1859 = SURFACE_STYLE_USAGE(.BOTH.,#1860);
#1860 = SURFACE_SIDE_STYLE('',(#1861));
#1861 = SURFACE_STYLE_FILL_AREA(#1862);
#1862 = FILL_AREA_STYLE('',(#1863));
#1863 = FILL_AREA_STYLE_COLOUR('',#1708);
#1864 = STYLED_ITEM('color',(#1865),#788);
#1865 = PRESENTATION_STYLE_ASSIGNMENT((#1866));
#1866 = SURFACE_STYLE_USAGE(.BOTH.,#1867);
#1867 = SURFACE_SIDE_STYLE('',(#1868));
#1868 = SURFACE_STYLE_FILL_AREA(#1869);
#1869 = FILL_AREA_STYLE('',(#1870));
#1870 = FILL_AREA_STYLE_COLOUR('',#1708);
#1871 = STYLED_ITEM('color',(#1872),#812);
#1872 = PRESENTATION_STYLE_ASSIGNMENT((#1873));
#1873 = SURFACE_STYLE_USAGE(.BOTH.,#1874);
#1874 = SURFACE_SIDE_STYLE('',(#1875));
#1875 = SURFACE_STYLE_FILL_AREA(#1876);
#1876 = FILL_AREA_STYLE('',(#1877));
#1877 = FILL_AREA_STYLE_COLOUR('',#1708);
#1878 = STYLED_ITEM('color',(#1879),#837);
#1879 = PRESENTATION_STYLE_ASSIGNMENT((#1880));
#1880 = SURFACE_STYLE_USAGE(.BOTH.,#1881);
#1881 = SURFACE_SIDE_STYLE('',(#1882));
#1882 = SURFACE_STYLE_FILL_AREA(#1883);
#1883 = FILL_AREA_STYLE('',(#1884));
#1884 = FILL_AREA_STYLE_COLOUR('',#1708);
#1885 = STYLED_ITEM('color',(#1886),#862);
#1886 = PRESENTATION_STYLE_ASSIGNMENT((#1887));
#1887 = SURFACE_STYLE_USAGE(.BOTH.,#1888);
#1888 = SURFACE_SIDE_STYLE('',(#1889));
#1889 = SURFACE_STYLE_FILL_AREA(#1890);
#1890 = FILL_AREA_STYLE('',(#1891));
#1891 = FILL_AREA_STYLE_COLOUR('',#1708);
#1892 = STYLED_ITEM('color',(#1893),#879);
#1893 = PRESENTATION_STYLE_ASSIGNMENT((#1894));
#1894 = SURFACE_STYLE_USAGE(.BOTH.,#1895);
#1895 = SURFACE_SIDE_STYLE('',(#1896));
#1896 = SURFACE_STYLE_FILL_AREA(#1897);
#1897 = FILL_AREA_STYLE('',(#1898));
#1898 = FILL_AREA_STYLE_COLOUR('',#1708);
ENDSEC;
END-ISO-10303-21;
