%TF.GenerationSoftware,KiCad,Pcbnew,9.0.3*%
%TF.CreationDate,2025-07-27T15:46:57-04:00*%
%TF.ProjectId,S-Band LGR,532d4261-6e64-4204-9c47-522e6b696361,v1.0*%
%TF.SameCoordinates,Original*%
%TF.FileFunction,Soldermask,Top*%
%TF.FilePolarity,Negative*%
%FSLAX46Y46*%
G04 Gerber Fmt 4.6, Leading zero omitted, Abs format (unit mm)*
G04 Created by KiCad (PCBNEW 9.0.3) date 2025-07-27 15:46:57*
%MOMM*%
%LPD*%
G01*
G04 APERTURE LIST*
G04 Aperture macros list*
%AMRoundRect*
0 Rectangle with rounded corners*
0 $1 Rounding radius*
0 $2 $3 $4 $5 $6 $7 $8 $9 X,Y pos of 4 corners*
0 Add a 4 corners polygon primitive as box body*
4,1,4,$2,$3,$4,$5,$6,$7,$8,$9,$2,$3,0*
0 Add four circle primitives for the rounded corners*
1,1,$1+$1,$2,$3*
1,1,$1+$1,$4,$5*
1,1,$1+$1,$6,$7*
1,1,$1+$1,$8,$9*
0 Add four rect primitives between the rounded corners*
20,1,$1+$1,$2,$3,$4,$5,0*
20,1,$1+$1,$4,$5,$6,$7,0*
20,1,$1+$1,$6,$7,$8,$9,0*
20,1,$1+$1,$8,$9,$2,$3,0*%
G04 Aperture macros list end*
%ADD10C,7.000000*%
%ADD11C,6.000000*%
%ADD12O,20.500000X1.000000*%
%ADD13C,4.241800*%
%ADD14RoundRect,0.140000X0.170000X-0.140000X0.170000X0.140000X-0.170000X0.140000X-0.170000X-0.140000X0*%
G04 APERTURE END LIST*
D10*
%TO.C,AE1*%
X50000000Y-60000000D03*
D11*
X60000000Y-60000000D03*
D12*
X60000000Y-60000000D03*
D10*
X70000000Y-60000000D03*
%TD*%
D13*
%TO.C,H3*%
X74000000Y-67000000D03*
%TD*%
%TO.C,H1*%
X46000000Y-53000000D03*
%TD*%
%TO.C,H4*%
X46000000Y-67000000D03*
%TD*%
%TO.C,H2*%
X74000000Y-53000000D03*
%TD*%
D14*
%TO.C,C1*%
X65000000Y-60480000D03*
X65000000Y-59520000D03*
%TD*%
%TO.C,C2*%
X55300000Y-60480000D03*
X55300000Y-59520000D03*
%TD*%
G36*
X76110759Y-49951218D02*
G01*
X76149252Y-49990426D01*
X76343759Y-50305704D01*
X76346328Y-50310065D01*
X76776903Y-51076297D01*
X76779612Y-51081392D01*
X77173907Y-51866497D01*
X77176377Y-51871713D01*
X77533727Y-52674336D01*
X77535951Y-52679661D01*
X77855573Y-53498043D01*
X77857546Y-53503465D01*
X78138742Y-54335817D01*
X78140461Y-54341326D01*
X78382620Y-55185839D01*
X78384082Y-55191422D01*
X78586701Y-56046339D01*
X78587900Y-56051983D01*
X78750515Y-56915358D01*
X78751451Y-56921053D01*
X78873723Y-57791070D01*
X78874393Y-57796801D01*
X78956054Y-58671561D01*
X78956457Y-58677318D01*
X78997349Y-59555306D01*
X78997481Y-59560365D01*
X78999995Y-59999279D01*
X78999995Y-60000710D01*
X78997442Y-60439640D01*
X78997310Y-60444688D01*
X78956417Y-61322678D01*
X78956014Y-61328435D01*
X78874353Y-62203190D01*
X78873683Y-62208922D01*
X78751409Y-63078943D01*
X78750473Y-63084637D01*
X78587857Y-63948007D01*
X78586658Y-63953651D01*
X78384039Y-64808567D01*
X78382577Y-64814150D01*
X78140418Y-65658660D01*
X78138699Y-65664169D01*
X77857498Y-66496539D01*
X77855524Y-66501961D01*
X77535917Y-67320303D01*
X77533694Y-67325628D01*
X77176335Y-68128267D01*
X77173865Y-68133483D01*
X76779571Y-68918588D01*
X76776862Y-68923683D01*
X76346283Y-69689921D01*
X76343720Y-69694272D01*
X76149246Y-70009562D01*
X76097298Y-70056287D01*
X76043708Y-70068465D01*
X43956279Y-70068465D01*
X43889240Y-70048780D01*
X43850747Y-70009572D01*
X43656240Y-69694295D01*
X43653671Y-69689934D01*
X43223096Y-68923702D01*
X43220387Y-68918607D01*
X42826092Y-68133502D01*
X42823622Y-68128286D01*
X42466272Y-67325663D01*
X42464048Y-67320338D01*
X42144426Y-66501956D01*
X42142453Y-66496534D01*
X41861257Y-65664182D01*
X41859538Y-65658673D01*
X41617379Y-64814160D01*
X41615917Y-64808577D01*
X41413298Y-63953660D01*
X41412099Y-63948016D01*
X41249484Y-63084641D01*
X41248548Y-63078946D01*
X41126276Y-62208929D01*
X41125606Y-62203198D01*
X41043945Y-61328438D01*
X41043542Y-61322681D01*
X41002650Y-60444693D01*
X41002518Y-60439634D01*
X41000004Y-60000710D01*
X41000004Y-59999279D01*
X41002557Y-59560359D01*
X41002689Y-59555311D01*
X41043582Y-58677321D01*
X41043985Y-58671564D01*
X41125646Y-57796809D01*
X41126316Y-57791077D01*
X41248590Y-56921056D01*
X41249526Y-56915362D01*
X41412142Y-56051992D01*
X41413341Y-56046348D01*
X41615960Y-55191432D01*
X41617422Y-55185849D01*
X41859581Y-54341339D01*
X41861300Y-54335830D01*
X42142501Y-53503460D01*
X42144475Y-53498038D01*
X42464082Y-52679696D01*
X42466305Y-52674371D01*
X42823664Y-51871732D01*
X42826134Y-51866516D01*
X43220428Y-51081411D01*
X43223137Y-51076316D01*
X43653716Y-50310078D01*
X43656279Y-50305727D01*
X43850754Y-49990436D01*
X43902702Y-49943711D01*
X43956292Y-49931533D01*
X76043720Y-49931533D01*
X76110759Y-49951218D01*
G37*
M02*
