%TF.GenerationSoftware,KiCad,Pcbnew,9.0.3*%
%TF.CreationDate,2025-07-27T15:46:57-04:00*%
%TF.ProjectId,S-Band LGR,532d4261-6e64-4204-9c47-522e6b696361,v1.0*%
%TF.SameCoordinates,Original*%
%TF.FileFunction,Copper,L2,Bot*%
%TF.FilePolarity,Positive*%
%FSLAX46Y46*%
G04 Gerber Fmt 4.6, Leading zero omitted, Abs format (unit mm)*
G04 Created by KiCad (PCBNEW 9.0.3) date 2025-07-27 15:46:57*
%MOMM*%
%LPD*%
G01*
G04 APERTURE LIST*
%TA.AperFunction,ComponentPad*%
%ADD10C,7.000000*%
%TD*%
%TA.AperFunction,ComponentPad*%
%ADD11C,6.000000*%
%TD*%
%TA.AperFunction,ComponentPad*%
%ADD12O,20.500000X1.000000*%
%TD*%
%TA.AperFunction,ComponentPad*%
%ADD13C,4.241800*%
%TD*%
G04 APERTURE END LIST*
D10*
%TO.P,AE1,1,A*%
%TO.N,GND*%
X50000000Y-60000000D03*
D11*
X60000000Y-60000000D03*
D12*
X60000000Y-60000000D03*
D10*
X70000000Y-60000000D03*
%TD*%
D13*
%TO.P,H3,1,1*%
%TO.N,GND*%
X74000000Y-67000000D03*
%TD*%
%TO.P,H1,1,1*%
%TO.N,GND*%
X46000000Y-53000000D03*
%TD*%
%TO.P,H4,1,1*%
%TO.N,GND*%
X46000000Y-67000000D03*
%TD*%
%TO.P,H2,1,1*%
%TO.N,GND*%
X74000000Y-53000000D03*
%TD*%
%TA.AperFunction,Conductor*%
%TO.N,GND*%
G36*
X75825104Y-50451718D02*
G01*
X75864610Y-50492597D01*
X76093667Y-50877312D01*
X76096293Y-50881947D01*
X76470622Y-51576930D01*
X76473047Y-51581672D01*
X76817186Y-52292096D01*
X76819405Y-52296939D01*
X77132713Y-53021485D01*
X77134722Y-53026419D01*
X77416630Y-53763773D01*
X77418424Y-53768788D01*
X77668392Y-54517531D01*
X77669970Y-54522619D01*
X77887553Y-55281424D01*
X77888911Y-55286575D01*
X78073702Y-56054013D01*
X78074838Y-56059217D01*
X78226503Y-56833910D01*
X78227414Y-56839159D01*
X78345666Y-57619650D01*
X78346350Y-57624932D01*
X78430968Y-58409737D01*
X78431426Y-58415045D01*
X78482263Y-59202828D01*
X78482491Y-59208150D01*
X78499444Y-59997243D01*
X78499444Y-60002569D01*
X78482487Y-60791848D01*
X78482259Y-60797170D01*
X78431422Y-61584953D01*
X78430964Y-61590261D01*
X78346346Y-62375066D01*
X78345662Y-62380348D01*
X78227410Y-63160839D01*
X78226499Y-63166088D01*
X78074834Y-63940781D01*
X78073698Y-63945985D01*
X77888907Y-64713423D01*
X77887549Y-64718574D01*
X77669966Y-65477380D01*
X77668388Y-65482468D01*
X77418420Y-66231210D01*
X77416626Y-66236225D01*
X77134718Y-66973579D01*
X77132709Y-66978513D01*
X76819401Y-67703060D01*
X76817182Y-67707903D01*
X76473043Y-68418326D01*
X76470618Y-68423068D01*
X76096289Y-69118051D01*
X76093663Y-69122686D01*
X75864606Y-69507401D01*
X75813396Y-69554934D01*
X75758061Y-69567965D01*
X44241933Y-69567965D01*
X44174894Y-69548280D01*
X44135388Y-69507401D01*
X44049753Y-69363572D01*
X43906323Y-69122671D01*
X43903706Y-69118052D01*
X43529377Y-68423069D01*
X43526952Y-68418327D01*
X43440156Y-68239151D01*
X43182802Y-67707880D01*
X43180604Y-67703083D01*
X42867283Y-66978508D01*
X42865277Y-66973580D01*
X42583369Y-66236226D01*
X42581575Y-66231211D01*
X42563348Y-66176614D01*
X42331598Y-65482441D01*
X42330037Y-65477407D01*
X42112441Y-64718559D01*
X42111088Y-64713424D01*
X42075611Y-64566086D01*
X41926289Y-63945951D01*
X41925168Y-63940817D01*
X41773490Y-63166055D01*
X41772591Y-63160874D01*
X41654333Y-62380348D01*
X41653649Y-62375067D01*
X41623011Y-62090908D01*
X41569028Y-61590236D01*
X41568575Y-61584980D01*
X41517735Y-60797154D01*
X41517508Y-60791849D01*
X41501911Y-60065891D01*
X41500555Y-60002746D01*
X41500555Y-59997430D01*
X41500559Y-59997243D01*
X41517512Y-59208132D01*
X41517740Y-59202829D01*
X41547355Y-58743909D01*
X41568579Y-58415016D01*
X41569032Y-58409768D01*
X41653653Y-57624928D01*
X41654337Y-57619651D01*
X41654337Y-57619650D01*
X41772596Y-56839118D01*
X41773492Y-56833953D01*
X41925174Y-56059174D01*
X41926291Y-56054059D01*
X42111098Y-55286549D01*
X42112442Y-55281452D01*
X42330045Y-54522579D01*
X42331598Y-54517572D01*
X42581589Y-53768760D01*
X42583362Y-53763803D01*
X42865289Y-53026398D01*
X42867280Y-53021508D01*
X43180616Y-52296898D01*
X43182798Y-52292137D01*
X43526961Y-51581662D01*
X43529381Y-51576931D01*
X43903710Y-50881948D01*
X43906315Y-50877348D01*
X44135393Y-50492597D01*
X44186603Y-50445064D01*
X44241938Y-50432033D01*
X75758065Y-50432033D01*
X75825104Y-50451718D01*
G37*
%TD.AperFunction*%
%TD*%
M02*
