%TF.GenerationSoftware,KiCad,Pcbnew,8.0.1*%
%TF.CreationDate,2024-07-13T13:57:38-04:00*%
%TF.ProjectId,X-Band Amplifier QPA1022,582d4261-6e64-4204-916d-706c69666965,v1.1*%
%TF.SameCoordinates,Original*%
%TF.FileFunction,Soldermask,Top*%
%TF.FilePolarity,Negative*%
%FSLAX46Y46*%
G04 Gerber Fmt 4.6, Leading zero omitted, Abs format (unit mm)*
G04 Created by KiCad (PCBNEW 8.0.1) date 2024-07-13 13:57:38*
%MOMM*%
%LPD*%
G01*
G04 APERTURE LIST*
G04 Aperture macros list*
%AMRoundRect*
0 Rectangle with rounded corners*
0 $1 Rounding radius*
0 $2 $3 $4 $5 $6 $7 $8 $9 X,Y pos of 4 corners*
0 Add a 4 corners polygon primitive as box body*
4,1,4,$2,$3,$4,$5,$6,$7,$8,$9,$2,$3,0*
0 Add four circle primitives for the rounded corners*
1,1,$1+$1,$2,$3*
1,1,$1+$1,$4,$5*
1,1,$1+$1,$6,$7*
1,1,$1+$1,$8,$9*
0 Add four rect primitives between the rounded corners*
20,1,$1+$1,$2,$3,$4,$5,0*
20,1,$1+$1,$4,$5,$6,$7,0*
20,1,$1+$1,$6,$7,$8,$9,0*
20,1,$1+$1,$8,$9,$2,$3,0*%
G04 Aperture macros list end*
%ADD10RoundRect,0.062500X-0.350000X-0.062500X0.350000X-0.062500X0.350000X0.062500X-0.350000X0.062500X0*%
%ADD11RoundRect,0.062500X-0.062500X-0.350000X0.062500X-0.350000X0.062500X0.350000X-0.062500X0.350000X0*%
%ADD12R,2.500000X2.500000*%
%ADD13RoundRect,0.135000X-0.135000X-0.185000X0.135000X-0.185000X0.135000X0.185000X-0.135000X0.185000X0*%
%ADD14RoundRect,0.140000X-0.140000X-0.170000X0.140000X-0.170000X0.140000X0.170000X-0.140000X0.170000X0*%
%ADD15RoundRect,0.087500X0.412500X-0.087500X0.412500X0.087500X-0.412500X0.087500X-0.412500X-0.087500X0*%
%ADD16R,5.500000X4.000000*%
%ADD17C,4.241800*%
%ADD18RoundRect,0.087500X-0.412500X0.087500X-0.412500X-0.087500X0.412500X-0.087500X0.412500X0.087500X0*%
%ADD19C,5.562600*%
G04 APERTURE END LIST*
D10*
%TO.C,U1*%
X137762500Y-62500000D03*
X137762500Y-63000000D03*
X137762500Y-63500000D03*
X137762500Y-64000000D03*
X137762500Y-64500000D03*
D11*
X138700000Y-65437500D03*
X139200000Y-65437500D03*
X139700000Y-65437500D03*
X140200000Y-65437500D03*
X140700000Y-65437500D03*
D10*
X141637500Y-64500000D03*
X141637500Y-64000000D03*
X141637500Y-63500000D03*
X141637500Y-63000000D03*
X141637500Y-62500000D03*
D11*
X140700000Y-61562500D03*
X140200000Y-61562500D03*
X139700000Y-61562500D03*
X139200000Y-61562500D03*
X138700000Y-61562500D03*
D12*
X139700000Y-63500000D03*
%TD*%
D13*
%TO.C,R2*%
X140333000Y-60325000D03*
X141353000Y-60325000D03*
%TD*%
%TO.C,R1*%
X138047000Y-60325000D03*
X139067000Y-60325000D03*
%TD*%
D14*
%TO.C,C4*%
X137061000Y-58293000D03*
X138021000Y-58293000D03*
%TD*%
%TO.C,C3*%
X141379000Y-58293000D03*
X142339000Y-58293000D03*
%TD*%
D15*
%TO.C,J2*%
X151850000Y-63500000D03*
D16*
X149600000Y-66135000D03*
X149600000Y-60865000D03*
%TD*%
D17*
%TO.C,H5*%
X137160000Y-69850000D03*
%TD*%
D18*
%TO.C,J1*%
X127550000Y-63500000D03*
D16*
X129800000Y-60865000D03*
X129800000Y-66135000D03*
%TD*%
D19*
%TO.C,H2*%
X149225000Y-53975000D03*
%TD*%
D17*
%TO.C,H6*%
X142240000Y-69850000D03*
%TD*%
D19*
%TO.C,H3*%
X130175000Y-73025000D03*
%TD*%
D14*
%TO.C,C1*%
X141379000Y-59309000D03*
X142339000Y-59309000D03*
%TD*%
D19*
%TO.C,H4*%
X149225000Y-73025000D03*
%TD*%
%TO.C,H1*%
X130175000Y-53975000D03*
%TD*%
D14*
%TO.C,C2*%
X137061000Y-59309000D03*
X138021000Y-59309000D03*
%TD*%
G36*
X142818039Y-51454685D02*
G01*
X142863794Y-51507489D01*
X142875000Y-51559000D01*
X142875000Y-56645000D01*
X142855315Y-56712039D01*
X142802511Y-56757794D01*
X142751000Y-56769000D01*
X141729000Y-56769000D01*
X141661961Y-56749315D01*
X141616206Y-56696511D01*
X141605000Y-56645000D01*
X141605000Y-51559000D01*
X141624685Y-51491961D01*
X141677489Y-51446206D01*
X141729000Y-51435000D01*
X142751000Y-51435000D01*
X142818039Y-51454685D01*
G37*
G36*
X136975121Y-61488002D02*
G01*
X137021614Y-61541658D01*
X137033000Y-61594000D01*
X137033000Y-65406000D01*
X137012998Y-65474121D01*
X136959342Y-65520614D01*
X136907000Y-65532000D01*
X133349000Y-65532000D01*
X133280879Y-65511998D01*
X133234386Y-65458342D01*
X133223000Y-65406000D01*
X133223000Y-64135000D01*
X128904000Y-64135000D01*
X128835879Y-64114998D01*
X128789386Y-64061342D01*
X128778000Y-64009000D01*
X128778000Y-62991000D01*
X128798002Y-62922879D01*
X128851658Y-62876386D01*
X128904000Y-62865000D01*
X133223000Y-62865000D01*
X133223000Y-61594000D01*
X133243002Y-61525879D01*
X133296658Y-61479386D01*
X133349000Y-61468000D01*
X136907000Y-61468000D01*
X136975121Y-61488002D01*
G37*
G36*
X146119121Y-61488002D02*
G01*
X146165614Y-61541658D01*
X146177000Y-61594000D01*
X146177000Y-62865000D01*
X150496000Y-62865000D01*
X150564121Y-62885002D01*
X150610614Y-62938658D01*
X150622000Y-62991000D01*
X150622000Y-64009000D01*
X150601998Y-64077121D01*
X150548342Y-64123614D01*
X150496000Y-64135000D01*
X146177000Y-64135000D01*
X146177000Y-65406000D01*
X146156998Y-65474121D01*
X146103342Y-65520614D01*
X146051000Y-65532000D01*
X142493000Y-65532000D01*
X142424879Y-65511998D01*
X142378386Y-65458342D01*
X142367000Y-65406000D01*
X142367000Y-61594000D01*
X142387002Y-61525879D01*
X142440658Y-61479386D01*
X142493000Y-61468000D01*
X146051000Y-61468000D01*
X146119121Y-61488002D01*
G37*
G36*
X135198039Y-51454685D02*
G01*
X135243794Y-51507489D01*
X135255000Y-51559000D01*
X135255000Y-56645000D01*
X135235315Y-56712039D01*
X135182511Y-56757794D01*
X135131000Y-56769000D01*
X134109000Y-56769000D01*
X134041961Y-56749315D01*
X133996206Y-56696511D01*
X133985000Y-56645000D01*
X133985000Y-51559000D01*
X134004685Y-51491961D01*
X134057489Y-51446206D01*
X134109000Y-51435000D01*
X135131000Y-51435000D01*
X135198039Y-51454685D01*
G37*
G36*
X140278039Y-51454685D02*
G01*
X140323794Y-51507489D01*
X140335000Y-51559000D01*
X140335000Y-56645000D01*
X140315315Y-56712039D01*
X140262511Y-56757794D01*
X140211000Y-56769000D01*
X139189000Y-56769000D01*
X139121961Y-56749315D01*
X139076206Y-56696511D01*
X139065000Y-56645000D01*
X139065000Y-51559000D01*
X139084685Y-51491961D01*
X139137489Y-51446206D01*
X139189000Y-51435000D01*
X140211000Y-51435000D01*
X140278039Y-51454685D01*
G37*
G36*
X137738039Y-51454685D02*
G01*
X137783794Y-51507489D01*
X137795000Y-51559000D01*
X137795000Y-56645000D01*
X137775315Y-56712039D01*
X137722511Y-56757794D01*
X137671000Y-56769000D01*
X136649000Y-56769000D01*
X136581961Y-56749315D01*
X136536206Y-56696511D01*
X136525000Y-56645000D01*
X136525000Y-51559000D01*
X136544685Y-51491961D01*
X136597489Y-51446206D01*
X136649000Y-51435000D01*
X137671000Y-51435000D01*
X137738039Y-51454685D01*
G37*
G36*
X145358039Y-51454685D02*
G01*
X145403794Y-51507489D01*
X145415000Y-51559000D01*
X145415000Y-56645000D01*
X145395315Y-56712039D01*
X145342511Y-56757794D01*
X145291000Y-56769000D01*
X144269000Y-56769000D01*
X144201961Y-56749315D01*
X144156206Y-56696511D01*
X144145000Y-56645000D01*
X144145000Y-51559000D01*
X144164685Y-51491961D01*
X144217489Y-51446206D01*
X144269000Y-51435000D01*
X145291000Y-51435000D01*
X145358039Y-51454685D01*
G37*
M02*
