M48
; DRILL file {KiCad 8.0.1} date 2024-04-27T21:04:24-0400
; FORMAT={-:-/ absolute / inch / decimal}
; #@! TF.CreationDate,2024-04-27T21:04:24-04:00
; #@! TF.GenerationSoftware,Kicad,Pcbnew,8.0.1
; #@! TF.FileFunction,Plated,1,2,PTH
FMAT,2
INCH
; #@! TA.AperFunction,Plated,PTH,ViaDrill
T1C0.0118
; #@! TA.AperFunction,Plated,PTH,ComponentDrill
T2C0.1285
%
G90
G05
T1
X1.7657Y-3.4429
X1.7657Y-3.6201
X1.7717Y-2.8346
X1.7717Y-2.9134
X1.7717Y-2.9921
X1.7717Y-3.0709
X1.7717Y-3.1496
X1.7717Y-3.2283
X1.7717Y-3.3071
X1.7717Y-3.3858
X1.7717Y-3.6614
X1.7717Y-3.7402
X1.7717Y-3.8189
X1.7717Y-3.8976
X1.7717Y-3.9764
X1.7717Y-4.0551
X1.7717Y-4.1339
X1.7717Y-4.2126
X1.7717Y-4.2913
X1.7913Y-3.4429
X1.7913Y-3.6201
X1.811Y-2.7953
X1.811Y-2.874
X1.811Y-2.9528
X1.811Y-3.0315
X1.811Y-3.1102
X1.811Y-3.189
X1.811Y-3.2677
X1.811Y-3.3465
X1.811Y-3.7008
X1.811Y-3.7795
X1.811Y-3.8583
X1.811Y-3.937
X1.811Y-4.0157
X1.811Y-4.0945
X1.811Y-4.1732
X1.811Y-4.252
X1.8169Y-3.4429
X1.8169Y-3.6201
X1.8425Y-3.4429
X1.8425Y-3.6201
X1.8504Y-2.8346
X1.8504Y-2.9134
X1.8504Y-2.9921
X1.8504Y-3.0709
X1.8504Y-3.1496
X1.8504Y-3.2283
X1.8504Y-3.3071
X1.8504Y-3.3858
X1.8504Y-3.6614
X1.8504Y-3.7402
X1.8504Y-3.8189
X1.8504Y-3.8976
X1.8504Y-3.9764
X1.8504Y-4.0551
X1.8504Y-4.1339
X1.8504Y-4.2126
X1.8504Y-4.2913
X1.8681Y-3.4429
X1.8681Y-3.6201
X1.8898Y-2.7953
X1.8898Y-2.874
X1.8898Y-2.9528
X1.8898Y-3.0315
X1.8898Y-3.1102
X1.8898Y-3.189
X1.8898Y-3.2677
X1.8898Y-3.3465
X1.8898Y-3.7008
X1.8898Y-3.7795
X1.8898Y-3.8583
X1.8898Y-3.937
X1.8898Y-4.0157
X1.8898Y-4.0945
X1.8898Y-4.1732
X1.8898Y-4.252
X1.8937Y-3.4429
X1.8937Y-3.6201
X1.9193Y-3.4429
X1.9193Y-3.6201
X1.9291Y-2.8346
X1.9291Y-2.9134
X1.9291Y-2.9921
X1.9291Y-3.0709
X1.9291Y-3.1496
X1.9291Y-3.2283
X1.9291Y-3.3071
X1.9291Y-3.3858
X1.9291Y-3.6614
X1.9291Y-3.7402
X1.9291Y-3.8189
X1.9291Y-3.8976
X1.9291Y-3.9764
X1.9291Y-4.0551
X1.9291Y-4.1339
X1.9291Y-4.2126
X1.9291Y-4.2913
X1.9449Y-3.4429
X1.9449Y-3.6201
X1.9685Y-2.7953
X1.9685Y-2.874
X1.9685Y-2.9528
X1.9685Y-3.0315
X1.9685Y-3.1102
X1.9685Y-3.189
X1.9685Y-3.2677
X1.9685Y-3.3465
X1.9685Y-3.7008
X1.9685Y-3.7795
X1.9685Y-3.8583
X1.9685Y-3.937
X1.9685Y-4.0157
X1.9685Y-4.0945
X1.9685Y-4.1732
X1.9685Y-4.252
X1.9705Y-3.4429
X1.9705Y-3.6201
X1.9961Y-3.4429
X1.9961Y-3.6201
X2.0079Y-2.8346
X2.0079Y-2.9134
X2.0079Y-2.9921
X2.0079Y-3.0709
X2.0079Y-3.1496
X2.0079Y-3.2283
X2.0079Y-3.3071
X2.0079Y-3.3858
X2.0079Y-3.6614
X2.0079Y-3.7402
X2.0079Y-3.8189
X2.0079Y-3.8976
X2.0079Y-3.9764
X2.0079Y-4.0551
X2.0079Y-4.1339
X2.0079Y-4.2126
X2.0079Y-4.2913
X2.0217Y-3.4429
X2.0217Y-3.6201
X2.0472Y-2.7953
X2.0472Y-2.874
X2.0472Y-3.0315
X2.0472Y-3.1102
X2.0472Y-3.189
X2.0472Y-3.2677
X2.0472Y-3.3465
X2.0472Y-3.4429
X2.0472Y-3.6201
X2.0472Y-3.7008
X2.0472Y-3.7795
X2.0472Y-3.8583
X2.0472Y-3.937
X2.0472Y-4.0157
X2.0472Y-4.252
X2.0728Y-3.4429
X2.0728Y-3.6201
X2.0866Y-2.8346
X2.0866Y-3.0709
X2.0866Y-3.1496
X2.0866Y-3.2283
X2.0866Y-3.3071
X2.0866Y-3.3858
X2.0866Y-3.6614
X2.0866Y-3.7402
X2.0866Y-3.8189
X2.0866Y-3.8976
X2.0866Y-3.9764
X2.0866Y-4.2913
X2.0984Y-3.4429
X2.0984Y-3.6201
X2.124Y-3.4429
X2.124Y-3.6201
X2.126Y-2.7953
X2.126Y-3.1102
X2.126Y-3.189
X2.126Y-3.2677
X2.126Y-3.3465
X2.126Y-3.7008
X2.126Y-3.7795
X2.126Y-3.8583
X2.126Y-3.937
X2.1496Y-3.4429
X2.1496Y-3.6201
X2.1654Y-3.1496
X2.1654Y-3.2283
X2.1654Y-3.3071
X2.1654Y-3.3858
X2.1654Y-3.6614
X2.1654Y-3.7402
X2.1654Y-3.8189
X2.1654Y-3.8976
X2.1654Y-3.9764
X2.1654Y-4.2913
X2.1752Y-3.4429
X2.1752Y-3.6201
X2.2008Y-3.4429
X2.2008Y-3.6201
X2.2047Y-2.7953
X2.2047Y-3.1102
X2.2047Y-3.189
X2.2047Y-3.2677
X2.2047Y-3.3465
X2.2047Y-3.7008
X2.2047Y-3.7795
X2.2047Y-3.8583
X2.2047Y-3.937
X2.2264Y-3.4429
X2.2264Y-3.6201
X2.2441Y-3.1496
X2.2441Y-3.2283
X2.2441Y-3.3071
X2.2441Y-3.3858
X2.2441Y-3.6614
X2.2441Y-3.7402
X2.2441Y-3.8189
X2.2441Y-3.8976
X2.2441Y-3.9764
X2.2441Y-4.2913
X2.252Y-3.4429
X2.252Y-3.6201
X2.2717Y-2.7933
X2.2717Y-2.8189
X2.2717Y-2.8445
X2.2717Y-2.8701
X2.2717Y-3.0315
X2.2717Y-3.0571
X2.2717Y-3.0827
X2.2776Y-3.4429
X2.2776Y-3.6201
X2.2835Y-3.189
X2.2835Y-3.2677
X2.2835Y-3.3465
X2.2835Y-3.7008
X2.2835Y-3.7795
X2.2835Y-3.8583
X2.2835Y-3.937
X2.2835Y-4.0157
X2.2835Y-4.252
X2.2874Y-3.1043
X2.3031Y-3.4429
X2.3031Y-3.6201
X2.313Y-3.1043
X2.3228Y-3.1496
X2.3228Y-3.2283
X2.3228Y-3.3071
X2.3228Y-3.3858
X2.3228Y-3.6614
X2.3228Y-3.7402
X2.3228Y-3.8189
X2.3228Y-3.8976
X2.3228Y-3.9764
X2.3228Y-4.0551
X2.3228Y-4.1339
X2.3228Y-4.2126
X2.3228Y-4.2913
X2.3287Y-3.4429
X2.3287Y-3.6201
X2.3386Y-3.1043
X2.3543Y-3.4429
X2.3543Y-3.6201
X2.3622Y-3.189
X2.3622Y-3.2677
X2.3622Y-3.3465
X2.3622Y-3.7008
X2.3622Y-3.7795
X2.3622Y-3.8583
X2.3622Y-3.937
X2.3622Y-4.0157
X2.3622Y-4.0945
X2.3622Y-4.1732
X2.3622Y-4.252
X2.3642Y-3.1043
X2.3799Y-3.4429
X2.3799Y-3.6201
X2.3898Y-3.1043
X2.4016Y-3.1496
X2.4016Y-3.2283
X2.4016Y-3.3071
X2.4016Y-3.3858
X2.4016Y-3.6614
X2.4016Y-3.7402
X2.4016Y-3.8189
X2.4016Y-3.8976
X2.4016Y-3.9764
X2.4016Y-4.0551
X2.4016Y-4.1339
X2.4016Y-4.2126
X2.4016Y-4.2913
X2.4055Y-3.4429
X2.4055Y-3.6201
X2.4154Y-3.1043
X2.4311Y-3.4429
X2.4311Y-3.6201
X2.4409Y-3.1043
X2.4409Y-3.189
X2.4409Y-3.2677
X2.4409Y-3.3465
X2.4409Y-3.7008
X2.4409Y-3.7795
X2.4409Y-3.8583
X2.4409Y-3.937
X2.4409Y-4.0157
X2.4409Y-4.0945
X2.4409Y-4.1732
X2.4409Y-4.252
X2.4567Y-3.4429
X2.4567Y-3.6201
X2.4665Y-3.1043
X2.4803Y-3.1496
X2.4803Y-3.2283
X2.4803Y-3.3071
X2.4803Y-3.3858
X2.4803Y-3.6614
X2.4803Y-3.7402
X2.4803Y-3.8189
X2.4803Y-3.8976
X2.4803Y-3.9764
X2.4803Y-4.0551
X2.4803Y-4.1339
X2.4803Y-4.2126
X2.4803Y-4.2913
X2.4823Y-3.4429
X2.4823Y-3.6201
X2.4921Y-3.1043
X2.5079Y-3.4429
X2.5079Y-3.6201
X2.5177Y-3.1043
X2.5197Y-3.189
X2.5197Y-3.2677
X2.5197Y-3.3465
X2.5197Y-3.7008
X2.5197Y-3.7795
X2.5197Y-3.8583
X2.5197Y-3.937
X2.5197Y-4.0157
X2.5197Y-4.0945
X2.5197Y-4.1732
X2.5197Y-4.252
X2.5335Y-3.4429
X2.5335Y-3.6201
X2.5433Y-3.1043
X2.5591Y-3.1496
X2.5591Y-3.4429
X2.5591Y-3.6201
X2.5591Y-3.6614
X2.5591Y-3.7402
X2.5591Y-3.8189
X2.5591Y-3.8976
X2.5591Y-3.9764
X2.5591Y-4.0551
X2.5591Y-4.1339
X2.5591Y-4.2126
X2.5591Y-4.2913
X2.5689Y-3.1043
X2.5846Y-3.4429
X2.5846Y-3.6201
X2.5945Y-3.1043
X2.5984Y-3.937
X2.5984Y-4.0157
X2.5984Y-4.0945
X2.5984Y-4.1732
X2.5984Y-4.252
X2.6004Y-3.2126
X2.6004Y-3.2382
X2.6004Y-3.2638
X2.6004Y-3.2913
X2.6004Y-3.3169
X2.6004Y-3.3425
X2.6004Y-3.3681
X2.6004Y-3.3937
X2.6004Y-3.4193
X2.6024Y-3.6398
X2.6024Y-3.6654
X2.6024Y-3.6909
X2.6024Y-3.7165
X2.6024Y-3.7421
X2.6024Y-3.7677
X2.6024Y-3.7933
X2.6024Y-3.8189
X2.6024Y-3.8445
X2.6122Y-2.8228
X2.6122Y-2.8484
X2.6122Y-2.874
X2.6122Y-2.8996
X2.6122Y-2.9252
X2.6122Y-2.9508
X2.6122Y-2.9764
X2.6181Y-3.1929
X2.6201Y-3.1043
X2.626Y-3.872
X2.6378Y-2.9764
X2.6378Y-3.1496
X2.6378Y-3.9764
X2.6378Y-4.0551
X2.6378Y-4.1339
X2.6378Y-4.2126
X2.6378Y-4.2913
X2.6437Y-3.1929
X2.6457Y-3.1043
X2.6516Y-3.872
X2.6634Y-2.9764
X2.6693Y-3.1929
X2.6713Y-3.1043
X2.6772Y-2.7953
X2.6772Y-2.874
X2.6772Y-3.872
X2.6772Y-3.937
X2.6772Y-4.0157
X2.6772Y-4.0945
X2.6772Y-4.1732
X2.6772Y-4.252
X2.689Y-2.9764
X2.6949Y-3.1929
X2.6969Y-3.1043
X2.7028Y-3.872
X2.7146Y-2.9764
X2.7165Y-2.8346
X2.7165Y-2.9134
X2.7165Y-3.1496
X2.7165Y-3.9764
X2.7165Y-4.0551
X2.7165Y-4.1339
X2.7165Y-4.2126
X2.7165Y-4.2913
X2.7205Y-3.1929
X2.7224Y-3.1043
X2.7283Y-3.872
X2.7402Y-2.9764
X2.7461Y-3.1929
X2.748Y-3.1043
X2.7539Y-3.872
X2.7559Y-2.7953
X2.7559Y-2.874
X2.7559Y-3.937
X2.7559Y-4.0157
X2.7559Y-4.0945
X2.7559Y-4.1732
X2.7559Y-4.252
X2.7657Y-2.9764
X2.7717Y-3.1929
X2.7736Y-3.1043
X2.7795Y-3.872
X2.7913Y-2.9764
X2.7953Y-2.8346
X2.7953Y-2.9134
X2.7953Y-3.1496
X2.7953Y-3.9764
X2.7953Y-4.0551
X2.7953Y-4.1339
X2.7953Y-4.2126
X2.7953Y-4.2913
X2.7972Y-3.1929
X2.7992Y-3.1043
X2.8051Y-3.872
X2.8169Y-2.9764
X2.8228Y-3.1929
X2.8248Y-3.1043
X2.8307Y-3.872
X2.8346Y-2.7953
X2.8346Y-2.874
X2.8346Y-3.937
X2.8346Y-4.0157
X2.8346Y-4.0945
X2.8346Y-4.1732
X2.8346Y-4.252
X2.8425Y-2.9764
X2.8484Y-3.1929
X2.8504Y-3.1043
X2.8583Y-3.872
X2.8681Y-2.9764
X2.874Y-2.8346
X2.874Y-2.9134
X2.874Y-3.1161
X2.874Y-3.1417
X2.874Y-3.1673
X2.874Y-3.1929
X2.874Y-3.9764
X2.874Y-4.0551
X2.874Y-4.1339
X2.874Y-4.2126
X2.874Y-4.2913
X2.8839Y-3.872
X2.8937Y-2.9764
X2.9094Y-3.872
X2.9134Y-2.7953
X2.9134Y-2.874
X2.9134Y-3.937
X2.9134Y-4.0157
X2.9134Y-4.0945
X2.9134Y-4.1732
X2.9134Y-4.252
X2.9193Y-2.9764
X2.937Y-3.872
X2.9449Y-2.9764
X2.9528Y-2.8346
X2.9528Y-2.9134
X2.9528Y-3.9764
X2.9528Y-4.0551
X2.9528Y-4.1339
X2.9528Y-4.2126
X2.9528Y-4.2913
X2.9626Y-3.872
X2.9705Y-2.9764
X2.9882Y-3.872
X2.9902Y-2.9921
X2.9921Y-2.7953
X2.9921Y-2.874
X2.9921Y-3.937
X2.9921Y-4.0157
X2.9921Y-4.0945
X2.9921Y-4.1732
X2.9921Y-4.252
X3.0079Y-3.0098
X3.0157Y-3.872
X3.0256Y-3.0276
X3.0315Y-2.8346
X3.0315Y-3.9764
X3.0315Y-4.2126
X3.0315Y-4.2913
X3.0413Y-3.872
X3.0433Y-3.0453
X3.061Y-3.063
X3.0709Y-2.7953
X3.0709Y-3.937
X3.0709Y-4.0157
X3.0709Y-4.252
X3.0728Y-3.0906
X3.0728Y-3.1161
X3.0728Y-3.1417
X3.0728Y-3.1811
X3.0728Y-3.2244
X3.0728Y-3.2677
X3.0728Y-3.3179
X3.0728Y-3.3435
X3.0728Y-3.3701
X3.0728Y-3.4154
X3.0728Y-3.4587
X3.0728Y-3.502
X3.0728Y-3.5453
X3.0728Y-3.5886
X3.0728Y-3.6319
X3.0728Y-3.6752
X3.0728Y-3.7185
X3.0728Y-3.748
X3.0728Y-3.7746
X3.0728Y-3.8002
X3.0728Y-3.8435
X3.0728Y-3.8868
X3.0866Y-3.2028
X3.0866Y-3.2461
X3.0866Y-3.2894
X3.0866Y-3.3917
X3.0866Y-3.437
X3.0866Y-3.4803
X3.0866Y-3.5236
X3.0866Y-3.5669
X3.0866Y-3.6102
X3.0866Y-3.6535
X3.0866Y-3.6969
X3.0866Y-3.8219
X3.0866Y-3.8652
X3.0866Y-3.9085
X3.1004Y-3.1811
X3.1004Y-3.2244
X3.1004Y-3.2677
X3.1004Y-3.3701
X3.1004Y-3.4154
X3.1004Y-3.4587
X3.1004Y-3.502
X3.1004Y-3.5453
X3.1004Y-3.5886
X3.1004Y-3.6319
X3.1004Y-3.6752
X3.1004Y-3.7185
X3.1004Y-3.8002
X3.1004Y-3.8435
X3.1004Y-3.8868
X3.1102Y-3.1102
X3.1102Y-3.1496
X3.1102Y-3.9764
X3.1102Y-4.2913
X3.1142Y-3.2028
X3.1142Y-3.2461
X3.1142Y-3.2894
X3.1142Y-3.3917
X3.1142Y-3.437
X3.1142Y-3.4803
X3.1142Y-3.5236
X3.1142Y-3.5669
X3.1142Y-3.6102
X3.1142Y-3.6535
X3.1142Y-3.6969
X3.1142Y-3.8219
X3.1142Y-3.8652
X3.1142Y-3.9085
X3.128Y-3.1811
X3.128Y-3.2244
X3.128Y-3.2677
X3.128Y-3.3701
X3.128Y-3.4154
X3.128Y-3.4587
X3.128Y-3.502
X3.128Y-3.5453
X3.128Y-3.5886
X3.128Y-3.6319
X3.128Y-3.6752
X3.128Y-3.7185
X3.128Y-3.8002
X3.128Y-3.8435
X3.128Y-3.8868
X3.1417Y-3.2028
X3.1417Y-3.2461
X3.1417Y-3.2894
X3.1417Y-3.3917
X3.1417Y-3.437
X3.1417Y-3.4803
X3.1417Y-3.5236
X3.1417Y-3.5669
X3.1417Y-3.6102
X3.1417Y-3.6535
X3.1417Y-3.6969
X3.1417Y-3.8219
X3.1417Y-3.8652
X3.1417Y-3.9085
X3.1496Y-2.7953
X3.1496Y-3.1102
X3.1496Y-3.1496
X3.1496Y-3.937
X3.1555Y-3.1811
X3.1555Y-3.2244
X3.1555Y-3.2677
X3.1555Y-3.3701
X3.1555Y-3.4154
X3.1555Y-3.4587
X3.1555Y-3.502
X3.1555Y-3.5453
X3.1555Y-3.5886
X3.1555Y-3.6319
X3.1555Y-3.6752
X3.1555Y-3.7185
X3.1555Y-3.8002
X3.1555Y-3.8435
X3.1555Y-3.8868
X3.1693Y-3.2028
X3.1693Y-3.2461
X3.1693Y-3.2894
X3.1693Y-3.3917
X3.1693Y-3.437
X3.1693Y-3.4803
X3.1693Y-3.5236
X3.1693Y-3.5669
X3.1693Y-3.6102
X3.1693Y-3.6535
X3.1693Y-3.6969
X3.1693Y-3.8219
X3.1693Y-3.8652
X3.1693Y-3.9085
X3.1831Y-3.1811
X3.1831Y-3.2244
X3.1831Y-3.2677
X3.1831Y-3.3701
X3.1831Y-3.4154
X3.1831Y-3.4587
X3.1831Y-3.502
X3.1831Y-3.5453
X3.1831Y-3.5886
X3.1831Y-3.6319
X3.1831Y-3.6752
X3.1831Y-3.7185
X3.1831Y-3.8002
X3.1831Y-3.8435
X3.1831Y-3.8868
X3.189Y-3.1102
X3.189Y-3.1496
X3.189Y-3.9764
X3.189Y-4.2913
X3.1969Y-3.2028
X3.1969Y-3.2461
X3.1969Y-3.2894
X3.1969Y-3.3917
X3.1969Y-3.437
X3.1969Y-3.4803
X3.1969Y-3.5236
X3.1969Y-3.5669
X3.1969Y-3.6102
X3.1969Y-3.6535
X3.1969Y-3.6969
X3.1969Y-3.8219
X3.1969Y-3.8652
X3.1969Y-3.9085
X3.2106Y-3.1811
X3.2106Y-3.2244
X3.2106Y-3.2677
X3.2106Y-3.3701
X3.2106Y-3.4154
X3.2106Y-3.4587
X3.2106Y-3.502
X3.2106Y-3.5453
X3.2106Y-3.5886
X3.2106Y-3.6319
X3.2106Y-3.6752
X3.2106Y-3.7185
X3.2106Y-3.8002
X3.2106Y-3.8435
X3.2106Y-3.8868
X3.2224Y-3.75
X3.2234Y-3.0778
X3.2234Y-3.1043
X3.2234Y-3.1299
X3.2234Y-3.1555
X3.2244Y-3.2028
X3.2244Y-3.2461
X3.2244Y-3.2894
X3.2244Y-3.315
X3.2244Y-3.3406
X3.2244Y-3.3917
X3.2244Y-3.437
X3.2244Y-3.4803
X3.2244Y-3.5236
X3.2244Y-3.5669
X3.2244Y-3.6102
X3.2244Y-3.6535
X3.2244Y-3.6969
X3.2244Y-3.8219
X3.2244Y-3.8652
X3.2244Y-3.9085
X3.2283Y-2.7953
X3.2283Y-3.937
X3.2283Y-4.252
X3.2382Y-3.7923
X3.2421Y-3.0591
X3.248Y-3.7657
X3.2608Y-3.0404
X3.2677Y-2.8346
X3.2677Y-3.8189
X3.2677Y-3.8976
X3.2677Y-3.9764
X3.2677Y-4.0551
X3.2677Y-4.2126
X3.2677Y-4.2913
X3.2736Y-3.7657
X3.2795Y-3.0217
X3.2972Y-3.0039
X3.2992Y-3.7657
X3.3071Y-2.7953
X3.3071Y-2.874
X3.3071Y-2.9528
X3.3071Y-3.8583
X3.3071Y-3.937
X3.3071Y-4.0157
X3.3071Y-4.0945
X3.3071Y-4.1732
X3.3071Y-4.252
X3.315Y-2.9862
X3.3248Y-3.7657
X3.3406Y-2.9793
X3.3465Y-2.8346
X3.3465Y-2.9134
X3.3465Y-3.8189
X3.3465Y-3.8976
X3.3465Y-3.9764
X3.3465Y-4.0551
X3.3465Y-4.1339
X3.3465Y-4.2126
X3.3465Y-4.2913
X3.3504Y-3.7657
X3.3661Y-2.9793
X3.376Y-3.7657
X3.3858Y-2.7953
X3.3858Y-2.874
X3.3858Y-2.9528
X3.3858Y-3.8583
X3.3858Y-3.937
X3.3858Y-4.0157
X3.3858Y-4.0945
X3.3858Y-4.1732
X3.3858Y-4.252
X3.3917Y-2.9793
X3.4016Y-3.7657
X3.4173Y-2.9793
X3.4252Y-2.8346
X3.4252Y-2.9134
X3.4252Y-3.2087
X3.4252Y-3.2402
X3.4252Y-3.2677
X3.4252Y-3.2953
X3.4252Y-3.3268
X3.4252Y-3.8189
X3.4252Y-3.8976
X3.4252Y-3.9764
X3.4252Y-4.0551
X3.4272Y-3.7657
X3.4429Y-2.9793
X3.4508Y-3.2087
X3.4508Y-3.3268
X3.4528Y-3.7657
X3.4557Y-2.8041
X3.4557Y-2.8297
X3.4557Y-2.8553
X3.4557Y-2.8809
X3.4557Y-2.9065
X3.4557Y-2.9321
X3.4557Y-2.9577
X3.4646Y-3.8583
X3.4646Y-3.937
X3.4646Y-4.0157
X3.4764Y-3.2087
X3.4764Y-3.3268
X3.4783Y-3.7657
X3.502Y-3.2087
X3.502Y-3.3268
X3.5039Y-3.2677
X3.5039Y-3.7657
X3.5039Y-3.8189
X3.5039Y-3.8976
X3.5039Y-3.9764
X3.5039Y-4.0551
X3.5236Y-3.0315
X3.5276Y-3.2087
X3.5276Y-3.3268
X3.5295Y-3.7657
X3.5433Y-3.0118
X3.5433Y-3.8583
X3.5433Y-3.937
X3.5433Y-4.0157
X3.5531Y-3.2087
X3.5531Y-3.3268
X3.5551Y-3.7657
X3.563Y-3.0315
X3.5787Y-3.2087
X3.5787Y-3.3268
X3.5807Y-3.7657
X3.5827Y-3.0118
X3.5827Y-3.2677
X3.5827Y-3.8189
X3.5827Y-3.8976
X3.5827Y-3.9764
X3.5827Y-4.0551
X3.6024Y-3.0315
X3.6043Y-3.2087
X3.6043Y-3.3268
X3.6063Y-3.7657
X3.622Y-3.0118
X3.622Y-3.8583
X3.622Y-3.937
X3.622Y-4.0157
X3.6299Y-3.2087
X3.6299Y-3.3268
X3.6319Y-3.7657
X3.6417Y-3.0315
X3.6555Y-3.2087
X3.6555Y-3.3268
X3.6575Y-3.7697
X3.6614Y-3.0118
X3.6614Y-3.2677
X3.6614Y-3.8189
X3.6614Y-3.8976
X3.6614Y-3.9764
X3.6614Y-4.0551
X3.6791Y-3.628
X3.6791Y-3.6535
X3.6791Y-3.6791
X3.6791Y-3.7047
X3.6791Y-3.7303
X3.6811Y-3.0315
X3.6811Y-3.2087
X3.6811Y-3.3268
X3.6811Y-3.7559
X3.7008Y-3.0118
X3.7008Y-3.7795
X3.7008Y-3.8583
X3.7008Y-3.937
X3.7008Y-4.0157
X3.7047Y-3.628
X3.7067Y-3.2087
X3.7067Y-3.3268
X3.7205Y-3.0315
X3.7303Y-3.628
X3.7323Y-3.2087
X3.7323Y-3.3268
X3.7402Y-3.0118
X3.7402Y-3.2677
X3.7402Y-3.6614
X3.7402Y-3.7402
X3.7402Y-3.8189
X3.7402Y-3.8976
X3.7402Y-3.9764
X3.7402Y-4.0551
X3.7559Y-3.628
X3.7579Y-3.2087
X3.7579Y-3.3268
X3.7598Y-3.0315
X3.7795Y-3.0118
X3.7795Y-3.7008
X3.7795Y-3.7795
X3.7795Y-3.8583
X3.7795Y-3.937
X3.7795Y-4.0157
X3.7815Y-3.628
X3.7835Y-3.2087
X3.7835Y-3.3268
X3.7992Y-3.0315
X3.8071Y-3.628
X3.8091Y-3.2087
X3.8091Y-3.3268
X3.8189Y-3.0118
X3.8189Y-3.2677
X3.8189Y-3.6614
X3.8189Y-3.7402
X3.8189Y-3.8189
X3.8189Y-3.8976
X3.8189Y-3.9764
X3.8189Y-4.0551
X3.8327Y-3.628
X3.8386Y-3.2087
X3.8386Y-3.3268
X3.8583Y-3.628
X3.8583Y-3.7008
X3.8583Y-3.7795
X3.8583Y-3.8583
X3.8583Y-3.937
X3.8583Y-4.0157
X3.8642Y-3.2087
X3.8642Y-3.3268
X3.8839Y-3.628
X3.8898Y-3.2087
X3.8898Y-3.3268
X3.8976Y-3.2677
X3.8976Y-3.6614
X3.8976Y-3.7402
X3.8976Y-3.8189
X3.8976Y-3.8976
X3.8976Y-3.9764
X3.8976Y-4.0551
X3.9094Y-3.628
X3.9154Y-3.2087
X3.9154Y-3.3268
X3.935Y-3.628
X3.937Y-3.7008
X3.937Y-3.7795
X3.937Y-3.8583
X3.937Y-3.937
X3.937Y-4.0157
X3.9409Y-3.2087
X3.9409Y-3.3268
X3.9528Y-3.3622
X3.9528Y-3.3878
X3.9528Y-3.4134
X3.9528Y-3.4409
X3.9606Y-3.628
X3.9665Y-3.2087
X3.9764Y-3.2677
X3.9764Y-3.6614
X3.9764Y-3.7402
X3.9764Y-3.8189
X3.9764Y-3.8976
X3.9764Y-3.9764
X3.9764Y-4.0551
X3.9764Y-4.1339
X3.9764Y-4.2126
X3.9764Y-4.2913
X3.9783Y-3.4409
X3.9862Y-3.628
X3.9921Y-3.2087
X4.0039Y-3.4409
X4.0118Y-3.628
X4.0157Y-2.815
X4.0157Y-2.8406
X4.0157Y-2.8661
X4.0157Y-2.8917
X4.0157Y-3.0098
X4.0157Y-3.0354
X4.0157Y-3.061
X4.0157Y-3.0866
X4.0157Y-3.1122
X4.0157Y-3.1378
X4.0157Y-3.1634
X4.0157Y-3.189
X4.0157Y-3.3071
X4.0157Y-3.3858
X4.0157Y-3.7008
X4.0157Y-3.7795
X4.0157Y-3.8583
X4.0157Y-3.937
X4.0157Y-4.0157
X4.0157Y-4.252
X4.0295Y-3.4409
X4.0374Y-3.628
X4.0551Y-2.7953
X4.0551Y-3.1102
X4.0551Y-3.189
X4.0551Y-3.2677
X4.0551Y-3.3465
X4.0551Y-3.4409
X4.0551Y-3.6614
X4.0551Y-3.7402
X4.0551Y-3.8189
X4.0551Y-3.8976
X4.0551Y-3.9764
X4.0551Y-4.2913
X4.063Y-3.628
X4.0807Y-3.4409
X4.0886Y-3.628
X4.0945Y-3.1496
X4.0945Y-3.2283
X4.0945Y-3.3071
X4.0945Y-3.3858
X4.0945Y-3.7008
X4.0945Y-3.7795
X4.0945Y-3.8583
X4.0945Y-3.937
X4.1063Y-3.4409
X4.1142Y-3.628
X4.1319Y-3.4409
X4.1339Y-2.7953
X4.1339Y-3.1102
X4.1339Y-3.189
X4.1339Y-3.2677
X4.1339Y-3.3465
X4.1339Y-3.6614
X4.1339Y-3.7402
X4.1339Y-3.8189
X4.1339Y-3.8976
X4.1339Y-3.9764
X4.1339Y-4.2913
X4.1398Y-3.628
X4.1575Y-3.4409
X4.1654Y-3.628
X4.1732Y-3.1496
X4.1732Y-3.2283
X4.1732Y-3.3071
X4.1732Y-3.3858
X4.1732Y-3.7008
X4.1732Y-3.7795
X4.1732Y-3.8583
X4.1732Y-3.937
X4.1831Y-3.4409
X4.1909Y-3.628
X4.2087Y-3.4409
X4.2126Y-2.7953
X4.2126Y-3.1102
X4.2126Y-3.189
X4.2126Y-3.2677
X4.2126Y-3.3465
X4.2126Y-3.6614
X4.2126Y-3.7402
X4.2126Y-3.8189
X4.2126Y-3.8976
X4.2126Y-3.9764
X4.2126Y-4.2913
X4.2165Y-3.628
X4.2362Y-3.4409
X4.2421Y-3.628
X4.252Y-2.8346
X4.252Y-3.0709
X4.252Y-3.1496
X4.252Y-3.2283
X4.252Y-3.3071
X4.252Y-3.3858
X4.252Y-3.7008
X4.252Y-3.7795
X4.252Y-3.8583
X4.252Y-3.937
X4.252Y-4.0157
X4.252Y-4.252
X4.2618Y-3.4409
X4.2677Y-3.628
X4.2874Y-3.4409
X4.2913Y-2.7953
X4.2913Y-2.874
X4.2913Y-2.9528
X4.2913Y-3.0315
X4.2913Y-3.1102
X4.2913Y-3.189
X4.2913Y-3.2677
X4.2913Y-3.3465
X4.2913Y-3.6614
X4.2913Y-3.7402
X4.2913Y-3.8189
X4.2913Y-3.8976
X4.2913Y-3.9764
X4.2913Y-4.0551
X4.2913Y-4.1339
X4.2913Y-4.2126
X4.2913Y-4.2913
X4.2933Y-3.628
X4.313Y-3.4409
X4.3189Y-3.628
X4.3307Y-2.8346
X4.3307Y-2.9134
X4.3307Y-2.9921
X4.3307Y-3.0709
X4.3307Y-3.1496
X4.3307Y-3.2283
X4.3307Y-3.3071
X4.3307Y-3.3858
X4.3307Y-3.7008
X4.3307Y-3.7795
X4.3307Y-3.8583
X4.3307Y-3.937
X4.3307Y-4.0157
X4.3307Y-4.0945
X4.3307Y-4.1732
X4.3307Y-4.252
X4.3386Y-3.4409
X4.3445Y-3.628
X4.3642Y-3.4409
X4.3701Y-2.7953
X4.3701Y-2.874
X4.3701Y-2.9528
X4.3701Y-3.0315
X4.3701Y-3.1102
X4.3701Y-3.189
X4.3701Y-3.2677
X4.3701Y-3.3465
X4.3701Y-3.628
X4.3701Y-3.6614
X4.3701Y-3.7402
X4.3701Y-3.8189
X4.3701Y-3.8976
X4.3701Y-3.9764
X4.3701Y-4.0551
X4.3701Y-4.1339
X4.3701Y-4.2126
X4.3701Y-4.2913
X4.3898Y-3.4409
X4.3957Y-3.628
X4.4094Y-2.8346
X4.4094Y-2.9134
X4.4094Y-2.9921
X4.4094Y-3.0709
X4.4094Y-3.1496
X4.4094Y-3.2283
X4.4094Y-3.3071
X4.4094Y-3.3858
X4.4094Y-3.7008
X4.4094Y-3.7795
X4.4094Y-3.8583
X4.4094Y-3.937
X4.4094Y-4.0157
X4.4094Y-4.0945
X4.4094Y-4.1732
X4.4094Y-4.252
X4.4154Y-3.4409
X4.4213Y-3.628
X4.4409Y-3.4409
X4.4469Y-3.628
X4.4488Y-2.7953
X4.4488Y-2.874
X4.4488Y-2.9528
X4.4488Y-3.0315
X4.4488Y-3.1102
X4.4488Y-3.189
X4.4488Y-3.2677
X4.4488Y-3.3465
X4.4488Y-3.6614
X4.4488Y-3.7402
X4.4488Y-3.8189
X4.4488Y-3.8976
X4.4488Y-3.9764
X4.4488Y-4.0551
X4.4488Y-4.1339
X4.4488Y-4.2126
X4.4488Y-4.2913
T2
X2.1654Y-2.9528
X2.1654Y-4.1339
X3.1496Y-2.9528
X3.1496Y-4.1339
X4.1339Y-2.9528
X4.1339Y-4.1339
M30
