%TF.GenerationSoftware,KiCad,Pcbnew,8.0.1*%
%TF.CreationDate,2024-04-27T21:04:21-04:00*%
%TF.ProjectId,S-Band Amplifier,532d4261-6e64-4204-916d-706c69666965,v1.0*%
%TF.SameCoordinates,Original*%
%TF.FileFunction,Copper,L2,Bot*%
%TF.FilePolarity,Positive*%
%FSLAX46Y46*%
G04 Gerber Fmt 4.6, Leading zero omitted, Abs format (unit mm)*
G04 Created by KiCad (PCBNEW 8.0.1) date 2024-04-27 21:04:21*
%MOMM*%
%LPD*%
G01*
G04 APERTURE LIST*
%TA.AperFunction,ComponentPad*%
%ADD10C,5.562600*%
%TD*%
%TA.AperFunction,SMDPad,CuDef*%
%ADD11R,4.200000X1.350000*%
%TD*%
%TA.AperFunction,ViaPad*%
%ADD12C,0.600000*%
%TD*%
G04 APERTURE END LIST*
%TA.AperFunction,Conductor*%
%TO.N,GND*%
G36*
X44465000Y-70500000D02*
G01*
X113465000Y-70500000D01*
X113465000Y-109500000D01*
X44465000Y-109500000D01*
X44465000Y-70500000D01*
G37*
%TD.AperFunction*%
%TD*%
D10*
%TO.P,H2,1,1*%
%TO.N,GND*%
X55000000Y-105000000D03*
%TD*%
%TO.P,H1,1,1*%
%TO.N,GND*%
X80000000Y-75000000D03*
%TD*%
%TO.P,H4,1,1*%
%TO.N,GND*%
X105000000Y-105000000D03*
%TD*%
D11*
%TO.P,J2,2,Ext*%
%TO.N,GND*%
X46062500Y-87175000D03*
X46062500Y-92825000D03*
%TD*%
D10*
%TO.P,H6,1,1*%
%TO.N,GND*%
X55000000Y-75000000D03*
%TD*%
%TO.P,H3,1,1*%
%TO.N,GND*%
X105000000Y-75000000D03*
%TD*%
%TO.P,H5,1,1*%
%TO.N,GND*%
X80000000Y-105000000D03*
%TD*%
D11*
%TO.P,J1,2,Ext*%
%TO.N,GND*%
X111887500Y-92825000D03*
X111887500Y-87175000D03*
%TD*%
D12*
%TO.N,GND*%
X79100000Y-82450000D03*
X73000000Y-101000000D03*
X60700000Y-78850000D03*
X96100000Y-84500000D03*
X69000000Y-80000000D03*
X93450000Y-94750000D03*
X58000000Y-81000000D03*
X75000000Y-101000000D03*
X63000000Y-97000000D03*
X102550000Y-92150000D03*
X93450000Y-93450000D03*
X89600000Y-84500000D03*
X80150000Y-91150000D03*
X66000000Y-108000000D03*
X60000000Y-108000000D03*
X54600000Y-87450000D03*
X101000000Y-83000000D03*
X73250000Y-98350000D03*
X68000000Y-98350000D03*
X96000000Y-76500000D03*
X63300000Y-78850000D03*
X85000000Y-101000000D03*
X97500000Y-84500000D03*
X101000000Y-93000000D03*
X52000000Y-87450000D03*
X50050000Y-91950000D03*
X110200000Y-87400000D03*
X81550000Y-91150000D03*
X59000000Y-97000000D03*
X50000000Y-104000000D03*
X46000000Y-106000000D03*
X73900000Y-98350000D03*
X49000000Y-78000000D03*
X94000000Y-102000000D03*
X52000000Y-71000000D03*
X71000000Y-105000000D03*
X78050000Y-79150000D03*
X88300000Y-81500000D03*
X69750000Y-81100000D03*
X46000000Y-100000000D03*
X52650000Y-87450000D03*
X78050000Y-81900000D03*
X93000000Y-103000000D03*
X51350000Y-87450000D03*
X64000000Y-104000000D03*
X83300000Y-76750000D03*
X72000000Y-71000000D03*
X53000000Y-95000000D03*
X93500000Y-81500000D03*
X92200000Y-81500000D03*
X78400000Y-99275000D03*
X60000000Y-104000000D03*
X56550000Y-87450000D03*
X59400000Y-78850000D03*
X68000000Y-108000000D03*
X46000000Y-94000000D03*
X108000000Y-84000000D03*
X105000000Y-71000000D03*
X102000000Y-80350000D03*
X81900000Y-84850000D03*
X54000000Y-81000000D03*
X57700000Y-72250000D03*
X61000000Y-97000000D03*
X52000000Y-98000000D03*
X52000000Y-91950000D03*
X73000000Y-79800000D03*
X79450000Y-86750000D03*
X100000000Y-100000000D03*
X47000000Y-86000000D03*
X105000000Y-79000000D03*
X102000000Y-73450000D03*
X98150000Y-81500000D03*
X104000000Y-100000000D03*
X70000000Y-108000000D03*
X112300000Y-92150000D03*
X107000000Y-79000000D03*
X78050000Y-97625000D03*
X90250000Y-84500000D03*
X108000000Y-98000000D03*
X80150000Y-96525000D03*
X87775000Y-73175000D03*
X79800000Y-92800000D03*
X80150000Y-97625000D03*
X54600000Y-91950000D03*
X69000000Y-103000000D03*
X76000000Y-102000000D03*
X48000000Y-73000000D03*
X100400000Y-85400000D03*
X80850000Y-96525000D03*
X61000000Y-86000000D03*
X81900000Y-88400000D03*
X55000000Y-93000000D03*
X103000000Y-99000000D03*
X70400000Y-81100000D03*
X47000000Y-95000000D03*
X82000000Y-100000000D03*
X93450000Y-92800000D03*
X71000000Y-80000000D03*
X63000000Y-103000000D03*
X98800000Y-84500000D03*
X50700000Y-91950000D03*
X65000000Y-87450000D03*
X109050000Y-92150000D03*
X113000000Y-73000000D03*
X86000000Y-71000000D03*
X81875000Y-78850000D03*
X59000000Y-93000000D03*
X80500000Y-86150000D03*
X80500000Y-81350000D03*
X72400000Y-78850000D03*
X81200000Y-81350000D03*
X81900000Y-83550000D03*
X100000000Y-94000000D03*
X102000000Y-72150000D03*
X87450000Y-75675000D03*
X79100000Y-81350000D03*
X63000000Y-109000000D03*
X50000000Y-73000000D03*
X79800000Y-83550000D03*
X66100000Y-95700000D03*
X53300000Y-87450000D03*
X109000000Y-81000000D03*
X80500000Y-88400000D03*
X58500000Y-87450000D03*
X93000000Y-76500000D03*
X67000000Y-75600000D03*
X79800000Y-90600000D03*
X51000000Y-74000000D03*
X86000000Y-108000000D03*
X78400000Y-83550000D03*
X101050000Y-87400000D03*
X95000000Y-97000000D03*
X52000000Y-73000000D03*
X50000000Y-81000000D03*
X46000000Y-77000000D03*
X55000000Y-109000000D03*
X104950000Y-87400000D03*
X85750000Y-95650000D03*
X77250000Y-98350000D03*
X102000000Y-79050000D03*
X103000000Y-109000000D03*
X86400000Y-95650000D03*
X81850000Y-95250000D03*
X66050000Y-82900000D03*
X85500000Y-75675000D03*
X46000000Y-102000000D03*
X59000000Y-82000000D03*
X62000000Y-81000000D03*
X48000000Y-100000000D03*
X47000000Y-97000000D03*
X51000000Y-93000000D03*
X80850000Y-90050000D03*
X65000000Y-109000000D03*
X101000000Y-103000000D03*
X75250000Y-98350000D03*
X83000000Y-101000000D03*
X79100000Y-86150000D03*
X51000000Y-86000000D03*
X111000000Y-109000000D03*
X85000000Y-74000000D03*
X109000000Y-83000000D03*
X81550000Y-88950000D03*
X105800000Y-92150000D03*
X78400000Y-87300000D03*
X79100000Y-90600000D03*
X69000000Y-101000000D03*
X98000000Y-100000000D03*
X87775000Y-75125000D03*
X62650000Y-78850000D03*
X98650000Y-92150000D03*
X95000000Y-95000000D03*
X76000000Y-106000000D03*
X81550000Y-80800000D03*
X78050000Y-88950000D03*
X45000000Y-80000000D03*
X58000000Y-94000000D03*
X109000000Y-85000000D03*
X52000000Y-102000000D03*
X50000000Y-100000000D03*
X67000000Y-105000000D03*
X93000000Y-83000000D03*
X103000000Y-97000000D03*
X96500000Y-77000000D03*
X67000000Y-101000000D03*
X111000000Y-85000000D03*
X91000000Y-76500000D03*
X105000000Y-93000000D03*
X99000000Y-93000000D03*
X107000000Y-93000000D03*
X82000000Y-108000000D03*
X79100000Y-99275000D03*
X45000000Y-84000000D03*
X78000000Y-108000000D03*
X81875000Y-79500000D03*
X96750000Y-81500000D03*
X93000000Y-97000000D03*
X75950000Y-76000000D03*
X63000000Y-105000000D03*
X102000000Y-71500000D03*
X66050000Y-84250000D03*
X111000000Y-83000000D03*
X84000000Y-102000000D03*
X101000000Y-97000000D03*
X78050000Y-95875000D03*
X46000000Y-98000000D03*
X55000000Y-86000000D03*
X81900000Y-92800000D03*
X45000000Y-107000000D03*
X89000000Y-83000000D03*
X57700000Y-77000000D03*
X51000000Y-97000000D03*
X93000000Y-101000000D03*
X105000000Y-99000000D03*
X112000000Y-76000000D03*
X81550000Y-94450000D03*
X65000000Y-107000000D03*
X48000000Y-108000000D03*
X89000000Y-95650000D03*
X92200000Y-84500000D03*
X100400000Y-86050000D03*
X112000000Y-100000000D03*
X87000000Y-74000000D03*
X80850000Y-88950000D03*
X87700000Y-95650000D03*
X66100000Y-97000000D03*
X86000000Y-106000000D03*
X64000000Y-108000000D03*
X103000000Y-87400000D03*
X87000000Y-99000000D03*
X78750000Y-92250000D03*
X101700000Y-87400000D03*
X85000000Y-107000000D03*
X45000000Y-95000000D03*
X109000000Y-75000000D03*
X57000000Y-82000000D03*
X58000000Y-96000000D03*
X52000000Y-77000000D03*
X46000000Y-108000000D03*
X81550000Y-92250000D03*
X79100000Y-92800000D03*
X72000000Y-108000000D03*
X87000000Y-101000000D03*
X76000000Y-104000000D03*
X71550000Y-75600000D03*
X49400000Y-91950000D03*
X93450000Y-92150000D03*
X69000000Y-109000000D03*
X94000000Y-76500000D03*
X50050000Y-87450000D03*
X50000000Y-77000000D03*
X65000000Y-91950000D03*
X97000000Y-97000000D03*
X107000000Y-71000000D03*
X45000000Y-103000000D03*
X75450000Y-75600000D03*
X84000000Y-106000000D03*
X90950000Y-95650000D03*
X67000000Y-80000000D03*
X51000000Y-109000000D03*
X87775000Y-71875000D03*
X97000000Y-83000000D03*
X51000000Y-80000000D03*
X102000000Y-94000000D03*
X53000000Y-99000000D03*
X81900000Y-98175000D03*
X92850000Y-84500000D03*
X60000000Y-106000000D03*
X49000000Y-80000000D03*
X92900000Y-95750000D03*
X46800000Y-91950000D03*
X83750000Y-76300000D03*
X70450000Y-78850000D03*
X54000000Y-79000000D03*
X59150000Y-87450000D03*
X79800000Y-93900000D03*
X84000000Y-108000000D03*
X78750000Y-87850000D03*
X108000000Y-72000000D03*
X95000000Y-99000000D03*
X64000000Y-96000000D03*
X59000000Y-103000000D03*
X88000000Y-98000000D03*
X45000000Y-93000000D03*
X78050000Y-85600000D03*
X93000000Y-99000000D03*
X80850000Y-85600000D03*
X76850000Y-76900000D03*
X53000000Y-97000000D03*
X58000000Y-102000000D03*
X48100000Y-87450000D03*
X89000000Y-99000000D03*
X51000000Y-105000000D03*
X108000000Y-102000000D03*
X95450000Y-84500000D03*
X51000000Y-103000000D03*
X78400000Y-93900000D03*
X99450000Y-81500000D03*
X49000000Y-107000000D03*
X112000000Y-86000000D03*
X70000000Y-106000000D03*
X81900000Y-99275000D03*
X78050000Y-92250000D03*
X48000000Y-106000000D03*
X110000000Y-82000000D03*
X68000000Y-73000000D03*
X81200000Y-98175000D03*
X68000000Y-100000000D03*
X65000000Y-95000000D03*
X98150000Y-84500000D03*
X71750000Y-78850000D03*
X54000000Y-71000000D03*
X88000000Y-102000000D03*
X78750000Y-93350000D03*
X47000000Y-80000000D03*
X113000000Y-93000000D03*
X78400000Y-89500000D03*
X87000000Y-84500000D03*
X109000000Y-101000000D03*
X55000000Y-80000000D03*
X113000000Y-97000000D03*
X96050000Y-92150000D03*
X103000000Y-95000000D03*
X66100000Y-94400000D03*
X103000000Y-83000000D03*
X62000000Y-100000000D03*
X60050000Y-78850000D03*
X99950000Y-92150000D03*
X80150000Y-93350000D03*
X97500000Y-81500000D03*
X113000000Y-107000000D03*
X80500000Y-89500000D03*
X45000000Y-101000000D03*
X85000000Y-72000000D03*
X70250000Y-75600000D03*
X72000000Y-104000000D03*
X81200000Y-83550000D03*
X101000000Y-101000000D03*
X80500000Y-91700000D03*
X95000000Y-103000000D03*
X107000000Y-83000000D03*
X81900000Y-91700000D03*
X81200000Y-88400000D03*
X58100000Y-78850000D03*
X104000000Y-96000000D03*
X94800000Y-84500000D03*
X110000000Y-100000000D03*
X72350000Y-81100000D03*
X91000000Y-103000000D03*
X72200000Y-75600000D03*
X81000000Y-109000000D03*
X79000000Y-109000000D03*
X109000000Y-107000000D03*
X61750000Y-91950000D03*
X66000000Y-102000000D03*
X109000000Y-105000000D03*
X101400000Y-81500000D03*
X66050000Y-84900000D03*
X46000000Y-71000000D03*
X52000000Y-100000000D03*
X71000000Y-103000000D03*
X101000000Y-109000000D03*
X98000000Y-102000000D03*
X79800000Y-91700000D03*
X79450000Y-90050000D03*
X80850000Y-91150000D03*
X79450000Y-80800000D03*
X48000000Y-98000000D03*
X78750000Y-96525000D03*
X70000000Y-100000000D03*
X86150000Y-75675000D03*
X60000000Y-85000000D03*
X79450000Y-87850000D03*
X61000000Y-84000000D03*
X79800000Y-98175000D03*
X109000000Y-103000000D03*
X113000000Y-109000000D03*
X52000000Y-79000000D03*
X111650000Y-92150000D03*
X49000000Y-105000000D03*
X69800000Y-78850000D03*
X87050000Y-95650000D03*
X48000000Y-71000000D03*
X110000000Y-102000000D03*
X47000000Y-74000000D03*
X83000000Y-72000000D03*
X94750000Y-92150000D03*
X84850000Y-75675000D03*
X59150000Y-91950000D03*
X48000000Y-85000000D03*
X57000000Y-109000000D03*
X99300000Y-92150000D03*
X51000000Y-107000000D03*
X61350000Y-78850000D03*
X94000000Y-100000000D03*
X83150000Y-95650000D03*
X98000000Y-94000000D03*
X69000000Y-72000000D03*
X54000000Y-94000000D03*
X98000000Y-96000000D03*
X65000000Y-101000000D03*
X80500000Y-98175000D03*
X67800000Y-81100000D03*
X104000000Y-94000000D03*
X51000000Y-101000000D03*
X80850000Y-98725000D03*
X65000000Y-93000000D03*
X103000000Y-81000000D03*
X79000000Y-101000000D03*
X107000000Y-109000000D03*
X50000000Y-94000000D03*
X108000000Y-96000000D03*
X50000000Y-96000000D03*
X49000000Y-95000000D03*
X73000000Y-109000000D03*
X94800000Y-81500000D03*
X100100000Y-81500000D03*
X56000000Y-71000000D03*
X111000000Y-73000000D03*
X64000000Y-85000000D03*
X58000000Y-85000000D03*
X111000000Y-101000000D03*
X58000000Y-83000000D03*
X84000000Y-75000000D03*
X78750000Y-98725000D03*
X82825000Y-77225000D03*
X87650000Y-81500000D03*
X44850000Y-91950000D03*
X69000000Y-74000000D03*
X102000000Y-100000000D03*
X50700000Y-87450000D03*
X88350000Y-95650000D03*
X57000000Y-86000000D03*
X56000000Y-94000000D03*
X81550000Y-85600000D03*
X59800000Y-91950000D03*
X46000000Y-79000000D03*
X112000000Y-96000000D03*
X73000000Y-105000000D03*
X111000000Y-81000000D03*
X79450000Y-96525000D03*
X79000000Y-80000000D03*
X62400000Y-87450000D03*
X84000000Y-104000000D03*
X110000000Y-96000000D03*
X75000000Y-105000000D03*
X47000000Y-72000000D03*
X51000000Y-95000000D03*
X61000000Y-101000000D03*
X102000000Y-86000000D03*
X49000000Y-86000000D03*
X75000000Y-107000000D03*
X51000000Y-76000000D03*
X51000000Y-82000000D03*
X77000000Y-72000000D03*
X66000000Y-104000000D03*
X66700000Y-98350000D03*
X68450000Y-81100000D03*
X106000000Y-100000000D03*
X81900000Y-97075000D03*
X46000000Y-81000000D03*
X61000000Y-82000000D03*
X90500000Y-77000000D03*
X67350000Y-98350000D03*
X79800000Y-86150000D03*
X47000000Y-99000000D03*
X79800000Y-82450000D03*
X57000000Y-80000000D03*
X53950000Y-91950000D03*
X68300000Y-75600000D03*
X94000000Y-98000000D03*
X79100000Y-89500000D03*
X83000000Y-109000000D03*
X65000000Y-105000000D03*
X99000000Y-99000000D03*
X80850000Y-93350000D03*
X47000000Y-101000000D03*
X61000000Y-99000000D03*
X68950000Y-75600000D03*
X88300000Y-84500000D03*
X57000000Y-93000000D03*
X77000000Y-107000000D03*
X50000000Y-106000000D03*
X54000000Y-83000000D03*
X110000000Y-106000000D03*
X79000000Y-79000000D03*
X110000000Y-86000000D03*
X81550000Y-93350000D03*
X61000000Y-109000000D03*
X65000000Y-103000000D03*
X71900000Y-98350000D03*
X68650000Y-98350000D03*
X66100000Y-93100000D03*
X74000000Y-71000000D03*
X62000000Y-78850000D03*
X49000000Y-76000000D03*
X51350000Y-91950000D03*
X45000000Y-99000000D03*
X48000000Y-96000000D03*
X75000000Y-103000000D03*
X81200000Y-89500000D03*
X104000000Y-86000000D03*
X110000000Y-104000000D03*
X97350000Y-92150000D03*
X56000000Y-79000000D03*
X64350000Y-87450000D03*
X63000000Y-101000000D03*
X68000000Y-102000000D03*
X64000000Y-106000000D03*
X78400000Y-82450000D03*
X48100000Y-91950000D03*
X111000000Y-75000000D03*
X77000000Y-101000000D03*
X103650000Y-87400000D03*
X45500000Y-87450000D03*
X110000000Y-108000000D03*
X81550000Y-86750000D03*
X110000000Y-72000000D03*
X73000000Y-81100000D03*
X75000000Y-72000000D03*
X102000000Y-77100000D03*
X76000000Y-108000000D03*
X100750000Y-81500000D03*
X69100000Y-81100000D03*
X66050000Y-86850000D03*
X69950000Y-98350000D03*
X79450000Y-91150000D03*
X58000000Y-108000000D03*
X80500000Y-83550000D03*
X78000000Y-100000000D03*
X68000000Y-104000000D03*
X66350000Y-74950000D03*
X109000000Y-79000000D03*
X104000000Y-98000000D03*
X78050000Y-78500000D03*
X60000000Y-100000000D03*
X54000000Y-100000000D03*
X79800000Y-89500000D03*
X112000000Y-74000000D03*
X87000000Y-72000000D03*
X96000000Y-98000000D03*
X61000000Y-95000000D03*
X79800000Y-99275000D03*
X61000000Y-93000000D03*
X108000000Y-100000000D03*
X80500000Y-99275000D03*
X63700000Y-87450000D03*
X46000000Y-83000000D03*
X92250000Y-95650000D03*
X89650000Y-95650000D03*
X100000000Y-98000000D03*
X113000000Y-105000000D03*
X81900000Y-81350000D03*
X78050000Y-84925000D03*
X62000000Y-98000000D03*
X79450000Y-92250000D03*
X49000000Y-97000000D03*
X49000000Y-103000000D03*
X64000000Y-83000000D03*
X78050000Y-93350000D03*
X78750000Y-88950000D03*
X80150000Y-92250000D03*
X67650000Y-75600000D03*
X70600000Y-98350000D03*
X55000000Y-101000000D03*
X89000000Y-101000000D03*
X94100000Y-92150000D03*
X53000000Y-86000000D03*
X63000000Y-84000000D03*
X50000000Y-102000000D03*
X65000000Y-97000000D03*
X91000000Y-97000000D03*
X48000000Y-79000000D03*
X72000000Y-106000000D03*
X110000000Y-94000000D03*
X49000000Y-82000000D03*
X86000000Y-100000000D03*
X113000000Y-101000000D03*
X80150000Y-86750000D03*
X59000000Y-84000000D03*
X79450000Y-81900000D03*
X112000000Y-94000000D03*
X78000000Y-102000000D03*
X64000000Y-102000000D03*
X61000000Y-107000000D03*
X64000000Y-81000000D03*
X71000000Y-74000000D03*
X64000000Y-100000000D03*
X89000000Y-97000000D03*
X79450000Y-85600000D03*
X64600000Y-78850000D03*
X78050000Y-98725000D03*
X87775000Y-71225000D03*
X81900000Y-93900000D03*
X95000000Y-76500000D03*
X92000000Y-102000000D03*
X104000000Y-80000000D03*
X111000000Y-99000000D03*
X73000000Y-74000000D03*
X45000000Y-82000000D03*
X96750000Y-84500000D03*
X109700000Y-92150000D03*
X63950000Y-78850000D03*
X77300000Y-77350000D03*
X67000000Y-107000000D03*
X66100000Y-97650000D03*
X81200000Y-92800000D03*
X62000000Y-94000000D03*
X100600000Y-92150000D03*
X69000000Y-107000000D03*
X78050000Y-94450000D03*
X78050000Y-95200000D03*
X111000000Y-95000000D03*
X53000000Y-84000000D03*
X57850000Y-87450000D03*
X76000000Y-73000000D03*
X112000000Y-72000000D03*
X100100000Y-84500000D03*
X62000000Y-96000000D03*
X55000000Y-95000000D03*
X90300000Y-95650000D03*
X96000000Y-94000000D03*
X46800000Y-87450000D03*
X84450000Y-95650000D03*
X99000000Y-97000000D03*
X58000000Y-100000000D03*
X57000000Y-97000000D03*
X49000000Y-74000000D03*
X50000000Y-83000000D03*
X78750000Y-91150000D03*
X87775000Y-73825000D03*
X50000000Y-79000000D03*
X110000000Y-98000000D03*
X94150000Y-84500000D03*
X64350000Y-91950000D03*
X59000000Y-99000000D03*
X99000000Y-83000000D03*
X66100000Y-93750000D03*
X81550000Y-87850000D03*
X53300000Y-91950000D03*
X87775000Y-72525000D03*
X50000000Y-85000000D03*
X66000000Y-106000000D03*
X69600000Y-75600000D03*
X80000000Y-79000000D03*
X57000000Y-84000000D03*
X66050000Y-86200000D03*
X79100000Y-83550000D03*
X80000000Y-100000000D03*
X63000000Y-107000000D03*
X92000000Y-76500000D03*
X80150000Y-87850000D03*
X83000000Y-99000000D03*
X48000000Y-83000000D03*
X81550000Y-98725000D03*
X104000000Y-84000000D03*
X56000000Y-100000000D03*
X52650000Y-91950000D03*
X78000000Y-71000000D03*
X103200000Y-92150000D03*
X108900000Y-87400000D03*
X60000000Y-102000000D03*
X109000000Y-77000000D03*
X110000000Y-78000000D03*
X109000000Y-73000000D03*
X104500000Y-92150000D03*
X95000000Y-93000000D03*
X47000000Y-78000000D03*
X49000000Y-109000000D03*
X81200000Y-97075000D03*
X69300000Y-98350000D03*
X112000000Y-102000000D03*
X87650000Y-84500000D03*
X68000000Y-71000000D03*
X78750000Y-81900000D03*
X54000000Y-85000000D03*
X81200000Y-90600000D03*
X78050000Y-90050000D03*
X51000000Y-72000000D03*
X51000000Y-99000000D03*
X54000000Y-98000000D03*
X69150000Y-78850000D03*
X78750000Y-90050000D03*
X109000000Y-95000000D03*
X48000000Y-77000000D03*
X81900000Y-86150000D03*
X80850000Y-83000000D03*
X106000000Y-86000000D03*
X80850000Y-97625000D03*
X74600000Y-98350000D03*
X81550000Y-81900000D03*
X102000000Y-102000000D03*
X99450000Y-84500000D03*
X81200000Y-82450000D03*
X73000000Y-107000000D03*
X112150000Y-87400000D03*
X93500000Y-95400000D03*
X101000000Y-99000000D03*
X105000000Y-101000000D03*
X45000000Y-72000000D03*
X112950000Y-92150000D03*
X79100000Y-98175000D03*
X65000000Y-80000000D03*
X53000000Y-78000000D03*
X111000000Y-92150000D03*
X109000000Y-97000000D03*
X66350000Y-72350000D03*
X66350000Y-71700000D03*
X79450000Y-94450000D03*
X80150000Y-88950000D03*
X56000000Y-96000000D03*
X83000000Y-97000000D03*
X80150000Y-83000000D03*
X91550000Y-81500000D03*
X80850000Y-94450000D03*
X71000000Y-109000000D03*
X80850000Y-81900000D03*
X78050000Y-80800000D03*
X90000000Y-102000000D03*
X74000000Y-106000000D03*
X55900000Y-91950000D03*
X78400000Y-86150000D03*
X100000000Y-96000000D03*
X50000000Y-108000000D03*
X81000000Y-79000000D03*
X92850000Y-81500000D03*
X93500000Y-77000000D03*
X60000000Y-98000000D03*
X73500000Y-75600000D03*
X80500000Y-92800000D03*
X79450000Y-93350000D03*
X62000000Y-83000000D03*
X55000000Y-82000000D03*
X88950000Y-84500000D03*
X49000000Y-101000000D03*
X73000000Y-80450000D03*
X83000000Y-103000000D03*
X79100000Y-91700000D03*
X53000000Y-93000000D03*
X55250000Y-91950000D03*
X87000000Y-82300000D03*
X59000000Y-105000000D03*
X51000000Y-84000000D03*
X77000000Y-109000000D03*
X61750000Y-87450000D03*
X110850000Y-87400000D03*
X56000000Y-83000000D03*
X57200000Y-87450000D03*
X48000000Y-94000000D03*
X47000000Y-82000000D03*
X105150000Y-92150000D03*
X57000000Y-99000000D03*
X112000000Y-98000000D03*
X68500000Y-78850000D03*
X80850000Y-80800000D03*
X59000000Y-95000000D03*
X78400000Y-88400000D03*
X71000000Y-72000000D03*
X78750000Y-85600000D03*
X90000000Y-100000000D03*
X84000000Y-100000000D03*
X87775000Y-74475000D03*
X101250000Y-92150000D03*
X96100000Y-81500000D03*
X63000000Y-99000000D03*
X111000000Y-77000000D03*
X53000000Y-101000000D03*
X78750000Y-83000000D03*
X48000000Y-104000000D03*
X52000000Y-85000000D03*
X49400000Y-87450000D03*
X47000000Y-109000000D03*
X103000000Y-79000000D03*
X48750000Y-87450000D03*
X79100000Y-87300000D03*
X46000000Y-75000000D03*
X78750000Y-80800000D03*
X94000000Y-96000000D03*
X108000000Y-82000000D03*
X81900000Y-89500000D03*
X102000000Y-77750000D03*
X45000000Y-86000000D03*
X74000000Y-102000000D03*
X95400000Y-92150000D03*
X111000000Y-97000000D03*
X108000000Y-80000000D03*
X72000000Y-102000000D03*
X47000000Y-105000000D03*
X59000000Y-107000000D03*
X91550000Y-84500000D03*
X95000000Y-83000000D03*
X53000000Y-82000000D03*
X107750000Y-92150000D03*
X70000000Y-71000000D03*
X113000000Y-83000000D03*
X78400000Y-98175000D03*
X106000000Y-96000000D03*
X105000000Y-83000000D03*
X105600000Y-87400000D03*
X66050000Y-81600000D03*
X63000000Y-86000000D03*
X61100000Y-87450000D03*
X71100000Y-78850000D03*
X57700000Y-77650000D03*
X89000000Y-103000000D03*
X109000000Y-109000000D03*
X106000000Y-94000000D03*
X111000000Y-93000000D03*
X113000000Y-81000000D03*
X47000000Y-103000000D03*
X106900000Y-87400000D03*
X60450000Y-87450000D03*
X57700000Y-72900000D03*
X108400000Y-92150000D03*
X71700000Y-81100000D03*
X58000000Y-98000000D03*
X80850000Y-86750000D03*
X101000000Y-105000000D03*
X81200000Y-99275000D03*
X80000000Y-80000000D03*
X78400000Y-90600000D03*
X62000000Y-108000000D03*
X86000000Y-75000000D03*
X70000000Y-73000000D03*
X75000000Y-109000000D03*
X80000000Y-71000000D03*
X112000000Y-104000000D03*
X83800000Y-95650000D03*
X89600000Y-81500000D03*
X107100000Y-92150000D03*
X86000000Y-73000000D03*
X46000000Y-85000000D03*
X102000000Y-81000000D03*
X108000000Y-94000000D03*
X87000000Y-83000000D03*
X106000000Y-82000000D03*
X97000000Y-99000000D03*
X55000000Y-84000000D03*
X104300000Y-87400000D03*
X80500000Y-87300000D03*
X62000000Y-106000000D03*
X81550000Y-96525000D03*
X109000000Y-71000000D03*
X85000000Y-97000000D03*
X107000000Y-81000000D03*
X107000000Y-99000000D03*
X87000000Y-97000000D03*
X111000000Y-105000000D03*
X90000000Y-98000000D03*
X80150000Y-81900000D03*
X96000000Y-96000000D03*
X90250000Y-81500000D03*
X102000000Y-76450000D03*
X80500000Y-97075000D03*
X45000000Y-105000000D03*
X66000000Y-100000000D03*
X64000000Y-94000000D03*
X80150000Y-85600000D03*
X51000000Y-78000000D03*
X73000000Y-72000000D03*
X92000000Y-98000000D03*
X72850000Y-75600000D03*
X47000000Y-76000000D03*
X50000000Y-75000000D03*
X78050000Y-91150000D03*
X49000000Y-72000000D03*
X78750000Y-97625000D03*
X70900000Y-75600000D03*
X63000000Y-82000000D03*
X66550000Y-78850000D03*
X63700000Y-91950000D03*
X88950000Y-81500000D03*
X108000000Y-86000000D03*
X57850000Y-91950000D03*
X112800000Y-87400000D03*
X79100000Y-93900000D03*
X100400000Y-87400000D03*
X57700000Y-70950000D03*
X74000000Y-108000000D03*
X56550000Y-91950000D03*
X86800000Y-75675000D03*
X113000000Y-95000000D03*
X46000000Y-73000000D03*
X62000000Y-85000000D03*
X68000000Y-106000000D03*
X112000000Y-84000000D03*
X108000000Y-78000000D03*
X95000000Y-101000000D03*
X94500000Y-77000000D03*
X45000000Y-76000000D03*
X87000000Y-103000000D03*
X47450000Y-91950000D03*
X95500000Y-77000000D03*
X108250000Y-87400000D03*
X79100000Y-88400000D03*
X90900000Y-81500000D03*
X90000000Y-76500000D03*
X66050000Y-85550000D03*
X78400000Y-92800000D03*
X46000000Y-96000000D03*
X110350000Y-92150000D03*
X109000000Y-99000000D03*
X57700000Y-78300000D03*
X67850000Y-78850000D03*
X87000000Y-83700000D03*
X102000000Y-96000000D03*
X63000000Y-95000000D03*
X91000000Y-99000000D03*
X85000000Y-99000000D03*
X60450000Y-91950000D03*
X81875000Y-80150000D03*
X65000000Y-99000000D03*
X106450000Y-92150000D03*
X65650000Y-91950000D03*
X98000000Y-92150000D03*
X89500000Y-77000000D03*
X52000000Y-81000000D03*
X102000000Y-108000000D03*
X97000000Y-95000000D03*
X66100000Y-95050000D03*
X107000000Y-95000000D03*
X107000000Y-101000000D03*
X91000000Y-101000000D03*
X84000000Y-73000000D03*
X81200000Y-86150000D03*
X102000000Y-84000000D03*
X78050000Y-87850000D03*
X53000000Y-72000000D03*
X45000000Y-74000000D03*
X112000000Y-106000000D03*
X78400000Y-91700000D03*
X105000000Y-85000000D03*
X57000000Y-95000000D03*
X53000000Y-109000000D03*
X79800000Y-97075000D03*
X74800000Y-75600000D03*
X105000000Y-95000000D03*
X103000000Y-71000000D03*
X57700000Y-71600000D03*
X70000000Y-102000000D03*
X106000000Y-98000000D03*
X63050000Y-87450000D03*
X70000000Y-104000000D03*
X65900000Y-78850000D03*
X52000000Y-96000000D03*
X73000000Y-79150000D03*
X101900000Y-92150000D03*
X66050000Y-83600000D03*
X49000000Y-84000000D03*
X78050000Y-86750000D03*
X58750000Y-78850000D03*
X81000000Y-101000000D03*
X106000000Y-84000000D03*
X76000000Y-100000000D03*
X61000000Y-80000000D03*
X79450000Y-98725000D03*
X79100000Y-97075000D03*
X97000000Y-103000000D03*
X102000000Y-72800000D03*
X72000000Y-100000000D03*
X62000000Y-102000000D03*
X74000000Y-104000000D03*
X79800000Y-88400000D03*
X100000000Y-102000000D03*
X107600000Y-87400000D03*
X75000000Y-74000000D03*
X102350000Y-87400000D03*
X84000000Y-98000000D03*
X81000000Y-80000000D03*
X86000000Y-98000000D03*
X96700000Y-92150000D03*
X112000000Y-82000000D03*
X100400000Y-86700000D03*
X79800000Y-87300000D03*
X45500000Y-91950000D03*
X82500000Y-95650000D03*
X113000000Y-85000000D03*
X55000000Y-99000000D03*
X49000000Y-99000000D03*
X73000000Y-103000000D03*
X105000000Y-81000000D03*
X113000000Y-77000000D03*
X82250000Y-96325000D03*
X83000000Y-107000000D03*
X113000000Y-99000000D03*
X111000000Y-71000000D03*
X72000000Y-73000000D03*
X103000000Y-93000000D03*
X49000000Y-93000000D03*
X74150000Y-75600000D03*
X55900000Y-87450000D03*
X103850000Y-92150000D03*
X97000000Y-93000000D03*
X60000000Y-81000000D03*
X66050000Y-82250000D03*
X45000000Y-78000000D03*
X60000000Y-83000000D03*
X59000000Y-109000000D03*
X47000000Y-93000000D03*
X52000000Y-94000000D03*
X107000000Y-97000000D03*
X81900000Y-90600000D03*
X80150000Y-80800000D03*
X53000000Y-80000000D03*
X93500000Y-84500000D03*
X93450000Y-94100000D03*
X112000000Y-78000000D03*
X105000000Y-109000000D03*
X84000000Y-71000000D03*
X56000000Y-85000000D03*
X113000000Y-79000000D03*
X80500000Y-93900000D03*
X59800000Y-87450000D03*
X66350000Y-73650000D03*
X113000000Y-103000000D03*
X99000000Y-101000000D03*
X98000000Y-98000000D03*
X44850000Y-87450000D03*
X78050000Y-83000000D03*
X45000000Y-97000000D03*
X92500000Y-77000000D03*
X113000000Y-71000000D03*
X57200000Y-91950000D03*
X84200000Y-75850000D03*
X107000000Y-85000000D03*
X102000000Y-79700000D03*
X59000000Y-80000000D03*
X101000000Y-107000000D03*
X67000000Y-109000000D03*
X110000000Y-84000000D03*
X81200000Y-87300000D03*
X94150000Y-81500000D03*
X111000000Y-103000000D03*
X92000000Y-100000000D03*
X67200000Y-78850000D03*
X66350000Y-73000000D03*
X71000000Y-107000000D03*
X86000000Y-104000000D03*
X76000000Y-71000000D03*
X50000000Y-71000000D03*
X57000000Y-101000000D03*
X97000000Y-101000000D03*
X108000000Y-108000000D03*
X80150000Y-90050000D03*
X50000000Y-98000000D03*
X78050000Y-96525000D03*
X53950000Y-87450000D03*
X46150000Y-91950000D03*
X85000000Y-103000000D03*
X80500000Y-82450000D03*
X81875000Y-78175000D03*
X95450000Y-81500000D03*
X66350000Y-75600000D03*
X78750000Y-94450000D03*
X47000000Y-107000000D03*
X62000000Y-104000000D03*
X48000000Y-102000000D03*
X112000000Y-80000000D03*
X79450000Y-88950000D03*
X81900000Y-82450000D03*
X56000000Y-98000000D03*
X59000000Y-86000000D03*
X111000000Y-107000000D03*
X67150000Y-81100000D03*
X85000000Y-109000000D03*
X113000000Y-75000000D03*
X80500000Y-90600000D03*
X61100000Y-91950000D03*
X66100000Y-96350000D03*
X77750000Y-77800000D03*
X74000000Y-100000000D03*
X45000000Y-109000000D03*
X85000000Y-105000000D03*
X66500000Y-81100000D03*
X46150000Y-87450000D03*
X87000000Y-81500000D03*
X109000000Y-93000000D03*
X102000000Y-98000000D03*
X55250000Y-87450000D03*
X104000000Y-82000000D03*
X80150000Y-94450000D03*
X98800000Y-81500000D03*
X65650000Y-87450000D03*
X101000000Y-95000000D03*
X48750000Y-91950000D03*
X81550000Y-83000000D03*
X86000000Y-102000000D03*
X48000000Y-75000000D03*
X61000000Y-105000000D03*
X111000000Y-79000000D03*
X62400000Y-91950000D03*
X81900000Y-87300000D03*
X81900000Y-84200000D03*
X96000000Y-100000000D03*
X61000000Y-103000000D03*
X48000000Y-81000000D03*
X99000000Y-103000000D03*
X71050000Y-81100000D03*
X110000000Y-80000000D03*
X76400000Y-76450000D03*
X81200000Y-91700000D03*
X91000000Y-83000000D03*
X78050000Y-79800000D03*
X81200000Y-93900000D03*
X103000000Y-101000000D03*
X65250000Y-78850000D03*
X66350000Y-74300000D03*
X112000000Y-108000000D03*
X76600000Y-98350000D03*
X96000000Y-102000000D03*
X85100000Y-95650000D03*
X75900000Y-98350000D03*
X81550000Y-90050000D03*
X106000000Y-80000000D03*
X60000000Y-96000000D03*
X79450000Y-83000000D03*
X72600000Y-98350000D03*
X74000000Y-73000000D03*
X110000000Y-76000000D03*
X71250000Y-98350000D03*
X82350000Y-77700000D03*
X78400000Y-97075000D03*
X78050000Y-84275000D03*
X54000000Y-96000000D03*
X110000000Y-74000000D03*
X91600000Y-95650000D03*
X67000000Y-103000000D03*
X80150000Y-98725000D03*
X63000000Y-80000000D03*
X99000000Y-95000000D03*
X105000000Y-97000000D03*
X78750000Y-86750000D03*
X52000000Y-108000000D03*
X79450000Y-97625000D03*
X66100000Y-92450000D03*
X60000000Y-94000000D03*
X82000000Y-71000000D03*
X109550000Y-87400000D03*
X47000000Y-84000000D03*
X52000000Y-83000000D03*
X103000000Y-85000000D03*
X78400000Y-81350000D03*
X46000000Y-104000000D03*
X58500000Y-91950000D03*
X111500000Y-87400000D03*
X63050000Y-91950000D03*
X47450000Y-87450000D03*
X55000000Y-97000000D03*
X56000000Y-81000000D03*
X80850000Y-87850000D03*
X81550000Y-97625000D03*
X102000000Y-78400000D03*
X106250000Y-87400000D03*
X71000000Y-101000000D03*
X90900000Y-84500000D03*
X69000000Y-105000000D03*
X59000000Y-101000000D03*
X64000000Y-98000000D03*
X79800000Y-81350000D03*
X88000000Y-100000000D03*
X80850000Y-92250000D03*
X97000000Y-76500000D03*
X63000000Y-93000000D03*
X91500000Y-77000000D03*
%TD*%
M02*
