%TF.GenerationSoftware,KiCad,Pcbnew,8.0.1*%
%TF.CreationDate,2024-04-27T21:04:21-04:00*%
%TF.ProjectId,S-Band Amplifier,532d4261-6e64-4204-916d-706c69666965,v1.0*%
%TF.SameCoordinates,Original*%
%TF.FileFunction,Soldermask,Top*%
%TF.FilePolarity,Negative*%
%FSLAX46Y46*%
G04 Gerber Fmt 4.6, Leading zero omitted, Abs format (unit mm)*
G04 Created by KiCad (PCBNEW 8.0.1) date 2024-04-27 21:04:21*
%MOMM*%
%LPD*%
G01*
G04 APERTURE LIST*
G04 Aperture macros list*
%AMRoundRect*
0 Rectangle with rounded corners*
0 $1 Rounding radius*
0 $2 $3 $4 $5 $6 $7 $8 $9 X,Y pos of 4 corners*
0 Add a 4 corners polygon primitive as box body*
4,1,4,$2,$3,$4,$5,$6,$7,$8,$9,$2,$3,0*
0 Add four circle primitives for the rounded corners*
1,1,$1+$1,$2,$3*
1,1,$1+$1,$4,$5*
1,1,$1+$1,$6,$7*
1,1,$1+$1,$8,$9*
0 Add four rect primitives between the rounded corners*
20,1,$1+$1,$2,$3,$4,$5,0*
20,1,$1+$1,$4,$5,$6,$7,0*
20,1,$1+$1,$6,$7,$8,$9,0*
20,1,$1+$1,$8,$9,$2,$3,0*%
G04 Aperture macros list end*
%ADD10RoundRect,0.250000X-0.250000X-0.475000X0.250000X-0.475000X0.250000X0.475000X-0.250000X0.475000X0*%
%ADD11C,5.562600*%
%ADD12RoundRect,0.250000X-0.475000X0.250000X-0.475000X-0.250000X0.475000X-0.250000X0.475000X0.250000X0*%
%ADD13R,3.600000X1.270000*%
%ADD14R,4.200000X1.350000*%
%ADD15RoundRect,0.250000X0.475000X-0.250000X0.475000X0.250000X-0.475000X0.250000X-0.475000X-0.250000X0*%
%ADD16RoundRect,0.250000X0.325000X1.100000X-0.325000X1.100000X-0.325000X-1.100000X0.325000X-1.100000X0*%
%ADD17RoundRect,0.250000X-0.450000X0.262500X-0.450000X-0.262500X0.450000X-0.262500X0.450000X0.262500X0*%
%ADD18RoundRect,0.250000X1.100000X-0.325000X1.100000X0.325000X-1.100000X0.325000X-1.100000X-0.325000X0*%
G04 APERTURE END LIST*
D10*
%TO.C,C4*%
X90550000Y-90000000D03*
X92450000Y-90000000D03*
%TD*%
D11*
%TO.C,H2*%
X55000000Y-105000000D03*
%TD*%
%TO.C,H1*%
X80000000Y-75000000D03*
%TD*%
D12*
%TO.C,C11*%
X98190000Y-79500000D03*
X98190000Y-81400000D03*
%TD*%
D11*
%TO.C,H4*%
X105000000Y-105000000D03*
%TD*%
D13*
%TO.C,J2*%
X45862500Y-90000000D03*
D14*
X46062500Y-87175000D03*
X46062500Y-92825000D03*
%TD*%
D11*
%TO.C,H6*%
X55000000Y-75000000D03*
%TD*%
D15*
%TO.C,C8*%
X65000000Y-79400000D03*
X65000000Y-77500000D03*
%TD*%
D12*
%TO.C,C6*%
X65700000Y-90125000D03*
X65700000Y-92025000D03*
%TD*%
D15*
%TO.C,C5*%
X96000000Y-92150000D03*
X96000000Y-90250000D03*
%TD*%
D16*
%TO.C,C10*%
X90350000Y-73630000D03*
X87400000Y-73630000D03*
%TD*%
D17*
%TO.C,R1*%
X75450000Y-81687500D03*
X75450000Y-83512500D03*
%TD*%
D11*
%TO.C,H3*%
X105000000Y-75000000D03*
%TD*%
D15*
%TO.C,C7*%
X70000000Y-79400000D03*
X70000000Y-77500000D03*
%TD*%
D11*
%TO.C,H5*%
X80000000Y-105000000D03*
%TD*%
D15*
%TO.C,C3*%
X90350000Y-86150000D03*
X90350000Y-84250000D03*
%TD*%
D12*
%TO.C,C2*%
X90325000Y-93850000D03*
X90325000Y-95750000D03*
%TD*%
D18*
%TO.C,C9*%
X62000000Y-79775000D03*
X62000000Y-76825000D03*
%TD*%
D13*
%TO.C,J1*%
X112087500Y-90000000D03*
D14*
X111887500Y-92825000D03*
X111887500Y-87175000D03*
%TD*%
D10*
%TO.C,C1*%
X67550000Y-90000000D03*
X69450000Y-90000000D03*
%TD*%
G36*
X113908039Y-70019685D02*
G01*
X113953794Y-70072489D01*
X113965000Y-70124000D01*
X113965000Y-109876000D01*
X113945315Y-109943039D01*
X113892511Y-109988794D01*
X113841000Y-110000000D01*
X44089000Y-110000000D01*
X44021961Y-109980315D01*
X43976206Y-109927511D01*
X43965000Y-109876000D01*
X43965000Y-70124000D01*
X43984685Y-70056961D01*
X44037489Y-70011206D01*
X44089000Y-70000000D01*
X113841000Y-70000000D01*
X113908039Y-70019685D01*
G37*
M02*
