%TF.GenerationSoftware,KiCad,Pcbnew,8.0.1*%
%TF.CreationDate,2024-04-27T21:04:21-04:00*%
%TF.ProjectId,S-Band Amplifier,532d4261-6e64-4204-916d-706c69666965,v1.0*%
%TF.SameCoordinates,Original*%
%TF.FileFunction,Copper,L1,Top*%
%TF.FilePolarity,Positive*%
%FSLAX46Y46*%
G04 Gerber Fmt 4.6, Leading zero omitted, Abs format (unit mm)*
G04 Created by KiCad (PCBNEW 8.0.1) date 2024-04-27 21:04:21*
%MOMM*%
%LPD*%
G01*
G04 APERTURE LIST*
G04 Aperture macros list*
%AMRoundRect*
0 Rectangle with rounded corners*
0 $1 Rounding radius*
0 $2 $3 $4 $5 $6 $7 $8 $9 X,Y pos of 4 corners*
0 Add a 4 corners polygon primitive as box body*
4,1,4,$2,$3,$4,$5,$6,$7,$8,$9,$2,$3,0*
0 Add four circle primitives for the rounded corners*
1,1,$1+$1,$2,$3*
1,1,$1+$1,$4,$5*
1,1,$1+$1,$6,$7*
1,1,$1+$1,$8,$9*
0 Add four rect primitives between the rounded corners*
20,1,$1+$1,$2,$3,$4,$5,0*
20,1,$1+$1,$4,$5,$6,$7,0*
20,1,$1+$1,$6,$7,$8,$9,0*
20,1,$1+$1,$8,$9,$2,$3,0*%
G04 Aperture macros list end*
%TA.AperFunction,Conductor*%
%ADD10C,0.000000*%
%TD*%
%ADD11C,0.120000*%
%TA.AperFunction,NonConductor*%
%ADD12C,0.120000*%
%TD*%
%TA.AperFunction,SMDPad,CuDef*%
%ADD13RoundRect,0.250000X-0.250000X-0.475000X0.250000X-0.475000X0.250000X0.475000X-0.250000X0.475000X0*%
%TD*%
%TA.AperFunction,ComponentPad*%
%ADD14C,5.562600*%
%TD*%
%TA.AperFunction,SMDPad,CuDef*%
%ADD15RoundRect,0.250000X-0.475000X0.250000X-0.475000X-0.250000X0.475000X-0.250000X0.475000X0.250000X0*%
%TD*%
%TA.AperFunction,SMDPad,CuDef*%
%ADD16R,3.600000X1.270000*%
%TD*%
%TA.AperFunction,SMDPad,CuDef*%
%ADD17R,4.200000X1.350000*%
%TD*%
%TA.AperFunction,SMDPad,CuDef*%
%ADD18RoundRect,0.250000X0.475000X-0.250000X0.475000X0.250000X-0.475000X0.250000X-0.475000X-0.250000X0*%
%TD*%
%TA.AperFunction,SMDPad,CuDef*%
%ADD19RoundRect,0.250000X0.325000X1.100000X-0.325000X1.100000X-0.325000X-1.100000X0.325000X-1.100000X0*%
%TD*%
%TA.AperFunction,SMDPad,CuDef*%
%ADD20RoundRect,0.250000X-0.450000X0.262500X-0.450000X-0.262500X0.450000X-0.262500X0.450000X0.262500X0*%
%TD*%
%TA.AperFunction,SMDPad,CuDef*%
%ADD21RoundRect,0.250000X1.100000X-0.325000X1.100000X0.325000X-1.100000X0.325000X-1.100000X-0.325000X0*%
%TD*%
%TA.AperFunction,ViaPad*%
%ADD22C,0.600000*%
%TD*%
G04 APERTURE END LIST*
D10*
%TA.AperFunction,Conductor*%
%TO.N,GND*%
G36*
X58065000Y-70525000D02*
G01*
X58065000Y-78525000D01*
X73465000Y-78500000D01*
X73465000Y-81500000D01*
X66465000Y-81500000D01*
X66465000Y-87850000D01*
X44465000Y-87850000D01*
X44465000Y-70500000D01*
X58065000Y-70525000D01*
G37*
%TD.AperFunction*%
%TA.AperFunction,Conductor*%
%TO.N,Net-(J1-In)*%
G36*
X91815000Y-89250000D02*
G01*
X113815000Y-89250000D01*
X113815000Y-90750000D01*
X91815000Y-90750000D01*
X91815000Y-89250000D01*
G37*
%TD.AperFunction*%
%TA.AperFunction,Conductor*%
%TO.N,GND*%
G36*
X78465000Y-79000000D02*
G01*
X75465000Y-76000000D01*
X65965000Y-76000000D01*
X65965000Y-70500000D01*
X78500000Y-70500000D01*
X78465000Y-79000000D01*
G37*
%TD.AperFunction*%
%TA.AperFunction,Conductor*%
G36*
X113465000Y-87900000D02*
G01*
X99965000Y-87900000D01*
X99965000Y-85000000D01*
X86465000Y-85000000D01*
X86465000Y-80900000D01*
X101465000Y-80900000D01*
X101465000Y-70500000D01*
X113465000Y-70500000D01*
X113465000Y-87900000D01*
G37*
%TD.AperFunction*%
%TA.AperFunction,Conductor*%
G36*
X89000000Y-76000000D02*
G01*
X97500000Y-76000000D01*
X97500000Y-77500000D01*
X89000000Y-77500000D01*
X89000000Y-76000000D01*
G37*
%TD.AperFunction*%
%TA.AperFunction,Conductor*%
G36*
X88100000Y-76000000D02*
G01*
X84500000Y-76000000D01*
X81500000Y-79000000D01*
X81465000Y-70500000D01*
X88100000Y-70500000D01*
X88100000Y-76000000D01*
G37*
%TD.AperFunction*%
%TA.AperFunction,Conductor*%
%TO.N,Vd*%
G36*
X83065000Y-85645000D02*
G01*
X91065000Y-85645000D01*
X91065000Y-94355000D01*
X83065000Y-94355000D01*
X83065000Y-85645000D01*
G37*
%TD.AperFunction*%
%TA.AperFunction,Conductor*%
%TO.N,GND*%
G36*
X66465000Y-98000000D02*
G01*
X77965000Y-98000000D01*
X77965000Y-95175000D01*
X92965000Y-95175000D01*
X92915000Y-91650000D01*
X113415000Y-91650000D01*
X113465000Y-109500000D01*
X100500000Y-109500000D01*
X100465000Y-104000000D01*
X86500000Y-104000000D01*
X86500000Y-109500000D01*
X44465000Y-109500000D01*
X44465000Y-91500000D01*
X66465000Y-91500000D01*
X66465000Y-98000000D01*
G37*
%TD.AperFunction*%
%TA.AperFunction,Conductor*%
%TO.N,Net-(Q1-G)*%
G36*
X68965000Y-83000000D02*
G01*
X76965000Y-83000000D01*
X76965000Y-97000000D01*
X68965000Y-97000000D01*
X68965000Y-83000000D01*
G37*
%TD.AperFunction*%
%TA.AperFunction,Conductor*%
%TO.N,Vg*%
G36*
X64465000Y-77000000D02*
G01*
X74900000Y-77000000D01*
X75965000Y-78100000D01*
X75965000Y-82000000D01*
X74965000Y-82000000D01*
X74965000Y-78000000D01*
X59865000Y-78000000D01*
X59865000Y-70500000D01*
X64465000Y-70500000D01*
X64465000Y-77000000D01*
G37*
%TD.AperFunction*%
%TA.AperFunction,Conductor*%
%TO.N,Vd*%
G36*
X96965000Y-73500000D02*
G01*
X98900000Y-73500000D01*
X100465000Y-75100000D01*
X100465000Y-78300000D01*
X98800000Y-80000000D01*
X85465000Y-80000000D01*
X85465000Y-86000000D01*
X83965000Y-86000000D01*
X83965000Y-80000000D01*
X85465000Y-78500000D01*
X98965000Y-78500000D01*
X98965000Y-75000000D01*
X89765000Y-75000000D01*
X89765000Y-70500000D01*
X96965000Y-70500000D01*
X96965000Y-73500000D01*
G37*
%TD.AperFunction*%
%TA.AperFunction,Conductor*%
%TO.N,GND*%
G36*
X77715000Y-70500000D02*
G01*
X82215000Y-70500000D01*
X82215000Y-98500000D01*
X77715000Y-98500000D01*
X77715000Y-70500000D01*
G37*
%TD.AperFunction*%
%TA.AperFunction,Conductor*%
%TO.N,Net-(J2-In)*%
G36*
X44215000Y-89250000D02*
G01*
X68065000Y-89250000D01*
X68065000Y-90750000D01*
X44215000Y-90750000D01*
X44215000Y-89250000D01*
G37*
%TD.AperFunction*%
D11*
D12*
X87333334Y-104893877D02*
X87366667Y-104860543D01*
X87366667Y-104860543D02*
X87433334Y-104827210D01*
X87433334Y-104827210D02*
X87600001Y-104827210D01*
X87600001Y-104827210D02*
X87666667Y-104860543D01*
X87666667Y-104860543D02*
X87700001Y-104893877D01*
X87700001Y-104893877D02*
X87733334Y-104960543D01*
X87733334Y-104960543D02*
X87733334Y-105027210D01*
X87733334Y-105027210D02*
X87700001Y-105127210D01*
X87700001Y-105127210D02*
X87300001Y-105527210D01*
X87300001Y-105527210D02*
X87733334Y-105527210D01*
X88166668Y-104827210D02*
X88233334Y-104827210D01*
X88233334Y-104827210D02*
X88300001Y-104860543D01*
X88300001Y-104860543D02*
X88333334Y-104893877D01*
X88333334Y-104893877D02*
X88366668Y-104960543D01*
X88366668Y-104960543D02*
X88400001Y-105093877D01*
X88400001Y-105093877D02*
X88400001Y-105260543D01*
X88400001Y-105260543D02*
X88366668Y-105393877D01*
X88366668Y-105393877D02*
X88333334Y-105460543D01*
X88333334Y-105460543D02*
X88300001Y-105493877D01*
X88300001Y-105493877D02*
X88233334Y-105527210D01*
X88233334Y-105527210D02*
X88166668Y-105527210D01*
X88166668Y-105527210D02*
X88100001Y-105493877D01*
X88100001Y-105493877D02*
X88066668Y-105460543D01*
X88066668Y-105460543D02*
X88033334Y-105393877D01*
X88033334Y-105393877D02*
X88000001Y-105260543D01*
X88000001Y-105260543D02*
X88000001Y-105093877D01*
X88000001Y-105093877D02*
X88033334Y-104960543D01*
X88033334Y-104960543D02*
X88066668Y-104893877D01*
X88066668Y-104893877D02*
X88100001Y-104860543D01*
X88100001Y-104860543D02*
X88166668Y-104827210D01*
X89166668Y-104827210D02*
X89333334Y-105527210D01*
X89333334Y-105527210D02*
X89466668Y-105027210D01*
X89466668Y-105027210D02*
X89600001Y-105527210D01*
X89600001Y-105527210D02*
X89766668Y-104827210D01*
X90533334Y-105493877D02*
X90633334Y-105527210D01*
X90633334Y-105527210D02*
X90800001Y-105527210D01*
X90800001Y-105527210D02*
X90866667Y-105493877D01*
X90866667Y-105493877D02*
X90900001Y-105460543D01*
X90900001Y-105460543D02*
X90933334Y-105393877D01*
X90933334Y-105393877D02*
X90933334Y-105327210D01*
X90933334Y-105327210D02*
X90900001Y-105260543D01*
X90900001Y-105260543D02*
X90866667Y-105227210D01*
X90866667Y-105227210D02*
X90800001Y-105193877D01*
X90800001Y-105193877D02*
X90666667Y-105160543D01*
X90666667Y-105160543D02*
X90600001Y-105127210D01*
X90600001Y-105127210D02*
X90566667Y-105093877D01*
X90566667Y-105093877D02*
X90533334Y-105027210D01*
X90533334Y-105027210D02*
X90533334Y-104960543D01*
X90533334Y-104960543D02*
X90566667Y-104893877D01*
X90566667Y-104893877D02*
X90600001Y-104860543D01*
X90600001Y-104860543D02*
X90666667Y-104827210D01*
X90666667Y-104827210D02*
X90833334Y-104827210D01*
X90833334Y-104827210D02*
X90933334Y-104860543D01*
X91233334Y-105260543D02*
X91766668Y-105260543D01*
X92333335Y-105160543D02*
X92433335Y-105193877D01*
X92433335Y-105193877D02*
X92466668Y-105227210D01*
X92466668Y-105227210D02*
X92500001Y-105293877D01*
X92500001Y-105293877D02*
X92500001Y-105393877D01*
X92500001Y-105393877D02*
X92466668Y-105460543D01*
X92466668Y-105460543D02*
X92433335Y-105493877D01*
X92433335Y-105493877D02*
X92366668Y-105527210D01*
X92366668Y-105527210D02*
X92100001Y-105527210D01*
X92100001Y-105527210D02*
X92100001Y-104827210D01*
X92100001Y-104827210D02*
X92333335Y-104827210D01*
X92333335Y-104827210D02*
X92400001Y-104860543D01*
X92400001Y-104860543D02*
X92433335Y-104893877D01*
X92433335Y-104893877D02*
X92466668Y-104960543D01*
X92466668Y-104960543D02*
X92466668Y-105027210D01*
X92466668Y-105027210D02*
X92433335Y-105093877D01*
X92433335Y-105093877D02*
X92400001Y-105127210D01*
X92400001Y-105127210D02*
X92333335Y-105160543D01*
X92333335Y-105160543D02*
X92100001Y-105160543D01*
X93100001Y-105527210D02*
X93100001Y-105160543D01*
X93100001Y-105160543D02*
X93066668Y-105093877D01*
X93066668Y-105093877D02*
X93000001Y-105060543D01*
X93000001Y-105060543D02*
X92866668Y-105060543D01*
X92866668Y-105060543D02*
X92800001Y-105093877D01*
X93100001Y-105493877D02*
X93033335Y-105527210D01*
X93033335Y-105527210D02*
X92866668Y-105527210D01*
X92866668Y-105527210D02*
X92800001Y-105493877D01*
X92800001Y-105493877D02*
X92766668Y-105427210D01*
X92766668Y-105427210D02*
X92766668Y-105360543D01*
X92766668Y-105360543D02*
X92800001Y-105293877D01*
X92800001Y-105293877D02*
X92866668Y-105260543D01*
X92866668Y-105260543D02*
X93033335Y-105260543D01*
X93033335Y-105260543D02*
X93100001Y-105227210D01*
X93433334Y-105060543D02*
X93433334Y-105527210D01*
X93433334Y-105127210D02*
X93466668Y-105093877D01*
X93466668Y-105093877D02*
X93533334Y-105060543D01*
X93533334Y-105060543D02*
X93633334Y-105060543D01*
X93633334Y-105060543D02*
X93700001Y-105093877D01*
X93700001Y-105093877D02*
X93733334Y-105160543D01*
X93733334Y-105160543D02*
X93733334Y-105527210D01*
X94366667Y-105527210D02*
X94366667Y-104827210D01*
X94366667Y-105493877D02*
X94300001Y-105527210D01*
X94300001Y-105527210D02*
X94166667Y-105527210D01*
X94166667Y-105527210D02*
X94100001Y-105493877D01*
X94100001Y-105493877D02*
X94066667Y-105460543D01*
X94066667Y-105460543D02*
X94033334Y-105393877D01*
X94033334Y-105393877D02*
X94033334Y-105193877D01*
X94033334Y-105193877D02*
X94066667Y-105127210D01*
X94066667Y-105127210D02*
X94100001Y-105093877D01*
X94100001Y-105093877D02*
X94166667Y-105060543D01*
X94166667Y-105060543D02*
X94300001Y-105060543D01*
X94300001Y-105060543D02*
X94366667Y-105093877D01*
X95200000Y-105327210D02*
X95533333Y-105327210D01*
X95133333Y-105527210D02*
X95366667Y-104827210D01*
X95366667Y-104827210D02*
X95600000Y-105527210D01*
X95833333Y-105527210D02*
X95833333Y-105060543D01*
X95833333Y-105127210D02*
X95866667Y-105093877D01*
X95866667Y-105093877D02*
X95933333Y-105060543D01*
X95933333Y-105060543D02*
X96033333Y-105060543D01*
X96033333Y-105060543D02*
X96100000Y-105093877D01*
X96100000Y-105093877D02*
X96133333Y-105160543D01*
X96133333Y-105160543D02*
X96133333Y-105527210D01*
X96133333Y-105160543D02*
X96166667Y-105093877D01*
X96166667Y-105093877D02*
X96233333Y-105060543D01*
X96233333Y-105060543D02*
X96333333Y-105060543D01*
X96333333Y-105060543D02*
X96400000Y-105093877D01*
X96400000Y-105093877D02*
X96433333Y-105160543D01*
X96433333Y-105160543D02*
X96433333Y-105527210D01*
X96766666Y-105060543D02*
X96766666Y-105760543D01*
X96766666Y-105093877D02*
X96833333Y-105060543D01*
X96833333Y-105060543D02*
X96966666Y-105060543D01*
X96966666Y-105060543D02*
X97033333Y-105093877D01*
X97033333Y-105093877D02*
X97066666Y-105127210D01*
X97066666Y-105127210D02*
X97100000Y-105193877D01*
X97100000Y-105193877D02*
X97100000Y-105393877D01*
X97100000Y-105393877D02*
X97066666Y-105460543D01*
X97066666Y-105460543D02*
X97033333Y-105493877D01*
X97033333Y-105493877D02*
X96966666Y-105527210D01*
X96966666Y-105527210D02*
X96833333Y-105527210D01*
X96833333Y-105527210D02*
X96766666Y-105493877D01*
X97499999Y-105527210D02*
X97433333Y-105493877D01*
X97433333Y-105493877D02*
X97399999Y-105427210D01*
X97399999Y-105427210D02*
X97399999Y-104827210D01*
X97766666Y-105527210D02*
X97766666Y-105060543D01*
X97766666Y-104827210D02*
X97733333Y-104860543D01*
X97733333Y-104860543D02*
X97766666Y-104893877D01*
X97766666Y-104893877D02*
X97800000Y-104860543D01*
X97800000Y-104860543D02*
X97766666Y-104827210D01*
X97766666Y-104827210D02*
X97766666Y-104893877D01*
X97999999Y-105060543D02*
X98266666Y-105060543D01*
X98099999Y-105527210D02*
X98099999Y-104927210D01*
X98099999Y-104927210D02*
X98133333Y-104860543D01*
X98133333Y-104860543D02*
X98199999Y-104827210D01*
X98199999Y-104827210D02*
X98266666Y-104827210D01*
X98499999Y-105527210D02*
X98499999Y-105060543D01*
X98499999Y-104827210D02*
X98466666Y-104860543D01*
X98466666Y-104860543D02*
X98499999Y-104893877D01*
X98499999Y-104893877D02*
X98533333Y-104860543D01*
X98533333Y-104860543D02*
X98499999Y-104827210D01*
X98499999Y-104827210D02*
X98499999Y-104893877D01*
X99099999Y-105493877D02*
X99033332Y-105527210D01*
X99033332Y-105527210D02*
X98899999Y-105527210D01*
X98899999Y-105527210D02*
X98833332Y-105493877D01*
X98833332Y-105493877D02*
X98799999Y-105427210D01*
X98799999Y-105427210D02*
X98799999Y-105160543D01*
X98799999Y-105160543D02*
X98833332Y-105093877D01*
X98833332Y-105093877D02*
X98899999Y-105060543D01*
X98899999Y-105060543D02*
X99033332Y-105060543D01*
X99033332Y-105060543D02*
X99099999Y-105093877D01*
X99099999Y-105093877D02*
X99133332Y-105160543D01*
X99133332Y-105160543D02*
X99133332Y-105227210D01*
X99133332Y-105227210D02*
X98799999Y-105293877D01*
X99433332Y-105527210D02*
X99433332Y-105060543D01*
X99433332Y-105193877D02*
X99466666Y-105127210D01*
X99466666Y-105127210D02*
X99499999Y-105093877D01*
X99499999Y-105093877D02*
X99566666Y-105060543D01*
X99566666Y-105060543D02*
X99633332Y-105060543D01*
X92450000Y-106187504D02*
X92616666Y-106654171D01*
X92616666Y-106654171D02*
X92783333Y-106187504D01*
X93416666Y-106654171D02*
X93016666Y-106654171D01*
X93216666Y-106654171D02*
X93216666Y-105954171D01*
X93216666Y-105954171D02*
X93149999Y-106054171D01*
X93149999Y-106054171D02*
X93083333Y-106120838D01*
X93083333Y-106120838D02*
X93016666Y-106154171D01*
X93716666Y-106587504D02*
X93750000Y-106620838D01*
X93750000Y-106620838D02*
X93716666Y-106654171D01*
X93716666Y-106654171D02*
X93683333Y-106620838D01*
X93683333Y-106620838D02*
X93716666Y-106587504D01*
X93716666Y-106587504D02*
X93716666Y-106654171D01*
X94183333Y-105954171D02*
X94249999Y-105954171D01*
X94249999Y-105954171D02*
X94316666Y-105987504D01*
X94316666Y-105987504D02*
X94349999Y-106020838D01*
X94349999Y-106020838D02*
X94383333Y-106087504D01*
X94383333Y-106087504D02*
X94416666Y-106220838D01*
X94416666Y-106220838D02*
X94416666Y-106387504D01*
X94416666Y-106387504D02*
X94383333Y-106520838D01*
X94383333Y-106520838D02*
X94349999Y-106587504D01*
X94349999Y-106587504D02*
X94316666Y-106620838D01*
X94316666Y-106620838D02*
X94249999Y-106654171D01*
X94249999Y-106654171D02*
X94183333Y-106654171D01*
X94183333Y-106654171D02*
X94116666Y-106620838D01*
X94116666Y-106620838D02*
X94083333Y-106587504D01*
X94083333Y-106587504D02*
X94049999Y-106520838D01*
X94049999Y-106520838D02*
X94016666Y-106387504D01*
X94016666Y-106387504D02*
X94016666Y-106220838D01*
X94016666Y-106220838D02*
X94049999Y-106087504D01*
X94049999Y-106087504D02*
X94083333Y-106020838D01*
X94083333Y-106020838D02*
X94116666Y-105987504D01*
X94116666Y-105987504D02*
X94183333Y-105954171D01*
X89716667Y-107081132D02*
X90116667Y-107081132D01*
X89916667Y-107781132D02*
X89916667Y-107081132D01*
X90350000Y-107781132D02*
X90350000Y-107314465D01*
X90350000Y-107081132D02*
X90316667Y-107114465D01*
X90316667Y-107114465D02*
X90350000Y-107147799D01*
X90350000Y-107147799D02*
X90383334Y-107114465D01*
X90383334Y-107114465D02*
X90350000Y-107081132D01*
X90350000Y-107081132D02*
X90350000Y-107147799D01*
X90683333Y-107781132D02*
X90683333Y-107314465D01*
X90683333Y-107381132D02*
X90716667Y-107347799D01*
X90716667Y-107347799D02*
X90783333Y-107314465D01*
X90783333Y-107314465D02*
X90883333Y-107314465D01*
X90883333Y-107314465D02*
X90950000Y-107347799D01*
X90950000Y-107347799D02*
X90983333Y-107414465D01*
X90983333Y-107414465D02*
X90983333Y-107781132D01*
X90983333Y-107414465D02*
X91016667Y-107347799D01*
X91016667Y-107347799D02*
X91083333Y-107314465D01*
X91083333Y-107314465D02*
X91183333Y-107314465D01*
X91183333Y-107314465D02*
X91250000Y-107347799D01*
X91250000Y-107347799D02*
X91283333Y-107414465D01*
X91283333Y-107414465D02*
X91283333Y-107781132D01*
X91716666Y-107781132D02*
X91650000Y-107747799D01*
X91650000Y-107747799D02*
X91616666Y-107714465D01*
X91616666Y-107714465D02*
X91583333Y-107647799D01*
X91583333Y-107647799D02*
X91583333Y-107447799D01*
X91583333Y-107447799D02*
X91616666Y-107381132D01*
X91616666Y-107381132D02*
X91650000Y-107347799D01*
X91650000Y-107347799D02*
X91716666Y-107314465D01*
X91716666Y-107314465D02*
X91816666Y-107314465D01*
X91816666Y-107314465D02*
X91883333Y-107347799D01*
X91883333Y-107347799D02*
X91916666Y-107381132D01*
X91916666Y-107381132D02*
X91950000Y-107447799D01*
X91950000Y-107447799D02*
X91950000Y-107647799D01*
X91950000Y-107647799D02*
X91916666Y-107714465D01*
X91916666Y-107714465D02*
X91883333Y-107747799D01*
X91883333Y-107747799D02*
X91816666Y-107781132D01*
X91816666Y-107781132D02*
X91716666Y-107781132D01*
X92149999Y-107314465D02*
X92416666Y-107314465D01*
X92249999Y-107081132D02*
X92249999Y-107681132D01*
X92249999Y-107681132D02*
X92283333Y-107747799D01*
X92283333Y-107747799D02*
X92349999Y-107781132D01*
X92349999Y-107781132D02*
X92416666Y-107781132D01*
X92649999Y-107781132D02*
X92649999Y-107081132D01*
X92949999Y-107781132D02*
X92949999Y-107414465D01*
X92949999Y-107414465D02*
X92916666Y-107347799D01*
X92916666Y-107347799D02*
X92849999Y-107314465D01*
X92849999Y-107314465D02*
X92749999Y-107314465D01*
X92749999Y-107314465D02*
X92683333Y-107347799D01*
X92683333Y-107347799D02*
X92649999Y-107381132D01*
X93216666Y-107314465D02*
X93383332Y-107781132D01*
X93549999Y-107314465D02*
X93383332Y-107781132D01*
X93383332Y-107781132D02*
X93316666Y-107947799D01*
X93316666Y-107947799D02*
X93283332Y-107981132D01*
X93283332Y-107981132D02*
X93216666Y-108014465D01*
X94349998Y-107781132D02*
X94349998Y-107081132D01*
X94749998Y-107781132D02*
X94449998Y-107381132D01*
X94749998Y-107081132D02*
X94349998Y-107481132D01*
X95316665Y-107747799D02*
X95249998Y-107781132D01*
X95249998Y-107781132D02*
X95116665Y-107781132D01*
X95116665Y-107781132D02*
X95049998Y-107747799D01*
X95049998Y-107747799D02*
X95016665Y-107681132D01*
X95016665Y-107681132D02*
X95016665Y-107414465D01*
X95016665Y-107414465D02*
X95049998Y-107347799D01*
X95049998Y-107347799D02*
X95116665Y-107314465D01*
X95116665Y-107314465D02*
X95249998Y-107314465D01*
X95249998Y-107314465D02*
X95316665Y-107347799D01*
X95316665Y-107347799D02*
X95349998Y-107414465D01*
X95349998Y-107414465D02*
X95349998Y-107481132D01*
X95349998Y-107481132D02*
X95016665Y-107547799D01*
X95749998Y-107781132D02*
X95683332Y-107747799D01*
X95683332Y-107747799D02*
X95649998Y-107681132D01*
X95649998Y-107681132D02*
X95649998Y-107081132D01*
X96116665Y-107781132D02*
X96049999Y-107747799D01*
X96049999Y-107747799D02*
X96016665Y-107681132D01*
X96016665Y-107681132D02*
X96016665Y-107081132D01*
X96649999Y-107747799D02*
X96583332Y-107781132D01*
X96583332Y-107781132D02*
X96449999Y-107781132D01*
X96449999Y-107781132D02*
X96383332Y-107747799D01*
X96383332Y-107747799D02*
X96349999Y-107681132D01*
X96349999Y-107681132D02*
X96349999Y-107414465D01*
X96349999Y-107414465D02*
X96383332Y-107347799D01*
X96383332Y-107347799D02*
X96449999Y-107314465D01*
X96449999Y-107314465D02*
X96583332Y-107314465D01*
X96583332Y-107314465D02*
X96649999Y-107347799D01*
X96649999Y-107347799D02*
X96683332Y-107414465D01*
X96683332Y-107414465D02*
X96683332Y-107481132D01*
X96683332Y-107481132D02*
X96349999Y-107547799D01*
X96983332Y-107781132D02*
X96983332Y-107314465D01*
X96983332Y-107447799D02*
X97016666Y-107381132D01*
X97016666Y-107381132D02*
X97049999Y-107347799D01*
X97049999Y-107347799D02*
X97116666Y-107314465D01*
X97116666Y-107314465D02*
X97183332Y-107314465D01*
X90466667Y-108208093D02*
X90533333Y-108208093D01*
X90533333Y-108208093D02*
X90600000Y-108241426D01*
X90600000Y-108241426D02*
X90633333Y-108274760D01*
X90633333Y-108274760D02*
X90666667Y-108341426D01*
X90666667Y-108341426D02*
X90700000Y-108474760D01*
X90700000Y-108474760D02*
X90700000Y-108641426D01*
X90700000Y-108641426D02*
X90666667Y-108774760D01*
X90666667Y-108774760D02*
X90633333Y-108841426D01*
X90633333Y-108841426D02*
X90600000Y-108874760D01*
X90600000Y-108874760D02*
X90533333Y-108908093D01*
X90533333Y-108908093D02*
X90466667Y-108908093D01*
X90466667Y-108908093D02*
X90400000Y-108874760D01*
X90400000Y-108874760D02*
X90366667Y-108841426D01*
X90366667Y-108841426D02*
X90333333Y-108774760D01*
X90333333Y-108774760D02*
X90300000Y-108641426D01*
X90300000Y-108641426D02*
X90300000Y-108474760D01*
X90300000Y-108474760D02*
X90333333Y-108341426D01*
X90333333Y-108341426D02*
X90366667Y-108274760D01*
X90366667Y-108274760D02*
X90400000Y-108241426D01*
X90400000Y-108241426D02*
X90466667Y-108208093D01*
X91000000Y-108841426D02*
X91033334Y-108874760D01*
X91033334Y-108874760D02*
X91000000Y-108908093D01*
X91000000Y-108908093D02*
X90966667Y-108874760D01*
X90966667Y-108874760D02*
X91000000Y-108841426D01*
X91000000Y-108841426D02*
X91000000Y-108908093D01*
X91433333Y-108508093D02*
X91366667Y-108474760D01*
X91366667Y-108474760D02*
X91333333Y-108441426D01*
X91333333Y-108441426D02*
X91300000Y-108374760D01*
X91300000Y-108374760D02*
X91300000Y-108341426D01*
X91300000Y-108341426D02*
X91333333Y-108274760D01*
X91333333Y-108274760D02*
X91366667Y-108241426D01*
X91366667Y-108241426D02*
X91433333Y-108208093D01*
X91433333Y-108208093D02*
X91566667Y-108208093D01*
X91566667Y-108208093D02*
X91633333Y-108241426D01*
X91633333Y-108241426D02*
X91666667Y-108274760D01*
X91666667Y-108274760D02*
X91700000Y-108341426D01*
X91700000Y-108341426D02*
X91700000Y-108374760D01*
X91700000Y-108374760D02*
X91666667Y-108441426D01*
X91666667Y-108441426D02*
X91633333Y-108474760D01*
X91633333Y-108474760D02*
X91566667Y-108508093D01*
X91566667Y-108508093D02*
X91433333Y-108508093D01*
X91433333Y-108508093D02*
X91366667Y-108541426D01*
X91366667Y-108541426D02*
X91333333Y-108574760D01*
X91333333Y-108574760D02*
X91300000Y-108641426D01*
X91300000Y-108641426D02*
X91300000Y-108774760D01*
X91300000Y-108774760D02*
X91333333Y-108841426D01*
X91333333Y-108841426D02*
X91366667Y-108874760D01*
X91366667Y-108874760D02*
X91433333Y-108908093D01*
X91433333Y-108908093D02*
X91566667Y-108908093D01*
X91566667Y-108908093D02*
X91633333Y-108874760D01*
X91633333Y-108874760D02*
X91666667Y-108841426D01*
X91666667Y-108841426D02*
X91700000Y-108774760D01*
X91700000Y-108774760D02*
X91700000Y-108641426D01*
X91700000Y-108641426D02*
X91666667Y-108574760D01*
X91666667Y-108574760D02*
X91633333Y-108541426D01*
X91633333Y-108541426D02*
X91566667Y-108508093D01*
X92533333Y-108908093D02*
X92533333Y-108441426D01*
X92533333Y-108508093D02*
X92566667Y-108474760D01*
X92566667Y-108474760D02*
X92633333Y-108441426D01*
X92633333Y-108441426D02*
X92733333Y-108441426D01*
X92733333Y-108441426D02*
X92800000Y-108474760D01*
X92800000Y-108474760D02*
X92833333Y-108541426D01*
X92833333Y-108541426D02*
X92833333Y-108908093D01*
X92833333Y-108541426D02*
X92866667Y-108474760D01*
X92866667Y-108474760D02*
X92933333Y-108441426D01*
X92933333Y-108441426D02*
X93033333Y-108441426D01*
X93033333Y-108441426D02*
X93100000Y-108474760D01*
X93100000Y-108474760D02*
X93133333Y-108541426D01*
X93133333Y-108541426D02*
X93133333Y-108908093D01*
X93466666Y-108908093D02*
X93466666Y-108441426D01*
X93466666Y-108508093D02*
X93500000Y-108474760D01*
X93500000Y-108474760D02*
X93566666Y-108441426D01*
X93566666Y-108441426D02*
X93666666Y-108441426D01*
X93666666Y-108441426D02*
X93733333Y-108474760D01*
X93733333Y-108474760D02*
X93766666Y-108541426D01*
X93766666Y-108541426D02*
X93766666Y-108908093D01*
X93766666Y-108541426D02*
X93800000Y-108474760D01*
X93800000Y-108474760D02*
X93866666Y-108441426D01*
X93866666Y-108441426D02*
X93966666Y-108441426D01*
X93966666Y-108441426D02*
X94033333Y-108474760D01*
X94033333Y-108474760D02*
X94066666Y-108541426D01*
X94066666Y-108541426D02*
X94066666Y-108908093D01*
X95166666Y-108541426D02*
X94933332Y-108541426D01*
X94933332Y-108908093D02*
X94933332Y-108208093D01*
X94933332Y-108208093D02*
X95266666Y-108208093D01*
X95933332Y-108908093D02*
X95699999Y-108574760D01*
X95533332Y-108908093D02*
X95533332Y-108208093D01*
X95533332Y-108208093D02*
X95799999Y-108208093D01*
X95799999Y-108208093D02*
X95866666Y-108241426D01*
X95866666Y-108241426D02*
X95899999Y-108274760D01*
X95899999Y-108274760D02*
X95933332Y-108341426D01*
X95933332Y-108341426D02*
X95933332Y-108441426D01*
X95933332Y-108441426D02*
X95899999Y-108508093D01*
X95899999Y-108508093D02*
X95866666Y-108541426D01*
X95866666Y-108541426D02*
X95799999Y-108574760D01*
X95799999Y-108574760D02*
X95533332Y-108574760D01*
X96533332Y-108441426D02*
X96533332Y-108908093D01*
X96366666Y-108174760D02*
X96199999Y-108674760D01*
X96199999Y-108674760D02*
X96633332Y-108674760D01*
%TD*%
D13*
%TO.P,C4,1*%
%TO.N,Vd*%
X90550000Y-90000000D03*
%TO.P,C4,2*%
%TO.N,Net-(J1-In)*%
X92450000Y-90000000D03*
%TD*%
D14*
%TO.P,H2,1,1*%
%TO.N,GND*%
X55000000Y-105000000D03*
%TD*%
%TO.P,H1,1,1*%
%TO.N,GND*%
X80000000Y-75000000D03*
%TD*%
D15*
%TO.P,C11,1*%
%TO.N,Vd*%
X98190000Y-79500000D03*
%TO.P,C11,2*%
%TO.N,GND*%
X98190000Y-81400000D03*
%TD*%
D14*
%TO.P,H4,1,1*%
%TO.N,GND*%
X105000000Y-105000000D03*
%TD*%
D16*
%TO.P,J2,1,In*%
%TO.N,Net-(J2-In)*%
X45862500Y-90000000D03*
D17*
%TO.P,J2,2,Ext*%
%TO.N,GND*%
X46062500Y-87175000D03*
X46062500Y-92825000D03*
%TD*%
D14*
%TO.P,H6,1,1*%
%TO.N,GND*%
X55000000Y-75000000D03*
%TD*%
D18*
%TO.P,C8,1*%
%TO.N,GND*%
X65000000Y-79400000D03*
%TO.P,C8,2*%
%TO.N,Vg*%
X65000000Y-77500000D03*
%TD*%
D15*
%TO.P,C6,1*%
%TO.N,Net-(J2-In)*%
X65700000Y-90125000D03*
%TO.P,C6,2*%
%TO.N,GND*%
X65700000Y-92025000D03*
%TD*%
D18*
%TO.P,C5,1*%
%TO.N,GND*%
X96000000Y-92150000D03*
%TO.P,C5,2*%
%TO.N,Net-(J1-In)*%
X96000000Y-90250000D03*
%TD*%
D19*
%TO.P,C10,1*%
%TO.N,Vd*%
X90350000Y-73630000D03*
%TO.P,C10,2*%
%TO.N,GND*%
X87400000Y-73630000D03*
%TD*%
D20*
%TO.P,R1,1*%
%TO.N,Vg*%
X75450000Y-81687500D03*
%TO.P,R1,2*%
%TO.N,Net-(Q1-G)*%
X75450000Y-83512500D03*
%TD*%
D14*
%TO.P,H3,1,1*%
%TO.N,GND*%
X105000000Y-75000000D03*
%TD*%
D18*
%TO.P,C7,1*%
%TO.N,GND*%
X70000000Y-79400000D03*
%TO.P,C7,2*%
%TO.N,Vg*%
X70000000Y-77500000D03*
%TD*%
D14*
%TO.P,H5,1,1*%
%TO.N,GND*%
X80000000Y-105000000D03*
%TD*%
D18*
%TO.P,C3,1*%
%TO.N,Vd*%
X90350000Y-86150000D03*
%TO.P,C3,2*%
%TO.N,GND*%
X90350000Y-84250000D03*
%TD*%
D15*
%TO.P,C2,1*%
%TO.N,Vd*%
X90325000Y-93850000D03*
%TO.P,C2,2*%
%TO.N,GND*%
X90325000Y-95750000D03*
%TD*%
D21*
%TO.P,C9,1*%
%TO.N,GND*%
X62000000Y-79775000D03*
%TO.P,C9,2*%
%TO.N,Vg*%
X62000000Y-76825000D03*
%TD*%
D16*
%TO.P,J1,1,In*%
%TO.N,Net-(J1-In)*%
X112087500Y-90000000D03*
D17*
%TO.P,J1,2,Ext*%
%TO.N,GND*%
X111887500Y-92825000D03*
X111887500Y-87175000D03*
%TD*%
D13*
%TO.P,C1,1*%
%TO.N,Net-(J2-In)*%
X67550000Y-90000000D03*
%TO.P,C1,2*%
%TO.N,Net-(Q1-G)*%
X69450000Y-90000000D03*
%TD*%
D22*
%TO.N,GND*%
X79100000Y-82450000D03*
X73000000Y-101000000D03*
X60700000Y-78850000D03*
X96100000Y-84500000D03*
X69000000Y-80000000D03*
X93450000Y-94750000D03*
X58000000Y-81000000D03*
X75000000Y-101000000D03*
X63000000Y-97000000D03*
X102550000Y-92150000D03*
X93450000Y-93450000D03*
X89600000Y-84500000D03*
X80150000Y-91150000D03*
X66000000Y-108000000D03*
X60000000Y-108000000D03*
X54600000Y-87450000D03*
X101000000Y-83000000D03*
X73250000Y-98350000D03*
X68000000Y-98350000D03*
X96000000Y-76500000D03*
X63300000Y-78850000D03*
X85000000Y-101000000D03*
X97500000Y-84500000D03*
X101000000Y-93000000D03*
X52000000Y-87450000D03*
X50050000Y-91950000D03*
X110200000Y-87400000D03*
X81550000Y-91150000D03*
X59000000Y-97000000D03*
X50000000Y-104000000D03*
X46000000Y-106000000D03*
X73900000Y-98350000D03*
X49000000Y-78000000D03*
X94000000Y-102000000D03*
X52000000Y-71000000D03*
X71000000Y-105000000D03*
X78050000Y-79150000D03*
X88300000Y-81500000D03*
X69750000Y-81100000D03*
X46000000Y-100000000D03*
X52650000Y-87450000D03*
X78050000Y-81900000D03*
X93000000Y-103000000D03*
X51350000Y-87450000D03*
X64000000Y-104000000D03*
X83300000Y-76750000D03*
X72000000Y-71000000D03*
X53000000Y-95000000D03*
X93500000Y-81500000D03*
X92200000Y-81500000D03*
X78400000Y-99275000D03*
X60000000Y-104000000D03*
X56550000Y-87450000D03*
X59400000Y-78850000D03*
X68000000Y-108000000D03*
X46000000Y-94000000D03*
X108000000Y-84000000D03*
X105000000Y-71000000D03*
X102000000Y-80350000D03*
X81900000Y-84850000D03*
X54000000Y-81000000D03*
X57700000Y-72250000D03*
X61000000Y-97000000D03*
X52000000Y-98000000D03*
X52000000Y-91950000D03*
X73000000Y-79800000D03*
X79450000Y-86750000D03*
X100000000Y-100000000D03*
X47000000Y-86000000D03*
X105000000Y-79000000D03*
X102000000Y-73450000D03*
X98150000Y-81500000D03*
X104000000Y-100000000D03*
X70000000Y-108000000D03*
X112300000Y-92150000D03*
X107000000Y-79000000D03*
X78050000Y-97625000D03*
X90250000Y-84500000D03*
X108000000Y-98000000D03*
X80150000Y-96525000D03*
X87775000Y-73175000D03*
X79800000Y-92800000D03*
X80150000Y-97625000D03*
X54600000Y-91950000D03*
X69000000Y-103000000D03*
X76000000Y-102000000D03*
X48000000Y-73000000D03*
X100400000Y-85400000D03*
X80850000Y-96525000D03*
X61000000Y-86000000D03*
X81900000Y-88400000D03*
X55000000Y-93000000D03*
X103000000Y-99000000D03*
X70400000Y-81100000D03*
X47000000Y-95000000D03*
X82000000Y-100000000D03*
X93450000Y-92800000D03*
X71000000Y-80000000D03*
X63000000Y-103000000D03*
X98800000Y-84500000D03*
X50700000Y-91950000D03*
X65000000Y-87450000D03*
X109050000Y-92150000D03*
X113000000Y-73000000D03*
X86000000Y-71000000D03*
X81875000Y-78850000D03*
X59000000Y-93000000D03*
X80500000Y-86150000D03*
X80500000Y-81350000D03*
X72400000Y-78850000D03*
X81200000Y-81350000D03*
X81900000Y-83550000D03*
X100000000Y-94000000D03*
X102000000Y-72150000D03*
X87450000Y-75675000D03*
X79100000Y-81350000D03*
X63000000Y-109000000D03*
X50000000Y-73000000D03*
X79800000Y-83550000D03*
X66100000Y-95700000D03*
X53300000Y-87450000D03*
X109000000Y-81000000D03*
X80500000Y-88400000D03*
X58500000Y-87450000D03*
X93000000Y-76500000D03*
X67000000Y-75600000D03*
X79800000Y-90600000D03*
X51000000Y-74000000D03*
X86000000Y-108000000D03*
X78400000Y-83550000D03*
X101050000Y-87400000D03*
X95000000Y-97000000D03*
X52000000Y-73000000D03*
X50000000Y-81000000D03*
X46000000Y-77000000D03*
X55000000Y-109000000D03*
X104950000Y-87400000D03*
X85750000Y-95650000D03*
X77250000Y-98350000D03*
X102000000Y-79050000D03*
X103000000Y-109000000D03*
X86400000Y-95650000D03*
X81850000Y-95250000D03*
X66050000Y-82900000D03*
X85500000Y-75675000D03*
X46000000Y-102000000D03*
X59000000Y-82000000D03*
X62000000Y-81000000D03*
X48000000Y-100000000D03*
X47000000Y-97000000D03*
X51000000Y-93000000D03*
X80850000Y-90050000D03*
X65000000Y-109000000D03*
X101000000Y-103000000D03*
X75250000Y-98350000D03*
X83000000Y-101000000D03*
X79100000Y-86150000D03*
X51000000Y-86000000D03*
X111000000Y-109000000D03*
X85000000Y-74000000D03*
X109000000Y-83000000D03*
X81550000Y-88950000D03*
X105800000Y-92150000D03*
X78400000Y-87300000D03*
X79100000Y-90600000D03*
X69000000Y-101000000D03*
X98000000Y-100000000D03*
X87775000Y-75125000D03*
X62650000Y-78850000D03*
X98650000Y-92150000D03*
X95000000Y-95000000D03*
X76000000Y-106000000D03*
X81550000Y-80800000D03*
X78050000Y-88950000D03*
X45000000Y-80000000D03*
X58000000Y-94000000D03*
X109000000Y-85000000D03*
X52000000Y-102000000D03*
X50000000Y-100000000D03*
X67000000Y-105000000D03*
X93000000Y-83000000D03*
X103000000Y-97000000D03*
X96500000Y-77000000D03*
X67000000Y-101000000D03*
X111000000Y-85000000D03*
X91000000Y-76500000D03*
X105000000Y-93000000D03*
X99000000Y-93000000D03*
X107000000Y-93000000D03*
X82000000Y-108000000D03*
X79100000Y-99275000D03*
X45000000Y-84000000D03*
X78000000Y-108000000D03*
X81875000Y-79500000D03*
X96750000Y-81500000D03*
X93000000Y-97000000D03*
X75950000Y-76000000D03*
X63000000Y-105000000D03*
X102000000Y-71500000D03*
X66050000Y-84250000D03*
X111000000Y-83000000D03*
X84000000Y-102000000D03*
X101000000Y-97000000D03*
X78050000Y-95875000D03*
X46000000Y-98000000D03*
X55000000Y-86000000D03*
X81900000Y-92800000D03*
X45000000Y-107000000D03*
X89000000Y-83000000D03*
X57700000Y-77000000D03*
X51000000Y-97000000D03*
X93000000Y-101000000D03*
X105000000Y-99000000D03*
X112000000Y-76000000D03*
X81550000Y-94450000D03*
X65000000Y-107000000D03*
X48000000Y-108000000D03*
X89000000Y-95650000D03*
X92200000Y-84500000D03*
X100400000Y-86050000D03*
X112000000Y-100000000D03*
X87000000Y-74000000D03*
X80850000Y-88950000D03*
X87700000Y-95650000D03*
X66100000Y-97000000D03*
X86000000Y-106000000D03*
X64000000Y-108000000D03*
X103000000Y-87400000D03*
X87000000Y-99000000D03*
X78750000Y-92250000D03*
X101700000Y-87400000D03*
X85000000Y-107000000D03*
X45000000Y-95000000D03*
X109000000Y-75000000D03*
X57000000Y-82000000D03*
X58000000Y-96000000D03*
X52000000Y-77000000D03*
X46000000Y-108000000D03*
X81550000Y-92250000D03*
X79100000Y-92800000D03*
X72000000Y-108000000D03*
X87000000Y-101000000D03*
X76000000Y-104000000D03*
X71550000Y-75600000D03*
X49400000Y-91950000D03*
X93450000Y-92150000D03*
X69000000Y-109000000D03*
X94000000Y-76500000D03*
X50050000Y-87450000D03*
X50000000Y-77000000D03*
X65000000Y-91950000D03*
X97000000Y-97000000D03*
X107000000Y-71000000D03*
X45000000Y-103000000D03*
X75450000Y-75600000D03*
X84000000Y-106000000D03*
X90950000Y-95650000D03*
X67000000Y-80000000D03*
X51000000Y-109000000D03*
X87775000Y-71875000D03*
X97000000Y-83000000D03*
X51000000Y-80000000D03*
X102000000Y-94000000D03*
X53000000Y-99000000D03*
X81900000Y-98175000D03*
X92850000Y-84500000D03*
X60000000Y-106000000D03*
X49000000Y-80000000D03*
X92900000Y-95750000D03*
X46800000Y-91950000D03*
X83750000Y-76300000D03*
X70450000Y-78850000D03*
X54000000Y-79000000D03*
X59150000Y-87450000D03*
X79800000Y-93900000D03*
X84000000Y-108000000D03*
X78750000Y-87850000D03*
X108000000Y-72000000D03*
X95000000Y-99000000D03*
X64000000Y-96000000D03*
X59000000Y-103000000D03*
X88000000Y-98000000D03*
X45000000Y-93000000D03*
X78050000Y-85600000D03*
X93000000Y-99000000D03*
X80850000Y-85600000D03*
X76850000Y-76900000D03*
X53000000Y-97000000D03*
X58000000Y-102000000D03*
X48100000Y-87450000D03*
X89000000Y-99000000D03*
X51000000Y-105000000D03*
X108000000Y-102000000D03*
X95450000Y-84500000D03*
X51000000Y-103000000D03*
X78400000Y-93900000D03*
X99450000Y-81500000D03*
X49000000Y-107000000D03*
X112000000Y-86000000D03*
X70000000Y-106000000D03*
X81900000Y-99275000D03*
X78050000Y-92250000D03*
X48000000Y-106000000D03*
X110000000Y-82000000D03*
X68000000Y-73000000D03*
X81200000Y-98175000D03*
X68000000Y-100000000D03*
X65000000Y-95000000D03*
X98150000Y-84500000D03*
X71750000Y-78850000D03*
X54000000Y-71000000D03*
X88000000Y-102000000D03*
X78750000Y-93350000D03*
X47000000Y-80000000D03*
X113000000Y-93000000D03*
X78400000Y-89500000D03*
X87000000Y-84500000D03*
X109000000Y-101000000D03*
X55000000Y-80000000D03*
X113000000Y-97000000D03*
X96050000Y-92150000D03*
X103000000Y-95000000D03*
X66100000Y-94400000D03*
X103000000Y-83000000D03*
X62000000Y-100000000D03*
X60050000Y-78850000D03*
X99950000Y-92150000D03*
X80150000Y-93350000D03*
X97500000Y-81500000D03*
X113000000Y-107000000D03*
X80500000Y-89500000D03*
X45000000Y-101000000D03*
X85000000Y-72000000D03*
X70250000Y-75600000D03*
X72000000Y-104000000D03*
X81200000Y-83550000D03*
X101000000Y-101000000D03*
X80500000Y-91700000D03*
X95000000Y-103000000D03*
X107000000Y-83000000D03*
X81900000Y-91700000D03*
X81200000Y-88400000D03*
X58100000Y-78850000D03*
X104000000Y-96000000D03*
X94800000Y-84500000D03*
X110000000Y-100000000D03*
X72350000Y-81100000D03*
X91000000Y-103000000D03*
X72200000Y-75600000D03*
X81000000Y-109000000D03*
X79000000Y-109000000D03*
X109000000Y-107000000D03*
X61750000Y-91950000D03*
X66000000Y-102000000D03*
X109000000Y-105000000D03*
X101400000Y-81500000D03*
X66050000Y-84900000D03*
X46000000Y-71000000D03*
X52000000Y-100000000D03*
X71000000Y-103000000D03*
X101000000Y-109000000D03*
X98000000Y-102000000D03*
X79800000Y-91700000D03*
X79450000Y-90050000D03*
X80850000Y-91150000D03*
X79450000Y-80800000D03*
X48000000Y-98000000D03*
X78750000Y-96525000D03*
X70000000Y-100000000D03*
X86150000Y-75675000D03*
X60000000Y-85000000D03*
X79450000Y-87850000D03*
X61000000Y-84000000D03*
X79800000Y-98175000D03*
X109000000Y-103000000D03*
X113000000Y-109000000D03*
X52000000Y-79000000D03*
X111650000Y-92150000D03*
X49000000Y-105000000D03*
X69800000Y-78850000D03*
X87050000Y-95650000D03*
X48000000Y-71000000D03*
X110000000Y-102000000D03*
X47000000Y-74000000D03*
X83000000Y-72000000D03*
X94750000Y-92150000D03*
X84850000Y-75675000D03*
X59150000Y-91950000D03*
X48000000Y-85000000D03*
X57000000Y-109000000D03*
X99300000Y-92150000D03*
X51000000Y-107000000D03*
X61350000Y-78850000D03*
X94000000Y-100000000D03*
X83150000Y-95650000D03*
X98000000Y-94000000D03*
X69000000Y-72000000D03*
X54000000Y-94000000D03*
X98000000Y-96000000D03*
X65000000Y-101000000D03*
X80500000Y-98175000D03*
X67800000Y-81100000D03*
X104000000Y-94000000D03*
X51000000Y-101000000D03*
X80850000Y-98725000D03*
X65000000Y-93000000D03*
X103000000Y-81000000D03*
X79000000Y-101000000D03*
X107000000Y-109000000D03*
X50000000Y-94000000D03*
X108000000Y-96000000D03*
X50000000Y-96000000D03*
X49000000Y-95000000D03*
X73000000Y-109000000D03*
X94800000Y-81500000D03*
X100100000Y-81500000D03*
X56000000Y-71000000D03*
X111000000Y-73000000D03*
X64000000Y-85000000D03*
X58000000Y-85000000D03*
X111000000Y-101000000D03*
X58000000Y-83000000D03*
X84000000Y-75000000D03*
X78750000Y-98725000D03*
X82825000Y-77225000D03*
X87650000Y-81500000D03*
X44850000Y-91950000D03*
X69000000Y-74000000D03*
X102000000Y-100000000D03*
X50700000Y-87450000D03*
X88350000Y-95650000D03*
X57000000Y-86000000D03*
X56000000Y-94000000D03*
X81550000Y-85600000D03*
X59800000Y-91950000D03*
X46000000Y-79000000D03*
X112000000Y-96000000D03*
X73000000Y-105000000D03*
X111000000Y-81000000D03*
X79450000Y-96525000D03*
X79000000Y-80000000D03*
X62400000Y-87450000D03*
X84000000Y-104000000D03*
X110000000Y-96000000D03*
X75000000Y-105000000D03*
X47000000Y-72000000D03*
X51000000Y-95000000D03*
X61000000Y-101000000D03*
X102000000Y-86000000D03*
X49000000Y-86000000D03*
X75000000Y-107000000D03*
X51000000Y-76000000D03*
X51000000Y-82000000D03*
X77000000Y-72000000D03*
X66000000Y-104000000D03*
X66700000Y-98350000D03*
X68450000Y-81100000D03*
X106000000Y-100000000D03*
X81900000Y-97075000D03*
X46000000Y-81000000D03*
X61000000Y-82000000D03*
X90500000Y-77000000D03*
X67350000Y-98350000D03*
X79800000Y-86150000D03*
X47000000Y-99000000D03*
X79800000Y-82450000D03*
X57000000Y-80000000D03*
X53950000Y-91950000D03*
X68300000Y-75600000D03*
X94000000Y-98000000D03*
X79100000Y-89500000D03*
X83000000Y-109000000D03*
X65000000Y-105000000D03*
X99000000Y-99000000D03*
X80850000Y-93350000D03*
X47000000Y-101000000D03*
X61000000Y-99000000D03*
X68950000Y-75600000D03*
X88300000Y-84500000D03*
X57000000Y-93000000D03*
X77000000Y-107000000D03*
X50000000Y-106000000D03*
X54000000Y-83000000D03*
X110000000Y-106000000D03*
X79000000Y-79000000D03*
X110000000Y-86000000D03*
X81550000Y-93350000D03*
X61000000Y-109000000D03*
X65000000Y-103000000D03*
X71900000Y-98350000D03*
X68650000Y-98350000D03*
X66100000Y-93100000D03*
X74000000Y-71000000D03*
X62000000Y-78850000D03*
X49000000Y-76000000D03*
X51350000Y-91950000D03*
X45000000Y-99000000D03*
X48000000Y-96000000D03*
X75000000Y-103000000D03*
X81200000Y-89500000D03*
X104000000Y-86000000D03*
X110000000Y-104000000D03*
X97350000Y-92150000D03*
X56000000Y-79000000D03*
X64350000Y-87450000D03*
X63000000Y-101000000D03*
X68000000Y-102000000D03*
X64000000Y-106000000D03*
X78400000Y-82450000D03*
X48100000Y-91950000D03*
X111000000Y-75000000D03*
X77000000Y-101000000D03*
X103650000Y-87400000D03*
X45500000Y-87450000D03*
X110000000Y-108000000D03*
X81550000Y-86750000D03*
X110000000Y-72000000D03*
X73000000Y-81100000D03*
X75000000Y-72000000D03*
X102000000Y-77100000D03*
X76000000Y-108000000D03*
X100750000Y-81500000D03*
X69100000Y-81100000D03*
X66050000Y-86850000D03*
X69950000Y-98350000D03*
X79450000Y-91150000D03*
X58000000Y-108000000D03*
X80500000Y-83550000D03*
X78000000Y-100000000D03*
X68000000Y-104000000D03*
X66350000Y-74950000D03*
X109000000Y-79000000D03*
X104000000Y-98000000D03*
X78050000Y-78500000D03*
X60000000Y-100000000D03*
X54000000Y-100000000D03*
X79800000Y-89500000D03*
X112000000Y-74000000D03*
X87000000Y-72000000D03*
X96000000Y-98000000D03*
X61000000Y-95000000D03*
X79800000Y-99275000D03*
X61000000Y-93000000D03*
X108000000Y-100000000D03*
X80500000Y-99275000D03*
X63700000Y-87450000D03*
X46000000Y-83000000D03*
X92250000Y-95650000D03*
X89650000Y-95650000D03*
X100000000Y-98000000D03*
X113000000Y-105000000D03*
X81900000Y-81350000D03*
X78050000Y-84925000D03*
X62000000Y-98000000D03*
X79450000Y-92250000D03*
X49000000Y-97000000D03*
X49000000Y-103000000D03*
X64000000Y-83000000D03*
X78050000Y-93350000D03*
X78750000Y-88950000D03*
X80150000Y-92250000D03*
X67650000Y-75600000D03*
X70600000Y-98350000D03*
X55000000Y-101000000D03*
X89000000Y-101000000D03*
X94100000Y-92150000D03*
X53000000Y-86000000D03*
X63000000Y-84000000D03*
X50000000Y-102000000D03*
X65000000Y-97000000D03*
X91000000Y-97000000D03*
X48000000Y-79000000D03*
X72000000Y-106000000D03*
X110000000Y-94000000D03*
X49000000Y-82000000D03*
X86000000Y-100000000D03*
X113000000Y-101000000D03*
X80150000Y-86750000D03*
X59000000Y-84000000D03*
X79450000Y-81900000D03*
X112000000Y-94000000D03*
X78000000Y-102000000D03*
X64000000Y-102000000D03*
X61000000Y-107000000D03*
X64000000Y-81000000D03*
X71000000Y-74000000D03*
X64000000Y-100000000D03*
X89000000Y-97000000D03*
X79450000Y-85600000D03*
X64600000Y-78850000D03*
X78050000Y-98725000D03*
X87775000Y-71225000D03*
X81900000Y-93900000D03*
X95000000Y-76500000D03*
X92000000Y-102000000D03*
X104000000Y-80000000D03*
X111000000Y-99000000D03*
X73000000Y-74000000D03*
X45000000Y-82000000D03*
X96750000Y-84500000D03*
X109700000Y-92150000D03*
X63950000Y-78850000D03*
X77300000Y-77350000D03*
X67000000Y-107000000D03*
X66100000Y-97650000D03*
X81200000Y-92800000D03*
X62000000Y-94000000D03*
X100600000Y-92150000D03*
X69000000Y-107000000D03*
X78050000Y-94450000D03*
X78050000Y-95200000D03*
X111000000Y-95000000D03*
X53000000Y-84000000D03*
X57850000Y-87450000D03*
X76000000Y-73000000D03*
X112000000Y-72000000D03*
X100100000Y-84500000D03*
X62000000Y-96000000D03*
X55000000Y-95000000D03*
X90300000Y-95650000D03*
X96000000Y-94000000D03*
X46800000Y-87450000D03*
X84450000Y-95650000D03*
X99000000Y-97000000D03*
X58000000Y-100000000D03*
X57000000Y-97000000D03*
X49000000Y-74000000D03*
X50000000Y-83000000D03*
X78750000Y-91150000D03*
X87775000Y-73825000D03*
X50000000Y-79000000D03*
X110000000Y-98000000D03*
X94150000Y-84500000D03*
X64350000Y-91950000D03*
X59000000Y-99000000D03*
X99000000Y-83000000D03*
X66100000Y-93750000D03*
X81550000Y-87850000D03*
X53300000Y-91950000D03*
X87775000Y-72525000D03*
X50000000Y-85000000D03*
X66000000Y-106000000D03*
X69600000Y-75600000D03*
X80000000Y-79000000D03*
X57000000Y-84000000D03*
X66050000Y-86200000D03*
X79100000Y-83550000D03*
X80000000Y-100000000D03*
X63000000Y-107000000D03*
X92000000Y-76500000D03*
X80150000Y-87850000D03*
X83000000Y-99000000D03*
X48000000Y-83000000D03*
X81550000Y-98725000D03*
X104000000Y-84000000D03*
X56000000Y-100000000D03*
X52650000Y-91950000D03*
X78000000Y-71000000D03*
X103200000Y-92150000D03*
X108900000Y-87400000D03*
X60000000Y-102000000D03*
X109000000Y-77000000D03*
X110000000Y-78000000D03*
X109000000Y-73000000D03*
X104500000Y-92150000D03*
X95000000Y-93000000D03*
X47000000Y-78000000D03*
X49000000Y-109000000D03*
X81200000Y-97075000D03*
X69300000Y-98350000D03*
X112000000Y-102000000D03*
X87650000Y-84500000D03*
X68000000Y-71000000D03*
X78750000Y-81900000D03*
X54000000Y-85000000D03*
X81200000Y-90600000D03*
X78050000Y-90050000D03*
X51000000Y-72000000D03*
X51000000Y-99000000D03*
X54000000Y-98000000D03*
X69150000Y-78850000D03*
X78750000Y-90050000D03*
X109000000Y-95000000D03*
X48000000Y-77000000D03*
X81900000Y-86150000D03*
X80850000Y-83000000D03*
X106000000Y-86000000D03*
X80850000Y-97625000D03*
X74600000Y-98350000D03*
X81550000Y-81900000D03*
X102000000Y-102000000D03*
X99450000Y-84500000D03*
X81200000Y-82450000D03*
X73000000Y-107000000D03*
X112150000Y-87400000D03*
X93500000Y-95400000D03*
X101000000Y-99000000D03*
X105000000Y-101000000D03*
X45000000Y-72000000D03*
X112950000Y-92150000D03*
X79100000Y-98175000D03*
X65000000Y-80000000D03*
X53000000Y-78000000D03*
X111000000Y-92150000D03*
X109000000Y-97000000D03*
X66350000Y-72350000D03*
X66350000Y-71700000D03*
X79450000Y-94450000D03*
X80150000Y-88950000D03*
X56000000Y-96000000D03*
X83000000Y-97000000D03*
X80150000Y-83000000D03*
X91550000Y-81500000D03*
X80850000Y-94450000D03*
X71000000Y-109000000D03*
X80850000Y-81900000D03*
X78050000Y-80800000D03*
X90000000Y-102000000D03*
X74000000Y-106000000D03*
X55900000Y-91950000D03*
X78400000Y-86150000D03*
X100000000Y-96000000D03*
X50000000Y-108000000D03*
X81000000Y-79000000D03*
X92850000Y-81500000D03*
X93500000Y-77000000D03*
X60000000Y-98000000D03*
X73500000Y-75600000D03*
X80500000Y-92800000D03*
X79450000Y-93350000D03*
X62000000Y-83000000D03*
X55000000Y-82000000D03*
X88950000Y-84500000D03*
X49000000Y-101000000D03*
X73000000Y-80450000D03*
X83000000Y-103000000D03*
X79100000Y-91700000D03*
X53000000Y-93000000D03*
X55250000Y-91950000D03*
X87000000Y-82300000D03*
X59000000Y-105000000D03*
X51000000Y-84000000D03*
X77000000Y-109000000D03*
X61750000Y-87450000D03*
X110850000Y-87400000D03*
X56000000Y-83000000D03*
X57200000Y-87450000D03*
X48000000Y-94000000D03*
X47000000Y-82000000D03*
X105150000Y-92150000D03*
X57000000Y-99000000D03*
X112000000Y-98000000D03*
X68500000Y-78850000D03*
X80850000Y-80800000D03*
X59000000Y-95000000D03*
X78400000Y-88400000D03*
X71000000Y-72000000D03*
X78750000Y-85600000D03*
X90000000Y-100000000D03*
X84000000Y-100000000D03*
X87775000Y-74475000D03*
X101250000Y-92150000D03*
X96100000Y-81500000D03*
X63000000Y-99000000D03*
X111000000Y-77000000D03*
X53000000Y-101000000D03*
X78750000Y-83000000D03*
X48000000Y-104000000D03*
X52000000Y-85000000D03*
X49400000Y-87450000D03*
X47000000Y-109000000D03*
X103000000Y-79000000D03*
X48750000Y-87450000D03*
X79100000Y-87300000D03*
X46000000Y-75000000D03*
X78750000Y-80800000D03*
X94000000Y-96000000D03*
X108000000Y-82000000D03*
X81900000Y-89500000D03*
X102000000Y-77750000D03*
X45000000Y-86000000D03*
X74000000Y-102000000D03*
X95400000Y-92150000D03*
X111000000Y-97000000D03*
X108000000Y-80000000D03*
X72000000Y-102000000D03*
X47000000Y-105000000D03*
X59000000Y-107000000D03*
X91550000Y-84500000D03*
X95000000Y-83000000D03*
X53000000Y-82000000D03*
X107750000Y-92150000D03*
X70000000Y-71000000D03*
X113000000Y-83000000D03*
X78400000Y-98175000D03*
X106000000Y-96000000D03*
X105000000Y-83000000D03*
X105600000Y-87400000D03*
X66050000Y-81600000D03*
X63000000Y-86000000D03*
X61100000Y-87450000D03*
X71100000Y-78850000D03*
X57700000Y-77650000D03*
X89000000Y-103000000D03*
X109000000Y-109000000D03*
X106000000Y-94000000D03*
X111000000Y-93000000D03*
X113000000Y-81000000D03*
X47000000Y-103000000D03*
X106900000Y-87400000D03*
X60450000Y-87450000D03*
X57700000Y-72900000D03*
X108400000Y-92150000D03*
X71700000Y-81100000D03*
X58000000Y-98000000D03*
X80850000Y-86750000D03*
X101000000Y-105000000D03*
X81200000Y-99275000D03*
X80000000Y-80000000D03*
X78400000Y-90600000D03*
X62000000Y-108000000D03*
X86000000Y-75000000D03*
X70000000Y-73000000D03*
X75000000Y-109000000D03*
X80000000Y-71000000D03*
X112000000Y-104000000D03*
X83800000Y-95650000D03*
X89600000Y-81500000D03*
X107100000Y-92150000D03*
X86000000Y-73000000D03*
X46000000Y-85000000D03*
X102000000Y-81000000D03*
X108000000Y-94000000D03*
X87000000Y-83000000D03*
X106000000Y-82000000D03*
X97000000Y-99000000D03*
X55000000Y-84000000D03*
X104300000Y-87400000D03*
X80500000Y-87300000D03*
X62000000Y-106000000D03*
X81550000Y-96525000D03*
X109000000Y-71000000D03*
X85000000Y-97000000D03*
X107000000Y-81000000D03*
X107000000Y-99000000D03*
X87000000Y-97000000D03*
X111000000Y-105000000D03*
X90000000Y-98000000D03*
X80150000Y-81900000D03*
X96000000Y-96000000D03*
X90250000Y-81500000D03*
X102000000Y-76450000D03*
X80500000Y-97075000D03*
X45000000Y-105000000D03*
X66000000Y-100000000D03*
X64000000Y-94000000D03*
X80150000Y-85600000D03*
X51000000Y-78000000D03*
X73000000Y-72000000D03*
X92000000Y-98000000D03*
X72850000Y-75600000D03*
X47000000Y-76000000D03*
X50000000Y-75000000D03*
X78050000Y-91150000D03*
X49000000Y-72000000D03*
X78750000Y-97625000D03*
X70900000Y-75600000D03*
X63000000Y-82000000D03*
X66550000Y-78850000D03*
X63700000Y-91950000D03*
X88950000Y-81500000D03*
X108000000Y-86000000D03*
X57850000Y-91950000D03*
X112800000Y-87400000D03*
X79100000Y-93900000D03*
X100400000Y-87400000D03*
X57700000Y-70950000D03*
X74000000Y-108000000D03*
X56550000Y-91950000D03*
X86800000Y-75675000D03*
X113000000Y-95000000D03*
X46000000Y-73000000D03*
X62000000Y-85000000D03*
X68000000Y-106000000D03*
X112000000Y-84000000D03*
X108000000Y-78000000D03*
X95000000Y-101000000D03*
X94500000Y-77000000D03*
X45000000Y-76000000D03*
X87000000Y-103000000D03*
X47450000Y-91950000D03*
X95500000Y-77000000D03*
X108250000Y-87400000D03*
X79100000Y-88400000D03*
X90900000Y-81500000D03*
X90000000Y-76500000D03*
X66050000Y-85550000D03*
X78400000Y-92800000D03*
X46000000Y-96000000D03*
X110350000Y-92150000D03*
X109000000Y-99000000D03*
X57700000Y-78300000D03*
X67850000Y-78850000D03*
X87000000Y-83700000D03*
X102000000Y-96000000D03*
X63000000Y-95000000D03*
X91000000Y-99000000D03*
X85000000Y-99000000D03*
X60450000Y-91950000D03*
X81875000Y-80150000D03*
X65000000Y-99000000D03*
X106450000Y-92150000D03*
X65650000Y-91950000D03*
X98000000Y-92150000D03*
X89500000Y-77000000D03*
X52000000Y-81000000D03*
X102000000Y-108000000D03*
X97000000Y-95000000D03*
X66100000Y-95050000D03*
X107000000Y-95000000D03*
X107000000Y-101000000D03*
X91000000Y-101000000D03*
X84000000Y-73000000D03*
X81200000Y-86150000D03*
X102000000Y-84000000D03*
X78050000Y-87850000D03*
X53000000Y-72000000D03*
X45000000Y-74000000D03*
X112000000Y-106000000D03*
X78400000Y-91700000D03*
X105000000Y-85000000D03*
X57000000Y-95000000D03*
X53000000Y-109000000D03*
X79800000Y-97075000D03*
X74800000Y-75600000D03*
X105000000Y-95000000D03*
X103000000Y-71000000D03*
X57700000Y-71600000D03*
X70000000Y-102000000D03*
X106000000Y-98000000D03*
X63050000Y-87450000D03*
X70000000Y-104000000D03*
X65900000Y-78850000D03*
X52000000Y-96000000D03*
X73000000Y-79150000D03*
X101900000Y-92150000D03*
X66050000Y-83600000D03*
X49000000Y-84000000D03*
X78050000Y-86750000D03*
X58750000Y-78850000D03*
X81000000Y-101000000D03*
X106000000Y-84000000D03*
X76000000Y-100000000D03*
X61000000Y-80000000D03*
X79450000Y-98725000D03*
X79100000Y-97075000D03*
X97000000Y-103000000D03*
X102000000Y-72800000D03*
X72000000Y-100000000D03*
X62000000Y-102000000D03*
X74000000Y-104000000D03*
X79800000Y-88400000D03*
X100000000Y-102000000D03*
X107600000Y-87400000D03*
X75000000Y-74000000D03*
X102350000Y-87400000D03*
X84000000Y-98000000D03*
X81000000Y-80000000D03*
X86000000Y-98000000D03*
X96700000Y-92150000D03*
X112000000Y-82000000D03*
X100400000Y-86700000D03*
X79800000Y-87300000D03*
X45500000Y-91950000D03*
X82500000Y-95650000D03*
X113000000Y-85000000D03*
X55000000Y-99000000D03*
X49000000Y-99000000D03*
X73000000Y-103000000D03*
X105000000Y-81000000D03*
X113000000Y-77000000D03*
X82250000Y-96325000D03*
X83000000Y-107000000D03*
X113000000Y-99000000D03*
X111000000Y-71000000D03*
X72000000Y-73000000D03*
X103000000Y-93000000D03*
X49000000Y-93000000D03*
X74150000Y-75600000D03*
X55900000Y-87450000D03*
X103850000Y-92150000D03*
X97000000Y-93000000D03*
X60000000Y-81000000D03*
X66050000Y-82250000D03*
X45000000Y-78000000D03*
X60000000Y-83000000D03*
X59000000Y-109000000D03*
X47000000Y-93000000D03*
X52000000Y-94000000D03*
X107000000Y-97000000D03*
X81900000Y-90600000D03*
X80150000Y-80800000D03*
X53000000Y-80000000D03*
X93500000Y-84500000D03*
X93450000Y-94100000D03*
X112000000Y-78000000D03*
X105000000Y-109000000D03*
X84000000Y-71000000D03*
X56000000Y-85000000D03*
X113000000Y-79000000D03*
X80500000Y-93900000D03*
X59800000Y-87450000D03*
X66350000Y-73650000D03*
X113000000Y-103000000D03*
X99000000Y-101000000D03*
X98000000Y-98000000D03*
X44850000Y-87450000D03*
X78050000Y-83000000D03*
X45000000Y-97000000D03*
X92500000Y-77000000D03*
X113000000Y-71000000D03*
X57200000Y-91950000D03*
X84200000Y-75850000D03*
X107000000Y-85000000D03*
X102000000Y-79700000D03*
X59000000Y-80000000D03*
X101000000Y-107000000D03*
X67000000Y-109000000D03*
X110000000Y-84000000D03*
X81200000Y-87300000D03*
X94150000Y-81500000D03*
X111000000Y-103000000D03*
X92000000Y-100000000D03*
X67200000Y-78850000D03*
X66350000Y-73000000D03*
X71000000Y-107000000D03*
X86000000Y-104000000D03*
X76000000Y-71000000D03*
X50000000Y-71000000D03*
X57000000Y-101000000D03*
X97000000Y-101000000D03*
X108000000Y-108000000D03*
X80150000Y-90050000D03*
X50000000Y-98000000D03*
X78050000Y-96525000D03*
X53950000Y-87450000D03*
X46150000Y-91950000D03*
X85000000Y-103000000D03*
X80500000Y-82450000D03*
X81875000Y-78175000D03*
X95450000Y-81500000D03*
X66350000Y-75600000D03*
X78750000Y-94450000D03*
X47000000Y-107000000D03*
X62000000Y-104000000D03*
X48000000Y-102000000D03*
X112000000Y-80000000D03*
X79450000Y-88950000D03*
X81900000Y-82450000D03*
X56000000Y-98000000D03*
X59000000Y-86000000D03*
X111000000Y-107000000D03*
X67150000Y-81100000D03*
X85000000Y-109000000D03*
X113000000Y-75000000D03*
X80500000Y-90600000D03*
X61100000Y-91950000D03*
X66100000Y-96350000D03*
X77750000Y-77800000D03*
X74000000Y-100000000D03*
X45000000Y-109000000D03*
X85000000Y-105000000D03*
X66500000Y-81100000D03*
X46150000Y-87450000D03*
X87000000Y-81500000D03*
X109000000Y-93000000D03*
X102000000Y-98000000D03*
X55250000Y-87450000D03*
X104000000Y-82000000D03*
X80150000Y-94450000D03*
X98800000Y-81500000D03*
X65650000Y-87450000D03*
X101000000Y-95000000D03*
X48750000Y-91950000D03*
X81550000Y-83000000D03*
X86000000Y-102000000D03*
X48000000Y-75000000D03*
X61000000Y-105000000D03*
X111000000Y-79000000D03*
X62400000Y-91950000D03*
X81900000Y-87300000D03*
X81900000Y-84200000D03*
X96000000Y-100000000D03*
X61000000Y-103000000D03*
X48000000Y-81000000D03*
X99000000Y-103000000D03*
X71050000Y-81100000D03*
X110000000Y-80000000D03*
X76400000Y-76450000D03*
X81200000Y-91700000D03*
X91000000Y-83000000D03*
X78050000Y-79800000D03*
X81200000Y-93900000D03*
X103000000Y-101000000D03*
X65250000Y-78850000D03*
X66350000Y-74300000D03*
X112000000Y-108000000D03*
X76600000Y-98350000D03*
X96000000Y-102000000D03*
X85100000Y-95650000D03*
X75900000Y-98350000D03*
X81550000Y-90050000D03*
X106000000Y-80000000D03*
X60000000Y-96000000D03*
X79450000Y-83000000D03*
X72600000Y-98350000D03*
X74000000Y-73000000D03*
X110000000Y-76000000D03*
X71250000Y-98350000D03*
X82350000Y-77700000D03*
X78400000Y-97075000D03*
X78050000Y-84275000D03*
X54000000Y-96000000D03*
X110000000Y-74000000D03*
X91600000Y-95650000D03*
X67000000Y-103000000D03*
X80150000Y-98725000D03*
X63000000Y-80000000D03*
X99000000Y-95000000D03*
X105000000Y-97000000D03*
X78750000Y-86750000D03*
X52000000Y-108000000D03*
X79450000Y-97625000D03*
X66100000Y-92450000D03*
X60000000Y-94000000D03*
X82000000Y-71000000D03*
X109550000Y-87400000D03*
X47000000Y-84000000D03*
X52000000Y-83000000D03*
X103000000Y-85000000D03*
X78400000Y-81350000D03*
X46000000Y-104000000D03*
X58500000Y-91950000D03*
X111500000Y-87400000D03*
X63050000Y-91950000D03*
X47450000Y-87450000D03*
X55000000Y-97000000D03*
X56000000Y-81000000D03*
X80850000Y-87850000D03*
X81550000Y-97625000D03*
X102000000Y-78400000D03*
X106250000Y-87400000D03*
X71000000Y-101000000D03*
X90900000Y-84500000D03*
X69000000Y-105000000D03*
X59000000Y-101000000D03*
X64000000Y-98000000D03*
X79800000Y-81350000D03*
X88000000Y-100000000D03*
X80850000Y-92250000D03*
X97000000Y-76500000D03*
X63000000Y-93000000D03*
X91500000Y-77000000D03*
%TD*%
M02*
