%TF.GenerationSoftware,KiCad,Pcbnew,8.0.0*%
%TF.CreationDate,2024-03-17T22:04:36-04:00*%
%TF.ProjectId,S-Band Transceiver,532d4261-6e64-4205-9472-616e73636569,v1.0*%
%TF.SameCoordinates,Original*%
%TF.FileFunction,Soldermask,Bot*%
%TF.FilePolarity,Negative*%
%FSLAX46Y46*%
G04 Gerber Fmt 4.6, Leading zero omitted, Abs format (unit mm)*
G04 Created by KiCad (PCBNEW 8.0.0) date 2024-03-17 22:04:36*
%MOMM*%
%LPD*%
G01*
G04 APERTURE LIST*
G04 Aperture macros list*
%AMRoundRect*
0 Rectangle with rounded corners*
0 $1 Rounding radius*
0 $2 $3 $4 $5 $6 $7 $8 $9 X,Y pos of 4 corners*
0 Add a 4 corners polygon primitive as box body*
4,1,4,$2,$3,$4,$5,$6,$7,$8,$9,$2,$3,0*
0 Add four circle primitives for the rounded corners*
1,1,$1+$1,$2,$3*
1,1,$1+$1,$4,$5*
1,1,$1+$1,$6,$7*
1,1,$1+$1,$8,$9*
0 Add four rect primitives between the rounded corners*
20,1,$1+$1,$2,$3,$4,$5,0*
20,1,$1+$1,$4,$5,$6,$7,0*
20,1,$1+$1,$6,$7,$8,$9,0*
20,1,$1+$1,$8,$9,$2,$3,0*%
G04 Aperture macros list end*
%ADD10C,5.562600*%
%ADD11C,0.700000*%
%ADD12O,2.400000X0.900000*%
%ADD13O,1.700000X0.900000*%
%ADD14RoundRect,0.250000X0.600000X-0.600000X0.600000X0.600000X-0.600000X0.600000X-0.600000X-0.600000X0*%
%ADD15C,1.700000*%
%ADD16R,4.200000X1.350000*%
G04 APERTURE END LIST*
D10*
%TO.C,H4*%
X186690000Y-123190000D03*
%TD*%
%TO.C,H3*%
X67310000Y-123190000D03*
%TD*%
%TO.C,H2*%
X186690000Y-29210000D03*
%TD*%
%TO.C,H1*%
X67310000Y-29210000D03*
%TD*%
D11*
%TO.C,J4*%
X184443000Y-104575000D03*
X184443000Y-103725000D03*
X184443000Y-102875000D03*
X184443000Y-102025000D03*
X184443000Y-101175000D03*
X184443000Y-100325000D03*
X184443000Y-99475000D03*
X184443000Y-98625000D03*
X185793000Y-98625000D03*
X185793000Y-99475000D03*
X185793000Y-100325000D03*
X185793000Y-101175000D03*
X185793000Y-102025000D03*
X185793000Y-102875000D03*
X185793000Y-103725000D03*
X185793000Y-104575000D03*
D12*
X185423000Y-105925000D03*
D13*
X188803000Y-105925000D03*
D12*
X185423000Y-97275000D03*
D13*
X188803000Y-97275000D03*
%TD*%
D14*
%TO.C,J3*%
X139954000Y-121158000D03*
D15*
X139954000Y-118618000D03*
X142494000Y-121158000D03*
X142494000Y-118618000D03*
X145034000Y-121158000D03*
X145034000Y-118618000D03*
%TD*%
D16*
%TO.C,J5*%
X65659000Y-117125000D03*
X65659000Y-111475000D03*
%TD*%
%TO.C,J8*%
X65659000Y-54325000D03*
X65659000Y-59975000D03*
%TD*%
%TO.C,J1*%
X188377500Y-53625000D03*
X188377500Y-47975000D03*
%TD*%
%TO.C,J2*%
X65659000Y-98075000D03*
X65659000Y-92425000D03*
%TD*%
%TO.C,J7*%
X65659000Y-73375000D03*
X65659000Y-79025000D03*
%TD*%
%TO.C,J6*%
X65659000Y-35275000D03*
X65659000Y-40925000D03*
%TD*%
M02*
