%TF.GenerationSoftware,KiCad,Pcbnew,8.0.0*%
%TF.CreationDate,2024-03-17T22:04:36-04:00*%
%TF.ProjectId,S-Band Transceiver,532d4261-6e64-4205-9472-616e73636569,v1.0*%
%TF.SameCoordinates,Original*%
%TF.FileFunction,Paste,Top*%
%TF.FilePolarity,Positive*%
%FSLAX46Y46*%
G04 Gerber Fmt 4.6, Leading zero omitted, Abs format (unit mm)*
G04 Created by KiCad (PCBNEW 8.0.0) date 2024-03-17 22:04:36*
%MOMM*%
%LPD*%
G01*
G04 APERTURE LIST*
G04 Aperture macros list*
%AMRoundRect*
0 Rectangle with rounded corners*
0 $1 Rounding radius*
0 $2 $3 $4 $5 $6 $7 $8 $9 X,Y pos of 4 corners*
0 Add a 4 corners polygon primitive as box body*
4,1,4,$2,$3,$4,$5,$6,$7,$8,$9,$2,$3,0*
0 Add four circle primitives for the rounded corners*
1,1,$1+$1,$2,$3*
1,1,$1+$1,$4,$5*
1,1,$1+$1,$6,$7*
1,1,$1+$1,$8,$9*
0 Add four rect primitives between the rounded corners*
20,1,$1+$1,$2,$3,$4,$5,0*
20,1,$1+$1,$4,$5,$6,$7,0*
20,1,$1+$1,$6,$7,$8,$9,0*
20,1,$1+$1,$8,$9,$2,$3,0*%
G04 Aperture macros list end*
%ADD10RoundRect,0.200000X0.200000X0.275000X-0.200000X0.275000X-0.200000X-0.275000X0.200000X-0.275000X0*%
%ADD11RoundRect,0.140000X-0.170000X0.140000X-0.170000X-0.140000X0.170000X-0.140000X0.170000X0.140000X0*%
%ADD12RoundRect,0.147500X-0.172500X0.147500X-0.172500X-0.147500X0.172500X-0.147500X0.172500X0.147500X0*%
%ADD13RoundRect,0.147500X0.172500X-0.147500X0.172500X0.147500X-0.172500X0.147500X-0.172500X-0.147500X0*%
%ADD14RoundRect,0.140000X-0.140000X-0.170000X0.140000X-0.170000X0.140000X0.170000X-0.140000X0.170000X0*%
%ADD15RoundRect,0.140000X0.140000X0.170000X-0.140000X0.170000X-0.140000X-0.170000X0.140000X-0.170000X0*%
%ADD16RoundRect,0.218750X0.218750X0.256250X-0.218750X0.256250X-0.218750X-0.256250X0.218750X-0.256250X0*%
%ADD17RoundRect,0.140000X0.170000X-0.140000X0.170000X0.140000X-0.170000X0.140000X-0.170000X-0.140000X0*%
%ADD18RoundRect,0.200000X-0.200000X-0.275000X0.200000X-0.275000X0.200000X0.275000X-0.200000X0.275000X0*%
%ADD19RoundRect,0.200000X-0.275000X0.200000X-0.275000X-0.200000X0.275000X-0.200000X0.275000X0.200000X0*%
%ADD20RoundRect,0.240000X0.240000X-0.240000X0.240000X0.240000X-0.240000X0.240000X-0.240000X-0.240000X0*%
%ADD21RoundRect,0.062500X0.062500X-0.375000X0.062500X0.375000X-0.062500X0.375000X-0.062500X-0.375000X0*%
%ADD22RoundRect,0.062500X0.375000X-0.062500X0.375000X0.062500X-0.375000X0.062500X-0.375000X-0.062500X0*%
%ADD23RoundRect,0.225000X-0.225000X-0.250000X0.225000X-0.250000X0.225000X0.250000X-0.225000X0.250000X0*%
%ADD24RoundRect,0.147500X0.147500X0.172500X-0.147500X0.172500X-0.147500X-0.172500X0.147500X-0.172500X0*%
%ADD25RoundRect,0.200000X0.275000X-0.200000X0.275000X0.200000X-0.275000X0.200000X-0.275000X-0.200000X0*%
%ADD26R,1.000000X0.900000*%
%ADD27RoundRect,0.242500X0.242500X0.242500X-0.242500X0.242500X-0.242500X-0.242500X0.242500X-0.242500X0*%
%ADD28RoundRect,0.062500X0.337500X0.062500X-0.337500X0.062500X-0.337500X-0.062500X0.337500X-0.062500X0*%
%ADD29RoundRect,0.062500X0.062500X0.337500X-0.062500X0.337500X-0.062500X-0.337500X0.062500X-0.337500X0*%
%ADD30RoundRect,0.225000X-0.375000X0.225000X-0.375000X-0.225000X0.375000X-0.225000X0.375000X0.225000X0*%
%ADD31RoundRect,0.250000X-0.425000X0.450000X-0.425000X-0.450000X0.425000X-0.450000X0.425000X0.450000X0*%
%ADD32RoundRect,0.100000X-0.100000X0.712500X-0.100000X-0.712500X0.100000X-0.712500X0.100000X0.712500X0*%
%ADD33RoundRect,0.250000X0.450000X0.425000X-0.450000X0.425000X-0.450000X-0.425000X0.450000X-0.425000X0*%
%ADD34R,1.300000X1.300000*%
%ADD35R,0.300000X0.800000*%
%ADD36R,0.800000X0.300000*%
%ADD37RoundRect,0.150000X0.512500X0.150000X-0.512500X0.150000X-0.512500X-0.150000X0.512500X-0.150000X0*%
%ADD38RoundRect,0.227500X-0.227500X-0.227500X0.227500X-0.227500X0.227500X0.227500X-0.227500X0.227500X0*%
%ADD39RoundRect,0.075000X-0.350000X-0.075000X0.350000X-0.075000X0.350000X0.075000X-0.350000X0.075000X0*%
%ADD40RoundRect,0.075000X-0.075000X-0.350000X0.075000X-0.350000X0.075000X0.350000X-0.075000X0.350000X0*%
%ADD41R,0.550000X0.250000*%
%ADD42R,4.200000X1.350000*%
%ADD43R,3.600000X1.270000*%
%ADD44RoundRect,0.243750X0.456250X-0.243750X0.456250X0.243750X-0.456250X0.243750X-0.456250X-0.243750X0*%
%ADD45R,2.750000X1.000000*%
%ADD46R,1.400000X0.300000*%
%ADD47R,0.300000X0.250000*%
%ADD48RoundRect,0.125000X-0.175000X0.000000X0.175000X0.000000X0.175000X0.000000X-0.175000X0.000000X0*%
%ADD49R,1.000000X0.726000*%
%ADD50R,1.792000X0.736000*%
%ADD51RoundRect,0.250000X0.255000X-0.255000X0.255000X0.255000X-0.255000X0.255000X-0.255000X-0.255000X0*%
%ADD52RoundRect,0.062500X0.062500X-0.350000X0.062500X0.350000X-0.062500X0.350000X-0.062500X-0.350000X0*%
%ADD53RoundRect,0.062500X0.350000X-0.062500X0.350000X0.062500X-0.350000X0.062500X-0.350000X-0.062500X0*%
%ADD54RoundRect,0.147500X-0.147500X-0.172500X0.147500X-0.172500X0.147500X0.172500X-0.147500X0.172500X0*%
%ADD55R,1.000000X2.100000*%
%ADD56RoundRect,0.227500X0.227500X0.227500X-0.227500X0.227500X-0.227500X-0.227500X0.227500X-0.227500X0*%
%ADD57RoundRect,0.075000X0.350000X0.075000X-0.350000X0.075000X-0.350000X-0.075000X0.350000X-0.075000X0*%
%ADD58RoundRect,0.075000X0.075000X0.350000X-0.075000X0.350000X-0.075000X-0.350000X0.075000X-0.350000X0*%
%ADD59R,1.400000X0.760000*%
%ADD60RoundRect,0.250000X0.425000X-0.450000X0.425000X0.450000X-0.425000X0.450000X-0.425000X-0.450000X0*%
%ADD61RoundRect,0.150000X-0.512500X-0.150000X0.512500X-0.150000X0.512500X0.150000X-0.512500X0.150000X0*%
%ADD62RoundRect,0.132500X-0.132500X-0.132500X0.132500X-0.132500X0.132500X0.132500X-0.132500X0.132500X0*%
%ADD63R,0.510000X0.250000*%
%ADD64R,0.250000X0.510000*%
%ADD65RoundRect,0.250000X0.255000X0.255000X-0.255000X0.255000X-0.255000X-0.255000X0.255000X-0.255000X0*%
%ADD66RoundRect,0.062500X0.350000X0.062500X-0.350000X0.062500X-0.350000X-0.062500X0.350000X-0.062500X0*%
%ADD67RoundRect,0.062500X0.062500X0.350000X-0.062500X0.350000X-0.062500X-0.350000X0.062500X-0.350000X0*%
%ADD68RoundRect,0.075000X-0.662500X-0.075000X0.662500X-0.075000X0.662500X0.075000X-0.662500X0.075000X0*%
%ADD69RoundRect,0.075000X-0.075000X-0.662500X0.075000X-0.662500X0.075000X0.662500X-0.075000X0.662500X0*%
%ADD70RoundRect,0.150000X0.150000X-0.200000X0.150000X0.200000X-0.150000X0.200000X-0.150000X-0.200000X0*%
%ADD71RoundRect,0.175000X0.325000X-0.175000X0.325000X0.175000X-0.325000X0.175000X-0.325000X-0.175000X0*%
%ADD72RoundRect,0.132500X0.132500X0.132500X-0.132500X0.132500X-0.132500X-0.132500X0.132500X-0.132500X0*%
%ADD73RoundRect,0.250000X0.350000X-0.850000X0.350000X0.850000X-0.350000X0.850000X-0.350000X-0.850000X0*%
%ADD74RoundRect,0.250000X1.125000X-1.275000X1.125000X1.275000X-1.125000X1.275000X-1.125000X-1.275000X0*%
G04 APERTURE END LIST*
D10*
%TO.C,R66*%
X144208000Y-64643000D03*
X142558000Y-64643000D03*
%TD*%
D11*
%TO.C,C97*%
X146939000Y-97691000D03*
X146939000Y-98651000D03*
%TD*%
%TO.C,C96*%
X145923000Y-97691000D03*
X145923000Y-98651000D03*
%TD*%
D12*
%TO.C,L17*%
X82753200Y-57173000D03*
X82753200Y-58143000D03*
%TD*%
D13*
%TO.C,L9*%
X83970000Y-114277000D03*
X83970000Y-113307000D03*
%TD*%
D14*
%TO.C,C95*%
X103681400Y-58216800D03*
X104641400Y-58216800D03*
%TD*%
%TO.C,C94*%
X103681400Y-59283600D03*
X104641400Y-59283600D03*
%TD*%
D15*
%TO.C,C93*%
X109555200Y-60198000D03*
X110515200Y-60198000D03*
%TD*%
%TO.C,C92*%
X109555200Y-61214000D03*
X110515200Y-61214000D03*
%TD*%
D16*
%TO.C,L16*%
X177978000Y-93091000D03*
X176403000Y-93091000D03*
%TD*%
D17*
%TO.C,C9*%
X136525000Y-54963000D03*
X136525000Y-54003000D03*
%TD*%
D18*
%TO.C,R33*%
X76035400Y-110490000D03*
X77685400Y-110490000D03*
%TD*%
D11*
%TO.C,C43*%
X177800000Y-102644000D03*
X177800000Y-103604000D03*
%TD*%
D15*
%TO.C,C70*%
X71600000Y-114300000D03*
X70640000Y-114300000D03*
%TD*%
D11*
%TO.C,C37*%
X143383000Y-110137000D03*
X143383000Y-111097000D03*
%TD*%
D19*
%TO.C,R24*%
X177292000Y-116523000D03*
X177292000Y-118173000D03*
%TD*%
D15*
%TO.C,C60*%
X86713000Y-114300000D03*
X85753000Y-114300000D03*
%TD*%
D13*
%TO.C,L10*%
X78613000Y-116055000D03*
X78613000Y-115085000D03*
%TD*%
D18*
%TO.C,R13*%
X130910000Y-80810000D03*
X132560000Y-80810000D03*
%TD*%
D20*
%TO.C,U15*%
X107244000Y-57471000D03*
X108394000Y-57471000D03*
X107244000Y-56321000D03*
X108394000Y-56321000D03*
D21*
X106569000Y-58833500D03*
X107069000Y-58833500D03*
X107569000Y-58833500D03*
X108069000Y-58833500D03*
X108569000Y-58833500D03*
X109069000Y-58833500D03*
D22*
X109756500Y-58146000D03*
X109756500Y-57646000D03*
X109756500Y-57146000D03*
X109756500Y-56646000D03*
X109756500Y-56146000D03*
X109756500Y-55646000D03*
D21*
X109069000Y-54958500D03*
X108569000Y-54958500D03*
X108069000Y-54958500D03*
X107569000Y-54958500D03*
X107069000Y-54958500D03*
X106569000Y-54958500D03*
D22*
X105881500Y-55646000D03*
X105881500Y-56146000D03*
X105881500Y-56646000D03*
X105881500Y-57146000D03*
X105881500Y-57646000D03*
X105881500Y-58146000D03*
%TD*%
D10*
%TO.C,R45*%
X112713000Y-60452000D03*
X114363000Y-60452000D03*
%TD*%
%TO.C,R19*%
X174689000Y-101092000D03*
X176339000Y-101092000D03*
%TD*%
D17*
%TO.C,C11*%
X131863600Y-57198200D03*
X131863600Y-56238200D03*
%TD*%
D10*
%TO.C,R29*%
X110045000Y-110363000D03*
X108395000Y-110363000D03*
%TD*%
D23*
%TO.C,C22*%
X132599600Y-50977800D03*
X134149600Y-50977800D03*
%TD*%
D14*
%TO.C,C53*%
X102216300Y-109511600D03*
X103176300Y-109511600D03*
%TD*%
D15*
%TO.C,C30*%
X126450800Y-56515000D03*
X125490800Y-56515000D03*
%TD*%
D18*
%TO.C,R59*%
X78423000Y-59309000D03*
X80073000Y-59309000D03*
%TD*%
D15*
%TO.C,C74*%
X104576800Y-70863600D03*
X105536800Y-70863600D03*
%TD*%
%TO.C,C79*%
X102080000Y-56388000D03*
X101120000Y-56388000D03*
%TD*%
D24*
%TO.C,L8*%
X124169800Y-63322200D03*
X123199800Y-63322200D03*
%TD*%
D13*
%TO.C,L12*%
X108306400Y-53367800D03*
X108306400Y-52397800D03*
%TD*%
D14*
%TO.C,C86*%
X72291000Y-67056000D03*
X73251000Y-67056000D03*
%TD*%
D15*
%TO.C,C66*%
X80617000Y-104775000D03*
X79657000Y-104775000D03*
%TD*%
D25*
%TO.C,R39*%
X106987200Y-63993400D03*
X106987200Y-65643400D03*
%TD*%
D24*
%TO.C,L3*%
X130598600Y-61290200D03*
X129628600Y-61290200D03*
%TD*%
D25*
%TO.C,R50*%
X105281400Y-45960800D03*
X105281400Y-44310800D03*
%TD*%
D15*
%TO.C,C33*%
X126349200Y-63271400D03*
X125389200Y-63271400D03*
%TD*%
D17*
%TO.C,C63*%
X75996800Y-109293600D03*
X75996800Y-108333600D03*
%TD*%
D26*
%TO.C,X1*%
X152840000Y-57531000D03*
X150690000Y-57531000D03*
X150690000Y-59081000D03*
X152840000Y-59081000D03*
%TD*%
D15*
%TO.C,C19*%
X142339000Y-56642000D03*
X141379000Y-56642000D03*
%TD*%
D10*
%TO.C,R20*%
X180657000Y-106172000D03*
X179007000Y-106172000D03*
%TD*%
D27*
%TO.C,U8*%
X92931000Y-116766000D03*
X92931000Y-115566000D03*
X92931000Y-114366000D03*
X91731000Y-116766000D03*
X91731000Y-115566000D03*
X91731000Y-114366000D03*
X90531000Y-116766000D03*
X90531000Y-115566000D03*
X90531000Y-114366000D03*
D28*
X94181000Y-117316000D03*
X94181000Y-116816000D03*
X94181000Y-116316000D03*
X94181000Y-115816000D03*
X94181000Y-115316000D03*
X94181000Y-114816000D03*
X94181000Y-114316000D03*
X94181000Y-113816000D03*
D29*
X93481000Y-113116000D03*
X92981000Y-113116000D03*
X92481000Y-113116000D03*
X91981000Y-113116000D03*
X91481000Y-113116000D03*
X90981000Y-113116000D03*
X90481000Y-113116000D03*
X89981000Y-113116000D03*
D28*
X89281000Y-113816000D03*
X89281000Y-114316000D03*
X89281000Y-114816000D03*
X89281000Y-115316000D03*
X89281000Y-115816000D03*
X89281000Y-116316000D03*
X89281000Y-116816000D03*
X89281000Y-117316000D03*
D29*
X89981000Y-118016000D03*
X90481000Y-118016000D03*
X90981000Y-118016000D03*
X91481000Y-118016000D03*
X91981000Y-118016000D03*
X92481000Y-118016000D03*
X92981000Y-118016000D03*
X93481000Y-118016000D03*
%TD*%
D15*
%TO.C,C62*%
X77569000Y-117602000D03*
X76609000Y-117602000D03*
%TD*%
D14*
%TO.C,C87*%
X72291000Y-66040000D03*
X73251000Y-66040000D03*
%TD*%
D19*
%TO.C,R49*%
X110238400Y-68742200D03*
X110238400Y-67092200D03*
%TD*%
D17*
%TO.C,C1*%
X154432000Y-59040000D03*
X154432000Y-58080000D03*
%TD*%
D19*
%TO.C,R23*%
X180848000Y-116523000D03*
X180848000Y-118173000D03*
%TD*%
D30*
%TO.C,D8*%
X180953500Y-94257500D03*
X180953500Y-97557500D03*
%TD*%
D13*
%TO.C,L14*%
X107209400Y-53367800D03*
X107209400Y-52397800D03*
%TD*%
D31*
%TO.C,C49*%
X157988000Y-85483000D03*
X157988000Y-88183000D03*
%TD*%
D32*
%TO.C,U14*%
X108902400Y-75084700D03*
X108252400Y-75084700D03*
X107602400Y-75084700D03*
X106952400Y-75084700D03*
X106952400Y-70859700D03*
X107602400Y-70859700D03*
X108252400Y-70859700D03*
X108902400Y-70859700D03*
%TD*%
D33*
%TO.C,C50*%
X150321000Y-75057000D03*
X147621000Y-75057000D03*
%TD*%
D34*
%TO.C,U1*%
X137388000Y-58966200D03*
X135788000Y-58966200D03*
X137388000Y-60566200D03*
X135788000Y-60566200D03*
D35*
X138338000Y-57366200D03*
X137838000Y-57366200D03*
X137338000Y-57366200D03*
X136838000Y-57366200D03*
X136338000Y-57366200D03*
X135838000Y-57366200D03*
X135338000Y-57366200D03*
X134838000Y-57366200D03*
D36*
X134188000Y-58016200D03*
X134188000Y-58516200D03*
X134188000Y-59016200D03*
X134188000Y-59516200D03*
X134188000Y-60016200D03*
X134188000Y-60516200D03*
X134188000Y-61016200D03*
X134188000Y-61516200D03*
D35*
X134838000Y-62166200D03*
X135338000Y-62166200D03*
X135838000Y-62166200D03*
X136338000Y-62166200D03*
X136838000Y-62166200D03*
X137338000Y-62166200D03*
X137838000Y-62166200D03*
X138338000Y-62166200D03*
D36*
X138988000Y-61516200D03*
X138988000Y-61016200D03*
X138988000Y-60516200D03*
X138988000Y-60016200D03*
X138988000Y-59516200D03*
X138988000Y-59016200D03*
X138988000Y-58516200D03*
X138988000Y-58016200D03*
%TD*%
D10*
%TO.C,R58*%
X109406000Y-32639000D03*
X107756000Y-32639000D03*
%TD*%
D14*
%TO.C,C89*%
X79657000Y-67056000D03*
X80617000Y-67056000D03*
%TD*%
D11*
%TO.C,C39*%
X134180000Y-82730000D03*
X134180000Y-83690000D03*
%TD*%
D17*
%TO.C,C10*%
X135382000Y-55598000D03*
X135382000Y-54638000D03*
%TD*%
D15*
%TO.C,C31*%
X126450800Y-57531000D03*
X125490800Y-57531000D03*
%TD*%
D18*
%TO.C,R35*%
X71120000Y-106553000D03*
X72770000Y-106553000D03*
%TD*%
%TO.C,R63*%
X71057000Y-64643000D03*
X72707000Y-64643000D03*
%TD*%
D10*
%TO.C,R32*%
X82994000Y-117729000D03*
X81344000Y-117729000D03*
%TD*%
D14*
%TO.C,C8*%
X142435200Y-59207400D03*
X143395200Y-59207400D03*
%TD*%
D11*
%TO.C,C46*%
X166271000Y-103533000D03*
X166271000Y-104493000D03*
%TD*%
D18*
%TO.C,R55*%
X107756000Y-35991800D03*
X109406000Y-35991800D03*
%TD*%
D14*
%TO.C,C73*%
X111277200Y-75080000D03*
X110317200Y-75080000D03*
%TD*%
D12*
%TO.C,L11*%
X107264200Y-61341000D03*
X107264200Y-60371000D03*
%TD*%
D17*
%TO.C,C2*%
X135114800Y-66189800D03*
X135114800Y-65229800D03*
%TD*%
D25*
%TO.C,R43*%
X106987200Y-67092200D03*
X106987200Y-68742200D03*
%TD*%
D12*
%TO.C,L13*%
X108331000Y-61341000D03*
X108331000Y-60371000D03*
%TD*%
D18*
%TO.C,R4*%
X138621000Y-66929000D03*
X140271000Y-66929000D03*
%TD*%
D19*
%TO.C,R48*%
X108647400Y-44310800D03*
X108647400Y-45960800D03*
%TD*%
D37*
%TO.C,U9*%
X83814500Y-121473000D03*
X83814500Y-120523000D03*
X83814500Y-119573000D03*
X81539500Y-119573000D03*
X81539500Y-121473000D03*
%TD*%
D38*
%TO.C,U20*%
X75884000Y-65220000D03*
X75884000Y-66270000D03*
X76934000Y-65220000D03*
X76934000Y-66270000D03*
D39*
X74459000Y-64770000D03*
X74459000Y-65420000D03*
X74459000Y-66070000D03*
X74459000Y-66720000D03*
D40*
X75434000Y-67695000D03*
X76084000Y-67695000D03*
X76734000Y-67695000D03*
X77384000Y-67695000D03*
D39*
X78359000Y-66720000D03*
X78359000Y-66070000D03*
X78359000Y-65420000D03*
X78359000Y-64770000D03*
D40*
X77384000Y-63795000D03*
X76734000Y-63795000D03*
X76084000Y-63795000D03*
X75434000Y-63795000D03*
%TD*%
D10*
%TO.C,R2*%
X148145000Y-61849000D03*
X146495000Y-61849000D03*
%TD*%
D41*
%TO.C,U19*%
X76543000Y-57166000D03*
X76543000Y-57666000D03*
X76543000Y-58166000D03*
X77343000Y-58166000D03*
X77343000Y-57666000D03*
X77343000Y-57166000D03*
%TD*%
D25*
%TO.C,R17*%
X140843000Y-97091000D03*
X140843000Y-95441000D03*
%TD*%
D11*
%TO.C,C47*%
X179324000Y-92230000D03*
X179324000Y-93190000D03*
%TD*%
D18*
%TO.C,R5*%
X129413000Y-47726600D03*
X131063000Y-47726600D03*
%TD*%
D15*
%TO.C,C85*%
X71600000Y-57150000D03*
X70640000Y-57150000D03*
%TD*%
%TO.C,C36*%
X153388000Y-105664000D03*
X152428000Y-105664000D03*
%TD*%
D42*
%TO.C,J5*%
X65659000Y-117125000D03*
X65659000Y-111475000D03*
D43*
X65459000Y-114300000D03*
%TD*%
D44*
%TO.C,D5*%
X173736000Y-122349500D03*
X173736000Y-120474500D03*
%TD*%
D18*
%TO.C,R14*%
X130975000Y-82690000D03*
X132625000Y-82690000D03*
%TD*%
D19*
%TO.C,R12*%
X170180000Y-116523000D03*
X170180000Y-118173000D03*
%TD*%
D24*
%TO.C,L7*%
X124169800Y-62204600D03*
X123199800Y-62204600D03*
%TD*%
D15*
%TO.C,C81*%
X89623000Y-52705000D03*
X88663000Y-52705000D03*
%TD*%
%TO.C,C76*%
X110381800Y-53644800D03*
X109421800Y-53644800D03*
%TD*%
%TO.C,C35*%
X153388000Y-106680000D03*
X152428000Y-106680000D03*
%TD*%
D17*
%TO.C,C12*%
X133032000Y-58315800D03*
X133032000Y-57355800D03*
%TD*%
D11*
%TO.C,C28*%
X129453200Y-64826000D03*
X129453200Y-65786000D03*
%TD*%
D44*
%TO.C,D3*%
X170180000Y-122349500D03*
X170180000Y-120474500D03*
%TD*%
D10*
%TO.C,R30*%
X95979600Y-120280800D03*
X94329600Y-120280800D03*
%TD*%
D14*
%TO.C,C56*%
X104959500Y-110527600D03*
X105919500Y-110527600D03*
%TD*%
%TO.C,C71*%
X110874600Y-42240200D03*
X111834600Y-42240200D03*
%TD*%
D18*
%TO.C,R9*%
X142558000Y-66675000D03*
X144208000Y-66675000D03*
%TD*%
D45*
%TO.C,SW1*%
X160863000Y-123063000D03*
X155113000Y-123063000D03*
X160863000Y-119063000D03*
X155113000Y-119063000D03*
%TD*%
D14*
%TO.C,C90*%
X79657000Y-66040000D03*
X80617000Y-66040000D03*
%TD*%
D11*
%TO.C,C14*%
X133032000Y-61927800D03*
X133032000Y-62887800D03*
%TD*%
D43*
%TO.C,J8*%
X65459000Y-57150000D03*
D42*
X65659000Y-54325000D03*
X65659000Y-59975000D03*
%TD*%
D46*
%TO.C,U3*%
X136720000Y-79330000D03*
X136720000Y-79830000D03*
X136720000Y-80330000D03*
X136720000Y-80830000D03*
X136720000Y-81330000D03*
X141120000Y-81330000D03*
X141120000Y-80830000D03*
X141120000Y-80330000D03*
X141120000Y-79830000D03*
X141120000Y-79330000D03*
%TD*%
D14*
%TO.C,C55*%
X104959500Y-109460800D03*
X105919500Y-109460800D03*
%TD*%
D10*
%TO.C,R54*%
X109406000Y-34340800D03*
X107756000Y-34340800D03*
%TD*%
%TO.C,R1*%
X148145000Y-59055000D03*
X146495000Y-59055000D03*
%TD*%
D12*
%TO.C,L15*%
X88658000Y-55418000D03*
X88658000Y-56388000D03*
%TD*%
D17*
%TO.C,C5*%
X137908800Y-64310200D03*
X137908800Y-63350200D03*
%TD*%
D25*
%TO.C,R15*%
X144272000Y-97091000D03*
X144272000Y-95441000D03*
%TD*%
D17*
%TO.C,C40*%
X134120000Y-80820000D03*
X134120000Y-79860000D03*
%TD*%
D47*
%TO.C,U18*%
X78458000Y-57150000D03*
D48*
X78608000Y-57150000D03*
X80708000Y-57150000D03*
D47*
X80858000Y-57150000D03*
D49*
X79658000Y-57010000D03*
D50*
X79658000Y-55950000D03*
%TD*%
D15*
%TO.C,C78*%
X108260000Y-50850800D03*
X107300000Y-50850800D03*
%TD*%
D13*
%TO.C,L1*%
X130570800Y-57254000D03*
X130570800Y-56284000D03*
%TD*%
D15*
%TO.C,C69*%
X73124000Y-104775000D03*
X72164000Y-104775000D03*
%TD*%
D19*
%TO.C,R47*%
X106996400Y-44310800D03*
X106996400Y-45960800D03*
%TD*%
%TO.C,R46*%
X105361600Y-68742200D03*
X105361600Y-67092200D03*
%TD*%
D51*
%TO.C,U4*%
X169487300Y-102822200D03*
X170737300Y-102822200D03*
X169487300Y-101572200D03*
X170737300Y-101572200D03*
D52*
X169112300Y-104134700D03*
X169612300Y-104134700D03*
X170112300Y-104134700D03*
X170612300Y-104134700D03*
X171112300Y-104134700D03*
D53*
X172049800Y-103197200D03*
X172049800Y-102697200D03*
X172049800Y-102197200D03*
X172049800Y-101697200D03*
X172049800Y-101197200D03*
D52*
X171112300Y-100259700D03*
X170612300Y-100259700D03*
X170112300Y-100259700D03*
X169612300Y-100259700D03*
X169112300Y-100259700D03*
D53*
X168174800Y-101197200D03*
X168174800Y-101697200D03*
X168174800Y-102197200D03*
X168174800Y-102697200D03*
X168174800Y-103197200D03*
%TD*%
D18*
%TO.C,R6*%
X129400800Y-50977800D03*
X131050800Y-50977800D03*
%TD*%
D10*
%TO.C,R28*%
X107077300Y-118757200D03*
X105427300Y-118757200D03*
%TD*%
D18*
%TO.C,R57*%
X83757000Y-53213000D03*
X85407000Y-53213000D03*
%TD*%
D11*
%TO.C,C34*%
X147927000Y-97691000D03*
X147927000Y-98651000D03*
%TD*%
D18*
%TO.C,R36*%
X80010000Y-107950000D03*
X81660000Y-107950000D03*
%TD*%
%TO.C,R61*%
X80201000Y-64643000D03*
X81851000Y-64643000D03*
%TD*%
D14*
%TO.C,C54*%
X102216300Y-110578400D03*
X103176300Y-110578400D03*
%TD*%
D15*
%TO.C,C57*%
X98298000Y-114337200D03*
X97338000Y-114337200D03*
%TD*%
D10*
%TO.C,R18*%
X176339000Y-102616000D03*
X174689000Y-102616000D03*
%TD*%
D17*
%TO.C,C15*%
X133477000Y-65377000D03*
X133477000Y-64417000D03*
%TD*%
D54*
%TO.C,L2*%
X129623400Y-58953400D03*
X130593400Y-58953400D03*
%TD*%
D18*
%TO.C,R53*%
X109260000Y-77213600D03*
X107610000Y-77213600D03*
%TD*%
D25*
%TO.C,R44*%
X108612800Y-67092200D03*
X108612800Y-68742200D03*
%TD*%
D17*
%TO.C,C3*%
X135763000Y-64310200D03*
X135763000Y-63350200D03*
%TD*%
D10*
%TO.C,R7*%
X131063000Y-52654200D03*
X129413000Y-52654200D03*
%TD*%
D25*
%TO.C,R26*%
X103102700Y-107644200D03*
X103102700Y-105994200D03*
%TD*%
D18*
%TO.C,R64*%
X80201000Y-62992000D03*
X81851000Y-62992000D03*
%TD*%
D25*
%TO.C,R16*%
X142621000Y-97091000D03*
X142621000Y-95441000D03*
%TD*%
D31*
%TO.C,C51*%
X169799000Y-85518000D03*
X169799000Y-88218000D03*
%TD*%
D15*
%TO.C,C32*%
X126349200Y-62153800D03*
X125389200Y-62153800D03*
%TD*%
D31*
%TO.C,C48*%
X174244000Y-93138000D03*
X174244000Y-95838000D03*
%TD*%
D24*
%TO.C,L6*%
X124373000Y-57531000D03*
X123403000Y-57531000D03*
%TD*%
D32*
%TO.C,U13*%
X109345400Y-37989800D03*
X108695400Y-37989800D03*
X108045400Y-37989800D03*
X107395400Y-37989800D03*
X107395400Y-42214800D03*
X108045400Y-42214800D03*
X108695400Y-42214800D03*
X109345400Y-42214800D03*
%TD*%
D25*
%TO.C,R52*%
X110425400Y-45960800D03*
X110425400Y-44310800D03*
%TD*%
D15*
%TO.C,C77*%
X107320000Y-62634000D03*
X108280000Y-62634000D03*
%TD*%
D55*
%TO.C,U6*%
X167259000Y-82931000D03*
X169799000Y-82931000D03*
X174879000Y-82931000D03*
X174879000Y-72771000D03*
X167259000Y-72771000D03*
%TD*%
D19*
%TO.C,R11*%
X166624000Y-116523000D03*
X166624000Y-118173000D03*
%TD*%
D15*
%TO.C,C65*%
X80617000Y-103759000D03*
X79657000Y-103759000D03*
%TD*%
D56*
%TO.C,U12*%
X76947800Y-105690800D03*
X76947800Y-104640800D03*
X75897800Y-105690800D03*
X75897800Y-104640800D03*
D57*
X78372800Y-106140800D03*
X78372800Y-105490800D03*
X78372800Y-104840800D03*
X78372800Y-104190800D03*
D58*
X77397800Y-103215800D03*
X76747800Y-103215800D03*
X76097800Y-103215800D03*
X75447800Y-103215800D03*
D57*
X74472800Y-104190800D03*
X74472800Y-104840800D03*
X74472800Y-105490800D03*
X74472800Y-106140800D03*
D58*
X75447800Y-107115800D03*
X76097800Y-107115800D03*
X76747800Y-107115800D03*
X77397800Y-107115800D03*
%TD*%
D11*
%TO.C,C83*%
X76708000Y-61369000D03*
X76708000Y-62329000D03*
%TD*%
D19*
%TO.C,R42*%
X106996400Y-47485800D03*
X106996400Y-49135800D03*
%TD*%
D15*
%TO.C,C41*%
X143736000Y-80391000D03*
X142776000Y-80391000D03*
%TD*%
D10*
%TO.C,R21*%
X180657000Y-108204000D03*
X179007000Y-108204000D03*
%TD*%
D15*
%TO.C,C26*%
X128658000Y-58953400D03*
X127698000Y-58953400D03*
%TD*%
D17*
%TO.C,C24*%
X130593600Y-55267800D03*
X130593600Y-54307800D03*
%TD*%
D11*
%TO.C,C29*%
X130542800Y-64823400D03*
X130542800Y-65783400D03*
%TD*%
D15*
%TO.C,C82*%
X89623000Y-53749000D03*
X88663000Y-53749000D03*
%TD*%
D14*
%TO.C,C64*%
X76990000Y-108356400D03*
X77950000Y-108356400D03*
%TD*%
D44*
%TO.C,D6*%
X180848000Y-122349500D03*
X180848000Y-120474500D03*
%TD*%
D11*
%TO.C,C38*%
X144399000Y-110137000D03*
X144399000Y-111097000D03*
%TD*%
D24*
%TO.C,L5*%
X124373000Y-56515000D03*
X123403000Y-56515000D03*
%TD*%
D10*
%TO.C,R27*%
X110045000Y-112014000D03*
X108395000Y-112014000D03*
%TD*%
D59*
%TO.C,TR1*%
X98362000Y-58166000D03*
X98362000Y-55626000D03*
X94932000Y-55626000D03*
X94932000Y-56896000D03*
X94932000Y-58166000D03*
%TD*%
D10*
%TO.C,R37*%
X81660000Y-106299000D03*
X80010000Y-106299000D03*
%TD*%
D60*
%TO.C,C52*%
X174879000Y-88345000D03*
X174879000Y-85645000D03*
%TD*%
D15*
%TO.C,C4*%
X138331000Y-65278000D03*
X139291000Y-65278000D03*
%TD*%
%TO.C,C80*%
X102080000Y-57404000D03*
X101120000Y-57404000D03*
%TD*%
D17*
%TO.C,C25*%
X129453200Y-55267800D03*
X129453200Y-54307800D03*
%TD*%
D43*
%TO.C,J1*%
X188577500Y-50800000D03*
D42*
X188377500Y-53625000D03*
X188377500Y-47975000D03*
%TD*%
D61*
%TO.C,U17*%
X83058000Y-49154000D03*
X83058000Y-50104000D03*
X83058000Y-51054000D03*
X85333000Y-51054000D03*
X85333000Y-49154000D03*
%TD*%
D11*
%TO.C,C44*%
X171704000Y-97917000D03*
X171704000Y-98877000D03*
%TD*%
D17*
%TO.C,C16*%
X134454400Y-64259400D03*
X134454400Y-63299400D03*
%TD*%
D10*
%TO.C,R56*%
X107610000Y-80642600D03*
X109260000Y-80642600D03*
%TD*%
D19*
%TO.C,R65*%
X104212200Y-53226200D03*
X104212200Y-54876200D03*
%TD*%
D25*
%TO.C,R31*%
X97948600Y-118667400D03*
X97948600Y-117017400D03*
%TD*%
D23*
%TO.C,C23*%
X129450000Y-49301400D03*
X131000000Y-49301400D03*
%TD*%
D17*
%TO.C,C6*%
X139940800Y-64310200D03*
X139940800Y-63350200D03*
%TD*%
%TO.C,C42*%
X177800000Y-101092000D03*
X177800000Y-100132000D03*
%TD*%
D25*
%TO.C,R40*%
X108646400Y-49135800D03*
X108646400Y-47485800D03*
%TD*%
D10*
%TO.C,R62*%
X72707000Y-62992000D03*
X71057000Y-62992000D03*
%TD*%
D13*
%TO.C,L4*%
X130542800Y-63807200D03*
X130542800Y-62837200D03*
%TD*%
D42*
%TO.C,J2*%
X65659000Y-98075000D03*
X65659000Y-92425000D03*
D43*
X65459000Y-95250000D03*
%TD*%
D15*
%TO.C,C20*%
X141323000Y-57785000D03*
X140363000Y-57785000D03*
%TD*%
D62*
%TO.C,U16*%
X85563000Y-56815000D03*
X85563000Y-57485000D03*
X86233000Y-56815000D03*
X86233000Y-57485000D03*
D63*
X84543000Y-56650000D03*
X84543000Y-57150000D03*
X84543000Y-57650000D03*
D64*
X85398000Y-58505000D03*
X85898000Y-58505000D03*
X86398000Y-58505000D03*
D63*
X87253000Y-57650000D03*
X87253000Y-57150000D03*
X87253000Y-56650000D03*
D64*
X86398000Y-55795000D03*
X85898000Y-55795000D03*
X85398000Y-55795000D03*
%TD*%
D15*
%TO.C,C59*%
X95385800Y-116826400D03*
X96345800Y-116826400D03*
%TD*%
D44*
%TO.C,D1*%
X148209000Y-67993500D03*
X148209000Y-66118500D03*
%TD*%
D19*
%TO.C,R41*%
X108612800Y-65643400D03*
X108612800Y-63993400D03*
%TD*%
D10*
%TO.C,R8*%
X134200400Y-49301400D03*
X132550400Y-49301400D03*
%TD*%
D43*
%TO.C,J7*%
X65459000Y-76200000D03*
D42*
X65659000Y-73375000D03*
X65659000Y-79025000D03*
%TD*%
D10*
%TO.C,R38*%
X72770000Y-108077000D03*
X71120000Y-108077000D03*
%TD*%
D65*
%TO.C,U7*%
X104368000Y-114425000D03*
X104368000Y-113175000D03*
X103118000Y-114425000D03*
X103118000Y-113175000D03*
D66*
X105680500Y-114800000D03*
X105680500Y-114300000D03*
X105680500Y-113800000D03*
X105680500Y-113300000D03*
X105680500Y-112800000D03*
D67*
X104743000Y-111862500D03*
X104243000Y-111862500D03*
X103743000Y-111862500D03*
X103243000Y-111862500D03*
X102743000Y-111862500D03*
D66*
X101805500Y-112800000D03*
X101805500Y-113300000D03*
X101805500Y-113800000D03*
X101805500Y-114300000D03*
X101805500Y-114800000D03*
D67*
X102743000Y-115737500D03*
X103243000Y-115737500D03*
X103743000Y-115737500D03*
X104243000Y-115737500D03*
X104743000Y-115737500D03*
%TD*%
D23*
%TO.C,C21*%
X132612600Y-52603400D03*
X134162600Y-52603400D03*
%TD*%
D15*
%TO.C,C72*%
X105891000Y-37973000D03*
X104931000Y-37973000D03*
%TD*%
D19*
%TO.C,R10*%
X149479000Y-95568000D03*
X149479000Y-97218000D03*
%TD*%
D15*
%TO.C,C58*%
X96345800Y-117842400D03*
X95385800Y-117842400D03*
%TD*%
D25*
%TO.C,R25*%
X104779100Y-107644200D03*
X104779100Y-105994200D03*
%TD*%
%TO.C,R3*%
X138264400Y-54546000D03*
X138264400Y-52896000D03*
%TD*%
D17*
%TO.C,C67*%
X77400000Y-102030000D03*
X77400000Y-101070000D03*
%TD*%
D18*
%TO.C,R60*%
X77979000Y-61214000D03*
X79629000Y-61214000D03*
%TD*%
D15*
%TO.C,C75*%
X110381800Y-52628800D03*
X109421800Y-52628800D03*
%TD*%
D68*
%TO.C,U2*%
X142519500Y-101668000D03*
X142519500Y-102168000D03*
X142519500Y-102668000D03*
X142519500Y-103168000D03*
X142519500Y-103668000D03*
X142519500Y-104168000D03*
X142519500Y-104668000D03*
X142519500Y-105168000D03*
X142519500Y-105668000D03*
X142519500Y-106168000D03*
X142519500Y-106668000D03*
X142519500Y-107168000D03*
D69*
X143932000Y-108580500D03*
X144432000Y-108580500D03*
X144932000Y-108580500D03*
X145432000Y-108580500D03*
X145932000Y-108580500D03*
X146432000Y-108580500D03*
X146932000Y-108580500D03*
X147432000Y-108580500D03*
X147932000Y-108580500D03*
X148432000Y-108580500D03*
X148932000Y-108580500D03*
X149432000Y-108580500D03*
D68*
X150844500Y-107168000D03*
X150844500Y-106668000D03*
X150844500Y-106168000D03*
X150844500Y-105668000D03*
X150844500Y-105168000D03*
X150844500Y-104668000D03*
X150844500Y-104168000D03*
X150844500Y-103668000D03*
X150844500Y-103168000D03*
X150844500Y-102668000D03*
X150844500Y-102168000D03*
X150844500Y-101668000D03*
D69*
X149432000Y-100255500D03*
X148932000Y-100255500D03*
X148432000Y-100255500D03*
X147932000Y-100255500D03*
X147432000Y-100255500D03*
X146932000Y-100255500D03*
X146432000Y-100255500D03*
X145932000Y-100255500D03*
X145432000Y-100255500D03*
X144932000Y-100255500D03*
X144432000Y-100255500D03*
X143932000Y-100255500D03*
%TD*%
D18*
%TO.C,R34*%
X71869800Y-111760000D03*
X73519800Y-111760000D03*
%TD*%
D41*
%TO.C,U11*%
X74428900Y-114300000D03*
X74428900Y-113800000D03*
X74428900Y-113300000D03*
X73628900Y-113300000D03*
X73628900Y-113800000D03*
X73628900Y-114300000D03*
%TD*%
D14*
%TO.C,C84*%
X74577000Y-62357000D03*
X75537000Y-62357000D03*
%TD*%
D44*
%TO.C,D7*%
X177292000Y-122349500D03*
X177292000Y-120474500D03*
%TD*%
D33*
%TO.C,C91*%
X150321000Y-77343000D03*
X147621000Y-77343000D03*
%TD*%
D43*
%TO.C,J6*%
X65459000Y-38100000D03*
D42*
X65659000Y-35275000D03*
X65659000Y-40925000D03*
%TD*%
D70*
%TO.C,D4*%
X179629900Y-100828600D03*
X181529900Y-100828600D03*
X181529900Y-102828600D03*
D71*
X179829900Y-102828600D03*
%TD*%
D44*
%TO.C,D2*%
X166624000Y-122349500D03*
X166624000Y-120474500D03*
%TD*%
D15*
%TO.C,C68*%
X73124000Y-103632000D03*
X72164000Y-103632000D03*
%TD*%
D19*
%TO.C,R22*%
X173736000Y-116523000D03*
X173736000Y-118173000D03*
%TD*%
D15*
%TO.C,C61*%
X77569000Y-116586000D03*
X76609000Y-116586000D03*
%TD*%
%TO.C,C17*%
X142300400Y-61239400D03*
X141340400Y-61239400D03*
%TD*%
D10*
%TO.C,R51*%
X107610000Y-78940800D03*
X109260000Y-78940800D03*
%TD*%
D17*
%TO.C,C7*%
X138924800Y-64310200D03*
X138924800Y-63350200D03*
%TD*%
D15*
%TO.C,C18*%
X141233600Y-60223400D03*
X140273600Y-60223400D03*
%TD*%
D11*
%TO.C,C13*%
X132016000Y-63045400D03*
X132016000Y-64005400D03*
%TD*%
D72*
%TO.C,U10*%
X81665800Y-114635000D03*
X81665800Y-113965000D03*
X80995800Y-114635000D03*
X80995800Y-113965000D03*
D63*
X82685800Y-114800000D03*
X82685800Y-114300000D03*
X82685800Y-113800000D03*
D64*
X81830800Y-112945000D03*
X81330800Y-112945000D03*
X80830800Y-112945000D03*
D63*
X79975800Y-113800000D03*
X79975800Y-114300000D03*
X79975800Y-114800000D03*
D64*
X80830800Y-115655000D03*
X81330800Y-115655000D03*
X81830800Y-115655000D03*
%TD*%
D11*
%TO.C,C45*%
X170600500Y-97945000D03*
X170600500Y-98905000D03*
%TD*%
%TO.C,C88*%
X75438000Y-68989000D03*
X75438000Y-69949000D03*
%TD*%
D15*
%TO.C,C27*%
X128663200Y-61290200D03*
X127703200Y-61290200D03*
%TD*%
D73*
%TO.C,U5*%
X153428000Y-82677000D03*
D74*
X154183000Y-78052000D03*
X157233000Y-78052000D03*
X154183000Y-74702000D03*
X157233000Y-74702000D03*
D73*
X157988000Y-82677000D03*
%TD*%
M02*
