%TF.GenerationSoftware,KiCad,Pcbnew,8.0.0*%
%TF.CreationDate,2024-03-17T22:04:36-04:00*%
%TF.ProjectId,S-Band Transceiver,532d4261-6e64-4205-9472-616e73636569,v1.0*%
%TF.SameCoordinates,Original*%
%TF.FileFunction,Copper,L2,Inr*%
%TF.FilePolarity,Positive*%
%FSLAX46Y46*%
G04 Gerber Fmt 4.6, Leading zero omitted, Abs format (unit mm)*
G04 Created by KiCad (PCBNEW 8.0.0) date 2024-03-17 22:04:36*
%MOMM*%
%LPD*%
G01*
G04 APERTURE LIST*
G04 Aperture macros list*
%AMRoundRect*
0 Rectangle with rounded corners*
0 $1 Rounding radius*
0 $2 $3 $4 $5 $6 $7 $8 $9 X,Y pos of 4 corners*
0 Add a 4 corners polygon primitive as box body*
4,1,4,$2,$3,$4,$5,$6,$7,$8,$9,$2,$3,0*
0 Add four circle primitives for the rounded corners*
1,1,$1+$1,$2,$3*
1,1,$1+$1,$4,$5*
1,1,$1+$1,$6,$7*
1,1,$1+$1,$8,$9*
0 Add four rect primitives between the rounded corners*
20,1,$1+$1,$2,$3,$4,$5,0*
20,1,$1+$1,$4,$5,$6,$7,0*
20,1,$1+$1,$6,$7,$8,$9,0*
20,1,$1+$1,$8,$9,$2,$3,0*%
G04 Aperture macros list end*
%TA.AperFunction,ComponentPad*%
%ADD10C,5.562600*%
%TD*%
%TA.AperFunction,HeatsinkPad*%
%ADD11C,0.600000*%
%TD*%
%TA.AperFunction,ComponentPad*%
%ADD12C,0.700000*%
%TD*%
%TA.AperFunction,ComponentPad*%
%ADD13O,2.400000X0.900000*%
%TD*%
%TA.AperFunction,ComponentPad*%
%ADD14O,1.700000X0.900000*%
%TD*%
%TA.AperFunction,ComponentPad*%
%ADD15RoundRect,0.250000X0.600000X-0.600000X0.600000X0.600000X-0.600000X0.600000X-0.600000X-0.600000X0*%
%TD*%
%TA.AperFunction,ComponentPad*%
%ADD16C,1.700000*%
%TD*%
%TA.AperFunction,ViaPad*%
%ADD17C,0.800000*%
%TD*%
%TA.AperFunction,ViaPad*%
%ADD18C,0.600000*%
%TD*%
G04 APERTURE END LIST*
D10*
%TO.N,GND*%
%TO.C,H4*%
X186690000Y-123190000D03*
%TD*%
%TO.N,GND*%
%TO.C,H3*%
X67310000Y-123190000D03*
%TD*%
%TO.N,GND*%
%TO.C,H2*%
X186690000Y-29210000D03*
%TD*%
%TO.N,GND*%
%TO.C,H1*%
X67310000Y-29210000D03*
%TD*%
D11*
%TO.N,GND*%
%TO.C,U15*%
X106969000Y-57746000D03*
X107819000Y-57746000D03*
X108669000Y-57746000D03*
X106969000Y-56896000D03*
X107819000Y-56896000D03*
X108669000Y-56896000D03*
X106969000Y-56046000D03*
X107819000Y-56046000D03*
X108669000Y-56046000D03*
%TD*%
D12*
%TO.N,GND*%
%TO.C,J4*%
X184443000Y-104575000D03*
%TO.N,VBUS*%
X184443000Y-103725000D03*
%TO.N,Net-(J4-CC1)*%
X184443000Y-102875000D03*
%TO.N,USBDP*%
X184443000Y-102025000D03*
%TO.N,USBDM*%
X184443000Y-101175000D03*
%TO.N,unconnected-(J4-SBU1-PadA8)*%
X184443000Y-100325000D03*
%TO.N,VBUS*%
X184443000Y-99475000D03*
%TO.N,GND*%
X184443000Y-98625000D03*
X185793000Y-98625000D03*
%TO.N,VBUS*%
X185793000Y-99475000D03*
%TO.N,Net-(J4-CC2)*%
X185793000Y-100325000D03*
%TO.N,USBDP*%
X185793000Y-101175000D03*
%TO.N,USBDM*%
X185793000Y-102025000D03*
%TO.N,unconnected-(J4-SBU2-PadB8)*%
X185793000Y-102875000D03*
%TO.N,VBUS*%
X185793000Y-103725000D03*
%TO.N,GND*%
X185793000Y-104575000D03*
D13*
X185423000Y-105925000D03*
D14*
X188803000Y-105925000D03*
D13*
X185423000Y-97275000D03*
D14*
X188803000Y-97275000D03*
%TD*%
D15*
%TO.N,UPDI*%
%TO.C,J3*%
X139954000Y-121158000D03*
D16*
%TO.N,+3V3*%
X139954000Y-118618000D03*
%TO.N,unconnected-(J3-NC-Pad3)*%
X142494000Y-121158000D03*
%TO.N,unconnected-(J3-NC-Pad4)*%
X142494000Y-118618000D03*
%TO.N,unconnected-(J3-NC-Pad5)*%
X145034000Y-121158000D03*
%TO.N,GND*%
X145034000Y-118618000D03*
%TD*%
D11*
%TO.N,GND*%
%TO.C,U20*%
X75659000Y-64995000D03*
X75659000Y-65745000D03*
X75659000Y-66495000D03*
X76409000Y-64995000D03*
X76409000Y-65745000D03*
X76409000Y-66495000D03*
X77159000Y-64995000D03*
X77159000Y-65745000D03*
X77159000Y-66495000D03*
%TD*%
%TO.N,GND*%
%TO.C,U12*%
X77172800Y-105915800D03*
X77172800Y-105165800D03*
X77172800Y-104415800D03*
X76422800Y-105915800D03*
X76422800Y-105165800D03*
X76422800Y-104415800D03*
X75672800Y-105915800D03*
X75672800Y-105165800D03*
X75672800Y-104415800D03*
%TD*%
D17*
%TO.N,GND*%
X104394000Y-36576000D03*
X101981000Y-46736000D03*
X115697000Y-60452000D03*
X111887000Y-72771000D03*
X103251000Y-71882000D03*
X103632000Y-66167000D03*
X157988000Y-123063000D03*
X168275000Y-124333000D03*
X178943000Y-124333000D03*
X111125000Y-111125000D03*
X108331000Y-107061000D03*
X99187000Y-109982000D03*
X100838000Y-111379000D03*
X75819000Y-118745000D03*
X70358000Y-109601000D03*
X69596000Y-102235000D03*
X84582000Y-104648000D03*
X77089000Y-71628000D03*
X74041000Y-71247000D03*
X83312000Y-61849000D03*
X84709000Y-66040000D03*
X71374000Y-67945000D03*
X69088000Y-65532000D03*
X73787000Y-61341000D03*
X81407000Y-51308000D03*
X90551000Y-51308000D03*
X147447000Y-73533000D03*
X137795000Y-84836000D03*
X138684000Y-82804000D03*
X146685000Y-81153000D03*
X128524000Y-67183000D03*
X131572000Y-67183000D03*
X134239000Y-67564000D03*
X140589000Y-68072000D03*
X136271000Y-51181000D03*
X149098000Y-56515000D03*
X149225000Y-63373000D03*
X187960000Y-45974000D03*
X187960000Y-55245000D03*
X174879000Y-70866000D03*
X153416000Y-84455000D03*
X159512000Y-88392000D03*
X168148000Y-88646000D03*
X176784000Y-88519000D03*
X153797000Y-112268000D03*
X85471000Y-119253000D03*
X96901000Y-121666000D03*
D18*
X74803000Y-111125000D03*
X77978000Y-109347000D03*
X77724000Y-111506000D03*
X81407000Y-60198000D03*
X80391000Y-60452000D03*
X70866000Y-111633000D03*
X101092000Y-54610000D03*
X99822000Y-54483000D03*
X98806000Y-54356000D03*
X97663000Y-54229000D03*
X100584000Y-59309000D03*
X99568000Y-59436000D03*
X98679000Y-59436000D03*
X97663000Y-59436000D03*
X93218000Y-56007000D03*
X93345000Y-55118000D03*
X94615000Y-54483000D03*
X95885000Y-54610000D03*
X96647000Y-55245000D03*
X96647000Y-56134000D03*
X96647000Y-57023000D03*
X96647000Y-57785000D03*
X96647000Y-58547000D03*
X96647000Y-59436000D03*
X95631000Y-59436000D03*
X94488000Y-59436000D03*
X93345000Y-59309000D03*
X92456000Y-59309000D03*
X91567000Y-59182000D03*
X90551000Y-58547000D03*
X93218000Y-57023000D03*
X92075000Y-56769000D03*
X91186000Y-56261000D03*
X90068400Y-56134000D03*
X89662000Y-58293000D03*
X88773000Y-58293000D03*
X87884000Y-58420000D03*
X87376000Y-59055000D03*
X86106000Y-59309000D03*
X85090000Y-59309000D03*
X84582000Y-58420000D03*
X83769200Y-58166000D03*
X83718400Y-56134000D03*
X82931000Y-56083200D03*
X81788000Y-56134000D03*
X81788000Y-58166000D03*
X80899000Y-58166000D03*
X80010000Y-58039000D03*
X79248000Y-58039000D03*
X77851000Y-56134000D03*
X76962000Y-56134000D03*
X76073000Y-56134000D03*
X71501000Y-58293000D03*
X70485000Y-58293000D03*
X71501000Y-55880000D03*
X70612000Y-55880000D03*
X74980800Y-58978800D03*
X74168000Y-56134000D03*
X74168000Y-58166000D03*
X75057000Y-56134000D03*
X73279000Y-56134000D03*
X72390000Y-58166000D03*
X73279000Y-58166000D03*
X72390000Y-56134000D03*
X110490000Y-31496000D03*
X108966000Y-31242000D03*
X107696000Y-31242000D03*
X106680000Y-31750000D03*
X106680000Y-33528000D03*
X105791000Y-33528000D03*
X105791000Y-31750000D03*
X104902000Y-31750000D03*
X104902000Y-33528000D03*
X103124000Y-31750000D03*
X104013000Y-33528000D03*
X103124000Y-33528000D03*
X104013000Y-31750000D03*
X97790000Y-31750000D03*
X97790000Y-33528000D03*
X96012000Y-31750000D03*
X96012000Y-33528000D03*
X96901000Y-31750000D03*
X96901000Y-33528000D03*
X98679000Y-33528000D03*
X98679000Y-31750000D03*
X101346000Y-31750000D03*
X100457000Y-33528000D03*
X99568000Y-33528000D03*
X100457000Y-31750000D03*
X102235000Y-31750000D03*
X99568000Y-31750000D03*
X102235000Y-33528000D03*
X101346000Y-33528000D03*
X94234000Y-31750000D03*
X94234000Y-33528000D03*
X92456000Y-31750000D03*
X92456000Y-33528000D03*
X93345000Y-31750000D03*
X93345000Y-33528000D03*
X95123000Y-33528000D03*
X95123000Y-31750000D03*
X91567000Y-31750000D03*
X90678000Y-33528000D03*
X88900000Y-31750000D03*
X89789000Y-31750000D03*
X90678000Y-31750000D03*
X89789000Y-33528000D03*
X91567000Y-33528000D03*
X88900000Y-33528000D03*
X86233000Y-31750000D03*
X85344000Y-33528000D03*
X88011000Y-33528000D03*
X86233000Y-33528000D03*
X88011000Y-31750000D03*
X87122000Y-33528000D03*
X87122000Y-31750000D03*
X85344000Y-31750000D03*
X83566000Y-31750000D03*
X82677000Y-31750000D03*
X83566000Y-33528000D03*
X81788000Y-33528000D03*
X84455000Y-33528000D03*
X81788000Y-31750000D03*
X82677000Y-33528000D03*
X84455000Y-31750000D03*
X80899000Y-31750000D03*
X80899000Y-33528000D03*
X80010000Y-31750000D03*
X80010000Y-33528000D03*
X79121000Y-33528000D03*
X79121000Y-31750000D03*
X78232000Y-31750000D03*
X78232000Y-33528000D03*
X76708000Y-31877000D03*
X77470000Y-33655000D03*
X76835000Y-34290000D03*
X76200000Y-34925000D03*
X75311000Y-33020000D03*
X75946000Y-32385000D03*
X74676000Y-33655000D03*
X75565000Y-35560000D03*
X74930000Y-36195000D03*
X74041000Y-34290000D03*
X73406000Y-34925000D03*
X72771000Y-35560000D03*
X72136000Y-36195000D03*
X74295000Y-36830000D03*
X73660000Y-37465000D03*
X73025000Y-38100000D03*
X72263000Y-38735000D03*
X71374000Y-36957000D03*
X71374000Y-39116000D03*
X70485000Y-39116000D03*
X70485000Y-37084000D03*
X69596000Y-37084000D03*
X68707000Y-39116000D03*
X69596000Y-39116000D03*
X68707000Y-37084000D03*
X68707000Y-56134000D03*
X69596000Y-56134000D03*
X68707000Y-58166000D03*
X69596000Y-58166000D03*
X111760000Y-80772000D03*
X110617000Y-81915000D03*
X108458000Y-81915000D03*
X106807000Y-81788000D03*
X99314000Y-81661000D03*
X101981000Y-81661000D03*
X101092000Y-79629000D03*
X100203000Y-81661000D03*
X100203000Y-79629000D03*
X103759000Y-79629000D03*
X99314000Y-79629000D03*
X102870000Y-81661000D03*
X101092000Y-81661000D03*
X103759000Y-81661000D03*
X102870000Y-79629000D03*
X101981000Y-79629000D03*
X96647000Y-81661000D03*
X97536000Y-79629000D03*
X95758000Y-79629000D03*
X95758000Y-81661000D03*
X92202000Y-81661000D03*
X94869000Y-79629000D03*
X97536000Y-81661000D03*
X93091000Y-81661000D03*
X92202000Y-79629000D03*
X98425000Y-79629000D03*
X93980000Y-81661000D03*
X93980000Y-79629000D03*
X93091000Y-79629000D03*
X98425000Y-81661000D03*
X96647000Y-79629000D03*
X94869000Y-81661000D03*
X89535000Y-81661000D03*
X90424000Y-79629000D03*
X88646000Y-79629000D03*
X90424000Y-81661000D03*
X88646000Y-81661000D03*
X85979000Y-81661000D03*
X85090000Y-81661000D03*
X85090000Y-79629000D03*
X86868000Y-81661000D03*
X86868000Y-79629000D03*
X87757000Y-79629000D03*
X85979000Y-79629000D03*
X91313000Y-81661000D03*
X91313000Y-79629000D03*
X89535000Y-79629000D03*
X87757000Y-81661000D03*
X81534000Y-81661000D03*
X80645000Y-81661000D03*
X80645000Y-79629000D03*
X82423000Y-81661000D03*
X82423000Y-79629000D03*
X83312000Y-79629000D03*
X81534000Y-79629000D03*
X83312000Y-81661000D03*
X79756000Y-81661000D03*
X78867000Y-81661000D03*
X78867000Y-79629000D03*
X79756000Y-79629000D03*
X77978000Y-81661000D03*
X77978000Y-79629000D03*
X77089000Y-81661000D03*
X76200000Y-81661000D03*
X75311000Y-81534000D03*
X77089000Y-79629000D03*
X74549000Y-80899000D03*
X73914000Y-80264000D03*
X73279000Y-79629000D03*
X75438000Y-78867000D03*
X74803000Y-78232000D03*
X76073000Y-79502000D03*
X74168000Y-77597000D03*
X73533000Y-76962000D03*
X72644000Y-78994000D03*
X72009000Y-78359000D03*
X72898000Y-76327000D03*
X72263000Y-75692000D03*
X70485000Y-75184000D03*
X71374000Y-77724000D03*
X68707000Y-77216000D03*
X70612000Y-77216000D03*
X71374000Y-75184000D03*
X68707000Y-75184000D03*
X69596000Y-75184000D03*
X69596000Y-77216000D03*
X66167000Y-39624000D03*
X66167000Y-36576000D03*
X64643000Y-36576000D03*
X65405000Y-39624000D03*
X65405000Y-36576000D03*
X64643000Y-39624000D03*
X66929000Y-39624000D03*
X66929000Y-36576000D03*
X67818000Y-39497000D03*
X67818000Y-36703000D03*
X67818000Y-55753000D03*
X65405000Y-55626000D03*
X66167000Y-55626000D03*
X66929000Y-55626000D03*
X64643000Y-55626000D03*
X64643000Y-58674000D03*
X66929000Y-58674000D03*
X66167000Y-58674000D03*
X67818000Y-58547000D03*
X65405000Y-58674000D03*
X66167000Y-74676000D03*
X67818000Y-74803000D03*
X66929000Y-74676000D03*
X65405000Y-74676000D03*
X66929000Y-77724000D03*
X64643000Y-74676000D03*
X66167000Y-77724000D03*
X64643000Y-77724000D03*
X67818000Y-77597000D03*
X65405000Y-77724000D03*
X122174000Y-58420000D03*
X122174000Y-55499000D03*
X120396000Y-55499000D03*
X121285000Y-55499000D03*
X118618000Y-58420000D03*
X121285000Y-58420000D03*
X119507000Y-58420000D03*
X117729000Y-58420000D03*
X120396000Y-58420000D03*
X116840000Y-58420000D03*
X119507000Y-55499000D03*
X118618000Y-55499000D03*
X117729000Y-55499000D03*
X116840000Y-55499000D03*
X115951000Y-55499000D03*
X115951000Y-58420000D03*
X115062000Y-58420000D03*
X115062000Y-55499000D03*
X110998000Y-55499000D03*
X111887000Y-55499000D03*
X111887000Y-58445400D03*
X120015000Y-106553000D03*
X120015000Y-105664000D03*
X122047000Y-105664000D03*
X122047000Y-106553000D03*
D17*
%TO.N,+3.3VA*%
X125222000Y-110236000D03*
X125222000Y-106680000D03*
D18*
%TO.N,GND*%
X116840000Y-89916000D03*
X118872000Y-89916000D03*
X118872000Y-90805000D03*
X116840000Y-90805000D03*
X116459000Y-92710000D03*
X118745000Y-92964000D03*
X118364000Y-93726000D03*
X117983000Y-94361000D03*
X117475000Y-94996000D03*
X116840000Y-95504000D03*
X115824000Y-93472000D03*
X115951000Y-95885000D03*
X115062000Y-93980000D03*
X115062000Y-96139000D03*
X111379000Y-94234000D03*
X112141000Y-96266000D03*
X111379000Y-96266000D03*
X112141000Y-94234000D03*
X106045000Y-96266000D03*
X108712000Y-96266000D03*
X110490000Y-94234000D03*
X107823000Y-96266000D03*
X106045000Y-94234000D03*
X104267000Y-96266000D03*
X109601000Y-96266000D03*
X91821000Y-94234000D03*
X104267000Y-94234000D03*
X92710000Y-96266000D03*
X90043000Y-96266000D03*
X106934000Y-96266000D03*
X105156000Y-94234000D03*
X110490000Y-96266000D03*
X109601000Y-94234000D03*
X91821000Y-96266000D03*
X107823000Y-94234000D03*
X106934000Y-94234000D03*
X92710000Y-94234000D03*
X108712000Y-94234000D03*
X105156000Y-96266000D03*
X99822000Y-96266000D03*
X99822000Y-94234000D03*
X98933000Y-94234000D03*
X98933000Y-96266000D03*
X97155000Y-96266000D03*
X96266000Y-96266000D03*
X90043000Y-94234000D03*
X95377000Y-94234000D03*
X102489000Y-96266000D03*
X90932000Y-94234000D03*
X90932000Y-96266000D03*
X100711000Y-94234000D03*
X103378000Y-96266000D03*
X102489000Y-94234000D03*
X98044000Y-94234000D03*
X101600000Y-96266000D03*
X103378000Y-94234000D03*
X97155000Y-94234000D03*
X101600000Y-94234000D03*
X98044000Y-96266000D03*
X100711000Y-96266000D03*
X94488000Y-94234000D03*
X94488000Y-96266000D03*
X96266000Y-94234000D03*
X93599000Y-96266000D03*
X93599000Y-94234000D03*
X95377000Y-96266000D03*
X85598000Y-96266000D03*
X85598000Y-94234000D03*
X84709000Y-94234000D03*
X84709000Y-96266000D03*
X82931000Y-96266000D03*
X88265000Y-96266000D03*
X86487000Y-94234000D03*
X89154000Y-96266000D03*
X88265000Y-94234000D03*
X83820000Y-94234000D03*
X87376000Y-96266000D03*
X89154000Y-94234000D03*
X82931000Y-94234000D03*
X87376000Y-94234000D03*
X83820000Y-96266000D03*
X86487000Y-96266000D03*
X77597000Y-94234000D03*
X78486000Y-96266000D03*
X75819000Y-96266000D03*
X77597000Y-96266000D03*
X78486000Y-94234000D03*
X82042000Y-96266000D03*
X75819000Y-94234000D03*
X81153000Y-94234000D03*
X76708000Y-94234000D03*
X76708000Y-96266000D03*
X80264000Y-94234000D03*
X80264000Y-96266000D03*
X82042000Y-94234000D03*
X79375000Y-96266000D03*
X79375000Y-94234000D03*
X81153000Y-96266000D03*
X74041000Y-94234000D03*
X74930000Y-96266000D03*
X72263000Y-96266000D03*
X74041000Y-96266000D03*
X74930000Y-94234000D03*
X72263000Y-94234000D03*
X73152000Y-94234000D03*
X73152000Y-96266000D03*
X70485000Y-96266000D03*
X70485000Y-94234000D03*
X71374000Y-94234000D03*
X71374000Y-96266000D03*
X69596000Y-94234000D03*
X69596000Y-96266000D03*
X68707000Y-96266000D03*
X64643000Y-96774000D03*
X66929000Y-96774000D03*
X65405000Y-96774000D03*
X67818000Y-96647000D03*
X67818000Y-93853000D03*
X66929000Y-93726000D03*
X65405000Y-93726000D03*
X66167000Y-96774000D03*
X64643000Y-93726000D03*
X66167000Y-93726000D03*
%TO.N,+3.3VA*%
X152908000Y-69215000D03*
%TO.N,GND*%
X128016000Y-64135000D03*
X127127000Y-64516000D03*
X124841000Y-64389000D03*
X123698000Y-64389000D03*
X122682000Y-64389000D03*
X124460000Y-61087000D03*
X123698000Y-61087000D03*
X122809000Y-61087000D03*
X121920000Y-61087000D03*
X121158000Y-61087000D03*
X120142000Y-61214000D03*
X119253000Y-61468000D03*
X118491000Y-61976000D03*
X117856000Y-62611000D03*
X119507000Y-64135000D03*
X117348000Y-63246000D03*
X116840000Y-66675000D03*
X116840000Y-64897000D03*
X116967000Y-64008000D03*
X116840000Y-65786000D03*
X118872000Y-65786000D03*
X118872000Y-66675000D03*
X118999000Y-64897000D03*
X120142000Y-63627000D03*
X120650000Y-63119000D03*
X120015000Y-64897000D03*
X122047000Y-64897000D03*
X122047000Y-65786000D03*
X120015000Y-65786000D03*
X120015000Y-66675000D03*
X122047000Y-66675000D03*
X122047000Y-69342000D03*
X122047000Y-68453000D03*
X122047000Y-67564000D03*
X122047000Y-70231000D03*
X120015000Y-67564000D03*
X120015000Y-69342000D03*
X120015000Y-70231000D03*
X120015000Y-68453000D03*
X118872000Y-70231000D03*
X118872000Y-68453000D03*
X118872000Y-67564000D03*
X118872000Y-69342000D03*
X116840000Y-68453000D03*
X116840000Y-67564000D03*
X116840000Y-69342000D03*
X116840000Y-70231000D03*
X116840000Y-73533000D03*
X116840000Y-74422000D03*
X116840000Y-77089000D03*
X116840000Y-75311000D03*
X116840000Y-76200000D03*
X118872000Y-73533000D03*
X120015000Y-73533000D03*
X120015000Y-74422000D03*
X118872000Y-74422000D03*
X118872000Y-76200000D03*
X118872000Y-75311000D03*
X118872000Y-78867000D03*
X118872000Y-77978000D03*
X118872000Y-77089000D03*
X122047000Y-73533000D03*
X122047000Y-75311000D03*
X122047000Y-74422000D03*
X120015000Y-77089000D03*
X120015000Y-76200000D03*
X120015000Y-75311000D03*
X116840000Y-77978000D03*
X116840000Y-80645000D03*
X116840000Y-84201000D03*
X116840000Y-86868000D03*
X116840000Y-85979000D03*
X116840000Y-85090000D03*
X116840000Y-83312000D03*
X116840000Y-78867000D03*
X116840000Y-87757000D03*
X116840000Y-79756000D03*
X116840000Y-82423000D03*
X116840000Y-81534000D03*
X122047000Y-77978000D03*
X122047000Y-80645000D03*
X122047000Y-79756000D03*
X122047000Y-82423000D03*
X122047000Y-81534000D03*
X122047000Y-84201000D03*
X122047000Y-83312000D03*
X122047000Y-85979000D03*
X122047000Y-85090000D03*
X122047000Y-77089000D03*
X122047000Y-76200000D03*
X122047000Y-78867000D03*
X118872000Y-79756000D03*
X118872000Y-82423000D03*
X118872000Y-81534000D03*
X118872000Y-84201000D03*
X118872000Y-83312000D03*
X118872000Y-85979000D03*
X118872000Y-85090000D03*
X118872000Y-87757000D03*
X118872000Y-86868000D03*
X118872000Y-80645000D03*
X120015000Y-78867000D03*
X120015000Y-77978000D03*
X120015000Y-80645000D03*
X120015000Y-79756000D03*
X120015000Y-82423000D03*
X120015000Y-81534000D03*
X120015000Y-84201000D03*
X120015000Y-83312000D03*
X120015000Y-85979000D03*
X120015000Y-85090000D03*
X120015000Y-87757000D03*
X120015000Y-86868000D03*
X122047000Y-86868000D03*
X122047000Y-87757000D03*
X122047000Y-90043000D03*
X122047000Y-90805000D03*
X120015000Y-90805000D03*
X120015000Y-89916000D03*
X120015000Y-93599000D03*
X120015000Y-94488000D03*
X120015000Y-95377000D03*
X120015000Y-92710000D03*
X120015000Y-96266000D03*
X122047000Y-92710000D03*
X122047000Y-96266000D03*
X122047000Y-95377000D03*
X122047000Y-93599000D03*
X122047000Y-94488000D03*
X122047000Y-97155000D03*
X120015000Y-97155000D03*
X120015000Y-99441000D03*
X122047000Y-99441000D03*
X122047000Y-102108000D03*
X122047000Y-100330000D03*
X122047000Y-101219000D03*
X120015000Y-102108000D03*
X120015000Y-100330000D03*
X120015000Y-101219000D03*
X120015000Y-104775000D03*
X120015000Y-103886000D03*
X120015000Y-102997000D03*
X122047000Y-103886000D03*
X122047000Y-104775000D03*
X122047000Y-102997000D03*
X122047000Y-107442000D03*
X120015000Y-107442000D03*
X120015000Y-109220000D03*
X122047000Y-109220000D03*
X122047000Y-109982000D03*
X120015000Y-109982000D03*
X120015000Y-110871000D03*
X122047000Y-110871000D03*
X122047000Y-111760000D03*
X121920000Y-112776000D03*
X121412000Y-113665000D03*
X119888000Y-111887000D03*
X119380000Y-112649000D03*
X118745000Y-113157000D03*
X115951000Y-115316000D03*
X114173000Y-115316000D03*
X116840000Y-115316000D03*
X115062000Y-115316000D03*
X120650000Y-114554000D03*
X119761000Y-115062000D03*
X117729000Y-115316000D03*
X118618000Y-115316000D03*
X112395000Y-115316000D03*
X110617000Y-115316000D03*
X113284000Y-115316000D03*
X111506000Y-115316000D03*
X109728000Y-115316000D03*
X107061000Y-115316000D03*
X108839000Y-115316000D03*
X107950000Y-115316000D03*
X117729000Y-113284000D03*
X116840000Y-113284000D03*
X115951000Y-113284000D03*
X115062000Y-113284000D03*
X114173000Y-113284000D03*
X113284000Y-113284000D03*
X112395000Y-113284000D03*
X111506000Y-113284000D03*
X110617000Y-113284000D03*
X109728000Y-113284000D03*
X108839000Y-113284000D03*
X107950000Y-113284000D03*
D17*
X108077000Y-119634000D03*
X132870503Y-63740148D03*
%TO.N,+3.3VA*%
X143256000Y-56388000D03*
D18*
%TO.N,GND*%
X78359000Y-58039000D03*
X75565000Y-58039000D03*
X68707000Y-94234000D03*
D17*
%TO.N,+3.3VA*%
X104775000Y-105029000D03*
X103124000Y-105029000D03*
%TO.N,+5V*%
X180848000Y-114935000D03*
X173736000Y-114935000D03*
X73279000Y-102489000D03*
%TO.N,GND*%
X167386000Y-104394000D03*
X147193000Y-96520000D03*
X146685000Y-103378000D03*
X138684000Y-80899000D03*
%TO.N,+3.3VA*%
X143256000Y-81407000D03*
%TO.N,~{CS_ADC}*%
X148174000Y-106045000D03*
D18*
%TO.N,GND*%
X135382000Y-59817000D03*
X136652000Y-59817000D03*
X137795000Y-59817000D03*
X137795000Y-60960000D03*
X136652000Y-60960000D03*
X135382000Y-60960000D03*
X137795000Y-58547000D03*
X136652000Y-58547000D03*
X135382000Y-58547000D03*
D17*
X142875000Y-60223400D03*
%TO.N,+3.3VA*%
X154305000Y-74930000D03*
X155575000Y-74930000D03*
X155575000Y-73660000D03*
X156845000Y-73660000D03*
X156845000Y-74930000D03*
X154305000Y-77470000D03*
X154305000Y-76200000D03*
X155575000Y-76200000D03*
X156845000Y-76200000D03*
X156845000Y-77470000D03*
X155575000Y-77470000D03*
X154305000Y-78740000D03*
X155575000Y-78740000D03*
X156845000Y-78740000D03*
X158115000Y-78740000D03*
X158115000Y-77470000D03*
X158115000Y-76200000D03*
X158115000Y-74930000D03*
X158115000Y-73660000D03*
X154305000Y-73660000D03*
X146558000Y-64643000D03*
%TO.N,RX_AMP_EN*%
X138049000Y-110744000D03*
%TO.N,RX_VRMS*%
X130048000Y-91694000D03*
X78486000Y-70231000D03*
%TO.N,TX_VRMS*%
X128524000Y-92456000D03*
%TO.N,+3.3VA*%
X88646000Y-51816000D03*
%TO.N,+5V*%
X104212200Y-52015200D03*
X110871000Y-43307000D03*
%TO.N,+3.3VA*%
X87249000Y-49149000D03*
%TO.N,+5V*%
X113538000Y-101473000D03*
X80137000Y-102489000D03*
X113540000Y-75190000D03*
X167922000Y-85518000D03*
%TO.N,-5V*%
X105870000Y-39010000D03*
X105500000Y-72170000D03*
X176980000Y-85630000D03*
%TO.N,RX_AMP_EN*%
X81930000Y-47260000D03*
%TO.N,XO_EN*%
X149490000Y-110950000D03*
X152840000Y-56490000D03*
%TO.N,+3.3VA*%
X155410000Y-59040000D03*
X143230000Y-62020000D03*
%TO.N,LD*%
X147193000Y-70358000D03*
X149500000Y-103820000D03*
%TO.N,TX_ATTEN_LE*%
X109347000Y-109220000D03*
X139755000Y-108405000D03*
%TO.N,TX_PHASE_LE*%
X141097000Y-111506000D03*
X87640000Y-119460000D03*
%TO.N,~{CS_ADC}*%
X146142000Y-78813500D03*
%TO.N,TX_VRMS*%
X77050000Y-100110000D03*
D18*
%TO.N,GND*%
X100490000Y-115370000D03*
X99680000Y-115350000D03*
X98806000Y-115443000D03*
X97690000Y-115440000D03*
X96580000Y-115290000D03*
X95830000Y-115300000D03*
X95180000Y-115290000D03*
X100780000Y-113340000D03*
X100050000Y-113360000D03*
X99250000Y-113350000D03*
X98540000Y-113230000D03*
X97750000Y-113230000D03*
X97000000Y-113230000D03*
X96220000Y-113330000D03*
X95420000Y-113300000D03*
X94850000Y-112770000D03*
X94080000Y-112120000D03*
X93130000Y-112150000D03*
X92200000Y-112150000D03*
X91350000Y-112130000D03*
X90470000Y-112140000D03*
X89500000Y-112250000D03*
X88620000Y-112550000D03*
X88010000Y-115390000D03*
X87080000Y-115410000D03*
X86300000Y-115410000D03*
X85490000Y-115420000D03*
X84630000Y-115410000D03*
X79960000Y-116480000D03*
X83800000Y-115440000D03*
X87980000Y-113230000D03*
X87080000Y-113170000D03*
X86260000Y-113180000D03*
X85550000Y-113180000D03*
X84870000Y-113220000D03*
X83960000Y-112430000D03*
X82790000Y-112200000D03*
X82010000Y-112160000D03*
X80730000Y-112180000D03*
X79940000Y-112200000D03*
X79260000Y-112860000D03*
X78486000Y-113284000D03*
X77724000Y-113284000D03*
X76962000Y-113284000D03*
X76073000Y-113284000D03*
X76327000Y-115316000D03*
X75311000Y-115316000D03*
X74422000Y-115443000D03*
X73533000Y-115443000D03*
X72644000Y-115443000D03*
X70358000Y-113157000D03*
X71400000Y-113130000D03*
X72390000Y-113030000D03*
X71882000Y-115443000D03*
X71120000Y-115443000D03*
X70358000Y-115443000D03*
X69469000Y-113284000D03*
X69469000Y-115316000D03*
X68707000Y-115316000D03*
X67945000Y-115697000D03*
X67056000Y-115824000D03*
X65532000Y-115824000D03*
X64770000Y-115824000D03*
X66294000Y-115824000D03*
X64770000Y-112776000D03*
X65532000Y-112776000D03*
X66294000Y-112776000D03*
X67056000Y-112776000D03*
X67945000Y-112903000D03*
X68707000Y-113284000D03*
D17*
X176530000Y-98425000D03*
X176530000Y-96647000D03*
X174371000Y-97282000D03*
X168529000Y-98171000D03*
X170053000Y-105410000D03*
X145542000Y-110617000D03*
X154432000Y-106299000D03*
X149225000Y-105156000D03*
%TO.N,+3V3*%
X174117000Y-99060000D03*
X166243000Y-102743000D03*
D18*
%TO.N,+5V*%
X177292000Y-114935000D03*
%TO.N,RX_LED*%
X173736000Y-123698000D03*
%TO.N,GND*%
X92608400Y-116509800D03*
X90754200Y-116459000D03*
X92608400Y-114528600D03*
X90779600Y-114528600D03*
X81330800Y-114325400D03*
D17*
%TO.N,Net-(J4-CC1)*%
X181864000Y-107696000D03*
%TO.N,Net-(J4-CC2)*%
X181864000Y-105664000D03*
%TO.N,+5V*%
X172466000Y-93091000D03*
%TO.N,TX*%
X145982686Y-102297228D03*
X146812000Y-95516134D03*
%TO.N,RX*%
X145034000Y-101981000D03*
%TO.N,UPDI*%
X147447000Y-101854000D03*
X147447000Y-115570000D03*
%TO.N,RX*%
X146113285Y-94800730D03*
%TO.N,+3V3*%
X144907000Y-98425000D03*
%TO.N,MOSI*%
X87630000Y-118110000D03*
%TO.N,SCLK*%
X87630000Y-116840000D03*
X140850000Y-76530000D03*
%TO.N,MISO*%
X143256000Y-79121000D03*
%TO.N,MOSI*%
X144272000Y-78359000D03*
%TO.N,SCLK*%
X140843000Y-93853000D03*
%TO.N,MISO*%
X142621000Y-93853000D03*
%TO.N,MOSI*%
X144272000Y-93853000D03*
%TO.N,~{SYNTH_CS}*%
X144145000Y-106045000D03*
%TO.N,C16*%
X137922000Y-102997000D03*
X140208000Y-105791000D03*
%TO.N,Net-(R10-Pad1)*%
X157734000Y-115824000D03*
X151130000Y-95504000D03*
%TO.N,+3V3*%
X153416000Y-107823000D03*
X142240000Y-110490000D03*
%TO.N,RX_LED*%
X167894000Y-99441000D03*
D18*
%TO.N,GND*%
X85898000Y-57150000D03*
D17*
X133096000Y-56388000D03*
%TO.N,Net-(U1-VTUNE)*%
X134239000Y-47752000D03*
X137160000Y-66802000D03*
%TO.N,GND*%
X127762000Y-52832000D03*
X131572000Y-54102000D03*
X128403067Y-49282067D03*
%TO.N,SCLK*%
X141732000Y-54991000D03*
%TO.N,MOSI*%
X140700003Y-54991000D03*
%TO.N,~{SYNTH_CS}*%
X139700000Y-54991000D03*
%TO.N,Net-(U1-SW)*%
X132435600Y-47726600D03*
X136285407Y-55840499D03*
%TO.N,+3.3VA*%
X139573000Y-53340000D03*
X136906000Y-53086000D03*
X128270000Y-54102000D03*
X131826000Y-55358201D03*
X127762000Y-60071000D03*
X128270000Y-65532000D03*
X132207000Y-65151000D03*
%TO.N,GND*%
X110363000Y-34290000D03*
%TO.N,+5V*%
X110355141Y-51681141D03*
X103759000Y-60706000D03*
X110396441Y-62124000D03*
%TO.N,GND*%
X110283000Y-78930000D03*
%TO.N,+3.3VA*%
X80010000Y-121539000D03*
X97917000Y-119761000D03*
X95885000Y-118872000D03*
X106426000Y-108458000D03*
X101600000Y-108458000D03*
X77597000Y-118491000D03*
%TO.N,Net-(U12-VREF)*%
X82804000Y-107950000D03*
X70104000Y-106553000D03*
%TO.N,Net-(U20-VREF)*%
X69469000Y-63119000D03*
X82296000Y-65913000D03*
%TO.N,+5V*%
X79756000Y-68072000D03*
X73025000Y-68072000D03*
%TD*%
%TA.AperFunction,Conductor*%
%TO.N,GND*%
G36*
X186572629Y-26400502D02*
G01*
X186597290Y-26400502D01*
X186686519Y-26400502D01*
X186693472Y-26400697D01*
X186997622Y-26417778D01*
X187011420Y-26419332D01*
X187308305Y-26469775D01*
X187321861Y-26472869D01*
X187611230Y-26556235D01*
X187624356Y-26560828D01*
X187902568Y-26676067D01*
X187915082Y-26682093D01*
X188122146Y-26796533D01*
X188178648Y-26827761D01*
X188190422Y-26835159D01*
X188436013Y-27009415D01*
X188446885Y-27018085D01*
X188671420Y-27218742D01*
X188671423Y-27218744D01*
X188681254Y-27228575D01*
X188881921Y-27453121D01*
X188890579Y-27463979D01*
X188977712Y-27586782D01*
X189064840Y-27709579D01*
X189072237Y-27721352D01*
X189217902Y-27984910D01*
X189223936Y-27997440D01*
X189339173Y-28275649D01*
X189343766Y-28288774D01*
X189427130Y-28578138D01*
X189430224Y-28591694D01*
X189480666Y-28888570D01*
X189482223Y-28902389D01*
X189499304Y-29206568D01*
X189499499Y-29213520D01*
X189499498Y-123097289D01*
X189499498Y-123186519D01*
X189499303Y-123193472D01*
X189482222Y-123497612D01*
X189480665Y-123511430D01*
X189430224Y-123808304D01*
X189427130Y-123821861D01*
X189343764Y-124111230D01*
X189339171Y-124124355D01*
X189223935Y-124402561D01*
X189217902Y-124415089D01*
X189072238Y-124678648D01*
X189064840Y-124690422D01*
X188890584Y-124936013D01*
X188881914Y-124946885D01*
X188681255Y-125171423D01*
X188671422Y-125181256D01*
X188446885Y-125381915D01*
X188436013Y-125390585D01*
X188190420Y-125564840D01*
X188178647Y-125572237D01*
X187915089Y-125717902D01*
X187902559Y-125723936D01*
X187624350Y-125839173D01*
X187611225Y-125843766D01*
X187321861Y-125927130D01*
X187308305Y-125930224D01*
X187011429Y-125980666D01*
X186997611Y-125982223D01*
X186693432Y-125999305D01*
X186686479Y-125999500D01*
X67313481Y-125999500D01*
X67306528Y-125999305D01*
X67002387Y-125982224D01*
X66988569Y-125980667D01*
X66691694Y-125930226D01*
X66678137Y-125927132D01*
X66388769Y-125843766D01*
X66375644Y-125839173D01*
X66097438Y-125723937D01*
X66084910Y-125717904D01*
X65821351Y-125572240D01*
X65809577Y-125564842D01*
X65563985Y-125390586D01*
X65553113Y-125381916D01*
X65328575Y-125181257D01*
X65318742Y-125171424D01*
X65118083Y-124946886D01*
X65109413Y-124936014D01*
X64935157Y-124690422D01*
X64927759Y-124678648D01*
X64896531Y-124622146D01*
X64782091Y-124415082D01*
X64776065Y-124402568D01*
X64660826Y-124124355D01*
X64656233Y-124111230D01*
X64572867Y-123821862D01*
X64569773Y-123808305D01*
X64551032Y-123698003D01*
X172973506Y-123698003D01*
X172992621Y-123867662D01*
X172992623Y-123867672D01*
X173049016Y-124028833D01*
X173049017Y-124028834D01*
X173139858Y-124173407D01*
X173260593Y-124294142D01*
X173405166Y-124384983D01*
X173566329Y-124441377D01*
X173566335Y-124441377D01*
X173566337Y-124441378D01*
X173735996Y-124460494D01*
X173736000Y-124460494D01*
X173736004Y-124460494D01*
X173905662Y-124441378D01*
X173905661Y-124441378D01*
X173905671Y-124441377D01*
X174066834Y-124384983D01*
X174211407Y-124294142D01*
X174332142Y-124173407D01*
X174422983Y-124028834D01*
X174479377Y-123867671D01*
X174484538Y-123821862D01*
X174498494Y-123698003D01*
X174498494Y-123697996D01*
X174479378Y-123528337D01*
X174479377Y-123528335D01*
X174479377Y-123528329D01*
X174422983Y-123367166D01*
X174332142Y-123222593D01*
X174211407Y-123101858D01*
X174066834Y-123011017D01*
X174066835Y-123011017D01*
X174066833Y-123011016D01*
X173905672Y-122954623D01*
X173905662Y-122954621D01*
X173736004Y-122935506D01*
X173735996Y-122935506D01*
X173566337Y-122954621D01*
X173566327Y-122954623D01*
X173405166Y-123011016D01*
X173405163Y-123011018D01*
X173260592Y-123101858D01*
X173139858Y-123222592D01*
X173049018Y-123367163D01*
X173049016Y-123367166D01*
X172992623Y-123528327D01*
X172992621Y-123528337D01*
X172973506Y-123697996D01*
X172973506Y-123698003D01*
X64551032Y-123698003D01*
X64519330Y-123511420D01*
X64517776Y-123497622D01*
X64500695Y-123193472D01*
X64500500Y-123186519D01*
X64500500Y-121539000D01*
X79147576Y-121539000D01*
X79166422Y-121718309D01*
X79166423Y-121718311D01*
X79221071Y-121886503D01*
X79222136Y-121889779D01*
X79312284Y-122045920D01*
X79432926Y-122179906D01*
X79457360Y-122197658D01*
X79578788Y-122285881D01*
X79743491Y-122359212D01*
X79743496Y-122359214D01*
X79919852Y-122396700D01*
X80100148Y-122396700D01*
X80276504Y-122359214D01*
X80441212Y-122285881D01*
X80587074Y-122179906D01*
X80707716Y-122045920D01*
X80797864Y-121889779D01*
X80853578Y-121718308D01*
X80872424Y-121539000D01*
X80853578Y-121359692D01*
X80797864Y-121188221D01*
X80707716Y-121032080D01*
X80587074Y-120898094D01*
X80441212Y-120792119D01*
X80441211Y-120792118D01*
X80276508Y-120718787D01*
X80276503Y-120718785D01*
X80100148Y-120681300D01*
X79919852Y-120681300D01*
X79743496Y-120718785D01*
X79743491Y-120718787D01*
X79578788Y-120792118D01*
X79432924Y-120898095D01*
X79312283Y-121032081D01*
X79222135Y-121188222D01*
X79166423Y-121359688D01*
X79166422Y-121359690D01*
X79147576Y-121539000D01*
X64500500Y-121539000D01*
X64500500Y-118491000D01*
X76734576Y-118491000D01*
X76753422Y-118670309D01*
X76753423Y-118670311D01*
X76795374Y-118799426D01*
X76809136Y-118841779D01*
X76899284Y-118997920D01*
X77019926Y-119131906D01*
X77144999Y-119222777D01*
X77165788Y-119237881D01*
X77330491Y-119311212D01*
X77330496Y-119311214D01*
X77506852Y-119348700D01*
X77687148Y-119348700D01*
X77863504Y-119311214D01*
X78028212Y-119237881D01*
X78174074Y-119131906D01*
X78294716Y-118997920D01*
X78384864Y-118841779D01*
X78440578Y-118670308D01*
X78459424Y-118491000D01*
X78440578Y-118311692D01*
X78384864Y-118140221D01*
X78367416Y-118110000D01*
X86767576Y-118110000D01*
X86773780Y-118169032D01*
X86786422Y-118289308D01*
X86842136Y-118460779D01*
X86932284Y-118616920D01*
X86972007Y-118661036D01*
X87013915Y-118707581D01*
X87044145Y-118770573D01*
X87035519Y-118839908D01*
X87013915Y-118873525D01*
X86942283Y-118953080D01*
X86852135Y-119109222D01*
X86796423Y-119280688D01*
X86796422Y-119280690D01*
X86777576Y-119460000D01*
X86796422Y-119639309D01*
X86796423Y-119639311D01*
X86840711Y-119775618D01*
X86852136Y-119810779D01*
X86942284Y-119966920D01*
X87062926Y-120100906D01*
X87208788Y-120206881D01*
X87373491Y-120280212D01*
X87373496Y-120280214D01*
X87549852Y-120317700D01*
X87730148Y-120317700D01*
X87906504Y-120280214D01*
X88071212Y-120206881D01*
X88217074Y-120100906D01*
X88337716Y-119966920D01*
X88427864Y-119810779D01*
X88444038Y-119761000D01*
X97054576Y-119761000D01*
X97073422Y-119940309D01*
X97073423Y-119940311D01*
X97125602Y-120100904D01*
X97129136Y-120111779D01*
X97219284Y-120267920D01*
X97339926Y-120401906D01*
X97477213Y-120501651D01*
X97485788Y-120507881D01*
X97650491Y-120581212D01*
X97650496Y-120581214D01*
X97826852Y-120618700D01*
X98007148Y-120618700D01*
X98183504Y-120581214D01*
X98348212Y-120507881D01*
X98494074Y-120401906D01*
X98614716Y-120267920D01*
X98704864Y-120111779D01*
X98760578Y-119940308D01*
X98779424Y-119761000D01*
X98760578Y-119581692D01*
X98704864Y-119410221D01*
X98614716Y-119254080D01*
X98494074Y-119120094D01*
X98348212Y-119014119D01*
X98348211Y-119014118D01*
X98183508Y-118940787D01*
X98183503Y-118940785D01*
X98007148Y-118903300D01*
X97826852Y-118903300D01*
X97650496Y-118940785D01*
X97650491Y-118940787D01*
X97485788Y-119014118D01*
X97339924Y-119120095D01*
X97219283Y-119254081D01*
X97129135Y-119410222D01*
X97073423Y-119581688D01*
X97073422Y-119581690D01*
X97054576Y-119761000D01*
X88444038Y-119761000D01*
X88483578Y-119639308D01*
X88502424Y-119460000D01*
X88483578Y-119280692D01*
X88427864Y-119109221D01*
X88337716Y-118953080D01*
X88292894Y-118903300D01*
X88264712Y-118872000D01*
X95022576Y-118872000D01*
X95041422Y-119051308D01*
X95097136Y-119222779D01*
X95187284Y-119378920D01*
X95307926Y-119512906D01*
X95402599Y-119581690D01*
X95453788Y-119618881D01*
X95618491Y-119692212D01*
X95618496Y-119692214D01*
X95794852Y-119729700D01*
X95975148Y-119729700D01*
X96151504Y-119692214D01*
X96316212Y-119618881D01*
X96462074Y-119512906D01*
X96582716Y-119378920D01*
X96672864Y-119222779D01*
X96728578Y-119051308D01*
X96747424Y-118872000D01*
X96728578Y-118692692D01*
X96704309Y-118618000D01*
X138641305Y-118618000D01*
X138661247Y-118845942D01*
X138661249Y-118845952D01*
X138720467Y-119066960D01*
X138720469Y-119066964D01*
X138720470Y-119066968D01*
X138771929Y-119177322D01*
X138817173Y-119274348D01*
X138817175Y-119274352D01*
X138948413Y-119461779D01*
X138948417Y-119461784D01*
X139110216Y-119623583D01*
X139169343Y-119664984D01*
X139212967Y-119719561D01*
X139220160Y-119789060D01*
X139188638Y-119851414D01*
X139135110Y-119884944D01*
X139061419Y-119907907D01*
X139061416Y-119907908D01*
X138914346Y-119996814D01*
X138914342Y-119996817D01*
X138792817Y-120118342D01*
X138792814Y-120118346D01*
X138703908Y-120265416D01*
X138703906Y-120265420D01*
X138652779Y-120429495D01*
X138646300Y-120500799D01*
X138646300Y-121815210D01*
X138652778Y-121886500D01*
X138652779Y-121886505D01*
X138703907Y-122050581D01*
X138703908Y-122050583D01*
X138792814Y-122197653D01*
X138792817Y-122197657D01*
X138914342Y-122319182D01*
X138914346Y-122319185D01*
X139061416Y-122408091D01*
X139061420Y-122408093D01*
X139119457Y-122426177D01*
X139225497Y-122459221D01*
X139296797Y-122465700D01*
X140611202Y-122465699D01*
X140611209Y-122465699D01*
X140661112Y-122461164D01*
X140682503Y-122459221D01*
X140846582Y-122408092D01*
X140993658Y-122319182D01*
X141115182Y-122197658D01*
X141204092Y-122050582D01*
X141227055Y-121976888D01*
X141265791Y-121918743D01*
X141329816Y-121890768D01*
X141398802Y-121901849D01*
X141447015Y-121942656D01*
X141488417Y-122001784D01*
X141488418Y-122001785D01*
X141650214Y-122163581D01*
X141650220Y-122163586D01*
X141837647Y-122294824D01*
X141837649Y-122294825D01*
X141837652Y-122294827D01*
X142045032Y-122391530D01*
X142266053Y-122450752D01*
X142436896Y-122465699D01*
X142493999Y-122470695D01*
X142494000Y-122470695D01*
X142494001Y-122470695D01*
X142551092Y-122465700D01*
X142721947Y-122450752D01*
X142942968Y-122391530D01*
X143150348Y-122294827D01*
X143337784Y-122163583D01*
X143499583Y-122001784D01*
X143630827Y-121814348D01*
X143651618Y-121769760D01*
X143697790Y-121717322D01*
X143764984Y-121698170D01*
X143831865Y-121718386D01*
X143876382Y-121769761D01*
X143897173Y-121814348D01*
X143897175Y-121814352D01*
X144028413Y-122001779D01*
X144028418Y-122001785D01*
X144190214Y-122163581D01*
X144190220Y-122163586D01*
X144377647Y-122294824D01*
X144377649Y-122294825D01*
X144377652Y-122294827D01*
X144585032Y-122391530D01*
X144806053Y-122450752D01*
X144976896Y-122465699D01*
X145033999Y-122470695D01*
X145034000Y-122470695D01*
X145034001Y-122470695D01*
X145091092Y-122465700D01*
X145261947Y-122450752D01*
X145482968Y-122391530D01*
X145690348Y-122294827D01*
X145877784Y-122163583D01*
X146039583Y-122001784D01*
X146170827Y-121814348D01*
X146267530Y-121606968D01*
X146326752Y-121385947D01*
X146346695Y-121158000D01*
X146326752Y-120930053D01*
X146267530Y-120709032D01*
X146170827Y-120501653D01*
X146039583Y-120314216D01*
X145877784Y-120152417D01*
X145877782Y-120152416D01*
X145877779Y-120152413D01*
X145690352Y-120021175D01*
X145690348Y-120021173D01*
X145690346Y-120021172D01*
X145482968Y-119924470D01*
X145482964Y-119924469D01*
X145482960Y-119924467D01*
X145261952Y-119865249D01*
X145261942Y-119865247D01*
X145034001Y-119845305D01*
X145033999Y-119845305D01*
X144806057Y-119865247D01*
X144806047Y-119865249D01*
X144585039Y-119924467D01*
X144585030Y-119924471D01*
X144377654Y-120021172D01*
X144377652Y-120021173D01*
X144190213Y-120152418D01*
X144028418Y-120314213D01*
X143897174Y-120501651D01*
X143876382Y-120546240D01*
X143830209Y-120598679D01*
X143763015Y-120617830D01*
X143696134Y-120597614D01*
X143651618Y-120546240D01*
X143630827Y-120501653D01*
X143499583Y-120314216D01*
X143337784Y-120152417D01*
X143337782Y-120152416D01*
X143337779Y-120152413D01*
X143150352Y-120021175D01*
X143150348Y-120021173D01*
X143150346Y-120021172D01*
X143105760Y-120000381D01*
X143053322Y-119954210D01*
X143034170Y-119887016D01*
X143054386Y-119820135D01*
X143105760Y-119775618D01*
X143150348Y-119754827D01*
X143337784Y-119623583D01*
X143499583Y-119461784D01*
X143630827Y-119274348D01*
X143727530Y-119066968D01*
X143786752Y-118845947D01*
X143806695Y-118618000D01*
X143786752Y-118390053D01*
X143727530Y-118169032D01*
X143630827Y-117961653D01*
X143499583Y-117774216D01*
X143337784Y-117612417D01*
X143337782Y-117612416D01*
X143337779Y-117612413D01*
X143150352Y-117481175D01*
X143150348Y-117481173D01*
X143137110Y-117475000D01*
X142942968Y-117384470D01*
X142942964Y-117384469D01*
X142942960Y-117384467D01*
X142721952Y-117325249D01*
X142721942Y-117325247D01*
X142494001Y-117305305D01*
X142493999Y-117305305D01*
X142266057Y-117325247D01*
X142266047Y-117325249D01*
X142045039Y-117384467D01*
X142045030Y-117384471D01*
X141837654Y-117481172D01*
X141837652Y-117481173D01*
X141650213Y-117612418D01*
X141488418Y-117774213D01*
X141357174Y-117961651D01*
X141336382Y-118006240D01*
X141290209Y-118058679D01*
X141223015Y-118077830D01*
X141156134Y-118057614D01*
X141111618Y-118006240D01*
X141101285Y-117984081D01*
X141090827Y-117961653D01*
X140959583Y-117774216D01*
X140797784Y-117612417D01*
X140797782Y-117612416D01*
X140797779Y-117612413D01*
X140610352Y-117481175D01*
X140610348Y-117481173D01*
X140597110Y-117475000D01*
X140402968Y-117384470D01*
X140402964Y-117384469D01*
X140402960Y-117384467D01*
X140181952Y-117325249D01*
X140181942Y-117325247D01*
X139954001Y-117305305D01*
X139953999Y-117305305D01*
X139726057Y-117325247D01*
X139726047Y-117325249D01*
X139505039Y-117384467D01*
X139505030Y-117384471D01*
X139297654Y-117481172D01*
X139297652Y-117481173D01*
X139110213Y-117612418D01*
X138948418Y-117774213D01*
X138817173Y-117961652D01*
X138817172Y-117961654D01*
X138720471Y-118169030D01*
X138720467Y-118169039D01*
X138661249Y-118390047D01*
X138661247Y-118390057D01*
X138641305Y-118617999D01*
X138641305Y-118618000D01*
X96704309Y-118618000D01*
X96672864Y-118521221D01*
X96582716Y-118365080D01*
X96462074Y-118231094D01*
X96376650Y-118169030D01*
X96316211Y-118125118D01*
X96151508Y-118051787D01*
X96151503Y-118051785D01*
X95975148Y-118014300D01*
X95794852Y-118014300D01*
X95618496Y-118051785D01*
X95618491Y-118051787D01*
X95453788Y-118125118D01*
X95307924Y-118231095D01*
X95187283Y-118365081D01*
X95097135Y-118521222D01*
X95041423Y-118692688D01*
X95041422Y-118692690D01*
X95039857Y-118707581D01*
X95022576Y-118872000D01*
X88264712Y-118872000D01*
X88256084Y-118862418D01*
X88225854Y-118799426D01*
X88234479Y-118730091D01*
X88256082Y-118696476D01*
X88327716Y-118616920D01*
X88417864Y-118460779D01*
X88473578Y-118289308D01*
X88492424Y-118110000D01*
X88473578Y-117930692D01*
X88417864Y-117759221D01*
X88327716Y-117603080D01*
X88287100Y-117557972D01*
X88256870Y-117494981D01*
X88265495Y-117425646D01*
X88287101Y-117392027D01*
X88327716Y-117346920D01*
X88417864Y-117190779D01*
X88473578Y-117019308D01*
X88492424Y-116840000D01*
X88473578Y-116660692D01*
X88417864Y-116489221D01*
X88327716Y-116333080D01*
X88207074Y-116199094D01*
X88061212Y-116093119D01*
X88061211Y-116093118D01*
X87896508Y-116019787D01*
X87896503Y-116019785D01*
X87720148Y-115982300D01*
X87539852Y-115982300D01*
X87363496Y-116019785D01*
X87363491Y-116019787D01*
X87198788Y-116093118D01*
X87052924Y-116199095D01*
X86932283Y-116333081D01*
X86842135Y-116489222D01*
X86786423Y-116660688D01*
X86786422Y-116660690D01*
X86767576Y-116840000D01*
X86786422Y-117019309D01*
X86786423Y-117019311D01*
X86842135Y-117190777D01*
X86932283Y-117346919D01*
X86972899Y-117392028D01*
X87003129Y-117455020D01*
X86994503Y-117524355D01*
X86972899Y-117557972D01*
X86932283Y-117603080D01*
X86842135Y-117759222D01*
X86786423Y-117930688D01*
X86786422Y-117930690D01*
X86767576Y-118110000D01*
X78367416Y-118110000D01*
X78294716Y-117984080D01*
X78174074Y-117850094D01*
X78069633Y-117774213D01*
X78028211Y-117744118D01*
X77863508Y-117670787D01*
X77863503Y-117670785D01*
X77687148Y-117633300D01*
X77506852Y-117633300D01*
X77330496Y-117670785D01*
X77330491Y-117670787D01*
X77165788Y-117744118D01*
X77019924Y-117850095D01*
X76899283Y-117984081D01*
X76809135Y-118140222D01*
X76753423Y-118311688D01*
X76753422Y-118311690D01*
X76734576Y-118491000D01*
X64500500Y-118491000D01*
X64500500Y-115570000D01*
X146584576Y-115570000D01*
X146603422Y-115749308D01*
X146659136Y-115920779D01*
X146749284Y-116076920D01*
X146869926Y-116210906D01*
X147015788Y-116316881D01*
X147180491Y-116390212D01*
X147180496Y-116390214D01*
X147356852Y-116427700D01*
X147537148Y-116427700D01*
X147713504Y-116390214D01*
X147878212Y-116316881D01*
X148024074Y-116210906D01*
X148144716Y-116076920D01*
X148234864Y-115920779D01*
X148266309Y-115824000D01*
X156871576Y-115824000D01*
X156890422Y-116003308D01*
X156946136Y-116174779D01*
X157036284Y-116330920D01*
X157156926Y-116464906D01*
X157302788Y-116570881D01*
X157467491Y-116644212D01*
X157467496Y-116644214D01*
X157643852Y-116681700D01*
X157824148Y-116681700D01*
X158000504Y-116644214D01*
X158165212Y-116570881D01*
X158311074Y-116464906D01*
X158431716Y-116330920D01*
X158521864Y-116174779D01*
X158577578Y-116003308D01*
X158596424Y-115824000D01*
X158577578Y-115644692D01*
X158521864Y-115473221D01*
X158431716Y-115317080D01*
X158311074Y-115183094D01*
X158216398Y-115114308D01*
X158165211Y-115077118D01*
X158000508Y-115003787D01*
X158000503Y-115003785D01*
X157824148Y-114966300D01*
X157643852Y-114966300D01*
X157467496Y-115003785D01*
X157467491Y-115003787D01*
X157302788Y-115077118D01*
X157156924Y-115183095D01*
X157036283Y-115317081D01*
X156946135Y-115473222D01*
X156890423Y-115644688D01*
X156890422Y-115644690D01*
X156886881Y-115678378D01*
X156871576Y-115824000D01*
X148266309Y-115824000D01*
X148290578Y-115749308D01*
X148309424Y-115570000D01*
X148290578Y-115390692D01*
X148234864Y-115219221D01*
X148144716Y-115063080D01*
X148029392Y-114935000D01*
X172873576Y-114935000D01*
X172892422Y-115114309D01*
X172892423Y-115114311D01*
X172941655Y-115265834D01*
X172948136Y-115285779D01*
X173038284Y-115441920D01*
X173158926Y-115575906D01*
X173253599Y-115644690D01*
X173304788Y-115681881D01*
X173469491Y-115755212D01*
X173469496Y-115755214D01*
X173645852Y-115792700D01*
X173826148Y-115792700D01*
X174002504Y-115755214D01*
X174167212Y-115681881D01*
X174313074Y-115575906D01*
X174433716Y-115441920D01*
X174523864Y-115285779D01*
X174579578Y-115114308D01*
X174598424Y-114935003D01*
X176529506Y-114935003D01*
X176548621Y-115104662D01*
X176548623Y-115104672D01*
X176605016Y-115265833D01*
X176605018Y-115265836D01*
X176683468Y-115390688D01*
X176695858Y-115410407D01*
X176816593Y-115531142D01*
X176961166Y-115621983D01*
X177122329Y-115678377D01*
X177122335Y-115678377D01*
X177122337Y-115678378D01*
X177291996Y-115697494D01*
X177292000Y-115697494D01*
X177292004Y-115697494D01*
X177461662Y-115678378D01*
X177461661Y-115678378D01*
X177461671Y-115678377D01*
X177622834Y-115621983D01*
X177767407Y-115531142D01*
X177888142Y-115410407D01*
X177978983Y-115265834D01*
X178035377Y-115104671D01*
X178046744Y-115003785D01*
X178054494Y-114935003D01*
X178054494Y-114935000D01*
X179985576Y-114935000D01*
X180004422Y-115114309D01*
X180004423Y-115114311D01*
X180053655Y-115265834D01*
X180060136Y-115285779D01*
X180150284Y-115441920D01*
X180270926Y-115575906D01*
X180365599Y-115644690D01*
X180416788Y-115681881D01*
X180581491Y-115755212D01*
X180581496Y-115755214D01*
X180757852Y-115792700D01*
X180938148Y-115792700D01*
X181114504Y-115755214D01*
X181279212Y-115681881D01*
X181425074Y-115575906D01*
X181545716Y-115441920D01*
X181635864Y-115285779D01*
X181691578Y-115114308D01*
X181710424Y-114935000D01*
X181691578Y-114755692D01*
X181635864Y-114584221D01*
X181545716Y-114428080D01*
X181425074Y-114294094D01*
X181279212Y-114188119D01*
X181279211Y-114188118D01*
X181114508Y-114114787D01*
X181114503Y-114114785D01*
X180938148Y-114077300D01*
X180757852Y-114077300D01*
X180581496Y-114114785D01*
X180581491Y-114114787D01*
X180416788Y-114188118D01*
X180270924Y-114294095D01*
X180150283Y-114428081D01*
X180060135Y-114584222D01*
X180004423Y-114755688D01*
X180004422Y-114755690D01*
X179985576Y-114935000D01*
X178054494Y-114935000D01*
X178054494Y-114934996D01*
X178035378Y-114765337D01*
X178035377Y-114765335D01*
X178035377Y-114765329D01*
X177978983Y-114604166D01*
X177888142Y-114459593D01*
X177767407Y-114338858D01*
X177696167Y-114294095D01*
X177622836Y-114248018D01*
X177622833Y-114248016D01*
X177461672Y-114191623D01*
X177461662Y-114191621D01*
X177292004Y-114172506D01*
X177291996Y-114172506D01*
X177122337Y-114191621D01*
X177122327Y-114191623D01*
X176961166Y-114248016D01*
X176961163Y-114248018D01*
X176816592Y-114338858D01*
X176695858Y-114459592D01*
X176605018Y-114604163D01*
X176605016Y-114604166D01*
X176548623Y-114765327D01*
X176548621Y-114765337D01*
X176529506Y-114934996D01*
X176529506Y-114935003D01*
X174598424Y-114935003D01*
X174598424Y-114935000D01*
X174579578Y-114755692D01*
X174523864Y-114584221D01*
X174433716Y-114428080D01*
X174313074Y-114294094D01*
X174167212Y-114188119D01*
X174167211Y-114188118D01*
X174002508Y-114114787D01*
X174002503Y-114114785D01*
X173826148Y-114077300D01*
X173645852Y-114077300D01*
X173469496Y-114114785D01*
X173469491Y-114114787D01*
X173304788Y-114188118D01*
X173158924Y-114294095D01*
X173038283Y-114428081D01*
X172948135Y-114584222D01*
X172892423Y-114755688D01*
X172892422Y-114755690D01*
X172873576Y-114935000D01*
X148029392Y-114935000D01*
X148024074Y-114929094D01*
X147878212Y-114823119D01*
X147878211Y-114823118D01*
X147713508Y-114749787D01*
X147713503Y-114749785D01*
X147537148Y-114712300D01*
X147356852Y-114712300D01*
X147180496Y-114749785D01*
X147180491Y-114749787D01*
X147015788Y-114823118D01*
X146869924Y-114929095D01*
X146749283Y-115063081D01*
X146659135Y-115219222D01*
X146603423Y-115390688D01*
X146603422Y-115390690D01*
X146603422Y-115390692D01*
X146584576Y-115570000D01*
X64500500Y-115570000D01*
X64500500Y-110236000D01*
X124359576Y-110236000D01*
X124378422Y-110415309D01*
X124378423Y-110415311D01*
X124426959Y-110564692D01*
X124434136Y-110586779D01*
X124524284Y-110742920D01*
X124644926Y-110876906D01*
X124708797Y-110923311D01*
X124790788Y-110982881D01*
X124955491Y-111056212D01*
X124955496Y-111056214D01*
X125131852Y-111093700D01*
X125312148Y-111093700D01*
X125488504Y-111056214D01*
X125653212Y-110982881D01*
X125799074Y-110876906D01*
X125918744Y-110744000D01*
X137186576Y-110744000D01*
X137205422Y-110923309D01*
X137205423Y-110923311D01*
X137248605Y-111056214D01*
X137261136Y-111094779D01*
X137351284Y-111250920D01*
X137471926Y-111384906D01*
X137497779Y-111403689D01*
X137617788Y-111490881D01*
X137782491Y-111564212D01*
X137782496Y-111564214D01*
X137958852Y-111601700D01*
X138139148Y-111601700D01*
X138315504Y-111564214D01*
X138446254Y-111506000D01*
X140234576Y-111506000D01*
X140240694Y-111564214D01*
X140253422Y-111685308D01*
X140309136Y-111856779D01*
X140399284Y-112012920D01*
X140519926Y-112146906D01*
X140665788Y-112252881D01*
X140830491Y-112326212D01*
X140830496Y-112326214D01*
X141006852Y-112363700D01*
X141187148Y-112363700D01*
X141363504Y-112326214D01*
X141528212Y-112252881D01*
X141674074Y-112146906D01*
X141794716Y-112012920D01*
X141884864Y-111856779D01*
X141940578Y-111685308D01*
X141959424Y-111506000D01*
X141955894Y-111472417D01*
X141968461Y-111403689D01*
X142016192Y-111352664D01*
X142083932Y-111335545D01*
X142104990Y-111338164D01*
X142149852Y-111347700D01*
X142149853Y-111347700D01*
X142330148Y-111347700D01*
X142506504Y-111310214D01*
X142671212Y-111236881D01*
X142817074Y-111130906D01*
X142937716Y-110996920D01*
X142964805Y-110950000D01*
X148627576Y-110950000D01*
X148646422Y-111129309D01*
X148646423Y-111129311D01*
X148698728Y-111290292D01*
X148702136Y-111300779D01*
X148792284Y-111456920D01*
X148912926Y-111590906D01*
X148927783Y-111601700D01*
X149058788Y-111696881D01*
X149223491Y-111770212D01*
X149223496Y-111770214D01*
X149399852Y-111807700D01*
X149580148Y-111807700D01*
X149756504Y-111770214D01*
X149921212Y-111696881D01*
X150067074Y-111590906D01*
X150187716Y-111456920D01*
X150277864Y-111300779D01*
X150333578Y-111129308D01*
X150352424Y-110950000D01*
X150333578Y-110770692D01*
X150277864Y-110599221D01*
X150187716Y-110443080D01*
X150067074Y-110309094D01*
X149921212Y-110203119D01*
X149921211Y-110203118D01*
X149756508Y-110129787D01*
X149756503Y-110129785D01*
X149580148Y-110092300D01*
X149399852Y-110092300D01*
X149223496Y-110129785D01*
X149223491Y-110129787D01*
X149058788Y-110203118D01*
X148912924Y-110309095D01*
X148792283Y-110443081D01*
X148702135Y-110599222D01*
X148646423Y-110770688D01*
X148646422Y-110770690D01*
X148627576Y-110950000D01*
X142964805Y-110950000D01*
X143027864Y-110840779D01*
X143083578Y-110669308D01*
X143102424Y-110490000D01*
X143083578Y-110310692D01*
X143027864Y-110139221D01*
X142937716Y-109983080D01*
X142817074Y-109849094D01*
X142671212Y-109743119D01*
X142671211Y-109743118D01*
X142506508Y-109669787D01*
X142506503Y-109669785D01*
X142330148Y-109632300D01*
X142149852Y-109632300D01*
X141973496Y-109669785D01*
X141973491Y-109669787D01*
X141808788Y-109743118D01*
X141662924Y-109849095D01*
X141542283Y-109983081D01*
X141452135Y-110139222D01*
X141396423Y-110310688D01*
X141396422Y-110310690D01*
X141377576Y-110490000D01*
X141381106Y-110523582D01*
X141368537Y-110592312D01*
X141320805Y-110643336D01*
X141253065Y-110660454D01*
X141232007Y-110657835D01*
X141187148Y-110648300D01*
X141006852Y-110648300D01*
X140830496Y-110685785D01*
X140830491Y-110685787D01*
X140665788Y-110759118D01*
X140519924Y-110865095D01*
X140399283Y-110999081D01*
X140309135Y-111155222D01*
X140253423Y-111326688D01*
X140253422Y-111326690D01*
X140234576Y-111506000D01*
X138446254Y-111506000D01*
X138480212Y-111490881D01*
X138626074Y-111384906D01*
X138746716Y-111250920D01*
X138836864Y-111094779D01*
X138892578Y-110923308D01*
X138911424Y-110744000D01*
X138892578Y-110564692D01*
X138836864Y-110393221D01*
X138746716Y-110237080D01*
X138626074Y-110103094D01*
X138480212Y-109997119D01*
X138480211Y-109997118D01*
X138315508Y-109923787D01*
X138315503Y-109923785D01*
X138139148Y-109886300D01*
X137958852Y-109886300D01*
X137782496Y-109923785D01*
X137782491Y-109923787D01*
X137617788Y-109997118D01*
X137471924Y-110103095D01*
X137351283Y-110237081D01*
X137261135Y-110393222D01*
X137205423Y-110564688D01*
X137205422Y-110564690D01*
X137186576Y-110744000D01*
X125918744Y-110744000D01*
X125919716Y-110742920D01*
X126009864Y-110586779D01*
X126065578Y-110415308D01*
X126084424Y-110236000D01*
X126065578Y-110056692D01*
X126009864Y-109885221D01*
X125919716Y-109729080D01*
X125799074Y-109595094D01*
X125653212Y-109489119D01*
X125653211Y-109489118D01*
X125488508Y-109415787D01*
X125488503Y-109415785D01*
X125312148Y-109378300D01*
X125131852Y-109378300D01*
X124955496Y-109415785D01*
X124955491Y-109415787D01*
X124790788Y-109489118D01*
X124644924Y-109595095D01*
X124524283Y-109729081D01*
X124434135Y-109885222D01*
X124378423Y-110056688D01*
X124378422Y-110056690D01*
X124359576Y-110236000D01*
X64500500Y-110236000D01*
X64500500Y-107950000D01*
X81941576Y-107950000D01*
X81960422Y-108129309D01*
X81960423Y-108129311D01*
X82008959Y-108278692D01*
X82016136Y-108300779D01*
X82106284Y-108456920D01*
X82226926Y-108590906D01*
X82290797Y-108637311D01*
X82372788Y-108696881D01*
X82537491Y-108770212D01*
X82537496Y-108770214D01*
X82713852Y-108807700D01*
X82894148Y-108807700D01*
X83070504Y-108770214D01*
X83235212Y-108696881D01*
X83381074Y-108590906D01*
X83500744Y-108458000D01*
X100737576Y-108458000D01*
X100756422Y-108637309D01*
X100756423Y-108637311D01*
X100799605Y-108770214D01*
X100812136Y-108808779D01*
X100902284Y-108964920D01*
X101022926Y-109098906D01*
X101095840Y-109151881D01*
X101168788Y-109204881D01*
X101333491Y-109278212D01*
X101333496Y-109278214D01*
X101509852Y-109315700D01*
X101690148Y-109315700D01*
X101866504Y-109278214D01*
X102031212Y-109204881D01*
X102177074Y-109098906D01*
X102297716Y-108964920D01*
X102387864Y-108808779D01*
X102443578Y-108637308D01*
X102462424Y-108458000D01*
X105563576Y-108458000D01*
X105582422Y-108637309D01*
X105582423Y-108637311D01*
X105625605Y-108770214D01*
X105638136Y-108808779D01*
X105728284Y-108964920D01*
X105848926Y-109098906D01*
X105921840Y-109151881D01*
X105994788Y-109204881D01*
X106159491Y-109278212D01*
X106159496Y-109278214D01*
X106335852Y-109315700D01*
X106516148Y-109315700D01*
X106692504Y-109278214D01*
X106823254Y-109220000D01*
X108484576Y-109220000D01*
X108490694Y-109278214D01*
X108503422Y-109399308D01*
X108559136Y-109570779D01*
X108649284Y-109726920D01*
X108769926Y-109860906D01*
X108915788Y-109966881D01*
X109080491Y-110040212D01*
X109080496Y-110040214D01*
X109256852Y-110077700D01*
X109437148Y-110077700D01*
X109613504Y-110040214D01*
X109778212Y-109966881D01*
X109924074Y-109860906D01*
X110044716Y-109726920D01*
X110134864Y-109570779D01*
X110190578Y-109399308D01*
X110209424Y-109220000D01*
X110190578Y-109040692D01*
X110134864Y-108869221D01*
X110044716Y-108713080D01*
X109924074Y-108579094D01*
X109778212Y-108473119D01*
X109778211Y-108473118D01*
X109625217Y-108405000D01*
X138892576Y-108405000D01*
X138911422Y-108584309D01*
X138911423Y-108584311D01*
X138953262Y-108713081D01*
X138967136Y-108755779D01*
X139057284Y-108911920D01*
X139177926Y-109045906D01*
X139323788Y-109151881D01*
X139488491Y-109225212D01*
X139488496Y-109225214D01*
X139664852Y-109262700D01*
X139845148Y-109262700D01*
X140021504Y-109225214D01*
X140186212Y-109151881D01*
X140332074Y-109045906D01*
X140452716Y-108911920D01*
X140542864Y-108755779D01*
X140598578Y-108584308D01*
X140617424Y-108405000D01*
X140598578Y-108225692D01*
X140542864Y-108054221D01*
X140452716Y-107898080D01*
X140385113Y-107823000D01*
X152553576Y-107823000D01*
X152572422Y-108002309D01*
X152572423Y-108002311D01*
X152613687Y-108129311D01*
X152628136Y-108173779D01*
X152718284Y-108329920D01*
X152838926Y-108463906D01*
X152851607Y-108473119D01*
X152984788Y-108569881D01*
X153149491Y-108643212D01*
X153149496Y-108643214D01*
X153325852Y-108680700D01*
X153506148Y-108680700D01*
X153682504Y-108643214D01*
X153847212Y-108569881D01*
X153993074Y-108463906D01*
X154113716Y-108329920D01*
X154203864Y-108173779D01*
X154259578Y-108002308D01*
X154278424Y-107823000D01*
X154265076Y-107696000D01*
X181001576Y-107696000D01*
X181020422Y-107875309D01*
X181020423Y-107875311D01*
X181061687Y-108002311D01*
X181076136Y-108046779D01*
X181166284Y-108202920D01*
X181286926Y-108336906D01*
X181432788Y-108442881D01*
X181597491Y-108516212D01*
X181597496Y-108516214D01*
X181773852Y-108553700D01*
X181954148Y-108553700D01*
X182130504Y-108516214D01*
X182295212Y-108442881D01*
X182441074Y-108336906D01*
X182561716Y-108202920D01*
X182651864Y-108046779D01*
X182707578Y-107875308D01*
X182726424Y-107696000D01*
X182707578Y-107516692D01*
X182651864Y-107345221D01*
X182561716Y-107189080D01*
X182441074Y-107055094D01*
X182295212Y-106949119D01*
X182295211Y-106949118D01*
X182130508Y-106875787D01*
X182130503Y-106875785D01*
X181954148Y-106838300D01*
X181773852Y-106838300D01*
X181597496Y-106875785D01*
X181597491Y-106875787D01*
X181432788Y-106949118D01*
X181286924Y-107055095D01*
X181166283Y-107189081D01*
X181076135Y-107345222D01*
X181020423Y-107516688D01*
X181020422Y-107516690D01*
X181001576Y-107696000D01*
X154265076Y-107696000D01*
X154259578Y-107643692D01*
X154203864Y-107472221D01*
X154113716Y-107316080D01*
X153993074Y-107182094D01*
X153847212Y-107076119D01*
X153847211Y-107076118D01*
X153682508Y-107002787D01*
X153682503Y-107002785D01*
X153506148Y-106965300D01*
X153325852Y-106965300D01*
X153149496Y-107002785D01*
X153149491Y-107002787D01*
X152984788Y-107076118D01*
X152838924Y-107182095D01*
X152718283Y-107316081D01*
X152628135Y-107472222D01*
X152572423Y-107643688D01*
X152572422Y-107643690D01*
X152553576Y-107823000D01*
X140385113Y-107823000D01*
X140332074Y-107764094D01*
X140186212Y-107658119D01*
X140186211Y-107658118D01*
X140021508Y-107584787D01*
X140021503Y-107584785D01*
X139845148Y-107547300D01*
X139664852Y-107547300D01*
X139488496Y-107584785D01*
X139488491Y-107584787D01*
X139323788Y-107658118D01*
X139177924Y-107764095D01*
X139057283Y-107898081D01*
X138967135Y-108054222D01*
X138911423Y-108225688D01*
X138911422Y-108225690D01*
X138892576Y-108405000D01*
X109625217Y-108405000D01*
X109613508Y-108399787D01*
X109613503Y-108399785D01*
X109437148Y-108362300D01*
X109256852Y-108362300D01*
X109080496Y-108399785D01*
X109080491Y-108399787D01*
X108915788Y-108473118D01*
X108769924Y-108579095D01*
X108649283Y-108713081D01*
X108559135Y-108869222D01*
X108503423Y-109040688D01*
X108503422Y-109040690D01*
X108484576Y-109220000D01*
X106823254Y-109220000D01*
X106857212Y-109204881D01*
X107003074Y-109098906D01*
X107123716Y-108964920D01*
X107213864Y-108808779D01*
X107269578Y-108637308D01*
X107288424Y-108458000D01*
X107269578Y-108278692D01*
X107213864Y-108107221D01*
X107123716Y-107951080D01*
X107003074Y-107817094D01*
X106857212Y-107711119D01*
X106857211Y-107711118D01*
X106692508Y-107637787D01*
X106692503Y-107637785D01*
X106516148Y-107600300D01*
X106335852Y-107600300D01*
X106159496Y-107637785D01*
X106159491Y-107637787D01*
X105994788Y-107711118D01*
X105848924Y-107817095D01*
X105728283Y-107951081D01*
X105638135Y-108107222D01*
X105582423Y-108278688D01*
X105582422Y-108278690D01*
X105563576Y-108458000D01*
X102462424Y-108458000D01*
X102443578Y-108278692D01*
X102387864Y-108107221D01*
X102297716Y-107951080D01*
X102177074Y-107817094D01*
X102031212Y-107711119D01*
X102031211Y-107711118D01*
X101866508Y-107637787D01*
X101866503Y-107637785D01*
X101690148Y-107600300D01*
X101509852Y-107600300D01*
X101333496Y-107637785D01*
X101333491Y-107637787D01*
X101168788Y-107711118D01*
X101022924Y-107817095D01*
X100902283Y-107951081D01*
X100812135Y-108107222D01*
X100756423Y-108278688D01*
X100756422Y-108278690D01*
X100737576Y-108458000D01*
X83500744Y-108458000D01*
X83501716Y-108456920D01*
X83591864Y-108300779D01*
X83647578Y-108129308D01*
X83666424Y-107950000D01*
X83647578Y-107770692D01*
X83591864Y-107599221D01*
X83501716Y-107443080D01*
X83381074Y-107309094D01*
X83235212Y-107203119D01*
X83235211Y-107203118D01*
X83070508Y-107129787D01*
X83070503Y-107129785D01*
X82894148Y-107092300D01*
X82713852Y-107092300D01*
X82537496Y-107129785D01*
X82537491Y-107129787D01*
X82372788Y-107203118D01*
X82226924Y-107309095D01*
X82106283Y-107443081D01*
X82016135Y-107599222D01*
X81960423Y-107770688D01*
X81960422Y-107770690D01*
X81941576Y-107950000D01*
X64500500Y-107950000D01*
X64500500Y-106553000D01*
X69241576Y-106553000D01*
X69260422Y-106732309D01*
X69260423Y-106732311D01*
X69307040Y-106875786D01*
X69316136Y-106903779D01*
X69406284Y-107059920D01*
X69469191Y-107129785D01*
X69522581Y-107189081D01*
X69526926Y-107193906D01*
X69539607Y-107203119D01*
X69672788Y-107299881D01*
X69837491Y-107373212D01*
X69837496Y-107373214D01*
X70013852Y-107410700D01*
X70194148Y-107410700D01*
X70370504Y-107373214D01*
X70535212Y-107299881D01*
X70681074Y-107193906D01*
X70801716Y-107059920D01*
X70891864Y-106903779D01*
X70947578Y-106732308D01*
X70953076Y-106680000D01*
X124359576Y-106680000D01*
X124378422Y-106859309D01*
X124378423Y-106859311D01*
X124425040Y-107002786D01*
X124434136Y-107030779D01*
X124524284Y-107186920D01*
X124538869Y-107203118D01*
X124640581Y-107316081D01*
X124644926Y-107320906D01*
X124716919Y-107373212D01*
X124790788Y-107426881D01*
X124955491Y-107500212D01*
X124955496Y-107500214D01*
X125131852Y-107537700D01*
X125312148Y-107537700D01*
X125488504Y-107500214D01*
X125653212Y-107426881D01*
X125799074Y-107320906D01*
X125919716Y-107186920D01*
X126009864Y-107030779D01*
X126065578Y-106859308D01*
X126084424Y-106680000D01*
X126065578Y-106500692D01*
X126009864Y-106329221D01*
X125919716Y-106173080D01*
X125799074Y-106039094D01*
X125653212Y-105933119D01*
X125653211Y-105933118D01*
X125488508Y-105859787D01*
X125488503Y-105859785D01*
X125312148Y-105822300D01*
X125131852Y-105822300D01*
X124955496Y-105859785D01*
X124955491Y-105859787D01*
X124790788Y-105933118D01*
X124644924Y-106039095D01*
X124524283Y-106173081D01*
X124434135Y-106329222D01*
X124378423Y-106500688D01*
X124378422Y-106500690D01*
X124359576Y-106680000D01*
X70953076Y-106680000D01*
X70966424Y-106553000D01*
X70947578Y-106373692D01*
X70891864Y-106202221D01*
X70801716Y-106046080D01*
X70681074Y-105912094D01*
X70535212Y-105806119D01*
X70535211Y-105806118D01*
X70370508Y-105732787D01*
X70370503Y-105732785D01*
X70194148Y-105695300D01*
X70013852Y-105695300D01*
X69837496Y-105732785D01*
X69837491Y-105732787D01*
X69672788Y-105806118D01*
X69526924Y-105912095D01*
X69406283Y-106046081D01*
X69316135Y-106202222D01*
X69260423Y-106373688D01*
X69260422Y-106373690D01*
X69241576Y-106553000D01*
X64500500Y-106553000D01*
X64500500Y-105029000D01*
X102261576Y-105029000D01*
X102280422Y-105208308D01*
X102336136Y-105379779D01*
X102426284Y-105535920D01*
X102546926Y-105669906D01*
X102692788Y-105775881D01*
X102857491Y-105849212D01*
X102857496Y-105849214D01*
X103033852Y-105886700D01*
X103214148Y-105886700D01*
X103390504Y-105849214D01*
X103555212Y-105775881D01*
X103701074Y-105669906D01*
X103821716Y-105535920D01*
X103842113Y-105500590D01*
X103892679Y-105452376D01*
X103961286Y-105439152D01*
X104026151Y-105465120D01*
X104056886Y-105500589D01*
X104077284Y-105535920D01*
X104197926Y-105669906D01*
X104343788Y-105775881D01*
X104508491Y-105849212D01*
X104508496Y-105849214D01*
X104684852Y-105886700D01*
X104865148Y-105886700D01*
X105041504Y-105849214D01*
X105172254Y-105791000D01*
X139345576Y-105791000D01*
X139351694Y-105849214D01*
X139364422Y-105970308D01*
X139420136Y-106141779D01*
X139510284Y-106297920D01*
X139630926Y-106431906D01*
X139725599Y-106500690D01*
X139776788Y-106537881D01*
X139941491Y-106611212D01*
X139941496Y-106611214D01*
X140117852Y-106648700D01*
X140298148Y-106648700D01*
X140474504Y-106611214D01*
X140639212Y-106537881D01*
X140785074Y-106431906D01*
X140905716Y-106297920D01*
X140995864Y-106141779D01*
X141027309Y-106045000D01*
X143282576Y-106045000D01*
X143301422Y-106224309D01*
X143301423Y-106224311D01*
X143349959Y-106373692D01*
X143357136Y-106395779D01*
X143447284Y-106551920D01*
X143567926Y-106685906D01*
X143631797Y-106732311D01*
X143713788Y-106791881D01*
X143878491Y-106865212D01*
X143878496Y-106865214D01*
X144054852Y-106902700D01*
X144235148Y-106902700D01*
X144411504Y-106865214D01*
X144576212Y-106791881D01*
X144722074Y-106685906D01*
X144842716Y-106551920D01*
X144932864Y-106395779D01*
X144988578Y-106224308D01*
X145007424Y-106045000D01*
X147311576Y-106045000D01*
X147330422Y-106224309D01*
X147330423Y-106224311D01*
X147378959Y-106373692D01*
X147386136Y-106395779D01*
X147476284Y-106551920D01*
X147596926Y-106685906D01*
X147660797Y-106732311D01*
X147742788Y-106791881D01*
X147907491Y-106865212D01*
X147907496Y-106865214D01*
X148083852Y-106902700D01*
X148264148Y-106902700D01*
X148440504Y-106865214D01*
X148605212Y-106791881D01*
X148751074Y-106685906D01*
X148871716Y-106551920D01*
X148961864Y-106395779D01*
X149017578Y-106224308D01*
X149036424Y-106045000D01*
X149017578Y-105865692D01*
X148961864Y-105694221D01*
X148944416Y-105664000D01*
X181001576Y-105664000D01*
X181020422Y-105843309D01*
X181020423Y-105843311D01*
X181061687Y-105970311D01*
X181076136Y-106014779D01*
X181166284Y-106170920D01*
X181286926Y-106304906D01*
X181381599Y-106373690D01*
X181432788Y-106410881D01*
X181597491Y-106484212D01*
X181597496Y-106484214D01*
X181773852Y-106521700D01*
X181954148Y-106521700D01*
X182130504Y-106484214D01*
X182295212Y-106410881D01*
X182441074Y-106304906D01*
X182561716Y-106170920D01*
X182651864Y-106014779D01*
X182707578Y-105843308D01*
X182726424Y-105664000D01*
X182707578Y-105484692D01*
X182651864Y-105313221D01*
X182561716Y-105157080D01*
X182441074Y-105023094D01*
X182295212Y-104917119D01*
X182295211Y-104917118D01*
X182130508Y-104843787D01*
X182130503Y-104843785D01*
X181954148Y-104806300D01*
X181773852Y-104806300D01*
X181597496Y-104843785D01*
X181597491Y-104843787D01*
X181432788Y-104917118D01*
X181286924Y-105023095D01*
X181166283Y-105157081D01*
X181076135Y-105313222D01*
X181020423Y-105484688D01*
X181020422Y-105484690D01*
X181001576Y-105664000D01*
X148944416Y-105664000D01*
X148871716Y-105538080D01*
X148751074Y-105404094D01*
X148678143Y-105351106D01*
X148605211Y-105298118D01*
X148440508Y-105224787D01*
X148440503Y-105224785D01*
X148264148Y-105187300D01*
X148083852Y-105187300D01*
X147907496Y-105224785D01*
X147907491Y-105224787D01*
X147742788Y-105298118D01*
X147596924Y-105404095D01*
X147476283Y-105538081D01*
X147386135Y-105694222D01*
X147330423Y-105865688D01*
X147330422Y-105865690D01*
X147311576Y-106045000D01*
X145007424Y-106045000D01*
X144988578Y-105865692D01*
X144932864Y-105694221D01*
X144842716Y-105538080D01*
X144722074Y-105404094D01*
X144649143Y-105351106D01*
X144576211Y-105298118D01*
X144411508Y-105224787D01*
X144411503Y-105224785D01*
X144235148Y-105187300D01*
X144054852Y-105187300D01*
X143878496Y-105224785D01*
X143878491Y-105224787D01*
X143713788Y-105298118D01*
X143567924Y-105404095D01*
X143447283Y-105538081D01*
X143357135Y-105694222D01*
X143301423Y-105865688D01*
X143301422Y-105865690D01*
X143282576Y-106045000D01*
X141027309Y-106045000D01*
X141051578Y-105970308D01*
X141070424Y-105791000D01*
X141051578Y-105611692D01*
X140995864Y-105440221D01*
X140905716Y-105284080D01*
X140785074Y-105150094D01*
X140639212Y-105044119D01*
X140639211Y-105044118D01*
X140474508Y-104970787D01*
X140474503Y-104970785D01*
X140298148Y-104933300D01*
X140117852Y-104933300D01*
X139941496Y-104970785D01*
X139941491Y-104970787D01*
X139776788Y-105044118D01*
X139630924Y-105150095D01*
X139510283Y-105284081D01*
X139420135Y-105440222D01*
X139364423Y-105611688D01*
X139364422Y-105611690D01*
X139345576Y-105791000D01*
X105172254Y-105791000D01*
X105206212Y-105775881D01*
X105352074Y-105669906D01*
X105472716Y-105535920D01*
X105562864Y-105379779D01*
X105618578Y-105208308D01*
X105637424Y-105029000D01*
X105618578Y-104849692D01*
X105562864Y-104678221D01*
X105472716Y-104522080D01*
X105352074Y-104388094D01*
X105206212Y-104282119D01*
X105206211Y-104282118D01*
X105041508Y-104208787D01*
X105041503Y-104208785D01*
X104865148Y-104171300D01*
X104684852Y-104171300D01*
X104508496Y-104208785D01*
X104508491Y-104208787D01*
X104343788Y-104282118D01*
X104197924Y-104388095D01*
X104077282Y-104522081D01*
X104056887Y-104557408D01*
X104006320Y-104605624D01*
X103937713Y-104618847D01*
X103872848Y-104592879D01*
X103842113Y-104557408D01*
X103830798Y-104537811D01*
X103821716Y-104522080D01*
X103766635Y-104460906D01*
X103701075Y-104388095D01*
X103663066Y-104360480D01*
X103555212Y-104282119D01*
X103555211Y-104282118D01*
X103390508Y-104208787D01*
X103390503Y-104208785D01*
X103214148Y-104171300D01*
X103033852Y-104171300D01*
X102857496Y-104208785D01*
X102857491Y-104208787D01*
X102692788Y-104282118D01*
X102546924Y-104388095D01*
X102426283Y-104522081D01*
X102336135Y-104678222D01*
X102280423Y-104849688D01*
X102280422Y-104849690D01*
X102267694Y-104970787D01*
X102261576Y-105029000D01*
X64500500Y-105029000D01*
X64500500Y-102489000D01*
X72416576Y-102489000D01*
X72435422Y-102668309D01*
X72435423Y-102668311D01*
X72483959Y-102817692D01*
X72491136Y-102839779D01*
X72581284Y-102995920D01*
X72635261Y-103055867D01*
X72690701Y-103117440D01*
X72701926Y-103129906D01*
X72769629Y-103179095D01*
X72847788Y-103235881D01*
X73012491Y-103309212D01*
X73012496Y-103309214D01*
X73188852Y-103346700D01*
X73369148Y-103346700D01*
X73545504Y-103309214D01*
X73710212Y-103235881D01*
X73856074Y-103129906D01*
X73976716Y-102995920D01*
X74066864Y-102839779D01*
X74122578Y-102668308D01*
X74141424Y-102489000D01*
X79274576Y-102489000D01*
X79293422Y-102668309D01*
X79293423Y-102668311D01*
X79341959Y-102817692D01*
X79349136Y-102839779D01*
X79439284Y-102995920D01*
X79493261Y-103055867D01*
X79548701Y-103117440D01*
X79559926Y-103129906D01*
X79627629Y-103179095D01*
X79705788Y-103235881D01*
X79870491Y-103309212D01*
X79870496Y-103309214D01*
X80046852Y-103346700D01*
X80227148Y-103346700D01*
X80403504Y-103309214D01*
X80568212Y-103235881D01*
X80714074Y-103129906D01*
X80833744Y-102997000D01*
X137059576Y-102997000D01*
X137078422Y-103176309D01*
X137078423Y-103176311D01*
X137122861Y-103313080D01*
X137134136Y-103347779D01*
X137224284Y-103503920D01*
X137344926Y-103637906D01*
X137348761Y-103640692D01*
X137490788Y-103743881D01*
X137655491Y-103817212D01*
X137655496Y-103817214D01*
X137831852Y-103854700D01*
X138012148Y-103854700D01*
X138175397Y-103820000D01*
X148637576Y-103820000D01*
X148656422Y-103999309D01*
X148656423Y-103999311D01*
X148681881Y-104077665D01*
X148712136Y-104170779D01*
X148802284Y-104326920D01*
X148922926Y-104460906D01*
X149000729Y-104517433D01*
X149068788Y-104566881D01*
X149233491Y-104640212D01*
X149233496Y-104640214D01*
X149409852Y-104677700D01*
X149590148Y-104677700D01*
X149766504Y-104640214D01*
X149931212Y-104566881D01*
X150077074Y-104460906D01*
X150197716Y-104326920D01*
X150287864Y-104170779D01*
X150343578Y-103999308D01*
X150362424Y-103820000D01*
X150352439Y-103725003D01*
X183630189Y-103725003D01*
X183650566Y-103905861D01*
X183710682Y-104077664D01*
X183793071Y-104208785D01*
X183807519Y-104231779D01*
X183936221Y-104360481D01*
X184090335Y-104457317D01*
X184262133Y-104517432D01*
X184262136Y-104517432D01*
X184262138Y-104517433D01*
X184442996Y-104537811D01*
X184443000Y-104537811D01*
X184443004Y-104537811D01*
X184623861Y-104517433D01*
X184623862Y-104517432D01*
X184623867Y-104517432D01*
X184795665Y-104457317D01*
X184949779Y-104360481D01*
X185030319Y-104279941D01*
X185091642Y-104246456D01*
X185161334Y-104251440D01*
X185205681Y-104279941D01*
X185286221Y-104360481D01*
X185440335Y-104457317D01*
X185612133Y-104517432D01*
X185612136Y-104517432D01*
X185612138Y-104517433D01*
X185792996Y-104537811D01*
X185793000Y-104537811D01*
X185793004Y-104537811D01*
X185973861Y-104517433D01*
X185973862Y-104517432D01*
X185973867Y-104517432D01*
X186145665Y-104457317D01*
X186299779Y-104360481D01*
X186428481Y-104231779D01*
X186525317Y-104077665D01*
X186585432Y-103905867D01*
X186585433Y-103905861D01*
X186605811Y-103725003D01*
X186605811Y-103724996D01*
X186585433Y-103544138D01*
X186585432Y-103544136D01*
X186585432Y-103544133D01*
X186525317Y-103372335D01*
X186523614Y-103369626D01*
X186521320Y-103365973D01*
X186502319Y-103298736D01*
X186521320Y-103234027D01*
X186522654Y-103231902D01*
X186525317Y-103227665D01*
X186585432Y-103055867D01*
X186592065Y-102997000D01*
X186605811Y-102875003D01*
X186605811Y-102874996D01*
X186585433Y-102694138D01*
X186585432Y-102694136D01*
X186585432Y-102694133D01*
X186525317Y-102522335D01*
X186523614Y-102519626D01*
X186521320Y-102515973D01*
X186502319Y-102448736D01*
X186521320Y-102384027D01*
X186522654Y-102381902D01*
X186525317Y-102377665D01*
X186585432Y-102205867D01*
X186590565Y-102160311D01*
X186605811Y-102025003D01*
X186605811Y-102024996D01*
X186585433Y-101844138D01*
X186585432Y-101844136D01*
X186585432Y-101844133D01*
X186525317Y-101672335D01*
X186523087Y-101668786D01*
X186521320Y-101665973D01*
X186502319Y-101598736D01*
X186521320Y-101534027D01*
X186522654Y-101531902D01*
X186525317Y-101527665D01*
X186585432Y-101355867D01*
X186587209Y-101340095D01*
X186605811Y-101175003D01*
X186605811Y-101174996D01*
X186585433Y-100994138D01*
X186585432Y-100994136D01*
X186585432Y-100994133D01*
X186525317Y-100822335D01*
X186523614Y-100819626D01*
X186521320Y-100815973D01*
X186502319Y-100748736D01*
X186521320Y-100684027D01*
X186522654Y-100681902D01*
X186525317Y-100677665D01*
X186585432Y-100505867D01*
X186585433Y-100505860D01*
X186605811Y-100325003D01*
X186605811Y-100324996D01*
X186585433Y-100144138D01*
X186585432Y-100144136D01*
X186585432Y-100144133D01*
X186525317Y-99972335D01*
X186523614Y-99969626D01*
X186521320Y-99965973D01*
X186502319Y-99898736D01*
X186521320Y-99834027D01*
X186522654Y-99831902D01*
X186525317Y-99827665D01*
X186585432Y-99655867D01*
X186585433Y-99655860D01*
X186605811Y-99475003D01*
X186605811Y-99474996D01*
X186585433Y-99294138D01*
X186585432Y-99294136D01*
X186585432Y-99294133D01*
X186525317Y-99122335D01*
X186428481Y-98968221D01*
X186299779Y-98839519D01*
X186237036Y-98800095D01*
X186145664Y-98742682D01*
X185973861Y-98682566D01*
X185793004Y-98662189D01*
X185792996Y-98662189D01*
X185612138Y-98682566D01*
X185440335Y-98742682D01*
X185286220Y-98839519D01*
X185205681Y-98920059D01*
X185144358Y-98953544D01*
X185074666Y-98948560D01*
X185030319Y-98920059D01*
X184949779Y-98839519D01*
X184795664Y-98742682D01*
X184623861Y-98682566D01*
X184443004Y-98662189D01*
X184442996Y-98662189D01*
X184262138Y-98682566D01*
X184090335Y-98742682D01*
X183936220Y-98839519D01*
X183807519Y-98968220D01*
X183710682Y-99122335D01*
X183650566Y-99294138D01*
X183630189Y-99474996D01*
X183630189Y-99475003D01*
X183650566Y-99655860D01*
X183710682Y-99827664D01*
X183714683Y-99834031D01*
X183733681Y-99901268D01*
X183714683Y-99965969D01*
X183710682Y-99972335D01*
X183650566Y-100144139D01*
X183630189Y-100324996D01*
X183630189Y-100325003D01*
X183650566Y-100505860D01*
X183710682Y-100677664D01*
X183714683Y-100684031D01*
X183733681Y-100751268D01*
X183714683Y-100815969D01*
X183710682Y-100822335D01*
X183650566Y-100994139D01*
X183630189Y-101174996D01*
X183630189Y-101175003D01*
X183650566Y-101355860D01*
X183710682Y-101527664D01*
X183714683Y-101534031D01*
X183733681Y-101601268D01*
X183714683Y-101665969D01*
X183710682Y-101672335D01*
X183650566Y-101844139D01*
X183630189Y-102024996D01*
X183630189Y-102025003D01*
X183650566Y-102205860D01*
X183650567Y-102205865D01*
X183650568Y-102205867D01*
X183666052Y-102250118D01*
X183710682Y-102377664D01*
X183714683Y-102384031D01*
X183733681Y-102451268D01*
X183714683Y-102515969D01*
X183710682Y-102522335D01*
X183650566Y-102694139D01*
X183630189Y-102874996D01*
X183630189Y-102875003D01*
X183650566Y-103055860D01*
X183650567Y-103055865D01*
X183650568Y-103055867D01*
X183663834Y-103093779D01*
X183710682Y-103227664D01*
X183714683Y-103234031D01*
X183733681Y-103301268D01*
X183714683Y-103365969D01*
X183710682Y-103372335D01*
X183650566Y-103544139D01*
X183630189Y-103724996D01*
X183630189Y-103725003D01*
X150352439Y-103725003D01*
X150343578Y-103640692D01*
X150287864Y-103469221D01*
X150197716Y-103313080D01*
X150077074Y-103179094D01*
X149959648Y-103093779D01*
X149931211Y-103073118D01*
X149766508Y-102999787D01*
X149766503Y-102999785D01*
X149590148Y-102962300D01*
X149409852Y-102962300D01*
X149233496Y-102999785D01*
X149233491Y-102999787D01*
X149068788Y-103073118D01*
X148922924Y-103179095D01*
X148802283Y-103313081D01*
X148712135Y-103469222D01*
X148656423Y-103640688D01*
X148656422Y-103640690D01*
X148637576Y-103820000D01*
X138175397Y-103820000D01*
X138188504Y-103817214D01*
X138353212Y-103743881D01*
X138499074Y-103637906D01*
X138619716Y-103503920D01*
X138709864Y-103347779D01*
X138765578Y-103176308D01*
X138784424Y-102997000D01*
X138765578Y-102817692D01*
X138709864Y-102646221D01*
X138619716Y-102490080D01*
X138499074Y-102356094D01*
X138353212Y-102250119D01*
X138353211Y-102250118D01*
X138188508Y-102176787D01*
X138188503Y-102176785D01*
X138012148Y-102139300D01*
X137831852Y-102139300D01*
X137655496Y-102176785D01*
X137655491Y-102176787D01*
X137490788Y-102250118D01*
X137344924Y-102356095D01*
X137224283Y-102490081D01*
X137134135Y-102646222D01*
X137078423Y-102817688D01*
X137078422Y-102817690D01*
X137059576Y-102997000D01*
X80833744Y-102997000D01*
X80834716Y-102995920D01*
X80924864Y-102839779D01*
X80980578Y-102668308D01*
X80999424Y-102489000D01*
X80980578Y-102309692D01*
X80924864Y-102138221D01*
X80834716Y-101982080D01*
X80714074Y-101848094D01*
X80568212Y-101742119D01*
X80568211Y-101742118D01*
X80403508Y-101668787D01*
X80403503Y-101668785D01*
X80227148Y-101631300D01*
X80046852Y-101631300D01*
X79870496Y-101668785D01*
X79870491Y-101668787D01*
X79705788Y-101742118D01*
X79559924Y-101848095D01*
X79439283Y-101982081D01*
X79349135Y-102138222D01*
X79293423Y-102309688D01*
X79293422Y-102309690D01*
X79274576Y-102489000D01*
X74141424Y-102489000D01*
X74122578Y-102309692D01*
X74066864Y-102138221D01*
X73976716Y-101982080D01*
X73856074Y-101848094D01*
X73710212Y-101742119D01*
X73710211Y-101742118D01*
X73545508Y-101668787D01*
X73545503Y-101668785D01*
X73369148Y-101631300D01*
X73188852Y-101631300D01*
X73012496Y-101668785D01*
X73012491Y-101668787D01*
X72847788Y-101742118D01*
X72701924Y-101848095D01*
X72581283Y-101982081D01*
X72491135Y-102138222D01*
X72435423Y-102309688D01*
X72435422Y-102309690D01*
X72416576Y-102489000D01*
X64500500Y-102489000D01*
X64500500Y-101473000D01*
X112675576Y-101473000D01*
X112694422Y-101652309D01*
X112694423Y-101652311D01*
X112742959Y-101801692D01*
X112750136Y-101823779D01*
X112840284Y-101979920D01*
X112960926Y-102113906D01*
X113085999Y-102204777D01*
X113106788Y-102219881D01*
X113271491Y-102293212D01*
X113271496Y-102293214D01*
X113447852Y-102330700D01*
X113628148Y-102330700D01*
X113804504Y-102293214D01*
X113969212Y-102219881D01*
X114115074Y-102113906D01*
X114234744Y-101981000D01*
X144171576Y-101981000D01*
X144190422Y-102160309D01*
X144190423Y-102160311D01*
X144238959Y-102309692D01*
X144246136Y-102331779D01*
X144336284Y-102487920D01*
X144456926Y-102621906D01*
X144520797Y-102668311D01*
X144602788Y-102727881D01*
X144767491Y-102801212D01*
X144767496Y-102801214D01*
X144943852Y-102838700D01*
X145124147Y-102838700D01*
X145124148Y-102838700D01*
X145215221Y-102819341D01*
X145284887Y-102824656D01*
X145333152Y-102857659D01*
X145348768Y-102875003D01*
X145405612Y-102938134D01*
X145551474Y-103044109D01*
X145716177Y-103117440D01*
X145716182Y-103117442D01*
X145892538Y-103154928D01*
X146072834Y-103154928D01*
X146249190Y-103117442D01*
X146413898Y-103044109D01*
X146559760Y-102938134D01*
X146680402Y-102804148D01*
X146715706Y-102743000D01*
X165380576Y-102743000D01*
X165399422Y-102922309D01*
X165399423Y-102922311D01*
X165442817Y-103055867D01*
X165455136Y-103093779D01*
X165545284Y-103249920D01*
X165665926Y-103383906D01*
X165783352Y-103469221D01*
X165811788Y-103489881D01*
X165976491Y-103563212D01*
X165976496Y-103563214D01*
X166152852Y-103600700D01*
X166333148Y-103600700D01*
X166509504Y-103563214D01*
X166674212Y-103489881D01*
X166820074Y-103383906D01*
X166940716Y-103249920D01*
X167030864Y-103093779D01*
X167086578Y-102922308D01*
X167105424Y-102743000D01*
X167086578Y-102563692D01*
X167030864Y-102392221D01*
X166940716Y-102236080D01*
X166820074Y-102102094D01*
X166725398Y-102033308D01*
X166674211Y-101996118D01*
X166509508Y-101922787D01*
X166509503Y-101922785D01*
X166333148Y-101885300D01*
X166152852Y-101885300D01*
X165976496Y-101922785D01*
X165976491Y-101922787D01*
X165811788Y-101996118D01*
X165665924Y-102102095D01*
X165545283Y-102236081D01*
X165455135Y-102392222D01*
X165399423Y-102563688D01*
X165399422Y-102563690D01*
X165380576Y-102743000D01*
X146715706Y-102743000D01*
X146770550Y-102648007D01*
X146777033Y-102628052D01*
X146816468Y-102570379D01*
X146880826Y-102543179D01*
X146949672Y-102555091D01*
X146967849Y-102566052D01*
X147015783Y-102600878D01*
X147015788Y-102600881D01*
X147180491Y-102674212D01*
X147180496Y-102674214D01*
X147356852Y-102711700D01*
X147537148Y-102711700D01*
X147713504Y-102674214D01*
X147878212Y-102600881D01*
X148024074Y-102494906D01*
X148144716Y-102360920D01*
X148234864Y-102204779D01*
X148290578Y-102033308D01*
X148309424Y-101854000D01*
X148290578Y-101674692D01*
X148234864Y-101503221D01*
X148144716Y-101347080D01*
X148024074Y-101213094D01*
X147900483Y-101123300D01*
X147878211Y-101107118D01*
X147713508Y-101033787D01*
X147713503Y-101033785D01*
X147537148Y-100996300D01*
X147356852Y-100996300D01*
X147180496Y-101033785D01*
X147180491Y-101033787D01*
X147015788Y-101107118D01*
X146869924Y-101213095D01*
X146749283Y-101347081D01*
X146659134Y-101503224D01*
X146652651Y-101523177D01*
X146613213Y-101580852D01*
X146548854Y-101608049D01*
X146480007Y-101596133D01*
X146461836Y-101585175D01*
X146413902Y-101550349D01*
X146413897Y-101550346D01*
X146249194Y-101477015D01*
X146249189Y-101477013D01*
X146072834Y-101439528D01*
X145892538Y-101439528D01*
X145892536Y-101439528D01*
X145801463Y-101458886D01*
X145731796Y-101453570D01*
X145683533Y-101420568D01*
X145611075Y-101340095D01*
X145465211Y-101234118D01*
X145300508Y-101160787D01*
X145300503Y-101160785D01*
X145124148Y-101123300D01*
X144943852Y-101123300D01*
X144767496Y-101160785D01*
X144767491Y-101160787D01*
X144602788Y-101234118D01*
X144456924Y-101340095D01*
X144336283Y-101474081D01*
X144246135Y-101630222D01*
X144190423Y-101801688D01*
X144190422Y-101801690D01*
X144171576Y-101981000D01*
X114234744Y-101981000D01*
X114235716Y-101979920D01*
X114325864Y-101823779D01*
X114381578Y-101652308D01*
X114400424Y-101473000D01*
X114381578Y-101293692D01*
X114325864Y-101122221D01*
X114235716Y-100966080D01*
X114115074Y-100832094D01*
X114003827Y-100751268D01*
X113969211Y-100726118D01*
X113804508Y-100652787D01*
X113804503Y-100652785D01*
X113628148Y-100615300D01*
X113447852Y-100615300D01*
X113271496Y-100652785D01*
X113271491Y-100652787D01*
X113106788Y-100726118D01*
X112960924Y-100832095D01*
X112840283Y-100966081D01*
X112750135Y-101122222D01*
X112694423Y-101293688D01*
X112694422Y-101293690D01*
X112675576Y-101473000D01*
X64500500Y-101473000D01*
X64500500Y-100110000D01*
X76187576Y-100110000D01*
X76191163Y-100144133D01*
X76206422Y-100289308D01*
X76262136Y-100460779D01*
X76352284Y-100616920D01*
X76472926Y-100750906D01*
X76562483Y-100815973D01*
X76618788Y-100856881D01*
X76783491Y-100930212D01*
X76783496Y-100930214D01*
X76959852Y-100967700D01*
X77140148Y-100967700D01*
X77316504Y-100930214D01*
X77481212Y-100856881D01*
X77627074Y-100750906D01*
X77747716Y-100616920D01*
X77837864Y-100460779D01*
X77893578Y-100289308D01*
X77912424Y-100110000D01*
X77893578Y-99930692D01*
X77837864Y-99759221D01*
X77747716Y-99603080D01*
X77627074Y-99469094D01*
X77588406Y-99441000D01*
X167031576Y-99441000D01*
X167050422Y-99620309D01*
X167050423Y-99620311D01*
X167095557Y-99759222D01*
X167106136Y-99791779D01*
X167196284Y-99947920D01*
X167316926Y-100081906D01*
X167462788Y-100187881D01*
X167627491Y-100261212D01*
X167627496Y-100261214D01*
X167803852Y-100298700D01*
X167984148Y-100298700D01*
X168160504Y-100261214D01*
X168325212Y-100187881D01*
X168471074Y-100081906D01*
X168591716Y-99947920D01*
X168681864Y-99791779D01*
X168737578Y-99620308D01*
X168756424Y-99441000D01*
X168737578Y-99261692D01*
X168681864Y-99090221D01*
X168664416Y-99060000D01*
X173254576Y-99060000D01*
X173273422Y-99239309D01*
X173273423Y-99239311D01*
X173289823Y-99289787D01*
X173329136Y-99410779D01*
X173419284Y-99566920D01*
X173539926Y-99700906D01*
X173620190Y-99759221D01*
X173685788Y-99806881D01*
X173850491Y-99880212D01*
X173850496Y-99880214D01*
X174026852Y-99917700D01*
X174207148Y-99917700D01*
X174383504Y-99880214D01*
X174548212Y-99806881D01*
X174694074Y-99700906D01*
X174814716Y-99566920D01*
X174904864Y-99410779D01*
X174960578Y-99239308D01*
X174979424Y-99060000D01*
X174960578Y-98880692D01*
X174904864Y-98709221D01*
X174814716Y-98553080D01*
X174694074Y-98419094D01*
X174548212Y-98313119D01*
X174548211Y-98313118D01*
X174383508Y-98239787D01*
X174383503Y-98239785D01*
X174207148Y-98202300D01*
X174026852Y-98202300D01*
X173850496Y-98239785D01*
X173850491Y-98239787D01*
X173685788Y-98313118D01*
X173539924Y-98419095D01*
X173419283Y-98553081D01*
X173329135Y-98709222D01*
X173273423Y-98880688D01*
X173273422Y-98880690D01*
X173254576Y-99060000D01*
X168664416Y-99060000D01*
X168591716Y-98934080D01*
X168471074Y-98800094D01*
X168392053Y-98742682D01*
X168325211Y-98694118D01*
X168160508Y-98620787D01*
X168160503Y-98620785D01*
X167984148Y-98583300D01*
X167803852Y-98583300D01*
X167627496Y-98620785D01*
X167627491Y-98620787D01*
X167462788Y-98694118D01*
X167316924Y-98800095D01*
X167196283Y-98934081D01*
X167106135Y-99090222D01*
X167050423Y-99261688D01*
X167050422Y-99261690D01*
X167031576Y-99441000D01*
X77588406Y-99441000D01*
X77481212Y-99363119D01*
X77481211Y-99363118D01*
X77316508Y-99289787D01*
X77316503Y-99289785D01*
X77140148Y-99252300D01*
X76959852Y-99252300D01*
X76783496Y-99289785D01*
X76783491Y-99289787D01*
X76618788Y-99363118D01*
X76472924Y-99469095D01*
X76352283Y-99603081D01*
X76262135Y-99759222D01*
X76206423Y-99930688D01*
X76206422Y-99930690D01*
X76187576Y-100110000D01*
X64500500Y-100110000D01*
X64500500Y-98425000D01*
X144044576Y-98425000D01*
X144063422Y-98604309D01*
X144063423Y-98604311D01*
X144108382Y-98742683D01*
X144119136Y-98775779D01*
X144209284Y-98931920D01*
X144329926Y-99065906D01*
X144407594Y-99122335D01*
X144475788Y-99171881D01*
X144640491Y-99245212D01*
X144640496Y-99245214D01*
X144816852Y-99282700D01*
X144997148Y-99282700D01*
X145173504Y-99245214D01*
X145338212Y-99171881D01*
X145484074Y-99065906D01*
X145604716Y-98931920D01*
X145694864Y-98775779D01*
X145750578Y-98604308D01*
X145769424Y-98425000D01*
X145750578Y-98245692D01*
X145694864Y-98074221D01*
X145604716Y-97918080D01*
X145484074Y-97784094D01*
X145338212Y-97678119D01*
X145338211Y-97678118D01*
X145173508Y-97604787D01*
X145173503Y-97604785D01*
X144997148Y-97567300D01*
X144816852Y-97567300D01*
X144640496Y-97604785D01*
X144640491Y-97604787D01*
X144475788Y-97678118D01*
X144329924Y-97784095D01*
X144209283Y-97918081D01*
X144119135Y-98074222D01*
X144063423Y-98245688D01*
X144063422Y-98245690D01*
X144044576Y-98425000D01*
X64500500Y-98425000D01*
X64500500Y-94800730D01*
X145250861Y-94800730D01*
X145269707Y-94980038D01*
X145325421Y-95151509D01*
X145415569Y-95307650D01*
X145536211Y-95441636D01*
X145622048Y-95504000D01*
X145682073Y-95547611D01*
X145846775Y-95620942D01*
X145846777Y-95620942D01*
X145846781Y-95620944D01*
X145881418Y-95628306D01*
X145942898Y-95661498D01*
X145973567Y-95711278D01*
X146020193Y-95854779D01*
X146024136Y-95866913D01*
X146114284Y-96023054D01*
X146234926Y-96157040D01*
X146364087Y-96250881D01*
X146380788Y-96263015D01*
X146545491Y-96336346D01*
X146545496Y-96336348D01*
X146721852Y-96373834D01*
X146902148Y-96373834D01*
X147078504Y-96336348D01*
X147243212Y-96263015D01*
X147389074Y-96157040D01*
X147509716Y-96023054D01*
X147599864Y-95866913D01*
X147655578Y-95695442D01*
X147674424Y-95516134D01*
X147673149Y-95504000D01*
X150267576Y-95504000D01*
X150286422Y-95683308D01*
X150342136Y-95854779D01*
X150432284Y-96010920D01*
X150552926Y-96144906D01*
X150698788Y-96250881D01*
X150863491Y-96324212D01*
X150863496Y-96324214D01*
X151039852Y-96361700D01*
X151220148Y-96361700D01*
X151396504Y-96324214D01*
X151561212Y-96250881D01*
X151707074Y-96144906D01*
X151827716Y-96010920D01*
X151917864Y-95854779D01*
X151973578Y-95683308D01*
X151992424Y-95504000D01*
X151973578Y-95324692D01*
X151917864Y-95153221D01*
X151827716Y-94997080D01*
X151707074Y-94863094D01*
X151561212Y-94757119D01*
X151561211Y-94757118D01*
X151396508Y-94683787D01*
X151396503Y-94683785D01*
X151220148Y-94646300D01*
X151039852Y-94646300D01*
X150863496Y-94683785D01*
X150863491Y-94683787D01*
X150698788Y-94757118D01*
X150552924Y-94863095D01*
X150432283Y-94997081D01*
X150342135Y-95153222D01*
X150286423Y-95324688D01*
X150286422Y-95324690D01*
X150274131Y-95441634D01*
X150267576Y-95504000D01*
X147673149Y-95504000D01*
X147655578Y-95336826D01*
X147599864Y-95165355D01*
X147509716Y-95009214D01*
X147389074Y-94875228D01*
X147316143Y-94822240D01*
X147243211Y-94769252D01*
X147078508Y-94695921D01*
X147078504Y-94695920D01*
X147043866Y-94688557D01*
X146982384Y-94655364D01*
X146951717Y-94605585D01*
X146949864Y-94599881D01*
X146901149Y-94449951D01*
X146811001Y-94293810D01*
X146690359Y-94159824D01*
X146617428Y-94106836D01*
X146544496Y-94053848D01*
X146379793Y-93980517D01*
X146379788Y-93980515D01*
X146203433Y-93943030D01*
X146023137Y-93943030D01*
X145846781Y-93980515D01*
X145846776Y-93980517D01*
X145682073Y-94053848D01*
X145536209Y-94159825D01*
X145415568Y-94293811D01*
X145325420Y-94449952D01*
X145269708Y-94621418D01*
X145269707Y-94621420D01*
X145255445Y-94757118D01*
X145250861Y-94800730D01*
X64500500Y-94800730D01*
X64500500Y-93853000D01*
X139980576Y-93853000D01*
X139999422Y-94032309D01*
X139999423Y-94032311D01*
X140042987Y-94166390D01*
X140055136Y-94203779D01*
X140145284Y-94359920D01*
X140265926Y-94493906D01*
X140411788Y-94599881D01*
X140576491Y-94673212D01*
X140576496Y-94673214D01*
X140752852Y-94710700D01*
X140933148Y-94710700D01*
X141109504Y-94673214D01*
X141274212Y-94599881D01*
X141420074Y-94493906D01*
X141540716Y-94359920D01*
X141624613Y-94214605D01*
X141675179Y-94166390D01*
X141743786Y-94153166D01*
X141808651Y-94179134D01*
X141839387Y-94214606D01*
X141923280Y-94359915D01*
X141923282Y-94359918D01*
X142004349Y-94449951D01*
X142043926Y-94493906D01*
X142189788Y-94599881D01*
X142354491Y-94673212D01*
X142354496Y-94673214D01*
X142530852Y-94710700D01*
X142711148Y-94710700D01*
X142887504Y-94673214D01*
X143052212Y-94599881D01*
X143198074Y-94493906D01*
X143318716Y-94359920D01*
X143339113Y-94324590D01*
X143389679Y-94276376D01*
X143458286Y-94263152D01*
X143523151Y-94289120D01*
X143553886Y-94324589D01*
X143574281Y-94359915D01*
X143574284Y-94359920D01*
X143655348Y-94449951D01*
X143694926Y-94493906D01*
X143840788Y-94599881D01*
X144005491Y-94673212D01*
X144005496Y-94673214D01*
X144181852Y-94710700D01*
X144362148Y-94710700D01*
X144538504Y-94673214D01*
X144703212Y-94599881D01*
X144849074Y-94493906D01*
X144969716Y-94359920D01*
X145059864Y-94203779D01*
X145115578Y-94032308D01*
X145134424Y-93853000D01*
X145115578Y-93673692D01*
X145059864Y-93502221D01*
X144969716Y-93346080D01*
X144849074Y-93212094D01*
X144703212Y-93106119D01*
X144703211Y-93106118D01*
X144669256Y-93091000D01*
X171603576Y-93091000D01*
X171622422Y-93270309D01*
X171622423Y-93270311D01*
X171674186Y-93429624D01*
X171678136Y-93441779D01*
X171768284Y-93597920D01*
X171888926Y-93731906D01*
X172034788Y-93837881D01*
X172199491Y-93911212D01*
X172199496Y-93911214D01*
X172375852Y-93948700D01*
X172556148Y-93948700D01*
X172732504Y-93911214D01*
X172897212Y-93837881D01*
X173043074Y-93731906D01*
X173163716Y-93597920D01*
X173253864Y-93441779D01*
X173309578Y-93270308D01*
X173328424Y-93091000D01*
X173309578Y-92911692D01*
X173253864Y-92740221D01*
X173163716Y-92584080D01*
X173043074Y-92450094D01*
X172897212Y-92344119D01*
X172897211Y-92344118D01*
X172732508Y-92270787D01*
X172732503Y-92270785D01*
X172556148Y-92233300D01*
X172375852Y-92233300D01*
X172199496Y-92270785D01*
X172199491Y-92270787D01*
X172034788Y-92344118D01*
X171888924Y-92450095D01*
X171768283Y-92584081D01*
X171678135Y-92740222D01*
X171622423Y-92911688D01*
X171622422Y-92911690D01*
X171603576Y-93091000D01*
X144669256Y-93091000D01*
X144538508Y-93032787D01*
X144538503Y-93032785D01*
X144362148Y-92995300D01*
X144181852Y-92995300D01*
X144005496Y-93032785D01*
X144005491Y-93032787D01*
X143840788Y-93106118D01*
X143694924Y-93212095D01*
X143574282Y-93346081D01*
X143553887Y-93381408D01*
X143503320Y-93429624D01*
X143434713Y-93442847D01*
X143369848Y-93416879D01*
X143339113Y-93381408D01*
X143331008Y-93367371D01*
X143318716Y-93346080D01*
X143198074Y-93212094D01*
X143052212Y-93106119D01*
X143052211Y-93106118D01*
X142887508Y-93032787D01*
X142887503Y-93032785D01*
X142711148Y-92995300D01*
X142530852Y-92995300D01*
X142354496Y-93032785D01*
X142354491Y-93032787D01*
X142189788Y-93106118D01*
X142043924Y-93212095D01*
X141923283Y-93346081D01*
X141839387Y-93491394D01*
X141788820Y-93539609D01*
X141720213Y-93552833D01*
X141655348Y-93526865D01*
X141624613Y-93491394D01*
X141595968Y-93441779D01*
X141540716Y-93346080D01*
X141420074Y-93212094D01*
X141274212Y-93106119D01*
X141274211Y-93106118D01*
X141109508Y-93032787D01*
X141109503Y-93032785D01*
X140933148Y-92995300D01*
X140752852Y-92995300D01*
X140576496Y-93032785D01*
X140576491Y-93032787D01*
X140411788Y-93106118D01*
X140265924Y-93212095D01*
X140145283Y-93346081D01*
X140055135Y-93502222D01*
X139999423Y-93673688D01*
X139999422Y-93673690D01*
X139980576Y-93853000D01*
X64500500Y-93853000D01*
X64500500Y-92456000D01*
X127661576Y-92456000D01*
X127667694Y-92514214D01*
X127680422Y-92635308D01*
X127736136Y-92806779D01*
X127826284Y-92962920D01*
X127946926Y-93096906D01*
X127959607Y-93106119D01*
X128092788Y-93202881D01*
X128257491Y-93276212D01*
X128257496Y-93276214D01*
X128433852Y-93313700D01*
X128614148Y-93313700D01*
X128790504Y-93276214D01*
X128955212Y-93202881D01*
X129101074Y-93096906D01*
X129221716Y-92962920D01*
X129311864Y-92806779D01*
X129367578Y-92635308D01*
X129381793Y-92500052D01*
X129408378Y-92435441D01*
X129465675Y-92395456D01*
X129535494Y-92392796D01*
X129578000Y-92412700D01*
X129616782Y-92440877D01*
X129616788Y-92440881D01*
X129781491Y-92514212D01*
X129781496Y-92514214D01*
X129957852Y-92551700D01*
X130138148Y-92551700D01*
X130314504Y-92514214D01*
X130479212Y-92440881D01*
X130625074Y-92334906D01*
X130745716Y-92200920D01*
X130835864Y-92044779D01*
X130891578Y-91873308D01*
X130910424Y-91694000D01*
X130891578Y-91514692D01*
X130835864Y-91343221D01*
X130745716Y-91187080D01*
X130625074Y-91053094D01*
X130479212Y-90947119D01*
X130479211Y-90947118D01*
X130314508Y-90873787D01*
X130314503Y-90873785D01*
X130138148Y-90836300D01*
X129957852Y-90836300D01*
X129781496Y-90873785D01*
X129781491Y-90873787D01*
X129616788Y-90947118D01*
X129470924Y-91053095D01*
X129350283Y-91187081D01*
X129260135Y-91343222D01*
X129204423Y-91514688D01*
X129204422Y-91514692D01*
X129194654Y-91607624D01*
X129190206Y-91649945D01*
X129163621Y-91714559D01*
X129106323Y-91754543D01*
X129036504Y-91757203D01*
X128994001Y-91737301D01*
X128955212Y-91709119D01*
X128955211Y-91709118D01*
X128790508Y-91635787D01*
X128790503Y-91635785D01*
X128614148Y-91598300D01*
X128433852Y-91598300D01*
X128257496Y-91635785D01*
X128257491Y-91635787D01*
X128092788Y-91709118D01*
X127946924Y-91815095D01*
X127826283Y-91949081D01*
X127736135Y-92105222D01*
X127680423Y-92276688D01*
X127680422Y-92276690D01*
X127661576Y-92456000D01*
X64500500Y-92456000D01*
X64500500Y-85518000D01*
X167059576Y-85518000D01*
X167078422Y-85697308D01*
X167134136Y-85868779D01*
X167224284Y-86024920D01*
X167344926Y-86158906D01*
X167490788Y-86264881D01*
X167655491Y-86338212D01*
X167655496Y-86338214D01*
X167831852Y-86375700D01*
X168012148Y-86375700D01*
X168188504Y-86338214D01*
X168353212Y-86264881D01*
X168499074Y-86158906D01*
X168619716Y-86024920D01*
X168709864Y-85868779D01*
X168765578Y-85697308D01*
X168772652Y-85630000D01*
X176117576Y-85630000D01*
X176136422Y-85809309D01*
X176136423Y-85809311D01*
X176155744Y-85868777D01*
X176192136Y-85980779D01*
X176282284Y-86136920D01*
X176402926Y-86270906D01*
X176548788Y-86376881D01*
X176713491Y-86450212D01*
X176713496Y-86450214D01*
X176889852Y-86487700D01*
X177070148Y-86487700D01*
X177246504Y-86450214D01*
X177411212Y-86376881D01*
X177557074Y-86270906D01*
X177677716Y-86136920D01*
X177767864Y-85980779D01*
X177823578Y-85809308D01*
X177842424Y-85630000D01*
X177823578Y-85450692D01*
X177767864Y-85279221D01*
X177677716Y-85123080D01*
X177557074Y-84989094D01*
X177411212Y-84883119D01*
X177411211Y-84883118D01*
X177246508Y-84809787D01*
X177246503Y-84809785D01*
X177070148Y-84772300D01*
X176889852Y-84772300D01*
X176713496Y-84809785D01*
X176713491Y-84809787D01*
X176548788Y-84883118D01*
X176402924Y-84989095D01*
X176282283Y-85123081D01*
X176192135Y-85279222D01*
X176136423Y-85450688D01*
X176136422Y-85450690D01*
X176117576Y-85630000D01*
X168772652Y-85630000D01*
X168784424Y-85518000D01*
X168765578Y-85338692D01*
X168709864Y-85167221D01*
X168619716Y-85011080D01*
X168499074Y-84877094D01*
X168353212Y-84771119D01*
X168353211Y-84771118D01*
X168188508Y-84697787D01*
X168188503Y-84697785D01*
X168012148Y-84660300D01*
X167831852Y-84660300D01*
X167655496Y-84697785D01*
X167655491Y-84697787D01*
X167490788Y-84771118D01*
X167344924Y-84877095D01*
X167224283Y-85011081D01*
X167134135Y-85167222D01*
X167078423Y-85338688D01*
X167078422Y-85338690D01*
X167066650Y-85450692D01*
X167059576Y-85518000D01*
X64500500Y-85518000D01*
X64500500Y-81407000D01*
X142393576Y-81407000D01*
X142412422Y-81586308D01*
X142468136Y-81757779D01*
X142558284Y-81913920D01*
X142678926Y-82047906D01*
X142824788Y-82153881D01*
X142989491Y-82227212D01*
X142989496Y-82227214D01*
X143165852Y-82264700D01*
X143346148Y-82264700D01*
X143522504Y-82227214D01*
X143687212Y-82153881D01*
X143833074Y-82047906D01*
X143953716Y-81913920D01*
X144043864Y-81757779D01*
X144099578Y-81586308D01*
X144118424Y-81407000D01*
X144099578Y-81227692D01*
X144043864Y-81056221D01*
X143953716Y-80900080D01*
X143833074Y-80766094D01*
X143687212Y-80660119D01*
X143687211Y-80660118D01*
X143522508Y-80586787D01*
X143522503Y-80586785D01*
X143346148Y-80549300D01*
X143165852Y-80549300D01*
X142989496Y-80586785D01*
X142989491Y-80586787D01*
X142824788Y-80660118D01*
X142678924Y-80766095D01*
X142558283Y-80900081D01*
X142468135Y-81056222D01*
X142412423Y-81227688D01*
X142412422Y-81227690D01*
X142412422Y-81227692D01*
X142393576Y-81407000D01*
X64500500Y-81407000D01*
X64500500Y-79121000D01*
X142393576Y-79121000D01*
X142412422Y-79300309D01*
X142412423Y-79300311D01*
X142462490Y-79454404D01*
X142468136Y-79471779D01*
X142558284Y-79627920D01*
X142678926Y-79761906D01*
X142824788Y-79867881D01*
X142989491Y-79941212D01*
X142989496Y-79941214D01*
X143165852Y-79978700D01*
X143346148Y-79978700D01*
X143522504Y-79941214D01*
X143687212Y-79867881D01*
X143833074Y-79761906D01*
X143953716Y-79627920D01*
X144043864Y-79471779D01*
X144098904Y-79302381D01*
X144138341Y-79244707D01*
X144202700Y-79217508D01*
X144216835Y-79216700D01*
X144362148Y-79216700D01*
X144538504Y-79179214D01*
X144703212Y-79105881D01*
X144849074Y-78999906D01*
X144969716Y-78865920D01*
X145050118Y-78726658D01*
X145100682Y-78678446D01*
X145169289Y-78665222D01*
X145234154Y-78691190D01*
X145274683Y-78748104D01*
X145280824Y-78801618D01*
X145279576Y-78813495D01*
X145279576Y-78813497D01*
X145298422Y-78992809D01*
X145298423Y-78992811D01*
X145330254Y-79090779D01*
X145354136Y-79164279D01*
X145444284Y-79320420D01*
X145564926Y-79454406D01*
X145710555Y-79560212D01*
X145710788Y-79560381D01*
X145875491Y-79633712D01*
X145875496Y-79633714D01*
X146051852Y-79671200D01*
X146232148Y-79671200D01*
X146408504Y-79633714D01*
X146573212Y-79560381D01*
X146719074Y-79454406D01*
X146839716Y-79320420D01*
X146929864Y-79164279D01*
X146985578Y-78992808D01*
X147004424Y-78813500D01*
X146996699Y-78740000D01*
X153442576Y-78740000D01*
X153461422Y-78919308D01*
X153517136Y-79090779D01*
X153607284Y-79246920D01*
X153727926Y-79380906D01*
X153742885Y-79391774D01*
X153873788Y-79486881D01*
X154038491Y-79560212D01*
X154038496Y-79560214D01*
X154214852Y-79597700D01*
X154395148Y-79597700D01*
X154571504Y-79560214D01*
X154736212Y-79486881D01*
X154867116Y-79391772D01*
X154932920Y-79368294D01*
X155000974Y-79384119D01*
X155012873Y-79391765D01*
X155122999Y-79471777D01*
X155143788Y-79486881D01*
X155308491Y-79560212D01*
X155308496Y-79560214D01*
X155484852Y-79597700D01*
X155665148Y-79597700D01*
X155841504Y-79560214D01*
X156006212Y-79486881D01*
X156137116Y-79391772D01*
X156202920Y-79368294D01*
X156270974Y-79384119D01*
X156282873Y-79391765D01*
X156392999Y-79471777D01*
X156413788Y-79486881D01*
X156578491Y-79560212D01*
X156578496Y-79560214D01*
X156754852Y-79597700D01*
X156935148Y-79597700D01*
X157111504Y-79560214D01*
X157276212Y-79486881D01*
X157407116Y-79391772D01*
X157472920Y-79368294D01*
X157540974Y-79384119D01*
X157552873Y-79391765D01*
X157662999Y-79471777D01*
X157683788Y-79486881D01*
X157848491Y-79560212D01*
X157848496Y-79560214D01*
X158024852Y-79597700D01*
X158205148Y-79597700D01*
X158381504Y-79560214D01*
X158546212Y-79486881D01*
X158692074Y-79380906D01*
X158812716Y-79246920D01*
X158902864Y-79090779D01*
X158958578Y-78919308D01*
X158977424Y-78740000D01*
X158958578Y-78560692D01*
X158902864Y-78389221D01*
X158812716Y-78233080D01*
X158772100Y-78187972D01*
X158741870Y-78124981D01*
X158750495Y-78055646D01*
X158772101Y-78022027D01*
X158784532Y-78008221D01*
X158812716Y-77976920D01*
X158902864Y-77820779D01*
X158958578Y-77649308D01*
X158977424Y-77470000D01*
X158958578Y-77290692D01*
X158902864Y-77119221D01*
X158812716Y-76963080D01*
X158772100Y-76917972D01*
X158741870Y-76854981D01*
X158750495Y-76785646D01*
X158772101Y-76752027D01*
X158812716Y-76706920D01*
X158902864Y-76550779D01*
X158958578Y-76379308D01*
X158977424Y-76200000D01*
X158958578Y-76020692D01*
X158902864Y-75849221D01*
X158812716Y-75693080D01*
X158772100Y-75647972D01*
X158741870Y-75584981D01*
X158750495Y-75515646D01*
X158772101Y-75482027D01*
X158812716Y-75436920D01*
X158902864Y-75280779D01*
X158958578Y-75109308D01*
X158977424Y-74930000D01*
X158958578Y-74750692D01*
X158902864Y-74579221D01*
X158812716Y-74423080D01*
X158772100Y-74377972D01*
X158741870Y-74314981D01*
X158750495Y-74245646D01*
X158772101Y-74212027D01*
X158812716Y-74166920D01*
X158902864Y-74010779D01*
X158958578Y-73839308D01*
X158977424Y-73660000D01*
X158958578Y-73480692D01*
X158902864Y-73309221D01*
X158812716Y-73153080D01*
X158692074Y-73019094D01*
X158546212Y-72913119D01*
X158546211Y-72913118D01*
X158381508Y-72839787D01*
X158381503Y-72839785D01*
X158205148Y-72802300D01*
X158024852Y-72802300D01*
X157848496Y-72839785D01*
X157848491Y-72839787D01*
X157683788Y-72913118D01*
X157683783Y-72913121D01*
X157552885Y-73008225D01*
X157487079Y-73031705D01*
X157419025Y-73015880D01*
X157407115Y-73008225D01*
X157276216Y-72913121D01*
X157276211Y-72913118D01*
X157111508Y-72839787D01*
X157111503Y-72839785D01*
X156935148Y-72802300D01*
X156754852Y-72802300D01*
X156578496Y-72839785D01*
X156578491Y-72839787D01*
X156413788Y-72913118D01*
X156413783Y-72913121D01*
X156282885Y-73008225D01*
X156217079Y-73031705D01*
X156149025Y-73015880D01*
X156137115Y-73008225D01*
X156006216Y-72913121D01*
X156006211Y-72913118D01*
X155841508Y-72839787D01*
X155841503Y-72839785D01*
X155665148Y-72802300D01*
X155484852Y-72802300D01*
X155308496Y-72839785D01*
X155308491Y-72839787D01*
X155143788Y-72913118D01*
X155143783Y-72913121D01*
X155012885Y-73008225D01*
X154947079Y-73031705D01*
X154879025Y-73015880D01*
X154867115Y-73008225D01*
X154736216Y-72913121D01*
X154736211Y-72913118D01*
X154571508Y-72839787D01*
X154571503Y-72839785D01*
X154395148Y-72802300D01*
X154214852Y-72802300D01*
X154038496Y-72839785D01*
X154038491Y-72839787D01*
X153873788Y-72913118D01*
X153727924Y-73019095D01*
X153607283Y-73153081D01*
X153517135Y-73309222D01*
X153461423Y-73480688D01*
X153461422Y-73480690D01*
X153442576Y-73660000D01*
X153461422Y-73839309D01*
X153461423Y-73839311D01*
X153517135Y-74010777D01*
X153607283Y-74166919D01*
X153647899Y-74212028D01*
X153678129Y-74275020D01*
X153669503Y-74344355D01*
X153647899Y-74377972D01*
X153607283Y-74423080D01*
X153517135Y-74579222D01*
X153461423Y-74750688D01*
X153461422Y-74750690D01*
X153442576Y-74930000D01*
X153461422Y-75109309D01*
X153461423Y-75109311D01*
X153517135Y-75280777D01*
X153607283Y-75436919D01*
X153647899Y-75482028D01*
X153678129Y-75545020D01*
X153669503Y-75614355D01*
X153647899Y-75647972D01*
X153607283Y-75693080D01*
X153517135Y-75849222D01*
X153461423Y-76020688D01*
X153461422Y-76020690D01*
X153442576Y-76200000D01*
X153461422Y-76379309D01*
X153461423Y-76379311D01*
X153517135Y-76550777D01*
X153607283Y-76706919D01*
X153647899Y-76752028D01*
X153678129Y-76815020D01*
X153669503Y-76884355D01*
X153647899Y-76917972D01*
X153607283Y-76963080D01*
X153517135Y-77119222D01*
X153461423Y-77290688D01*
X153461422Y-77290690D01*
X153442576Y-77470000D01*
X153461422Y-77649309D01*
X153461423Y-77649311D01*
X153517135Y-77820777D01*
X153607283Y-77976919D01*
X153647899Y-78022028D01*
X153678129Y-78085020D01*
X153669503Y-78154355D01*
X153647899Y-78187972D01*
X153607283Y-78233080D01*
X153517135Y-78389222D01*
X153461423Y-78560688D01*
X153461422Y-78560690D01*
X153453697Y-78634188D01*
X153442576Y-78740000D01*
X146996699Y-78740000D01*
X146985578Y-78634192D01*
X146929864Y-78462721D01*
X146839716Y-78306580D01*
X146725463Y-78179690D01*
X146719075Y-78172595D01*
X146706456Y-78163427D01*
X146573212Y-78066619D01*
X146573211Y-78066618D01*
X146408508Y-77993287D01*
X146408503Y-77993285D01*
X146232148Y-77955800D01*
X146051852Y-77955800D01*
X145875496Y-77993285D01*
X145875491Y-77993287D01*
X145710788Y-78066618D01*
X145564924Y-78172595D01*
X145444282Y-78306581D01*
X145363883Y-78445838D01*
X145313316Y-78494054D01*
X145244709Y-78507277D01*
X145179844Y-78481309D01*
X145139316Y-78424394D01*
X145133176Y-78370873D01*
X145134424Y-78359002D01*
X145134424Y-78359000D01*
X145115578Y-78179692D01*
X145059864Y-78008221D01*
X144969716Y-77852080D01*
X144849074Y-77718094D01*
X144703212Y-77612119D01*
X144703211Y-77612118D01*
X144538508Y-77538787D01*
X144538503Y-77538785D01*
X144362148Y-77501300D01*
X144181852Y-77501300D01*
X144005496Y-77538785D01*
X144005491Y-77538787D01*
X143840788Y-77612118D01*
X143694924Y-77718095D01*
X143574283Y-77852081D01*
X143484135Y-78008222D01*
X143429096Y-78177618D01*
X143389659Y-78235293D01*
X143325300Y-78262492D01*
X143311165Y-78263300D01*
X143165852Y-78263300D01*
X142989496Y-78300785D01*
X142989491Y-78300787D01*
X142824788Y-78374118D01*
X142678924Y-78480095D01*
X142558283Y-78614081D01*
X142468135Y-78770222D01*
X142412423Y-78941688D01*
X142412422Y-78941690D01*
X142393576Y-79121000D01*
X64500500Y-79121000D01*
X64500500Y-76530000D01*
X139987576Y-76530000D01*
X140006422Y-76709309D01*
X140006423Y-76709311D01*
X140053753Y-76854981D01*
X140062136Y-76880779D01*
X140152284Y-77036920D01*
X140272926Y-77170906D01*
X140418788Y-77276881D01*
X140583491Y-77350212D01*
X140583496Y-77350214D01*
X140759852Y-77387700D01*
X140940148Y-77387700D01*
X141116504Y-77350214D01*
X141281212Y-77276881D01*
X141427074Y-77170906D01*
X141547716Y-77036920D01*
X141637864Y-76880779D01*
X141693578Y-76709308D01*
X141712424Y-76530000D01*
X141693578Y-76350692D01*
X141637864Y-76179221D01*
X141547716Y-76023080D01*
X141427074Y-75889094D01*
X141281212Y-75783119D01*
X141281211Y-75783118D01*
X141116508Y-75709787D01*
X141116503Y-75709785D01*
X140940148Y-75672300D01*
X140759852Y-75672300D01*
X140583496Y-75709785D01*
X140583491Y-75709787D01*
X140418788Y-75783118D01*
X140272924Y-75889095D01*
X140152283Y-76023081D01*
X140062135Y-76179222D01*
X140006423Y-76350688D01*
X140006422Y-76350690D01*
X139987576Y-76530000D01*
X64500500Y-76530000D01*
X64500500Y-75190000D01*
X112677576Y-75190000D01*
X112696422Y-75369309D01*
X112696423Y-75369311D01*
X112741021Y-75506572D01*
X112752136Y-75540779D01*
X112842284Y-75696920D01*
X112962926Y-75830906D01*
X113108788Y-75936881D01*
X113273491Y-76010212D01*
X113273496Y-76010214D01*
X113449852Y-76047700D01*
X113630148Y-76047700D01*
X113806504Y-76010214D01*
X113971212Y-75936881D01*
X114117074Y-75830906D01*
X114237716Y-75696920D01*
X114327864Y-75540779D01*
X114383578Y-75369308D01*
X114402424Y-75190000D01*
X114383578Y-75010692D01*
X114327864Y-74839221D01*
X114237716Y-74683080D01*
X114117074Y-74549094D01*
X113971212Y-74443119D01*
X113971211Y-74443118D01*
X113806508Y-74369787D01*
X113806503Y-74369785D01*
X113630148Y-74332300D01*
X113449852Y-74332300D01*
X113273496Y-74369785D01*
X113273491Y-74369787D01*
X113108788Y-74443118D01*
X112962924Y-74549095D01*
X112842283Y-74683081D01*
X112752135Y-74839222D01*
X112696423Y-75010688D01*
X112696422Y-75010690D01*
X112677576Y-75190000D01*
X64500500Y-75190000D01*
X64500500Y-72170000D01*
X104637576Y-72170000D01*
X104656422Y-72349308D01*
X104712136Y-72520779D01*
X104802284Y-72676920D01*
X104922926Y-72810906D01*
X105063609Y-72913118D01*
X105068788Y-72916881D01*
X105233491Y-72990212D01*
X105233496Y-72990214D01*
X105409852Y-73027700D01*
X105590148Y-73027700D01*
X105766504Y-72990214D01*
X105931212Y-72916881D01*
X106077074Y-72810906D01*
X106197716Y-72676920D01*
X106287864Y-72520779D01*
X106343578Y-72349308D01*
X106362424Y-72170000D01*
X106343578Y-71990692D01*
X106287864Y-71819221D01*
X106197716Y-71663080D01*
X106077074Y-71529094D01*
X105931212Y-71423119D01*
X105931211Y-71423118D01*
X105766508Y-71349787D01*
X105766503Y-71349785D01*
X105590148Y-71312300D01*
X105409852Y-71312300D01*
X105233496Y-71349785D01*
X105233491Y-71349787D01*
X105068788Y-71423118D01*
X104922924Y-71529095D01*
X104802283Y-71663081D01*
X104712135Y-71819222D01*
X104656423Y-71990688D01*
X104656422Y-71990690D01*
X104656422Y-71990692D01*
X104637576Y-72170000D01*
X64500500Y-72170000D01*
X64500500Y-70231000D01*
X77623576Y-70231000D01*
X77642422Y-70410309D01*
X77642423Y-70410311D01*
X77683687Y-70537311D01*
X77698136Y-70581779D01*
X77788284Y-70737920D01*
X77908926Y-70871906D01*
X78054788Y-70977881D01*
X78219491Y-71051212D01*
X78219496Y-71051214D01*
X78395852Y-71088700D01*
X78576148Y-71088700D01*
X78752504Y-71051214D01*
X78917212Y-70977881D01*
X79063074Y-70871906D01*
X79183716Y-70737920D01*
X79273864Y-70581779D01*
X79329578Y-70410308D01*
X79335076Y-70358000D01*
X146330576Y-70358000D01*
X146349422Y-70537308D01*
X146405136Y-70708779D01*
X146495284Y-70864920D01*
X146615926Y-70998906D01*
X146687919Y-71051212D01*
X146761788Y-71104881D01*
X146926491Y-71178212D01*
X146926496Y-71178214D01*
X147102852Y-71215700D01*
X147283148Y-71215700D01*
X147459504Y-71178214D01*
X147624212Y-71104881D01*
X147770074Y-70998906D01*
X147890716Y-70864920D01*
X147980864Y-70708779D01*
X148036578Y-70537308D01*
X148055424Y-70358000D01*
X148036578Y-70178692D01*
X147980864Y-70007221D01*
X147890716Y-69851080D01*
X147770074Y-69717094D01*
X147624212Y-69611119D01*
X147624211Y-69611118D01*
X147459508Y-69537787D01*
X147459503Y-69537785D01*
X147283148Y-69500300D01*
X147102852Y-69500300D01*
X146926496Y-69537785D01*
X146926491Y-69537787D01*
X146761788Y-69611118D01*
X146615924Y-69717095D01*
X146495283Y-69851081D01*
X146405135Y-70007222D01*
X146349423Y-70178688D01*
X146349422Y-70178690D01*
X146349422Y-70178692D01*
X146330576Y-70358000D01*
X79335076Y-70358000D01*
X79348424Y-70231000D01*
X79329578Y-70051692D01*
X79273864Y-69880221D01*
X79183716Y-69724080D01*
X79063074Y-69590094D01*
X78917212Y-69484119D01*
X78917211Y-69484118D01*
X78752508Y-69410787D01*
X78752503Y-69410785D01*
X78576148Y-69373300D01*
X78395852Y-69373300D01*
X78219496Y-69410785D01*
X78219491Y-69410787D01*
X78054788Y-69484118D01*
X77908924Y-69590095D01*
X77788283Y-69724081D01*
X77698135Y-69880222D01*
X77642423Y-70051688D01*
X77642422Y-70051690D01*
X77623576Y-70231000D01*
X64500500Y-70231000D01*
X64500500Y-69215003D01*
X152145506Y-69215003D01*
X152164621Y-69384662D01*
X152164623Y-69384672D01*
X152221016Y-69545833D01*
X152221018Y-69545836D01*
X152262038Y-69611119D01*
X152311858Y-69690407D01*
X152432593Y-69811142D01*
X152577166Y-69901983D01*
X152738329Y-69958377D01*
X152738335Y-69958377D01*
X152738337Y-69958378D01*
X152907996Y-69977494D01*
X152908000Y-69977494D01*
X152908004Y-69977494D01*
X153077662Y-69958378D01*
X153077661Y-69958378D01*
X153077671Y-69958377D01*
X153238834Y-69901983D01*
X153383407Y-69811142D01*
X153504142Y-69690407D01*
X153594983Y-69545834D01*
X153651377Y-69384671D01*
X153670494Y-69215000D01*
X153651377Y-69045329D01*
X153594983Y-68884166D01*
X153504142Y-68739593D01*
X153383407Y-68618858D01*
X153238834Y-68528017D01*
X153238835Y-68528017D01*
X153238833Y-68528016D01*
X153077672Y-68471623D01*
X153077662Y-68471621D01*
X152908004Y-68452506D01*
X152907996Y-68452506D01*
X152738337Y-68471621D01*
X152738327Y-68471623D01*
X152577166Y-68528016D01*
X152577163Y-68528018D01*
X152432592Y-68618858D01*
X152311858Y-68739592D01*
X152221018Y-68884163D01*
X152221016Y-68884166D01*
X152164623Y-69045327D01*
X152164621Y-69045337D01*
X152145506Y-69214996D01*
X152145506Y-69215003D01*
X64500500Y-69215003D01*
X64500500Y-68072000D01*
X72162576Y-68072000D01*
X72181422Y-68251308D01*
X72237136Y-68422779D01*
X72327284Y-68578920D01*
X72447926Y-68712906D01*
X72593788Y-68818881D01*
X72758491Y-68892212D01*
X72758496Y-68892214D01*
X72934852Y-68929700D01*
X73115148Y-68929700D01*
X73291504Y-68892214D01*
X73456212Y-68818881D01*
X73602074Y-68712906D01*
X73722716Y-68578920D01*
X73812864Y-68422779D01*
X73868578Y-68251308D01*
X73887424Y-68072000D01*
X78893576Y-68072000D01*
X78912422Y-68251308D01*
X78968136Y-68422779D01*
X79058284Y-68578920D01*
X79178926Y-68712906D01*
X79324788Y-68818881D01*
X79489491Y-68892212D01*
X79489496Y-68892214D01*
X79665852Y-68929700D01*
X79846148Y-68929700D01*
X80022504Y-68892214D01*
X80187212Y-68818881D01*
X80333074Y-68712906D01*
X80453716Y-68578920D01*
X80543864Y-68422779D01*
X80599578Y-68251308D01*
X80618424Y-68072000D01*
X80599578Y-67892692D01*
X80543864Y-67721221D01*
X80453716Y-67565080D01*
X80333074Y-67431094D01*
X80187212Y-67325119D01*
X80187211Y-67325118D01*
X80022508Y-67251787D01*
X80022503Y-67251785D01*
X79846148Y-67214300D01*
X79665852Y-67214300D01*
X79489496Y-67251785D01*
X79489491Y-67251787D01*
X79324788Y-67325118D01*
X79178924Y-67431095D01*
X79058283Y-67565081D01*
X78968135Y-67721222D01*
X78912423Y-67892688D01*
X78912422Y-67892690D01*
X78912422Y-67892692D01*
X78893576Y-68072000D01*
X73887424Y-68072000D01*
X73868578Y-67892692D01*
X73812864Y-67721221D01*
X73722716Y-67565080D01*
X73602074Y-67431094D01*
X73456212Y-67325119D01*
X73456211Y-67325118D01*
X73291508Y-67251787D01*
X73291503Y-67251785D01*
X73115148Y-67214300D01*
X72934852Y-67214300D01*
X72758496Y-67251785D01*
X72758491Y-67251787D01*
X72593788Y-67325118D01*
X72447924Y-67431095D01*
X72327283Y-67565081D01*
X72237135Y-67721222D01*
X72181423Y-67892688D01*
X72181422Y-67892690D01*
X72181422Y-67892692D01*
X72162576Y-68072000D01*
X64500500Y-68072000D01*
X64500500Y-66802000D01*
X136297576Y-66802000D01*
X136316422Y-66981308D01*
X136372136Y-67152779D01*
X136462284Y-67308920D01*
X136582926Y-67442906D01*
X136728788Y-67548881D01*
X136893491Y-67622212D01*
X136893496Y-67622214D01*
X137069852Y-67659700D01*
X137250148Y-67659700D01*
X137426504Y-67622214D01*
X137591212Y-67548881D01*
X137737074Y-67442906D01*
X137857716Y-67308920D01*
X137947864Y-67152779D01*
X138003578Y-66981308D01*
X138022424Y-66802000D01*
X138003578Y-66622692D01*
X137947864Y-66451221D01*
X137857716Y-66295080D01*
X137737074Y-66161094D01*
X137591212Y-66055119D01*
X137591211Y-66055118D01*
X137426508Y-65981787D01*
X137426503Y-65981785D01*
X137250148Y-65944300D01*
X137069852Y-65944300D01*
X136893496Y-65981785D01*
X136893491Y-65981787D01*
X136728788Y-66055118D01*
X136582924Y-66161095D01*
X136462283Y-66295081D01*
X136372135Y-66451222D01*
X136316423Y-66622688D01*
X136316422Y-66622690D01*
X136316422Y-66622692D01*
X136297576Y-66802000D01*
X64500500Y-66802000D01*
X64500500Y-65913000D01*
X81433576Y-65913000D01*
X81439694Y-65971214D01*
X81452422Y-66092308D01*
X81508136Y-66263779D01*
X81598284Y-66419920D01*
X81718926Y-66553906D01*
X81813599Y-66622690D01*
X81864788Y-66659881D01*
X82029491Y-66733212D01*
X82029496Y-66733214D01*
X82205852Y-66770700D01*
X82386148Y-66770700D01*
X82562504Y-66733214D01*
X82727212Y-66659881D01*
X82873074Y-66553906D01*
X82993716Y-66419920D01*
X83083864Y-66263779D01*
X83139578Y-66092308D01*
X83158424Y-65913000D01*
X83139578Y-65733692D01*
X83083864Y-65562221D01*
X83066416Y-65532000D01*
X127407576Y-65532000D01*
X127426422Y-65711308D01*
X127482136Y-65882779D01*
X127572284Y-66038920D01*
X127692926Y-66172906D01*
X127817999Y-66263777D01*
X127838788Y-66278881D01*
X128003491Y-66352212D01*
X128003496Y-66352214D01*
X128179852Y-66389700D01*
X128360148Y-66389700D01*
X128536504Y-66352214D01*
X128701212Y-66278881D01*
X128847074Y-66172906D01*
X128967716Y-66038920D01*
X129057864Y-65882779D01*
X129113578Y-65711308D01*
X129132424Y-65532000D01*
X129113578Y-65352692D01*
X129057864Y-65181221D01*
X129040416Y-65151000D01*
X131344576Y-65151000D01*
X131363422Y-65330309D01*
X131363423Y-65330311D01*
X131406605Y-65463214D01*
X131419136Y-65501779D01*
X131509284Y-65657920D01*
X131629926Y-65791906D01*
X131754999Y-65882777D01*
X131775788Y-65897881D01*
X131940491Y-65971212D01*
X131940496Y-65971214D01*
X132116852Y-66008700D01*
X132297148Y-66008700D01*
X132473504Y-65971214D01*
X132638212Y-65897881D01*
X132784074Y-65791906D01*
X132904716Y-65657920D01*
X132994864Y-65501779D01*
X133050578Y-65330308D01*
X133069424Y-65151000D01*
X133050578Y-64971692D01*
X132994864Y-64800221D01*
X132904716Y-64644080D01*
X132903744Y-64643000D01*
X145695576Y-64643000D01*
X145714422Y-64822309D01*
X145714423Y-64822311D01*
X145762959Y-64971692D01*
X145770136Y-64993779D01*
X145860284Y-65149920D01*
X145980926Y-65283906D01*
X146075599Y-65352690D01*
X146126788Y-65389881D01*
X146291491Y-65463212D01*
X146291496Y-65463214D01*
X146467852Y-65500700D01*
X146648148Y-65500700D01*
X146824504Y-65463214D01*
X146989212Y-65389881D01*
X147135074Y-65283906D01*
X147255716Y-65149920D01*
X147345864Y-64993779D01*
X147401578Y-64822308D01*
X147420424Y-64643000D01*
X147401578Y-64463692D01*
X147345864Y-64292221D01*
X147255716Y-64136080D01*
X147135074Y-64002094D01*
X146989212Y-63896119D01*
X146989211Y-63896118D01*
X146824508Y-63822787D01*
X146824503Y-63822785D01*
X146648148Y-63785300D01*
X146467852Y-63785300D01*
X146291496Y-63822785D01*
X146291491Y-63822787D01*
X146126788Y-63896118D01*
X145980924Y-64002095D01*
X145860283Y-64136081D01*
X145770135Y-64292222D01*
X145714423Y-64463688D01*
X145714422Y-64463690D01*
X145695576Y-64643000D01*
X132903744Y-64643000D01*
X132784074Y-64510094D01*
X132638212Y-64404119D01*
X132638211Y-64404118D01*
X132473508Y-64330787D01*
X132473503Y-64330785D01*
X132297148Y-64293300D01*
X132116852Y-64293300D01*
X131940496Y-64330785D01*
X131940491Y-64330787D01*
X131775788Y-64404118D01*
X131629924Y-64510095D01*
X131509283Y-64644081D01*
X131419135Y-64800222D01*
X131363423Y-64971688D01*
X131363422Y-64971690D01*
X131344576Y-65151000D01*
X129040416Y-65151000D01*
X128967716Y-65025080D01*
X128847074Y-64891094D01*
X128752398Y-64822308D01*
X128701211Y-64785118D01*
X128536508Y-64711787D01*
X128536503Y-64711785D01*
X128360148Y-64674300D01*
X128179852Y-64674300D01*
X128003496Y-64711785D01*
X128003491Y-64711787D01*
X127838788Y-64785118D01*
X127692924Y-64891095D01*
X127572283Y-65025081D01*
X127482135Y-65181222D01*
X127426423Y-65352688D01*
X127426422Y-65352690D01*
X127414806Y-65463212D01*
X127407576Y-65532000D01*
X83066416Y-65532000D01*
X82993716Y-65406080D01*
X82873074Y-65272094D01*
X82800143Y-65219106D01*
X82727211Y-65166118D01*
X82562508Y-65092787D01*
X82562503Y-65092785D01*
X82386148Y-65055300D01*
X82205852Y-65055300D01*
X82029496Y-65092785D01*
X82029491Y-65092787D01*
X81864788Y-65166118D01*
X81718924Y-65272095D01*
X81598283Y-65406081D01*
X81508135Y-65562222D01*
X81452423Y-65733688D01*
X81452422Y-65733690D01*
X81433576Y-65913000D01*
X64500500Y-65913000D01*
X64500500Y-63119000D01*
X68606576Y-63119000D01*
X68625422Y-63298308D01*
X68681136Y-63469779D01*
X68771284Y-63625920D01*
X68891926Y-63759906D01*
X69037788Y-63865881D01*
X69202491Y-63939212D01*
X69202496Y-63939214D01*
X69378852Y-63976700D01*
X69559148Y-63976700D01*
X69735504Y-63939214D01*
X69900212Y-63865881D01*
X70046074Y-63759906D01*
X70166716Y-63625920D01*
X70256864Y-63469779D01*
X70312578Y-63298308D01*
X70331424Y-63119000D01*
X70312578Y-62939692D01*
X70256864Y-62768221D01*
X70166716Y-62612080D01*
X70046074Y-62478094D01*
X69900212Y-62372119D01*
X69900211Y-62372118D01*
X69735508Y-62298787D01*
X69735503Y-62298785D01*
X69559148Y-62261300D01*
X69378852Y-62261300D01*
X69202496Y-62298785D01*
X69202491Y-62298787D01*
X69037788Y-62372118D01*
X68891924Y-62478095D01*
X68771283Y-62612081D01*
X68681135Y-62768222D01*
X68625423Y-62939688D01*
X68625422Y-62939690D01*
X68625422Y-62939692D01*
X68606576Y-63119000D01*
X64500500Y-63119000D01*
X64500500Y-62124000D01*
X109534017Y-62124000D01*
X109552863Y-62303309D01*
X109552864Y-62303311D01*
X109575220Y-62372118D01*
X109608577Y-62474779D01*
X109698725Y-62630920D01*
X109819367Y-62764906D01*
X109923017Y-62840212D01*
X109965229Y-62870881D01*
X110129932Y-62944212D01*
X110129937Y-62944214D01*
X110306293Y-62981700D01*
X110486589Y-62981700D01*
X110662945Y-62944214D01*
X110827653Y-62870881D01*
X110973515Y-62764906D01*
X111094157Y-62630920D01*
X111184305Y-62474779D01*
X111240019Y-62303308D01*
X111258865Y-62124000D01*
X111247934Y-62020000D01*
X142367576Y-62020000D01*
X142386422Y-62199309D01*
X142386423Y-62199311D01*
X142418744Y-62298787D01*
X142442136Y-62370779D01*
X142532284Y-62526920D01*
X142652926Y-62660906D01*
X142796067Y-62764904D01*
X142798788Y-62766881D01*
X142963491Y-62840212D01*
X142963496Y-62840214D01*
X143139852Y-62877700D01*
X143320148Y-62877700D01*
X143496504Y-62840214D01*
X143661212Y-62766881D01*
X143807074Y-62660906D01*
X143927716Y-62526920D01*
X144017864Y-62370779D01*
X144073578Y-62199308D01*
X144092424Y-62020000D01*
X144073578Y-61840692D01*
X144017864Y-61669221D01*
X143927716Y-61513080D01*
X143807074Y-61379094D01*
X143703423Y-61303787D01*
X143661211Y-61273118D01*
X143496508Y-61199787D01*
X143496503Y-61199785D01*
X143320148Y-61162300D01*
X143139852Y-61162300D01*
X142963496Y-61199785D01*
X142963491Y-61199787D01*
X142798788Y-61273118D01*
X142652924Y-61379095D01*
X142532283Y-61513081D01*
X142442135Y-61669222D01*
X142386423Y-61840688D01*
X142386422Y-61840690D01*
X142367576Y-62020000D01*
X111247934Y-62020000D01*
X111240019Y-61944692D01*
X111184305Y-61773221D01*
X111094157Y-61617080D01*
X110973515Y-61483094D01*
X110830373Y-61379095D01*
X110827652Y-61377118D01*
X110662949Y-61303787D01*
X110662944Y-61303785D01*
X110486589Y-61266300D01*
X110306293Y-61266300D01*
X110129937Y-61303785D01*
X110129932Y-61303787D01*
X109965229Y-61377118D01*
X109819365Y-61483095D01*
X109698724Y-61617081D01*
X109608576Y-61773222D01*
X109552864Y-61944688D01*
X109552863Y-61944690D01*
X109534017Y-62124000D01*
X64500500Y-62124000D01*
X64500500Y-60706000D01*
X102896576Y-60706000D01*
X102915422Y-60885308D01*
X102971136Y-61056779D01*
X103061284Y-61212920D01*
X103181926Y-61346906D01*
X103327788Y-61452881D01*
X103492491Y-61526212D01*
X103492496Y-61526214D01*
X103668852Y-61563700D01*
X103849148Y-61563700D01*
X104025504Y-61526214D01*
X104190212Y-61452881D01*
X104336074Y-61346906D01*
X104456716Y-61212920D01*
X104546864Y-61056779D01*
X104602578Y-60885308D01*
X104621424Y-60706000D01*
X104602578Y-60526692D01*
X104546864Y-60355221D01*
X104456716Y-60199080D01*
X104341392Y-60071000D01*
X126899576Y-60071000D01*
X126918422Y-60250308D01*
X126974136Y-60421779D01*
X127064284Y-60577920D01*
X127184926Y-60711906D01*
X127330788Y-60817881D01*
X127495491Y-60891212D01*
X127495496Y-60891214D01*
X127671852Y-60928700D01*
X127852148Y-60928700D01*
X128028504Y-60891214D01*
X128193212Y-60817881D01*
X128339074Y-60711906D01*
X128459716Y-60577920D01*
X128549864Y-60421779D01*
X128605578Y-60250308D01*
X128624424Y-60071000D01*
X128605578Y-59891692D01*
X128549864Y-59720221D01*
X128459716Y-59564080D01*
X128339074Y-59430094D01*
X128193212Y-59324119D01*
X128193211Y-59324118D01*
X128028508Y-59250787D01*
X128028503Y-59250785D01*
X127852148Y-59213300D01*
X127671852Y-59213300D01*
X127495496Y-59250785D01*
X127495491Y-59250787D01*
X127330788Y-59324118D01*
X127184924Y-59430095D01*
X127064283Y-59564081D01*
X126974135Y-59720222D01*
X126918423Y-59891688D01*
X126918422Y-59891690D01*
X126911335Y-59959118D01*
X126899576Y-60071000D01*
X104341392Y-60071000D01*
X104336074Y-60065094D01*
X104190212Y-59959119D01*
X104190211Y-59959118D01*
X104025508Y-59885787D01*
X104025503Y-59885785D01*
X103849148Y-59848300D01*
X103668852Y-59848300D01*
X103492496Y-59885785D01*
X103492491Y-59885787D01*
X103327788Y-59959118D01*
X103181924Y-60065095D01*
X103061283Y-60199081D01*
X102971135Y-60355222D01*
X102915423Y-60526688D01*
X102915422Y-60526690D01*
X102915422Y-60526692D01*
X102896576Y-60706000D01*
X64500500Y-60706000D01*
X64500500Y-59040000D01*
X154547576Y-59040000D01*
X154566422Y-59219309D01*
X154566423Y-59219311D01*
X154600476Y-59324118D01*
X154622136Y-59390779D01*
X154712284Y-59546920D01*
X154832926Y-59680906D01*
X154887040Y-59720222D01*
X154978788Y-59786881D01*
X155143491Y-59860212D01*
X155143496Y-59860214D01*
X155319852Y-59897700D01*
X155500148Y-59897700D01*
X155676504Y-59860214D01*
X155841212Y-59786881D01*
X155987074Y-59680906D01*
X156107716Y-59546920D01*
X156197864Y-59390779D01*
X156253578Y-59219308D01*
X156272424Y-59040000D01*
X156253578Y-58860692D01*
X156197864Y-58689221D01*
X156107716Y-58533080D01*
X155987074Y-58399094D01*
X155841212Y-58293119D01*
X155841211Y-58293118D01*
X155676508Y-58219787D01*
X155676503Y-58219785D01*
X155500148Y-58182300D01*
X155319852Y-58182300D01*
X155143496Y-58219785D01*
X155143491Y-58219787D01*
X154978788Y-58293118D01*
X154832924Y-58399095D01*
X154712283Y-58533081D01*
X154622135Y-58689222D01*
X154566423Y-58860688D01*
X154566422Y-58860690D01*
X154547576Y-59040000D01*
X64500500Y-59040000D01*
X64500500Y-55358201D01*
X130963576Y-55358201D01*
X130982422Y-55537510D01*
X130982423Y-55537512D01*
X131037087Y-55705754D01*
X131038136Y-55708980D01*
X131128284Y-55865121D01*
X131248926Y-55999107D01*
X131301387Y-56037222D01*
X131394788Y-56105082D01*
X131559491Y-56178413D01*
X131559496Y-56178415D01*
X131735852Y-56215901D01*
X131916148Y-56215901D01*
X132092504Y-56178415D01*
X132257212Y-56105082D01*
X132403074Y-55999107D01*
X132523716Y-55865121D01*
X132537932Y-55840499D01*
X135422983Y-55840499D01*
X135441829Y-56019808D01*
X135441830Y-56019810D01*
X135493363Y-56178415D01*
X135497543Y-56191278D01*
X135587691Y-56347419D01*
X135708333Y-56481405D01*
X135854195Y-56587380D01*
X136018898Y-56660711D01*
X136018903Y-56660713D01*
X136195259Y-56698199D01*
X136375555Y-56698199D01*
X136551911Y-56660713D01*
X136716619Y-56587380D01*
X136862481Y-56481405D01*
X136946584Y-56388000D01*
X142393576Y-56388000D01*
X142412422Y-56567309D01*
X142412423Y-56567311D01*
X142445564Y-56669311D01*
X142468136Y-56738779D01*
X142558284Y-56894920D01*
X142678926Y-57028906D01*
X142819314Y-57130904D01*
X142824788Y-57134881D01*
X142989491Y-57208212D01*
X142989496Y-57208214D01*
X143165852Y-57245700D01*
X143346148Y-57245700D01*
X143522504Y-57208214D01*
X143687212Y-57134881D01*
X143833074Y-57028906D01*
X143953716Y-56894920D01*
X144043864Y-56738779D01*
X144099578Y-56567308D01*
X144107703Y-56490000D01*
X151977576Y-56490000D01*
X151996422Y-56669308D01*
X152052136Y-56840779D01*
X152142284Y-56996920D01*
X152262926Y-57130906D01*
X152369329Y-57208212D01*
X152408788Y-57236881D01*
X152573491Y-57310212D01*
X152573496Y-57310214D01*
X152749852Y-57347700D01*
X152930148Y-57347700D01*
X153106504Y-57310214D01*
X153271212Y-57236881D01*
X153417074Y-57130906D01*
X153537716Y-56996920D01*
X153627864Y-56840779D01*
X153683578Y-56669308D01*
X153702424Y-56490000D01*
X153683578Y-56310692D01*
X153627864Y-56139221D01*
X153537716Y-55983080D01*
X153417074Y-55849094D01*
X153344143Y-55796106D01*
X153271211Y-55743118D01*
X153106508Y-55669787D01*
X153106503Y-55669785D01*
X152930148Y-55632300D01*
X152749852Y-55632300D01*
X152573496Y-55669785D01*
X152573491Y-55669787D01*
X152408788Y-55743118D01*
X152262924Y-55849095D01*
X152142283Y-55983081D01*
X152052135Y-56139222D01*
X151996423Y-56310688D01*
X151996422Y-56310690D01*
X151978480Y-56481403D01*
X151977576Y-56490000D01*
X144107703Y-56490000D01*
X144118424Y-56388000D01*
X144099578Y-56208692D01*
X144043864Y-56037221D01*
X143953716Y-55881080D01*
X143833074Y-55747094D01*
X143726669Y-55669786D01*
X143687211Y-55641118D01*
X143522508Y-55567787D01*
X143522503Y-55567785D01*
X143346148Y-55530300D01*
X143165852Y-55530300D01*
X142989496Y-55567785D01*
X142989491Y-55567787D01*
X142824788Y-55641118D01*
X142678924Y-55747095D01*
X142558283Y-55881081D01*
X142468135Y-56037222D01*
X142412423Y-56208688D01*
X142412422Y-56208690D01*
X142393576Y-56388000D01*
X136946584Y-56388000D01*
X136983123Y-56347419D01*
X137073271Y-56191278D01*
X137128985Y-56019807D01*
X137147831Y-55840499D01*
X137128985Y-55661191D01*
X137073271Y-55489720D01*
X136983123Y-55333579D01*
X136862481Y-55199593D01*
X136716619Y-55093618D01*
X136716618Y-55093617D01*
X136551915Y-55020286D01*
X136551910Y-55020284D01*
X136375555Y-54982799D01*
X136195259Y-54982799D01*
X136018903Y-55020284D01*
X136018898Y-55020286D01*
X135854195Y-55093617D01*
X135708331Y-55199594D01*
X135587690Y-55333580D01*
X135497542Y-55489721D01*
X135441830Y-55661187D01*
X135441829Y-55661189D01*
X135422983Y-55840499D01*
X132537932Y-55840499D01*
X132613864Y-55708980D01*
X132669578Y-55537509D01*
X132688424Y-55358201D01*
X132669578Y-55178893D01*
X132613864Y-55007422D01*
X132523716Y-54851281D01*
X132403074Y-54717295D01*
X132257212Y-54611320D01*
X132257211Y-54611319D01*
X132092508Y-54537988D01*
X132092503Y-54537986D01*
X131916148Y-54500501D01*
X131735852Y-54500501D01*
X131559496Y-54537986D01*
X131559491Y-54537988D01*
X131394788Y-54611319D01*
X131248924Y-54717296D01*
X131128283Y-54851282D01*
X131038135Y-55007423D01*
X130982423Y-55178889D01*
X130982422Y-55178891D01*
X130963576Y-55358201D01*
X64500500Y-55358201D01*
X64500500Y-54102000D01*
X127407576Y-54102000D01*
X127421730Y-54236672D01*
X127426422Y-54281308D01*
X127482136Y-54452779D01*
X127572284Y-54608920D01*
X127692926Y-54742906D01*
X127787599Y-54811690D01*
X127838788Y-54848881D01*
X128003491Y-54922212D01*
X128003496Y-54922214D01*
X128179852Y-54959700D01*
X128360148Y-54959700D01*
X128536504Y-54922214D01*
X128701212Y-54848881D01*
X128847074Y-54742906D01*
X128967716Y-54608920D01*
X129057864Y-54452779D01*
X129113578Y-54281308D01*
X129132424Y-54102000D01*
X129113578Y-53922692D01*
X129057864Y-53751221D01*
X128967716Y-53595080D01*
X128847074Y-53461094D01*
X128701212Y-53355119D01*
X128701211Y-53355118D01*
X128536508Y-53281787D01*
X128536503Y-53281785D01*
X128360148Y-53244300D01*
X128179852Y-53244300D01*
X128003496Y-53281785D01*
X128003491Y-53281787D01*
X127838788Y-53355118D01*
X127692924Y-53461095D01*
X127572283Y-53595081D01*
X127482135Y-53751222D01*
X127426423Y-53922688D01*
X127426422Y-53922690D01*
X127407576Y-54102000D01*
X64500500Y-54102000D01*
X64500500Y-53086000D01*
X136043576Y-53086000D01*
X136062422Y-53265308D01*
X136118136Y-53436779D01*
X136208284Y-53592920D01*
X136328926Y-53726906D01*
X136474788Y-53832881D01*
X136639491Y-53906212D01*
X136639496Y-53906214D01*
X136815852Y-53943700D01*
X136996148Y-53943700D01*
X137172504Y-53906214D01*
X137337212Y-53832881D01*
X137483074Y-53726906D01*
X137603716Y-53592920D01*
X137693864Y-53436779D01*
X137725309Y-53340000D01*
X138710576Y-53340000D01*
X138729422Y-53519308D01*
X138785136Y-53690779D01*
X138875284Y-53846920D01*
X138995926Y-53980906D01*
X139141788Y-54086881D01*
X139158516Y-54094329D01*
X139211751Y-54139575D01*
X139232074Y-54206424D01*
X139213031Y-54273648D01*
X139180966Y-54307924D01*
X139122928Y-54350091D01*
X139122926Y-54350093D01*
X139002283Y-54484081D01*
X138912135Y-54640222D01*
X138856423Y-54811688D01*
X138856422Y-54811690D01*
X138837576Y-54991000D01*
X138856422Y-55170309D01*
X138856423Y-55170311D01*
X138909471Y-55333579D01*
X138912136Y-55341779D01*
X139002284Y-55497920D01*
X139122926Y-55631906D01*
X139229009Y-55708980D01*
X139268788Y-55737881D01*
X139433491Y-55811212D01*
X139433496Y-55811214D01*
X139609852Y-55848700D01*
X139790148Y-55848700D01*
X139966504Y-55811214D01*
X140131212Y-55737881D01*
X140131218Y-55737876D01*
X140136843Y-55734630D01*
X140138170Y-55736928D01*
X140192837Y-55717381D01*
X140260902Y-55733160D01*
X140263458Y-55734802D01*
X140268791Y-55737881D01*
X140433494Y-55811212D01*
X140433499Y-55811214D01*
X140609855Y-55848700D01*
X140790151Y-55848700D01*
X140966507Y-55811214D01*
X141131215Y-55737881D01*
X141143114Y-55729235D01*
X141208919Y-55705754D01*
X141276973Y-55721578D01*
X141288887Y-55729235D01*
X141300782Y-55737877D01*
X141300788Y-55737881D01*
X141465491Y-55811212D01*
X141465496Y-55811214D01*
X141641852Y-55848700D01*
X141822148Y-55848700D01*
X141998504Y-55811214D01*
X142163212Y-55737881D01*
X142309074Y-55631906D01*
X142429716Y-55497920D01*
X142519864Y-55341779D01*
X142575578Y-55170308D01*
X142594424Y-54991000D01*
X142575578Y-54811692D01*
X142519864Y-54640221D01*
X142429716Y-54484080D01*
X142309074Y-54350094D01*
X142175115Y-54252767D01*
X142163211Y-54244118D01*
X141998508Y-54170787D01*
X141998503Y-54170785D01*
X141822148Y-54133300D01*
X141641852Y-54133300D01*
X141465496Y-54170785D01*
X141465491Y-54170787D01*
X141300788Y-54244118D01*
X141300785Y-54244120D01*
X141288884Y-54252767D01*
X141223077Y-54276245D01*
X141155023Y-54260418D01*
X141143116Y-54252765D01*
X141131219Y-54244121D01*
X141131214Y-54244118D01*
X140966511Y-54170787D01*
X140966506Y-54170785D01*
X140790151Y-54133300D01*
X140609855Y-54133300D01*
X140433499Y-54170785D01*
X140433494Y-54170787D01*
X140268788Y-54244120D01*
X140263163Y-54247368D01*
X140261850Y-54245094D01*
X140207012Y-54264627D01*
X140138967Y-54248764D01*
X140136419Y-54247125D01*
X140131216Y-54244121D01*
X140131212Y-54244119D01*
X140114481Y-54236670D01*
X140061247Y-54191422D01*
X140040925Y-54124573D01*
X140059970Y-54057349D01*
X140092029Y-54023077D01*
X140150074Y-53980906D01*
X140270716Y-53846920D01*
X140360864Y-53690779D01*
X140416578Y-53519308D01*
X140435424Y-53340000D01*
X140416578Y-53160692D01*
X140360864Y-52989221D01*
X140270716Y-52833080D01*
X140150074Y-52699094D01*
X140004212Y-52593119D01*
X140004211Y-52593118D01*
X139839508Y-52519787D01*
X139839503Y-52519785D01*
X139663148Y-52482300D01*
X139482852Y-52482300D01*
X139306496Y-52519785D01*
X139306491Y-52519787D01*
X139141788Y-52593118D01*
X138995924Y-52699095D01*
X138875283Y-52833081D01*
X138785135Y-52989222D01*
X138729423Y-53160688D01*
X138729422Y-53160690D01*
X138716694Y-53281787D01*
X138710576Y-53340000D01*
X137725309Y-53340000D01*
X137749578Y-53265308D01*
X137768424Y-53086000D01*
X137749578Y-52906692D01*
X137693864Y-52735221D01*
X137603716Y-52579080D01*
X137483074Y-52445094D01*
X137337212Y-52339119D01*
X137337211Y-52339118D01*
X137172508Y-52265787D01*
X137172503Y-52265785D01*
X136996148Y-52228300D01*
X136815852Y-52228300D01*
X136639496Y-52265785D01*
X136639491Y-52265787D01*
X136474788Y-52339118D01*
X136328924Y-52445095D01*
X136208283Y-52579081D01*
X136118135Y-52735222D01*
X136062423Y-52906688D01*
X136062422Y-52906690D01*
X136062422Y-52906692D01*
X136043576Y-53086000D01*
X64500500Y-53086000D01*
X64500500Y-51816000D01*
X87783576Y-51816000D01*
X87802422Y-51995308D01*
X87858136Y-52166779D01*
X87948284Y-52322920D01*
X88068926Y-52456906D01*
X88181700Y-52538841D01*
X88214788Y-52562881D01*
X88379491Y-52636212D01*
X88379496Y-52636214D01*
X88555852Y-52673700D01*
X88736148Y-52673700D01*
X88912504Y-52636214D01*
X89077212Y-52562881D01*
X89223074Y-52456906D01*
X89343716Y-52322920D01*
X89433864Y-52166779D01*
X89483115Y-52015200D01*
X103349776Y-52015200D01*
X103368622Y-52194509D01*
X103368623Y-52194511D01*
X103415608Y-52339119D01*
X103424336Y-52365979D01*
X103514484Y-52522120D01*
X103635126Y-52656106D01*
X103744020Y-52735222D01*
X103780988Y-52762081D01*
X103945691Y-52835412D01*
X103945696Y-52835414D01*
X104122052Y-52872900D01*
X104302348Y-52872900D01*
X104478704Y-52835414D01*
X104643412Y-52762081D01*
X104789274Y-52656106D01*
X104909916Y-52522120D01*
X105000064Y-52365979D01*
X105055778Y-52194508D01*
X105074624Y-52015200D01*
X105055778Y-51835892D01*
X105005497Y-51681141D01*
X109492717Y-51681141D01*
X109508981Y-51835888D01*
X109511563Y-51860449D01*
X109567277Y-52031920D01*
X109657425Y-52188061D01*
X109778067Y-52322047D01*
X109923929Y-52428022D01*
X110088632Y-52501353D01*
X110088637Y-52501355D01*
X110264993Y-52538841D01*
X110445289Y-52538841D01*
X110621645Y-52501355D01*
X110786353Y-52428022D01*
X110932215Y-52322047D01*
X111052857Y-52188061D01*
X111143005Y-52031920D01*
X111198719Y-51860449D01*
X111217565Y-51681141D01*
X111198719Y-51501833D01*
X111143005Y-51330362D01*
X111052857Y-51174221D01*
X110932215Y-51040235D01*
X110786353Y-50934260D01*
X110786352Y-50934259D01*
X110621649Y-50860928D01*
X110621644Y-50860926D01*
X110445289Y-50823441D01*
X110264993Y-50823441D01*
X110088637Y-50860926D01*
X110088632Y-50860928D01*
X109923929Y-50934259D01*
X109778065Y-51040236D01*
X109657424Y-51174222D01*
X109567276Y-51330363D01*
X109511564Y-51501829D01*
X109511563Y-51501831D01*
X109492717Y-51681141D01*
X105005497Y-51681141D01*
X105000064Y-51664421D01*
X104909916Y-51508280D01*
X104789274Y-51374294D01*
X104643412Y-51268319D01*
X104643411Y-51268318D01*
X104478708Y-51194987D01*
X104478703Y-51194985D01*
X104302348Y-51157500D01*
X104122052Y-51157500D01*
X103945696Y-51194985D01*
X103945691Y-51194987D01*
X103780988Y-51268318D01*
X103635124Y-51374295D01*
X103514483Y-51508281D01*
X103424335Y-51664422D01*
X103368623Y-51835888D01*
X103368622Y-51835890D01*
X103349776Y-52015200D01*
X89483115Y-52015200D01*
X89489578Y-51995308D01*
X89508424Y-51816000D01*
X89489578Y-51636692D01*
X89433864Y-51465221D01*
X89343716Y-51309080D01*
X89223074Y-51175094D01*
X89077212Y-51069119D01*
X89077211Y-51069118D01*
X88912508Y-50995787D01*
X88912503Y-50995785D01*
X88736148Y-50958300D01*
X88555852Y-50958300D01*
X88379496Y-50995785D01*
X88379491Y-50995787D01*
X88214788Y-51069118D01*
X88068924Y-51175095D01*
X87948283Y-51309081D01*
X87858135Y-51465222D01*
X87802423Y-51636688D01*
X87802422Y-51636690D01*
X87799507Y-51664422D01*
X87783576Y-51816000D01*
X64500500Y-51816000D01*
X64500500Y-49149000D01*
X86386576Y-49149000D01*
X86405422Y-49328308D01*
X86461136Y-49499779D01*
X86551284Y-49655920D01*
X86671926Y-49789906D01*
X86817788Y-49895881D01*
X86982491Y-49969212D01*
X86982496Y-49969214D01*
X87158852Y-50006700D01*
X87339148Y-50006700D01*
X87515504Y-49969214D01*
X87680212Y-49895881D01*
X87826074Y-49789906D01*
X87946716Y-49655920D01*
X88036864Y-49499779D01*
X88092578Y-49328308D01*
X88111424Y-49149000D01*
X88092578Y-48969692D01*
X88036864Y-48798221D01*
X87946716Y-48642080D01*
X87826074Y-48508094D01*
X87680212Y-48402119D01*
X87680211Y-48402118D01*
X87515508Y-48328787D01*
X87515503Y-48328785D01*
X87339148Y-48291300D01*
X87158852Y-48291300D01*
X86982496Y-48328785D01*
X86982491Y-48328787D01*
X86817788Y-48402118D01*
X86671924Y-48508095D01*
X86551283Y-48642081D01*
X86461135Y-48798222D01*
X86405423Y-48969688D01*
X86405422Y-48969690D01*
X86405422Y-48969692D01*
X86386576Y-49149000D01*
X64500500Y-49149000D01*
X64500500Y-47260000D01*
X81067576Y-47260000D01*
X81086422Y-47439309D01*
X81086423Y-47439311D01*
X81129759Y-47572688D01*
X81142136Y-47610779D01*
X81232284Y-47766920D01*
X81352926Y-47900906D01*
X81394775Y-47931311D01*
X81498788Y-48006881D01*
X81663491Y-48080212D01*
X81663496Y-48080214D01*
X81839852Y-48117700D01*
X82020148Y-48117700D01*
X82196504Y-48080214D01*
X82361212Y-48006881D01*
X82507074Y-47900906D01*
X82627716Y-47766920D01*
X82650995Y-47726600D01*
X131573176Y-47726600D01*
X131592022Y-47905908D01*
X131647736Y-48077379D01*
X131737884Y-48233520D01*
X131858526Y-48367506D01*
X131906167Y-48402119D01*
X132004388Y-48473481D01*
X132169091Y-48546812D01*
X132169096Y-48546814D01*
X132345452Y-48584300D01*
X132525748Y-48584300D01*
X132702104Y-48546814D01*
X132866812Y-48473481D01*
X133012674Y-48367506D01*
X133133316Y-48233520D01*
X133223464Y-48077379D01*
X133223464Y-48077376D01*
X133224613Y-48075388D01*
X133275179Y-48027173D01*
X133343786Y-48013949D01*
X133408651Y-48039917D01*
X133449180Y-48096831D01*
X133449931Y-48099071D01*
X133451136Y-48102779D01*
X133541284Y-48258920D01*
X133661926Y-48392906D01*
X133674607Y-48402119D01*
X133807788Y-48498881D01*
X133972491Y-48572212D01*
X133972496Y-48572214D01*
X134148852Y-48609700D01*
X134329148Y-48609700D01*
X134505504Y-48572214D01*
X134670212Y-48498881D01*
X134816074Y-48392906D01*
X134936716Y-48258920D01*
X135026864Y-48102779D01*
X135082578Y-47931308D01*
X135101424Y-47752000D01*
X135082578Y-47572692D01*
X135026864Y-47401221D01*
X134936716Y-47245080D01*
X134816074Y-47111094D01*
X134670212Y-47005119D01*
X134670211Y-47005118D01*
X134505508Y-46931787D01*
X134505503Y-46931785D01*
X134329148Y-46894300D01*
X134148852Y-46894300D01*
X133972496Y-46931785D01*
X133972491Y-46931787D01*
X133807788Y-47005118D01*
X133661924Y-47111095D01*
X133541282Y-47245081D01*
X133449986Y-47403211D01*
X133399419Y-47451427D01*
X133330812Y-47464649D01*
X133265947Y-47438681D01*
X133225419Y-47381767D01*
X133224692Y-47379601D01*
X133223464Y-47375821D01*
X133133316Y-47219680D01*
X133012674Y-47085694D01*
X132866812Y-46979719D01*
X132866811Y-46979718D01*
X132702108Y-46906387D01*
X132702103Y-46906385D01*
X132525748Y-46868900D01*
X132345452Y-46868900D01*
X132169096Y-46906385D01*
X132169091Y-46906387D01*
X132004388Y-46979718D01*
X131858524Y-47085695D01*
X131737883Y-47219681D01*
X131647735Y-47375822D01*
X131592023Y-47547288D01*
X131592022Y-47547290D01*
X131589352Y-47572692D01*
X131573176Y-47726600D01*
X82650995Y-47726600D01*
X82717864Y-47610779D01*
X82773578Y-47439308D01*
X82792424Y-47260000D01*
X82773578Y-47080692D01*
X82717864Y-46909221D01*
X82627716Y-46753080D01*
X82507074Y-46619094D01*
X82361212Y-46513119D01*
X82361211Y-46513118D01*
X82196508Y-46439787D01*
X82196503Y-46439785D01*
X82020148Y-46402300D01*
X81839852Y-46402300D01*
X81663496Y-46439785D01*
X81663491Y-46439787D01*
X81498788Y-46513118D01*
X81352924Y-46619095D01*
X81232283Y-46753081D01*
X81142135Y-46909222D01*
X81086423Y-47080688D01*
X81086422Y-47080690D01*
X81067576Y-47260000D01*
X64500500Y-47260000D01*
X64500500Y-43307000D01*
X110008576Y-43307000D01*
X110027422Y-43486308D01*
X110083136Y-43657779D01*
X110173284Y-43813920D01*
X110293926Y-43947906D01*
X110439788Y-44053881D01*
X110604491Y-44127212D01*
X110604496Y-44127214D01*
X110780852Y-44164700D01*
X110961148Y-44164700D01*
X111137504Y-44127214D01*
X111302212Y-44053881D01*
X111448074Y-43947906D01*
X111568716Y-43813920D01*
X111658864Y-43657779D01*
X111714578Y-43486308D01*
X111733424Y-43307000D01*
X111714578Y-43127692D01*
X111658864Y-42956221D01*
X111568716Y-42800080D01*
X111448074Y-42666094D01*
X111302212Y-42560119D01*
X111302211Y-42560118D01*
X111137508Y-42486787D01*
X111137503Y-42486785D01*
X110961148Y-42449300D01*
X110780852Y-42449300D01*
X110604496Y-42486785D01*
X110604491Y-42486787D01*
X110439788Y-42560118D01*
X110293924Y-42666095D01*
X110173283Y-42800081D01*
X110083135Y-42956222D01*
X110027423Y-43127688D01*
X110027422Y-43127690D01*
X110027422Y-43127692D01*
X110008576Y-43307000D01*
X64500500Y-43307000D01*
X64500500Y-39010000D01*
X105007576Y-39010000D01*
X105026422Y-39189308D01*
X105082136Y-39360779D01*
X105172284Y-39516920D01*
X105292926Y-39650906D01*
X105438788Y-39756881D01*
X105603491Y-39830212D01*
X105603496Y-39830214D01*
X105779852Y-39867700D01*
X105960148Y-39867700D01*
X106136504Y-39830214D01*
X106301212Y-39756881D01*
X106447074Y-39650906D01*
X106567716Y-39516920D01*
X106657864Y-39360779D01*
X106713578Y-39189308D01*
X106732424Y-39010000D01*
X106713578Y-38830692D01*
X106657864Y-38659221D01*
X106567716Y-38503080D01*
X106447074Y-38369094D01*
X106301212Y-38263119D01*
X106301211Y-38263118D01*
X106136508Y-38189787D01*
X106136503Y-38189785D01*
X105960148Y-38152300D01*
X105779852Y-38152300D01*
X105603496Y-38189785D01*
X105603491Y-38189787D01*
X105438788Y-38263118D01*
X105292924Y-38369095D01*
X105172283Y-38503081D01*
X105082135Y-38659222D01*
X105026423Y-38830688D01*
X105026422Y-38830690D01*
X105026422Y-38830692D01*
X105007576Y-39010000D01*
X64500500Y-39010000D01*
X64500500Y-29213480D01*
X64500695Y-29206527D01*
X64506034Y-29111459D01*
X64517776Y-28902375D01*
X64519330Y-28888581D01*
X64569774Y-28591689D01*
X64572867Y-28578137D01*
X64656233Y-28288769D01*
X64660826Y-28275644D01*
X64705486Y-28167825D01*
X64776068Y-27997423D01*
X64782088Y-27984924D01*
X64927762Y-27721345D01*
X64935157Y-27709577D01*
X65109420Y-27463975D01*
X65118075Y-27453121D01*
X65318752Y-27228564D01*
X65328564Y-27218752D01*
X65553121Y-27018075D01*
X65563975Y-27009420D01*
X65809582Y-26835153D01*
X65821348Y-26827761D01*
X66084924Y-26682088D01*
X66097423Y-26676068D01*
X66375648Y-26560824D01*
X66388765Y-26556234D01*
X66678143Y-26472865D01*
X66691689Y-26469774D01*
X66988581Y-26419330D01*
X67002375Y-26417776D01*
X67306527Y-26400694D01*
X67313478Y-26400500D01*
X186572625Y-26400500D01*
X186572629Y-26400502D01*
G37*
%TD.AperFunction*%
%TD*%
M02*
