%TF.GenerationSoftware,KiCad,Pcbnew,8.0.0*%
%TF.CreationDate,2024-03-17T22:04:36-04:00*%
%TF.ProjectId,S-Band Transceiver,532d4261-6e64-4205-9472-616e73636569,v1.0*%
%TF.SameCoordinates,Original*%
%TF.FileFunction,Copper,L4,Bot*%
%TF.FilePolarity,Positive*%
%FSLAX46Y46*%
G04 Gerber Fmt 4.6, Leading zero omitted, Abs format (unit mm)*
G04 Created by KiCad (PCBNEW 8.0.0) date 2024-03-17 22:04:36*
%MOMM*%
%LPD*%
G01*
G04 APERTURE LIST*
G04 Aperture macros list*
%AMRoundRect*
0 Rectangle with rounded corners*
0 $1 Rounding radius*
0 $2 $3 $4 $5 $6 $7 $8 $9 X,Y pos of 4 corners*
0 Add a 4 corners polygon primitive as box body*
4,1,4,$2,$3,$4,$5,$6,$7,$8,$9,$2,$3,0*
0 Add four circle primitives for the rounded corners*
1,1,$1+$1,$2,$3*
1,1,$1+$1,$4,$5*
1,1,$1+$1,$6,$7*
1,1,$1+$1,$8,$9*
0 Add four rect primitives between the rounded corners*
20,1,$1+$1,$2,$3,$4,$5,0*
20,1,$1+$1,$4,$5,$6,$7,0*
20,1,$1+$1,$6,$7,$8,$9,0*
20,1,$1+$1,$8,$9,$2,$3,0*%
G04 Aperture macros list end*
%TA.AperFunction,ComponentPad*%
%ADD10C,5.562600*%
%TD*%
%TA.AperFunction,HeatsinkPad*%
%ADD11C,0.600000*%
%TD*%
%TA.AperFunction,HeatsinkPad*%
%ADD12R,2.300000X2.300000*%
%TD*%
%TA.AperFunction,ComponentPad*%
%ADD13C,0.700000*%
%TD*%
%TA.AperFunction,ComponentPad*%
%ADD14O,2.400000X0.900000*%
%TD*%
%TA.AperFunction,ComponentPad*%
%ADD15O,1.700000X0.900000*%
%TD*%
%TA.AperFunction,ComponentPad*%
%ADD16RoundRect,0.250000X0.600000X-0.600000X0.600000X0.600000X-0.600000X0.600000X-0.600000X-0.600000X0*%
%TD*%
%TA.AperFunction,ComponentPad*%
%ADD17C,1.700000*%
%TD*%
%TA.AperFunction,HeatsinkPad*%
%ADD18R,2.100000X2.100000*%
%TD*%
%TA.AperFunction,SMDPad,CuDef*%
%ADD19R,4.200000X1.350000*%
%TD*%
%TA.AperFunction,HeatsinkPad*%
%ADD20R,1.250000X1.250000*%
%TD*%
%TA.AperFunction,ViaPad*%
%ADD21C,0.800000*%
%TD*%
%TA.AperFunction,ViaPad*%
%ADD22C,0.600000*%
%TD*%
%TA.AperFunction,Conductor*%
%ADD23C,1.270000*%
%TD*%
%TA.AperFunction,Conductor*%
%ADD24C,0.254000*%
%TD*%
G04 APERTURE END LIST*
D10*
%TO.P,H4,1,1*%
%TO.N,GND*%
X186690000Y-123190000D03*
%TD*%
%TO.P,H3,1,1*%
%TO.N,GND*%
X67310000Y-123190000D03*
%TD*%
%TO.P,H2,1,1*%
%TO.N,GND*%
X186690000Y-29210000D03*
%TD*%
%TO.P,H1,1,1*%
%TO.N,GND*%
X67310000Y-29210000D03*
%TD*%
D11*
%TO.P,U15,25,EP*%
%TO.N,GND*%
X106969000Y-57746000D03*
X107819000Y-57746000D03*
X108669000Y-57746000D03*
X106969000Y-56896000D03*
X107819000Y-56896000D03*
D12*
X107819000Y-56896000D03*
D11*
X108669000Y-56896000D03*
X106969000Y-56046000D03*
X107819000Y-56046000D03*
X108669000Y-56046000D03*
%TD*%
D13*
%TO.P,J4,A1,GND*%
%TO.N,GND*%
X184443000Y-104575000D03*
%TO.P,J4,A4,VBUS*%
%TO.N,VBUS*%
X184443000Y-103725000D03*
%TO.P,J4,A5,CC1*%
%TO.N,Net-(J4-CC1)*%
X184443000Y-102875000D03*
%TO.P,J4,A6,D+*%
%TO.N,USBDP*%
X184443000Y-102025000D03*
%TO.P,J4,A7,D-*%
%TO.N,USBDM*%
X184443000Y-101175000D03*
%TO.P,J4,A8,SBU1*%
%TO.N,unconnected-(J4-SBU1-PadA8)*%
X184443000Y-100325000D03*
%TO.P,J4,A9,VBUS*%
%TO.N,VBUS*%
X184443000Y-99475000D03*
%TO.P,J4,A12,GND*%
%TO.N,GND*%
X184443000Y-98625000D03*
%TO.P,J4,B1,GND*%
X185793000Y-98625000D03*
%TO.P,J4,B4,VBUS*%
%TO.N,VBUS*%
X185793000Y-99475000D03*
%TO.P,J4,B5,CC2*%
%TO.N,Net-(J4-CC2)*%
X185793000Y-100325000D03*
%TO.P,J4,B6,D+*%
%TO.N,USBDP*%
X185793000Y-101175000D03*
%TO.P,J4,B7,D-*%
%TO.N,USBDM*%
X185793000Y-102025000D03*
%TO.P,J4,B8,SBU2*%
%TO.N,unconnected-(J4-SBU2-PadB8)*%
X185793000Y-102875000D03*
%TO.P,J4,B9,VBUS*%
%TO.N,VBUS*%
X185793000Y-103725000D03*
%TO.P,J4,B12,GND*%
%TO.N,GND*%
X185793000Y-104575000D03*
D14*
%TO.P,J4,S1,SHIELD*%
X185423000Y-105925000D03*
D15*
X188803000Y-105925000D03*
D14*
X185423000Y-97275000D03*
D15*
X188803000Y-97275000D03*
%TD*%
D16*
%TO.P,J3,1,DATA*%
%TO.N,UPDI*%
X139954000Y-121158000D03*
D17*
%TO.P,J3,2,VCC*%
%TO.N,+3V3*%
X139954000Y-118618000D03*
%TO.P,J3,3,NC*%
%TO.N,unconnected-(J3-NC-Pad3)*%
X142494000Y-121158000D03*
%TO.P,J3,4,NC*%
%TO.N,unconnected-(J3-NC-Pad4)*%
X142494000Y-118618000D03*
%TO.P,J3,5,NC*%
%TO.N,unconnected-(J3-NC-Pad5)*%
X145034000Y-121158000D03*
%TO.P,J3,6,GND*%
%TO.N,GND*%
X145034000Y-118618000D03*
%TD*%
D11*
%TO.P,U20,17,GND*%
%TO.N,GND*%
X75659000Y-64995000D03*
X75659000Y-65745000D03*
X75659000Y-66495000D03*
X76409000Y-64995000D03*
X76409000Y-65745000D03*
D18*
X76409000Y-65745000D03*
D11*
X76409000Y-66495000D03*
X77159000Y-64995000D03*
X77159000Y-65745000D03*
X77159000Y-66495000D03*
%TD*%
D19*
%TO.P,J5,2,Ext*%
%TO.N,GND*%
X65659000Y-117125000D03*
X65659000Y-111475000D03*
%TD*%
%TO.P,J8,2,Ext*%
%TO.N,GND*%
X65659000Y-54325000D03*
X65659000Y-59975000D03*
%TD*%
D11*
%TO.P,U12,17,GND*%
%TO.N,GND*%
X77172800Y-105915800D03*
X77172800Y-105165800D03*
X77172800Y-104415800D03*
X76422800Y-105915800D03*
X76422800Y-105165800D03*
D18*
X76422800Y-105165800D03*
D11*
X76422800Y-104415800D03*
X75672800Y-105915800D03*
X75672800Y-105165800D03*
X75672800Y-104415800D03*
%TD*%
D19*
%TO.P,J1,2,Ext*%
%TO.N,GND*%
X188377500Y-53625000D03*
X188377500Y-47975000D03*
%TD*%
%TO.P,J2,2,Ext*%
%TO.N,GND*%
X65659000Y-98075000D03*
X65659000Y-92425000D03*
%TD*%
D20*
%TO.P,U16,13,GND*%
%TO.N,GND*%
X85898000Y-57150000D03*
%TD*%
D19*
%TO.P,J7,2,Ext*%
%TO.N,GND*%
X65659000Y-73375000D03*
X65659000Y-79025000D03*
%TD*%
%TO.P,J6,2,Ext*%
%TO.N,GND*%
X65659000Y-35275000D03*
X65659000Y-40925000D03*
%TD*%
D20*
%TO.P,U10,13,GND*%
%TO.N,GND*%
X81330800Y-114300000D03*
%TD*%
D21*
%TO.N,GND*%
X104394000Y-36576000D03*
X101981000Y-46736000D03*
X115697000Y-60452000D03*
X111887000Y-72771000D03*
X103251000Y-71882000D03*
X103632000Y-66167000D03*
X157988000Y-123063000D03*
X168275000Y-124333000D03*
X178943000Y-124333000D03*
X111125000Y-111125000D03*
X108331000Y-107061000D03*
X99187000Y-109982000D03*
X100838000Y-111379000D03*
X75819000Y-118745000D03*
X70358000Y-109601000D03*
X69596000Y-102235000D03*
X84582000Y-104648000D03*
X77089000Y-71628000D03*
X74041000Y-71247000D03*
X83312000Y-61849000D03*
X84709000Y-66040000D03*
X71374000Y-67945000D03*
X69088000Y-65532000D03*
X73787000Y-61341000D03*
X81407000Y-51308000D03*
X90551000Y-51308000D03*
X147447000Y-73533000D03*
X137795000Y-84836000D03*
X138684000Y-82804000D03*
X146685000Y-81153000D03*
X128524000Y-67183000D03*
X131572000Y-67183000D03*
X134239000Y-67564000D03*
X140589000Y-68072000D03*
X136271000Y-51181000D03*
X149098000Y-56515000D03*
X149225000Y-63373000D03*
X187960000Y-45974000D03*
X187960000Y-55245000D03*
X174879000Y-70866000D03*
X153416000Y-84455000D03*
X159512000Y-88392000D03*
X168148000Y-88646000D03*
X176784000Y-88519000D03*
X153797000Y-112268000D03*
X85471000Y-119253000D03*
X96901000Y-121666000D03*
D22*
X74803000Y-111125000D03*
X77978000Y-109347000D03*
X77724000Y-111506000D03*
X81407000Y-60198000D03*
X80391000Y-60452000D03*
X70866000Y-111633000D03*
X101092000Y-54610000D03*
X99822000Y-54483000D03*
X98806000Y-54356000D03*
X97663000Y-54229000D03*
X100584000Y-59309000D03*
X99568000Y-59436000D03*
X98679000Y-59436000D03*
X97663000Y-59436000D03*
X93218000Y-56007000D03*
X93345000Y-55118000D03*
X94615000Y-54483000D03*
X95885000Y-54610000D03*
X96647000Y-55245000D03*
X96647000Y-56134000D03*
X96647000Y-57023000D03*
X96647000Y-57785000D03*
X96647000Y-58547000D03*
X96647000Y-59436000D03*
X95631000Y-59436000D03*
X94488000Y-59436000D03*
X93345000Y-59309000D03*
X92456000Y-59309000D03*
X91567000Y-59182000D03*
X90551000Y-58547000D03*
X93218000Y-57023000D03*
X92075000Y-56769000D03*
X91186000Y-56261000D03*
X90068400Y-56134000D03*
X89662000Y-58293000D03*
X88773000Y-58293000D03*
X87884000Y-58420000D03*
X87376000Y-59055000D03*
X86106000Y-59309000D03*
X85090000Y-59309000D03*
X84582000Y-58420000D03*
X83769200Y-58166000D03*
X83718400Y-56134000D03*
X82931000Y-56083200D03*
X81788000Y-56134000D03*
X81788000Y-58166000D03*
X80899000Y-58166000D03*
X80010000Y-58039000D03*
X79248000Y-58039000D03*
X77851000Y-56134000D03*
X76962000Y-56134000D03*
X76073000Y-56134000D03*
X71501000Y-58293000D03*
X70485000Y-58293000D03*
X71501000Y-55880000D03*
X70612000Y-55880000D03*
X74980800Y-58978800D03*
X74168000Y-56134000D03*
X74168000Y-58166000D03*
X75057000Y-56134000D03*
X73279000Y-56134000D03*
X72390000Y-58166000D03*
X73279000Y-58166000D03*
X72390000Y-56134000D03*
X110490000Y-31496000D03*
X108966000Y-31242000D03*
X107696000Y-31242000D03*
X106680000Y-31750000D03*
X106680000Y-33528000D03*
X105791000Y-33528000D03*
X105791000Y-31750000D03*
X104902000Y-31750000D03*
X104902000Y-33528000D03*
X103124000Y-31750000D03*
X104013000Y-33528000D03*
X103124000Y-33528000D03*
X104013000Y-31750000D03*
X97790000Y-31750000D03*
X97790000Y-33528000D03*
X96012000Y-31750000D03*
X96012000Y-33528000D03*
X96901000Y-31750000D03*
X96901000Y-33528000D03*
X98679000Y-33528000D03*
X98679000Y-31750000D03*
X101346000Y-31750000D03*
X100457000Y-33528000D03*
X99568000Y-33528000D03*
X100457000Y-31750000D03*
X102235000Y-31750000D03*
X99568000Y-31750000D03*
X102235000Y-33528000D03*
X101346000Y-33528000D03*
X94234000Y-31750000D03*
X94234000Y-33528000D03*
X92456000Y-31750000D03*
X92456000Y-33528000D03*
X93345000Y-31750000D03*
X93345000Y-33528000D03*
X95123000Y-33528000D03*
X95123000Y-31750000D03*
X91567000Y-31750000D03*
X90678000Y-33528000D03*
X88900000Y-31750000D03*
X89789000Y-31750000D03*
X90678000Y-31750000D03*
X89789000Y-33528000D03*
X91567000Y-33528000D03*
X88900000Y-33528000D03*
X86233000Y-31750000D03*
X85344000Y-33528000D03*
X88011000Y-33528000D03*
X86233000Y-33528000D03*
X88011000Y-31750000D03*
X87122000Y-33528000D03*
X87122000Y-31750000D03*
X85344000Y-31750000D03*
X83566000Y-31750000D03*
X82677000Y-31750000D03*
X83566000Y-33528000D03*
X81788000Y-33528000D03*
X84455000Y-33528000D03*
X81788000Y-31750000D03*
X82677000Y-33528000D03*
X84455000Y-31750000D03*
X80899000Y-31750000D03*
X80899000Y-33528000D03*
X80010000Y-31750000D03*
X80010000Y-33528000D03*
X79121000Y-33528000D03*
X79121000Y-31750000D03*
X78232000Y-31750000D03*
X78232000Y-33528000D03*
X76708000Y-31877000D03*
X77470000Y-33655000D03*
X76835000Y-34290000D03*
X76200000Y-34925000D03*
X75311000Y-33020000D03*
X75946000Y-32385000D03*
X74676000Y-33655000D03*
X75565000Y-35560000D03*
X74930000Y-36195000D03*
X74041000Y-34290000D03*
X73406000Y-34925000D03*
X72771000Y-35560000D03*
X72136000Y-36195000D03*
X74295000Y-36830000D03*
X73660000Y-37465000D03*
X73025000Y-38100000D03*
X72263000Y-38735000D03*
X71374000Y-36957000D03*
X71374000Y-39116000D03*
X70485000Y-39116000D03*
X70485000Y-37084000D03*
X69596000Y-37084000D03*
X68707000Y-39116000D03*
X69596000Y-39116000D03*
X68707000Y-37084000D03*
X68707000Y-56134000D03*
X69596000Y-56134000D03*
X68707000Y-58166000D03*
X69596000Y-58166000D03*
X111760000Y-80772000D03*
X110617000Y-81915000D03*
X108458000Y-81915000D03*
X106807000Y-81788000D03*
X99314000Y-81661000D03*
X101981000Y-81661000D03*
X101092000Y-79629000D03*
X100203000Y-81661000D03*
X100203000Y-79629000D03*
X103759000Y-79629000D03*
X99314000Y-79629000D03*
X102870000Y-81661000D03*
X101092000Y-81661000D03*
X103759000Y-81661000D03*
X102870000Y-79629000D03*
X101981000Y-79629000D03*
X96647000Y-81661000D03*
X97536000Y-79629000D03*
X95758000Y-79629000D03*
X95758000Y-81661000D03*
X92202000Y-81661000D03*
X94869000Y-79629000D03*
X97536000Y-81661000D03*
X93091000Y-81661000D03*
X92202000Y-79629000D03*
X98425000Y-79629000D03*
X93980000Y-81661000D03*
X93980000Y-79629000D03*
X93091000Y-79629000D03*
X98425000Y-81661000D03*
X96647000Y-79629000D03*
X94869000Y-81661000D03*
X89535000Y-81661000D03*
X90424000Y-79629000D03*
X88646000Y-79629000D03*
X90424000Y-81661000D03*
X88646000Y-81661000D03*
X85979000Y-81661000D03*
X85090000Y-81661000D03*
X85090000Y-79629000D03*
X86868000Y-81661000D03*
X86868000Y-79629000D03*
X87757000Y-79629000D03*
X85979000Y-79629000D03*
X91313000Y-81661000D03*
X91313000Y-79629000D03*
X89535000Y-79629000D03*
X87757000Y-81661000D03*
X81534000Y-81661000D03*
X80645000Y-81661000D03*
X80645000Y-79629000D03*
X82423000Y-81661000D03*
X82423000Y-79629000D03*
X83312000Y-79629000D03*
X81534000Y-79629000D03*
X83312000Y-81661000D03*
X79756000Y-81661000D03*
X78867000Y-81661000D03*
X78867000Y-79629000D03*
X79756000Y-79629000D03*
X77978000Y-81661000D03*
X77978000Y-79629000D03*
X77089000Y-81661000D03*
X76200000Y-81661000D03*
X75311000Y-81534000D03*
X77089000Y-79629000D03*
X74549000Y-80899000D03*
X73914000Y-80264000D03*
X73279000Y-79629000D03*
X75438000Y-78867000D03*
X74803000Y-78232000D03*
X76073000Y-79502000D03*
X74168000Y-77597000D03*
X73533000Y-76962000D03*
X72644000Y-78994000D03*
X72009000Y-78359000D03*
X72898000Y-76327000D03*
X72263000Y-75692000D03*
X70485000Y-75184000D03*
X71374000Y-77724000D03*
X68707000Y-77216000D03*
X70612000Y-77216000D03*
X71374000Y-75184000D03*
X68707000Y-75184000D03*
X69596000Y-75184000D03*
X69596000Y-77216000D03*
X66167000Y-39624000D03*
X66167000Y-36576000D03*
X64643000Y-36576000D03*
X65405000Y-39624000D03*
X65405000Y-36576000D03*
X64643000Y-39624000D03*
X66929000Y-39624000D03*
X66929000Y-36576000D03*
X67818000Y-39497000D03*
X67818000Y-36703000D03*
X67818000Y-55753000D03*
X65405000Y-55626000D03*
X66167000Y-55626000D03*
X66929000Y-55626000D03*
X64643000Y-55626000D03*
X64643000Y-58674000D03*
X66929000Y-58674000D03*
X66167000Y-58674000D03*
X67818000Y-58547000D03*
X65405000Y-58674000D03*
X66167000Y-74676000D03*
X67818000Y-74803000D03*
X66929000Y-74676000D03*
X65405000Y-74676000D03*
X66929000Y-77724000D03*
X64643000Y-74676000D03*
X66167000Y-77724000D03*
X64643000Y-77724000D03*
X67818000Y-77597000D03*
X65405000Y-77724000D03*
X122174000Y-58420000D03*
X122174000Y-55499000D03*
X120396000Y-55499000D03*
X121285000Y-55499000D03*
X118618000Y-58420000D03*
X121285000Y-58420000D03*
X119507000Y-58420000D03*
X117729000Y-58420000D03*
X120396000Y-58420000D03*
X116840000Y-58420000D03*
X119507000Y-55499000D03*
X118618000Y-55499000D03*
X117729000Y-55499000D03*
X116840000Y-55499000D03*
X115951000Y-55499000D03*
X115951000Y-58420000D03*
X115062000Y-58420000D03*
X115062000Y-55499000D03*
X110998000Y-55499000D03*
X111887000Y-55499000D03*
X111887000Y-58445400D03*
X120015000Y-106553000D03*
X120015000Y-105664000D03*
X122047000Y-105664000D03*
X122047000Y-106553000D03*
D21*
%TO.N,+3.3VA*%
X125222000Y-110236000D03*
X125222000Y-106680000D03*
D22*
%TO.N,GND*%
X116840000Y-89916000D03*
X118872000Y-89916000D03*
X118872000Y-90805000D03*
X116840000Y-90805000D03*
X116459000Y-92710000D03*
X118745000Y-92964000D03*
X118364000Y-93726000D03*
X117983000Y-94361000D03*
X117475000Y-94996000D03*
X116840000Y-95504000D03*
X115824000Y-93472000D03*
X115951000Y-95885000D03*
X115062000Y-93980000D03*
X115062000Y-96139000D03*
X111379000Y-94234000D03*
X112141000Y-96266000D03*
X111379000Y-96266000D03*
X112141000Y-94234000D03*
X106045000Y-96266000D03*
X108712000Y-96266000D03*
X110490000Y-94234000D03*
X107823000Y-96266000D03*
X106045000Y-94234000D03*
X104267000Y-96266000D03*
X109601000Y-96266000D03*
X91821000Y-94234000D03*
X104267000Y-94234000D03*
X92710000Y-96266000D03*
X90043000Y-96266000D03*
X106934000Y-96266000D03*
X105156000Y-94234000D03*
X110490000Y-96266000D03*
X109601000Y-94234000D03*
X91821000Y-96266000D03*
X107823000Y-94234000D03*
X106934000Y-94234000D03*
X92710000Y-94234000D03*
X108712000Y-94234000D03*
X105156000Y-96266000D03*
X99822000Y-96266000D03*
X99822000Y-94234000D03*
X98933000Y-94234000D03*
X98933000Y-96266000D03*
X97155000Y-96266000D03*
X96266000Y-96266000D03*
X90043000Y-94234000D03*
X95377000Y-94234000D03*
X102489000Y-96266000D03*
X90932000Y-94234000D03*
X90932000Y-96266000D03*
X100711000Y-94234000D03*
X103378000Y-96266000D03*
X102489000Y-94234000D03*
X98044000Y-94234000D03*
X101600000Y-96266000D03*
X103378000Y-94234000D03*
X97155000Y-94234000D03*
X101600000Y-94234000D03*
X98044000Y-96266000D03*
X100711000Y-96266000D03*
X94488000Y-94234000D03*
X94488000Y-96266000D03*
X96266000Y-94234000D03*
X93599000Y-96266000D03*
X93599000Y-94234000D03*
X95377000Y-96266000D03*
X85598000Y-96266000D03*
X85598000Y-94234000D03*
X84709000Y-94234000D03*
X84709000Y-96266000D03*
X82931000Y-96266000D03*
X88265000Y-96266000D03*
X86487000Y-94234000D03*
X89154000Y-96266000D03*
X88265000Y-94234000D03*
X83820000Y-94234000D03*
X87376000Y-96266000D03*
X89154000Y-94234000D03*
X82931000Y-94234000D03*
X87376000Y-94234000D03*
X83820000Y-96266000D03*
X86487000Y-96266000D03*
X77597000Y-94234000D03*
X78486000Y-96266000D03*
X75819000Y-96266000D03*
X77597000Y-96266000D03*
X78486000Y-94234000D03*
X82042000Y-96266000D03*
X75819000Y-94234000D03*
X81153000Y-94234000D03*
X76708000Y-94234000D03*
X76708000Y-96266000D03*
X80264000Y-94234000D03*
X80264000Y-96266000D03*
X82042000Y-94234000D03*
X79375000Y-96266000D03*
X79375000Y-94234000D03*
X81153000Y-96266000D03*
X74041000Y-94234000D03*
X74930000Y-96266000D03*
X72263000Y-96266000D03*
X74041000Y-96266000D03*
X74930000Y-94234000D03*
X72263000Y-94234000D03*
X73152000Y-94234000D03*
X73152000Y-96266000D03*
X70485000Y-96266000D03*
X70485000Y-94234000D03*
X71374000Y-94234000D03*
X71374000Y-96266000D03*
X69596000Y-94234000D03*
X69596000Y-96266000D03*
X68707000Y-96266000D03*
X64643000Y-96774000D03*
X66929000Y-96774000D03*
X65405000Y-96774000D03*
X67818000Y-96647000D03*
X67818000Y-93853000D03*
X66929000Y-93726000D03*
X65405000Y-93726000D03*
X66167000Y-96774000D03*
X64643000Y-93726000D03*
X66167000Y-93726000D03*
%TO.N,+3.3VA*%
X152908000Y-69215000D03*
%TO.N,GND*%
X128016000Y-64135000D03*
X127127000Y-64516000D03*
X124841000Y-64389000D03*
X123698000Y-64389000D03*
X122682000Y-64389000D03*
X124460000Y-61087000D03*
X123698000Y-61087000D03*
X122809000Y-61087000D03*
X121920000Y-61087000D03*
X121158000Y-61087000D03*
X120142000Y-61214000D03*
X119253000Y-61468000D03*
X118491000Y-61976000D03*
X117856000Y-62611000D03*
X119507000Y-64135000D03*
X117348000Y-63246000D03*
X116840000Y-66675000D03*
X116840000Y-64897000D03*
X116967000Y-64008000D03*
X116840000Y-65786000D03*
X118872000Y-65786000D03*
X118872000Y-66675000D03*
X118999000Y-64897000D03*
X120142000Y-63627000D03*
X120650000Y-63119000D03*
X120015000Y-64897000D03*
X122047000Y-64897000D03*
X122047000Y-65786000D03*
X120015000Y-65786000D03*
X120015000Y-66675000D03*
X122047000Y-66675000D03*
X122047000Y-69342000D03*
X122047000Y-68453000D03*
X122047000Y-67564000D03*
X122047000Y-70231000D03*
X120015000Y-67564000D03*
X120015000Y-69342000D03*
X120015000Y-70231000D03*
X120015000Y-68453000D03*
X118872000Y-70231000D03*
X118872000Y-68453000D03*
X118872000Y-67564000D03*
X118872000Y-69342000D03*
X116840000Y-68453000D03*
X116840000Y-67564000D03*
X116840000Y-69342000D03*
X116840000Y-70231000D03*
X116840000Y-73533000D03*
X116840000Y-74422000D03*
X116840000Y-77089000D03*
X116840000Y-75311000D03*
X116840000Y-76200000D03*
X118872000Y-73533000D03*
X120015000Y-73533000D03*
X120015000Y-74422000D03*
X118872000Y-74422000D03*
X118872000Y-76200000D03*
X118872000Y-75311000D03*
X118872000Y-78867000D03*
X118872000Y-77978000D03*
X118872000Y-77089000D03*
X122047000Y-73533000D03*
X122047000Y-75311000D03*
X122047000Y-74422000D03*
X120015000Y-77089000D03*
X120015000Y-76200000D03*
X120015000Y-75311000D03*
X116840000Y-77978000D03*
X116840000Y-80645000D03*
X116840000Y-84201000D03*
X116840000Y-86868000D03*
X116840000Y-85979000D03*
X116840000Y-85090000D03*
X116840000Y-83312000D03*
X116840000Y-78867000D03*
X116840000Y-87757000D03*
X116840000Y-79756000D03*
X116840000Y-82423000D03*
X116840000Y-81534000D03*
X122047000Y-77978000D03*
X122047000Y-80645000D03*
X122047000Y-79756000D03*
X122047000Y-82423000D03*
X122047000Y-81534000D03*
X122047000Y-84201000D03*
X122047000Y-83312000D03*
X122047000Y-85979000D03*
X122047000Y-85090000D03*
X122047000Y-77089000D03*
X122047000Y-76200000D03*
X122047000Y-78867000D03*
X118872000Y-79756000D03*
X118872000Y-82423000D03*
X118872000Y-81534000D03*
X118872000Y-84201000D03*
X118872000Y-83312000D03*
X118872000Y-85979000D03*
X118872000Y-85090000D03*
X118872000Y-87757000D03*
X118872000Y-86868000D03*
X118872000Y-80645000D03*
X120015000Y-78867000D03*
X120015000Y-77978000D03*
X120015000Y-80645000D03*
X120015000Y-79756000D03*
X120015000Y-82423000D03*
X120015000Y-81534000D03*
X120015000Y-84201000D03*
X120015000Y-83312000D03*
X120015000Y-85979000D03*
X120015000Y-85090000D03*
X120015000Y-87757000D03*
X120015000Y-86868000D03*
X122047000Y-86868000D03*
X122047000Y-87757000D03*
X122047000Y-90043000D03*
X122047000Y-90805000D03*
X120015000Y-90805000D03*
X120015000Y-89916000D03*
X120015000Y-93599000D03*
X120015000Y-94488000D03*
X120015000Y-95377000D03*
X120015000Y-92710000D03*
X120015000Y-96266000D03*
X122047000Y-92710000D03*
X122047000Y-96266000D03*
X122047000Y-95377000D03*
X122047000Y-93599000D03*
X122047000Y-94488000D03*
X122047000Y-97155000D03*
X120015000Y-97155000D03*
X120015000Y-99441000D03*
X122047000Y-99441000D03*
X122047000Y-102108000D03*
X122047000Y-100330000D03*
X122047000Y-101219000D03*
X120015000Y-102108000D03*
X120015000Y-100330000D03*
X120015000Y-101219000D03*
X120015000Y-104775000D03*
X120015000Y-103886000D03*
X120015000Y-102997000D03*
X122047000Y-103886000D03*
X122047000Y-104775000D03*
X122047000Y-102997000D03*
X122047000Y-107442000D03*
X120015000Y-107442000D03*
X120015000Y-109220000D03*
X122047000Y-109220000D03*
X122047000Y-109982000D03*
X120015000Y-109982000D03*
X120015000Y-110871000D03*
X122047000Y-110871000D03*
X122047000Y-111760000D03*
X121920000Y-112776000D03*
X121412000Y-113665000D03*
X119888000Y-111887000D03*
X119380000Y-112649000D03*
X118745000Y-113157000D03*
X115951000Y-115316000D03*
X114173000Y-115316000D03*
X116840000Y-115316000D03*
X115062000Y-115316000D03*
X120650000Y-114554000D03*
X119761000Y-115062000D03*
X117729000Y-115316000D03*
X118618000Y-115316000D03*
X112395000Y-115316000D03*
X110617000Y-115316000D03*
X113284000Y-115316000D03*
X111506000Y-115316000D03*
X109728000Y-115316000D03*
X107061000Y-115316000D03*
X108839000Y-115316000D03*
X107950000Y-115316000D03*
X117729000Y-113284000D03*
X116840000Y-113284000D03*
X115951000Y-113284000D03*
X115062000Y-113284000D03*
X114173000Y-113284000D03*
X113284000Y-113284000D03*
X112395000Y-113284000D03*
X111506000Y-113284000D03*
X110617000Y-113284000D03*
X109728000Y-113284000D03*
X108839000Y-113284000D03*
X107950000Y-113284000D03*
D21*
X108077000Y-119634000D03*
X132870503Y-63740148D03*
%TO.N,+3.3VA*%
X143256000Y-56388000D03*
D22*
%TO.N,GND*%
X78359000Y-58039000D03*
X75565000Y-58039000D03*
X68707000Y-94234000D03*
D21*
%TO.N,+3.3VA*%
X104775000Y-105029000D03*
X103124000Y-105029000D03*
%TO.N,+5V*%
X180848000Y-114935000D03*
X173736000Y-114935000D03*
X73279000Y-102489000D03*
%TO.N,GND*%
X167386000Y-104394000D03*
X147193000Y-96520000D03*
X146685000Y-103378000D03*
X138684000Y-80899000D03*
%TO.N,+3.3VA*%
X143256000Y-81407000D03*
%TO.N,~{CS_ADC}*%
X148174000Y-106045000D03*
D22*
%TO.N,GND*%
X135382000Y-59817000D03*
X136652000Y-59817000D03*
X137795000Y-59817000D03*
X137795000Y-60960000D03*
X136652000Y-60960000D03*
X135382000Y-60960000D03*
X137795000Y-58547000D03*
X136652000Y-58547000D03*
X135382000Y-58547000D03*
D21*
X142875000Y-60223400D03*
%TO.N,+3.3VA*%
X154305000Y-74930000D03*
X155575000Y-74930000D03*
X155575000Y-73660000D03*
X156845000Y-73660000D03*
X156845000Y-74930000D03*
X154305000Y-77470000D03*
X154305000Y-76200000D03*
X155575000Y-76200000D03*
X156845000Y-76200000D03*
X156845000Y-77470000D03*
X155575000Y-77470000D03*
X154305000Y-78740000D03*
X155575000Y-78740000D03*
X156845000Y-78740000D03*
X158115000Y-78740000D03*
X158115000Y-77470000D03*
X158115000Y-76200000D03*
X158115000Y-74930000D03*
X158115000Y-73660000D03*
X154305000Y-73660000D03*
X146558000Y-64643000D03*
%TO.N,RX_AMP_EN*%
X138049000Y-110744000D03*
%TO.N,RX_VRMS*%
X130048000Y-91694000D03*
X78486000Y-70231000D03*
%TO.N,TX_VRMS*%
X128524000Y-92456000D03*
%TO.N,+3.3VA*%
X88646000Y-51816000D03*
%TO.N,+5V*%
X104212200Y-52015200D03*
X110871000Y-43307000D03*
%TO.N,+3.3VA*%
X87249000Y-49149000D03*
%TO.N,+5V*%
X113538000Y-101473000D03*
X80137000Y-102489000D03*
X113540000Y-75190000D03*
X167922000Y-85518000D03*
%TO.N,-5V*%
X105870000Y-39010000D03*
X105500000Y-72170000D03*
X176980000Y-85630000D03*
%TO.N,RX_AMP_EN*%
X81930000Y-47260000D03*
%TO.N,XO_EN*%
X149490000Y-110950000D03*
X152840000Y-56490000D03*
%TO.N,+3.3VA*%
X155410000Y-59040000D03*
X143230000Y-62020000D03*
%TO.N,LD*%
X147193000Y-70358000D03*
X149500000Y-103820000D03*
%TO.N,TX_ATTEN_LE*%
X109347000Y-109220000D03*
X139755000Y-108405000D03*
%TO.N,TX_PHASE_LE*%
X141097000Y-111506000D03*
X87640000Y-119460000D03*
%TO.N,~{CS_ADC}*%
X146142000Y-78813500D03*
%TO.N,TX_VRMS*%
X77050000Y-100110000D03*
D22*
%TO.N,GND*%
X100490000Y-115370000D03*
X99680000Y-115350000D03*
X98806000Y-115443000D03*
X97690000Y-115440000D03*
X96580000Y-115290000D03*
X95830000Y-115300000D03*
X95180000Y-115290000D03*
X100780000Y-113340000D03*
X100050000Y-113360000D03*
X99250000Y-113350000D03*
X98540000Y-113230000D03*
X97750000Y-113230000D03*
X97000000Y-113230000D03*
X96220000Y-113330000D03*
X95420000Y-113300000D03*
X94850000Y-112770000D03*
X94080000Y-112120000D03*
X93130000Y-112150000D03*
X92200000Y-112150000D03*
X91350000Y-112130000D03*
X90470000Y-112140000D03*
X89500000Y-112250000D03*
X88620000Y-112550000D03*
X88010000Y-115390000D03*
X87080000Y-115410000D03*
X86300000Y-115410000D03*
X85490000Y-115420000D03*
X84630000Y-115410000D03*
X79960000Y-116480000D03*
X83800000Y-115440000D03*
X87980000Y-113230000D03*
X87080000Y-113170000D03*
X86260000Y-113180000D03*
X85550000Y-113180000D03*
X84870000Y-113220000D03*
X83960000Y-112430000D03*
X82790000Y-112200000D03*
X82010000Y-112160000D03*
X80730000Y-112180000D03*
X79940000Y-112200000D03*
X79260000Y-112860000D03*
X78486000Y-113284000D03*
X77724000Y-113284000D03*
X76962000Y-113284000D03*
X76073000Y-113284000D03*
X76327000Y-115316000D03*
X75311000Y-115316000D03*
X74422000Y-115443000D03*
X73533000Y-115443000D03*
X72644000Y-115443000D03*
X70358000Y-113157000D03*
X71400000Y-113130000D03*
X72390000Y-113030000D03*
X71882000Y-115443000D03*
X71120000Y-115443000D03*
X70358000Y-115443000D03*
X69469000Y-113284000D03*
X69469000Y-115316000D03*
X68707000Y-115316000D03*
X67945000Y-115697000D03*
X67056000Y-115824000D03*
X65532000Y-115824000D03*
X64770000Y-115824000D03*
X66294000Y-115824000D03*
X64770000Y-112776000D03*
X65532000Y-112776000D03*
X66294000Y-112776000D03*
X67056000Y-112776000D03*
X67945000Y-112903000D03*
X68707000Y-113284000D03*
D21*
X176530000Y-98425000D03*
X176530000Y-96647000D03*
X174371000Y-97282000D03*
X168529000Y-98171000D03*
X170053000Y-105410000D03*
X145542000Y-110617000D03*
X154432000Y-106299000D03*
X149225000Y-105156000D03*
%TO.N,+3V3*%
X174117000Y-99060000D03*
X166243000Y-102743000D03*
D22*
%TO.N,+5V*%
X177292000Y-114935000D03*
%TO.N,RX_LED*%
X173736000Y-123698000D03*
%TO.N,GND*%
X92608400Y-116509800D03*
X90754200Y-116459000D03*
X92608400Y-114528600D03*
X90779600Y-114528600D03*
X81330800Y-114325400D03*
D21*
%TO.N,Net-(J4-CC1)*%
X181864000Y-107696000D03*
%TO.N,Net-(J4-CC2)*%
X181864000Y-105664000D03*
%TO.N,+5V*%
X172466000Y-93091000D03*
%TO.N,TX*%
X145982686Y-102297228D03*
X146812000Y-95516134D03*
%TO.N,RX*%
X145034000Y-101981000D03*
%TO.N,UPDI*%
X147447000Y-101854000D03*
X147447000Y-115570000D03*
%TO.N,RX*%
X146113285Y-94800730D03*
%TO.N,+3V3*%
X144907000Y-98425000D03*
%TO.N,MOSI*%
X87630000Y-118110000D03*
%TO.N,SCLK*%
X87630000Y-116840000D03*
X140850000Y-76530000D03*
%TO.N,MISO*%
X143256000Y-79121000D03*
%TO.N,MOSI*%
X144272000Y-78359000D03*
%TO.N,SCLK*%
X140843000Y-93853000D03*
%TO.N,MISO*%
X142621000Y-93853000D03*
%TO.N,MOSI*%
X144272000Y-93853000D03*
%TO.N,~{SYNTH_CS}*%
X144145000Y-106045000D03*
%TO.N,C16*%
X137922000Y-102997000D03*
X140208000Y-105791000D03*
%TO.N,Net-(R10-Pad1)*%
X157734000Y-115824000D03*
X151130000Y-95504000D03*
%TO.N,+3V3*%
X153416000Y-107823000D03*
X142240000Y-110490000D03*
%TO.N,RX_LED*%
X167894000Y-99441000D03*
D22*
%TO.N,GND*%
X85898000Y-57150000D03*
D21*
X133096000Y-56388000D03*
%TO.N,Net-(U1-VTUNE)*%
X134239000Y-47752000D03*
X137160000Y-66802000D03*
%TO.N,GND*%
X127762000Y-52832000D03*
X131572000Y-54102000D03*
X128403067Y-49282067D03*
%TO.N,SCLK*%
X141732000Y-54991000D03*
%TO.N,MOSI*%
X140700003Y-54991000D03*
%TO.N,~{SYNTH_CS}*%
X139700000Y-54991000D03*
%TO.N,Net-(U1-SW)*%
X132435600Y-47726600D03*
X136285407Y-55840499D03*
%TO.N,+3.3VA*%
X139573000Y-53340000D03*
X136906000Y-53086000D03*
X128270000Y-54102000D03*
X131826000Y-55358201D03*
X127762000Y-60071000D03*
X128270000Y-65532000D03*
X132207000Y-65151000D03*
%TO.N,GND*%
X110363000Y-34290000D03*
%TO.N,+5V*%
X110355141Y-51681141D03*
X103759000Y-60706000D03*
X110396441Y-62124000D03*
%TO.N,GND*%
X110283000Y-78930000D03*
%TO.N,+3.3VA*%
X80010000Y-121539000D03*
X97917000Y-119761000D03*
X95885000Y-118872000D03*
X106426000Y-108458000D03*
X101600000Y-108458000D03*
X77597000Y-118491000D03*
%TO.N,Net-(U12-VREF)*%
X82804000Y-107950000D03*
X70104000Y-106553000D03*
%TO.N,Net-(U20-VREF)*%
X69469000Y-63119000D03*
X82296000Y-65913000D03*
%TO.N,+5V*%
X79756000Y-68072000D03*
X73025000Y-68072000D03*
%TD*%
D23*
%TO.N,+3.3VA*%
X125222000Y-106680000D02*
X125222000Y-110236000D01*
D24*
%TO.N,Net-(U1-VTUNE)*%
X138938000Y-56388000D02*
X134239000Y-51689000D01*
X138938000Y-61722000D02*
X138938000Y-56388000D01*
X137160000Y-63500000D02*
X138938000Y-61722000D01*
X137160000Y-66802000D02*
X137160000Y-63500000D01*
X134239000Y-51689000D02*
X134239000Y-47752000D01*
%TO.N,MISO*%
X142494000Y-93726000D02*
X142621000Y-93853000D01*
X142494000Y-79883000D02*
X142494000Y-93726000D01*
X143256000Y-79121000D02*
X142494000Y-79883000D01*
%TO.N,MOSI*%
X141589003Y-54102000D02*
X140700003Y-54991000D01*
X142621000Y-54102000D02*
X141589003Y-54102000D01*
X144272000Y-78359000D02*
X144272000Y-55753000D01*
X144272000Y-78359000D02*
X144272000Y-93853000D01*
X144272000Y-55753000D02*
X142621000Y-54102000D01*
%TO.N,~{CS_ADC}*%
X148174000Y-80845500D02*
X148174000Y-106045000D01*
X146142000Y-78813500D02*
X148174000Y-80845500D01*
%TO.N,XO_EN*%
X150403000Y-110037000D02*
X149490000Y-110950000D01*
X150403000Y-58927000D02*
X150403000Y-110037000D01*
X152840000Y-56490000D02*
X150403000Y-58927000D01*
%TO.N,TX_PHASE_LE*%
X88668000Y-120488000D02*
X87640000Y-119460000D01*
X132942000Y-120488000D02*
X88668000Y-120488000D01*
X141097000Y-111506000D02*
X141097000Y-112333000D01*
X141097000Y-112333000D02*
X132942000Y-120488000D01*
%TO.N,LD*%
X149500000Y-71940000D02*
X149500000Y-103820000D01*
X147918000Y-70358000D02*
X149500000Y-71940000D01*
X147193000Y-70358000D02*
X147918000Y-70358000D01*
%TO.N,RX_AMP_EN*%
X88042000Y-41148000D02*
X81930000Y-47260000D01*
X125984000Y-53975000D02*
X113157000Y-41148000D01*
X113157000Y-41148000D02*
X88042000Y-41148000D01*
X125984000Y-98679000D02*
X125984000Y-53975000D01*
X138049000Y-110744000D02*
X125984000Y-98679000D01*
D23*
%TO.N,+5V*%
X113540000Y-44452000D02*
X113540000Y-51689000D01*
X112395000Y-43307000D02*
X113540000Y-44452000D01*
X110871000Y-43307000D02*
X112395000Y-43307000D01*
X104212200Y-43869800D02*
X104212200Y-52015200D01*
X104775000Y-43307000D02*
X104212200Y-43869800D01*
X110871000Y-43307000D02*
X104775000Y-43307000D01*
X102743000Y-53484400D02*
X102743000Y-60452000D01*
X104212200Y-52015200D02*
X102743000Y-53484400D01*
X102743000Y-60452000D02*
X102489000Y-60706000D01*
X103759000Y-60706000D02*
X102489000Y-60706000D01*
X94996000Y-68199000D02*
X73152000Y-68199000D01*
X102489000Y-60706000D02*
X94996000Y-68199000D01*
X73152000Y-68199000D02*
X73025000Y-68072000D01*
X113532141Y-51681141D02*
X113540000Y-51689000D01*
X113540000Y-62103000D02*
X113540000Y-51689000D01*
X110355141Y-51681141D02*
X113532141Y-51681141D01*
X113519000Y-62124000D02*
X113540000Y-62103000D01*
X110396441Y-62124000D02*
X113519000Y-62124000D01*
X113540000Y-75190000D02*
X113540000Y-62103000D01*
X113530000Y-75200000D02*
X113530000Y-101420000D01*
X113540000Y-75190000D02*
X113530000Y-75200000D01*
D24*
X113530000Y-101465000D02*
X113538000Y-101473000D01*
X113530000Y-101420000D02*
X113530000Y-101465000D01*
%TO.N,TX_ATTEN_LE*%
X139755000Y-108405000D02*
X139740000Y-108420000D01*
%TO.N,MOSI*%
X132930000Y-118110000D02*
X87630000Y-118110000D01*
X143418000Y-95842948D02*
X143418000Y-107622000D01*
X144272000Y-93853000D02*
X144272000Y-94988948D01*
X144272000Y-94988948D02*
X143418000Y-95842948D01*
X143418000Y-107622000D02*
X132930000Y-118110000D01*
%TO.N,SCLK*%
X140935000Y-93945000D02*
X140843000Y-93853000D01*
X133002000Y-117348000D02*
X140935000Y-109415000D01*
X140935000Y-109415000D02*
X140935000Y-93945000D01*
X88138000Y-117348000D02*
X133002000Y-117348000D01*
X87630000Y-116840000D02*
X88138000Y-117348000D01*
%TO.N,Net-(R10-Pad1)*%
X151130000Y-95504000D02*
X157734000Y-102108000D01*
X157734000Y-102108000D02*
X157734000Y-115824000D01*
%TO.N,SCLK*%
X140843000Y-76537000D02*
X140843000Y-93853000D01*
X140850000Y-76530000D02*
X140843000Y-76537000D01*
X140850000Y-76530000D02*
X141732000Y-75648000D01*
X141732000Y-75648000D02*
X141732000Y-54991000D01*
%TO.N,RX_LED*%
X172466000Y-122428000D02*
X173736000Y-123698000D01*
X172466000Y-104013000D02*
X172466000Y-122428000D01*
X167894000Y-99441000D02*
X172466000Y-104013000D01*
%TO.N,~{SYNTH_CS}*%
X143129000Y-53467000D02*
X141195869Y-53467000D01*
X139973003Y-54717997D02*
X139700000Y-54991000D01*
X145415000Y-94488000D02*
X145415000Y-55753000D01*
X145415000Y-55753000D02*
X143129000Y-53467000D01*
X139973003Y-54689866D02*
X139973003Y-54717997D01*
X144145000Y-95758000D02*
X145415000Y-94488000D01*
X141195869Y-53467000D02*
X139973003Y-54689866D01*
X144145000Y-106045000D02*
X144145000Y-95758000D01*
%TO.N,Net-(J4-CC2)*%
X187452000Y-101489026D02*
X186287974Y-100325000D01*
X186436000Y-107188000D02*
X187452000Y-106172000D01*
X187452000Y-106172000D02*
X187452000Y-101489026D01*
X186287974Y-100325000D02*
X185793000Y-100325000D01*
X183388000Y-107188000D02*
X186436000Y-107188000D01*
X181864000Y-105664000D02*
X183388000Y-107188000D01*
%TO.N,Net-(J4-CC1)*%
X183624866Y-102875000D02*
X184443000Y-102875000D01*
X181137000Y-105362866D02*
X183624866Y-102875000D01*
X181137000Y-106969000D02*
X181137000Y-105362866D01*
X181864000Y-107696000D02*
X181137000Y-106969000D01*
%TO.N,TX*%
X146443134Y-101836780D02*
X146443134Y-95885000D01*
X145982686Y-102297228D02*
X146443134Y-101836780D01*
X146443134Y-95885000D02*
X146812000Y-95516134D01*
%TO.N,RX*%
X145634000Y-95280015D02*
X146113285Y-94800730D01*
X145034000Y-101981000D02*
X145634000Y-101381000D01*
X145634000Y-101381000D02*
X145634000Y-95280015D01*
%TO.N,UPDI*%
X147447000Y-115570000D02*
X147447000Y-101854000D01*
%TO.N,C16*%
X140208000Y-105791000D02*
X137922000Y-103505000D01*
X137922000Y-103505000D02*
X137922000Y-102997000D01*
%TO.N,Net-(U1-SW)*%
X136285407Y-55767407D02*
X132435600Y-51917600D01*
X136285407Y-55840499D02*
X136285407Y-55767407D01*
X132435600Y-51917600D02*
X132435600Y-47726600D01*
%TO.N,USBDM*%
X184550423Y-101175000D02*
X184443000Y-101175000D01*
X185400423Y-102025000D02*
X184550423Y-101175000D01*
X185793000Y-102025000D02*
X185400423Y-102025000D01*
%TO.N,Net-(U12-VREF)*%
X82804000Y-107950000D02*
X71501000Y-107950000D01*
X71501000Y-107950000D02*
X70104000Y-106553000D01*
%TD*%
%TA.AperFunction,Conductor*%
%TO.N,GND*%
G36*
X140223736Y-111745666D02*
G01*
X140279669Y-111787538D01*
X140298333Y-111823531D01*
X140309134Y-111856776D01*
X140309135Y-111856777D01*
X140309136Y-111856779D01*
X140399284Y-112012920D01*
X140410995Y-112025926D01*
X140441225Y-112088917D01*
X140432601Y-112158252D01*
X140406527Y-112196580D01*
X132736129Y-119866981D01*
X132674806Y-119900466D01*
X132648448Y-119903300D01*
X98902184Y-119903300D01*
X98835145Y-119883615D01*
X98789390Y-119830811D01*
X98778863Y-119766343D01*
X98779424Y-119761003D01*
X98779424Y-119761002D01*
X98776134Y-119729700D01*
X98760578Y-119581692D01*
X98704864Y-119410221D01*
X98614716Y-119254080D01*
X98494074Y-119120094D01*
X98348212Y-119014119D01*
X98348211Y-119014118D01*
X98183508Y-118940787D01*
X98183503Y-118940785D01*
X98179760Y-118939990D01*
X98177803Y-118938933D01*
X98177327Y-118938779D01*
X98177355Y-118938691D01*
X98118278Y-118906798D01*
X98084502Y-118845635D01*
X98089154Y-118775920D01*
X98130759Y-118719788D01*
X98196106Y-118695059D01*
X98205541Y-118694700D01*
X133006974Y-118694700D01*
X133006977Y-118694700D01*
X133155686Y-118654853D01*
X133289014Y-118577876D01*
X133397876Y-118469014D01*
X140092723Y-111774165D01*
X140154044Y-111740682D01*
X140223736Y-111745666D01*
G37*
%TD.AperFunction*%
%TA.AperFunction,Conductor*%
G36*
X147526274Y-96146957D02*
G01*
X147574969Y-96197063D01*
X147589300Y-96254930D01*
X147589300Y-100872300D01*
X147569615Y-100939339D01*
X147516811Y-100985094D01*
X147465300Y-100996300D01*
X147356852Y-100996300D01*
X147177615Y-101034398D01*
X147107948Y-101029082D01*
X147052214Y-100986945D01*
X147028109Y-100921365D01*
X147027834Y-100913108D01*
X147027834Y-96439434D01*
X147047519Y-96372395D01*
X147100323Y-96326640D01*
X147101267Y-96326213D01*
X147243212Y-96263015D01*
X147389074Y-96157040D01*
X147389077Y-96157036D01*
X147392414Y-96154612D01*
X147458220Y-96131132D01*
X147526274Y-96146957D01*
G37*
%TD.AperFunction*%
%TA.AperFunction,Conductor*%
G36*
X146204903Y-79703739D02*
G01*
X146211381Y-79709771D01*
X147552981Y-81051371D01*
X147586466Y-81112694D01*
X147589300Y-81139052D01*
X147589300Y-94777337D01*
X147569615Y-94844376D01*
X147516811Y-94890131D01*
X147447653Y-94900075D01*
X147392415Y-94877655D01*
X147243216Y-94769255D01*
X147243211Y-94769252D01*
X147078508Y-94695921D01*
X147078504Y-94695920D01*
X147043866Y-94688557D01*
X146982384Y-94655364D01*
X146951717Y-94605585D01*
X146941259Y-94573397D01*
X146901149Y-94449951D01*
X146811001Y-94293810D01*
X146690359Y-94159824D01*
X146617428Y-94106836D01*
X146544496Y-94053848D01*
X146379793Y-93980517D01*
X146379788Y-93980515D01*
X146203433Y-93943030D01*
X146123700Y-93943030D01*
X146056661Y-93923345D01*
X146010906Y-93870541D01*
X145999700Y-93819030D01*
X145999700Y-79797452D01*
X146019385Y-79730413D01*
X146072189Y-79684658D01*
X146141347Y-79674714D01*
X146204903Y-79703739D01*
G37*
%TD.AperFunction*%
%TA.AperFunction,Conductor*%
G36*
X142521903Y-56845545D02*
G01*
X142548088Y-56877260D01*
X142558282Y-56894918D01*
X142650126Y-56996920D01*
X142678926Y-57028906D01*
X142819314Y-57130904D01*
X142824788Y-57134881D01*
X142989491Y-57208212D01*
X142989496Y-57208214D01*
X143165852Y-57245700D01*
X143346148Y-57245700D01*
X143522499Y-57208215D01*
X143522498Y-57208215D01*
X143522504Y-57208214D01*
X143522509Y-57208211D01*
X143524984Y-57207408D01*
X143526500Y-57207364D01*
X143528861Y-57206863D01*
X143528952Y-57207294D01*
X143594825Y-57205414D01*
X143654657Y-57241496D01*
X143685484Y-57304197D01*
X143687300Y-57325340D01*
X143687300Y-61093790D01*
X143667615Y-61160829D01*
X143614811Y-61206584D01*
X143545653Y-61216528D01*
X143512866Y-61207070D01*
X143496508Y-61199787D01*
X143496503Y-61199785D01*
X143320148Y-61162300D01*
X143139852Y-61162300D01*
X142963496Y-61199785D01*
X142963491Y-61199787D01*
X142798788Y-61273118D01*
X142652927Y-61379093D01*
X142652926Y-61379094D01*
X142532848Y-61512452D01*
X142473363Y-61549100D01*
X142403506Y-61547769D01*
X142345458Y-61508883D01*
X142317648Y-61444786D01*
X142316700Y-61429479D01*
X142316700Y-56939258D01*
X142336385Y-56872219D01*
X142389189Y-56826464D01*
X142458347Y-56816520D01*
X142521903Y-56845545D01*
G37*
%TD.AperFunction*%
%TA.AperFunction,Conductor*%
G36*
X186715103Y-101593413D02*
G01*
X186757090Y-101621006D01*
X186830981Y-101694897D01*
X186864466Y-101756220D01*
X186867300Y-101782578D01*
X186867300Y-105878448D01*
X186847615Y-105945487D01*
X186830981Y-105966129D01*
X186230129Y-106566981D01*
X186168806Y-106600466D01*
X186142448Y-106603300D01*
X183681553Y-106603300D01*
X183614514Y-106583615D01*
X183593872Y-106566981D01*
X182761647Y-105734757D01*
X182728162Y-105673434D01*
X182726008Y-105660048D01*
X182707578Y-105484692D01*
X182651864Y-105313221D01*
X182561716Y-105157080D01*
X182543798Y-105137180D01*
X182454706Y-105038232D01*
X182424476Y-104975240D01*
X182433102Y-104905905D01*
X182459172Y-104867582D01*
X183451490Y-103875264D01*
X183512811Y-103841781D01*
X183582503Y-103846765D01*
X183638436Y-103888637D01*
X183656211Y-103921993D01*
X183710682Y-104077664D01*
X183793071Y-104208785D01*
X183807519Y-104231779D01*
X183936221Y-104360481D01*
X184090335Y-104457317D01*
X184262133Y-104517432D01*
X184262136Y-104517432D01*
X184262138Y-104517433D01*
X184442996Y-104537811D01*
X184443000Y-104537811D01*
X184443004Y-104537811D01*
X184623861Y-104517433D01*
X184623862Y-104517432D01*
X184623867Y-104517432D01*
X184795665Y-104457317D01*
X184949779Y-104360481D01*
X185030319Y-104279941D01*
X185091642Y-104246456D01*
X185161334Y-104251440D01*
X185205681Y-104279941D01*
X185286221Y-104360481D01*
X185440335Y-104457317D01*
X185612133Y-104517432D01*
X185612136Y-104517432D01*
X185612138Y-104517433D01*
X185792996Y-104537811D01*
X185793000Y-104537811D01*
X185793004Y-104537811D01*
X185973861Y-104517433D01*
X185973862Y-104517432D01*
X185973867Y-104517432D01*
X186145665Y-104457317D01*
X186299779Y-104360481D01*
X186428481Y-104231779D01*
X186525317Y-104077665D01*
X186585432Y-103905867D01*
X186585433Y-103905861D01*
X186605811Y-103725003D01*
X186605811Y-103724996D01*
X186585433Y-103544138D01*
X186585432Y-103544136D01*
X186585432Y-103544133D01*
X186525317Y-103372335D01*
X186523614Y-103369626D01*
X186521320Y-103365973D01*
X186502319Y-103298736D01*
X186521320Y-103234027D01*
X186522654Y-103231902D01*
X186525317Y-103227665D01*
X186585432Y-103055867D01*
X186592065Y-102997000D01*
X186605811Y-102875003D01*
X186605811Y-102874996D01*
X186585433Y-102694138D01*
X186585432Y-102694136D01*
X186585432Y-102694133D01*
X186525317Y-102522335D01*
X186523614Y-102519626D01*
X186521320Y-102515973D01*
X186502319Y-102448736D01*
X186521320Y-102384027D01*
X186522824Y-102381633D01*
X186525317Y-102377665D01*
X186585432Y-102205867D01*
X186588709Y-102176785D01*
X186605811Y-102025003D01*
X186605811Y-102024996D01*
X186585433Y-101844136D01*
X186552368Y-101749642D01*
X186548806Y-101679863D01*
X186583534Y-101619236D01*
X186645528Y-101587008D01*
X186715103Y-101593413D01*
G37*
%TD.AperFunction*%
%TA.AperFunction,Conductor*%
G36*
X186572629Y-26400502D02*
G01*
X186597290Y-26400502D01*
X186686519Y-26400502D01*
X186693472Y-26400697D01*
X186997622Y-26417778D01*
X187011420Y-26419332D01*
X187308305Y-26469775D01*
X187321861Y-26472869D01*
X187611230Y-26556235D01*
X187624356Y-26560828D01*
X187902568Y-26676067D01*
X187915082Y-26682093D01*
X188122146Y-26796533D01*
X188178648Y-26827761D01*
X188190422Y-26835159D01*
X188436013Y-27009415D01*
X188446885Y-27018085D01*
X188671420Y-27218742D01*
X188671423Y-27218744D01*
X188681254Y-27228575D01*
X188881921Y-27453121D01*
X188890579Y-27463979D01*
X188977712Y-27586782D01*
X189064840Y-27709579D01*
X189072237Y-27721352D01*
X189217902Y-27984910D01*
X189223936Y-27997440D01*
X189339173Y-28275649D01*
X189343766Y-28288774D01*
X189427130Y-28578138D01*
X189430224Y-28591694D01*
X189480666Y-28888570D01*
X189482223Y-28902389D01*
X189499304Y-29206568D01*
X189499499Y-29213520D01*
X189499498Y-123097289D01*
X189499498Y-123186519D01*
X189499303Y-123193472D01*
X189482222Y-123497612D01*
X189480665Y-123511430D01*
X189430224Y-123808304D01*
X189427130Y-123821861D01*
X189343764Y-124111230D01*
X189339171Y-124124355D01*
X189223935Y-124402561D01*
X189217902Y-124415089D01*
X189072238Y-124678648D01*
X189064840Y-124690422D01*
X188890584Y-124936013D01*
X188881914Y-124946885D01*
X188681255Y-125171423D01*
X188671422Y-125181256D01*
X188446885Y-125381915D01*
X188436013Y-125390585D01*
X188190420Y-125564840D01*
X188178647Y-125572237D01*
X187915089Y-125717902D01*
X187902559Y-125723936D01*
X187624350Y-125839173D01*
X187611225Y-125843766D01*
X187321861Y-125927130D01*
X187308305Y-125930224D01*
X187011429Y-125980666D01*
X186997611Y-125982223D01*
X186693432Y-125999305D01*
X186686479Y-125999500D01*
X67313481Y-125999500D01*
X67306528Y-125999305D01*
X67002387Y-125982224D01*
X66988569Y-125980667D01*
X66691694Y-125930226D01*
X66678137Y-125927132D01*
X66388769Y-125843766D01*
X66375644Y-125839173D01*
X66097438Y-125723937D01*
X66084910Y-125717904D01*
X65821351Y-125572240D01*
X65809577Y-125564842D01*
X65563985Y-125390586D01*
X65553113Y-125381916D01*
X65328575Y-125181257D01*
X65318742Y-125171424D01*
X65118083Y-124946886D01*
X65109413Y-124936014D01*
X64935157Y-124690422D01*
X64927759Y-124678648D01*
X64896531Y-124622146D01*
X64782091Y-124415082D01*
X64776065Y-124402568D01*
X64660826Y-124124355D01*
X64656233Y-124111230D01*
X64572867Y-123821862D01*
X64569773Y-123808305D01*
X64551032Y-123698003D01*
X64519330Y-123511420D01*
X64517776Y-123497622D01*
X64500695Y-123193472D01*
X64500500Y-123186519D01*
X64500500Y-121539000D01*
X79147576Y-121539000D01*
X79166422Y-121718309D01*
X79166423Y-121718311D01*
X79221071Y-121886503D01*
X79222136Y-121889779D01*
X79312284Y-122045920D01*
X79432926Y-122179906D01*
X79457360Y-122197658D01*
X79578788Y-122285881D01*
X79743491Y-122359212D01*
X79743496Y-122359214D01*
X79919852Y-122396700D01*
X80100148Y-122396700D01*
X80276504Y-122359214D01*
X80441212Y-122285881D01*
X80587074Y-122179906D01*
X80707716Y-122045920D01*
X80797864Y-121889779D01*
X80853578Y-121718308D01*
X80872424Y-121539000D01*
X80853578Y-121359692D01*
X80797864Y-121188221D01*
X80707716Y-121032080D01*
X80587074Y-120898094D01*
X80441212Y-120792119D01*
X80441211Y-120792118D01*
X80276508Y-120718787D01*
X80276503Y-120718785D01*
X80100148Y-120681300D01*
X79919852Y-120681300D01*
X79743496Y-120718785D01*
X79743491Y-120718787D01*
X79578788Y-120792118D01*
X79432924Y-120898095D01*
X79312283Y-121032081D01*
X79222135Y-121188222D01*
X79166423Y-121359688D01*
X79166422Y-121359690D01*
X79147576Y-121539000D01*
X64500500Y-121539000D01*
X64500500Y-118491000D01*
X76734576Y-118491000D01*
X76753422Y-118670309D01*
X76753423Y-118670311D01*
X76805848Y-118831662D01*
X76809136Y-118841779D01*
X76899284Y-118997920D01*
X77019926Y-119131906D01*
X77144999Y-119222777D01*
X77165788Y-119237881D01*
X77330491Y-119311212D01*
X77330496Y-119311214D01*
X77506852Y-119348700D01*
X77687148Y-119348700D01*
X77863504Y-119311214D01*
X78028212Y-119237881D01*
X78174074Y-119131906D01*
X78294716Y-118997920D01*
X78384864Y-118841779D01*
X78440578Y-118670308D01*
X78459424Y-118491000D01*
X78440578Y-118311692D01*
X78384864Y-118140221D01*
X78294716Y-117984080D01*
X78174074Y-117850094D01*
X78069633Y-117774213D01*
X78028211Y-117744118D01*
X77863508Y-117670787D01*
X77863503Y-117670785D01*
X77687148Y-117633300D01*
X77506852Y-117633300D01*
X77330496Y-117670785D01*
X77330491Y-117670787D01*
X77165788Y-117744118D01*
X77019924Y-117850095D01*
X76899283Y-117984081D01*
X76809135Y-118140222D01*
X76753423Y-118311688D01*
X76753422Y-118311690D01*
X76734576Y-118491000D01*
X64500500Y-118491000D01*
X64500500Y-110322002D01*
X124129300Y-110322002D01*
X124156206Y-110491876D01*
X124156206Y-110491879D01*
X124209353Y-110655448D01*
X124268071Y-110770688D01*
X124287439Y-110808700D01*
X124388535Y-110947846D01*
X124510154Y-111069465D01*
X124649300Y-111170561D01*
X124779461Y-111236881D01*
X124802551Y-111248646D01*
X124930725Y-111290292D01*
X124966125Y-111301794D01*
X125033832Y-111312517D01*
X125135998Y-111328700D01*
X125136003Y-111328700D01*
X125308002Y-111328700D01*
X125390355Y-111315655D01*
X125477875Y-111301794D01*
X125477878Y-111301793D01*
X125477879Y-111301793D01*
X125641448Y-111248646D01*
X125641448Y-111248645D01*
X125641451Y-111248645D01*
X125794700Y-111170561D01*
X125933846Y-111069465D01*
X126055465Y-110947846D01*
X126156561Y-110808700D01*
X126234645Y-110655451D01*
X126252915Y-110599221D01*
X126287793Y-110491879D01*
X126287793Y-110491878D01*
X126287794Y-110491875D01*
X126303419Y-110393221D01*
X126314700Y-110322002D01*
X126314700Y-106593997D01*
X126289026Y-106431905D01*
X126287794Y-106424125D01*
X126287793Y-106424121D01*
X126287793Y-106424120D01*
X126234646Y-106260551D01*
X126204926Y-106202222D01*
X126156561Y-106107300D01*
X126055465Y-105968154D01*
X125933846Y-105846535D01*
X125794700Y-105745439D01*
X125745250Y-105720243D01*
X125641448Y-105667353D01*
X125477877Y-105614206D01*
X125308002Y-105587300D01*
X125307997Y-105587300D01*
X125136003Y-105587300D01*
X125135998Y-105587300D01*
X124966123Y-105614206D01*
X124966120Y-105614206D01*
X124802551Y-105667353D01*
X124649299Y-105745439D01*
X124586591Y-105791000D01*
X124510154Y-105846535D01*
X124510152Y-105846537D01*
X124510151Y-105846537D01*
X124388537Y-105968151D01*
X124388537Y-105968152D01*
X124388535Y-105968154D01*
X124386968Y-105970311D01*
X124287439Y-106107299D01*
X124209353Y-106260551D01*
X124156206Y-106424120D01*
X124156206Y-106424123D01*
X124129300Y-106593997D01*
X124129300Y-110322002D01*
X64500500Y-110322002D01*
X64500500Y-106553000D01*
X69241576Y-106553000D01*
X69260422Y-106732309D01*
X69260423Y-106732311D01*
X69307040Y-106875786D01*
X69316136Y-106903779D01*
X69406284Y-107059920D01*
X69469191Y-107129785D01*
X69522580Y-107189080D01*
X69526926Y-107193906D01*
X69539607Y-107203119D01*
X69672788Y-107299881D01*
X69837491Y-107373212D01*
X69837496Y-107373214D01*
X70013852Y-107410700D01*
X70083448Y-107410700D01*
X70150487Y-107430385D01*
X70171128Y-107447018D01*
X71141985Y-108417876D01*
X71184596Y-108442477D01*
X71275314Y-108494853D01*
X71424023Y-108534700D01*
X82121110Y-108534700D01*
X82188149Y-108554385D01*
X82213259Y-108575727D01*
X82226926Y-108590906D01*
X82290797Y-108637311D01*
X82372788Y-108696881D01*
X82537491Y-108770212D01*
X82537496Y-108770214D01*
X82713852Y-108807700D01*
X82894148Y-108807700D01*
X83070504Y-108770214D01*
X83235212Y-108696881D01*
X83381074Y-108590906D01*
X83500744Y-108458000D01*
X100737576Y-108458000D01*
X100756422Y-108637309D01*
X100756423Y-108637311D01*
X100799605Y-108770214D01*
X100812136Y-108808779D01*
X100902284Y-108964920D01*
X101022926Y-109098906D01*
X101095840Y-109151881D01*
X101168788Y-109204881D01*
X101333491Y-109278212D01*
X101333496Y-109278214D01*
X101509852Y-109315700D01*
X101690148Y-109315700D01*
X101866504Y-109278214D01*
X102031212Y-109204881D01*
X102177074Y-109098906D01*
X102297716Y-108964920D01*
X102387864Y-108808779D01*
X102443578Y-108637308D01*
X102462424Y-108458000D01*
X105563576Y-108458000D01*
X105582422Y-108637309D01*
X105582423Y-108637311D01*
X105625605Y-108770214D01*
X105638136Y-108808779D01*
X105728284Y-108964920D01*
X105848926Y-109098906D01*
X105921840Y-109151881D01*
X105994788Y-109204881D01*
X106159491Y-109278212D01*
X106159496Y-109278214D01*
X106335852Y-109315700D01*
X106516148Y-109315700D01*
X106692504Y-109278214D01*
X106823254Y-109220000D01*
X108484576Y-109220000D01*
X108503422Y-109399309D01*
X108503423Y-109399311D01*
X108558451Y-109568673D01*
X108559136Y-109570779D01*
X108649284Y-109726920D01*
X108769926Y-109860906D01*
X108915788Y-109966881D01*
X109080491Y-110040212D01*
X109080496Y-110040214D01*
X109256852Y-110077700D01*
X109437148Y-110077700D01*
X109613504Y-110040214D01*
X109778212Y-109966881D01*
X109924074Y-109860906D01*
X110044716Y-109726920D01*
X110134864Y-109570779D01*
X110190578Y-109399308D01*
X110209424Y-109220000D01*
X110190578Y-109040692D01*
X110134864Y-108869221D01*
X110044716Y-108713080D01*
X109924074Y-108579094D01*
X109778212Y-108473119D01*
X109778211Y-108473118D01*
X109613508Y-108399787D01*
X109613503Y-108399785D01*
X109437148Y-108362300D01*
X109256852Y-108362300D01*
X109080496Y-108399785D01*
X109080491Y-108399787D01*
X108915788Y-108473118D01*
X108769924Y-108579095D01*
X108649283Y-108713081D01*
X108559135Y-108869222D01*
X108503423Y-109040688D01*
X108503422Y-109040690D01*
X108484576Y-109220000D01*
X106823254Y-109220000D01*
X106857212Y-109204881D01*
X107003074Y-109098906D01*
X107123716Y-108964920D01*
X107213864Y-108808779D01*
X107269578Y-108637308D01*
X107288424Y-108458000D01*
X107269578Y-108278692D01*
X107213864Y-108107221D01*
X107123716Y-107951080D01*
X107003074Y-107817094D01*
X106857212Y-107711119D01*
X106857211Y-107711118D01*
X106692508Y-107637787D01*
X106692503Y-107637785D01*
X106516148Y-107600300D01*
X106335852Y-107600300D01*
X106159496Y-107637785D01*
X106159491Y-107637787D01*
X105994788Y-107711118D01*
X105848924Y-107817095D01*
X105728283Y-107951081D01*
X105638135Y-108107222D01*
X105582423Y-108278688D01*
X105582422Y-108278690D01*
X105563576Y-108458000D01*
X102462424Y-108458000D01*
X102443578Y-108278692D01*
X102387864Y-108107221D01*
X102297716Y-107951080D01*
X102177074Y-107817094D01*
X102031212Y-107711119D01*
X102031211Y-107711118D01*
X101866508Y-107637787D01*
X101866503Y-107637785D01*
X101690148Y-107600300D01*
X101509852Y-107600300D01*
X101333496Y-107637785D01*
X101333491Y-107637787D01*
X101168788Y-107711118D01*
X101022924Y-107817095D01*
X100902283Y-107951081D01*
X100812135Y-108107222D01*
X100756423Y-108278688D01*
X100756422Y-108278690D01*
X100737576Y-108458000D01*
X83500744Y-108458000D01*
X83501716Y-108456920D01*
X83591864Y-108300779D01*
X83647578Y-108129308D01*
X83666424Y-107950000D01*
X83647578Y-107770692D01*
X83591864Y-107599221D01*
X83501716Y-107443080D01*
X83381074Y-107309094D01*
X83235212Y-107203119D01*
X83235211Y-107203118D01*
X83070508Y-107129787D01*
X83070503Y-107129785D01*
X82894148Y-107092300D01*
X82713852Y-107092300D01*
X82537496Y-107129785D01*
X82537491Y-107129787D01*
X82372788Y-107203118D01*
X82226924Y-107309095D01*
X82213261Y-107324271D01*
X82153775Y-107360920D01*
X82121110Y-107365300D01*
X71794553Y-107365300D01*
X71727514Y-107345615D01*
X71706872Y-107328981D01*
X71001647Y-106623757D01*
X70968162Y-106562434D01*
X70966008Y-106549048D01*
X70947578Y-106373692D01*
X70891864Y-106202221D01*
X70801716Y-106046080D01*
X70681074Y-105912094D01*
X70535212Y-105806119D01*
X70535211Y-105806118D01*
X70370508Y-105732787D01*
X70370503Y-105732785D01*
X70194148Y-105695300D01*
X70013852Y-105695300D01*
X69837496Y-105732785D01*
X69837491Y-105732787D01*
X69672788Y-105806118D01*
X69526924Y-105912095D01*
X69406283Y-106046081D01*
X69316135Y-106202222D01*
X69260423Y-106373688D01*
X69260422Y-106373690D01*
X69241576Y-106553000D01*
X64500500Y-106553000D01*
X64500500Y-105029000D01*
X102261576Y-105029000D01*
X102280422Y-105208308D01*
X102336136Y-105379779D01*
X102426284Y-105535920D01*
X102546926Y-105669906D01*
X102636186Y-105734757D01*
X102692788Y-105775881D01*
X102857491Y-105849212D01*
X102857496Y-105849214D01*
X103033852Y-105886700D01*
X103214148Y-105886700D01*
X103390504Y-105849214D01*
X103555212Y-105775881D01*
X103701074Y-105669906D01*
X103821716Y-105535920D01*
X103842113Y-105500590D01*
X103892679Y-105452376D01*
X103961286Y-105439152D01*
X104026151Y-105465120D01*
X104056886Y-105500589D01*
X104077284Y-105535920D01*
X104197926Y-105669906D01*
X104287186Y-105734757D01*
X104343788Y-105775881D01*
X104508491Y-105849212D01*
X104508496Y-105849214D01*
X104684852Y-105886700D01*
X104865148Y-105886700D01*
X105041504Y-105849214D01*
X105206212Y-105775881D01*
X105352074Y-105669906D01*
X105472716Y-105535920D01*
X105562864Y-105379779D01*
X105618578Y-105208308D01*
X105637424Y-105029000D01*
X105618578Y-104849692D01*
X105562864Y-104678221D01*
X105472716Y-104522080D01*
X105352074Y-104388094D01*
X105206212Y-104282119D01*
X105206211Y-104282118D01*
X105041508Y-104208787D01*
X105041503Y-104208785D01*
X104865148Y-104171300D01*
X104684852Y-104171300D01*
X104508496Y-104208785D01*
X104508491Y-104208787D01*
X104343788Y-104282118D01*
X104197924Y-104388095D01*
X104077282Y-104522081D01*
X104056887Y-104557408D01*
X104006320Y-104605624D01*
X103937713Y-104618847D01*
X103872848Y-104592879D01*
X103842113Y-104557408D01*
X103830798Y-104537811D01*
X103821716Y-104522080D01*
X103766635Y-104460906D01*
X103701075Y-104388095D01*
X103663066Y-104360480D01*
X103555212Y-104282119D01*
X103555211Y-104282118D01*
X103390508Y-104208787D01*
X103390503Y-104208785D01*
X103214148Y-104171300D01*
X103033852Y-104171300D01*
X102857496Y-104208785D01*
X102857491Y-104208787D01*
X102692788Y-104282118D01*
X102546924Y-104388095D01*
X102426283Y-104522081D01*
X102336135Y-104678222D01*
X102280423Y-104849688D01*
X102280422Y-104849690D01*
X102274514Y-104905905D01*
X102261576Y-105029000D01*
X64500500Y-105029000D01*
X64500500Y-102489000D01*
X72416576Y-102489000D01*
X72435422Y-102668309D01*
X72435423Y-102668311D01*
X72486339Y-102825017D01*
X72491136Y-102839779D01*
X72581284Y-102995920D01*
X72635261Y-103055867D01*
X72690701Y-103117440D01*
X72701926Y-103129906D01*
X72765797Y-103176311D01*
X72847788Y-103235881D01*
X73012491Y-103309212D01*
X73012496Y-103309214D01*
X73188852Y-103346700D01*
X73369148Y-103346700D01*
X73545504Y-103309214D01*
X73710212Y-103235881D01*
X73856074Y-103129906D01*
X73976716Y-102995920D01*
X74066864Y-102839779D01*
X74122578Y-102668308D01*
X74141424Y-102489000D01*
X79274576Y-102489000D01*
X79293422Y-102668309D01*
X79293423Y-102668311D01*
X79344339Y-102825017D01*
X79349136Y-102839779D01*
X79439284Y-102995920D01*
X79493261Y-103055867D01*
X79548701Y-103117440D01*
X79559926Y-103129906D01*
X79623797Y-103176311D01*
X79705788Y-103235881D01*
X79870491Y-103309212D01*
X79870496Y-103309214D01*
X80046852Y-103346700D01*
X80227148Y-103346700D01*
X80403504Y-103309214D01*
X80568212Y-103235881D01*
X80714074Y-103129906D01*
X80834716Y-102995920D01*
X80924864Y-102839779D01*
X80980578Y-102668308D01*
X80999424Y-102489000D01*
X80980578Y-102309692D01*
X80924864Y-102138221D01*
X80834716Y-101982080D01*
X80714074Y-101848094D01*
X80623899Y-101782578D01*
X80568211Y-101742118D01*
X80403508Y-101668787D01*
X80403503Y-101668785D01*
X80227148Y-101631300D01*
X80046852Y-101631300D01*
X79870496Y-101668785D01*
X79870491Y-101668787D01*
X79705788Y-101742118D01*
X79559924Y-101848095D01*
X79439283Y-101982081D01*
X79349135Y-102138222D01*
X79293423Y-102309688D01*
X79293422Y-102309690D01*
X79274576Y-102489000D01*
X74141424Y-102489000D01*
X74122578Y-102309692D01*
X74066864Y-102138221D01*
X73976716Y-101982080D01*
X73856074Y-101848094D01*
X73765899Y-101782578D01*
X73710211Y-101742118D01*
X73545508Y-101668787D01*
X73545503Y-101668785D01*
X73369148Y-101631300D01*
X73188852Y-101631300D01*
X73012496Y-101668785D01*
X73012491Y-101668787D01*
X72847788Y-101742118D01*
X72701924Y-101848095D01*
X72581283Y-101982081D01*
X72491135Y-102138222D01*
X72435423Y-102309688D01*
X72435422Y-102309690D01*
X72416576Y-102489000D01*
X64500500Y-102489000D01*
X64500500Y-100110000D01*
X76187576Y-100110000D01*
X76191163Y-100144133D01*
X76206422Y-100289308D01*
X76262136Y-100460779D01*
X76352284Y-100616920D01*
X76472926Y-100750906D01*
X76571240Y-100822335D01*
X76618788Y-100856881D01*
X76783491Y-100930212D01*
X76783496Y-100930214D01*
X76959852Y-100967700D01*
X77140148Y-100967700D01*
X77316504Y-100930214D01*
X77481212Y-100856881D01*
X77627074Y-100750906D01*
X77747716Y-100616920D01*
X77837864Y-100460779D01*
X77893578Y-100289308D01*
X77912424Y-100110000D01*
X77893578Y-99930692D01*
X77837864Y-99759221D01*
X77747716Y-99603080D01*
X77627074Y-99469094D01*
X77481212Y-99363119D01*
X77481211Y-99363118D01*
X77316508Y-99289787D01*
X77316503Y-99289785D01*
X77140148Y-99252300D01*
X76959852Y-99252300D01*
X76783496Y-99289785D01*
X76783491Y-99289787D01*
X76618788Y-99363118D01*
X76472924Y-99469095D01*
X76352283Y-99603081D01*
X76262135Y-99759222D01*
X76206423Y-99930688D01*
X76206422Y-99930690D01*
X76187576Y-100110000D01*
X64500500Y-100110000D01*
X64500500Y-72170000D01*
X104637576Y-72170000D01*
X104656422Y-72349308D01*
X104712136Y-72520779D01*
X104802284Y-72676920D01*
X104922926Y-72810906D01*
X105036548Y-72893457D01*
X105068788Y-72916881D01*
X105233491Y-72990212D01*
X105233496Y-72990214D01*
X105409852Y-73027700D01*
X105590148Y-73027700D01*
X105766504Y-72990214D01*
X105931212Y-72916881D01*
X106077074Y-72810906D01*
X106197716Y-72676920D01*
X106287864Y-72520779D01*
X106343578Y-72349308D01*
X106362424Y-72170000D01*
X106343578Y-71990692D01*
X106287864Y-71819221D01*
X106197716Y-71663080D01*
X106077074Y-71529094D01*
X105931212Y-71423119D01*
X105931211Y-71423118D01*
X105766508Y-71349787D01*
X105766503Y-71349785D01*
X105590148Y-71312300D01*
X105409852Y-71312300D01*
X105233496Y-71349785D01*
X105233491Y-71349787D01*
X105068788Y-71423118D01*
X104922924Y-71529095D01*
X104802283Y-71663081D01*
X104712135Y-71819222D01*
X104656423Y-71990688D01*
X104656422Y-71990690D01*
X104656422Y-71990692D01*
X104637576Y-72170000D01*
X64500500Y-72170000D01*
X64500500Y-68157997D01*
X71932300Y-68157997D01*
X71959206Y-68327875D01*
X72012353Y-68491448D01*
X72012354Y-68491451D01*
X72090438Y-68644698D01*
X72191535Y-68783847D01*
X72440156Y-69032468D01*
X72481897Y-69062793D01*
X72509727Y-69083013D01*
X72579300Y-69133561D01*
X72655924Y-69172603D01*
X72732548Y-69211645D01*
X72814337Y-69238219D01*
X72896125Y-69264794D01*
X72981064Y-69278247D01*
X73066002Y-69291700D01*
X73066003Y-69291700D01*
X77937997Y-69291700D01*
X78005036Y-69311385D01*
X78050791Y-69364189D01*
X78060735Y-69433347D01*
X78031710Y-69496903D01*
X78010883Y-69516018D01*
X77908924Y-69590095D01*
X77788283Y-69724081D01*
X77698135Y-69880222D01*
X77642423Y-70051688D01*
X77642422Y-70051690D01*
X77623576Y-70231000D01*
X77642422Y-70410309D01*
X77642423Y-70410311D01*
X77683687Y-70537311D01*
X77698136Y-70581779D01*
X77788284Y-70737920D01*
X77908926Y-70871906D01*
X78054788Y-70977881D01*
X78219491Y-71051212D01*
X78219496Y-71051214D01*
X78395852Y-71088700D01*
X78576148Y-71088700D01*
X78752504Y-71051214D01*
X78917212Y-70977881D01*
X79063074Y-70871906D01*
X79183716Y-70737920D01*
X79273864Y-70581779D01*
X79329578Y-70410308D01*
X79348424Y-70231000D01*
X79329578Y-70051692D01*
X79273864Y-69880221D01*
X79183716Y-69724080D01*
X79063074Y-69590094D01*
X78961116Y-69516017D01*
X78918452Y-69460688D01*
X78912473Y-69391074D01*
X78945079Y-69329279D01*
X79005918Y-69294922D01*
X79034003Y-69291700D01*
X95081997Y-69291700D01*
X95081998Y-69291700D01*
X95166936Y-69278247D01*
X95251875Y-69264794D01*
X95251878Y-69264793D01*
X95251879Y-69264793D01*
X95415448Y-69211646D01*
X95415448Y-69211645D01*
X95415451Y-69211645D01*
X95568700Y-69133561D01*
X95638273Y-69083013D01*
X95707847Y-69032465D01*
X102905292Y-61835018D01*
X102966615Y-61801534D01*
X102992973Y-61798700D01*
X103845002Y-61798700D01*
X103927355Y-61785655D01*
X104014875Y-61771794D01*
X104014878Y-61771793D01*
X104014879Y-61771793D01*
X104178448Y-61718646D01*
X104178448Y-61718645D01*
X104178451Y-61718645D01*
X104331700Y-61640561D01*
X104470846Y-61539465D01*
X104592465Y-61417846D01*
X104693561Y-61278700D01*
X104771645Y-61125451D01*
X104793494Y-61058206D01*
X104824793Y-60961879D01*
X104824793Y-60961878D01*
X104824794Y-60961875D01*
X104838655Y-60874355D01*
X104851700Y-60792002D01*
X104851700Y-60619997D01*
X104836046Y-60521173D01*
X104824794Y-60450125D01*
X104824793Y-60450121D01*
X104824793Y-60450120D01*
X104771646Y-60286551D01*
X104693560Y-60133299D01*
X104592465Y-59994154D01*
X104470846Y-59872535D01*
X104331700Y-59771439D01*
X104231179Y-59720221D01*
X104178448Y-59693353D01*
X104014878Y-59640206D01*
X103940301Y-59628394D01*
X103877167Y-59598464D01*
X103840236Y-59539152D01*
X103835700Y-59505921D01*
X103835700Y-53988373D01*
X103855385Y-53921334D01*
X103872019Y-53900692D01*
X104432711Y-53340000D01*
X105045665Y-52727046D01*
X105084423Y-52673700D01*
X105146761Y-52587900D01*
X105224845Y-52434651D01*
X105238382Y-52392988D01*
X105238383Y-52392987D01*
X105255886Y-52339118D01*
X105277995Y-52271074D01*
X105294513Y-52166779D01*
X105304900Y-52101201D01*
X105304900Y-44523700D01*
X105324585Y-44456661D01*
X105377389Y-44410906D01*
X105428900Y-44399700D01*
X110785003Y-44399700D01*
X111891026Y-44399700D01*
X111958065Y-44419385D01*
X111978707Y-44436019D01*
X112410981Y-44868292D01*
X112444466Y-44929615D01*
X112447300Y-44955973D01*
X112447300Y-50464441D01*
X112427615Y-50531480D01*
X112374811Y-50577235D01*
X112323300Y-50588441D01*
X110269139Y-50588441D01*
X110099264Y-50615347D01*
X110099261Y-50615347D01*
X109935692Y-50668494D01*
X109782440Y-50746580D01*
X109703052Y-50804259D01*
X109643295Y-50847676D01*
X109643293Y-50847678D01*
X109643292Y-50847678D01*
X109521678Y-50969292D01*
X109521678Y-50969293D01*
X109521676Y-50969295D01*
X109478259Y-51029052D01*
X109420580Y-51108440D01*
X109342494Y-51261692D01*
X109289347Y-51425261D01*
X109289347Y-51425264D01*
X109262441Y-51595138D01*
X109262441Y-51767143D01*
X109289347Y-51937017D01*
X109289347Y-51937020D01*
X109342494Y-52100589D01*
X109364251Y-52143289D01*
X109420580Y-52253841D01*
X109521676Y-52392987D01*
X109643295Y-52514606D01*
X109782441Y-52615702D01*
X109896267Y-52673699D01*
X109935692Y-52693787D01*
X110038054Y-52727046D01*
X110099266Y-52746935D01*
X110166973Y-52757658D01*
X110269139Y-52773841D01*
X110269144Y-52773841D01*
X112323300Y-52773841D01*
X112390339Y-52793526D01*
X112436094Y-52846330D01*
X112447300Y-52897841D01*
X112447300Y-60907300D01*
X112427615Y-60974339D01*
X112374811Y-61020094D01*
X112323300Y-61031300D01*
X110310439Y-61031300D01*
X110140564Y-61058206D01*
X110140561Y-61058206D01*
X109976992Y-61111353D01*
X109823740Y-61189439D01*
X109786456Y-61216528D01*
X109684595Y-61290535D01*
X109684593Y-61290537D01*
X109684592Y-61290537D01*
X109562978Y-61412151D01*
X109562978Y-61412152D01*
X109562976Y-61412154D01*
X109519559Y-61471911D01*
X109461880Y-61551299D01*
X109383794Y-61704551D01*
X109330647Y-61868120D01*
X109330647Y-61868123D01*
X109303741Y-62037997D01*
X109303741Y-62210002D01*
X109330647Y-62379876D01*
X109330647Y-62379879D01*
X109383794Y-62543448D01*
X109443641Y-62660904D01*
X109461880Y-62696700D01*
X109562976Y-62835846D01*
X109684595Y-62957465D01*
X109823741Y-63058561D01*
X109942360Y-63119000D01*
X109976992Y-63136646D01*
X110129564Y-63186219D01*
X110140566Y-63189794D01*
X110208273Y-63200517D01*
X110310439Y-63216700D01*
X110310444Y-63216700D01*
X112323300Y-63216700D01*
X112390339Y-63236385D01*
X112436094Y-63289189D01*
X112447300Y-63340700D01*
X112447300Y-75041103D01*
X112445774Y-75060499D01*
X112438046Y-75109296D01*
X112438044Y-75109307D01*
X112437300Y-75113998D01*
X112437300Y-101506002D01*
X112464206Y-101675876D01*
X112464206Y-101675879D01*
X112517353Y-101839448D01*
X112590028Y-101982080D01*
X112595439Y-101992700D01*
X112696535Y-102131846D01*
X112818154Y-102253465D01*
X112957300Y-102354561D01*
X113060459Y-102407123D01*
X113110551Y-102432646D01*
X113162617Y-102449563D01*
X113274125Y-102485794D01*
X113341832Y-102496517D01*
X113443998Y-102512700D01*
X113444003Y-102512700D01*
X113616002Y-102512700D01*
X113698355Y-102499655D01*
X113785875Y-102485794D01*
X113785878Y-102485793D01*
X113785879Y-102485793D01*
X113949448Y-102432646D01*
X113949448Y-102432645D01*
X113949451Y-102432645D01*
X114102700Y-102354561D01*
X114241846Y-102253465D01*
X114363465Y-102131846D01*
X114464561Y-101992700D01*
X114542645Y-101839451D01*
X114561124Y-101782578D01*
X114595793Y-101675879D01*
X114595793Y-101675878D01*
X114595794Y-101675875D01*
X114618260Y-101534031D01*
X114622700Y-101506002D01*
X114622700Y-75348890D01*
X114624227Y-75329492D01*
X114632700Y-75275996D01*
X114632700Y-44365998D01*
X114620544Y-44289253D01*
X114620544Y-44289251D01*
X114605795Y-44196128D01*
X114605795Y-44196126D01*
X114552645Y-44032549D01*
X114552643Y-44032546D01*
X114552643Y-44032544D01*
X114474560Y-43879299D01*
X114373465Y-43740154D01*
X114251846Y-43618535D01*
X113106847Y-42473535D01*
X113106846Y-42473534D01*
X113106845Y-42473533D01*
X113106843Y-42473531D01*
X113037274Y-42422988D01*
X113037273Y-42422987D01*
X112967700Y-42372439D01*
X112814448Y-42294353D01*
X112650878Y-42241206D01*
X112565936Y-42227753D01*
X112480998Y-42214300D01*
X112480997Y-42214300D01*
X110956997Y-42214300D01*
X104860997Y-42214300D01*
X104689002Y-42214300D01*
X104632376Y-42223268D01*
X104519123Y-42241206D01*
X104355550Y-42294353D01*
X104355547Y-42294354D01*
X104202299Y-42372439D01*
X104063151Y-42473537D01*
X103378736Y-43157951D01*
X103378731Y-43157956D01*
X103332928Y-43221001D01*
X103332928Y-43221002D01*
X103277639Y-43297099D01*
X103199553Y-43450351D01*
X103146406Y-43613920D01*
X103146406Y-43613923D01*
X103119500Y-43783797D01*
X103119500Y-51511225D01*
X103099815Y-51578264D01*
X103083181Y-51598906D01*
X101909534Y-52772553D01*
X101893410Y-52794747D01*
X101893410Y-52794748D01*
X101808439Y-52911699D01*
X101730352Y-53064953D01*
X101677205Y-53228526D01*
X101674667Y-53244554D01*
X101657156Y-53355117D01*
X101657156Y-53355119D01*
X101650300Y-53398404D01*
X101650300Y-59948026D01*
X101630615Y-60015065D01*
X101613981Y-60035707D01*
X94579707Y-67069981D01*
X94518384Y-67103466D01*
X94492026Y-67106300D01*
X73566356Y-67106300D01*
X73510061Y-67092785D01*
X73444448Y-67059353D01*
X73280875Y-67006206D01*
X73195936Y-66992753D01*
X73110998Y-66979300D01*
X72939002Y-66979300D01*
X72882376Y-66988268D01*
X72769124Y-67006206D01*
X72605551Y-67059353D01*
X72605548Y-67059354D01*
X72452301Y-67137438D01*
X72313152Y-67238535D01*
X72191535Y-67360152D01*
X72090438Y-67499301D01*
X72012354Y-67652548D01*
X72012353Y-67652551D01*
X71959206Y-67816124D01*
X71932300Y-67986002D01*
X71932300Y-68157997D01*
X64500500Y-68157997D01*
X64500500Y-65913000D01*
X81433576Y-65913000D01*
X81452422Y-66092309D01*
X81452423Y-66092311D01*
X81477523Y-66169563D01*
X81508136Y-66263779D01*
X81598284Y-66419920D01*
X81718926Y-66553906D01*
X81813599Y-66622690D01*
X81864788Y-66659881D01*
X82029491Y-66733212D01*
X82029496Y-66733214D01*
X82205852Y-66770700D01*
X82386148Y-66770700D01*
X82562504Y-66733214D01*
X82727212Y-66659881D01*
X82873074Y-66553906D01*
X82993716Y-66419920D01*
X83083864Y-66263779D01*
X83139578Y-66092308D01*
X83158424Y-65913000D01*
X83139578Y-65733692D01*
X83083864Y-65562221D01*
X82993716Y-65406080D01*
X82873074Y-65272094D01*
X82800143Y-65219106D01*
X82727211Y-65166118D01*
X82562508Y-65092787D01*
X82562503Y-65092785D01*
X82386148Y-65055300D01*
X82205852Y-65055300D01*
X82029496Y-65092785D01*
X82029491Y-65092787D01*
X81864788Y-65166118D01*
X81718924Y-65272095D01*
X81598283Y-65406081D01*
X81508135Y-65562222D01*
X81452423Y-65733688D01*
X81452422Y-65733690D01*
X81433576Y-65913000D01*
X64500500Y-65913000D01*
X64500500Y-63119000D01*
X68606576Y-63119000D01*
X68624463Y-63289189D01*
X68625422Y-63298308D01*
X68681136Y-63469779D01*
X68771284Y-63625920D01*
X68891926Y-63759906D01*
X69022392Y-63854695D01*
X69037788Y-63865881D01*
X69202491Y-63939212D01*
X69202496Y-63939214D01*
X69378852Y-63976700D01*
X69559148Y-63976700D01*
X69735504Y-63939214D01*
X69900212Y-63865881D01*
X70046074Y-63759906D01*
X70166716Y-63625920D01*
X70256864Y-63469779D01*
X70312578Y-63298308D01*
X70331424Y-63119000D01*
X70312578Y-62939692D01*
X70256864Y-62768221D01*
X70166716Y-62612080D01*
X70046074Y-62478094D01*
X69910889Y-62379876D01*
X69900211Y-62372118D01*
X69735508Y-62298787D01*
X69735503Y-62298785D01*
X69559148Y-62261300D01*
X69378852Y-62261300D01*
X69202496Y-62298785D01*
X69202491Y-62298787D01*
X69037788Y-62372118D01*
X68891924Y-62478095D01*
X68771283Y-62612081D01*
X68681135Y-62768222D01*
X68625423Y-62939688D01*
X68625422Y-62939690D01*
X68606576Y-63119000D01*
X64500500Y-63119000D01*
X64500500Y-51816000D01*
X87783576Y-51816000D01*
X87802422Y-51995309D01*
X87802423Y-51995311D01*
X87850503Y-52143289D01*
X87858136Y-52166779D01*
X87948284Y-52322920D01*
X88068926Y-52456906D01*
X88214788Y-52562881D01*
X88379491Y-52636212D01*
X88379496Y-52636214D01*
X88555852Y-52673700D01*
X88736148Y-52673700D01*
X88912504Y-52636214D01*
X89077212Y-52562881D01*
X89223074Y-52456906D01*
X89343716Y-52322920D01*
X89433864Y-52166779D01*
X89489578Y-51995308D01*
X89508424Y-51816000D01*
X89489578Y-51636692D01*
X89433864Y-51465221D01*
X89343716Y-51309080D01*
X89223074Y-51175094D01*
X89077212Y-51069119D01*
X89077211Y-51069118D01*
X88912508Y-50995787D01*
X88912503Y-50995785D01*
X88736148Y-50958300D01*
X88555852Y-50958300D01*
X88379496Y-50995785D01*
X88379491Y-50995787D01*
X88214788Y-51069118D01*
X88068924Y-51175095D01*
X87948283Y-51309081D01*
X87858135Y-51465222D01*
X87802423Y-51636688D01*
X87802422Y-51636690D01*
X87783576Y-51816000D01*
X64500500Y-51816000D01*
X64500500Y-49149000D01*
X86386576Y-49149000D01*
X86405422Y-49328308D01*
X86461136Y-49499779D01*
X86551284Y-49655920D01*
X86671926Y-49789906D01*
X86817788Y-49895881D01*
X86982491Y-49969212D01*
X86982496Y-49969214D01*
X87158852Y-50006700D01*
X87339148Y-50006700D01*
X87515504Y-49969214D01*
X87680212Y-49895881D01*
X87826074Y-49789906D01*
X87946716Y-49655920D01*
X88036864Y-49499779D01*
X88092578Y-49328308D01*
X88111424Y-49149000D01*
X88092578Y-48969692D01*
X88036864Y-48798221D01*
X87946716Y-48642080D01*
X87826074Y-48508094D01*
X87721388Y-48432035D01*
X87680211Y-48402118D01*
X87515508Y-48328787D01*
X87515503Y-48328785D01*
X87339148Y-48291300D01*
X87158852Y-48291300D01*
X86982496Y-48328785D01*
X86982491Y-48328787D01*
X86817788Y-48402118D01*
X86671924Y-48508095D01*
X86551283Y-48642081D01*
X86461135Y-48798222D01*
X86405423Y-48969688D01*
X86405422Y-48969690D01*
X86405422Y-48969692D01*
X86386576Y-49149000D01*
X64500500Y-49149000D01*
X64500500Y-47260000D01*
X81067576Y-47260000D01*
X81086422Y-47439309D01*
X81086423Y-47439311D01*
X81129759Y-47572688D01*
X81142136Y-47610779D01*
X81232284Y-47766920D01*
X81352926Y-47900906D01*
X81394775Y-47931311D01*
X81498788Y-48006881D01*
X81663491Y-48080212D01*
X81663496Y-48080214D01*
X81839852Y-48117700D01*
X82020148Y-48117700D01*
X82196504Y-48080214D01*
X82361212Y-48006881D01*
X82507074Y-47900906D01*
X82627716Y-47766920D01*
X82717864Y-47610779D01*
X82773578Y-47439308D01*
X82792008Y-47263957D01*
X82818592Y-47199346D01*
X82827638Y-47189250D01*
X88247872Y-41769019D01*
X88309195Y-41735534D01*
X88335553Y-41732700D01*
X112863448Y-41732700D01*
X112930487Y-41752385D01*
X112951129Y-41769019D01*
X125362981Y-54180871D01*
X125396466Y-54242194D01*
X125399300Y-54268552D01*
X125399300Y-98755977D01*
X125411122Y-98800095D01*
X125432717Y-98880692D01*
X125439147Y-98904686D01*
X125454870Y-98931919D01*
X125454871Y-98931921D01*
X125516119Y-99038007D01*
X125516125Y-99038015D01*
X137151352Y-110673243D01*
X137184837Y-110734566D01*
X137186992Y-110747962D01*
X137196748Y-110840779D01*
X137205422Y-110923308D01*
X137261136Y-111094779D01*
X137351284Y-111250920D01*
X137471926Y-111384906D01*
X137497779Y-111403689D01*
X137617788Y-111490881D01*
X137739729Y-111545173D01*
X137792966Y-111590423D01*
X137813287Y-111657272D01*
X137794242Y-111724496D01*
X137776974Y-111746133D01*
X132796129Y-116726981D01*
X132734806Y-116760466D01*
X132708448Y-116763300D01*
X88595801Y-116763300D01*
X88528762Y-116743615D01*
X88483007Y-116690811D01*
X88474510Y-116665080D01*
X88473578Y-116660698D01*
X88473578Y-116660692D01*
X88417864Y-116489221D01*
X88327716Y-116333080D01*
X88207074Y-116199094D01*
X88061212Y-116093119D01*
X88061211Y-116093118D01*
X87896508Y-116019787D01*
X87896503Y-116019785D01*
X87720148Y-115982300D01*
X87539852Y-115982300D01*
X87363496Y-116019785D01*
X87363491Y-116019787D01*
X87198788Y-116093118D01*
X87052924Y-116199095D01*
X86932283Y-116333081D01*
X86842135Y-116489222D01*
X86786423Y-116660688D01*
X86786422Y-116660690D01*
X86767576Y-116840000D01*
X86786422Y-117019309D01*
X86786423Y-117019311D01*
X86842135Y-117190777D01*
X86932283Y-117346919D01*
X86972899Y-117392028D01*
X87003129Y-117455020D01*
X86994503Y-117524355D01*
X86972899Y-117557972D01*
X86932283Y-117603080D01*
X86842135Y-117759222D01*
X86786423Y-117930688D01*
X86786422Y-117930690D01*
X86767576Y-118110000D01*
X86773780Y-118169032D01*
X86786422Y-118289308D01*
X86842136Y-118460779D01*
X86932284Y-118616920D01*
X86966437Y-118654851D01*
X87013915Y-118707581D01*
X87044145Y-118770573D01*
X87035519Y-118839908D01*
X87013915Y-118873525D01*
X86942283Y-118953080D01*
X86852135Y-119109222D01*
X86796423Y-119280688D01*
X86796422Y-119280690D01*
X86777576Y-119460000D01*
X86796422Y-119639309D01*
X86796423Y-119639311D01*
X86841524Y-119778120D01*
X86852136Y-119810779D01*
X86942284Y-119966920D01*
X87062926Y-120100906D01*
X87208788Y-120206881D01*
X87373491Y-120280212D01*
X87373496Y-120280214D01*
X87549852Y-120317700D01*
X87619448Y-120317700D01*
X87686487Y-120337385D01*
X87707128Y-120354018D01*
X88308986Y-120955877D01*
X88442315Y-121032854D01*
X88591023Y-121072700D01*
X88591025Y-121072700D01*
X133018974Y-121072700D01*
X133018977Y-121072700D01*
X133167686Y-121032853D01*
X133301014Y-120955876D01*
X133409876Y-120847014D01*
X133468435Y-120788455D01*
X133468448Y-120788440D01*
X135638889Y-118618000D01*
X138641305Y-118618000D01*
X138661247Y-118845942D01*
X138661249Y-118845952D01*
X138720467Y-119066960D01*
X138720469Y-119066964D01*
X138720470Y-119066968D01*
X138771929Y-119177322D01*
X138817173Y-119274348D01*
X138817175Y-119274352D01*
X138948413Y-119461779D01*
X138948417Y-119461784D01*
X139110216Y-119623583D01*
X139169343Y-119664984D01*
X139212967Y-119719561D01*
X139220160Y-119789060D01*
X139188638Y-119851414D01*
X139135110Y-119884944D01*
X139061419Y-119907907D01*
X139061416Y-119907908D01*
X138914346Y-119996814D01*
X138914342Y-119996817D01*
X138792817Y-120118342D01*
X138792814Y-120118346D01*
X138703908Y-120265416D01*
X138703906Y-120265420D01*
X138652779Y-120429495D01*
X138646300Y-120500799D01*
X138646300Y-121815210D01*
X138652778Y-121886500D01*
X138652779Y-121886505D01*
X138703907Y-122050581D01*
X138703908Y-122050583D01*
X138792814Y-122197653D01*
X138792817Y-122197657D01*
X138914342Y-122319182D01*
X138914346Y-122319185D01*
X139061416Y-122408091D01*
X139061420Y-122408093D01*
X139119457Y-122426177D01*
X139225497Y-122459221D01*
X139296797Y-122465700D01*
X140611202Y-122465699D01*
X140611209Y-122465699D01*
X140661112Y-122461164D01*
X140682503Y-122459221D01*
X140846582Y-122408092D01*
X140993658Y-122319182D01*
X141115182Y-122197658D01*
X141204092Y-122050582D01*
X141227055Y-121976888D01*
X141265791Y-121918743D01*
X141329816Y-121890768D01*
X141398802Y-121901849D01*
X141447015Y-121942656D01*
X141488417Y-122001784D01*
X141488418Y-122001785D01*
X141650214Y-122163581D01*
X141650220Y-122163586D01*
X141837647Y-122294824D01*
X141837649Y-122294825D01*
X141837652Y-122294827D01*
X142045032Y-122391530D01*
X142266053Y-122450752D01*
X142436896Y-122465699D01*
X142493999Y-122470695D01*
X142494000Y-122470695D01*
X142494001Y-122470695D01*
X142551092Y-122465700D01*
X142721947Y-122450752D01*
X142942968Y-122391530D01*
X143150348Y-122294827D01*
X143337784Y-122163583D01*
X143499583Y-122001784D01*
X143630827Y-121814348D01*
X143651618Y-121769760D01*
X143697790Y-121717322D01*
X143764984Y-121698170D01*
X143831865Y-121718386D01*
X143876382Y-121769761D01*
X143897173Y-121814348D01*
X143897175Y-121814352D01*
X144028413Y-122001779D01*
X144028418Y-122001785D01*
X144190214Y-122163581D01*
X144190220Y-122163586D01*
X144377647Y-122294824D01*
X144377649Y-122294825D01*
X144377652Y-122294827D01*
X144585032Y-122391530D01*
X144806053Y-122450752D01*
X144976896Y-122465699D01*
X145033999Y-122470695D01*
X145034000Y-122470695D01*
X145034001Y-122470695D01*
X145091092Y-122465700D01*
X145261947Y-122450752D01*
X145482968Y-122391530D01*
X145690348Y-122294827D01*
X145877784Y-122163583D01*
X146039583Y-122001784D01*
X146170827Y-121814348D01*
X146267530Y-121606968D01*
X146326752Y-121385947D01*
X146346695Y-121158000D01*
X146326752Y-120930053D01*
X146267530Y-120709032D01*
X146170827Y-120501653D01*
X146039583Y-120314216D01*
X145877784Y-120152417D01*
X145877782Y-120152416D01*
X145877779Y-120152413D01*
X145690352Y-120021175D01*
X145690348Y-120021173D01*
X145690346Y-120021172D01*
X145482968Y-119924470D01*
X145482964Y-119924469D01*
X145482960Y-119924467D01*
X145261952Y-119865249D01*
X145261942Y-119865247D01*
X145034001Y-119845305D01*
X145033999Y-119845305D01*
X144806057Y-119865247D01*
X144806047Y-119865249D01*
X144585039Y-119924467D01*
X144585030Y-119924471D01*
X144377654Y-120021172D01*
X144377652Y-120021173D01*
X144190213Y-120152418D01*
X144028418Y-120314213D01*
X143897174Y-120501651D01*
X143876382Y-120546240D01*
X143830209Y-120598679D01*
X143763015Y-120617830D01*
X143696134Y-120597614D01*
X143651618Y-120546240D01*
X143630827Y-120501653D01*
X143499583Y-120314216D01*
X143337784Y-120152417D01*
X143337782Y-120152416D01*
X143337779Y-120152413D01*
X143150352Y-120021175D01*
X143150348Y-120021173D01*
X143150346Y-120021172D01*
X143105760Y-120000381D01*
X143053322Y-119954210D01*
X143034170Y-119887016D01*
X143054386Y-119820135D01*
X143105760Y-119775618D01*
X143150348Y-119754827D01*
X143337784Y-119623583D01*
X143499583Y-119461784D01*
X143630827Y-119274348D01*
X143727530Y-119066968D01*
X143786752Y-118845947D01*
X143806695Y-118618000D01*
X143786752Y-118390053D01*
X143727530Y-118169032D01*
X143630827Y-117961653D01*
X143499583Y-117774216D01*
X143337784Y-117612417D01*
X143337782Y-117612416D01*
X143337779Y-117612413D01*
X143150352Y-117481175D01*
X143150348Y-117481173D01*
X143137110Y-117475000D01*
X142942968Y-117384470D01*
X142942964Y-117384469D01*
X142942960Y-117384467D01*
X142721952Y-117325249D01*
X142721942Y-117325247D01*
X142494001Y-117305305D01*
X142493999Y-117305305D01*
X142266057Y-117325247D01*
X142266047Y-117325249D01*
X142045039Y-117384467D01*
X142045030Y-117384471D01*
X141837654Y-117481172D01*
X141837652Y-117481173D01*
X141650213Y-117612418D01*
X141488418Y-117774213D01*
X141357174Y-117961651D01*
X141336382Y-118006240D01*
X141290209Y-118058679D01*
X141223015Y-118077830D01*
X141156134Y-118057614D01*
X141111618Y-118006240D01*
X141101285Y-117984081D01*
X141090827Y-117961653D01*
X140959583Y-117774216D01*
X140797784Y-117612417D01*
X140797782Y-117612416D01*
X140797779Y-117612413D01*
X140610352Y-117481175D01*
X140610348Y-117481173D01*
X140597110Y-117475000D01*
X140402968Y-117384470D01*
X140402964Y-117384469D01*
X140402960Y-117384467D01*
X140181952Y-117325249D01*
X140181942Y-117325247D01*
X139954001Y-117305305D01*
X139953999Y-117305305D01*
X139726057Y-117325247D01*
X139726047Y-117325249D01*
X139505039Y-117384467D01*
X139505030Y-117384471D01*
X139297654Y-117481172D01*
X139297652Y-117481173D01*
X139110213Y-117612418D01*
X138948418Y-117774213D01*
X138817173Y-117961652D01*
X138817172Y-117961654D01*
X138720471Y-118169030D01*
X138720467Y-118169039D01*
X138661249Y-118390047D01*
X138661247Y-118390057D01*
X138641305Y-118617999D01*
X138641305Y-118618000D01*
X135638889Y-118618000D01*
X141564877Y-112692014D01*
X141641854Y-112558685D01*
X141681700Y-112409977D01*
X141681700Y-112256023D01*
X141681700Y-112186035D01*
X141701385Y-112118996D01*
X141713543Y-112103070D01*
X141794716Y-112012920D01*
X141884864Y-111856779D01*
X141940578Y-111685308D01*
X141959424Y-111506000D01*
X141955894Y-111472417D01*
X141968461Y-111403689D01*
X142016192Y-111352664D01*
X142083932Y-111335545D01*
X142104990Y-111338164D01*
X142149852Y-111347700D01*
X142149853Y-111347700D01*
X142330148Y-111347700D01*
X142506504Y-111310214D01*
X142671212Y-111236881D01*
X142817074Y-111130906D01*
X142937716Y-110996920D01*
X143027864Y-110840779D01*
X143083578Y-110669308D01*
X143102424Y-110490000D01*
X143083578Y-110310692D01*
X143027864Y-110139221D01*
X142937716Y-109983080D01*
X142817074Y-109849094D01*
X142671212Y-109743119D01*
X142671211Y-109743118D01*
X142506508Y-109669787D01*
X142506505Y-109669786D01*
X142474727Y-109663031D01*
X142413245Y-109629837D01*
X142379470Y-109568673D01*
X142384124Y-109498959D01*
X142412827Y-109454062D01*
X143885876Y-107981014D01*
X143911216Y-107937124D01*
X143962853Y-107847686D01*
X144002700Y-107698977D01*
X144002700Y-107026700D01*
X144022385Y-106959661D01*
X144075189Y-106913906D01*
X144126700Y-106902700D01*
X144235148Y-106902700D01*
X144411504Y-106865214D01*
X144576212Y-106791881D01*
X144722074Y-106685906D01*
X144842716Y-106551920D01*
X144932864Y-106395779D01*
X144988578Y-106224308D01*
X145007424Y-106045000D01*
X144988578Y-105865692D01*
X144932864Y-105694221D01*
X144842716Y-105538080D01*
X144761550Y-105447936D01*
X144731320Y-105384945D01*
X144729700Y-105364964D01*
X144729700Y-102946307D01*
X144749385Y-102879268D01*
X144802189Y-102833513D01*
X144871347Y-102823569D01*
X144879464Y-102825013D01*
X144943852Y-102838700D01*
X144943853Y-102838700D01*
X145124147Y-102838700D01*
X145124148Y-102838700D01*
X145215221Y-102819341D01*
X145284887Y-102824656D01*
X145333152Y-102857659D01*
X145380147Y-102909853D01*
X145405612Y-102938134D01*
X145551474Y-103044109D01*
X145716177Y-103117440D01*
X145716182Y-103117442D01*
X145892538Y-103154928D01*
X146072834Y-103154928D01*
X146249190Y-103117442D01*
X146413898Y-103044109D01*
X146559760Y-102938134D01*
X146646151Y-102842187D01*
X146705637Y-102805539D01*
X146775494Y-102806870D01*
X146833542Y-102845756D01*
X146861352Y-102909853D01*
X146862300Y-102925160D01*
X146862300Y-114889964D01*
X146842615Y-114957003D01*
X146830450Y-114972936D01*
X146749283Y-115063081D01*
X146659135Y-115219222D01*
X146603423Y-115390688D01*
X146603422Y-115390690D01*
X146603422Y-115390692D01*
X146584576Y-115570000D01*
X146603422Y-115749308D01*
X146659136Y-115920779D01*
X146749284Y-116076920D01*
X146869926Y-116210906D01*
X147015788Y-116316881D01*
X147180491Y-116390212D01*
X147180496Y-116390214D01*
X147356852Y-116427700D01*
X147537148Y-116427700D01*
X147713504Y-116390214D01*
X147878212Y-116316881D01*
X148024074Y-116210906D01*
X148144716Y-116076920D01*
X148234864Y-115920779D01*
X148290578Y-115749308D01*
X148309424Y-115570000D01*
X148290578Y-115390692D01*
X148234864Y-115219221D01*
X148144716Y-115063080D01*
X148063550Y-114972936D01*
X148033320Y-114909945D01*
X148031700Y-114889964D01*
X148031700Y-107026700D01*
X148051385Y-106959661D01*
X148104189Y-106913906D01*
X148155700Y-106902700D01*
X148264148Y-106902700D01*
X148440504Y-106865214D01*
X148605212Y-106791881D01*
X148751074Y-106685906D01*
X148871716Y-106551920D01*
X148961864Y-106395779D01*
X149017578Y-106224308D01*
X149036424Y-106045000D01*
X149017578Y-105865692D01*
X148961864Y-105694221D01*
X148871716Y-105538080D01*
X148790550Y-105447936D01*
X148760320Y-105384945D01*
X148758700Y-105364964D01*
X148758700Y-104584952D01*
X148778385Y-104517913D01*
X148831189Y-104472158D01*
X148900347Y-104462214D01*
X148955583Y-104484632D01*
X149028777Y-104537811D01*
X149068788Y-104566881D01*
X149233491Y-104640212D01*
X149233496Y-104640214D01*
X149409852Y-104677700D01*
X149590147Y-104677700D01*
X149590148Y-104677700D01*
X149668520Y-104661041D01*
X149738185Y-104666356D01*
X149793919Y-104708493D01*
X149818025Y-104774073D01*
X149818300Y-104782331D01*
X149818300Y-109743448D01*
X149798615Y-109810487D01*
X149781981Y-109831129D01*
X149557129Y-110055981D01*
X149495806Y-110089466D01*
X149469448Y-110092300D01*
X149399852Y-110092300D01*
X149223496Y-110129785D01*
X149223491Y-110129787D01*
X149058788Y-110203118D01*
X148912924Y-110309095D01*
X148792283Y-110443081D01*
X148702135Y-110599222D01*
X148646423Y-110770688D01*
X148646422Y-110770690D01*
X148627576Y-110950000D01*
X148646422Y-111129309D01*
X148646423Y-111129311D01*
X148698728Y-111290292D01*
X148702136Y-111300779D01*
X148792284Y-111456920D01*
X148912926Y-111590906D01*
X149004271Y-111657272D01*
X149058788Y-111696881D01*
X149223491Y-111770212D01*
X149223496Y-111770214D01*
X149399852Y-111807700D01*
X149580148Y-111807700D01*
X149756504Y-111770214D01*
X149921212Y-111696881D01*
X150067074Y-111590906D01*
X150187716Y-111456920D01*
X150277864Y-111300779D01*
X150333578Y-111129308D01*
X150352008Y-110953957D01*
X150378592Y-110889346D01*
X150387637Y-110879251D01*
X150870876Y-110396014D01*
X150908687Y-110330523D01*
X150947853Y-110262686D01*
X150987700Y-110113977D01*
X150987700Y-107823000D01*
X152553576Y-107823000D01*
X152572422Y-108002309D01*
X152572423Y-108002311D01*
X152613687Y-108129311D01*
X152628136Y-108173779D01*
X152718284Y-108329920D01*
X152838926Y-108463906D01*
X152910919Y-108516212D01*
X152984788Y-108569881D01*
X153149491Y-108643212D01*
X153149496Y-108643214D01*
X153325852Y-108680700D01*
X153506148Y-108680700D01*
X153682504Y-108643214D01*
X153847212Y-108569881D01*
X153993074Y-108463906D01*
X154113716Y-108329920D01*
X154203864Y-108173779D01*
X154259578Y-108002308D01*
X154278424Y-107823000D01*
X154259578Y-107643692D01*
X154203864Y-107472221D01*
X154113716Y-107316080D01*
X153993074Y-107182094D01*
X153847212Y-107076119D01*
X153847211Y-107076118D01*
X153682508Y-107002787D01*
X153682503Y-107002785D01*
X153506148Y-106965300D01*
X153325852Y-106965300D01*
X153149496Y-107002785D01*
X153149491Y-107002787D01*
X152984788Y-107076118D01*
X152838924Y-107182095D01*
X152718283Y-107316081D01*
X152628135Y-107472222D01*
X152572423Y-107643688D01*
X152572422Y-107643690D01*
X152553576Y-107823000D01*
X150987700Y-107823000D01*
X150987700Y-96487952D01*
X151007385Y-96420913D01*
X151060189Y-96375158D01*
X151129347Y-96365214D01*
X151192903Y-96394239D01*
X151199381Y-96400271D01*
X157112981Y-102313871D01*
X157146466Y-102375194D01*
X157149300Y-102401552D01*
X157149300Y-115143964D01*
X157129615Y-115211003D01*
X157117450Y-115226936D01*
X157036283Y-115317081D01*
X156946135Y-115473222D01*
X156890423Y-115644688D01*
X156890422Y-115644690D01*
X156886881Y-115678378D01*
X156871576Y-115824000D01*
X156890422Y-116003308D01*
X156946136Y-116174779D01*
X157036284Y-116330920D01*
X157156926Y-116464906D01*
X157302788Y-116570881D01*
X157467491Y-116644212D01*
X157467496Y-116644214D01*
X157643852Y-116681700D01*
X157824148Y-116681700D01*
X158000504Y-116644214D01*
X158165212Y-116570881D01*
X158311074Y-116464906D01*
X158431716Y-116330920D01*
X158521864Y-116174779D01*
X158577578Y-116003308D01*
X158596424Y-115824000D01*
X158577578Y-115644692D01*
X158521864Y-115473221D01*
X158431716Y-115317080D01*
X158350550Y-115226936D01*
X158320320Y-115163945D01*
X158318700Y-115143964D01*
X158318700Y-102743000D01*
X165380576Y-102743000D01*
X165399422Y-102922309D01*
X165399423Y-102922311D01*
X165442817Y-103055867D01*
X165455136Y-103093779D01*
X165545284Y-103249920D01*
X165665926Y-103383906D01*
X165811708Y-103489823D01*
X165811788Y-103489881D01*
X165976491Y-103563212D01*
X165976496Y-103563214D01*
X166152852Y-103600700D01*
X166333148Y-103600700D01*
X166509504Y-103563214D01*
X166674212Y-103489881D01*
X166820074Y-103383906D01*
X166940716Y-103249920D01*
X167030864Y-103093779D01*
X167086578Y-102922308D01*
X167105424Y-102743000D01*
X167086578Y-102563692D01*
X167030864Y-102392221D01*
X166940716Y-102236080D01*
X166820074Y-102102094D01*
X166713969Y-102025004D01*
X166674211Y-101996118D01*
X166509508Y-101922787D01*
X166509503Y-101922785D01*
X166333148Y-101885300D01*
X166152852Y-101885300D01*
X165976496Y-101922785D01*
X165976491Y-101922787D01*
X165811788Y-101996118D01*
X165665924Y-102102095D01*
X165545283Y-102236081D01*
X165455135Y-102392222D01*
X165399423Y-102563688D01*
X165399422Y-102563690D01*
X165380576Y-102743000D01*
X158318700Y-102743000D01*
X158318700Y-102031025D01*
X158318700Y-102031023D01*
X158278853Y-101882314D01*
X158232306Y-101801692D01*
X158201876Y-101748985D01*
X155893891Y-99441000D01*
X167031576Y-99441000D01*
X167050422Y-99620309D01*
X167050423Y-99620311D01*
X167095557Y-99759222D01*
X167106136Y-99791779D01*
X167196284Y-99947920D01*
X167316926Y-100081906D01*
X167462788Y-100187881D01*
X167627491Y-100261212D01*
X167627496Y-100261214D01*
X167803852Y-100298700D01*
X167873448Y-100298700D01*
X167940487Y-100318385D01*
X167961129Y-100335019D01*
X171844981Y-104218871D01*
X171878466Y-104280194D01*
X171881300Y-104306552D01*
X171881300Y-122504977D01*
X171921147Y-122653686D01*
X171972209Y-122742128D01*
X171998124Y-122787014D01*
X171998126Y-122787016D01*
X172951001Y-123739892D01*
X172984486Y-123801215D01*
X172986540Y-123813687D01*
X172992623Y-123867672D01*
X172992623Y-123867673D01*
X173049016Y-124028833D01*
X173049017Y-124028834D01*
X173139858Y-124173407D01*
X173260593Y-124294142D01*
X173405166Y-124384983D01*
X173566329Y-124441377D01*
X173566335Y-124441377D01*
X173566337Y-124441378D01*
X173735996Y-124460494D01*
X173736000Y-124460494D01*
X173736004Y-124460494D01*
X173905662Y-124441378D01*
X173905661Y-124441378D01*
X173905671Y-124441377D01*
X174066834Y-124384983D01*
X174211407Y-124294142D01*
X174332142Y-124173407D01*
X174422983Y-124028834D01*
X174479377Y-123867671D01*
X174484538Y-123821862D01*
X174498494Y-123698003D01*
X174498494Y-123697996D01*
X174479378Y-123528337D01*
X174479377Y-123528335D01*
X174479377Y-123528329D01*
X174422983Y-123367166D01*
X174332142Y-123222593D01*
X174211407Y-123101858D01*
X174066834Y-123011017D01*
X174066835Y-123011017D01*
X174066833Y-123011016D01*
X173905672Y-122954623D01*
X173851687Y-122948540D01*
X173787274Y-122921472D01*
X173777892Y-122913001D01*
X173087019Y-122222128D01*
X173053534Y-122160805D01*
X173050700Y-122134447D01*
X173050700Y-115740638D01*
X173070385Y-115673599D01*
X173123189Y-115627844D01*
X173192347Y-115617900D01*
X173247583Y-115640319D01*
X173299967Y-115678378D01*
X173304787Y-115681880D01*
X173304788Y-115681881D01*
X173469491Y-115755212D01*
X173469496Y-115755214D01*
X173645852Y-115792700D01*
X173826148Y-115792700D01*
X174002504Y-115755214D01*
X174167212Y-115681881D01*
X174313074Y-115575906D01*
X174433716Y-115441920D01*
X174523864Y-115285779D01*
X174579578Y-115114308D01*
X174598424Y-114935003D01*
X176529506Y-114935003D01*
X176548621Y-115104662D01*
X176548623Y-115104672D01*
X176605016Y-115265833D01*
X176605018Y-115265836D01*
X176683468Y-115390688D01*
X176695858Y-115410407D01*
X176816593Y-115531142D01*
X176961166Y-115621983D01*
X177122329Y-115678377D01*
X177122335Y-115678377D01*
X177122337Y-115678378D01*
X177291996Y-115697494D01*
X177292000Y-115697494D01*
X177292004Y-115697494D01*
X177461662Y-115678378D01*
X177461661Y-115678378D01*
X177461671Y-115678377D01*
X177622834Y-115621983D01*
X177767407Y-115531142D01*
X177888142Y-115410407D01*
X177978983Y-115265834D01*
X178035377Y-115104671D01*
X178052015Y-114957003D01*
X178054494Y-114935003D01*
X178054494Y-114935000D01*
X179985576Y-114935000D01*
X180004422Y-115114309D01*
X180004423Y-115114311D01*
X180053655Y-115265834D01*
X180060136Y-115285779D01*
X180150284Y-115441920D01*
X180270926Y-115575906D01*
X180365599Y-115644690D01*
X180416788Y-115681881D01*
X180581491Y-115755212D01*
X180581496Y-115755214D01*
X180757852Y-115792700D01*
X180938148Y-115792700D01*
X181114504Y-115755214D01*
X181279212Y-115681881D01*
X181425074Y-115575906D01*
X181545716Y-115441920D01*
X181635864Y-115285779D01*
X181691578Y-115114308D01*
X181710424Y-114935000D01*
X181691578Y-114755692D01*
X181635864Y-114584221D01*
X181545716Y-114428080D01*
X181425074Y-114294094D01*
X181279212Y-114188119D01*
X181279211Y-114188118D01*
X181114508Y-114114787D01*
X181114503Y-114114785D01*
X180938148Y-114077300D01*
X180757852Y-114077300D01*
X180581496Y-114114785D01*
X180581491Y-114114787D01*
X180416788Y-114188118D01*
X180270924Y-114294095D01*
X180150283Y-114428081D01*
X180060135Y-114584222D01*
X180004423Y-114755688D01*
X180004422Y-114755690D01*
X179985576Y-114935000D01*
X178054494Y-114935000D01*
X178054494Y-114934996D01*
X178035378Y-114765337D01*
X178035377Y-114765335D01*
X178035377Y-114765329D01*
X177978983Y-114604166D01*
X177888142Y-114459593D01*
X177767407Y-114338858D01*
X177696167Y-114294095D01*
X177622836Y-114248018D01*
X177622833Y-114248016D01*
X177461672Y-114191623D01*
X177461662Y-114191621D01*
X177292004Y-114172506D01*
X177291996Y-114172506D01*
X177122337Y-114191621D01*
X177122327Y-114191623D01*
X176961166Y-114248016D01*
X176961163Y-114248018D01*
X176816592Y-114338858D01*
X176695858Y-114459592D01*
X176605018Y-114604163D01*
X176605016Y-114604166D01*
X176548623Y-114765327D01*
X176548621Y-114765337D01*
X176529506Y-114934996D01*
X176529506Y-114935003D01*
X174598424Y-114935003D01*
X174598424Y-114935000D01*
X174579578Y-114755692D01*
X174523864Y-114584221D01*
X174433716Y-114428080D01*
X174313074Y-114294094D01*
X174167212Y-114188119D01*
X174167211Y-114188118D01*
X174002508Y-114114787D01*
X174002503Y-114114785D01*
X173826148Y-114077300D01*
X173645852Y-114077300D01*
X173469496Y-114114785D01*
X173469491Y-114114787D01*
X173304788Y-114188118D01*
X173247586Y-114229679D01*
X173181779Y-114253159D01*
X173113725Y-114237334D01*
X173065030Y-114187228D01*
X173050700Y-114129361D01*
X173050700Y-107045977D01*
X180552300Y-107045977D01*
X180592147Y-107194686D01*
X180658201Y-107309094D01*
X180662235Y-107316081D01*
X180669126Y-107328017D01*
X180669127Y-107328018D01*
X180966352Y-107625242D01*
X180999837Y-107686565D01*
X181001992Y-107699961D01*
X181020422Y-107875308D01*
X181020423Y-107875311D01*
X181061687Y-108002311D01*
X181076136Y-108046779D01*
X181166284Y-108202920D01*
X181286926Y-108336906D01*
X181398369Y-108417874D01*
X181432788Y-108442881D01*
X181597491Y-108516212D01*
X181597496Y-108516214D01*
X181773852Y-108553700D01*
X181954148Y-108553700D01*
X182130504Y-108516214D01*
X182295212Y-108442881D01*
X182441074Y-108336906D01*
X182561716Y-108202920D01*
X182651864Y-108046779D01*
X182707578Y-107875308D01*
X182726424Y-107696000D01*
X182725432Y-107686565D01*
X182722778Y-107661315D01*
X182735345Y-107592585D01*
X182783076Y-107541560D01*
X182850816Y-107524441D01*
X182917058Y-107546662D01*
X182933779Y-107560670D01*
X183028985Y-107655876D01*
X183028986Y-107655877D01*
X183028988Y-107655878D01*
X183042788Y-107663845D01*
X183082141Y-107686565D01*
X183095647Y-107694362D01*
X183095649Y-107694364D01*
X183095650Y-107694364D01*
X183162314Y-107732853D01*
X183311023Y-107772700D01*
X183311026Y-107772700D01*
X186512974Y-107772700D01*
X186512977Y-107772700D01*
X186661686Y-107732853D01*
X186795014Y-107655876D01*
X186903876Y-107547014D01*
X187919876Y-106531014D01*
X187977096Y-106431906D01*
X187977098Y-106431904D01*
X187996850Y-106397691D01*
X187996851Y-106397690D01*
X187996851Y-106397688D01*
X187996853Y-106397686D01*
X188036700Y-106248977D01*
X188036700Y-101412049D01*
X187996853Y-101263340D01*
X187940138Y-101165106D01*
X187919876Y-101130011D01*
X186646988Y-99857124D01*
X186626162Y-99845100D01*
X186577948Y-99794535D01*
X186564724Y-99725928D01*
X186571119Y-99696769D01*
X186585432Y-99655867D01*
X186589438Y-99620311D01*
X186605811Y-99475003D01*
X186605811Y-99474996D01*
X186585433Y-99294138D01*
X186585432Y-99294136D01*
X186585432Y-99294133D01*
X186525317Y-99122335D01*
X186428481Y-98968221D01*
X186299779Y-98839519D01*
X186237036Y-98800095D01*
X186145664Y-98742682D01*
X185973861Y-98682566D01*
X185793004Y-98662189D01*
X185792996Y-98662189D01*
X185612138Y-98682566D01*
X185440335Y-98742682D01*
X185286220Y-98839519D01*
X185205681Y-98920059D01*
X185144358Y-98953544D01*
X185074666Y-98948560D01*
X185030319Y-98920059D01*
X184949779Y-98839519D01*
X184795664Y-98742682D01*
X184623861Y-98682566D01*
X184443004Y-98662189D01*
X184442996Y-98662189D01*
X184262138Y-98682566D01*
X184090335Y-98742682D01*
X183936220Y-98839519D01*
X183807519Y-98968220D01*
X183710682Y-99122335D01*
X183650566Y-99294138D01*
X183630189Y-99474996D01*
X183630189Y-99475003D01*
X183650566Y-99655860D01*
X183710682Y-99827664D01*
X183714683Y-99834031D01*
X183733681Y-99901268D01*
X183714683Y-99965969D01*
X183710682Y-99972335D01*
X183650566Y-100144139D01*
X183630189Y-100324996D01*
X183630189Y-100325003D01*
X183650566Y-100505860D01*
X183710682Y-100677664D01*
X183714683Y-100684031D01*
X183733681Y-100751268D01*
X183714683Y-100815969D01*
X183710682Y-100822335D01*
X183650566Y-100994139D01*
X183630189Y-101174996D01*
X183630189Y-101175003D01*
X183650566Y-101355860D01*
X183710682Y-101527664D01*
X183714683Y-101534031D01*
X183733681Y-101601268D01*
X183714683Y-101665969D01*
X183710682Y-101672335D01*
X183650566Y-101844139D01*
X183630189Y-102024996D01*
X183630189Y-102025004D01*
X183644844Y-102155080D01*
X183632789Y-102223902D01*
X183585440Y-102275281D01*
X183553718Y-102288738D01*
X183399178Y-102330147D01*
X183339729Y-102364471D01*
X183310004Y-102381633D01*
X183291665Y-102392221D01*
X183265853Y-102407123D01*
X183265850Y-102407125D01*
X180669126Y-105003849D01*
X180669122Y-105003855D01*
X180592148Y-105137176D01*
X180592147Y-105137180D01*
X180552300Y-105285889D01*
X180552300Y-107045977D01*
X173050700Y-107045977D01*
X173050700Y-103936025D01*
X173050700Y-103936023D01*
X173010853Y-103787314D01*
X172953405Y-103687811D01*
X172953404Y-103687809D01*
X172933878Y-103653988D01*
X172933874Y-103653983D01*
X168791647Y-99511757D01*
X168758162Y-99450434D01*
X168756008Y-99437048D01*
X168737578Y-99261692D01*
X168681864Y-99090221D01*
X168664416Y-99060000D01*
X173254576Y-99060000D01*
X173273422Y-99239309D01*
X173273423Y-99239311D01*
X173327810Y-99406700D01*
X173329136Y-99410779D01*
X173419284Y-99566920D01*
X173539926Y-99700906D01*
X173574366Y-99725928D01*
X173685788Y-99806881D01*
X173850491Y-99880212D01*
X173850496Y-99880214D01*
X174026852Y-99917700D01*
X174207148Y-99917700D01*
X174383504Y-99880214D01*
X174548212Y-99806881D01*
X174694074Y-99700906D01*
X174814716Y-99566920D01*
X174904864Y-99410779D01*
X174960578Y-99239308D01*
X174979424Y-99060000D01*
X174960578Y-98880692D01*
X174904864Y-98709221D01*
X174814716Y-98553080D01*
X174694074Y-98419094D01*
X174548212Y-98313119D01*
X174548211Y-98313118D01*
X174383508Y-98239787D01*
X174383503Y-98239785D01*
X174207148Y-98202300D01*
X174026852Y-98202300D01*
X173850496Y-98239785D01*
X173850491Y-98239787D01*
X173685788Y-98313118D01*
X173539924Y-98419095D01*
X173419283Y-98553081D01*
X173329135Y-98709222D01*
X173273423Y-98880688D01*
X173273422Y-98880690D01*
X173254576Y-99060000D01*
X168664416Y-99060000D01*
X168591716Y-98934080D01*
X168471074Y-98800094D01*
X168392053Y-98742682D01*
X168325211Y-98694118D01*
X168160508Y-98620787D01*
X168160503Y-98620785D01*
X167984148Y-98583300D01*
X167803852Y-98583300D01*
X167627496Y-98620785D01*
X167627491Y-98620787D01*
X167462788Y-98694118D01*
X167316924Y-98800095D01*
X167196283Y-98934081D01*
X167106135Y-99090222D01*
X167050423Y-99261688D01*
X167050422Y-99261690D01*
X167031576Y-99441000D01*
X155893891Y-99441000D01*
X152027646Y-95574756D01*
X151994162Y-95513434D01*
X151992008Y-95500048D01*
X151973578Y-95324692D01*
X151917864Y-95153221D01*
X151827716Y-94997080D01*
X151707074Y-94863094D01*
X151577912Y-94769252D01*
X151561211Y-94757118D01*
X151396508Y-94683787D01*
X151396503Y-94683785D01*
X151220148Y-94646300D01*
X151111700Y-94646300D01*
X151044661Y-94626615D01*
X150998906Y-94573811D01*
X150987700Y-94522300D01*
X150987700Y-93091000D01*
X171603576Y-93091000D01*
X171622422Y-93270309D01*
X171622423Y-93270311D01*
X171674186Y-93429624D01*
X171678136Y-93441779D01*
X171768284Y-93597920D01*
X171888926Y-93731906D01*
X172008842Y-93819030D01*
X172034788Y-93837881D01*
X172199491Y-93911212D01*
X172199496Y-93911214D01*
X172375852Y-93948700D01*
X172556148Y-93948700D01*
X172732504Y-93911214D01*
X172897212Y-93837881D01*
X173043074Y-93731906D01*
X173163716Y-93597920D01*
X173253864Y-93441779D01*
X173309578Y-93270308D01*
X173328424Y-93091000D01*
X173309578Y-92911692D01*
X173253864Y-92740221D01*
X173163716Y-92584080D01*
X173043074Y-92450094D01*
X172897212Y-92344119D01*
X172897211Y-92344118D01*
X172732508Y-92270787D01*
X172732503Y-92270785D01*
X172556148Y-92233300D01*
X172375852Y-92233300D01*
X172199496Y-92270785D01*
X172199491Y-92270787D01*
X172034788Y-92344118D01*
X171888924Y-92450095D01*
X171768283Y-92584081D01*
X171678135Y-92740222D01*
X171622423Y-92911688D01*
X171622422Y-92911690D01*
X171603576Y-93091000D01*
X150987700Y-93091000D01*
X150987700Y-85518000D01*
X167059576Y-85518000D01*
X167078422Y-85697308D01*
X167134136Y-85868779D01*
X167224284Y-86024920D01*
X167344926Y-86158906D01*
X167490788Y-86264881D01*
X167655491Y-86338212D01*
X167655496Y-86338214D01*
X167831852Y-86375700D01*
X168012148Y-86375700D01*
X168188504Y-86338214D01*
X168353212Y-86264881D01*
X168499074Y-86158906D01*
X168619716Y-86024920D01*
X168709864Y-85868779D01*
X168765578Y-85697308D01*
X168772652Y-85630000D01*
X176117576Y-85630000D01*
X176136422Y-85809309D01*
X176136423Y-85809311D01*
X176155744Y-85868777D01*
X176192136Y-85980779D01*
X176282284Y-86136920D01*
X176402926Y-86270906D01*
X176548788Y-86376881D01*
X176713491Y-86450212D01*
X176713496Y-86450214D01*
X176889852Y-86487700D01*
X177070148Y-86487700D01*
X177246504Y-86450214D01*
X177411212Y-86376881D01*
X177557074Y-86270906D01*
X177677716Y-86136920D01*
X177767864Y-85980779D01*
X177823578Y-85809308D01*
X177842424Y-85630000D01*
X177823578Y-85450692D01*
X177767864Y-85279221D01*
X177677716Y-85123080D01*
X177557074Y-84989094D01*
X177411212Y-84883119D01*
X177411211Y-84883118D01*
X177246508Y-84809787D01*
X177246503Y-84809785D01*
X177070148Y-84772300D01*
X176889852Y-84772300D01*
X176713496Y-84809785D01*
X176713491Y-84809787D01*
X176548788Y-84883118D01*
X176402924Y-84989095D01*
X176282283Y-85123081D01*
X176192135Y-85279222D01*
X176136423Y-85450688D01*
X176136422Y-85450690D01*
X176117576Y-85630000D01*
X168772652Y-85630000D01*
X168784424Y-85518000D01*
X168765578Y-85338692D01*
X168709864Y-85167221D01*
X168619716Y-85011080D01*
X168499074Y-84877094D01*
X168353212Y-84771119D01*
X168353211Y-84771118D01*
X168188508Y-84697787D01*
X168188503Y-84697785D01*
X168012148Y-84660300D01*
X167831852Y-84660300D01*
X167655496Y-84697785D01*
X167655491Y-84697787D01*
X167490788Y-84771118D01*
X167344924Y-84877095D01*
X167224283Y-85011081D01*
X167134135Y-85167222D01*
X167078423Y-85338688D01*
X167078422Y-85338690D01*
X167066650Y-85450692D01*
X167059576Y-85518000D01*
X150987700Y-85518000D01*
X150987700Y-79505000D01*
X152275500Y-79505000D01*
X152275501Y-79505009D01*
X152287052Y-79612450D01*
X152287054Y-79612462D01*
X152298260Y-79663972D01*
X152332383Y-79766497D01*
X152332386Y-79766503D01*
X152410171Y-79887537D01*
X152410179Y-79887548D01*
X152455923Y-79940340D01*
X152455926Y-79940343D01*
X152455930Y-79940347D01*
X152564664Y-80034567D01*
X152564667Y-80034568D01*
X152564668Y-80034569D01*
X152658925Y-80077616D01*
X152695541Y-80094338D01*
X152762580Y-80114023D01*
X152762584Y-80114024D01*
X152905000Y-80134500D01*
X152905003Y-80134500D01*
X158498990Y-80134500D01*
X158499000Y-80134500D01*
X158606456Y-80122947D01*
X158657967Y-80111741D01*
X158692197Y-80100347D01*
X158760497Y-80077616D01*
X158760501Y-80077613D01*
X158760504Y-80077613D01*
X158881543Y-79999825D01*
X158934347Y-79954070D01*
X159028567Y-79845336D01*
X159088338Y-79714459D01*
X159108023Y-79647420D01*
X159108024Y-79647416D01*
X159128500Y-79505000D01*
X159128500Y-73276000D01*
X159116947Y-73168544D01*
X159105741Y-73117033D01*
X159105637Y-73116722D01*
X159071616Y-73014502D01*
X159071613Y-73014496D01*
X158993828Y-72893462D01*
X158993825Y-72893457D01*
X158993820Y-72893451D01*
X158948076Y-72840659D01*
X158948072Y-72840656D01*
X158948070Y-72840653D01*
X158839336Y-72746433D01*
X158839333Y-72746431D01*
X158839331Y-72746430D01*
X158708465Y-72686664D01*
X158708460Y-72686662D01*
X158708459Y-72686662D01*
X158641420Y-72666977D01*
X158641422Y-72666977D01*
X158641417Y-72666976D01*
X158579347Y-72658052D01*
X158499000Y-72646500D01*
X152905000Y-72646500D01*
X152904991Y-72646500D01*
X152904990Y-72646501D01*
X152797549Y-72658052D01*
X152797537Y-72658054D01*
X152746027Y-72669260D01*
X152643502Y-72703383D01*
X152643496Y-72703386D01*
X152522462Y-72781171D01*
X152522451Y-72781179D01*
X152469659Y-72826923D01*
X152375433Y-72935664D01*
X152375430Y-72935668D01*
X152315664Y-73066534D01*
X152295976Y-73133582D01*
X152290949Y-73168549D01*
X152275500Y-73276000D01*
X152275500Y-79505000D01*
X150987700Y-79505000D01*
X150987700Y-69215003D01*
X152145506Y-69215003D01*
X152164621Y-69384662D01*
X152164623Y-69384672D01*
X152221016Y-69545833D01*
X152221018Y-69545836D01*
X152262038Y-69611119D01*
X152311858Y-69690407D01*
X152432593Y-69811142D01*
X152577166Y-69901983D01*
X152738329Y-69958377D01*
X152738335Y-69958377D01*
X152738337Y-69958378D01*
X152907996Y-69977494D01*
X152908000Y-69977494D01*
X152908004Y-69977494D01*
X153077662Y-69958378D01*
X153077661Y-69958378D01*
X153077671Y-69958377D01*
X153238834Y-69901983D01*
X153383407Y-69811142D01*
X153504142Y-69690407D01*
X153594983Y-69545834D01*
X153651377Y-69384671D01*
X153670494Y-69215000D01*
X153670116Y-69211646D01*
X153651378Y-69045337D01*
X153651377Y-69045335D01*
X153651377Y-69045329D01*
X153594983Y-68884166D01*
X153504142Y-68739593D01*
X153383407Y-68618858D01*
X153238834Y-68528017D01*
X153238835Y-68528017D01*
X153238833Y-68528016D01*
X153077672Y-68471623D01*
X153077662Y-68471621D01*
X152908004Y-68452506D01*
X152907996Y-68452506D01*
X152738337Y-68471621D01*
X152738327Y-68471623D01*
X152577166Y-68528016D01*
X152577163Y-68528018D01*
X152432592Y-68618858D01*
X152311858Y-68739592D01*
X152221018Y-68884163D01*
X152221016Y-68884166D01*
X152164623Y-69045327D01*
X152164621Y-69045337D01*
X152145506Y-69214996D01*
X152145506Y-69215003D01*
X150987700Y-69215003D01*
X150987700Y-59220552D01*
X151007385Y-59153513D01*
X151024019Y-59132871D01*
X151116890Y-59040000D01*
X154547576Y-59040000D01*
X154566422Y-59219309D01*
X154566423Y-59219311D01*
X154600476Y-59324118D01*
X154622136Y-59390779D01*
X154712284Y-59546920D01*
X154832926Y-59680906D01*
X154887040Y-59720222D01*
X154978788Y-59786881D01*
X155143491Y-59860212D01*
X155143496Y-59860214D01*
X155319852Y-59897700D01*
X155500148Y-59897700D01*
X155676504Y-59860214D01*
X155841212Y-59786881D01*
X155987074Y-59680906D01*
X156107716Y-59546920D01*
X156197864Y-59390779D01*
X156253578Y-59219308D01*
X156272424Y-59040000D01*
X156253578Y-58860692D01*
X156197864Y-58689221D01*
X156107716Y-58533080D01*
X155987074Y-58399094D01*
X155841212Y-58293119D01*
X155841211Y-58293118D01*
X155676508Y-58219787D01*
X155676503Y-58219785D01*
X155500148Y-58182300D01*
X155319852Y-58182300D01*
X155143496Y-58219785D01*
X155143491Y-58219787D01*
X154978788Y-58293118D01*
X154832924Y-58399095D01*
X154712283Y-58533081D01*
X154622135Y-58689222D01*
X154566423Y-58860688D01*
X154566422Y-58860690D01*
X154547576Y-59040000D01*
X151116890Y-59040000D01*
X152772872Y-57384019D01*
X152834195Y-57350534D01*
X152860553Y-57347700D01*
X152930148Y-57347700D01*
X153106504Y-57310214D01*
X153271212Y-57236881D01*
X153417074Y-57130906D01*
X153537716Y-56996920D01*
X153627864Y-56840779D01*
X153683578Y-56669308D01*
X153702424Y-56490000D01*
X153683578Y-56310692D01*
X153627864Y-56139221D01*
X153537716Y-55983080D01*
X153417074Y-55849094D01*
X153344143Y-55796106D01*
X153271211Y-55743118D01*
X153106508Y-55669787D01*
X153106503Y-55669785D01*
X152930148Y-55632300D01*
X152749852Y-55632300D01*
X152573496Y-55669785D01*
X152573491Y-55669787D01*
X152408788Y-55743118D01*
X152262924Y-55849095D01*
X152142283Y-55983081D01*
X152052135Y-56139222D01*
X151996423Y-56310688D01*
X151996422Y-56310691D01*
X151977992Y-56486036D01*
X151951407Y-56550651D01*
X151942352Y-56560755D01*
X150043986Y-58459124D01*
X149935126Y-58567983D01*
X149935122Y-58567989D01*
X149858148Y-58701310D01*
X149858147Y-58701314D01*
X149818300Y-58850023D01*
X149818300Y-58850025D01*
X149818300Y-71132048D01*
X149798615Y-71199087D01*
X149745811Y-71244842D01*
X149676653Y-71254786D01*
X149613097Y-71225761D01*
X149606619Y-71219729D01*
X148277016Y-69890126D01*
X148277014Y-69890124D01*
X148209388Y-69851080D01*
X148143689Y-69813148D01*
X148143690Y-69813148D01*
X148131494Y-69809880D01*
X147994977Y-69773300D01*
X147994974Y-69773300D01*
X147875890Y-69773300D01*
X147808851Y-69753615D01*
X147783739Y-69732271D01*
X147770075Y-69717095D01*
X147733342Y-69690407D01*
X147624212Y-69611119D01*
X147624211Y-69611118D01*
X147459508Y-69537787D01*
X147459503Y-69537785D01*
X147283148Y-69500300D01*
X147102852Y-69500300D01*
X146926496Y-69537785D01*
X146926491Y-69537787D01*
X146761788Y-69611118D01*
X146615924Y-69717095D01*
X146495283Y-69851081D01*
X146405135Y-70007222D01*
X146349423Y-70178688D01*
X146349422Y-70178690D01*
X146349422Y-70178692D01*
X146330576Y-70358000D01*
X146349422Y-70537308D01*
X146405136Y-70708779D01*
X146495284Y-70864920D01*
X146615926Y-70998906D01*
X146761785Y-71104879D01*
X146761788Y-71104881D01*
X146926491Y-71178212D01*
X146926496Y-71178214D01*
X147102852Y-71215700D01*
X147283148Y-71215700D01*
X147459504Y-71178214D01*
X147624212Y-71104881D01*
X147662352Y-71077170D01*
X147728153Y-71053690D01*
X147796208Y-71069514D01*
X147822917Y-71089807D01*
X148878981Y-72145871D01*
X148912466Y-72207194D01*
X148915300Y-72233552D01*
X148915300Y-80497295D01*
X148895615Y-80564334D01*
X148842811Y-80610089D01*
X148773653Y-80620033D01*
X148710097Y-80591008D01*
X148683913Y-80559296D01*
X148670866Y-80536698D01*
X148641876Y-80486486D01*
X148533014Y-80377624D01*
X147039647Y-78884257D01*
X147006162Y-78822934D01*
X147004008Y-78809548D01*
X146985578Y-78634192D01*
X146929864Y-78462721D01*
X146839716Y-78306580D01*
X146719074Y-78172594D01*
X146573212Y-78066619D01*
X146573211Y-78066618D01*
X146408508Y-77993287D01*
X146408503Y-77993285D01*
X146232148Y-77955800D01*
X146123700Y-77955800D01*
X146056661Y-77936115D01*
X146010906Y-77883311D01*
X145999700Y-77831800D01*
X145999700Y-65524240D01*
X146019385Y-65457201D01*
X146072189Y-65411446D01*
X146141347Y-65401502D01*
X146174129Y-65410958D01*
X146291496Y-65463214D01*
X146467852Y-65500700D01*
X146648148Y-65500700D01*
X146824504Y-65463214D01*
X146989212Y-65389881D01*
X147135074Y-65283906D01*
X147255716Y-65149920D01*
X147345864Y-64993779D01*
X147401578Y-64822308D01*
X147420424Y-64643000D01*
X147401578Y-64463692D01*
X147345864Y-64292221D01*
X147255716Y-64136080D01*
X147135074Y-64002094D01*
X146989212Y-63896119D01*
X146989211Y-63896118D01*
X146824508Y-63822787D01*
X146824503Y-63822785D01*
X146648148Y-63785300D01*
X146467852Y-63785300D01*
X146291496Y-63822785D01*
X146291491Y-63822787D01*
X146174136Y-63875038D01*
X146104886Y-63884323D01*
X146041609Y-63854695D01*
X146004396Y-63795560D01*
X145999700Y-63761759D01*
X145999700Y-55676025D01*
X145999700Y-55676023D01*
X145959853Y-55527314D01*
X145920340Y-55458876D01*
X145882876Y-55393985D01*
X143488014Y-52999124D01*
X143487324Y-52998626D01*
X143484809Y-52997273D01*
X143354686Y-52922147D01*
X143205977Y-52882300D01*
X141272846Y-52882300D01*
X141118892Y-52882300D01*
X140970184Y-52922146D01*
X140970181Y-52922147D01*
X140836858Y-52999120D01*
X140836853Y-52999124D01*
X140623105Y-53212872D01*
X140561782Y-53246357D01*
X140492090Y-53241373D01*
X140436157Y-53199501D01*
X140417493Y-53163509D01*
X140416577Y-53160690D01*
X140360864Y-52989221D01*
X140270716Y-52833080D01*
X140150074Y-52699094D01*
X140035295Y-52615702D01*
X140004211Y-52593118D01*
X139839508Y-52519787D01*
X139839503Y-52519785D01*
X139663148Y-52482300D01*
X139482852Y-52482300D01*
X139306496Y-52519785D01*
X139306491Y-52519787D01*
X139141788Y-52593118D01*
X138995924Y-52699095D01*
X138875283Y-52833081D01*
X138785135Y-52989222D01*
X138729423Y-53160688D01*
X138729422Y-53160690D01*
X138710576Y-53340000D01*
X138729422Y-53519309D01*
X138729423Y-53519311D01*
X138765794Y-53631252D01*
X138785136Y-53690779D01*
X138875284Y-53846920D01*
X138995926Y-53980906D01*
X139141788Y-54086881D01*
X139158516Y-54094329D01*
X139211751Y-54139575D01*
X139232074Y-54206424D01*
X139213031Y-54273648D01*
X139180966Y-54307924D01*
X139122928Y-54350091D01*
X139122926Y-54350093D01*
X139002283Y-54484081D01*
X138912135Y-54640222D01*
X138856423Y-54811688D01*
X138856422Y-54811690D01*
X138852513Y-54848881D01*
X138837576Y-54991000D01*
X138849525Y-55104690D01*
X138856138Y-55167602D01*
X138843569Y-55236332D01*
X138795837Y-55287356D01*
X138728096Y-55304474D01*
X138661855Y-55282252D01*
X138645136Y-55268245D01*
X137366060Y-53989170D01*
X137332575Y-53927847D01*
X137337559Y-53858155D01*
X137379431Y-53802222D01*
X137380705Y-53801281D01*
X137483074Y-53726906D01*
X137603716Y-53592920D01*
X137693864Y-53436779D01*
X137749578Y-53265308D01*
X137768424Y-53086000D01*
X137749578Y-52906692D01*
X137693864Y-52735221D01*
X137603716Y-52579080D01*
X137483074Y-52445094D01*
X137337212Y-52339119D01*
X137337211Y-52339118D01*
X137172508Y-52265787D01*
X137172503Y-52265785D01*
X136996148Y-52228300D01*
X136815852Y-52228300D01*
X136639496Y-52265785D01*
X136639491Y-52265787D01*
X136474788Y-52339118D01*
X136328924Y-52445095D01*
X136208284Y-52579079D01*
X136196730Y-52599092D01*
X136146162Y-52647307D01*
X136077555Y-52660529D01*
X136012690Y-52634561D01*
X136001662Y-52624772D01*
X134860019Y-51483128D01*
X134826534Y-51421805D01*
X134823700Y-51395447D01*
X134823700Y-48432035D01*
X134843385Y-48364996D01*
X134855543Y-48349070D01*
X134936716Y-48258920D01*
X135026864Y-48102779D01*
X135082578Y-47931308D01*
X135101424Y-47752000D01*
X135082578Y-47572692D01*
X135026864Y-47401221D01*
X134936716Y-47245080D01*
X134816074Y-47111094D01*
X134670212Y-47005119D01*
X134670211Y-47005118D01*
X134505508Y-46931787D01*
X134505503Y-46931785D01*
X134329148Y-46894300D01*
X134148852Y-46894300D01*
X133972496Y-46931785D01*
X133972491Y-46931787D01*
X133807788Y-47005118D01*
X133661924Y-47111095D01*
X133541282Y-47245081D01*
X133449986Y-47403211D01*
X133399419Y-47451427D01*
X133330812Y-47464649D01*
X133265947Y-47438681D01*
X133225419Y-47381767D01*
X133224692Y-47379601D01*
X133223464Y-47375821D01*
X133133316Y-47219680D01*
X133012674Y-47085694D01*
X132866812Y-46979719D01*
X132866811Y-46979718D01*
X132702108Y-46906387D01*
X132702103Y-46906385D01*
X132525748Y-46868900D01*
X132345452Y-46868900D01*
X132169096Y-46906385D01*
X132169091Y-46906387D01*
X132004388Y-46979718D01*
X131858524Y-47085695D01*
X131737883Y-47219681D01*
X131647735Y-47375822D01*
X131592023Y-47547288D01*
X131592022Y-47547290D01*
X131589352Y-47572692D01*
X131573176Y-47726600D01*
X131592022Y-47905908D01*
X131647736Y-48077379D01*
X131737884Y-48233520D01*
X131819051Y-48323664D01*
X131849280Y-48386654D01*
X131850900Y-48406635D01*
X131850900Y-51994577D01*
X131890747Y-52143286D01*
X131890748Y-52143289D01*
X131964525Y-52271074D01*
X131964526Y-52271075D01*
X131967724Y-52276614D01*
X131967726Y-52276616D01*
X135391492Y-55700382D01*
X135424977Y-55761705D01*
X135427131Y-55801023D01*
X135422983Y-55840499D01*
X135431514Y-55921663D01*
X135441829Y-56019808D01*
X135441830Y-56019810D01*
X135493363Y-56178415D01*
X135497543Y-56191278D01*
X135587691Y-56347419D01*
X135708333Y-56481405D01*
X135764418Y-56522153D01*
X135854195Y-56587380D01*
X136018898Y-56660711D01*
X136018903Y-56660713D01*
X136195259Y-56698199D01*
X136375555Y-56698199D01*
X136551911Y-56660713D01*
X136716619Y-56587380D01*
X136862481Y-56481405D01*
X136983123Y-56347419D01*
X137073271Y-56191278D01*
X137128985Y-56019807D01*
X137147831Y-55840499D01*
X137135600Y-55724132D01*
X137148169Y-55655405D01*
X137195901Y-55604381D01*
X137263641Y-55587263D01*
X137329883Y-55609485D01*
X137346602Y-55623492D01*
X138316981Y-56593871D01*
X138350466Y-56655194D01*
X138353300Y-56681552D01*
X138353300Y-61428448D01*
X138333615Y-61495487D01*
X138316981Y-61516129D01*
X136692126Y-63140983D01*
X136692122Y-63140989D01*
X136615148Y-63274310D01*
X136615147Y-63274314D01*
X136575300Y-63423023D01*
X136575300Y-63423025D01*
X136575300Y-66121964D01*
X136555615Y-66189003D01*
X136543450Y-66204936D01*
X136462283Y-66295081D01*
X136372135Y-66451222D01*
X136316423Y-66622688D01*
X136316422Y-66622690D01*
X136297576Y-66802000D01*
X136316422Y-66981309D01*
X136316423Y-66981311D01*
X136367151Y-67137439D01*
X136372136Y-67152779D01*
X136462284Y-67308920D01*
X136582926Y-67442906D01*
X136660547Y-67499301D01*
X136728788Y-67548881D01*
X136893491Y-67622212D01*
X136893496Y-67622214D01*
X137069852Y-67659700D01*
X137250148Y-67659700D01*
X137426504Y-67622214D01*
X137591212Y-67548881D01*
X137737074Y-67442906D01*
X137857716Y-67308920D01*
X137947864Y-67152779D01*
X138003578Y-66981308D01*
X138022424Y-66802000D01*
X138003578Y-66622692D01*
X137947864Y-66451221D01*
X137857716Y-66295080D01*
X137776550Y-66204936D01*
X137746320Y-66141945D01*
X137744700Y-66121964D01*
X137744700Y-63793552D01*
X137764385Y-63726513D01*
X137781019Y-63705871D01*
X138574485Y-62912405D01*
X139405876Y-62081014D01*
X139482854Y-61947685D01*
X139522700Y-61798977D01*
X139522700Y-61645023D01*
X139522700Y-56311023D01*
X139514344Y-56279838D01*
X139482854Y-56162315D01*
X139449811Y-56105082D01*
X139405878Y-56028987D01*
X139405445Y-56028423D01*
X139405227Y-56027860D01*
X139401814Y-56021948D01*
X139402735Y-56021415D01*
X139380247Y-55963256D01*
X139394281Y-55894810D01*
X139443092Y-55844817D01*
X139511182Y-55829150D01*
X139529595Y-55831640D01*
X139609852Y-55848700D01*
X139790148Y-55848700D01*
X139966504Y-55811214D01*
X140131212Y-55737881D01*
X140131218Y-55737876D01*
X140136843Y-55734630D01*
X140138170Y-55736928D01*
X140192837Y-55717381D01*
X140260902Y-55733160D01*
X140263458Y-55734802D01*
X140268791Y-55737881D01*
X140433494Y-55811212D01*
X140433499Y-55811214D01*
X140609855Y-55848700D01*
X140790151Y-55848700D01*
X140966507Y-55811214D01*
X140970335Y-55809509D01*
X140972862Y-55808385D01*
X141042112Y-55799098D01*
X141105389Y-55828725D01*
X141142603Y-55887859D01*
X141147300Y-55921663D01*
X141147300Y-75354447D01*
X141127615Y-75421486D01*
X141110981Y-75442128D01*
X140917128Y-75635981D01*
X140855805Y-75669466D01*
X140829447Y-75672300D01*
X140759852Y-75672300D01*
X140583496Y-75709785D01*
X140583491Y-75709787D01*
X140418788Y-75783118D01*
X140272924Y-75889095D01*
X140152283Y-76023081D01*
X140062135Y-76179222D01*
X140006423Y-76350688D01*
X140006422Y-76350690D01*
X139987576Y-76530000D01*
X140006422Y-76709309D01*
X140006423Y-76709311D01*
X140062135Y-76880777D01*
X140152281Y-77036916D01*
X140152282Y-77036918D01*
X140152284Y-77036920D01*
X140226451Y-77119290D01*
X140256680Y-77182280D01*
X140258300Y-77202261D01*
X140258300Y-93172964D01*
X140238615Y-93240003D01*
X140226450Y-93255936D01*
X140145283Y-93346081D01*
X140055135Y-93502222D01*
X139999423Y-93673688D01*
X139999422Y-93673690D01*
X139980576Y-93853000D01*
X139999422Y-94032309D01*
X139999423Y-94032311D01*
X140042987Y-94166390D01*
X140055136Y-94203779D01*
X140145284Y-94359920D01*
X140226449Y-94450062D01*
X140265926Y-94493906D01*
X140265928Y-94493908D01*
X140283187Y-94506446D01*
X140299183Y-94518069D01*
X140341850Y-94573397D01*
X140350300Y-94618388D01*
X140350300Y-104807047D01*
X140330615Y-104874086D01*
X140277811Y-104919841D01*
X140208653Y-104929785D01*
X140145097Y-104900760D01*
X140138619Y-104894728D01*
X138733713Y-103489823D01*
X138700228Y-103428500D01*
X138705212Y-103358808D01*
X138708120Y-103351695D01*
X138709865Y-103347776D01*
X138741660Y-103249920D01*
X138765578Y-103176308D01*
X138784424Y-102997000D01*
X138765578Y-102817692D01*
X138709864Y-102646221D01*
X138619716Y-102490080D01*
X138499074Y-102356094D01*
X138408516Y-102290300D01*
X138353211Y-102250118D01*
X138188508Y-102176787D01*
X138188503Y-102176785D01*
X138012148Y-102139300D01*
X137831852Y-102139300D01*
X137655496Y-102176785D01*
X137655491Y-102176787D01*
X137490788Y-102250118D01*
X137344924Y-102356095D01*
X137224283Y-102490081D01*
X137134135Y-102646222D01*
X137078423Y-102817688D01*
X137078422Y-102817690D01*
X137059576Y-102997000D01*
X137078422Y-103176309D01*
X137078423Y-103176311D01*
X137122861Y-103313080D01*
X137134136Y-103347779D01*
X137224284Y-103503920D01*
X137260492Y-103544133D01*
X137335483Y-103627419D01*
X137363107Y-103678294D01*
X137377146Y-103730685D01*
X137377147Y-103730686D01*
X137448747Y-103854700D01*
X137448749Y-103854703D01*
X137454126Y-103864017D01*
X139310352Y-105720243D01*
X139343837Y-105781566D01*
X139345992Y-105794962D01*
X139360165Y-105929810D01*
X139364422Y-105970308D01*
X139420136Y-106141779D01*
X139510284Y-106297920D01*
X139630926Y-106431906D01*
X139739258Y-106510614D01*
X139776788Y-106537881D01*
X139941491Y-106611212D01*
X139941496Y-106611214D01*
X140117852Y-106648700D01*
X140226300Y-106648700D01*
X140293339Y-106668385D01*
X140339094Y-106721189D01*
X140350300Y-106772700D01*
X140350300Y-107540232D01*
X140330615Y-107607271D01*
X140277811Y-107653026D01*
X140208653Y-107662970D01*
X140175865Y-107653512D01*
X140021503Y-107584785D01*
X139845148Y-107547300D01*
X139664852Y-107547300D01*
X139488496Y-107584785D01*
X139488491Y-107584787D01*
X139323788Y-107658118D01*
X139177924Y-107764095D01*
X139057283Y-107898081D01*
X138967135Y-108054222D01*
X138911423Y-108225688D01*
X138911422Y-108225690D01*
X138892576Y-108405000D01*
X138911422Y-108584309D01*
X138911423Y-108584311D01*
X138953262Y-108713081D01*
X138967136Y-108755779D01*
X139057284Y-108911920D01*
X139177926Y-109045906D01*
X139323788Y-109151881D01*
X139488491Y-109225212D01*
X139488496Y-109225214D01*
X139664852Y-109262700D01*
X139845147Y-109262700D01*
X139845148Y-109262700D01*
X139963034Y-109237642D01*
X140032699Y-109242958D01*
X140088433Y-109285094D01*
X140112539Y-109350674D01*
X140097362Y-109418876D01*
X140076495Y-109446613D01*
X139051806Y-110471301D01*
X138990483Y-110504786D01*
X138920791Y-110499802D01*
X138864858Y-110457930D01*
X138846195Y-110421941D01*
X138836864Y-110393221D01*
X138746716Y-110237080D01*
X138626074Y-110103094D01*
X138480212Y-109997119D01*
X138480211Y-109997118D01*
X138315508Y-109923787D01*
X138315503Y-109923785D01*
X138139148Y-109886300D01*
X138069553Y-109886300D01*
X138002514Y-109866615D01*
X137981872Y-109849981D01*
X126605019Y-98473128D01*
X126571534Y-98411805D01*
X126568700Y-98385447D01*
X126568700Y-92456000D01*
X127661576Y-92456000D01*
X127667694Y-92514214D01*
X127680422Y-92635308D01*
X127736136Y-92806779D01*
X127826284Y-92962920D01*
X127946926Y-93096906D01*
X128051611Y-93172964D01*
X128092788Y-93202881D01*
X128257491Y-93276212D01*
X128257496Y-93276214D01*
X128433852Y-93313700D01*
X128614148Y-93313700D01*
X128790504Y-93276214D01*
X128955212Y-93202881D01*
X129101074Y-93096906D01*
X129221716Y-92962920D01*
X129311864Y-92806779D01*
X129367578Y-92635308D01*
X129381793Y-92500052D01*
X129408378Y-92435441D01*
X129465675Y-92395456D01*
X129535494Y-92392796D01*
X129578000Y-92412700D01*
X129616782Y-92440877D01*
X129616788Y-92440881D01*
X129781491Y-92514212D01*
X129781496Y-92514214D01*
X129957852Y-92551700D01*
X130138148Y-92551700D01*
X130314504Y-92514214D01*
X130479212Y-92440881D01*
X130625074Y-92334906D01*
X130745716Y-92200920D01*
X130835864Y-92044779D01*
X130891578Y-91873308D01*
X130910424Y-91694000D01*
X130891578Y-91514692D01*
X130835864Y-91343221D01*
X130745716Y-91187080D01*
X130625074Y-91053094D01*
X130479212Y-90947119D01*
X130479211Y-90947118D01*
X130314508Y-90873787D01*
X130314503Y-90873785D01*
X130138148Y-90836300D01*
X129957852Y-90836300D01*
X129781496Y-90873785D01*
X129781491Y-90873787D01*
X129616788Y-90947118D01*
X129470924Y-91053095D01*
X129350283Y-91187081D01*
X129260135Y-91343222D01*
X129204423Y-91514688D01*
X129204422Y-91514692D01*
X129194654Y-91607624D01*
X129190206Y-91649945D01*
X129163621Y-91714559D01*
X129106323Y-91754543D01*
X129036504Y-91757203D01*
X128994001Y-91737301D01*
X128955212Y-91709119D01*
X128955211Y-91709118D01*
X128790508Y-91635787D01*
X128790503Y-91635785D01*
X128614148Y-91598300D01*
X128433852Y-91598300D01*
X128257496Y-91635785D01*
X128257491Y-91635787D01*
X128092788Y-91709118D01*
X127946924Y-91815095D01*
X127826283Y-91949081D01*
X127736135Y-92105222D01*
X127680423Y-92276688D01*
X127680422Y-92276690D01*
X127661576Y-92456000D01*
X126568700Y-92456000D01*
X126568700Y-65532000D01*
X127407576Y-65532000D01*
X127426422Y-65711308D01*
X127482136Y-65882779D01*
X127572284Y-66038920D01*
X127692926Y-66172906D01*
X127817999Y-66263777D01*
X127838788Y-66278881D01*
X128003491Y-66352212D01*
X128003496Y-66352214D01*
X128179852Y-66389700D01*
X128360148Y-66389700D01*
X128536504Y-66352214D01*
X128701212Y-66278881D01*
X128847074Y-66172906D01*
X128967716Y-66038920D01*
X129057864Y-65882779D01*
X129113578Y-65711308D01*
X129132424Y-65532000D01*
X129113578Y-65352692D01*
X129057864Y-65181221D01*
X129040416Y-65151000D01*
X131344576Y-65151000D01*
X131363422Y-65330309D01*
X131363423Y-65330311D01*
X131406605Y-65463214D01*
X131419136Y-65501779D01*
X131509284Y-65657920D01*
X131629926Y-65791906D01*
X131754999Y-65882777D01*
X131775788Y-65897881D01*
X131940491Y-65971212D01*
X131940496Y-65971214D01*
X132116852Y-66008700D01*
X132297148Y-66008700D01*
X132473504Y-65971214D01*
X132638212Y-65897881D01*
X132784074Y-65791906D01*
X132904716Y-65657920D01*
X132994864Y-65501779D01*
X133050578Y-65330308D01*
X133069424Y-65151000D01*
X133050578Y-64971692D01*
X132994864Y-64800221D01*
X132904716Y-64644080D01*
X132784074Y-64510094D01*
X132638212Y-64404119D01*
X132638211Y-64404118D01*
X132473508Y-64330787D01*
X132473503Y-64330785D01*
X132297148Y-64293300D01*
X132116852Y-64293300D01*
X131940496Y-64330785D01*
X131940491Y-64330787D01*
X131775788Y-64404118D01*
X131629924Y-64510095D01*
X131509283Y-64644081D01*
X131419135Y-64800222D01*
X131363423Y-64971688D01*
X131363422Y-64971690D01*
X131344576Y-65151000D01*
X129040416Y-65151000D01*
X128967716Y-65025080D01*
X128847074Y-64891094D01*
X128752398Y-64822308D01*
X128701211Y-64785118D01*
X128536508Y-64711787D01*
X128536503Y-64711785D01*
X128360148Y-64674300D01*
X128179852Y-64674300D01*
X128003496Y-64711785D01*
X128003491Y-64711787D01*
X127838788Y-64785118D01*
X127692924Y-64891095D01*
X127572283Y-65025081D01*
X127482135Y-65181222D01*
X127426423Y-65352688D01*
X127426422Y-65352690D01*
X127420298Y-65410961D01*
X127407576Y-65532000D01*
X126568700Y-65532000D01*
X126568700Y-60071000D01*
X126899576Y-60071000D01*
X126918422Y-60250308D01*
X126974136Y-60421779D01*
X127064284Y-60577920D01*
X127184926Y-60711906D01*
X127295162Y-60791997D01*
X127330788Y-60817881D01*
X127495491Y-60891212D01*
X127495496Y-60891214D01*
X127671852Y-60928700D01*
X127852148Y-60928700D01*
X128028504Y-60891214D01*
X128193212Y-60817881D01*
X128339074Y-60711906D01*
X128459716Y-60577920D01*
X128549864Y-60421779D01*
X128605578Y-60250308D01*
X128624424Y-60071000D01*
X128605578Y-59891692D01*
X128549864Y-59720221D01*
X128459716Y-59564080D01*
X128339074Y-59430094D01*
X128193212Y-59324119D01*
X128193211Y-59324118D01*
X128028508Y-59250787D01*
X128028503Y-59250785D01*
X127852148Y-59213300D01*
X127671852Y-59213300D01*
X127495496Y-59250785D01*
X127495491Y-59250787D01*
X127330788Y-59324118D01*
X127184924Y-59430095D01*
X127064283Y-59564081D01*
X126974135Y-59720222D01*
X126918423Y-59891688D01*
X126918422Y-59891690D01*
X126912501Y-59948026D01*
X126899576Y-60071000D01*
X126568700Y-60071000D01*
X126568700Y-55358201D01*
X130963576Y-55358201D01*
X130982422Y-55537510D01*
X130982423Y-55537512D01*
X131027427Y-55676023D01*
X131038136Y-55708980D01*
X131128284Y-55865121D01*
X131248926Y-55999107D01*
X131394788Y-56105082D01*
X131559491Y-56178413D01*
X131559496Y-56178415D01*
X131735852Y-56215901D01*
X131916148Y-56215901D01*
X132092504Y-56178415D01*
X132257212Y-56105082D01*
X132403074Y-55999107D01*
X132523716Y-55865121D01*
X132613864Y-55708980D01*
X132669578Y-55537509D01*
X132688424Y-55358201D01*
X132669578Y-55178893D01*
X132613864Y-55007422D01*
X132523716Y-54851281D01*
X132403074Y-54717295D01*
X132257212Y-54611320D01*
X132257211Y-54611319D01*
X132092508Y-54537988D01*
X132092503Y-54537986D01*
X131916148Y-54500501D01*
X131735852Y-54500501D01*
X131559496Y-54537986D01*
X131559491Y-54537988D01*
X131394788Y-54611319D01*
X131248924Y-54717296D01*
X131128283Y-54851282D01*
X131038135Y-55007423D01*
X130982423Y-55178889D01*
X130982422Y-55178891D01*
X130963576Y-55358201D01*
X126568700Y-55358201D01*
X126568700Y-54102000D01*
X127407576Y-54102000D01*
X127413694Y-54160214D01*
X127426422Y-54281308D01*
X127482136Y-54452779D01*
X127572284Y-54608920D01*
X127692926Y-54742906D01*
X127787599Y-54811690D01*
X127838788Y-54848881D01*
X128003491Y-54922212D01*
X128003496Y-54922214D01*
X128179852Y-54959700D01*
X128360148Y-54959700D01*
X128536504Y-54922214D01*
X128701212Y-54848881D01*
X128847074Y-54742906D01*
X128967716Y-54608920D01*
X129057864Y-54452779D01*
X129113578Y-54281308D01*
X129132424Y-54102000D01*
X129113578Y-53922692D01*
X129057864Y-53751221D01*
X128967716Y-53595080D01*
X128847074Y-53461094D01*
X128701212Y-53355119D01*
X128701211Y-53355118D01*
X128536508Y-53281787D01*
X128536503Y-53281785D01*
X128360148Y-53244300D01*
X128179852Y-53244300D01*
X128003496Y-53281785D01*
X128003491Y-53281787D01*
X127838788Y-53355118D01*
X127692924Y-53461095D01*
X127572283Y-53595081D01*
X127482135Y-53751222D01*
X127426423Y-53922688D01*
X127426422Y-53922690D01*
X127407576Y-54102000D01*
X126568700Y-54102000D01*
X126568700Y-53898025D01*
X126568700Y-53898023D01*
X126528853Y-53749314D01*
X126460690Y-53631252D01*
X126451876Y-53615985D01*
X126451875Y-53615984D01*
X126451874Y-53615982D01*
X113516016Y-40680126D01*
X113516014Y-40680124D01*
X113476402Y-40657254D01*
X113382689Y-40603148D01*
X113382690Y-40603148D01*
X113370494Y-40599880D01*
X113233977Y-40563300D01*
X87965023Y-40563300D01*
X87875797Y-40587208D01*
X87816312Y-40603147D01*
X87816311Y-40603148D01*
X87749650Y-40641634D01*
X87749650Y-40641635D01*
X87682985Y-40680124D01*
X87682982Y-40680126D01*
X81997129Y-46365981D01*
X81935806Y-46399466D01*
X81909448Y-46402300D01*
X81839852Y-46402300D01*
X81663496Y-46439785D01*
X81663491Y-46439787D01*
X81498788Y-46513118D01*
X81352924Y-46619095D01*
X81232283Y-46753081D01*
X81142135Y-46909222D01*
X81086423Y-47080688D01*
X81086422Y-47080690D01*
X81067576Y-47260000D01*
X64500500Y-47260000D01*
X64500500Y-39010000D01*
X105007576Y-39010000D01*
X105026422Y-39189308D01*
X105082136Y-39360779D01*
X105172284Y-39516920D01*
X105292926Y-39650906D01*
X105438788Y-39756881D01*
X105603491Y-39830212D01*
X105603496Y-39830214D01*
X105779852Y-39867700D01*
X105960148Y-39867700D01*
X106136504Y-39830214D01*
X106301212Y-39756881D01*
X106447074Y-39650906D01*
X106567716Y-39516920D01*
X106657864Y-39360779D01*
X106713578Y-39189308D01*
X106732424Y-39010000D01*
X106713578Y-38830692D01*
X106657864Y-38659221D01*
X106567716Y-38503080D01*
X106447074Y-38369094D01*
X106301212Y-38263119D01*
X106301211Y-38263118D01*
X106136508Y-38189787D01*
X106136503Y-38189785D01*
X105960148Y-38152300D01*
X105779852Y-38152300D01*
X105603496Y-38189785D01*
X105603491Y-38189787D01*
X105438788Y-38263118D01*
X105292924Y-38369095D01*
X105172283Y-38503081D01*
X105082135Y-38659222D01*
X105026423Y-38830688D01*
X105026422Y-38830690D01*
X105026422Y-38830692D01*
X105007576Y-39010000D01*
X64500500Y-39010000D01*
X64500500Y-29213480D01*
X64500695Y-29206527D01*
X64506034Y-29111459D01*
X64517776Y-28902375D01*
X64519330Y-28888581D01*
X64569774Y-28591689D01*
X64572867Y-28578137D01*
X64656233Y-28288769D01*
X64660826Y-28275644D01*
X64705486Y-28167825D01*
X64776068Y-27997423D01*
X64782088Y-27984924D01*
X64927762Y-27721345D01*
X64935157Y-27709577D01*
X65109420Y-27463975D01*
X65118075Y-27453121D01*
X65318752Y-27228564D01*
X65328564Y-27218752D01*
X65553121Y-27018075D01*
X65563975Y-27009420D01*
X65809582Y-26835153D01*
X65821348Y-26827761D01*
X66084924Y-26682088D01*
X66097423Y-26676068D01*
X66375648Y-26560824D01*
X66388765Y-26556234D01*
X66678143Y-26472865D01*
X66691689Y-26469774D01*
X66988581Y-26419330D01*
X67002375Y-26417776D01*
X67306527Y-26400694D01*
X67313478Y-26400500D01*
X186572625Y-26400500D01*
X186572629Y-26400502D01*
G37*
%TD.AperFunction*%
%TD*%
%TA.AperFunction,Conductor*%
%TO.N,+3.3VA*%
G36*
X158566039Y-73171685D02*
G01*
X158611794Y-73224489D01*
X158623000Y-73276000D01*
X158623000Y-79505000D01*
X158603315Y-79572039D01*
X158550511Y-79617794D01*
X158499000Y-79629000D01*
X152905000Y-79629000D01*
X152837961Y-79609315D01*
X152792206Y-79556511D01*
X152781000Y-79505000D01*
X152781000Y-73276000D01*
X152800685Y-73208961D01*
X152853489Y-73163206D01*
X152905000Y-73152000D01*
X158499000Y-73152000D01*
X158566039Y-73171685D01*
G37*
%TD.AperFunction*%
%TD*%
M02*
