%TF.GenerationSoftware,KiCad,Pcbnew,8.0.0*%
%TF.CreationDate,2024-03-17T22:04:36-04:00*%
%TF.ProjectId,S-Band Transceiver,532d4261-6e64-4205-9472-616e73636569,v1.0*%
%TF.SameCoordinates,Original*%
%TF.FileFunction,Soldermask,Top*%
%TF.FilePolarity,Negative*%
%FSLAX46Y46*%
G04 Gerber Fmt 4.6, Leading zero omitted, Abs format (unit mm)*
G04 Created by KiCad (PCBNEW 8.0.0) date 2024-03-17 22:04:36*
%MOMM*%
%LPD*%
G01*
G04 APERTURE LIST*
G04 Aperture macros list*
%AMRoundRect*
0 Rectangle with rounded corners*
0 $1 Rounding radius*
0 $2 $3 $4 $5 $6 $7 $8 $9 X,Y pos of 4 corners*
0 Add a 4 corners polygon primitive as box body*
4,1,4,$2,$3,$4,$5,$6,$7,$8,$9,$2,$3,0*
0 Add four circle primitives for the rounded corners*
1,1,$1+$1,$2,$3*
1,1,$1+$1,$4,$5*
1,1,$1+$1,$6,$7*
1,1,$1+$1,$8,$9*
0 Add four rect primitives between the rounded corners*
20,1,$1+$1,$2,$3,$4,$5,0*
20,1,$1+$1,$4,$5,$6,$7,0*
20,1,$1+$1,$6,$7,$8,$9,0*
20,1,$1+$1,$8,$9,$2,$3,0*%
G04 Aperture macros list end*
%ADD10RoundRect,0.200000X0.200000X0.275000X-0.200000X0.275000X-0.200000X-0.275000X0.200000X-0.275000X0*%
%ADD11RoundRect,0.140000X-0.170000X0.140000X-0.170000X-0.140000X0.170000X-0.140000X0.170000X0.140000X0*%
%ADD12C,5.562600*%
%ADD13RoundRect,0.147500X-0.172500X0.147500X-0.172500X-0.147500X0.172500X-0.147500X0.172500X0.147500X0*%
%ADD14RoundRect,0.147500X0.172500X-0.147500X0.172500X0.147500X-0.172500X0.147500X-0.172500X-0.147500X0*%
%ADD15RoundRect,0.140000X-0.140000X-0.170000X0.140000X-0.170000X0.140000X0.170000X-0.140000X0.170000X0*%
%ADD16RoundRect,0.140000X0.140000X0.170000X-0.140000X0.170000X-0.140000X-0.170000X0.140000X-0.170000X0*%
%ADD17RoundRect,0.218750X0.218750X0.256250X-0.218750X0.256250X-0.218750X-0.256250X0.218750X-0.256250X0*%
%ADD18RoundRect,0.140000X0.170000X-0.140000X0.170000X0.140000X-0.170000X0.140000X-0.170000X-0.140000X0*%
%ADD19RoundRect,0.200000X-0.200000X-0.275000X0.200000X-0.275000X0.200000X0.275000X-0.200000X0.275000X0*%
%ADD20RoundRect,0.200000X-0.275000X0.200000X-0.275000X-0.200000X0.275000X-0.200000X0.275000X0.200000X0*%
%ADD21RoundRect,0.062500X0.062500X-0.375000X0.062500X0.375000X-0.062500X0.375000X-0.062500X-0.375000X0*%
%ADD22RoundRect,0.062500X0.375000X-0.062500X0.375000X0.062500X-0.375000X0.062500X-0.375000X-0.062500X0*%
%ADD23R,2.300000X2.300000*%
%ADD24RoundRect,0.225000X-0.225000X-0.250000X0.225000X-0.250000X0.225000X0.250000X-0.225000X0.250000X0*%
%ADD25C,0.700000*%
%ADD26O,2.400000X0.900000*%
%ADD27O,1.700000X0.900000*%
%ADD28RoundRect,0.147500X0.147500X0.172500X-0.147500X0.172500X-0.147500X-0.172500X0.147500X-0.172500X0*%
%ADD29RoundRect,0.200000X0.275000X-0.200000X0.275000X0.200000X-0.275000X0.200000X-0.275000X-0.200000X0*%
%ADD30R,1.000000X0.900000*%
%ADD31RoundRect,0.062500X0.337500X0.062500X-0.337500X0.062500X-0.337500X-0.062500X0.337500X-0.062500X0*%
%ADD32RoundRect,0.062500X0.062500X0.337500X-0.062500X0.337500X-0.062500X-0.337500X0.062500X-0.337500X0*%
%ADD33R,3.600000X3.600000*%
%ADD34RoundRect,0.225000X-0.375000X0.225000X-0.375000X-0.225000X0.375000X-0.225000X0.375000X0.225000X0*%
%ADD35RoundRect,0.250000X-0.425000X0.450000X-0.425000X-0.450000X0.425000X-0.450000X0.425000X0.450000X0*%
%ADD36RoundRect,0.100000X-0.100000X0.712500X-0.100000X-0.712500X0.100000X-0.712500X0.100000X0.712500X0*%
%ADD37RoundRect,0.250000X0.450000X0.425000X-0.450000X0.425000X-0.450000X-0.425000X0.450000X-0.425000X0*%
%ADD38R,0.300000X0.800000*%
%ADD39R,0.800000X0.300000*%
%ADD40R,3.250000X3.250000*%
%ADD41RoundRect,0.250000X0.600000X-0.600000X0.600000X0.600000X-0.600000X0.600000X-0.600000X-0.600000X0*%
%ADD42C,1.700000*%
%ADD43RoundRect,0.150000X0.512500X0.150000X-0.512500X0.150000X-0.512500X-0.150000X0.512500X-0.150000X0*%
%ADD44RoundRect,0.075000X-0.350000X-0.075000X0.350000X-0.075000X0.350000X0.075000X-0.350000X0.075000X0*%
%ADD45RoundRect,0.075000X-0.075000X-0.350000X0.075000X-0.350000X0.075000X0.350000X-0.075000X0.350000X0*%
%ADD46R,2.100000X2.100000*%
%ADD47R,0.550000X0.250000*%
%ADD48R,4.200000X1.350000*%
%ADD49R,3.600000X1.270000*%
%ADD50RoundRect,0.243750X0.456250X-0.243750X0.456250X0.243750X-0.456250X0.243750X-0.456250X-0.243750X0*%
%ADD51R,2.750000X1.000000*%
%ADD52R,1.400000X0.300000*%
%ADD53R,0.300000X0.250000*%
%ADD54RoundRect,0.125000X-0.175000X0.000000X0.175000X0.000000X0.175000X0.000000X-0.175000X0.000000X0*%
%ADD55R,1.000000X0.726000*%
%ADD56R,1.792000X0.736000*%
%ADD57RoundRect,0.062500X0.062500X-0.350000X0.062500X0.350000X-0.062500X0.350000X-0.062500X-0.350000X0*%
%ADD58RoundRect,0.062500X0.350000X-0.062500X0.350000X0.062500X-0.350000X0.062500X-0.350000X-0.062500X0*%
%ADD59R,2.500000X2.500000*%
%ADD60RoundRect,0.147500X-0.147500X-0.172500X0.147500X-0.172500X0.147500X0.172500X-0.147500X0.172500X0*%
%ADD61R,1.000000X2.100000*%
%ADD62RoundRect,0.075000X0.350000X0.075000X-0.350000X0.075000X-0.350000X-0.075000X0.350000X-0.075000X0*%
%ADD63RoundRect,0.075000X0.075000X0.350000X-0.075000X0.350000X-0.075000X-0.350000X0.075000X-0.350000X0*%
%ADD64R,1.400000X0.760000*%
%ADD65RoundRect,0.250000X0.425000X-0.450000X0.425000X0.450000X-0.425000X0.450000X-0.425000X-0.450000X0*%
%ADD66RoundRect,0.150000X-0.512500X-0.150000X0.512500X-0.150000X0.512500X0.150000X-0.512500X0.150000X0*%
%ADD67R,0.510000X0.250000*%
%ADD68R,0.250000X0.510000*%
%ADD69R,1.250000X1.250000*%
%ADD70RoundRect,0.062500X0.350000X0.062500X-0.350000X0.062500X-0.350000X-0.062500X0.350000X-0.062500X0*%
%ADD71RoundRect,0.062500X0.062500X0.350000X-0.062500X0.350000X-0.062500X-0.350000X0.062500X-0.350000X0*%
%ADD72RoundRect,0.075000X-0.662500X-0.075000X0.662500X-0.075000X0.662500X0.075000X-0.662500X0.075000X0*%
%ADD73RoundRect,0.075000X-0.075000X-0.662500X0.075000X-0.662500X0.075000X0.662500X-0.075000X0.662500X0*%
%ADD74RoundRect,0.150000X0.150000X-0.200000X0.150000X0.200000X-0.150000X0.200000X-0.150000X-0.200000X0*%
%ADD75RoundRect,0.175000X0.325000X-0.175000X0.325000X0.175000X-0.325000X0.175000X-0.325000X-0.175000X0*%
%ADD76RoundRect,0.250000X0.350000X-0.850000X0.350000X0.850000X-0.350000X0.850000X-0.350000X-0.850000X0*%
%ADD77RoundRect,0.249997X2.650003X-2.950003X2.650003X2.950003X-2.650003X2.950003X-2.650003X-2.950003X0*%
G04 APERTURE END LIST*
D10*
%TO.C,R66*%
X144208000Y-64643000D03*
X142558000Y-64643000D03*
%TD*%
D11*
%TO.C,C97*%
X146939000Y-97691000D03*
X146939000Y-98651000D03*
%TD*%
%TO.C,C96*%
X145923000Y-97691000D03*
X145923000Y-98651000D03*
%TD*%
D12*
%TO.C,H4*%
X186690000Y-123190000D03*
%TD*%
%TO.C,H3*%
X67310000Y-123190000D03*
%TD*%
%TO.C,H2*%
X186690000Y-29210000D03*
%TD*%
%TO.C,H1*%
X67310000Y-29210000D03*
%TD*%
D13*
%TO.C,L17*%
X82753200Y-57173000D03*
X82753200Y-58143000D03*
%TD*%
D14*
%TO.C,L9*%
X83970000Y-114277000D03*
X83970000Y-113307000D03*
%TD*%
D15*
%TO.C,C95*%
X103681400Y-58216800D03*
X104641400Y-58216800D03*
%TD*%
%TO.C,C94*%
X103681400Y-59283600D03*
X104641400Y-59283600D03*
%TD*%
D16*
%TO.C,C93*%
X109555200Y-60198000D03*
X110515200Y-60198000D03*
%TD*%
%TO.C,C92*%
X109555200Y-61214000D03*
X110515200Y-61214000D03*
%TD*%
D17*
%TO.C,L16*%
X177978000Y-93091000D03*
X176403000Y-93091000D03*
%TD*%
D18*
%TO.C,C9*%
X136525000Y-54963000D03*
X136525000Y-54003000D03*
%TD*%
D19*
%TO.C,R33*%
X76035400Y-110490000D03*
X77685400Y-110490000D03*
%TD*%
D11*
%TO.C,C43*%
X177800000Y-102644000D03*
X177800000Y-103604000D03*
%TD*%
D16*
%TO.C,C70*%
X71600000Y-114300000D03*
X70640000Y-114300000D03*
%TD*%
D11*
%TO.C,C37*%
X143383000Y-110137000D03*
X143383000Y-111097000D03*
%TD*%
D20*
%TO.C,R24*%
X177292000Y-116523000D03*
X177292000Y-118173000D03*
%TD*%
D16*
%TO.C,C60*%
X86713000Y-114300000D03*
X85753000Y-114300000D03*
%TD*%
D14*
%TO.C,L10*%
X78613000Y-116055000D03*
X78613000Y-115085000D03*
%TD*%
D19*
%TO.C,R13*%
X130910000Y-80810000D03*
X132560000Y-80810000D03*
%TD*%
D21*
%TO.C,U15*%
X106569000Y-58833500D03*
X107069000Y-58833500D03*
X107569000Y-58833500D03*
X108069000Y-58833500D03*
X108569000Y-58833500D03*
X109069000Y-58833500D03*
D22*
X109756500Y-58146000D03*
X109756500Y-57646000D03*
X109756500Y-57146000D03*
X109756500Y-56646000D03*
X109756500Y-56146000D03*
X109756500Y-55646000D03*
D21*
X109069000Y-54958500D03*
X108569000Y-54958500D03*
X108069000Y-54958500D03*
X107569000Y-54958500D03*
X107069000Y-54958500D03*
X106569000Y-54958500D03*
D22*
X105881500Y-55646000D03*
X105881500Y-56146000D03*
X105881500Y-56646000D03*
X105881500Y-57146000D03*
X105881500Y-57646000D03*
X105881500Y-58146000D03*
D23*
X107819000Y-56896000D03*
%TD*%
D10*
%TO.C,R45*%
X112713000Y-60452000D03*
X114363000Y-60452000D03*
%TD*%
%TO.C,R19*%
X174689000Y-101092000D03*
X176339000Y-101092000D03*
%TD*%
D18*
%TO.C,C11*%
X131863600Y-57198200D03*
X131863600Y-56238200D03*
%TD*%
D10*
%TO.C,R29*%
X110045000Y-110363000D03*
X108395000Y-110363000D03*
%TD*%
D24*
%TO.C,C22*%
X132599600Y-50977800D03*
X134149600Y-50977800D03*
%TD*%
D15*
%TO.C,C53*%
X102216300Y-109511600D03*
X103176300Y-109511600D03*
%TD*%
D16*
%TO.C,C30*%
X126450800Y-56515000D03*
X125490800Y-56515000D03*
%TD*%
D19*
%TO.C,R59*%
X78423000Y-59309000D03*
X80073000Y-59309000D03*
%TD*%
D16*
%TO.C,C74*%
X104576800Y-70863600D03*
X105536800Y-70863600D03*
%TD*%
D25*
%TO.C,J4*%
X184443000Y-104575000D03*
X184443000Y-103725000D03*
X184443000Y-102875000D03*
X184443000Y-102025000D03*
X184443000Y-101175000D03*
X184443000Y-100325000D03*
X184443000Y-99475000D03*
X184443000Y-98625000D03*
X185793000Y-98625000D03*
X185793000Y-99475000D03*
X185793000Y-100325000D03*
X185793000Y-101175000D03*
X185793000Y-102025000D03*
X185793000Y-102875000D03*
X185793000Y-103725000D03*
X185793000Y-104575000D03*
D26*
X185423000Y-105925000D03*
D27*
X188803000Y-105925000D03*
D26*
X185423000Y-97275000D03*
D27*
X188803000Y-97275000D03*
%TD*%
D16*
%TO.C,C79*%
X102080000Y-56388000D03*
X101120000Y-56388000D03*
%TD*%
D28*
%TO.C,L8*%
X124169800Y-63322200D03*
X123199800Y-63322200D03*
%TD*%
D14*
%TO.C,L12*%
X108306400Y-53367800D03*
X108306400Y-52397800D03*
%TD*%
D15*
%TO.C,C86*%
X72291000Y-67056000D03*
X73251000Y-67056000D03*
%TD*%
D16*
%TO.C,C66*%
X80617000Y-104775000D03*
X79657000Y-104775000D03*
%TD*%
D29*
%TO.C,R39*%
X106987200Y-63993400D03*
X106987200Y-65643400D03*
%TD*%
D28*
%TO.C,L3*%
X130598600Y-61290200D03*
X129628600Y-61290200D03*
%TD*%
D29*
%TO.C,R50*%
X105281400Y-45960800D03*
X105281400Y-44310800D03*
%TD*%
D16*
%TO.C,C33*%
X126349200Y-63271400D03*
X125389200Y-63271400D03*
%TD*%
D18*
%TO.C,C63*%
X75996800Y-109293600D03*
X75996800Y-108333600D03*
%TD*%
D30*
%TO.C,X1*%
X152840000Y-57531000D03*
X150690000Y-57531000D03*
X150690000Y-59081000D03*
X152840000Y-59081000D03*
%TD*%
D16*
%TO.C,C19*%
X142339000Y-56642000D03*
X141379000Y-56642000D03*
%TD*%
D10*
%TO.C,R20*%
X180657000Y-106172000D03*
X179007000Y-106172000D03*
%TD*%
D31*
%TO.C,U8*%
X94181000Y-117316000D03*
X94181000Y-116816000D03*
X94181000Y-116316000D03*
X94181000Y-115816000D03*
X94181000Y-115316000D03*
X94181000Y-114816000D03*
X94181000Y-114316000D03*
X94181000Y-113816000D03*
D32*
X93481000Y-113116000D03*
X92981000Y-113116000D03*
X92481000Y-113116000D03*
X91981000Y-113116000D03*
X91481000Y-113116000D03*
X90981000Y-113116000D03*
X90481000Y-113116000D03*
X89981000Y-113116000D03*
D31*
X89281000Y-113816000D03*
X89281000Y-114316000D03*
X89281000Y-114816000D03*
X89281000Y-115316000D03*
X89281000Y-115816000D03*
X89281000Y-116316000D03*
X89281000Y-116816000D03*
X89281000Y-117316000D03*
D32*
X89981000Y-118016000D03*
X90481000Y-118016000D03*
X90981000Y-118016000D03*
X91481000Y-118016000D03*
X91981000Y-118016000D03*
X92481000Y-118016000D03*
X92981000Y-118016000D03*
X93481000Y-118016000D03*
D33*
X91731000Y-115566000D03*
%TD*%
D16*
%TO.C,C62*%
X77569000Y-117602000D03*
X76609000Y-117602000D03*
%TD*%
D15*
%TO.C,C87*%
X72291000Y-66040000D03*
X73251000Y-66040000D03*
%TD*%
D20*
%TO.C,R49*%
X110238400Y-68742200D03*
X110238400Y-67092200D03*
%TD*%
D18*
%TO.C,C1*%
X154432000Y-59040000D03*
X154432000Y-58080000D03*
%TD*%
D20*
%TO.C,R23*%
X180848000Y-116523000D03*
X180848000Y-118173000D03*
%TD*%
D34*
%TO.C,D8*%
X180953500Y-94257500D03*
X180953500Y-97557500D03*
%TD*%
D14*
%TO.C,L14*%
X107209400Y-53367800D03*
X107209400Y-52397800D03*
%TD*%
D35*
%TO.C,C49*%
X157988000Y-85483000D03*
X157988000Y-88183000D03*
%TD*%
D36*
%TO.C,U14*%
X108902400Y-75084700D03*
X108252400Y-75084700D03*
X107602400Y-75084700D03*
X106952400Y-75084700D03*
X106952400Y-70859700D03*
X107602400Y-70859700D03*
X108252400Y-70859700D03*
X108902400Y-70859700D03*
%TD*%
D37*
%TO.C,C50*%
X150321000Y-75057000D03*
X147621000Y-75057000D03*
%TD*%
D38*
%TO.C,U1*%
X138338000Y-57366200D03*
X137838000Y-57366200D03*
X137338000Y-57366200D03*
X136838000Y-57366200D03*
X136338000Y-57366200D03*
X135838000Y-57366200D03*
X135338000Y-57366200D03*
X134838000Y-57366200D03*
D39*
X134188000Y-58016200D03*
X134188000Y-58516200D03*
X134188000Y-59016200D03*
X134188000Y-59516200D03*
X134188000Y-60016200D03*
X134188000Y-60516200D03*
X134188000Y-61016200D03*
X134188000Y-61516200D03*
D38*
X134838000Y-62166200D03*
X135338000Y-62166200D03*
X135838000Y-62166200D03*
X136338000Y-62166200D03*
X136838000Y-62166200D03*
X137338000Y-62166200D03*
X137838000Y-62166200D03*
X138338000Y-62166200D03*
D39*
X138988000Y-61516200D03*
X138988000Y-61016200D03*
X138988000Y-60516200D03*
X138988000Y-60016200D03*
X138988000Y-59516200D03*
X138988000Y-59016200D03*
X138988000Y-58516200D03*
X138988000Y-58016200D03*
D40*
X136588000Y-59766200D03*
%TD*%
D10*
%TO.C,R58*%
X109406000Y-32639000D03*
X107756000Y-32639000D03*
%TD*%
D15*
%TO.C,C89*%
X79657000Y-67056000D03*
X80617000Y-67056000D03*
%TD*%
D11*
%TO.C,C39*%
X134180000Y-82730000D03*
X134180000Y-83690000D03*
%TD*%
D18*
%TO.C,C10*%
X135382000Y-55598000D03*
X135382000Y-54638000D03*
%TD*%
D41*
%TO.C,J3*%
X139954000Y-121158000D03*
D42*
X139954000Y-118618000D03*
X142494000Y-121158000D03*
X142494000Y-118618000D03*
X145034000Y-121158000D03*
X145034000Y-118618000D03*
%TD*%
D16*
%TO.C,C31*%
X126450800Y-57531000D03*
X125490800Y-57531000D03*
%TD*%
D19*
%TO.C,R35*%
X71120000Y-106553000D03*
X72770000Y-106553000D03*
%TD*%
%TO.C,R63*%
X71057000Y-64643000D03*
X72707000Y-64643000D03*
%TD*%
D10*
%TO.C,R32*%
X82994000Y-117729000D03*
X81344000Y-117729000D03*
%TD*%
D15*
%TO.C,C8*%
X142435200Y-59207400D03*
X143395200Y-59207400D03*
%TD*%
D11*
%TO.C,C46*%
X166271000Y-103533000D03*
X166271000Y-104493000D03*
%TD*%
D19*
%TO.C,R55*%
X107756000Y-35991800D03*
X109406000Y-35991800D03*
%TD*%
D15*
%TO.C,C73*%
X111277200Y-75080000D03*
X110317200Y-75080000D03*
%TD*%
D13*
%TO.C,L11*%
X107264200Y-61341000D03*
X107264200Y-60371000D03*
%TD*%
D18*
%TO.C,C2*%
X135114800Y-66189800D03*
X135114800Y-65229800D03*
%TD*%
D29*
%TO.C,R43*%
X106987200Y-67092200D03*
X106987200Y-68742200D03*
%TD*%
D13*
%TO.C,L13*%
X108331000Y-61341000D03*
X108331000Y-60371000D03*
%TD*%
D19*
%TO.C,R4*%
X138621000Y-66929000D03*
X140271000Y-66929000D03*
%TD*%
D20*
%TO.C,R48*%
X108647400Y-44310800D03*
X108647400Y-45960800D03*
%TD*%
D43*
%TO.C,U9*%
X83814500Y-121473000D03*
X83814500Y-120523000D03*
X83814500Y-119573000D03*
X81539500Y-119573000D03*
X81539500Y-121473000D03*
%TD*%
D44*
%TO.C,U20*%
X74459000Y-64770000D03*
X74459000Y-65420000D03*
X74459000Y-66070000D03*
X74459000Y-66720000D03*
D45*
X75434000Y-67695000D03*
X76084000Y-67695000D03*
X76734000Y-67695000D03*
X77384000Y-67695000D03*
D44*
X78359000Y-66720000D03*
X78359000Y-66070000D03*
X78359000Y-65420000D03*
X78359000Y-64770000D03*
D45*
X77384000Y-63795000D03*
X76734000Y-63795000D03*
X76084000Y-63795000D03*
X75434000Y-63795000D03*
D46*
X76409000Y-65745000D03*
%TD*%
D10*
%TO.C,R2*%
X148145000Y-61849000D03*
X146495000Y-61849000D03*
%TD*%
D47*
%TO.C,U19*%
X76543000Y-57166000D03*
X76543000Y-57666000D03*
X76543000Y-58166000D03*
X77343000Y-58166000D03*
X77343000Y-57666000D03*
X77343000Y-57166000D03*
%TD*%
D29*
%TO.C,R17*%
X140843000Y-97091000D03*
X140843000Y-95441000D03*
%TD*%
D11*
%TO.C,C47*%
X179324000Y-92230000D03*
X179324000Y-93190000D03*
%TD*%
D19*
%TO.C,R5*%
X129413000Y-47726600D03*
X131063000Y-47726600D03*
%TD*%
D16*
%TO.C,C85*%
X71600000Y-57150000D03*
X70640000Y-57150000D03*
%TD*%
%TO.C,C36*%
X153388000Y-105664000D03*
X152428000Y-105664000D03*
%TD*%
D48*
%TO.C,J5*%
X65659000Y-117125000D03*
X65659000Y-111475000D03*
D49*
X65459000Y-114300000D03*
%TD*%
D50*
%TO.C,D5*%
X173736000Y-122349500D03*
X173736000Y-120474500D03*
%TD*%
D19*
%TO.C,R14*%
X130975000Y-82690000D03*
X132625000Y-82690000D03*
%TD*%
D20*
%TO.C,R12*%
X170180000Y-116523000D03*
X170180000Y-118173000D03*
%TD*%
D28*
%TO.C,L7*%
X124169800Y-62204600D03*
X123199800Y-62204600D03*
%TD*%
D16*
%TO.C,C81*%
X89623000Y-52705000D03*
X88663000Y-52705000D03*
%TD*%
%TO.C,C76*%
X110381800Y-53644800D03*
X109421800Y-53644800D03*
%TD*%
%TO.C,C35*%
X153388000Y-106680000D03*
X152428000Y-106680000D03*
%TD*%
D18*
%TO.C,C12*%
X133032000Y-58315800D03*
X133032000Y-57355800D03*
%TD*%
D11*
%TO.C,C28*%
X129453200Y-64826000D03*
X129453200Y-65786000D03*
%TD*%
D50*
%TO.C,D3*%
X170180000Y-122349500D03*
X170180000Y-120474500D03*
%TD*%
D10*
%TO.C,R30*%
X95979600Y-120280800D03*
X94329600Y-120280800D03*
%TD*%
D15*
%TO.C,C56*%
X104959500Y-110527600D03*
X105919500Y-110527600D03*
%TD*%
%TO.C,C71*%
X110874600Y-42240200D03*
X111834600Y-42240200D03*
%TD*%
D19*
%TO.C,R9*%
X142558000Y-66675000D03*
X144208000Y-66675000D03*
%TD*%
D51*
%TO.C,SW1*%
X160863000Y-123063000D03*
X155113000Y-123063000D03*
X160863000Y-119063000D03*
X155113000Y-119063000D03*
%TD*%
D15*
%TO.C,C90*%
X79657000Y-66040000D03*
X80617000Y-66040000D03*
%TD*%
D11*
%TO.C,C14*%
X133032000Y-61927800D03*
X133032000Y-62887800D03*
%TD*%
D49*
%TO.C,J8*%
X65459000Y-57150000D03*
D48*
X65659000Y-54325000D03*
X65659000Y-59975000D03*
%TD*%
D52*
%TO.C,U3*%
X136720000Y-79330000D03*
X136720000Y-79830000D03*
X136720000Y-80330000D03*
X136720000Y-80830000D03*
X136720000Y-81330000D03*
X141120000Y-81330000D03*
X141120000Y-80830000D03*
X141120000Y-80330000D03*
X141120000Y-79830000D03*
X141120000Y-79330000D03*
%TD*%
D15*
%TO.C,C55*%
X104959500Y-109460800D03*
X105919500Y-109460800D03*
%TD*%
D10*
%TO.C,R54*%
X109406000Y-34340800D03*
X107756000Y-34340800D03*
%TD*%
%TO.C,R1*%
X148145000Y-59055000D03*
X146495000Y-59055000D03*
%TD*%
D13*
%TO.C,L15*%
X88658000Y-55418000D03*
X88658000Y-56388000D03*
%TD*%
D18*
%TO.C,C5*%
X137908800Y-64310200D03*
X137908800Y-63350200D03*
%TD*%
D29*
%TO.C,R15*%
X144272000Y-97091000D03*
X144272000Y-95441000D03*
%TD*%
D18*
%TO.C,C40*%
X134120000Y-80820000D03*
X134120000Y-79860000D03*
%TD*%
D53*
%TO.C,U18*%
X78458000Y-57150000D03*
D54*
X78608000Y-57150000D03*
X80708000Y-57150000D03*
D53*
X80858000Y-57150000D03*
D55*
X79658000Y-57010000D03*
D56*
X79658000Y-55950000D03*
%TD*%
D16*
%TO.C,C78*%
X108260000Y-50850800D03*
X107300000Y-50850800D03*
%TD*%
D14*
%TO.C,L1*%
X130570800Y-57254000D03*
X130570800Y-56284000D03*
%TD*%
D16*
%TO.C,C69*%
X73124000Y-104775000D03*
X72164000Y-104775000D03*
%TD*%
D20*
%TO.C,R47*%
X106996400Y-44310800D03*
X106996400Y-45960800D03*
%TD*%
%TO.C,R46*%
X105361600Y-68742200D03*
X105361600Y-67092200D03*
%TD*%
D57*
%TO.C,U4*%
X169112300Y-104134700D03*
X169612300Y-104134700D03*
X170112300Y-104134700D03*
X170612300Y-104134700D03*
X171112300Y-104134700D03*
D58*
X172049800Y-103197200D03*
X172049800Y-102697200D03*
X172049800Y-102197200D03*
X172049800Y-101697200D03*
X172049800Y-101197200D03*
D57*
X171112300Y-100259700D03*
X170612300Y-100259700D03*
X170112300Y-100259700D03*
X169612300Y-100259700D03*
X169112300Y-100259700D03*
D58*
X168174800Y-101197200D03*
X168174800Y-101697200D03*
X168174800Y-102197200D03*
X168174800Y-102697200D03*
X168174800Y-103197200D03*
D59*
X170112300Y-102197200D03*
%TD*%
D19*
%TO.C,R6*%
X129400800Y-50977800D03*
X131050800Y-50977800D03*
%TD*%
D10*
%TO.C,R28*%
X107077300Y-118757200D03*
X105427300Y-118757200D03*
%TD*%
D19*
%TO.C,R57*%
X83757000Y-53213000D03*
X85407000Y-53213000D03*
%TD*%
D11*
%TO.C,C34*%
X147927000Y-97691000D03*
X147927000Y-98651000D03*
%TD*%
D19*
%TO.C,R36*%
X80010000Y-107950000D03*
X81660000Y-107950000D03*
%TD*%
%TO.C,R61*%
X80201000Y-64643000D03*
X81851000Y-64643000D03*
%TD*%
D15*
%TO.C,C54*%
X102216300Y-110578400D03*
X103176300Y-110578400D03*
%TD*%
D16*
%TO.C,C57*%
X98298000Y-114337200D03*
X97338000Y-114337200D03*
%TD*%
D10*
%TO.C,R18*%
X176339000Y-102616000D03*
X174689000Y-102616000D03*
%TD*%
D18*
%TO.C,C15*%
X133477000Y-65377000D03*
X133477000Y-64417000D03*
%TD*%
D60*
%TO.C,L2*%
X129623400Y-58953400D03*
X130593400Y-58953400D03*
%TD*%
D19*
%TO.C,R53*%
X109260000Y-77213600D03*
X107610000Y-77213600D03*
%TD*%
D29*
%TO.C,R44*%
X108612800Y-67092200D03*
X108612800Y-68742200D03*
%TD*%
D18*
%TO.C,C3*%
X135763000Y-64310200D03*
X135763000Y-63350200D03*
%TD*%
D10*
%TO.C,R7*%
X131063000Y-52654200D03*
X129413000Y-52654200D03*
%TD*%
D29*
%TO.C,R26*%
X103102700Y-107644200D03*
X103102700Y-105994200D03*
%TD*%
D19*
%TO.C,R64*%
X80201000Y-62992000D03*
X81851000Y-62992000D03*
%TD*%
D29*
%TO.C,R16*%
X142621000Y-97091000D03*
X142621000Y-95441000D03*
%TD*%
D35*
%TO.C,C51*%
X169799000Y-85518000D03*
X169799000Y-88218000D03*
%TD*%
D16*
%TO.C,C32*%
X126349200Y-62153800D03*
X125389200Y-62153800D03*
%TD*%
D35*
%TO.C,C48*%
X174244000Y-93138000D03*
X174244000Y-95838000D03*
%TD*%
D28*
%TO.C,L6*%
X124373000Y-57531000D03*
X123403000Y-57531000D03*
%TD*%
D36*
%TO.C,U13*%
X109345400Y-37989800D03*
X108695400Y-37989800D03*
X108045400Y-37989800D03*
X107395400Y-37989800D03*
X107395400Y-42214800D03*
X108045400Y-42214800D03*
X108695400Y-42214800D03*
X109345400Y-42214800D03*
%TD*%
D29*
%TO.C,R52*%
X110425400Y-45960800D03*
X110425400Y-44310800D03*
%TD*%
D16*
%TO.C,C77*%
X107320000Y-62634000D03*
X108280000Y-62634000D03*
%TD*%
D61*
%TO.C,U6*%
X167259000Y-82931000D03*
X169799000Y-82931000D03*
X174879000Y-82931000D03*
X174879000Y-72771000D03*
X167259000Y-72771000D03*
%TD*%
D20*
%TO.C,R11*%
X166624000Y-116523000D03*
X166624000Y-118173000D03*
%TD*%
D16*
%TO.C,C65*%
X80617000Y-103759000D03*
X79657000Y-103759000D03*
%TD*%
D62*
%TO.C,U12*%
X78372800Y-106140800D03*
X78372800Y-105490800D03*
X78372800Y-104840800D03*
X78372800Y-104190800D03*
D63*
X77397800Y-103215800D03*
X76747800Y-103215800D03*
X76097800Y-103215800D03*
X75447800Y-103215800D03*
D62*
X74472800Y-104190800D03*
X74472800Y-104840800D03*
X74472800Y-105490800D03*
X74472800Y-106140800D03*
D63*
X75447800Y-107115800D03*
X76097800Y-107115800D03*
X76747800Y-107115800D03*
X77397800Y-107115800D03*
D46*
X76422800Y-105165800D03*
%TD*%
D11*
%TO.C,C83*%
X76708000Y-61369000D03*
X76708000Y-62329000D03*
%TD*%
D20*
%TO.C,R42*%
X106996400Y-47485800D03*
X106996400Y-49135800D03*
%TD*%
D16*
%TO.C,C41*%
X143736000Y-80391000D03*
X142776000Y-80391000D03*
%TD*%
D10*
%TO.C,R21*%
X180657000Y-108204000D03*
X179007000Y-108204000D03*
%TD*%
D16*
%TO.C,C26*%
X128658000Y-58953400D03*
X127698000Y-58953400D03*
%TD*%
D18*
%TO.C,C24*%
X130593600Y-55267800D03*
X130593600Y-54307800D03*
%TD*%
D11*
%TO.C,C29*%
X130542800Y-64823400D03*
X130542800Y-65783400D03*
%TD*%
D16*
%TO.C,C82*%
X89623000Y-53749000D03*
X88663000Y-53749000D03*
%TD*%
D15*
%TO.C,C64*%
X76990000Y-108356400D03*
X77950000Y-108356400D03*
%TD*%
D50*
%TO.C,D6*%
X180848000Y-122349500D03*
X180848000Y-120474500D03*
%TD*%
D11*
%TO.C,C38*%
X144399000Y-110137000D03*
X144399000Y-111097000D03*
%TD*%
D28*
%TO.C,L5*%
X124373000Y-56515000D03*
X123403000Y-56515000D03*
%TD*%
D10*
%TO.C,R27*%
X110045000Y-112014000D03*
X108395000Y-112014000D03*
%TD*%
D64*
%TO.C,TR1*%
X98362000Y-58166000D03*
X98362000Y-55626000D03*
X94932000Y-55626000D03*
X94932000Y-56896000D03*
X94932000Y-58166000D03*
%TD*%
D10*
%TO.C,R37*%
X81660000Y-106299000D03*
X80010000Y-106299000D03*
%TD*%
D65*
%TO.C,C52*%
X174879000Y-88345000D03*
X174879000Y-85645000D03*
%TD*%
D16*
%TO.C,C4*%
X138331000Y-65278000D03*
X139291000Y-65278000D03*
%TD*%
%TO.C,C80*%
X102080000Y-57404000D03*
X101120000Y-57404000D03*
%TD*%
D18*
%TO.C,C25*%
X129453200Y-55267800D03*
X129453200Y-54307800D03*
%TD*%
D49*
%TO.C,J1*%
X188577500Y-50800000D03*
D48*
X188377500Y-53625000D03*
X188377500Y-47975000D03*
%TD*%
D66*
%TO.C,U17*%
X83058000Y-49154000D03*
X83058000Y-50104000D03*
X83058000Y-51054000D03*
X85333000Y-51054000D03*
X85333000Y-49154000D03*
%TD*%
D11*
%TO.C,C44*%
X171704000Y-97917000D03*
X171704000Y-98877000D03*
%TD*%
D18*
%TO.C,C16*%
X134454400Y-64259400D03*
X134454400Y-63299400D03*
%TD*%
D10*
%TO.C,R56*%
X107610000Y-80642600D03*
X109260000Y-80642600D03*
%TD*%
D20*
%TO.C,R65*%
X104212200Y-53226200D03*
X104212200Y-54876200D03*
%TD*%
D29*
%TO.C,R31*%
X97948600Y-118667400D03*
X97948600Y-117017400D03*
%TD*%
D24*
%TO.C,C23*%
X129450000Y-49301400D03*
X131000000Y-49301400D03*
%TD*%
D18*
%TO.C,C6*%
X139940800Y-64310200D03*
X139940800Y-63350200D03*
%TD*%
%TO.C,C42*%
X177800000Y-101092000D03*
X177800000Y-100132000D03*
%TD*%
D29*
%TO.C,R40*%
X108646400Y-49135800D03*
X108646400Y-47485800D03*
%TD*%
D10*
%TO.C,R62*%
X72707000Y-62992000D03*
X71057000Y-62992000D03*
%TD*%
D14*
%TO.C,L4*%
X130542800Y-63807200D03*
X130542800Y-62837200D03*
%TD*%
D48*
%TO.C,J2*%
X65659000Y-98075000D03*
X65659000Y-92425000D03*
D49*
X65459000Y-95250000D03*
%TD*%
D16*
%TO.C,C20*%
X141323000Y-57785000D03*
X140363000Y-57785000D03*
%TD*%
D67*
%TO.C,U16*%
X84543000Y-56650000D03*
X84543000Y-57150000D03*
X84543000Y-57650000D03*
D68*
X85398000Y-58505000D03*
X85898000Y-58505000D03*
X86398000Y-58505000D03*
D67*
X87253000Y-57650000D03*
X87253000Y-57150000D03*
X87253000Y-56650000D03*
D68*
X86398000Y-55795000D03*
X85898000Y-55795000D03*
X85398000Y-55795000D03*
D69*
X85898000Y-57150000D03*
%TD*%
D16*
%TO.C,C59*%
X95385800Y-116826400D03*
X96345800Y-116826400D03*
%TD*%
D50*
%TO.C,D1*%
X148209000Y-67993500D03*
X148209000Y-66118500D03*
%TD*%
D20*
%TO.C,R41*%
X108612800Y-65643400D03*
X108612800Y-63993400D03*
%TD*%
D10*
%TO.C,R8*%
X134200400Y-49301400D03*
X132550400Y-49301400D03*
%TD*%
D49*
%TO.C,J7*%
X65459000Y-76200000D03*
D48*
X65659000Y-73375000D03*
X65659000Y-79025000D03*
%TD*%
D10*
%TO.C,R38*%
X72770000Y-108077000D03*
X71120000Y-108077000D03*
%TD*%
D70*
%TO.C,U7*%
X105680500Y-114800000D03*
X105680500Y-114300000D03*
X105680500Y-113800000D03*
X105680500Y-113300000D03*
X105680500Y-112800000D03*
D71*
X104743000Y-111862500D03*
X104243000Y-111862500D03*
X103743000Y-111862500D03*
X103243000Y-111862500D03*
X102743000Y-111862500D03*
D70*
X101805500Y-112800000D03*
X101805500Y-113300000D03*
X101805500Y-113800000D03*
X101805500Y-114300000D03*
X101805500Y-114800000D03*
D71*
X102743000Y-115737500D03*
X103243000Y-115737500D03*
X103743000Y-115737500D03*
X104243000Y-115737500D03*
X104743000Y-115737500D03*
D59*
X103743000Y-113800000D03*
%TD*%
D24*
%TO.C,C21*%
X132612600Y-52603400D03*
X134162600Y-52603400D03*
%TD*%
D16*
%TO.C,C72*%
X105891000Y-37973000D03*
X104931000Y-37973000D03*
%TD*%
D20*
%TO.C,R10*%
X149479000Y-95568000D03*
X149479000Y-97218000D03*
%TD*%
D16*
%TO.C,C58*%
X96345800Y-117842400D03*
X95385800Y-117842400D03*
%TD*%
D29*
%TO.C,R25*%
X104779100Y-107644200D03*
X104779100Y-105994200D03*
%TD*%
%TO.C,R3*%
X138264400Y-54546000D03*
X138264400Y-52896000D03*
%TD*%
D18*
%TO.C,C67*%
X77400000Y-102030000D03*
X77400000Y-101070000D03*
%TD*%
D19*
%TO.C,R60*%
X77979000Y-61214000D03*
X79629000Y-61214000D03*
%TD*%
D16*
%TO.C,C75*%
X110381800Y-52628800D03*
X109421800Y-52628800D03*
%TD*%
D72*
%TO.C,U2*%
X142519500Y-101668000D03*
X142519500Y-102168000D03*
X142519500Y-102668000D03*
X142519500Y-103168000D03*
X142519500Y-103668000D03*
X142519500Y-104168000D03*
X142519500Y-104668000D03*
X142519500Y-105168000D03*
X142519500Y-105668000D03*
X142519500Y-106168000D03*
X142519500Y-106668000D03*
X142519500Y-107168000D03*
D73*
X143932000Y-108580500D03*
X144432000Y-108580500D03*
X144932000Y-108580500D03*
X145432000Y-108580500D03*
X145932000Y-108580500D03*
X146432000Y-108580500D03*
X146932000Y-108580500D03*
X147432000Y-108580500D03*
X147932000Y-108580500D03*
X148432000Y-108580500D03*
X148932000Y-108580500D03*
X149432000Y-108580500D03*
D72*
X150844500Y-107168000D03*
X150844500Y-106668000D03*
X150844500Y-106168000D03*
X150844500Y-105668000D03*
X150844500Y-105168000D03*
X150844500Y-104668000D03*
X150844500Y-104168000D03*
X150844500Y-103668000D03*
X150844500Y-103168000D03*
X150844500Y-102668000D03*
X150844500Y-102168000D03*
X150844500Y-101668000D03*
D73*
X149432000Y-100255500D03*
X148932000Y-100255500D03*
X148432000Y-100255500D03*
X147932000Y-100255500D03*
X147432000Y-100255500D03*
X146932000Y-100255500D03*
X146432000Y-100255500D03*
X145932000Y-100255500D03*
X145432000Y-100255500D03*
X144932000Y-100255500D03*
X144432000Y-100255500D03*
X143932000Y-100255500D03*
%TD*%
D19*
%TO.C,R34*%
X71869800Y-111760000D03*
X73519800Y-111760000D03*
%TD*%
D47*
%TO.C,U11*%
X74428900Y-114300000D03*
X74428900Y-113800000D03*
X74428900Y-113300000D03*
X73628900Y-113300000D03*
X73628900Y-113800000D03*
X73628900Y-114300000D03*
%TD*%
D15*
%TO.C,C84*%
X74577000Y-62357000D03*
X75537000Y-62357000D03*
%TD*%
D50*
%TO.C,D7*%
X177292000Y-122349500D03*
X177292000Y-120474500D03*
%TD*%
D37*
%TO.C,C91*%
X150321000Y-77343000D03*
X147621000Y-77343000D03*
%TD*%
D49*
%TO.C,J6*%
X65459000Y-38100000D03*
D48*
X65659000Y-35275000D03*
X65659000Y-40925000D03*
%TD*%
D74*
%TO.C,D4*%
X179629900Y-100828600D03*
X181529900Y-100828600D03*
X181529900Y-102828600D03*
D75*
X179829900Y-102828600D03*
%TD*%
D50*
%TO.C,D2*%
X166624000Y-122349500D03*
X166624000Y-120474500D03*
%TD*%
D16*
%TO.C,C68*%
X73124000Y-103632000D03*
X72164000Y-103632000D03*
%TD*%
D20*
%TO.C,R22*%
X173736000Y-116523000D03*
X173736000Y-118173000D03*
%TD*%
D16*
%TO.C,C61*%
X77569000Y-116586000D03*
X76609000Y-116586000D03*
%TD*%
%TO.C,C17*%
X142300400Y-61239400D03*
X141340400Y-61239400D03*
%TD*%
D10*
%TO.C,R51*%
X107610000Y-78940800D03*
X109260000Y-78940800D03*
%TD*%
D18*
%TO.C,C7*%
X138924800Y-64310200D03*
X138924800Y-63350200D03*
%TD*%
D16*
%TO.C,C18*%
X141233600Y-60223400D03*
X140273600Y-60223400D03*
%TD*%
D11*
%TO.C,C13*%
X132016000Y-63045400D03*
X132016000Y-64005400D03*
%TD*%
D67*
%TO.C,U10*%
X82685800Y-114800000D03*
X82685800Y-114300000D03*
X82685800Y-113800000D03*
D68*
X81830800Y-112945000D03*
X81330800Y-112945000D03*
X80830800Y-112945000D03*
D67*
X79975800Y-113800000D03*
X79975800Y-114300000D03*
X79975800Y-114800000D03*
D68*
X80830800Y-115655000D03*
X81330800Y-115655000D03*
X81830800Y-115655000D03*
D69*
X81330800Y-114300000D03*
%TD*%
D11*
%TO.C,C45*%
X170600500Y-97945000D03*
X170600500Y-98905000D03*
%TD*%
%TO.C,C88*%
X75438000Y-68989000D03*
X75438000Y-69949000D03*
%TD*%
D16*
%TO.C,C27*%
X128663200Y-61290200D03*
X127703200Y-61290200D03*
%TD*%
D76*
%TO.C,U5*%
X153428000Y-82677000D03*
D77*
X155708000Y-76377000D03*
D76*
X157988000Y-82677000D03*
%TD*%
G36*
X101035039Y-112795685D02*
G01*
X101080794Y-112848489D01*
X101092000Y-112900000D01*
X101092000Y-115700000D01*
X101072315Y-115767039D01*
X101019511Y-115812794D01*
X100968000Y-115824000D01*
X99057000Y-115824000D01*
X98989961Y-115804315D01*
X98944206Y-115751511D01*
X98933000Y-115700000D01*
X98933000Y-112900000D01*
X98952685Y-112832961D01*
X99005489Y-112787206D01*
X99057000Y-112776000D01*
X100968000Y-112776000D01*
X101035039Y-112795685D01*
G37*
G36*
X96590039Y-112795685D02*
G01*
X96635794Y-112848489D01*
X96647000Y-112900000D01*
X96647000Y-115700000D01*
X96627315Y-115767039D01*
X96574511Y-115812794D01*
X96523000Y-115824000D01*
X95120000Y-115824000D01*
X95052961Y-115804315D01*
X95007206Y-115751511D01*
X94996000Y-115700000D01*
X94996000Y-112900000D01*
X95015685Y-112832961D01*
X95068489Y-112787206D01*
X95120000Y-112776000D01*
X96523000Y-112776000D01*
X96590039Y-112795685D01*
G37*
G36*
X88589039Y-112668685D02*
G01*
X88634794Y-112721489D01*
X88646000Y-112773000D01*
X88646000Y-115573000D01*
X88626315Y-115640039D01*
X88573511Y-115685794D01*
X88522000Y-115697000D01*
X87373000Y-115697000D01*
X87305961Y-115677315D01*
X87260206Y-115624511D01*
X87249000Y-115573000D01*
X87249000Y-112773000D01*
X87268685Y-112705961D01*
X87321489Y-112660206D01*
X87373000Y-112649000D01*
X88522000Y-112649000D01*
X88589039Y-112668685D01*
G37*
G36*
X85160039Y-112668685D02*
G01*
X85205794Y-112721489D01*
X85217000Y-112773000D01*
X85217000Y-115573000D01*
X85197315Y-115640039D01*
X85144511Y-115685794D01*
X85093000Y-115697000D01*
X84579000Y-115697000D01*
X84511961Y-115677315D01*
X84466206Y-115624511D01*
X84455000Y-115573000D01*
X84455000Y-112773000D01*
X84474685Y-112705961D01*
X84527489Y-112660206D01*
X84579000Y-112649000D01*
X85093000Y-112649000D01*
X85160039Y-112668685D01*
G37*
G36*
X78048039Y-112795685D02*
G01*
X78093794Y-112848489D01*
X78105000Y-112900000D01*
X78105000Y-115573000D01*
X78085315Y-115640039D01*
X78032511Y-115685794D01*
X77981000Y-115697000D01*
X75943000Y-115697000D01*
X75875961Y-115677315D01*
X75830206Y-115624511D01*
X75819000Y-115573000D01*
X75819000Y-112900000D01*
X75838685Y-112832961D01*
X75891489Y-112787206D01*
X75943000Y-112776000D01*
X77981000Y-112776000D01*
X78048039Y-112795685D01*
G37*
G36*
X70047039Y-112541685D02*
G01*
X70092794Y-112594489D01*
X70104000Y-112646000D01*
X70104000Y-115954000D01*
X70084315Y-116021039D01*
X70031511Y-116066794D01*
X69980000Y-116078000D01*
X67688000Y-116078000D01*
X67620961Y-116058315D01*
X67575206Y-116005511D01*
X67564000Y-115954000D01*
X67564000Y-112646000D01*
X67583685Y-112578961D01*
X67636489Y-112533206D01*
X67688000Y-112522000D01*
X69980000Y-112522000D01*
X70047039Y-112541685D01*
G37*
G36*
X72841039Y-112668685D02*
G01*
X72886794Y-112721489D01*
X72898000Y-112773000D01*
X72898000Y-115700000D01*
X72878315Y-115767039D01*
X72825511Y-115812794D01*
X72774000Y-115824000D01*
X72133000Y-115824000D01*
X72065961Y-115804315D01*
X72020206Y-115751511D01*
X72009000Y-115700000D01*
X72009000Y-112773000D01*
X72028685Y-112705961D01*
X72081489Y-112660206D01*
X72133000Y-112649000D01*
X72774000Y-112649000D01*
X72841039Y-112668685D01*
G37*
G36*
X119010980Y-112655383D02*
G01*
X119070480Y-112667218D01*
X119115179Y-112685732D01*
X119155268Y-112712518D01*
X119189481Y-112746731D01*
X119216267Y-112786820D01*
X119234781Y-112831517D01*
X119246617Y-112891017D01*
X119249000Y-112915210D01*
X119249000Y-115553740D01*
X119229315Y-115620779D01*
X119176511Y-115666534D01*
X119142537Y-115676494D01*
X119007722Y-115695754D01*
X118990185Y-115697000D01*
X107693000Y-115697000D01*
X107625961Y-115677315D01*
X107580206Y-115624511D01*
X107569000Y-115573000D01*
X107569000Y-113027000D01*
X107588685Y-112959961D01*
X107641489Y-112914206D01*
X107693000Y-112903000D01*
X118541799Y-112903000D01*
X118871064Y-112675048D01*
X118937388Y-112653073D01*
X118941646Y-112653000D01*
X118986789Y-112653000D01*
X119010980Y-112655383D01*
G37*
G36*
X122371039Y-92098685D02*
G01*
X122416794Y-92151489D01*
X122428000Y-92203000D01*
X122428000Y-112065609D01*
X122408315Y-112132648D01*
X122406757Y-112134463D01*
X122388426Y-112282263D01*
X122360640Y-112346370D01*
X122302605Y-112385277D01*
X122265369Y-112391000D01*
X119646211Y-112391000D01*
X119622019Y-112388617D01*
X119562518Y-112376781D01*
X119517820Y-112358267D01*
X119477731Y-112331481D01*
X119443518Y-112297268D01*
X119416732Y-112257179D01*
X119398218Y-112212481D01*
X119397740Y-112210078D01*
X119403967Y-112140486D01*
X119425210Y-112105187D01*
X119481599Y-112039400D01*
X119633999Y-111632999D01*
X119634000Y-111632998D01*
X119634000Y-93167200D01*
X119508000Y-93167200D01*
X119440961Y-93147515D01*
X119395206Y-93094711D01*
X119384000Y-93043200D01*
X119384000Y-92341210D01*
X119386383Y-92317019D01*
X119398218Y-92257519D01*
X119416732Y-92212820D01*
X119443518Y-92172731D01*
X119477731Y-92138518D01*
X119517820Y-92111732D01*
X119562520Y-92093217D01*
X119622021Y-92081382D01*
X119646211Y-92079000D01*
X122304000Y-92079000D01*
X122371039Y-92098685D01*
G37*
G36*
X122318553Y-111698525D02*
G01*
X122382819Y-111725942D01*
X122422060Y-111783751D01*
X122428000Y-111821668D01*
X122428000Y-112076858D01*
X122413684Y-112134697D01*
X122404590Y-112151941D01*
X122404589Y-112151946D01*
X122366717Y-112457289D01*
X122365320Y-112466003D01*
X122305876Y-112767622D01*
X122301243Y-112784642D01*
X122199600Y-113074784D01*
X122196387Y-113083004D01*
X122175041Y-113132367D01*
X122172860Y-113137131D01*
X122009581Y-113474791D01*
X122004626Y-113484023D01*
X121813419Y-113806703D01*
X121810653Y-113811154D01*
X121633901Y-114082593D01*
X121629831Y-114088465D01*
X121405676Y-114392806D01*
X121396556Y-114403802D01*
X121141317Y-114677732D01*
X121130993Y-114687604D01*
X120843230Y-114932674D01*
X120837659Y-114937149D01*
X120656172Y-115074490D01*
X120649056Y-115079492D01*
X120365817Y-115264113D01*
X120350623Y-115272562D01*
X120044338Y-115415758D01*
X120036334Y-115419163D01*
X119884077Y-115477723D01*
X119881496Y-115478683D01*
X119711495Y-115539769D01*
X119706269Y-115541517D01*
X119533688Y-115595000D01*
X119531057Y-115595783D01*
X119529339Y-115596274D01*
X119525245Y-115597369D01*
X119357433Y-115639183D01*
X119349163Y-115640947D01*
X119181036Y-115670846D01*
X119172496Y-115672059D01*
X119002929Y-115690173D01*
X118994157Y-115690797D01*
X118855236Y-115695728D01*
X118787540Y-115678434D01*
X118739941Y-115627286D01*
X118728465Y-115591831D01*
X118309996Y-113034520D01*
X118318596Y-112965181D01*
X118363318Y-112911500D01*
X118413669Y-112891913D01*
X118532665Y-112873760D01*
X118706900Y-112788699D01*
X118867720Y-112669050D01*
X118867729Y-112669043D01*
X119020019Y-112538714D01*
X119024402Y-112534698D01*
X119172333Y-112390677D01*
X119311343Y-112238032D01*
X119340364Y-112204175D01*
X119340367Y-112204171D01*
X119465216Y-112029718D01*
X119557800Y-111836198D01*
X119557801Y-111836196D01*
X119614795Y-111629520D01*
X119614795Y-111629518D01*
X119625667Y-111508628D01*
X119651277Y-111443621D01*
X119707967Y-111402779D01*
X119763722Y-111396591D01*
X122318553Y-111698525D01*
G37*
G36*
X114808649Y-93832119D02*
G01*
X114848472Y-93889529D01*
X114854800Y-93928636D01*
X114854800Y-96483824D01*
X114835115Y-96550863D01*
X114782311Y-96596618D01*
X114763626Y-96603400D01*
X114620917Y-96642576D01*
X114588091Y-96647000D01*
X68475400Y-96647000D01*
X68408361Y-96627315D01*
X68362606Y-96574511D01*
X68351400Y-96523000D01*
X68351400Y-93977000D01*
X68371085Y-93909961D01*
X68423889Y-93864206D01*
X68475400Y-93853000D01*
X114604800Y-93853000D01*
X114675345Y-93817727D01*
X114744110Y-93805352D01*
X114808649Y-93832119D01*
G37*
G36*
X122480917Y-64031685D02*
G01*
X122526672Y-64084489D01*
X122536616Y-64153647D01*
X122507591Y-64217203D01*
X122453090Y-64253637D01*
X122428000Y-64262000D01*
X122428000Y-92455000D01*
X122408315Y-92522039D01*
X122355511Y-92567794D01*
X122304000Y-92579000D01*
X116471211Y-92579000D01*
X116447019Y-92576617D01*
X116391791Y-92565631D01*
X116329880Y-92533246D01*
X116295306Y-92472530D01*
X116299047Y-92402760D01*
X116316157Y-92370457D01*
X116458999Y-92176601D01*
X116459000Y-92176600D01*
X116459000Y-64284116D01*
X116466645Y-64241249D01*
X116521214Y-64093133D01*
X116562861Y-64037032D01*
X116628227Y-64012352D01*
X116637569Y-64012000D01*
X122413878Y-64012000D01*
X122480917Y-64031685D01*
G37*
G36*
X119633783Y-92078702D02*
G01*
X119657832Y-92082241D01*
X119716703Y-92096917D01*
X119760464Y-92117554D01*
X119799220Y-92146230D01*
X119831751Y-92182041D01*
X119857381Y-92224692D01*
X119873257Y-92267293D01*
X119882162Y-92318441D01*
X119884000Y-92339710D01*
X119884000Y-93154989D01*
X119881617Y-93179182D01*
X119869781Y-93238682D01*
X119851267Y-93283379D01*
X119824481Y-93323468D01*
X119790266Y-93357682D01*
X119783236Y-93362379D01*
X119716558Y-93383255D01*
X119649178Y-93364769D01*
X119611246Y-93328167D01*
X119555884Y-93245313D01*
X119469362Y-93187501D01*
X119469359Y-93187499D01*
X119367303Y-93167200D01*
X119249018Y-93183481D01*
X119139539Y-93231112D01*
X119139537Y-93231113D01*
X119046994Y-93306557D01*
X118978281Y-93404193D01*
X118898228Y-93559295D01*
X118896506Y-93562513D01*
X118684753Y-93944744D01*
X118681030Y-93951022D01*
X118447129Y-94320168D01*
X118445130Y-94323222D01*
X118332860Y-94489383D01*
X118328734Y-94495129D01*
X118042448Y-94870732D01*
X118033249Y-94881471D01*
X117706041Y-95222057D01*
X117700997Y-95227016D01*
X117647062Y-95277099D01*
X117642736Y-95280933D01*
X117340896Y-95536079D01*
X117331733Y-95543119D01*
X117009777Y-95767441D01*
X117000133Y-95773521D01*
X116658751Y-95967430D01*
X116648733Y-95972535D01*
X116288532Y-96135929D01*
X116283286Y-96138164D01*
X116282745Y-96138380D01*
X116279560Y-96139602D01*
X115899784Y-96279247D01*
X115893167Y-96281470D01*
X115506155Y-96399517D01*
X115502803Y-96400488D01*
X115255170Y-96468466D01*
X115249800Y-96469812D01*
X114824005Y-96566487D01*
X114813111Y-96568454D01*
X114495361Y-96611274D01*
X114426293Y-96600719D01*
X114373896Y-96554499D01*
X114354800Y-96488385D01*
X114354800Y-93962749D01*
X114374485Y-93895710D01*
X114427289Y-93849955D01*
X114464460Y-93839581D01*
X114597963Y-93824037D01*
X114833392Y-93738702D01*
X114833404Y-93738697D01*
X114850708Y-93730045D01*
X115056791Y-93615871D01*
X115056810Y-93615859D01*
X115252484Y-93484711D01*
X115252488Y-93484708D01*
X115437133Y-93338147D01*
X115610037Y-93177962D01*
X115677841Y-93110157D01*
X115822360Y-92962465D01*
X115963704Y-92811594D01*
X116099129Y-92655690D01*
X116226048Y-92492750D01*
X116281198Y-92417903D01*
X116378478Y-92251562D01*
X116438642Y-92068491D01*
X116438643Y-92068485D01*
X116441411Y-92042431D01*
X116468066Y-91977846D01*
X116525408Y-91937925D01*
X116570662Y-91931672D01*
X119633783Y-92078702D01*
G37*
G36*
X121570619Y-60769907D02*
G01*
X121762956Y-60782520D01*
X121787462Y-60786622D01*
X121967401Y-60835686D01*
X121990596Y-60844590D01*
X122157132Y-60928536D01*
X122178086Y-60941886D01*
X122324550Y-61057353D01*
X122342423Y-61074614D01*
X122462922Y-61216959D01*
X122476995Y-61237434D01*
X122566698Y-61400944D01*
X122576406Y-61423816D01*
X122631711Y-61601932D01*
X122636664Y-61626279D01*
X122655976Y-61818067D01*
X122656600Y-61830490D01*
X122656600Y-64052363D01*
X122653923Y-64077991D01*
X122647733Y-64107294D01*
X122627001Y-64154174D01*
X122617231Y-64167728D01*
X122579321Y-64202211D01*
X122542303Y-64223898D01*
X122542301Y-64223899D01*
X122482680Y-64258826D01*
X122442280Y-64314877D01*
X122442279Y-64314880D01*
X122428000Y-64382482D01*
X122428000Y-64388000D01*
X122408315Y-64455039D01*
X122355511Y-64500794D01*
X122304000Y-64512000D01*
X116595088Y-64512000D01*
X116528049Y-64492315D01*
X116482294Y-64439511D01*
X116471570Y-64377072D01*
X116480430Y-64276927D01*
X116484268Y-64255409D01*
X116546096Y-64027351D01*
X116550432Y-64014281D01*
X116641175Y-63784323D01*
X116643375Y-63779100D01*
X116746782Y-63548513D01*
X116747970Y-63545943D01*
X116762690Y-63515029D01*
X116765004Y-63510419D01*
X116899007Y-63256749D01*
X116904196Y-63247842D01*
X117058801Y-63006185D01*
X117061669Y-63001901D01*
X117159787Y-62861733D01*
X117163359Y-62856886D01*
X117437424Y-62503242D01*
X117445253Y-62494094D01*
X117752339Y-62168683D01*
X117756581Y-62164401D01*
X117762809Y-62158413D01*
X117765578Y-62155831D01*
X118090596Y-61861897D01*
X118096371Y-61856987D01*
X118438710Y-61583490D01*
X118441691Y-61581182D01*
X118443509Y-61579818D01*
X118448393Y-61576335D01*
X118801823Y-61336976D01*
X118812030Y-61330759D01*
X119184066Y-61128060D01*
X119195195Y-61122697D01*
X119450014Y-61015200D01*
X119462008Y-61010853D01*
X119726319Y-60930169D01*
X119738695Y-60927077D01*
X120013030Y-60873361D01*
X120019326Y-60872296D01*
X120026069Y-60871333D01*
X120029354Y-60870908D01*
X120469957Y-60819952D01*
X120476566Y-60819366D01*
X120919284Y-60792048D01*
X120922598Y-60791888D01*
X121558182Y-60769716D01*
X121570619Y-60769907D01*
G37*
G36*
X122498039Y-55137685D02*
G01*
X122543794Y-55190489D01*
X122555000Y-55242000D01*
X122555000Y-58677000D01*
X122535315Y-58744039D01*
X122482511Y-58789794D01*
X122431000Y-58801000D01*
X111630000Y-58801000D01*
X111562961Y-58781315D01*
X111517206Y-58728511D01*
X111506000Y-58677000D01*
X111506000Y-55242000D01*
X111525685Y-55174961D01*
X111578489Y-55129206D01*
X111630000Y-55118000D01*
X122431000Y-55118000D01*
X122498039Y-55137685D01*
G37*
G36*
X76561603Y-79207019D02*
G01*
X76564169Y-79209305D01*
X76606402Y-79248000D01*
X106225800Y-79248000D01*
X106292839Y-79267685D01*
X106338594Y-79320489D01*
X106349800Y-79372000D01*
X106349800Y-81918000D01*
X106330115Y-81985039D01*
X106277311Y-82030794D01*
X106225800Y-82042000D01*
X76480400Y-82042000D01*
X76413361Y-82022315D01*
X76367606Y-81969511D01*
X76356400Y-81918000D01*
X76356400Y-79300732D01*
X76376085Y-79233693D01*
X76428889Y-79187938D01*
X76498047Y-79177994D01*
X76561603Y-79207019D01*
G37*
G36*
X71773822Y-74822685D02*
G01*
X71790551Y-74835573D01*
X76606399Y-79247999D01*
X76606401Y-79248000D01*
X76732400Y-79248000D01*
X76799439Y-79267685D01*
X76845194Y-79320489D01*
X76856400Y-79372000D01*
X76856400Y-81918000D01*
X76836715Y-81985039D01*
X76783911Y-82030794D01*
X76732400Y-82042000D01*
X75235362Y-82042000D01*
X75168323Y-82022315D01*
X75147681Y-82005681D01*
X70739000Y-77597000D01*
X68450000Y-77597000D01*
X68382961Y-77577315D01*
X68337206Y-77524511D01*
X68326000Y-77473000D01*
X68326000Y-74927000D01*
X68345685Y-74859961D01*
X68398489Y-74814206D01*
X68450000Y-74803000D01*
X71706783Y-74803000D01*
X71773822Y-74822685D01*
G37*
G36*
X78044039Y-31261685D02*
G01*
X78089794Y-31314489D01*
X78101000Y-31366000D01*
X78101000Y-33912000D01*
X78081315Y-33979039D01*
X78028511Y-34024794D01*
X77977000Y-34036000D01*
X77851001Y-34036000D01*
X72044746Y-39463585D01*
X71982329Y-39494985D01*
X71960068Y-39497000D01*
X68424600Y-39497000D01*
X68357561Y-39477315D01*
X68311806Y-39424511D01*
X68300600Y-39373000D01*
X68300600Y-36827000D01*
X68320285Y-36759961D01*
X68373089Y-36714206D01*
X68424600Y-36703000D01*
X70992999Y-36703000D01*
X76544862Y-31277317D01*
X76606566Y-31244539D01*
X76631530Y-31242000D01*
X77977000Y-31242000D01*
X78044039Y-31261685D01*
G37*
G36*
X106140439Y-31261685D02*
G01*
X106186194Y-31314489D01*
X106197400Y-31366000D01*
X106197400Y-33912000D01*
X106177715Y-33979039D01*
X106124911Y-34024794D01*
X106073400Y-34036000D01*
X77850998Y-34036000D01*
X77809677Y-34074627D01*
X77747261Y-34106027D01*
X77677776Y-34098697D01*
X77623285Y-34054965D01*
X77601088Y-33988715D01*
X77601000Y-33984041D01*
X77601000Y-31366000D01*
X77620685Y-31298961D01*
X77673489Y-31253206D01*
X77725000Y-31242000D01*
X106073400Y-31242000D01*
X106140439Y-31261685D01*
G37*
G36*
X67884477Y-55391685D02*
G01*
X67905119Y-55408319D01*
X68275200Y-55778400D01*
X69980000Y-55778400D01*
X70047039Y-55798085D01*
X70092794Y-55850889D01*
X70104000Y-55902400D01*
X70104000Y-58448400D01*
X70084315Y-58515439D01*
X70031511Y-58561194D01*
X69980000Y-58572400D01*
X68275199Y-58572400D01*
X67905119Y-58942481D01*
X67843796Y-58975966D01*
X67817438Y-58978800D01*
X67637200Y-58978800D01*
X67570161Y-58959115D01*
X67524406Y-58906311D01*
X67513200Y-58854800D01*
X67513200Y-55496000D01*
X67532885Y-55428961D01*
X67585689Y-55383206D01*
X67637200Y-55372000D01*
X67817438Y-55372000D01*
X67884477Y-55391685D01*
G37*
G36*
X75700239Y-55791685D02*
G01*
X75745994Y-55844489D01*
X75757200Y-55896000D01*
X75757200Y-58442000D01*
X75737515Y-58509039D01*
X75684711Y-58554794D01*
X75633200Y-58566000D01*
X72198200Y-58566000D01*
X72131161Y-58546315D01*
X72085406Y-58493511D01*
X72074200Y-58442000D01*
X72074200Y-55896000D01*
X72093885Y-55828961D01*
X72146689Y-55783206D01*
X72198200Y-55772000D01*
X75633200Y-55772000D01*
X75700239Y-55791685D01*
G37*
G36*
X82112039Y-55791685D02*
G01*
X82157794Y-55844489D01*
X82169000Y-55896000D01*
X82169000Y-58442000D01*
X82149315Y-58509039D01*
X82096511Y-58554794D01*
X82045000Y-58566000D01*
X81505600Y-58566000D01*
X81438561Y-58546315D01*
X81392806Y-58493511D01*
X81381600Y-58442000D01*
X81381600Y-55896000D01*
X81401285Y-55828961D01*
X81454089Y-55783206D01*
X81505600Y-55772000D01*
X82045000Y-55772000D01*
X82112039Y-55791685D01*
G37*
G36*
X91287323Y-55778198D02*
G01*
X91354285Y-55798146D01*
X91374516Y-55814516D01*
X91897198Y-56337198D01*
X91897202Y-56337200D01*
X93572151Y-56624334D01*
X93634901Y-56655063D01*
X93671076Y-56714838D01*
X93675200Y-56746551D01*
X93675200Y-59515200D01*
X93655515Y-59582239D01*
X93602711Y-59627994D01*
X93551200Y-59639200D01*
X91575296Y-59639200D01*
X91512537Y-59622145D01*
X89774041Y-58601938D01*
X89726185Y-58551031D01*
X89712800Y-58494993D01*
X89712800Y-55896489D01*
X89732485Y-55829450D01*
X89785289Y-55783695D01*
X89837288Y-55772490D01*
X91287323Y-55778198D01*
G37*
G36*
X84093239Y-55791685D02*
G01*
X84138994Y-55844489D01*
X84150200Y-55896000D01*
X84150200Y-58442000D01*
X84130515Y-58509039D01*
X84077711Y-58554794D01*
X84026200Y-58566000D01*
X83486800Y-58566000D01*
X83419761Y-58546315D01*
X83374006Y-58493511D01*
X83362800Y-58442000D01*
X83362800Y-55896000D01*
X83382485Y-55828961D01*
X83435289Y-55783206D01*
X83486800Y-55772000D01*
X84026200Y-55772000D01*
X84093239Y-55791685D01*
G37*
M02*
