M48
; DRILL file {KiCad 8.0.0} date 2024-03-17T22:04:40-0400
; FORMAT={-:-/ absolute / inch / decimal}
; #@! TF.CreationDate,2024-03-17T22:04:40-04:00
; #@! TF.GenerationSoftware,Kicad,Pcbnew,8.0.0
; #@! TF.FileFunction,Plated,1,4,PTH
FMAT,2
INCH
; #@! TA.AperFunction,Plated,PTH,ComponentDrill
T1C0.0118
; #@! TA.AperFunction,Plated,PTH,ViaDrill
T2C0.0157
; #@! TA.AperFunction,Plated,PTH,ComponentDrill
T3C0.0157
; #@! TA.AperFunction,Plated,PTH,ComponentDrill
T4C0.0236
; #@! TA.AperFunction,Plated,PTH,ComponentDrill
T5C0.0394
; #@! TA.AperFunction,Plated,PTH,ComponentDrill
T6C0.1285
%
G90
G05
T1
X2.9787Y-2.5589
X2.9787Y-2.5884
X2.9787Y-2.6179
X2.9792Y-4.1109
X2.9792Y-4.1404
X2.9792Y-4.1699
X3.0082Y-2.5589
X3.0082Y-2.5884
X3.0082Y-2.6179
X3.0088Y-4.1109
X3.0088Y-4.1404
X3.0088Y-4.1699
X3.0378Y-2.5589
X3.0378Y-2.5884
X3.0378Y-2.6179
X3.0383Y-4.1109
X3.0383Y-4.1404
X3.0383Y-4.1699
X4.2114Y-2.2065
X4.2114Y-2.24
X4.2114Y-2.2735
X4.2448Y-2.2065
X4.2448Y-2.24
X4.2448Y-2.2735
X4.2783Y-2.2065
X4.2783Y-2.24
X4.2783Y-2.2735
T2
X2.545Y-1.44
X2.545Y-1.56
X2.545Y-2.19
X2.545Y-2.31
X2.545Y-2.94
X2.545Y-3.06
X2.545Y-3.69
X2.545Y-3.81
X2.55Y-4.44
X2.55Y-4.56
X2.575Y-1.44
X2.575Y-1.56
X2.575Y-2.19
X2.575Y-2.31
X2.575Y-2.94
X2.575Y-3.06
X2.575Y-3.69
X2.575Y-3.81
X2.58Y-4.44
X2.58Y-4.56
X2.605Y-1.44
X2.605Y-1.56
X2.605Y-2.19
X2.605Y-2.31
X2.605Y-2.94
X2.605Y-3.06
X2.605Y-3.69
X2.605Y-3.81
X2.61Y-4.44
X2.61Y-4.56
X2.635Y-1.44
X2.635Y-1.56
X2.635Y-2.19
X2.635Y-2.31
X2.635Y-2.94
X2.635Y-3.06
X2.635Y-3.69
X2.635Y-3.81
X2.64Y-4.44
X2.64Y-4.56
X2.67Y-1.445
X2.67Y-1.555
X2.67Y-2.195
X2.67Y-2.305
X2.67Y-2.945
X2.67Y-3.055
X2.67Y-3.695
X2.67Y-3.805
X2.675Y-4.445
X2.675Y-4.555
X2.705Y-1.46
X2.705Y-1.54
X2.705Y-2.21
X2.705Y-2.29
X2.705Y-2.96
X2.705Y-3.04
X2.705Y-3.71
X2.705Y-3.79
X2.705Y-4.46
X2.705Y-4.54
X2.72Y-2.58
X2.735Y-2.485
X2.735Y-4.46
X2.735Y-4.54
X2.74Y-1.46
X2.74Y-1.54
X2.74Y-2.21
X2.74Y-2.29
X2.74Y-2.96
X2.74Y-3.04
X2.74Y-3.71
X2.74Y-3.79
X2.74Y-4.025
X2.76Y-4.195
X2.77Y-4.315
X2.77Y-4.455
X2.77Y-4.545
X2.775Y-1.46
X2.775Y-1.54
X2.775Y-2.295
X2.775Y-2.96
X2.775Y-3.71
X2.775Y-3.79
X2.78Y-2.2
X2.78Y-3.04
X2.79Y-4.395
X2.8Y-4.545
X2.81Y-1.455
X2.81Y-1.54
X2.81Y-2.675
X2.81Y-2.96
X2.81Y-3.06
X2.81Y-3.71
X2.81Y-3.79
X2.811Y-4.4539
X2.815Y-2.2
X2.815Y-2.295
X2.83Y-4.545
X2.835Y-3.085
X2.84Y-1.425
X2.845Y-1.525
X2.845Y-2.98
X2.845Y-3.71
X2.845Y-3.79
X2.85Y-2.21
X2.85Y-2.29
X2.85Y-4.45
X2.86Y-3.11
X2.86Y-4.545
X2.865Y-1.4
X2.87Y-3.005
X2.875Y-1.5
X2.875Y-2.68
X2.88Y-3.71
X2.88Y-3.79
X2.885Y-2.21
X2.885Y-2.29
X2.885Y-3.135
X2.885Y-4.035
X2.89Y-1.375
X2.895Y-3.03
X2.895Y-4.545
X2.9Y-1.475
X2.905Y-2.415
X2.91Y-3.16
X2.915Y-1.35
X2.915Y-2.805
X2.915Y-3.71
X2.915Y-3.79
X2.92Y-2.21
X2.92Y-2.29
X2.92Y-3.055
X2.925Y-1.45
X2.93Y-4.545
X2.935Y-3.185
X2.94Y-1.325
X2.945Y-3.08
X2.945Y-4.375
X2.95Y-1.425
X2.95Y-3.71
X2.95Y-3.79
X2.952Y-2.322
X2.955Y-2.21
X2.965Y-1.3
X2.965Y-3.21
X2.965Y-4.54
X2.97Y-3.105
X2.975Y-1.4
X2.975Y-2.285
X2.985Y-3.71
X2.985Y-3.79
X2.985Y-4.675
X2.99Y-1.275
X2.995Y-2.21
X2.995Y-3.13
X2.995Y-4.46
X3.0Y-1.375
X3.0Y-3.215
X3.005Y-4.54
X3.02Y-1.255
X3.02Y-3.71
X3.02Y-3.79
X3.025Y-1.35
X3.03Y-2.21
X3.03Y-4.46
X3.0335Y-3.9413
X3.035Y-2.82
X3.035Y-3.135
X3.035Y-3.215
X3.05Y-1.325
X3.055Y-3.71
X3.055Y-3.79
X3.055Y-4.665
X3.06Y-4.39
X3.06Y-4.46
X3.065Y-2.21
X3.07Y-3.135
X3.07Y-3.215
X3.07Y-4.305
X3.08Y-1.25
X3.08Y-1.32
X3.085Y-2.285
X3.09Y-2.765
X3.09Y-3.71
X3.09Y-3.79
X3.09Y-4.46
X3.105Y-3.135
X3.105Y-3.215
X3.115Y-1.25
X3.115Y-1.32
X3.12Y-2.285
X3.1205Y-4.4433
X3.125Y-3.71
X3.125Y-3.79
X3.14Y-2.68
X3.14Y-3.135
X3.14Y-3.215
X3.1472Y-4.4173
X3.148Y-4.5858
X3.15Y-1.25
X3.15Y-1.32
X3.15Y-2.285
X3.15Y-4.785
X3.155Y-4.035
X3.16Y-3.71
X3.16Y-3.79
X3.165Y-2.38
X3.175Y-3.135
X3.175Y-3.215
X3.1783Y-4.4165
X3.185Y-1.25
X3.185Y-1.32
X3.185Y-2.29
X3.195Y-3.71
X3.195Y-3.79
X3.202Y-4.501
X3.205Y-2.02
X3.205Y-2.37
X3.21Y-3.135
X3.21Y-3.215
X3.22Y-1.25
X3.22Y-1.32
X3.22Y-2.21
X3.22Y-2.29
X3.2256Y-1.8606
X3.2287Y-4.4157
X3.23Y-3.71
X3.23Y-3.79
X3.24Y-2.595
X3.245Y-3.135
X3.245Y-3.215
X3.255Y-1.25
X3.255Y-1.32
X3.2594Y-4.4173
X3.26Y-4.25
X3.265Y-2.208
X3.265Y-3.71
X3.265Y-3.79
X3.28Y-2.435
X3.28Y-3.135
X3.28Y-3.215
X3.29Y-1.25
X3.29Y-1.32
X3.296Y-2.21
X3.298Y-2.29
X3.2992Y-4.5449
X3.3Y-3.71
X3.3Y-3.79
X3.3055Y-4.4264
X3.325Y-1.25
X3.325Y-1.32
X3.33Y-2.3
X3.33Y-4.12
X3.3319Y-4.5437
X3.335Y-2.6
X3.335Y-3.71
X3.335Y-3.79
X3.3413Y-4.4575
X3.35Y-2.335
X3.35Y-3.135
X3.35Y-3.215
X3.36Y-1.25
X3.36Y-1.32
X3.365Y-4.695
X3.3657Y-4.5441
X3.3681Y-4.4559
X3.37Y-3.71
X3.37Y-3.79
X3.3818Y-2.25
X3.385Y-3.135
X3.385Y-3.215
X3.39Y-2.335
X3.395Y-1.25
X3.395Y-1.32
X3.3961Y-4.4559
X3.3976Y-4.5437
X3.405Y-3.71
X3.405Y-3.79
X3.42Y-3.135
X3.42Y-3.215
X3.4283Y-4.4555
X3.4283Y-4.5437
X3.43Y-1.25
X3.43Y-1.32
X3.435Y-1.935
X3.44Y-2.325
X3.44Y-3.71
X3.44Y-3.79
X3.45Y-4.6
X3.45Y-4.65
X3.4504Y-4.7031
X3.455Y-3.135
X3.455Y-3.215
X3.46Y-2.3
X3.4638Y-4.4579
X3.465Y-4.5429
X3.465Y-1.25
X3.465Y-1.32
X3.475Y-3.71
X3.475Y-3.79
X3.489Y-4.4311
X3.49Y-2.04
X3.49Y-3.135
X3.49Y-3.215
X3.495Y-2.295
X3.5Y-1.25
X3.5Y-1.32
X3.51Y-3.71
X3.51Y-3.79
X3.5236Y-4.4193
X3.525Y-3.135
X3.525Y-3.215
X3.53Y-2.295
X3.535Y-1.25
X3.535Y-1.32
X3.545Y-3.71
X3.545Y-3.79
X3.546Y-2.21
X3.56Y-3.135
X3.56Y-3.215
X3.5618Y-4.415
X3.565Y-2.02
X3.565Y-2.305
X3.57Y-1.25
X3.57Y-1.32
X3.573Y-4.585
X3.574Y-4.509
X3.58Y-3.71
X3.58Y-3.79
X3.59Y-2.215
X3.595Y-3.135
X3.595Y-3.215
X3.5965Y-4.4146
X3.605Y-1.25
X3.605Y-1.32
X3.605Y-2.33
X3.615Y-3.71
X3.615Y-3.79
X3.625Y-2.235
X3.6299Y-4.4154
X3.63Y-3.135
X3.63Y-3.215
X3.64Y-1.25
X3.64Y-1.32
X3.64Y-2.335
X3.646Y-4.509
X3.646Y-4.587
X3.65Y-3.71
X3.65Y-3.79
X3.665Y-3.135
X3.665Y-3.215
X3.6665Y-4.4154
X3.67Y-2.205
X3.67Y-2.245
X3.675Y-1.25
X3.675Y-1.32
X3.675Y-2.17
X3.675Y-2.335
X3.685Y-3.71
X3.685Y-3.79
X3.7Y-3.135
X3.7Y-3.215
X3.7039Y-4.4142
X3.71Y-1.25
X3.71Y-1.32
X3.72Y-2.34
X3.72Y-3.71
X3.72Y-3.79
X3.725Y-2.145
X3.7343Y-4.4398
X3.735Y-3.135
X3.735Y-3.215
X3.745Y-1.25
X3.745Y-1.32
X3.7472Y-4.539
X3.755Y-3.71
X3.755Y-3.79
X3.7567Y-4.4606
X3.765Y-2.34
X3.77Y-3.135
X3.77Y-3.215
X3.7728Y-4.5394
X3.775Y-2.15
X3.775Y-4.68
X3.78Y-1.25
X3.78Y-1.32
X3.7882Y-4.4618
X3.79Y-3.71
X3.79Y-3.79
X3.8024Y-4.539
X3.805Y-2.175
X3.805Y-2.21
X3.805Y-2.245
X3.805Y-2.275
X3.805Y-2.305
X3.805Y-2.34
X3.805Y-3.135
X3.805Y-3.215
X3.815Y-1.25
X3.815Y-1.32
X3.815Y-4.79
X3.8189Y-4.4579
X3.825Y-3.71
X3.825Y-3.79
X3.84Y-3.135
X3.84Y-3.215
X3.845Y-2.135
X3.845Y-2.34
X3.8461Y-4.5449
X3.8484Y-4.4579
X3.85Y-1.25
X3.85Y-1.32
X3.855Y-4.715
X3.86Y-3.71
X3.86Y-3.79
X3.875Y-3.135
X3.875Y-3.215
X3.8795Y-4.4579
X3.885Y-1.25
X3.885Y-1.32
X3.885Y-2.34
X3.89Y-2.14
X3.89Y-4.545
X3.895Y-3.71
X3.895Y-3.79
X3.905Y-4.33
X3.9075Y-4.4626
X3.91Y-3.135
X3.91Y-3.215
X3.92Y-1.25
X3.92Y-1.32
X3.92Y-2.34
X3.9244Y-4.5413
X3.93Y-2.145
X3.93Y-3.71
X3.93Y-3.79
X3.939Y-4.463
X3.945Y-3.135
X3.945Y-3.215
X3.955Y-1.25
X3.955Y-1.32
X3.9563Y-4.5421
X3.96Y-2.335
X3.965Y-3.71
X3.965Y-3.79
X3.9677Y-4.4622
X3.97Y-4.385
X3.98Y-2.15
X3.98Y-3.135
X3.98Y-3.215
X3.99Y-1.25
X3.99Y-1.32
X4.0Y-3.71
X4.0Y-3.79
X4.0Y-4.27
X4.015Y-1.84
X4.015Y-3.135
X4.015Y-3.215
X4.025Y-1.25
X4.025Y-1.32
X4.035Y-3.71
X4.035Y-3.79
X4.05Y-3.135
X4.05Y-3.215
X4.06Y-1.25
X4.06Y-1.32
X4.06Y-4.135
X4.065Y-2.83
X4.07Y-3.71
X4.07Y-3.79
X4.08Y-2.605
X4.085Y-2.39
X4.085Y-3.135
X4.085Y-3.215
X4.095Y-1.25
X4.095Y-1.32
X4.1028Y-2.0478
X4.105Y-3.71
X4.105Y-3.79
X4.11Y-1.44
X4.125Y-4.135
X4.13Y-1.25
X4.13Y-1.32
X4.14Y-3.71
X4.14Y-3.79
X4.1535Y-2.8413
X4.165Y-1.25
X4.165Y-1.32
X4.1681Y-1.5358
X4.175Y-3.71
X4.175Y-3.79
X4.19Y-4.27
X4.2Y-1.25
X4.2Y-1.32
X4.205Y-3.22
X4.21Y-3.71
X4.21Y-3.79
X4.215Y-4.54
X4.24Y-1.23
X4.245Y-3.71
X4.245Y-3.79
X4.25Y-4.46
X4.25Y-4.54
X4.255Y-4.71
X4.265Y-4.215
X4.27Y-3.225
X4.28Y-3.71
X4.28Y-3.79
X4.285Y-4.46
X4.285Y-4.54
X4.29Y-1.23
X4.305Y-4.3
X4.315Y-3.71
X4.315Y-3.79
X4.32Y-4.46
X4.32Y-4.54
X4.3419Y-3.1075
X4.3447Y-2.0347
X4.345Y-1.35
X4.3463Y-2.4458
X4.35Y-1.24
X4.35Y-3.71
X4.35Y-3.79
X4.355Y-3.225
X4.355Y-4.46
X4.355Y-4.54
X4.365Y-1.705
X4.37Y-2.185
X4.375Y-4.375
X4.385Y-3.71
X4.385Y-3.79
X4.39Y-4.46
X4.39Y-4.54
X4.4Y-3.18
X4.405Y-2.185
X4.405Y-2.301
X4.405Y-2.865
X4.415Y-3.71
X4.415Y-3.79
X4.425Y-4.46
X4.425Y-4.54
X4.46Y-4.46
X4.46Y-4.54
X4.47Y-3.995
X4.4701Y-2.9602
X4.495Y-4.46
X4.495Y-4.54
X4.53Y-2.185
X4.53Y-2.3
X4.53Y-3.7
X4.53Y-3.785
X4.53Y-4.46
X4.53Y-4.54
X4.555Y-2.38
X4.56Y-3.68
X4.565Y-2.185
X4.565Y-2.3
X4.565Y-3.775
X4.565Y-4.46
X4.565Y-4.54
X4.585Y-3.65
X4.6Y-2.185
X4.6Y-2.3
X4.6Y-2.555
X4.6Y-2.59
X4.6Y-2.625
X4.6Y-2.66
X4.6Y-2.695
X4.6Y-2.73
X4.6Y-2.765
X4.6Y-2.895
X4.6Y-2.93
X4.6Y-2.965
X4.6Y-3.0
X4.6Y-3.035
X4.6Y-3.07
X4.6Y-3.105
X4.6Y-3.14
X4.6Y-3.175
X4.6Y-3.21
X4.6Y-3.245
X4.6Y-3.28
X4.6Y-3.315
X4.6Y-3.35
X4.6Y-3.385
X4.6Y-3.42
X4.6Y-3.455
X4.6Y-3.54
X4.6Y-3.575
X4.6Y-3.76
X4.6Y-4.46
X4.6Y-4.54
X4.605Y-2.52
X4.62Y-2.49
X4.625Y-3.74
X4.635Y-2.185
X4.635Y-2.3
X4.635Y-4.46
X4.635Y-4.54
X4.64Y-2.465
X4.645Y-3.715
X4.66Y-3.69
X4.665Y-2.44
X4.67Y-2.185
X4.67Y-2.3
X4.67Y-4.54
X4.675Y-3.66
X4.675Y-4.455
X4.68Y-2.59
X4.68Y-2.625
X4.68Y-2.66
X4.68Y-2.695
X4.68Y-2.73
X4.68Y-2.765
X4.68Y-2.895
X4.68Y-2.93
X4.68Y-2.965
X4.68Y-3.0
X4.68Y-3.035
X4.68Y-3.07
X4.68Y-3.105
X4.68Y-3.14
X4.68Y-3.175
X4.68Y-3.21
X4.68Y-3.245
X4.68Y-3.28
X4.68Y-3.315
X4.68Y-3.35
X4.68Y-3.385
X4.68Y-3.42
X4.68Y-3.455
X4.68Y-3.54
X4.68Y-3.575
X4.685Y-2.555
X4.695Y-2.42
X4.7Y-4.435
X4.705Y-2.185
X4.705Y-2.3
X4.705Y-2.525
X4.715Y-4.53
X4.72Y-4.405
X4.725Y-2.555
X4.725Y-2.59
X4.725Y-2.625
X4.725Y-2.66
X4.725Y-2.695
X4.725Y-2.73
X4.725Y-2.765
X4.725Y-2.895
X4.725Y-2.93
X4.725Y-2.965
X4.725Y-3.0
X4.725Y-3.035
X4.725Y-3.07
X4.725Y-3.105
X4.725Y-3.14
X4.725Y-3.175
X4.725Y-3.21
X4.725Y-3.245
X4.725Y-3.28
X4.725Y-3.315
X4.725Y-3.35
X4.725Y-3.385
X4.725Y-3.42
X4.725Y-3.455
X4.725Y-3.54
X4.725Y-3.575
X4.725Y-3.65
X4.725Y-3.685
X4.725Y-3.72
X4.725Y-3.755
X4.725Y-3.79
X4.725Y-3.825
X4.725Y-3.915
X4.725Y-3.95
X4.725Y-3.985
X4.725Y-4.02
X4.725Y-4.055
X4.725Y-4.09
X4.725Y-4.125
X4.725Y-4.16
X4.725Y-4.195
X4.725Y-4.23
X4.725Y-4.3
X4.725Y-4.33
X4.725Y-4.365
X4.73Y-2.41
X4.73Y-2.505
X4.74Y-2.185
X4.74Y-2.3
X4.75Y-2.485
X4.75Y-4.51
X4.77Y-2.405
X4.775Y-2.185
X4.775Y-2.3
X4.78Y-4.475
X4.8Y-2.405
X4.8Y-4.44
X4.805Y-2.555
X4.805Y-2.59
X4.805Y-2.625
X4.805Y-2.66
X4.805Y-2.695
X4.805Y-2.73
X4.805Y-2.765
X4.805Y-2.895
X4.805Y-2.93
X4.805Y-2.965
X4.805Y-3.0
X4.805Y-3.035
X4.805Y-3.07
X4.805Y-3.105
X4.805Y-3.14
X4.805Y-3.175
X4.805Y-3.21
X4.805Y-3.245
X4.805Y-3.28
X4.805Y-3.315
X4.805Y-3.35
X4.805Y-3.385
X4.805Y-3.42
X4.805Y-3.455
X4.805Y-3.545
X4.805Y-3.575
X4.805Y-3.65
X4.805Y-3.685
X4.805Y-3.72
X4.805Y-3.755
X4.805Y-3.79
X4.805Y-3.825
X4.805Y-3.915
X4.805Y-3.95
X4.805Y-3.985
X4.805Y-4.02
X4.805Y-4.055
X4.805Y-4.09
X4.805Y-4.125
X4.805Y-4.16
X4.805Y-4.195
X4.805Y-4.23
X4.805Y-4.3
X4.805Y-4.33
X4.805Y-4.365
X4.805Y-4.4
X4.81Y-2.185
X4.81Y-2.3
X4.83Y-2.535
X4.835Y-2.405
X4.87Y-2.405
X4.87Y-2.535
X4.9Y-2.405
X4.915Y-2.535
X4.93Y-4.2
X4.93Y-4.34
X5.005Y-2.54
X5.03Y-2.08
X5.03Y-2.365
X5.04Y-2.525
X5.05Y-2.13
X5.05Y-2.58
X5.0552Y-1.9402
X5.06Y-2.645
X5.06Y-3.64
X5.12Y-3.61
X5.18Y-2.13
X5.18Y-2.645
X5.19Y-2.1795
X5.205Y-2.565
X5.214Y-1.879
X5.2311Y-2.5095
X5.24Y-2.22
X5.285Y-1.88
X5.285Y-2.66
X5.33Y-2.305
X5.33Y-2.355
X5.33Y-2.4
X5.365Y-2.015
X5.3656Y-2.1984
X5.38Y-2.305
X5.38Y-2.355
X5.38Y-2.4
X5.39Y-2.09
X5.4Y-2.63
X5.425Y-2.305
X5.425Y-2.355
X5.425Y-2.4
X5.425Y-3.34
X5.43Y-4.055
X5.435Y-4.36
X5.46Y-3.185
X5.46Y-3.26
X5.495Y-2.1
X5.5Y-2.165
X5.5022Y-4.2679
X5.52Y-4.165
X5.535Y-2.68
X5.5394Y-2.165
X5.545Y-3.695
X5.5453Y-3.013
X5.555Y-4.39
X5.58Y-2.165
X5.6Y-4.35
X5.615Y-3.695
X5.625Y-2.371
X5.639Y-2.4417
X5.64Y-2.22
X5.64Y-3.115
X5.64Y-3.205
X5.675Y-4.175
X5.68Y-3.085
X5.68Y-3.695
X5.705Y-3.875
X5.71Y-4.015
X5.73Y-4.355
X5.7473Y-4.0274
X5.7525Y-3.7323
X5.7536Y-3.1029
X5.77Y-2.545
X5.775Y-3.195
X5.775Y-4.07
X5.78Y-3.7605
X5.795Y-2.77
X5.795Y-3.8
X5.805Y-2.895
X5.805Y-4.01
X5.805Y-4.55
X5.8336Y-4.175
X5.87Y-2.225
X5.875Y-2.495
X5.875Y-4.14
X5.8854Y-4.3681
X5.8858Y-4.0874
X5.95Y-3.76
X6.0173Y-2.224
X6.02Y-2.725
X6.04Y-3.325
X6.04Y-4.245
X6.055Y-4.42
X6.075Y-2.9
X6.075Y-2.95
X6.075Y-3.0
X6.075Y-3.05
X6.075Y-3.1
X6.08Y-4.185
X6.1185Y-2.3244
X6.125Y-2.9
X6.125Y-2.95
X6.125Y-3.0
X6.125Y-3.05
X6.125Y-3.1
X6.175Y-2.9
X6.175Y-2.95
X6.175Y-3.0
X6.175Y-3.05
X6.175Y-3.1
X6.21Y-4.56
X6.22Y-4.845
X6.225Y-2.9
X6.225Y-2.95
X6.225Y-3.0
X6.225Y-3.05
X6.225Y-3.1
X6.28Y-3.48
X6.545Y-4.045
X6.59Y-4.11
X6.61Y-3.915
X6.6111Y-3.3669
X6.62Y-3.49
X6.625Y-4.895
X6.635Y-3.865
X6.695Y-4.15
X6.79Y-3.665
X6.84Y-4.525
X6.84Y-4.87
X6.855Y-3.9
X6.865Y-3.83
X6.885Y-2.79
X6.95Y-3.805
X6.95Y-3.875
X6.96Y-3.485
X6.9677Y-3.3713
X6.98Y-4.525
X7.045Y-4.895
X7.12Y-4.525
X7.16Y-4.16
X7.16Y-4.24
X7.4Y-1.81
X7.4Y-2.175
T3
X7.2615Y-3.8829
X7.2615Y-3.9163
X7.2615Y-3.9498
X7.2615Y-3.9833
X7.2615Y-4.0167
X7.2615Y-4.0502
X7.2615Y-4.0837
X7.2615Y-4.1171
X7.3147Y-3.8829
X7.3147Y-3.9163
X7.3147Y-3.9498
X7.3147Y-3.9833
X7.3147Y-4.0167
X7.3147Y-4.0502
X7.3147Y-4.0837
X7.3147Y-4.1171
T5
X5.51Y-4.67
X5.51Y-4.77
X5.61Y-4.67
X5.61Y-4.77
X5.71Y-4.67
X5.71Y-4.77
T6
X2.65Y-1.15
X2.65Y-4.85
X7.35Y-1.15
X7.35Y-4.85
T4
G00X7.2706Y-3.8297
M15
G01X7.3296Y-3.8297
M16
G05
G00X7.2706Y-4.1703
M15
G01X7.3296Y-4.1703
M16
G05
G00X7.4174Y-3.8297
M15
G01X7.4489Y-3.8297
M16
G05
G00X7.4174Y-4.1703
M15
G01X7.4489Y-4.1703
M16
G05
M30
