%TF.GenerationSoftware,KiCad,Pcbnew,9.0.3*%
%TF.CreationDate,2025-07-11T19:43:01-04:00*%
%TF.ProjectId,GaN Drain Driver,47614e20-4472-4616-996e-204472697665,v3.0*%
%TF.SameCoordinates,Original*%
%TF.FileFunction,Legend,Top*%
%TF.FilePolarity,Positive*%
%FSLAX46Y46*%
G04 Gerber Fmt 4.6, Leading zero omitted, Abs format (unit mm)*
G04 Created by KiCad (PCBNEW 9.0.3) date 2025-07-11 19:43:01*
%MOMM*%
%LPD*%
G01*
G04 APERTURE LIST*
%ADD10C,0.150000*%
%ADD11C,0.120000*%
%ADD12C,0.152400*%
%ADD13C,0.100000*%
G04 APERTURE END LIST*
D10*
X74414286Y-50073866D02*
X75176191Y-50073866D01*
X74795238Y-50454819D02*
X74795238Y-49692914D01*
X76128571Y-49454819D02*
X75652381Y-49454819D01*
X75652381Y-49454819D02*
X75604762Y-49931009D01*
X75604762Y-49931009D02*
X75652381Y-49883390D01*
X75652381Y-49883390D02*
X75747619Y-49835771D01*
X75747619Y-49835771D02*
X75985714Y-49835771D01*
X75985714Y-49835771D02*
X76080952Y-49883390D01*
X76080952Y-49883390D02*
X76128571Y-49931009D01*
X76128571Y-49931009D02*
X76176190Y-50026247D01*
X76176190Y-50026247D02*
X76176190Y-50264342D01*
X76176190Y-50264342D02*
X76128571Y-50359580D01*
X76128571Y-50359580D02*
X76080952Y-50407200D01*
X76080952Y-50407200D02*
X75985714Y-50454819D01*
X75985714Y-50454819D02*
X75747619Y-50454819D01*
X75747619Y-50454819D02*
X75652381Y-50407200D01*
X75652381Y-50407200D02*
X75604762Y-50359580D01*
X76461905Y-49454819D02*
X76795238Y-50454819D01*
X76795238Y-50454819D02*
X77128571Y-49454819D01*
X114856095Y-71701866D02*
X115618000Y-71701866D01*
X116522761Y-71416152D02*
X116522761Y-72082819D01*
X116284666Y-71035200D02*
X116046571Y-71749485D01*
X116046571Y-71749485D02*
X116665618Y-71749485D01*
X117046571Y-71987580D02*
X117094190Y-72035200D01*
X117094190Y-72035200D02*
X117046571Y-72082819D01*
X117046571Y-72082819D02*
X116998952Y-72035200D01*
X116998952Y-72035200D02*
X117046571Y-71987580D01*
X117046571Y-71987580D02*
X117046571Y-72082819D01*
X118046570Y-72082819D02*
X117475142Y-72082819D01*
X117760856Y-72082819D02*
X117760856Y-71082819D01*
X117760856Y-71082819D02*
X117665618Y-71225676D01*
X117665618Y-71225676D02*
X117570380Y-71320914D01*
X117570380Y-71320914D02*
X117475142Y-71368533D01*
X118332285Y-71082819D02*
X118665618Y-72082819D01*
X118665618Y-72082819D02*
X118998951Y-71082819D01*
X120665618Y-72082819D02*
X120332285Y-71606628D01*
X120094190Y-72082819D02*
X120094190Y-71082819D01*
X120094190Y-71082819D02*
X120475142Y-71082819D01*
X120475142Y-71082819D02*
X120570380Y-71130438D01*
X120570380Y-71130438D02*
X120617999Y-71178057D01*
X120617999Y-71178057D02*
X120665618Y-71273295D01*
X120665618Y-71273295D02*
X120665618Y-71416152D01*
X120665618Y-71416152D02*
X120617999Y-71511390D01*
X120617999Y-71511390D02*
X120570380Y-71559009D01*
X120570380Y-71559009D02*
X120475142Y-71606628D01*
X120475142Y-71606628D02*
X120094190Y-71606628D01*
X121094190Y-71559009D02*
X121427523Y-71559009D01*
X121570380Y-72082819D02*
X121094190Y-72082819D01*
X121094190Y-72082819D02*
X121094190Y-71082819D01*
X121094190Y-71082819D02*
X121570380Y-71082819D01*
X122332285Y-71559009D02*
X121998952Y-71559009D01*
X121998952Y-72082819D02*
X121998952Y-71082819D01*
X121998952Y-71082819D02*
X122475142Y-71082819D01*
X73838095Y-60773866D02*
X74600000Y-60773866D01*
X74219047Y-61154819D02*
X74219047Y-60392914D01*
X75599999Y-61154819D02*
X75028571Y-61154819D01*
X75314285Y-61154819D02*
X75314285Y-60154819D01*
X75314285Y-60154819D02*
X75219047Y-60297676D01*
X75219047Y-60297676D02*
X75123809Y-60392914D01*
X75123809Y-60392914D02*
X75028571Y-60440533D01*
X76504761Y-60154819D02*
X76028571Y-60154819D01*
X76028571Y-60154819D02*
X75980952Y-60631009D01*
X75980952Y-60631009D02*
X76028571Y-60583390D01*
X76028571Y-60583390D02*
X76123809Y-60535771D01*
X76123809Y-60535771D02*
X76361904Y-60535771D01*
X76361904Y-60535771D02*
X76457142Y-60583390D01*
X76457142Y-60583390D02*
X76504761Y-60631009D01*
X76504761Y-60631009D02*
X76552380Y-60726247D01*
X76552380Y-60726247D02*
X76552380Y-60964342D01*
X76552380Y-60964342D02*
X76504761Y-61059580D01*
X76504761Y-61059580D02*
X76457142Y-61107200D01*
X76457142Y-61107200D02*
X76361904Y-61154819D01*
X76361904Y-61154819D02*
X76123809Y-61154819D01*
X76123809Y-61154819D02*
X76028571Y-61107200D01*
X76028571Y-61107200D02*
X75980952Y-61059580D01*
X76838095Y-60154819D02*
X77171428Y-61154819D01*
X77171428Y-61154819D02*
X77504761Y-60154819D01*
X106253257Y-57112819D02*
X106586590Y-58112819D01*
X106586590Y-58112819D02*
X106919923Y-57112819D01*
X107681828Y-57446152D02*
X107681828Y-58255676D01*
X107681828Y-58255676D02*
X107634209Y-58350914D01*
X107634209Y-58350914D02*
X107586590Y-58398533D01*
X107586590Y-58398533D02*
X107491352Y-58446152D01*
X107491352Y-58446152D02*
X107348495Y-58446152D01*
X107348495Y-58446152D02*
X107253257Y-58398533D01*
X107681828Y-58065200D02*
X107586590Y-58112819D01*
X107586590Y-58112819D02*
X107396114Y-58112819D01*
X107396114Y-58112819D02*
X107300876Y-58065200D01*
X107300876Y-58065200D02*
X107253257Y-58017580D01*
X107253257Y-58017580D02*
X107205638Y-57922342D01*
X107205638Y-57922342D02*
X107205638Y-57636628D01*
X107205638Y-57636628D02*
X107253257Y-57541390D01*
X107253257Y-57541390D02*
X107300876Y-57493771D01*
X107300876Y-57493771D02*
X107396114Y-57446152D01*
X107396114Y-57446152D02*
X107586590Y-57446152D01*
X107586590Y-57446152D02*
X107681828Y-57493771D01*
X108872305Y-58065200D02*
X109015162Y-58112819D01*
X109015162Y-58112819D02*
X109253257Y-58112819D01*
X109253257Y-58112819D02*
X109348495Y-58065200D01*
X109348495Y-58065200D02*
X109396114Y-58017580D01*
X109396114Y-58017580D02*
X109443733Y-57922342D01*
X109443733Y-57922342D02*
X109443733Y-57827104D01*
X109443733Y-57827104D02*
X109396114Y-57731866D01*
X109396114Y-57731866D02*
X109348495Y-57684247D01*
X109348495Y-57684247D02*
X109253257Y-57636628D01*
X109253257Y-57636628D02*
X109062781Y-57589009D01*
X109062781Y-57589009D02*
X108967543Y-57541390D01*
X108967543Y-57541390D02*
X108919924Y-57493771D01*
X108919924Y-57493771D02*
X108872305Y-57398533D01*
X108872305Y-57398533D02*
X108872305Y-57303295D01*
X108872305Y-57303295D02*
X108919924Y-57208057D01*
X108919924Y-57208057D02*
X108967543Y-57160438D01*
X108967543Y-57160438D02*
X109062781Y-57112819D01*
X109062781Y-57112819D02*
X109300876Y-57112819D01*
X109300876Y-57112819D02*
X109443733Y-57160438D01*
X110253257Y-58065200D02*
X110158019Y-58112819D01*
X110158019Y-58112819D02*
X109967543Y-58112819D01*
X109967543Y-58112819D02*
X109872305Y-58065200D01*
X109872305Y-58065200D02*
X109824686Y-57969961D01*
X109824686Y-57969961D02*
X109824686Y-57589009D01*
X109824686Y-57589009D02*
X109872305Y-57493771D01*
X109872305Y-57493771D02*
X109967543Y-57446152D01*
X109967543Y-57446152D02*
X110158019Y-57446152D01*
X110158019Y-57446152D02*
X110253257Y-57493771D01*
X110253257Y-57493771D02*
X110300876Y-57589009D01*
X110300876Y-57589009D02*
X110300876Y-57684247D01*
X110300876Y-57684247D02*
X109824686Y-57779485D01*
X110586591Y-57446152D02*
X110967543Y-57446152D01*
X110729448Y-57112819D02*
X110729448Y-57969961D01*
X110729448Y-57969961D02*
X110777067Y-58065200D01*
X110777067Y-58065200D02*
X110872305Y-58112819D01*
X110872305Y-58112819D02*
X110967543Y-58112819D01*
X111265619Y-35242332D02*
X112265619Y-34908999D01*
X112265619Y-34908999D02*
X111265619Y-34575666D01*
X112170380Y-33670904D02*
X112218000Y-33718523D01*
X112218000Y-33718523D02*
X112265619Y-33861380D01*
X112265619Y-33861380D02*
X112265619Y-33956618D01*
X112265619Y-33956618D02*
X112218000Y-34099475D01*
X112218000Y-34099475D02*
X112122761Y-34194713D01*
X112122761Y-34194713D02*
X112027523Y-34242332D01*
X112027523Y-34242332D02*
X111837047Y-34289951D01*
X111837047Y-34289951D02*
X111694190Y-34289951D01*
X111694190Y-34289951D02*
X111503714Y-34242332D01*
X111503714Y-34242332D02*
X111408476Y-34194713D01*
X111408476Y-34194713D02*
X111313238Y-34099475D01*
X111313238Y-34099475D02*
X111265619Y-33956618D01*
X111265619Y-33956618D02*
X111265619Y-33861380D01*
X111265619Y-33861380D02*
X111313238Y-33718523D01*
X111313238Y-33718523D02*
X111360857Y-33670904D01*
X112170380Y-32670904D02*
X112218000Y-32718523D01*
X112218000Y-32718523D02*
X112265619Y-32861380D01*
X112265619Y-32861380D02*
X112265619Y-32956618D01*
X112265619Y-32956618D02*
X112218000Y-33099475D01*
X112218000Y-33099475D02*
X112122761Y-33194713D01*
X112122761Y-33194713D02*
X112027523Y-33242332D01*
X112027523Y-33242332D02*
X111837047Y-33289951D01*
X111837047Y-33289951D02*
X111694190Y-33289951D01*
X111694190Y-33289951D02*
X111503714Y-33242332D01*
X111503714Y-33242332D02*
X111408476Y-33194713D01*
X111408476Y-33194713D02*
X111313238Y-33099475D01*
X111313238Y-33099475D02*
X111265619Y-32956618D01*
X111265619Y-32956618D02*
X111265619Y-32861380D01*
X111265619Y-32861380D02*
X111313238Y-32718523D01*
X111313238Y-32718523D02*
X111360857Y-32670904D01*
X129042438Y-68325904D02*
X128994819Y-68421142D01*
X128994819Y-68421142D02*
X128994819Y-68563999D01*
X128994819Y-68563999D02*
X129042438Y-68706856D01*
X129042438Y-68706856D02*
X129137676Y-68802094D01*
X129137676Y-68802094D02*
X129232914Y-68849713D01*
X129232914Y-68849713D02*
X129423390Y-68897332D01*
X129423390Y-68897332D02*
X129566247Y-68897332D01*
X129566247Y-68897332D02*
X129756723Y-68849713D01*
X129756723Y-68849713D02*
X129851961Y-68802094D01*
X129851961Y-68802094D02*
X129947200Y-68706856D01*
X129947200Y-68706856D02*
X129994819Y-68563999D01*
X129994819Y-68563999D02*
X129994819Y-68468761D01*
X129994819Y-68468761D02*
X129947200Y-68325904D01*
X129947200Y-68325904D02*
X129899580Y-68278285D01*
X129899580Y-68278285D02*
X129566247Y-68278285D01*
X129566247Y-68278285D02*
X129566247Y-68468761D01*
X129994819Y-67849713D02*
X128994819Y-67849713D01*
X128994819Y-67849713D02*
X129994819Y-67278285D01*
X129994819Y-67278285D02*
X128994819Y-67278285D01*
X129994819Y-66802094D02*
X128994819Y-66802094D01*
X128994819Y-66802094D02*
X128994819Y-66563999D01*
X128994819Y-66563999D02*
X129042438Y-66421142D01*
X129042438Y-66421142D02*
X129137676Y-66325904D01*
X129137676Y-66325904D02*
X129232914Y-66278285D01*
X129232914Y-66278285D02*
X129423390Y-66230666D01*
X129423390Y-66230666D02*
X129566247Y-66230666D01*
X129566247Y-66230666D02*
X129756723Y-66278285D01*
X129756723Y-66278285D02*
X129851961Y-66325904D01*
X129851961Y-66325904D02*
X129947200Y-66421142D01*
X129947200Y-66421142D02*
X129994819Y-66563999D01*
X129994819Y-66563999D02*
X129994819Y-66802094D01*
X100893857Y-72352819D02*
X101227190Y-73352819D01*
X101227190Y-73352819D02*
X101560523Y-72352819D01*
X102322428Y-72686152D02*
X102322428Y-73495676D01*
X102322428Y-73495676D02*
X102274809Y-73590914D01*
X102274809Y-73590914D02*
X102227190Y-73638533D01*
X102227190Y-73638533D02*
X102131952Y-73686152D01*
X102131952Y-73686152D02*
X101989095Y-73686152D01*
X101989095Y-73686152D02*
X101893857Y-73638533D01*
X102322428Y-73305200D02*
X102227190Y-73352819D01*
X102227190Y-73352819D02*
X102036714Y-73352819D01*
X102036714Y-73352819D02*
X101941476Y-73305200D01*
X101941476Y-73305200D02*
X101893857Y-73257580D01*
X101893857Y-73257580D02*
X101846238Y-73162342D01*
X101846238Y-73162342D02*
X101846238Y-72876628D01*
X101846238Y-72876628D02*
X101893857Y-72781390D01*
X101893857Y-72781390D02*
X101941476Y-72733771D01*
X101941476Y-72733771D02*
X102036714Y-72686152D01*
X102036714Y-72686152D02*
X102227190Y-72686152D01*
X102227190Y-72686152D02*
X102322428Y-72733771D01*
X103512905Y-73305200D02*
X103655762Y-73352819D01*
X103655762Y-73352819D02*
X103893857Y-73352819D01*
X103893857Y-73352819D02*
X103989095Y-73305200D01*
X103989095Y-73305200D02*
X104036714Y-73257580D01*
X104036714Y-73257580D02*
X104084333Y-73162342D01*
X104084333Y-73162342D02*
X104084333Y-73067104D01*
X104084333Y-73067104D02*
X104036714Y-72971866D01*
X104036714Y-72971866D02*
X103989095Y-72924247D01*
X103989095Y-72924247D02*
X103893857Y-72876628D01*
X103893857Y-72876628D02*
X103703381Y-72829009D01*
X103703381Y-72829009D02*
X103608143Y-72781390D01*
X103608143Y-72781390D02*
X103560524Y-72733771D01*
X103560524Y-72733771D02*
X103512905Y-72638533D01*
X103512905Y-72638533D02*
X103512905Y-72543295D01*
X103512905Y-72543295D02*
X103560524Y-72448057D01*
X103560524Y-72448057D02*
X103608143Y-72400438D01*
X103608143Y-72400438D02*
X103703381Y-72352819D01*
X103703381Y-72352819D02*
X103941476Y-72352819D01*
X103941476Y-72352819D02*
X104084333Y-72400438D01*
X104893857Y-73305200D02*
X104798619Y-73352819D01*
X104798619Y-73352819D02*
X104608143Y-73352819D01*
X104608143Y-73352819D02*
X104512905Y-73305200D01*
X104512905Y-73305200D02*
X104465286Y-73209961D01*
X104465286Y-73209961D02*
X104465286Y-72829009D01*
X104465286Y-72829009D02*
X104512905Y-72733771D01*
X104512905Y-72733771D02*
X104608143Y-72686152D01*
X104608143Y-72686152D02*
X104798619Y-72686152D01*
X104798619Y-72686152D02*
X104893857Y-72733771D01*
X104893857Y-72733771D02*
X104941476Y-72829009D01*
X104941476Y-72829009D02*
X104941476Y-72924247D01*
X104941476Y-72924247D02*
X104465286Y-73019485D01*
X105227191Y-72686152D02*
X105608143Y-72686152D01*
X105370048Y-72352819D02*
X105370048Y-73209961D01*
X105370048Y-73209961D02*
X105417667Y-73305200D01*
X105417667Y-73305200D02*
X105512905Y-73352819D01*
X105512905Y-73352819D02*
X105608143Y-73352819D01*
D11*
X76678800Y-28257593D02*
X76678800Y-27557593D01*
X77012133Y-28257593D02*
X77012133Y-27557593D01*
X77012133Y-27557593D02*
X77412133Y-28257593D01*
X77412133Y-28257593D02*
X77412133Y-27557593D01*
X77745466Y-28257593D02*
X77745466Y-27557593D01*
X77745466Y-27557593D02*
X78012133Y-27557593D01*
X78012133Y-27557593D02*
X78078800Y-27590926D01*
X78078800Y-27590926D02*
X78112133Y-27624260D01*
X78112133Y-27624260D02*
X78145466Y-27690926D01*
X78145466Y-27690926D02*
X78145466Y-27790926D01*
X78145466Y-27790926D02*
X78112133Y-27857593D01*
X78112133Y-27857593D02*
X78078800Y-27890926D01*
X78078800Y-27890926D02*
X78012133Y-27924260D01*
X78012133Y-27924260D02*
X77745466Y-27924260D01*
X78445466Y-27557593D02*
X78445466Y-28124260D01*
X78445466Y-28124260D02*
X78478800Y-28190926D01*
X78478800Y-28190926D02*
X78512133Y-28224260D01*
X78512133Y-28224260D02*
X78578800Y-28257593D01*
X78578800Y-28257593D02*
X78712133Y-28257593D01*
X78712133Y-28257593D02*
X78778800Y-28224260D01*
X78778800Y-28224260D02*
X78812133Y-28190926D01*
X78812133Y-28190926D02*
X78845466Y-28124260D01*
X78845466Y-28124260D02*
X78845466Y-27557593D01*
X79078799Y-27557593D02*
X79478799Y-27557593D01*
X79278799Y-28257593D02*
X79278799Y-27557593D01*
X119719000Y-73074393D02*
X119952334Y-73774393D01*
X119952334Y-73774393D02*
X120185667Y-73074393D01*
X120719000Y-73307726D02*
X120719000Y-73874393D01*
X120719000Y-73874393D02*
X120685667Y-73941060D01*
X120685667Y-73941060D02*
X120652334Y-73974393D01*
X120652334Y-73974393D02*
X120585667Y-74007726D01*
X120585667Y-74007726D02*
X120485667Y-74007726D01*
X120485667Y-74007726D02*
X120419000Y-73974393D01*
X120719000Y-73741060D02*
X120652334Y-73774393D01*
X120652334Y-73774393D02*
X120519000Y-73774393D01*
X120519000Y-73774393D02*
X120452334Y-73741060D01*
X120452334Y-73741060D02*
X120419000Y-73707726D01*
X120419000Y-73707726D02*
X120385667Y-73641060D01*
X120385667Y-73641060D02*
X120385667Y-73441060D01*
X120385667Y-73441060D02*
X120419000Y-73374393D01*
X120419000Y-73374393D02*
X120452334Y-73341060D01*
X120452334Y-73341060D02*
X120519000Y-73307726D01*
X120519000Y-73307726D02*
X120652334Y-73307726D01*
X120652334Y-73307726D02*
X120719000Y-73341060D01*
D10*
X139837438Y-68325904D02*
X139789819Y-68421142D01*
X139789819Y-68421142D02*
X139789819Y-68563999D01*
X139789819Y-68563999D02*
X139837438Y-68706856D01*
X139837438Y-68706856D02*
X139932676Y-68802094D01*
X139932676Y-68802094D02*
X140027914Y-68849713D01*
X140027914Y-68849713D02*
X140218390Y-68897332D01*
X140218390Y-68897332D02*
X140361247Y-68897332D01*
X140361247Y-68897332D02*
X140551723Y-68849713D01*
X140551723Y-68849713D02*
X140646961Y-68802094D01*
X140646961Y-68802094D02*
X140742200Y-68706856D01*
X140742200Y-68706856D02*
X140789819Y-68563999D01*
X140789819Y-68563999D02*
X140789819Y-68468761D01*
X140789819Y-68468761D02*
X140742200Y-68325904D01*
X140742200Y-68325904D02*
X140694580Y-68278285D01*
X140694580Y-68278285D02*
X140361247Y-68278285D01*
X140361247Y-68278285D02*
X140361247Y-68468761D01*
X140789819Y-67849713D02*
X139789819Y-67849713D01*
X139789819Y-67849713D02*
X140789819Y-67278285D01*
X140789819Y-67278285D02*
X139789819Y-67278285D01*
X140789819Y-66802094D02*
X139789819Y-66802094D01*
X139789819Y-66802094D02*
X139789819Y-66563999D01*
X139789819Y-66563999D02*
X139837438Y-66421142D01*
X139837438Y-66421142D02*
X139932676Y-66325904D01*
X139932676Y-66325904D02*
X140027914Y-66278285D01*
X140027914Y-66278285D02*
X140218390Y-66230666D01*
X140218390Y-66230666D02*
X140361247Y-66230666D01*
X140361247Y-66230666D02*
X140551723Y-66278285D01*
X140551723Y-66278285D02*
X140646961Y-66325904D01*
X140646961Y-66325904D02*
X140742200Y-66421142D01*
X140742200Y-66421142D02*
X140789819Y-66563999D01*
X140789819Y-66563999D02*
X140789819Y-66802094D01*
D11*
X77555000Y-48544260D02*
X77655000Y-48577593D01*
X77655000Y-48577593D02*
X77821667Y-48577593D01*
X77821667Y-48577593D02*
X77888333Y-48544260D01*
X77888333Y-48544260D02*
X77921667Y-48510926D01*
X77921667Y-48510926D02*
X77955000Y-48444260D01*
X77955000Y-48444260D02*
X77955000Y-48377593D01*
X77955000Y-48377593D02*
X77921667Y-48310926D01*
X77921667Y-48310926D02*
X77888333Y-48277593D01*
X77888333Y-48277593D02*
X77821667Y-48244260D01*
X77821667Y-48244260D02*
X77688333Y-48210926D01*
X77688333Y-48210926D02*
X77621667Y-48177593D01*
X77621667Y-48177593D02*
X77588333Y-48144260D01*
X77588333Y-48144260D02*
X77555000Y-48077593D01*
X77555000Y-48077593D02*
X77555000Y-48010926D01*
X77555000Y-48010926D02*
X77588333Y-47944260D01*
X77588333Y-47944260D02*
X77621667Y-47910926D01*
X77621667Y-47910926D02*
X77688333Y-47877593D01*
X77688333Y-47877593D02*
X77855000Y-47877593D01*
X77855000Y-47877593D02*
X77955000Y-47910926D01*
X78255000Y-48577593D02*
X78255000Y-47877593D01*
X78255000Y-47877593D02*
X78421667Y-47877593D01*
X78421667Y-47877593D02*
X78521667Y-47910926D01*
X78521667Y-47910926D02*
X78588334Y-47977593D01*
X78588334Y-47977593D02*
X78621667Y-48044260D01*
X78621667Y-48044260D02*
X78655000Y-48177593D01*
X78655000Y-48177593D02*
X78655000Y-48277593D01*
X78655000Y-48277593D02*
X78621667Y-48410926D01*
X78621667Y-48410926D02*
X78588334Y-48477593D01*
X78588334Y-48477593D02*
X78521667Y-48544260D01*
X78521667Y-48544260D02*
X78421667Y-48577593D01*
X78421667Y-48577593D02*
X78255000Y-48577593D01*
X77491667Y-47683260D02*
X78718334Y-47683260D01*
D10*
X108722438Y-34797904D02*
X108674819Y-34893142D01*
X108674819Y-34893142D02*
X108674819Y-35035999D01*
X108674819Y-35035999D02*
X108722438Y-35178856D01*
X108722438Y-35178856D02*
X108817676Y-35274094D01*
X108817676Y-35274094D02*
X108912914Y-35321713D01*
X108912914Y-35321713D02*
X109103390Y-35369332D01*
X109103390Y-35369332D02*
X109246247Y-35369332D01*
X109246247Y-35369332D02*
X109436723Y-35321713D01*
X109436723Y-35321713D02*
X109531961Y-35274094D01*
X109531961Y-35274094D02*
X109627200Y-35178856D01*
X109627200Y-35178856D02*
X109674819Y-35035999D01*
X109674819Y-35035999D02*
X109674819Y-34940761D01*
X109674819Y-34940761D02*
X109627200Y-34797904D01*
X109627200Y-34797904D02*
X109579580Y-34750285D01*
X109579580Y-34750285D02*
X109246247Y-34750285D01*
X109246247Y-34750285D02*
X109246247Y-34940761D01*
X109674819Y-34321713D02*
X108674819Y-34321713D01*
X108674819Y-34321713D02*
X109674819Y-33750285D01*
X109674819Y-33750285D02*
X108674819Y-33750285D01*
X109674819Y-33274094D02*
X108674819Y-33274094D01*
X108674819Y-33274094D02*
X108674819Y-33035999D01*
X108674819Y-33035999D02*
X108722438Y-32893142D01*
X108722438Y-32893142D02*
X108817676Y-32797904D01*
X108817676Y-32797904D02*
X108912914Y-32750285D01*
X108912914Y-32750285D02*
X109103390Y-32702666D01*
X109103390Y-32702666D02*
X109246247Y-32702666D01*
X109246247Y-32702666D02*
X109436723Y-32750285D01*
X109436723Y-32750285D02*
X109531961Y-32797904D01*
X109531961Y-32797904D02*
X109627200Y-32893142D01*
X109627200Y-32893142D02*
X109674819Y-33035999D01*
X109674819Y-33035999D02*
X109674819Y-33274094D01*
X84503095Y-72717866D02*
X85265000Y-72717866D01*
X84884047Y-73098819D02*
X84884047Y-72336914D01*
X86169761Y-72432152D02*
X86169761Y-73098819D01*
X85931666Y-72051200D02*
X85693571Y-72765485D01*
X85693571Y-72765485D02*
X86312618Y-72765485D01*
X86693571Y-73003580D02*
X86741190Y-73051200D01*
X86741190Y-73051200D02*
X86693571Y-73098819D01*
X86693571Y-73098819D02*
X86645952Y-73051200D01*
X86645952Y-73051200D02*
X86693571Y-73003580D01*
X86693571Y-73003580D02*
X86693571Y-73098819D01*
X87693570Y-73098819D02*
X87122142Y-73098819D01*
X87407856Y-73098819D02*
X87407856Y-72098819D01*
X87407856Y-72098819D02*
X87312618Y-72241676D01*
X87312618Y-72241676D02*
X87217380Y-72336914D01*
X87217380Y-72336914D02*
X87122142Y-72384533D01*
X87979285Y-72098819D02*
X88312618Y-73098819D01*
X88312618Y-73098819D02*
X88645951Y-72098819D01*
X90312618Y-73098819D02*
X89979285Y-72622628D01*
X89741190Y-73098819D02*
X89741190Y-72098819D01*
X89741190Y-72098819D02*
X90122142Y-72098819D01*
X90122142Y-72098819D02*
X90217380Y-72146438D01*
X90217380Y-72146438D02*
X90264999Y-72194057D01*
X90264999Y-72194057D02*
X90312618Y-72289295D01*
X90312618Y-72289295D02*
X90312618Y-72432152D01*
X90312618Y-72432152D02*
X90264999Y-72527390D01*
X90264999Y-72527390D02*
X90217380Y-72575009D01*
X90217380Y-72575009D02*
X90122142Y-72622628D01*
X90122142Y-72622628D02*
X89741190Y-72622628D01*
X90741190Y-72575009D02*
X91074523Y-72575009D01*
X91217380Y-73098819D02*
X90741190Y-73098819D01*
X90741190Y-73098819D02*
X90741190Y-72098819D01*
X90741190Y-72098819D02*
X91217380Y-72098819D01*
X91979285Y-72575009D02*
X91645952Y-72575009D01*
X91645952Y-73098819D02*
X91645952Y-72098819D01*
X91645952Y-72098819D02*
X92122142Y-72098819D01*
D11*
X60801001Y-73330132D02*
X60801001Y-72630132D01*
X60801001Y-72630132D02*
X60967668Y-72630132D01*
X60967668Y-72630132D02*
X61067668Y-72663465D01*
X61067668Y-72663465D02*
X61134335Y-72730132D01*
X61134335Y-72730132D02*
X61167668Y-72796799D01*
X61167668Y-72796799D02*
X61201001Y-72930132D01*
X61201001Y-72930132D02*
X61201001Y-73030132D01*
X61201001Y-73030132D02*
X61167668Y-73163465D01*
X61167668Y-73163465D02*
X61134335Y-73230132D01*
X61134335Y-73230132D02*
X61067668Y-73296799D01*
X61067668Y-73296799D02*
X60967668Y-73330132D01*
X60967668Y-73330132D02*
X60801001Y-73330132D01*
X61501001Y-73330132D02*
X61501001Y-72863465D01*
X61501001Y-72996799D02*
X61534335Y-72930132D01*
X61534335Y-72930132D02*
X61567668Y-72896799D01*
X61567668Y-72896799D02*
X61634335Y-72863465D01*
X61634335Y-72863465D02*
X61701001Y-72863465D01*
X62234334Y-73330132D02*
X62234334Y-72963465D01*
X62234334Y-72963465D02*
X62201001Y-72896799D01*
X62201001Y-72896799D02*
X62134334Y-72863465D01*
X62134334Y-72863465D02*
X62001001Y-72863465D01*
X62001001Y-72863465D02*
X61934334Y-72896799D01*
X62234334Y-73296799D02*
X62167668Y-73330132D01*
X62167668Y-73330132D02*
X62001001Y-73330132D01*
X62001001Y-73330132D02*
X61934334Y-73296799D01*
X61934334Y-73296799D02*
X61901001Y-73230132D01*
X61901001Y-73230132D02*
X61901001Y-73163465D01*
X61901001Y-73163465D02*
X61934334Y-73096799D01*
X61934334Y-73096799D02*
X62001001Y-73063465D01*
X62001001Y-73063465D02*
X62167668Y-73063465D01*
X62167668Y-73063465D02*
X62234334Y-73030132D01*
X62567667Y-73330132D02*
X62567667Y-72863465D01*
X62567667Y-72630132D02*
X62534334Y-72663465D01*
X62534334Y-72663465D02*
X62567667Y-72696799D01*
X62567667Y-72696799D02*
X62601001Y-72663465D01*
X62601001Y-72663465D02*
X62567667Y-72630132D01*
X62567667Y-72630132D02*
X62567667Y-72696799D01*
X62901000Y-72863465D02*
X62901000Y-73330132D01*
X62901000Y-72930132D02*
X62934334Y-72896799D01*
X62934334Y-72896799D02*
X63001000Y-72863465D01*
X63001000Y-72863465D02*
X63101000Y-72863465D01*
X63101000Y-72863465D02*
X63167667Y-72896799D01*
X63167667Y-72896799D02*
X63201000Y-72963465D01*
X63201000Y-72963465D02*
X63201000Y-73330132D01*
X64067666Y-73330132D02*
X64067666Y-72630132D01*
X64067666Y-72630132D02*
X64234333Y-72630132D01*
X64234333Y-72630132D02*
X64334333Y-72663465D01*
X64334333Y-72663465D02*
X64401000Y-72730132D01*
X64401000Y-72730132D02*
X64434333Y-72796799D01*
X64434333Y-72796799D02*
X64467666Y-72930132D01*
X64467666Y-72930132D02*
X64467666Y-73030132D01*
X64467666Y-73030132D02*
X64434333Y-73163465D01*
X64434333Y-73163465D02*
X64401000Y-73230132D01*
X64401000Y-73230132D02*
X64334333Y-73296799D01*
X64334333Y-73296799D02*
X64234333Y-73330132D01*
X64234333Y-73330132D02*
X64067666Y-73330132D01*
X64767666Y-73330132D02*
X64767666Y-72863465D01*
X64767666Y-72996799D02*
X64801000Y-72930132D01*
X64801000Y-72930132D02*
X64834333Y-72896799D01*
X64834333Y-72896799D02*
X64901000Y-72863465D01*
X64901000Y-72863465D02*
X64967666Y-72863465D01*
X65200999Y-73330132D02*
X65200999Y-72863465D01*
X65200999Y-72630132D02*
X65167666Y-72663465D01*
X65167666Y-72663465D02*
X65200999Y-72696799D01*
X65200999Y-72696799D02*
X65234333Y-72663465D01*
X65234333Y-72663465D02*
X65200999Y-72630132D01*
X65200999Y-72630132D02*
X65200999Y-72696799D01*
X65467666Y-72863465D02*
X65634332Y-73330132D01*
X65634332Y-73330132D02*
X65800999Y-72863465D01*
X66334332Y-73296799D02*
X66267665Y-73330132D01*
X66267665Y-73330132D02*
X66134332Y-73330132D01*
X66134332Y-73330132D02*
X66067665Y-73296799D01*
X66067665Y-73296799D02*
X66034332Y-73230132D01*
X66034332Y-73230132D02*
X66034332Y-72963465D01*
X66034332Y-72963465D02*
X66067665Y-72896799D01*
X66067665Y-72896799D02*
X66134332Y-72863465D01*
X66134332Y-72863465D02*
X66267665Y-72863465D01*
X66267665Y-72863465D02*
X66334332Y-72896799D01*
X66334332Y-72896799D02*
X66367665Y-72963465D01*
X66367665Y-72963465D02*
X66367665Y-73030132D01*
X66367665Y-73030132D02*
X66034332Y-73096799D01*
X66667665Y-73330132D02*
X66667665Y-72863465D01*
X66667665Y-72996799D02*
X66700999Y-72930132D01*
X66700999Y-72930132D02*
X66734332Y-72896799D01*
X66734332Y-72896799D02*
X66800999Y-72863465D01*
X66800999Y-72863465D02*
X66867665Y-72863465D01*
X67567665Y-72863465D02*
X67734331Y-73330132D01*
X67734331Y-73330132D02*
X67900998Y-72863465D01*
X68100998Y-72630132D02*
X68534331Y-72630132D01*
X68534331Y-72630132D02*
X68300998Y-72896799D01*
X68300998Y-72896799D02*
X68400998Y-72896799D01*
X68400998Y-72896799D02*
X68467664Y-72930132D01*
X68467664Y-72930132D02*
X68500998Y-72963465D01*
X68500998Y-72963465D02*
X68534331Y-73030132D01*
X68534331Y-73030132D02*
X68534331Y-73196799D01*
X68534331Y-73196799D02*
X68500998Y-73263465D01*
X68500998Y-73263465D02*
X68467664Y-73296799D01*
X68467664Y-73296799D02*
X68400998Y-73330132D01*
X68400998Y-73330132D02*
X68200998Y-73330132D01*
X68200998Y-73330132D02*
X68134331Y-73296799D01*
X68134331Y-73296799D02*
X68100998Y-73263465D01*
X68834331Y-73263465D02*
X68867665Y-73296799D01*
X68867665Y-73296799D02*
X68834331Y-73330132D01*
X68834331Y-73330132D02*
X68800998Y-73296799D01*
X68800998Y-73296799D02*
X68834331Y-73263465D01*
X68834331Y-73263465D02*
X68834331Y-73330132D01*
X69300998Y-72630132D02*
X69367664Y-72630132D01*
X69367664Y-72630132D02*
X69434331Y-72663465D01*
X69434331Y-72663465D02*
X69467664Y-72696799D01*
X69467664Y-72696799D02*
X69500998Y-72763465D01*
X69500998Y-72763465D02*
X69534331Y-72896799D01*
X69534331Y-72896799D02*
X69534331Y-73063465D01*
X69534331Y-73063465D02*
X69500998Y-73196799D01*
X69500998Y-73196799D02*
X69467664Y-73263465D01*
X69467664Y-73263465D02*
X69434331Y-73296799D01*
X69434331Y-73296799D02*
X69367664Y-73330132D01*
X69367664Y-73330132D02*
X69300998Y-73330132D01*
X69300998Y-73330132D02*
X69234331Y-73296799D01*
X69234331Y-73296799D02*
X69200998Y-73263465D01*
X69200998Y-73263465D02*
X69167664Y-73196799D01*
X69167664Y-73196799D02*
X69134331Y-73063465D01*
X69134331Y-73063465D02*
X69134331Y-72896799D01*
X69134331Y-72896799D02*
X69167664Y-72763465D01*
X69167664Y-72763465D02*
X69200998Y-72696799D01*
X69200998Y-72696799D02*
X69234331Y-72663465D01*
X69234331Y-72663465D02*
X69300998Y-72630132D01*
X61417667Y-73757093D02*
X61817667Y-73757093D01*
X61617667Y-74457093D02*
X61617667Y-73757093D01*
X62051000Y-74457093D02*
X62051000Y-73990426D01*
X62051000Y-73757093D02*
X62017667Y-73790426D01*
X62017667Y-73790426D02*
X62051000Y-73823760D01*
X62051000Y-73823760D02*
X62084334Y-73790426D01*
X62084334Y-73790426D02*
X62051000Y-73757093D01*
X62051000Y-73757093D02*
X62051000Y-73823760D01*
X62384333Y-74457093D02*
X62384333Y-73990426D01*
X62384333Y-74057093D02*
X62417667Y-74023760D01*
X62417667Y-74023760D02*
X62484333Y-73990426D01*
X62484333Y-73990426D02*
X62584333Y-73990426D01*
X62584333Y-73990426D02*
X62651000Y-74023760D01*
X62651000Y-74023760D02*
X62684333Y-74090426D01*
X62684333Y-74090426D02*
X62684333Y-74457093D01*
X62684333Y-74090426D02*
X62717667Y-74023760D01*
X62717667Y-74023760D02*
X62784333Y-73990426D01*
X62784333Y-73990426D02*
X62884333Y-73990426D01*
X62884333Y-73990426D02*
X62951000Y-74023760D01*
X62951000Y-74023760D02*
X62984333Y-74090426D01*
X62984333Y-74090426D02*
X62984333Y-74457093D01*
X63417666Y-74457093D02*
X63351000Y-74423760D01*
X63351000Y-74423760D02*
X63317666Y-74390426D01*
X63317666Y-74390426D02*
X63284333Y-74323760D01*
X63284333Y-74323760D02*
X63284333Y-74123760D01*
X63284333Y-74123760D02*
X63317666Y-74057093D01*
X63317666Y-74057093D02*
X63351000Y-74023760D01*
X63351000Y-74023760D02*
X63417666Y-73990426D01*
X63417666Y-73990426D02*
X63517666Y-73990426D01*
X63517666Y-73990426D02*
X63584333Y-74023760D01*
X63584333Y-74023760D02*
X63617666Y-74057093D01*
X63617666Y-74057093D02*
X63651000Y-74123760D01*
X63651000Y-74123760D02*
X63651000Y-74323760D01*
X63651000Y-74323760D02*
X63617666Y-74390426D01*
X63617666Y-74390426D02*
X63584333Y-74423760D01*
X63584333Y-74423760D02*
X63517666Y-74457093D01*
X63517666Y-74457093D02*
X63417666Y-74457093D01*
X63850999Y-73990426D02*
X64117666Y-73990426D01*
X63950999Y-73757093D02*
X63950999Y-74357093D01*
X63950999Y-74357093D02*
X63984333Y-74423760D01*
X63984333Y-74423760D02*
X64050999Y-74457093D01*
X64050999Y-74457093D02*
X64117666Y-74457093D01*
X64350999Y-74457093D02*
X64350999Y-73757093D01*
X64650999Y-74457093D02*
X64650999Y-74090426D01*
X64650999Y-74090426D02*
X64617666Y-74023760D01*
X64617666Y-74023760D02*
X64550999Y-73990426D01*
X64550999Y-73990426D02*
X64450999Y-73990426D01*
X64450999Y-73990426D02*
X64384333Y-74023760D01*
X64384333Y-74023760D02*
X64350999Y-74057093D01*
X64917666Y-73990426D02*
X65084332Y-74457093D01*
X65250999Y-73990426D02*
X65084332Y-74457093D01*
X65084332Y-74457093D02*
X65017666Y-74623760D01*
X65017666Y-74623760D02*
X64984332Y-74657093D01*
X64984332Y-74657093D02*
X64917666Y-74690426D01*
X66050998Y-74457093D02*
X66050998Y-73757093D01*
X66450998Y-74457093D02*
X66150998Y-74057093D01*
X66450998Y-73757093D02*
X66050998Y-74157093D01*
X67017665Y-74423760D02*
X66950998Y-74457093D01*
X66950998Y-74457093D02*
X66817665Y-74457093D01*
X66817665Y-74457093D02*
X66750998Y-74423760D01*
X66750998Y-74423760D02*
X66717665Y-74357093D01*
X66717665Y-74357093D02*
X66717665Y-74090426D01*
X66717665Y-74090426D02*
X66750998Y-74023760D01*
X66750998Y-74023760D02*
X66817665Y-73990426D01*
X66817665Y-73990426D02*
X66950998Y-73990426D01*
X66950998Y-73990426D02*
X67017665Y-74023760D01*
X67017665Y-74023760D02*
X67050998Y-74090426D01*
X67050998Y-74090426D02*
X67050998Y-74157093D01*
X67050998Y-74157093D02*
X66717665Y-74223760D01*
X67450998Y-74457093D02*
X67384332Y-74423760D01*
X67384332Y-74423760D02*
X67350998Y-74357093D01*
X67350998Y-74357093D02*
X67350998Y-73757093D01*
X67817665Y-74457093D02*
X67750999Y-74423760D01*
X67750999Y-74423760D02*
X67717665Y-74357093D01*
X67717665Y-74357093D02*
X67717665Y-73757093D01*
X68350999Y-74423760D02*
X68284332Y-74457093D01*
X68284332Y-74457093D02*
X68150999Y-74457093D01*
X68150999Y-74457093D02*
X68084332Y-74423760D01*
X68084332Y-74423760D02*
X68050999Y-74357093D01*
X68050999Y-74357093D02*
X68050999Y-74090426D01*
X68050999Y-74090426D02*
X68084332Y-74023760D01*
X68084332Y-74023760D02*
X68150999Y-73990426D01*
X68150999Y-73990426D02*
X68284332Y-73990426D01*
X68284332Y-73990426D02*
X68350999Y-74023760D01*
X68350999Y-74023760D02*
X68384332Y-74090426D01*
X68384332Y-74090426D02*
X68384332Y-74157093D01*
X68384332Y-74157093D02*
X68050999Y-74223760D01*
X68684332Y-74457093D02*
X68684332Y-73990426D01*
X68684332Y-74123760D02*
X68717666Y-74057093D01*
X68717666Y-74057093D02*
X68750999Y-74023760D01*
X68750999Y-74023760D02*
X68817666Y-73990426D01*
X68817666Y-73990426D02*
X68884332Y-73990426D01*
D10*
X126454819Y-68857713D02*
X127454819Y-68524380D01*
X127454819Y-68524380D02*
X126454819Y-68191047D01*
X126788152Y-67429142D02*
X127597676Y-67429142D01*
X127597676Y-67429142D02*
X127692914Y-67476761D01*
X127692914Y-67476761D02*
X127740533Y-67524380D01*
X127740533Y-67524380D02*
X127788152Y-67619618D01*
X127788152Y-67619618D02*
X127788152Y-67762475D01*
X127788152Y-67762475D02*
X127740533Y-67857713D01*
X127407200Y-67429142D02*
X127454819Y-67524380D01*
X127454819Y-67524380D02*
X127454819Y-67714856D01*
X127454819Y-67714856D02*
X127407200Y-67810094D01*
X127407200Y-67810094D02*
X127359580Y-67857713D01*
X127359580Y-67857713D02*
X127264342Y-67905332D01*
X127264342Y-67905332D02*
X126978628Y-67905332D01*
X126978628Y-67905332D02*
X126883390Y-67857713D01*
X126883390Y-67857713D02*
X126835771Y-67810094D01*
X126835771Y-67810094D02*
X126788152Y-67714856D01*
X126788152Y-67714856D02*
X126788152Y-67524380D01*
X126788152Y-67524380D02*
X126835771Y-67429142D01*
X92608971Y-57239819D02*
X92942304Y-58239819D01*
X92942304Y-58239819D02*
X93275637Y-57239819D01*
X94037542Y-57573152D02*
X94037542Y-58382676D01*
X94037542Y-58382676D02*
X93989923Y-58477914D01*
X93989923Y-58477914D02*
X93942304Y-58525533D01*
X93942304Y-58525533D02*
X93847066Y-58573152D01*
X93847066Y-58573152D02*
X93704209Y-58573152D01*
X93704209Y-58573152D02*
X93608971Y-58525533D01*
X94037542Y-58192200D02*
X93942304Y-58239819D01*
X93942304Y-58239819D02*
X93751828Y-58239819D01*
X93751828Y-58239819D02*
X93656590Y-58192200D01*
X93656590Y-58192200D02*
X93608971Y-58144580D01*
X93608971Y-58144580D02*
X93561352Y-58049342D01*
X93561352Y-58049342D02*
X93561352Y-57763628D01*
X93561352Y-57763628D02*
X93608971Y-57668390D01*
X93608971Y-57668390D02*
X93656590Y-57620771D01*
X93656590Y-57620771D02*
X93751828Y-57573152D01*
X93751828Y-57573152D02*
X93942304Y-57573152D01*
X93942304Y-57573152D02*
X94037542Y-57620771D01*
X95751828Y-58239819D02*
X95275638Y-58239819D01*
X95275638Y-58239819D02*
X95275638Y-57239819D01*
X96085162Y-58239819D02*
X96085162Y-57573152D01*
X96085162Y-57239819D02*
X96037543Y-57287438D01*
X96037543Y-57287438D02*
X96085162Y-57335057D01*
X96085162Y-57335057D02*
X96132781Y-57287438D01*
X96132781Y-57287438D02*
X96085162Y-57239819D01*
X96085162Y-57239819D02*
X96085162Y-57335057D01*
X96561352Y-58239819D02*
X96561352Y-57573152D01*
X96561352Y-57668390D02*
X96608971Y-57620771D01*
X96608971Y-57620771D02*
X96704209Y-57573152D01*
X96704209Y-57573152D02*
X96847066Y-57573152D01*
X96847066Y-57573152D02*
X96942304Y-57620771D01*
X96942304Y-57620771D02*
X96989923Y-57716009D01*
X96989923Y-57716009D02*
X96989923Y-58239819D01*
X96989923Y-57716009D02*
X97037542Y-57620771D01*
X97037542Y-57620771D02*
X97132780Y-57573152D01*
X97132780Y-57573152D02*
X97275637Y-57573152D01*
X97275637Y-57573152D02*
X97370876Y-57620771D01*
X97370876Y-57620771D02*
X97418495Y-57716009D01*
X97418495Y-57716009D02*
X97418495Y-58239819D01*
X97894685Y-58239819D02*
X97894685Y-57573152D01*
X97894685Y-57239819D02*
X97847066Y-57287438D01*
X97847066Y-57287438D02*
X97894685Y-57335057D01*
X97894685Y-57335057D02*
X97942304Y-57287438D01*
X97942304Y-57287438D02*
X97894685Y-57239819D01*
X97894685Y-57239819D02*
X97894685Y-57335057D01*
X98228018Y-57573152D02*
X98608970Y-57573152D01*
X98370875Y-57239819D02*
X98370875Y-58096961D01*
X98370875Y-58096961D02*
X98418494Y-58192200D01*
X98418494Y-58192200D02*
X98513732Y-58239819D01*
X98513732Y-58239819D02*
X98608970Y-58239819D01*
X99656590Y-58192200D02*
X99799447Y-58239819D01*
X99799447Y-58239819D02*
X100037542Y-58239819D01*
X100037542Y-58239819D02*
X100132780Y-58192200D01*
X100132780Y-58192200D02*
X100180399Y-58144580D01*
X100180399Y-58144580D02*
X100228018Y-58049342D01*
X100228018Y-58049342D02*
X100228018Y-57954104D01*
X100228018Y-57954104D02*
X100180399Y-57858866D01*
X100180399Y-57858866D02*
X100132780Y-57811247D01*
X100132780Y-57811247D02*
X100037542Y-57763628D01*
X100037542Y-57763628D02*
X99847066Y-57716009D01*
X99847066Y-57716009D02*
X99751828Y-57668390D01*
X99751828Y-57668390D02*
X99704209Y-57620771D01*
X99704209Y-57620771D02*
X99656590Y-57525533D01*
X99656590Y-57525533D02*
X99656590Y-57430295D01*
X99656590Y-57430295D02*
X99704209Y-57335057D01*
X99704209Y-57335057D02*
X99751828Y-57287438D01*
X99751828Y-57287438D02*
X99847066Y-57239819D01*
X99847066Y-57239819D02*
X100085161Y-57239819D01*
X100085161Y-57239819D02*
X100228018Y-57287438D01*
X101037542Y-58192200D02*
X100942304Y-58239819D01*
X100942304Y-58239819D02*
X100751828Y-58239819D01*
X100751828Y-58239819D02*
X100656590Y-58192200D01*
X100656590Y-58192200D02*
X100608971Y-58096961D01*
X100608971Y-58096961D02*
X100608971Y-57716009D01*
X100608971Y-57716009D02*
X100656590Y-57620771D01*
X100656590Y-57620771D02*
X100751828Y-57573152D01*
X100751828Y-57573152D02*
X100942304Y-57573152D01*
X100942304Y-57573152D02*
X101037542Y-57620771D01*
X101037542Y-57620771D02*
X101085161Y-57716009D01*
X101085161Y-57716009D02*
X101085161Y-57811247D01*
X101085161Y-57811247D02*
X100608971Y-57906485D01*
X101370876Y-57573152D02*
X101751828Y-57573152D01*
X101513733Y-57239819D02*
X101513733Y-58096961D01*
X101513733Y-58096961D02*
X101561352Y-58192200D01*
X101561352Y-58192200D02*
X101656590Y-58239819D01*
X101656590Y-58239819D02*
X101751828Y-58239819D01*
X137249819Y-68857713D02*
X138249819Y-68524380D01*
X138249819Y-68524380D02*
X137249819Y-68191047D01*
X138249819Y-67429142D02*
X137249819Y-67429142D01*
X138202200Y-67429142D02*
X138249819Y-67524380D01*
X138249819Y-67524380D02*
X138249819Y-67714856D01*
X138249819Y-67714856D02*
X138202200Y-67810094D01*
X138202200Y-67810094D02*
X138154580Y-67857713D01*
X138154580Y-67857713D02*
X138059342Y-67905332D01*
X138059342Y-67905332D02*
X137773628Y-67905332D01*
X137773628Y-67905332D02*
X137678390Y-67857713D01*
X137678390Y-67857713D02*
X137630771Y-67810094D01*
X137630771Y-67810094D02*
X137583152Y-67714856D01*
X137583152Y-67714856D02*
X137583152Y-67524380D01*
X137583152Y-67524380D02*
X137630771Y-67429142D01*
D11*
X87083333Y-55243593D02*
X87316667Y-55943593D01*
X87316667Y-55943593D02*
X87550000Y-55243593D01*
X88083333Y-55476926D02*
X88083333Y-56043593D01*
X88083333Y-56043593D02*
X88050000Y-56110260D01*
X88050000Y-56110260D02*
X88016667Y-56143593D01*
X88016667Y-56143593D02*
X87950000Y-56176926D01*
X87950000Y-56176926D02*
X87850000Y-56176926D01*
X87850000Y-56176926D02*
X87783333Y-56143593D01*
X88083333Y-55910260D02*
X88016667Y-55943593D01*
X88016667Y-55943593D02*
X87883333Y-55943593D01*
X87883333Y-55943593D02*
X87816667Y-55910260D01*
X87816667Y-55910260D02*
X87783333Y-55876926D01*
X87783333Y-55876926D02*
X87750000Y-55810260D01*
X87750000Y-55810260D02*
X87750000Y-55610260D01*
X87750000Y-55610260D02*
X87783333Y-55543593D01*
X87783333Y-55543593D02*
X87816667Y-55510260D01*
X87816667Y-55510260D02*
X87883333Y-55476926D01*
X87883333Y-55476926D02*
X88016667Y-55476926D01*
X88016667Y-55476926D02*
X88083333Y-55510260D01*
X88949999Y-55943593D02*
X88949999Y-55243593D01*
X88949999Y-55243593D02*
X89183333Y-55743593D01*
X89183333Y-55743593D02*
X89416666Y-55243593D01*
X89416666Y-55243593D02*
X89416666Y-55943593D01*
X90049999Y-55943593D02*
X90049999Y-55576926D01*
X90049999Y-55576926D02*
X90016666Y-55510260D01*
X90016666Y-55510260D02*
X89949999Y-55476926D01*
X89949999Y-55476926D02*
X89816666Y-55476926D01*
X89816666Y-55476926D02*
X89749999Y-55510260D01*
X90049999Y-55910260D02*
X89983333Y-55943593D01*
X89983333Y-55943593D02*
X89816666Y-55943593D01*
X89816666Y-55943593D02*
X89749999Y-55910260D01*
X89749999Y-55910260D02*
X89716666Y-55843593D01*
X89716666Y-55843593D02*
X89716666Y-55776926D01*
X89716666Y-55776926D02*
X89749999Y-55710260D01*
X89749999Y-55710260D02*
X89816666Y-55676926D01*
X89816666Y-55676926D02*
X89983333Y-55676926D01*
X89983333Y-55676926D02*
X90049999Y-55643593D01*
X90316666Y-55943593D02*
X90683332Y-55476926D01*
X90316666Y-55476926D02*
X90683332Y-55943593D01*
X70727999Y-47447326D02*
X71261333Y-47447326D01*
X71928000Y-47013993D02*
X71594666Y-47013993D01*
X71594666Y-47013993D02*
X71561333Y-47347326D01*
X71561333Y-47347326D02*
X71594666Y-47313993D01*
X71594666Y-47313993D02*
X71661333Y-47280660D01*
X71661333Y-47280660D02*
X71828000Y-47280660D01*
X71828000Y-47280660D02*
X71894666Y-47313993D01*
X71894666Y-47313993D02*
X71928000Y-47347326D01*
X71928000Y-47347326D02*
X71961333Y-47413993D01*
X71961333Y-47413993D02*
X71961333Y-47580660D01*
X71961333Y-47580660D02*
X71928000Y-47647326D01*
X71928000Y-47647326D02*
X71894666Y-47680660D01*
X71894666Y-47680660D02*
X71828000Y-47713993D01*
X71828000Y-47713993D02*
X71661333Y-47713993D01*
X71661333Y-47713993D02*
X71594666Y-47680660D01*
X71594666Y-47680660D02*
X71561333Y-47647326D01*
X72161333Y-47013993D02*
X72394667Y-47713993D01*
X72394667Y-47713993D02*
X72628000Y-47013993D01*
D10*
X96257142Y-65224819D02*
X95923809Y-64748628D01*
X95685714Y-65224819D02*
X95685714Y-64224819D01*
X95685714Y-64224819D02*
X96066666Y-64224819D01*
X96066666Y-64224819D02*
X96161904Y-64272438D01*
X96161904Y-64272438D02*
X96209523Y-64320057D01*
X96209523Y-64320057D02*
X96257142Y-64415295D01*
X96257142Y-64415295D02*
X96257142Y-64558152D01*
X96257142Y-64558152D02*
X96209523Y-64653390D01*
X96209523Y-64653390D02*
X96161904Y-64701009D01*
X96161904Y-64701009D02*
X96066666Y-64748628D01*
X96066666Y-64748628D02*
X95685714Y-64748628D01*
X97209523Y-65224819D02*
X96638095Y-65224819D01*
X96923809Y-65224819D02*
X96923809Y-64224819D01*
X96923809Y-64224819D02*
X96828571Y-64367676D01*
X96828571Y-64367676D02*
X96733333Y-64462914D01*
X96733333Y-64462914D02*
X96638095Y-64510533D01*
X97590476Y-64320057D02*
X97638095Y-64272438D01*
X97638095Y-64272438D02*
X97733333Y-64224819D01*
X97733333Y-64224819D02*
X97971428Y-64224819D01*
X97971428Y-64224819D02*
X98066666Y-64272438D01*
X98066666Y-64272438D02*
X98114285Y-64320057D01*
X98114285Y-64320057D02*
X98161904Y-64415295D01*
X98161904Y-64415295D02*
X98161904Y-64510533D01*
X98161904Y-64510533D02*
X98114285Y-64653390D01*
X98114285Y-64653390D02*
X97542857Y-65224819D01*
X97542857Y-65224819D02*
X98161904Y-65224819D01*
X96057142Y-67659580D02*
X96009523Y-67707200D01*
X96009523Y-67707200D02*
X95866666Y-67754819D01*
X95866666Y-67754819D02*
X95771428Y-67754819D01*
X95771428Y-67754819D02*
X95628571Y-67707200D01*
X95628571Y-67707200D02*
X95533333Y-67611961D01*
X95533333Y-67611961D02*
X95485714Y-67516723D01*
X95485714Y-67516723D02*
X95438095Y-67326247D01*
X95438095Y-67326247D02*
X95438095Y-67183390D01*
X95438095Y-67183390D02*
X95485714Y-66992914D01*
X95485714Y-66992914D02*
X95533333Y-66897676D01*
X95533333Y-66897676D02*
X95628571Y-66802438D01*
X95628571Y-66802438D02*
X95771428Y-66754819D01*
X95771428Y-66754819D02*
X95866666Y-66754819D01*
X95866666Y-66754819D02*
X96009523Y-66802438D01*
X96009523Y-66802438D02*
X96057142Y-66850057D01*
X96438095Y-66850057D02*
X96485714Y-66802438D01*
X96485714Y-66802438D02*
X96580952Y-66754819D01*
X96580952Y-66754819D02*
X96819047Y-66754819D01*
X96819047Y-66754819D02*
X96914285Y-66802438D01*
X96914285Y-66802438D02*
X96961904Y-66850057D01*
X96961904Y-66850057D02*
X97009523Y-66945295D01*
X97009523Y-66945295D02*
X97009523Y-67040533D01*
X97009523Y-67040533D02*
X96961904Y-67183390D01*
X96961904Y-67183390D02*
X96390476Y-67754819D01*
X96390476Y-67754819D02*
X97009523Y-67754819D01*
X97866666Y-67088152D02*
X97866666Y-67754819D01*
X97628571Y-66707200D02*
X97390476Y-67421485D01*
X97390476Y-67421485D02*
X98009523Y-67421485D01*
X75779333Y-44904819D02*
X75446000Y-44428628D01*
X75207905Y-44904819D02*
X75207905Y-43904819D01*
X75207905Y-43904819D02*
X75588857Y-43904819D01*
X75588857Y-43904819D02*
X75684095Y-43952438D01*
X75684095Y-43952438D02*
X75731714Y-44000057D01*
X75731714Y-44000057D02*
X75779333Y-44095295D01*
X75779333Y-44095295D02*
X75779333Y-44238152D01*
X75779333Y-44238152D02*
X75731714Y-44333390D01*
X75731714Y-44333390D02*
X75684095Y-44381009D01*
X75684095Y-44381009D02*
X75588857Y-44428628D01*
X75588857Y-44428628D02*
X75207905Y-44428628D01*
X76112667Y-43904819D02*
X76779333Y-43904819D01*
X76779333Y-43904819D02*
X76350762Y-44904819D01*
X57038095Y-64754819D02*
X57038095Y-65564342D01*
X57038095Y-65564342D02*
X57085714Y-65659580D01*
X57085714Y-65659580D02*
X57133333Y-65707200D01*
X57133333Y-65707200D02*
X57228571Y-65754819D01*
X57228571Y-65754819D02*
X57419047Y-65754819D01*
X57419047Y-65754819D02*
X57514285Y-65707200D01*
X57514285Y-65707200D02*
X57561904Y-65659580D01*
X57561904Y-65659580D02*
X57609523Y-65564342D01*
X57609523Y-65564342D02*
X57609523Y-64754819D01*
X57990476Y-64754819D02*
X58609523Y-64754819D01*
X58609523Y-64754819D02*
X58276190Y-65135771D01*
X58276190Y-65135771D02*
X58419047Y-65135771D01*
X58419047Y-65135771D02*
X58514285Y-65183390D01*
X58514285Y-65183390D02*
X58561904Y-65231009D01*
X58561904Y-65231009D02*
X58609523Y-65326247D01*
X58609523Y-65326247D02*
X58609523Y-65564342D01*
X58609523Y-65564342D02*
X58561904Y-65659580D01*
X58561904Y-65659580D02*
X58514285Y-65707200D01*
X58514285Y-65707200D02*
X58419047Y-65754819D01*
X58419047Y-65754819D02*
X58133333Y-65754819D01*
X58133333Y-65754819D02*
X58038095Y-65707200D01*
X58038095Y-65707200D02*
X57990476Y-65659580D01*
X77938333Y-36046580D02*
X77890714Y-36094200D01*
X77890714Y-36094200D02*
X77747857Y-36141819D01*
X77747857Y-36141819D02*
X77652619Y-36141819D01*
X77652619Y-36141819D02*
X77509762Y-36094200D01*
X77509762Y-36094200D02*
X77414524Y-35998961D01*
X77414524Y-35998961D02*
X77366905Y-35903723D01*
X77366905Y-35903723D02*
X77319286Y-35713247D01*
X77319286Y-35713247D02*
X77319286Y-35570390D01*
X77319286Y-35570390D02*
X77366905Y-35379914D01*
X77366905Y-35379914D02*
X77414524Y-35284676D01*
X77414524Y-35284676D02*
X77509762Y-35189438D01*
X77509762Y-35189438D02*
X77652619Y-35141819D01*
X77652619Y-35141819D02*
X77747857Y-35141819D01*
X77747857Y-35141819D02*
X77890714Y-35189438D01*
X77890714Y-35189438D02*
X77938333Y-35237057D01*
X78890714Y-36141819D02*
X78319286Y-36141819D01*
X78605000Y-36141819D02*
X78605000Y-35141819D01*
X78605000Y-35141819D02*
X78509762Y-35284676D01*
X78509762Y-35284676D02*
X78414524Y-35379914D01*
X78414524Y-35379914D02*
X78319286Y-35427533D01*
X128897142Y-52683580D02*
X128849523Y-52731200D01*
X128849523Y-52731200D02*
X128706666Y-52778819D01*
X128706666Y-52778819D02*
X128611428Y-52778819D01*
X128611428Y-52778819D02*
X128468571Y-52731200D01*
X128468571Y-52731200D02*
X128373333Y-52635961D01*
X128373333Y-52635961D02*
X128325714Y-52540723D01*
X128325714Y-52540723D02*
X128278095Y-52350247D01*
X128278095Y-52350247D02*
X128278095Y-52207390D01*
X128278095Y-52207390D02*
X128325714Y-52016914D01*
X128325714Y-52016914D02*
X128373333Y-51921676D01*
X128373333Y-51921676D02*
X128468571Y-51826438D01*
X128468571Y-51826438D02*
X128611428Y-51778819D01*
X128611428Y-51778819D02*
X128706666Y-51778819D01*
X128706666Y-51778819D02*
X128849523Y-51826438D01*
X128849523Y-51826438D02*
X128897142Y-51874057D01*
X129849523Y-52778819D02*
X129278095Y-52778819D01*
X129563809Y-52778819D02*
X129563809Y-51778819D01*
X129563809Y-51778819D02*
X129468571Y-51921676D01*
X129468571Y-51921676D02*
X129373333Y-52016914D01*
X129373333Y-52016914D02*
X129278095Y-52064533D01*
X130801904Y-52778819D02*
X130230476Y-52778819D01*
X130516190Y-52778819D02*
X130516190Y-51778819D01*
X130516190Y-51778819D02*
X130420952Y-51921676D01*
X130420952Y-51921676D02*
X130325714Y-52016914D01*
X130325714Y-52016914D02*
X130230476Y-52064533D01*
X95877142Y-44174580D02*
X95829523Y-44222200D01*
X95829523Y-44222200D02*
X95686666Y-44269819D01*
X95686666Y-44269819D02*
X95591428Y-44269819D01*
X95591428Y-44269819D02*
X95448571Y-44222200D01*
X95448571Y-44222200D02*
X95353333Y-44126961D01*
X95353333Y-44126961D02*
X95305714Y-44031723D01*
X95305714Y-44031723D02*
X95258095Y-43841247D01*
X95258095Y-43841247D02*
X95258095Y-43698390D01*
X95258095Y-43698390D02*
X95305714Y-43507914D01*
X95305714Y-43507914D02*
X95353333Y-43412676D01*
X95353333Y-43412676D02*
X95448571Y-43317438D01*
X95448571Y-43317438D02*
X95591428Y-43269819D01*
X95591428Y-43269819D02*
X95686666Y-43269819D01*
X95686666Y-43269819D02*
X95829523Y-43317438D01*
X95829523Y-43317438D02*
X95877142Y-43365057D01*
X96829523Y-44269819D02*
X96258095Y-44269819D01*
X96543809Y-44269819D02*
X96543809Y-43269819D01*
X96543809Y-43269819D02*
X96448571Y-43412676D01*
X96448571Y-43412676D02*
X96353333Y-43507914D01*
X96353333Y-43507914D02*
X96258095Y-43555533D01*
X97686666Y-43269819D02*
X97496190Y-43269819D01*
X97496190Y-43269819D02*
X97400952Y-43317438D01*
X97400952Y-43317438D02*
X97353333Y-43365057D01*
X97353333Y-43365057D02*
X97258095Y-43507914D01*
X97258095Y-43507914D02*
X97210476Y-43698390D01*
X97210476Y-43698390D02*
X97210476Y-44079342D01*
X97210476Y-44079342D02*
X97258095Y-44174580D01*
X97258095Y-44174580D02*
X97305714Y-44222200D01*
X97305714Y-44222200D02*
X97400952Y-44269819D01*
X97400952Y-44269819D02*
X97591428Y-44269819D01*
X97591428Y-44269819D02*
X97686666Y-44222200D01*
X97686666Y-44222200D02*
X97734285Y-44174580D01*
X97734285Y-44174580D02*
X97781904Y-44079342D01*
X97781904Y-44079342D02*
X97781904Y-43841247D01*
X97781904Y-43841247D02*
X97734285Y-43746009D01*
X97734285Y-43746009D02*
X97686666Y-43698390D01*
X97686666Y-43698390D02*
X97591428Y-43650771D01*
X97591428Y-43650771D02*
X97400952Y-43650771D01*
X97400952Y-43650771D02*
X97305714Y-43698390D01*
X97305714Y-43698390D02*
X97258095Y-43746009D01*
X97258095Y-43746009D02*
X97210476Y-43841247D01*
X93813333Y-39094580D02*
X93765714Y-39142200D01*
X93765714Y-39142200D02*
X93622857Y-39189819D01*
X93622857Y-39189819D02*
X93527619Y-39189819D01*
X93527619Y-39189819D02*
X93384762Y-39142200D01*
X93384762Y-39142200D02*
X93289524Y-39046961D01*
X93289524Y-39046961D02*
X93241905Y-38951723D01*
X93241905Y-38951723D02*
X93194286Y-38761247D01*
X93194286Y-38761247D02*
X93194286Y-38618390D01*
X93194286Y-38618390D02*
X93241905Y-38427914D01*
X93241905Y-38427914D02*
X93289524Y-38332676D01*
X93289524Y-38332676D02*
X93384762Y-38237438D01*
X93384762Y-38237438D02*
X93527619Y-38189819D01*
X93527619Y-38189819D02*
X93622857Y-38189819D01*
X93622857Y-38189819D02*
X93765714Y-38237438D01*
X93765714Y-38237438D02*
X93813333Y-38285057D01*
X94670476Y-38523152D02*
X94670476Y-39189819D01*
X94432381Y-38142200D02*
X94194286Y-38856485D01*
X94194286Y-38856485D02*
X94813333Y-38856485D01*
X115562142Y-70304819D02*
X115228809Y-69828628D01*
X114990714Y-70304819D02*
X114990714Y-69304819D01*
X114990714Y-69304819D02*
X115371666Y-69304819D01*
X115371666Y-69304819D02*
X115466904Y-69352438D01*
X115466904Y-69352438D02*
X115514523Y-69400057D01*
X115514523Y-69400057D02*
X115562142Y-69495295D01*
X115562142Y-69495295D02*
X115562142Y-69638152D01*
X115562142Y-69638152D02*
X115514523Y-69733390D01*
X115514523Y-69733390D02*
X115466904Y-69781009D01*
X115466904Y-69781009D02*
X115371666Y-69828628D01*
X115371666Y-69828628D02*
X114990714Y-69828628D01*
X116514523Y-70304819D02*
X115943095Y-70304819D01*
X116228809Y-70304819D02*
X116228809Y-69304819D01*
X116228809Y-69304819D02*
X116133571Y-69447676D01*
X116133571Y-69447676D02*
X116038333Y-69542914D01*
X116038333Y-69542914D02*
X115943095Y-69590533D01*
X117466904Y-70304819D02*
X116895476Y-70304819D01*
X117181190Y-70304819D02*
X117181190Y-69304819D01*
X117181190Y-69304819D02*
X117085952Y-69447676D01*
X117085952Y-69447676D02*
X116990714Y-69542914D01*
X116990714Y-69542914D02*
X116895476Y-69590533D01*
X115403333Y-46714580D02*
X115355714Y-46762200D01*
X115355714Y-46762200D02*
X115212857Y-46809819D01*
X115212857Y-46809819D02*
X115117619Y-46809819D01*
X115117619Y-46809819D02*
X114974762Y-46762200D01*
X114974762Y-46762200D02*
X114879524Y-46666961D01*
X114879524Y-46666961D02*
X114831905Y-46571723D01*
X114831905Y-46571723D02*
X114784286Y-46381247D01*
X114784286Y-46381247D02*
X114784286Y-46238390D01*
X114784286Y-46238390D02*
X114831905Y-46047914D01*
X114831905Y-46047914D02*
X114879524Y-45952676D01*
X114879524Y-45952676D02*
X114974762Y-45857438D01*
X114974762Y-45857438D02*
X115117619Y-45809819D01*
X115117619Y-45809819D02*
X115212857Y-45809819D01*
X115212857Y-45809819D02*
X115355714Y-45857438D01*
X115355714Y-45857438D02*
X115403333Y-45905057D01*
X115784286Y-45905057D02*
X115831905Y-45857438D01*
X115831905Y-45857438D02*
X115927143Y-45809819D01*
X115927143Y-45809819D02*
X116165238Y-45809819D01*
X116165238Y-45809819D02*
X116260476Y-45857438D01*
X116260476Y-45857438D02*
X116308095Y-45905057D01*
X116308095Y-45905057D02*
X116355714Y-46000295D01*
X116355714Y-46000295D02*
X116355714Y-46095533D01*
X116355714Y-46095533D02*
X116308095Y-46238390D01*
X116308095Y-46238390D02*
X115736667Y-46809819D01*
X115736667Y-46809819D02*
X116355714Y-46809819D01*
X142541666Y-71844819D02*
X142541666Y-72559104D01*
X142541666Y-72559104D02*
X142494047Y-72701961D01*
X142494047Y-72701961D02*
X142398809Y-72797200D01*
X142398809Y-72797200D02*
X142255952Y-72844819D01*
X142255952Y-72844819D02*
X142160714Y-72844819D01*
X142970238Y-71940057D02*
X143017857Y-71892438D01*
X143017857Y-71892438D02*
X143113095Y-71844819D01*
X143113095Y-71844819D02*
X143351190Y-71844819D01*
X143351190Y-71844819D02*
X143446428Y-71892438D01*
X143446428Y-71892438D02*
X143494047Y-71940057D01*
X143494047Y-71940057D02*
X143541666Y-72035295D01*
X143541666Y-72035295D02*
X143541666Y-72130533D01*
X143541666Y-72130533D02*
X143494047Y-72273390D01*
X143494047Y-72273390D02*
X142922619Y-72844819D01*
X142922619Y-72844819D02*
X143541666Y-72844819D01*
X73859580Y-63666666D02*
X73907200Y-63714285D01*
X73907200Y-63714285D02*
X73954819Y-63857142D01*
X73954819Y-63857142D02*
X73954819Y-63952380D01*
X73954819Y-63952380D02*
X73907200Y-64095237D01*
X73907200Y-64095237D02*
X73811961Y-64190475D01*
X73811961Y-64190475D02*
X73716723Y-64238094D01*
X73716723Y-64238094D02*
X73526247Y-64285713D01*
X73526247Y-64285713D02*
X73383390Y-64285713D01*
X73383390Y-64285713D02*
X73192914Y-64238094D01*
X73192914Y-64238094D02*
X73097676Y-64190475D01*
X73097676Y-64190475D02*
X73002438Y-64095237D01*
X73002438Y-64095237D02*
X72954819Y-63952380D01*
X72954819Y-63952380D02*
X72954819Y-63857142D01*
X72954819Y-63857142D02*
X73002438Y-63714285D01*
X73002438Y-63714285D02*
X73050057Y-63666666D01*
X72954819Y-63333332D02*
X72954819Y-62666666D01*
X72954819Y-62666666D02*
X73954819Y-63095237D01*
X128897142Y-38869796D02*
X128849523Y-38917416D01*
X128849523Y-38917416D02*
X128706666Y-38965035D01*
X128706666Y-38965035D02*
X128611428Y-38965035D01*
X128611428Y-38965035D02*
X128468571Y-38917416D01*
X128468571Y-38917416D02*
X128373333Y-38822177D01*
X128373333Y-38822177D02*
X128325714Y-38726939D01*
X128325714Y-38726939D02*
X128278095Y-38536463D01*
X128278095Y-38536463D02*
X128278095Y-38393606D01*
X128278095Y-38393606D02*
X128325714Y-38203130D01*
X128325714Y-38203130D02*
X128373333Y-38107892D01*
X128373333Y-38107892D02*
X128468571Y-38012654D01*
X128468571Y-38012654D02*
X128611428Y-37965035D01*
X128611428Y-37965035D02*
X128706666Y-37965035D01*
X128706666Y-37965035D02*
X128849523Y-38012654D01*
X128849523Y-38012654D02*
X128897142Y-38060273D01*
X129849523Y-38965035D02*
X129278095Y-38965035D01*
X129563809Y-38965035D02*
X129563809Y-37965035D01*
X129563809Y-37965035D02*
X129468571Y-38107892D01*
X129468571Y-38107892D02*
X129373333Y-38203130D01*
X129373333Y-38203130D02*
X129278095Y-38250749D01*
X130230476Y-38060273D02*
X130278095Y-38012654D01*
X130278095Y-38012654D02*
X130373333Y-37965035D01*
X130373333Y-37965035D02*
X130611428Y-37965035D01*
X130611428Y-37965035D02*
X130706666Y-38012654D01*
X130706666Y-38012654D02*
X130754285Y-38060273D01*
X130754285Y-38060273D02*
X130801904Y-38155511D01*
X130801904Y-38155511D02*
X130801904Y-38250749D01*
X130801904Y-38250749D02*
X130754285Y-38393606D01*
X130754285Y-38393606D02*
X130182857Y-38965035D01*
X130182857Y-38965035D02*
X130801904Y-38965035D01*
X104767142Y-70209580D02*
X104719523Y-70257200D01*
X104719523Y-70257200D02*
X104576666Y-70304819D01*
X104576666Y-70304819D02*
X104481428Y-70304819D01*
X104481428Y-70304819D02*
X104338571Y-70257200D01*
X104338571Y-70257200D02*
X104243333Y-70161961D01*
X104243333Y-70161961D02*
X104195714Y-70066723D01*
X104195714Y-70066723D02*
X104148095Y-69876247D01*
X104148095Y-69876247D02*
X104148095Y-69733390D01*
X104148095Y-69733390D02*
X104195714Y-69542914D01*
X104195714Y-69542914D02*
X104243333Y-69447676D01*
X104243333Y-69447676D02*
X104338571Y-69352438D01*
X104338571Y-69352438D02*
X104481428Y-69304819D01*
X104481428Y-69304819D02*
X104576666Y-69304819D01*
X104576666Y-69304819D02*
X104719523Y-69352438D01*
X104719523Y-69352438D02*
X104767142Y-69400057D01*
X105148095Y-69400057D02*
X105195714Y-69352438D01*
X105195714Y-69352438D02*
X105290952Y-69304819D01*
X105290952Y-69304819D02*
X105529047Y-69304819D01*
X105529047Y-69304819D02*
X105624285Y-69352438D01*
X105624285Y-69352438D02*
X105671904Y-69400057D01*
X105671904Y-69400057D02*
X105719523Y-69495295D01*
X105719523Y-69495295D02*
X105719523Y-69590533D01*
X105719523Y-69590533D02*
X105671904Y-69733390D01*
X105671904Y-69733390D02*
X105100476Y-70304819D01*
X105100476Y-70304819D02*
X105719523Y-70304819D01*
X106671904Y-70304819D02*
X106100476Y-70304819D01*
X106386190Y-70304819D02*
X106386190Y-69304819D01*
X106386190Y-69304819D02*
X106290952Y-69447676D01*
X106290952Y-69447676D02*
X106195714Y-69542914D01*
X106195714Y-69542914D02*
X106100476Y-69590533D01*
X85838095Y-67954819D02*
X85838095Y-68764342D01*
X85838095Y-68764342D02*
X85885714Y-68859580D01*
X85885714Y-68859580D02*
X85933333Y-68907200D01*
X85933333Y-68907200D02*
X86028571Y-68954819D01*
X86028571Y-68954819D02*
X86219047Y-68954819D01*
X86219047Y-68954819D02*
X86314285Y-68907200D01*
X86314285Y-68907200D02*
X86361904Y-68859580D01*
X86361904Y-68859580D02*
X86409523Y-68764342D01*
X86409523Y-68764342D02*
X86409523Y-67954819D01*
X87314285Y-67954819D02*
X87123809Y-67954819D01*
X87123809Y-67954819D02*
X87028571Y-68002438D01*
X87028571Y-68002438D02*
X86980952Y-68050057D01*
X86980952Y-68050057D02*
X86885714Y-68192914D01*
X86885714Y-68192914D02*
X86838095Y-68383390D01*
X86838095Y-68383390D02*
X86838095Y-68764342D01*
X86838095Y-68764342D02*
X86885714Y-68859580D01*
X86885714Y-68859580D02*
X86933333Y-68907200D01*
X86933333Y-68907200D02*
X87028571Y-68954819D01*
X87028571Y-68954819D02*
X87219047Y-68954819D01*
X87219047Y-68954819D02*
X87314285Y-68907200D01*
X87314285Y-68907200D02*
X87361904Y-68859580D01*
X87361904Y-68859580D02*
X87409523Y-68764342D01*
X87409523Y-68764342D02*
X87409523Y-68526247D01*
X87409523Y-68526247D02*
X87361904Y-68431009D01*
X87361904Y-68431009D02*
X87314285Y-68383390D01*
X87314285Y-68383390D02*
X87219047Y-68335771D01*
X87219047Y-68335771D02*
X87028571Y-68335771D01*
X87028571Y-68335771D02*
X86933333Y-68383390D01*
X86933333Y-68383390D02*
X86885714Y-68431009D01*
X86885714Y-68431009D02*
X86838095Y-68526247D01*
X115562142Y-62589580D02*
X115514523Y-62637200D01*
X115514523Y-62637200D02*
X115371666Y-62684819D01*
X115371666Y-62684819D02*
X115276428Y-62684819D01*
X115276428Y-62684819D02*
X115133571Y-62637200D01*
X115133571Y-62637200D02*
X115038333Y-62541961D01*
X115038333Y-62541961D02*
X114990714Y-62446723D01*
X114990714Y-62446723D02*
X114943095Y-62256247D01*
X114943095Y-62256247D02*
X114943095Y-62113390D01*
X114943095Y-62113390D02*
X114990714Y-61922914D01*
X114990714Y-61922914D02*
X115038333Y-61827676D01*
X115038333Y-61827676D02*
X115133571Y-61732438D01*
X115133571Y-61732438D02*
X115276428Y-61684819D01*
X115276428Y-61684819D02*
X115371666Y-61684819D01*
X115371666Y-61684819D02*
X115514523Y-61732438D01*
X115514523Y-61732438D02*
X115562142Y-61780057D01*
X115943095Y-61780057D02*
X115990714Y-61732438D01*
X115990714Y-61732438D02*
X116085952Y-61684819D01*
X116085952Y-61684819D02*
X116324047Y-61684819D01*
X116324047Y-61684819D02*
X116419285Y-61732438D01*
X116419285Y-61732438D02*
X116466904Y-61780057D01*
X116466904Y-61780057D02*
X116514523Y-61875295D01*
X116514523Y-61875295D02*
X116514523Y-61970533D01*
X116514523Y-61970533D02*
X116466904Y-62113390D01*
X116466904Y-62113390D02*
X115895476Y-62684819D01*
X115895476Y-62684819D02*
X116514523Y-62684819D01*
X116847857Y-61684819D02*
X117466904Y-61684819D01*
X117466904Y-61684819D02*
X117133571Y-62065771D01*
X117133571Y-62065771D02*
X117276428Y-62065771D01*
X117276428Y-62065771D02*
X117371666Y-62113390D01*
X117371666Y-62113390D02*
X117419285Y-62161009D01*
X117419285Y-62161009D02*
X117466904Y-62256247D01*
X117466904Y-62256247D02*
X117466904Y-62494342D01*
X117466904Y-62494342D02*
X117419285Y-62589580D01*
X117419285Y-62589580D02*
X117371666Y-62637200D01*
X117371666Y-62637200D02*
X117276428Y-62684819D01*
X117276428Y-62684819D02*
X116990714Y-62684819D01*
X116990714Y-62684819D02*
X116895476Y-62637200D01*
X116895476Y-62637200D02*
X116847857Y-62589580D01*
X105711666Y-28537819D02*
X105711666Y-29252104D01*
X105711666Y-29252104D02*
X105664047Y-29394961D01*
X105664047Y-29394961D02*
X105568809Y-29490200D01*
X105568809Y-29490200D02*
X105425952Y-29537819D01*
X105425952Y-29537819D02*
X105330714Y-29537819D01*
X106092619Y-28537819D02*
X106711666Y-28537819D01*
X106711666Y-28537819D02*
X106378333Y-28918771D01*
X106378333Y-28918771D02*
X106521190Y-28918771D01*
X106521190Y-28918771D02*
X106616428Y-28966390D01*
X106616428Y-28966390D02*
X106664047Y-29014009D01*
X106664047Y-29014009D02*
X106711666Y-29109247D01*
X106711666Y-29109247D02*
X106711666Y-29347342D01*
X106711666Y-29347342D02*
X106664047Y-29442580D01*
X106664047Y-29442580D02*
X106616428Y-29490200D01*
X106616428Y-29490200D02*
X106521190Y-29537819D01*
X106521190Y-29537819D02*
X106235476Y-29537819D01*
X106235476Y-29537819D02*
X106140238Y-29490200D01*
X106140238Y-29490200D02*
X106092619Y-29442580D01*
X115403333Y-44269819D02*
X115070000Y-43793628D01*
X114831905Y-44269819D02*
X114831905Y-43269819D01*
X114831905Y-43269819D02*
X115212857Y-43269819D01*
X115212857Y-43269819D02*
X115308095Y-43317438D01*
X115308095Y-43317438D02*
X115355714Y-43365057D01*
X115355714Y-43365057D02*
X115403333Y-43460295D01*
X115403333Y-43460295D02*
X115403333Y-43603152D01*
X115403333Y-43603152D02*
X115355714Y-43698390D01*
X115355714Y-43698390D02*
X115308095Y-43746009D01*
X115308095Y-43746009D02*
X115212857Y-43793628D01*
X115212857Y-43793628D02*
X114831905Y-43793628D01*
X115784286Y-43365057D02*
X115831905Y-43317438D01*
X115831905Y-43317438D02*
X115927143Y-43269819D01*
X115927143Y-43269819D02*
X116165238Y-43269819D01*
X116165238Y-43269819D02*
X116260476Y-43317438D01*
X116260476Y-43317438D02*
X116308095Y-43365057D01*
X116308095Y-43365057D02*
X116355714Y-43460295D01*
X116355714Y-43460295D02*
X116355714Y-43555533D01*
X116355714Y-43555533D02*
X116308095Y-43698390D01*
X116308095Y-43698390D02*
X115736667Y-44269819D01*
X115736667Y-44269819D02*
X116355714Y-44269819D01*
X86741095Y-43523819D02*
X86741095Y-44333342D01*
X86741095Y-44333342D02*
X86788714Y-44428580D01*
X86788714Y-44428580D02*
X86836333Y-44476200D01*
X86836333Y-44476200D02*
X86931571Y-44523819D01*
X86931571Y-44523819D02*
X87122047Y-44523819D01*
X87122047Y-44523819D02*
X87217285Y-44476200D01*
X87217285Y-44476200D02*
X87264904Y-44428580D01*
X87264904Y-44428580D02*
X87312523Y-44333342D01*
X87312523Y-44333342D02*
X87312523Y-43523819D01*
X88312523Y-44523819D02*
X87741095Y-44523819D01*
X88026809Y-44523819D02*
X88026809Y-43523819D01*
X88026809Y-43523819D02*
X87931571Y-43666676D01*
X87931571Y-43666676D02*
X87836333Y-43761914D01*
X87836333Y-43761914D02*
X87741095Y-43809533D01*
X116038333Y-67764819D02*
X115705000Y-67288628D01*
X115466905Y-67764819D02*
X115466905Y-66764819D01*
X115466905Y-66764819D02*
X115847857Y-66764819D01*
X115847857Y-66764819D02*
X115943095Y-66812438D01*
X115943095Y-66812438D02*
X115990714Y-66860057D01*
X115990714Y-66860057D02*
X116038333Y-66955295D01*
X116038333Y-66955295D02*
X116038333Y-67098152D01*
X116038333Y-67098152D02*
X115990714Y-67193390D01*
X115990714Y-67193390D02*
X115943095Y-67241009D01*
X115943095Y-67241009D02*
X115847857Y-67288628D01*
X115847857Y-67288628D02*
X115466905Y-67288628D01*
X116514524Y-67764819D02*
X116705000Y-67764819D01*
X116705000Y-67764819D02*
X116800238Y-67717200D01*
X116800238Y-67717200D02*
X116847857Y-67669580D01*
X116847857Y-67669580D02*
X116943095Y-67526723D01*
X116943095Y-67526723D02*
X116990714Y-67336247D01*
X116990714Y-67336247D02*
X116990714Y-66955295D01*
X116990714Y-66955295D02*
X116943095Y-66860057D01*
X116943095Y-66860057D02*
X116895476Y-66812438D01*
X116895476Y-66812438D02*
X116800238Y-66764819D01*
X116800238Y-66764819D02*
X116609762Y-66764819D01*
X116609762Y-66764819D02*
X116514524Y-66812438D01*
X116514524Y-66812438D02*
X116466905Y-66860057D01*
X116466905Y-66860057D02*
X116419286Y-66955295D01*
X116419286Y-66955295D02*
X116419286Y-67193390D01*
X116419286Y-67193390D02*
X116466905Y-67288628D01*
X116466905Y-67288628D02*
X116514524Y-67336247D01*
X116514524Y-67336247D02*
X116609762Y-67383866D01*
X116609762Y-67383866D02*
X116800238Y-67383866D01*
X116800238Y-67383866D02*
X116895476Y-67336247D01*
X116895476Y-67336247D02*
X116943095Y-67288628D01*
X116943095Y-67288628D02*
X116990714Y-67193390D01*
X73859580Y-56942857D02*
X73907200Y-56990476D01*
X73907200Y-56990476D02*
X73954819Y-57133333D01*
X73954819Y-57133333D02*
X73954819Y-57228571D01*
X73954819Y-57228571D02*
X73907200Y-57371428D01*
X73907200Y-57371428D02*
X73811961Y-57466666D01*
X73811961Y-57466666D02*
X73716723Y-57514285D01*
X73716723Y-57514285D02*
X73526247Y-57561904D01*
X73526247Y-57561904D02*
X73383390Y-57561904D01*
X73383390Y-57561904D02*
X73192914Y-57514285D01*
X73192914Y-57514285D02*
X73097676Y-57466666D01*
X73097676Y-57466666D02*
X73002438Y-57371428D01*
X73002438Y-57371428D02*
X72954819Y-57228571D01*
X72954819Y-57228571D02*
X72954819Y-57133333D01*
X72954819Y-57133333D02*
X73002438Y-56990476D01*
X73002438Y-56990476D02*
X73050057Y-56942857D01*
X73954819Y-55990476D02*
X73954819Y-56561904D01*
X73954819Y-56276190D02*
X72954819Y-56276190D01*
X72954819Y-56276190D02*
X73097676Y-56371428D01*
X73097676Y-56371428D02*
X73192914Y-56466666D01*
X73192914Y-56466666D02*
X73240533Y-56561904D01*
X72954819Y-55371428D02*
X72954819Y-55276190D01*
X72954819Y-55276190D02*
X73002438Y-55180952D01*
X73002438Y-55180952D02*
X73050057Y-55133333D01*
X73050057Y-55133333D02*
X73145295Y-55085714D01*
X73145295Y-55085714D02*
X73335771Y-55038095D01*
X73335771Y-55038095D02*
X73573866Y-55038095D01*
X73573866Y-55038095D02*
X73764342Y-55085714D01*
X73764342Y-55085714D02*
X73859580Y-55133333D01*
X73859580Y-55133333D02*
X73907200Y-55180952D01*
X73907200Y-55180952D02*
X73954819Y-55276190D01*
X73954819Y-55276190D02*
X73954819Y-55371428D01*
X73954819Y-55371428D02*
X73907200Y-55466666D01*
X73907200Y-55466666D02*
X73859580Y-55514285D01*
X73859580Y-55514285D02*
X73764342Y-55561904D01*
X73764342Y-55561904D02*
X73573866Y-55609523D01*
X73573866Y-55609523D02*
X73335771Y-55609523D01*
X73335771Y-55609523D02*
X73145295Y-55561904D01*
X73145295Y-55561904D02*
X73050057Y-55514285D01*
X73050057Y-55514285D02*
X73002438Y-55466666D01*
X73002438Y-55466666D02*
X72954819Y-55371428D01*
X115403333Y-41729819D02*
X115070000Y-41253628D01*
X114831905Y-41729819D02*
X114831905Y-40729819D01*
X114831905Y-40729819D02*
X115212857Y-40729819D01*
X115212857Y-40729819D02*
X115308095Y-40777438D01*
X115308095Y-40777438D02*
X115355714Y-40825057D01*
X115355714Y-40825057D02*
X115403333Y-40920295D01*
X115403333Y-40920295D02*
X115403333Y-41063152D01*
X115403333Y-41063152D02*
X115355714Y-41158390D01*
X115355714Y-41158390D02*
X115308095Y-41206009D01*
X115308095Y-41206009D02*
X115212857Y-41253628D01*
X115212857Y-41253628D02*
X114831905Y-41253628D01*
X115736667Y-40729819D02*
X116355714Y-40729819D01*
X116355714Y-40729819D02*
X116022381Y-41110771D01*
X116022381Y-41110771D02*
X116165238Y-41110771D01*
X116165238Y-41110771D02*
X116260476Y-41158390D01*
X116260476Y-41158390D02*
X116308095Y-41206009D01*
X116308095Y-41206009D02*
X116355714Y-41301247D01*
X116355714Y-41301247D02*
X116355714Y-41539342D01*
X116355714Y-41539342D02*
X116308095Y-41634580D01*
X116308095Y-41634580D02*
X116260476Y-41682200D01*
X116260476Y-41682200D02*
X116165238Y-41729819D01*
X116165238Y-41729819D02*
X115879524Y-41729819D01*
X115879524Y-41729819D02*
X115784286Y-41682200D01*
X115784286Y-41682200D02*
X115736667Y-41634580D01*
X131746666Y-71844819D02*
X131746666Y-72559104D01*
X131746666Y-72559104D02*
X131699047Y-72701961D01*
X131699047Y-72701961D02*
X131603809Y-72797200D01*
X131603809Y-72797200D02*
X131460952Y-72844819D01*
X131460952Y-72844819D02*
X131365714Y-72844819D01*
X132651428Y-72178152D02*
X132651428Y-72844819D01*
X132413333Y-71797200D02*
X132175238Y-72511485D01*
X132175238Y-72511485D02*
X132794285Y-72511485D01*
X88261905Y-36268819D02*
X88261905Y-35268819D01*
X88261905Y-35268819D02*
X88500000Y-35268819D01*
X88500000Y-35268819D02*
X88642857Y-35316438D01*
X88642857Y-35316438D02*
X88738095Y-35411676D01*
X88738095Y-35411676D02*
X88785714Y-35506914D01*
X88785714Y-35506914D02*
X88833333Y-35697390D01*
X88833333Y-35697390D02*
X88833333Y-35840247D01*
X88833333Y-35840247D02*
X88785714Y-36030723D01*
X88785714Y-36030723D02*
X88738095Y-36125961D01*
X88738095Y-36125961D02*
X88642857Y-36221200D01*
X88642857Y-36221200D02*
X88500000Y-36268819D01*
X88500000Y-36268819D02*
X88261905Y-36268819D01*
X89785714Y-36268819D02*
X89214286Y-36268819D01*
X89500000Y-36268819D02*
X89500000Y-35268819D01*
X89500000Y-35268819D02*
X89404762Y-35411676D01*
X89404762Y-35411676D02*
X89309524Y-35506914D01*
X89309524Y-35506914D02*
X89214286Y-35554533D01*
X105918095Y-60824819D02*
X105918095Y-61634342D01*
X105918095Y-61634342D02*
X105965714Y-61729580D01*
X105965714Y-61729580D02*
X106013333Y-61777200D01*
X106013333Y-61777200D02*
X106108571Y-61824819D01*
X106108571Y-61824819D02*
X106299047Y-61824819D01*
X106299047Y-61824819D02*
X106394285Y-61777200D01*
X106394285Y-61777200D02*
X106441904Y-61729580D01*
X106441904Y-61729580D02*
X106489523Y-61634342D01*
X106489523Y-61634342D02*
X106489523Y-60824819D01*
X106870476Y-60824819D02*
X107537142Y-60824819D01*
X107537142Y-60824819D02*
X107108571Y-61824819D01*
X144105333Y-52175580D02*
X144057714Y-52223200D01*
X144057714Y-52223200D02*
X143914857Y-52270819D01*
X143914857Y-52270819D02*
X143819619Y-52270819D01*
X143819619Y-52270819D02*
X143676762Y-52223200D01*
X143676762Y-52223200D02*
X143581524Y-52127961D01*
X143581524Y-52127961D02*
X143533905Y-52032723D01*
X143533905Y-52032723D02*
X143486286Y-51842247D01*
X143486286Y-51842247D02*
X143486286Y-51699390D01*
X143486286Y-51699390D02*
X143533905Y-51508914D01*
X143533905Y-51508914D02*
X143581524Y-51413676D01*
X143581524Y-51413676D02*
X143676762Y-51318438D01*
X143676762Y-51318438D02*
X143819619Y-51270819D01*
X143819619Y-51270819D02*
X143914857Y-51270819D01*
X143914857Y-51270819D02*
X144057714Y-51318438D01*
X144057714Y-51318438D02*
X144105333Y-51366057D01*
X144581524Y-52270819D02*
X144772000Y-52270819D01*
X144772000Y-52270819D02*
X144867238Y-52223200D01*
X144867238Y-52223200D02*
X144914857Y-52175580D01*
X144914857Y-52175580D02*
X145010095Y-52032723D01*
X145010095Y-52032723D02*
X145057714Y-51842247D01*
X145057714Y-51842247D02*
X145057714Y-51461295D01*
X145057714Y-51461295D02*
X145010095Y-51366057D01*
X145010095Y-51366057D02*
X144962476Y-51318438D01*
X144962476Y-51318438D02*
X144867238Y-51270819D01*
X144867238Y-51270819D02*
X144676762Y-51270819D01*
X144676762Y-51270819D02*
X144581524Y-51318438D01*
X144581524Y-51318438D02*
X144533905Y-51366057D01*
X144533905Y-51366057D02*
X144486286Y-51461295D01*
X144486286Y-51461295D02*
X144486286Y-51699390D01*
X144486286Y-51699390D02*
X144533905Y-51794628D01*
X144533905Y-51794628D02*
X144581524Y-51842247D01*
X144581524Y-51842247D02*
X144676762Y-51889866D01*
X144676762Y-51889866D02*
X144867238Y-51889866D01*
X144867238Y-51889866D02*
X144962476Y-51842247D01*
X144962476Y-51842247D02*
X145010095Y-51794628D01*
X145010095Y-51794628D02*
X145057714Y-51699390D01*
X92194142Y-69828580D02*
X92146523Y-69876200D01*
X92146523Y-69876200D02*
X92003666Y-69923819D01*
X92003666Y-69923819D02*
X91908428Y-69923819D01*
X91908428Y-69923819D02*
X91765571Y-69876200D01*
X91765571Y-69876200D02*
X91670333Y-69780961D01*
X91670333Y-69780961D02*
X91622714Y-69685723D01*
X91622714Y-69685723D02*
X91575095Y-69495247D01*
X91575095Y-69495247D02*
X91575095Y-69352390D01*
X91575095Y-69352390D02*
X91622714Y-69161914D01*
X91622714Y-69161914D02*
X91670333Y-69066676D01*
X91670333Y-69066676D02*
X91765571Y-68971438D01*
X91765571Y-68971438D02*
X91908428Y-68923819D01*
X91908428Y-68923819D02*
X92003666Y-68923819D01*
X92003666Y-68923819D02*
X92146523Y-68971438D01*
X92146523Y-68971438D02*
X92194142Y-69019057D01*
X92575095Y-69019057D02*
X92622714Y-68971438D01*
X92622714Y-68971438D02*
X92717952Y-68923819D01*
X92717952Y-68923819D02*
X92956047Y-68923819D01*
X92956047Y-68923819D02*
X93051285Y-68971438D01*
X93051285Y-68971438D02*
X93098904Y-69019057D01*
X93098904Y-69019057D02*
X93146523Y-69114295D01*
X93146523Y-69114295D02*
X93146523Y-69209533D01*
X93146523Y-69209533D02*
X93098904Y-69352390D01*
X93098904Y-69352390D02*
X92527476Y-69923819D01*
X92527476Y-69923819D02*
X93146523Y-69923819D01*
X93765571Y-68923819D02*
X93860809Y-68923819D01*
X93860809Y-68923819D02*
X93956047Y-68971438D01*
X93956047Y-68971438D02*
X94003666Y-69019057D01*
X94003666Y-69019057D02*
X94051285Y-69114295D01*
X94051285Y-69114295D02*
X94098904Y-69304771D01*
X94098904Y-69304771D02*
X94098904Y-69542866D01*
X94098904Y-69542866D02*
X94051285Y-69733342D01*
X94051285Y-69733342D02*
X94003666Y-69828580D01*
X94003666Y-69828580D02*
X93956047Y-69876200D01*
X93956047Y-69876200D02*
X93860809Y-69923819D01*
X93860809Y-69923819D02*
X93765571Y-69923819D01*
X93765571Y-69923819D02*
X93670333Y-69876200D01*
X93670333Y-69876200D02*
X93622714Y-69828580D01*
X93622714Y-69828580D02*
X93575095Y-69733342D01*
X93575095Y-69733342D02*
X93527476Y-69542866D01*
X93527476Y-69542866D02*
X93527476Y-69304771D01*
X93527476Y-69304771D02*
X93575095Y-69114295D01*
X93575095Y-69114295D02*
X93622714Y-69019057D01*
X93622714Y-69019057D02*
X93670333Y-68971438D01*
X93670333Y-68971438D02*
X93765571Y-68923819D01*
X73859580Y-53342857D02*
X73907200Y-53390476D01*
X73907200Y-53390476D02*
X73954819Y-53533333D01*
X73954819Y-53533333D02*
X73954819Y-53628571D01*
X73954819Y-53628571D02*
X73907200Y-53771428D01*
X73907200Y-53771428D02*
X73811961Y-53866666D01*
X73811961Y-53866666D02*
X73716723Y-53914285D01*
X73716723Y-53914285D02*
X73526247Y-53961904D01*
X73526247Y-53961904D02*
X73383390Y-53961904D01*
X73383390Y-53961904D02*
X73192914Y-53914285D01*
X73192914Y-53914285D02*
X73097676Y-53866666D01*
X73097676Y-53866666D02*
X73002438Y-53771428D01*
X73002438Y-53771428D02*
X72954819Y-53628571D01*
X72954819Y-53628571D02*
X72954819Y-53533333D01*
X72954819Y-53533333D02*
X73002438Y-53390476D01*
X73002438Y-53390476D02*
X73050057Y-53342857D01*
X73954819Y-52390476D02*
X73954819Y-52961904D01*
X73954819Y-52676190D02*
X72954819Y-52676190D01*
X72954819Y-52676190D02*
X73097676Y-52771428D01*
X73097676Y-52771428D02*
X73192914Y-52866666D01*
X73192914Y-52866666D02*
X73240533Y-52961904D01*
X72954819Y-52057142D02*
X72954819Y-51438095D01*
X72954819Y-51438095D02*
X73335771Y-51771428D01*
X73335771Y-51771428D02*
X73335771Y-51628571D01*
X73335771Y-51628571D02*
X73383390Y-51533333D01*
X73383390Y-51533333D02*
X73431009Y-51485714D01*
X73431009Y-51485714D02*
X73526247Y-51438095D01*
X73526247Y-51438095D02*
X73764342Y-51438095D01*
X73764342Y-51438095D02*
X73859580Y-51485714D01*
X73859580Y-51485714D02*
X73907200Y-51533333D01*
X73907200Y-51533333D02*
X73954819Y-51628571D01*
X73954819Y-51628571D02*
X73954819Y-51914285D01*
X73954819Y-51914285D02*
X73907200Y-52009523D01*
X73907200Y-52009523D02*
X73859580Y-52057142D01*
X67778333Y-47984580D02*
X67730714Y-48032200D01*
X67730714Y-48032200D02*
X67587857Y-48079819D01*
X67587857Y-48079819D02*
X67492619Y-48079819D01*
X67492619Y-48079819D02*
X67349762Y-48032200D01*
X67349762Y-48032200D02*
X67254524Y-47936961D01*
X67254524Y-47936961D02*
X67206905Y-47841723D01*
X67206905Y-47841723D02*
X67159286Y-47651247D01*
X67159286Y-47651247D02*
X67159286Y-47508390D01*
X67159286Y-47508390D02*
X67206905Y-47317914D01*
X67206905Y-47317914D02*
X67254524Y-47222676D01*
X67254524Y-47222676D02*
X67349762Y-47127438D01*
X67349762Y-47127438D02*
X67492619Y-47079819D01*
X67492619Y-47079819D02*
X67587857Y-47079819D01*
X67587857Y-47079819D02*
X67730714Y-47127438D01*
X67730714Y-47127438D02*
X67778333Y-47175057D01*
X68349762Y-47508390D02*
X68254524Y-47460771D01*
X68254524Y-47460771D02*
X68206905Y-47413152D01*
X68206905Y-47413152D02*
X68159286Y-47317914D01*
X68159286Y-47317914D02*
X68159286Y-47270295D01*
X68159286Y-47270295D02*
X68206905Y-47175057D01*
X68206905Y-47175057D02*
X68254524Y-47127438D01*
X68254524Y-47127438D02*
X68349762Y-47079819D01*
X68349762Y-47079819D02*
X68540238Y-47079819D01*
X68540238Y-47079819D02*
X68635476Y-47127438D01*
X68635476Y-47127438D02*
X68683095Y-47175057D01*
X68683095Y-47175057D02*
X68730714Y-47270295D01*
X68730714Y-47270295D02*
X68730714Y-47317914D01*
X68730714Y-47317914D02*
X68683095Y-47413152D01*
X68683095Y-47413152D02*
X68635476Y-47460771D01*
X68635476Y-47460771D02*
X68540238Y-47508390D01*
X68540238Y-47508390D02*
X68349762Y-47508390D01*
X68349762Y-47508390D02*
X68254524Y-47556009D01*
X68254524Y-47556009D02*
X68206905Y-47603628D01*
X68206905Y-47603628D02*
X68159286Y-47698866D01*
X68159286Y-47698866D02*
X68159286Y-47889342D01*
X68159286Y-47889342D02*
X68206905Y-47984580D01*
X68206905Y-47984580D02*
X68254524Y-48032200D01*
X68254524Y-48032200D02*
X68349762Y-48079819D01*
X68349762Y-48079819D02*
X68540238Y-48079819D01*
X68540238Y-48079819D02*
X68635476Y-48032200D01*
X68635476Y-48032200D02*
X68683095Y-47984580D01*
X68683095Y-47984580D02*
X68730714Y-47889342D01*
X68730714Y-47889342D02*
X68730714Y-47698866D01*
X68730714Y-47698866D02*
X68683095Y-47603628D01*
X68683095Y-47603628D02*
X68635476Y-47556009D01*
X68635476Y-47556009D02*
X68540238Y-47508390D01*
X93813333Y-41729819D02*
X93480000Y-41253628D01*
X93241905Y-41729819D02*
X93241905Y-40729819D01*
X93241905Y-40729819D02*
X93622857Y-40729819D01*
X93622857Y-40729819D02*
X93718095Y-40777438D01*
X93718095Y-40777438D02*
X93765714Y-40825057D01*
X93765714Y-40825057D02*
X93813333Y-40920295D01*
X93813333Y-40920295D02*
X93813333Y-41063152D01*
X93813333Y-41063152D02*
X93765714Y-41158390D01*
X93765714Y-41158390D02*
X93718095Y-41206009D01*
X93718095Y-41206009D02*
X93622857Y-41253628D01*
X93622857Y-41253628D02*
X93241905Y-41253628D01*
X94718095Y-40729819D02*
X94241905Y-40729819D01*
X94241905Y-40729819D02*
X94194286Y-41206009D01*
X94194286Y-41206009D02*
X94241905Y-41158390D01*
X94241905Y-41158390D02*
X94337143Y-41110771D01*
X94337143Y-41110771D02*
X94575238Y-41110771D01*
X94575238Y-41110771D02*
X94670476Y-41158390D01*
X94670476Y-41158390D02*
X94718095Y-41206009D01*
X94718095Y-41206009D02*
X94765714Y-41301247D01*
X94765714Y-41301247D02*
X94765714Y-41539342D01*
X94765714Y-41539342D02*
X94718095Y-41634580D01*
X94718095Y-41634580D02*
X94670476Y-41682200D01*
X94670476Y-41682200D02*
X94575238Y-41729819D01*
X94575238Y-41729819D02*
X94337143Y-41729819D01*
X94337143Y-41729819D02*
X94241905Y-41682200D01*
X94241905Y-41682200D02*
X94194286Y-41634580D01*
X93813333Y-44269819D02*
X93480000Y-43793628D01*
X93241905Y-44269819D02*
X93241905Y-43269819D01*
X93241905Y-43269819D02*
X93622857Y-43269819D01*
X93622857Y-43269819D02*
X93718095Y-43317438D01*
X93718095Y-43317438D02*
X93765714Y-43365057D01*
X93765714Y-43365057D02*
X93813333Y-43460295D01*
X93813333Y-43460295D02*
X93813333Y-43603152D01*
X93813333Y-43603152D02*
X93765714Y-43698390D01*
X93765714Y-43698390D02*
X93718095Y-43746009D01*
X93718095Y-43746009D02*
X93622857Y-43793628D01*
X93622857Y-43793628D02*
X93241905Y-43793628D01*
X94670476Y-43269819D02*
X94480000Y-43269819D01*
X94480000Y-43269819D02*
X94384762Y-43317438D01*
X94384762Y-43317438D02*
X94337143Y-43365057D01*
X94337143Y-43365057D02*
X94241905Y-43507914D01*
X94241905Y-43507914D02*
X94194286Y-43698390D01*
X94194286Y-43698390D02*
X94194286Y-44079342D01*
X94194286Y-44079342D02*
X94241905Y-44174580D01*
X94241905Y-44174580D02*
X94289524Y-44222200D01*
X94289524Y-44222200D02*
X94384762Y-44269819D01*
X94384762Y-44269819D02*
X94575238Y-44269819D01*
X94575238Y-44269819D02*
X94670476Y-44222200D01*
X94670476Y-44222200D02*
X94718095Y-44174580D01*
X94718095Y-44174580D02*
X94765714Y-44079342D01*
X94765714Y-44079342D02*
X94765714Y-43841247D01*
X94765714Y-43841247D02*
X94718095Y-43746009D01*
X94718095Y-43746009D02*
X94670476Y-43698390D01*
X94670476Y-43698390D02*
X94575238Y-43650771D01*
X94575238Y-43650771D02*
X94384762Y-43650771D01*
X94384762Y-43650771D02*
X94289524Y-43698390D01*
X94289524Y-43698390D02*
X94241905Y-43746009D01*
X94241905Y-43746009D02*
X94194286Y-43841247D01*
X62571333Y-47984580D02*
X62523714Y-48032200D01*
X62523714Y-48032200D02*
X62380857Y-48079819D01*
X62380857Y-48079819D02*
X62285619Y-48079819D01*
X62285619Y-48079819D02*
X62142762Y-48032200D01*
X62142762Y-48032200D02*
X62047524Y-47936961D01*
X62047524Y-47936961D02*
X61999905Y-47841723D01*
X61999905Y-47841723D02*
X61952286Y-47651247D01*
X61952286Y-47651247D02*
X61952286Y-47508390D01*
X61952286Y-47508390D02*
X61999905Y-47317914D01*
X61999905Y-47317914D02*
X62047524Y-47222676D01*
X62047524Y-47222676D02*
X62142762Y-47127438D01*
X62142762Y-47127438D02*
X62285619Y-47079819D01*
X62285619Y-47079819D02*
X62380857Y-47079819D01*
X62380857Y-47079819D02*
X62523714Y-47127438D01*
X62523714Y-47127438D02*
X62571333Y-47175057D01*
X63476095Y-47079819D02*
X62999905Y-47079819D01*
X62999905Y-47079819D02*
X62952286Y-47556009D01*
X62952286Y-47556009D02*
X62999905Y-47508390D01*
X62999905Y-47508390D02*
X63095143Y-47460771D01*
X63095143Y-47460771D02*
X63333238Y-47460771D01*
X63333238Y-47460771D02*
X63428476Y-47508390D01*
X63428476Y-47508390D02*
X63476095Y-47556009D01*
X63476095Y-47556009D02*
X63523714Y-47651247D01*
X63523714Y-47651247D02*
X63523714Y-47889342D01*
X63523714Y-47889342D02*
X63476095Y-47984580D01*
X63476095Y-47984580D02*
X63428476Y-48032200D01*
X63428476Y-48032200D02*
X63333238Y-48079819D01*
X63333238Y-48079819D02*
X63095143Y-48079819D01*
X63095143Y-48079819D02*
X62999905Y-48032200D01*
X62999905Y-48032200D02*
X62952286Y-47984580D01*
X92194142Y-63732580D02*
X92146523Y-63780200D01*
X92146523Y-63780200D02*
X92003666Y-63827819D01*
X92003666Y-63827819D02*
X91908428Y-63827819D01*
X91908428Y-63827819D02*
X91765571Y-63780200D01*
X91765571Y-63780200D02*
X91670333Y-63684961D01*
X91670333Y-63684961D02*
X91622714Y-63589723D01*
X91622714Y-63589723D02*
X91575095Y-63399247D01*
X91575095Y-63399247D02*
X91575095Y-63256390D01*
X91575095Y-63256390D02*
X91622714Y-63065914D01*
X91622714Y-63065914D02*
X91670333Y-62970676D01*
X91670333Y-62970676D02*
X91765571Y-62875438D01*
X91765571Y-62875438D02*
X91908428Y-62827819D01*
X91908428Y-62827819D02*
X92003666Y-62827819D01*
X92003666Y-62827819D02*
X92146523Y-62875438D01*
X92146523Y-62875438D02*
X92194142Y-62923057D01*
X93146523Y-63827819D02*
X92575095Y-63827819D01*
X92860809Y-63827819D02*
X92860809Y-62827819D01*
X92860809Y-62827819D02*
X92765571Y-62970676D01*
X92765571Y-62970676D02*
X92670333Y-63065914D01*
X92670333Y-63065914D02*
X92575095Y-63113533D01*
X93479857Y-62827819D02*
X94146523Y-62827819D01*
X94146523Y-62827819D02*
X93717952Y-63827819D01*
X115403333Y-39189819D02*
X115070000Y-38713628D01*
X114831905Y-39189819D02*
X114831905Y-38189819D01*
X114831905Y-38189819D02*
X115212857Y-38189819D01*
X115212857Y-38189819D02*
X115308095Y-38237438D01*
X115308095Y-38237438D02*
X115355714Y-38285057D01*
X115355714Y-38285057D02*
X115403333Y-38380295D01*
X115403333Y-38380295D02*
X115403333Y-38523152D01*
X115403333Y-38523152D02*
X115355714Y-38618390D01*
X115355714Y-38618390D02*
X115308095Y-38666009D01*
X115308095Y-38666009D02*
X115212857Y-38713628D01*
X115212857Y-38713628D02*
X114831905Y-38713628D01*
X116260476Y-38523152D02*
X116260476Y-39189819D01*
X116022381Y-38142200D02*
X115784286Y-38856485D01*
X115784286Y-38856485D02*
X116403333Y-38856485D01*
X96057142Y-70209580D02*
X96009523Y-70257200D01*
X96009523Y-70257200D02*
X95866666Y-70304819D01*
X95866666Y-70304819D02*
X95771428Y-70304819D01*
X95771428Y-70304819D02*
X95628571Y-70257200D01*
X95628571Y-70257200D02*
X95533333Y-70161961D01*
X95533333Y-70161961D02*
X95485714Y-70066723D01*
X95485714Y-70066723D02*
X95438095Y-69876247D01*
X95438095Y-69876247D02*
X95438095Y-69733390D01*
X95438095Y-69733390D02*
X95485714Y-69542914D01*
X95485714Y-69542914D02*
X95533333Y-69447676D01*
X95533333Y-69447676D02*
X95628571Y-69352438D01*
X95628571Y-69352438D02*
X95771428Y-69304819D01*
X95771428Y-69304819D02*
X95866666Y-69304819D01*
X95866666Y-69304819D02*
X96009523Y-69352438D01*
X96009523Y-69352438D02*
X96057142Y-69400057D01*
X97009523Y-70304819D02*
X96438095Y-70304819D01*
X96723809Y-70304819D02*
X96723809Y-69304819D01*
X96723809Y-69304819D02*
X96628571Y-69447676D01*
X96628571Y-69447676D02*
X96533333Y-69542914D01*
X96533333Y-69542914D02*
X96438095Y-69590533D01*
X97580952Y-69733390D02*
X97485714Y-69685771D01*
X97485714Y-69685771D02*
X97438095Y-69638152D01*
X97438095Y-69638152D02*
X97390476Y-69542914D01*
X97390476Y-69542914D02*
X97390476Y-69495295D01*
X97390476Y-69495295D02*
X97438095Y-69400057D01*
X97438095Y-69400057D02*
X97485714Y-69352438D01*
X97485714Y-69352438D02*
X97580952Y-69304819D01*
X97580952Y-69304819D02*
X97771428Y-69304819D01*
X97771428Y-69304819D02*
X97866666Y-69352438D01*
X97866666Y-69352438D02*
X97914285Y-69400057D01*
X97914285Y-69400057D02*
X97961904Y-69495295D01*
X97961904Y-69495295D02*
X97961904Y-69542914D01*
X97961904Y-69542914D02*
X97914285Y-69638152D01*
X97914285Y-69638152D02*
X97866666Y-69685771D01*
X97866666Y-69685771D02*
X97771428Y-69733390D01*
X97771428Y-69733390D02*
X97580952Y-69733390D01*
X97580952Y-69733390D02*
X97485714Y-69781009D01*
X97485714Y-69781009D02*
X97438095Y-69828628D01*
X97438095Y-69828628D02*
X97390476Y-69923866D01*
X97390476Y-69923866D02*
X97390476Y-70114342D01*
X97390476Y-70114342D02*
X97438095Y-70209580D01*
X97438095Y-70209580D02*
X97485714Y-70257200D01*
X97485714Y-70257200D02*
X97580952Y-70304819D01*
X97580952Y-70304819D02*
X97771428Y-70304819D01*
X97771428Y-70304819D02*
X97866666Y-70257200D01*
X97866666Y-70257200D02*
X97914285Y-70209580D01*
X97914285Y-70209580D02*
X97961904Y-70114342D01*
X97961904Y-70114342D02*
X97961904Y-69923866D01*
X97961904Y-69923866D02*
X97914285Y-69828628D01*
X97914285Y-69828628D02*
X97866666Y-69781009D01*
X97866666Y-69781009D02*
X97771428Y-69733390D01*
X114927142Y-36554580D02*
X114879523Y-36602200D01*
X114879523Y-36602200D02*
X114736666Y-36649819D01*
X114736666Y-36649819D02*
X114641428Y-36649819D01*
X114641428Y-36649819D02*
X114498571Y-36602200D01*
X114498571Y-36602200D02*
X114403333Y-36506961D01*
X114403333Y-36506961D02*
X114355714Y-36411723D01*
X114355714Y-36411723D02*
X114308095Y-36221247D01*
X114308095Y-36221247D02*
X114308095Y-36078390D01*
X114308095Y-36078390D02*
X114355714Y-35887914D01*
X114355714Y-35887914D02*
X114403333Y-35792676D01*
X114403333Y-35792676D02*
X114498571Y-35697438D01*
X114498571Y-35697438D02*
X114641428Y-35649819D01*
X114641428Y-35649819D02*
X114736666Y-35649819D01*
X114736666Y-35649819D02*
X114879523Y-35697438D01*
X114879523Y-35697438D02*
X114927142Y-35745057D01*
X115879523Y-36649819D02*
X115308095Y-36649819D01*
X115593809Y-36649819D02*
X115593809Y-35649819D01*
X115593809Y-35649819D02*
X115498571Y-35792676D01*
X115498571Y-35792676D02*
X115403333Y-35887914D01*
X115403333Y-35887914D02*
X115308095Y-35935533D01*
X116784285Y-35649819D02*
X116308095Y-35649819D01*
X116308095Y-35649819D02*
X116260476Y-36126009D01*
X116260476Y-36126009D02*
X116308095Y-36078390D01*
X116308095Y-36078390D02*
X116403333Y-36030771D01*
X116403333Y-36030771D02*
X116641428Y-36030771D01*
X116641428Y-36030771D02*
X116736666Y-36078390D01*
X116736666Y-36078390D02*
X116784285Y-36126009D01*
X116784285Y-36126009D02*
X116831904Y-36221247D01*
X116831904Y-36221247D02*
X116831904Y-36459342D01*
X116831904Y-36459342D02*
X116784285Y-36554580D01*
X116784285Y-36554580D02*
X116736666Y-36602200D01*
X116736666Y-36602200D02*
X116641428Y-36649819D01*
X116641428Y-36649819D02*
X116403333Y-36649819D01*
X116403333Y-36649819D02*
X116308095Y-36602200D01*
X116308095Y-36602200D02*
X116260476Y-36554580D01*
X144684761Y-56750057D02*
X144589523Y-56702438D01*
X144589523Y-56702438D02*
X144494285Y-56607200D01*
X144494285Y-56607200D02*
X144351428Y-56464342D01*
X144351428Y-56464342D02*
X144256190Y-56416723D01*
X144256190Y-56416723D02*
X144160952Y-56416723D01*
X144208571Y-56654819D02*
X144113333Y-56607200D01*
X144113333Y-56607200D02*
X144018095Y-56511961D01*
X144018095Y-56511961D02*
X143970476Y-56321485D01*
X143970476Y-56321485D02*
X143970476Y-55988152D01*
X143970476Y-55988152D02*
X144018095Y-55797676D01*
X144018095Y-55797676D02*
X144113333Y-55702438D01*
X144113333Y-55702438D02*
X144208571Y-55654819D01*
X144208571Y-55654819D02*
X144399047Y-55654819D01*
X144399047Y-55654819D02*
X144494285Y-55702438D01*
X144494285Y-55702438D02*
X144589523Y-55797676D01*
X144589523Y-55797676D02*
X144637142Y-55988152D01*
X144637142Y-55988152D02*
X144637142Y-56321485D01*
X144637142Y-56321485D02*
X144589523Y-56511961D01*
X144589523Y-56511961D02*
X144494285Y-56607200D01*
X144494285Y-56607200D02*
X144399047Y-56654819D01*
X144399047Y-56654819D02*
X144208571Y-56654819D01*
X145589523Y-56654819D02*
X145018095Y-56654819D01*
X145303809Y-56654819D02*
X145303809Y-55654819D01*
X145303809Y-55654819D02*
X145208571Y-55797676D01*
X145208571Y-55797676D02*
X145113333Y-55892914D01*
X145113333Y-55892914D02*
X145018095Y-55940533D01*
X96257142Y-62589580D02*
X96209523Y-62637200D01*
X96209523Y-62637200D02*
X96066666Y-62684819D01*
X96066666Y-62684819D02*
X95971428Y-62684819D01*
X95971428Y-62684819D02*
X95828571Y-62637200D01*
X95828571Y-62637200D02*
X95733333Y-62541961D01*
X95733333Y-62541961D02*
X95685714Y-62446723D01*
X95685714Y-62446723D02*
X95638095Y-62256247D01*
X95638095Y-62256247D02*
X95638095Y-62113390D01*
X95638095Y-62113390D02*
X95685714Y-61922914D01*
X95685714Y-61922914D02*
X95733333Y-61827676D01*
X95733333Y-61827676D02*
X95828571Y-61732438D01*
X95828571Y-61732438D02*
X95971428Y-61684819D01*
X95971428Y-61684819D02*
X96066666Y-61684819D01*
X96066666Y-61684819D02*
X96209523Y-61732438D01*
X96209523Y-61732438D02*
X96257142Y-61780057D01*
X96638095Y-61780057D02*
X96685714Y-61732438D01*
X96685714Y-61732438D02*
X96780952Y-61684819D01*
X96780952Y-61684819D02*
X97019047Y-61684819D01*
X97019047Y-61684819D02*
X97114285Y-61732438D01*
X97114285Y-61732438D02*
X97161904Y-61780057D01*
X97161904Y-61780057D02*
X97209523Y-61875295D01*
X97209523Y-61875295D02*
X97209523Y-61970533D01*
X97209523Y-61970533D02*
X97161904Y-62113390D01*
X97161904Y-62113390D02*
X96590476Y-62684819D01*
X96590476Y-62684819D02*
X97209523Y-62684819D01*
X97590476Y-61780057D02*
X97638095Y-61732438D01*
X97638095Y-61732438D02*
X97733333Y-61684819D01*
X97733333Y-61684819D02*
X97971428Y-61684819D01*
X97971428Y-61684819D02*
X98066666Y-61732438D01*
X98066666Y-61732438D02*
X98114285Y-61780057D01*
X98114285Y-61780057D02*
X98161904Y-61875295D01*
X98161904Y-61875295D02*
X98161904Y-61970533D01*
X98161904Y-61970533D02*
X98114285Y-62113390D01*
X98114285Y-62113390D02*
X97542857Y-62684819D01*
X97542857Y-62684819D02*
X98161904Y-62684819D01*
X89074666Y-27420219D02*
X89074666Y-28134504D01*
X89074666Y-28134504D02*
X89027047Y-28277361D01*
X89027047Y-28277361D02*
X88931809Y-28372600D01*
X88931809Y-28372600D02*
X88788952Y-28420219D01*
X88788952Y-28420219D02*
X88693714Y-28420219D01*
X90074666Y-28420219D02*
X89503238Y-28420219D01*
X89788952Y-28420219D02*
X89788952Y-27420219D01*
X89788952Y-27420219D02*
X89693714Y-27563076D01*
X89693714Y-27563076D02*
X89598476Y-27658314D01*
X89598476Y-27658314D02*
X89503238Y-27705933D01*
X130039761Y-56630057D02*
X129944523Y-56582438D01*
X129944523Y-56582438D02*
X129849285Y-56487200D01*
X129849285Y-56487200D02*
X129706428Y-56344342D01*
X129706428Y-56344342D02*
X129611190Y-56296723D01*
X129611190Y-56296723D02*
X129515952Y-56296723D01*
X129563571Y-56534819D02*
X129468333Y-56487200D01*
X129468333Y-56487200D02*
X129373095Y-56391961D01*
X129373095Y-56391961D02*
X129325476Y-56201485D01*
X129325476Y-56201485D02*
X129325476Y-55868152D01*
X129325476Y-55868152D02*
X129373095Y-55677676D01*
X129373095Y-55677676D02*
X129468333Y-55582438D01*
X129468333Y-55582438D02*
X129563571Y-55534819D01*
X129563571Y-55534819D02*
X129754047Y-55534819D01*
X129754047Y-55534819D02*
X129849285Y-55582438D01*
X129849285Y-55582438D02*
X129944523Y-55677676D01*
X129944523Y-55677676D02*
X129992142Y-55868152D01*
X129992142Y-55868152D02*
X129992142Y-56201485D01*
X129992142Y-56201485D02*
X129944523Y-56391961D01*
X129944523Y-56391961D02*
X129849285Y-56487200D01*
X129849285Y-56487200D02*
X129754047Y-56534819D01*
X129754047Y-56534819D02*
X129563571Y-56534819D01*
X130373095Y-55630057D02*
X130420714Y-55582438D01*
X130420714Y-55582438D02*
X130515952Y-55534819D01*
X130515952Y-55534819D02*
X130754047Y-55534819D01*
X130754047Y-55534819D02*
X130849285Y-55582438D01*
X130849285Y-55582438D02*
X130896904Y-55630057D01*
X130896904Y-55630057D02*
X130944523Y-55725295D01*
X130944523Y-55725295D02*
X130944523Y-55820533D01*
X130944523Y-55820533D02*
X130896904Y-55963390D01*
X130896904Y-55963390D02*
X130325476Y-56534819D01*
X130325476Y-56534819D02*
X130944523Y-56534819D01*
X142867142Y-38869796D02*
X142819523Y-38917416D01*
X142819523Y-38917416D02*
X142676666Y-38965035D01*
X142676666Y-38965035D02*
X142581428Y-38965035D01*
X142581428Y-38965035D02*
X142438571Y-38917416D01*
X142438571Y-38917416D02*
X142343333Y-38822177D01*
X142343333Y-38822177D02*
X142295714Y-38726939D01*
X142295714Y-38726939D02*
X142248095Y-38536463D01*
X142248095Y-38536463D02*
X142248095Y-38393606D01*
X142248095Y-38393606D02*
X142295714Y-38203130D01*
X142295714Y-38203130D02*
X142343333Y-38107892D01*
X142343333Y-38107892D02*
X142438571Y-38012654D01*
X142438571Y-38012654D02*
X142581428Y-37965035D01*
X142581428Y-37965035D02*
X142676666Y-37965035D01*
X142676666Y-37965035D02*
X142819523Y-38012654D01*
X142819523Y-38012654D02*
X142867142Y-38060273D01*
X143819523Y-38965035D02*
X143248095Y-38965035D01*
X143533809Y-38965035D02*
X143533809Y-37965035D01*
X143533809Y-37965035D02*
X143438571Y-38107892D01*
X143438571Y-38107892D02*
X143343333Y-38203130D01*
X143343333Y-38203130D02*
X143248095Y-38250749D01*
X144676666Y-38298368D02*
X144676666Y-38965035D01*
X144438571Y-37917416D02*
X144200476Y-38631701D01*
X144200476Y-38631701D02*
X144819523Y-38631701D01*
X96353333Y-41634580D02*
X96305714Y-41682200D01*
X96305714Y-41682200D02*
X96162857Y-41729819D01*
X96162857Y-41729819D02*
X96067619Y-41729819D01*
X96067619Y-41729819D02*
X95924762Y-41682200D01*
X95924762Y-41682200D02*
X95829524Y-41586961D01*
X95829524Y-41586961D02*
X95781905Y-41491723D01*
X95781905Y-41491723D02*
X95734286Y-41301247D01*
X95734286Y-41301247D02*
X95734286Y-41158390D01*
X95734286Y-41158390D02*
X95781905Y-40967914D01*
X95781905Y-40967914D02*
X95829524Y-40872676D01*
X95829524Y-40872676D02*
X95924762Y-40777438D01*
X95924762Y-40777438D02*
X96067619Y-40729819D01*
X96067619Y-40729819D02*
X96162857Y-40729819D01*
X96162857Y-40729819D02*
X96305714Y-40777438D01*
X96305714Y-40777438D02*
X96353333Y-40825057D01*
X96686667Y-40729819D02*
X97305714Y-40729819D01*
X97305714Y-40729819D02*
X96972381Y-41110771D01*
X96972381Y-41110771D02*
X97115238Y-41110771D01*
X97115238Y-41110771D02*
X97210476Y-41158390D01*
X97210476Y-41158390D02*
X97258095Y-41206009D01*
X97258095Y-41206009D02*
X97305714Y-41301247D01*
X97305714Y-41301247D02*
X97305714Y-41539342D01*
X97305714Y-41539342D02*
X97258095Y-41634580D01*
X97258095Y-41634580D02*
X97210476Y-41682200D01*
X97210476Y-41682200D02*
X97115238Y-41729819D01*
X97115238Y-41729819D02*
X96829524Y-41729819D01*
X96829524Y-41729819D02*
X96734286Y-41682200D01*
X96734286Y-41682200D02*
X96686667Y-41634580D01*
X107989761Y-50769819D02*
X107656428Y-50293628D01*
X107418333Y-50769819D02*
X107418333Y-49769819D01*
X107418333Y-49769819D02*
X107799285Y-49769819D01*
X107799285Y-49769819D02*
X107894523Y-49817438D01*
X107894523Y-49817438D02*
X107942142Y-49865057D01*
X107942142Y-49865057D02*
X107989761Y-49960295D01*
X107989761Y-49960295D02*
X107989761Y-50103152D01*
X107989761Y-50103152D02*
X107942142Y-50198390D01*
X107942142Y-50198390D02*
X107894523Y-50246009D01*
X107894523Y-50246009D02*
X107799285Y-50293628D01*
X107799285Y-50293628D02*
X107418333Y-50293628D01*
X108275476Y-49769819D02*
X108608809Y-50769819D01*
X108608809Y-50769819D02*
X108942142Y-49769819D01*
X109227857Y-49865057D02*
X109275476Y-49817438D01*
X109275476Y-49817438D02*
X109370714Y-49769819D01*
X109370714Y-49769819D02*
X109608809Y-49769819D01*
X109608809Y-49769819D02*
X109704047Y-49817438D01*
X109704047Y-49817438D02*
X109751666Y-49865057D01*
X109751666Y-49865057D02*
X109799285Y-49960295D01*
X109799285Y-49960295D02*
X109799285Y-50055533D01*
X109799285Y-50055533D02*
X109751666Y-50198390D01*
X109751666Y-50198390D02*
X109180238Y-50769819D01*
X109180238Y-50769819D02*
X109799285Y-50769819D01*
X80007142Y-62589580D02*
X79959523Y-62637200D01*
X79959523Y-62637200D02*
X79816666Y-62684819D01*
X79816666Y-62684819D02*
X79721428Y-62684819D01*
X79721428Y-62684819D02*
X79578571Y-62637200D01*
X79578571Y-62637200D02*
X79483333Y-62541961D01*
X79483333Y-62541961D02*
X79435714Y-62446723D01*
X79435714Y-62446723D02*
X79388095Y-62256247D01*
X79388095Y-62256247D02*
X79388095Y-62113390D01*
X79388095Y-62113390D02*
X79435714Y-61922914D01*
X79435714Y-61922914D02*
X79483333Y-61827676D01*
X79483333Y-61827676D02*
X79578571Y-61732438D01*
X79578571Y-61732438D02*
X79721428Y-61684819D01*
X79721428Y-61684819D02*
X79816666Y-61684819D01*
X79816666Y-61684819D02*
X79959523Y-61732438D01*
X79959523Y-61732438D02*
X80007142Y-61780057D01*
X80959523Y-62684819D02*
X80388095Y-62684819D01*
X80673809Y-62684819D02*
X80673809Y-61684819D01*
X80673809Y-61684819D02*
X80578571Y-61827676D01*
X80578571Y-61827676D02*
X80483333Y-61922914D01*
X80483333Y-61922914D02*
X80388095Y-61970533D01*
X81435714Y-62684819D02*
X81626190Y-62684819D01*
X81626190Y-62684819D02*
X81721428Y-62637200D01*
X81721428Y-62637200D02*
X81769047Y-62589580D01*
X81769047Y-62589580D02*
X81864285Y-62446723D01*
X81864285Y-62446723D02*
X81911904Y-62256247D01*
X81911904Y-62256247D02*
X81911904Y-61875295D01*
X81911904Y-61875295D02*
X81864285Y-61780057D01*
X81864285Y-61780057D02*
X81816666Y-61732438D01*
X81816666Y-61732438D02*
X81721428Y-61684819D01*
X81721428Y-61684819D02*
X81530952Y-61684819D01*
X81530952Y-61684819D02*
X81435714Y-61732438D01*
X81435714Y-61732438D02*
X81388095Y-61780057D01*
X81388095Y-61780057D02*
X81340476Y-61875295D01*
X81340476Y-61875295D02*
X81340476Y-62113390D01*
X81340476Y-62113390D02*
X81388095Y-62208628D01*
X81388095Y-62208628D02*
X81435714Y-62256247D01*
X81435714Y-62256247D02*
X81530952Y-62303866D01*
X81530952Y-62303866D02*
X81721428Y-62303866D01*
X81721428Y-62303866D02*
X81816666Y-62256247D01*
X81816666Y-62256247D02*
X81864285Y-62208628D01*
X81864285Y-62208628D02*
X81911904Y-62113390D01*
X115562142Y-65224819D02*
X115228809Y-64748628D01*
X114990714Y-65224819D02*
X114990714Y-64224819D01*
X114990714Y-64224819D02*
X115371666Y-64224819D01*
X115371666Y-64224819D02*
X115466904Y-64272438D01*
X115466904Y-64272438D02*
X115514523Y-64320057D01*
X115514523Y-64320057D02*
X115562142Y-64415295D01*
X115562142Y-64415295D02*
X115562142Y-64558152D01*
X115562142Y-64558152D02*
X115514523Y-64653390D01*
X115514523Y-64653390D02*
X115466904Y-64701009D01*
X115466904Y-64701009D02*
X115371666Y-64748628D01*
X115371666Y-64748628D02*
X114990714Y-64748628D01*
X116514523Y-65224819D02*
X115943095Y-65224819D01*
X116228809Y-65224819D02*
X116228809Y-64224819D01*
X116228809Y-64224819D02*
X116133571Y-64367676D01*
X116133571Y-64367676D02*
X116038333Y-64462914D01*
X116038333Y-64462914D02*
X115943095Y-64510533D01*
X117133571Y-64224819D02*
X117228809Y-64224819D01*
X117228809Y-64224819D02*
X117324047Y-64272438D01*
X117324047Y-64272438D02*
X117371666Y-64320057D01*
X117371666Y-64320057D02*
X117419285Y-64415295D01*
X117419285Y-64415295D02*
X117466904Y-64605771D01*
X117466904Y-64605771D02*
X117466904Y-64843866D01*
X117466904Y-64843866D02*
X117419285Y-65034342D01*
X117419285Y-65034342D02*
X117371666Y-65129580D01*
X117371666Y-65129580D02*
X117324047Y-65177200D01*
X117324047Y-65177200D02*
X117228809Y-65224819D01*
X117228809Y-65224819D02*
X117133571Y-65224819D01*
X117133571Y-65224819D02*
X117038333Y-65177200D01*
X117038333Y-65177200D02*
X116990714Y-65129580D01*
X116990714Y-65129580D02*
X116943095Y-65034342D01*
X116943095Y-65034342D02*
X116895476Y-64843866D01*
X116895476Y-64843866D02*
X116895476Y-64605771D01*
X116895476Y-64605771D02*
X116943095Y-64415295D01*
X116943095Y-64415295D02*
X116990714Y-64320057D01*
X116990714Y-64320057D02*
X117038333Y-64272438D01*
X117038333Y-64272438D02*
X117133571Y-64224819D01*
X75733333Y-42354819D02*
X75400000Y-41878628D01*
X75161905Y-42354819D02*
X75161905Y-41354819D01*
X75161905Y-41354819D02*
X75542857Y-41354819D01*
X75542857Y-41354819D02*
X75638095Y-41402438D01*
X75638095Y-41402438D02*
X75685714Y-41450057D01*
X75685714Y-41450057D02*
X75733333Y-41545295D01*
X75733333Y-41545295D02*
X75733333Y-41688152D01*
X75733333Y-41688152D02*
X75685714Y-41783390D01*
X75685714Y-41783390D02*
X75638095Y-41831009D01*
X75638095Y-41831009D02*
X75542857Y-41878628D01*
X75542857Y-41878628D02*
X75161905Y-41878628D01*
X76304762Y-41783390D02*
X76209524Y-41735771D01*
X76209524Y-41735771D02*
X76161905Y-41688152D01*
X76161905Y-41688152D02*
X76114286Y-41592914D01*
X76114286Y-41592914D02*
X76114286Y-41545295D01*
X76114286Y-41545295D02*
X76161905Y-41450057D01*
X76161905Y-41450057D02*
X76209524Y-41402438D01*
X76209524Y-41402438D02*
X76304762Y-41354819D01*
X76304762Y-41354819D02*
X76495238Y-41354819D01*
X76495238Y-41354819D02*
X76590476Y-41402438D01*
X76590476Y-41402438D02*
X76638095Y-41450057D01*
X76638095Y-41450057D02*
X76685714Y-41545295D01*
X76685714Y-41545295D02*
X76685714Y-41592914D01*
X76685714Y-41592914D02*
X76638095Y-41688152D01*
X76638095Y-41688152D02*
X76590476Y-41735771D01*
X76590476Y-41735771D02*
X76495238Y-41783390D01*
X76495238Y-41783390D02*
X76304762Y-41783390D01*
X76304762Y-41783390D02*
X76209524Y-41831009D01*
X76209524Y-41831009D02*
X76161905Y-41878628D01*
X76161905Y-41878628D02*
X76114286Y-41973866D01*
X76114286Y-41973866D02*
X76114286Y-42164342D01*
X76114286Y-42164342D02*
X76161905Y-42259580D01*
X76161905Y-42259580D02*
X76209524Y-42307200D01*
X76209524Y-42307200D02*
X76304762Y-42354819D01*
X76304762Y-42354819D02*
X76495238Y-42354819D01*
X76495238Y-42354819D02*
X76590476Y-42307200D01*
X76590476Y-42307200D02*
X76638095Y-42259580D01*
X76638095Y-42259580D02*
X76685714Y-42164342D01*
X76685714Y-42164342D02*
X76685714Y-41973866D01*
X76685714Y-41973866D02*
X76638095Y-41878628D01*
X76638095Y-41878628D02*
X76590476Y-41831009D01*
X76590476Y-41831009D02*
X76495238Y-41783390D01*
X76160333Y-39824819D02*
X75827000Y-39348628D01*
X75588905Y-39824819D02*
X75588905Y-38824819D01*
X75588905Y-38824819D02*
X75969857Y-38824819D01*
X75969857Y-38824819D02*
X76065095Y-38872438D01*
X76065095Y-38872438D02*
X76112714Y-38920057D01*
X76112714Y-38920057D02*
X76160333Y-39015295D01*
X76160333Y-39015295D02*
X76160333Y-39158152D01*
X76160333Y-39158152D02*
X76112714Y-39253390D01*
X76112714Y-39253390D02*
X76065095Y-39301009D01*
X76065095Y-39301009D02*
X75969857Y-39348628D01*
X75969857Y-39348628D02*
X75588905Y-39348628D01*
X77112714Y-39824819D02*
X76541286Y-39824819D01*
X76827000Y-39824819D02*
X76827000Y-38824819D01*
X76827000Y-38824819D02*
X76731762Y-38967676D01*
X76731762Y-38967676D02*
X76636524Y-39062914D01*
X76636524Y-39062914D02*
X76541286Y-39110533D01*
X106553095Y-36694819D02*
X106553095Y-37504342D01*
X106553095Y-37504342D02*
X106600714Y-37599580D01*
X106600714Y-37599580D02*
X106648333Y-37647200D01*
X106648333Y-37647200D02*
X106743571Y-37694819D01*
X106743571Y-37694819D02*
X106934047Y-37694819D01*
X106934047Y-37694819D02*
X107029285Y-37647200D01*
X107029285Y-37647200D02*
X107076904Y-37599580D01*
X107076904Y-37599580D02*
X107124523Y-37504342D01*
X107124523Y-37504342D02*
X107124523Y-36694819D01*
X107553095Y-36790057D02*
X107600714Y-36742438D01*
X107600714Y-36742438D02*
X107695952Y-36694819D01*
X107695952Y-36694819D02*
X107934047Y-36694819D01*
X107934047Y-36694819D02*
X108029285Y-36742438D01*
X108029285Y-36742438D02*
X108076904Y-36790057D01*
X108076904Y-36790057D02*
X108124523Y-36885295D01*
X108124523Y-36885295D02*
X108124523Y-36980533D01*
X108124523Y-36980533D02*
X108076904Y-37123390D01*
X108076904Y-37123390D02*
X107505476Y-37694819D01*
X107505476Y-37694819D02*
X108124523Y-37694819D01*
X56858819Y-38226904D02*
X57668342Y-38226904D01*
X57668342Y-38226904D02*
X57763580Y-38179285D01*
X57763580Y-38179285D02*
X57811200Y-38131666D01*
X57811200Y-38131666D02*
X57858819Y-38036428D01*
X57858819Y-38036428D02*
X57858819Y-37845952D01*
X57858819Y-37845952D02*
X57811200Y-37750714D01*
X57811200Y-37750714D02*
X57763580Y-37703095D01*
X57763580Y-37703095D02*
X57668342Y-37655476D01*
X57668342Y-37655476D02*
X56858819Y-37655476D01*
X57192152Y-36750714D02*
X57858819Y-36750714D01*
X56811200Y-36988809D02*
X57525485Y-37226904D01*
X57525485Y-37226904D02*
X57525485Y-36607857D01*
X73959580Y-67266666D02*
X74007200Y-67314285D01*
X74007200Y-67314285D02*
X74054819Y-67457142D01*
X74054819Y-67457142D02*
X74054819Y-67552380D01*
X74054819Y-67552380D02*
X74007200Y-67695237D01*
X74007200Y-67695237D02*
X73911961Y-67790475D01*
X73911961Y-67790475D02*
X73816723Y-67838094D01*
X73816723Y-67838094D02*
X73626247Y-67885713D01*
X73626247Y-67885713D02*
X73483390Y-67885713D01*
X73483390Y-67885713D02*
X73292914Y-67838094D01*
X73292914Y-67838094D02*
X73197676Y-67790475D01*
X73197676Y-67790475D02*
X73102438Y-67695237D01*
X73102438Y-67695237D02*
X73054819Y-67552380D01*
X73054819Y-67552380D02*
X73054819Y-67457142D01*
X73054819Y-67457142D02*
X73102438Y-67314285D01*
X73102438Y-67314285D02*
X73150057Y-67266666D01*
X73054819Y-66409523D02*
X73054819Y-66599999D01*
X73054819Y-66599999D02*
X73102438Y-66695237D01*
X73102438Y-66695237D02*
X73150057Y-66742856D01*
X73150057Y-66742856D02*
X73292914Y-66838094D01*
X73292914Y-66838094D02*
X73483390Y-66885713D01*
X73483390Y-66885713D02*
X73864342Y-66885713D01*
X73864342Y-66885713D02*
X73959580Y-66838094D01*
X73959580Y-66838094D02*
X74007200Y-66790475D01*
X74007200Y-66790475D02*
X74054819Y-66695237D01*
X74054819Y-66695237D02*
X74054819Y-66504761D01*
X74054819Y-66504761D02*
X74007200Y-66409523D01*
X74007200Y-66409523D02*
X73959580Y-66361904D01*
X73959580Y-66361904D02*
X73864342Y-66314285D01*
X73864342Y-66314285D02*
X73626247Y-66314285D01*
X73626247Y-66314285D02*
X73531009Y-66361904D01*
X73531009Y-66361904D02*
X73483390Y-66409523D01*
X73483390Y-66409523D02*
X73435771Y-66504761D01*
X73435771Y-66504761D02*
X73435771Y-66695237D01*
X73435771Y-66695237D02*
X73483390Y-66790475D01*
X73483390Y-66790475D02*
X73531009Y-66838094D01*
X73531009Y-66838094D02*
X73626247Y-66885713D01*
X96559761Y-50769819D02*
X96226428Y-50293628D01*
X95988333Y-50769819D02*
X95988333Y-49769819D01*
X95988333Y-49769819D02*
X96369285Y-49769819D01*
X96369285Y-49769819D02*
X96464523Y-49817438D01*
X96464523Y-49817438D02*
X96512142Y-49865057D01*
X96512142Y-49865057D02*
X96559761Y-49960295D01*
X96559761Y-49960295D02*
X96559761Y-50103152D01*
X96559761Y-50103152D02*
X96512142Y-50198390D01*
X96512142Y-50198390D02*
X96464523Y-50246009D01*
X96464523Y-50246009D02*
X96369285Y-50293628D01*
X96369285Y-50293628D02*
X95988333Y-50293628D01*
X96845476Y-49769819D02*
X97178809Y-50769819D01*
X97178809Y-50769819D02*
X97512142Y-49769819D01*
X98369285Y-50769819D02*
X97797857Y-50769819D01*
X98083571Y-50769819D02*
X98083571Y-49769819D01*
X98083571Y-49769819D02*
X97988333Y-49912676D01*
X97988333Y-49912676D02*
X97893095Y-50007914D01*
X97893095Y-50007914D02*
X97797857Y-50055533D01*
X56938095Y-53954819D02*
X56938095Y-54764342D01*
X56938095Y-54764342D02*
X56985714Y-54859580D01*
X56985714Y-54859580D02*
X57033333Y-54907200D01*
X57033333Y-54907200D02*
X57128571Y-54954819D01*
X57128571Y-54954819D02*
X57319047Y-54954819D01*
X57319047Y-54954819D02*
X57414285Y-54907200D01*
X57414285Y-54907200D02*
X57461904Y-54859580D01*
X57461904Y-54859580D02*
X57509523Y-54764342D01*
X57509523Y-54764342D02*
X57509523Y-53954819D01*
X58461904Y-53954819D02*
X57985714Y-53954819D01*
X57985714Y-53954819D02*
X57938095Y-54431009D01*
X57938095Y-54431009D02*
X57985714Y-54383390D01*
X57985714Y-54383390D02*
X58080952Y-54335771D01*
X58080952Y-54335771D02*
X58319047Y-54335771D01*
X58319047Y-54335771D02*
X58414285Y-54383390D01*
X58414285Y-54383390D02*
X58461904Y-54431009D01*
X58461904Y-54431009D02*
X58509523Y-54526247D01*
X58509523Y-54526247D02*
X58509523Y-54764342D01*
X58509523Y-54764342D02*
X58461904Y-54859580D01*
X58461904Y-54859580D02*
X58414285Y-54907200D01*
X58414285Y-54907200D02*
X58319047Y-54954819D01*
X58319047Y-54954819D02*
X58080952Y-54954819D01*
X58080952Y-54954819D02*
X57985714Y-54907200D01*
X57985714Y-54907200D02*
X57938095Y-54859580D01*
D11*
%TO.C,R12*%
X100557064Y-64035000D02*
X100102936Y-64035000D01*
X100557064Y-65505000D02*
X100102936Y-65505000D01*
%TO.C,C24*%
X100591252Y-66575000D02*
X100068748Y-66575000D01*
X100591252Y-68045000D02*
X100068748Y-68045000D01*
%TO.C,TP2*%
X80710000Y-48133000D02*
G75*
G02*
X79310000Y-48133000I-700000J0D01*
G01*
X79310000Y-48133000D02*
G75*
G02*
X80710000Y-48133000I700000J0D01*
G01*
%TO.C,R7*%
X78512936Y-43715000D02*
X78967064Y-43715000D01*
X78512936Y-45185000D02*
X78967064Y-45185000D01*
%TO.C,U3*%
X60590000Y-61850000D02*
X67010000Y-61850000D01*
X60590000Y-68750000D02*
X67010000Y-68750000D01*
X67010000Y-61850000D02*
X67010000Y-62120000D01*
X67010000Y-68750000D02*
X67010000Y-68480000D01*
X69080000Y-68910000D02*
X68400000Y-68910000D01*
X68740000Y-68440000D01*
X69080000Y-68910000D01*
G36*
X69080000Y-68910000D02*
G01*
X68400000Y-68910000D01*
X68740000Y-68440000D01*
X69080000Y-68910000D01*
G37*
%TO.C,C1*%
X80906252Y-35079000D02*
X80383748Y-35079000D01*
X80906252Y-36549000D02*
X80383748Y-36549000D01*
%TO.C,C11*%
X122385000Y-48030000D02*
X117334000Y-48030000D01*
X122385000Y-48070000D02*
X117340000Y-48070000D01*
X122385000Y-48110000D02*
X117347000Y-48110000D01*
X122385000Y-48150000D02*
X117355000Y-48150000D01*
X122385000Y-48190000D02*
X117362000Y-48190000D01*
X122385000Y-48230000D02*
X117370000Y-48230000D01*
X122385000Y-48270000D02*
X117378000Y-48270000D01*
X122385000Y-48310000D02*
X117386000Y-48310000D01*
X122385000Y-48350000D02*
X117395000Y-48350000D01*
X122385000Y-48390000D02*
X117404000Y-48390000D01*
X122385000Y-48430000D02*
X117413000Y-48430000D01*
X122385000Y-48470000D02*
X117422000Y-48470000D01*
X122385000Y-48510000D02*
X117431000Y-48510000D01*
X122385000Y-48550000D02*
X117441000Y-48550000D01*
X122385000Y-48590000D02*
X117451000Y-48590000D01*
X122385000Y-48630000D02*
X117462000Y-48630000D01*
X122385000Y-48670000D02*
X117472000Y-48670000D01*
X122385000Y-48710000D02*
X117483000Y-48710000D01*
X122385000Y-48750000D02*
X117494000Y-48750000D01*
X122385000Y-48790000D02*
X117506000Y-48790000D01*
X122385000Y-48830000D02*
X117518000Y-48830000D01*
X122385000Y-48870000D02*
X117530000Y-48870000D01*
X122385000Y-48910000D02*
X117542000Y-48910000D01*
X122385000Y-48950000D02*
X117554000Y-48950000D01*
X122385000Y-48990000D02*
X117567000Y-48990000D01*
X122385000Y-49030000D02*
X117580000Y-49030000D01*
X122385000Y-49070000D02*
X117594000Y-49070000D01*
X122385000Y-49110000D02*
X117607000Y-49110000D01*
X122385000Y-49150000D02*
X117621000Y-49150000D01*
X122385000Y-49190000D02*
X117635000Y-49190000D01*
X122385000Y-49230000D02*
X117650000Y-49230000D01*
X122385000Y-49270000D02*
X117665000Y-49270000D01*
X122385000Y-49310000D02*
X117680000Y-49310000D01*
X122385000Y-49350000D02*
X117695000Y-49350000D01*
X122385000Y-49390000D02*
X117711000Y-49390000D01*
X122385000Y-49430000D02*
X117727000Y-49430000D01*
X122385000Y-49470000D02*
X117743000Y-49470000D01*
X122385000Y-49510000D02*
X117760000Y-49510000D01*
X122385000Y-49550000D02*
X117777000Y-49550000D01*
X122385000Y-49590000D02*
X117794000Y-49590000D01*
X122385000Y-49630000D02*
X117812000Y-49630000D01*
X122385000Y-49670000D02*
X117830000Y-49670000D01*
X122385000Y-49710000D02*
X117848000Y-49710000D01*
X122385000Y-49750000D02*
X117866000Y-49750000D01*
X122385000Y-49790000D02*
X117885000Y-49790000D01*
X122385000Y-49830000D02*
X117904000Y-49830000D01*
X122385000Y-49870000D02*
X117924000Y-49870000D01*
X122385000Y-49910000D02*
X117944000Y-49910000D01*
X122385000Y-49950000D02*
X117964000Y-49950000D01*
X122385000Y-49990000D02*
X117984000Y-49990000D01*
X122385000Y-50030000D02*
X118005000Y-50030000D01*
X122385000Y-50070000D02*
X118026000Y-50070000D01*
X122385000Y-50110000D02*
X118048000Y-50110000D01*
X122385000Y-50150000D02*
X118070000Y-50150000D01*
X122385000Y-50190000D02*
X118092000Y-50190000D01*
X122385000Y-50230000D02*
X118115000Y-50230000D01*
X122385000Y-50270000D02*
X118138000Y-50270000D01*
X122385000Y-50310000D02*
X118161000Y-50310000D01*
X122385000Y-50350000D02*
X118185000Y-50350000D01*
X122385000Y-50390000D02*
X118209000Y-50390000D01*
X122385000Y-50430000D02*
X118233000Y-50430000D01*
X122385000Y-50470000D02*
X118258000Y-50470000D01*
X122385000Y-50510000D02*
X118284000Y-50510000D01*
X122385000Y-50550000D02*
X118309000Y-50550000D01*
X122385000Y-50590000D02*
X118336000Y-50590000D01*
X122385000Y-50630000D02*
X118362000Y-50630000D01*
X122385000Y-50670000D02*
X118389000Y-50670000D01*
X122385000Y-50710000D02*
X118416000Y-50710000D01*
X122385000Y-50750000D02*
X118444000Y-50750000D01*
X122385000Y-50790000D02*
X118473000Y-50790000D01*
X122385000Y-50830000D02*
X118501000Y-50830000D01*
X122385000Y-50870000D02*
X118530000Y-50870000D01*
X124299000Y-53550000D02*
X123351000Y-53550000D01*
X124674000Y-53510000D02*
X122976000Y-53510000D01*
X124931000Y-53470000D02*
X122719000Y-53470000D01*
X125139000Y-53430000D02*
X122511000Y-53430000D01*
X125318000Y-53390000D02*
X122332000Y-53390000D01*
X125477000Y-53350000D02*
X122173000Y-53350000D01*
X125622000Y-53310000D02*
X122028000Y-53310000D01*
X125755000Y-53270000D02*
X121895000Y-53270000D01*
X125879000Y-53230000D02*
X121771000Y-53230000D01*
X125996000Y-53190000D02*
X121654000Y-53190000D01*
X126105000Y-53150000D02*
X121545000Y-53150000D01*
X126210000Y-53110000D02*
X121440000Y-53110000D01*
X126309000Y-53070000D02*
X121341000Y-53070000D01*
X126404000Y-53030000D02*
X121246000Y-53030000D01*
X126495000Y-52990000D02*
X121155000Y-52990000D01*
X126582000Y-52950000D02*
X121068000Y-52950000D01*
X126666000Y-52910000D02*
X120984000Y-52910000D01*
X126748000Y-52870000D02*
X120902000Y-52870000D01*
X126826000Y-52830000D02*
X120824000Y-52830000D01*
X126902000Y-52790000D02*
X120748000Y-52790000D01*
X126976000Y-52750000D02*
X120674000Y-52750000D01*
X127048000Y-52710000D02*
X120602000Y-52710000D01*
X127118000Y-52670000D02*
X120532000Y-52670000D01*
X127185000Y-52630000D02*
X120465000Y-52630000D01*
X127251000Y-52590000D02*
X120399000Y-52590000D01*
X127315000Y-52550000D02*
X120335000Y-52550000D01*
X127378000Y-52510000D02*
X120272000Y-52510000D01*
X127439000Y-52470000D02*
X120211000Y-52470000D01*
X127499000Y-52430000D02*
X120151000Y-52430000D01*
X127540000Y-39865431D02*
X127540000Y-41165431D01*
X127557000Y-52390000D02*
X120093000Y-52390000D01*
X127614000Y-52350000D02*
X120036000Y-52350000D01*
X127670000Y-52310000D02*
X119980000Y-52310000D01*
X127725000Y-52270000D02*
X119925000Y-52270000D01*
X127778000Y-52230000D02*
X119872000Y-52230000D01*
X127831000Y-52190000D02*
X119819000Y-52190000D01*
X127882000Y-52150000D02*
X119768000Y-52150000D01*
X127932000Y-52110000D02*
X119718000Y-52110000D01*
X127981000Y-52070000D02*
X119669000Y-52070000D01*
X128030000Y-52030000D02*
X119620000Y-52030000D01*
X128077000Y-51990000D02*
X119573000Y-51990000D01*
X128124000Y-51950000D02*
X119526000Y-51950000D01*
X128169000Y-51910000D02*
X119481000Y-51910000D01*
X128190000Y-40515431D02*
X126890000Y-40515431D01*
X128214000Y-51870000D02*
X119436000Y-51870000D01*
X128258000Y-51830000D02*
X119392000Y-51830000D01*
X128302000Y-51790000D02*
X119348000Y-51790000D01*
X128344000Y-51750000D02*
X119306000Y-51750000D01*
X128386000Y-51710000D02*
X119264000Y-51710000D01*
X128427000Y-51670000D02*
X119223000Y-51670000D01*
X128467000Y-51630000D02*
X119183000Y-51630000D01*
X128507000Y-51590000D02*
X119143000Y-51590000D01*
X128546000Y-51550000D02*
X119104000Y-51550000D01*
X128584000Y-51510000D02*
X119066000Y-51510000D01*
X128622000Y-51470000D02*
X119028000Y-51470000D01*
X128659000Y-51430000D02*
X118991000Y-51430000D01*
X128695000Y-51390000D02*
X118955000Y-51390000D01*
X128731000Y-51350000D02*
X118919000Y-51350000D01*
X128766000Y-51310000D02*
X118884000Y-51310000D01*
X128801000Y-51270000D02*
X118849000Y-51270000D01*
X128835000Y-51230000D02*
X118815000Y-51230000D01*
X128869000Y-51190000D02*
X118781000Y-51190000D01*
X128902000Y-51150000D02*
X118748000Y-51150000D01*
X128935000Y-51110000D02*
X118715000Y-51110000D01*
X128967000Y-51070000D02*
X118683000Y-51070000D01*
X128998000Y-51030000D02*
X118652000Y-51030000D01*
X129029000Y-50990000D02*
X118621000Y-50990000D01*
X129060000Y-50950000D02*
X118590000Y-50950000D01*
X129090000Y-50910000D02*
X118560000Y-50910000D01*
X129120000Y-50870000D02*
X125265000Y-50870000D01*
X129149000Y-50830000D02*
X125265000Y-50830000D01*
X129177000Y-50790000D02*
X125265000Y-50790000D01*
X129206000Y-50750000D02*
X125265000Y-50750000D01*
X129234000Y-50710000D02*
X125265000Y-50710000D01*
X129261000Y-50670000D02*
X125265000Y-50670000D01*
X129288000Y-50630000D02*
X125265000Y-50630000D01*
X129314000Y-50590000D02*
X125265000Y-50590000D01*
X129341000Y-50550000D02*
X125265000Y-50550000D01*
X129366000Y-50510000D02*
X125265000Y-50510000D01*
X129392000Y-50470000D02*
X125265000Y-50470000D01*
X129417000Y-50430000D02*
X125265000Y-50430000D01*
X129441000Y-50390000D02*
X125265000Y-50390000D01*
X129465000Y-50350000D02*
X125265000Y-50350000D01*
X129489000Y-50310000D02*
X125265000Y-50310000D01*
X129512000Y-50270000D02*
X125265000Y-50270000D01*
X129535000Y-50230000D02*
X125265000Y-50230000D01*
X129558000Y-50190000D02*
X125265000Y-50190000D01*
X129580000Y-50150000D02*
X125265000Y-50150000D01*
X129602000Y-50110000D02*
X125265000Y-50110000D01*
X129624000Y-50070000D02*
X125265000Y-50070000D01*
X129645000Y-50030000D02*
X125265000Y-50030000D01*
X129666000Y-49990000D02*
X125265000Y-49990000D01*
X129686000Y-49950000D02*
X125265000Y-49950000D01*
X129706000Y-49910000D02*
X125265000Y-49910000D01*
X129726000Y-49870000D02*
X125265000Y-49870000D01*
X129746000Y-49830000D02*
X125265000Y-49830000D01*
X129765000Y-49790000D02*
X125265000Y-49790000D01*
X129784000Y-49750000D02*
X125265000Y-49750000D01*
X129802000Y-49710000D02*
X125265000Y-49710000D01*
X129820000Y-49670000D02*
X125265000Y-49670000D01*
X129838000Y-49630000D02*
X125265000Y-49630000D01*
X129856000Y-49590000D02*
X125265000Y-49590000D01*
X129873000Y-49550000D02*
X125265000Y-49550000D01*
X129890000Y-49510000D02*
X125265000Y-49510000D01*
X129907000Y-49470000D02*
X125265000Y-49470000D01*
X129923000Y-49430000D02*
X125265000Y-49430000D01*
X129939000Y-49390000D02*
X125265000Y-49390000D01*
X129955000Y-49350000D02*
X125265000Y-49350000D01*
X129970000Y-49310000D02*
X125265000Y-49310000D01*
X129985000Y-49270000D02*
X125265000Y-49270000D01*
X130000000Y-49230000D02*
X125265000Y-49230000D01*
X130015000Y-49190000D02*
X125265000Y-49190000D01*
X130029000Y-49150000D02*
X125265000Y-49150000D01*
X130043000Y-49110000D02*
X125265000Y-49110000D01*
X130056000Y-49070000D02*
X125265000Y-49070000D01*
X130070000Y-49030000D02*
X125265000Y-49030000D01*
X130083000Y-48990000D02*
X125265000Y-48990000D01*
X130096000Y-48950000D02*
X125265000Y-48950000D01*
X130108000Y-48910000D02*
X125265000Y-48910000D01*
X130120000Y-48870000D02*
X125265000Y-48870000D01*
X130132000Y-48830000D02*
X125265000Y-48830000D01*
X130144000Y-48790000D02*
X125265000Y-48790000D01*
X130156000Y-48750000D02*
X125265000Y-48750000D01*
X130167000Y-48710000D02*
X125265000Y-48710000D01*
X130178000Y-48670000D02*
X125265000Y-48670000D01*
X130188000Y-48630000D02*
X125265000Y-48630000D01*
X130199000Y-48590000D02*
X125265000Y-48590000D01*
X130209000Y-48550000D02*
X125265000Y-48550000D01*
X130219000Y-48510000D02*
X125265000Y-48510000D01*
X130228000Y-48470000D02*
X125265000Y-48470000D01*
X130237000Y-48430000D02*
X125265000Y-48430000D01*
X130246000Y-48390000D02*
X125265000Y-48390000D01*
X130255000Y-48350000D02*
X125265000Y-48350000D01*
X130264000Y-48310000D02*
X125265000Y-48310000D01*
X130272000Y-48270000D02*
X125265000Y-48270000D01*
X130280000Y-48230000D02*
X125265000Y-48230000D01*
X130288000Y-48190000D02*
X125265000Y-48190000D01*
X130295000Y-48150000D02*
X125265000Y-48150000D01*
X130303000Y-48110000D02*
X125265000Y-48110000D01*
X130310000Y-48070000D02*
X125265000Y-48070000D01*
X130316000Y-48030000D02*
X125265000Y-48030000D01*
X130323000Y-47990000D02*
X117327000Y-47990000D01*
X130329000Y-47950000D02*
X117321000Y-47950000D01*
X130335000Y-47910000D02*
X117315000Y-47910000D01*
X130341000Y-47870000D02*
X117309000Y-47870000D01*
X130346000Y-47830000D02*
X117304000Y-47830000D01*
X130351000Y-47790000D02*
X117299000Y-47790000D01*
X130356000Y-47750000D02*
X117294000Y-47750000D01*
X130361000Y-47710000D02*
X117289000Y-47710000D01*
X130366000Y-47670000D02*
X117284000Y-47670000D01*
X130370000Y-47630000D02*
X117280000Y-47630000D01*
X130374000Y-47590000D02*
X117276000Y-47590000D01*
X130378000Y-47550000D02*
X117272000Y-47550000D01*
X130381000Y-47510000D02*
X117269000Y-47510000D01*
X130385000Y-47470000D02*
X117265000Y-47470000D01*
X130388000Y-47430000D02*
X117262000Y-47430000D01*
X130390000Y-47390000D02*
X117260000Y-47390000D01*
X130393000Y-47350000D02*
X117257000Y-47350000D01*
X130395000Y-47310000D02*
X117255000Y-47310000D01*
X130397000Y-47270000D02*
X117253000Y-47270000D01*
X130399000Y-47230000D02*
X117251000Y-47230000D01*
X130401000Y-47190000D02*
X117249000Y-47190000D01*
X130402000Y-47150000D02*
X117248000Y-47150000D01*
X130403000Y-47110000D02*
X117247000Y-47110000D01*
X130404000Y-47070000D02*
X117246000Y-47070000D01*
X130405000Y-46950000D02*
X117245000Y-46950000D01*
X130405000Y-46990000D02*
X117245000Y-46990000D01*
X130405000Y-47030000D02*
X117245000Y-47030000D01*
X130445000Y-46950000D02*
G75*
G02*
X117205000Y-46950000I-6620000J0D01*
G01*
X117205000Y-46950000D02*
G75*
G02*
X130445000Y-46950000I6620000J0D01*
G01*
%TO.C,C16*%
X99956252Y-43080000D02*
X99433748Y-43080000D01*
X99956252Y-44550000D02*
X99433748Y-44550000D01*
%TO.C,C4*%
X91178748Y-38000000D02*
X91701252Y-38000000D01*
X91178748Y-39470000D02*
X91701252Y-39470000D01*
%TO.C,R11*%
X112802936Y-69115000D02*
X113257064Y-69115000D01*
X112802936Y-70585000D02*
X113257064Y-70585000D01*
%TO.C,C2*%
X112133748Y-45620000D02*
X112656252Y-45620000D01*
X112133748Y-47090000D02*
X112656252Y-47090000D01*
%TO.C,J2*%
X136125000Y-70370000D02*
X136125000Y-74370000D01*
X136415000Y-69340000D02*
X136415000Y-75360000D01*
X136415000Y-75360000D02*
X141715000Y-75360000D01*
X136995000Y-69340000D02*
X136995000Y-69940000D01*
X136995000Y-69940000D02*
X138595000Y-69940000D01*
X137795000Y-74360000D02*
X138045000Y-73830000D01*
X137795000Y-74360000D02*
X140335000Y-74360000D01*
X137795000Y-75360000D02*
X137795000Y-74360000D01*
X138045000Y-73830000D02*
X140085000Y-73830000D01*
X138045000Y-75360000D02*
X138045000Y-74360000D01*
X138595000Y-69940000D02*
X138595000Y-69340000D01*
X139535000Y-69340000D02*
X139535000Y-69940000D01*
X139535000Y-69940000D02*
X141135000Y-69940000D01*
X140085000Y-73830000D02*
X140335000Y-74360000D01*
X140085000Y-75360000D02*
X140085000Y-74360000D01*
X140335000Y-74360000D02*
X140335000Y-75360000D01*
X141135000Y-69940000D02*
X141135000Y-69340000D01*
X141715000Y-69340000D02*
X136415000Y-69340000D01*
X141715000Y-75360000D02*
X141715000Y-69340000D01*
%TO.C,C7*%
X70965000Y-63238748D02*
X70965000Y-63761252D01*
X72435000Y-63238748D02*
X72435000Y-63761252D01*
%TO.C,C12*%
X122385000Y-34060000D02*
X117334000Y-34060000D01*
X122385000Y-34100000D02*
X117340000Y-34100000D01*
X122385000Y-34140000D02*
X117347000Y-34140000D01*
X122385000Y-34180000D02*
X117355000Y-34180000D01*
X122385000Y-34220000D02*
X117362000Y-34220000D01*
X122385000Y-34260000D02*
X117370000Y-34260000D01*
X122385000Y-34300000D02*
X117378000Y-34300000D01*
X122385000Y-34340000D02*
X117386000Y-34340000D01*
X122385000Y-34380000D02*
X117395000Y-34380000D01*
X122385000Y-34420000D02*
X117404000Y-34420000D01*
X122385000Y-34460000D02*
X117413000Y-34460000D01*
X122385000Y-34500000D02*
X117422000Y-34500000D01*
X122385000Y-34540000D02*
X117431000Y-34540000D01*
X122385000Y-34580000D02*
X117441000Y-34580000D01*
X122385000Y-34620000D02*
X117451000Y-34620000D01*
X122385000Y-34660000D02*
X117462000Y-34660000D01*
X122385000Y-34700000D02*
X117472000Y-34700000D01*
X122385000Y-34740000D02*
X117483000Y-34740000D01*
X122385000Y-34780000D02*
X117494000Y-34780000D01*
X122385000Y-34820000D02*
X117506000Y-34820000D01*
X122385000Y-34860000D02*
X117518000Y-34860000D01*
X122385000Y-34900000D02*
X117530000Y-34900000D01*
X122385000Y-34940000D02*
X117542000Y-34940000D01*
X122385000Y-34980000D02*
X117554000Y-34980000D01*
X122385000Y-35020000D02*
X117567000Y-35020000D01*
X122385000Y-35060000D02*
X117580000Y-35060000D01*
X122385000Y-35100000D02*
X117594000Y-35100000D01*
X122385000Y-35140000D02*
X117607000Y-35140000D01*
X122385000Y-35180000D02*
X117621000Y-35180000D01*
X122385000Y-35220000D02*
X117635000Y-35220000D01*
X122385000Y-35260000D02*
X117650000Y-35260000D01*
X122385000Y-35300000D02*
X117665000Y-35300000D01*
X122385000Y-35340000D02*
X117680000Y-35340000D01*
X122385000Y-35380000D02*
X117695000Y-35380000D01*
X122385000Y-35420000D02*
X117711000Y-35420000D01*
X122385000Y-35460000D02*
X117727000Y-35460000D01*
X122385000Y-35500000D02*
X117743000Y-35500000D01*
X122385000Y-35540000D02*
X117760000Y-35540000D01*
X122385000Y-35580000D02*
X117777000Y-35580000D01*
X122385000Y-35620000D02*
X117794000Y-35620000D01*
X122385000Y-35660000D02*
X117812000Y-35660000D01*
X122385000Y-35700000D02*
X117830000Y-35700000D01*
X122385000Y-35740000D02*
X117848000Y-35740000D01*
X122385000Y-35780000D02*
X117866000Y-35780000D01*
X122385000Y-35820000D02*
X117885000Y-35820000D01*
X122385000Y-35860000D02*
X117904000Y-35860000D01*
X122385000Y-35900000D02*
X117924000Y-35900000D01*
X122385000Y-35940000D02*
X117944000Y-35940000D01*
X122385000Y-35980000D02*
X117964000Y-35980000D01*
X122385000Y-36020000D02*
X117984000Y-36020000D01*
X122385000Y-36060000D02*
X118005000Y-36060000D01*
X122385000Y-36100000D02*
X118026000Y-36100000D01*
X122385000Y-36140000D02*
X118048000Y-36140000D01*
X122385000Y-36180000D02*
X118070000Y-36180000D01*
X122385000Y-36220000D02*
X118092000Y-36220000D01*
X122385000Y-36260000D02*
X118115000Y-36260000D01*
X122385000Y-36300000D02*
X118138000Y-36300000D01*
X122385000Y-36340000D02*
X118161000Y-36340000D01*
X122385000Y-36380000D02*
X118185000Y-36380000D01*
X122385000Y-36420000D02*
X118209000Y-36420000D01*
X122385000Y-36460000D02*
X118233000Y-36460000D01*
X122385000Y-36500000D02*
X118258000Y-36500000D01*
X122385000Y-36540000D02*
X118284000Y-36540000D01*
X122385000Y-36580000D02*
X118309000Y-36580000D01*
X122385000Y-36620000D02*
X118336000Y-36620000D01*
X122385000Y-36660000D02*
X118362000Y-36660000D01*
X122385000Y-36700000D02*
X118389000Y-36700000D01*
X122385000Y-36740000D02*
X118416000Y-36740000D01*
X122385000Y-36780000D02*
X118444000Y-36780000D01*
X122385000Y-36820000D02*
X118473000Y-36820000D01*
X122385000Y-36860000D02*
X118501000Y-36860000D01*
X122385000Y-36900000D02*
X118530000Y-36900000D01*
X124299000Y-39580000D02*
X123351000Y-39580000D01*
X124674000Y-39540000D02*
X122976000Y-39540000D01*
X124931000Y-39500000D02*
X122719000Y-39500000D01*
X125139000Y-39460000D02*
X122511000Y-39460000D01*
X125318000Y-39420000D02*
X122332000Y-39420000D01*
X125477000Y-39380000D02*
X122173000Y-39380000D01*
X125622000Y-39340000D02*
X122028000Y-39340000D01*
X125755000Y-39300000D02*
X121895000Y-39300000D01*
X125879000Y-39260000D02*
X121771000Y-39260000D01*
X125996000Y-39220000D02*
X121654000Y-39220000D01*
X126105000Y-39180000D02*
X121545000Y-39180000D01*
X126210000Y-39140000D02*
X121440000Y-39140000D01*
X126309000Y-39100000D02*
X121341000Y-39100000D01*
X126404000Y-39060000D02*
X121246000Y-39060000D01*
X126495000Y-39020000D02*
X121155000Y-39020000D01*
X126582000Y-38980000D02*
X121068000Y-38980000D01*
X126666000Y-38940000D02*
X120984000Y-38940000D01*
X126748000Y-38900000D02*
X120902000Y-38900000D01*
X126826000Y-38860000D02*
X120824000Y-38860000D01*
X126902000Y-38820000D02*
X120748000Y-38820000D01*
X126976000Y-38780000D02*
X120674000Y-38780000D01*
X127048000Y-38740000D02*
X120602000Y-38740000D01*
X127118000Y-38700000D02*
X120532000Y-38700000D01*
X127185000Y-38660000D02*
X120465000Y-38660000D01*
X127251000Y-38620000D02*
X120399000Y-38620000D01*
X127315000Y-38580000D02*
X120335000Y-38580000D01*
X127378000Y-38540000D02*
X120272000Y-38540000D01*
X127439000Y-38500000D02*
X120211000Y-38500000D01*
X127499000Y-38460000D02*
X120151000Y-38460000D01*
X127540000Y-25895431D02*
X127540000Y-27195431D01*
X127557000Y-38420000D02*
X120093000Y-38420000D01*
X127614000Y-38380000D02*
X120036000Y-38380000D01*
X127670000Y-38340000D02*
X119980000Y-38340000D01*
X127725000Y-38300000D02*
X119925000Y-38300000D01*
X127778000Y-38260000D02*
X119872000Y-38260000D01*
X127831000Y-38220000D02*
X119819000Y-38220000D01*
X127882000Y-38180000D02*
X119768000Y-38180000D01*
X127932000Y-38140000D02*
X119718000Y-38140000D01*
X127981000Y-38100000D02*
X119669000Y-38100000D01*
X128030000Y-38060000D02*
X119620000Y-38060000D01*
X128077000Y-38020000D02*
X119573000Y-38020000D01*
X128124000Y-37980000D02*
X119526000Y-37980000D01*
X128169000Y-37940000D02*
X119481000Y-37940000D01*
X128190000Y-26545431D02*
X126890000Y-26545431D01*
X128214000Y-37900000D02*
X119436000Y-37900000D01*
X128258000Y-37860000D02*
X119392000Y-37860000D01*
X128302000Y-37820000D02*
X119348000Y-37820000D01*
X128344000Y-37780000D02*
X119306000Y-37780000D01*
X128386000Y-37740000D02*
X119264000Y-37740000D01*
X128427000Y-37700000D02*
X119223000Y-37700000D01*
X128467000Y-37660000D02*
X119183000Y-37660000D01*
X128507000Y-37620000D02*
X119143000Y-37620000D01*
X128546000Y-37580000D02*
X119104000Y-37580000D01*
X128584000Y-37540000D02*
X119066000Y-37540000D01*
X128622000Y-37500000D02*
X119028000Y-37500000D01*
X128659000Y-37460000D02*
X118991000Y-37460000D01*
X128695000Y-37420000D02*
X118955000Y-37420000D01*
X128731000Y-37380000D02*
X118919000Y-37380000D01*
X128766000Y-37340000D02*
X118884000Y-37340000D01*
X128801000Y-37300000D02*
X118849000Y-37300000D01*
X128835000Y-37260000D02*
X118815000Y-37260000D01*
X128869000Y-37220000D02*
X118781000Y-37220000D01*
X128902000Y-37180000D02*
X118748000Y-37180000D01*
X128935000Y-37140000D02*
X118715000Y-37140000D01*
X128967000Y-37100000D02*
X118683000Y-37100000D01*
X128998000Y-37060000D02*
X118652000Y-37060000D01*
X129029000Y-37020000D02*
X118621000Y-37020000D01*
X129060000Y-36980000D02*
X118590000Y-36980000D01*
X129090000Y-36940000D02*
X118560000Y-36940000D01*
X129120000Y-36900000D02*
X125265000Y-36900000D01*
X129149000Y-36860000D02*
X125265000Y-36860000D01*
X129177000Y-36820000D02*
X125265000Y-36820000D01*
X129206000Y-36780000D02*
X125265000Y-36780000D01*
X129234000Y-36740000D02*
X125265000Y-36740000D01*
X129261000Y-36700000D02*
X125265000Y-36700000D01*
X129288000Y-36660000D02*
X125265000Y-36660000D01*
X129314000Y-36620000D02*
X125265000Y-36620000D01*
X129341000Y-36580000D02*
X125265000Y-36580000D01*
X129366000Y-36540000D02*
X125265000Y-36540000D01*
X129392000Y-36500000D02*
X125265000Y-36500000D01*
X129417000Y-36460000D02*
X125265000Y-36460000D01*
X129441000Y-36420000D02*
X125265000Y-36420000D01*
X129465000Y-36380000D02*
X125265000Y-36380000D01*
X129489000Y-36340000D02*
X125265000Y-36340000D01*
X129512000Y-36300000D02*
X125265000Y-36300000D01*
X129535000Y-36260000D02*
X125265000Y-36260000D01*
X129558000Y-36220000D02*
X125265000Y-36220000D01*
X129580000Y-36180000D02*
X125265000Y-36180000D01*
X129602000Y-36140000D02*
X125265000Y-36140000D01*
X129624000Y-36100000D02*
X125265000Y-36100000D01*
X129645000Y-36060000D02*
X125265000Y-36060000D01*
X129666000Y-36020000D02*
X125265000Y-36020000D01*
X129686000Y-35980000D02*
X125265000Y-35980000D01*
X129706000Y-35940000D02*
X125265000Y-35940000D01*
X129726000Y-35900000D02*
X125265000Y-35900000D01*
X129746000Y-35860000D02*
X125265000Y-35860000D01*
X129765000Y-35820000D02*
X125265000Y-35820000D01*
X129784000Y-35780000D02*
X125265000Y-35780000D01*
X129802000Y-35740000D02*
X125265000Y-35740000D01*
X129820000Y-35700000D02*
X125265000Y-35700000D01*
X129838000Y-35660000D02*
X125265000Y-35660000D01*
X129856000Y-35620000D02*
X125265000Y-35620000D01*
X129873000Y-35580000D02*
X125265000Y-35580000D01*
X129890000Y-35540000D02*
X125265000Y-35540000D01*
X129907000Y-35500000D02*
X125265000Y-35500000D01*
X129923000Y-35460000D02*
X125265000Y-35460000D01*
X129939000Y-35420000D02*
X125265000Y-35420000D01*
X129955000Y-35380000D02*
X125265000Y-35380000D01*
X129970000Y-35340000D02*
X125265000Y-35340000D01*
X129985000Y-35300000D02*
X125265000Y-35300000D01*
X130000000Y-35260000D02*
X125265000Y-35260000D01*
X130015000Y-35220000D02*
X125265000Y-35220000D01*
X130029000Y-35180000D02*
X125265000Y-35180000D01*
X130043000Y-35140000D02*
X125265000Y-35140000D01*
X130056000Y-35100000D02*
X125265000Y-35100000D01*
X130070000Y-35060000D02*
X125265000Y-35060000D01*
X130083000Y-35020000D02*
X125265000Y-35020000D01*
X130096000Y-34980000D02*
X125265000Y-34980000D01*
X130108000Y-34940000D02*
X125265000Y-34940000D01*
X130120000Y-34900000D02*
X125265000Y-34900000D01*
X130132000Y-34860000D02*
X125265000Y-34860000D01*
X130144000Y-34820000D02*
X125265000Y-34820000D01*
X130156000Y-34780000D02*
X125265000Y-34780000D01*
X130167000Y-34740000D02*
X125265000Y-34740000D01*
X130178000Y-34700000D02*
X125265000Y-34700000D01*
X130188000Y-34660000D02*
X125265000Y-34660000D01*
X130199000Y-34620000D02*
X125265000Y-34620000D01*
X130209000Y-34580000D02*
X125265000Y-34580000D01*
X130219000Y-34540000D02*
X125265000Y-34540000D01*
X130228000Y-34500000D02*
X125265000Y-34500000D01*
X130237000Y-34460000D02*
X125265000Y-34460000D01*
X130246000Y-34420000D02*
X125265000Y-34420000D01*
X130255000Y-34380000D02*
X125265000Y-34380000D01*
X130264000Y-34340000D02*
X125265000Y-34340000D01*
X130272000Y-34300000D02*
X125265000Y-34300000D01*
X130280000Y-34260000D02*
X125265000Y-34260000D01*
X130288000Y-34220000D02*
X125265000Y-34220000D01*
X130295000Y-34180000D02*
X125265000Y-34180000D01*
X130303000Y-34140000D02*
X125265000Y-34140000D01*
X130310000Y-34100000D02*
X125265000Y-34100000D01*
X130316000Y-34060000D02*
X125265000Y-34060000D01*
X130323000Y-34020000D02*
X117327000Y-34020000D01*
X130329000Y-33980000D02*
X117321000Y-33980000D01*
X130335000Y-33940000D02*
X117315000Y-33940000D01*
X130341000Y-33900000D02*
X117309000Y-33900000D01*
X130346000Y-33860000D02*
X117304000Y-33860000D01*
X130351000Y-33820000D02*
X117299000Y-33820000D01*
X130356000Y-33780000D02*
X117294000Y-33780000D01*
X130361000Y-33740000D02*
X117289000Y-33740000D01*
X130366000Y-33700000D02*
X117284000Y-33700000D01*
X130370000Y-33660000D02*
X117280000Y-33660000D01*
X130374000Y-33620000D02*
X117276000Y-33620000D01*
X130378000Y-33580000D02*
X117272000Y-33580000D01*
X130381000Y-33540000D02*
X117269000Y-33540000D01*
X130385000Y-33500000D02*
X117265000Y-33500000D01*
X130388000Y-33460000D02*
X117262000Y-33460000D01*
X130390000Y-33420000D02*
X117260000Y-33420000D01*
X130393000Y-33380000D02*
X117257000Y-33380000D01*
X130395000Y-33340000D02*
X117255000Y-33340000D01*
X130397000Y-33300000D02*
X117253000Y-33300000D01*
X130399000Y-33260000D02*
X117251000Y-33260000D01*
X130401000Y-33220000D02*
X117249000Y-33220000D01*
X130402000Y-33180000D02*
X117248000Y-33180000D01*
X130403000Y-33140000D02*
X117247000Y-33140000D01*
X130404000Y-33100000D02*
X117246000Y-33100000D01*
X130405000Y-32980000D02*
X117245000Y-32980000D01*
X130405000Y-33020000D02*
X117245000Y-33020000D01*
X130405000Y-33060000D02*
X117245000Y-33060000D01*
X130445000Y-32980000D02*
G75*
G02*
X117205000Y-32980000I-6620000J0D01*
G01*
X117205000Y-32980000D02*
G75*
G02*
X130445000Y-32980000I6620000J0D01*
G01*
%TO.C,C21*%
X108846252Y-69115000D02*
X108323748Y-69115000D01*
X108846252Y-70585000D02*
X108323748Y-70585000D01*
%TO.C,U6*%
X86614000Y-62210000D02*
X84664000Y-62210000D01*
X86614000Y-62210000D02*
X88564000Y-62210000D01*
X86614000Y-67330000D02*
X84664000Y-67330000D01*
X86614000Y-67330000D02*
X88564000Y-67330000D01*
X83914000Y-62305000D02*
X83674000Y-61975000D01*
X84154000Y-61975000D01*
X83914000Y-62305000D01*
G36*
X83914000Y-62305000D02*
G01*
X83674000Y-61975000D01*
X84154000Y-61975000D01*
X83914000Y-62305000D01*
G37*
%TO.C,C23*%
X112768748Y-61495000D02*
X113291252Y-61495000D01*
X112768748Y-62965000D02*
X113291252Y-62965000D01*
%TO.C,J3*%
X107840000Y-26200000D02*
X107840000Y-32220000D01*
X107840000Y-32220000D02*
X113140000Y-32220000D01*
X108420000Y-31620000D02*
X108420000Y-32220000D01*
X109220000Y-27200000D02*
X109220000Y-26200000D01*
X109470000Y-26200000D02*
X109470000Y-27200000D01*
X109470000Y-27730000D02*
X109220000Y-27200000D01*
X110020000Y-31620000D02*
X108420000Y-31620000D01*
X110020000Y-32220000D02*
X110020000Y-31620000D01*
X110960000Y-31620000D02*
X110960000Y-32220000D01*
X111510000Y-26200000D02*
X111510000Y-27200000D01*
X111510000Y-27730000D02*
X109470000Y-27730000D01*
X111760000Y-26200000D02*
X111760000Y-27200000D01*
X111760000Y-27200000D02*
X109220000Y-27200000D01*
X111760000Y-27200000D02*
X111510000Y-27730000D01*
X112560000Y-31620000D02*
X110960000Y-31620000D01*
X112560000Y-32220000D02*
X112560000Y-31620000D01*
X113140000Y-26200000D02*
X107840000Y-26200000D01*
X113140000Y-32220000D02*
X113140000Y-26200000D01*
X113430000Y-31190000D02*
X113430000Y-27190000D01*
%TO.C,R2*%
X112622064Y-43080000D02*
X112167936Y-43080000D01*
X112622064Y-44550000D02*
X112167936Y-44550000D01*
%TO.C,U1*%
X84963000Y-38080000D02*
X83013000Y-38080000D01*
X84963000Y-38080000D02*
X86913000Y-38080000D01*
X84963000Y-43200000D02*
X83013000Y-43200000D01*
X84963000Y-43200000D02*
X86913000Y-43200000D01*
X82263000Y-38175000D02*
X82023000Y-37845000D01*
X82503000Y-37845000D01*
X82263000Y-38175000D01*
G36*
X82263000Y-38175000D02*
G01*
X82023000Y-37845000D01*
X82503000Y-37845000D01*
X82263000Y-38175000D01*
G37*
%TO.C,TP7*%
X103925600Y-71170800D02*
G75*
G02*
X102525600Y-71170800I-700000J0D01*
G01*
X102525600Y-71170800D02*
G75*
G02*
X103925600Y-71170800I700000J0D01*
G01*
%TO.C,R9*%
X113257064Y-66575000D02*
X112802936Y-66575000D01*
X113257064Y-68045000D02*
X112802936Y-68045000D01*
%TO.C,C10*%
X70965000Y-56561252D02*
X70965000Y-56038748D01*
X72435000Y-56561252D02*
X72435000Y-56038748D01*
%TO.C,TP6*%
X88965000Y-70866000D02*
G75*
G02*
X87565000Y-70866000I-700000J0D01*
G01*
X87565000Y-70866000D02*
G75*
G02*
X88965000Y-70866000I700000J0D01*
G01*
%TO.C,R3*%
X112167936Y-40540000D02*
X112622064Y-40540000D01*
X112167936Y-42010000D02*
X112622064Y-42010000D01*
%TO.C,J4*%
X125330000Y-70410000D02*
X125330000Y-74410000D01*
X125620000Y-69380000D02*
X125620000Y-75400000D01*
X125620000Y-75400000D02*
X130920000Y-75400000D01*
X126200000Y-69380000D02*
X126200000Y-69980000D01*
X126200000Y-69980000D02*
X127800000Y-69980000D01*
X127000000Y-74400000D02*
X127250000Y-73870000D01*
X127000000Y-74400000D02*
X129540000Y-74400000D01*
X127000000Y-75400000D02*
X127000000Y-74400000D01*
X127250000Y-73870000D02*
X129290000Y-73870000D01*
X127250000Y-75400000D02*
X127250000Y-74400000D01*
X127800000Y-69980000D02*
X127800000Y-69380000D01*
X128740000Y-69380000D02*
X128740000Y-69980000D01*
X128740000Y-69980000D02*
X130340000Y-69980000D01*
X129290000Y-73870000D02*
X129540000Y-74400000D01*
X129290000Y-75400000D02*
X129290000Y-74400000D01*
X129540000Y-74400000D02*
X129540000Y-75400000D01*
X130340000Y-69980000D02*
X130340000Y-69380000D01*
X130920000Y-69380000D02*
X125620000Y-69380000D01*
X130920000Y-75400000D02*
X130920000Y-69380000D01*
%TO.C,D1*%
X87450000Y-34814000D02*
X83440000Y-34814000D01*
X87450000Y-36814000D02*
X83440000Y-36814000D01*
X87450000Y-36814000D02*
X87450000Y-34814000D01*
%TO.C,U7*%
X106680000Y-62210000D02*
X104730000Y-62210000D01*
X106680000Y-62210000D02*
X108630000Y-62210000D01*
X106680000Y-67330000D02*
X104730000Y-67330000D01*
X106680000Y-67330000D02*
X108630000Y-67330000D01*
X103980000Y-62305000D02*
X103740000Y-61975000D01*
X104220000Y-61975000D01*
X103980000Y-62305000D01*
G36*
X103980000Y-62305000D02*
G01*
X103740000Y-61975000D01*
X104220000Y-61975000D01*
X103980000Y-62305000D01*
G37*
%TO.C,C9*%
X136355000Y-48030000D02*
X131304000Y-48030000D01*
X136355000Y-48070000D02*
X131310000Y-48070000D01*
X136355000Y-48110000D02*
X131317000Y-48110000D01*
X136355000Y-48150000D02*
X131325000Y-48150000D01*
X136355000Y-48190000D02*
X131332000Y-48190000D01*
X136355000Y-48230000D02*
X131340000Y-48230000D01*
X136355000Y-48270000D02*
X131348000Y-48270000D01*
X136355000Y-48310000D02*
X131356000Y-48310000D01*
X136355000Y-48350000D02*
X131365000Y-48350000D01*
X136355000Y-48390000D02*
X131374000Y-48390000D01*
X136355000Y-48430000D02*
X131383000Y-48430000D01*
X136355000Y-48470000D02*
X131392000Y-48470000D01*
X136355000Y-48510000D02*
X131401000Y-48510000D01*
X136355000Y-48550000D02*
X131411000Y-48550000D01*
X136355000Y-48590000D02*
X131421000Y-48590000D01*
X136355000Y-48630000D02*
X131432000Y-48630000D01*
X136355000Y-48670000D02*
X131442000Y-48670000D01*
X136355000Y-48710000D02*
X131453000Y-48710000D01*
X136355000Y-48750000D02*
X131464000Y-48750000D01*
X136355000Y-48790000D02*
X131476000Y-48790000D01*
X136355000Y-48830000D02*
X131488000Y-48830000D01*
X136355000Y-48870000D02*
X131500000Y-48870000D01*
X136355000Y-48910000D02*
X131512000Y-48910000D01*
X136355000Y-48950000D02*
X131524000Y-48950000D01*
X136355000Y-48990000D02*
X131537000Y-48990000D01*
X136355000Y-49030000D02*
X131550000Y-49030000D01*
X136355000Y-49070000D02*
X131564000Y-49070000D01*
X136355000Y-49110000D02*
X131577000Y-49110000D01*
X136355000Y-49150000D02*
X131591000Y-49150000D01*
X136355000Y-49190000D02*
X131605000Y-49190000D01*
X136355000Y-49230000D02*
X131620000Y-49230000D01*
X136355000Y-49270000D02*
X131635000Y-49270000D01*
X136355000Y-49310000D02*
X131650000Y-49310000D01*
X136355000Y-49350000D02*
X131665000Y-49350000D01*
X136355000Y-49390000D02*
X131681000Y-49390000D01*
X136355000Y-49430000D02*
X131697000Y-49430000D01*
X136355000Y-49470000D02*
X131713000Y-49470000D01*
X136355000Y-49510000D02*
X131730000Y-49510000D01*
X136355000Y-49550000D02*
X131747000Y-49550000D01*
X136355000Y-49590000D02*
X131764000Y-49590000D01*
X136355000Y-49630000D02*
X131782000Y-49630000D01*
X136355000Y-49670000D02*
X131800000Y-49670000D01*
X136355000Y-49710000D02*
X131818000Y-49710000D01*
X136355000Y-49750000D02*
X131836000Y-49750000D01*
X136355000Y-49790000D02*
X131855000Y-49790000D01*
X136355000Y-49830000D02*
X131874000Y-49830000D01*
X136355000Y-49870000D02*
X131894000Y-49870000D01*
X136355000Y-49910000D02*
X131914000Y-49910000D01*
X136355000Y-49950000D02*
X131934000Y-49950000D01*
X136355000Y-49990000D02*
X131954000Y-49990000D01*
X136355000Y-50030000D02*
X131975000Y-50030000D01*
X136355000Y-50070000D02*
X131996000Y-50070000D01*
X136355000Y-50110000D02*
X132018000Y-50110000D01*
X136355000Y-50150000D02*
X132040000Y-50150000D01*
X136355000Y-50190000D02*
X132062000Y-50190000D01*
X136355000Y-50230000D02*
X132085000Y-50230000D01*
X136355000Y-50270000D02*
X132108000Y-50270000D01*
X136355000Y-50310000D02*
X132131000Y-50310000D01*
X136355000Y-50350000D02*
X132155000Y-50350000D01*
X136355000Y-50390000D02*
X132179000Y-50390000D01*
X136355000Y-50430000D02*
X132203000Y-50430000D01*
X136355000Y-50470000D02*
X132228000Y-50470000D01*
X136355000Y-50510000D02*
X132254000Y-50510000D01*
X136355000Y-50550000D02*
X132279000Y-50550000D01*
X136355000Y-50590000D02*
X132306000Y-50590000D01*
X136355000Y-50630000D02*
X132332000Y-50630000D01*
X136355000Y-50670000D02*
X132359000Y-50670000D01*
X136355000Y-50710000D02*
X132386000Y-50710000D01*
X136355000Y-50750000D02*
X132414000Y-50750000D01*
X136355000Y-50790000D02*
X132443000Y-50790000D01*
X136355000Y-50830000D02*
X132471000Y-50830000D01*
X136355000Y-50870000D02*
X132500000Y-50870000D01*
X138269000Y-53550000D02*
X137321000Y-53550000D01*
X138644000Y-53510000D02*
X136946000Y-53510000D01*
X138901000Y-53470000D02*
X136689000Y-53470000D01*
X139109000Y-53430000D02*
X136481000Y-53430000D01*
X139288000Y-53390000D02*
X136302000Y-53390000D01*
X139447000Y-53350000D02*
X136143000Y-53350000D01*
X139592000Y-53310000D02*
X135998000Y-53310000D01*
X139725000Y-53270000D02*
X135865000Y-53270000D01*
X139849000Y-53230000D02*
X135741000Y-53230000D01*
X139966000Y-53190000D02*
X135624000Y-53190000D01*
X140075000Y-53150000D02*
X135515000Y-53150000D01*
X140180000Y-53110000D02*
X135410000Y-53110000D01*
X140279000Y-53070000D02*
X135311000Y-53070000D01*
X140374000Y-53030000D02*
X135216000Y-53030000D01*
X140465000Y-52990000D02*
X135125000Y-52990000D01*
X140552000Y-52950000D02*
X135038000Y-52950000D01*
X140636000Y-52910000D02*
X134954000Y-52910000D01*
X140718000Y-52870000D02*
X134872000Y-52870000D01*
X140796000Y-52830000D02*
X134794000Y-52830000D01*
X140872000Y-52790000D02*
X134718000Y-52790000D01*
X140946000Y-52750000D02*
X134644000Y-52750000D01*
X141018000Y-52710000D02*
X134572000Y-52710000D01*
X141088000Y-52670000D02*
X134502000Y-52670000D01*
X141155000Y-52630000D02*
X134435000Y-52630000D01*
X141221000Y-52590000D02*
X134369000Y-52590000D01*
X141285000Y-52550000D02*
X134305000Y-52550000D01*
X141348000Y-52510000D02*
X134242000Y-52510000D01*
X141409000Y-52470000D02*
X134181000Y-52470000D01*
X141469000Y-52430000D02*
X134121000Y-52430000D01*
X141510000Y-39865431D02*
X141510000Y-41165431D01*
X141527000Y-52390000D02*
X134063000Y-52390000D01*
X141584000Y-52350000D02*
X134006000Y-52350000D01*
X141640000Y-52310000D02*
X133950000Y-52310000D01*
X141695000Y-52270000D02*
X133895000Y-52270000D01*
X141748000Y-52230000D02*
X133842000Y-52230000D01*
X141801000Y-52190000D02*
X133789000Y-52190000D01*
X141852000Y-52150000D02*
X133738000Y-52150000D01*
X141902000Y-52110000D02*
X133688000Y-52110000D01*
X141951000Y-52070000D02*
X133639000Y-52070000D01*
X142000000Y-52030000D02*
X133590000Y-52030000D01*
X142047000Y-51990000D02*
X133543000Y-51990000D01*
X142094000Y-51950000D02*
X133496000Y-51950000D01*
X142139000Y-51910000D02*
X133451000Y-51910000D01*
X142160000Y-40515431D02*
X140860000Y-40515431D01*
X142184000Y-51870000D02*
X133406000Y-51870000D01*
X142228000Y-51830000D02*
X133362000Y-51830000D01*
X142272000Y-51790000D02*
X133318000Y-51790000D01*
X142314000Y-51750000D02*
X133276000Y-51750000D01*
X142356000Y-51710000D02*
X133234000Y-51710000D01*
X142397000Y-51670000D02*
X133193000Y-51670000D01*
X142437000Y-51630000D02*
X133153000Y-51630000D01*
X142477000Y-51590000D02*
X133113000Y-51590000D01*
X142516000Y-51550000D02*
X133074000Y-51550000D01*
X142554000Y-51510000D02*
X133036000Y-51510000D01*
X142592000Y-51470000D02*
X132998000Y-51470000D01*
X142629000Y-51430000D02*
X132961000Y-51430000D01*
X142665000Y-51390000D02*
X132925000Y-51390000D01*
X142701000Y-51350000D02*
X132889000Y-51350000D01*
X142736000Y-51310000D02*
X132854000Y-51310000D01*
X142771000Y-51270000D02*
X132819000Y-51270000D01*
X142805000Y-51230000D02*
X132785000Y-51230000D01*
X142839000Y-51190000D02*
X132751000Y-51190000D01*
X142872000Y-51150000D02*
X132718000Y-51150000D01*
X142905000Y-51110000D02*
X132685000Y-51110000D01*
X142937000Y-51070000D02*
X132653000Y-51070000D01*
X142968000Y-51030000D02*
X132622000Y-51030000D01*
X142999000Y-50990000D02*
X132591000Y-50990000D01*
X143030000Y-50950000D02*
X132560000Y-50950000D01*
X143060000Y-50910000D02*
X132530000Y-50910000D01*
X143090000Y-50870000D02*
X139235000Y-50870000D01*
X143119000Y-50830000D02*
X139235000Y-50830000D01*
X143147000Y-50790000D02*
X139235000Y-50790000D01*
X143176000Y-50750000D02*
X139235000Y-50750000D01*
X143204000Y-50710000D02*
X139235000Y-50710000D01*
X143231000Y-50670000D02*
X139235000Y-50670000D01*
X143258000Y-50630000D02*
X139235000Y-50630000D01*
X143284000Y-50590000D02*
X139235000Y-50590000D01*
X143311000Y-50550000D02*
X139235000Y-50550000D01*
X143336000Y-50510000D02*
X139235000Y-50510000D01*
X143362000Y-50470000D02*
X139235000Y-50470000D01*
X143387000Y-50430000D02*
X139235000Y-50430000D01*
X143411000Y-50390000D02*
X139235000Y-50390000D01*
X143435000Y-50350000D02*
X139235000Y-50350000D01*
X143459000Y-50310000D02*
X139235000Y-50310000D01*
X143482000Y-50270000D02*
X139235000Y-50270000D01*
X143505000Y-50230000D02*
X139235000Y-50230000D01*
X143528000Y-50190000D02*
X139235000Y-50190000D01*
X143550000Y-50150000D02*
X139235000Y-50150000D01*
X143572000Y-50110000D02*
X139235000Y-50110000D01*
X143594000Y-50070000D02*
X139235000Y-50070000D01*
X143615000Y-50030000D02*
X139235000Y-50030000D01*
X143636000Y-49990000D02*
X139235000Y-49990000D01*
X143656000Y-49950000D02*
X139235000Y-49950000D01*
X143676000Y-49910000D02*
X139235000Y-49910000D01*
X143696000Y-49870000D02*
X139235000Y-49870000D01*
X143716000Y-49830000D02*
X139235000Y-49830000D01*
X143735000Y-49790000D02*
X139235000Y-49790000D01*
X143754000Y-49750000D02*
X139235000Y-49750000D01*
X143772000Y-49710000D02*
X139235000Y-49710000D01*
X143790000Y-49670000D02*
X139235000Y-49670000D01*
X143808000Y-49630000D02*
X139235000Y-49630000D01*
X143826000Y-49590000D02*
X139235000Y-49590000D01*
X143843000Y-49550000D02*
X139235000Y-49550000D01*
X143860000Y-49510000D02*
X139235000Y-49510000D01*
X143877000Y-49470000D02*
X139235000Y-49470000D01*
X143893000Y-49430000D02*
X139235000Y-49430000D01*
X143909000Y-49390000D02*
X139235000Y-49390000D01*
X143925000Y-49350000D02*
X139235000Y-49350000D01*
X143940000Y-49310000D02*
X139235000Y-49310000D01*
X143955000Y-49270000D02*
X139235000Y-49270000D01*
X143970000Y-49230000D02*
X139235000Y-49230000D01*
X143985000Y-49190000D02*
X139235000Y-49190000D01*
X143999000Y-49150000D02*
X139235000Y-49150000D01*
X144013000Y-49110000D02*
X139235000Y-49110000D01*
X144026000Y-49070000D02*
X139235000Y-49070000D01*
X144040000Y-49030000D02*
X139235000Y-49030000D01*
X144053000Y-48990000D02*
X139235000Y-48990000D01*
X144066000Y-48950000D02*
X139235000Y-48950000D01*
X144078000Y-48910000D02*
X139235000Y-48910000D01*
X144090000Y-48870000D02*
X139235000Y-48870000D01*
X144102000Y-48830000D02*
X139235000Y-48830000D01*
X144114000Y-48790000D02*
X139235000Y-48790000D01*
X144126000Y-48750000D02*
X139235000Y-48750000D01*
X144137000Y-48710000D02*
X139235000Y-48710000D01*
X144148000Y-48670000D02*
X139235000Y-48670000D01*
X144158000Y-48630000D02*
X139235000Y-48630000D01*
X144169000Y-48590000D02*
X139235000Y-48590000D01*
X144179000Y-48550000D02*
X139235000Y-48550000D01*
X144189000Y-48510000D02*
X139235000Y-48510000D01*
X144198000Y-48470000D02*
X139235000Y-48470000D01*
X144207000Y-48430000D02*
X139235000Y-48430000D01*
X144216000Y-48390000D02*
X139235000Y-48390000D01*
X144225000Y-48350000D02*
X139235000Y-48350000D01*
X144234000Y-48310000D02*
X139235000Y-48310000D01*
X144242000Y-48270000D02*
X139235000Y-48270000D01*
X144250000Y-48230000D02*
X139235000Y-48230000D01*
X144258000Y-48190000D02*
X139235000Y-48190000D01*
X144265000Y-48150000D02*
X139235000Y-48150000D01*
X144273000Y-48110000D02*
X139235000Y-48110000D01*
X144280000Y-48070000D02*
X139235000Y-48070000D01*
X144286000Y-48030000D02*
X139235000Y-48030000D01*
X144293000Y-47990000D02*
X131297000Y-47990000D01*
X144299000Y-47950000D02*
X131291000Y-47950000D01*
X144305000Y-47910000D02*
X131285000Y-47910000D01*
X144311000Y-47870000D02*
X131279000Y-47870000D01*
X144316000Y-47830000D02*
X131274000Y-47830000D01*
X144321000Y-47790000D02*
X131269000Y-47790000D01*
X144326000Y-47750000D02*
X131264000Y-47750000D01*
X144331000Y-47710000D02*
X131259000Y-47710000D01*
X144336000Y-47670000D02*
X131254000Y-47670000D01*
X144340000Y-47630000D02*
X131250000Y-47630000D01*
X144344000Y-47590000D02*
X131246000Y-47590000D01*
X144348000Y-47550000D02*
X131242000Y-47550000D01*
X144351000Y-47510000D02*
X131239000Y-47510000D01*
X144355000Y-47470000D02*
X131235000Y-47470000D01*
X144358000Y-47430000D02*
X131232000Y-47430000D01*
X144360000Y-47390000D02*
X131230000Y-47390000D01*
X144363000Y-47350000D02*
X131227000Y-47350000D01*
X144365000Y-47310000D02*
X131225000Y-47310000D01*
X144367000Y-47270000D02*
X131223000Y-47270000D01*
X144369000Y-47230000D02*
X131221000Y-47230000D01*
X144371000Y-47190000D02*
X131219000Y-47190000D01*
X144372000Y-47150000D02*
X131218000Y-47150000D01*
X144373000Y-47110000D02*
X131217000Y-47110000D01*
X144374000Y-47070000D02*
X131216000Y-47070000D01*
X144375000Y-46950000D02*
X131215000Y-46950000D01*
X144375000Y-46990000D02*
X131215000Y-46990000D01*
X144375000Y-47030000D02*
X131215000Y-47030000D01*
X144415000Y-46950000D02*
G75*
G02*
X131175000Y-46950000I-6620000J0D01*
G01*
X131175000Y-46950000D02*
G75*
G02*
X144415000Y-46950000I6620000J0D01*
G01*
%TO.C,C20*%
X92575748Y-66829000D02*
X93098252Y-66829000D01*
X92575748Y-68299000D02*
X93098252Y-68299000D01*
%TO.C,C13*%
X70965000Y-52438748D02*
X70965000Y-52961252D01*
X72435000Y-52438748D02*
X72435000Y-52961252D01*
%TO.C,TP8*%
X119445000Y-69850000D02*
G75*
G02*
X118045000Y-69850000I-700000J0D01*
G01*
X118045000Y-69850000D02*
G75*
G02*
X119445000Y-69850000I700000J0D01*
G01*
%TO.C,C8*%
X67683748Y-44985000D02*
X68206252Y-44985000D01*
X67683748Y-46455000D02*
X68206252Y-46455000D01*
%TO.C,R5*%
X91212936Y-40540000D02*
X91667064Y-40540000D01*
X91212936Y-42010000D02*
X91667064Y-42010000D01*
%TO.C,R6*%
X91212936Y-43080000D02*
X91667064Y-43080000D01*
X91212936Y-44550000D02*
X91667064Y-44550000D01*
%TO.C,C5*%
X62999252Y-44985000D02*
X62476748Y-44985000D01*
X62999252Y-46455000D02*
X62476748Y-46455000D01*
%TO.C,C17*%
X92575748Y-64543000D02*
X93098252Y-64543000D01*
X92575748Y-66013000D02*
X93098252Y-66013000D01*
%TO.C,R4*%
X112622064Y-38000000D02*
X112167936Y-38000000D01*
X112622064Y-39470000D02*
X112167936Y-39470000D01*
%TO.C,C18*%
X100591252Y-69115000D02*
X100068748Y-69115000D01*
X100591252Y-70585000D02*
X100068748Y-70585000D01*
%TO.C,C15*%
X112133748Y-35460000D02*
X112656252Y-35460000D01*
X112133748Y-36930000D02*
X112656252Y-36930000D01*
%TO.C,Q1*%
X141470000Y-57250000D02*
X141470000Y-57520000D01*
X141470000Y-64150000D02*
X141470000Y-63880000D01*
X147890000Y-57250000D02*
X141470000Y-57250000D01*
X147890000Y-64150000D02*
X141470000Y-64150000D01*
X139740000Y-57560000D02*
X139400000Y-57090000D01*
X140080000Y-57090000D01*
X139740000Y-57560000D01*
G36*
X139740000Y-57560000D02*
G01*
X139400000Y-57090000D01*
X140080000Y-57090000D01*
X139740000Y-57560000D01*
G37*
%TO.C,C22*%
X100591252Y-61495000D02*
X100068748Y-61495000D01*
X100591252Y-62965000D02*
X100068748Y-62965000D01*
%TO.C,J1*%
X83172000Y-25968200D02*
X82062000Y-25968200D01*
X83172000Y-29218200D02*
X82062000Y-29218200D01*
X83762000Y-30268200D02*
X84262000Y-30268200D01*
X84012000Y-29768200D02*
X83762000Y-30268200D01*
X84262000Y-30268200D02*
X84012000Y-29768200D01*
X85962000Y-25968200D02*
X84852000Y-25968200D01*
X85962000Y-29218200D02*
X84852000Y-29218200D01*
%TO.C,Q2*%
X126825000Y-57130000D02*
X126825000Y-57400000D01*
X126825000Y-64030000D02*
X126825000Y-63760000D01*
X133245000Y-57130000D02*
X126825000Y-57130000D01*
X133245000Y-64030000D02*
X126825000Y-64030000D01*
X125095000Y-57440000D02*
X124755000Y-56970000D01*
X125435000Y-56970000D01*
X125095000Y-57440000D01*
G36*
X125095000Y-57440000D02*
G01*
X124755000Y-56970000D01*
X125435000Y-56970000D01*
X125095000Y-57440000D01*
G37*
%TO.C,C14*%
X136355000Y-34060000D02*
X131304000Y-34060000D01*
X136355000Y-34100000D02*
X131310000Y-34100000D01*
X136355000Y-34140000D02*
X131317000Y-34140000D01*
X136355000Y-34180000D02*
X131325000Y-34180000D01*
X136355000Y-34220000D02*
X131332000Y-34220000D01*
X136355000Y-34260000D02*
X131340000Y-34260000D01*
X136355000Y-34300000D02*
X131348000Y-34300000D01*
X136355000Y-34340000D02*
X131356000Y-34340000D01*
X136355000Y-34380000D02*
X131365000Y-34380000D01*
X136355000Y-34420000D02*
X131374000Y-34420000D01*
X136355000Y-34460000D02*
X131383000Y-34460000D01*
X136355000Y-34500000D02*
X131392000Y-34500000D01*
X136355000Y-34540000D02*
X131401000Y-34540000D01*
X136355000Y-34580000D02*
X131411000Y-34580000D01*
X136355000Y-34620000D02*
X131421000Y-34620000D01*
X136355000Y-34660000D02*
X131432000Y-34660000D01*
X136355000Y-34700000D02*
X131442000Y-34700000D01*
X136355000Y-34740000D02*
X131453000Y-34740000D01*
X136355000Y-34780000D02*
X131464000Y-34780000D01*
X136355000Y-34820000D02*
X131476000Y-34820000D01*
X136355000Y-34860000D02*
X131488000Y-34860000D01*
X136355000Y-34900000D02*
X131500000Y-34900000D01*
X136355000Y-34940000D02*
X131512000Y-34940000D01*
X136355000Y-34980000D02*
X131524000Y-34980000D01*
X136355000Y-35020000D02*
X131537000Y-35020000D01*
X136355000Y-35060000D02*
X131550000Y-35060000D01*
X136355000Y-35100000D02*
X131564000Y-35100000D01*
X136355000Y-35140000D02*
X131577000Y-35140000D01*
X136355000Y-35180000D02*
X131591000Y-35180000D01*
X136355000Y-35220000D02*
X131605000Y-35220000D01*
X136355000Y-35260000D02*
X131620000Y-35260000D01*
X136355000Y-35300000D02*
X131635000Y-35300000D01*
X136355000Y-35340000D02*
X131650000Y-35340000D01*
X136355000Y-35380000D02*
X131665000Y-35380000D01*
X136355000Y-35420000D02*
X131681000Y-35420000D01*
X136355000Y-35460000D02*
X131697000Y-35460000D01*
X136355000Y-35500000D02*
X131713000Y-35500000D01*
X136355000Y-35540000D02*
X131730000Y-35540000D01*
X136355000Y-35580000D02*
X131747000Y-35580000D01*
X136355000Y-35620000D02*
X131764000Y-35620000D01*
X136355000Y-35660000D02*
X131782000Y-35660000D01*
X136355000Y-35700000D02*
X131800000Y-35700000D01*
X136355000Y-35740000D02*
X131818000Y-35740000D01*
X136355000Y-35780000D02*
X131836000Y-35780000D01*
X136355000Y-35820000D02*
X131855000Y-35820000D01*
X136355000Y-35860000D02*
X131874000Y-35860000D01*
X136355000Y-35900000D02*
X131894000Y-35900000D01*
X136355000Y-35940000D02*
X131914000Y-35940000D01*
X136355000Y-35980000D02*
X131934000Y-35980000D01*
X136355000Y-36020000D02*
X131954000Y-36020000D01*
X136355000Y-36060000D02*
X131975000Y-36060000D01*
X136355000Y-36100000D02*
X131996000Y-36100000D01*
X136355000Y-36140000D02*
X132018000Y-36140000D01*
X136355000Y-36180000D02*
X132040000Y-36180000D01*
X136355000Y-36220000D02*
X132062000Y-36220000D01*
X136355000Y-36260000D02*
X132085000Y-36260000D01*
X136355000Y-36300000D02*
X132108000Y-36300000D01*
X136355000Y-36340000D02*
X132131000Y-36340000D01*
X136355000Y-36380000D02*
X132155000Y-36380000D01*
X136355000Y-36420000D02*
X132179000Y-36420000D01*
X136355000Y-36460000D02*
X132203000Y-36460000D01*
X136355000Y-36500000D02*
X132228000Y-36500000D01*
X136355000Y-36540000D02*
X132254000Y-36540000D01*
X136355000Y-36580000D02*
X132279000Y-36580000D01*
X136355000Y-36620000D02*
X132306000Y-36620000D01*
X136355000Y-36660000D02*
X132332000Y-36660000D01*
X136355000Y-36700000D02*
X132359000Y-36700000D01*
X136355000Y-36740000D02*
X132386000Y-36740000D01*
X136355000Y-36780000D02*
X132414000Y-36780000D01*
X136355000Y-36820000D02*
X132443000Y-36820000D01*
X136355000Y-36860000D02*
X132471000Y-36860000D01*
X136355000Y-36900000D02*
X132500000Y-36900000D01*
X138269000Y-39580000D02*
X137321000Y-39580000D01*
X138644000Y-39540000D02*
X136946000Y-39540000D01*
X138901000Y-39500000D02*
X136689000Y-39500000D01*
X139109000Y-39460000D02*
X136481000Y-39460000D01*
X139288000Y-39420000D02*
X136302000Y-39420000D01*
X139447000Y-39380000D02*
X136143000Y-39380000D01*
X139592000Y-39340000D02*
X135998000Y-39340000D01*
X139725000Y-39300000D02*
X135865000Y-39300000D01*
X139849000Y-39260000D02*
X135741000Y-39260000D01*
X139966000Y-39220000D02*
X135624000Y-39220000D01*
X140075000Y-39180000D02*
X135515000Y-39180000D01*
X140180000Y-39140000D02*
X135410000Y-39140000D01*
X140279000Y-39100000D02*
X135311000Y-39100000D01*
X140374000Y-39060000D02*
X135216000Y-39060000D01*
X140465000Y-39020000D02*
X135125000Y-39020000D01*
X140552000Y-38980000D02*
X135038000Y-38980000D01*
X140636000Y-38940000D02*
X134954000Y-38940000D01*
X140718000Y-38900000D02*
X134872000Y-38900000D01*
X140796000Y-38860000D02*
X134794000Y-38860000D01*
X140872000Y-38820000D02*
X134718000Y-38820000D01*
X140946000Y-38780000D02*
X134644000Y-38780000D01*
X141018000Y-38740000D02*
X134572000Y-38740000D01*
X141088000Y-38700000D02*
X134502000Y-38700000D01*
X141155000Y-38660000D02*
X134435000Y-38660000D01*
X141221000Y-38620000D02*
X134369000Y-38620000D01*
X141285000Y-38580000D02*
X134305000Y-38580000D01*
X141348000Y-38540000D02*
X134242000Y-38540000D01*
X141409000Y-38500000D02*
X134181000Y-38500000D01*
X141469000Y-38460000D02*
X134121000Y-38460000D01*
X141510000Y-25895431D02*
X141510000Y-27195431D01*
X141527000Y-38420000D02*
X134063000Y-38420000D01*
X141584000Y-38380000D02*
X134006000Y-38380000D01*
X141640000Y-38340000D02*
X133950000Y-38340000D01*
X141695000Y-38300000D02*
X133895000Y-38300000D01*
X141748000Y-38260000D02*
X133842000Y-38260000D01*
X141801000Y-38220000D02*
X133789000Y-38220000D01*
X141852000Y-38180000D02*
X133738000Y-38180000D01*
X141902000Y-38140000D02*
X133688000Y-38140000D01*
X141951000Y-38100000D02*
X133639000Y-38100000D01*
X142000000Y-38060000D02*
X133590000Y-38060000D01*
X142047000Y-38020000D02*
X133543000Y-38020000D01*
X142094000Y-37980000D02*
X133496000Y-37980000D01*
X142139000Y-37940000D02*
X133451000Y-37940000D01*
X142160000Y-26545431D02*
X140860000Y-26545431D01*
X142184000Y-37900000D02*
X133406000Y-37900000D01*
X142228000Y-37860000D02*
X133362000Y-37860000D01*
X142272000Y-37820000D02*
X133318000Y-37820000D01*
X142314000Y-37780000D02*
X133276000Y-37780000D01*
X142356000Y-37740000D02*
X133234000Y-37740000D01*
X142397000Y-37700000D02*
X133193000Y-37700000D01*
X142437000Y-37660000D02*
X133153000Y-37660000D01*
X142477000Y-37620000D02*
X133113000Y-37620000D01*
X142516000Y-37580000D02*
X133074000Y-37580000D01*
X142554000Y-37540000D02*
X133036000Y-37540000D01*
X142592000Y-37500000D02*
X132998000Y-37500000D01*
X142629000Y-37460000D02*
X132961000Y-37460000D01*
X142665000Y-37420000D02*
X132925000Y-37420000D01*
X142701000Y-37380000D02*
X132889000Y-37380000D01*
X142736000Y-37340000D02*
X132854000Y-37340000D01*
X142771000Y-37300000D02*
X132819000Y-37300000D01*
X142805000Y-37260000D02*
X132785000Y-37260000D01*
X142839000Y-37220000D02*
X132751000Y-37220000D01*
X142872000Y-37180000D02*
X132718000Y-37180000D01*
X142905000Y-37140000D02*
X132685000Y-37140000D01*
X142937000Y-37100000D02*
X132653000Y-37100000D01*
X142968000Y-37060000D02*
X132622000Y-37060000D01*
X142999000Y-37020000D02*
X132591000Y-37020000D01*
X143030000Y-36980000D02*
X132560000Y-36980000D01*
X143060000Y-36940000D02*
X132530000Y-36940000D01*
X143090000Y-36900000D02*
X139235000Y-36900000D01*
X143119000Y-36860000D02*
X139235000Y-36860000D01*
X143147000Y-36820000D02*
X139235000Y-36820000D01*
X143176000Y-36780000D02*
X139235000Y-36780000D01*
X143204000Y-36740000D02*
X139235000Y-36740000D01*
X143231000Y-36700000D02*
X139235000Y-36700000D01*
X143258000Y-36660000D02*
X139235000Y-36660000D01*
X143284000Y-36620000D02*
X139235000Y-36620000D01*
X143311000Y-36580000D02*
X139235000Y-36580000D01*
X143336000Y-36540000D02*
X139235000Y-36540000D01*
X143362000Y-36500000D02*
X139235000Y-36500000D01*
X143387000Y-36460000D02*
X139235000Y-36460000D01*
X143411000Y-36420000D02*
X139235000Y-36420000D01*
X143435000Y-36380000D02*
X139235000Y-36380000D01*
X143459000Y-36340000D02*
X139235000Y-36340000D01*
X143482000Y-36300000D02*
X139235000Y-36300000D01*
X143505000Y-36260000D02*
X139235000Y-36260000D01*
X143528000Y-36220000D02*
X139235000Y-36220000D01*
X143550000Y-36180000D02*
X139235000Y-36180000D01*
X143572000Y-36140000D02*
X139235000Y-36140000D01*
X143594000Y-36100000D02*
X139235000Y-36100000D01*
X143615000Y-36060000D02*
X139235000Y-36060000D01*
X143636000Y-36020000D02*
X139235000Y-36020000D01*
X143656000Y-35980000D02*
X139235000Y-35980000D01*
X143676000Y-35940000D02*
X139235000Y-35940000D01*
X143696000Y-35900000D02*
X139235000Y-35900000D01*
X143716000Y-35860000D02*
X139235000Y-35860000D01*
X143735000Y-35820000D02*
X139235000Y-35820000D01*
X143754000Y-35780000D02*
X139235000Y-35780000D01*
X143772000Y-35740000D02*
X139235000Y-35740000D01*
X143790000Y-35700000D02*
X139235000Y-35700000D01*
X143808000Y-35660000D02*
X139235000Y-35660000D01*
X143826000Y-35620000D02*
X139235000Y-35620000D01*
X143843000Y-35580000D02*
X139235000Y-35580000D01*
X143860000Y-35540000D02*
X139235000Y-35540000D01*
X143877000Y-35500000D02*
X139235000Y-35500000D01*
X143893000Y-35460000D02*
X139235000Y-35460000D01*
X143909000Y-35420000D02*
X139235000Y-35420000D01*
X143925000Y-35380000D02*
X139235000Y-35380000D01*
X143940000Y-35340000D02*
X139235000Y-35340000D01*
X143955000Y-35300000D02*
X139235000Y-35300000D01*
X143970000Y-35260000D02*
X139235000Y-35260000D01*
X143985000Y-35220000D02*
X139235000Y-35220000D01*
X143999000Y-35180000D02*
X139235000Y-35180000D01*
X144013000Y-35140000D02*
X139235000Y-35140000D01*
X144026000Y-35100000D02*
X139235000Y-35100000D01*
X144040000Y-35060000D02*
X139235000Y-35060000D01*
X144053000Y-35020000D02*
X139235000Y-35020000D01*
X144066000Y-34980000D02*
X139235000Y-34980000D01*
X144078000Y-34940000D02*
X139235000Y-34940000D01*
X144090000Y-34900000D02*
X139235000Y-34900000D01*
X144102000Y-34860000D02*
X139235000Y-34860000D01*
X144114000Y-34820000D02*
X139235000Y-34820000D01*
X144126000Y-34780000D02*
X139235000Y-34780000D01*
X144137000Y-34740000D02*
X139235000Y-34740000D01*
X144148000Y-34700000D02*
X139235000Y-34700000D01*
X144158000Y-34660000D02*
X139235000Y-34660000D01*
X144169000Y-34620000D02*
X139235000Y-34620000D01*
X144179000Y-34580000D02*
X139235000Y-34580000D01*
X144189000Y-34540000D02*
X139235000Y-34540000D01*
X144198000Y-34500000D02*
X139235000Y-34500000D01*
X144207000Y-34460000D02*
X139235000Y-34460000D01*
X144216000Y-34420000D02*
X139235000Y-34420000D01*
X144225000Y-34380000D02*
X139235000Y-34380000D01*
X144234000Y-34340000D02*
X139235000Y-34340000D01*
X144242000Y-34300000D02*
X139235000Y-34300000D01*
X144250000Y-34260000D02*
X139235000Y-34260000D01*
X144258000Y-34220000D02*
X139235000Y-34220000D01*
X144265000Y-34180000D02*
X139235000Y-34180000D01*
X144273000Y-34140000D02*
X139235000Y-34140000D01*
X144280000Y-34100000D02*
X139235000Y-34100000D01*
X144286000Y-34060000D02*
X139235000Y-34060000D01*
X144293000Y-34020000D02*
X131297000Y-34020000D01*
X144299000Y-33980000D02*
X131291000Y-33980000D01*
X144305000Y-33940000D02*
X131285000Y-33940000D01*
X144311000Y-33900000D02*
X131279000Y-33900000D01*
X144316000Y-33860000D02*
X131274000Y-33860000D01*
X144321000Y-33820000D02*
X131269000Y-33820000D01*
X144326000Y-33780000D02*
X131264000Y-33780000D01*
X144331000Y-33740000D02*
X131259000Y-33740000D01*
X144336000Y-33700000D02*
X131254000Y-33700000D01*
X144340000Y-33660000D02*
X131250000Y-33660000D01*
X144344000Y-33620000D02*
X131246000Y-33620000D01*
X144348000Y-33580000D02*
X131242000Y-33580000D01*
X144351000Y-33540000D02*
X131239000Y-33540000D01*
X144355000Y-33500000D02*
X131235000Y-33500000D01*
X144358000Y-33460000D02*
X131232000Y-33460000D01*
X144360000Y-33420000D02*
X131230000Y-33420000D01*
X144363000Y-33380000D02*
X131227000Y-33380000D01*
X144365000Y-33340000D02*
X131225000Y-33340000D01*
X144367000Y-33300000D02*
X131223000Y-33300000D01*
X144369000Y-33260000D02*
X131221000Y-33260000D01*
X144371000Y-33220000D02*
X131219000Y-33220000D01*
X144372000Y-33180000D02*
X131218000Y-33180000D01*
X144373000Y-33140000D02*
X131217000Y-33140000D01*
X144374000Y-33100000D02*
X131216000Y-33100000D01*
X144375000Y-32980000D02*
X131215000Y-32980000D01*
X144375000Y-33020000D02*
X131215000Y-33020000D01*
X144375000Y-33060000D02*
X131215000Y-33060000D01*
X144415000Y-32980000D02*
G75*
G02*
X131175000Y-32980000I-6620000J0D01*
G01*
X131175000Y-32980000D02*
G75*
G02*
X144415000Y-32980000I6620000J0D01*
G01*
%TO.C,TP1*%
X89600000Y-53975000D02*
G75*
G02*
X88200000Y-53975000I-700000J0D01*
G01*
X88200000Y-53975000D02*
G75*
G02*
X89600000Y-53975000I700000J0D01*
G01*
%TO.C,TP9*%
X122823200Y-73507600D02*
G75*
G02*
X121423200Y-73507600I-700000J0D01*
G01*
X121423200Y-73507600D02*
G75*
G02*
X122823200Y-73507600I700000J0D01*
G01*
%TO.C,C3*%
X99433748Y-40540000D02*
X99956252Y-40540000D01*
X99433748Y-42010000D02*
X99956252Y-42010000D01*
%TO.C,RV2*%
X103710000Y-51455000D02*
X113460000Y-51455000D01*
X103710000Y-56505000D02*
X103710000Y-51455000D01*
X113460000Y-51455000D02*
X113460000Y-56505000D01*
X113460000Y-56505000D02*
X103710000Y-56505000D01*
%TO.C,C19*%
X80388748Y-63340000D02*
X80911252Y-63340000D01*
X80388748Y-64810000D02*
X80911252Y-64810000D01*
%TO.C,R10*%
X113257064Y-64035000D02*
X112802936Y-64035000D01*
X113257064Y-65505000D02*
X112802936Y-65505000D01*
%TO.C,TP5*%
X76400000Y-51800000D02*
G75*
G02*
X75000000Y-51800000I-700000J0D01*
G01*
X75000000Y-51800000D02*
G75*
G02*
X76400000Y-51800000I700000J0D01*
G01*
%TO.C,R8*%
X78927064Y-41165000D02*
X78472936Y-41165000D01*
X78927064Y-42635000D02*
X78472936Y-42635000D01*
%TO.C,R1*%
X78967064Y-38635000D02*
X78512936Y-38635000D01*
X78967064Y-40105000D02*
X78512936Y-40105000D01*
%TO.C,U2*%
X106045000Y-38080000D02*
X104095000Y-38080000D01*
X106045000Y-38080000D02*
X107995000Y-38080000D01*
X106045000Y-43200000D02*
X104095000Y-43200000D01*
X106045000Y-43200000D02*
X107995000Y-43200000D01*
X103345000Y-38175000D02*
X103105000Y-37845000D01*
X103585000Y-37845000D01*
X103345000Y-38175000D01*
G36*
X103345000Y-38175000D02*
G01*
X103105000Y-37845000D01*
X103585000Y-37845000D01*
X103345000Y-38175000D01*
G37*
D12*
%TO.C,U4*%
X58267600Y-31991300D02*
X58267600Y-42938700D01*
X58267600Y-42938700D02*
X60398660Y-42938700D01*
X60398660Y-31991300D02*
X58267600Y-31991300D01*
X61521340Y-42938700D02*
X62938660Y-42938700D01*
X64061340Y-42938700D02*
X68018660Y-42938700D01*
X68018660Y-31991300D02*
X61521340Y-31991300D01*
X69141340Y-42938700D02*
X71272400Y-42938700D01*
X71272400Y-31991300D02*
X69141340Y-31991300D01*
X71272400Y-42938700D02*
X71272400Y-31991300D01*
D13*
X57785000Y-42545000D02*
X57150000Y-43053000D01*
X57150000Y-42037000D01*
X57785000Y-42545000D01*
G36*
X57785000Y-42545000D02*
G01*
X57150000Y-43053000D01*
X57150000Y-42037000D01*
X57785000Y-42545000D01*
G37*
D11*
%TO.C,TP4*%
X72455000Y-45720000D02*
G75*
G02*
X71055000Y-45720000I-700000J0D01*
G01*
X71055000Y-45720000D02*
G75*
G02*
X72455000Y-45720000I700000J0D01*
G01*
%TO.C,C6*%
X70965000Y-67361252D02*
X70965000Y-66838748D01*
X72435000Y-67361252D02*
X72435000Y-66838748D01*
%TO.C,RV1*%
X92280000Y-51455000D02*
X102030000Y-51455000D01*
X92280000Y-56505000D02*
X92280000Y-51455000D01*
X102030000Y-51455000D02*
X102030000Y-56505000D01*
X102030000Y-56505000D02*
X92280000Y-56505000D01*
%TO.C,TP3*%
X76300000Y-62600000D02*
G75*
G02*
X74900000Y-62600000I-700000J0D01*
G01*
X74900000Y-62600000D02*
G75*
G02*
X76300000Y-62600000I700000J0D01*
G01*
%TO.C,U5*%
X60550000Y-51077500D02*
X66970000Y-51077500D01*
X60550000Y-57977500D02*
X66970000Y-57977500D01*
X66970000Y-51077500D02*
X66970000Y-51347500D01*
X66970000Y-57977500D02*
X66970000Y-57707500D01*
X69040000Y-58137500D02*
X68360000Y-58137500D01*
X68700000Y-57667500D01*
X69040000Y-58137500D01*
G36*
X69040000Y-58137500D02*
G01*
X68360000Y-58137500D01*
X68700000Y-57667500D01*
X69040000Y-58137500D01*
G37*
%TD*%
M02*
