M48
; DRILL file {KiCad 9.0.3} date 2025-07-11T19:43:07-0400
; FORMAT={-:-/ absolute / metric / decimal}
; #@! TF.CreationDate,2025-07-11T19:43:07-04:00
; #@! TF.GenerationSoftware,Kicad,Pcbnew,9.0.3
; #@! TF.FileFunction,Plated,1,4,PTH
FMAT,2
METRIC
; #@! TA.AperFunction,Plated,PTH,ViaDrill
T1C0.300
; #@! TA.AperFunction,Plated,PTH,ComponentDrill
T2C0.800
; #@! TA.AperFunction,Plated,PTH,ComponentDrill
T3C1.190
; #@! TA.AperFunction,Plated,PTH,ComponentDrill
T4C1.200
; #@! TA.AperFunction,Plated,PTH,ComponentDrill
T5C3.264
%
G90
G05
T1
X54.61Y-46.99
X59.055Y-41.91
X59.055Y-45.72
X59.893Y-51.994
X59.893Y-53.264
X59.893Y-54.534
X59.893Y-55.804
X59.893Y-57.074
X59.944Y-62.763
X59.944Y-64.033
X59.944Y-65.303
X59.944Y-66.573
X59.944Y-67.843
X60.96Y-37.465
X60.96Y-40.64
X61.163Y-51.994
X61.163Y-53.264
X61.163Y-54.534
X61.163Y-55.804
X61.163Y-57.074
X61.214Y-62.763
X61.214Y-64.033
X61.214Y-65.303
X61.214Y-66.573
X61.214Y-67.843
X62.433Y-51.994
X62.433Y-53.264
X62.433Y-54.534
X62.433Y-55.804
X62.433Y-57.074
X62.484Y-62.763
X62.484Y-64.033
X62.484Y-65.303
X62.484Y-66.573
X62.484Y-67.843
X63.703Y-51.994
X63.703Y-53.264
X63.703Y-54.534
X63.703Y-55.804
X63.703Y-57.074
X63.754Y-62.763
X63.754Y-64.033
X63.754Y-65.303
X63.754Y-66.573
X63.754Y-67.843
X64.517Y-47.117
X64.77Y-37.465
X64.973Y-51.994
X64.973Y-53.264
X64.973Y-54.534
X64.973Y-55.804
X64.973Y-57.074
X65.024Y-62.763
X65.024Y-64.033
X65.024Y-65.303
X65.024Y-66.573
X65.024Y-67.843
X65.405Y-29.21
X65.405Y-45.72
X68.4Y-70.1
X68.58Y-29.21
X68.58Y-37.465
X69.088Y-48.133
X69.85Y-32.385
X70.0Y-70.0
X70.485Y-43.815
X71.0Y-70.0
X72.0Y-70.0
X73.0Y-70.0
X74.0Y-70.0
X75.0Y-70.0
X76.0Y-70.0
X76.581Y-44.45
X76.6Y-38.1
X77.47Y-29.845
X78.275Y-64.125
X81.026Y-42.545
X81.915Y-43.815
X83.82Y-70.358
X84.5Y-37.5
X85.09Y-35.814
X85.471Y-42.2
X86.233Y-58.928
X86.36Y-33.02
X87.757Y-35.814
X87.757Y-73.152
X88.138Y-69.088
X89.535Y-49.53
X90.551Y-39.878
X90.932Y-51.943
X91.567Y-70.993
X92.71Y-29.21
X93.853Y-49.149
X94.488Y-73.152
X95.25Y-36.83
X95.504Y-63.5
X95.504Y-69.088
X97.155Y-40.64
X97.155Y-42.545
X97.155Y-59.055
X97.79Y-32.385
X98.425Y-67.31
X98.425Y-69.85
X99.695Y-38.735
X99.695Y-71.755
X101.219Y-60.325
X102.464Y-66.675
X102.87Y-29.21
X102.87Y-46.355
X103.022Y-54.051
X103.1Y-44.9
X104.14Y-59.69
X105.283Y-40.259
X105.41Y-35.56
X106.045Y-43.79
X106.045Y-71.755
X106.426Y-69.85
X107.95Y-46.355
X108.585Y-43.815
X109.22Y-59.055
X109.855Y-55.88
X110.617Y-67.437
X111.379Y-34.798
X112.141Y-60.833
X113.665Y-57.15
X114.3Y-46.355
X114.681Y-41.275
X114.935Y-33.655
X114.935Y-37.465
X114.935Y-67.31
X115.57Y-62.23
X115.57Y-71.755
X116.205Y-65.405
X116.84Y-44.45
X116.84Y-48.895
X117.475Y-40.005
X118.745Y-59.055
X122.555Y-61.595
X122.555Y-62.865
X122.555Y-64.135
X122.555Y-69.215
X123.825Y-60.96
X123.825Y-64.77
X125.095Y-60.96
X125.095Y-64.77
X126.365Y-60.96
X126.365Y-64.77
X128.905Y-58.42
X128.905Y-59.055
X128.905Y-59.69
X128.905Y-60.325
X128.905Y-60.96
X128.905Y-61.595
X128.905Y-62.23
X128.905Y-62.865
X129.54Y-58.42
X129.54Y-59.055
X129.54Y-59.69
X129.54Y-60.325
X129.54Y-60.96
X129.54Y-61.595
X129.54Y-62.23
X129.54Y-62.865
X130.175Y-58.42
X130.175Y-59.055
X130.175Y-59.69
X130.175Y-60.325
X130.175Y-60.96
X130.175Y-61.595
X130.175Y-62.23
X130.175Y-62.865
X130.81Y-58.42
X130.81Y-59.055
X130.81Y-59.69
X130.81Y-60.325
X130.81Y-60.96
X130.81Y-61.595
X130.81Y-62.23
X130.81Y-62.865
X131.445Y-58.42
X131.445Y-59.055
X131.445Y-59.69
X131.445Y-60.325
X131.445Y-60.96
X131.445Y-61.595
X131.445Y-62.23
X131.445Y-62.865
X132.08Y-58.42
X132.08Y-59.055
X132.08Y-59.69
X132.08Y-60.325
X132.08Y-60.96
X132.08Y-61.595
X132.08Y-62.23
X132.08Y-62.865
X132.715Y-58.42
X132.715Y-59.055
X132.715Y-59.69
X132.715Y-60.325
X132.715Y-60.96
X132.715Y-61.595
X132.715Y-62.23
X132.715Y-62.865
X133.35Y-58.42
X133.35Y-59.055
X133.35Y-59.69
X133.35Y-60.325
X133.35Y-60.96
X133.35Y-61.595
X133.35Y-62.23
X133.35Y-62.865
X133.985Y-58.42
X133.985Y-59.055
X133.985Y-59.69
X133.985Y-60.325
X133.985Y-60.96
X133.985Y-61.595
X133.985Y-62.23
X133.985Y-62.865
X135.255Y-65.405
X136.525Y-60.325
X138.43Y-66.675
X139.7Y-60.96
X143.51Y-58.42
X143.51Y-59.055
X143.51Y-59.69
X143.51Y-60.325
X143.51Y-60.96
X143.51Y-61.595
X143.51Y-62.23
X143.51Y-62.865
X143.51Y-67.31
X144.145Y-58.42
X144.145Y-59.055
X144.145Y-59.69
X144.145Y-60.325
X144.145Y-60.96
X144.145Y-61.595
X144.145Y-62.23
X144.145Y-62.865
X144.78Y-58.42
X144.78Y-59.055
X144.78Y-59.69
X144.78Y-60.325
X144.78Y-60.96
X144.78Y-61.595
X144.78Y-62.23
X144.78Y-62.865
X145.415Y-58.42
X145.415Y-59.055
X145.415Y-59.69
X145.415Y-60.325
X145.415Y-60.96
X145.415Y-61.595
X145.415Y-62.23
X145.415Y-62.865
X146.05Y-58.42
X146.05Y-59.055
X146.05Y-59.69
X146.05Y-60.325
X146.05Y-60.96
X146.05Y-61.595
X146.05Y-62.23
X146.05Y-62.865
X146.685Y-58.42
X146.685Y-59.055
X146.685Y-59.69
X146.685Y-60.325
X146.685Y-60.96
X146.685Y-61.595
X146.685Y-62.23
X146.685Y-62.865
X147.32Y-58.42
X147.32Y-59.055
X147.32Y-59.69
X147.32Y-60.325
X147.32Y-60.96
X147.32Y-61.595
X147.32Y-62.23
X147.32Y-62.865
X147.955Y-58.42
X147.955Y-59.055
X147.955Y-59.69
X147.955Y-60.325
X147.955Y-60.96
X147.955Y-61.595
X147.955Y-62.23
X147.955Y-62.865
X147.955Y-67.31
X148.59Y-58.42
X148.59Y-59.055
X148.59Y-59.69
X148.59Y-60.325
X148.59Y-60.96
X148.59Y-61.595
X148.59Y-62.23
X148.59Y-62.865
T2
X94.615Y-53.975
X97.155Y-53.975
X99.695Y-53.975
X106.045Y-53.975
X108.585Y-53.975
X111.125Y-53.975
T3
X109.22Y-29.19
X111.76Y-29.19
X127.0Y-72.41
X129.54Y-72.41
X137.795Y-72.37
X140.335Y-72.37
T4
X123.825Y-30.48
X123.825Y-35.48
X123.825Y-44.45
X123.825Y-49.45
X137.795Y-30.48
X137.795Y-35.48
X137.795Y-44.45
X137.795Y-49.45
T5
X54.102Y-28.702
X54.102Y-72.898
X149.098Y-28.702
X149.098Y-72.898
M30
