%TF.GenerationSoftware,KiCad,Pcbnew,9.0.3*%
%TF.CreationDate,2025-07-11T19:43:01-04:00*%
%TF.ProjectId,GaN Drain Driver,47614e20-4472-4616-996e-204472697665,v3.0*%
%TF.SameCoordinates,Original*%
%TF.FileFunction,Paste,Top*%
%TF.FilePolarity,Positive*%
%FSLAX46Y46*%
G04 Gerber Fmt 4.6, Leading zero omitted, Abs format (unit mm)*
G04 Created by KiCad (PCBNEW 9.0.3) date 2025-07-11 19:43:01*
%MOMM*%
%LPD*%
G01*
G04 APERTURE LIST*
G04 Aperture macros list*
%AMRoundRect*
0 Rectangle with rounded corners*
0 $1 Rounding radius*
0 $2 $3 $4 $5 $6 $7 $8 $9 X,Y pos of 4 corners*
0 Add a 4 corners polygon primitive as box body*
4,1,4,$2,$3,$4,$5,$6,$7,$8,$9,$2,$3,0*
0 Add four circle primitives for the rounded corners*
1,1,$1+$1,$2,$3*
1,1,$1+$1,$4,$5*
1,1,$1+$1,$6,$7*
1,1,$1+$1,$8,$9*
0 Add four rect primitives between the rounded corners*
20,1,$1+$1,$2,$3,$4,$5,0*
20,1,$1+$1,$4,$5,$6,$7,0*
20,1,$1+$1,$6,$7,$8,$9,0*
20,1,$1+$1,$8,$9,$2,$3,0*%
G04 Aperture macros list end*
%ADD10RoundRect,0.250000X0.262500X0.450000X-0.262500X0.450000X-0.262500X-0.450000X0.262500X-0.450000X0*%
%ADD11RoundRect,0.250000X0.250000X0.475000X-0.250000X0.475000X-0.250000X-0.475000X0.250000X-0.475000X0*%
%ADD12RoundRect,0.250000X-0.262500X-0.450000X0.262500X-0.450000X0.262500X0.450000X-0.262500X0.450000X0*%
%ADD13RoundRect,0.250000X1.275000X1.125000X-1.275000X1.125000X-1.275000X-1.125000X1.275000X-1.125000X0*%
%ADD14RoundRect,0.250000X0.850000X0.350000X-0.850000X0.350000X-0.850000X-0.350000X0.850000X-0.350000X0*%
%ADD15RoundRect,0.250000X-0.250000X-0.475000X0.250000X-0.475000X0.250000X0.475000X-0.250000X0.475000X0*%
%ADD16RoundRect,0.250000X-0.475000X0.250000X-0.475000X-0.250000X0.475000X-0.250000X0.475000X0.250000X0*%
%ADD17RoundRect,0.150000X-0.825000X-0.150000X0.825000X-0.150000X0.825000X0.150000X-0.825000X0.150000X0*%
%ADD18RoundRect,0.250000X0.475000X-0.250000X0.475000X0.250000X-0.475000X0.250000X-0.475000X-0.250000X0*%
%ADD19RoundRect,0.225000X0.225000X0.375000X-0.225000X0.375000X-0.225000X-0.375000X0.225000X-0.375000X0*%
%ADD20RoundRect,0.250000X-1.275000X-1.125000X1.275000X-1.125000X1.275000X1.125000X-1.275000X1.125000X0*%
%ADD21RoundRect,0.250000X-0.850000X-0.350000X0.850000X-0.350000X0.850000X0.350000X-0.850000X0.350000X0*%
%ADD22R,0.457200X1.600200*%
G04 APERTURE END LIST*
D10*
%TO.C,R12*%
X101242500Y-64770000D03*
X99417500Y-64770000D03*
%TD*%
D11*
%TO.C,C24*%
X101280000Y-67310000D03*
X99380000Y-67310000D03*
%TD*%
D12*
%TO.C,R7*%
X77827500Y-44450000D03*
X79652500Y-44450000D03*
%TD*%
D13*
%TO.C,U3*%
X64115000Y-66825000D03*
X64115000Y-63775000D03*
X60765000Y-66825000D03*
X60765000Y-63775000D03*
D14*
X68740000Y-67580000D03*
X68740000Y-63020000D03*
%TD*%
D11*
%TO.C,C1*%
X81595000Y-35814000D03*
X79695000Y-35814000D03*
%TD*%
%TO.C,C16*%
X100645000Y-43815000D03*
X98745000Y-43815000D03*
%TD*%
D15*
%TO.C,C4*%
X90490000Y-38735000D03*
X92390000Y-38735000D03*
%TD*%
D12*
%TO.C,R11*%
X112117500Y-69850000D03*
X113942500Y-69850000D03*
%TD*%
D15*
%TO.C,C2*%
X111445000Y-46355000D03*
X113345000Y-46355000D03*
%TD*%
D16*
%TO.C,C7*%
X71700000Y-62550000D03*
X71700000Y-64450000D03*
%TD*%
D11*
%TO.C,C21*%
X109535000Y-69850000D03*
X107635000Y-69850000D03*
%TD*%
D17*
%TO.C,U6*%
X84139000Y-62865000D03*
X84139000Y-64135000D03*
X84139000Y-65405000D03*
X84139000Y-66675000D03*
X89089000Y-66675000D03*
X89089000Y-65405000D03*
X89089000Y-64135000D03*
X89089000Y-62865000D03*
%TD*%
D15*
%TO.C,C23*%
X112080000Y-62230000D03*
X113980000Y-62230000D03*
%TD*%
D10*
%TO.C,R2*%
X113307500Y-43815000D03*
X111482500Y-43815000D03*
%TD*%
D17*
%TO.C,U1*%
X82488000Y-38735000D03*
X82488000Y-40005000D03*
X82488000Y-41275000D03*
X82488000Y-42545000D03*
X87438000Y-42545000D03*
X87438000Y-41275000D03*
X87438000Y-40005000D03*
X87438000Y-38735000D03*
%TD*%
D10*
%TO.C,R9*%
X113942500Y-67310000D03*
X112117500Y-67310000D03*
%TD*%
D18*
%TO.C,C10*%
X71700000Y-57250000D03*
X71700000Y-55350000D03*
%TD*%
D12*
%TO.C,R3*%
X111482500Y-41275000D03*
X113307500Y-41275000D03*
%TD*%
D19*
%TO.C,D1*%
X86740000Y-35814000D03*
X83440000Y-35814000D03*
%TD*%
D17*
%TO.C,U7*%
X104205000Y-62865000D03*
X104205000Y-64135000D03*
X104205000Y-65405000D03*
X104205000Y-66675000D03*
X109155000Y-66675000D03*
X109155000Y-65405000D03*
X109155000Y-64135000D03*
X109155000Y-62865000D03*
%TD*%
D15*
%TO.C,C20*%
X91887000Y-67564000D03*
X93787000Y-67564000D03*
%TD*%
D16*
%TO.C,C13*%
X71700000Y-51750000D03*
X71700000Y-53650000D03*
%TD*%
D15*
%TO.C,C8*%
X66995000Y-45720000D03*
X68895000Y-45720000D03*
%TD*%
D12*
%TO.C,R5*%
X90527500Y-41275000D03*
X92352500Y-41275000D03*
%TD*%
%TO.C,R6*%
X90527500Y-43815000D03*
X92352500Y-43815000D03*
%TD*%
D11*
%TO.C,C5*%
X63688000Y-45720000D03*
X61788000Y-45720000D03*
%TD*%
D15*
%TO.C,C17*%
X91887000Y-65278000D03*
X93787000Y-65278000D03*
%TD*%
D10*
%TO.C,R4*%
X113307500Y-38735000D03*
X111482500Y-38735000D03*
%TD*%
D11*
%TO.C,C18*%
X101280000Y-69850000D03*
X99380000Y-69850000D03*
%TD*%
D15*
%TO.C,C15*%
X111445000Y-36195000D03*
X113345000Y-36195000D03*
%TD*%
D20*
%TO.C,Q1*%
X144365000Y-59175000D03*
X144365000Y-62225000D03*
X147715000Y-59175000D03*
X147715000Y-62225000D03*
D21*
X139740000Y-58420000D03*
X139740000Y-62980000D03*
%TD*%
D11*
%TO.C,C22*%
X101280000Y-62230000D03*
X99380000Y-62230000D03*
%TD*%
D20*
%TO.C,Q2*%
X129720000Y-59055000D03*
X129720000Y-62105000D03*
X133070000Y-59055000D03*
X133070000Y-62105000D03*
D21*
X125095000Y-58300000D03*
X125095000Y-62860000D03*
%TD*%
D15*
%TO.C,C3*%
X98745000Y-41275000D03*
X100645000Y-41275000D03*
%TD*%
%TO.C,C19*%
X79700000Y-64075000D03*
X81600000Y-64075000D03*
%TD*%
D10*
%TO.C,R10*%
X113942500Y-64770000D03*
X112117500Y-64770000D03*
%TD*%
%TO.C,R8*%
X79612500Y-41900000D03*
X77787500Y-41900000D03*
%TD*%
%TO.C,R1*%
X79652500Y-39370000D03*
X77827500Y-39370000D03*
%TD*%
D17*
%TO.C,U2*%
X103570000Y-38735000D03*
X103570000Y-40005000D03*
X103570000Y-41275000D03*
X103570000Y-42545000D03*
X108520000Y-42545000D03*
X108520000Y-41275000D03*
X108520000Y-40005000D03*
X108520000Y-38735000D03*
%TD*%
D22*
%TO.C,U4*%
X60960000Y-42519600D03*
X63500000Y-42519600D03*
X68580000Y-42519600D03*
X68580000Y-32410400D03*
X60960000Y-32410400D03*
%TD*%
D18*
%TO.C,C6*%
X71700000Y-68050000D03*
X71700000Y-66150000D03*
%TD*%
D13*
%TO.C,U5*%
X64075000Y-56052500D03*
X64075000Y-53002500D03*
X60725000Y-56052500D03*
X60725000Y-53002500D03*
D14*
X68700000Y-56807500D03*
X68700000Y-52247500D03*
%TD*%
M02*
