%TF.GenerationSoftware,KiCad,Pcbnew,9.0.3*%
%TF.CreationDate,2025-07-11T19:43:01-04:00*%
%TF.ProjectId,GaN Drain Driver,47614e20-4472-4616-996e-204472697665,v3.0*%
%TF.SameCoordinates,Original*%
%TF.FileFunction,Copper,L4,Bot*%
%TF.FilePolarity,Positive*%
%FSLAX46Y46*%
G04 Gerber Fmt 4.6, Leading zero omitted, Abs format (unit mm)*
G04 Created by KiCad (PCBNEW 9.0.3) date 2025-07-11 19:43:01*
%MOMM*%
%LPD*%
G01*
G04 APERTURE LIST*
G04 Aperture macros list*
%AMRoundRect*
0 Rectangle with rounded corners*
0 $1 Rounding radius*
0 $2 $3 $4 $5 $6 $7 $8 $9 X,Y pos of 4 corners*
0 Add a 4 corners polygon primitive as box body*
4,1,4,$2,$3,$4,$5,$6,$7,$8,$9,$2,$3,0*
0 Add four circle primitives for the rounded corners*
1,1,$1+$1,$2,$3*
1,1,$1+$1,$4,$5*
1,1,$1+$1,$6,$7*
1,1,$1+$1,$8,$9*
0 Add four rect primitives between the rounded corners*
20,1,$1+$1,$2,$3,$4,$5,0*
20,1,$1+$1,$4,$5,$6,$7,0*
20,1,$1+$1,$6,$7,$8,$9,0*
20,1,$1+$1,$8,$9,$2,$3,0*%
G04 Aperture macros list end*
%TA.AperFunction,ComponentPad*%
%ADD10RoundRect,0.250001X-0.949999X0.949999X-0.949999X-0.949999X0.949999X-0.949999X0.949999X0.949999X0*%
%TD*%
%TA.AperFunction,ComponentPad*%
%ADD11C,2.400000*%
%TD*%
%TA.AperFunction,ComponentPad*%
%ADD12RoundRect,0.250000X-0.620000X-0.845000X0.620000X-0.845000X0.620000X0.845000X-0.620000X0.845000X0*%
%TD*%
%TA.AperFunction,ComponentPad*%
%ADD13O,1.740000X2.190000*%
%TD*%
%TA.AperFunction,ComponentPad*%
%ADD14C,5.562600*%
%TD*%
%TA.AperFunction,ComponentPad*%
%ADD15RoundRect,0.250000X0.620000X0.845000X-0.620000X0.845000X-0.620000X-0.845000X0.620000X-0.845000X0*%
%TD*%
%TA.AperFunction,SMDPad,CuDef*%
%ADD16RoundRect,0.250000X0.425000X1.600000X-0.425000X1.600000X-0.425000X-1.600000X0.425000X-1.600000X0*%
%TD*%
%TA.AperFunction,ComponentPad*%
%ADD17C,1.440000*%
%TD*%
%TA.AperFunction,ViaPad*%
%ADD18C,0.600000*%
%TD*%
%TA.AperFunction,Conductor*%
%ADD19C,0.635000*%
%TD*%
%TA.AperFunction,Conductor*%
%ADD20C,0.254000*%
%TD*%
G04 APERTURE END LIST*
D10*
%TO.P,C11,1*%
%TO.N,VCC*%
X123825000Y-44450000D03*
D11*
%TO.P,C11,2*%
%TO.N,GND*%
X123825000Y-49450000D03*
%TD*%
D12*
%TO.P,J2,1,Pin_1*%
%TO.N,Vd*%
X137795000Y-72370000D03*
D13*
%TO.P,J2,2,Pin_2*%
%TO.N,GND*%
X140335000Y-72370000D03*
%TD*%
D14*
%TO.P,H4,1,1*%
%TO.N,GND*%
X54102000Y-72898000D03*
%TD*%
D10*
%TO.P,C12,1*%
%TO.N,VCC*%
X123825000Y-30480000D03*
D11*
%TO.P,C12,2*%
%TO.N,GND*%
X123825000Y-35480000D03*
%TD*%
D14*
%TO.P,H3,1,1*%
%TO.N,GND*%
X149098000Y-72898000D03*
%TD*%
D15*
%TO.P,J3,1,Pin_1*%
%TO.N,VCC*%
X111760000Y-29190000D03*
D13*
%TO.P,J3,2,Pin_2*%
%TO.N,GND*%
X109220000Y-29190000D03*
%TD*%
D12*
%TO.P,J4,1,Pin_1*%
%TO.N,Vg*%
X127000000Y-72410000D03*
D13*
%TO.P,J4,2,Pin_2*%
%TO.N,GND*%
X129540000Y-72410000D03*
%TD*%
D10*
%TO.P,C9,1*%
%TO.N,VCC*%
X137795000Y-44450000D03*
D11*
%TO.P,C9,2*%
%TO.N,GND*%
X137795000Y-49450000D03*
%TD*%
D16*
%TO.P,J1,2,Ext*%
%TO.N,GND*%
X81187000Y-27758200D03*
X86837000Y-27758200D03*
%TD*%
D10*
%TO.P,C14,1*%
%TO.N,VCC*%
X137795000Y-30480000D03*
D11*
%TO.P,C14,2*%
%TO.N,GND*%
X137795000Y-35480000D03*
%TD*%
D14*
%TO.P,H1,1,1*%
%TO.N,GND*%
X149098000Y-28702000D03*
%TD*%
D17*
%TO.P,RV2,1,1*%
%TO.N,+4.096V REF*%
X111125000Y-53975000D03*
%TO.P,RV2,2,2*%
%TO.N,Net-(U7A-+)*%
X108585000Y-53975000D03*
%TO.P,RV2,3,3*%
%TO.N,-4.096V REF*%
X106045000Y-53975000D03*
%TD*%
D14*
%TO.P,H2,1,1*%
%TO.N,GND*%
X54102000Y-28702000D03*
%TD*%
D17*
%TO.P,RV1,1,1*%
%TO.N,+4.096V REF*%
X99695000Y-53975000D03*
%TO.P,RV1,2,2*%
%TO.N,Net-(U2A-+)*%
X97155000Y-53975000D03*
%TO.P,RV1,3,3*%
%TO.N,-4.096V REF*%
X94615000Y-53975000D03*
%TD*%
D18*
%TO.N,GND*%
X65024000Y-64033400D03*
X62484000Y-66573400D03*
X63754000Y-65303400D03*
X59944000Y-65303400D03*
X61214000Y-65303400D03*
X61214000Y-66573400D03*
X65024000Y-66573400D03*
X65024000Y-65303400D03*
X62484000Y-65303400D03*
X63754000Y-64033400D03*
X62484000Y-64033400D03*
X63754000Y-62763400D03*
X59944000Y-64033400D03*
X62484000Y-62763400D03*
X65024000Y-62763400D03*
X61214000Y-64033400D03*
X61214000Y-62763400D03*
X59944000Y-62763400D03*
X62484000Y-67843400D03*
X63754000Y-67843400D03*
X63754000Y-66573400D03*
X59944000Y-67843400D03*
X61214000Y-67843400D03*
X65024000Y-67843400D03*
X59944000Y-66573400D03*
X62433200Y-57073800D03*
X61163200Y-57073800D03*
X64973200Y-57073800D03*
X63703200Y-57073800D03*
X59893200Y-57073800D03*
X63703200Y-55803800D03*
X59893200Y-55803800D03*
X61163200Y-55803800D03*
X64973200Y-55803800D03*
X62433200Y-55803800D03*
X64973200Y-54533800D03*
X63703200Y-54533800D03*
X62433200Y-54533800D03*
X59893200Y-54533800D03*
X61163200Y-54533800D03*
X63703200Y-53263800D03*
X62433200Y-53263800D03*
X64973200Y-53263800D03*
X61163200Y-53263800D03*
X59893200Y-53263800D03*
X64973200Y-51993800D03*
X63703200Y-51993800D03*
X62433200Y-51993800D03*
X61163200Y-51993800D03*
X59893200Y-51993800D03*
%TO.N,VCC*%
X148590000Y-62865000D03*
X147320000Y-58420000D03*
X144145000Y-58420000D03*
X144145000Y-60960000D03*
X71000000Y-70000000D03*
X143510000Y-59690000D03*
X147955000Y-61595000D03*
X145415000Y-59055000D03*
X145415000Y-62230000D03*
X144145000Y-60325000D03*
X146050000Y-61595000D03*
X146050000Y-60325000D03*
X146050000Y-62865000D03*
X147320000Y-59055000D03*
X148590000Y-59690000D03*
X145415000Y-60325000D03*
X70000000Y-70000000D03*
X147320000Y-60960000D03*
X146685000Y-62865000D03*
X143510000Y-60325000D03*
X146685000Y-61595000D03*
X146685000Y-58420000D03*
X147955000Y-60325000D03*
X72000000Y-70000000D03*
X76000000Y-70000000D03*
X147955000Y-60960000D03*
X144780000Y-59055000D03*
X146050000Y-62230000D03*
X144780000Y-58420000D03*
X144145000Y-62865000D03*
X148590000Y-60325000D03*
X148590000Y-60960000D03*
X143510000Y-61595000D03*
X144145000Y-59055000D03*
X145415000Y-62865000D03*
X68400000Y-70100000D03*
X146685000Y-60325000D03*
X146685000Y-60960000D03*
X147320000Y-61595000D03*
X147320000Y-60325000D03*
X145415000Y-61595000D03*
X145415000Y-60960000D03*
X144780000Y-60960000D03*
X148590000Y-59055000D03*
X143510000Y-62230000D03*
X143510000Y-62865000D03*
X143510000Y-58420000D03*
X144145000Y-59690000D03*
X74000000Y-70000000D03*
X147955000Y-59055000D03*
X147320000Y-59690000D03*
X147955000Y-58420000D03*
X145415000Y-58420000D03*
X144145000Y-61595000D03*
X146050000Y-59055000D03*
X148590000Y-61595000D03*
X147955000Y-62865000D03*
X143510000Y-60960000D03*
X146685000Y-59055000D03*
X75000000Y-70000000D03*
X144780000Y-62865000D03*
X73000000Y-70000000D03*
X146050000Y-58420000D03*
X147320000Y-62230000D03*
X146685000Y-62230000D03*
X146685000Y-59690000D03*
X144145000Y-62230000D03*
X143510000Y-59055000D03*
X144780000Y-60325000D03*
X144780000Y-59690000D03*
X148590000Y-58420000D03*
X148590000Y-62230000D03*
X146050000Y-60960000D03*
X145415000Y-59690000D03*
X147320000Y-62865000D03*
X147955000Y-59690000D03*
X147955000Y-62230000D03*
X146050000Y-59690000D03*
X144780000Y-62230000D03*
X144780000Y-61595000D03*
%TO.N,GND*%
X60960000Y-40640000D03*
X89535000Y-49530000D03*
X106045000Y-71755000D03*
X88138000Y-69088000D03*
X147955000Y-67310000D03*
X94488000Y-73152000D03*
X65405000Y-45720000D03*
X104140000Y-59690000D03*
X70485000Y-43815000D03*
X92710000Y-29210000D03*
X87757000Y-73152000D03*
X136525000Y-60325000D03*
X139700000Y-60960000D03*
X105410000Y-35560000D03*
X109855000Y-55880000D03*
X126365000Y-60960000D03*
X90932000Y-51943000D03*
X102870000Y-29210000D03*
X76600000Y-38100000D03*
X95504000Y-63500000D03*
X116840000Y-44450000D03*
X126365000Y-64770000D03*
X95250000Y-36830000D03*
X125095000Y-60960000D03*
X110617000Y-67437000D03*
X84500000Y-37500000D03*
X135255000Y-65405000D03*
X98425000Y-69850000D03*
X99695000Y-71755000D03*
X116840000Y-48895000D03*
X69850000Y-32385000D03*
X85471000Y-42200000D03*
X106426000Y-69850000D03*
X122555000Y-61595000D03*
X59055000Y-45720000D03*
X114935000Y-37465000D03*
X138430000Y-66675000D03*
X97155000Y-42545000D03*
X118745000Y-59055000D03*
X68580000Y-37465000D03*
X91567000Y-70993000D03*
X114300000Y-46355000D03*
X123825000Y-60960000D03*
X97155000Y-40640000D03*
X114935000Y-33655000D03*
X86233000Y-58928000D03*
X102870000Y-46355000D03*
X122555000Y-64135000D03*
X97155000Y-59055000D03*
X122555000Y-62865000D03*
X59055000Y-41910000D03*
X108585000Y-43815000D03*
X122555000Y-69215000D03*
X77470000Y-29845000D03*
X60960000Y-37465000D03*
X98425000Y-67310000D03*
X103022400Y-54051200D03*
X125095000Y-64770000D03*
X143510000Y-67310000D03*
X95504000Y-69088000D03*
X115570000Y-62230000D03*
X115570000Y-71755000D03*
X64770000Y-37465000D03*
X54610000Y-46990000D03*
X97790000Y-32385000D03*
X65405000Y-29210000D03*
X107950000Y-46355000D03*
X109220000Y-59055000D03*
X123825000Y-64770000D03*
X68580000Y-29210000D03*
X93853000Y-49149000D03*
X78275000Y-64125000D03*
X81026000Y-42545000D03*
X85090000Y-35814000D03*
X116205000Y-65405000D03*
X117475000Y-40005000D03*
X83820000Y-70358000D03*
X86360000Y-33020000D03*
%TO.N,+5V*%
X111379000Y-34798000D03*
X114681000Y-41275000D03*
X64517000Y-47117000D03*
X112141000Y-60833000D03*
X76581000Y-44450000D03*
%TO.N,-5V*%
X69088000Y-48133000D03*
X103100000Y-44900000D03*
X102463600Y-66675000D03*
%TO.N,Vd*%
X132080000Y-59055000D03*
X133350000Y-62865000D03*
X132715000Y-60960000D03*
X133985000Y-61595000D03*
X128905000Y-60325000D03*
X132080000Y-60960000D03*
X133985000Y-62865000D03*
X129540000Y-60325000D03*
X133985000Y-58420000D03*
X132715000Y-62230000D03*
X132080000Y-60325000D03*
X133350000Y-60325000D03*
X133985000Y-59055000D03*
X130810000Y-61595000D03*
X130810000Y-59055000D03*
X133985000Y-60325000D03*
X129540000Y-62865000D03*
X133985000Y-60960000D03*
X130175000Y-59055000D03*
X132715000Y-61595000D03*
X128905000Y-62230000D03*
X129540000Y-60960000D03*
X128905000Y-58420000D03*
X130810000Y-62865000D03*
X132080000Y-62865000D03*
X133350000Y-60960000D03*
X128905000Y-59055000D03*
X131445000Y-61595000D03*
X130175000Y-62230000D03*
X130810000Y-60325000D03*
X133350000Y-62230000D03*
X131445000Y-58420000D03*
X133350000Y-61595000D03*
X133985000Y-62230000D03*
X130810000Y-59690000D03*
X132080000Y-58420000D03*
X130175000Y-62865000D03*
X130810000Y-58420000D03*
X130175000Y-60325000D03*
X133350000Y-59690000D03*
X132715000Y-59690000D03*
X131445000Y-62865000D03*
X129540000Y-58420000D03*
X129540000Y-62230000D03*
X128905000Y-61595000D03*
X130175000Y-61595000D03*
X133350000Y-58420000D03*
X131445000Y-60325000D03*
X128905000Y-60960000D03*
X128905000Y-59690000D03*
X128905000Y-62865000D03*
X132715000Y-62865000D03*
X131445000Y-59055000D03*
X130175000Y-58420000D03*
X130810000Y-60960000D03*
X130175000Y-60960000D03*
X130810000Y-62230000D03*
X130175000Y-59690000D03*
X132715000Y-59055000D03*
X133985000Y-59690000D03*
X133350000Y-59055000D03*
X132080000Y-62230000D03*
X132715000Y-58420000D03*
X129540000Y-59690000D03*
X131445000Y-62230000D03*
X129540000Y-59055000D03*
X132715000Y-60325000D03*
X132080000Y-61595000D03*
X131445000Y-60960000D03*
X132080000Y-59690000D03*
X129540000Y-61595000D03*
X131445000Y-59690000D03*
%TO.N,Vg*%
X105283000Y-40259000D03*
X101219000Y-60325000D03*
%TO.N,+4.096V REF*%
X114935000Y-67310000D03*
%TO.N,-4.096V REF*%
X113665000Y-57150000D03*
%TO.N,COMP_OUT*%
X99695000Y-38735000D03*
X81915000Y-43815000D03*
%TO.N,Net-(U2A-+)*%
X106045000Y-43789600D03*
%TO.N,Net-(D1-K)*%
X90551000Y-39878000D03*
X87757000Y-35814000D03*
%TD*%
D19*
%TO.N,+5V*%
X64517000Y-47117000D02*
X73914000Y-47117000D01*
X111633000Y-38227000D02*
X114681000Y-41275000D01*
X111506000Y-38100000D02*
X111633000Y-38227000D01*
X104013000Y-38100000D02*
X111506000Y-38100000D01*
X114681000Y-41275000D02*
X115117500Y-41711500D01*
X76763500Y-44632500D02*
X97480500Y-44632500D01*
X115117500Y-41711500D02*
X115117500Y-57856500D01*
X97480500Y-44632500D02*
X104013000Y-38100000D01*
X115117500Y-57856500D02*
X112141000Y-60833000D01*
X73914000Y-47117000D02*
X76581000Y-44450000D01*
X76581000Y-44450000D02*
X76763500Y-44632500D01*
X111506000Y-34925000D02*
X111506000Y-38100000D01*
X111379000Y-34798000D02*
X111506000Y-34925000D01*
%TO.N,-5V*%
X101264000Y-46736000D02*
X79248000Y-46736000D01*
X79248000Y-46736000D02*
X77851000Y-48133000D01*
X103100000Y-44900000D02*
X101264000Y-46736000D01*
X77851000Y-48133000D02*
X69088000Y-48133000D01*
%TO.N,+4.096V REF*%
X99695000Y-53975000D02*
X101600000Y-52070000D01*
X101600000Y-52070000D02*
X109220000Y-52070000D01*
X109220000Y-52070000D02*
X111125000Y-53975000D01*
%TO.N,-4.096V REF*%
X94615000Y-56134000D02*
X94615000Y-53975000D01*
X95631000Y-57150000D02*
X94615000Y-56134000D01*
X113665000Y-57150000D02*
X95631000Y-57150000D01*
D20*
%TO.N,COMP_OUT*%
X95885000Y-38735000D02*
X90805000Y-43815000D01*
X90805000Y-43815000D02*
X81915000Y-43815000D01*
X99695000Y-38735000D02*
X95885000Y-38735000D01*
D19*
%TO.N,Net-(D1-K)*%
X87757000Y-35814000D02*
X87757000Y-37084000D01*
X87757000Y-37084000D02*
X90551000Y-39878000D01*
%TD*%
%TA.AperFunction,Conductor*%
%TO.N,GND*%
G36*
X149101471Y-25900695D02*
G01*
X149138993Y-25902802D01*
X149404724Y-25917725D01*
X149418523Y-25919279D01*
X149714524Y-25969572D01*
X149728081Y-25972666D01*
X150016588Y-26055784D01*
X150029714Y-26060377D01*
X150307097Y-26175273D01*
X150319611Y-26181299D01*
X150526887Y-26295856D01*
X150582392Y-26326533D01*
X150594166Y-26333931D01*
X150839026Y-26507668D01*
X150849898Y-26516338D01*
X151073767Y-26716399D01*
X151083600Y-26726232D01*
X151283661Y-26950101D01*
X151292331Y-26960973D01*
X151466068Y-27205833D01*
X151473466Y-27217607D01*
X151618696Y-27480381D01*
X151624729Y-27492909D01*
X151739622Y-27770286D01*
X151744215Y-27783411D01*
X151827333Y-28071918D01*
X151830427Y-28085475D01*
X151880718Y-28381465D01*
X151882275Y-28395283D01*
X151899305Y-28698527D01*
X151899500Y-28705480D01*
X151899500Y-72894519D01*
X151899305Y-72901472D01*
X151882275Y-73204716D01*
X151880718Y-73218534D01*
X151830427Y-73514524D01*
X151827333Y-73528081D01*
X151744215Y-73816588D01*
X151739622Y-73829713D01*
X151624729Y-74107090D01*
X151618696Y-74119618D01*
X151473466Y-74382392D01*
X151466068Y-74394166D01*
X151292331Y-74639026D01*
X151283661Y-74649898D01*
X151083600Y-74873767D01*
X151073767Y-74883600D01*
X150849898Y-75083661D01*
X150839026Y-75092331D01*
X150594166Y-75266068D01*
X150582392Y-75273466D01*
X150319618Y-75418696D01*
X150307090Y-75424729D01*
X150029713Y-75539622D01*
X150016588Y-75544215D01*
X149728081Y-75627333D01*
X149714524Y-75630427D01*
X149418534Y-75680718D01*
X149404716Y-75682275D01*
X149101472Y-75699305D01*
X149094519Y-75699500D01*
X54105481Y-75699500D01*
X54098528Y-75699305D01*
X53795283Y-75682275D01*
X53781465Y-75680718D01*
X53485475Y-75630427D01*
X53471918Y-75627333D01*
X53183411Y-75544215D01*
X53170286Y-75539622D01*
X52892909Y-75424729D01*
X52880381Y-75418696D01*
X52617607Y-75273466D01*
X52605833Y-75266068D01*
X52360973Y-75092331D01*
X52350101Y-75083661D01*
X52126232Y-74883600D01*
X52116399Y-74873767D01*
X51916338Y-74649898D01*
X51907668Y-74639026D01*
X51733931Y-74394166D01*
X51726533Y-74382392D01*
X51695856Y-74326887D01*
X51581299Y-74119611D01*
X51575273Y-74107097D01*
X51460377Y-73829713D01*
X51455784Y-73816588D01*
X51385991Y-73574334D01*
X51372665Y-73528079D01*
X51369572Y-73514524D01*
X51351439Y-73407799D01*
X51319279Y-73218523D01*
X51317725Y-73204724D01*
X51300695Y-72901471D01*
X51300500Y-72894519D01*
X51300500Y-71514983D01*
X125629500Y-71514983D01*
X125629500Y-73305001D01*
X125629501Y-73305018D01*
X125640000Y-73407796D01*
X125640001Y-73407799D01*
X125656178Y-73456616D01*
X125695186Y-73574334D01*
X125787288Y-73723656D01*
X125911344Y-73847712D01*
X126060666Y-73939814D01*
X126227203Y-73994999D01*
X126329991Y-74005500D01*
X127670008Y-74005499D01*
X127772797Y-73994999D01*
X127939334Y-73939814D01*
X128088656Y-73847712D01*
X128212712Y-73723656D01*
X128304814Y-73574334D01*
X128359999Y-73407797D01*
X128370500Y-73305009D01*
X128370499Y-71514992D01*
X128368881Y-71499159D01*
X128367378Y-71484434D01*
X128366412Y-71474983D01*
X136424500Y-71474983D01*
X136424500Y-73265001D01*
X136424501Y-73265018D01*
X136435000Y-73367796D01*
X136435001Y-73367799D01*
X136483622Y-73514524D01*
X136490186Y-73534334D01*
X136582288Y-73683656D01*
X136706344Y-73807712D01*
X136855666Y-73899814D01*
X137022203Y-73954999D01*
X137124991Y-73965500D01*
X138465008Y-73965499D01*
X138567797Y-73954999D01*
X138734334Y-73899814D01*
X138883656Y-73807712D01*
X139007712Y-73683656D01*
X139099814Y-73534334D01*
X139154999Y-73367797D01*
X139165500Y-73265009D01*
X139165499Y-71474992D01*
X139154999Y-71372203D01*
X139099814Y-71205666D01*
X139007712Y-71056344D01*
X138883656Y-70932288D01*
X138734334Y-70840186D01*
X138567797Y-70785001D01*
X138567795Y-70785000D01*
X138465010Y-70774500D01*
X137124998Y-70774500D01*
X137124981Y-70774501D01*
X137022203Y-70785000D01*
X137022200Y-70785001D01*
X136855668Y-70840185D01*
X136855663Y-70840187D01*
X136706342Y-70932289D01*
X136582289Y-71056342D01*
X136490187Y-71205663D01*
X136490185Y-71205668D01*
X136462349Y-71289670D01*
X136435001Y-71372203D01*
X136435001Y-71372204D01*
X136435000Y-71372204D01*
X136424500Y-71474983D01*
X128366412Y-71474983D01*
X128364636Y-71457606D01*
X128359999Y-71412203D01*
X128304814Y-71245666D01*
X128212712Y-71096344D01*
X128088656Y-70972288D01*
X127995888Y-70915069D01*
X127939336Y-70880187D01*
X127939331Y-70880185D01*
X127907795Y-70869735D01*
X127772797Y-70825001D01*
X127772795Y-70825000D01*
X127670010Y-70814500D01*
X126329998Y-70814500D01*
X126329981Y-70814501D01*
X126227203Y-70825000D01*
X126227200Y-70825001D01*
X126060668Y-70880185D01*
X126060663Y-70880187D01*
X125911342Y-70972289D01*
X125787289Y-71096342D01*
X125695187Y-71245663D01*
X125695186Y-71245666D01*
X125640001Y-71412203D01*
X125640001Y-71412204D01*
X125640000Y-71412204D01*
X125629500Y-71514983D01*
X51300500Y-71514983D01*
X51300500Y-70021153D01*
X67599500Y-70021153D01*
X67599500Y-70178846D01*
X67630261Y-70333489D01*
X67630264Y-70333501D01*
X67690602Y-70479172D01*
X67690609Y-70479185D01*
X67778210Y-70610288D01*
X67778213Y-70610292D01*
X67889707Y-70721786D01*
X67889711Y-70721789D01*
X68020814Y-70809390D01*
X68020827Y-70809397D01*
X68095162Y-70840187D01*
X68166503Y-70869737D01*
X68321153Y-70900499D01*
X68321156Y-70900500D01*
X68321158Y-70900500D01*
X68478844Y-70900500D01*
X68478845Y-70900499D01*
X68633497Y-70869737D01*
X68779179Y-70809394D01*
X68910289Y-70721789D01*
X69021789Y-70610289D01*
X69109394Y-70479179D01*
X69115533Y-70464357D01*
X69159373Y-70409956D01*
X69225667Y-70387890D01*
X69293366Y-70405169D01*
X69333196Y-70442920D01*
X69378210Y-70510288D01*
X69378213Y-70510292D01*
X69489707Y-70621786D01*
X69489711Y-70621789D01*
X69620814Y-70709390D01*
X69620827Y-70709397D01*
X69766498Y-70769735D01*
X69766503Y-70769737D01*
X69921153Y-70800499D01*
X69921156Y-70800500D01*
X69921158Y-70800500D01*
X70078844Y-70800500D01*
X70078845Y-70800499D01*
X70233497Y-70769737D01*
X70379179Y-70709394D01*
X70431110Y-70674694D01*
X70497785Y-70653816D01*
X70565165Y-70672300D01*
X70568863Y-70674676D01*
X70620821Y-70709394D01*
X70620823Y-70709395D01*
X70620825Y-70709396D01*
X70650745Y-70721789D01*
X70766503Y-70769737D01*
X70921153Y-70800499D01*
X70921156Y-70800500D01*
X70921158Y-70800500D01*
X71078844Y-70800500D01*
X71078845Y-70800499D01*
X71233497Y-70769737D01*
X71379179Y-70709394D01*
X71431110Y-70674694D01*
X71497785Y-70653816D01*
X71565165Y-70672300D01*
X71568863Y-70674676D01*
X71620821Y-70709394D01*
X71620823Y-70709395D01*
X71620825Y-70709396D01*
X71650745Y-70721789D01*
X71766503Y-70769737D01*
X71921153Y-70800499D01*
X71921156Y-70800500D01*
X71921158Y-70800500D01*
X72078844Y-70800500D01*
X72078845Y-70800499D01*
X72233497Y-70769737D01*
X72379179Y-70709394D01*
X72431110Y-70674694D01*
X72497785Y-70653816D01*
X72565165Y-70672300D01*
X72568863Y-70674676D01*
X72620821Y-70709394D01*
X72620823Y-70709395D01*
X72620825Y-70709396D01*
X72650745Y-70721789D01*
X72766503Y-70769737D01*
X72921153Y-70800499D01*
X72921156Y-70800500D01*
X72921158Y-70800500D01*
X73078844Y-70800500D01*
X73078845Y-70800499D01*
X73233497Y-70769737D01*
X73379179Y-70709394D01*
X73431110Y-70674694D01*
X73497785Y-70653816D01*
X73565165Y-70672300D01*
X73568863Y-70674676D01*
X73620821Y-70709394D01*
X73620823Y-70709395D01*
X73620825Y-70709396D01*
X73650745Y-70721789D01*
X73766503Y-70769737D01*
X73921153Y-70800499D01*
X73921156Y-70800500D01*
X73921158Y-70800500D01*
X74078844Y-70800500D01*
X74078845Y-70800499D01*
X74233497Y-70769737D01*
X74379179Y-70709394D01*
X74431110Y-70674694D01*
X74497785Y-70653816D01*
X74565165Y-70672300D01*
X74568863Y-70674676D01*
X74620821Y-70709394D01*
X74620823Y-70709395D01*
X74620825Y-70709396D01*
X74650745Y-70721789D01*
X74766503Y-70769737D01*
X74921153Y-70800499D01*
X74921156Y-70800500D01*
X74921158Y-70800500D01*
X75078844Y-70800500D01*
X75078845Y-70800499D01*
X75233497Y-70769737D01*
X75379179Y-70709394D01*
X75431110Y-70674694D01*
X75497785Y-70653816D01*
X75565165Y-70672300D01*
X75568863Y-70674676D01*
X75620821Y-70709394D01*
X75620823Y-70709395D01*
X75620825Y-70709396D01*
X75650745Y-70721789D01*
X75766503Y-70769737D01*
X75921153Y-70800499D01*
X75921156Y-70800500D01*
X75921158Y-70800500D01*
X76078844Y-70800500D01*
X76078845Y-70800499D01*
X76233497Y-70769737D01*
X76379179Y-70709394D01*
X76510289Y-70621789D01*
X76621789Y-70510289D01*
X76709394Y-70379179D01*
X76769737Y-70233497D01*
X76800500Y-70078842D01*
X76800500Y-69921158D01*
X76800500Y-69921155D01*
X76800499Y-69921153D01*
X76769738Y-69766510D01*
X76769737Y-69766503D01*
X76750812Y-69720814D01*
X76709397Y-69620827D01*
X76709390Y-69620814D01*
X76621789Y-69489711D01*
X76621786Y-69489707D01*
X76510292Y-69378213D01*
X76510288Y-69378210D01*
X76379185Y-69290609D01*
X76379172Y-69290602D01*
X76233501Y-69230264D01*
X76233489Y-69230261D01*
X76078845Y-69199500D01*
X76078842Y-69199500D01*
X75921158Y-69199500D01*
X75921155Y-69199500D01*
X75766510Y-69230261D01*
X75766498Y-69230264D01*
X75620827Y-69290602D01*
X75620814Y-69290609D01*
X75568891Y-69325304D01*
X75502214Y-69346182D01*
X75434833Y-69327698D01*
X75431109Y-69325304D01*
X75379185Y-69290609D01*
X75379172Y-69290602D01*
X75233501Y-69230264D01*
X75233489Y-69230261D01*
X75078845Y-69199500D01*
X75078842Y-69199500D01*
X74921158Y-69199500D01*
X74921155Y-69199500D01*
X74766510Y-69230261D01*
X74766498Y-69230264D01*
X74620827Y-69290602D01*
X74620814Y-69290609D01*
X74568891Y-69325304D01*
X74502214Y-69346182D01*
X74434833Y-69327698D01*
X74431109Y-69325304D01*
X74379185Y-69290609D01*
X74379172Y-69290602D01*
X74233501Y-69230264D01*
X74233489Y-69230261D01*
X74078845Y-69199500D01*
X74078842Y-69199500D01*
X73921158Y-69199500D01*
X73921155Y-69199500D01*
X73766510Y-69230261D01*
X73766498Y-69230264D01*
X73620827Y-69290602D01*
X73620814Y-69290609D01*
X73568891Y-69325304D01*
X73502214Y-69346182D01*
X73434833Y-69327698D01*
X73431109Y-69325304D01*
X73379185Y-69290609D01*
X73379172Y-69290602D01*
X73233501Y-69230264D01*
X73233489Y-69230261D01*
X73078845Y-69199500D01*
X73078842Y-69199500D01*
X72921158Y-69199500D01*
X72921155Y-69199500D01*
X72766510Y-69230261D01*
X72766498Y-69230264D01*
X72620827Y-69290602D01*
X72620814Y-69290609D01*
X72568891Y-69325304D01*
X72502214Y-69346182D01*
X72434833Y-69327698D01*
X72431109Y-69325304D01*
X72379185Y-69290609D01*
X72379172Y-69290602D01*
X72233501Y-69230264D01*
X72233489Y-69230261D01*
X72078845Y-69199500D01*
X72078842Y-69199500D01*
X71921158Y-69199500D01*
X71921155Y-69199500D01*
X71766510Y-69230261D01*
X71766498Y-69230264D01*
X71620827Y-69290602D01*
X71620814Y-69290609D01*
X71568891Y-69325304D01*
X71502214Y-69346182D01*
X71434833Y-69327698D01*
X71431109Y-69325304D01*
X71379185Y-69290609D01*
X71379172Y-69290602D01*
X71233501Y-69230264D01*
X71233489Y-69230261D01*
X71078845Y-69199500D01*
X71078842Y-69199500D01*
X70921158Y-69199500D01*
X70921155Y-69199500D01*
X70766510Y-69230261D01*
X70766498Y-69230264D01*
X70620827Y-69290602D01*
X70620814Y-69290609D01*
X70568891Y-69325304D01*
X70502214Y-69346182D01*
X70434833Y-69327698D01*
X70431109Y-69325304D01*
X70379185Y-69290609D01*
X70379172Y-69290602D01*
X70233501Y-69230264D01*
X70233489Y-69230261D01*
X70078845Y-69199500D01*
X70078842Y-69199500D01*
X69921158Y-69199500D01*
X69921155Y-69199500D01*
X69766510Y-69230261D01*
X69766498Y-69230264D01*
X69620827Y-69290602D01*
X69620814Y-69290609D01*
X69489711Y-69378210D01*
X69489707Y-69378213D01*
X69378213Y-69489707D01*
X69378210Y-69489711D01*
X69290609Y-69620814D01*
X69290603Y-69620826D01*
X69284464Y-69635646D01*
X69240620Y-69690048D01*
X69174325Y-69712109D01*
X69106626Y-69694827D01*
X69066803Y-69657079D01*
X69021789Y-69589710D01*
X68910292Y-69478213D01*
X68910288Y-69478210D01*
X68779185Y-69390609D01*
X68779172Y-69390602D01*
X68633501Y-69330264D01*
X68633489Y-69330261D01*
X68478845Y-69299500D01*
X68478842Y-69299500D01*
X68321158Y-69299500D01*
X68321155Y-69299500D01*
X68166510Y-69330261D01*
X68166498Y-69330264D01*
X68020827Y-69390602D01*
X68020814Y-69390609D01*
X67889711Y-69478210D01*
X67889707Y-69478213D01*
X67778213Y-69589707D01*
X67778210Y-69589711D01*
X67690609Y-69720814D01*
X67690602Y-69720827D01*
X67630264Y-69866498D01*
X67630261Y-69866510D01*
X67599500Y-70021153D01*
X51300500Y-70021153D01*
X51300500Y-66596153D01*
X101663100Y-66596153D01*
X101663100Y-66753846D01*
X101693861Y-66908489D01*
X101693864Y-66908501D01*
X101754202Y-67054172D01*
X101754209Y-67054185D01*
X101841810Y-67185288D01*
X101841813Y-67185292D01*
X101953307Y-67296786D01*
X101953311Y-67296789D01*
X102084414Y-67384390D01*
X102084427Y-67384397D01*
X102230098Y-67444735D01*
X102230103Y-67444737D01*
X102384753Y-67475499D01*
X102384756Y-67475500D01*
X102384758Y-67475500D01*
X102542444Y-67475500D01*
X102542445Y-67475499D01*
X102697097Y-67444737D01*
X102832036Y-67388844D01*
X102842772Y-67384397D01*
X102842772Y-67384396D01*
X102842779Y-67384394D01*
X102973889Y-67296789D01*
X103039525Y-67231153D01*
X114134500Y-67231153D01*
X114134500Y-67388846D01*
X114165261Y-67543489D01*
X114165264Y-67543501D01*
X114225602Y-67689172D01*
X114225609Y-67689185D01*
X114313210Y-67820288D01*
X114313213Y-67820292D01*
X114424707Y-67931786D01*
X114424711Y-67931789D01*
X114555814Y-68019390D01*
X114555827Y-68019397D01*
X114701498Y-68079735D01*
X114701503Y-68079737D01*
X114856153Y-68110499D01*
X114856156Y-68110500D01*
X114856158Y-68110500D01*
X115013844Y-68110500D01*
X115013845Y-68110499D01*
X115168497Y-68079737D01*
X115314179Y-68019394D01*
X115445289Y-67931789D01*
X115556789Y-67820289D01*
X115644394Y-67689179D01*
X115704737Y-67543497D01*
X115735500Y-67388842D01*
X115735500Y-67231158D01*
X115735500Y-67231155D01*
X115735499Y-67231153D01*
X115704738Y-67076510D01*
X115704737Y-67076503D01*
X115695487Y-67054172D01*
X115644397Y-66930827D01*
X115644390Y-66930814D01*
X115556789Y-66799711D01*
X115556786Y-66799707D01*
X115445292Y-66688213D01*
X115445288Y-66688210D01*
X115314185Y-66600609D01*
X115314172Y-66600602D01*
X115168501Y-66540264D01*
X115168489Y-66540261D01*
X115013845Y-66509500D01*
X115013842Y-66509500D01*
X114856158Y-66509500D01*
X114856155Y-66509500D01*
X114701510Y-66540261D01*
X114701498Y-66540264D01*
X114555827Y-66600602D01*
X114555814Y-66600609D01*
X114424711Y-66688210D01*
X114424707Y-66688213D01*
X114313213Y-66799707D01*
X114313210Y-66799711D01*
X114225609Y-66930814D01*
X114225602Y-66930827D01*
X114165264Y-67076498D01*
X114165261Y-67076510D01*
X114134500Y-67231153D01*
X103039525Y-67231153D01*
X103085389Y-67185289D01*
X103095439Y-67170247D01*
X103104843Y-67156175D01*
X103172990Y-67054185D01*
X103172990Y-67054184D01*
X103172994Y-67054179D01*
X103233337Y-66908497D01*
X103264100Y-66753842D01*
X103264100Y-66596158D01*
X103264100Y-66596155D01*
X103264099Y-66596153D01*
X103252981Y-66540261D01*
X103233337Y-66441503D01*
X103233335Y-66441498D01*
X103172997Y-66295827D01*
X103172990Y-66295814D01*
X103085389Y-66164711D01*
X103085386Y-66164707D01*
X102973892Y-66053213D01*
X102973888Y-66053210D01*
X102842785Y-65965609D01*
X102842772Y-65965602D01*
X102697101Y-65905264D01*
X102697089Y-65905261D01*
X102542445Y-65874500D01*
X102542442Y-65874500D01*
X102384758Y-65874500D01*
X102384755Y-65874500D01*
X102230110Y-65905261D01*
X102230098Y-65905264D01*
X102084427Y-65965602D01*
X102084414Y-65965609D01*
X101953311Y-66053210D01*
X101953307Y-66053213D01*
X101841813Y-66164707D01*
X101841810Y-66164711D01*
X101754209Y-66295814D01*
X101754202Y-66295827D01*
X101693864Y-66441498D01*
X101693861Y-66441510D01*
X101663100Y-66596153D01*
X51300500Y-66596153D01*
X51300500Y-60246153D01*
X100418500Y-60246153D01*
X100418500Y-60403846D01*
X100449261Y-60558489D01*
X100449264Y-60558501D01*
X100509602Y-60704172D01*
X100509609Y-60704185D01*
X100597210Y-60835288D01*
X100597213Y-60835292D01*
X100708707Y-60946786D01*
X100708711Y-60946789D01*
X100839814Y-61034390D01*
X100839827Y-61034397D01*
X100929652Y-61071603D01*
X100985503Y-61094737D01*
X101140153Y-61125499D01*
X101140156Y-61125500D01*
X101140158Y-61125500D01*
X101297844Y-61125500D01*
X101297845Y-61125499D01*
X101452497Y-61094737D01*
X101598179Y-61034394D01*
X101729289Y-60946789D01*
X101840789Y-60835289D01*
X101928394Y-60704179D01*
X101988737Y-60558497D01*
X102019500Y-60403842D01*
X102019500Y-60246158D01*
X102019500Y-60246155D01*
X102019499Y-60246153D01*
X101988738Y-60091510D01*
X101988737Y-60091503D01*
X101988735Y-60091498D01*
X101928397Y-59945827D01*
X101928390Y-59945814D01*
X101840789Y-59814711D01*
X101840786Y-59814707D01*
X101729292Y-59703213D01*
X101729288Y-59703210D01*
X101598185Y-59615609D01*
X101598172Y-59615602D01*
X101452501Y-59555264D01*
X101452489Y-59555261D01*
X101297845Y-59524500D01*
X101297842Y-59524500D01*
X101140158Y-59524500D01*
X101140155Y-59524500D01*
X100985510Y-59555261D01*
X100985498Y-59555264D01*
X100839827Y-59615602D01*
X100839814Y-59615609D01*
X100708711Y-59703210D01*
X100708707Y-59703213D01*
X100597213Y-59814707D01*
X100597210Y-59814711D01*
X100509609Y-59945814D01*
X100509602Y-59945827D01*
X100449264Y-60091498D01*
X100449261Y-60091510D01*
X100418500Y-60246153D01*
X51300500Y-60246153D01*
X51300500Y-47036429D01*
X63699000Y-47036429D01*
X63699000Y-47197570D01*
X63730433Y-47355594D01*
X63730435Y-47355602D01*
X63792096Y-47504466D01*
X63881619Y-47638447D01*
X63995552Y-47752380D01*
X64129533Y-47841903D01*
X64203965Y-47872733D01*
X64278398Y-47903565D01*
X64436429Y-47934999D01*
X64436433Y-47935000D01*
X64436434Y-47935000D01*
X68146000Y-47935000D01*
X68213039Y-47954685D01*
X68258794Y-48007489D01*
X68270000Y-48059000D01*
X68270000Y-48213570D01*
X68301433Y-48371594D01*
X68301435Y-48371602D01*
X68363096Y-48520466D01*
X68452619Y-48654447D01*
X68566552Y-48768380D01*
X68700533Y-48857903D01*
X68774959Y-48888731D01*
X68849398Y-48919565D01*
X69007429Y-48950999D01*
X69007433Y-48951000D01*
X69007434Y-48951000D01*
X77931567Y-48951000D01*
X77931568Y-48950999D01*
X78089602Y-48919565D01*
X78164035Y-48888733D01*
X78238468Y-48857903D01*
X78372445Y-48768382D01*
X79550508Y-47590319D01*
X79611831Y-47556834D01*
X79638189Y-47554000D01*
X101344567Y-47554000D01*
X101344568Y-47553999D01*
X101502602Y-47522565D01*
X101577035Y-47491733D01*
X101651468Y-47460903D01*
X101785445Y-47371382D01*
X103735382Y-45421445D01*
X103824902Y-45287468D01*
X103886564Y-45138602D01*
X103918000Y-44980566D01*
X103918000Y-44819434D01*
X103918000Y-44819431D01*
X103886565Y-44661403D01*
X103886564Y-44661402D01*
X103886564Y-44661398D01*
X103857032Y-44590100D01*
X103824904Y-44512535D01*
X103735380Y-44378552D01*
X103621447Y-44264619D01*
X103487464Y-44175095D01*
X103338606Y-44113437D01*
X103338596Y-44113434D01*
X103180568Y-44082000D01*
X103180566Y-44082000D01*
X103019434Y-44082000D01*
X103019432Y-44082000D01*
X102861403Y-44113434D01*
X102861393Y-44113437D01*
X102712535Y-44175095D01*
X102578552Y-44264619D01*
X102578551Y-44264620D01*
X100961492Y-45881681D01*
X100900169Y-45915166D01*
X100873811Y-45918000D01*
X79167429Y-45918000D01*
X79009405Y-45949433D01*
X79009397Y-45949435D01*
X78904922Y-45992711D01*
X78904921Y-45992711D01*
X78860538Y-46011094D01*
X78860525Y-46011101D01*
X78726554Y-46100617D01*
X78726551Y-46100620D01*
X77548492Y-47278681D01*
X77487169Y-47312166D01*
X77460811Y-47315000D01*
X75172189Y-47315000D01*
X75105150Y-47295315D01*
X75059395Y-47242511D01*
X75049451Y-47173353D01*
X75078476Y-47109797D01*
X75084508Y-47103319D01*
X76701007Y-45486819D01*
X76762330Y-45453334D01*
X76788688Y-45450500D01*
X97561067Y-45450500D01*
X97561068Y-45450499D01*
X97719102Y-45419065D01*
X97793535Y-45388233D01*
X97867968Y-45357403D01*
X98001945Y-45267882D01*
X98770837Y-44498990D01*
X99559075Y-43710753D01*
X105244500Y-43710753D01*
X105244500Y-43868446D01*
X105275261Y-44023089D01*
X105275264Y-44023101D01*
X105335602Y-44168772D01*
X105335609Y-44168785D01*
X105423210Y-44299888D01*
X105423213Y-44299892D01*
X105534707Y-44411386D01*
X105534711Y-44411389D01*
X105665814Y-44498990D01*
X105665827Y-44498997D01*
X105811498Y-44559335D01*
X105811503Y-44559337D01*
X105966153Y-44590099D01*
X105966156Y-44590100D01*
X105966158Y-44590100D01*
X106123844Y-44590100D01*
X106123845Y-44590099D01*
X106278497Y-44559337D01*
X106424179Y-44498994D01*
X106555289Y-44411389D01*
X106666789Y-44299889D01*
X106754394Y-44168779D01*
X106814737Y-44023097D01*
X106845500Y-43868442D01*
X106845500Y-43710758D01*
X106845500Y-43710755D01*
X106845499Y-43710753D01*
X106814738Y-43556110D01*
X106814737Y-43556103D01*
X106770785Y-43449992D01*
X106754397Y-43410427D01*
X106754390Y-43410414D01*
X106666789Y-43279311D01*
X106666786Y-43279307D01*
X106555292Y-43167813D01*
X106555288Y-43167810D01*
X106424185Y-43080209D01*
X106424172Y-43080202D01*
X106278501Y-43019864D01*
X106278489Y-43019861D01*
X106123845Y-42989100D01*
X106123842Y-42989100D01*
X105966158Y-42989100D01*
X105966155Y-42989100D01*
X105811510Y-43019861D01*
X105811498Y-43019864D01*
X105665827Y-43080202D01*
X105665814Y-43080209D01*
X105534711Y-43167810D01*
X105534707Y-43167813D01*
X105423213Y-43279307D01*
X105423210Y-43279311D01*
X105335609Y-43410414D01*
X105335602Y-43410427D01*
X105275264Y-43556098D01*
X105275261Y-43556110D01*
X105244500Y-43710753D01*
X99559075Y-43710753D01*
X99652843Y-43616985D01*
X103089674Y-40180153D01*
X104482500Y-40180153D01*
X104482500Y-40337846D01*
X104513261Y-40492489D01*
X104513264Y-40492501D01*
X104573602Y-40638172D01*
X104573609Y-40638185D01*
X104661210Y-40769288D01*
X104661213Y-40769292D01*
X104772707Y-40880786D01*
X104772711Y-40880789D01*
X104903814Y-40968390D01*
X104903827Y-40968397D01*
X105049498Y-41028735D01*
X105049503Y-41028737D01*
X105204153Y-41059499D01*
X105204156Y-41059500D01*
X105204158Y-41059500D01*
X105361844Y-41059500D01*
X105361845Y-41059499D01*
X105516497Y-41028737D01*
X105662179Y-40968394D01*
X105793289Y-40880789D01*
X105904789Y-40769289D01*
X105992394Y-40638179D01*
X106052737Y-40492497D01*
X106083500Y-40337842D01*
X106083500Y-40180158D01*
X106083500Y-40180155D01*
X106083499Y-40180153D01*
X106052738Y-40025510D01*
X106052737Y-40025503D01*
X106025013Y-39958570D01*
X105992397Y-39879827D01*
X105992390Y-39879814D01*
X105904789Y-39748711D01*
X105904786Y-39748707D01*
X105793292Y-39637213D01*
X105793288Y-39637210D01*
X105662185Y-39549609D01*
X105662172Y-39549602D01*
X105516501Y-39489264D01*
X105516489Y-39489261D01*
X105361845Y-39458500D01*
X105361842Y-39458500D01*
X105204158Y-39458500D01*
X105204155Y-39458500D01*
X105049510Y-39489261D01*
X105049498Y-39489264D01*
X104903827Y-39549602D01*
X104903814Y-39549609D01*
X104772711Y-39637210D01*
X104772707Y-39637213D01*
X104661213Y-39748707D01*
X104661210Y-39748711D01*
X104573609Y-39879814D01*
X104573602Y-39879827D01*
X104513264Y-40025498D01*
X104513261Y-40025510D01*
X104482500Y-40180153D01*
X103089674Y-40180153D01*
X103183442Y-40086385D01*
X104315508Y-38954319D01*
X104376831Y-38920834D01*
X104403189Y-38918000D01*
X111115811Y-38918000D01*
X111182850Y-38937685D01*
X111203492Y-38954319D01*
X114263181Y-42014008D01*
X114296666Y-42075331D01*
X114299500Y-42101689D01*
X114299500Y-56358171D01*
X114279815Y-56425210D01*
X114227011Y-56470965D01*
X114157853Y-56480909D01*
X114106610Y-56461274D01*
X114081187Y-56444287D01*
X114052468Y-56425098D01*
X113903602Y-56363435D01*
X113903594Y-56363433D01*
X113745570Y-56332000D01*
X113745566Y-56332000D01*
X96021189Y-56332000D01*
X95954150Y-56312315D01*
X95933508Y-56295681D01*
X95469319Y-55831492D01*
X95435834Y-55770169D01*
X95433000Y-55743811D01*
X95433000Y-54934409D01*
X95452685Y-54867370D01*
X95469319Y-54846728D01*
X95545945Y-54770102D01*
X95658865Y-54614681D01*
X95746082Y-54443509D01*
X95746084Y-54443504D01*
X95767069Y-54378919D01*
X95806506Y-54321243D01*
X95870864Y-54294044D01*
X95939711Y-54305958D01*
X95991187Y-54353202D01*
X96002931Y-54378919D01*
X96023915Y-54443504D01*
X96023918Y-54443509D01*
X96111135Y-54614681D01*
X96224055Y-54770102D01*
X96359898Y-54905945D01*
X96515319Y-55018865D01*
X96686491Y-55106082D01*
X96686493Y-55106083D01*
X96777845Y-55135764D01*
X96869199Y-55165447D01*
X97058945Y-55195500D01*
X97058946Y-55195500D01*
X97251054Y-55195500D01*
X97251055Y-55195500D01*
X97440801Y-55165447D01*
X97623509Y-55106082D01*
X97794681Y-55018865D01*
X97950102Y-54905945D01*
X98085945Y-54770102D01*
X98198865Y-54614681D01*
X98286082Y-54443509D01*
X98286084Y-54443504D01*
X98307069Y-54378919D01*
X98346506Y-54321243D01*
X98410864Y-54294044D01*
X98479711Y-54305958D01*
X98531187Y-54353202D01*
X98542931Y-54378919D01*
X98563915Y-54443504D01*
X98563918Y-54443509D01*
X98651135Y-54614681D01*
X98764055Y-54770102D01*
X98899898Y-54905945D01*
X99055319Y-55018865D01*
X99226491Y-55106082D01*
X99226493Y-55106083D01*
X99317845Y-55135764D01*
X99409199Y-55165447D01*
X99598945Y-55195500D01*
X99598946Y-55195500D01*
X99791054Y-55195500D01*
X99791055Y-55195500D01*
X99980801Y-55165447D01*
X100163509Y-55106082D01*
X100334681Y-55018865D01*
X100490102Y-54905945D01*
X100625945Y-54770102D01*
X100738865Y-54614681D01*
X100826082Y-54443509D01*
X100885447Y-54260801D01*
X100915500Y-54071055D01*
X100915500Y-53962688D01*
X100935185Y-53895649D01*
X100951819Y-53875007D01*
X101902507Y-52924319D01*
X101963830Y-52890834D01*
X101990188Y-52888000D01*
X105106591Y-52888000D01*
X105173630Y-52907685D01*
X105219385Y-52960489D01*
X105229329Y-53029647D01*
X105200304Y-53093203D01*
X105194272Y-53099681D01*
X105114057Y-53179895D01*
X105114057Y-53179896D01*
X105114055Y-53179898D01*
X105065560Y-53246645D01*
X105001135Y-53335318D01*
X104913916Y-53506493D01*
X104854553Y-53689197D01*
X104824500Y-53878945D01*
X104824500Y-54071054D01*
X104854553Y-54260802D01*
X104913916Y-54443506D01*
X104913918Y-54443509D01*
X105001135Y-54614681D01*
X105114055Y-54770102D01*
X105249898Y-54905945D01*
X105405319Y-55018865D01*
X105576491Y-55106082D01*
X105576493Y-55106083D01*
X105667845Y-55135764D01*
X105759199Y-55165447D01*
X105948945Y-55195500D01*
X105948946Y-55195500D01*
X106141054Y-55195500D01*
X106141055Y-55195500D01*
X106330801Y-55165447D01*
X106513509Y-55106082D01*
X106684681Y-55018865D01*
X106840102Y-54905945D01*
X106975945Y-54770102D01*
X107088865Y-54614681D01*
X107176082Y-54443509D01*
X107176084Y-54443504D01*
X107197069Y-54378919D01*
X107236506Y-54321243D01*
X107300864Y-54294044D01*
X107369711Y-54305958D01*
X107421187Y-54353202D01*
X107432931Y-54378919D01*
X107453915Y-54443504D01*
X107453918Y-54443509D01*
X107541135Y-54614681D01*
X107654055Y-54770102D01*
X107789898Y-54905945D01*
X107945319Y-55018865D01*
X108116491Y-55106082D01*
X108116493Y-55106083D01*
X108207845Y-55135764D01*
X108299199Y-55165447D01*
X108488945Y-55195500D01*
X108488946Y-55195500D01*
X108681054Y-55195500D01*
X108681055Y-55195500D01*
X108870801Y-55165447D01*
X109053509Y-55106082D01*
X109224681Y-55018865D01*
X109380102Y-54905945D01*
X109515945Y-54770102D01*
X109628865Y-54614681D01*
X109716082Y-54443509D01*
X109716084Y-54443504D01*
X109737069Y-54378919D01*
X109776506Y-54321243D01*
X109840864Y-54294044D01*
X109909711Y-54305958D01*
X109961187Y-54353202D01*
X109972931Y-54378919D01*
X109993915Y-54443504D01*
X109993918Y-54443509D01*
X110081135Y-54614681D01*
X110194055Y-54770102D01*
X110329898Y-54905945D01*
X110485319Y-55018865D01*
X110656491Y-55106082D01*
X110656493Y-55106083D01*
X110747845Y-55135764D01*
X110839199Y-55165447D01*
X111028945Y-55195500D01*
X111028946Y-55195500D01*
X111221054Y-55195500D01*
X111221055Y-55195500D01*
X111410801Y-55165447D01*
X111593509Y-55106082D01*
X111764681Y-55018865D01*
X111920102Y-54905945D01*
X112055945Y-54770102D01*
X112168865Y-54614681D01*
X112256082Y-54443509D01*
X112315447Y-54260801D01*
X112345500Y-54071055D01*
X112345500Y-53878945D01*
X112315447Y-53689199D01*
X112285424Y-53596797D01*
X112256083Y-53506493D01*
X112168864Y-53335318D01*
X112055945Y-53179898D01*
X111920102Y-53044055D01*
X111764681Y-52931135D01*
X111718658Y-52907685D01*
X111593506Y-52843916D01*
X111410802Y-52784553D01*
X111315928Y-52769526D01*
X111221055Y-52754500D01*
X111221054Y-52754500D01*
X111112688Y-52754500D01*
X111045649Y-52734815D01*
X111025007Y-52718181D01*
X109741448Y-51434620D01*
X109741444Y-51434617D01*
X109607474Y-51345100D01*
X109607461Y-51345093D01*
X109458606Y-51283436D01*
X109458594Y-51283433D01*
X109300570Y-51252000D01*
X109300566Y-51252000D01*
X101519434Y-51252000D01*
X101519429Y-51252000D01*
X101361405Y-51283433D01*
X101361393Y-51283436D01*
X101212536Y-51345094D01*
X101212534Y-51345095D01*
X101139249Y-51394063D01*
X101139246Y-51394065D01*
X101132219Y-51398761D01*
X101078555Y-51434618D01*
X100964618Y-51548555D01*
X100964616Y-51548557D01*
X100961986Y-51551186D01*
X100961978Y-51551194D01*
X99794992Y-52718181D01*
X99733669Y-52751666D01*
X99707311Y-52754500D01*
X99598945Y-52754500D01*
X99535696Y-52764517D01*
X99409197Y-52784553D01*
X99226493Y-52843916D01*
X99055318Y-52931135D01*
X99003662Y-52968666D01*
X98899898Y-53044055D01*
X98899896Y-53044057D01*
X98899895Y-53044057D01*
X98764057Y-53179895D01*
X98764057Y-53179896D01*
X98764055Y-53179898D01*
X98715560Y-53246645D01*
X98651135Y-53335318D01*
X98563916Y-53506493D01*
X98542931Y-53571081D01*
X98503494Y-53628756D01*
X98439135Y-53655955D01*
X98370289Y-53644041D01*
X98318813Y-53596797D01*
X98307069Y-53571081D01*
X98286083Y-53506493D01*
X98198864Y-53335318D01*
X98085945Y-53179898D01*
X97950102Y-53044055D01*
X97794681Y-52931135D01*
X97748658Y-52907685D01*
X97623506Y-52843916D01*
X97440802Y-52784553D01*
X97345928Y-52769526D01*
X97251055Y-52754500D01*
X97058945Y-52754500D01*
X96995696Y-52764517D01*
X96869197Y-52784553D01*
X96686493Y-52843916D01*
X96515318Y-52931135D01*
X96463662Y-52968666D01*
X96359898Y-53044055D01*
X96359896Y-53044057D01*
X96359895Y-53044057D01*
X96224057Y-53179895D01*
X96224057Y-53179896D01*
X96224055Y-53179898D01*
X96175560Y-53246645D01*
X96111135Y-53335318D01*
X96023916Y-53506493D01*
X96002931Y-53571081D01*
X95963494Y-53628756D01*
X95899135Y-53655955D01*
X95830289Y-53644041D01*
X95778813Y-53596797D01*
X95767069Y-53571081D01*
X95746083Y-53506493D01*
X95658864Y-53335318D01*
X95545945Y-53179898D01*
X95410102Y-53044055D01*
X95254681Y-52931135D01*
X95208658Y-52907685D01*
X95083506Y-52843916D01*
X94900802Y-52784553D01*
X94805928Y-52769526D01*
X94711055Y-52754500D01*
X94518945Y-52754500D01*
X94455696Y-52764517D01*
X94329197Y-52784553D01*
X94146493Y-52843916D01*
X93975318Y-52931135D01*
X93923662Y-52968666D01*
X93819898Y-53044055D01*
X93819896Y-53044057D01*
X93819895Y-53044057D01*
X93684057Y-53179895D01*
X93684057Y-53179896D01*
X93684055Y-53179898D01*
X93635560Y-53246645D01*
X93571135Y-53335318D01*
X93483916Y-53506493D01*
X93424553Y-53689197D01*
X93394500Y-53878945D01*
X93394500Y-54071054D01*
X93424553Y-54260802D01*
X93483916Y-54443506D01*
X93483918Y-54443509D01*
X93571135Y-54614681D01*
X93684055Y-54770102D01*
X93684057Y-54770104D01*
X93760681Y-54846728D01*
X93794166Y-54908051D01*
X93797000Y-54934409D01*
X93797000Y-56214570D01*
X93828433Y-56372594D01*
X93828436Y-56372606D01*
X93890093Y-56521461D01*
X93890100Y-56521474D01*
X93979617Y-56655444D01*
X93979620Y-56655448D01*
X95109551Y-57785379D01*
X95109555Y-57785382D01*
X95243532Y-57874903D01*
X95317963Y-57905732D01*
X95317964Y-57905733D01*
X95317965Y-57905733D01*
X95392398Y-57936565D01*
X95550429Y-57967999D01*
X95550433Y-57968000D01*
X113549811Y-57968000D01*
X113616850Y-57987685D01*
X113662605Y-58040489D01*
X113672549Y-58109647D01*
X113643524Y-58173203D01*
X113637492Y-58179681D01*
X111505620Y-60311551D01*
X111505617Y-60311555D01*
X111416098Y-60445528D01*
X111416097Y-60445531D01*
X111354436Y-60594396D01*
X111354434Y-60594404D01*
X111323000Y-60752431D01*
X111323000Y-60752434D01*
X111323000Y-60913566D01*
X111323000Y-60913568D01*
X111322999Y-60913568D01*
X111354434Y-61071595D01*
X111354436Y-61071603D01*
X111416097Y-61220468D01*
X111416098Y-61220471D01*
X111505617Y-61354444D01*
X111505620Y-61354448D01*
X111619551Y-61468379D01*
X111619555Y-61468382D01*
X111753528Y-61557901D01*
X111753530Y-61557901D01*
X111753532Y-61557903D01*
X111902398Y-61619564D01*
X111941098Y-61627262D01*
X112060431Y-61651000D01*
X112060434Y-61651000D01*
X112221568Y-61651000D01*
X112301123Y-61635174D01*
X112379602Y-61619564D01*
X112528468Y-61557903D01*
X112662445Y-61468382D01*
X115638942Y-58491883D01*
X115638945Y-58491882D01*
X115752882Y-58377945D01*
X115814810Y-58285263D01*
X115842403Y-58243968D01*
X115904065Y-58095102D01*
X115935500Y-57937065D01*
X115935500Y-57775934D01*
X115935500Y-57528000D01*
X127383500Y-57528000D01*
X127383500Y-63630000D01*
X127383501Y-63630009D01*
X127395052Y-63737450D01*
X127395054Y-63737462D01*
X127406260Y-63788972D01*
X127440383Y-63891497D01*
X127440386Y-63891503D01*
X127518171Y-64012537D01*
X127518179Y-64012548D01*
X127563923Y-64065340D01*
X127563926Y-64065343D01*
X127563930Y-64065347D01*
X127672664Y-64159567D01*
X127672667Y-64159568D01*
X127672668Y-64159569D01*
X127774488Y-64206070D01*
X127803541Y-64219338D01*
X127870580Y-64239023D01*
X127870584Y-64239024D01*
X128013000Y-64259500D01*
X128013003Y-64259500D01*
X134876990Y-64259500D01*
X134877000Y-64259500D01*
X134984456Y-64247947D01*
X135035967Y-64236741D01*
X135070197Y-64225347D01*
X135138497Y-64202616D01*
X135138501Y-64202613D01*
X135138504Y-64202613D01*
X135259543Y-64124825D01*
X135312347Y-64079070D01*
X135406567Y-63970336D01*
X135466338Y-63839459D01*
X135486023Y-63772420D01*
X135486024Y-63772416D01*
X135506500Y-63630000D01*
X135506500Y-57655000D01*
X141988500Y-57655000D01*
X141988500Y-63757000D01*
X141988501Y-63757009D01*
X142000052Y-63864450D01*
X142000054Y-63864462D01*
X142011260Y-63915972D01*
X142045383Y-64018497D01*
X142045386Y-64018503D01*
X142123171Y-64139537D01*
X142123179Y-64139548D01*
X142168923Y-64192340D01*
X142168926Y-64192343D01*
X142168930Y-64192347D01*
X142277664Y-64286567D01*
X142277667Y-64286568D01*
X142277668Y-64286569D01*
X142371925Y-64329616D01*
X142408541Y-64346338D01*
X142475580Y-64366023D01*
X142475584Y-64366024D01*
X142618000Y-64386500D01*
X142618003Y-64386500D01*
X149481990Y-64386500D01*
X149482000Y-64386500D01*
X149589456Y-64374947D01*
X149640967Y-64363741D01*
X149675197Y-64352347D01*
X149743497Y-64329616D01*
X149743501Y-64329613D01*
X149743504Y-64329613D01*
X149864543Y-64251825D01*
X149917347Y-64206070D01*
X150011567Y-64097336D01*
X150071338Y-63966459D01*
X150091023Y-63899420D01*
X150091024Y-63899416D01*
X150111500Y-63757000D01*
X150111500Y-57655000D01*
X150099947Y-57547544D01*
X150088741Y-57496033D01*
X150088637Y-57495722D01*
X150054616Y-57393502D01*
X150054613Y-57393496D01*
X150038891Y-57369033D01*
X149976825Y-57272457D01*
X149971660Y-57266496D01*
X149931076Y-57219659D01*
X149931072Y-57219656D01*
X149931070Y-57219653D01*
X149822336Y-57125433D01*
X149822333Y-57125431D01*
X149822331Y-57125430D01*
X149691465Y-57065664D01*
X149691460Y-57065662D01*
X149691459Y-57065662D01*
X149624420Y-57045977D01*
X149624422Y-57045977D01*
X149624417Y-57045976D01*
X149535409Y-57033179D01*
X149482000Y-57025500D01*
X142618000Y-57025500D01*
X142617991Y-57025500D01*
X142617990Y-57025501D01*
X142510549Y-57037052D01*
X142510537Y-57037054D01*
X142459027Y-57048260D01*
X142356502Y-57082383D01*
X142356496Y-57082386D01*
X142235462Y-57160171D01*
X142235451Y-57160179D01*
X142182659Y-57205923D01*
X142088433Y-57314664D01*
X142088430Y-57314668D01*
X142028664Y-57445534D01*
X142008976Y-57512582D01*
X142003949Y-57547549D01*
X141988500Y-57655000D01*
X135506500Y-57655000D01*
X135506500Y-57528000D01*
X135494947Y-57420544D01*
X135483741Y-57369033D01*
X135483637Y-57368722D01*
X135449616Y-57266502D01*
X135449613Y-57266496D01*
X135371828Y-57145462D01*
X135371825Y-57145457D01*
X135371820Y-57145451D01*
X135326076Y-57092659D01*
X135326072Y-57092656D01*
X135326070Y-57092653D01*
X135217336Y-56998433D01*
X135217333Y-56998431D01*
X135217331Y-56998430D01*
X135086465Y-56938664D01*
X135086460Y-56938662D01*
X135086459Y-56938662D01*
X135019420Y-56918977D01*
X135019422Y-56918977D01*
X135019417Y-56918976D01*
X134957347Y-56910052D01*
X134877000Y-56898500D01*
X128013000Y-56898500D01*
X128012991Y-56898500D01*
X128012990Y-56898501D01*
X127905549Y-56910052D01*
X127905537Y-56910054D01*
X127854027Y-56921260D01*
X127751502Y-56955383D01*
X127751496Y-56955386D01*
X127630462Y-57033171D01*
X127630451Y-57033179D01*
X127577659Y-57078923D01*
X127483433Y-57187664D01*
X127483430Y-57187668D01*
X127423664Y-57318534D01*
X127403976Y-57385582D01*
X127398949Y-57420549D01*
X127383500Y-57528000D01*
X115935500Y-57528000D01*
X115935500Y-43449984D01*
X122124500Y-43449984D01*
X122124500Y-45450015D01*
X122135000Y-45552795D01*
X122135001Y-45552796D01*
X122190186Y-45719335D01*
X122190187Y-45719337D01*
X122282286Y-45868651D01*
X122282289Y-45868655D01*
X122406344Y-45992710D01*
X122406348Y-45992713D01*
X122555662Y-46084812D01*
X122555664Y-46084813D01*
X122555666Y-46084814D01*
X122722203Y-46139999D01*
X122824992Y-46150500D01*
X122824997Y-46150500D01*
X124825003Y-46150500D01*
X124825008Y-46150500D01*
X124927797Y-46139999D01*
X125094334Y-46084814D01*
X125243655Y-45992711D01*
X125367711Y-45868655D01*
X125459814Y-45719334D01*
X125514999Y-45552797D01*
X125525500Y-45450008D01*
X125525500Y-43449992D01*
X125525499Y-43449984D01*
X136094500Y-43449984D01*
X136094500Y-45450015D01*
X136105000Y-45552795D01*
X136105001Y-45552796D01*
X136160186Y-45719335D01*
X136160187Y-45719337D01*
X136252286Y-45868651D01*
X136252289Y-45868655D01*
X136376344Y-45992710D01*
X136376348Y-45992713D01*
X136525662Y-46084812D01*
X136525664Y-46084813D01*
X136525666Y-46084814D01*
X136692203Y-46139999D01*
X136794992Y-46150500D01*
X136794997Y-46150500D01*
X138795003Y-46150500D01*
X138795008Y-46150500D01*
X138897797Y-46139999D01*
X139064334Y-46084814D01*
X139213655Y-45992711D01*
X139337711Y-45868655D01*
X139429814Y-45719334D01*
X139484999Y-45552797D01*
X139495500Y-45450008D01*
X139495500Y-43449992D01*
X139484999Y-43347203D01*
X139429814Y-43180666D01*
X139421887Y-43167815D01*
X139337713Y-43031348D01*
X139337710Y-43031344D01*
X139213655Y-42907289D01*
X139213651Y-42907286D01*
X139064337Y-42815187D01*
X139064335Y-42815186D01*
X138981065Y-42787593D01*
X138897797Y-42760001D01*
X138897795Y-42760000D01*
X138795015Y-42749500D01*
X138795008Y-42749500D01*
X136794992Y-42749500D01*
X136794984Y-42749500D01*
X136692204Y-42760000D01*
X136692203Y-42760001D01*
X136525664Y-42815186D01*
X136525662Y-42815187D01*
X136376348Y-42907286D01*
X136376344Y-42907289D01*
X136252289Y-43031344D01*
X136252286Y-43031348D01*
X136160187Y-43180662D01*
X136160186Y-43180664D01*
X136105001Y-43347203D01*
X136105000Y-43347204D01*
X136094500Y-43449984D01*
X125525499Y-43449984D01*
X125514999Y-43347203D01*
X125459814Y-43180666D01*
X125451887Y-43167815D01*
X125367713Y-43031348D01*
X125367710Y-43031344D01*
X125243655Y-42907289D01*
X125243651Y-42907286D01*
X125094337Y-42815187D01*
X125094335Y-42815186D01*
X125011065Y-42787593D01*
X124927797Y-42760001D01*
X124927795Y-42760000D01*
X124825015Y-42749500D01*
X124825008Y-42749500D01*
X122824992Y-42749500D01*
X122824984Y-42749500D01*
X122722204Y-42760000D01*
X122722203Y-42760001D01*
X122555664Y-42815186D01*
X122555662Y-42815187D01*
X122406348Y-42907286D01*
X122406344Y-42907289D01*
X122282289Y-43031344D01*
X122282286Y-43031348D01*
X122190187Y-43180662D01*
X122190186Y-43180664D01*
X122135001Y-43347203D01*
X122135000Y-43347204D01*
X122124500Y-43449984D01*
X115935500Y-43449984D01*
X115935500Y-41630934D01*
X115904065Y-41472898D01*
X115844728Y-41329649D01*
X115843084Y-41325051D01*
X115752882Y-41190054D01*
X115752879Y-41190051D01*
X115202445Y-40639618D01*
X112360319Y-37797492D01*
X112326834Y-37736169D01*
X112324000Y-37709811D01*
X112324000Y-34844433D01*
X112323999Y-34844429D01*
X112298738Y-34717434D01*
X112292565Y-34686398D01*
X112239962Y-34559404D01*
X112230903Y-34537533D01*
X112141381Y-34403554D01*
X112027445Y-34289618D01*
X111900445Y-34162618D01*
X111900444Y-34162617D01*
X111900443Y-34162616D01*
X111766471Y-34073098D01*
X111766468Y-34073097D01*
X111617603Y-34011436D01*
X111617595Y-34011434D01*
X111459568Y-33980000D01*
X111459566Y-33980000D01*
X111298434Y-33980000D01*
X111298432Y-33980000D01*
X111140404Y-34011434D01*
X111140396Y-34011436D01*
X110991531Y-34073097D01*
X110991528Y-34073098D01*
X110857555Y-34162617D01*
X110857551Y-34162620D01*
X110743620Y-34276551D01*
X110743617Y-34276555D01*
X110654098Y-34410528D01*
X110654097Y-34410531D01*
X110592436Y-34559396D01*
X110592434Y-34559404D01*
X110561000Y-34717431D01*
X110561000Y-34717434D01*
X110561000Y-34878566D01*
X110561000Y-34878568D01*
X110560999Y-34878568D01*
X110592434Y-35036595D01*
X110592436Y-35036603D01*
X110654097Y-35185468D01*
X110654100Y-35185474D01*
X110667100Y-35204929D01*
X110687980Y-35271606D01*
X110688000Y-35273822D01*
X110688000Y-37158000D01*
X110668315Y-37225039D01*
X110615511Y-37270794D01*
X110564000Y-37282000D01*
X103932429Y-37282000D01*
X103774405Y-37313433D01*
X103774397Y-37313435D01*
X103625529Y-37375099D01*
X103625526Y-37375100D01*
X103491559Y-37464614D01*
X103491551Y-37464620D01*
X97177992Y-43778181D01*
X97116669Y-43811666D01*
X97090311Y-43814500D01*
X91992281Y-43814500D01*
X91925242Y-43794815D01*
X91879487Y-43742011D01*
X91869543Y-43672853D01*
X91898568Y-43609297D01*
X91904600Y-43602819D01*
X96108600Y-39398819D01*
X96169923Y-39365334D01*
X96196281Y-39362500D01*
X99155643Y-39362500D01*
X99222682Y-39382185D01*
X99224534Y-39383398D01*
X99315814Y-39444390D01*
X99315827Y-39444397D01*
X99427218Y-39490536D01*
X99461503Y-39504737D01*
X99616153Y-39535499D01*
X99616156Y-39535500D01*
X99616158Y-39535500D01*
X99773844Y-39535500D01*
X99773845Y-39535499D01*
X99928497Y-39504737D01*
X100074179Y-39444394D01*
X100205289Y-39356789D01*
X100316789Y-39245289D01*
X100404394Y-39114179D01*
X100464737Y-38968497D01*
X100495500Y-38813842D01*
X100495500Y-38656158D01*
X100495500Y-38656155D01*
X100495499Y-38656153D01*
X100464738Y-38501510D01*
X100464737Y-38501503D01*
X100464735Y-38501498D01*
X100404397Y-38355827D01*
X100404390Y-38355814D01*
X100316789Y-38224711D01*
X100316786Y-38224707D01*
X100205292Y-38113213D01*
X100205288Y-38113210D01*
X100074185Y-38025609D01*
X100074172Y-38025602D01*
X99928501Y-37965264D01*
X99928489Y-37965261D01*
X99773845Y-37934500D01*
X99773842Y-37934500D01*
X99616158Y-37934500D01*
X99616155Y-37934500D01*
X99461510Y-37965261D01*
X99461498Y-37965264D01*
X99315827Y-38025602D01*
X99315814Y-38025609D01*
X99224534Y-38086602D01*
X99157857Y-38107480D01*
X99155643Y-38107500D01*
X95823192Y-38107500D01*
X95701972Y-38131612D01*
X95701964Y-38131614D01*
X95621215Y-38165062D01*
X95587766Y-38178917D01*
X95587764Y-38178918D01*
X95511728Y-38229724D01*
X95511728Y-38229725D01*
X95484989Y-38247590D01*
X95484988Y-38247591D01*
X90581400Y-43151181D01*
X90520077Y-43184666D01*
X90493719Y-43187500D01*
X82454357Y-43187500D01*
X82387318Y-43167815D01*
X82385466Y-43166602D01*
X82294185Y-43105609D01*
X82294172Y-43105602D01*
X82148501Y-43045264D01*
X82148489Y-43045261D01*
X81993845Y-43014500D01*
X81993842Y-43014500D01*
X81836158Y-43014500D01*
X81836155Y-43014500D01*
X81681510Y-43045261D01*
X81681498Y-43045264D01*
X81535827Y-43105602D01*
X81535814Y-43105609D01*
X81404711Y-43193210D01*
X81404707Y-43193213D01*
X81293213Y-43304707D01*
X81293210Y-43304711D01*
X81205609Y-43435814D01*
X81205602Y-43435827D01*
X81145264Y-43581498D01*
X81145261Y-43581508D01*
X81118769Y-43714692D01*
X81086384Y-43776603D01*
X81025668Y-43811177D01*
X80997152Y-43814500D01*
X77139883Y-43814500D01*
X77072844Y-43794815D01*
X77070992Y-43793602D01*
X76968469Y-43725097D01*
X76968466Y-43725095D01*
X76968465Y-43725095D01*
X76968464Y-43725094D01*
X76819603Y-43663435D01*
X76819595Y-43663433D01*
X76661568Y-43631999D01*
X76661566Y-43631999D01*
X76500435Y-43631999D01*
X76500433Y-43631999D01*
X76342403Y-43663433D01*
X76342397Y-43663435D01*
X76228150Y-43710758D01*
X76193528Y-43725098D01*
X76059556Y-43814616D01*
X76005731Y-43868442D01*
X75945618Y-43928555D01*
X73611492Y-46262681D01*
X73550169Y-46296166D01*
X73523811Y-46299000D01*
X64436429Y-46299000D01*
X64278405Y-46330433D01*
X64278397Y-46330435D01*
X64129533Y-46392096D01*
X63995552Y-46481619D01*
X63881619Y-46595552D01*
X63792096Y-46729533D01*
X63730435Y-46878397D01*
X63730433Y-46878405D01*
X63699000Y-47036429D01*
X51300500Y-47036429D01*
X51300500Y-35733429D01*
X86939000Y-35733429D01*
X86939000Y-37164570D01*
X86970433Y-37322594D01*
X86970436Y-37322606D01*
X86992179Y-37375097D01*
X86992180Y-37375099D01*
X87032097Y-37471468D01*
X87032098Y-37471471D01*
X87121617Y-37605444D01*
X87121620Y-37605448D01*
X90029552Y-40513379D01*
X90029556Y-40513382D01*
X90163532Y-40602903D01*
X90163533Y-40602903D01*
X90163534Y-40602904D01*
X90163536Y-40602905D01*
X90248679Y-40638172D01*
X90312398Y-40664565D01*
X90312400Y-40664565D01*
X90312405Y-40664567D01*
X90470430Y-40695999D01*
X90470434Y-40696000D01*
X90470435Y-40696000D01*
X90631567Y-40696000D01*
X90631568Y-40695999D01*
X90684244Y-40685521D01*
X90789594Y-40664567D01*
X90789597Y-40664565D01*
X90789602Y-40664565D01*
X90938469Y-40602903D01*
X91072445Y-40513382D01*
X91186382Y-40399445D01*
X91275903Y-40265469D01*
X91337565Y-40116602D01*
X91343576Y-40086385D01*
X91368999Y-39958570D01*
X91369000Y-39958567D01*
X91369000Y-39797434D01*
X91368999Y-39797430D01*
X91337567Y-39639405D01*
X91337564Y-39639396D01*
X91275905Y-39490536D01*
X91275904Y-39490534D01*
X91275055Y-39489264D01*
X91186382Y-39356556D01*
X91186379Y-39356552D01*
X88611319Y-36781492D01*
X88577834Y-36720169D01*
X88575000Y-36693811D01*
X88575000Y-35733433D01*
X88574999Y-35733429D01*
X88543566Y-35575405D01*
X88543565Y-35575398D01*
X88512733Y-35500965D01*
X88481903Y-35426533D01*
X88392380Y-35292552D01*
X88278447Y-35178619D01*
X88144466Y-35089096D01*
X87995602Y-35027435D01*
X87995594Y-35027433D01*
X87837570Y-34996000D01*
X87837566Y-34996000D01*
X87676434Y-34996000D01*
X87676429Y-34996000D01*
X87518405Y-35027433D01*
X87518397Y-35027435D01*
X87369533Y-35089096D01*
X87235552Y-35178619D01*
X87121619Y-35292552D01*
X87032096Y-35426533D01*
X86970435Y-35575397D01*
X86970433Y-35575405D01*
X86939000Y-35733429D01*
X51300500Y-35733429D01*
X51300500Y-28705480D01*
X51300695Y-28698528D01*
X51304200Y-28636108D01*
X51317725Y-28395273D01*
X51319279Y-28381478D01*
X51333975Y-28294983D01*
X110389500Y-28294983D01*
X110389500Y-30085001D01*
X110389501Y-30085018D01*
X110400000Y-30187796D01*
X110400001Y-30187799D01*
X110455185Y-30354331D01*
X110455186Y-30354334D01*
X110547288Y-30503656D01*
X110671344Y-30627712D01*
X110820666Y-30719814D01*
X110987203Y-30774999D01*
X111089991Y-30785500D01*
X112430008Y-30785499D01*
X112532797Y-30774999D01*
X112699334Y-30719814D01*
X112848656Y-30627712D01*
X112972712Y-30503656D01*
X113064814Y-30354334D01*
X113119999Y-30187797D01*
X113130500Y-30085009D01*
X113130499Y-29479984D01*
X122124500Y-29479984D01*
X122124500Y-31480015D01*
X122135000Y-31582795D01*
X122135001Y-31582796D01*
X122190186Y-31749335D01*
X122190187Y-31749337D01*
X122282286Y-31898651D01*
X122282289Y-31898655D01*
X122406344Y-32022710D01*
X122406348Y-32022713D01*
X122555662Y-32114812D01*
X122555664Y-32114813D01*
X122555666Y-32114814D01*
X122722203Y-32169999D01*
X122824992Y-32180500D01*
X122824997Y-32180500D01*
X124825003Y-32180500D01*
X124825008Y-32180500D01*
X124927797Y-32169999D01*
X125094334Y-32114814D01*
X125243655Y-32022711D01*
X125367711Y-31898655D01*
X125459814Y-31749334D01*
X125514999Y-31582797D01*
X125525500Y-31480008D01*
X125525500Y-29479992D01*
X125525499Y-29479984D01*
X136094500Y-29479984D01*
X136094500Y-31480015D01*
X136105000Y-31582795D01*
X136105001Y-31582796D01*
X136160186Y-31749335D01*
X136160187Y-31749337D01*
X136252286Y-31898651D01*
X136252289Y-31898655D01*
X136376344Y-32022710D01*
X136376348Y-32022713D01*
X136525662Y-32114812D01*
X136525664Y-32114813D01*
X136525666Y-32114814D01*
X136692203Y-32169999D01*
X136794992Y-32180500D01*
X136794997Y-32180500D01*
X138795003Y-32180500D01*
X138795008Y-32180500D01*
X138897797Y-32169999D01*
X139064334Y-32114814D01*
X139213655Y-32022711D01*
X139337711Y-31898655D01*
X139429814Y-31749334D01*
X139484999Y-31582797D01*
X139495500Y-31480008D01*
X139495500Y-29479992D01*
X139484999Y-29377203D01*
X139429814Y-29210666D01*
X139337711Y-29061345D01*
X139213655Y-28937289D01*
X139213651Y-28937286D01*
X139064337Y-28845187D01*
X139064335Y-28845186D01*
X138981065Y-28817593D01*
X138897797Y-28790001D01*
X138897795Y-28790000D01*
X138795015Y-28779500D01*
X138795008Y-28779500D01*
X136794992Y-28779500D01*
X136794984Y-28779500D01*
X136692204Y-28790000D01*
X136692203Y-28790001D01*
X136525664Y-28845186D01*
X136525662Y-28845187D01*
X136376348Y-28937286D01*
X136376344Y-28937289D01*
X136252289Y-29061344D01*
X136252286Y-29061348D01*
X136160187Y-29210662D01*
X136160186Y-29210664D01*
X136105001Y-29377203D01*
X136105000Y-29377204D01*
X136094500Y-29479984D01*
X125525499Y-29479984D01*
X125514999Y-29377203D01*
X125459814Y-29210666D01*
X125367711Y-29061345D01*
X125243655Y-28937289D01*
X125243651Y-28937286D01*
X125094337Y-28845187D01*
X125094335Y-28845186D01*
X125011065Y-28817593D01*
X124927797Y-28790001D01*
X124927795Y-28790000D01*
X124825015Y-28779500D01*
X124825008Y-28779500D01*
X122824992Y-28779500D01*
X122824984Y-28779500D01*
X122722204Y-28790000D01*
X122722203Y-28790001D01*
X122555664Y-28845186D01*
X122555662Y-28845187D01*
X122406348Y-28937286D01*
X122406344Y-28937289D01*
X122282289Y-29061344D01*
X122282286Y-29061348D01*
X122190187Y-29210662D01*
X122190186Y-29210664D01*
X122135001Y-29377203D01*
X122135000Y-29377204D01*
X122124500Y-29479984D01*
X113130499Y-29479984D01*
X113130499Y-29061348D01*
X113130499Y-28294998D01*
X113130498Y-28294981D01*
X113119999Y-28192203D01*
X113119998Y-28192200D01*
X113103822Y-28143384D01*
X113064814Y-28025666D01*
X112972712Y-27876344D01*
X112848656Y-27752288D01*
X112699334Y-27660186D01*
X112532797Y-27605001D01*
X112532795Y-27605000D01*
X112430010Y-27594500D01*
X111089998Y-27594500D01*
X111089981Y-27594501D01*
X110987203Y-27605000D01*
X110987200Y-27605001D01*
X110820668Y-27660185D01*
X110820663Y-27660187D01*
X110671342Y-27752289D01*
X110547289Y-27876342D01*
X110455187Y-28025663D01*
X110455185Y-28025668D01*
X110437643Y-28078608D01*
X110400001Y-28192203D01*
X110400001Y-28192204D01*
X110400000Y-28192204D01*
X110389500Y-28294983D01*
X51333975Y-28294983D01*
X51369572Y-28085470D01*
X51372666Y-28071918D01*
X51385991Y-28025668D01*
X51455785Y-27783407D01*
X51460377Y-27770286D01*
X51467832Y-27752288D01*
X51575276Y-27492895D01*
X51581296Y-27480395D01*
X51726536Y-27217601D01*
X51733931Y-27205833D01*
X51907675Y-26960963D01*
X51916330Y-26950109D01*
X52116409Y-26726221D01*
X52126221Y-26716409D01*
X52350109Y-26516330D01*
X52360963Y-26507675D01*
X52605838Y-26333927D01*
X52617601Y-26326536D01*
X52880395Y-26181296D01*
X52892895Y-26175276D01*
X53170290Y-26060375D01*
X53183407Y-26055785D01*
X53471924Y-25972664D01*
X53485470Y-25969572D01*
X53781478Y-25919279D01*
X53795273Y-25917725D01*
X54064179Y-25902623D01*
X54098529Y-25900695D01*
X54105481Y-25900500D01*
X54167892Y-25900500D01*
X149032108Y-25900500D01*
X149094519Y-25900500D01*
X149101471Y-25900695D01*
G37*
%TD.AperFunction*%
%TD*%
%TA.AperFunction,Conductor*%
%TO.N,VCC*%
G36*
X149549039Y-57550685D02*
G01*
X149594794Y-57603489D01*
X149606000Y-57655000D01*
X149606000Y-63757000D01*
X149586315Y-63824039D01*
X149533511Y-63869794D01*
X149482000Y-63881000D01*
X142618000Y-63881000D01*
X142550961Y-63861315D01*
X142505206Y-63808511D01*
X142494000Y-63757000D01*
X142494000Y-57655000D01*
X142513685Y-57587961D01*
X142566489Y-57542206D01*
X142618000Y-57531000D01*
X149482000Y-57531000D01*
X149549039Y-57550685D01*
G37*
%TD.AperFunction*%
%TD*%
%TA.AperFunction,Conductor*%
%TO.N,Vd*%
G36*
X134944039Y-57423685D02*
G01*
X134989794Y-57476489D01*
X135001000Y-57528000D01*
X135001000Y-63630000D01*
X134981315Y-63697039D01*
X134928511Y-63742794D01*
X134877000Y-63754000D01*
X128013000Y-63754000D01*
X127945961Y-63734315D01*
X127900206Y-63681511D01*
X127889000Y-63630000D01*
X127889000Y-57528000D01*
X127908685Y-57460961D01*
X127961489Y-57415206D01*
X128013000Y-57404000D01*
X134877000Y-57404000D01*
X134944039Y-57423685D01*
G37*
%TD.AperFunction*%
%TD*%
M02*
