%TF.GenerationSoftware,KiCad,Pcbnew,9.0.3*%
%TF.CreationDate,2025-07-11T19:43:01-04:00*%
%TF.ProjectId,GaN Drain Driver,47614e20-4472-4616-996e-204472697665,v3.0*%
%TF.SameCoordinates,Original*%
%TF.FileFunction,Copper,L1,Top*%
%TF.FilePolarity,Positive*%
%FSLAX46Y46*%
G04 Gerber Fmt 4.6, Leading zero omitted, Abs format (unit mm)*
G04 Created by KiCad (PCBNEW 9.0.3) date 2025-07-11 19:43:01*
%MOMM*%
%LPD*%
G01*
G04 APERTURE LIST*
G04 Aperture macros list*
%AMRoundRect*
0 Rectangle with rounded corners*
0 $1 Rounding radius*
0 $2 $3 $4 $5 $6 $7 $8 $9 X,Y pos of 4 corners*
0 Add a 4 corners polygon primitive as box body*
4,1,4,$2,$3,$4,$5,$6,$7,$8,$9,$2,$3,0*
0 Add four circle primitives for the rounded corners*
1,1,$1+$1,$2,$3*
1,1,$1+$1,$4,$5*
1,1,$1+$1,$6,$7*
1,1,$1+$1,$8,$9*
0 Add four rect primitives between the rounded corners*
20,1,$1+$1,$2,$3,$4,$5,0*
20,1,$1+$1,$4,$5,$6,$7,0*
20,1,$1+$1,$6,$7,$8,$9,0*
20,1,$1+$1,$8,$9,$2,$3,0*%
G04 Aperture macros list end*
%TA.AperFunction,SMDPad,CuDef*%
%ADD10RoundRect,0.250000X0.262500X0.450000X-0.262500X0.450000X-0.262500X-0.450000X0.262500X-0.450000X0*%
%TD*%
%TA.AperFunction,SMDPad,CuDef*%
%ADD11RoundRect,0.250000X0.250000X0.475000X-0.250000X0.475000X-0.250000X-0.475000X0.250000X-0.475000X0*%
%TD*%
%TA.AperFunction,SMDPad,CuDef*%
%ADD12C,1.000000*%
%TD*%
%TA.AperFunction,SMDPad,CuDef*%
%ADD13RoundRect,0.250000X-0.262500X-0.450000X0.262500X-0.450000X0.262500X0.450000X-0.262500X0.450000X0*%
%TD*%
%TA.AperFunction,SMDPad,CuDef*%
%ADD14RoundRect,0.250000X0.850000X0.350000X-0.850000X0.350000X-0.850000X-0.350000X0.850000X-0.350000X0*%
%TD*%
%TA.AperFunction,SMDPad,CuDef*%
%ADD15RoundRect,0.249997X2.950003X2.650003X-2.950003X2.650003X-2.950003X-2.650003X2.950003X-2.650003X0*%
%TD*%
%TA.AperFunction,ComponentPad*%
%ADD16RoundRect,0.250001X-0.949999X0.949999X-0.949999X-0.949999X0.949999X-0.949999X0.949999X0.949999X0*%
%TD*%
%TA.AperFunction,ComponentPad*%
%ADD17C,2.400000*%
%TD*%
%TA.AperFunction,SMDPad,CuDef*%
%ADD18RoundRect,0.250000X-0.250000X-0.475000X0.250000X-0.475000X0.250000X0.475000X-0.250000X0.475000X0*%
%TD*%
%TA.AperFunction,ComponentPad*%
%ADD19RoundRect,0.250000X-0.620000X-0.845000X0.620000X-0.845000X0.620000X0.845000X-0.620000X0.845000X0*%
%TD*%
%TA.AperFunction,ComponentPad*%
%ADD20O,1.740000X2.190000*%
%TD*%
%TA.AperFunction,ComponentPad*%
%ADD21C,5.562600*%
%TD*%
%TA.AperFunction,SMDPad,CuDef*%
%ADD22RoundRect,0.250000X-0.475000X0.250000X-0.475000X-0.250000X0.475000X-0.250000X0.475000X0.250000X0*%
%TD*%
%TA.AperFunction,SMDPad,CuDef*%
%ADD23RoundRect,0.150000X-0.825000X-0.150000X0.825000X-0.150000X0.825000X0.150000X-0.825000X0.150000X0*%
%TD*%
%TA.AperFunction,ComponentPad*%
%ADD24RoundRect,0.250000X0.620000X0.845000X-0.620000X0.845000X-0.620000X-0.845000X0.620000X-0.845000X0*%
%TD*%
%TA.AperFunction,SMDPad,CuDef*%
%ADD25RoundRect,0.250000X0.475000X-0.250000X0.475000X0.250000X-0.475000X0.250000X-0.475000X-0.250000X0*%
%TD*%
%TA.AperFunction,SMDPad,CuDef*%
%ADD26RoundRect,0.225000X0.225000X0.375000X-0.225000X0.375000X-0.225000X-0.375000X0.225000X-0.375000X0*%
%TD*%
%TA.AperFunction,SMDPad,CuDef*%
%ADD27RoundRect,0.250000X-0.850000X-0.350000X0.850000X-0.350000X0.850000X0.350000X-0.850000X0.350000X0*%
%TD*%
%TA.AperFunction,SMDPad,CuDef*%
%ADD28RoundRect,0.249997X-2.950003X-2.650003X2.950003X-2.650003X2.950003X2.650003X-2.950003X2.650003X0*%
%TD*%
%TA.AperFunction,SMDPad,CuDef*%
%ADD29RoundRect,0.250000X0.385000X1.350000X-0.385000X1.350000X-0.385000X-1.350000X0.385000X-1.350000X0*%
%TD*%
%TA.AperFunction,SMDPad,CuDef*%
%ADD30RoundRect,0.250000X0.425000X1.600000X-0.425000X1.600000X-0.425000X-1.600000X0.425000X-1.600000X0*%
%TD*%
%TA.AperFunction,ComponentPad*%
%ADD31C,1.440000*%
%TD*%
%TA.AperFunction,SMDPad,CuDef*%
%ADD32R,0.457200X1.600200*%
%TD*%
%TA.AperFunction,ViaPad*%
%ADD33C,0.600000*%
%TD*%
%TA.AperFunction,Conductor*%
%ADD34C,0.635000*%
%TD*%
%TA.AperFunction,Conductor*%
%ADD35C,0.254000*%
%TD*%
%TA.AperFunction,Conductor*%
%ADD36C,1.270000*%
%TD*%
G04 APERTURE END LIST*
D10*
%TO.P,R12,1*%
%TO.N,Net-(U7A--)*%
X101242500Y-64770000D03*
%TO.P,R12,2*%
%TO.N,Vg*%
X99417500Y-64770000D03*
%TD*%
D11*
%TO.P,C24,1*%
%TO.N,-5V*%
X101280000Y-67310000D03*
%TO.P,C24,2*%
%TO.N,GND*%
X99380000Y-67310000D03*
%TD*%
D12*
%TO.P,TP2,1,1*%
%TO.N,~{SD}*%
X80010000Y-48133000D03*
%TD*%
D13*
%TO.P,R7,1*%
%TO.N,+5V*%
X77827500Y-44450000D03*
%TO.P,R7,2*%
%TO.N,~{SD}*%
X79652500Y-44450000D03*
%TD*%
D14*
%TO.P,U3,1,IN*%
%TO.N,VCC*%
X68740000Y-67580000D03*
D15*
%TO.P,U3,2,GND*%
%TO.N,GND*%
X62440000Y-65300000D03*
D14*
%TO.P,U3,3,OUT*%
%TO.N,+15V*%
X68740000Y-63020000D03*
%TD*%
D11*
%TO.P,C1,1*%
%TO.N,+15V*%
X81595000Y-35814000D03*
%TO.P,C1,2*%
%TO.N,GND*%
X79695000Y-35814000D03*
%TD*%
D16*
%TO.P,C11,1*%
%TO.N,VCC*%
X123825000Y-44450000D03*
D17*
%TO.P,C11,2*%
%TO.N,GND*%
X123825000Y-49450000D03*
%TD*%
D11*
%TO.P,C16,1*%
%TO.N,-5V*%
X100645000Y-43815000D03*
%TO.P,C16,2*%
%TO.N,GND*%
X98745000Y-43815000D03*
%TD*%
D18*
%TO.P,C4,1*%
%TO.N,Net-(D1-K)*%
X90490000Y-38735000D03*
%TO.P,C4,2*%
%TO.N,Vd*%
X92390000Y-38735000D03*
%TD*%
D13*
%TO.P,R11,1*%
%TO.N,Net-(R10-Pad2)*%
X112117500Y-69850000D03*
%TO.P,R11,2*%
%TO.N,-4.096V REF*%
X113942500Y-69850000D03*
%TD*%
D18*
%TO.P,C2,1*%
%TO.N,Net-(U2B-+)*%
X111445000Y-46355000D03*
%TO.P,C2,2*%
%TO.N,GND*%
X113345000Y-46355000D03*
%TD*%
D19*
%TO.P,J2,1,Pin_1*%
%TO.N,Vd*%
X137795000Y-72370000D03*
D20*
%TO.P,J2,2,Pin_2*%
%TO.N,GND*%
X140335000Y-72370000D03*
%TD*%
D21*
%TO.P,H4,1,1*%
%TO.N,GND*%
X54102000Y-72898000D03*
%TD*%
D22*
%TO.P,C7,1*%
%TO.N,+15V*%
X71700000Y-62550000D03*
%TO.P,C7,2*%
%TO.N,GND*%
X71700000Y-64450000D03*
%TD*%
D16*
%TO.P,C12,1*%
%TO.N,VCC*%
X123825000Y-30480000D03*
D17*
%TO.P,C12,2*%
%TO.N,GND*%
X123825000Y-35480000D03*
%TD*%
D11*
%TO.P,C21,1*%
%TO.N,-4.096V REF*%
X109535000Y-69850000D03*
%TO.P,C21,2*%
%TO.N,GND*%
X107635000Y-69850000D03*
%TD*%
D21*
%TO.P,H3,1,1*%
%TO.N,GND*%
X149098000Y-72898000D03*
%TD*%
D23*
%TO.P,U6,1,NC*%
%TO.N,unconnected-(U6-NC-Pad1)*%
X84139000Y-62865000D03*
%TO.P,U6,2,IN*%
%TO.N,+15V*%
X84139000Y-64135000D03*
%TO.P,U6,3,NR*%
%TO.N,unconnected-(U6-NR-Pad3)*%
X84139000Y-65405000D03*
%TO.P,U6,4,GND*%
%TO.N,GND*%
X84139000Y-66675000D03*
%TO.P,U6,5,TRIM*%
%TO.N,unconnected-(U6-TRIM-Pad5)*%
X89089000Y-66675000D03*
%TO.P,U6,6,OUT*%
%TO.N,+4.096V REF*%
X89089000Y-65405000D03*
%TO.P,U6,7,NC*%
%TO.N,unconnected-(U6-NC-Pad7)*%
X89089000Y-64135000D03*
%TO.P,U6,8,NC*%
%TO.N,unconnected-(U6-NC-Pad8)*%
X89089000Y-62865000D03*
%TD*%
D18*
%TO.P,C23,1*%
%TO.N,+5V*%
X112080000Y-62230000D03*
%TO.P,C23,2*%
%TO.N,GND*%
X113980000Y-62230000D03*
%TD*%
D24*
%TO.P,J3,1,Pin_1*%
%TO.N,VCC*%
X111760000Y-29190000D03*
D20*
%TO.P,J3,2,Pin_2*%
%TO.N,GND*%
X109220000Y-29190000D03*
%TD*%
D10*
%TO.P,R2,1*%
%TO.N,+5V*%
X113307500Y-43815000D03*
%TO.P,R2,2*%
%TO.N,Net-(U2B-+)*%
X111482500Y-43815000D03*
%TD*%
D23*
%TO.P,U1,1,VCC*%
%TO.N,+15V*%
X82488000Y-38735000D03*
%TO.P,U1,2,IN*%
%TO.N,Net-(J1-In)*%
X82488000Y-40005000D03*
%TO.P,U1,3,~{SD}*%
%TO.N,~{SD}*%
X82488000Y-41275000D03*
%TO.P,U1,4,COM*%
%TO.N,GND*%
X82488000Y-42545000D03*
%TO.P,U1,5,LO*%
%TO.N,Net-(U1-LO)*%
X87438000Y-42545000D03*
%TO.P,U1,6,VS*%
%TO.N,Vd*%
X87438000Y-41275000D03*
%TO.P,U1,7,HO*%
%TO.N,Net-(U1-HO)*%
X87438000Y-40005000D03*
%TO.P,U1,8,VB*%
%TO.N,Net-(D1-K)*%
X87438000Y-38735000D03*
%TD*%
D12*
%TO.P,TP7,1,1*%
%TO.N,Net-(U7A-+)*%
X103225600Y-71170800D03*
%TD*%
D10*
%TO.P,R9,1*%
%TO.N,+4.096V REF*%
X113942500Y-67310000D03*
%TO.P,R9,2*%
%TO.N,Net-(U7B--)*%
X112117500Y-67310000D03*
%TD*%
D25*
%TO.P,C10,1*%
%TO.N,+15V*%
X71700000Y-57250000D03*
%TO.P,C10,2*%
%TO.N,GND*%
X71700000Y-55350000D03*
%TD*%
D12*
%TO.P,TP6,1,1*%
%TO.N,+4.096V REF*%
X88265000Y-70866000D03*
%TD*%
D13*
%TO.P,R3,1*%
%TO.N,Net-(U2B--)*%
X111482500Y-41275000D03*
%TO.P,R3,2*%
%TO.N,+5V*%
X113307500Y-41275000D03*
%TD*%
D19*
%TO.P,J4,1,Pin_1*%
%TO.N,Vg*%
X127000000Y-72410000D03*
D20*
%TO.P,J4,2,Pin_2*%
%TO.N,GND*%
X129540000Y-72410000D03*
%TD*%
D26*
%TO.P,D1,1,K*%
%TO.N,Net-(D1-K)*%
X86740000Y-35814000D03*
%TO.P,D1,2,A*%
%TO.N,+15V*%
X83440000Y-35814000D03*
%TD*%
D23*
%TO.P,U7,1*%
%TO.N,Net-(U7A--)*%
X104205000Y-62865000D03*
%TO.P,U7,2,-*%
X104205000Y-64135000D03*
%TO.P,U7,3,+*%
%TO.N,Net-(U7A-+)*%
X104205000Y-65405000D03*
%TO.P,U7,4,V-*%
%TO.N,-5V*%
X104205000Y-66675000D03*
%TO.P,U7,5,+*%
%TO.N,GND*%
X109155000Y-66675000D03*
%TO.P,U7,6,-*%
%TO.N,Net-(U7B--)*%
X109155000Y-65405000D03*
%TO.P,U7,7*%
%TO.N,Net-(R10-Pad2)*%
X109155000Y-64135000D03*
%TO.P,U7,8,V+*%
%TO.N,+5V*%
X109155000Y-62865000D03*
%TD*%
D16*
%TO.P,C9,1*%
%TO.N,VCC*%
X137795000Y-44450000D03*
D17*
%TO.P,C9,2*%
%TO.N,GND*%
X137795000Y-49450000D03*
%TD*%
D18*
%TO.P,C20,1*%
%TO.N,+4.096V REF*%
X91887000Y-67564000D03*
%TO.P,C20,2*%
%TO.N,GND*%
X93787000Y-67564000D03*
%TD*%
D22*
%TO.P,C13,1*%
%TO.N,+5V*%
X71700000Y-51750000D03*
%TO.P,C13,2*%
%TO.N,GND*%
X71700000Y-53650000D03*
%TD*%
D12*
%TO.P,TP8,1,1*%
%TO.N,-4.096V REF*%
X118745000Y-69850000D03*
%TD*%
D18*
%TO.P,C8,1*%
%TO.N,GND*%
X66995000Y-45720000D03*
%TO.P,C8,2*%
%TO.N,-5V*%
X68895000Y-45720000D03*
%TD*%
D13*
%TO.P,R5,1*%
%TO.N,Net-(U1-HO)*%
X90527500Y-41275000D03*
%TO.P,R5,2*%
%TO.N,Net-(Q1-G)*%
X92352500Y-41275000D03*
%TD*%
%TO.P,R6,1*%
%TO.N,Net-(U1-LO)*%
X90527500Y-43815000D03*
%TO.P,R6,2*%
%TO.N,Net-(Q2-G)*%
X92352500Y-43815000D03*
%TD*%
D11*
%TO.P,C5,1*%
%TO.N,+5V*%
X63688000Y-45720000D03*
%TO.P,C5,2*%
%TO.N,GND*%
X61788000Y-45720000D03*
%TD*%
D18*
%TO.P,C17,1*%
%TO.N,+4.096V REF*%
X91887000Y-65278000D03*
%TO.P,C17,2*%
%TO.N,GND*%
X93787000Y-65278000D03*
%TD*%
D10*
%TO.P,R4,1*%
%TO.N,GND*%
X113307500Y-38735000D03*
%TO.P,R4,2*%
%TO.N,Net-(U2B--)*%
X111482500Y-38735000D03*
%TD*%
D11*
%TO.P,C18,1*%
%TO.N,Net-(U7A-+)*%
X101280000Y-69850000D03*
%TO.P,C18,2*%
%TO.N,GND*%
X99380000Y-69850000D03*
%TD*%
D18*
%TO.P,C15,1*%
%TO.N,+5V*%
X111445000Y-36195000D03*
%TO.P,C15,2*%
%TO.N,GND*%
X113345000Y-36195000D03*
%TD*%
D27*
%TO.P,Q1,1,G*%
%TO.N,Net-(Q1-G)*%
X139740000Y-58420000D03*
D28*
%TO.P,Q1,2,D*%
%TO.N,VCC*%
X146040000Y-60700000D03*
D27*
%TO.P,Q1,3,S*%
%TO.N,Vd*%
X139740000Y-62980000D03*
%TD*%
D11*
%TO.P,C22,1*%
%TO.N,Vg*%
X101280000Y-62230000D03*
%TO.P,C22,2*%
%TO.N,GND*%
X99380000Y-62230000D03*
%TD*%
D29*
%TO.P,J1,1,In*%
%TO.N,Net-(J1-In)*%
X84012000Y-27508200D03*
D30*
%TO.P,J1,2,Ext*%
%TO.N,GND*%
X81187000Y-27758200D03*
X86837000Y-27758200D03*
%TD*%
D27*
%TO.P,Q2,1,G*%
%TO.N,Net-(Q2-G)*%
X125095000Y-58300000D03*
D28*
%TO.P,Q2,2,D*%
%TO.N,Vd*%
X131395000Y-60580000D03*
D27*
%TO.P,Q2,3,S*%
%TO.N,GND*%
X125095000Y-62860000D03*
%TD*%
D16*
%TO.P,C14,1*%
%TO.N,VCC*%
X137795000Y-30480000D03*
D17*
%TO.P,C14,2*%
%TO.N,GND*%
X137795000Y-35480000D03*
%TD*%
D21*
%TO.P,H1,1,1*%
%TO.N,GND*%
X149098000Y-28702000D03*
%TD*%
D12*
%TO.P,TP1,1,1*%
%TO.N,Net-(U2A-+)*%
X88900000Y-53975000D03*
%TD*%
%TO.P,TP9,1,1*%
%TO.N,Vg*%
X122123200Y-73507600D03*
%TD*%
D18*
%TO.P,C3,1*%
%TO.N,GND*%
X98745000Y-41275000D03*
%TO.P,C3,2*%
%TO.N,Net-(U2A-+)*%
X100645000Y-41275000D03*
%TD*%
D31*
%TO.P,RV2,1,1*%
%TO.N,+4.096V REF*%
X111125000Y-53975000D03*
%TO.P,RV2,2,2*%
%TO.N,Net-(U7A-+)*%
X108585000Y-53975000D03*
%TO.P,RV2,3,3*%
%TO.N,-4.096V REF*%
X106045000Y-53975000D03*
%TD*%
D18*
%TO.P,C19,1*%
%TO.N,GND*%
X79700000Y-64075000D03*
%TO.P,C19,2*%
%TO.N,+15V*%
X81600000Y-64075000D03*
%TD*%
D10*
%TO.P,R10,1*%
%TO.N,Net-(U7B--)*%
X113942500Y-64770000D03*
%TO.P,R10,2*%
%TO.N,Net-(R10-Pad2)*%
X112117500Y-64770000D03*
%TD*%
D12*
%TO.P,TP5,1,1*%
%TO.N,+5V*%
X75700000Y-51800000D03*
%TD*%
D10*
%TO.P,R8,1*%
%TO.N,COMP_OUT*%
X79612500Y-41900000D03*
%TO.P,R8,2*%
%TO.N,~{SD}*%
X77787500Y-41900000D03*
%TD*%
D21*
%TO.P,H2,1,1*%
%TO.N,GND*%
X54102000Y-28702000D03*
%TD*%
D10*
%TO.P,R1,1*%
%TO.N,Net-(J1-In)*%
X79652500Y-39370000D03*
%TO.P,R1,2*%
%TO.N,GND*%
X77827500Y-39370000D03*
%TD*%
D23*
%TO.P,U2,1*%
%TO.N,COMP_OUT*%
X103570000Y-38735000D03*
%TO.P,U2,2,-*%
%TO.N,Vg*%
X103570000Y-40005000D03*
%TO.P,U2,3,+*%
%TO.N,Net-(U2A-+)*%
X103570000Y-41275000D03*
%TO.P,U2,4,V-*%
%TO.N,-5V*%
X103570000Y-42545000D03*
%TO.P,U2,5,+*%
%TO.N,Net-(U2B-+)*%
X108520000Y-42545000D03*
%TO.P,U2,6,-*%
%TO.N,Net-(U2B--)*%
X108520000Y-41275000D03*
%TO.P,U2,7*%
%TO.N,COMP_OUT*%
X108520000Y-40005000D03*
%TO.P,U2,8,V+*%
%TO.N,+5V*%
X108520000Y-38735000D03*
%TD*%
D32*
%TO.P,U4,1,-Vin*%
%TO.N,GND*%
X60960000Y-42519600D03*
%TO.P,U4,2,+Vin*%
%TO.N,+5V*%
X63500000Y-42519600D03*
%TO.P,U4,4,-Vout*%
%TO.N,-5V*%
X68580000Y-42519600D03*
%TO.P,U4,5,+Vout*%
%TO.N,GND*%
X68580000Y-32410400D03*
%TO.P,U4,8*%
%TO.N,N/C*%
X60960000Y-32410400D03*
%TD*%
D12*
%TO.P,TP4,1,1*%
%TO.N,-5V*%
X71755000Y-45720000D03*
%TD*%
D25*
%TO.P,C6,1*%
%TO.N,VCC*%
X71700000Y-68050000D03*
%TO.P,C6,2*%
%TO.N,GND*%
X71700000Y-66150000D03*
%TD*%
D31*
%TO.P,RV1,1,1*%
%TO.N,+4.096V REF*%
X99695000Y-53975000D03*
%TO.P,RV1,2,2*%
%TO.N,Net-(U2A-+)*%
X97155000Y-53975000D03*
%TO.P,RV1,3,3*%
%TO.N,-4.096V REF*%
X94615000Y-53975000D03*
%TD*%
D12*
%TO.P,TP3,1,1*%
%TO.N,+15V*%
X75600000Y-62600000D03*
%TD*%
D14*
%TO.P,U5,1,IN*%
%TO.N,+15V*%
X68700000Y-56807500D03*
D15*
%TO.P,U5,2,GND*%
%TO.N,GND*%
X62400000Y-54527500D03*
D14*
%TO.P,U5,3,OUT*%
%TO.N,+5V*%
X68700000Y-52247500D03*
%TD*%
D33*
%TO.N,GND*%
X65024000Y-64033400D03*
X62484000Y-66573400D03*
X63754000Y-65303400D03*
X59944000Y-65303400D03*
X61214000Y-65303400D03*
X61214000Y-66573400D03*
X65024000Y-66573400D03*
X65024000Y-65303400D03*
X62484000Y-65303400D03*
X63754000Y-64033400D03*
X62484000Y-64033400D03*
X63754000Y-62763400D03*
X59944000Y-64033400D03*
X62484000Y-62763400D03*
X65024000Y-62763400D03*
X61214000Y-64033400D03*
X61214000Y-62763400D03*
X59944000Y-62763400D03*
X62484000Y-67843400D03*
X63754000Y-67843400D03*
X63754000Y-66573400D03*
X59944000Y-67843400D03*
X61214000Y-67843400D03*
X65024000Y-67843400D03*
X59944000Y-66573400D03*
X62433200Y-57073800D03*
X61163200Y-57073800D03*
X64973200Y-57073800D03*
X63703200Y-57073800D03*
X59893200Y-57073800D03*
X63703200Y-55803800D03*
X59893200Y-55803800D03*
X61163200Y-55803800D03*
X64973200Y-55803800D03*
X62433200Y-55803800D03*
X64973200Y-54533800D03*
X63703200Y-54533800D03*
X62433200Y-54533800D03*
X59893200Y-54533800D03*
X61163200Y-54533800D03*
X63703200Y-53263800D03*
X62433200Y-53263800D03*
X64973200Y-53263800D03*
X61163200Y-53263800D03*
X59893200Y-53263800D03*
X64973200Y-51993800D03*
X63703200Y-51993800D03*
X62433200Y-51993800D03*
X61163200Y-51993800D03*
X59893200Y-51993800D03*
%TO.N,VCC*%
X148590000Y-62865000D03*
X147320000Y-58420000D03*
X144145000Y-58420000D03*
X144145000Y-60960000D03*
X71000000Y-70000000D03*
X143510000Y-59690000D03*
X147955000Y-61595000D03*
X145415000Y-59055000D03*
X145415000Y-62230000D03*
X144145000Y-60325000D03*
X146050000Y-61595000D03*
X146050000Y-60325000D03*
X146050000Y-62865000D03*
X147320000Y-59055000D03*
X148590000Y-59690000D03*
X145415000Y-60325000D03*
X70000000Y-70000000D03*
X147320000Y-60960000D03*
X146685000Y-62865000D03*
X143510000Y-60325000D03*
X146685000Y-61595000D03*
X146685000Y-58420000D03*
X147955000Y-60325000D03*
X72000000Y-70000000D03*
X76000000Y-70000000D03*
X147955000Y-60960000D03*
X144780000Y-59055000D03*
X146050000Y-62230000D03*
X144780000Y-58420000D03*
X144145000Y-62865000D03*
X148590000Y-60325000D03*
X148590000Y-60960000D03*
X143510000Y-61595000D03*
X144145000Y-59055000D03*
X145415000Y-62865000D03*
X68400000Y-70100000D03*
X146685000Y-60325000D03*
X146685000Y-60960000D03*
X147320000Y-61595000D03*
X147320000Y-60325000D03*
X145415000Y-61595000D03*
X145415000Y-60960000D03*
X144780000Y-60960000D03*
X148590000Y-59055000D03*
X143510000Y-62230000D03*
X143510000Y-62865000D03*
X143510000Y-58420000D03*
X144145000Y-59690000D03*
X74000000Y-70000000D03*
X147955000Y-59055000D03*
X147320000Y-59690000D03*
X147955000Y-58420000D03*
X145415000Y-58420000D03*
X144145000Y-61595000D03*
X146050000Y-59055000D03*
X148590000Y-61595000D03*
X147955000Y-62865000D03*
X143510000Y-60960000D03*
X146685000Y-59055000D03*
X75000000Y-70000000D03*
X144780000Y-62865000D03*
X73000000Y-70000000D03*
X146050000Y-58420000D03*
X147320000Y-62230000D03*
X146685000Y-62230000D03*
X146685000Y-59690000D03*
X144145000Y-62230000D03*
X143510000Y-59055000D03*
X144780000Y-60325000D03*
X144780000Y-59690000D03*
X148590000Y-58420000D03*
X148590000Y-62230000D03*
X146050000Y-60960000D03*
X145415000Y-59690000D03*
X147320000Y-62865000D03*
X147955000Y-59690000D03*
X147955000Y-62230000D03*
X146050000Y-59690000D03*
X144780000Y-62230000D03*
X144780000Y-61595000D03*
%TO.N,GND*%
X60960000Y-40640000D03*
X89535000Y-49530000D03*
X106045000Y-71755000D03*
X88138000Y-69088000D03*
X147955000Y-67310000D03*
X94488000Y-73152000D03*
X65405000Y-45720000D03*
X104140000Y-59690000D03*
X70485000Y-43815000D03*
X92710000Y-29210000D03*
X87757000Y-73152000D03*
X136525000Y-60325000D03*
X139700000Y-60960000D03*
X105410000Y-35560000D03*
X109855000Y-55880000D03*
X126365000Y-60960000D03*
X90932000Y-51943000D03*
X102870000Y-29210000D03*
X76600000Y-38100000D03*
X95504000Y-63500000D03*
X116840000Y-44450000D03*
X126365000Y-64770000D03*
X95250000Y-36830000D03*
X125095000Y-60960000D03*
X110617000Y-67437000D03*
X84500000Y-37500000D03*
X135255000Y-65405000D03*
X98425000Y-69850000D03*
X99695000Y-71755000D03*
X116840000Y-48895000D03*
X69850000Y-32385000D03*
X85471000Y-42200000D03*
X106426000Y-69850000D03*
X122555000Y-61595000D03*
X59055000Y-45720000D03*
X114935000Y-37465000D03*
X138430000Y-66675000D03*
X97155000Y-42545000D03*
X118745000Y-59055000D03*
X68580000Y-37465000D03*
X91567000Y-70993000D03*
X114300000Y-46355000D03*
X123825000Y-60960000D03*
X97155000Y-40640000D03*
X114935000Y-33655000D03*
X86233000Y-58928000D03*
X102870000Y-46355000D03*
X122555000Y-64135000D03*
X97155000Y-59055000D03*
X122555000Y-62865000D03*
X59055000Y-41910000D03*
X108585000Y-43815000D03*
X122555000Y-69215000D03*
X77470000Y-29845000D03*
X60960000Y-37465000D03*
X98425000Y-67310000D03*
X103022400Y-54051200D03*
X125095000Y-64770000D03*
X143510000Y-67310000D03*
X95504000Y-69088000D03*
X115570000Y-62230000D03*
X115570000Y-71755000D03*
X64770000Y-37465000D03*
X54610000Y-46990000D03*
X97790000Y-32385000D03*
X65405000Y-29210000D03*
X107950000Y-46355000D03*
X109220000Y-59055000D03*
X123825000Y-64770000D03*
X68580000Y-29210000D03*
X93853000Y-49149000D03*
X78275000Y-64125000D03*
X81026000Y-42545000D03*
X85090000Y-35814000D03*
X116205000Y-65405000D03*
X117475000Y-40005000D03*
X83820000Y-70358000D03*
X86360000Y-33020000D03*
%TO.N,+5V*%
X111379000Y-34798000D03*
X114681000Y-41275000D03*
X64517000Y-47117000D03*
X112141000Y-60833000D03*
X76581000Y-44450000D03*
%TO.N,-5V*%
X69088000Y-48133000D03*
X103100000Y-44900000D03*
X102463600Y-66675000D03*
%TO.N,Vd*%
X132080000Y-59055000D03*
X133350000Y-62865000D03*
X132715000Y-60960000D03*
X133985000Y-61595000D03*
X128905000Y-60325000D03*
X132080000Y-60960000D03*
X133985000Y-62865000D03*
X129540000Y-60325000D03*
X133985000Y-58420000D03*
X132715000Y-62230000D03*
X132080000Y-60325000D03*
X133350000Y-60325000D03*
X133985000Y-59055000D03*
X130810000Y-61595000D03*
X130810000Y-59055000D03*
X133985000Y-60325000D03*
X129540000Y-62865000D03*
X133985000Y-60960000D03*
X130175000Y-59055000D03*
X132715000Y-61595000D03*
X128905000Y-62230000D03*
X129540000Y-60960000D03*
X128905000Y-58420000D03*
X130810000Y-62865000D03*
X132080000Y-62865000D03*
X133350000Y-60960000D03*
X128905000Y-59055000D03*
X131445000Y-61595000D03*
X130175000Y-62230000D03*
X130810000Y-60325000D03*
X133350000Y-62230000D03*
X131445000Y-58420000D03*
X133350000Y-61595000D03*
X133985000Y-62230000D03*
X130810000Y-59690000D03*
X132080000Y-58420000D03*
X130175000Y-62865000D03*
X130810000Y-58420000D03*
X130175000Y-60325000D03*
X133350000Y-59690000D03*
X132715000Y-59690000D03*
X131445000Y-62865000D03*
X129540000Y-58420000D03*
X129540000Y-62230000D03*
X128905000Y-61595000D03*
X130175000Y-61595000D03*
X133350000Y-58420000D03*
X131445000Y-60325000D03*
X128905000Y-60960000D03*
X128905000Y-59690000D03*
X128905000Y-62865000D03*
X132715000Y-62865000D03*
X131445000Y-59055000D03*
X130175000Y-58420000D03*
X130810000Y-60960000D03*
X130175000Y-60960000D03*
X130810000Y-62230000D03*
X130175000Y-59690000D03*
X132715000Y-59055000D03*
X133985000Y-59690000D03*
X133350000Y-59055000D03*
X132080000Y-62230000D03*
X132715000Y-58420000D03*
X129540000Y-59690000D03*
X131445000Y-62230000D03*
X129540000Y-59055000D03*
X132715000Y-60325000D03*
X132080000Y-61595000D03*
X131445000Y-60960000D03*
X132080000Y-59690000D03*
X129540000Y-61595000D03*
X131445000Y-59690000D03*
%TO.N,Vg*%
X105283000Y-40259000D03*
X101219000Y-60325000D03*
%TO.N,+4.096V REF*%
X114935000Y-67310000D03*
%TO.N,-4.096V REF*%
X113665000Y-57150000D03*
%TO.N,COMP_OUT*%
X99695000Y-38735000D03*
X81915000Y-43815000D03*
%TO.N,Net-(U2A-+)*%
X106045000Y-43789600D03*
%TO.N,Net-(D1-K)*%
X90551000Y-39878000D03*
X87757000Y-35814000D03*
%TD*%
D34*
%TO.N,Net-(U7A-+)*%
X106680000Y-57785000D02*
X108585000Y-55880000D01*
X106680000Y-64008000D02*
X106680000Y-57785000D01*
X105537000Y-65151000D02*
X106680000Y-64008000D01*
X105537000Y-65405000D02*
X105537000Y-65151000D01*
X108585000Y-55880000D02*
X108585000Y-53975000D01*
X105994200Y-65862200D02*
X105537000Y-65405000D01*
X105994200Y-67741800D02*
X105994200Y-65862200D01*
X104902000Y-68834000D02*
X105994200Y-67741800D01*
X102296000Y-68834000D02*
X104902000Y-68834000D01*
X101280000Y-69850000D02*
X102296000Y-68834000D01*
D35*
%TO.N,~{SD}*%
X81060600Y-40700000D02*
X78600000Y-40700000D01*
X81635600Y-41275000D02*
X81060600Y-40700000D01*
X78600000Y-40700000D02*
X77787500Y-41512500D01*
X77787500Y-41512500D02*
X77787500Y-41900000D01*
X82488000Y-41275000D02*
X81635600Y-41275000D01*
%TO.N,Net-(J1-In)*%
X81686400Y-40005000D02*
X82488000Y-40005000D01*
X81051400Y-39370000D02*
X81686400Y-40005000D01*
X79652500Y-39370000D02*
X81051400Y-39370000D01*
D34*
%TO.N,Vd*%
X85500000Y-38198000D02*
X85500000Y-40371000D01*
X86298000Y-37400000D02*
X85500000Y-38198000D01*
X85500000Y-40371000D02*
X86404000Y-41275000D01*
X92390000Y-38190000D02*
X91600000Y-37400000D01*
X86404000Y-41275000D02*
X87438000Y-41275000D01*
X92390000Y-38735000D02*
X92390000Y-38190000D01*
X91600000Y-37400000D02*
X86298000Y-37400000D01*
%TO.N,+15V*%
X84201000Y-39243000D02*
X83693000Y-38735000D01*
X83693000Y-38735000D02*
X82488000Y-38735000D01*
X76225000Y-57275000D02*
X84201000Y-49299000D01*
X84201000Y-49299000D02*
X84201000Y-39243000D01*
X71725000Y-57275000D02*
X76225000Y-57275000D01*
X71700000Y-57250000D02*
X71725000Y-57275000D01*
D36*
%TO.N,VCC*%
X68400000Y-70100000D02*
X68400000Y-67920000D01*
X71700000Y-68050000D02*
X69210000Y-68050000D01*
X68400000Y-67920000D02*
X68740000Y-67580000D01*
X69210000Y-68050000D02*
X68740000Y-67580000D01*
D35*
%TO.N,GND*%
X99380000Y-67310000D02*
X98425000Y-67310000D01*
X82488000Y-42545000D02*
X81026000Y-42545000D01*
X99380000Y-69850000D02*
X98425000Y-69850000D01*
X109155000Y-66675000D02*
X109855000Y-66675000D01*
D34*
X109855000Y-66675000D02*
X110617000Y-67437000D01*
D35*
X107635000Y-69850000D02*
X106426000Y-69850000D01*
D36*
%TO.N,+15V*%
X71750000Y-62600000D02*
X71700000Y-62550000D01*
D34*
X81660000Y-64135000D02*
X81600000Y-64075000D01*
D36*
X68700000Y-62980000D02*
X68740000Y-63020000D01*
D34*
X81595000Y-37842000D02*
X82488000Y-38735000D01*
D36*
X71700000Y-57250000D02*
X69142500Y-57250000D01*
D34*
X81600000Y-64075000D02*
X81600000Y-63700000D01*
D36*
X71700000Y-62550000D02*
X69210000Y-62550000D01*
X68700000Y-56807500D02*
X68700000Y-62980000D01*
D34*
X80500000Y-62600000D02*
X75600000Y-62600000D01*
X84139000Y-64135000D02*
X81660000Y-64135000D01*
D36*
X69210000Y-62550000D02*
X68740000Y-63020000D01*
D34*
X81600000Y-63700000D02*
X80500000Y-62600000D01*
D36*
X71800000Y-57350000D02*
X71700000Y-57250000D01*
D34*
X81595000Y-35814000D02*
X81595000Y-37842000D01*
X83440000Y-35814000D02*
X81595000Y-35814000D01*
D36*
X69142500Y-57250000D02*
X68700000Y-56807500D01*
D34*
X75600000Y-62600000D02*
X71750000Y-62600000D01*
D35*
%TO.N,Net-(J1-In)*%
X84012000Y-27508200D02*
X84012000Y-31558000D01*
X78105000Y-37084000D02*
X79652500Y-38631500D01*
X82296000Y-33274000D02*
X79375000Y-33274000D01*
X78105000Y-34544000D02*
X78105000Y-37084000D01*
X79375000Y-33274000D02*
X78105000Y-34544000D01*
X84012000Y-31558000D02*
X82296000Y-33274000D01*
X79652500Y-38631500D02*
X79652500Y-39370000D01*
D34*
%TO.N,Net-(Q1-G)*%
X113559000Y-47900000D02*
X121031000Y-55372000D01*
X93925000Y-41275000D02*
X100550000Y-47900000D01*
X136906000Y-55372000D02*
X139740000Y-58206000D01*
X100550000Y-47900000D02*
X113559000Y-47900000D01*
X139740000Y-58206000D02*
X139740000Y-58420000D01*
X121031000Y-55372000D02*
X136906000Y-55372000D01*
X92352500Y-41275000D02*
X93925000Y-41275000D01*
%TO.N,Net-(Q2-G)*%
X92352500Y-43815000D02*
X93115000Y-43815000D01*
X120911000Y-58300000D02*
X125095000Y-58300000D01*
X99592000Y-50292000D02*
X112903000Y-50292000D01*
X112903000Y-50292000D02*
X120911000Y-58300000D01*
X93115000Y-43815000D02*
X99592000Y-50292000D01*
%TO.N,Net-(R10-Pad2)*%
X107442000Y-67310000D02*
X108585000Y-68453000D01*
X108180001Y-64135000D02*
X107442000Y-64873001D01*
X108585000Y-68453000D02*
X110490000Y-68453000D01*
X107442000Y-64873001D02*
X107442000Y-67310000D01*
X109155000Y-64135000D02*
X111482500Y-64135000D01*
X110490000Y-68453000D02*
X111887000Y-69850000D01*
X111887000Y-69850000D02*
X112117500Y-69850000D01*
X111482500Y-64135000D02*
X112117500Y-64770000D01*
X109155000Y-64135000D02*
X108180001Y-64135000D01*
%TO.N,+5V*%
X68700000Y-51300000D02*
X68700000Y-52247500D01*
X63500000Y-45532000D02*
X63688000Y-45720000D01*
X111445000Y-36195000D02*
X111060000Y-36195000D01*
X111445000Y-62865000D02*
X112080000Y-62230000D01*
X111379000Y-36129000D02*
X111445000Y-36195000D01*
X111379000Y-34798000D02*
X111379000Y-36129000D01*
X112141000Y-62169000D02*
X112080000Y-62230000D01*
X112141000Y-60833000D02*
X112141000Y-62169000D01*
X64517000Y-47117000D02*
X63688000Y-46288000D01*
X77827500Y-44450000D02*
X76581000Y-44450000D01*
D36*
X75650000Y-51750000D02*
X75700000Y-51800000D01*
D34*
X113307500Y-41275000D02*
X113307500Y-43815000D01*
X109155000Y-62865000D02*
X111445000Y-62865000D01*
D36*
X71700000Y-51750000D02*
X69197500Y-51750000D01*
D34*
X64517000Y-47117000D02*
X68700000Y-51300000D01*
X71700000Y-51750000D02*
X75650000Y-51750000D01*
D36*
X69197500Y-51750000D02*
X68700000Y-52247500D01*
D34*
X63500000Y-42519600D02*
X63500000Y-45532000D01*
X111060000Y-36195000D02*
X108520000Y-38735000D01*
X114681000Y-41275000D02*
X113307500Y-41275000D01*
X63688000Y-46288000D02*
X63688000Y-45720000D01*
%TO.N,-5V*%
X101280000Y-67310000D02*
X101915000Y-66675000D01*
X101915000Y-42545000D02*
X100645000Y-43815000D01*
X68580000Y-42519600D02*
X68580000Y-45405000D01*
X103100000Y-44900000D02*
X101730000Y-44900000D01*
X71755000Y-45720000D02*
X68895000Y-45720000D01*
X68895000Y-45720000D02*
X68895000Y-47940000D01*
X103570000Y-42545000D02*
X101915000Y-42545000D01*
X101915000Y-66675000D02*
X104205000Y-66675000D01*
X68895000Y-47940000D02*
X69088000Y-48133000D01*
X101730000Y-44900000D02*
X100645000Y-43815000D01*
X68580000Y-45405000D02*
X68895000Y-45720000D01*
%TO.N,Vd*%
X93472000Y-42545000D02*
X89845000Y-42545000D01*
X99949000Y-49022000D02*
X93472000Y-42545000D01*
D35*
X129540000Y-58420000D02*
X129540000Y-58725000D01*
D34*
X120904000Y-56769000D02*
X113157000Y-49022000D01*
D36*
X131395000Y-60580000D02*
X131395000Y-65970000D01*
X131395000Y-65970000D02*
X137795000Y-72370000D01*
D34*
X88575000Y-41275000D02*
X87438000Y-41275000D01*
D36*
X133795000Y-62980000D02*
X131395000Y-60580000D01*
D34*
X128905000Y-58090000D02*
X127584000Y-56769000D01*
X89845000Y-42545000D02*
X88575000Y-41275000D01*
D35*
X129540000Y-58725000D02*
X131395000Y-60580000D01*
D34*
X128905000Y-58420000D02*
X128905000Y-58090000D01*
D35*
X129235000Y-58420000D02*
X129235000Y-58420000D01*
X129235000Y-58420000D02*
X129540000Y-58420000D01*
D34*
X113157000Y-49022000D02*
X99949000Y-49022000D01*
D36*
X139740000Y-62980000D02*
X133795000Y-62980000D01*
D34*
X127584000Y-56769000D02*
X120904000Y-56769000D01*
D36*
X131245000Y-60580000D02*
X131395000Y-60580000D01*
D35*
X128905000Y-58420000D02*
X129235000Y-58420000D01*
%TO.N,Vg*%
X101280000Y-60386000D02*
X101219000Y-60325000D01*
D34*
X105029000Y-40005000D02*
X105283000Y-40259000D01*
X98298000Y-64770000D02*
X97155000Y-65913000D01*
X97155000Y-72136000D02*
X98552000Y-73533000D01*
X99417500Y-64092500D02*
X101280000Y-62230000D01*
X101280000Y-62230000D02*
X101280000Y-60386000D01*
X98552000Y-73533000D02*
X125877000Y-73533000D01*
X97155000Y-65913000D02*
X97155000Y-72136000D01*
X99417500Y-64770000D02*
X98298000Y-64770000D01*
X103570000Y-40005000D02*
X105029000Y-40005000D01*
X99417500Y-64770000D02*
X99417500Y-64092500D01*
X125877000Y-73533000D02*
X127000000Y-72410000D01*
D35*
%TO.N,+4.096V REF*%
X88585000Y-70866000D02*
X88265000Y-70866000D01*
D34*
X91821000Y-67498000D02*
X91887000Y-67564000D01*
D35*
X91887000Y-67564000D02*
X88585000Y-70866000D01*
X91948000Y-62611000D02*
X99695000Y-54864000D01*
D34*
X91887000Y-65278000D02*
X91887000Y-65913000D01*
D35*
X99695000Y-54864000D02*
X99695000Y-53975000D01*
D34*
X91887000Y-65913000D02*
X91821000Y-65979000D01*
D35*
X91948000Y-65217000D02*
X91948000Y-62611000D01*
D34*
X91821000Y-65979000D02*
X91821000Y-67498000D01*
X89089000Y-65405000D02*
X91760000Y-65405000D01*
X91760000Y-65405000D02*
X91887000Y-65278000D01*
D35*
X91887000Y-65278000D02*
X91948000Y-65217000D01*
X114935000Y-67310000D02*
X113942500Y-67310000D01*
D34*
%TO.N,-4.096V REF*%
X113942500Y-70588500D02*
X113942500Y-69850000D01*
X118745000Y-69850000D02*
X113942500Y-69850000D01*
X106045000Y-53975000D02*
X104140000Y-52070000D01*
X111440000Y-71755000D02*
X112776000Y-71755000D01*
X118745000Y-69850000D02*
X118745000Y-62230000D01*
X96520000Y-52070000D02*
X94615000Y-53975000D01*
X109535000Y-69850000D02*
X111440000Y-71755000D01*
X118745000Y-62230000D02*
X113665000Y-57150000D01*
X112776000Y-71755000D02*
X113942500Y-70588500D01*
X104140000Y-52070000D02*
X96520000Y-52070000D01*
D35*
%TO.N,Net-(U7A-+)*%
X101280000Y-69850000D02*
X102600800Y-71170800D01*
D34*
X105537000Y-65405000D02*
X104205000Y-65405000D01*
D35*
X102600800Y-71170800D02*
X103225600Y-71170800D01*
D34*
%TO.N,Net-(U7B--)*%
X113942500Y-65157500D02*
X113942500Y-64770000D01*
X110212500Y-65405000D02*
X112117500Y-67310000D01*
X109155000Y-65405000D02*
X110212500Y-65405000D01*
X112117500Y-67310000D02*
X112117500Y-66982500D01*
X112117500Y-66982500D02*
X113942500Y-65157500D01*
D35*
%TO.N,COMP_OUT*%
X79612500Y-42512500D02*
X80915000Y-43815000D01*
D34*
X106553000Y-40005000D02*
X105283000Y-38735000D01*
X105283000Y-38735000D02*
X103570000Y-38735000D01*
D35*
X99695000Y-38735000D02*
X103570000Y-38735000D01*
X79612500Y-41900000D02*
X79612500Y-42512500D01*
D34*
X108520000Y-40005000D02*
X106553000Y-40005000D01*
D35*
X80915000Y-43815000D02*
X81915000Y-43815000D01*
D34*
%TO.N,Net-(U2B-+)*%
X111445000Y-46355000D02*
X111445000Y-43852500D01*
X111445000Y-43852500D02*
X111482500Y-43815000D01*
X108520000Y-42545000D02*
X110212500Y-42545000D01*
X110212500Y-42545000D02*
X111482500Y-43815000D01*
D35*
%TO.N,Net-(U2A-+)*%
X88900000Y-56388000D02*
X88900000Y-53975000D01*
D34*
X106045000Y-43789600D02*
X106045000Y-42775001D01*
D35*
X93980000Y-57150000D02*
X89662000Y-57150000D01*
D34*
X104544999Y-41275000D02*
X103570000Y-41275000D01*
D35*
X89662000Y-57150000D02*
X88900000Y-56388000D01*
X97155000Y-53975000D02*
X93980000Y-57150000D01*
D34*
X103570000Y-41275000D02*
X100645000Y-41275000D01*
X106045000Y-42775001D02*
X104544999Y-41275000D01*
%TO.N,Net-(D1-K)*%
X90551000Y-39878000D02*
X90551000Y-38796000D01*
X90551000Y-38796000D02*
X90490000Y-38735000D01*
X86740000Y-35814000D02*
X87757000Y-35814000D01*
X87438000Y-38735000D02*
X90490000Y-38735000D01*
%TO.N,Net-(U2B--)*%
X111482500Y-38735000D02*
X111482500Y-41275000D01*
X111482500Y-41275000D02*
X108520000Y-41275000D01*
%TO.N,Net-(U1-HO)*%
X89257500Y-40005000D02*
X90527500Y-41275000D01*
X87438000Y-40005000D02*
X89257500Y-40005000D01*
D35*
%TO.N,Net-(U1-LO)*%
X88515000Y-43815000D02*
X90527500Y-43815000D01*
X87438000Y-42545000D02*
X87438000Y-42738000D01*
X87438000Y-42738000D02*
X88515000Y-43815000D01*
D34*
%TO.N,Net-(U7A--)*%
X104205000Y-64135000D02*
X101877500Y-64135000D01*
X101877500Y-64135000D02*
X101242500Y-64770000D01*
X104205000Y-62865000D02*
X104205000Y-64135000D01*
D35*
%TO.N,~{SD}*%
X80010000Y-48133000D02*
X80010000Y-44807500D01*
X77787500Y-41900000D02*
X77787500Y-42585000D01*
X77787500Y-42585000D02*
X79652500Y-44450000D01*
X80010000Y-44807500D02*
X79652500Y-44450000D01*
%TD*%
%TA.AperFunction,Conductor*%
%TO.N,VCC*%
G36*
X144723039Y-26689685D02*
G01*
X144768794Y-26742489D01*
X144780000Y-26794000D01*
X144780000Y-32385000D01*
X149101000Y-32385000D01*
X149168039Y-32404685D01*
X149213794Y-32457489D01*
X149225000Y-32509000D01*
X149225000Y-64011000D01*
X149205315Y-64078039D01*
X149152511Y-64123794D01*
X149101000Y-64135000D01*
X142364000Y-64135000D01*
X142296961Y-64115315D01*
X142251206Y-64062511D01*
X142240000Y-64011000D01*
X142240000Y-52959000D01*
X121409000Y-52959000D01*
X121341961Y-52939315D01*
X121296206Y-52886511D01*
X121285000Y-52835000D01*
X121285000Y-49338549D01*
X122124500Y-49338549D01*
X122124500Y-49561450D01*
X122124501Y-49561466D01*
X122153594Y-49782452D01*
X122153595Y-49782457D01*
X122153596Y-49782463D01*
X122153597Y-49782465D01*
X122211290Y-49997780D01*
X122211293Y-49997790D01*
X122234327Y-50053398D01*
X122296595Y-50203726D01*
X122408052Y-50396774D01*
X122408057Y-50396780D01*
X122408058Y-50396782D01*
X122543751Y-50573622D01*
X122543757Y-50573629D01*
X122701370Y-50731242D01*
X122701376Y-50731247D01*
X122878226Y-50866948D01*
X123071274Y-50978405D01*
X123277219Y-51063710D01*
X123492537Y-51121404D01*
X123713543Y-51150500D01*
X123713550Y-51150500D01*
X123936450Y-51150500D01*
X123936457Y-51150500D01*
X124157463Y-51121404D01*
X124372781Y-51063710D01*
X124578726Y-50978405D01*
X124771774Y-50866948D01*
X124948624Y-50731247D01*
X125106247Y-50573624D01*
X125241948Y-50396774D01*
X125353405Y-50203726D01*
X125438710Y-49997781D01*
X125496404Y-49782463D01*
X125525500Y-49561457D01*
X125525500Y-49338549D01*
X136094500Y-49338549D01*
X136094500Y-49561450D01*
X136094501Y-49561466D01*
X136123594Y-49782452D01*
X136123595Y-49782457D01*
X136123596Y-49782463D01*
X136123597Y-49782465D01*
X136181290Y-49997780D01*
X136181293Y-49997790D01*
X136204327Y-50053398D01*
X136266595Y-50203726D01*
X136378052Y-50396774D01*
X136378057Y-50396780D01*
X136378058Y-50396782D01*
X136513751Y-50573622D01*
X136513757Y-50573629D01*
X136671370Y-50731242D01*
X136671376Y-50731247D01*
X136848226Y-50866948D01*
X137041274Y-50978405D01*
X137247219Y-51063710D01*
X137462537Y-51121404D01*
X137683543Y-51150500D01*
X137683550Y-51150500D01*
X137906450Y-51150500D01*
X137906457Y-51150500D01*
X138127463Y-51121404D01*
X138342781Y-51063710D01*
X138548726Y-50978405D01*
X138741774Y-50866948D01*
X138918624Y-50731247D01*
X139076247Y-50573624D01*
X139211948Y-50396774D01*
X139323405Y-50203726D01*
X139408710Y-49997781D01*
X139466404Y-49782463D01*
X139495500Y-49561457D01*
X139495500Y-49338543D01*
X139466404Y-49117537D01*
X139408710Y-48902219D01*
X139323405Y-48696274D01*
X139211948Y-48503226D01*
X139076247Y-48326376D01*
X139076242Y-48326370D01*
X138918629Y-48168757D01*
X138918622Y-48168751D01*
X138741782Y-48033058D01*
X138741780Y-48033057D01*
X138741774Y-48033052D01*
X138548726Y-47921595D01*
X138548722Y-47921593D01*
X138342790Y-47836293D01*
X138342783Y-47836291D01*
X138342781Y-47836290D01*
X138127463Y-47778596D01*
X138127457Y-47778595D01*
X138127452Y-47778594D01*
X137906466Y-47749501D01*
X137906463Y-47749500D01*
X137906457Y-47749500D01*
X137683543Y-47749500D01*
X137683537Y-47749500D01*
X137683533Y-47749501D01*
X137462547Y-47778594D01*
X137462540Y-47778595D01*
X137462537Y-47778596D01*
X137310127Y-47819434D01*
X137247219Y-47836290D01*
X137247209Y-47836293D01*
X137041277Y-47921593D01*
X137041273Y-47921595D01*
X136848226Y-48033052D01*
X136848217Y-48033058D01*
X136671377Y-48168751D01*
X136671370Y-48168757D01*
X136513757Y-48326370D01*
X136513751Y-48326377D01*
X136378058Y-48503217D01*
X136378052Y-48503226D01*
X136266595Y-48696273D01*
X136266593Y-48696277D01*
X136181293Y-48902209D01*
X136181290Y-48902219D01*
X136127608Y-49102566D01*
X136123597Y-49117534D01*
X136123594Y-49117547D01*
X136094501Y-49338533D01*
X136094500Y-49338549D01*
X125525500Y-49338549D01*
X125525500Y-49338543D01*
X125496404Y-49117537D01*
X125438710Y-48902219D01*
X125353405Y-48696274D01*
X125241948Y-48503226D01*
X125106247Y-48326376D01*
X125106242Y-48326370D01*
X124948629Y-48168757D01*
X124948622Y-48168751D01*
X124771782Y-48033058D01*
X124771780Y-48033057D01*
X124771774Y-48033052D01*
X124578726Y-47921595D01*
X124578722Y-47921593D01*
X124372790Y-47836293D01*
X124372783Y-47836291D01*
X124372781Y-47836290D01*
X124157463Y-47778596D01*
X124157457Y-47778595D01*
X124157452Y-47778594D01*
X123936466Y-47749501D01*
X123936463Y-47749500D01*
X123936457Y-47749500D01*
X123713543Y-47749500D01*
X123713537Y-47749500D01*
X123713533Y-47749501D01*
X123492547Y-47778594D01*
X123492540Y-47778595D01*
X123492537Y-47778596D01*
X123340127Y-47819434D01*
X123277219Y-47836290D01*
X123277209Y-47836293D01*
X123071277Y-47921593D01*
X123071273Y-47921595D01*
X122878226Y-48033052D01*
X122878217Y-48033058D01*
X122701377Y-48168751D01*
X122701370Y-48168757D01*
X122543757Y-48326370D01*
X122543751Y-48326377D01*
X122408058Y-48503217D01*
X122408052Y-48503226D01*
X122296595Y-48696273D01*
X122296593Y-48696277D01*
X122211293Y-48902209D01*
X122211290Y-48902219D01*
X122157608Y-49102566D01*
X122153597Y-49117534D01*
X122153594Y-49117547D01*
X122124501Y-49338533D01*
X122124500Y-49338549D01*
X121285000Y-49338549D01*
X121285000Y-35368549D01*
X122124500Y-35368549D01*
X122124500Y-35591450D01*
X122124501Y-35591466D01*
X122153594Y-35812452D01*
X122153595Y-35812457D01*
X122153596Y-35812463D01*
X122153597Y-35812465D01*
X122211290Y-36027780D01*
X122211293Y-36027790D01*
X122296593Y-36233722D01*
X122296595Y-36233726D01*
X122408052Y-36426774D01*
X122408057Y-36426780D01*
X122408058Y-36426782D01*
X122543751Y-36603622D01*
X122543757Y-36603629D01*
X122701370Y-36761242D01*
X122701376Y-36761247D01*
X122878226Y-36896948D01*
X123071274Y-37008405D01*
X123277219Y-37093710D01*
X123492537Y-37151404D01*
X123713543Y-37180500D01*
X123713550Y-37180500D01*
X123936450Y-37180500D01*
X123936457Y-37180500D01*
X124157463Y-37151404D01*
X124372781Y-37093710D01*
X124578726Y-37008405D01*
X124771774Y-36896948D01*
X124948624Y-36761247D01*
X125106247Y-36603624D01*
X125241948Y-36426774D01*
X125353405Y-36233726D01*
X125438710Y-36027781D01*
X125496404Y-35812463D01*
X125525500Y-35591457D01*
X125525500Y-35368549D01*
X136094500Y-35368549D01*
X136094500Y-35591450D01*
X136094501Y-35591466D01*
X136123594Y-35812452D01*
X136123595Y-35812457D01*
X136123596Y-35812463D01*
X136123597Y-35812465D01*
X136181290Y-36027780D01*
X136181293Y-36027790D01*
X136266593Y-36233722D01*
X136266595Y-36233726D01*
X136378052Y-36426774D01*
X136378057Y-36426780D01*
X136378058Y-36426782D01*
X136513751Y-36603622D01*
X136513757Y-36603629D01*
X136671370Y-36761242D01*
X136671376Y-36761247D01*
X136848226Y-36896948D01*
X137041274Y-37008405D01*
X137247219Y-37093710D01*
X137462537Y-37151404D01*
X137683543Y-37180500D01*
X137683550Y-37180500D01*
X137906450Y-37180500D01*
X137906457Y-37180500D01*
X138127463Y-37151404D01*
X138342781Y-37093710D01*
X138548726Y-37008405D01*
X138741774Y-36896948D01*
X138918624Y-36761247D01*
X139076247Y-36603624D01*
X139211948Y-36426774D01*
X139323405Y-36233726D01*
X139408710Y-36027781D01*
X139466404Y-35812463D01*
X139495500Y-35591457D01*
X139495500Y-35368543D01*
X139466404Y-35147537D01*
X139408710Y-34932219D01*
X139323405Y-34726274D01*
X139211948Y-34533226D01*
X139117802Y-34410532D01*
X139076248Y-34356377D01*
X139076242Y-34356370D01*
X138918629Y-34198757D01*
X138918622Y-34198751D01*
X138741782Y-34063058D01*
X138741780Y-34063057D01*
X138741774Y-34063052D01*
X138548726Y-33951595D01*
X138548722Y-33951593D01*
X138342790Y-33866293D01*
X138342783Y-33866291D01*
X138342781Y-33866290D01*
X138127463Y-33808596D01*
X138127457Y-33808595D01*
X138127452Y-33808594D01*
X137906466Y-33779501D01*
X137906463Y-33779500D01*
X137906457Y-33779500D01*
X137683543Y-33779500D01*
X137683537Y-33779500D01*
X137683533Y-33779501D01*
X137462547Y-33808594D01*
X137462540Y-33808595D01*
X137462537Y-33808596D01*
X137247219Y-33866290D01*
X137247209Y-33866293D01*
X137041277Y-33951593D01*
X137041273Y-33951595D01*
X136848226Y-34063052D01*
X136848217Y-34063058D01*
X136671377Y-34198751D01*
X136671370Y-34198757D01*
X136513757Y-34356370D01*
X136513751Y-34356377D01*
X136378058Y-34533217D01*
X136378052Y-34533226D01*
X136266595Y-34726273D01*
X136266593Y-34726277D01*
X136181293Y-34932209D01*
X136181290Y-34932219D01*
X136123597Y-35147534D01*
X136123594Y-35147547D01*
X136094501Y-35368533D01*
X136094500Y-35368549D01*
X125525500Y-35368549D01*
X125525500Y-35368543D01*
X125496404Y-35147537D01*
X125438710Y-34932219D01*
X125353405Y-34726274D01*
X125241948Y-34533226D01*
X125147802Y-34410532D01*
X125106248Y-34356377D01*
X125106242Y-34356370D01*
X124948629Y-34198757D01*
X124948622Y-34198751D01*
X124771782Y-34063058D01*
X124771780Y-34063057D01*
X124771774Y-34063052D01*
X124578726Y-33951595D01*
X124578722Y-33951593D01*
X124372790Y-33866293D01*
X124372783Y-33866291D01*
X124372781Y-33866290D01*
X124157463Y-33808596D01*
X124157457Y-33808595D01*
X124157452Y-33808594D01*
X123936466Y-33779501D01*
X123936463Y-33779500D01*
X123936457Y-33779500D01*
X123713543Y-33779500D01*
X123713537Y-33779500D01*
X123713533Y-33779501D01*
X123492547Y-33808594D01*
X123492540Y-33808595D01*
X123492537Y-33808596D01*
X123277219Y-33866290D01*
X123277209Y-33866293D01*
X123071277Y-33951593D01*
X123071273Y-33951595D01*
X122878226Y-34063052D01*
X122878217Y-34063058D01*
X122701377Y-34198751D01*
X122701370Y-34198757D01*
X122543757Y-34356370D01*
X122543751Y-34356377D01*
X122408058Y-34533217D01*
X122408052Y-34533226D01*
X122296595Y-34726273D01*
X122296593Y-34726277D01*
X122211293Y-34932209D01*
X122211290Y-34932219D01*
X122153597Y-35147534D01*
X122153594Y-35147547D01*
X122124501Y-35368533D01*
X122124500Y-35368549D01*
X121285000Y-35368549D01*
X121285000Y-32385000D01*
X110614000Y-32385000D01*
X110546961Y-32365315D01*
X110501206Y-32312511D01*
X110490000Y-32261000D01*
X110490000Y-29961010D01*
X110496068Y-29922695D01*
X110556754Y-29735926D01*
X110571752Y-29641230D01*
X110590500Y-29522866D01*
X110590500Y-28857133D01*
X110568002Y-28715095D01*
X110556754Y-28644074D01*
X110496069Y-28457305D01*
X110490000Y-28418987D01*
X110490000Y-26794000D01*
X110509685Y-26726961D01*
X110562489Y-26681206D01*
X110614000Y-26670000D01*
X144656000Y-26670000D01*
X144723039Y-26689685D01*
G37*
%TD.AperFunction*%
%TD*%
%TA.AperFunction,Conductor*%
%TO.N,GND*%
G36*
X123911390Y-48256061D02*
G01*
X123945827Y-48260594D01*
X124050567Y-48274383D01*
X124066461Y-48277544D01*
X124177489Y-48307294D01*
X124202105Y-48313890D01*
X124217463Y-48319104D01*
X124347158Y-48372825D01*
X124361706Y-48379999D01*
X124483293Y-48450198D01*
X124496779Y-48459209D01*
X124608155Y-48544670D01*
X124620350Y-48555364D01*
X124719623Y-48654636D01*
X124730318Y-48666831D01*
X124815795Y-48778226D01*
X124824801Y-48791705D01*
X124890640Y-48905742D01*
X124894999Y-48913292D01*
X124902172Y-48927839D01*
X124955896Y-49057541D01*
X124961110Y-49072899D01*
X124997451Y-49208522D01*
X125000615Y-49224430D01*
X125018938Y-49363611D01*
X125018939Y-49363614D01*
X125020000Y-49379799D01*
X125020000Y-49520201D01*
X125018939Y-49536387D01*
X125000615Y-49675568D01*
X124997451Y-49691476D01*
X124961110Y-49827099D01*
X124955896Y-49842457D01*
X124902172Y-49972159D01*
X124894998Y-49986707D01*
X124824802Y-50108289D01*
X124815791Y-50121775D01*
X124730318Y-50233167D01*
X124719623Y-50245362D01*
X124620362Y-50344623D01*
X124608167Y-50355318D01*
X124496775Y-50440791D01*
X124483289Y-50449802D01*
X124361707Y-50519998D01*
X124347159Y-50527172D01*
X124217457Y-50580896D01*
X124202099Y-50586110D01*
X124066475Y-50622451D01*
X124050567Y-50625615D01*
X123946142Y-50639363D01*
X123911386Y-50643939D01*
X123895202Y-50645000D01*
X123754798Y-50645000D01*
X123738613Y-50643939D01*
X123669021Y-50634777D01*
X123599430Y-50625615D01*
X123583522Y-50622451D01*
X123447899Y-50586110D01*
X123432541Y-50580896D01*
X123302839Y-50527172D01*
X123288291Y-50519998D01*
X123166709Y-50449802D01*
X123153223Y-50440791D01*
X123041834Y-50355320D01*
X123029639Y-50344625D01*
X122930374Y-50245360D01*
X122919680Y-50233166D01*
X122834203Y-50121771D01*
X122825195Y-50108289D01*
X122755001Y-49986708D01*
X122755001Y-49986707D01*
X122747827Y-49972161D01*
X122694103Y-49842459D01*
X122688889Y-49827101D01*
X122681949Y-49801202D01*
X122652546Y-49691469D01*
X122649385Y-49675578D01*
X122631061Y-49536387D01*
X122630000Y-49520202D01*
X122630000Y-49379793D01*
X122631061Y-49363608D01*
X122649382Y-49224440D01*
X122652546Y-49208532D01*
X122652549Y-49208522D01*
X122688891Y-49072885D01*
X122694101Y-49057541D01*
X122747827Y-48927834D01*
X122754990Y-48913307D01*
X122825212Y-48791682D01*
X122834210Y-48778217D01*
X122919676Y-48666834D01*
X122930365Y-48654647D01*
X123029640Y-48555372D01*
X123041835Y-48544677D01*
X123073394Y-48520461D01*
X123153221Y-48459209D01*
X123166684Y-48450212D01*
X123288307Y-48379991D01*
X123302834Y-48372828D01*
X123432554Y-48319095D01*
X123447882Y-48313892D01*
X123583528Y-48277545D01*
X123599416Y-48274385D01*
X123710617Y-48259746D01*
X123738611Y-48256061D01*
X123754795Y-48255000D01*
X123895206Y-48255000D01*
X123911390Y-48256061D01*
G37*
%TD.AperFunction*%
%TA.AperFunction,Conductor*%
G36*
X137881390Y-48256061D02*
G01*
X137915827Y-48260594D01*
X138020567Y-48274383D01*
X138036461Y-48277544D01*
X138147489Y-48307294D01*
X138172105Y-48313890D01*
X138187463Y-48319104D01*
X138317158Y-48372825D01*
X138331706Y-48379999D01*
X138453293Y-48450198D01*
X138466779Y-48459209D01*
X138578155Y-48544670D01*
X138590350Y-48555364D01*
X138689623Y-48654636D01*
X138700318Y-48666831D01*
X138785795Y-48778226D01*
X138794801Y-48791705D01*
X138860640Y-48905742D01*
X138864999Y-48913292D01*
X138872172Y-48927839D01*
X138925896Y-49057541D01*
X138931110Y-49072899D01*
X138967451Y-49208522D01*
X138970615Y-49224430D01*
X138988938Y-49363608D01*
X138988939Y-49363611D01*
X138990000Y-49379797D01*
X138990000Y-49520201D01*
X138988939Y-49536387D01*
X138970615Y-49675568D01*
X138967451Y-49691476D01*
X138931110Y-49827099D01*
X138925896Y-49842457D01*
X138872172Y-49972159D01*
X138864998Y-49986707D01*
X138794802Y-50108289D01*
X138785791Y-50121775D01*
X138700318Y-50233167D01*
X138689623Y-50245362D01*
X138590362Y-50344623D01*
X138578167Y-50355318D01*
X138466775Y-50440791D01*
X138453289Y-50449802D01*
X138331707Y-50519998D01*
X138317159Y-50527172D01*
X138187457Y-50580896D01*
X138172099Y-50586110D01*
X138036475Y-50622451D01*
X138020567Y-50625615D01*
X137916142Y-50639363D01*
X137881386Y-50643939D01*
X137865202Y-50645000D01*
X137724798Y-50645000D01*
X137708613Y-50643939D01*
X137639021Y-50634777D01*
X137569430Y-50625615D01*
X137553522Y-50622451D01*
X137417899Y-50586110D01*
X137402541Y-50580896D01*
X137272839Y-50527172D01*
X137258291Y-50519998D01*
X137136709Y-50449802D01*
X137123223Y-50440791D01*
X137011834Y-50355320D01*
X136999639Y-50344625D01*
X136900374Y-50245360D01*
X136889680Y-50233166D01*
X136804203Y-50121771D01*
X136795195Y-50108289D01*
X136725001Y-49986708D01*
X136717827Y-49972161D01*
X136664103Y-49842459D01*
X136658889Y-49827101D01*
X136651949Y-49801202D01*
X136622546Y-49691469D01*
X136619385Y-49675578D01*
X136601061Y-49536387D01*
X136600000Y-49520202D01*
X136600000Y-49379793D01*
X136601061Y-49363608D01*
X136619382Y-49224440D01*
X136622546Y-49208532D01*
X136622549Y-49208522D01*
X136658891Y-49072885D01*
X136664101Y-49057541D01*
X136717827Y-48927834D01*
X136724990Y-48913307D01*
X136795212Y-48791682D01*
X136804210Y-48778217D01*
X136889676Y-48666834D01*
X136900365Y-48654647D01*
X136999640Y-48555372D01*
X137011835Y-48544677D01*
X137043394Y-48520461D01*
X137123221Y-48459209D01*
X137136684Y-48450212D01*
X137258307Y-48379991D01*
X137272834Y-48372828D01*
X137402554Y-48319095D01*
X137417882Y-48313892D01*
X137553528Y-48277545D01*
X137569416Y-48274385D01*
X137680617Y-48259746D01*
X137708611Y-48256061D01*
X137724795Y-48255000D01*
X137865206Y-48255000D01*
X137881390Y-48256061D01*
G37*
%TD.AperFunction*%
%TA.AperFunction,Conductor*%
G36*
X123911390Y-34286061D02*
G01*
X123945827Y-34290594D01*
X124050567Y-34304383D01*
X124066461Y-34307544D01*
X124177489Y-34337294D01*
X124202105Y-34343890D01*
X124217463Y-34349104D01*
X124347158Y-34402825D01*
X124361706Y-34409999D01*
X124483293Y-34480198D01*
X124496779Y-34489209D01*
X124608155Y-34574670D01*
X124620350Y-34585364D01*
X124719623Y-34684636D01*
X124730317Y-34696830D01*
X124800460Y-34788242D01*
X124815795Y-34808226D01*
X124824801Y-34821705D01*
X124890066Y-34934747D01*
X124894999Y-34943292D01*
X124902172Y-34957839D01*
X124955896Y-35087541D01*
X124961110Y-35102899D01*
X124997451Y-35238522D01*
X125000615Y-35254430D01*
X125000615Y-35254431D01*
X125005164Y-35288983D01*
X125018938Y-35393611D01*
X125018939Y-35393614D01*
X125020000Y-35409799D01*
X125020000Y-35550201D01*
X125018939Y-35566385D01*
X125018831Y-35567208D01*
X125000615Y-35705568D01*
X124997451Y-35721476D01*
X124961110Y-35857099D01*
X124955896Y-35872457D01*
X124902172Y-36002159D01*
X124894998Y-36016707D01*
X124824802Y-36138289D01*
X124815791Y-36151775D01*
X124730318Y-36263167D01*
X124719623Y-36275362D01*
X124620362Y-36374623D01*
X124608167Y-36385318D01*
X124496775Y-36470791D01*
X124483289Y-36479802D01*
X124361707Y-36549998D01*
X124347159Y-36557172D01*
X124217457Y-36610896D01*
X124202099Y-36616110D01*
X124066475Y-36652451D01*
X124050567Y-36655615D01*
X123946142Y-36669363D01*
X123911386Y-36673939D01*
X123895202Y-36675000D01*
X123754798Y-36675000D01*
X123738613Y-36673939D01*
X123603797Y-36656190D01*
X123599430Y-36655615D01*
X123583522Y-36652451D01*
X123447899Y-36616110D01*
X123432541Y-36610896D01*
X123302839Y-36557172D01*
X123288291Y-36549998D01*
X123166709Y-36479802D01*
X123153223Y-36470791D01*
X123041834Y-36385320D01*
X123029639Y-36374625D01*
X122930374Y-36275360D01*
X122919680Y-36263166D01*
X122834203Y-36151771D01*
X122825195Y-36138289D01*
X122755001Y-36016708D01*
X122747827Y-36002161D01*
X122694103Y-35872459D01*
X122688889Y-35857101D01*
X122655752Y-35733434D01*
X122652546Y-35721469D01*
X122649385Y-35705578D01*
X122631061Y-35566387D01*
X122630000Y-35550202D01*
X122630000Y-35409793D01*
X122631061Y-35393608D01*
X122644834Y-35288991D01*
X122649382Y-35254439D01*
X122652546Y-35238532D01*
X122652549Y-35238522D01*
X122688891Y-35102885D01*
X122694101Y-35087541D01*
X122747827Y-34957834D01*
X122754990Y-34943307D01*
X122825212Y-34821682D01*
X122834210Y-34808217D01*
X122919676Y-34696834D01*
X122930365Y-34684647D01*
X123029640Y-34585372D01*
X123041835Y-34574677D01*
X123061747Y-34559398D01*
X123153221Y-34489209D01*
X123166684Y-34480212D01*
X123288307Y-34409991D01*
X123302834Y-34402828D01*
X123432554Y-34349095D01*
X123447882Y-34343892D01*
X123583528Y-34307545D01*
X123599416Y-34304385D01*
X123710617Y-34289746D01*
X123738611Y-34286061D01*
X123754795Y-34285000D01*
X123895206Y-34285000D01*
X123911390Y-34286061D01*
G37*
%TD.AperFunction*%
%TA.AperFunction,Conductor*%
G36*
X137881390Y-34286061D02*
G01*
X137915827Y-34290594D01*
X138020567Y-34304383D01*
X138036461Y-34307544D01*
X138147489Y-34337294D01*
X138172105Y-34343890D01*
X138187463Y-34349104D01*
X138317158Y-34402825D01*
X138331706Y-34409999D01*
X138453293Y-34480198D01*
X138466779Y-34489209D01*
X138578155Y-34574670D01*
X138590350Y-34585364D01*
X138689623Y-34684636D01*
X138700317Y-34696830D01*
X138770460Y-34788242D01*
X138785795Y-34808226D01*
X138794801Y-34821705D01*
X138860066Y-34934747D01*
X138864999Y-34943292D01*
X138872172Y-34957839D01*
X138925896Y-35087541D01*
X138931110Y-35102899D01*
X138967451Y-35238522D01*
X138970615Y-35254430D01*
X138988938Y-35393608D01*
X138988939Y-35393611D01*
X138990000Y-35409797D01*
X138990000Y-35550201D01*
X138988939Y-35566385D01*
X138988831Y-35567208D01*
X138970615Y-35705568D01*
X138967451Y-35721476D01*
X138931110Y-35857099D01*
X138925896Y-35872457D01*
X138872172Y-36002159D01*
X138864998Y-36016707D01*
X138794802Y-36138289D01*
X138785791Y-36151775D01*
X138700318Y-36263167D01*
X138689623Y-36275362D01*
X138590362Y-36374623D01*
X138578167Y-36385318D01*
X138466775Y-36470791D01*
X138453289Y-36479802D01*
X138331707Y-36549998D01*
X138317159Y-36557172D01*
X138187457Y-36610896D01*
X138172099Y-36616110D01*
X138036475Y-36652451D01*
X138020567Y-36655615D01*
X137916142Y-36669363D01*
X137881386Y-36673939D01*
X137865202Y-36675000D01*
X137724798Y-36675000D01*
X137708613Y-36673939D01*
X137573797Y-36656190D01*
X137569430Y-36655615D01*
X137553522Y-36652451D01*
X137417899Y-36616110D01*
X137402541Y-36610896D01*
X137272839Y-36557172D01*
X137258291Y-36549998D01*
X137136709Y-36479802D01*
X137123223Y-36470791D01*
X137011834Y-36385320D01*
X136999639Y-36374625D01*
X136900374Y-36275360D01*
X136889680Y-36263166D01*
X136804203Y-36151771D01*
X136795195Y-36138289D01*
X136725001Y-36016708D01*
X136725001Y-36016707D01*
X136717827Y-36002161D01*
X136664103Y-35872459D01*
X136658889Y-35857101D01*
X136625752Y-35733434D01*
X136622546Y-35721469D01*
X136619385Y-35705578D01*
X136601061Y-35566387D01*
X136600000Y-35550202D01*
X136600000Y-35409793D01*
X136601061Y-35393608D01*
X136614834Y-35288991D01*
X136619382Y-35254439D01*
X136622546Y-35238532D01*
X136622549Y-35238522D01*
X136658891Y-35102885D01*
X136664101Y-35087541D01*
X136717827Y-34957834D01*
X136724990Y-34943307D01*
X136795212Y-34821682D01*
X136804210Y-34808217D01*
X136889676Y-34696834D01*
X136900365Y-34684647D01*
X136999640Y-34585372D01*
X137011835Y-34574677D01*
X137031747Y-34559398D01*
X137123221Y-34489209D01*
X137136684Y-34480212D01*
X137258307Y-34409991D01*
X137272834Y-34402828D01*
X137402554Y-34349095D01*
X137417882Y-34343892D01*
X137553528Y-34307545D01*
X137569416Y-34304385D01*
X137680617Y-34289746D01*
X137708611Y-34286061D01*
X137724795Y-34285000D01*
X137865206Y-34285000D01*
X137881390Y-34286061D01*
G37*
%TD.AperFunction*%
%TA.AperFunction,Conductor*%
G36*
X82827443Y-25920185D02*
G01*
X82873198Y-25972989D01*
X82883762Y-26037102D01*
X82876500Y-26108181D01*
X82876500Y-28908201D01*
X82876501Y-28908218D01*
X82887000Y-29010996D01*
X82887001Y-29010999D01*
X82942185Y-29177531D01*
X82942186Y-29177534D01*
X83034288Y-29326856D01*
X83158344Y-29450912D01*
X83307666Y-29543014D01*
X83307670Y-29543015D01*
X83312897Y-29545452D01*
X83365340Y-29591621D01*
X83384500Y-29657838D01*
X83384500Y-31246719D01*
X83364815Y-31313758D01*
X83348181Y-31334400D01*
X82072400Y-32610181D01*
X82011077Y-32643666D01*
X81984719Y-32646500D01*
X79313195Y-32646500D01*
X79191970Y-32670613D01*
X79191960Y-32670616D01*
X79077773Y-32717913D01*
X79077760Y-32717920D01*
X78974992Y-32786588D01*
X78974988Y-32786591D01*
X78000170Y-33761411D01*
X77704992Y-34056589D01*
X77661289Y-34100292D01*
X77617586Y-34143994D01*
X77617585Y-34143996D01*
X77548233Y-34247789D01*
X77546586Y-34252393D01*
X77501614Y-34360964D01*
X77501612Y-34360972D01*
X77477500Y-34482192D01*
X77477500Y-37145807D01*
X77501612Y-37267027D01*
X77501614Y-37267035D01*
X77535062Y-37347785D01*
X77548915Y-37381229D01*
X77548917Y-37381233D01*
X77597894Y-37454532D01*
X77617589Y-37484008D01*
X77617590Y-37484009D01*
X77617593Y-37484013D01*
X78658336Y-38524755D01*
X78691821Y-38586078D01*
X78688361Y-38651440D01*
X78650001Y-38767203D01*
X78650000Y-38767204D01*
X78639500Y-38869983D01*
X78639500Y-39870001D01*
X78639502Y-39870022D01*
X78646323Y-39936800D01*
X78633553Y-40005492D01*
X78585671Y-40056376D01*
X78543901Y-40069949D01*
X78544172Y-40071311D01*
X78416973Y-40096611D01*
X78416973Y-40096612D01*
X78416970Y-40096613D01*
X78416966Y-40096614D01*
X78350070Y-40124323D01*
X78350068Y-40124323D01*
X78302770Y-40143915D01*
X78236740Y-40188035D01*
X78199990Y-40212590D01*
X78199986Y-40212593D01*
X77749398Y-40663181D01*
X77688075Y-40696666D01*
X77661718Y-40699500D01*
X77474999Y-40699500D01*
X77474980Y-40699501D01*
X77372203Y-40710000D01*
X77372200Y-40710001D01*
X77205668Y-40765185D01*
X77205663Y-40765187D01*
X77056342Y-40857289D01*
X76932289Y-40981342D01*
X76840187Y-41130663D01*
X76840186Y-41130666D01*
X76785001Y-41297203D01*
X76785001Y-41297204D01*
X76785000Y-41297204D01*
X76774500Y-41399983D01*
X76774500Y-42400001D01*
X76774501Y-42400019D01*
X76785000Y-42502796D01*
X76785001Y-42502799D01*
X76840185Y-42669331D01*
X76840187Y-42669336D01*
X76846880Y-42680187D01*
X76932288Y-42818656D01*
X77056344Y-42942712D01*
X77205666Y-43034814D01*
X77293506Y-43063921D01*
X77350951Y-43103694D01*
X77377774Y-43168210D01*
X77365459Y-43236985D01*
X77317916Y-43288185D01*
X77293508Y-43299332D01*
X77245671Y-43315184D01*
X77245663Y-43315187D01*
X77096342Y-43407289D01*
X76972289Y-43531342D01*
X76946535Y-43573097D01*
X76894587Y-43619821D01*
X76840996Y-43632000D01*
X76500429Y-43632000D01*
X76342405Y-43663433D01*
X76342397Y-43663435D01*
X76193533Y-43725096D01*
X76059552Y-43814619D01*
X75945619Y-43928552D01*
X75856096Y-44062533D01*
X75794435Y-44211397D01*
X75794433Y-44211405D01*
X75763000Y-44369429D01*
X75763000Y-44530570D01*
X75794433Y-44688594D01*
X75794435Y-44688602D01*
X75856096Y-44837466D01*
X75945619Y-44971447D01*
X76059552Y-45085380D01*
X76193533Y-45174903D01*
X76242006Y-45194981D01*
X76342398Y-45236565D01*
X76500429Y-45267999D01*
X76500433Y-45268000D01*
X76500434Y-45268000D01*
X76840996Y-45268000D01*
X76908035Y-45287685D01*
X76946533Y-45326901D01*
X76972288Y-45368656D01*
X77096344Y-45492712D01*
X77245666Y-45584814D01*
X77412203Y-45639999D01*
X77514991Y-45650500D01*
X78140008Y-45650499D01*
X78140016Y-45650498D01*
X78140019Y-45650498D01*
X78196302Y-45644748D01*
X78242797Y-45639999D01*
X78409334Y-45584814D01*
X78558656Y-45492712D01*
X78652319Y-45399049D01*
X78713642Y-45365564D01*
X78783334Y-45370548D01*
X78827681Y-45399049D01*
X78921344Y-45492712D01*
X79070666Y-45584814D01*
X79237203Y-45639999D01*
X79271102Y-45643462D01*
X79335794Y-45669858D01*
X79375945Y-45727038D01*
X79382500Y-45766820D01*
X79382500Y-47294216D01*
X79362815Y-47361255D01*
X79346181Y-47381897D01*
X79232863Y-47495214D01*
X79232860Y-47495218D01*
X79123371Y-47659079D01*
X79123364Y-47659092D01*
X79047950Y-47841160D01*
X79047947Y-47841170D01*
X79009500Y-48034456D01*
X79009500Y-48034459D01*
X79009500Y-48231541D01*
X79009500Y-48231543D01*
X79009499Y-48231543D01*
X79047947Y-48424829D01*
X79047950Y-48424839D01*
X79123364Y-48606907D01*
X79123371Y-48606920D01*
X79232860Y-48770781D01*
X79232863Y-48770785D01*
X79372214Y-48910136D01*
X79372218Y-48910139D01*
X79536079Y-49019628D01*
X79536092Y-49019635D01*
X79718160Y-49095049D01*
X79718165Y-49095051D01*
X79718169Y-49095051D01*
X79718170Y-49095052D01*
X79911456Y-49133500D01*
X79911459Y-49133500D01*
X80108543Y-49133500D01*
X80238582Y-49107632D01*
X80301835Y-49095051D01*
X80483914Y-49019632D01*
X80647782Y-48910139D01*
X80787139Y-48770782D01*
X80896632Y-48606914D01*
X80972051Y-48424835D01*
X80991420Y-48327461D01*
X81010500Y-48231543D01*
X81010500Y-48034456D01*
X80972052Y-47841170D01*
X80972051Y-47841169D01*
X80972051Y-47841165D01*
X80972049Y-47841160D01*
X80896635Y-47659092D01*
X80896628Y-47659079D01*
X80787139Y-47495218D01*
X80787136Y-47495214D01*
X80673819Y-47381897D01*
X80640334Y-47320574D01*
X80637500Y-47294216D01*
X80637500Y-45125614D01*
X80643794Y-45086610D01*
X80644202Y-45085380D01*
X80654999Y-45052797D01*
X80665500Y-44950009D01*
X80665499Y-44556257D01*
X80685183Y-44489220D01*
X80737987Y-44443465D01*
X80807146Y-44433521D01*
X80813691Y-44434642D01*
X80853194Y-44442500D01*
X80853197Y-44442500D01*
X81375643Y-44442500D01*
X81442682Y-44462185D01*
X81444534Y-44463398D01*
X81535814Y-44524390D01*
X81535827Y-44524397D01*
X81674861Y-44581986D01*
X81681503Y-44584737D01*
X81805145Y-44609331D01*
X81836153Y-44615499D01*
X81836156Y-44615500D01*
X81836158Y-44615500D01*
X81993844Y-44615500D01*
X81993845Y-44615499D01*
X82148497Y-44584737D01*
X82294179Y-44524394D01*
X82425289Y-44436789D01*
X82536789Y-44325289D01*
X82624394Y-44194179D01*
X82684737Y-44048497D01*
X82715500Y-43893842D01*
X82715500Y-43736158D01*
X82715500Y-43736155D01*
X82715499Y-43736153D01*
X82701034Y-43663433D01*
X82684737Y-43581503D01*
X82663960Y-43531342D01*
X82624397Y-43435827D01*
X82624390Y-43435814D01*
X82536789Y-43304711D01*
X82536786Y-43304707D01*
X82425292Y-43193213D01*
X82425288Y-43193210D01*
X82294185Y-43105609D01*
X82294172Y-43105602D01*
X82148501Y-43045264D01*
X82148489Y-43045261D01*
X81993845Y-43014500D01*
X81993842Y-43014500D01*
X81836158Y-43014500D01*
X81836155Y-43014500D01*
X81681510Y-43045261D01*
X81681498Y-43045264D01*
X81535827Y-43105602D01*
X81535814Y-43105609D01*
X81444534Y-43166602D01*
X81426487Y-43172252D01*
X81410578Y-43182477D01*
X81379618Y-43186928D01*
X81377857Y-43187480D01*
X81375643Y-43187500D01*
X81226281Y-43187500D01*
X81159242Y-43167815D01*
X81138600Y-43151181D01*
X80638024Y-42650605D01*
X80604539Y-42589282D01*
X80607998Y-42523921D01*
X80614999Y-42502797D01*
X80625500Y-42400009D01*
X80625499Y-41451679D01*
X80631737Y-41430433D01*
X80633317Y-41408346D01*
X80641388Y-41397563D01*
X80645183Y-41384641D01*
X80661919Y-41370139D01*
X80675189Y-41352413D01*
X80687807Y-41347706D01*
X80697987Y-41338886D01*
X80719905Y-41335734D01*
X80740653Y-41327996D01*
X80753813Y-41330858D01*
X80767146Y-41328942D01*
X80787289Y-41338141D01*
X80808926Y-41342848D01*
X80826651Y-41356116D01*
X80830702Y-41357967D01*
X80837180Y-41363999D01*
X80998889Y-41525708D01*
X81030284Y-41578794D01*
X81061254Y-41685393D01*
X81061255Y-41685396D01*
X81144917Y-41826862D01*
X81144923Y-41826870D01*
X81261129Y-41943076D01*
X81261133Y-41943079D01*
X81261135Y-41943081D01*
X81402602Y-42026744D01*
X81444224Y-42038836D01*
X81560426Y-42072597D01*
X81560429Y-42072597D01*
X81560431Y-42072598D01*
X81597306Y-42075500D01*
X81597314Y-42075500D01*
X83259000Y-42075500D01*
X83326039Y-42095185D01*
X83371794Y-42147989D01*
X83383000Y-42199500D01*
X83383000Y-48908811D01*
X83363315Y-48975850D01*
X83346681Y-48996492D01*
X75922492Y-56420681D01*
X75861169Y-56454166D01*
X75834811Y-56457000D01*
X72744730Y-56457000D01*
X72677691Y-56437315D01*
X72657049Y-56420681D01*
X72643657Y-56407289D01*
X72643656Y-56407288D01*
X72494334Y-56315186D01*
X72327797Y-56260001D01*
X72327795Y-56260000D01*
X72263757Y-56253458D01*
X72261324Y-56252811D01*
X72259998Y-56253016D01*
X72247719Y-56249193D01*
X72226032Y-56243427D01*
X72223002Y-56242081D01*
X72135881Y-56197691D01*
X72094193Y-56184146D01*
X72088064Y-56182154D01*
X72088063Y-56182154D01*
X72033423Y-56164400D01*
X71965897Y-56142459D01*
X71965895Y-56142458D01*
X71965894Y-56142458D01*
X71789370Y-56114500D01*
X71789366Y-56114500D01*
X70289424Y-56114500D01*
X70222385Y-56094815D01*
X70183885Y-56055597D01*
X70142712Y-55988844D01*
X70018656Y-55864788D01*
X69869334Y-55772686D01*
X69702797Y-55717501D01*
X69702795Y-55717500D01*
X69600016Y-55707000D01*
X69600009Y-55707000D01*
X69007207Y-55707000D01*
X68968887Y-55700930D01*
X68965903Y-55699960D01*
X68965897Y-55699959D01*
X68789370Y-55672000D01*
X68789366Y-55672000D01*
X68610634Y-55672000D01*
X68610630Y-55672000D01*
X68434110Y-55699957D01*
X68434092Y-55699962D01*
X68431104Y-55700933D01*
X68392793Y-55707000D01*
X67799998Y-55707000D01*
X67799980Y-55707001D01*
X67697203Y-55717500D01*
X67697200Y-55717501D01*
X67530668Y-55772685D01*
X67530663Y-55772687D01*
X67381342Y-55864789D01*
X67257289Y-55988842D01*
X67165187Y-56138163D01*
X67165185Y-56138168D01*
X67163763Y-56142459D01*
X67110001Y-56304703D01*
X67110001Y-56304704D01*
X67110000Y-56304704D01*
X67099500Y-56407483D01*
X67099500Y-57207501D01*
X67099501Y-57207519D01*
X67110000Y-57310296D01*
X67110001Y-57310299D01*
X67165185Y-57476831D01*
X67165187Y-57476836D01*
X67200069Y-57533388D01*
X67257288Y-57626156D01*
X67381344Y-57750212D01*
X67505597Y-57826851D01*
X67552321Y-57878797D01*
X67564500Y-57932389D01*
X67564500Y-61919781D01*
X67544815Y-61986820D01*
X67505597Y-62025319D01*
X67421347Y-62077285D01*
X67421343Y-62077288D01*
X67297289Y-62201342D01*
X67205187Y-62350663D01*
X67205186Y-62350666D01*
X67150001Y-62517203D01*
X67150001Y-62517204D01*
X67150000Y-62517204D01*
X67139500Y-62619983D01*
X67139500Y-63420001D01*
X67139501Y-63420019D01*
X67150000Y-63522796D01*
X67150001Y-63522799D01*
X67205185Y-63689331D01*
X67205187Y-63689336D01*
X67219403Y-63712383D01*
X67297288Y-63838656D01*
X67421344Y-63962712D01*
X67570666Y-64054814D01*
X67737203Y-64109999D01*
X67839991Y-64120500D01*
X68432790Y-64120499D01*
X68471110Y-64126569D01*
X68473554Y-64127362D01*
X68474103Y-64127541D01*
X68545026Y-64138773D01*
X68650630Y-64155500D01*
X68650634Y-64155500D01*
X68829372Y-64155500D01*
X68909607Y-64142791D01*
X69005897Y-64127541D01*
X69007828Y-64126913D01*
X69008889Y-64126569D01*
X69047209Y-64120499D01*
X69640002Y-64120499D01*
X69640008Y-64120499D01*
X69742797Y-64109999D01*
X69909334Y-64054814D01*
X70058656Y-63962712D01*
X70182712Y-63838656D01*
X70240847Y-63744402D01*
X70292795Y-63697679D01*
X70346386Y-63685500D01*
X71396629Y-63685500D01*
X71434947Y-63691569D01*
X71484103Y-63707541D01*
X71542946Y-63716860D01*
X71660630Y-63735500D01*
X71660634Y-63735500D01*
X71839372Y-63735500D01*
X71928260Y-63721421D01*
X72015897Y-63707541D01*
X72185881Y-63652309D01*
X72345132Y-63571167D01*
X72422953Y-63514625D01*
X72439171Y-63504650D01*
X72447710Y-63500263D01*
X72494334Y-63484814D01*
X72576846Y-63433920D01*
X72581160Y-63431704D01*
X72606782Y-63426803D01*
X72637824Y-63418000D01*
X74985756Y-63418000D01*
X75052795Y-63437685D01*
X75054647Y-63438898D01*
X75106645Y-63473642D01*
X75126086Y-63486632D01*
X75126088Y-63486633D01*
X75126092Y-63486635D01*
X75277468Y-63549336D01*
X75308165Y-63562051D01*
X75308169Y-63562051D01*
X75308170Y-63562052D01*
X75501456Y-63600500D01*
X75501459Y-63600500D01*
X75698543Y-63600500D01*
X75846589Y-63571051D01*
X75891835Y-63562051D01*
X76073914Y-63486632D01*
X76145353Y-63438898D01*
X76212030Y-63418020D01*
X76214244Y-63418000D01*
X80109811Y-63418000D01*
X80176850Y-63437685D01*
X80197492Y-63454319D01*
X80563181Y-63820008D01*
X80596666Y-63881331D01*
X80599500Y-63907689D01*
X80599500Y-64600001D01*
X80599501Y-64600019D01*
X80610000Y-64702796D01*
X80610001Y-64702799D01*
X80626630Y-64752980D01*
X80665186Y-64869334D01*
X80757288Y-65018656D01*
X80881344Y-65142712D01*
X81030666Y-65234814D01*
X81197203Y-65289999D01*
X81299991Y-65300500D01*
X81900008Y-65300499D01*
X81900016Y-65300498D01*
X81900019Y-65300498D01*
X81956302Y-65294748D01*
X82002797Y-65289999D01*
X82169334Y-65234814D01*
X82318656Y-65142712D01*
X82442712Y-65018656D01*
X82446878Y-65011902D01*
X82454464Y-65005078D01*
X82458703Y-64995797D01*
X82480003Y-64982107D01*
X82498827Y-64965178D01*
X82510461Y-64962534D01*
X82517481Y-64958023D01*
X82552416Y-64953000D01*
X82559190Y-64953000D01*
X82626229Y-64972685D01*
X82671984Y-65025489D01*
X82681928Y-65094647D01*
X82678266Y-65111596D01*
X82666402Y-65152429D01*
X82666401Y-65152432D01*
X82663500Y-65189298D01*
X82663500Y-65620701D01*
X82666401Y-65657567D01*
X82666402Y-65657573D01*
X82712254Y-65815393D01*
X82712255Y-65815396D01*
X82712256Y-65815398D01*
X82736859Y-65857000D01*
X82795917Y-65956862D01*
X82795923Y-65956870D01*
X82912129Y-66073076D01*
X82912133Y-66073079D01*
X82912135Y-66073081D01*
X83053602Y-66156744D01*
X83095224Y-66168836D01*
X83211426Y-66202597D01*
X83211429Y-66202597D01*
X83211431Y-66202598D01*
X83248306Y-66205500D01*
X83248314Y-66205500D01*
X85029686Y-66205500D01*
X85029694Y-66205500D01*
X85066569Y-66202598D01*
X85066571Y-66202597D01*
X85066573Y-66202597D01*
X85160917Y-66175187D01*
X85224398Y-66156744D01*
X85365865Y-66073081D01*
X85482081Y-65956865D01*
X85565744Y-65815398D01*
X85611598Y-65657569D01*
X85614500Y-65620694D01*
X85614500Y-65189306D01*
X85611598Y-65152431D01*
X85611597Y-65152429D01*
X85611597Y-65152426D01*
X85570206Y-65009961D01*
X85565744Y-64994602D01*
X85482081Y-64853135D01*
X85482078Y-64853132D01*
X85477298Y-64846969D01*
X85479750Y-64845066D01*
X85453155Y-64796421D01*
X85458104Y-64726726D01*
X85478940Y-64694304D01*
X85477298Y-64693031D01*
X85482075Y-64686870D01*
X85482081Y-64686865D01*
X85565744Y-64545398D01*
X85609861Y-64393548D01*
X85611597Y-64387573D01*
X85611597Y-64387571D01*
X85611598Y-64387569D01*
X85614500Y-64350694D01*
X85614500Y-63919306D01*
X85611598Y-63882431D01*
X85611278Y-63881331D01*
X85565745Y-63724606D01*
X85565744Y-63724603D01*
X85565744Y-63724602D01*
X85482081Y-63583135D01*
X85482078Y-63583132D01*
X85477298Y-63576969D01*
X85479750Y-63575066D01*
X85453155Y-63526421D01*
X85458104Y-63456726D01*
X85478940Y-63424304D01*
X85477298Y-63423031D01*
X85482078Y-63416867D01*
X85482081Y-63416865D01*
X85492052Y-63400006D01*
X85527939Y-63339323D01*
X85565744Y-63275398D01*
X85611598Y-63117569D01*
X85614500Y-63080694D01*
X85614500Y-62649306D01*
X85611598Y-62612431D01*
X85606194Y-62593831D01*
X85565745Y-62454606D01*
X85565744Y-62454603D01*
X85565744Y-62454602D01*
X85482081Y-62313135D01*
X85482079Y-62313133D01*
X85482076Y-62313129D01*
X85365870Y-62196923D01*
X85365862Y-62196917D01*
X85224396Y-62113255D01*
X85224393Y-62113254D01*
X85066573Y-62067402D01*
X85066567Y-62067401D01*
X85029701Y-62064500D01*
X85029694Y-62064500D01*
X83248306Y-62064500D01*
X83248298Y-62064500D01*
X83211432Y-62067401D01*
X83211426Y-62067402D01*
X83053606Y-62113254D01*
X83053603Y-62113255D01*
X82912137Y-62196917D01*
X82912129Y-62196923D01*
X82795923Y-62313129D01*
X82795917Y-62313137D01*
X82712255Y-62454603D01*
X82712254Y-62454606D01*
X82666402Y-62612426D01*
X82666401Y-62612432D01*
X82663500Y-62649298D01*
X82663500Y-63053828D01*
X82643815Y-63120867D01*
X82591011Y-63166622D01*
X82521853Y-63176566D01*
X82458297Y-63147541D01*
X82444980Y-63133612D01*
X82318657Y-63007289D01*
X82318656Y-63007288D01*
X82169334Y-62915186D01*
X82169331Y-62915185D01*
X82002798Y-62860001D01*
X82002792Y-62860000D01*
X81950927Y-62854701D01*
X81886236Y-62828304D01*
X81875851Y-62819024D01*
X81021448Y-61964620D01*
X81021444Y-61964617D01*
X80887474Y-61875100D01*
X80887461Y-61875093D01*
X80738606Y-61813436D01*
X80738594Y-61813433D01*
X80580570Y-61782000D01*
X80580566Y-61782000D01*
X76214244Y-61782000D01*
X76147205Y-61762315D01*
X76145353Y-61761102D01*
X76073919Y-61713371D01*
X76073907Y-61713364D01*
X75891839Y-61637950D01*
X75891829Y-61637947D01*
X75698543Y-61599500D01*
X75698541Y-61599500D01*
X75501459Y-61599500D01*
X75501457Y-61599500D01*
X75308170Y-61637947D01*
X75308160Y-61637950D01*
X75126092Y-61713364D01*
X75126080Y-61713371D01*
X75054647Y-61761102D01*
X74987970Y-61781980D01*
X74985756Y-61782000D01*
X72769730Y-61782000D01*
X72702691Y-61762315D01*
X72682049Y-61745681D01*
X72643657Y-61707289D01*
X72643656Y-61707288D01*
X72494334Y-61615186D01*
X72327797Y-61560001D01*
X72327795Y-61560000D01*
X72263757Y-61553458D01*
X72261324Y-61552811D01*
X72259998Y-61553016D01*
X72247719Y-61549193D01*
X72226032Y-61543427D01*
X72223002Y-61542081D01*
X72135881Y-61497691D01*
X72094193Y-61484146D01*
X72088064Y-61482154D01*
X72088063Y-61482154D01*
X72040727Y-61466773D01*
X71965897Y-61442459D01*
X71965895Y-61442458D01*
X71965894Y-61442458D01*
X71789370Y-61414500D01*
X71789366Y-61414500D01*
X69959500Y-61414500D01*
X69892461Y-61394815D01*
X69846706Y-61342011D01*
X69835500Y-61290500D01*
X69835500Y-58509500D01*
X69855185Y-58442461D01*
X69907989Y-58396706D01*
X69959500Y-58385500D01*
X71301361Y-58385500D01*
X71357655Y-58399015D01*
X71364119Y-58402309D01*
X71534103Y-58457540D01*
X71625051Y-58471944D01*
X71710628Y-58485499D01*
X71710633Y-58485499D01*
X71889370Y-58485499D01*
X71957831Y-58474655D01*
X72065897Y-58457540D01*
X72235880Y-58402309D01*
X72395131Y-58321166D01*
X72476314Y-58262183D01*
X72539722Y-58216116D01*
X72539724Y-58216113D01*
X72539728Y-58216111D01*
X72626520Y-58129319D01*
X72687843Y-58095834D01*
X72714201Y-58093000D01*
X76305567Y-58093000D01*
X76305568Y-58092999D01*
X76463602Y-58061565D01*
X76555252Y-58023602D01*
X76612468Y-57999903D01*
X76746445Y-57910382D01*
X84836382Y-49820445D01*
X84925902Y-49686469D01*
X84975347Y-49567098D01*
X84987565Y-49537602D01*
X85019000Y-49379566D01*
X85019000Y-41346189D01*
X85038685Y-41279150D01*
X85091489Y-41233395D01*
X85160647Y-41223451D01*
X85224203Y-41252476D01*
X85230681Y-41258508D01*
X85768617Y-41796444D01*
X85768618Y-41796445D01*
X85882555Y-41910382D01*
X85972264Y-41970323D01*
X86017068Y-42023934D01*
X86025776Y-42093259D01*
X86013533Y-42127085D01*
X86014355Y-42127441D01*
X86011254Y-42134607D01*
X85965402Y-42292426D01*
X85965402Y-42292431D01*
X85962500Y-42329298D01*
X85962500Y-42760701D01*
X85965401Y-42797567D01*
X85965402Y-42797573D01*
X86011254Y-42955393D01*
X86011255Y-42955396D01*
X86011256Y-42955398D01*
X86031260Y-42989223D01*
X86094917Y-43096862D01*
X86094923Y-43096870D01*
X86211129Y-43213076D01*
X86211133Y-43213079D01*
X86211135Y-43213081D01*
X86352602Y-43296744D01*
X86394224Y-43308836D01*
X86510426Y-43342597D01*
X86510429Y-43342597D01*
X86510431Y-43342598D01*
X86547306Y-43345500D01*
X87106719Y-43345500D01*
X87173758Y-43365185D01*
X87194400Y-43381819D01*
X88027589Y-44215008D01*
X88077199Y-44264618D01*
X88114994Y-44302413D01*
X88114996Y-44302414D01*
X88217756Y-44371076D01*
X88217758Y-44371077D01*
X88217767Y-44371083D01*
X88235805Y-44378554D01*
X88235807Y-44378556D01*
X88235808Y-44378556D01*
X88265498Y-44390854D01*
X88331965Y-44418386D01*
X88453192Y-44442499D01*
X88453196Y-44442500D01*
X88453197Y-44442500D01*
X88576803Y-44442500D01*
X89443646Y-44442500D01*
X89510685Y-44462185D01*
X89556440Y-44514989D01*
X89561350Y-44527492D01*
X89570883Y-44556259D01*
X89580185Y-44584331D01*
X89580187Y-44584336D01*
X89580435Y-44584738D01*
X89672288Y-44733656D01*
X89796344Y-44857712D01*
X89945666Y-44949814D01*
X90112203Y-45004999D01*
X90214991Y-45015500D01*
X90840008Y-45015499D01*
X90840016Y-45015498D01*
X90840019Y-45015498D01*
X90896302Y-45009748D01*
X90942797Y-45004999D01*
X91109334Y-44949814D01*
X91258656Y-44857712D01*
X91352319Y-44764049D01*
X91413642Y-44730564D01*
X91483334Y-44735548D01*
X91527681Y-44764049D01*
X91621344Y-44857712D01*
X91770666Y-44949814D01*
X91937203Y-45004999D01*
X92039991Y-45015500D01*
X92665008Y-45015499D01*
X92665016Y-45015498D01*
X92665019Y-45015498D01*
X92721302Y-45009748D01*
X92767797Y-45004999D01*
X92934334Y-44949814D01*
X92949010Y-44940761D01*
X93016400Y-44922319D01*
X93083064Y-44943239D01*
X93101790Y-44958617D01*
X99070551Y-50927379D01*
X99070554Y-50927382D01*
X99159671Y-50986927D01*
X99204531Y-51016902D01*
X99204532Y-51016902D01*
X99204533Y-51016903D01*
X99207784Y-51018641D01*
X99209167Y-51020000D01*
X99209597Y-51020287D01*
X99209542Y-51020368D01*
X99257629Y-51067602D01*
X99273091Y-51135739D01*
X99249261Y-51201419D01*
X99193704Y-51243789D01*
X99149333Y-51252000D01*
X96439429Y-51252000D01*
X96281405Y-51283433D01*
X96281397Y-51283435D01*
X96213386Y-51311606D01*
X96213380Y-51311609D01*
X96207321Y-51314119D01*
X96132532Y-51345097D01*
X96052219Y-51398761D01*
X96047552Y-51401879D01*
X96047549Y-51401881D01*
X95998554Y-51434618D01*
X95941586Y-51491586D01*
X95884618Y-51548555D01*
X94714992Y-52718181D01*
X94653669Y-52751666D01*
X94627311Y-52754500D01*
X94518945Y-52754500D01*
X94487926Y-52759413D01*
X94329197Y-52784553D01*
X94146493Y-52843916D01*
X93975318Y-52931135D01*
X93923662Y-52968666D01*
X93819898Y-53044055D01*
X93819896Y-53044057D01*
X93819895Y-53044057D01*
X93684057Y-53179895D01*
X93684057Y-53179896D01*
X93684055Y-53179898D01*
X93656701Y-53217548D01*
X93571135Y-53335318D01*
X93483916Y-53506493D01*
X93424553Y-53689197D01*
X93394500Y-53878945D01*
X93394500Y-54071054D01*
X93424553Y-54260802D01*
X93483916Y-54443506D01*
X93530186Y-54534315D01*
X93571135Y-54614681D01*
X93684055Y-54770102D01*
X93819898Y-54905945D01*
X93975319Y-55018865D01*
X94146491Y-55106082D01*
X94146493Y-55106083D01*
X94237845Y-55135764D01*
X94329199Y-55165447D01*
X94518945Y-55195500D01*
X94518946Y-55195500D01*
X94711052Y-55195500D01*
X94711055Y-55195500D01*
X94733384Y-55191963D01*
X94802675Y-55200917D01*
X94856127Y-55245912D01*
X94876768Y-55312663D01*
X94858044Y-55379977D01*
X94840462Y-55402117D01*
X93756400Y-56486181D01*
X93695077Y-56519666D01*
X93668719Y-56522500D01*
X89973281Y-56522500D01*
X89906242Y-56502815D01*
X89885600Y-56486181D01*
X89563819Y-56164400D01*
X89530334Y-56103077D01*
X89527500Y-56076719D01*
X89527500Y-54813783D01*
X89547185Y-54746744D01*
X89563814Y-54726106D01*
X89677139Y-54612782D01*
X89786632Y-54448914D01*
X89862051Y-54266835D01*
X89900500Y-54073541D01*
X89900500Y-53876459D01*
X89900500Y-53876456D01*
X89862052Y-53683170D01*
X89862051Y-53683169D01*
X89862051Y-53683165D01*
X89850780Y-53655955D01*
X89786635Y-53501092D01*
X89786628Y-53501079D01*
X89677139Y-53337218D01*
X89677136Y-53337214D01*
X89537785Y-53197863D01*
X89537781Y-53197860D01*
X89373920Y-53088371D01*
X89373907Y-53088364D01*
X89191839Y-53012950D01*
X89191829Y-53012947D01*
X88998543Y-52974500D01*
X88998541Y-52974500D01*
X88801459Y-52974500D01*
X88801457Y-52974500D01*
X88608170Y-53012947D01*
X88608160Y-53012950D01*
X88426092Y-53088364D01*
X88426079Y-53088371D01*
X88262218Y-53197860D01*
X88262214Y-53197863D01*
X88122863Y-53337214D01*
X88122860Y-53337218D01*
X88013371Y-53501079D01*
X88013364Y-53501092D01*
X87937950Y-53683160D01*
X87937947Y-53683170D01*
X87899500Y-53876456D01*
X87899500Y-53876459D01*
X87899500Y-54073541D01*
X87899500Y-54073543D01*
X87899499Y-54073543D01*
X87937947Y-54266829D01*
X87937950Y-54266839D01*
X88013364Y-54448907D01*
X88013371Y-54448920D01*
X88122859Y-54612780D01*
X88122860Y-54612781D01*
X88122861Y-54612782D01*
X88236182Y-54726103D01*
X88269666Y-54787424D01*
X88272500Y-54813783D01*
X88272500Y-56449807D01*
X88287575Y-56525594D01*
X88296614Y-56571035D01*
X88320440Y-56628555D01*
X88343917Y-56685233D01*
X88401105Y-56770821D01*
X88403738Y-56774762D01*
X88403740Y-56774765D01*
X88412590Y-56788010D01*
X88412591Y-56788011D01*
X89174589Y-57550008D01*
X89225923Y-57601342D01*
X89261994Y-57637413D01*
X89261996Y-57637414D01*
X89312932Y-57671448D01*
X89364767Y-57706083D01*
X89364769Y-57706083D01*
X89364771Y-57706085D01*
X89375686Y-57710606D01*
X89375691Y-57710607D01*
X89478966Y-57753386D01*
X89598679Y-57777198D01*
X89600192Y-57777499D01*
X89600196Y-57777500D01*
X89600197Y-57777500D01*
X94041804Y-57777500D01*
X94041805Y-57777499D01*
X94163035Y-57753386D01*
X94236063Y-57723135D01*
X94266314Y-57710606D01*
X94266316Y-57710604D01*
X94277233Y-57706083D01*
X94380008Y-57637411D01*
X94467411Y-57550008D01*
X96809652Y-55207765D01*
X96870973Y-55174282D01*
X96916729Y-55172975D01*
X97058945Y-55195500D01*
X97058946Y-55195500D01*
X97251054Y-55195500D01*
X97251055Y-55195500D01*
X97440801Y-55165447D01*
X97623509Y-55106082D01*
X97794681Y-55018865D01*
X97950102Y-54905945D01*
X98085945Y-54770102D01*
X98198865Y-54614681D01*
X98286082Y-54443509D01*
X98286084Y-54443504D01*
X98307069Y-54378919D01*
X98346506Y-54321243D01*
X98410864Y-54294044D01*
X98479711Y-54305958D01*
X98531187Y-54353202D01*
X98542931Y-54378919D01*
X98563915Y-54443504D01*
X98610186Y-54534315D01*
X98651135Y-54614681D01*
X98759634Y-54764017D01*
X98783114Y-54829823D01*
X98767289Y-54897877D01*
X98746997Y-54924583D01*
X94971572Y-58700009D01*
X91547992Y-62123589D01*
X91522152Y-62149429D01*
X91460586Y-62210994D01*
X91460585Y-62210996D01*
X91391233Y-62314789D01*
X91389586Y-62319393D01*
X91344614Y-62427964D01*
X91344612Y-62427972D01*
X91326863Y-62517204D01*
X91320500Y-62549192D01*
X91320500Y-64047231D01*
X91300815Y-64114270D01*
X91261596Y-64152770D01*
X91168344Y-64210287D01*
X91044289Y-64334342D01*
X90952184Y-64483668D01*
X90946108Y-64502006D01*
X90932238Y-64522037D01*
X90922116Y-64544203D01*
X90912703Y-64550251D01*
X90906335Y-64559450D01*
X90883836Y-64568803D01*
X90863338Y-64581977D01*
X90846233Y-64584436D01*
X90841818Y-64586272D01*
X90828403Y-64587000D01*
X90668810Y-64587000D01*
X90601771Y-64567315D01*
X90556016Y-64514511D01*
X90546072Y-64445353D01*
X90549734Y-64428404D01*
X90561598Y-64387569D01*
X90564500Y-64350694D01*
X90564500Y-63919306D01*
X90561598Y-63882431D01*
X90561278Y-63881331D01*
X90515745Y-63724606D01*
X90515744Y-63724603D01*
X90515744Y-63724602D01*
X90432081Y-63583135D01*
X90432078Y-63583132D01*
X90427298Y-63576969D01*
X90429750Y-63575066D01*
X90403155Y-63526421D01*
X90408104Y-63456726D01*
X90428940Y-63424304D01*
X90427298Y-63423031D01*
X90432078Y-63416867D01*
X90432081Y-63416865D01*
X90442052Y-63400006D01*
X90477939Y-63339323D01*
X90515744Y-63275398D01*
X90561598Y-63117569D01*
X90564500Y-63080694D01*
X90564500Y-62649306D01*
X90561598Y-62612431D01*
X90556194Y-62593831D01*
X90515745Y-62454606D01*
X90515744Y-62454603D01*
X90515744Y-62454602D01*
X90432081Y-62313135D01*
X90432079Y-62313133D01*
X90432076Y-62313129D01*
X90315870Y-62196923D01*
X90315862Y-62196917D01*
X90174396Y-62113255D01*
X90174393Y-62113254D01*
X90016573Y-62067402D01*
X90016567Y-62067401D01*
X89979701Y-62064500D01*
X89979694Y-62064500D01*
X88198306Y-62064500D01*
X88198298Y-62064500D01*
X88161432Y-62067401D01*
X88161426Y-62067402D01*
X88003606Y-62113254D01*
X88003603Y-62113255D01*
X87862137Y-62196917D01*
X87862129Y-62196923D01*
X87745923Y-62313129D01*
X87745917Y-62313137D01*
X87662255Y-62454603D01*
X87662254Y-62454606D01*
X87616402Y-62612426D01*
X87616401Y-62612432D01*
X87613500Y-62649298D01*
X87613500Y-63080701D01*
X87616401Y-63117567D01*
X87616402Y-63117573D01*
X87662254Y-63275393D01*
X87662255Y-63275396D01*
X87662256Y-63275398D01*
X87669084Y-63286944D01*
X87735948Y-63400006D01*
X87745919Y-63416865D01*
X87745921Y-63416867D01*
X87750702Y-63423031D01*
X87748256Y-63424927D01*
X87774857Y-63473642D01*
X87769873Y-63543334D01*
X87749069Y-63575703D01*
X87750702Y-63576969D01*
X87745917Y-63583137D01*
X87662255Y-63724603D01*
X87662254Y-63724606D01*
X87616402Y-63882426D01*
X87616401Y-63882432D01*
X87613500Y-63919298D01*
X87613500Y-64350701D01*
X87616401Y-64387567D01*
X87616402Y-64387573D01*
X87662254Y-64545393D01*
X87662255Y-64545396D01*
X87745917Y-64686862D01*
X87750702Y-64693031D01*
X87748256Y-64694927D01*
X87774857Y-64743642D01*
X87769873Y-64813334D01*
X87749069Y-64845703D01*
X87750702Y-64846969D01*
X87745917Y-64853137D01*
X87662255Y-64994603D01*
X87662254Y-64994606D01*
X87616402Y-65152426D01*
X87616401Y-65152432D01*
X87613500Y-65189298D01*
X87613500Y-65620701D01*
X87616401Y-65657567D01*
X87616402Y-65657573D01*
X87662254Y-65815393D01*
X87662255Y-65815396D01*
X87662256Y-65815398D01*
X87686859Y-65857000D01*
X87745917Y-65956862D01*
X87750702Y-65963031D01*
X87748256Y-65964927D01*
X87774857Y-66013642D01*
X87769873Y-66083334D01*
X87749069Y-66115703D01*
X87750702Y-66116969D01*
X87745917Y-66123137D01*
X87662255Y-66264603D01*
X87662254Y-66264606D01*
X87616402Y-66422426D01*
X87616401Y-66422432D01*
X87613500Y-66459298D01*
X87613500Y-66890701D01*
X87616401Y-66927567D01*
X87616402Y-66927573D01*
X87662254Y-67085393D01*
X87662255Y-67085396D01*
X87745917Y-67226862D01*
X87745923Y-67226870D01*
X87862129Y-67343076D01*
X87862133Y-67343079D01*
X87862135Y-67343081D01*
X88003602Y-67426744D01*
X88045224Y-67438836D01*
X88161426Y-67472597D01*
X88161429Y-67472597D01*
X88161431Y-67472598D01*
X88198306Y-67475500D01*
X88198314Y-67475500D01*
X89979686Y-67475500D01*
X89979694Y-67475500D01*
X90016569Y-67472598D01*
X90016571Y-67472597D01*
X90016573Y-67472597D01*
X90081182Y-67453826D01*
X90174398Y-67426744D01*
X90315865Y-67343081D01*
X90432081Y-67226865D01*
X90515744Y-67085398D01*
X90559090Y-66936203D01*
X90561597Y-66927573D01*
X90561598Y-66927567D01*
X90564500Y-66890694D01*
X90564500Y-66459306D01*
X90561598Y-66422431D01*
X90549734Y-66381595D01*
X90549808Y-66355341D01*
X90546072Y-66329353D01*
X90549906Y-66320956D01*
X90549933Y-66311727D01*
X90564189Y-66289681D01*
X90575097Y-66265797D01*
X90582861Y-66260807D01*
X90587874Y-66253056D01*
X90611790Y-66242216D01*
X90633875Y-66228023D01*
X90647391Y-66226079D01*
X90651512Y-66224212D01*
X90668810Y-66223000D01*
X90879000Y-66223000D01*
X90946039Y-66242685D01*
X90991794Y-66295489D01*
X91003000Y-66347000D01*
X91003000Y-66652116D01*
X90984540Y-66717210D01*
X90952186Y-66769666D01*
X90897001Y-66936203D01*
X90897001Y-66936204D01*
X90897000Y-66936204D01*
X90886500Y-67038983D01*
X90886500Y-67625718D01*
X90866815Y-67692757D01*
X90850181Y-67713399D01*
X88688109Y-69875470D01*
X88626786Y-69908955D01*
X88563058Y-69904397D01*
X88562658Y-69905716D01*
X88556828Y-69903947D01*
X88363543Y-69865500D01*
X88363541Y-69865500D01*
X88166459Y-69865500D01*
X88166457Y-69865500D01*
X87973170Y-69903947D01*
X87973160Y-69903950D01*
X87791092Y-69979364D01*
X87791079Y-69979371D01*
X87627218Y-70088860D01*
X87627214Y-70088863D01*
X87487863Y-70228214D01*
X87487860Y-70228218D01*
X87378371Y-70392079D01*
X87378364Y-70392092D01*
X87302950Y-70574160D01*
X87302947Y-70574170D01*
X87264500Y-70767456D01*
X87264500Y-70767459D01*
X87264500Y-70964541D01*
X87264500Y-70964543D01*
X87264499Y-70964543D01*
X87302947Y-71157829D01*
X87302950Y-71157839D01*
X87378364Y-71339907D01*
X87378371Y-71339920D01*
X87487860Y-71503781D01*
X87487863Y-71503785D01*
X87627214Y-71643136D01*
X87627218Y-71643139D01*
X87791079Y-71752628D01*
X87791092Y-71752635D01*
X87973160Y-71828049D01*
X87973165Y-71828051D01*
X87973169Y-71828051D01*
X87973170Y-71828052D01*
X88166456Y-71866500D01*
X88166459Y-71866500D01*
X88363543Y-71866500D01*
X88493582Y-71840632D01*
X88556835Y-71828051D01*
X88738914Y-71752632D01*
X88902782Y-71643139D01*
X89042139Y-71503782D01*
X89151632Y-71339914D01*
X89227051Y-71157835D01*
X89231250Y-71136720D01*
X89263634Y-71074810D01*
X89265129Y-71073288D01*
X91512601Y-68825816D01*
X91573922Y-68792333D01*
X91600270Y-68789499D01*
X92187008Y-68789499D01*
X92187016Y-68789498D01*
X92187019Y-68789498D01*
X92243302Y-68783748D01*
X92289797Y-68778999D01*
X92456334Y-68723814D01*
X92605656Y-68631712D01*
X92729712Y-68507656D01*
X92821814Y-68358334D01*
X92876999Y-68191797D01*
X92887500Y-68089009D01*
X92887499Y-67038992D01*
X92876999Y-66936203D01*
X92821814Y-66769666D01*
X92729712Y-66620344D01*
X92675319Y-66565951D01*
X92660615Y-66539023D01*
X92644023Y-66513205D01*
X92643131Y-66507004D01*
X92641834Y-66504628D01*
X92639000Y-66478270D01*
X92639000Y-66363730D01*
X92658685Y-66296691D01*
X92675319Y-66276049D01*
X92699541Y-66251827D01*
X92729712Y-66221656D01*
X92821814Y-66072334D01*
X92876999Y-65905797D01*
X92887500Y-65803009D01*
X92887499Y-64752992D01*
X92882371Y-64702796D01*
X92876999Y-64650203D01*
X92876998Y-64650200D01*
X92860474Y-64600335D01*
X92821814Y-64483666D01*
X92729712Y-64334344D01*
X92611818Y-64216450D01*
X92578334Y-64155127D01*
X92575500Y-64128769D01*
X92575500Y-62922281D01*
X92595185Y-62855242D01*
X92611819Y-62834600D01*
X100182404Y-55264015D01*
X100182410Y-55264009D01*
X100228187Y-55195500D01*
X100251083Y-55161233D01*
X100286257Y-55076313D01*
X100330097Y-55021910D01*
X100333959Y-55019388D01*
X100334673Y-55018868D01*
X100334681Y-55018865D01*
X100490102Y-54905945D01*
X100625945Y-54770102D01*
X100738865Y-54614681D01*
X100826082Y-54443509D01*
X100885447Y-54260801D01*
X100915500Y-54071055D01*
X100915500Y-53878945D01*
X100885447Y-53689199D01*
X100852728Y-53588500D01*
X100826083Y-53506493D01*
X100794253Y-53444023D01*
X100738865Y-53335319D01*
X100625945Y-53179898D01*
X100545728Y-53099681D01*
X100512243Y-53038358D01*
X100517227Y-52968666D01*
X100559099Y-52912733D01*
X100624563Y-52888316D01*
X100633409Y-52888000D01*
X103749811Y-52888000D01*
X103816850Y-52907685D01*
X103837492Y-52924319D01*
X104788181Y-53875007D01*
X104821666Y-53936330D01*
X104824500Y-53962688D01*
X104824500Y-54071054D01*
X104854553Y-54260802D01*
X104913916Y-54443506D01*
X104960186Y-54534315D01*
X105001135Y-54614681D01*
X105114055Y-54770102D01*
X105249898Y-54905945D01*
X105405319Y-55018865D01*
X105576491Y-55106082D01*
X105576493Y-55106083D01*
X105667845Y-55135764D01*
X105759199Y-55165447D01*
X105948945Y-55195500D01*
X105948946Y-55195500D01*
X106141054Y-55195500D01*
X106141055Y-55195500D01*
X106330801Y-55165447D01*
X106513509Y-55106082D01*
X106684681Y-55018865D01*
X106840102Y-54905945D01*
X106975945Y-54770102D01*
X107088865Y-54614681D01*
X107176082Y-54443509D01*
X107176084Y-54443504D01*
X107197069Y-54378919D01*
X107236506Y-54321243D01*
X107300864Y-54294044D01*
X107369711Y-54305958D01*
X107421187Y-54353202D01*
X107432931Y-54378919D01*
X107453915Y-54443504D01*
X107500186Y-54534315D01*
X107541135Y-54614681D01*
X107654055Y-54770102D01*
X107654057Y-54770104D01*
X107730681Y-54846728D01*
X107764166Y-54908051D01*
X107767000Y-54934409D01*
X107767000Y-55489810D01*
X107747315Y-55556849D01*
X107730681Y-55577491D01*
X106044620Y-57263551D01*
X106044617Y-57263555D01*
X105955098Y-57397528D01*
X105955097Y-57397531D01*
X105934511Y-57447231D01*
X105934511Y-57447232D01*
X105893435Y-57546397D01*
X105893433Y-57546405D01*
X105862000Y-57704429D01*
X105862000Y-62390676D01*
X105842315Y-62457715D01*
X105789511Y-62503470D01*
X105720353Y-62513414D01*
X105656797Y-62484389D01*
X105631268Y-62453797D01*
X105593938Y-62390676D01*
X105548081Y-62313135D01*
X105548078Y-62313132D01*
X105548076Y-62313129D01*
X105431870Y-62196923D01*
X105431862Y-62196917D01*
X105290396Y-62113255D01*
X105290393Y-62113254D01*
X105132573Y-62067402D01*
X105132567Y-62067401D01*
X105095701Y-62064500D01*
X105095694Y-62064500D01*
X104385756Y-62064500D01*
X104361565Y-62062117D01*
X104328409Y-62055521D01*
X104285567Y-62047000D01*
X104285566Y-62047000D01*
X104124434Y-62047000D01*
X104124433Y-62047000D01*
X104081590Y-62055521D01*
X104048434Y-62062117D01*
X104024244Y-62064500D01*
X103314298Y-62064500D01*
X103277432Y-62067401D01*
X103277426Y-62067402D01*
X103119606Y-62113254D01*
X103119603Y-62113255D01*
X102978137Y-62196917D01*
X102978129Y-62196923D01*
X102861923Y-62313129D01*
X102861917Y-62313137D01*
X102778255Y-62454603D01*
X102778254Y-62454606D01*
X102732402Y-62612426D01*
X102732401Y-62612432D01*
X102729500Y-62649298D01*
X102729500Y-63080701D01*
X102732401Y-63117567D01*
X102732402Y-63117570D01*
X102744266Y-63158404D01*
X102744067Y-63228273D01*
X102706126Y-63286944D01*
X102642488Y-63315788D01*
X102625190Y-63317000D01*
X102256471Y-63317000D01*
X102189432Y-63297315D01*
X102143677Y-63244511D01*
X102133733Y-63175353D01*
X102150931Y-63127905D01*
X102214814Y-63024334D01*
X102269999Y-62857797D01*
X102280500Y-62755009D01*
X102280499Y-61704992D01*
X102273650Y-61637949D01*
X102269999Y-61602203D01*
X102269998Y-61602200D01*
X102269103Y-61599500D01*
X102214814Y-61435666D01*
X102122712Y-61286344D01*
X102122710Y-61286342D01*
X102118920Y-61280197D01*
X102120762Y-61279060D01*
X102098593Y-61224102D01*
X102098000Y-61211990D01*
X102098000Y-60305433D01*
X102097999Y-60305429D01*
X102066566Y-60147405D01*
X102066565Y-60147398D01*
X102035733Y-60072965D01*
X102004903Y-59998533D01*
X101915380Y-59864552D01*
X101801447Y-59750619D01*
X101730493Y-59703210D01*
X101667468Y-59661098D01*
X101667466Y-59661097D01*
X101667457Y-59661091D01*
X101666800Y-59660740D01*
X101656377Y-59654492D01*
X101598185Y-59615609D01*
X101598172Y-59615602D01*
X101452501Y-59555264D01*
X101452489Y-59555261D01*
X101297845Y-59524500D01*
X101297842Y-59524500D01*
X101140158Y-59524500D01*
X101140155Y-59524500D01*
X100985510Y-59555261D01*
X100985498Y-59555264D01*
X100839827Y-59615602D01*
X100839814Y-59615609D01*
X100708711Y-59703210D01*
X100708707Y-59703213D01*
X100597213Y-59814707D01*
X100597210Y-59814711D01*
X100509609Y-59945814D01*
X100509602Y-59945827D01*
X100449264Y-60091498D01*
X100449261Y-60091510D01*
X100418500Y-60246153D01*
X100418500Y-60403846D01*
X100449261Y-60558489D01*
X100449263Y-60558498D01*
X100452560Y-60566456D01*
X100462000Y-60613911D01*
X100462000Y-61211990D01*
X100442315Y-61279029D01*
X100438533Y-61284325D01*
X100345187Y-61435663D01*
X100345186Y-61435666D01*
X100290001Y-61602203D01*
X100290001Y-61602204D01*
X100290000Y-61602204D01*
X100279500Y-61704983D01*
X100279500Y-62022310D01*
X100259815Y-62089349D01*
X100243181Y-62109991D01*
X98782120Y-63571051D01*
X98782117Y-63571054D01*
X98692596Y-63705033D01*
X98690719Y-63709565D01*
X98688968Y-63712383D01*
X98688703Y-63714167D01*
X98681049Y-63725132D01*
X98669477Y-63743765D01*
X98666751Y-63746879D01*
X98562288Y-63851344D01*
X98531114Y-63901884D01*
X98524313Y-63909657D01*
X98503194Y-63923084D01*
X98484587Y-63939821D01*
X98472581Y-63942549D01*
X98465352Y-63947146D01*
X98452627Y-63947084D01*
X98430996Y-63952000D01*
X98217429Y-63952000D01*
X98059405Y-63983433D01*
X98059397Y-63983435D01*
X97941405Y-64032310D01*
X97941404Y-64032310D01*
X97910535Y-64045096D01*
X97776552Y-64134619D01*
X96519620Y-65391551D01*
X96519617Y-65391555D01*
X96430098Y-65525528D01*
X96430097Y-65525531D01*
X96400120Y-65597903D01*
X96400120Y-65597904D01*
X96368435Y-65674397D01*
X96368433Y-65674405D01*
X96337000Y-65832429D01*
X96337000Y-72216570D01*
X96368433Y-72374595D01*
X96368436Y-72374606D01*
X96377918Y-72397494D01*
X96377919Y-72397500D01*
X96377920Y-72397500D01*
X96430097Y-72523468D01*
X96430098Y-72523471D01*
X96519617Y-72657444D01*
X96519620Y-72657448D01*
X98030554Y-74168382D01*
X98164525Y-74257898D01*
X98164531Y-74257902D01*
X98185211Y-74266468D01*
X98208124Y-74275959D01*
X98208129Y-74275960D01*
X98208133Y-74275962D01*
X98313398Y-74319565D01*
X98471429Y-74350999D01*
X98471433Y-74351000D01*
X98471434Y-74351000D01*
X121546969Y-74351000D01*
X121614008Y-74370685D01*
X121615860Y-74371898D01*
X121649279Y-74394228D01*
X121649292Y-74394235D01*
X121831360Y-74469649D01*
X121831365Y-74469651D01*
X121831369Y-74469651D01*
X121831370Y-74469652D01*
X122024656Y-74508100D01*
X122024659Y-74508100D01*
X122221743Y-74508100D01*
X122351782Y-74482232D01*
X122415035Y-74469651D01*
X122597114Y-74394232D01*
X122597213Y-74394166D01*
X122630540Y-74371898D01*
X122697217Y-74351020D01*
X122699431Y-74351000D01*
X125957567Y-74351000D01*
X125957568Y-74350999D01*
X126115602Y-74319565D01*
X126190035Y-74288733D01*
X126264468Y-74257903D01*
X126398445Y-74168382D01*
X126525008Y-74041817D01*
X126586331Y-74008333D01*
X126612690Y-74005499D01*
X127670002Y-74005499D01*
X127670008Y-74005499D01*
X127772797Y-73994999D01*
X127939334Y-73939814D01*
X128088656Y-73847712D01*
X128212712Y-73723656D01*
X128304814Y-73574334D01*
X128359999Y-73407797D01*
X128370500Y-73305009D01*
X128370499Y-71514992D01*
X128365426Y-71465335D01*
X128359999Y-71412203D01*
X128359998Y-71412200D01*
X128346743Y-71372200D01*
X128304814Y-71245666D01*
X128212712Y-71096344D01*
X128088656Y-70972288D01*
X127939334Y-70880186D01*
X127772797Y-70825001D01*
X127772795Y-70825000D01*
X127670010Y-70814500D01*
X126329998Y-70814500D01*
X126329981Y-70814501D01*
X126227203Y-70825000D01*
X126227200Y-70825001D01*
X126060668Y-70880185D01*
X126060663Y-70880187D01*
X125911342Y-70972289D01*
X125787289Y-71096342D01*
X125695187Y-71245663D01*
X125695186Y-71245666D01*
X125640001Y-71412203D01*
X125640001Y-71412204D01*
X125640000Y-71412204D01*
X125629500Y-71514983D01*
X125629500Y-72572309D01*
X125620856Y-72601743D01*
X125614334Y-72631733D01*
X125610577Y-72636751D01*
X125609815Y-72639348D01*
X125593184Y-72659988D01*
X125574494Y-72678679D01*
X125513171Y-72712166D01*
X125486810Y-72715000D01*
X122775458Y-72715000D01*
X122708419Y-72695315D01*
X122706567Y-72694102D01*
X122597120Y-72620971D01*
X122597107Y-72620964D01*
X122415039Y-72545550D01*
X122415029Y-72545547D01*
X122221743Y-72507100D01*
X122221741Y-72507100D01*
X122024659Y-72507100D01*
X122024657Y-72507100D01*
X121831370Y-72545547D01*
X121831360Y-72545550D01*
X121649292Y-72620964D01*
X121649279Y-72620971D01*
X121539833Y-72694102D01*
X121473156Y-72714980D01*
X121470942Y-72715000D01*
X113218668Y-72715000D01*
X113151629Y-72695315D01*
X113105874Y-72642511D01*
X113095930Y-72573353D01*
X113124955Y-72509797D01*
X113160222Y-72481638D01*
X113163464Y-72479904D01*
X113163468Y-72479903D01*
X113297445Y-72390382D01*
X114577882Y-71109945D01*
X114667402Y-70975968D01*
X114685495Y-70932288D01*
X114712413Y-70867299D01*
X114713064Y-70866222D01*
X114713144Y-70865573D01*
X114715948Y-70861443D01*
X114731611Y-70835496D01*
X114735253Y-70831113D01*
X114797712Y-70768656D01*
X114828055Y-70719461D01*
X114833643Y-70712739D01*
X114855676Y-70697930D01*
X114875413Y-70680179D01*
X114885500Y-70677886D01*
X114891633Y-70673765D01*
X114904828Y-70673494D01*
X114929004Y-70668000D01*
X118130756Y-70668000D01*
X118197795Y-70687685D01*
X118199647Y-70688898D01*
X118271086Y-70736632D01*
X118271088Y-70736633D01*
X118271092Y-70736635D01*
X118453160Y-70812049D01*
X118453165Y-70812051D01*
X118453169Y-70812051D01*
X118453170Y-70812052D01*
X118646456Y-70850500D01*
X118646459Y-70850500D01*
X118843543Y-70850500D01*
X118973582Y-70824632D01*
X119036835Y-70812051D01*
X119177655Y-70753721D01*
X119218907Y-70736635D01*
X119218907Y-70736634D01*
X119218914Y-70736632D01*
X119382782Y-70627139D01*
X119522139Y-70487782D01*
X119631632Y-70323914D01*
X119707051Y-70141835D01*
X119738307Y-69984704D01*
X119745500Y-69948543D01*
X119745500Y-69751456D01*
X119707052Y-69558170D01*
X119707051Y-69558169D01*
X119707051Y-69558165D01*
X119631632Y-69376086D01*
X119631626Y-69376077D01*
X119583897Y-69304643D01*
X119563020Y-69237966D01*
X119563000Y-69235754D01*
X119563000Y-62149433D01*
X119562999Y-62149429D01*
X119538312Y-62025319D01*
X119531565Y-61991398D01*
X119489565Y-61890001D01*
X119469903Y-61842532D01*
X119469902Y-61842530D01*
X119469901Y-61842528D01*
X119380382Y-61708555D01*
X119380379Y-61708551D01*
X114186448Y-56514620D01*
X114186444Y-56514617D01*
X114052471Y-56425098D01*
X114052468Y-56425097D01*
X113903603Y-56363436D01*
X113903595Y-56363434D01*
X113745568Y-56332000D01*
X113745566Y-56332000D01*
X113584434Y-56332000D01*
X113584432Y-56332000D01*
X113426404Y-56363434D01*
X113426396Y-56363436D01*
X113277531Y-56425097D01*
X113277528Y-56425098D01*
X113143555Y-56514617D01*
X113143551Y-56514620D01*
X113029620Y-56628551D01*
X113029617Y-56628555D01*
X112940098Y-56762528D01*
X112940097Y-56762531D01*
X112878436Y-56911396D01*
X112878434Y-56911404D01*
X112847000Y-57069431D01*
X112847000Y-57069434D01*
X112847000Y-57230566D01*
X112847000Y-57230568D01*
X112846999Y-57230568D01*
X112878434Y-57388595D01*
X112878436Y-57388603D01*
X112940097Y-57537468D01*
X112940098Y-57537471D01*
X113029617Y-57671444D01*
X113029620Y-57671448D01*
X117890681Y-62532508D01*
X117924166Y-62593831D01*
X117927000Y-62620189D01*
X117927000Y-68908000D01*
X117907315Y-68975039D01*
X117854511Y-69020794D01*
X117803000Y-69032000D01*
X114929004Y-69032000D01*
X114861965Y-69012315D01*
X114823465Y-68973097D01*
X114797712Y-68931344D01*
X114673656Y-68807288D01*
X114580888Y-68750069D01*
X114524336Y-68715187D01*
X114524331Y-68715185D01*
X114523853Y-68715026D01*
X114471579Y-68697704D01*
X114414136Y-68657934D01*
X114387313Y-68593418D01*
X114399628Y-68524642D01*
X114447171Y-68473442D01*
X114471575Y-68462296D01*
X114524334Y-68444814D01*
X114673656Y-68352712D01*
X114797712Y-68228656D01*
X114834259Y-68169402D01*
X114886207Y-68122679D01*
X114939798Y-68110500D01*
X115013844Y-68110500D01*
X115013845Y-68110499D01*
X115168497Y-68079737D01*
X115314179Y-68019394D01*
X115445289Y-67931789D01*
X115556789Y-67820289D01*
X115644394Y-67689179D01*
X115704737Y-67543497D01*
X115735500Y-67388842D01*
X115735500Y-67231158D01*
X115735500Y-67231155D01*
X115735499Y-67231153D01*
X115722347Y-67165033D01*
X115704737Y-67076503D01*
X115666282Y-66983664D01*
X115644397Y-66930827D01*
X115644390Y-66930814D01*
X115556789Y-66799711D01*
X115556786Y-66799707D01*
X115445292Y-66688213D01*
X115445288Y-66688210D01*
X115314185Y-66600609D01*
X115314172Y-66600602D01*
X115168501Y-66540264D01*
X115168489Y-66540261D01*
X115013845Y-66509500D01*
X115013842Y-66509500D01*
X114939798Y-66509500D01*
X114872759Y-66489815D01*
X114834259Y-66450597D01*
X114797712Y-66391344D01*
X114673656Y-66267288D01*
X114573481Y-66205500D01*
X114524336Y-66175187D01*
X114524331Y-66175185D01*
X114523853Y-66175026D01*
X114471579Y-66157704D01*
X114414136Y-66117934D01*
X114387313Y-66053418D01*
X114399628Y-65984642D01*
X114447171Y-65933442D01*
X114471575Y-65922296D01*
X114524334Y-65904814D01*
X114673656Y-65812712D01*
X114797712Y-65688656D01*
X114889814Y-65539334D01*
X114944999Y-65372797D01*
X114955500Y-65270009D01*
X114955499Y-64269992D01*
X114944999Y-64167203D01*
X114889814Y-64000666D01*
X114797712Y-63851344D01*
X114673656Y-63727288D01*
X114524334Y-63635186D01*
X114357797Y-63580001D01*
X114357795Y-63580000D01*
X114255010Y-63569500D01*
X113629998Y-63569500D01*
X113629980Y-63569501D01*
X113527203Y-63580000D01*
X113527200Y-63580001D01*
X113360668Y-63635185D01*
X113360663Y-63635187D01*
X113211342Y-63727289D01*
X113117681Y-63820951D01*
X113056358Y-63854436D01*
X112986666Y-63849452D01*
X112942319Y-63820951D01*
X112848657Y-63727289D01*
X112848656Y-63727288D01*
X112699334Y-63635186D01*
X112658776Y-63621746D01*
X112601332Y-63581974D01*
X112574509Y-63517458D01*
X112586824Y-63448682D01*
X112634367Y-63397483D01*
X112645382Y-63391656D01*
X112649319Y-63389818D01*
X112649334Y-63389814D01*
X112798656Y-63297712D01*
X112922712Y-63173656D01*
X113014814Y-63024334D01*
X113069999Y-62857797D01*
X113080500Y-62755009D01*
X113080499Y-61704992D01*
X113073650Y-61637949D01*
X113069999Y-61602203D01*
X113069998Y-61602200D01*
X113069103Y-61599500D01*
X113014814Y-61435666D01*
X112977461Y-61375106D01*
X112959000Y-61310010D01*
X112959000Y-60752433D01*
X112958999Y-60752429D01*
X112927566Y-60594405D01*
X112927565Y-60594398D01*
X112896733Y-60519965D01*
X112865903Y-60445533D01*
X112776380Y-60311552D01*
X112662447Y-60197619D01*
X112528466Y-60108096D01*
X112379602Y-60046435D01*
X112379594Y-60046433D01*
X112221570Y-60015000D01*
X112221566Y-60015000D01*
X112060434Y-60015000D01*
X112060429Y-60015000D01*
X111902405Y-60046433D01*
X111902397Y-60046435D01*
X111753533Y-60108096D01*
X111619552Y-60197619D01*
X111505619Y-60311552D01*
X111416096Y-60445533D01*
X111354435Y-60594397D01*
X111354433Y-60594405D01*
X111323000Y-60752429D01*
X111323000Y-61149270D01*
X111303315Y-61216309D01*
X111286681Y-61236951D01*
X111237289Y-61286342D01*
X111145187Y-61435663D01*
X111145186Y-61435666D01*
X111090001Y-61602203D01*
X111090001Y-61602204D01*
X111090000Y-61602204D01*
X111079500Y-61704983D01*
X111079500Y-61923000D01*
X111059815Y-61990039D01*
X111007011Y-62035794D01*
X110955500Y-62047000D01*
X109074433Y-62047000D01*
X109031590Y-62055521D01*
X108998434Y-62062117D01*
X108974244Y-62064500D01*
X108264298Y-62064500D01*
X108227432Y-62067401D01*
X108227426Y-62067402D01*
X108069606Y-62113254D01*
X108069603Y-62113255D01*
X107928137Y-62196917D01*
X107928129Y-62196923D01*
X107811923Y-62313129D01*
X107811917Y-62313138D01*
X107728732Y-62453797D01*
X107677663Y-62501480D01*
X107608921Y-62513984D01*
X107544332Y-62487339D01*
X107504402Y-62430003D01*
X107498000Y-62390676D01*
X107498000Y-58175187D01*
X107517685Y-58108148D01*
X107534314Y-58087511D01*
X109096235Y-56525589D01*
X109096240Y-56525586D01*
X109106443Y-56515382D01*
X109106445Y-56515382D01*
X109220382Y-56401445D01*
X109256238Y-56347780D01*
X109309903Y-56267468D01*
X109341991Y-56190000D01*
X109371565Y-56118602D01*
X109403000Y-55960566D01*
X109403000Y-54934409D01*
X109422685Y-54867370D01*
X109439319Y-54846728D01*
X109472264Y-54813783D01*
X109515945Y-54770102D01*
X109628865Y-54614681D01*
X109716082Y-54443509D01*
X109716084Y-54443504D01*
X109737069Y-54378919D01*
X109776506Y-54321243D01*
X109840864Y-54294044D01*
X109909711Y-54305958D01*
X109961187Y-54353202D01*
X109972931Y-54378919D01*
X109993915Y-54443504D01*
X110040186Y-54534315D01*
X110081135Y-54614681D01*
X110194055Y-54770102D01*
X110329898Y-54905945D01*
X110485319Y-55018865D01*
X110656491Y-55106082D01*
X110656493Y-55106083D01*
X110747845Y-55135764D01*
X110839199Y-55165447D01*
X111028945Y-55195500D01*
X111028946Y-55195500D01*
X111221054Y-55195500D01*
X111221055Y-55195500D01*
X111410801Y-55165447D01*
X111593509Y-55106082D01*
X111764681Y-55018865D01*
X111920102Y-54905945D01*
X112055945Y-54770102D01*
X112168865Y-54614681D01*
X112256082Y-54443509D01*
X112315447Y-54260801D01*
X112345500Y-54071055D01*
X112345500Y-53878945D01*
X112315447Y-53689199D01*
X112282728Y-53588500D01*
X112256083Y-53506493D01*
X112224253Y-53444023D01*
X112168865Y-53335319D01*
X112055945Y-53179898D01*
X111920102Y-53044055D01*
X111764681Y-52931135D01*
X111718658Y-52907685D01*
X111593506Y-52843916D01*
X111410802Y-52784553D01*
X111252074Y-52759413D01*
X111221055Y-52754500D01*
X111028945Y-52754500D01*
X110997926Y-52759413D01*
X110839197Y-52784553D01*
X110656493Y-52843916D01*
X110485318Y-52931135D01*
X110433662Y-52968666D01*
X110329898Y-53044055D01*
X110329896Y-53044057D01*
X110329895Y-53044057D01*
X110194057Y-53179895D01*
X110194057Y-53179896D01*
X110194055Y-53179898D01*
X110166701Y-53217548D01*
X110081135Y-53335318D01*
X109993916Y-53506493D01*
X109972931Y-53571081D01*
X109933494Y-53628756D01*
X109869135Y-53655955D01*
X109800289Y-53644041D01*
X109748813Y-53596797D01*
X109737069Y-53571081D01*
X109716083Y-53506493D01*
X109684253Y-53444023D01*
X109628865Y-53335319D01*
X109515945Y-53179898D01*
X109380102Y-53044055D01*
X109224681Y-52931135D01*
X109178658Y-52907685D01*
X109053506Y-52843916D01*
X108870802Y-52784553D01*
X108712074Y-52759413D01*
X108681055Y-52754500D01*
X108488945Y-52754500D01*
X108457926Y-52759413D01*
X108299197Y-52784553D01*
X108116493Y-52843916D01*
X107945318Y-52931135D01*
X107893662Y-52968666D01*
X107789898Y-53044055D01*
X107789896Y-53044057D01*
X107789895Y-53044057D01*
X107654057Y-53179895D01*
X107654057Y-53179896D01*
X107654055Y-53179898D01*
X107626701Y-53217548D01*
X107541135Y-53335318D01*
X107453916Y-53506493D01*
X107432931Y-53571081D01*
X107393494Y-53628756D01*
X107329135Y-53655955D01*
X107260289Y-53644041D01*
X107208813Y-53596797D01*
X107197069Y-53571081D01*
X107176083Y-53506493D01*
X107144253Y-53444023D01*
X107088865Y-53335319D01*
X106975945Y-53179898D01*
X106840102Y-53044055D01*
X106684681Y-52931135D01*
X106638658Y-52907685D01*
X106513506Y-52843916D01*
X106330802Y-52784553D01*
X106172074Y-52759413D01*
X106141055Y-52754500D01*
X106141054Y-52754500D01*
X106032688Y-52754500D01*
X105965649Y-52734815D01*
X105945007Y-52718181D01*
X104661448Y-51434620D01*
X104661444Y-51434617D01*
X104527471Y-51345098D01*
X104524222Y-51343362D01*
X104522837Y-51342002D01*
X104522403Y-51341712D01*
X104522458Y-51341629D01*
X104474374Y-51294403D01*
X104458909Y-51226266D01*
X104482737Y-51160585D01*
X104538292Y-51118212D01*
X104582668Y-51110000D01*
X112512811Y-51110000D01*
X112579850Y-51129685D01*
X112600492Y-51146319D01*
X120275617Y-58821444D01*
X120275618Y-58821445D01*
X120376968Y-58922795D01*
X120389554Y-58935381D01*
X120523533Y-59024903D01*
X120597965Y-59055733D01*
X120672398Y-59086565D01*
X120830429Y-59117999D01*
X120830433Y-59118000D01*
X120830434Y-59118000D01*
X120991565Y-59118000D01*
X123600270Y-59118000D01*
X123667309Y-59137685D01*
X123687951Y-59154319D01*
X123776344Y-59242712D01*
X123925666Y-59334814D01*
X124092203Y-59389999D01*
X124194991Y-59400500D01*
X125995008Y-59400499D01*
X126097797Y-59389999D01*
X126264334Y-59334814D01*
X126413656Y-59242712D01*
X126537712Y-59118656D01*
X126629814Y-58969334D01*
X126684999Y-58802797D01*
X126695500Y-58700009D01*
X126695499Y-57899992D01*
X126688027Y-57826850D01*
X126684999Y-57797203D01*
X126684998Y-57797200D01*
X126669359Y-57750004D01*
X126666957Y-57680176D01*
X126702689Y-57620134D01*
X126765209Y-57588941D01*
X126787065Y-57587000D01*
X127193811Y-57587000D01*
X127260850Y-57606685D01*
X127281492Y-57623319D01*
X127658181Y-58000008D01*
X127691666Y-58061331D01*
X127694500Y-58087689D01*
X127694500Y-63280019D01*
X127705001Y-63382801D01*
X127760184Y-63549333D01*
X127760189Y-63549344D01*
X127852285Y-63698653D01*
X127852288Y-63698657D01*
X127976342Y-63822711D01*
X127976346Y-63822714D01*
X128125655Y-63914810D01*
X128125658Y-63914811D01*
X128125664Y-63914815D01*
X128292200Y-63969999D01*
X128394988Y-63980500D01*
X130135500Y-63980500D01*
X130202539Y-64000185D01*
X130248294Y-64052989D01*
X130259500Y-64104500D01*
X130259500Y-66059370D01*
X130285416Y-66222999D01*
X130287459Y-66235897D01*
X130297659Y-66267288D01*
X130329146Y-66364194D01*
X130342688Y-66405875D01*
X130342691Y-66405881D01*
X130423833Y-66565132D01*
X130508891Y-66682203D01*
X130513256Y-66688211D01*
X130528887Y-66709726D01*
X136388181Y-72569020D01*
X136421666Y-72630343D01*
X136424500Y-72656701D01*
X136424500Y-73265001D01*
X136424501Y-73265019D01*
X136435000Y-73367796D01*
X136435001Y-73367799D01*
X136483622Y-73514524D01*
X136490186Y-73534334D01*
X136582288Y-73683656D01*
X136706344Y-73807712D01*
X136855666Y-73899814D01*
X137022203Y-73954999D01*
X137124991Y-73965500D01*
X138465008Y-73965499D01*
X138567797Y-73954999D01*
X138734334Y-73899814D01*
X138883656Y-73807712D01*
X139007712Y-73683656D01*
X139099814Y-73534334D01*
X139154999Y-73367797D01*
X139165500Y-73265009D01*
X139165499Y-71474992D01*
X139154999Y-71372203D01*
X139099814Y-71205666D01*
X139007712Y-71056344D01*
X138883656Y-70932288D01*
X138734334Y-70840186D01*
X138567797Y-70785001D01*
X138567795Y-70785000D01*
X138465016Y-70774500D01*
X138465009Y-70774500D01*
X137856701Y-70774500D01*
X137789662Y-70754815D01*
X137769020Y-70738181D01*
X132566819Y-65535980D01*
X132533334Y-65474657D01*
X132530500Y-65448299D01*
X132530500Y-64104500D01*
X132550185Y-64037461D01*
X132602989Y-63991706D01*
X132654500Y-63980500D01*
X133227668Y-63980500D01*
X133283961Y-63994014D01*
X133359120Y-64032310D01*
X133529103Y-64087541D01*
X133629817Y-64103492D01*
X133705630Y-64115500D01*
X133705634Y-64115500D01*
X139829365Y-64115500D01*
X139829366Y-64115500D01*
X140005897Y-64087540D01*
X140006134Y-64087462D01*
X140008887Y-64086569D01*
X140047207Y-64080499D01*
X140640002Y-64080499D01*
X140640008Y-64080499D01*
X140742797Y-64069999D01*
X140909334Y-64014814D01*
X141058656Y-63922712D01*
X141182712Y-63798656D01*
X141274814Y-63649334D01*
X141329999Y-63482797D01*
X141340500Y-63380009D01*
X141340499Y-62579992D01*
X141339358Y-62568827D01*
X141329999Y-62477203D01*
X141329998Y-62477200D01*
X141313683Y-62427964D01*
X141274814Y-62310666D01*
X141182712Y-62161344D01*
X141058656Y-62037288D01*
X140940842Y-61964620D01*
X140909336Y-61945187D01*
X140909331Y-61945185D01*
X140907862Y-61944698D01*
X140742797Y-61890001D01*
X140742795Y-61890000D01*
X140640016Y-61879500D01*
X140640009Y-61879500D01*
X140047204Y-61879500D01*
X140008884Y-61873430D01*
X140005899Y-61872460D01*
X139888209Y-61853820D01*
X139829366Y-61844500D01*
X139829365Y-61844500D01*
X135219500Y-61844500D01*
X135152461Y-61824815D01*
X135106706Y-61772011D01*
X135095500Y-61720500D01*
X135095500Y-57879993D01*
X135095499Y-57879980D01*
X135090071Y-57826850D01*
X135084999Y-57777200D01*
X135029815Y-57610664D01*
X135029811Y-57610658D01*
X135029810Y-57610655D01*
X134937714Y-57461346D01*
X134937711Y-57461342D01*
X134813657Y-57337288D01*
X134813653Y-57337285D01*
X134664344Y-57245189D01*
X134664338Y-57245186D01*
X134664336Y-57245185D01*
X134664333Y-57245184D01*
X134497801Y-57190001D01*
X134395019Y-57179500D01*
X134395012Y-57179500D01*
X129202689Y-57179500D01*
X129135650Y-57159815D01*
X129115008Y-57143181D01*
X128373508Y-56401681D01*
X128340023Y-56340358D01*
X128345007Y-56270666D01*
X128386879Y-56214733D01*
X128452343Y-56190316D01*
X128461189Y-56190000D01*
X136515811Y-56190000D01*
X136582850Y-56209685D01*
X136603492Y-56226319D01*
X138131851Y-57754678D01*
X138165336Y-57816001D01*
X138161877Y-57881361D01*
X138150001Y-57917202D01*
X138139500Y-58019983D01*
X138139500Y-58820001D01*
X138139501Y-58820019D01*
X138150000Y-58922796D01*
X138150001Y-58922799D01*
X138205185Y-59089331D01*
X138205187Y-59089336D01*
X138222867Y-59118000D01*
X138297288Y-59238656D01*
X138421344Y-59362712D01*
X138570666Y-59454814D01*
X138737203Y-59509999D01*
X138839991Y-59520500D01*
X140640008Y-59520499D01*
X140742797Y-59509999D01*
X140909334Y-59454814D01*
X141058656Y-59362712D01*
X141182712Y-59238656D01*
X141274814Y-59089334D01*
X141329999Y-58922797D01*
X141340500Y-58820009D01*
X141340499Y-58019992D01*
X141329999Y-57917203D01*
X141274814Y-57750666D01*
X141182712Y-57601344D01*
X141058656Y-57477288D01*
X140914874Y-57388603D01*
X140909336Y-57385187D01*
X140909331Y-57385185D01*
X140907862Y-57384698D01*
X140742797Y-57330001D01*
X140742795Y-57330000D01*
X140640016Y-57319500D01*
X140640009Y-57319500D01*
X140061689Y-57319500D01*
X139994650Y-57299815D01*
X139974008Y-57283181D01*
X137427448Y-54736620D01*
X137427444Y-54736617D01*
X137293473Y-54647100D01*
X137293471Y-54647099D01*
X137293468Y-54647097D01*
X137215207Y-54614681D01*
X137215205Y-54614680D01*
X137215204Y-54614679D01*
X137144602Y-54585435D01*
X137144594Y-54585433D01*
X136986570Y-54554000D01*
X136986566Y-54554000D01*
X121421188Y-54554000D01*
X121354149Y-54534315D01*
X121333507Y-54517681D01*
X114080448Y-47264620D01*
X114080444Y-47264617D01*
X113946471Y-47175098D01*
X113946468Y-47175097D01*
X113843629Y-47132500D01*
X113843627Y-47132499D01*
X113797606Y-47113436D01*
X113797594Y-47113433D01*
X113639570Y-47082000D01*
X113639566Y-47082000D01*
X112562178Y-47082000D01*
X112495139Y-47062315D01*
X112449384Y-47009511D01*
X112438820Y-46945398D01*
X112445499Y-46880018D01*
X112445499Y-46880017D01*
X112445500Y-46880009D01*
X112445499Y-45829992D01*
X112444329Y-45818543D01*
X112434999Y-45727203D01*
X112434998Y-45727200D01*
X112421533Y-45686565D01*
X112379814Y-45560666D01*
X112287712Y-45411344D01*
X112287710Y-45411342D01*
X112283920Y-45405197D01*
X112285762Y-45404060D01*
X112263593Y-45349102D01*
X112263000Y-45336990D01*
X112263000Y-44859730D01*
X112271644Y-44830289D01*
X112278168Y-44800303D01*
X112281922Y-44795287D01*
X112282685Y-44792691D01*
X112299319Y-44772049D01*
X112307319Y-44764049D01*
X112368642Y-44730564D01*
X112438334Y-44735548D01*
X112482681Y-44764049D01*
X112576344Y-44857712D01*
X112725666Y-44949814D01*
X112892203Y-45004999D01*
X112994991Y-45015500D01*
X113620008Y-45015499D01*
X113620016Y-45015498D01*
X113620019Y-45015498D01*
X113676302Y-45009748D01*
X113722797Y-45004999D01*
X113889334Y-44949814D01*
X114038656Y-44857712D01*
X114162712Y-44733656D01*
X114254814Y-44584334D01*
X114309999Y-44417797D01*
X114320500Y-44315009D01*
X114320499Y-43314992D01*
X114319448Y-43304707D01*
X114309999Y-43212203D01*
X114309998Y-43212200D01*
X114301813Y-43187500D01*
X114254814Y-43045666D01*
X114162712Y-42896344D01*
X114161819Y-42895451D01*
X114161402Y-42894687D01*
X114158234Y-42890681D01*
X114158918Y-42890139D01*
X114128334Y-42834128D01*
X114125500Y-42807770D01*
X114125500Y-42282230D01*
X114145185Y-42215191D01*
X114147069Y-42212345D01*
X114153609Y-42202758D01*
X114162712Y-42193656D01*
X114189964Y-42149472D01*
X114191573Y-42147115D01*
X114216474Y-42126709D01*
X114240413Y-42105179D01*
X114243647Y-42104443D01*
X114245616Y-42102831D01*
X114256073Y-42101620D01*
X114294004Y-42093000D01*
X114761567Y-42093000D01*
X114761568Y-42092999D01*
X114919602Y-42061565D01*
X115068468Y-41999902D01*
X115202445Y-41910382D01*
X115316382Y-41796445D01*
X115405902Y-41662468D01*
X115467565Y-41513602D01*
X115499000Y-41355566D01*
X115499000Y-41194434D01*
X115467565Y-41036398D01*
X115409198Y-40895489D01*
X115405903Y-40887533D01*
X115316380Y-40753552D01*
X115202447Y-40639619D01*
X115068466Y-40550096D01*
X114919602Y-40488435D01*
X114919594Y-40488433D01*
X114761570Y-40457000D01*
X114761566Y-40457000D01*
X114294004Y-40457000D01*
X114226965Y-40437315D01*
X114188465Y-40398097D01*
X114162712Y-40356344D01*
X114038656Y-40232288D01*
X113889334Y-40140186D01*
X113722797Y-40085001D01*
X113722795Y-40085000D01*
X113620010Y-40074500D01*
X112994998Y-40074500D01*
X112994980Y-40074501D01*
X112892203Y-40085000D01*
X112892200Y-40085001D01*
X112725668Y-40140185D01*
X112725663Y-40140187D01*
X112576342Y-40232289D01*
X112512181Y-40296451D01*
X112450858Y-40329936D01*
X112381166Y-40324952D01*
X112325233Y-40283080D01*
X112300816Y-40217616D01*
X112300500Y-40208770D01*
X112300500Y-39742230D01*
X112320185Y-39675191D01*
X112336819Y-39654549D01*
X112337712Y-39653656D01*
X112429814Y-39504334D01*
X112484999Y-39337797D01*
X112495500Y-39235009D01*
X112495499Y-38234992D01*
X112494935Y-38229474D01*
X112484999Y-38132203D01*
X112484998Y-38132200D01*
X112449676Y-38025606D01*
X112429814Y-37965666D01*
X112337712Y-37816344D01*
X112213656Y-37692288D01*
X112064334Y-37600186D01*
X112023776Y-37586746D01*
X111966332Y-37546974D01*
X111939509Y-37482458D01*
X111951824Y-37413682D01*
X111999367Y-37362483D01*
X112010382Y-37356656D01*
X112014319Y-37354818D01*
X112014334Y-37354814D01*
X112163656Y-37262712D01*
X112287712Y-37138656D01*
X112379814Y-36989334D01*
X112434999Y-36822797D01*
X112445500Y-36720009D01*
X112445499Y-35669992D01*
X112434999Y-35567203D01*
X112379814Y-35400666D01*
X112287712Y-35251344D01*
X112233319Y-35196951D01*
X112199834Y-35135628D01*
X112197000Y-35109270D01*
X112197000Y-34717433D01*
X112196999Y-34717429D01*
X112190476Y-34684636D01*
X112165565Y-34559398D01*
X112132759Y-34480198D01*
X112103903Y-34410533D01*
X112014380Y-34276552D01*
X111900447Y-34162619D01*
X111766466Y-34073096D01*
X111617602Y-34011435D01*
X111617594Y-34011433D01*
X111459570Y-33980000D01*
X111459566Y-33980000D01*
X111298434Y-33980000D01*
X111298429Y-33980000D01*
X111140405Y-34011433D01*
X111140397Y-34011435D01*
X110991533Y-34073096D01*
X110857552Y-34162619D01*
X110743619Y-34276552D01*
X110654096Y-34410533D01*
X110592435Y-34559397D01*
X110592433Y-34559405D01*
X110561000Y-34717429D01*
X110561000Y-35283116D01*
X110542540Y-35348211D01*
X110510186Y-35400666D01*
X110455001Y-35567201D01*
X110455000Y-35567208D01*
X110450839Y-35607933D01*
X110424441Y-35672624D01*
X110415162Y-35683009D01*
X108199992Y-37898181D01*
X108138669Y-37931666D01*
X108112311Y-37934500D01*
X107629298Y-37934500D01*
X107592432Y-37937401D01*
X107592426Y-37937402D01*
X107434606Y-37983254D01*
X107434603Y-37983255D01*
X107293137Y-38066917D01*
X107293129Y-38066923D01*
X107176923Y-38183129D01*
X107176917Y-38183137D01*
X107093255Y-38324603D01*
X107093254Y-38324606D01*
X107047402Y-38482426D01*
X107047401Y-38482432D01*
X107044500Y-38519298D01*
X107044500Y-38950701D01*
X107047401Y-38987567D01*
X107058038Y-39024178D01*
X107057838Y-39094047D01*
X107019895Y-39152717D01*
X106956257Y-39181560D01*
X106887127Y-39171419D01*
X106851280Y-39146453D01*
X105804448Y-38099620D01*
X105804444Y-38099617D01*
X105670473Y-38010100D01*
X105670471Y-38010099D01*
X105670468Y-38010097D01*
X105592977Y-37978000D01*
X105592975Y-37977999D01*
X105592974Y-37977998D01*
X105521602Y-37948435D01*
X105521594Y-37948433D01*
X105363570Y-37917000D01*
X105363566Y-37917000D01*
X103489434Y-37917000D01*
X103489433Y-37917000D01*
X103446590Y-37925521D01*
X103413434Y-37932117D01*
X103389244Y-37934500D01*
X102679298Y-37934500D01*
X102642432Y-37937401D01*
X102642426Y-37937402D01*
X102484606Y-37983254D01*
X102484603Y-37983255D01*
X102343137Y-38066917D01*
X102343129Y-38066923D01*
X102338872Y-38071181D01*
X102277549Y-38104666D01*
X102251191Y-38107500D01*
X100234357Y-38107500D01*
X100167318Y-38087815D01*
X100165466Y-38086602D01*
X100074185Y-38025609D01*
X100074172Y-38025602D01*
X99928501Y-37965264D01*
X99928489Y-37965261D01*
X99773845Y-37934500D01*
X99773842Y-37934500D01*
X99616158Y-37934500D01*
X99616155Y-37934500D01*
X99461510Y-37965261D01*
X99461498Y-37965264D01*
X99315827Y-38025602D01*
X99315814Y-38025609D01*
X99184711Y-38113210D01*
X99184707Y-38113213D01*
X99073213Y-38224707D01*
X99073210Y-38224711D01*
X98985609Y-38355814D01*
X98985602Y-38355827D01*
X98925264Y-38501498D01*
X98925261Y-38501510D01*
X98894500Y-38656153D01*
X98894500Y-38813846D01*
X98925261Y-38968489D01*
X98925264Y-38968501D01*
X98985602Y-39114172D01*
X98985609Y-39114185D01*
X99073210Y-39245288D01*
X99073213Y-39245292D01*
X99184707Y-39356786D01*
X99184711Y-39356789D01*
X99315814Y-39444390D01*
X99315827Y-39444397D01*
X99460523Y-39504331D01*
X99461503Y-39504737D01*
X99585145Y-39529331D01*
X99616153Y-39535499D01*
X99616156Y-39535500D01*
X99616158Y-39535500D01*
X99773844Y-39535500D01*
X99773845Y-39535499D01*
X99928497Y-39504737D01*
X100053076Y-39453135D01*
X100074172Y-39444397D01*
X100074172Y-39444396D01*
X100074179Y-39444394D01*
X100165466Y-39383398D01*
X100232143Y-39362520D01*
X100234357Y-39362500D01*
X102063126Y-39362500D01*
X102130165Y-39382185D01*
X102175920Y-39434989D01*
X102185864Y-39504147D01*
X102169858Y-39549621D01*
X102143255Y-39594603D01*
X102143254Y-39594606D01*
X102097402Y-39752426D01*
X102097401Y-39752432D01*
X102094500Y-39789298D01*
X102094500Y-40220701D01*
X102097401Y-40257567D01*
X102097402Y-40257569D01*
X102108698Y-40296451D01*
X102109266Y-40298404D01*
X102109067Y-40368273D01*
X102071126Y-40426944D01*
X102007488Y-40455788D01*
X101990190Y-40457000D01*
X101634424Y-40457000D01*
X101567385Y-40437315D01*
X101528885Y-40398097D01*
X101487712Y-40331344D01*
X101363656Y-40207288D01*
X101249227Y-40136708D01*
X101214336Y-40115187D01*
X101214331Y-40115185D01*
X101167220Y-40099574D01*
X101047797Y-40060001D01*
X101047795Y-40060000D01*
X100945010Y-40049500D01*
X100344998Y-40049500D01*
X100344980Y-40049501D01*
X100242203Y-40060000D01*
X100242200Y-40060001D01*
X100075668Y-40115185D01*
X100075663Y-40115187D01*
X99926342Y-40207289D01*
X99802289Y-40331342D01*
X99710187Y-40480663D01*
X99710185Y-40480668D01*
X99687179Y-40550096D01*
X99655001Y-40647203D01*
X99655001Y-40647204D01*
X99655000Y-40647204D01*
X99644500Y-40749983D01*
X99644500Y-41800001D01*
X99644501Y-41800019D01*
X99655000Y-41902796D01*
X99655001Y-41902799D01*
X99710185Y-42069331D01*
X99710187Y-42069336D01*
X99745069Y-42125888D01*
X99802288Y-42218656D01*
X99926344Y-42342712D01*
X100075666Y-42434814D01*
X100075667Y-42434814D01*
X100081813Y-42438605D01*
X100080386Y-42440917D01*
X100123405Y-42478805D01*
X100142547Y-42546002D01*
X100122321Y-42612880D01*
X100080440Y-42649170D01*
X100081813Y-42651395D01*
X100075667Y-42655185D01*
X100075666Y-42655186D01*
X100035133Y-42680187D01*
X99926342Y-42747289D01*
X99802289Y-42871342D01*
X99710187Y-43020663D01*
X99710186Y-43020666D01*
X99655001Y-43187203D01*
X99655001Y-43187204D01*
X99655000Y-43187204D01*
X99644500Y-43289983D01*
X99644500Y-44340001D01*
X99644501Y-44340019D01*
X99655000Y-44442796D01*
X99655001Y-44442799D01*
X99710185Y-44609331D01*
X99710187Y-44609336D01*
X99713989Y-44615500D01*
X99802288Y-44758656D01*
X99926344Y-44882712D01*
X100075666Y-44974814D01*
X100242203Y-45029999D01*
X100344991Y-45040500D01*
X100662310Y-45040499D01*
X100729349Y-45060183D01*
X100749991Y-45076818D01*
X101090277Y-45417103D01*
X101090298Y-45417126D01*
X101208552Y-45535380D01*
X101246398Y-45560668D01*
X101250034Y-45563097D01*
X101342532Y-45624903D01*
X101342533Y-45624903D01*
X101342534Y-45624904D01*
X101342536Y-45624905D01*
X101491393Y-45686563D01*
X101491398Y-45686565D01*
X101649429Y-45717999D01*
X101649433Y-45718000D01*
X101649434Y-45718000D01*
X103180567Y-45718000D01*
X103180568Y-45717999D01*
X103338602Y-45686565D01*
X103487461Y-45624905D01*
X103487466Y-45624903D01*
X103487466Y-45624902D01*
X103487468Y-45624902D01*
X103621445Y-45535382D01*
X103735382Y-45421445D01*
X103824902Y-45287468D01*
X103886565Y-45138602D01*
X103918000Y-44980566D01*
X103918000Y-44819434D01*
X103886565Y-44661398D01*
X103843015Y-44556259D01*
X103824903Y-44512533D01*
X103735380Y-44378552D01*
X103621447Y-44264619D01*
X103487466Y-44175096D01*
X103338602Y-44113435D01*
X103338594Y-44113433D01*
X103180570Y-44082000D01*
X103180566Y-44082000D01*
X102120188Y-44082000D01*
X102090747Y-44073355D01*
X102060761Y-44066832D01*
X102055745Y-44063077D01*
X102053149Y-44062315D01*
X102032507Y-44045681D01*
X101889507Y-43902681D01*
X101856022Y-43841358D01*
X101861006Y-43771666D01*
X101889507Y-43727319D01*
X102035317Y-43581510D01*
X102217508Y-43399319D01*
X102278831Y-43365834D01*
X102305189Y-43363000D01*
X103650567Y-43363000D01*
X103650567Y-43362999D01*
X103726565Y-43347882D01*
X103750756Y-43345500D01*
X104460686Y-43345500D01*
X104460694Y-43345500D01*
X104497569Y-43342598D01*
X104497571Y-43342597D01*
X104497573Y-43342597D01*
X104591917Y-43315187D01*
X104655398Y-43296744D01*
X104796865Y-43213081D01*
X104913081Y-43096865D01*
X104924530Y-43077507D01*
X104942061Y-43047863D01*
X104959876Y-43031228D01*
X104974482Y-43011717D01*
X104984956Y-43007810D01*
X104993129Y-43000179D01*
X105017109Y-42995817D01*
X105039946Y-42987299D01*
X105050872Y-42989675D01*
X105061871Y-42987675D01*
X105084400Y-42996968D01*
X105108219Y-43002150D01*
X105122039Y-43012495D01*
X105126461Y-43014320D01*
X105136473Y-43023301D01*
X105190680Y-43077507D01*
X105224166Y-43138830D01*
X105227000Y-43165189D01*
X105227000Y-43870170D01*
X105258433Y-44028194D01*
X105258435Y-44028202D01*
X105320096Y-44177066D01*
X105409619Y-44311047D01*
X105523552Y-44424980D01*
X105657533Y-44514503D01*
X105714755Y-44538205D01*
X105806398Y-44576165D01*
X105964429Y-44607599D01*
X105964433Y-44607600D01*
X105964434Y-44607600D01*
X106125567Y-44607600D01*
X106125568Y-44607599D01*
X106283602Y-44576165D01*
X106427768Y-44516449D01*
X106432466Y-44514503D01*
X106432466Y-44514502D01*
X106432468Y-44514502D01*
X106566445Y-44424982D01*
X106680382Y-44311045D01*
X106769902Y-44177068D01*
X106831565Y-44028202D01*
X106863000Y-43870166D01*
X106863000Y-43019323D01*
X106882685Y-42952284D01*
X106935489Y-42906529D01*
X107004647Y-42896585D01*
X107068203Y-42925610D01*
X107093730Y-42956199D01*
X107133414Y-43023301D01*
X107176917Y-43096862D01*
X107176923Y-43096870D01*
X107293129Y-43213076D01*
X107293133Y-43213079D01*
X107293135Y-43213081D01*
X107434602Y-43296744D01*
X107476224Y-43308836D01*
X107592426Y-43342597D01*
X107592429Y-43342597D01*
X107592431Y-43342598D01*
X107629306Y-43345500D01*
X108339244Y-43345500D01*
X108363434Y-43347882D01*
X108439432Y-43362999D01*
X108439433Y-43363000D01*
X108439434Y-43363000D01*
X109822311Y-43363000D01*
X109889350Y-43382685D01*
X109909992Y-43399319D01*
X110433181Y-43922508D01*
X110466666Y-43983831D01*
X110469500Y-44010189D01*
X110469500Y-44315000D01*
X110469501Y-44315019D01*
X110480000Y-44417796D01*
X110480001Y-44417799D01*
X110535185Y-44584331D01*
X110535187Y-44584336D01*
X110608539Y-44703258D01*
X110627000Y-44768355D01*
X110627000Y-45336990D01*
X110607315Y-45404029D01*
X110603533Y-45409325D01*
X110510187Y-45560663D01*
X110510186Y-45560666D01*
X110455001Y-45727203D01*
X110455001Y-45727204D01*
X110455000Y-45727204D01*
X110444500Y-45829983D01*
X110444500Y-46880001D01*
X110444501Y-46880017D01*
X110451181Y-46945398D01*
X110438411Y-47014091D01*
X110390531Y-47064975D01*
X110327823Y-47082000D01*
X100940188Y-47082000D01*
X100873149Y-47062315D01*
X100852507Y-47045681D01*
X94446448Y-40639620D01*
X94446444Y-40639617D01*
X94312471Y-40550098D01*
X94312468Y-40550097D01*
X94232479Y-40516965D01*
X94163602Y-40488435D01*
X94163594Y-40488433D01*
X94005570Y-40457000D01*
X94005566Y-40457000D01*
X93339004Y-40457000D01*
X93271965Y-40437315D01*
X93233465Y-40398097D01*
X93207712Y-40356344D01*
X93083656Y-40232288D01*
X92934334Y-40140186D01*
X92931801Y-40139346D01*
X92930293Y-40138302D01*
X92927791Y-40137136D01*
X92927990Y-40136708D01*
X92874358Y-40099574D01*
X92847536Y-40035058D01*
X92859852Y-39966283D01*
X92907395Y-39915083D01*
X92931799Y-39903938D01*
X92959334Y-39894814D01*
X93108656Y-39802712D01*
X93232712Y-39678656D01*
X93324814Y-39529334D01*
X93379999Y-39362797D01*
X93390500Y-39260009D01*
X93390499Y-38209992D01*
X93388479Y-38190221D01*
X93379999Y-38107203D01*
X93379998Y-38107200D01*
X93373172Y-38086602D01*
X93324814Y-37940666D01*
X93232712Y-37791344D01*
X93108656Y-37667288D01*
X92959334Y-37575186D01*
X92959331Y-37575185D01*
X92959329Y-37575184D01*
X92946363Y-37570887D01*
X92897689Y-37540863D01*
X92121448Y-36764620D01*
X92121444Y-36764617D01*
X91987473Y-36675100D01*
X91987471Y-36675099D01*
X91987468Y-36675097D01*
X91907669Y-36642044D01*
X91907667Y-36642043D01*
X91907666Y-36642042D01*
X91838602Y-36613435D01*
X91838594Y-36613433D01*
X91680570Y-36582000D01*
X91680566Y-36582000D01*
X88445190Y-36582000D01*
X88378151Y-36562315D01*
X88332396Y-36509511D01*
X88322452Y-36440353D01*
X88351477Y-36376797D01*
X88357509Y-36370319D01*
X88392379Y-36335448D01*
X88392380Y-36335447D01*
X88392382Y-36335445D01*
X88481902Y-36201468D01*
X88543565Y-36052602D01*
X88575000Y-35894566D01*
X88575000Y-35733434D01*
X88543565Y-35575398D01*
X88512733Y-35500965D01*
X88481903Y-35426533D01*
X88392380Y-35292552D01*
X88278447Y-35178619D01*
X88144466Y-35089096D01*
X87995602Y-35027435D01*
X87995594Y-35027433D01*
X87837570Y-34996000D01*
X87837566Y-34996000D01*
X87599374Y-34996000D01*
X87532335Y-34976315D01*
X87511693Y-34959681D01*
X87418044Y-34866032D01*
X87418040Y-34866029D01*
X87273705Y-34777001D01*
X87273699Y-34776998D01*
X87273697Y-34776997D01*
X87273694Y-34776996D01*
X87112709Y-34723651D01*
X87013346Y-34713500D01*
X86466662Y-34713500D01*
X86466644Y-34713501D01*
X86367292Y-34723650D01*
X86367289Y-34723651D01*
X86206305Y-34776996D01*
X86206294Y-34777001D01*
X86061959Y-34866029D01*
X86061955Y-34866032D01*
X85942032Y-34985955D01*
X85942029Y-34985959D01*
X85853001Y-35130294D01*
X85852996Y-35130305D01*
X85799651Y-35291290D01*
X85789500Y-35390647D01*
X85789500Y-36237337D01*
X85789501Y-36237355D01*
X85799650Y-36336707D01*
X85799651Y-36336710D01*
X85852996Y-36497694D01*
X85852999Y-36497701D01*
X85884503Y-36548775D01*
X85902944Y-36616167D01*
X85882022Y-36682831D01*
X85847857Y-36716975D01*
X85776551Y-36764620D01*
X84864620Y-37676551D01*
X84864617Y-37676555D01*
X84775100Y-37810525D01*
X84775093Y-37810538D01*
X84713436Y-37959393D01*
X84713433Y-37959405D01*
X84682000Y-38117429D01*
X84682000Y-38267810D01*
X84662315Y-38334849D01*
X84609511Y-38380604D01*
X84540353Y-38390548D01*
X84476797Y-38361523D01*
X84470319Y-38355491D01*
X84214448Y-38099620D01*
X84214444Y-38099617D01*
X84080473Y-38010100D01*
X84080471Y-38010099D01*
X84080468Y-38010097D01*
X84002977Y-37978000D01*
X84002975Y-37977999D01*
X84002974Y-37977998D01*
X83931602Y-37948435D01*
X83931594Y-37948433D01*
X83773570Y-37917000D01*
X83773566Y-37917000D01*
X82878188Y-37917000D01*
X82811149Y-37897315D01*
X82790507Y-37880681D01*
X82449319Y-37539492D01*
X82415834Y-37478169D01*
X82413000Y-37451811D01*
X82413000Y-36832009D01*
X82417791Y-36815281D01*
X82417572Y-36798649D01*
X82428974Y-36776245D01*
X82431808Y-36766353D01*
X82436446Y-36758921D01*
X82437712Y-36757656D01*
X82477644Y-36692914D01*
X82477783Y-36692693D01*
X82503651Y-36669672D01*
X82529384Y-36646528D01*
X82529721Y-36646473D01*
X82529978Y-36646245D01*
X82564127Y-36640873D01*
X82598346Y-36635305D01*
X82598661Y-36635442D01*
X82598999Y-36635389D01*
X82630626Y-36649330D01*
X82662429Y-36663149D01*
X82662853Y-36663536D01*
X82662933Y-36663572D01*
X82662995Y-36663667D01*
X82670656Y-36670668D01*
X82761955Y-36761967D01*
X82761959Y-36761970D01*
X82906294Y-36850998D01*
X82906297Y-36850999D01*
X82906303Y-36851003D01*
X83067292Y-36904349D01*
X83166655Y-36914500D01*
X83713344Y-36914499D01*
X83713352Y-36914498D01*
X83713355Y-36914498D01*
X83767760Y-36908940D01*
X83812708Y-36904349D01*
X83973697Y-36851003D01*
X84118044Y-36761968D01*
X84237968Y-36642044D01*
X84327003Y-36497697D01*
X84380349Y-36336708D01*
X84390500Y-36237345D01*
X84390499Y-35390656D01*
X84380349Y-35291292D01*
X84327003Y-35130303D01*
X84326999Y-35130297D01*
X84326998Y-35130294D01*
X84237970Y-34985959D01*
X84237967Y-34985955D01*
X84118044Y-34866032D01*
X84118040Y-34866029D01*
X83973705Y-34777001D01*
X83973699Y-34776998D01*
X83973697Y-34776997D01*
X83973694Y-34776996D01*
X83812709Y-34723651D01*
X83713346Y-34713500D01*
X83166662Y-34713500D01*
X83166644Y-34713501D01*
X83067292Y-34723650D01*
X83067289Y-34723651D01*
X82906305Y-34776996D01*
X82906294Y-34777001D01*
X82761959Y-34866029D01*
X82670656Y-34957332D01*
X82609332Y-34990816D01*
X82539641Y-34985832D01*
X82483708Y-34943960D01*
X82477437Y-34934747D01*
X82437714Y-34870347D01*
X82437711Y-34870343D01*
X82313657Y-34746289D01*
X82313656Y-34746288D01*
X82164334Y-34654186D01*
X81997797Y-34599001D01*
X81997795Y-34599000D01*
X81895010Y-34588500D01*
X81294998Y-34588500D01*
X81294980Y-34588501D01*
X81192203Y-34599000D01*
X81192200Y-34599001D01*
X81025668Y-34654185D01*
X81025663Y-34654187D01*
X80876342Y-34746289D01*
X80752289Y-34870342D01*
X80660187Y-35019663D01*
X80660185Y-35019668D01*
X80637697Y-35087534D01*
X80605001Y-35186203D01*
X80605001Y-35186204D01*
X80605000Y-35186204D01*
X80594500Y-35288983D01*
X80594500Y-36339001D01*
X80594501Y-36339019D01*
X80605000Y-36441796D01*
X80605001Y-36441799D01*
X80660185Y-36608331D01*
X80660187Y-36608336D01*
X80676906Y-36635442D01*
X80729067Y-36720009D01*
X80756080Y-36763803D01*
X80754234Y-36764941D01*
X80776405Y-36819878D01*
X80777000Y-36832009D01*
X80777000Y-37922570D01*
X80808433Y-38080594D01*
X80808436Y-38080606D01*
X80870093Y-38229461D01*
X80870100Y-38229474D01*
X80959617Y-38363444D01*
X80959619Y-38363447D01*
X80979589Y-38383416D01*
X80994958Y-38411560D01*
X81011663Y-38438925D01*
X81012020Y-38442806D01*
X81013076Y-38444738D01*
X81015877Y-38473967D01*
X81015705Y-38481386D01*
X81015402Y-38482431D01*
X81012500Y-38519306D01*
X81012500Y-38619941D01*
X81012467Y-38621368D01*
X81002265Y-38653354D01*
X80992815Y-38685539D01*
X80991689Y-38686513D01*
X80991237Y-38687934D01*
X80965349Y-38709337D01*
X80940011Y-38731294D01*
X80938360Y-38731653D01*
X80937389Y-38732456D01*
X80931309Y-38733187D01*
X80888500Y-38742500D01*
X80736354Y-38742500D01*
X80669315Y-38722815D01*
X80623560Y-38670011D01*
X80618648Y-38657504D01*
X80618202Y-38656158D01*
X80599814Y-38600666D01*
X80507712Y-38451344D01*
X80383656Y-38327288D01*
X80234334Y-38235186D01*
X80126533Y-38199464D01*
X80077859Y-38169440D01*
X78768819Y-36860400D01*
X78735334Y-36799077D01*
X78732500Y-36772719D01*
X78732500Y-34855281D01*
X78752185Y-34788242D01*
X78768819Y-34767600D01*
X79598600Y-33937819D01*
X79659923Y-33904334D01*
X79686281Y-33901500D01*
X82357804Y-33901500D01*
X82357805Y-33901499D01*
X82479035Y-33877386D01*
X82559784Y-33843937D01*
X82593233Y-33830083D01*
X82696008Y-33761411D01*
X82783411Y-33674008D01*
X84499410Y-31958009D01*
X84568083Y-31855233D01*
X84615385Y-31741035D01*
X84639500Y-31619804D01*
X84639500Y-31496197D01*
X84639500Y-29657838D01*
X84659185Y-29590799D01*
X84711103Y-29545452D01*
X84716326Y-29543016D01*
X84716334Y-29543014D01*
X84865656Y-29450912D01*
X84989712Y-29326856D01*
X85081814Y-29177534D01*
X85136999Y-29010997D01*
X85147500Y-28908209D01*
X85147499Y-26794001D01*
X109984500Y-26794001D01*
X109984500Y-28418992D01*
X109990723Y-28498055D01*
X109990725Y-28498073D01*
X109996793Y-28536384D01*
X110015303Y-28613490D01*
X110015315Y-28613531D01*
X110060684Y-28753165D01*
X110065226Y-28772079D01*
X110068501Y-28792751D01*
X110068500Y-28792753D01*
X110068501Y-28792755D01*
X110083473Y-28887279D01*
X110085000Y-28906678D01*
X110085000Y-29473324D01*
X110083473Y-29492724D01*
X110065227Y-29607912D01*
X110060685Y-29626829D01*
X110015310Y-29766480D01*
X109996791Y-29843621D01*
X109996791Y-29843624D01*
X109990723Y-29881939D01*
X109984500Y-29961010D01*
X109984500Y-32261000D01*
X109984501Y-32261009D01*
X109996052Y-32368450D01*
X109996054Y-32368462D01*
X110007260Y-32419972D01*
X110041383Y-32522497D01*
X110041386Y-32522503D01*
X110119171Y-32643537D01*
X110119179Y-32643548D01*
X110164923Y-32696340D01*
X110164926Y-32696343D01*
X110164930Y-32696347D01*
X110273664Y-32790567D01*
X110404541Y-32850338D01*
X110471580Y-32870023D01*
X110471584Y-32870024D01*
X110614000Y-32890500D01*
X120655500Y-32890500D01*
X120722539Y-32910185D01*
X120768294Y-32962989D01*
X120779500Y-33014500D01*
X120779500Y-35401668D01*
X120779500Y-49371668D01*
X120779500Y-52835000D01*
X120779501Y-52835009D01*
X120791052Y-52942450D01*
X120791054Y-52942462D01*
X120802260Y-52993972D01*
X120836383Y-53096497D01*
X120836386Y-53096503D01*
X120914171Y-53217537D01*
X120914179Y-53217548D01*
X120959923Y-53270340D01*
X120959926Y-53270343D01*
X120959930Y-53270347D01*
X121068664Y-53364567D01*
X121068667Y-53364568D01*
X121068668Y-53364569D01*
X121109025Y-53383000D01*
X121199541Y-53424338D01*
X121266580Y-53444023D01*
X121266584Y-53444024D01*
X121409000Y-53464500D01*
X141610500Y-53464500D01*
X141677539Y-53484185D01*
X141723294Y-53536989D01*
X141734500Y-53588500D01*
X141734500Y-64011000D01*
X141734501Y-64011009D01*
X141746052Y-64118450D01*
X141746054Y-64118462D01*
X141757260Y-64169972D01*
X141791383Y-64272497D01*
X141791386Y-64272503D01*
X141869171Y-64393537D01*
X141869179Y-64393548D01*
X141914923Y-64446340D01*
X141914926Y-64446343D01*
X141914930Y-64446347D01*
X142023664Y-64540567D01*
X142023667Y-64540568D01*
X142023668Y-64540569D01*
X142153842Y-64600019D01*
X142154541Y-64600338D01*
X142221580Y-64620023D01*
X142221584Y-64620024D01*
X142364000Y-64640500D01*
X142364003Y-64640500D01*
X149100990Y-64640500D01*
X149101000Y-64640500D01*
X149208456Y-64628947D01*
X149259967Y-64617741D01*
X149294197Y-64606347D01*
X149362497Y-64583616D01*
X149362501Y-64583613D01*
X149362504Y-64583613D01*
X149483543Y-64505825D01*
X149536347Y-64460070D01*
X149630567Y-64351336D01*
X149690338Y-64220459D01*
X149710023Y-64153420D01*
X149710024Y-64153416D01*
X149730500Y-64011000D01*
X149730500Y-63504213D01*
X149731142Y-63491610D01*
X149731836Y-63484814D01*
X149740500Y-63400012D01*
X149740500Y-57999988D01*
X149731141Y-57908386D01*
X149730500Y-57895785D01*
X149730500Y-32509010D01*
X149730500Y-32509000D01*
X149718947Y-32401544D01*
X149707741Y-32350033D01*
X149678108Y-32261000D01*
X149673616Y-32247502D01*
X149673613Y-32247496D01*
X149595828Y-32126462D01*
X149595825Y-32126457D01*
X149595820Y-32126451D01*
X149550076Y-32073659D01*
X149550072Y-32073656D01*
X149550070Y-32073653D01*
X149441336Y-31979433D01*
X149441333Y-31979431D01*
X149441331Y-31979430D01*
X149310465Y-31919664D01*
X149310460Y-31919662D01*
X149310459Y-31919662D01*
X149243420Y-31899977D01*
X149243422Y-31899977D01*
X149243417Y-31899976D01*
X149195944Y-31893150D01*
X149101000Y-31879500D01*
X149100998Y-31879500D01*
X145409500Y-31879500D01*
X145342461Y-31859815D01*
X145296706Y-31807011D01*
X145285500Y-31755500D01*
X145285500Y-26794010D01*
X145285500Y-26794000D01*
X145273947Y-26686544D01*
X145262741Y-26635033D01*
X145262637Y-26634722D01*
X145228616Y-26532502D01*
X145228613Y-26532496D01*
X145150828Y-26411462D01*
X145150825Y-26411457D01*
X145150820Y-26411451D01*
X145105076Y-26358659D01*
X145105072Y-26358656D01*
X145105070Y-26358653D01*
X144996336Y-26264433D01*
X144996333Y-26264431D01*
X144996331Y-26264430D01*
X144865465Y-26204664D01*
X144865460Y-26204662D01*
X144865459Y-26204662D01*
X144798420Y-26184977D01*
X144798422Y-26184977D01*
X144798417Y-26184976D01*
X144730908Y-26175270D01*
X144656000Y-26164500D01*
X110614000Y-26164500D01*
X110613991Y-26164500D01*
X110613990Y-26164501D01*
X110506549Y-26176052D01*
X110506537Y-26176054D01*
X110455027Y-26187260D01*
X110352502Y-26221383D01*
X110352496Y-26221386D01*
X110231462Y-26299171D01*
X110231451Y-26299179D01*
X110178659Y-26344923D01*
X110084433Y-26453664D01*
X110084430Y-26453668D01*
X110024664Y-26584534D01*
X110004976Y-26651582D01*
X109999949Y-26686549D01*
X109984502Y-26793990D01*
X109984500Y-26794001D01*
X85147499Y-26794001D01*
X85147499Y-26108192D01*
X85140237Y-26037101D01*
X85153007Y-25968409D01*
X85200887Y-25917524D01*
X85263595Y-25900500D01*
X149032108Y-25900500D01*
X149094519Y-25900500D01*
X149101471Y-25900695D01*
X149138993Y-25902802D01*
X149404724Y-25917725D01*
X149418523Y-25919279D01*
X149707679Y-25968409D01*
X149714524Y-25969572D01*
X149728081Y-25972666D01*
X150016588Y-26055784D01*
X150029714Y-26060377D01*
X150307097Y-26175273D01*
X150319611Y-26181299D01*
X150470025Y-26264430D01*
X150582392Y-26326533D01*
X150594166Y-26333931D01*
X150839026Y-26507668D01*
X150849898Y-26516338D01*
X151001236Y-26651582D01*
X151073767Y-26716399D01*
X151083600Y-26726232D01*
X151283661Y-26950101D01*
X151292331Y-26960973D01*
X151466068Y-27205833D01*
X151473466Y-27217607D01*
X151618696Y-27480381D01*
X151624729Y-27492909D01*
X151739622Y-27770286D01*
X151744215Y-27783411D01*
X151827333Y-28071918D01*
X151830427Y-28085475D01*
X151880718Y-28381465D01*
X151882275Y-28395283D01*
X151899305Y-28698527D01*
X151899500Y-28705480D01*
X151899500Y-72894519D01*
X151899305Y-72901472D01*
X151882275Y-73204716D01*
X151880718Y-73218534D01*
X151830427Y-73514524D01*
X151827333Y-73528081D01*
X151744215Y-73816588D01*
X151739622Y-73829713D01*
X151624729Y-74107090D01*
X151618696Y-74119618D01*
X151473466Y-74382392D01*
X151466068Y-74394166D01*
X151292331Y-74639026D01*
X151283661Y-74649898D01*
X151083600Y-74873767D01*
X151073767Y-74883600D01*
X150849898Y-75083661D01*
X150839026Y-75092331D01*
X150594166Y-75266068D01*
X150582392Y-75273466D01*
X150319618Y-75418696D01*
X150307090Y-75424729D01*
X150029713Y-75539622D01*
X150016588Y-75544215D01*
X149728081Y-75627333D01*
X149714524Y-75630427D01*
X149418534Y-75680718D01*
X149404716Y-75682275D01*
X149101472Y-75699305D01*
X149094519Y-75699500D01*
X54105481Y-75699500D01*
X54098528Y-75699305D01*
X53795283Y-75682275D01*
X53781465Y-75680718D01*
X53485475Y-75630427D01*
X53471918Y-75627333D01*
X53183411Y-75544215D01*
X53170286Y-75539622D01*
X52892909Y-75424729D01*
X52880381Y-75418696D01*
X52617607Y-75273466D01*
X52605833Y-75266068D01*
X52360973Y-75092331D01*
X52350101Y-75083661D01*
X52126232Y-74883600D01*
X52116399Y-74873767D01*
X51916338Y-74649898D01*
X51907668Y-74639026D01*
X51733931Y-74394166D01*
X51726533Y-74382392D01*
X51674770Y-74288733D01*
X51581299Y-74119611D01*
X51575273Y-74107097D01*
X51460377Y-73829713D01*
X51455784Y-73816588D01*
X51385991Y-73574334D01*
X51372665Y-73528079D01*
X51369572Y-73514524D01*
X51359733Y-73456616D01*
X51319279Y-73218523D01*
X51317725Y-73204724D01*
X51300695Y-72901471D01*
X51300500Y-72894519D01*
X51300500Y-67324000D01*
X66994500Y-67324000D01*
X66994500Y-70876000D01*
X66994501Y-70876009D01*
X67006052Y-70983450D01*
X67006054Y-70983462D01*
X67017260Y-71034972D01*
X67051383Y-71137497D01*
X67051386Y-71137503D01*
X67129171Y-71258537D01*
X67129179Y-71258548D01*
X67174923Y-71311340D01*
X67174926Y-71311343D01*
X67174930Y-71311347D01*
X67283664Y-71405567D01*
X67283667Y-71405568D01*
X67283668Y-71405569D01*
X67377925Y-71448616D01*
X67414541Y-71465338D01*
X67481580Y-71485023D01*
X67481584Y-71485024D01*
X67624000Y-71505500D01*
X67624003Y-71505500D01*
X76375990Y-71505500D01*
X76376000Y-71505500D01*
X76483456Y-71493947D01*
X76534967Y-71482741D01*
X76569197Y-71471347D01*
X76637497Y-71448616D01*
X76637501Y-71448613D01*
X76637504Y-71448613D01*
X76758543Y-71370825D01*
X76811347Y-71325070D01*
X76905567Y-71216336D01*
X76965338Y-71085459D01*
X76985023Y-71018420D01*
X76985024Y-71018416D01*
X77005500Y-70876000D01*
X77005500Y-67324000D01*
X76993947Y-67216544D01*
X76982741Y-67165033D01*
X76982637Y-67164722D01*
X76948616Y-67062502D01*
X76948613Y-67062496D01*
X76897950Y-66983664D01*
X76870825Y-66941457D01*
X76870820Y-66941451D01*
X76825076Y-66888659D01*
X76825072Y-66888656D01*
X76825070Y-66888653D01*
X76716336Y-66794433D01*
X76716333Y-66794431D01*
X76716331Y-66794430D01*
X76585465Y-66734664D01*
X76585460Y-66734662D01*
X76585459Y-66734662D01*
X76518420Y-66714977D01*
X76518422Y-66714977D01*
X76518417Y-66714976D01*
X76470944Y-66708150D01*
X76376000Y-66694500D01*
X76375998Y-66694500D01*
X70167230Y-66694500D01*
X70100191Y-66674815D01*
X70079549Y-66658181D01*
X70058657Y-66637289D01*
X70058656Y-66637288D01*
X69909334Y-66545186D01*
X69742797Y-66490001D01*
X69742795Y-66490000D01*
X69640016Y-66479500D01*
X69640009Y-66479500D01*
X69047207Y-66479500D01*
X69008892Y-66473432D01*
X69007682Y-66473039D01*
X69005895Y-66472458D01*
X68829372Y-66444500D01*
X68829367Y-66444500D01*
X68650634Y-66444500D01*
X68650630Y-66444500D01*
X68474110Y-66472457D01*
X68474092Y-66472462D01*
X68471104Y-66473433D01*
X68432793Y-66479500D01*
X67839998Y-66479500D01*
X67839980Y-66479501D01*
X67737203Y-66490000D01*
X67737200Y-66490001D01*
X67570668Y-66545185D01*
X67570663Y-66545187D01*
X67421342Y-66637289D01*
X67297288Y-66761343D01*
X67297285Y-66761347D01*
X67279430Y-66790294D01*
X67244516Y-66825870D01*
X67245003Y-66826520D01*
X67241454Y-66829176D01*
X67188659Y-66874923D01*
X67094433Y-66983664D01*
X67094430Y-66983668D01*
X67034664Y-67114534D01*
X67014976Y-67181582D01*
X67009949Y-67216549D01*
X66994500Y-67324000D01*
X51300500Y-67324000D01*
X51300500Y-42439029D01*
X62682000Y-42439029D01*
X62682000Y-45612565D01*
X62685118Y-45628242D01*
X62687500Y-45652431D01*
X62687500Y-46245001D01*
X62687501Y-46245019D01*
X62698000Y-46347796D01*
X62698001Y-46347799D01*
X62742345Y-46481618D01*
X62753186Y-46514334D01*
X62845288Y-46663656D01*
X62969344Y-46787712D01*
X63117610Y-46879162D01*
X63140192Y-46897019D01*
X67376971Y-51133798D01*
X67410456Y-51195121D01*
X67405472Y-51264813D01*
X67376972Y-51309160D01*
X67257287Y-51428845D01*
X67165187Y-51578163D01*
X67165186Y-51578166D01*
X67110001Y-51744703D01*
X67110001Y-51744704D01*
X67110000Y-51744704D01*
X67099500Y-51847483D01*
X67099500Y-52647501D01*
X67099501Y-52647519D01*
X67110000Y-52750296D01*
X67110001Y-52750299D01*
X67165185Y-52916831D01*
X67165187Y-52916836D01*
X67192112Y-52960489D01*
X67257288Y-53066156D01*
X67381344Y-53190212D01*
X67530666Y-53282314D01*
X67697203Y-53337499D01*
X67799991Y-53348000D01*
X68392790Y-53347999D01*
X68431110Y-53354069D01*
X68433554Y-53354862D01*
X68434103Y-53355041D01*
X68494262Y-53364569D01*
X68610630Y-53383000D01*
X68610634Y-53383000D01*
X68789370Y-53383000D01*
X68881233Y-53368450D01*
X68965897Y-53355041D01*
X68967218Y-53354611D01*
X68968890Y-53354069D01*
X69007210Y-53347999D01*
X69600002Y-53347999D01*
X69600008Y-53347999D01*
X69702797Y-53337499D01*
X69869334Y-53282314D01*
X70018656Y-53190212D01*
X70142712Y-53066156D01*
X70217809Y-52944402D01*
X70269757Y-52897679D01*
X70323348Y-52885500D01*
X71789365Y-52885500D01*
X71789366Y-52885500D01*
X71965897Y-52857540D01*
X72135881Y-52802309D01*
X72220069Y-52759411D01*
X72263760Y-52746539D01*
X72327797Y-52739999D01*
X72494334Y-52684814D01*
X72643656Y-52592712D01*
X72643657Y-52592710D01*
X72649803Y-52588920D01*
X72650939Y-52590762D01*
X72705898Y-52568593D01*
X72718010Y-52568000D01*
X74810799Y-52568000D01*
X74877838Y-52587685D01*
X74898480Y-52604319D01*
X74960272Y-52666111D01*
X75104869Y-52771167D01*
X75131141Y-52784553D01*
X75264115Y-52852307D01*
X75264117Y-52852307D01*
X75264120Y-52852309D01*
X75434103Y-52907541D01*
X75532175Y-52923073D01*
X75610630Y-52935500D01*
X75610634Y-52935500D01*
X75789372Y-52935500D01*
X75869607Y-52922791D01*
X75965897Y-52907541D01*
X76135881Y-52852309D01*
X76295132Y-52771167D01*
X76439729Y-52666111D01*
X76566111Y-52539729D01*
X76671167Y-52395132D01*
X76752309Y-52235881D01*
X76807541Y-52065897D01*
X76822791Y-51969607D01*
X76835500Y-51889372D01*
X76835500Y-51710629D01*
X76814520Y-51578168D01*
X76807541Y-51534103D01*
X76752309Y-51364120D01*
X76752307Y-51364117D01*
X76752307Y-51364115D01*
X76695181Y-51252000D01*
X76671167Y-51204869D01*
X76566111Y-51060272D01*
X76389728Y-50883889D01*
X76245131Y-50778833D01*
X76208169Y-50760000D01*
X76085884Y-50697692D01*
X76045101Y-50684441D01*
X75915897Y-50642459D01*
X75915891Y-50642458D01*
X75739370Y-50614500D01*
X75739366Y-50614500D01*
X75560634Y-50614500D01*
X75560630Y-50614500D01*
X75384108Y-50642458D01*
X75384106Y-50642458D01*
X75384103Y-50642459D01*
X75299111Y-50670075D01*
X75214115Y-50697692D01*
X75054868Y-50778833D01*
X75004833Y-50815186D01*
X74910272Y-50883889D01*
X74910270Y-50883891D01*
X74910269Y-50883891D01*
X74898480Y-50895681D01*
X74837157Y-50929166D01*
X74810799Y-50932000D01*
X72718010Y-50932000D01*
X72650971Y-50912315D01*
X72645674Y-50908533D01*
X72494336Y-50815187D01*
X72494331Y-50815185D01*
X72492862Y-50814698D01*
X72327797Y-50760001D01*
X72327795Y-50760000D01*
X72263757Y-50753458D01*
X72220066Y-50740585D01*
X72135878Y-50697689D01*
X71965900Y-50642460D01*
X71833498Y-50621490D01*
X71789366Y-50614500D01*
X71789365Y-50614500D01*
X69222689Y-50614500D01*
X69155650Y-50594815D01*
X69135008Y-50578181D01*
X64724818Y-46167991D01*
X64691333Y-46106668D01*
X64688499Y-46080310D01*
X64688499Y-45194998D01*
X64688498Y-45194981D01*
X64677999Y-45092203D01*
X64677998Y-45092200D01*
X64672901Y-45076818D01*
X64622814Y-44925666D01*
X64530712Y-44776344D01*
X64406656Y-44652288D01*
X64406655Y-44652287D01*
X64376902Y-44633935D01*
X64330178Y-44581986D01*
X64318000Y-44528397D01*
X64318000Y-42439033D01*
X64317999Y-42439029D01*
X67762000Y-42439029D01*
X67762000Y-45485570D01*
X67793432Y-45643591D01*
X67793435Y-45643602D01*
X67797170Y-45652618D01*
X67855097Y-45792468D01*
X67878908Y-45828105D01*
X67882935Y-45836762D01*
X67886778Y-45862243D01*
X67894480Y-45886838D01*
X67894500Y-45889053D01*
X67894500Y-46245001D01*
X67894501Y-46245019D01*
X67905000Y-46347796D01*
X67905001Y-46347799D01*
X67949345Y-46481618D01*
X67960186Y-46514334D01*
X68017117Y-46606635D01*
X68056080Y-46669803D01*
X68054234Y-46670941D01*
X68076405Y-46725878D01*
X68077000Y-46738009D01*
X68077000Y-48020570D01*
X68108433Y-48178594D01*
X68108436Y-48178606D01*
X68131976Y-48235436D01*
X68170093Y-48327461D01*
X68170100Y-48327474D01*
X68259617Y-48461444D01*
X68259620Y-48461448D01*
X68566551Y-48768379D01*
X68566555Y-48768382D01*
X68700527Y-48857900D01*
X68700529Y-48857900D01*
X68700531Y-48857902D01*
X68849398Y-48919564D01*
X68888098Y-48927262D01*
X69007431Y-48951000D01*
X69007434Y-48951000D01*
X69168567Y-48951000D01*
X69285001Y-48927839D01*
X69326602Y-48919564D01*
X69475468Y-48857902D01*
X69609444Y-48768382D01*
X69723382Y-48654444D01*
X69812902Y-48520468D01*
X69874564Y-48371602D01*
X69885007Y-48319101D01*
X69906000Y-48213567D01*
X69906000Y-48052431D01*
X69874565Y-47894404D01*
X69874564Y-47894398D01*
X69812902Y-47745531D01*
X69812900Y-47745529D01*
X69812900Y-47745527D01*
X69733898Y-47627292D01*
X69713020Y-47560614D01*
X69713000Y-47558401D01*
X69713000Y-46738009D01*
X69717788Y-46721287D01*
X69717566Y-46704668D01*
X69728960Y-46682276D01*
X69731797Y-46672370D01*
X69736440Y-46664927D01*
X69737712Y-46663656D01*
X69779112Y-46596535D01*
X69779221Y-46596361D01*
X69805145Y-46573284D01*
X69830833Y-46550179D01*
X69831193Y-46550097D01*
X69831409Y-46549905D01*
X69833459Y-46549582D01*
X69884424Y-46538000D01*
X71140756Y-46538000D01*
X71207795Y-46557685D01*
X71209647Y-46558898D01*
X71281086Y-46606632D01*
X71281088Y-46606633D01*
X71281092Y-46606635D01*
X71433595Y-46669803D01*
X71463165Y-46682051D01*
X71463169Y-46682051D01*
X71463170Y-46682052D01*
X71656456Y-46720500D01*
X71656459Y-46720500D01*
X71853543Y-46720500D01*
X71983582Y-46694632D01*
X72046835Y-46682051D01*
X72228914Y-46606632D01*
X72392782Y-46497139D01*
X72532139Y-46357782D01*
X72641632Y-46193914D01*
X72717051Y-46011835D01*
X72753221Y-45829998D01*
X72755500Y-45818543D01*
X72755500Y-45621456D01*
X72717052Y-45428170D01*
X72717051Y-45428169D01*
X72717051Y-45428165D01*
X72709247Y-45409325D01*
X72641635Y-45246092D01*
X72641628Y-45246079D01*
X72532139Y-45082218D01*
X72532136Y-45082214D01*
X72392785Y-44942863D01*
X72392781Y-44942860D01*
X72228920Y-44833371D01*
X72228907Y-44833364D01*
X72046839Y-44757950D01*
X72046829Y-44757947D01*
X71853543Y-44719500D01*
X71853541Y-44719500D01*
X71656459Y-44719500D01*
X71656457Y-44719500D01*
X71463170Y-44757947D01*
X71463160Y-44757950D01*
X71281092Y-44833364D01*
X71281080Y-44833371D01*
X71209647Y-44881102D01*
X71142970Y-44901980D01*
X71140756Y-44902000D01*
X69884424Y-44902000D01*
X69817385Y-44882315D01*
X69778885Y-44843097D01*
X69772886Y-44833371D01*
X69737712Y-44776344D01*
X69613656Y-44652288D01*
X69464334Y-44560186D01*
X69464332Y-44560185D01*
X69458187Y-44556395D01*
X69459704Y-44553934D01*
X69417145Y-44516449D01*
X69398000Y-44450257D01*
X69398000Y-42439033D01*
X69397999Y-42439029D01*
X69392187Y-42409812D01*
X69366565Y-42280998D01*
X69318538Y-42165052D01*
X69309099Y-42117599D01*
X69309099Y-41671629D01*
X69309098Y-41671623D01*
X69309097Y-41671616D01*
X69302691Y-41612017D01*
X69271195Y-41527573D01*
X69252397Y-41477171D01*
X69252393Y-41477164D01*
X69166147Y-41361955D01*
X69166144Y-41361952D01*
X69050935Y-41275706D01*
X69050928Y-41275702D01*
X68916086Y-41225410D01*
X68916085Y-41225409D01*
X68916083Y-41225409D01*
X68856473Y-41219000D01*
X68856463Y-41219000D01*
X68303529Y-41219000D01*
X68303523Y-41219001D01*
X68243916Y-41225408D01*
X68109071Y-41275702D01*
X68109064Y-41275706D01*
X67993855Y-41361952D01*
X67993852Y-41361955D01*
X67907606Y-41477164D01*
X67907602Y-41477171D01*
X67857308Y-41612017D01*
X67850901Y-41671616D01*
X67850901Y-41671623D01*
X67850900Y-41671635D01*
X67850900Y-42117600D01*
X67841461Y-42165053D01*
X67793435Y-42280997D01*
X67793433Y-42281005D01*
X67762000Y-42439029D01*
X64317999Y-42439029D01*
X64312187Y-42409812D01*
X64286565Y-42280998D01*
X64238538Y-42165052D01*
X64229099Y-42117599D01*
X64229099Y-41671629D01*
X64229098Y-41671623D01*
X64229097Y-41671616D01*
X64222691Y-41612017D01*
X64191195Y-41527573D01*
X64172397Y-41477171D01*
X64172393Y-41477164D01*
X64086147Y-41361955D01*
X64086144Y-41361952D01*
X63970935Y-41275706D01*
X63970928Y-41275702D01*
X63836086Y-41225410D01*
X63836085Y-41225409D01*
X63836083Y-41225409D01*
X63776473Y-41219000D01*
X63776463Y-41219000D01*
X63223529Y-41219000D01*
X63223523Y-41219001D01*
X63163916Y-41225408D01*
X63029071Y-41275702D01*
X63029064Y-41275706D01*
X62913855Y-41361952D01*
X62913852Y-41361955D01*
X62827606Y-41477164D01*
X62827602Y-41477171D01*
X62777308Y-41612017D01*
X62770901Y-41671616D01*
X62770901Y-41671623D01*
X62770900Y-41671635D01*
X62770900Y-42117600D01*
X62761461Y-42165053D01*
X62713435Y-42280997D01*
X62713433Y-42281005D01*
X62682000Y-42439029D01*
X51300500Y-42439029D01*
X51300500Y-31562435D01*
X60230900Y-31562435D01*
X60230900Y-33258370D01*
X60230901Y-33258376D01*
X60237308Y-33317983D01*
X60287602Y-33452828D01*
X60287606Y-33452835D01*
X60373852Y-33568044D01*
X60373855Y-33568047D01*
X60489064Y-33654293D01*
X60489071Y-33654297D01*
X60534018Y-33671061D01*
X60623917Y-33704591D01*
X60683527Y-33711000D01*
X61236472Y-33710999D01*
X61296083Y-33704591D01*
X61430931Y-33654296D01*
X61546146Y-33568046D01*
X61632396Y-33452831D01*
X61682691Y-33317983D01*
X61689100Y-33258373D01*
X61689099Y-31562428D01*
X61682691Y-31502817D01*
X61632396Y-31367969D01*
X61632395Y-31367968D01*
X61632393Y-31367964D01*
X61546147Y-31252755D01*
X61546144Y-31252752D01*
X61430935Y-31166506D01*
X61430928Y-31166502D01*
X61296086Y-31116210D01*
X61296085Y-31116209D01*
X61296083Y-31116209D01*
X61236473Y-31109800D01*
X61236463Y-31109800D01*
X60683529Y-31109800D01*
X60683523Y-31109801D01*
X60623916Y-31116208D01*
X60489071Y-31166502D01*
X60489064Y-31166506D01*
X60373855Y-31252752D01*
X60373852Y-31252755D01*
X60287606Y-31367964D01*
X60287602Y-31367971D01*
X60237308Y-31502817D01*
X60230901Y-31562416D01*
X60230901Y-31562423D01*
X60230900Y-31562435D01*
X51300500Y-31562435D01*
X51300500Y-28705480D01*
X51300695Y-28698528D01*
X51305469Y-28613513D01*
X51317725Y-28395273D01*
X51319279Y-28381478D01*
X51369572Y-28085470D01*
X51372666Y-28071918D01*
X51455784Y-27783411D01*
X51460377Y-27770286D01*
X51575276Y-27492895D01*
X51581296Y-27480395D01*
X51726536Y-27217601D01*
X51733931Y-27205833D01*
X51907675Y-26960963D01*
X51916330Y-26950109D01*
X52116409Y-26726221D01*
X52126221Y-26716409D01*
X52350109Y-26516330D01*
X52360963Y-26507675D01*
X52605838Y-26333927D01*
X52617601Y-26326536D01*
X52880395Y-26181296D01*
X52892895Y-26175276D01*
X53170290Y-26060375D01*
X53183407Y-26055785D01*
X53471924Y-25972664D01*
X53485470Y-25969572D01*
X53781478Y-25919279D01*
X53795273Y-25917725D01*
X54064179Y-25902623D01*
X54098529Y-25900695D01*
X54105481Y-25900500D01*
X54167892Y-25900500D01*
X82760404Y-25900500D01*
X82827443Y-25920185D01*
G37*
%TD.AperFunction*%
%TA.AperFunction,Conductor*%
G36*
X100373334Y-65690548D02*
G01*
X100417681Y-65719049D01*
X100511344Y-65812712D01*
X100660666Y-65904814D01*
X100701222Y-65918253D01*
X100758666Y-65958024D01*
X100785490Y-66022539D01*
X100773176Y-66091315D01*
X100725633Y-66142516D01*
X100714630Y-66148337D01*
X100710670Y-66150183D01*
X100561342Y-66242289D01*
X100437289Y-66366342D01*
X100345187Y-66515663D01*
X100345185Y-66515668D01*
X100290001Y-66682203D01*
X100279500Y-66784983D01*
X100279500Y-67835001D01*
X100279501Y-67835019D01*
X100290000Y-67937796D01*
X100290001Y-67937799D01*
X100345185Y-68104331D01*
X100345187Y-68104336D01*
X100348989Y-68110500D01*
X100437288Y-68253656D01*
X100561344Y-68377712D01*
X100710666Y-68469814D01*
X100710667Y-68469814D01*
X100716813Y-68473605D01*
X100715386Y-68475917D01*
X100758405Y-68513805D01*
X100777547Y-68581002D01*
X100757321Y-68647880D01*
X100715440Y-68684170D01*
X100716813Y-68686395D01*
X100710667Y-68690185D01*
X100710666Y-68690186D01*
X100656146Y-68723814D01*
X100561342Y-68782289D01*
X100437289Y-68906342D01*
X100345187Y-69055663D01*
X100345186Y-69055666D01*
X100290001Y-69222203D01*
X100290001Y-69222204D01*
X100290000Y-69222204D01*
X100279500Y-69324983D01*
X100279500Y-70375001D01*
X100279501Y-70375019D01*
X100290000Y-70477796D01*
X100290001Y-70477799D01*
X100321934Y-70574165D01*
X100345186Y-70644334D01*
X100437288Y-70793656D01*
X100561344Y-70917712D01*
X100710666Y-71009814D01*
X100877203Y-71064999D01*
X100979991Y-71075500D01*
X101566718Y-71075499D01*
X101633757Y-71095183D01*
X101654399Y-71111818D01*
X102113389Y-71570808D01*
X102185717Y-71643136D01*
X102200793Y-71658212D01*
X102303560Y-71726879D01*
X102303573Y-71726886D01*
X102393677Y-71764208D01*
X102443752Y-71804560D01*
X102444594Y-71803870D01*
X102447912Y-71807913D01*
X102448081Y-71808049D01*
X102448360Y-71808458D01*
X102448458Y-71808578D01*
X102448461Y-71808582D01*
X102587815Y-71947936D01*
X102587819Y-71947940D01*
X102751679Y-72057428D01*
X102751692Y-72057435D01*
X102933760Y-72132849D01*
X102933765Y-72132851D01*
X102933769Y-72132851D01*
X102933770Y-72132852D01*
X103127056Y-72171300D01*
X103127059Y-72171300D01*
X103324143Y-72171300D01*
X103454182Y-72145432D01*
X103517435Y-72132851D01*
X103699514Y-72057432D01*
X103863382Y-71947939D01*
X104002739Y-71808582D01*
X104112232Y-71644714D01*
X104187651Y-71462635D01*
X104212062Y-71339914D01*
X104226100Y-71269343D01*
X104226100Y-71072256D01*
X104187652Y-70878970D01*
X104187651Y-70878969D01*
X104187651Y-70878965D01*
X104171589Y-70840187D01*
X104112235Y-70696892D01*
X104112228Y-70696879D01*
X104002739Y-70533018D01*
X104002736Y-70533014D01*
X103863385Y-70393663D01*
X103863381Y-70393660D01*
X103699520Y-70284171D01*
X103699507Y-70284164D01*
X103517439Y-70208750D01*
X103517429Y-70208747D01*
X103324143Y-70170300D01*
X103324141Y-70170300D01*
X103127059Y-70170300D01*
X103127057Y-70170300D01*
X102933770Y-70208747D01*
X102933760Y-70208750D01*
X102751693Y-70284164D01*
X102751682Y-70284170D01*
X102746321Y-70287753D01*
X102679643Y-70308630D01*
X102612263Y-70290145D01*
X102589750Y-70272331D01*
X102389804Y-70072385D01*
X102356319Y-70011062D01*
X102361303Y-69941370D01*
X102389804Y-69897023D01*
X102598508Y-69688319D01*
X102659831Y-69654834D01*
X102686189Y-69652000D01*
X104982567Y-69652000D01*
X104982568Y-69651999D01*
X105140602Y-69620565D01*
X105215089Y-69589711D01*
X105289468Y-69558903D01*
X105423445Y-69469382D01*
X106629582Y-68263245D01*
X106719103Y-68129268D01*
X106752999Y-68047435D01*
X106760947Y-68028245D01*
X106804783Y-67973845D01*
X106871076Y-67951776D01*
X106938776Y-67969052D01*
X106963189Y-67988016D01*
X107949618Y-68974445D01*
X108007173Y-69032000D01*
X108063554Y-69088381D01*
X108197533Y-69177903D01*
X108271965Y-69208733D01*
X108346398Y-69239565D01*
X108434693Y-69257127D01*
X108496601Y-69289511D01*
X108531176Y-69350226D01*
X108534500Y-69378744D01*
X108534500Y-70375001D01*
X108534501Y-70375019D01*
X108545000Y-70477796D01*
X108545001Y-70477799D01*
X108576934Y-70574165D01*
X108600186Y-70644334D01*
X108692288Y-70793656D01*
X108816344Y-70917712D01*
X108965666Y-71009814D01*
X109132203Y-71064999D01*
X109234991Y-71075500D01*
X109552310Y-71075499D01*
X109619349Y-71095183D01*
X109639991Y-71111818D01*
X110800277Y-72272103D01*
X110800287Y-72272114D01*
X110804617Y-72276444D01*
X110804618Y-72276445D01*
X110918555Y-72390382D01*
X110972219Y-72426238D01*
X111052532Y-72479903D01*
X111056632Y-72481601D01*
X111065343Y-72487315D01*
X111084516Y-72509865D01*
X111105631Y-72530607D01*
X111106896Y-72536186D01*
X111110603Y-72540545D01*
X111114541Y-72569882D01*
X111121090Y-72598745D01*
X111119138Y-72604122D01*
X111119900Y-72609793D01*
X111107351Y-72636604D01*
X111097256Y-72664424D01*
X111092707Y-72667892D01*
X111090282Y-72673075D01*
X111065235Y-72688842D01*
X111041698Y-72706792D01*
X111034652Y-72708095D01*
X111031154Y-72710298D01*
X111023151Y-72710223D01*
X110997332Y-72715000D01*
X98942189Y-72715000D01*
X98875150Y-72695315D01*
X98854508Y-72678681D01*
X98009319Y-71833492D01*
X97975834Y-71772169D01*
X97973000Y-71745811D01*
X97973000Y-66303188D01*
X97992685Y-66236149D01*
X98009315Y-66215511D01*
X98461548Y-65763277D01*
X98522871Y-65729793D01*
X98592563Y-65734777D01*
X98636910Y-65763278D01*
X98686344Y-65812712D01*
X98835666Y-65904814D01*
X99002203Y-65959999D01*
X99104991Y-65970500D01*
X99730008Y-65970499D01*
X99730016Y-65970498D01*
X99730019Y-65970498D01*
X99803115Y-65963031D01*
X99832797Y-65959999D01*
X99999334Y-65904814D01*
X100148656Y-65812712D01*
X100242319Y-65719049D01*
X100303642Y-65685564D01*
X100373334Y-65690548D01*
G37*
%TD.AperFunction*%
%TA.AperFunction,Conductor*%
G36*
X108998434Y-66207882D02*
G01*
X109074432Y-66222999D01*
X109074433Y-66223000D01*
X109074434Y-66223000D01*
X109822311Y-66223000D01*
X109889350Y-66242685D01*
X109909992Y-66259319D01*
X111068181Y-67417507D01*
X111082884Y-67444434D01*
X111099477Y-67470253D01*
X111100368Y-67476453D01*
X111101666Y-67478830D01*
X111104500Y-67505188D01*
X111104500Y-67647807D01*
X111084815Y-67714846D01*
X111032011Y-67760601D01*
X110962853Y-67770545D01*
X110911609Y-67750909D01*
X110877470Y-67728098D01*
X110877468Y-67728097D01*
X110783510Y-67689179D01*
X110728602Y-67666435D01*
X110728594Y-67666433D01*
X110570570Y-67635000D01*
X110570566Y-67635000D01*
X108975189Y-67635000D01*
X108908150Y-67615315D01*
X108887508Y-67598681D01*
X108296319Y-67007492D01*
X108262834Y-66946169D01*
X108260000Y-66919811D01*
X108260000Y-66329500D01*
X108279685Y-66262461D01*
X108332489Y-66216706D01*
X108384000Y-66205500D01*
X108974244Y-66205500D01*
X108998434Y-66207882D01*
G37*
%TD.AperFunction*%
%TD*%
%TA.AperFunction,Conductor*%
%TO.N,VCC*%
G36*
X76443039Y-67219685D02*
G01*
X76488794Y-67272489D01*
X76500000Y-67324000D01*
X76500000Y-70876000D01*
X76480315Y-70943039D01*
X76427511Y-70988794D01*
X76376000Y-71000000D01*
X67624000Y-71000000D01*
X67556961Y-70980315D01*
X67511206Y-70927511D01*
X67500000Y-70876000D01*
X67500000Y-67324000D01*
X67519685Y-67256961D01*
X67572489Y-67211206D01*
X67624000Y-67200000D01*
X76376000Y-67200000D01*
X76443039Y-67219685D01*
G37*
%TD.AperFunction*%
%TD*%
M02*
