M48
; DRILL file {KiCad 9.0.3} date 2026-02-01T21:56:07-0500
; FORMAT={-:-/ absolute / metric / decimal}
; #@! TF.CreationDate,2026-02-01T21:56:07-05:00
; #@! TF.GenerationSoftware,Kicad,Pcbnew,9.0.3
; #@! TF.FileFunction,Plated,1,2,PTH
FMAT,2
METRIC
; #@! TA.AperFunction,Plated,PTH,ComponentDrill
T1C0.250
; #@! TA.AperFunction,Plated,PTH,ViaDrill
T2C0.300
; #@! TA.AperFunction,Plated,PTH,ComponentDrill
T3C1.000
; #@! TA.AperFunction,Plated,PTH,ComponentDrill
T4C1.190
; #@! TA.AperFunction,Plated,PTH,ComponentDrill
T5C1.500
; #@! TA.AperFunction,Plated,PTH,ComponentDrill
T6C1.700
; #@! TA.AperFunction,Plated,PTH,ComponentDrill
T7C3.200
%
G90
G05
T1
X74.45Y-58.852
X74.45Y-60.0
X74.45Y-61.147
X75.55Y-58.852
X75.55Y-60.0
X75.55Y-61.147
T2
X55.0Y-65.0
X62.25Y-64.5
X62.25Y-65.5
X63.5Y-62.5
X63.5Y-65.5
X65.0Y-65.0
X65.75Y-60.0
X66.25Y-54.75
X66.25Y-56.0
X66.25Y-64.0
X67.0Y-59.75
X67.0Y-65.25
X72.975Y-57.525
X75.0Y-56.0
X78.975Y-59.525
X79.0Y-61.0
X80.25Y-54.0
X84.0Y-70.5
X84.5Y-54.25
X85.0Y-65.0
X86.0Y-59.5
X86.25Y-66.5
X88.5Y-64.5
X88.5Y-72.0
X90.0Y-60.271
X90.0Y-72.5
X91.5Y-72.0
X92.5Y-75.0
X93.0Y-62.0
X98.0Y-59.5
X98.75Y-64.75
X102.5Y-75.0
X105.0Y-75.0
X105.0Y-82.5
X105.0Y-85.5
X105.5Y-70.75
X106.0Y-82.5
X109.0Y-71.1
X111.0Y-89.9
X111.75Y-61.25
X113.75Y-57.25
X114.0Y-59.25
X114.0Y-89.5
X115.0Y-58.0
X115.0Y-60.5
X115.0Y-72.5
X115.0Y-75.0
X115.0Y-77.5
X115.0Y-83.25
X116.0Y-59.25
X116.25Y-57.25
X119.7Y-60.6
X119.7Y-80.5
X119.75Y-91.25
X120.75Y-93.75
X121.5Y-74.25
X122.5Y-58.25
X122.75Y-74.25
X123.0Y-91.0
X123.5Y-93.75
X124.25Y-59.0
X124.25Y-79.0
X124.25Y-80.5
X124.25Y-85.0
X124.75Y-61.75
X125.0Y-75.0
X125.25Y-92.75
X125.75Y-87.75
X127.5Y-72.5
X127.5Y-77.5
X130.0Y-75.0
X132.5Y-72.5
X132.5Y-77.5
X135.0Y-75.0
X137.5Y-72.5
X137.5Y-77.5
X140.0Y-75.0
X142.5Y-72.5
X142.5Y-77.5
T3
X112.46Y-55.0
X112.46Y-95.0
X115.0Y-55.0
X115.0Y-95.0
X117.54Y-55.0
X117.54Y-95.0
T4
X58.725Y-71.52
X61.265Y-71.52
T5
X95.0Y-85.0
X135.0Y-65.0
X135.0Y-85.0
T6
X92.46Y-82.46
X92.46Y-87.54
X97.54Y-82.46
X97.54Y-87.54
X132.46Y-62.46
X132.46Y-67.54
X132.46Y-82.46
X132.46Y-87.54
X137.54Y-62.46
X137.54Y-67.54
X137.54Y-82.46
X137.54Y-87.54
T7
X56.0Y-55.0
X144.0Y-55.0
X144.0Y-93.0
M30
