%TF.GenerationSoftware,KiCad,Pcbnew,9.0.3*%
%TF.CreationDate,2026-02-01T21:56:02-05:00*%
%TF.ProjectId,Low Noise Pre-Amp,4c6f7720-4e6f-4697-9365-205072652d41,v1.0*%
%TF.SameCoordinates,Original*%
%TF.FileFunction,Soldermask,Top*%
%TF.FilePolarity,Negative*%
%FSLAX46Y46*%
G04 Gerber Fmt 4.6, Leading zero omitted, Abs format (unit mm)*
G04 Created by KiCad (PCBNEW 9.0.3) date 2026-02-01 21:56:02*
%MOMM*%
%LPD*%
G01*
G04 APERTURE LIST*
G04 Aperture macros list*
%AMRoundRect*
0 Rectangle with rounded corners*
0 $1 Rounding radius*
0 $2 $3 $4 $5 $6 $7 $8 $9 X,Y pos of 4 corners*
0 Add a 4 corners polygon primitive as box body*
4,1,4,$2,$3,$4,$5,$6,$7,$8,$9,$2,$3,0*
0 Add four circle primitives for the rounded corners*
1,1,$1+$1,$2,$3*
1,1,$1+$1,$4,$5*
1,1,$1+$1,$6,$7*
1,1,$1+$1,$8,$9*
0 Add four rect primitives between the rounded corners*
20,1,$1+$1,$2,$3,$4,$5,0*
20,1,$1+$1,$4,$5,$6,$7,0*
20,1,$1+$1,$6,$7,$8,$9,0*
20,1,$1+$1,$8,$9,$2,$3,0*%
%AMFreePoly0*
4,1,9,3.862500,-0.866500,0.737500,-0.866500,0.737500,-0.450000,-0.737500,-0.450000,-0.737500,0.450000,0.737500,0.450000,0.737500,0.866500,3.862500,0.866500,3.862500,-0.866500,3.862500,-0.866500,$1*%
G04 Aperture macros list end*
%ADD10C,1.000000*%
%ADD11RoundRect,0.225000X0.225000X-0.425000X0.225000X0.425000X-0.225000X0.425000X-0.225000X-0.425000X0*%
%ADD12FreePoly0,90.000000*%
%ADD13RoundRect,0.150000X-0.825000X-0.150000X0.825000X-0.150000X0.825000X0.150000X-0.825000X0.150000X0*%
%ADD14RoundRect,0.075000X-0.650000X-0.075000X0.650000X-0.075000X0.650000X0.075000X-0.650000X0.075000X0*%
%ADD15R,1.651000X2.845000*%
%ADD16R,1.700000X1.700000*%
%ADD17C,1.700000*%
%ADD18RoundRect,0.250000X0.262500X0.450000X-0.262500X0.450000X-0.262500X-0.450000X0.262500X-0.450000X0*%
%ADD19RoundRect,0.250000X-0.262500X-0.450000X0.262500X-0.450000X0.262500X0.450000X-0.262500X0.450000X0*%
%ADD20RoundRect,0.250000X-0.620000X-0.845000X0.620000X-0.845000X0.620000X0.845000X-0.620000X0.845000X0*%
%ADD21O,1.740000X2.190000*%
%ADD22C,2.050000*%
%ADD23C,2.250000*%
%ADD24C,5.600000*%
%ADD25RoundRect,0.250000X-0.250000X-0.475000X0.250000X-0.475000X0.250000X0.475000X-0.250000X0.475000X0*%
%ADD26RoundRect,0.250000X0.475000X-0.250000X0.475000X0.250000X-0.475000X0.250000X-0.475000X-0.250000X0*%
%ADD27RoundRect,0.250000X-0.475000X0.250000X-0.475000X-0.250000X0.475000X-0.250000X0.475000X0.250000X0*%
%ADD28RoundRect,0.250000X0.250000X0.475000X-0.250000X0.475000X-0.250000X-0.475000X0.250000X-0.475000X0*%
G04 APERTURE END LIST*
D10*
%TO.C,TP2*%
X86000000Y-57000000D03*
%TD*%
D11*
%TO.C,U5*%
X88500000Y-56950000D03*
D12*
X90000000Y-56862500D03*
D11*
X91500000Y-56950000D03*
%TD*%
%TO.C,U4*%
X88500000Y-66950000D03*
D12*
X90000000Y-66862500D03*
D11*
X91500000Y-66950000D03*
%TD*%
D13*
%TO.C,U3*%
X112593942Y-63095000D03*
X112593942Y-64365000D03*
X112593942Y-65635000D03*
X112593942Y-66905000D03*
X117543942Y-66905000D03*
X117543942Y-65635000D03*
X117543942Y-64365000D03*
X117543942Y-63095000D03*
%TD*%
D14*
%TO.C,U2*%
X72850000Y-58250000D03*
X72850000Y-58750000D03*
X72850000Y-59250000D03*
X72850000Y-59750000D03*
X72850000Y-60250000D03*
X72850000Y-60750000D03*
X72850000Y-61250000D03*
X72850000Y-61750000D03*
X77150000Y-61750000D03*
X77150000Y-61250000D03*
X77150000Y-60750000D03*
X77150000Y-60250000D03*
X77150000Y-59750000D03*
X77150000Y-59250000D03*
X77150000Y-58750000D03*
X77150000Y-58250000D03*
D15*
X75000000Y-60000000D03*
%TD*%
D13*
%TO.C,U1*%
X112525000Y-83095000D03*
X112525000Y-84365000D03*
X112525000Y-85635000D03*
X112525000Y-86905000D03*
X117475000Y-86905000D03*
X117475000Y-85635000D03*
X117475000Y-84365000D03*
X117475000Y-83095000D03*
%TD*%
D10*
%TO.C,TP4*%
X94000000Y-57000000D03*
%TD*%
%TO.C,TP3*%
X84000000Y-69000000D03*
%TD*%
%TO.C,TP1*%
X93500000Y-67000000D03*
%TD*%
D16*
%TO.C,RV2*%
X112460000Y-55000000D03*
D17*
X115000000Y-55000000D03*
X117540000Y-55000000D03*
%TD*%
D16*
%TO.C,RV1*%
X112460000Y-95000000D03*
D17*
X115000000Y-95000000D03*
X117540000Y-95000000D03*
%TD*%
D18*
%TO.C,R17*%
X122981442Y-66500000D03*
X121156442Y-66500000D03*
%TD*%
%TO.C,R16*%
X122981442Y-69500000D03*
X121156442Y-69500000D03*
%TD*%
D19*
%TO.C,R15*%
X107156442Y-63500000D03*
X108981442Y-63500000D03*
%TD*%
%TO.C,R14*%
X108981442Y-60500000D03*
X107156442Y-60500000D03*
%TD*%
%TO.C,R13*%
X107156442Y-66500000D03*
X108981442Y-66500000D03*
%TD*%
%TO.C,R12*%
X61587500Y-61000000D03*
X63412500Y-61000000D03*
%TD*%
%TO.C,R11*%
X67587500Y-58500000D03*
X69412500Y-58500000D03*
%TD*%
%TO.C,R10*%
X71587500Y-56000000D03*
X73412500Y-56000000D03*
%TD*%
D18*
%TO.C,R9*%
X122912500Y-86500000D03*
X121087500Y-86500000D03*
%TD*%
D19*
%TO.C,R8*%
X107087500Y-81000000D03*
X108912500Y-81000000D03*
%TD*%
%TO.C,R7*%
X121087500Y-83500000D03*
X122912500Y-83500000D03*
%TD*%
%TO.C,R6*%
X81587500Y-56000000D03*
X83412500Y-56000000D03*
%TD*%
D18*
%TO.C,R5*%
X108912500Y-78250000D03*
X107087500Y-78250000D03*
%TD*%
D19*
%TO.C,R4*%
X81587500Y-58500000D03*
X83412500Y-58500000D03*
%TD*%
%TO.C,R3*%
X127087500Y-83500000D03*
X128912500Y-83500000D03*
%TD*%
%TO.C,R2*%
X117121475Y-89568750D03*
X118946475Y-89568750D03*
%TD*%
%TO.C,R1*%
X107087500Y-87000000D03*
X108912500Y-87000000D03*
%TD*%
D20*
%TO.C,J4*%
X58725000Y-71520000D03*
D21*
X61265000Y-71520000D03*
%TD*%
D22*
%TO.C,J3*%
X95000000Y-85000000D03*
D23*
X92460000Y-82460000D03*
X92460000Y-87540000D03*
X97540000Y-82460000D03*
X97540000Y-87540000D03*
%TD*%
D22*
%TO.C,J2*%
X135000000Y-65000000D03*
D23*
X132460000Y-62460000D03*
X132460000Y-67540000D03*
X137540000Y-62460000D03*
X137540000Y-67540000D03*
%TD*%
D22*
%TO.C,J1*%
X135000000Y-85000000D03*
D23*
X132460000Y-82460000D03*
X132460000Y-87540000D03*
X137540000Y-82460000D03*
X137540000Y-87540000D03*
%TD*%
D24*
%TO.C,H3*%
X144000000Y-93000000D03*
%TD*%
%TO.C,H2*%
X56000000Y-55000000D03*
%TD*%
%TO.C,H1*%
X144000000Y-55000000D03*
%TD*%
D25*
%TO.C,C22*%
X59050000Y-65500000D03*
X60950000Y-65500000D03*
%TD*%
%TO.C,C6*%
X107050000Y-90000000D03*
X108950000Y-90000000D03*
%TD*%
%TO.C,C15*%
X107118942Y-69500000D03*
X109018942Y-69500000D03*
%TD*%
%TO.C,C3*%
X121050000Y-80500000D03*
X122950000Y-80500000D03*
%TD*%
%TO.C,C14*%
X121118942Y-60500000D03*
X123018942Y-60500000D03*
%TD*%
D26*
%TO.C,C21*%
X91500000Y-60960000D03*
X91500000Y-59060000D03*
%TD*%
%TO.C,C20*%
X88500000Y-60960000D03*
X88500000Y-59060000D03*
%TD*%
D27*
%TO.C,C19*%
X88500000Y-69050000D03*
X88500000Y-70950000D03*
%TD*%
%TO.C,C18*%
X91500000Y-69050000D03*
X91500000Y-70950000D03*
%TD*%
D28*
%TO.C,C17*%
X123018942Y-72500000D03*
X121118942Y-72500000D03*
%TD*%
%TO.C,C16*%
X102450000Y-63500000D03*
X100550000Y-63500000D03*
%TD*%
D25*
%TO.C,C13*%
X121118942Y-63500000D03*
X123018942Y-63500000D03*
%TD*%
%TO.C,C12*%
X100550000Y-66500000D03*
X102450000Y-66500000D03*
%TD*%
D28*
%TO.C,C11*%
X69450000Y-61000000D03*
X67550000Y-61000000D03*
%TD*%
%TO.C,C10*%
X75950000Y-64500000D03*
X74050000Y-64500000D03*
%TD*%
%TO.C,C9*%
X69450000Y-63500000D03*
X67550000Y-63500000D03*
%TD*%
D25*
%TO.C,C8*%
X67550000Y-56000000D03*
X69450000Y-56000000D03*
%TD*%
%TO.C,C7*%
X77550000Y-56000000D03*
X79450000Y-56000000D03*
%TD*%
%TO.C,C5*%
X121050000Y-89500000D03*
X122950000Y-89500000D03*
%TD*%
D28*
%TO.C,C4*%
X108950000Y-84000000D03*
X107050000Y-84000000D03*
%TD*%
D25*
%TO.C,C2*%
X81550000Y-61000000D03*
X83450000Y-61000000D03*
%TD*%
%TO.C,C1*%
X81550000Y-63500000D03*
X83450000Y-63500000D03*
%TD*%
M02*
