%TF.GenerationSoftware,KiCad,Pcbnew,8.0.0*%
%TF.CreationDate,2024-06-16T14:01:43-04:00*%
%TF.ProjectId,X-Band Amplifier,582d4261-6e64-4204-916d-706c69666965,v1.0*%
%TF.SameCoordinates,Original*%
%TF.FileFunction,Legend,Top*%
%TF.FilePolarity,Positive*%
%FSLAX46Y46*%
G04 Gerber Fmt 4.6, Leading zero omitted, Abs format (unit mm)*
G04 Created by KiCad (PCBNEW 8.0.0) date 2024-06-16 14:01:43*
%MOMM*%
%LPD*%
G01*
G04 APERTURE LIST*
%ADD10C,0.100000*%
%ADD11C,0.080000*%
%ADD12C,0.087500*%
%ADD13C,0.120000*%
G04 APERTURE END LIST*
D10*
X147922668Y-57756133D02*
X148056001Y-57756133D01*
X148056001Y-57756133D02*
X148122668Y-57789466D01*
X148122668Y-57789466D02*
X148189334Y-57856133D01*
X148189334Y-57856133D02*
X148222668Y-57989466D01*
X148222668Y-57989466D02*
X148222668Y-58222800D01*
X148222668Y-58222800D02*
X148189334Y-58356133D01*
X148189334Y-58356133D02*
X148122668Y-58422800D01*
X148122668Y-58422800D02*
X148056001Y-58456133D01*
X148056001Y-58456133D02*
X147922668Y-58456133D01*
X147922668Y-58456133D02*
X147856001Y-58422800D01*
X147856001Y-58422800D02*
X147789334Y-58356133D01*
X147789334Y-58356133D02*
X147756001Y-58222800D01*
X147756001Y-58222800D02*
X147756001Y-57989466D01*
X147756001Y-57989466D02*
X147789334Y-57856133D01*
X147789334Y-57856133D02*
X147856001Y-57789466D01*
X147856001Y-57789466D02*
X147922668Y-57756133D01*
X148522667Y-57756133D02*
X148522667Y-58322800D01*
X148522667Y-58322800D02*
X148556001Y-58389466D01*
X148556001Y-58389466D02*
X148589334Y-58422800D01*
X148589334Y-58422800D02*
X148656001Y-58456133D01*
X148656001Y-58456133D02*
X148789334Y-58456133D01*
X148789334Y-58456133D02*
X148856001Y-58422800D01*
X148856001Y-58422800D02*
X148889334Y-58389466D01*
X148889334Y-58389466D02*
X148922667Y-58322800D01*
X148922667Y-58322800D02*
X148922667Y-57756133D01*
X149156000Y-57756133D02*
X149556000Y-57756133D01*
X149356000Y-58456133D02*
X149356000Y-57756133D01*
X149789333Y-58456133D02*
X149789333Y-57756133D01*
X149789333Y-57756133D02*
X150056000Y-57756133D01*
X150056000Y-57756133D02*
X150122667Y-57789466D01*
X150122667Y-57789466D02*
X150156000Y-57822800D01*
X150156000Y-57822800D02*
X150189333Y-57889466D01*
X150189333Y-57889466D02*
X150189333Y-57989466D01*
X150189333Y-57989466D02*
X150156000Y-58056133D01*
X150156000Y-58056133D02*
X150122667Y-58089466D01*
X150122667Y-58089466D02*
X150056000Y-58122800D01*
X150056000Y-58122800D02*
X149789333Y-58122800D01*
X150489333Y-57756133D02*
X150489333Y-58322800D01*
X150489333Y-58322800D02*
X150522667Y-58389466D01*
X150522667Y-58389466D02*
X150556000Y-58422800D01*
X150556000Y-58422800D02*
X150622667Y-58456133D01*
X150622667Y-58456133D02*
X150756000Y-58456133D01*
X150756000Y-58456133D02*
X150822667Y-58422800D01*
X150822667Y-58422800D02*
X150856000Y-58389466D01*
X150856000Y-58389466D02*
X150889333Y-58322800D01*
X150889333Y-58322800D02*
X150889333Y-57756133D01*
X151122666Y-57756133D02*
X151522666Y-57756133D01*
X151322666Y-58456133D02*
X151322666Y-57756133D01*
X128444000Y-58456133D02*
X128444000Y-57756133D01*
X128777333Y-58456133D02*
X128777333Y-57756133D01*
X128777333Y-57756133D02*
X129177333Y-58456133D01*
X129177333Y-58456133D02*
X129177333Y-57756133D01*
X129510666Y-58456133D02*
X129510666Y-57756133D01*
X129510666Y-57756133D02*
X129777333Y-57756133D01*
X129777333Y-57756133D02*
X129844000Y-57789466D01*
X129844000Y-57789466D02*
X129877333Y-57822800D01*
X129877333Y-57822800D02*
X129910666Y-57889466D01*
X129910666Y-57889466D02*
X129910666Y-57989466D01*
X129910666Y-57989466D02*
X129877333Y-58056133D01*
X129877333Y-58056133D02*
X129844000Y-58089466D01*
X129844000Y-58089466D02*
X129777333Y-58122800D01*
X129777333Y-58122800D02*
X129510666Y-58122800D01*
X130210666Y-57756133D02*
X130210666Y-58322800D01*
X130210666Y-58322800D02*
X130244000Y-58389466D01*
X130244000Y-58389466D02*
X130277333Y-58422800D01*
X130277333Y-58422800D02*
X130344000Y-58456133D01*
X130344000Y-58456133D02*
X130477333Y-58456133D01*
X130477333Y-58456133D02*
X130544000Y-58422800D01*
X130544000Y-58422800D02*
X130577333Y-58389466D01*
X130577333Y-58389466D02*
X130610666Y-58322800D01*
X130610666Y-58322800D02*
X130610666Y-57756133D01*
X130843999Y-57756133D02*
X131243999Y-57756133D01*
X131043999Y-58456133D02*
X131043999Y-57756133D01*
X139166667Y-57535466D02*
X139100000Y-57502133D01*
X139100000Y-57502133D02*
X139000000Y-57502133D01*
X139000000Y-57502133D02*
X138900000Y-57535466D01*
X138900000Y-57535466D02*
X138833334Y-57602133D01*
X138833334Y-57602133D02*
X138800000Y-57668800D01*
X138800000Y-57668800D02*
X138766667Y-57802133D01*
X138766667Y-57802133D02*
X138766667Y-57902133D01*
X138766667Y-57902133D02*
X138800000Y-58035466D01*
X138800000Y-58035466D02*
X138833334Y-58102133D01*
X138833334Y-58102133D02*
X138900000Y-58168800D01*
X138900000Y-58168800D02*
X139000000Y-58202133D01*
X139000000Y-58202133D02*
X139066667Y-58202133D01*
X139066667Y-58202133D02*
X139166667Y-58168800D01*
X139166667Y-58168800D02*
X139200000Y-58135466D01*
X139200000Y-58135466D02*
X139200000Y-57902133D01*
X139200000Y-57902133D02*
X139066667Y-57902133D01*
X139500000Y-58202133D02*
X139500000Y-57502133D01*
X139500000Y-57502133D02*
X139900000Y-58202133D01*
X139900000Y-58202133D02*
X139900000Y-57502133D01*
X140233333Y-58202133D02*
X140233333Y-57502133D01*
X140233333Y-57502133D02*
X140400000Y-57502133D01*
X140400000Y-57502133D02*
X140500000Y-57535466D01*
X140500000Y-57535466D02*
X140566667Y-57602133D01*
X140566667Y-57602133D02*
X140600000Y-57668800D01*
X140600000Y-57668800D02*
X140633333Y-57802133D01*
X140633333Y-57802133D02*
X140633333Y-57902133D01*
X140633333Y-57902133D02*
X140600000Y-58035466D01*
X140600000Y-58035466D02*
X140566667Y-58102133D01*
X140566667Y-58102133D02*
X140500000Y-58168800D01*
X140500000Y-58168800D02*
X140400000Y-58202133D01*
X140400000Y-58202133D02*
X140233333Y-58202133D01*
D11*
X135016668Y-73013212D02*
X135483334Y-73713212D01*
X135483334Y-73013212D02*
X135016668Y-73713212D01*
X135750001Y-73446545D02*
X136283335Y-73446545D01*
X136850002Y-73346545D02*
X136950002Y-73379879D01*
X136950002Y-73379879D02*
X136983335Y-73413212D01*
X136983335Y-73413212D02*
X137016668Y-73479879D01*
X137016668Y-73479879D02*
X137016668Y-73579879D01*
X137016668Y-73579879D02*
X136983335Y-73646545D01*
X136983335Y-73646545D02*
X136950002Y-73679879D01*
X136950002Y-73679879D02*
X136883335Y-73713212D01*
X136883335Y-73713212D02*
X136616668Y-73713212D01*
X136616668Y-73713212D02*
X136616668Y-73013212D01*
X136616668Y-73013212D02*
X136850002Y-73013212D01*
X136850002Y-73013212D02*
X136916668Y-73046545D01*
X136916668Y-73046545D02*
X136950002Y-73079879D01*
X136950002Y-73079879D02*
X136983335Y-73146545D01*
X136983335Y-73146545D02*
X136983335Y-73213212D01*
X136983335Y-73213212D02*
X136950002Y-73279879D01*
X136950002Y-73279879D02*
X136916668Y-73313212D01*
X136916668Y-73313212D02*
X136850002Y-73346545D01*
X136850002Y-73346545D02*
X136616668Y-73346545D01*
X137616668Y-73713212D02*
X137616668Y-73346545D01*
X137616668Y-73346545D02*
X137583335Y-73279879D01*
X137583335Y-73279879D02*
X137516668Y-73246545D01*
X137516668Y-73246545D02*
X137383335Y-73246545D01*
X137383335Y-73246545D02*
X137316668Y-73279879D01*
X137616668Y-73679879D02*
X137550002Y-73713212D01*
X137550002Y-73713212D02*
X137383335Y-73713212D01*
X137383335Y-73713212D02*
X137316668Y-73679879D01*
X137316668Y-73679879D02*
X137283335Y-73613212D01*
X137283335Y-73613212D02*
X137283335Y-73546545D01*
X137283335Y-73546545D02*
X137316668Y-73479879D01*
X137316668Y-73479879D02*
X137383335Y-73446545D01*
X137383335Y-73446545D02*
X137550002Y-73446545D01*
X137550002Y-73446545D02*
X137616668Y-73413212D01*
X137950001Y-73246545D02*
X137950001Y-73713212D01*
X137950001Y-73313212D02*
X137983335Y-73279879D01*
X137983335Y-73279879D02*
X138050001Y-73246545D01*
X138050001Y-73246545D02*
X138150001Y-73246545D01*
X138150001Y-73246545D02*
X138216668Y-73279879D01*
X138216668Y-73279879D02*
X138250001Y-73346545D01*
X138250001Y-73346545D02*
X138250001Y-73713212D01*
X138883334Y-73713212D02*
X138883334Y-73013212D01*
X138883334Y-73679879D02*
X138816668Y-73713212D01*
X138816668Y-73713212D02*
X138683334Y-73713212D01*
X138683334Y-73713212D02*
X138616668Y-73679879D01*
X138616668Y-73679879D02*
X138583334Y-73646545D01*
X138583334Y-73646545D02*
X138550001Y-73579879D01*
X138550001Y-73579879D02*
X138550001Y-73379879D01*
X138550001Y-73379879D02*
X138583334Y-73313212D01*
X138583334Y-73313212D02*
X138616668Y-73279879D01*
X138616668Y-73279879D02*
X138683334Y-73246545D01*
X138683334Y-73246545D02*
X138816668Y-73246545D01*
X138816668Y-73246545D02*
X138883334Y-73279879D01*
X139716667Y-73513212D02*
X140050000Y-73513212D01*
X139650000Y-73713212D02*
X139883334Y-73013212D01*
X139883334Y-73013212D02*
X140116667Y-73713212D01*
X140350000Y-73713212D02*
X140350000Y-73246545D01*
X140350000Y-73313212D02*
X140383334Y-73279879D01*
X140383334Y-73279879D02*
X140450000Y-73246545D01*
X140450000Y-73246545D02*
X140550000Y-73246545D01*
X140550000Y-73246545D02*
X140616667Y-73279879D01*
X140616667Y-73279879D02*
X140650000Y-73346545D01*
X140650000Y-73346545D02*
X140650000Y-73713212D01*
X140650000Y-73346545D02*
X140683334Y-73279879D01*
X140683334Y-73279879D02*
X140750000Y-73246545D01*
X140750000Y-73246545D02*
X140850000Y-73246545D01*
X140850000Y-73246545D02*
X140916667Y-73279879D01*
X140916667Y-73279879D02*
X140950000Y-73346545D01*
X140950000Y-73346545D02*
X140950000Y-73713212D01*
X141283333Y-73246545D02*
X141283333Y-73946545D01*
X141283333Y-73279879D02*
X141350000Y-73246545D01*
X141350000Y-73246545D02*
X141483333Y-73246545D01*
X141483333Y-73246545D02*
X141550000Y-73279879D01*
X141550000Y-73279879D02*
X141583333Y-73313212D01*
X141583333Y-73313212D02*
X141616667Y-73379879D01*
X141616667Y-73379879D02*
X141616667Y-73579879D01*
X141616667Y-73579879D02*
X141583333Y-73646545D01*
X141583333Y-73646545D02*
X141550000Y-73679879D01*
X141550000Y-73679879D02*
X141483333Y-73713212D01*
X141483333Y-73713212D02*
X141350000Y-73713212D01*
X141350000Y-73713212D02*
X141283333Y-73679879D01*
X142383333Y-73246545D02*
X142549999Y-73713212D01*
X142549999Y-73713212D02*
X142716666Y-73246545D01*
X143349999Y-73713212D02*
X142949999Y-73713212D01*
X143149999Y-73713212D02*
X143149999Y-73013212D01*
X143149999Y-73013212D02*
X143083332Y-73113212D01*
X143083332Y-73113212D02*
X143016666Y-73179879D01*
X143016666Y-73179879D02*
X142949999Y-73213212D01*
X143649999Y-73646545D02*
X143683333Y-73679879D01*
X143683333Y-73679879D02*
X143649999Y-73713212D01*
X143649999Y-73713212D02*
X143616666Y-73679879D01*
X143616666Y-73679879D02*
X143649999Y-73646545D01*
X143649999Y-73646545D02*
X143649999Y-73713212D01*
X144116666Y-73013212D02*
X144183332Y-73013212D01*
X144183332Y-73013212D02*
X144249999Y-73046545D01*
X144249999Y-73046545D02*
X144283332Y-73079879D01*
X144283332Y-73079879D02*
X144316666Y-73146545D01*
X144316666Y-73146545D02*
X144349999Y-73279879D01*
X144349999Y-73279879D02*
X144349999Y-73446545D01*
X144349999Y-73446545D02*
X144316666Y-73579879D01*
X144316666Y-73579879D02*
X144283332Y-73646545D01*
X144283332Y-73646545D02*
X144249999Y-73679879D01*
X144249999Y-73679879D02*
X144183332Y-73713212D01*
X144183332Y-73713212D02*
X144116666Y-73713212D01*
X144116666Y-73713212D02*
X144049999Y-73679879D01*
X144049999Y-73679879D02*
X144016666Y-73646545D01*
X144016666Y-73646545D02*
X143983332Y-73579879D01*
X143983332Y-73579879D02*
X143949999Y-73446545D01*
X143949999Y-73446545D02*
X143949999Y-73279879D01*
X143949999Y-73279879D02*
X143983332Y-73146545D01*
X143983332Y-73146545D02*
X144016666Y-73079879D01*
X144016666Y-73079879D02*
X144049999Y-73046545D01*
X144049999Y-73046545D02*
X144116666Y-73013212D01*
X135966667Y-74140173D02*
X136366667Y-74140173D01*
X136166667Y-74840173D02*
X136166667Y-74140173D01*
X136600000Y-74840173D02*
X136600000Y-74373506D01*
X136600000Y-74140173D02*
X136566667Y-74173506D01*
X136566667Y-74173506D02*
X136600000Y-74206840D01*
X136600000Y-74206840D02*
X136633334Y-74173506D01*
X136633334Y-74173506D02*
X136600000Y-74140173D01*
X136600000Y-74140173D02*
X136600000Y-74206840D01*
X136933333Y-74840173D02*
X136933333Y-74373506D01*
X136933333Y-74440173D02*
X136966667Y-74406840D01*
X136966667Y-74406840D02*
X137033333Y-74373506D01*
X137033333Y-74373506D02*
X137133333Y-74373506D01*
X137133333Y-74373506D02*
X137200000Y-74406840D01*
X137200000Y-74406840D02*
X137233333Y-74473506D01*
X137233333Y-74473506D02*
X137233333Y-74840173D01*
X137233333Y-74473506D02*
X137266667Y-74406840D01*
X137266667Y-74406840D02*
X137333333Y-74373506D01*
X137333333Y-74373506D02*
X137433333Y-74373506D01*
X137433333Y-74373506D02*
X137500000Y-74406840D01*
X137500000Y-74406840D02*
X137533333Y-74473506D01*
X137533333Y-74473506D02*
X137533333Y-74840173D01*
X137966666Y-74840173D02*
X137900000Y-74806840D01*
X137900000Y-74806840D02*
X137866666Y-74773506D01*
X137866666Y-74773506D02*
X137833333Y-74706840D01*
X137833333Y-74706840D02*
X137833333Y-74506840D01*
X137833333Y-74506840D02*
X137866666Y-74440173D01*
X137866666Y-74440173D02*
X137900000Y-74406840D01*
X137900000Y-74406840D02*
X137966666Y-74373506D01*
X137966666Y-74373506D02*
X138066666Y-74373506D01*
X138066666Y-74373506D02*
X138133333Y-74406840D01*
X138133333Y-74406840D02*
X138166666Y-74440173D01*
X138166666Y-74440173D02*
X138200000Y-74506840D01*
X138200000Y-74506840D02*
X138200000Y-74706840D01*
X138200000Y-74706840D02*
X138166666Y-74773506D01*
X138166666Y-74773506D02*
X138133333Y-74806840D01*
X138133333Y-74806840D02*
X138066666Y-74840173D01*
X138066666Y-74840173D02*
X137966666Y-74840173D01*
X138399999Y-74373506D02*
X138666666Y-74373506D01*
X138499999Y-74140173D02*
X138499999Y-74740173D01*
X138499999Y-74740173D02*
X138533333Y-74806840D01*
X138533333Y-74806840D02*
X138599999Y-74840173D01*
X138599999Y-74840173D02*
X138666666Y-74840173D01*
X138899999Y-74840173D02*
X138899999Y-74140173D01*
X139199999Y-74840173D02*
X139199999Y-74473506D01*
X139199999Y-74473506D02*
X139166666Y-74406840D01*
X139166666Y-74406840D02*
X139099999Y-74373506D01*
X139099999Y-74373506D02*
X138999999Y-74373506D01*
X138999999Y-74373506D02*
X138933333Y-74406840D01*
X138933333Y-74406840D02*
X138899999Y-74440173D01*
X139466666Y-74373506D02*
X139633332Y-74840173D01*
X139799999Y-74373506D02*
X139633332Y-74840173D01*
X139633332Y-74840173D02*
X139566666Y-75006840D01*
X139566666Y-75006840D02*
X139533332Y-75040173D01*
X139533332Y-75040173D02*
X139466666Y-75073506D01*
X140599998Y-74840173D02*
X140599998Y-74140173D01*
X140999998Y-74840173D02*
X140699998Y-74440173D01*
X140999998Y-74140173D02*
X140599998Y-74540173D01*
X141566665Y-74806840D02*
X141499998Y-74840173D01*
X141499998Y-74840173D02*
X141366665Y-74840173D01*
X141366665Y-74840173D02*
X141299998Y-74806840D01*
X141299998Y-74806840D02*
X141266665Y-74740173D01*
X141266665Y-74740173D02*
X141266665Y-74473506D01*
X141266665Y-74473506D02*
X141299998Y-74406840D01*
X141299998Y-74406840D02*
X141366665Y-74373506D01*
X141366665Y-74373506D02*
X141499998Y-74373506D01*
X141499998Y-74373506D02*
X141566665Y-74406840D01*
X141566665Y-74406840D02*
X141599998Y-74473506D01*
X141599998Y-74473506D02*
X141599998Y-74540173D01*
X141599998Y-74540173D02*
X141266665Y-74606840D01*
X141999998Y-74840173D02*
X141933332Y-74806840D01*
X141933332Y-74806840D02*
X141899998Y-74740173D01*
X141899998Y-74740173D02*
X141899998Y-74140173D01*
X142366665Y-74840173D02*
X142299999Y-74806840D01*
X142299999Y-74806840D02*
X142266665Y-74740173D01*
X142266665Y-74740173D02*
X142266665Y-74140173D01*
X142899999Y-74806840D02*
X142833332Y-74840173D01*
X142833332Y-74840173D02*
X142699999Y-74840173D01*
X142699999Y-74840173D02*
X142633332Y-74806840D01*
X142633332Y-74806840D02*
X142599999Y-74740173D01*
X142599999Y-74740173D02*
X142599999Y-74473506D01*
X142599999Y-74473506D02*
X142633332Y-74406840D01*
X142633332Y-74406840D02*
X142699999Y-74373506D01*
X142699999Y-74373506D02*
X142833332Y-74373506D01*
X142833332Y-74373506D02*
X142899999Y-74406840D01*
X142899999Y-74406840D02*
X142933332Y-74473506D01*
X142933332Y-74473506D02*
X142933332Y-74540173D01*
X142933332Y-74540173D02*
X142599999Y-74606840D01*
X143233332Y-74840173D02*
X143233332Y-74373506D01*
X143233332Y-74506840D02*
X143266666Y-74440173D01*
X143266666Y-74440173D02*
X143299999Y-74406840D01*
X143299999Y-74406840D02*
X143366666Y-74373506D01*
X143366666Y-74373506D02*
X143433332Y-74373506D01*
D10*
X143561666Y-57502133D02*
X143795000Y-58202133D01*
X143795000Y-58202133D02*
X144028333Y-57502133D01*
X144261666Y-58202133D02*
X144261666Y-57502133D01*
X144261666Y-57502133D02*
X144428333Y-57502133D01*
X144428333Y-57502133D02*
X144528333Y-57535466D01*
X144528333Y-57535466D02*
X144595000Y-57602133D01*
X144595000Y-57602133D02*
X144628333Y-57668800D01*
X144628333Y-57668800D02*
X144661666Y-57802133D01*
X144661666Y-57802133D02*
X144661666Y-57902133D01*
X144661666Y-57902133D02*
X144628333Y-58035466D01*
X144628333Y-58035466D02*
X144595000Y-58102133D01*
X144595000Y-58102133D02*
X144528333Y-58168800D01*
X144528333Y-58168800D02*
X144428333Y-58202133D01*
X144428333Y-58202133D02*
X144261666Y-58202133D01*
D12*
X143740333Y-58518783D02*
X143973667Y-59218783D01*
X143973667Y-59218783D02*
X144207000Y-58518783D01*
X144440333Y-59218783D02*
X144440333Y-58518783D01*
X144440333Y-58518783D02*
X144607000Y-58518783D01*
X144607000Y-58518783D02*
X144707000Y-58552116D01*
X144707000Y-58552116D02*
X144773667Y-58618783D01*
X144773667Y-58618783D02*
X144807000Y-58685450D01*
X144807000Y-58685450D02*
X144840333Y-58818783D01*
X144840333Y-58818783D02*
X144840333Y-58918783D01*
X144840333Y-58918783D02*
X144807000Y-59052116D01*
X144807000Y-59052116D02*
X144773667Y-59118783D01*
X144773667Y-59118783D02*
X144707000Y-59185450D01*
X144707000Y-59185450D02*
X144607000Y-59218783D01*
X144607000Y-59218783D02*
X144440333Y-59218783D01*
X145140333Y-58852116D02*
X145373667Y-58852116D01*
X145473667Y-59218783D02*
X145140333Y-59218783D01*
X145140333Y-59218783D02*
X145140333Y-58518783D01*
X145140333Y-58518783D02*
X145473667Y-58518783D01*
X145673666Y-58518783D02*
X146073666Y-58518783D01*
X145873666Y-59218783D02*
X145873666Y-58518783D01*
D10*
X134798666Y-57502133D02*
X135032000Y-58202133D01*
X135032000Y-58202133D02*
X135265333Y-57502133D01*
X135865333Y-57535466D02*
X135798666Y-57502133D01*
X135798666Y-57502133D02*
X135698666Y-57502133D01*
X135698666Y-57502133D02*
X135598666Y-57535466D01*
X135598666Y-57535466D02*
X135532000Y-57602133D01*
X135532000Y-57602133D02*
X135498666Y-57668800D01*
X135498666Y-57668800D02*
X135465333Y-57802133D01*
X135465333Y-57802133D02*
X135465333Y-57902133D01*
X135465333Y-57902133D02*
X135498666Y-58035466D01*
X135498666Y-58035466D02*
X135532000Y-58102133D01*
X135532000Y-58102133D02*
X135598666Y-58168800D01*
X135598666Y-58168800D02*
X135698666Y-58202133D01*
X135698666Y-58202133D02*
X135765333Y-58202133D01*
X135765333Y-58202133D02*
X135865333Y-58168800D01*
X135865333Y-58168800D02*
X135898666Y-58135466D01*
X135898666Y-58135466D02*
X135898666Y-57902133D01*
X135898666Y-57902133D02*
X135765333Y-57902133D01*
X136239671Y-59696662D02*
X136239671Y-59743803D01*
X136239671Y-59743803D02*
X136192531Y-59838084D01*
X136192531Y-59838084D02*
X136145390Y-59885224D01*
X136145390Y-59885224D02*
X136051109Y-59932365D01*
X136051109Y-59932365D02*
X135956829Y-59932365D01*
X135956829Y-59932365D02*
X135886118Y-59908794D01*
X135886118Y-59908794D02*
X135768267Y-59838084D01*
X135768267Y-59838084D02*
X135697556Y-59767373D01*
X135697556Y-59767373D02*
X135626845Y-59649522D01*
X135626845Y-59649522D02*
X135603275Y-59578811D01*
X135603275Y-59578811D02*
X135603275Y-59484530D01*
X135603275Y-59484530D02*
X135650416Y-59390249D01*
X135650416Y-59390249D02*
X135697556Y-59343109D01*
X135697556Y-59343109D02*
X135791837Y-59295969D01*
X135791837Y-59295969D02*
X135838977Y-59295969D01*
X136027539Y-59107407D02*
X136027539Y-59060266D01*
X136027539Y-59060266D02*
X136051109Y-58989556D01*
X136051109Y-58989556D02*
X136168961Y-58871704D01*
X136168961Y-58871704D02*
X136239671Y-58848134D01*
X136239671Y-58848134D02*
X136286812Y-58848134D01*
X136286812Y-58848134D02*
X136357522Y-58871704D01*
X136357522Y-58871704D02*
X136404663Y-58918845D01*
X136404663Y-58918845D02*
X136451803Y-59013126D01*
X136451803Y-59013126D02*
X136451803Y-59578811D01*
X136451803Y-59578811D02*
X136758216Y-59272398D01*
X143018137Y-59506271D02*
X142970996Y-59506271D01*
X142970996Y-59506271D02*
X142876715Y-59459131D01*
X142876715Y-59459131D02*
X142829575Y-59411990D01*
X142829575Y-59411990D02*
X142782434Y-59317709D01*
X142782434Y-59317709D02*
X142782434Y-59223429D01*
X142782434Y-59223429D02*
X142806005Y-59152718D01*
X142806005Y-59152718D02*
X142876715Y-59034867D01*
X142876715Y-59034867D02*
X142947426Y-58964156D01*
X142947426Y-58964156D02*
X143065277Y-58893445D01*
X143065277Y-58893445D02*
X143135988Y-58869875D01*
X143135988Y-58869875D02*
X143230269Y-58869875D01*
X143230269Y-58869875D02*
X143324550Y-58917016D01*
X143324550Y-58917016D02*
X143371690Y-58964156D01*
X143371690Y-58964156D02*
X143418830Y-59058437D01*
X143418830Y-59058437D02*
X143418830Y-59105577D01*
X143442401Y-60024816D02*
X143159558Y-59741974D01*
X143300979Y-59883395D02*
X143795954Y-59388420D01*
X143795954Y-59388420D02*
X143678103Y-59411990D01*
X143678103Y-59411990D02*
X143583822Y-59411990D01*
X143583822Y-59411990D02*
X143513111Y-59388420D01*
D13*
%TO.C,C2*%
X137211307Y-60401810D02*
X137363810Y-60249307D01*
X136702190Y-59892693D02*
X136854693Y-59740190D01*
%TO.C,C1*%
X142723107Y-59714790D02*
X142875610Y-59867293D01*
X142213990Y-60223907D02*
X142366493Y-60376410D01*
%TO.C,U1*%
X137590000Y-62115000D02*
X137590000Y-61630000D01*
X137590000Y-65610000D02*
X137590000Y-64885000D01*
X138315000Y-61390000D02*
X137890000Y-61390000D01*
X138315000Y-65610000D02*
X137590000Y-65610000D01*
X141085000Y-61390000D02*
X141810000Y-61390000D01*
X141085000Y-65610000D02*
X141810000Y-65610000D01*
X141810000Y-61390000D02*
X141810000Y-62115000D01*
X141810000Y-65610000D02*
X141810000Y-64885000D01*
X137590000Y-61390000D02*
X137350000Y-61060000D01*
X137830000Y-61060000D01*
X137590000Y-61390000D01*
G36*
X137590000Y-61390000D02*
G01*
X137350000Y-61060000D01*
X137830000Y-61060000D01*
X137590000Y-61390000D01*
G37*
%TO.C,TP1*%
X145607000Y-60071000D02*
G75*
G02*
X144207000Y-60071000I-700000J0D01*
G01*
X144207000Y-60071000D02*
G75*
G02*
X145607000Y-60071000I700000J0D01*
G01*
%TD*%
M02*
