%TF.GenerationSoftware,KiCad,Pcbnew,8.0.0*%
%TF.CreationDate,2024-06-16T14:01:43-04:00*%
%TF.ProjectId,X-Band Amplifier,582d4261-6e64-4204-916d-706c69666965,v1.0*%
%TF.SameCoordinates,Original*%
%TF.FileFunction,Soldermask,Top*%
%TF.FilePolarity,Negative*%
%FSLAX46Y46*%
G04 Gerber Fmt 4.6, Leading zero omitted, Abs format (unit mm)*
G04 Created by KiCad (PCBNEW 8.0.0) date 2024-06-16 14:01:43*
%MOMM*%
%LPD*%
G01*
G04 APERTURE LIST*
G04 Aperture macros list*
%AMRoundRect*
0 Rectangle with rounded corners*
0 $1 Rounding radius*
0 $2 $3 $4 $5 $6 $7 $8 $9 X,Y pos of 4 corners*
0 Add a 4 corners polygon primitive as box body*
4,1,4,$2,$3,$4,$5,$6,$7,$8,$9,$2,$3,0*
0 Add four circle primitives for the rounded corners*
1,1,$1+$1,$2,$3*
1,1,$1+$1,$4,$5*
1,1,$1+$1,$6,$7*
1,1,$1+$1,$8,$9*
0 Add four rect primitives between the rounded corners*
20,1,$1+$1,$2,$3,$4,$5,0*
20,1,$1+$1,$4,$5,$6,$7,0*
20,1,$1+$1,$6,$7,$8,$9,0*
20,1,$1+$1,$8,$9,$2,$3,0*%
G04 Aperture macros list end*
%ADD10RoundRect,0.140000X0.021213X-0.219203X0.219203X-0.021213X-0.021213X0.219203X-0.219203X0.021213X0*%
%ADD11RoundRect,0.140000X-0.219203X-0.021213X-0.021213X-0.219203X0.219203X0.021213X0.021213X0.219203X0*%
%ADD12RoundRect,0.087500X0.412500X-0.087500X0.412500X0.087500X-0.412500X0.087500X-0.412500X-0.087500X0*%
%ADD13R,5.500000X4.000000*%
%ADD14C,4.241800*%
%ADD15RoundRect,0.062500X-0.350000X-0.062500X0.350000X-0.062500X0.350000X0.062500X-0.350000X0.062500X0*%
%ADD16RoundRect,0.062500X-0.062500X-0.350000X0.062500X-0.350000X0.062500X0.350000X-0.062500X0.350000X0*%
%ADD17R,2.500000X2.500000*%
%ADD18RoundRect,0.087500X-0.412500X0.087500X-0.412500X-0.087500X0.412500X-0.087500X0.412500X0.087500X0*%
%ADD19C,5.562600*%
%ADD20C,1.000000*%
G04 APERTURE END LIST*
D10*
%TO.C,C2*%
X137372411Y-59731589D03*
X136693589Y-60410411D03*
%TD*%
D11*
%TO.C,C1*%
X142205389Y-59706189D03*
X142884211Y-60385011D03*
%TD*%
D12*
%TO.C,J2*%
X151850000Y-63500000D03*
D13*
X149600000Y-66135000D03*
X149600000Y-60865000D03*
%TD*%
D14*
%TO.C,H5*%
X137160000Y-69850000D03*
%TD*%
D15*
%TO.C,U1*%
X137762500Y-62500000D03*
X137762500Y-63000000D03*
X137762500Y-63500000D03*
X137762500Y-64000000D03*
X137762500Y-64500000D03*
D16*
X138700000Y-65437500D03*
X139200000Y-65437500D03*
X139700000Y-65437500D03*
X140200000Y-65437500D03*
X140700000Y-65437500D03*
D15*
X141637500Y-64500000D03*
X141637500Y-64000000D03*
X141637500Y-63500000D03*
X141637500Y-63000000D03*
X141637500Y-62500000D03*
D16*
X140700000Y-61562500D03*
X140200000Y-61562500D03*
X139700000Y-61562500D03*
X139200000Y-61562500D03*
X138700000Y-61562500D03*
D17*
X139700000Y-63500000D03*
%TD*%
D18*
%TO.C,J1*%
X127550000Y-63500000D03*
D13*
X129800000Y-60865000D03*
X129800000Y-66135000D03*
%TD*%
D19*
%TO.C,H2*%
X149225000Y-53975000D03*
%TD*%
D14*
%TO.C,H6*%
X142240000Y-69850000D03*
%TD*%
D19*
%TO.C,H3*%
X130175000Y-73025000D03*
%TD*%
%TO.C,H4*%
X149225000Y-73025000D03*
%TD*%
%TO.C,H1*%
X130175000Y-53975000D03*
%TD*%
D20*
%TO.C,TP1*%
X144907000Y-60071000D03*
%TD*%
G36*
X145358039Y-51454685D02*
G01*
X145403794Y-51507489D01*
X145415000Y-51559000D01*
X145415000Y-57026000D01*
X145395315Y-57093039D01*
X145342511Y-57138794D01*
X145291000Y-57150000D01*
X142999000Y-57150000D01*
X142931961Y-57130315D01*
X142886206Y-57077511D01*
X142875000Y-57026000D01*
X142875000Y-51559000D01*
X142894685Y-51491961D01*
X142947489Y-51446206D01*
X142999000Y-51435000D01*
X145291000Y-51435000D01*
X145358039Y-51454685D01*
G37*
G36*
X136468039Y-51454685D02*
G01*
X136513794Y-51507489D01*
X136525000Y-51559000D01*
X136525000Y-57026000D01*
X136505315Y-57093039D01*
X136452511Y-57138794D01*
X136401000Y-57150000D01*
X134109000Y-57150000D01*
X134041961Y-57130315D01*
X133996206Y-57077511D01*
X133985000Y-57026000D01*
X133985000Y-51559000D01*
X134004685Y-51491961D01*
X134057489Y-51446206D01*
X134109000Y-51435000D01*
X136401000Y-51435000D01*
X136468039Y-51454685D01*
G37*
G36*
X140913039Y-51454685D02*
G01*
X140958794Y-51507489D01*
X140970000Y-51559000D01*
X140970000Y-57026000D01*
X140950315Y-57093039D01*
X140897511Y-57138794D01*
X140846000Y-57150000D01*
X138554000Y-57150000D01*
X138486961Y-57130315D01*
X138441206Y-57077511D01*
X138430000Y-57026000D01*
X138430000Y-51559000D01*
X138449685Y-51491961D01*
X138502489Y-51446206D01*
X138554000Y-51435000D01*
X140846000Y-51435000D01*
X140913039Y-51454685D01*
G37*
G36*
X136975121Y-61488002D02*
G01*
X137021614Y-61541658D01*
X137033000Y-61594000D01*
X137033000Y-65406000D01*
X137012998Y-65474121D01*
X136959342Y-65520614D01*
X136907000Y-65532000D01*
X133349000Y-65532000D01*
X133280879Y-65511998D01*
X133234386Y-65458342D01*
X133223000Y-65406000D01*
X133223000Y-64135000D01*
X128904000Y-64135000D01*
X128835879Y-64114998D01*
X128789386Y-64061342D01*
X128778000Y-64009000D01*
X128778000Y-62991000D01*
X128798002Y-62922879D01*
X128851658Y-62876386D01*
X128904000Y-62865000D01*
X133223000Y-62865000D01*
X133223000Y-61594000D01*
X133243002Y-61525879D01*
X133296658Y-61479386D01*
X133349000Y-61468000D01*
X136907000Y-61468000D01*
X136975121Y-61488002D01*
G37*
G36*
X146119121Y-61488002D02*
G01*
X146165614Y-61541658D01*
X146177000Y-61594000D01*
X146177000Y-62865000D01*
X150496000Y-62865000D01*
X150564121Y-62885002D01*
X150610614Y-62938658D01*
X150622000Y-62991000D01*
X150622000Y-64009000D01*
X150601998Y-64077121D01*
X150548342Y-64123614D01*
X150496000Y-64135000D01*
X146177000Y-64135000D01*
X146177000Y-65406000D01*
X146156998Y-65474121D01*
X146103342Y-65520614D01*
X146051000Y-65532000D01*
X142493000Y-65532000D01*
X142424879Y-65511998D01*
X142378386Y-65458342D01*
X142367000Y-65406000D01*
X142367000Y-61594000D01*
X142387002Y-61525879D01*
X142440658Y-61479386D01*
X142493000Y-61468000D01*
X146051000Y-61468000D01*
X146119121Y-61488002D01*
G37*
M02*
