M48
; DRILL file {KiCad 8.0.0} date 2024-06-21T14:03:29-0400
; FORMAT={-:-/ absolute / inch / decimal}
; #@! TF.CreationDate,2024-06-21T14:03:29-04:00
; #@! TF.GenerationSoftware,Kicad,Pcbnew,8.0.0
; #@! TF.FileFunction,Plated,1,2,PTH
FMAT,2
INCH
; #@! TA.AperFunction,Plated,PTH,ViaDrill
T1C0.0118
; #@! TA.AperFunction,Plated,PTH,ComponentDrill
T2C0.0315
; #@! TA.AperFunction,Plated,PTH,ComponentDrill
T3C0.0394
; #@! TA.AperFunction,Plated,PTH,ComponentDrill
T4C0.1285
%
G90
G05
T1
X2.0472Y-1.4272
X2.0472Y-2.0866
X2.1457Y-2.0866
X2.1555Y-1.4272
X2.1752Y-1.6634
X2.2047Y-1.3386
X2.2343Y-1.6043
X2.2441Y-2.1457
X2.25Y-1.95
X2.2835Y-1.5551
X2.3524Y-1.8209
X2.3622Y-1.1024
X2.3622Y-1.5157
X2.4016Y-1.2303
X2.4376Y-1.75
X2.4409Y-2.3228
X2.5197Y-1.122
X2.575Y-1.575
X2.5975Y-1.4975
X2.628Y-1.2402
X2.65Y-1.635
X2.6645Y-1.8495
X2.675Y-1.375
X2.685Y-1.645
X2.7067Y-1.2303
X2.735Y-1.7
X2.74Y-1.75
X2.75Y-1.975
X2.7547Y-1.4528
X2.7559Y-2.126
X2.785Y-1.38
X2.8051Y-1.2008
X2.91Y-1.575
X2.9134Y-2.3327
X2.925Y-1.4
X2.925Y-1.45
X2.93Y-1.915
X2.935Y-2.085
X2.9921Y-1.1319
X3.0217Y-1.2205
X3.0413Y-2.4213
X3.1Y-1.52
X3.1398Y-1.1614
X3.1594Y-1.5157
X3.1594Y-1.7224
X3.1693Y-1.624
X3.2087Y-1.4567
X3.2283Y-2.0965
X3.3071Y-1.565
X3.3169Y-1.8898
X3.435Y-1.3386
X3.4449Y-2.0965
T2
X2.4254Y-2.15
X2.5254Y-2.15
X2.6254Y-2.15
X2.8754Y-2.15
X2.9754Y-2.15
X3.0754Y-2.15
T3
X2.1Y-1.65
X2.1Y-1.75
X2.1Y-1.85
X2.7Y-2.399
X2.8Y-2.399
T4
X2.125Y-1.125
X2.125Y-2.375
X3.375Y-1.125
X3.375Y-2.375
M30
