%TF.GenerationSoftware,KiCad,Pcbnew,8.0.0*%
%TF.CreationDate,2024-06-21T14:03:25-04:00*%
%TF.ProjectId,GaN Gate Driver,47614e20-4761-4746-9520-447269766572,v1.0*%
%TF.SameCoordinates,Original*%
%TF.FileFunction,Copper,L2,Bot*%
%TF.FilePolarity,Positive*%
%FSLAX46Y46*%
G04 Gerber Fmt 4.6, Leading zero omitted, Abs format (unit mm)*
G04 Created by KiCad (PCBNEW 8.0.0) date 2024-06-21 14:03:25*
%MOMM*%
%LPD*%
G01*
G04 APERTURE LIST*
%TA.AperFunction,ComponentPad*%
%ADD10C,1.440000*%
%TD*%
%TA.AperFunction,ComponentPad*%
%ADD11R,1.700000X1.700000*%
%TD*%
%TA.AperFunction,ComponentPad*%
%ADD12O,1.700000X1.700000*%
%TD*%
%TA.AperFunction,ComponentPad*%
%ADD13C,5.562600*%
%TD*%
%TA.AperFunction,SMDPad,CuDef*%
%ADD14R,1.350000X4.200000*%
%TD*%
%TA.AperFunction,ViaPad*%
%ADD15C,0.600000*%
%TD*%
%TA.AperFunction,Conductor*%
%ADD16C,1.270000*%
%TD*%
%TA.AperFunction,Conductor*%
%ADD17C,0.254000*%
%TD*%
G04 APERTURE END LIST*
D10*
%TO.P,RV1,1,1*%
%TO.N,+5V*%
X78115000Y-54610000D03*
%TO.P,RV1,2,2*%
%TO.N,Net-(U1A--)*%
X75575000Y-54610000D03*
%TO.P,RV1,3,3*%
%TO.N,-5V*%
X73035000Y-54610000D03*
%TD*%
D11*
%TO.P,J2,1,Pin_1*%
%TO.N,+5V*%
X53340000Y-41910000D03*
D12*
%TO.P,J2,2,Pin_2*%
%TO.N,GND*%
X53340000Y-44450000D03*
%TO.P,J2,3,Pin_3*%
%TO.N,-5V*%
X53340000Y-46990000D03*
%TD*%
D13*
%TO.P,H1,1,1*%
%TO.N,GND*%
X53975000Y-28575000D03*
%TD*%
D14*
%TO.P,J1,2,Ext*%
%TO.N,GND*%
X72675000Y-27522500D03*
X67025000Y-27522500D03*
%TD*%
D11*
%TO.P,J3,1,Pin_1*%
%TO.N,Net-(J3-Pin_1)*%
X68580000Y-60935000D03*
D12*
%TO.P,J3,2,Pin_2*%
%TO.N,GND*%
X71120000Y-60935000D03*
%TD*%
D13*
%TO.P,H4,1,1*%
%TO.N,GND*%
X85725000Y-60325000D03*
%TD*%
%TO.P,H2,1,1*%
%TO.N,GND*%
X85725000Y-28575000D03*
%TD*%
D10*
%TO.P,RV2,1,1*%
%TO.N,Net-(J3-Pin_1)*%
X66685000Y-54610000D03*
%TO.P,RV2,2,2*%
%TO.N,Net-(D1-A)*%
X64145000Y-54610000D03*
%TO.P,RV2,3,3*%
X61605000Y-54610000D03*
%TD*%
D13*
%TO.P,H3,1,1*%
%TO.N,GND*%
X53975000Y-60325000D03*
%TD*%
D15*
%TO.N,GND*%
X80250000Y-38500000D03*
X80250000Y-43750000D03*
X80500000Y-41250000D03*
X68750000Y-31250000D03*
X71250000Y-30500000D03*
X76000000Y-28750000D03*
X64000000Y-28500000D03*
X60000000Y-28000000D03*
X74000000Y-59250000D03*
X62000000Y-59000000D03*
X87500000Y-53250000D03*
X84250000Y-48000000D03*
X52000000Y-36250000D03*
X52000000Y-53000000D03*
X54750000Y-36250000D03*
X54500000Y-53000000D03*
X70000000Y-54000000D03*
X77250000Y-61500000D03*
X57000000Y-54500000D03*
X82000000Y-53250000D03*
X81500000Y-37000000D03*
X84000000Y-39750000D03*
X87250000Y-34000000D03*
X79750000Y-29500000D03*
X76750000Y-31000000D03*
X66750000Y-31500000D03*
X61000000Y-31250000D03*
X56000000Y-34000000D03*
X59750000Y-46250000D03*
X60000000Y-38500000D03*
X55250000Y-42250000D03*
X56750000Y-40750000D03*
X58000000Y-39500000D03*
X74549000Y-52959000D03*
X74422000Y-48641000D03*
X67310000Y-41529000D03*
X68199000Y-41783000D03*
X69469000Y-43180000D03*
X69596000Y-44450000D03*
X67945000Y-34925000D03*
X70739000Y-35052000D03*
%TO.N,Net-(J3-Pin_1)*%
X61915000Y-44450000D03*
X67679250Y-46978250D03*
%TO.N,GND*%
X74295000Y-36830000D03*
X74295000Y-35560000D03*
X57150000Y-49530000D03*
X69850000Y-50165000D03*
%TO.N,-5V*%
X65405000Y-40005000D03*
%TO.N,+5V*%
X69969000Y-36901500D03*
%TO.N,Net-(U1B-+)*%
X78740000Y-38608000D03*
X73914000Y-40005000D03*
%TO.N,Net-(U1A--)*%
X65976500Y-38036500D03*
%TD*%
D16*
%TO.N,-5V*%
X65405000Y-42418000D02*
X65405000Y-40005000D01*
X73035000Y-54610000D02*
X73035000Y-50048000D01*
X73035000Y-50048000D02*
X65405000Y-42418000D01*
D17*
%TO.N,Net-(J3-Pin_1)*%
X61976000Y-44450000D02*
X64504250Y-46978250D01*
X64504250Y-46978250D02*
X67679250Y-46978250D01*
X61915000Y-44450000D02*
X61976000Y-44450000D01*
D16*
%TO.N,+5V*%
X69969000Y-36901500D02*
X69969000Y-39489000D01*
X78115000Y-47635000D02*
X78115000Y-54610000D01*
X58348500Y-36901500D02*
X53340000Y-41910000D01*
X69969000Y-36901500D02*
X58348500Y-36901500D01*
X69969000Y-39489000D02*
X78115000Y-47635000D01*
%TO.N,-5V*%
X59690000Y-40005000D02*
X65405000Y-40005000D01*
X56515000Y-43180000D02*
X59690000Y-40005000D01*
X56515000Y-45720000D02*
X56515000Y-43180000D01*
X55245000Y-46990000D02*
X56515000Y-45720000D01*
X53340000Y-46990000D02*
X55245000Y-46990000D01*
D17*
%TO.N,Net-(U1B-+)*%
X78613000Y-38735000D02*
X75184000Y-38735000D01*
X78740000Y-38608000D02*
X78613000Y-38735000D01*
X75184000Y-38735000D02*
X73914000Y-40005000D01*
%TO.N,Net-(U1A--)*%
X75575000Y-47635000D02*
X75575000Y-54610000D01*
X65976500Y-38036500D02*
X75575000Y-47635000D01*
%TD*%
%TA.AperFunction,Conductor*%
%TO.N,GND*%
G36*
X66707724Y-39659700D02*
G01*
X66729862Y-39677281D01*
X74911181Y-47858600D01*
X74944666Y-47919923D01*
X74947500Y-47946281D01*
X74947500Y-53494874D01*
X74927815Y-53561913D01*
X74894623Y-53596449D01*
X74787479Y-53671471D01*
X74636472Y-53822478D01*
X74513977Y-53997421D01*
X74423725Y-54190968D01*
X74421870Y-54196064D01*
X74419749Y-54195292D01*
X74388406Y-54246710D01*
X74325558Y-54277237D01*
X74256183Y-54268939D01*
X74202307Y-54224452D01*
X74189169Y-54195685D01*
X74188130Y-54196064D01*
X74186278Y-54190977D01*
X74186276Y-54190970D01*
X74182116Y-54182050D01*
X74170500Y-54129648D01*
X74170500Y-49958634D01*
X74142540Y-49782103D01*
X74142539Y-49782099D01*
X74142539Y-49782098D01*
X74087310Y-49612121D01*
X74087308Y-49612118D01*
X74006166Y-49452867D01*
X73945319Y-49369118D01*
X73901111Y-49308271D01*
X66576819Y-41983979D01*
X66543334Y-41922656D01*
X66540500Y-41896298D01*
X66540500Y-39915634D01*
X66529817Y-39848182D01*
X66519708Y-39784359D01*
X66528663Y-39715067D01*
X66573659Y-39661615D01*
X66640410Y-39640975D01*
X66707724Y-39659700D01*
G37*
%TD.AperFunction*%
%TA.AperFunction,Conductor*%
G36*
X85728472Y-25900695D02*
G01*
X86017507Y-25916927D01*
X86031305Y-25918481D01*
X86313265Y-25966388D01*
X86326821Y-25969482D01*
X86601642Y-26048657D01*
X86614768Y-26053250D01*
X86878994Y-26162696D01*
X86891508Y-26168722D01*
X87141830Y-26307070D01*
X87153603Y-26314468D01*
X87386843Y-26479961D01*
X87397704Y-26488622D01*
X87610964Y-26679202D01*
X87620797Y-26689035D01*
X87811373Y-26902290D01*
X87820042Y-26913162D01*
X87985530Y-27146395D01*
X87992929Y-27158169D01*
X88131273Y-27408484D01*
X88137306Y-27421012D01*
X88246749Y-27685232D01*
X88251342Y-27698357D01*
X88330517Y-27973178D01*
X88333611Y-27986735D01*
X88381516Y-28268684D01*
X88383073Y-28282502D01*
X88399305Y-28571527D01*
X88399500Y-28578480D01*
X88399500Y-60321519D01*
X88399305Y-60328472D01*
X88383073Y-60617497D01*
X88381516Y-60631315D01*
X88333611Y-60913264D01*
X88330517Y-60926821D01*
X88251342Y-61201642D01*
X88246749Y-61214767D01*
X88137306Y-61478987D01*
X88131273Y-61491515D01*
X87992929Y-61741830D01*
X87985530Y-61753604D01*
X87820042Y-61986837D01*
X87811373Y-61997709D01*
X87620797Y-62210964D01*
X87610964Y-62220797D01*
X87397709Y-62411373D01*
X87386837Y-62420042D01*
X87153604Y-62585530D01*
X87141830Y-62592929D01*
X86891515Y-62731273D01*
X86878987Y-62737306D01*
X86614767Y-62846749D01*
X86601642Y-62851342D01*
X86326821Y-62930517D01*
X86313264Y-62933611D01*
X86031315Y-62981516D01*
X86017497Y-62983073D01*
X85728472Y-62999305D01*
X85721519Y-62999500D01*
X53978481Y-62999500D01*
X53971528Y-62999305D01*
X53682502Y-62983073D01*
X53668684Y-62981516D01*
X53386735Y-62933611D01*
X53373178Y-62930517D01*
X53098357Y-62851342D01*
X53085232Y-62846749D01*
X52821012Y-62737306D01*
X52808484Y-62731273D01*
X52558169Y-62592929D01*
X52546395Y-62585530D01*
X52313162Y-62420042D01*
X52302290Y-62411373D01*
X52089035Y-62220797D01*
X52079202Y-62210964D01*
X52018060Y-62142546D01*
X51888622Y-61997704D01*
X51879961Y-61986843D01*
X51770711Y-61832870D01*
X67229500Y-61832870D01*
X67229501Y-61832876D01*
X67235908Y-61892483D01*
X67286202Y-62027328D01*
X67286206Y-62027335D01*
X67372452Y-62142544D01*
X67372455Y-62142547D01*
X67487664Y-62228793D01*
X67487671Y-62228797D01*
X67622517Y-62279091D01*
X67622516Y-62279091D01*
X67629444Y-62279835D01*
X67682127Y-62285500D01*
X69477872Y-62285499D01*
X69537483Y-62279091D01*
X69672331Y-62228796D01*
X69787546Y-62142546D01*
X69873796Y-62027331D01*
X69924091Y-61892483D01*
X69930500Y-61832873D01*
X69930499Y-60037128D01*
X69924091Y-59977517D01*
X69873796Y-59842669D01*
X69873795Y-59842668D01*
X69873793Y-59842664D01*
X69787547Y-59727455D01*
X69787544Y-59727452D01*
X69672335Y-59641206D01*
X69672328Y-59641202D01*
X69537482Y-59590908D01*
X69537483Y-59590908D01*
X69477883Y-59584501D01*
X69477881Y-59584500D01*
X69477873Y-59584500D01*
X69477864Y-59584500D01*
X67682129Y-59584500D01*
X67682123Y-59584501D01*
X67622516Y-59590908D01*
X67487671Y-59641202D01*
X67487664Y-59641206D01*
X67372455Y-59727452D01*
X67372452Y-59727455D01*
X67286206Y-59842664D01*
X67286202Y-59842671D01*
X67235908Y-59977517D01*
X67229501Y-60037116D01*
X67229501Y-60037123D01*
X67229500Y-60037135D01*
X67229500Y-61832870D01*
X51770711Y-61832870D01*
X51714468Y-61753603D01*
X51707070Y-61741830D01*
X51568726Y-61491515D01*
X51562696Y-61478994D01*
X51453250Y-61214767D01*
X51448657Y-61201642D01*
X51369482Y-60926821D01*
X51366388Y-60913264D01*
X51318481Y-60631305D01*
X51316927Y-60617507D01*
X51300695Y-60328472D01*
X51300500Y-60321519D01*
X51300500Y-54610001D01*
X60379838Y-54610001D01*
X60398450Y-54822741D01*
X60398452Y-54822752D01*
X60453721Y-55029022D01*
X60453723Y-55029026D01*
X60453724Y-55029030D01*
X60496171Y-55120058D01*
X60543977Y-55222578D01*
X60666472Y-55397521D01*
X60817478Y-55548527D01*
X60817481Y-55548529D01*
X60992419Y-55671021D01*
X60992421Y-55671022D01*
X60992420Y-55671022D01*
X61056936Y-55701106D01*
X61185970Y-55761276D01*
X61392253Y-55816549D01*
X61544215Y-55829844D01*
X61604998Y-55835162D01*
X61605000Y-55835162D01*
X61605002Y-55835162D01*
X61658186Y-55830508D01*
X61817747Y-55816549D01*
X62024030Y-55761276D01*
X62217581Y-55671021D01*
X62392519Y-55548529D01*
X62543529Y-55397519D01*
X62666021Y-55222581D01*
X62756276Y-55029030D01*
X62756280Y-55029013D01*
X62758130Y-55023936D01*
X62760253Y-55024709D01*
X62791576Y-54973305D01*
X62854419Y-54942766D01*
X62923796Y-54951050D01*
X62977680Y-54995528D01*
X62990827Y-55024315D01*
X62991870Y-55023936D01*
X62993722Y-55029022D01*
X62993724Y-55029030D01*
X63036171Y-55120058D01*
X63083977Y-55222578D01*
X63206472Y-55397521D01*
X63357478Y-55548527D01*
X63357481Y-55548529D01*
X63532419Y-55671021D01*
X63532421Y-55671022D01*
X63532420Y-55671022D01*
X63596936Y-55701106D01*
X63725970Y-55761276D01*
X63932253Y-55816549D01*
X64084215Y-55829844D01*
X64144998Y-55835162D01*
X64145000Y-55835162D01*
X64145002Y-55835162D01*
X64198186Y-55830508D01*
X64357747Y-55816549D01*
X64564030Y-55761276D01*
X64757581Y-55671021D01*
X64932519Y-55548529D01*
X65083529Y-55397519D01*
X65206021Y-55222581D01*
X65296276Y-55029030D01*
X65296280Y-55029013D01*
X65298130Y-55023936D01*
X65300253Y-55024709D01*
X65331576Y-54973305D01*
X65394419Y-54942766D01*
X65463796Y-54951050D01*
X65517680Y-54995528D01*
X65530827Y-55024315D01*
X65531870Y-55023936D01*
X65533722Y-55029022D01*
X65533724Y-55029030D01*
X65576171Y-55120058D01*
X65623977Y-55222578D01*
X65746472Y-55397521D01*
X65897478Y-55548527D01*
X65897481Y-55548529D01*
X66072419Y-55671021D01*
X66072421Y-55671022D01*
X66072420Y-55671022D01*
X66136936Y-55701106D01*
X66265970Y-55761276D01*
X66472253Y-55816549D01*
X66624215Y-55829844D01*
X66684998Y-55835162D01*
X66685000Y-55835162D01*
X66685002Y-55835162D01*
X66738186Y-55830508D01*
X66897747Y-55816549D01*
X67104030Y-55761276D01*
X67297581Y-55671021D01*
X67472519Y-55548529D01*
X67623529Y-55397519D01*
X67746021Y-55222581D01*
X67836276Y-55029030D01*
X67891549Y-54822747D01*
X67910162Y-54610000D01*
X67891549Y-54397253D01*
X67836276Y-54190970D01*
X67746021Y-53997419D01*
X67623529Y-53822481D01*
X67623527Y-53822478D01*
X67472521Y-53671472D01*
X67316053Y-53561913D01*
X67297581Y-53548979D01*
X67297580Y-53548978D01*
X67297578Y-53548977D01*
X67297579Y-53548977D01*
X67168547Y-53488809D01*
X67104030Y-53458724D01*
X67104026Y-53458723D01*
X67104022Y-53458721D01*
X66897752Y-53403452D01*
X66897748Y-53403451D01*
X66897747Y-53403451D01*
X66897746Y-53403450D01*
X66897741Y-53403450D01*
X66685002Y-53384838D01*
X66684998Y-53384838D01*
X66472258Y-53403450D01*
X66472247Y-53403452D01*
X66265977Y-53458721D01*
X66265968Y-53458725D01*
X66072421Y-53548977D01*
X65897478Y-53671472D01*
X65746472Y-53822478D01*
X65623977Y-53997421D01*
X65533725Y-54190968D01*
X65531870Y-54196064D01*
X65529749Y-54195292D01*
X65498406Y-54246710D01*
X65435558Y-54277237D01*
X65366183Y-54268939D01*
X65312307Y-54224452D01*
X65299169Y-54195685D01*
X65298130Y-54196064D01*
X65296279Y-54190983D01*
X65296276Y-54190970D01*
X65206021Y-53997419D01*
X65083529Y-53822481D01*
X65083527Y-53822478D01*
X64932521Y-53671472D01*
X64776053Y-53561913D01*
X64757581Y-53548979D01*
X64757580Y-53548978D01*
X64757578Y-53548977D01*
X64757579Y-53548977D01*
X64628547Y-53488809D01*
X64564030Y-53458724D01*
X64564026Y-53458723D01*
X64564022Y-53458721D01*
X64357752Y-53403452D01*
X64357748Y-53403451D01*
X64357747Y-53403451D01*
X64357746Y-53403450D01*
X64357741Y-53403450D01*
X64145002Y-53384838D01*
X64144998Y-53384838D01*
X63932258Y-53403450D01*
X63932247Y-53403452D01*
X63725977Y-53458721D01*
X63725968Y-53458725D01*
X63532421Y-53548977D01*
X63357478Y-53671472D01*
X63206472Y-53822478D01*
X63083977Y-53997421D01*
X62993725Y-54190968D01*
X62991870Y-54196064D01*
X62989749Y-54195292D01*
X62958406Y-54246710D01*
X62895558Y-54277237D01*
X62826183Y-54268939D01*
X62772307Y-54224452D01*
X62759169Y-54195685D01*
X62758130Y-54196064D01*
X62756279Y-54190983D01*
X62756276Y-54190970D01*
X62666021Y-53997419D01*
X62543529Y-53822481D01*
X62543527Y-53822478D01*
X62392521Y-53671472D01*
X62236053Y-53561913D01*
X62217581Y-53548979D01*
X62217580Y-53548978D01*
X62217578Y-53548977D01*
X62217579Y-53548977D01*
X62088547Y-53488809D01*
X62024030Y-53458724D01*
X62024026Y-53458723D01*
X62024022Y-53458721D01*
X61817752Y-53403452D01*
X61817748Y-53403451D01*
X61817747Y-53403451D01*
X61817746Y-53403450D01*
X61817741Y-53403450D01*
X61605002Y-53384838D01*
X61604998Y-53384838D01*
X61392258Y-53403450D01*
X61392247Y-53403452D01*
X61185977Y-53458721D01*
X61185968Y-53458725D01*
X60992421Y-53548977D01*
X60817478Y-53671472D01*
X60666472Y-53822478D01*
X60543977Y-53997421D01*
X60453725Y-54190968D01*
X60453721Y-54190977D01*
X60398452Y-54397247D01*
X60398450Y-54397258D01*
X60379838Y-54609998D01*
X60379838Y-54610001D01*
X51300500Y-54610001D01*
X51300500Y-46990000D01*
X51984341Y-46990000D01*
X52004936Y-47225403D01*
X52004938Y-47225413D01*
X52066094Y-47453655D01*
X52066096Y-47453659D01*
X52066097Y-47453663D01*
X52165965Y-47667830D01*
X52165967Y-47667834D01*
X52274281Y-47822521D01*
X52301505Y-47861401D01*
X52468599Y-48028495D01*
X52507672Y-48055854D01*
X52662165Y-48164032D01*
X52662167Y-48164033D01*
X52662170Y-48164035D01*
X52876337Y-48263903D01*
X53104592Y-48325063D01*
X53292918Y-48341539D01*
X53339999Y-48345659D01*
X53340000Y-48345659D01*
X53340001Y-48345659D01*
X53379234Y-48342226D01*
X53575408Y-48325063D01*
X53803663Y-48263903D01*
X54017830Y-48164035D01*
X54040838Y-48147924D01*
X54107043Y-48125598D01*
X54111960Y-48125500D01*
X55334370Y-48125500D01*
X55412824Y-48113073D01*
X55510897Y-48097541D01*
X55639193Y-48055853D01*
X55680881Y-48042309D01*
X55840132Y-47961167D01*
X55984728Y-47856111D01*
X56111111Y-47729728D01*
X56169670Y-47671169D01*
X56169682Y-47671155D01*
X57381111Y-46459729D01*
X57459222Y-46352218D01*
X57486167Y-46315132D01*
X57567309Y-46155881D01*
X57622540Y-45985897D01*
X57650500Y-45809366D01*
X57650500Y-43701701D01*
X57670185Y-43634662D01*
X57686819Y-43614020D01*
X60124020Y-41176819D01*
X60185343Y-41143334D01*
X60211701Y-41140500D01*
X64145500Y-41140500D01*
X64212539Y-41160185D01*
X64258294Y-41212989D01*
X64269500Y-41264500D01*
X64269500Y-42507370D01*
X64297458Y-42683893D01*
X64327422Y-42776112D01*
X64352689Y-42853878D01*
X64359623Y-42867486D01*
X64433833Y-43013132D01*
X64457350Y-43045500D01*
X64509693Y-43117544D01*
X64538890Y-43157729D01*
X67415304Y-46034143D01*
X67448789Y-46095466D01*
X67443805Y-46165158D01*
X67401933Y-46221091D01*
X67368579Y-46238865D01*
X67329729Y-46252459D01*
X67203550Y-46331744D01*
X67137578Y-46350750D01*
X64815531Y-46350750D01*
X64748492Y-46331065D01*
X64727850Y-46314431D01*
X62729103Y-44315684D01*
X62699742Y-44268957D01*
X62640789Y-44100478D01*
X62544815Y-43947737D01*
X62417262Y-43820184D01*
X62264523Y-43724211D01*
X62094254Y-43664631D01*
X62094249Y-43664630D01*
X61915004Y-43644435D01*
X61914996Y-43644435D01*
X61735750Y-43664630D01*
X61735745Y-43664631D01*
X61565476Y-43724211D01*
X61412737Y-43820184D01*
X61285184Y-43947737D01*
X61189211Y-44100476D01*
X61129631Y-44270745D01*
X61129630Y-44270750D01*
X61109435Y-44449996D01*
X61109435Y-44450003D01*
X61129630Y-44629249D01*
X61129631Y-44629254D01*
X61189211Y-44799523D01*
X61285184Y-44952262D01*
X61412738Y-45079816D01*
X61565478Y-45175789D01*
X61735747Y-45235369D01*
X61848379Y-45248058D01*
X61912793Y-45275123D01*
X61922178Y-45283597D01*
X64104238Y-47465658D01*
X64104242Y-47465661D01*
X64207010Y-47534329D01*
X64207023Y-47534336D01*
X64321210Y-47581633D01*
X64321215Y-47581635D01*
X64321219Y-47581635D01*
X64321220Y-47581636D01*
X64442443Y-47605750D01*
X64442446Y-47605750D01*
X64442447Y-47605750D01*
X67137578Y-47605750D01*
X67203550Y-47624756D01*
X67277369Y-47671140D01*
X67329728Y-47704039D01*
X67403143Y-47729728D01*
X67499995Y-47763618D01*
X67500000Y-47763619D01*
X67679246Y-47783815D01*
X67679250Y-47783815D01*
X67679254Y-47783815D01*
X67858499Y-47763619D01*
X67858502Y-47763618D01*
X67858505Y-47763618D01*
X68028772Y-47704039D01*
X68181512Y-47608066D01*
X68309066Y-47480512D01*
X68405039Y-47327772D01*
X68418633Y-47288923D01*
X68459354Y-47232146D01*
X68524306Y-47206398D01*
X68592868Y-47219854D01*
X68623356Y-47242195D01*
X71863181Y-50482020D01*
X71896666Y-50543343D01*
X71899500Y-50569701D01*
X71899500Y-54129648D01*
X71887883Y-54182051D01*
X71883725Y-54190967D01*
X71883721Y-54190977D01*
X71828452Y-54397247D01*
X71828450Y-54397258D01*
X71809838Y-54609998D01*
X71809838Y-54610001D01*
X71828450Y-54822741D01*
X71828452Y-54822752D01*
X71883721Y-55029022D01*
X71883723Y-55029026D01*
X71883724Y-55029030D01*
X71926171Y-55120058D01*
X71973977Y-55222578D01*
X72096472Y-55397521D01*
X72247478Y-55548527D01*
X72247481Y-55548529D01*
X72422419Y-55671021D01*
X72422421Y-55671022D01*
X72422420Y-55671022D01*
X72486936Y-55701106D01*
X72615970Y-55761276D01*
X72822253Y-55816549D01*
X72974215Y-55829844D01*
X73034998Y-55835162D01*
X73035000Y-55835162D01*
X73035002Y-55835162D01*
X73088186Y-55830508D01*
X73247747Y-55816549D01*
X73454030Y-55761276D01*
X73647581Y-55671021D01*
X73822519Y-55548529D01*
X73973529Y-55397519D01*
X74096021Y-55222581D01*
X74186276Y-55029030D01*
X74186280Y-55029013D01*
X74188130Y-55023936D01*
X74190253Y-55024709D01*
X74221576Y-54973305D01*
X74284419Y-54942766D01*
X74353796Y-54951050D01*
X74407680Y-54995528D01*
X74420827Y-55024315D01*
X74421870Y-55023936D01*
X74423722Y-55029022D01*
X74423724Y-55029030D01*
X74466171Y-55120058D01*
X74513977Y-55222578D01*
X74636472Y-55397521D01*
X74787478Y-55548527D01*
X74787481Y-55548529D01*
X74962419Y-55671021D01*
X74962421Y-55671022D01*
X74962420Y-55671022D01*
X75026936Y-55701106D01*
X75155970Y-55761276D01*
X75362253Y-55816549D01*
X75514215Y-55829844D01*
X75574998Y-55835162D01*
X75575000Y-55835162D01*
X75575002Y-55835162D01*
X75628186Y-55830508D01*
X75787747Y-55816549D01*
X75994030Y-55761276D01*
X76187581Y-55671021D01*
X76362519Y-55548529D01*
X76513529Y-55397519D01*
X76636021Y-55222581D01*
X76726276Y-55029030D01*
X76726280Y-55029013D01*
X76728130Y-55023936D01*
X76730253Y-55024709D01*
X76761576Y-54973305D01*
X76824419Y-54942766D01*
X76893796Y-54951050D01*
X76947680Y-54995528D01*
X76960827Y-55024315D01*
X76961870Y-55023936D01*
X76963722Y-55029022D01*
X76963724Y-55029030D01*
X77006171Y-55120058D01*
X77053977Y-55222578D01*
X77176472Y-55397521D01*
X77327478Y-55548527D01*
X77327481Y-55548529D01*
X77502419Y-55671021D01*
X77502421Y-55671022D01*
X77502420Y-55671022D01*
X77566936Y-55701106D01*
X77695970Y-55761276D01*
X77902253Y-55816549D01*
X78054215Y-55829844D01*
X78114998Y-55835162D01*
X78115000Y-55835162D01*
X78115002Y-55835162D01*
X78168186Y-55830508D01*
X78327747Y-55816549D01*
X78534030Y-55761276D01*
X78727581Y-55671021D01*
X78902519Y-55548529D01*
X79053529Y-55397519D01*
X79176021Y-55222581D01*
X79266276Y-55029030D01*
X79321549Y-54822747D01*
X79340162Y-54610000D01*
X79321549Y-54397253D01*
X79266276Y-54190970D01*
X79262116Y-54182050D01*
X79250500Y-54129648D01*
X79250500Y-47545630D01*
X79240186Y-47480514D01*
X79240186Y-47480512D01*
X79235934Y-47453664D01*
X79222541Y-47369103D01*
X79168815Y-47203754D01*
X79167754Y-47199993D01*
X79167309Y-47199119D01*
X79086167Y-47039868D01*
X78981111Y-46895272D01*
X78854728Y-46768889D01*
X72090842Y-40005003D01*
X73108435Y-40005003D01*
X73128630Y-40184249D01*
X73128631Y-40184254D01*
X73188211Y-40354523D01*
X73284184Y-40507262D01*
X73411738Y-40634816D01*
X73564478Y-40730789D01*
X73734745Y-40790368D01*
X73734750Y-40790369D01*
X73913996Y-40810565D01*
X73914000Y-40810565D01*
X73914004Y-40810565D01*
X74093249Y-40790369D01*
X74093252Y-40790368D01*
X74093255Y-40790368D01*
X74263522Y-40730789D01*
X74416262Y-40634816D01*
X74543816Y-40507262D01*
X74639789Y-40354522D01*
X74699368Y-40184255D01*
X74704313Y-40140361D01*
X74731378Y-40075951D01*
X74739842Y-40066575D01*
X75407600Y-39398819D01*
X75468923Y-39365334D01*
X75495281Y-39362500D01*
X78451460Y-39362500D01*
X78492415Y-39369459D01*
X78560737Y-39393366D01*
X78560743Y-39393367D01*
X78560745Y-39393368D01*
X78560746Y-39393368D01*
X78560750Y-39393369D01*
X78739996Y-39413565D01*
X78740000Y-39413565D01*
X78740004Y-39413565D01*
X78919249Y-39393369D01*
X78919252Y-39393368D01*
X78919255Y-39393368D01*
X79089522Y-39333789D01*
X79242262Y-39237816D01*
X79369816Y-39110262D01*
X79465789Y-38957522D01*
X79525368Y-38787255D01*
X79528181Y-38762289D01*
X79545565Y-38608003D01*
X79545565Y-38607996D01*
X79525369Y-38428750D01*
X79525368Y-38428745D01*
X79465788Y-38258476D01*
X79386076Y-38131616D01*
X79369816Y-38105738D01*
X79242262Y-37978184D01*
X79242260Y-37978183D01*
X79089523Y-37882211D01*
X78919254Y-37822631D01*
X78919249Y-37822630D01*
X78740004Y-37802435D01*
X78739996Y-37802435D01*
X78560750Y-37822630D01*
X78560745Y-37822631D01*
X78390476Y-37882211D01*
X78237739Y-37978183D01*
X78144740Y-38071182D01*
X78083416Y-38104666D01*
X78057059Y-38107500D01*
X75122195Y-38107500D01*
X75000970Y-38131613D01*
X75000960Y-38131616D01*
X74886773Y-38178913D01*
X74886761Y-38178920D01*
X74831635Y-38215755D01*
X74831634Y-38215756D01*
X74783989Y-38247590D01*
X73852432Y-39179147D01*
X73791109Y-39212632D01*
X73778637Y-39214686D01*
X73734745Y-39219632D01*
X73564478Y-39279210D01*
X73411737Y-39375184D01*
X73284184Y-39502737D01*
X73188211Y-39655476D01*
X73128631Y-39825745D01*
X73128630Y-39825750D01*
X73108435Y-40004996D01*
X73108435Y-40005003D01*
X72090842Y-40005003D01*
X71140819Y-39054980D01*
X71107334Y-38993657D01*
X71104500Y-38967299D01*
X71104500Y-36812134D01*
X71076540Y-36635603D01*
X71076539Y-36635599D01*
X71076539Y-36635598D01*
X71021310Y-36465621D01*
X71021308Y-36465618D01*
X70940166Y-36306367D01*
X70835111Y-36161772D01*
X70708728Y-36035389D01*
X70564132Y-35930333D01*
X70404881Y-35849191D01*
X70404878Y-35849189D01*
X70234899Y-35793960D01*
X70117209Y-35775320D01*
X70058366Y-35766000D01*
X58437867Y-35766000D01*
X58259134Y-35766000D01*
X58259130Y-35766000D01*
X58082601Y-35793959D01*
X58082598Y-35793959D01*
X57912623Y-35849188D01*
X57912622Y-35849188D01*
X57834511Y-35888986D01*
X57834512Y-35888987D01*
X57753380Y-35930326D01*
X57753373Y-35930330D01*
X57753368Y-35930333D01*
X57637434Y-36014564D01*
X57608769Y-36035391D01*
X53120978Y-40523181D01*
X53059655Y-40556666D01*
X53033297Y-40559500D01*
X52442129Y-40559500D01*
X52442123Y-40559501D01*
X52382516Y-40565908D01*
X52247671Y-40616202D01*
X52247664Y-40616206D01*
X52132455Y-40702452D01*
X52132452Y-40702455D01*
X52046206Y-40817664D01*
X52046202Y-40817671D01*
X51995908Y-40952517D01*
X51989501Y-41012116D01*
X51989500Y-41012135D01*
X51989500Y-42807870D01*
X51989501Y-42807876D01*
X51995908Y-42867483D01*
X52046202Y-43002328D01*
X52046206Y-43002335D01*
X52132452Y-43117544D01*
X52132455Y-43117547D01*
X52247664Y-43203793D01*
X52247671Y-43203797D01*
X52382517Y-43254091D01*
X52382516Y-43254091D01*
X52389444Y-43254835D01*
X52442127Y-43260500D01*
X54237872Y-43260499D01*
X54297483Y-43254091D01*
X54432331Y-43203796D01*
X54547546Y-43117546D01*
X54633796Y-43002331D01*
X54684091Y-42867483D01*
X54690500Y-42807873D01*
X54690499Y-42216699D01*
X54710183Y-42149661D01*
X54726813Y-42129024D01*
X58782520Y-38073319D01*
X58843843Y-38039834D01*
X58870201Y-38037000D01*
X65060178Y-38037000D01*
X65127217Y-38056685D01*
X65172972Y-38109489D01*
X65183398Y-38147117D01*
X65191130Y-38215749D01*
X65250710Y-38386021D01*
X65346684Y-38538762D01*
X65465741Y-38657819D01*
X65499226Y-38719142D01*
X65494242Y-38788834D01*
X65452370Y-38844767D01*
X65386906Y-38869184D01*
X65378060Y-38869500D01*
X59600630Y-38869500D01*
X59424105Y-38897458D01*
X59295805Y-38939146D01*
X59295804Y-38939145D01*
X59254118Y-38952690D01*
X59145553Y-39008008D01*
X59094867Y-39033833D01*
X58950270Y-39138890D01*
X55648890Y-42440270D01*
X55543833Y-42584867D01*
X55462243Y-42744997D01*
X55461184Y-42748754D01*
X55407458Y-42914105D01*
X55379500Y-43090629D01*
X55379500Y-45198298D01*
X55359815Y-45265337D01*
X55343181Y-45285979D01*
X54810980Y-45818181D01*
X54749657Y-45851666D01*
X54723299Y-45854500D01*
X54111960Y-45854500D01*
X54044921Y-45834815D01*
X54040851Y-45832084D01*
X54017830Y-45815965D01*
X53803663Y-45716097D01*
X53803659Y-45716096D01*
X53803655Y-45716094D01*
X53575413Y-45654938D01*
X53575403Y-45654936D01*
X53340001Y-45634341D01*
X53339999Y-45634341D01*
X53104596Y-45654936D01*
X53104586Y-45654938D01*
X52876344Y-45716094D01*
X52876335Y-45716098D01*
X52662171Y-45815964D01*
X52662169Y-45815965D01*
X52468597Y-45951505D01*
X52301505Y-46118597D01*
X52165965Y-46312169D01*
X52165964Y-46312171D01*
X52066098Y-46526335D01*
X52066094Y-46526344D01*
X52004938Y-46754586D01*
X52004936Y-46754596D01*
X51984341Y-46989999D01*
X51984341Y-46990000D01*
X51300500Y-46990000D01*
X51300500Y-28578480D01*
X51300695Y-28571527D01*
X51304200Y-28509108D01*
X51316927Y-28282490D01*
X51318481Y-28268696D01*
X51366389Y-27986730D01*
X51369482Y-27973178D01*
X51448657Y-27698357D01*
X51453250Y-27685232D01*
X51562699Y-27420997D01*
X51568719Y-27408498D01*
X51707076Y-27158159D01*
X51714463Y-27146404D01*
X51879968Y-26913147D01*
X51888614Y-26902304D01*
X52079212Y-26689024D01*
X52089024Y-26679212D01*
X52302304Y-26488614D01*
X52313147Y-26479968D01*
X52546404Y-26314463D01*
X52558159Y-26307076D01*
X52808498Y-26168719D01*
X52820997Y-26162699D01*
X53085236Y-26053248D01*
X53098353Y-26048658D01*
X53373184Y-25969480D01*
X53386730Y-25966389D01*
X53668696Y-25918481D01*
X53682490Y-25916927D01*
X53971528Y-25900695D01*
X53978481Y-25900500D01*
X54040892Y-25900500D01*
X85659108Y-25900500D01*
X85721519Y-25900500D01*
X85728472Y-25900695D01*
G37*
%TD.AperFunction*%
%TD*%
M02*
