%TF.GenerationSoftware,KiCad,Pcbnew,9.0.3*%
%TF.CreationDate,2025-07-11T20:05:46-04:00*%
%TF.ProjectId,S-Band PFU Simple,532d4261-6e64-4205-9046-552053696d70,v1.0*%
%TF.SameCoordinates,Original*%
%TF.FileFunction,Soldermask,Top*%
%TF.FilePolarity,Negative*%
%FSLAX46Y46*%
G04 Gerber Fmt 4.6, Leading zero omitted, Abs format (unit mm)*
G04 Created by KiCad (PCBNEW 9.0.3) date 2025-07-11 20:05:46*
%MOMM*%
%LPD*%
G01*
G04 APERTURE LIST*
G04 Aperture macros list*
%AMRoundRect*
0 Rectangle with rounded corners*
0 $1 Rounding radius*
0 $2 $3 $4 $5 $6 $7 $8 $9 X,Y pos of 4 corners*
0 Add a 4 corners polygon primitive as box body*
4,1,4,$2,$3,$4,$5,$6,$7,$8,$9,$2,$3,0*
0 Add four circle primitives for the rounded corners*
1,1,$1+$1,$2,$3*
1,1,$1+$1,$4,$5*
1,1,$1+$1,$6,$7*
1,1,$1+$1,$8,$9*
0 Add four rect primitives between the rounded corners*
20,1,$1+$1,$2,$3,$4,$5,0*
20,1,$1+$1,$4,$5,$6,$7,0*
20,1,$1+$1,$6,$7,$8,$9,0*
20,1,$1+$1,$8,$9,$2,$3,0*%
G04 Aperture macros list end*
%ADD10RoundRect,0.250000X0.250000X0.475000X-0.250000X0.475000X-0.250000X-0.475000X0.250000X-0.475000X0*%
%ADD11RoundRect,0.250000X-1.350000X0.385000X-1.350000X-0.385000X1.350000X-0.385000X1.350000X0.385000X0*%
%ADD12RoundRect,0.250000X-1.600000X0.425000X-1.600000X-0.425000X1.600000X-0.425000X1.600000X0.425000X0*%
%ADD13RoundRect,0.250000X-0.385000X-1.350000X0.385000X-1.350000X0.385000X1.350000X-0.385000X1.350000X0*%
%ADD14RoundRect,0.250000X-0.425000X-1.600000X0.425000X-1.600000X0.425000X1.600000X-0.425000X1.600000X0*%
%ADD15C,5.562600*%
%ADD16R,1.700000X1.700000*%
%ADD17C,1.700000*%
%ADD18RoundRect,0.140000X-0.140000X-0.170000X0.140000X-0.170000X0.140000X0.170000X-0.140000X0.170000X0*%
%ADD19RoundRect,0.375000X-0.625000X-0.375000X0.625000X-0.375000X0.625000X0.375000X-0.625000X0.375000X0*%
%ADD20RoundRect,0.500000X-0.500000X-1.400000X0.500000X-1.400000X0.500000X1.400000X-0.500000X1.400000X0*%
%ADD21RoundRect,0.250000X-0.262500X-0.450000X0.262500X-0.450000X0.262500X0.450000X-0.262500X0.450000X0*%
%ADD22RoundRect,0.250000X-0.250000X-0.475000X0.250000X-0.475000X0.250000X0.475000X-0.250000X0.475000X0*%
%ADD23RoundRect,0.250000X1.350000X-0.385000X1.350000X0.385000X-1.350000X0.385000X-1.350000X-0.385000X0*%
%ADD24RoundRect,0.250000X1.600000X-0.425000X1.600000X0.425000X-1.600000X0.425000X-1.600000X-0.425000X0*%
%ADD25RoundRect,0.062500X-0.062500X0.287500X-0.062500X-0.287500X0.062500X-0.287500X0.062500X0.287500X0*%
%ADD26R,1.700000X0.900000*%
G04 APERTURE END LIST*
D10*
%TO.C,C2*%
X94168000Y-56007000D03*
X92268000Y-56007000D03*
%TD*%
D11*
%TO.C,J1*%
X75800000Y-50800000D03*
D12*
X76050000Y-53625000D03*
X76050000Y-47975000D03*
%TD*%
D13*
%TO.C,J3*%
X104013000Y-61341000D03*
D14*
X106838000Y-61091000D03*
X101188000Y-61091000D03*
%TD*%
D15*
%TO.C,H2*%
X113030000Y-41910000D03*
%TD*%
D16*
%TO.C,J4*%
X93980000Y-60960000D03*
D17*
X96520000Y-60960000D03*
%TD*%
D18*
%TO.C,C3*%
X84610000Y-50800000D03*
X85570000Y-50800000D03*
%TD*%
%TO.C,C4*%
X104930000Y-50800000D03*
X105890000Y-50800000D03*
%TD*%
D19*
%TO.C,U2*%
X83210000Y-54215000D03*
X83210000Y-56515000D03*
D20*
X89510000Y-56515000D03*
D19*
X83210000Y-58815000D03*
%TD*%
D21*
%TO.C,R1*%
X103989500Y-55626000D03*
X105814500Y-55626000D03*
%TD*%
D22*
%TO.C,C5*%
X92268000Y-53848000D03*
X94168000Y-53848000D03*
%TD*%
D10*
%TO.C,C1*%
X91120000Y-61595000D03*
X89220000Y-61595000D03*
%TD*%
D15*
%TO.C,H3*%
X113030000Y-59690000D03*
%TD*%
%TO.C,H4*%
X77470000Y-59690000D03*
%TD*%
%TO.C,H1*%
X77470000Y-41910000D03*
%TD*%
D23*
%TO.C,J2*%
X114700000Y-50800000D03*
D24*
X114450000Y-47975000D03*
X114450000Y-53625000D03*
%TD*%
D25*
%TO.C,U1*%
X96000000Y-48784000D03*
X95500000Y-48784000D03*
X95000000Y-48784000D03*
X94500000Y-48784000D03*
X94500000Y-50784000D03*
X95000000Y-50784000D03*
X95500000Y-50784000D03*
X96000000Y-50784000D03*
D26*
X95250000Y-49784000D03*
%TD*%
G36*
X111068039Y-48914685D02*
G01*
X111113794Y-48967489D01*
X111125000Y-49019000D01*
X111125000Y-52581000D01*
X111105315Y-52648039D01*
X111052511Y-52693794D01*
X111001000Y-52705000D01*
X107185000Y-52705000D01*
X107117961Y-52685315D01*
X107072206Y-52632511D01*
X107061000Y-52581000D01*
X107061000Y-49019000D01*
X107080685Y-48951961D01*
X107133489Y-48906206D01*
X107185000Y-48895000D01*
X111001000Y-48895000D01*
X111068039Y-48914685D01*
G37*
G36*
X83255039Y-48914685D02*
G01*
X83300794Y-48967489D01*
X83312000Y-49019000D01*
X83312000Y-52581000D01*
X83292315Y-52648039D01*
X83239511Y-52693794D01*
X83188000Y-52705000D01*
X79372000Y-52705000D01*
X79304961Y-52685315D01*
X79259206Y-52632511D01*
X79248000Y-52581000D01*
X79248000Y-49019000D01*
X79267685Y-48951961D01*
X79320489Y-48906206D01*
X79372000Y-48895000D01*
X83188000Y-48895000D01*
X83255039Y-48914685D01*
G37*
G36*
X103448039Y-48914685D02*
G01*
X103493794Y-48967489D01*
X103505000Y-49019000D01*
X103505000Y-52581000D01*
X103485315Y-52648039D01*
X103432511Y-52693794D01*
X103381000Y-52705000D01*
X98295000Y-52705000D01*
X98227961Y-52685315D01*
X98182206Y-52632511D01*
X98171000Y-52581000D01*
X98171000Y-49019000D01*
X98190685Y-48951961D01*
X98243489Y-48906206D01*
X98295000Y-48895000D01*
X103381000Y-48895000D01*
X103448039Y-48914685D01*
G37*
G36*
X92145039Y-48914685D02*
G01*
X92190794Y-48967489D01*
X92202000Y-49019000D01*
X92202000Y-52581000D01*
X92182315Y-52648039D01*
X92129511Y-52693794D01*
X92078000Y-52705000D01*
X86992000Y-52705000D01*
X86924961Y-52685315D01*
X86879206Y-52632511D01*
X86868000Y-52581000D01*
X86868000Y-49019000D01*
X86887685Y-48951961D01*
X86940489Y-48906206D01*
X86992000Y-48895000D01*
X92078000Y-48895000D01*
X92145039Y-48914685D01*
G37*
M02*
