%TF.GenerationSoftware,KiCad,Pcbnew,9.0.2*%
%TF.CreationDate,2025-07-07T19:52:27-04:00*%
%TF.ProjectId,S-Band PFU Simple,532d4261-6e64-4205-9046-552053696d70,v1.0*%
%TF.SameCoordinates,Original*%
%TF.FileFunction,Legend,Top*%
%TF.FilePolarity,Positive*%
%FSLAX46Y46*%
G04 Gerber Fmt 4.6, Leading zero omitted, Abs format (unit mm)*
G04 Created by KiCad (PCBNEW 9.0.2) date 2025-07-07 19:52:27*
%MOMM*%
%LPD*%
G01*
G04 APERTURE LIST*
%ADD10C,0.150000*%
%ADD11C,0.120000*%
G04 APERTURE END LIST*
D10*
X85797619Y-41392256D02*
X85940476Y-41439875D01*
X85940476Y-41439875D02*
X86178571Y-41439875D01*
X86178571Y-41439875D02*
X86273809Y-41392256D01*
X86273809Y-41392256D02*
X86321428Y-41344636D01*
X86321428Y-41344636D02*
X86369047Y-41249398D01*
X86369047Y-41249398D02*
X86369047Y-41154160D01*
X86369047Y-41154160D02*
X86321428Y-41058922D01*
X86321428Y-41058922D02*
X86273809Y-41011303D01*
X86273809Y-41011303D02*
X86178571Y-40963684D01*
X86178571Y-40963684D02*
X85988095Y-40916065D01*
X85988095Y-40916065D02*
X85892857Y-40868446D01*
X85892857Y-40868446D02*
X85845238Y-40820827D01*
X85845238Y-40820827D02*
X85797619Y-40725589D01*
X85797619Y-40725589D02*
X85797619Y-40630351D01*
X85797619Y-40630351D02*
X85845238Y-40535113D01*
X85845238Y-40535113D02*
X85892857Y-40487494D01*
X85892857Y-40487494D02*
X85988095Y-40439875D01*
X85988095Y-40439875D02*
X86226190Y-40439875D01*
X86226190Y-40439875D02*
X86369047Y-40487494D01*
X86797619Y-41058922D02*
X87559524Y-41058922D01*
X88369047Y-40916065D02*
X88511904Y-40963684D01*
X88511904Y-40963684D02*
X88559523Y-41011303D01*
X88559523Y-41011303D02*
X88607142Y-41106541D01*
X88607142Y-41106541D02*
X88607142Y-41249398D01*
X88607142Y-41249398D02*
X88559523Y-41344636D01*
X88559523Y-41344636D02*
X88511904Y-41392256D01*
X88511904Y-41392256D02*
X88416666Y-41439875D01*
X88416666Y-41439875D02*
X88035714Y-41439875D01*
X88035714Y-41439875D02*
X88035714Y-40439875D01*
X88035714Y-40439875D02*
X88369047Y-40439875D01*
X88369047Y-40439875D02*
X88464285Y-40487494D01*
X88464285Y-40487494D02*
X88511904Y-40535113D01*
X88511904Y-40535113D02*
X88559523Y-40630351D01*
X88559523Y-40630351D02*
X88559523Y-40725589D01*
X88559523Y-40725589D02*
X88511904Y-40820827D01*
X88511904Y-40820827D02*
X88464285Y-40868446D01*
X88464285Y-40868446D02*
X88369047Y-40916065D01*
X88369047Y-40916065D02*
X88035714Y-40916065D01*
X89464285Y-41439875D02*
X89464285Y-40916065D01*
X89464285Y-40916065D02*
X89416666Y-40820827D01*
X89416666Y-40820827D02*
X89321428Y-40773208D01*
X89321428Y-40773208D02*
X89130952Y-40773208D01*
X89130952Y-40773208D02*
X89035714Y-40820827D01*
X89464285Y-41392256D02*
X89369047Y-41439875D01*
X89369047Y-41439875D02*
X89130952Y-41439875D01*
X89130952Y-41439875D02*
X89035714Y-41392256D01*
X89035714Y-41392256D02*
X88988095Y-41297017D01*
X88988095Y-41297017D02*
X88988095Y-41201779D01*
X88988095Y-41201779D02*
X89035714Y-41106541D01*
X89035714Y-41106541D02*
X89130952Y-41058922D01*
X89130952Y-41058922D02*
X89369047Y-41058922D01*
X89369047Y-41058922D02*
X89464285Y-41011303D01*
X89940476Y-40773208D02*
X89940476Y-41439875D01*
X89940476Y-40868446D02*
X89988095Y-40820827D01*
X89988095Y-40820827D02*
X90083333Y-40773208D01*
X90083333Y-40773208D02*
X90226190Y-40773208D01*
X90226190Y-40773208D02*
X90321428Y-40820827D01*
X90321428Y-40820827D02*
X90369047Y-40916065D01*
X90369047Y-40916065D02*
X90369047Y-41439875D01*
X91273809Y-41439875D02*
X91273809Y-40439875D01*
X91273809Y-41392256D02*
X91178571Y-41439875D01*
X91178571Y-41439875D02*
X90988095Y-41439875D01*
X90988095Y-41439875D02*
X90892857Y-41392256D01*
X90892857Y-41392256D02*
X90845238Y-41344636D01*
X90845238Y-41344636D02*
X90797619Y-41249398D01*
X90797619Y-41249398D02*
X90797619Y-40963684D01*
X90797619Y-40963684D02*
X90845238Y-40868446D01*
X90845238Y-40868446D02*
X90892857Y-40820827D01*
X90892857Y-40820827D02*
X90988095Y-40773208D01*
X90988095Y-40773208D02*
X91178571Y-40773208D01*
X91178571Y-40773208D02*
X91273809Y-40820827D01*
X92511905Y-41439875D02*
X92511905Y-40439875D01*
X92511905Y-40439875D02*
X92892857Y-40439875D01*
X92892857Y-40439875D02*
X92988095Y-40487494D01*
X92988095Y-40487494D02*
X93035714Y-40535113D01*
X93035714Y-40535113D02*
X93083333Y-40630351D01*
X93083333Y-40630351D02*
X93083333Y-40773208D01*
X93083333Y-40773208D02*
X93035714Y-40868446D01*
X93035714Y-40868446D02*
X92988095Y-40916065D01*
X92988095Y-40916065D02*
X92892857Y-40963684D01*
X92892857Y-40963684D02*
X92511905Y-40963684D01*
X93845238Y-40916065D02*
X93511905Y-40916065D01*
X93511905Y-41439875D02*
X93511905Y-40439875D01*
X93511905Y-40439875D02*
X93988095Y-40439875D01*
X94369048Y-40439875D02*
X94369048Y-41249398D01*
X94369048Y-41249398D02*
X94416667Y-41344636D01*
X94416667Y-41344636D02*
X94464286Y-41392256D01*
X94464286Y-41392256D02*
X94559524Y-41439875D01*
X94559524Y-41439875D02*
X94750000Y-41439875D01*
X94750000Y-41439875D02*
X94845238Y-41392256D01*
X94845238Y-41392256D02*
X94892857Y-41344636D01*
X94892857Y-41344636D02*
X94940476Y-41249398D01*
X94940476Y-41249398D02*
X94940476Y-40439875D01*
X96130953Y-41392256D02*
X96273810Y-41439875D01*
X96273810Y-41439875D02*
X96511905Y-41439875D01*
X96511905Y-41439875D02*
X96607143Y-41392256D01*
X96607143Y-41392256D02*
X96654762Y-41344636D01*
X96654762Y-41344636D02*
X96702381Y-41249398D01*
X96702381Y-41249398D02*
X96702381Y-41154160D01*
X96702381Y-41154160D02*
X96654762Y-41058922D01*
X96654762Y-41058922D02*
X96607143Y-41011303D01*
X96607143Y-41011303D02*
X96511905Y-40963684D01*
X96511905Y-40963684D02*
X96321429Y-40916065D01*
X96321429Y-40916065D02*
X96226191Y-40868446D01*
X96226191Y-40868446D02*
X96178572Y-40820827D01*
X96178572Y-40820827D02*
X96130953Y-40725589D01*
X96130953Y-40725589D02*
X96130953Y-40630351D01*
X96130953Y-40630351D02*
X96178572Y-40535113D01*
X96178572Y-40535113D02*
X96226191Y-40487494D01*
X96226191Y-40487494D02*
X96321429Y-40439875D01*
X96321429Y-40439875D02*
X96559524Y-40439875D01*
X96559524Y-40439875D02*
X96702381Y-40487494D01*
X97130953Y-41439875D02*
X97130953Y-40773208D01*
X97130953Y-40439875D02*
X97083334Y-40487494D01*
X97083334Y-40487494D02*
X97130953Y-40535113D01*
X97130953Y-40535113D02*
X97178572Y-40487494D01*
X97178572Y-40487494D02*
X97130953Y-40439875D01*
X97130953Y-40439875D02*
X97130953Y-40535113D01*
X97607143Y-41439875D02*
X97607143Y-40773208D01*
X97607143Y-40868446D02*
X97654762Y-40820827D01*
X97654762Y-40820827D02*
X97750000Y-40773208D01*
X97750000Y-40773208D02*
X97892857Y-40773208D01*
X97892857Y-40773208D02*
X97988095Y-40820827D01*
X97988095Y-40820827D02*
X98035714Y-40916065D01*
X98035714Y-40916065D02*
X98035714Y-41439875D01*
X98035714Y-40916065D02*
X98083333Y-40820827D01*
X98083333Y-40820827D02*
X98178571Y-40773208D01*
X98178571Y-40773208D02*
X98321428Y-40773208D01*
X98321428Y-40773208D02*
X98416667Y-40820827D01*
X98416667Y-40820827D02*
X98464286Y-40916065D01*
X98464286Y-40916065D02*
X98464286Y-41439875D01*
X98940476Y-40773208D02*
X98940476Y-41773208D01*
X98940476Y-40820827D02*
X99035714Y-40773208D01*
X99035714Y-40773208D02*
X99226190Y-40773208D01*
X99226190Y-40773208D02*
X99321428Y-40820827D01*
X99321428Y-40820827D02*
X99369047Y-40868446D01*
X99369047Y-40868446D02*
X99416666Y-40963684D01*
X99416666Y-40963684D02*
X99416666Y-41249398D01*
X99416666Y-41249398D02*
X99369047Y-41344636D01*
X99369047Y-41344636D02*
X99321428Y-41392256D01*
X99321428Y-41392256D02*
X99226190Y-41439875D01*
X99226190Y-41439875D02*
X99035714Y-41439875D01*
X99035714Y-41439875D02*
X98940476Y-41392256D01*
X99988095Y-41439875D02*
X99892857Y-41392256D01*
X99892857Y-41392256D02*
X99845238Y-41297017D01*
X99845238Y-41297017D02*
X99845238Y-40439875D01*
X100750000Y-41392256D02*
X100654762Y-41439875D01*
X100654762Y-41439875D02*
X100464286Y-41439875D01*
X100464286Y-41439875D02*
X100369048Y-41392256D01*
X100369048Y-41392256D02*
X100321429Y-41297017D01*
X100321429Y-41297017D02*
X100321429Y-40916065D01*
X100321429Y-40916065D02*
X100369048Y-40820827D01*
X100369048Y-40820827D02*
X100464286Y-40773208D01*
X100464286Y-40773208D02*
X100654762Y-40773208D01*
X100654762Y-40773208D02*
X100750000Y-40820827D01*
X100750000Y-40820827D02*
X100797619Y-40916065D01*
X100797619Y-40916065D02*
X100797619Y-41011303D01*
X100797619Y-41011303D02*
X100321429Y-41106541D01*
X101892858Y-40773208D02*
X102130953Y-41439875D01*
X102130953Y-41439875D02*
X102369048Y-40773208D01*
X103273810Y-41439875D02*
X102702382Y-41439875D01*
X102988096Y-41439875D02*
X102988096Y-40439875D01*
X102988096Y-40439875D02*
X102892858Y-40582732D01*
X102892858Y-40582732D02*
X102797620Y-40677970D01*
X102797620Y-40677970D02*
X102702382Y-40725589D01*
X103702382Y-41344636D02*
X103750001Y-41392256D01*
X103750001Y-41392256D02*
X103702382Y-41439875D01*
X103702382Y-41439875D02*
X103654763Y-41392256D01*
X103654763Y-41392256D02*
X103702382Y-41344636D01*
X103702382Y-41344636D02*
X103702382Y-41439875D01*
X104369048Y-40439875D02*
X104464286Y-40439875D01*
X104464286Y-40439875D02*
X104559524Y-40487494D01*
X104559524Y-40487494D02*
X104607143Y-40535113D01*
X104607143Y-40535113D02*
X104654762Y-40630351D01*
X104654762Y-40630351D02*
X104702381Y-40820827D01*
X104702381Y-40820827D02*
X104702381Y-41058922D01*
X104702381Y-41058922D02*
X104654762Y-41249398D01*
X104654762Y-41249398D02*
X104607143Y-41344636D01*
X104607143Y-41344636D02*
X104559524Y-41392256D01*
X104559524Y-41392256D02*
X104464286Y-41439875D01*
X104464286Y-41439875D02*
X104369048Y-41439875D01*
X104369048Y-41439875D02*
X104273810Y-41392256D01*
X104273810Y-41392256D02*
X104226191Y-41344636D01*
X104226191Y-41344636D02*
X104178572Y-41249398D01*
X104178572Y-41249398D02*
X104130953Y-41058922D01*
X104130953Y-41058922D02*
X104130953Y-40820827D01*
X104130953Y-40820827D02*
X104178572Y-40630351D01*
X104178572Y-40630351D02*
X104226191Y-40535113D01*
X104226191Y-40535113D02*
X104273810Y-40487494D01*
X104273810Y-40487494D02*
X104369048Y-40439875D01*
X89916666Y-42049819D02*
X90488094Y-42049819D01*
X90202380Y-43049819D02*
X90202380Y-42049819D01*
X90821428Y-43049819D02*
X90821428Y-42383152D01*
X90821428Y-42049819D02*
X90773809Y-42097438D01*
X90773809Y-42097438D02*
X90821428Y-42145057D01*
X90821428Y-42145057D02*
X90869047Y-42097438D01*
X90869047Y-42097438D02*
X90821428Y-42049819D01*
X90821428Y-42049819D02*
X90821428Y-42145057D01*
X91297618Y-43049819D02*
X91297618Y-42383152D01*
X91297618Y-42478390D02*
X91345237Y-42430771D01*
X91345237Y-42430771D02*
X91440475Y-42383152D01*
X91440475Y-42383152D02*
X91583332Y-42383152D01*
X91583332Y-42383152D02*
X91678570Y-42430771D01*
X91678570Y-42430771D02*
X91726189Y-42526009D01*
X91726189Y-42526009D02*
X91726189Y-43049819D01*
X91726189Y-42526009D02*
X91773808Y-42430771D01*
X91773808Y-42430771D02*
X91869046Y-42383152D01*
X91869046Y-42383152D02*
X92011903Y-42383152D01*
X92011903Y-42383152D02*
X92107142Y-42430771D01*
X92107142Y-42430771D02*
X92154761Y-42526009D01*
X92154761Y-42526009D02*
X92154761Y-43049819D01*
X92773808Y-43049819D02*
X92678570Y-43002200D01*
X92678570Y-43002200D02*
X92630951Y-42954580D01*
X92630951Y-42954580D02*
X92583332Y-42859342D01*
X92583332Y-42859342D02*
X92583332Y-42573628D01*
X92583332Y-42573628D02*
X92630951Y-42478390D01*
X92630951Y-42478390D02*
X92678570Y-42430771D01*
X92678570Y-42430771D02*
X92773808Y-42383152D01*
X92773808Y-42383152D02*
X92916665Y-42383152D01*
X92916665Y-42383152D02*
X93011903Y-42430771D01*
X93011903Y-42430771D02*
X93059522Y-42478390D01*
X93059522Y-42478390D02*
X93107141Y-42573628D01*
X93107141Y-42573628D02*
X93107141Y-42859342D01*
X93107141Y-42859342D02*
X93059522Y-42954580D01*
X93059522Y-42954580D02*
X93011903Y-43002200D01*
X93011903Y-43002200D02*
X92916665Y-43049819D01*
X92916665Y-43049819D02*
X92773808Y-43049819D01*
X93392856Y-42383152D02*
X93773808Y-42383152D01*
X93535713Y-42049819D02*
X93535713Y-42906961D01*
X93535713Y-42906961D02*
X93583332Y-43002200D01*
X93583332Y-43002200D02*
X93678570Y-43049819D01*
X93678570Y-43049819D02*
X93773808Y-43049819D01*
X94107142Y-43049819D02*
X94107142Y-42049819D01*
X94535713Y-43049819D02*
X94535713Y-42526009D01*
X94535713Y-42526009D02*
X94488094Y-42430771D01*
X94488094Y-42430771D02*
X94392856Y-42383152D01*
X94392856Y-42383152D02*
X94249999Y-42383152D01*
X94249999Y-42383152D02*
X94154761Y-42430771D01*
X94154761Y-42430771D02*
X94107142Y-42478390D01*
X94916666Y-42383152D02*
X95154761Y-43049819D01*
X95392856Y-42383152D02*
X95154761Y-43049819D01*
X95154761Y-43049819D02*
X95059523Y-43287914D01*
X95059523Y-43287914D02*
X95011904Y-43335533D01*
X95011904Y-43335533D02*
X94916666Y-43383152D01*
X96535714Y-43049819D02*
X96535714Y-42049819D01*
X97107142Y-43049819D02*
X96678571Y-42478390D01*
X97107142Y-42049819D02*
X96535714Y-42621247D01*
X97916666Y-43002200D02*
X97821428Y-43049819D01*
X97821428Y-43049819D02*
X97630952Y-43049819D01*
X97630952Y-43049819D02*
X97535714Y-43002200D01*
X97535714Y-43002200D02*
X97488095Y-42906961D01*
X97488095Y-42906961D02*
X97488095Y-42526009D01*
X97488095Y-42526009D02*
X97535714Y-42430771D01*
X97535714Y-42430771D02*
X97630952Y-42383152D01*
X97630952Y-42383152D02*
X97821428Y-42383152D01*
X97821428Y-42383152D02*
X97916666Y-42430771D01*
X97916666Y-42430771D02*
X97964285Y-42526009D01*
X97964285Y-42526009D02*
X97964285Y-42621247D01*
X97964285Y-42621247D02*
X97488095Y-42716485D01*
X98535714Y-43049819D02*
X98440476Y-43002200D01*
X98440476Y-43002200D02*
X98392857Y-42906961D01*
X98392857Y-42906961D02*
X98392857Y-42049819D01*
X99059524Y-43049819D02*
X98964286Y-43002200D01*
X98964286Y-43002200D02*
X98916667Y-42906961D01*
X98916667Y-42906961D02*
X98916667Y-42049819D01*
X99821429Y-43002200D02*
X99726191Y-43049819D01*
X99726191Y-43049819D02*
X99535715Y-43049819D01*
X99535715Y-43049819D02*
X99440477Y-43002200D01*
X99440477Y-43002200D02*
X99392858Y-42906961D01*
X99392858Y-42906961D02*
X99392858Y-42526009D01*
X99392858Y-42526009D02*
X99440477Y-42430771D01*
X99440477Y-42430771D02*
X99535715Y-42383152D01*
X99535715Y-42383152D02*
X99726191Y-42383152D01*
X99726191Y-42383152D02*
X99821429Y-42430771D01*
X99821429Y-42430771D02*
X99869048Y-42526009D01*
X99869048Y-42526009D02*
X99869048Y-42621247D01*
X99869048Y-42621247D02*
X99392858Y-42716485D01*
X100297620Y-43049819D02*
X100297620Y-42383152D01*
X100297620Y-42573628D02*
X100345239Y-42478390D01*
X100345239Y-42478390D02*
X100392858Y-42430771D01*
X100392858Y-42430771D02*
X100488096Y-42383152D01*
X100488096Y-42383152D02*
X100583334Y-42383152D01*
X79832580Y-62904666D02*
X79880200Y-62952285D01*
X79880200Y-62952285D02*
X79927819Y-63095142D01*
X79927819Y-63095142D02*
X79927819Y-63190380D01*
X79927819Y-63190380D02*
X79880200Y-63333237D01*
X79880200Y-63333237D02*
X79784961Y-63428475D01*
X79784961Y-63428475D02*
X79689723Y-63476094D01*
X79689723Y-63476094D02*
X79499247Y-63523713D01*
X79499247Y-63523713D02*
X79356390Y-63523713D01*
X79356390Y-63523713D02*
X79165914Y-63476094D01*
X79165914Y-63476094D02*
X79070676Y-63428475D01*
X79070676Y-63428475D02*
X78975438Y-63333237D01*
X78975438Y-63333237D02*
X78927819Y-63190380D01*
X78927819Y-63190380D02*
X78927819Y-63095142D01*
X78927819Y-63095142D02*
X78975438Y-62952285D01*
X78975438Y-62952285D02*
X79023057Y-62904666D01*
X79023057Y-62523713D02*
X78975438Y-62476094D01*
X78975438Y-62476094D02*
X78927819Y-62380856D01*
X78927819Y-62380856D02*
X78927819Y-62142761D01*
X78927819Y-62142761D02*
X78975438Y-62047523D01*
X78975438Y-62047523D02*
X79023057Y-61999904D01*
X79023057Y-61999904D02*
X79118295Y-61952285D01*
X79118295Y-61952285D02*
X79213533Y-61952285D01*
X79213533Y-61952285D02*
X79356390Y-61999904D01*
X79356390Y-61999904D02*
X79927819Y-62571332D01*
X79927819Y-62571332D02*
X79927819Y-61952285D01*
X75358666Y-55334819D02*
X75358666Y-56049104D01*
X75358666Y-56049104D02*
X75311047Y-56191961D01*
X75311047Y-56191961D02*
X75215809Y-56287200D01*
X75215809Y-56287200D02*
X75072952Y-56334819D01*
X75072952Y-56334819D02*
X74977714Y-56334819D01*
X76358666Y-56334819D02*
X75787238Y-56334819D01*
X76072952Y-56334819D02*
X76072952Y-55334819D01*
X76072952Y-55334819D02*
X75977714Y-55477676D01*
X75977714Y-55477676D02*
X75882476Y-55572914D01*
X75882476Y-55572914D02*
X75787238Y-55620533D01*
X114474666Y-64224819D02*
X114474666Y-64939104D01*
X114474666Y-64939104D02*
X114427047Y-65081961D01*
X114427047Y-65081961D02*
X114331809Y-65177200D01*
X114331809Y-65177200D02*
X114188952Y-65224819D01*
X114188952Y-65224819D02*
X114093714Y-65224819D01*
X114855619Y-64224819D02*
X115474666Y-64224819D01*
X115474666Y-64224819D02*
X115141333Y-64605771D01*
X115141333Y-64605771D02*
X115284190Y-64605771D01*
X115284190Y-64605771D02*
X115379428Y-64653390D01*
X115379428Y-64653390D02*
X115427047Y-64701009D01*
X115427047Y-64701009D02*
X115474666Y-64796247D01*
X115474666Y-64796247D02*
X115474666Y-65034342D01*
X115474666Y-65034342D02*
X115427047Y-65129580D01*
X115427047Y-65129580D02*
X115379428Y-65177200D01*
X115379428Y-65177200D02*
X115284190Y-65224819D01*
X115284190Y-65224819D02*
X114998476Y-65224819D01*
X114998476Y-65224819D02*
X114903238Y-65177200D01*
X114903238Y-65177200D02*
X114855619Y-65129580D01*
X94916666Y-77178819D02*
X94916666Y-77893104D01*
X94916666Y-77893104D02*
X94869047Y-78035961D01*
X94869047Y-78035961D02*
X94773809Y-78131200D01*
X94773809Y-78131200D02*
X94630952Y-78178819D01*
X94630952Y-78178819D02*
X94535714Y-78178819D01*
X95821428Y-77512152D02*
X95821428Y-78178819D01*
X95583333Y-77131200D02*
X95345238Y-77845485D01*
X95345238Y-77845485D02*
X95964285Y-77845485D01*
X84923333Y-49999580D02*
X84875714Y-50047200D01*
X84875714Y-50047200D02*
X84732857Y-50094819D01*
X84732857Y-50094819D02*
X84637619Y-50094819D01*
X84637619Y-50094819D02*
X84494762Y-50047200D01*
X84494762Y-50047200D02*
X84399524Y-49951961D01*
X84399524Y-49951961D02*
X84351905Y-49856723D01*
X84351905Y-49856723D02*
X84304286Y-49666247D01*
X84304286Y-49666247D02*
X84304286Y-49523390D01*
X84304286Y-49523390D02*
X84351905Y-49332914D01*
X84351905Y-49332914D02*
X84399524Y-49237676D01*
X84399524Y-49237676D02*
X84494762Y-49142438D01*
X84494762Y-49142438D02*
X84637619Y-49094819D01*
X84637619Y-49094819D02*
X84732857Y-49094819D01*
X84732857Y-49094819D02*
X84875714Y-49142438D01*
X84875714Y-49142438D02*
X84923333Y-49190057D01*
X85256667Y-49094819D02*
X85875714Y-49094819D01*
X85875714Y-49094819D02*
X85542381Y-49475771D01*
X85542381Y-49475771D02*
X85685238Y-49475771D01*
X85685238Y-49475771D02*
X85780476Y-49523390D01*
X85780476Y-49523390D02*
X85828095Y-49571009D01*
X85828095Y-49571009D02*
X85875714Y-49666247D01*
X85875714Y-49666247D02*
X85875714Y-49904342D01*
X85875714Y-49904342D02*
X85828095Y-49999580D01*
X85828095Y-49999580D02*
X85780476Y-50047200D01*
X85780476Y-50047200D02*
X85685238Y-50094819D01*
X85685238Y-50094819D02*
X85399524Y-50094819D01*
X85399524Y-50094819D02*
X85304286Y-50047200D01*
X85304286Y-50047200D02*
X85256667Y-49999580D01*
X105243333Y-49999580D02*
X105195714Y-50047200D01*
X105195714Y-50047200D02*
X105052857Y-50094819D01*
X105052857Y-50094819D02*
X104957619Y-50094819D01*
X104957619Y-50094819D02*
X104814762Y-50047200D01*
X104814762Y-50047200D02*
X104719524Y-49951961D01*
X104719524Y-49951961D02*
X104671905Y-49856723D01*
X104671905Y-49856723D02*
X104624286Y-49666247D01*
X104624286Y-49666247D02*
X104624286Y-49523390D01*
X104624286Y-49523390D02*
X104671905Y-49332914D01*
X104671905Y-49332914D02*
X104719524Y-49237676D01*
X104719524Y-49237676D02*
X104814762Y-49142438D01*
X104814762Y-49142438D02*
X104957619Y-49094819D01*
X104957619Y-49094819D02*
X105052857Y-49094819D01*
X105052857Y-49094819D02*
X105195714Y-49142438D01*
X105195714Y-49142438D02*
X105243333Y-49190057D01*
X106100476Y-49428152D02*
X106100476Y-50094819D01*
X105862381Y-49047200D02*
X105624286Y-49761485D01*
X105624286Y-49761485D02*
X106243333Y-49761485D01*
X86868095Y-59724819D02*
X86868095Y-60534342D01*
X86868095Y-60534342D02*
X86915714Y-60629580D01*
X86915714Y-60629580D02*
X86963333Y-60677200D01*
X86963333Y-60677200D02*
X87058571Y-60724819D01*
X87058571Y-60724819D02*
X87249047Y-60724819D01*
X87249047Y-60724819D02*
X87344285Y-60677200D01*
X87344285Y-60677200D02*
X87391904Y-60629580D01*
X87391904Y-60629580D02*
X87439523Y-60534342D01*
X87439523Y-60534342D02*
X87439523Y-59724819D01*
X87868095Y-59820057D02*
X87915714Y-59772438D01*
X87915714Y-59772438D02*
X88010952Y-59724819D01*
X88010952Y-59724819D02*
X88249047Y-59724819D01*
X88249047Y-59724819D02*
X88344285Y-59772438D01*
X88344285Y-59772438D02*
X88391904Y-59820057D01*
X88391904Y-59820057D02*
X88439523Y-59915295D01*
X88439523Y-59915295D02*
X88439523Y-60010533D01*
X88439523Y-60010533D02*
X88391904Y-60153390D01*
X88391904Y-60153390D02*
X87820476Y-60724819D01*
X87820476Y-60724819D02*
X88439523Y-60724819D01*
X105751333Y-71954819D02*
X105418000Y-71478628D01*
X105179905Y-71954819D02*
X105179905Y-70954819D01*
X105179905Y-70954819D02*
X105560857Y-70954819D01*
X105560857Y-70954819D02*
X105656095Y-71002438D01*
X105656095Y-71002438D02*
X105703714Y-71050057D01*
X105703714Y-71050057D02*
X105751333Y-71145295D01*
X105751333Y-71145295D02*
X105751333Y-71288152D01*
X105751333Y-71288152D02*
X105703714Y-71383390D01*
X105703714Y-71383390D02*
X105656095Y-71431009D01*
X105656095Y-71431009D02*
X105560857Y-71478628D01*
X105560857Y-71478628D02*
X105179905Y-71478628D01*
X106703714Y-71954819D02*
X106132286Y-71954819D01*
X106418000Y-71954819D02*
X106418000Y-70954819D01*
X106418000Y-70954819D02*
X106322762Y-71097676D01*
X106322762Y-71097676D02*
X106227524Y-71192914D01*
X106227524Y-71192914D02*
X106132286Y-71240533D01*
X93675580Y-54776666D02*
X93723200Y-54824285D01*
X93723200Y-54824285D02*
X93770819Y-54967142D01*
X93770819Y-54967142D02*
X93770819Y-55062380D01*
X93770819Y-55062380D02*
X93723200Y-55205237D01*
X93723200Y-55205237D02*
X93627961Y-55300475D01*
X93627961Y-55300475D02*
X93532723Y-55348094D01*
X93532723Y-55348094D02*
X93342247Y-55395713D01*
X93342247Y-55395713D02*
X93199390Y-55395713D01*
X93199390Y-55395713D02*
X93008914Y-55348094D01*
X93008914Y-55348094D02*
X92913676Y-55300475D01*
X92913676Y-55300475D02*
X92818438Y-55205237D01*
X92818438Y-55205237D02*
X92770819Y-55062380D01*
X92770819Y-55062380D02*
X92770819Y-54967142D01*
X92770819Y-54967142D02*
X92818438Y-54824285D01*
X92818438Y-54824285D02*
X92866057Y-54776666D01*
X92770819Y-53871904D02*
X92770819Y-54348094D01*
X92770819Y-54348094D02*
X93247009Y-54395713D01*
X93247009Y-54395713D02*
X93199390Y-54348094D01*
X93199390Y-54348094D02*
X93151771Y-54252856D01*
X93151771Y-54252856D02*
X93151771Y-54014761D01*
X93151771Y-54014761D02*
X93199390Y-53919523D01*
X93199390Y-53919523D02*
X93247009Y-53871904D01*
X93247009Y-53871904D02*
X93342247Y-53824285D01*
X93342247Y-53824285D02*
X93580342Y-53824285D01*
X93580342Y-53824285D02*
X93675580Y-53871904D01*
X93675580Y-53871904D02*
X93723200Y-53919523D01*
X93723200Y-53919523D02*
X93770819Y-54014761D01*
X93770819Y-54014761D02*
X93770819Y-54252856D01*
X93770819Y-54252856D02*
X93723200Y-54348094D01*
X93723200Y-54348094D02*
X93675580Y-54395713D01*
X79832580Y-66841666D02*
X79880200Y-66889285D01*
X79880200Y-66889285D02*
X79927819Y-67032142D01*
X79927819Y-67032142D02*
X79927819Y-67127380D01*
X79927819Y-67127380D02*
X79880200Y-67270237D01*
X79880200Y-67270237D02*
X79784961Y-67365475D01*
X79784961Y-67365475D02*
X79689723Y-67413094D01*
X79689723Y-67413094D02*
X79499247Y-67460713D01*
X79499247Y-67460713D02*
X79356390Y-67460713D01*
X79356390Y-67460713D02*
X79165914Y-67413094D01*
X79165914Y-67413094D02*
X79070676Y-67365475D01*
X79070676Y-67365475D02*
X78975438Y-67270237D01*
X78975438Y-67270237D02*
X78927819Y-67127380D01*
X78927819Y-67127380D02*
X78927819Y-67032142D01*
X78927819Y-67032142D02*
X78975438Y-66889285D01*
X78975438Y-66889285D02*
X79023057Y-66841666D01*
X79927819Y-65889285D02*
X79927819Y-66460713D01*
X79927819Y-66174999D02*
X78927819Y-66174999D01*
X78927819Y-66174999D02*
X79070676Y-66270237D01*
X79070676Y-66270237D02*
X79165914Y-66365475D01*
X79165914Y-66365475D02*
X79213533Y-66460713D01*
X114474666Y-55334819D02*
X114474666Y-56049104D01*
X114474666Y-56049104D02*
X114427047Y-56191961D01*
X114427047Y-56191961D02*
X114331809Y-56287200D01*
X114331809Y-56287200D02*
X114188952Y-56334819D01*
X114188952Y-56334819D02*
X114093714Y-56334819D01*
X114903238Y-55430057D02*
X114950857Y-55382438D01*
X114950857Y-55382438D02*
X115046095Y-55334819D01*
X115046095Y-55334819D02*
X115284190Y-55334819D01*
X115284190Y-55334819D02*
X115379428Y-55382438D01*
X115379428Y-55382438D02*
X115427047Y-55430057D01*
X115427047Y-55430057D02*
X115474666Y-55525295D01*
X115474666Y-55525295D02*
X115474666Y-55620533D01*
X115474666Y-55620533D02*
X115427047Y-55763390D01*
X115427047Y-55763390D02*
X114855619Y-56334819D01*
X114855619Y-56334819D02*
X115474666Y-56334819D01*
X94488095Y-46317819D02*
X94488095Y-47127342D01*
X94488095Y-47127342D02*
X94535714Y-47222580D01*
X94535714Y-47222580D02*
X94583333Y-47270200D01*
X94583333Y-47270200D02*
X94678571Y-47317819D01*
X94678571Y-47317819D02*
X94869047Y-47317819D01*
X94869047Y-47317819D02*
X94964285Y-47270200D01*
X94964285Y-47270200D02*
X95011904Y-47222580D01*
X95011904Y-47222580D02*
X95059523Y-47127342D01*
X95059523Y-47127342D02*
X95059523Y-46317819D01*
X96059523Y-47317819D02*
X95488095Y-47317819D01*
X95773809Y-47317819D02*
X95773809Y-46317819D01*
X95773809Y-46317819D02*
X95678571Y-46460676D01*
X95678571Y-46460676D02*
X95583333Y-46555914D01*
X95583333Y-46555914D02*
X95488095Y-46603533D01*
D11*
%TO.C,C2*%
X80418000Y-62999252D02*
X80418000Y-62476748D01*
X81888000Y-62999252D02*
X81888000Y-62476748D01*
%TO.C,J1*%
X74152000Y-48850000D02*
X74152000Y-49960000D01*
X74152000Y-51640000D02*
X74152000Y-52750000D01*
X77402000Y-48850000D02*
X77402000Y-49960000D01*
X77402000Y-51640000D02*
X77402000Y-52750000D01*
X77952000Y-50800000D02*
X78452000Y-51050000D01*
X78452000Y-50550000D02*
X77952000Y-50800000D01*
X78452000Y-51050000D02*
X78452000Y-50550000D01*
%TO.C,J3*%
X112048000Y-69600000D02*
X112048000Y-70100000D01*
X112048000Y-70100000D02*
X112548000Y-69850000D01*
X112548000Y-69850000D02*
X112048000Y-69600000D01*
X113098000Y-69010000D02*
X113098000Y-67900000D01*
X113098000Y-71800000D02*
X113098000Y-70690000D01*
X116348000Y-69010000D02*
X116348000Y-67900000D01*
X116348000Y-71800000D02*
X116348000Y-70690000D01*
%TO.C,J4*%
X92600000Y-76310000D02*
X92600000Y-74930000D01*
X93980000Y-76310000D02*
X92600000Y-76310000D01*
X95250000Y-73550000D02*
X97900000Y-73550000D01*
X95250000Y-76310000D02*
X95250000Y-73550000D01*
X95250000Y-76310000D02*
X97900000Y-76310000D01*
X97900000Y-76310000D02*
X97900000Y-73550000D01*
%TO.C,C3*%
X84982164Y-50440000D02*
X85197836Y-50440000D01*
X84982164Y-51160000D02*
X85197836Y-51160000D01*
%TO.C,C4*%
X105302164Y-50440000D02*
X105517836Y-50440000D01*
X105302164Y-51160000D02*
X105517836Y-51160000D01*
%TO.C,U2*%
X85780000Y-61360000D02*
X89540000Y-61360000D01*
X85780000Y-68180000D02*
X89540000Y-68180000D01*
X89540000Y-61360000D02*
X89540000Y-62620000D01*
X89540000Y-68180000D02*
X89540000Y-66920000D01*
X84500000Y-61460000D02*
X84260000Y-61130000D01*
X84740000Y-61130000D01*
X84500000Y-61460000D01*
G36*
X84500000Y-61460000D02*
G01*
X84260000Y-61130000D01*
X84740000Y-61130000D01*
X84500000Y-61460000D01*
G37*
%TO.C,R1*%
X106145064Y-69115000D02*
X105690936Y-69115000D01*
X106145064Y-70585000D02*
X105690936Y-70585000D01*
%TO.C,C5*%
X94261000Y-54871252D02*
X94261000Y-54348748D01*
X95731000Y-54871252D02*
X95731000Y-54348748D01*
%TO.C,C1*%
X80418000Y-66936252D02*
X80418000Y-66413748D01*
X81888000Y-66936252D02*
X81888000Y-66413748D01*
%TO.C,J2*%
X112048000Y-50550000D02*
X112048000Y-51050000D01*
X112048000Y-51050000D02*
X112548000Y-50800000D01*
X112548000Y-50800000D02*
X112048000Y-50550000D01*
X113098000Y-49960000D02*
X113098000Y-48850000D01*
X113098000Y-52750000D02*
X113098000Y-51640000D01*
X116348000Y-49960000D02*
X116348000Y-48850000D01*
X116348000Y-52750000D02*
X116348000Y-51640000D01*
%TO.C,U1*%
X94115000Y-48784000D02*
X94115000Y-50784000D01*
X96385000Y-48784000D02*
X96385000Y-50784000D01*
X96580000Y-48264000D02*
X96300000Y-48264000D01*
X96300000Y-47984000D01*
X96580000Y-48264000D01*
G36*
X96580000Y-48264000D02*
G01*
X96300000Y-48264000D01*
X96300000Y-47984000D01*
X96580000Y-48264000D01*
G37*
%TD*%
M02*
