%TF.GenerationSoftware,KiCad,Pcbnew,9.0.3*%
%TF.CreationDate,2025-07-11T20:05:46-04:00*%
%TF.ProjectId,S-Band PFU Simple,532d4261-6e64-4205-9046-552053696d70,v1.0*%
%TF.SameCoordinates,Original*%
%TF.FileFunction,Legend,Top*%
%TF.FilePolarity,Positive*%
%FSLAX46Y46*%
G04 Gerber Fmt 4.6, Leading zero omitted, Abs format (unit mm)*
G04 Created by KiCad (PCBNEW 9.0.3) date 2025-07-11 20:05:46*
%MOMM*%
%LPD*%
G01*
G04 APERTURE LIST*
%ADD10C,0.150000*%
%ADD11C,0.120000*%
G04 APERTURE END LIST*
D10*
X85797619Y-41392256D02*
X85940476Y-41439875D01*
X85940476Y-41439875D02*
X86178571Y-41439875D01*
X86178571Y-41439875D02*
X86273809Y-41392256D01*
X86273809Y-41392256D02*
X86321428Y-41344636D01*
X86321428Y-41344636D02*
X86369047Y-41249398D01*
X86369047Y-41249398D02*
X86369047Y-41154160D01*
X86369047Y-41154160D02*
X86321428Y-41058922D01*
X86321428Y-41058922D02*
X86273809Y-41011303D01*
X86273809Y-41011303D02*
X86178571Y-40963684D01*
X86178571Y-40963684D02*
X85988095Y-40916065D01*
X85988095Y-40916065D02*
X85892857Y-40868446D01*
X85892857Y-40868446D02*
X85845238Y-40820827D01*
X85845238Y-40820827D02*
X85797619Y-40725589D01*
X85797619Y-40725589D02*
X85797619Y-40630351D01*
X85797619Y-40630351D02*
X85845238Y-40535113D01*
X85845238Y-40535113D02*
X85892857Y-40487494D01*
X85892857Y-40487494D02*
X85988095Y-40439875D01*
X85988095Y-40439875D02*
X86226190Y-40439875D01*
X86226190Y-40439875D02*
X86369047Y-40487494D01*
X86797619Y-41058922D02*
X87559524Y-41058922D01*
X88369047Y-40916065D02*
X88511904Y-40963684D01*
X88511904Y-40963684D02*
X88559523Y-41011303D01*
X88559523Y-41011303D02*
X88607142Y-41106541D01*
X88607142Y-41106541D02*
X88607142Y-41249398D01*
X88607142Y-41249398D02*
X88559523Y-41344636D01*
X88559523Y-41344636D02*
X88511904Y-41392256D01*
X88511904Y-41392256D02*
X88416666Y-41439875D01*
X88416666Y-41439875D02*
X88035714Y-41439875D01*
X88035714Y-41439875D02*
X88035714Y-40439875D01*
X88035714Y-40439875D02*
X88369047Y-40439875D01*
X88369047Y-40439875D02*
X88464285Y-40487494D01*
X88464285Y-40487494D02*
X88511904Y-40535113D01*
X88511904Y-40535113D02*
X88559523Y-40630351D01*
X88559523Y-40630351D02*
X88559523Y-40725589D01*
X88559523Y-40725589D02*
X88511904Y-40820827D01*
X88511904Y-40820827D02*
X88464285Y-40868446D01*
X88464285Y-40868446D02*
X88369047Y-40916065D01*
X88369047Y-40916065D02*
X88035714Y-40916065D01*
X89464285Y-41439875D02*
X89464285Y-40916065D01*
X89464285Y-40916065D02*
X89416666Y-40820827D01*
X89416666Y-40820827D02*
X89321428Y-40773208D01*
X89321428Y-40773208D02*
X89130952Y-40773208D01*
X89130952Y-40773208D02*
X89035714Y-40820827D01*
X89464285Y-41392256D02*
X89369047Y-41439875D01*
X89369047Y-41439875D02*
X89130952Y-41439875D01*
X89130952Y-41439875D02*
X89035714Y-41392256D01*
X89035714Y-41392256D02*
X88988095Y-41297017D01*
X88988095Y-41297017D02*
X88988095Y-41201779D01*
X88988095Y-41201779D02*
X89035714Y-41106541D01*
X89035714Y-41106541D02*
X89130952Y-41058922D01*
X89130952Y-41058922D02*
X89369047Y-41058922D01*
X89369047Y-41058922D02*
X89464285Y-41011303D01*
X89940476Y-40773208D02*
X89940476Y-41439875D01*
X89940476Y-40868446D02*
X89988095Y-40820827D01*
X89988095Y-40820827D02*
X90083333Y-40773208D01*
X90083333Y-40773208D02*
X90226190Y-40773208D01*
X90226190Y-40773208D02*
X90321428Y-40820827D01*
X90321428Y-40820827D02*
X90369047Y-40916065D01*
X90369047Y-40916065D02*
X90369047Y-41439875D01*
X91273809Y-41439875D02*
X91273809Y-40439875D01*
X91273809Y-41392256D02*
X91178571Y-41439875D01*
X91178571Y-41439875D02*
X90988095Y-41439875D01*
X90988095Y-41439875D02*
X90892857Y-41392256D01*
X90892857Y-41392256D02*
X90845238Y-41344636D01*
X90845238Y-41344636D02*
X90797619Y-41249398D01*
X90797619Y-41249398D02*
X90797619Y-40963684D01*
X90797619Y-40963684D02*
X90845238Y-40868446D01*
X90845238Y-40868446D02*
X90892857Y-40820827D01*
X90892857Y-40820827D02*
X90988095Y-40773208D01*
X90988095Y-40773208D02*
X91178571Y-40773208D01*
X91178571Y-40773208D02*
X91273809Y-40820827D01*
X92511905Y-41439875D02*
X92511905Y-40439875D01*
X92511905Y-40439875D02*
X92892857Y-40439875D01*
X92892857Y-40439875D02*
X92988095Y-40487494D01*
X92988095Y-40487494D02*
X93035714Y-40535113D01*
X93035714Y-40535113D02*
X93083333Y-40630351D01*
X93083333Y-40630351D02*
X93083333Y-40773208D01*
X93083333Y-40773208D02*
X93035714Y-40868446D01*
X93035714Y-40868446D02*
X92988095Y-40916065D01*
X92988095Y-40916065D02*
X92892857Y-40963684D01*
X92892857Y-40963684D02*
X92511905Y-40963684D01*
X93845238Y-40916065D02*
X93511905Y-40916065D01*
X93511905Y-41439875D02*
X93511905Y-40439875D01*
X93511905Y-40439875D02*
X93988095Y-40439875D01*
X94369048Y-40439875D02*
X94369048Y-41249398D01*
X94369048Y-41249398D02*
X94416667Y-41344636D01*
X94416667Y-41344636D02*
X94464286Y-41392256D01*
X94464286Y-41392256D02*
X94559524Y-41439875D01*
X94559524Y-41439875D02*
X94750000Y-41439875D01*
X94750000Y-41439875D02*
X94845238Y-41392256D01*
X94845238Y-41392256D02*
X94892857Y-41344636D01*
X94892857Y-41344636D02*
X94940476Y-41249398D01*
X94940476Y-41249398D02*
X94940476Y-40439875D01*
X96130953Y-41392256D02*
X96273810Y-41439875D01*
X96273810Y-41439875D02*
X96511905Y-41439875D01*
X96511905Y-41439875D02*
X96607143Y-41392256D01*
X96607143Y-41392256D02*
X96654762Y-41344636D01*
X96654762Y-41344636D02*
X96702381Y-41249398D01*
X96702381Y-41249398D02*
X96702381Y-41154160D01*
X96702381Y-41154160D02*
X96654762Y-41058922D01*
X96654762Y-41058922D02*
X96607143Y-41011303D01*
X96607143Y-41011303D02*
X96511905Y-40963684D01*
X96511905Y-40963684D02*
X96321429Y-40916065D01*
X96321429Y-40916065D02*
X96226191Y-40868446D01*
X96226191Y-40868446D02*
X96178572Y-40820827D01*
X96178572Y-40820827D02*
X96130953Y-40725589D01*
X96130953Y-40725589D02*
X96130953Y-40630351D01*
X96130953Y-40630351D02*
X96178572Y-40535113D01*
X96178572Y-40535113D02*
X96226191Y-40487494D01*
X96226191Y-40487494D02*
X96321429Y-40439875D01*
X96321429Y-40439875D02*
X96559524Y-40439875D01*
X96559524Y-40439875D02*
X96702381Y-40487494D01*
X97130953Y-41439875D02*
X97130953Y-40773208D01*
X97130953Y-40439875D02*
X97083334Y-40487494D01*
X97083334Y-40487494D02*
X97130953Y-40535113D01*
X97130953Y-40535113D02*
X97178572Y-40487494D01*
X97178572Y-40487494D02*
X97130953Y-40439875D01*
X97130953Y-40439875D02*
X97130953Y-40535113D01*
X97607143Y-41439875D02*
X97607143Y-40773208D01*
X97607143Y-40868446D02*
X97654762Y-40820827D01*
X97654762Y-40820827D02*
X97750000Y-40773208D01*
X97750000Y-40773208D02*
X97892857Y-40773208D01*
X97892857Y-40773208D02*
X97988095Y-40820827D01*
X97988095Y-40820827D02*
X98035714Y-40916065D01*
X98035714Y-40916065D02*
X98035714Y-41439875D01*
X98035714Y-40916065D02*
X98083333Y-40820827D01*
X98083333Y-40820827D02*
X98178571Y-40773208D01*
X98178571Y-40773208D02*
X98321428Y-40773208D01*
X98321428Y-40773208D02*
X98416667Y-40820827D01*
X98416667Y-40820827D02*
X98464286Y-40916065D01*
X98464286Y-40916065D02*
X98464286Y-41439875D01*
X98940476Y-40773208D02*
X98940476Y-41773208D01*
X98940476Y-40820827D02*
X99035714Y-40773208D01*
X99035714Y-40773208D02*
X99226190Y-40773208D01*
X99226190Y-40773208D02*
X99321428Y-40820827D01*
X99321428Y-40820827D02*
X99369047Y-40868446D01*
X99369047Y-40868446D02*
X99416666Y-40963684D01*
X99416666Y-40963684D02*
X99416666Y-41249398D01*
X99416666Y-41249398D02*
X99369047Y-41344636D01*
X99369047Y-41344636D02*
X99321428Y-41392256D01*
X99321428Y-41392256D02*
X99226190Y-41439875D01*
X99226190Y-41439875D02*
X99035714Y-41439875D01*
X99035714Y-41439875D02*
X98940476Y-41392256D01*
X99988095Y-41439875D02*
X99892857Y-41392256D01*
X99892857Y-41392256D02*
X99845238Y-41297017D01*
X99845238Y-41297017D02*
X99845238Y-40439875D01*
X100750000Y-41392256D02*
X100654762Y-41439875D01*
X100654762Y-41439875D02*
X100464286Y-41439875D01*
X100464286Y-41439875D02*
X100369048Y-41392256D01*
X100369048Y-41392256D02*
X100321429Y-41297017D01*
X100321429Y-41297017D02*
X100321429Y-40916065D01*
X100321429Y-40916065D02*
X100369048Y-40820827D01*
X100369048Y-40820827D02*
X100464286Y-40773208D01*
X100464286Y-40773208D02*
X100654762Y-40773208D01*
X100654762Y-40773208D02*
X100750000Y-40820827D01*
X100750000Y-40820827D02*
X100797619Y-40916065D01*
X100797619Y-40916065D02*
X100797619Y-41011303D01*
X100797619Y-41011303D02*
X100321429Y-41106541D01*
X101892858Y-40773208D02*
X102130953Y-41439875D01*
X102130953Y-41439875D02*
X102369048Y-40773208D01*
X103273810Y-41439875D02*
X102702382Y-41439875D01*
X102988096Y-41439875D02*
X102988096Y-40439875D01*
X102988096Y-40439875D02*
X102892858Y-40582732D01*
X102892858Y-40582732D02*
X102797620Y-40677970D01*
X102797620Y-40677970D02*
X102702382Y-40725589D01*
X103702382Y-41344636D02*
X103750001Y-41392256D01*
X103750001Y-41392256D02*
X103702382Y-41439875D01*
X103702382Y-41439875D02*
X103654763Y-41392256D01*
X103654763Y-41392256D02*
X103702382Y-41344636D01*
X103702382Y-41344636D02*
X103702382Y-41439875D01*
X104369048Y-40439875D02*
X104464286Y-40439875D01*
X104464286Y-40439875D02*
X104559524Y-40487494D01*
X104559524Y-40487494D02*
X104607143Y-40535113D01*
X104607143Y-40535113D02*
X104654762Y-40630351D01*
X104654762Y-40630351D02*
X104702381Y-40820827D01*
X104702381Y-40820827D02*
X104702381Y-41058922D01*
X104702381Y-41058922D02*
X104654762Y-41249398D01*
X104654762Y-41249398D02*
X104607143Y-41344636D01*
X104607143Y-41344636D02*
X104559524Y-41392256D01*
X104559524Y-41392256D02*
X104464286Y-41439875D01*
X104464286Y-41439875D02*
X104369048Y-41439875D01*
X104369048Y-41439875D02*
X104273810Y-41392256D01*
X104273810Y-41392256D02*
X104226191Y-41344636D01*
X104226191Y-41344636D02*
X104178572Y-41249398D01*
X104178572Y-41249398D02*
X104130953Y-41058922D01*
X104130953Y-41058922D02*
X104130953Y-40820827D01*
X104130953Y-40820827D02*
X104178572Y-40630351D01*
X104178572Y-40630351D02*
X104226191Y-40535113D01*
X104226191Y-40535113D02*
X104273810Y-40487494D01*
X104273810Y-40487494D02*
X104369048Y-40439875D01*
X89916666Y-42049819D02*
X90488094Y-42049819D01*
X90202380Y-43049819D02*
X90202380Y-42049819D01*
X90821428Y-43049819D02*
X90821428Y-42383152D01*
X90821428Y-42049819D02*
X90773809Y-42097438D01*
X90773809Y-42097438D02*
X90821428Y-42145057D01*
X90821428Y-42145057D02*
X90869047Y-42097438D01*
X90869047Y-42097438D02*
X90821428Y-42049819D01*
X90821428Y-42049819D02*
X90821428Y-42145057D01*
X91297618Y-43049819D02*
X91297618Y-42383152D01*
X91297618Y-42478390D02*
X91345237Y-42430771D01*
X91345237Y-42430771D02*
X91440475Y-42383152D01*
X91440475Y-42383152D02*
X91583332Y-42383152D01*
X91583332Y-42383152D02*
X91678570Y-42430771D01*
X91678570Y-42430771D02*
X91726189Y-42526009D01*
X91726189Y-42526009D02*
X91726189Y-43049819D01*
X91726189Y-42526009D02*
X91773808Y-42430771D01*
X91773808Y-42430771D02*
X91869046Y-42383152D01*
X91869046Y-42383152D02*
X92011903Y-42383152D01*
X92011903Y-42383152D02*
X92107142Y-42430771D01*
X92107142Y-42430771D02*
X92154761Y-42526009D01*
X92154761Y-42526009D02*
X92154761Y-43049819D01*
X92773808Y-43049819D02*
X92678570Y-43002200D01*
X92678570Y-43002200D02*
X92630951Y-42954580D01*
X92630951Y-42954580D02*
X92583332Y-42859342D01*
X92583332Y-42859342D02*
X92583332Y-42573628D01*
X92583332Y-42573628D02*
X92630951Y-42478390D01*
X92630951Y-42478390D02*
X92678570Y-42430771D01*
X92678570Y-42430771D02*
X92773808Y-42383152D01*
X92773808Y-42383152D02*
X92916665Y-42383152D01*
X92916665Y-42383152D02*
X93011903Y-42430771D01*
X93011903Y-42430771D02*
X93059522Y-42478390D01*
X93059522Y-42478390D02*
X93107141Y-42573628D01*
X93107141Y-42573628D02*
X93107141Y-42859342D01*
X93107141Y-42859342D02*
X93059522Y-42954580D01*
X93059522Y-42954580D02*
X93011903Y-43002200D01*
X93011903Y-43002200D02*
X92916665Y-43049819D01*
X92916665Y-43049819D02*
X92773808Y-43049819D01*
X93392856Y-42383152D02*
X93773808Y-42383152D01*
X93535713Y-42049819D02*
X93535713Y-42906961D01*
X93535713Y-42906961D02*
X93583332Y-43002200D01*
X93583332Y-43002200D02*
X93678570Y-43049819D01*
X93678570Y-43049819D02*
X93773808Y-43049819D01*
X94107142Y-43049819D02*
X94107142Y-42049819D01*
X94535713Y-43049819D02*
X94535713Y-42526009D01*
X94535713Y-42526009D02*
X94488094Y-42430771D01*
X94488094Y-42430771D02*
X94392856Y-42383152D01*
X94392856Y-42383152D02*
X94249999Y-42383152D01*
X94249999Y-42383152D02*
X94154761Y-42430771D01*
X94154761Y-42430771D02*
X94107142Y-42478390D01*
X94916666Y-42383152D02*
X95154761Y-43049819D01*
X95392856Y-42383152D02*
X95154761Y-43049819D01*
X95154761Y-43049819D02*
X95059523Y-43287914D01*
X95059523Y-43287914D02*
X95011904Y-43335533D01*
X95011904Y-43335533D02*
X94916666Y-43383152D01*
X96535714Y-43049819D02*
X96535714Y-42049819D01*
X97107142Y-43049819D02*
X96678571Y-42478390D01*
X97107142Y-42049819D02*
X96535714Y-42621247D01*
X97916666Y-43002200D02*
X97821428Y-43049819D01*
X97821428Y-43049819D02*
X97630952Y-43049819D01*
X97630952Y-43049819D02*
X97535714Y-43002200D01*
X97535714Y-43002200D02*
X97488095Y-42906961D01*
X97488095Y-42906961D02*
X97488095Y-42526009D01*
X97488095Y-42526009D02*
X97535714Y-42430771D01*
X97535714Y-42430771D02*
X97630952Y-42383152D01*
X97630952Y-42383152D02*
X97821428Y-42383152D01*
X97821428Y-42383152D02*
X97916666Y-42430771D01*
X97916666Y-42430771D02*
X97964285Y-42526009D01*
X97964285Y-42526009D02*
X97964285Y-42621247D01*
X97964285Y-42621247D02*
X97488095Y-42716485D01*
X98535714Y-43049819D02*
X98440476Y-43002200D01*
X98440476Y-43002200D02*
X98392857Y-42906961D01*
X98392857Y-42906961D02*
X98392857Y-42049819D01*
X99059524Y-43049819D02*
X98964286Y-43002200D01*
X98964286Y-43002200D02*
X98916667Y-42906961D01*
X98916667Y-42906961D02*
X98916667Y-42049819D01*
X99821429Y-43002200D02*
X99726191Y-43049819D01*
X99726191Y-43049819D02*
X99535715Y-43049819D01*
X99535715Y-43049819D02*
X99440477Y-43002200D01*
X99440477Y-43002200D02*
X99392858Y-42906961D01*
X99392858Y-42906961D02*
X99392858Y-42526009D01*
X99392858Y-42526009D02*
X99440477Y-42430771D01*
X99440477Y-42430771D02*
X99535715Y-42383152D01*
X99535715Y-42383152D02*
X99726191Y-42383152D01*
X99726191Y-42383152D02*
X99821429Y-42430771D01*
X99821429Y-42430771D02*
X99869048Y-42526009D01*
X99869048Y-42526009D02*
X99869048Y-42621247D01*
X99869048Y-42621247D02*
X99392858Y-42716485D01*
X100297620Y-43049819D02*
X100297620Y-42383152D01*
X100297620Y-42573628D02*
X100345239Y-42478390D01*
X100345239Y-42478390D02*
X100392858Y-42430771D01*
X100392858Y-42430771D02*
X100488096Y-42383152D01*
X100488096Y-42383152D02*
X100583334Y-42383152D01*
X95845333Y-56366580D02*
X95797714Y-56414200D01*
X95797714Y-56414200D02*
X95654857Y-56461819D01*
X95654857Y-56461819D02*
X95559619Y-56461819D01*
X95559619Y-56461819D02*
X95416762Y-56414200D01*
X95416762Y-56414200D02*
X95321524Y-56318961D01*
X95321524Y-56318961D02*
X95273905Y-56223723D01*
X95273905Y-56223723D02*
X95226286Y-56033247D01*
X95226286Y-56033247D02*
X95226286Y-55890390D01*
X95226286Y-55890390D02*
X95273905Y-55699914D01*
X95273905Y-55699914D02*
X95321524Y-55604676D01*
X95321524Y-55604676D02*
X95416762Y-55509438D01*
X95416762Y-55509438D02*
X95559619Y-55461819D01*
X95559619Y-55461819D02*
X95654857Y-55461819D01*
X95654857Y-55461819D02*
X95797714Y-55509438D01*
X95797714Y-55509438D02*
X95845333Y-55557057D01*
X96226286Y-55557057D02*
X96273905Y-55509438D01*
X96273905Y-55509438D02*
X96369143Y-55461819D01*
X96369143Y-55461819D02*
X96607238Y-55461819D01*
X96607238Y-55461819D02*
X96702476Y-55509438D01*
X96702476Y-55509438D02*
X96750095Y-55557057D01*
X96750095Y-55557057D02*
X96797714Y-55652295D01*
X96797714Y-55652295D02*
X96797714Y-55747533D01*
X96797714Y-55747533D02*
X96750095Y-55890390D01*
X96750095Y-55890390D02*
X96178667Y-56461819D01*
X96178667Y-56461819D02*
X96797714Y-56461819D01*
X75466666Y-55334819D02*
X75466666Y-56049104D01*
X75466666Y-56049104D02*
X75419047Y-56191961D01*
X75419047Y-56191961D02*
X75323809Y-56287200D01*
X75323809Y-56287200D02*
X75180952Y-56334819D01*
X75180952Y-56334819D02*
X75085714Y-56334819D01*
X76466666Y-56334819D02*
X75895238Y-56334819D01*
X76180952Y-56334819D02*
X76180952Y-55334819D01*
X76180952Y-55334819D02*
X76085714Y-55477676D01*
X76085714Y-55477676D02*
X75990476Y-55572914D01*
X75990476Y-55572914D02*
X75895238Y-55620533D01*
X108759666Y-60795819D02*
X108759666Y-61510104D01*
X108759666Y-61510104D02*
X108712047Y-61652961D01*
X108712047Y-61652961D02*
X108616809Y-61748200D01*
X108616809Y-61748200D02*
X108473952Y-61795819D01*
X108473952Y-61795819D02*
X108378714Y-61795819D01*
X109140619Y-60795819D02*
X109759666Y-60795819D01*
X109759666Y-60795819D02*
X109426333Y-61176771D01*
X109426333Y-61176771D02*
X109569190Y-61176771D01*
X109569190Y-61176771D02*
X109664428Y-61224390D01*
X109664428Y-61224390D02*
X109712047Y-61272009D01*
X109712047Y-61272009D02*
X109759666Y-61367247D01*
X109759666Y-61367247D02*
X109759666Y-61605342D01*
X109759666Y-61605342D02*
X109712047Y-61700580D01*
X109712047Y-61700580D02*
X109664428Y-61748200D01*
X109664428Y-61748200D02*
X109569190Y-61795819D01*
X109569190Y-61795819D02*
X109283476Y-61795819D01*
X109283476Y-61795819D02*
X109188238Y-61748200D01*
X109188238Y-61748200D02*
X109140619Y-61700580D01*
X96313666Y-58001819D02*
X96313666Y-58716104D01*
X96313666Y-58716104D02*
X96266047Y-58858961D01*
X96266047Y-58858961D02*
X96170809Y-58954200D01*
X96170809Y-58954200D02*
X96027952Y-59001819D01*
X96027952Y-59001819D02*
X95932714Y-59001819D01*
X97218428Y-58335152D02*
X97218428Y-59001819D01*
X96980333Y-57954200D02*
X96742238Y-58668485D01*
X96742238Y-58668485D02*
X97361285Y-58668485D01*
X84923333Y-49762580D02*
X84875714Y-49810200D01*
X84875714Y-49810200D02*
X84732857Y-49857819D01*
X84732857Y-49857819D02*
X84637619Y-49857819D01*
X84637619Y-49857819D02*
X84494762Y-49810200D01*
X84494762Y-49810200D02*
X84399524Y-49714961D01*
X84399524Y-49714961D02*
X84351905Y-49619723D01*
X84351905Y-49619723D02*
X84304286Y-49429247D01*
X84304286Y-49429247D02*
X84304286Y-49286390D01*
X84304286Y-49286390D02*
X84351905Y-49095914D01*
X84351905Y-49095914D02*
X84399524Y-49000676D01*
X84399524Y-49000676D02*
X84494762Y-48905438D01*
X84494762Y-48905438D02*
X84637619Y-48857819D01*
X84637619Y-48857819D02*
X84732857Y-48857819D01*
X84732857Y-48857819D02*
X84875714Y-48905438D01*
X84875714Y-48905438D02*
X84923333Y-48953057D01*
X85256667Y-48857819D02*
X85875714Y-48857819D01*
X85875714Y-48857819D02*
X85542381Y-49238771D01*
X85542381Y-49238771D02*
X85685238Y-49238771D01*
X85685238Y-49238771D02*
X85780476Y-49286390D01*
X85780476Y-49286390D02*
X85828095Y-49334009D01*
X85828095Y-49334009D02*
X85875714Y-49429247D01*
X85875714Y-49429247D02*
X85875714Y-49667342D01*
X85875714Y-49667342D02*
X85828095Y-49762580D01*
X85828095Y-49762580D02*
X85780476Y-49810200D01*
X85780476Y-49810200D02*
X85685238Y-49857819D01*
X85685238Y-49857819D02*
X85399524Y-49857819D01*
X85399524Y-49857819D02*
X85304286Y-49810200D01*
X85304286Y-49810200D02*
X85256667Y-49762580D01*
X105243333Y-49762580D02*
X105195714Y-49810200D01*
X105195714Y-49810200D02*
X105052857Y-49857819D01*
X105052857Y-49857819D02*
X104957619Y-49857819D01*
X104957619Y-49857819D02*
X104814762Y-49810200D01*
X104814762Y-49810200D02*
X104719524Y-49714961D01*
X104719524Y-49714961D02*
X104671905Y-49619723D01*
X104671905Y-49619723D02*
X104624286Y-49429247D01*
X104624286Y-49429247D02*
X104624286Y-49286390D01*
X104624286Y-49286390D02*
X104671905Y-49095914D01*
X104671905Y-49095914D02*
X104719524Y-49000676D01*
X104719524Y-49000676D02*
X104814762Y-48905438D01*
X104814762Y-48905438D02*
X104957619Y-48857819D01*
X104957619Y-48857819D02*
X105052857Y-48857819D01*
X105052857Y-48857819D02*
X105195714Y-48905438D01*
X105195714Y-48905438D02*
X105243333Y-48953057D01*
X106100476Y-49191152D02*
X106100476Y-49857819D01*
X105862381Y-48810200D02*
X105624286Y-49524485D01*
X105624286Y-49524485D02*
X106243333Y-49524485D01*
X80137095Y-55969819D02*
X80137095Y-56779342D01*
X80137095Y-56779342D02*
X80184714Y-56874580D01*
X80184714Y-56874580D02*
X80232333Y-56922200D01*
X80232333Y-56922200D02*
X80327571Y-56969819D01*
X80327571Y-56969819D02*
X80518047Y-56969819D01*
X80518047Y-56969819D02*
X80613285Y-56922200D01*
X80613285Y-56922200D02*
X80660904Y-56874580D01*
X80660904Y-56874580D02*
X80708523Y-56779342D01*
X80708523Y-56779342D02*
X80708523Y-55969819D01*
X81137095Y-56065057D02*
X81184714Y-56017438D01*
X81184714Y-56017438D02*
X81279952Y-55969819D01*
X81279952Y-55969819D02*
X81518047Y-55969819D01*
X81518047Y-55969819D02*
X81613285Y-56017438D01*
X81613285Y-56017438D02*
X81660904Y-56065057D01*
X81660904Y-56065057D02*
X81708523Y-56160295D01*
X81708523Y-56160295D02*
X81708523Y-56255533D01*
X81708523Y-56255533D02*
X81660904Y-56398390D01*
X81660904Y-56398390D02*
X81089476Y-56969819D01*
X81089476Y-56969819D02*
X81708523Y-56969819D01*
X107656333Y-56080819D02*
X107323000Y-55604628D01*
X107084905Y-56080819D02*
X107084905Y-55080819D01*
X107084905Y-55080819D02*
X107465857Y-55080819D01*
X107465857Y-55080819D02*
X107561095Y-55128438D01*
X107561095Y-55128438D02*
X107608714Y-55176057D01*
X107608714Y-55176057D02*
X107656333Y-55271295D01*
X107656333Y-55271295D02*
X107656333Y-55414152D01*
X107656333Y-55414152D02*
X107608714Y-55509390D01*
X107608714Y-55509390D02*
X107561095Y-55557009D01*
X107561095Y-55557009D02*
X107465857Y-55604628D01*
X107465857Y-55604628D02*
X107084905Y-55604628D01*
X108608714Y-56080819D02*
X108037286Y-56080819D01*
X108323000Y-56080819D02*
X108323000Y-55080819D01*
X108323000Y-55080819D02*
X108227762Y-55223676D01*
X108227762Y-55223676D02*
X108132524Y-55318914D01*
X108132524Y-55318914D02*
X108037286Y-55366533D01*
X95845333Y-54207580D02*
X95797714Y-54255200D01*
X95797714Y-54255200D02*
X95654857Y-54302819D01*
X95654857Y-54302819D02*
X95559619Y-54302819D01*
X95559619Y-54302819D02*
X95416762Y-54255200D01*
X95416762Y-54255200D02*
X95321524Y-54159961D01*
X95321524Y-54159961D02*
X95273905Y-54064723D01*
X95273905Y-54064723D02*
X95226286Y-53874247D01*
X95226286Y-53874247D02*
X95226286Y-53731390D01*
X95226286Y-53731390D02*
X95273905Y-53540914D01*
X95273905Y-53540914D02*
X95321524Y-53445676D01*
X95321524Y-53445676D02*
X95416762Y-53350438D01*
X95416762Y-53350438D02*
X95559619Y-53302819D01*
X95559619Y-53302819D02*
X95654857Y-53302819D01*
X95654857Y-53302819D02*
X95797714Y-53350438D01*
X95797714Y-53350438D02*
X95845333Y-53398057D01*
X96750095Y-53302819D02*
X96273905Y-53302819D01*
X96273905Y-53302819D02*
X96226286Y-53779009D01*
X96226286Y-53779009D02*
X96273905Y-53731390D01*
X96273905Y-53731390D02*
X96369143Y-53683771D01*
X96369143Y-53683771D02*
X96607238Y-53683771D01*
X96607238Y-53683771D02*
X96702476Y-53731390D01*
X96702476Y-53731390D02*
X96750095Y-53779009D01*
X96750095Y-53779009D02*
X96797714Y-53874247D01*
X96797714Y-53874247D02*
X96797714Y-54112342D01*
X96797714Y-54112342D02*
X96750095Y-54207580D01*
X96750095Y-54207580D02*
X96702476Y-54255200D01*
X96702476Y-54255200D02*
X96607238Y-54302819D01*
X96607238Y-54302819D02*
X96369143Y-54302819D01*
X96369143Y-54302819D02*
X96273905Y-54255200D01*
X96273905Y-54255200D02*
X96226286Y-54207580D01*
X87336333Y-61954580D02*
X87288714Y-62002200D01*
X87288714Y-62002200D02*
X87145857Y-62049819D01*
X87145857Y-62049819D02*
X87050619Y-62049819D01*
X87050619Y-62049819D02*
X86907762Y-62002200D01*
X86907762Y-62002200D02*
X86812524Y-61906961D01*
X86812524Y-61906961D02*
X86764905Y-61811723D01*
X86764905Y-61811723D02*
X86717286Y-61621247D01*
X86717286Y-61621247D02*
X86717286Y-61478390D01*
X86717286Y-61478390D02*
X86764905Y-61287914D01*
X86764905Y-61287914D02*
X86812524Y-61192676D01*
X86812524Y-61192676D02*
X86907762Y-61097438D01*
X86907762Y-61097438D02*
X87050619Y-61049819D01*
X87050619Y-61049819D02*
X87145857Y-61049819D01*
X87145857Y-61049819D02*
X87288714Y-61097438D01*
X87288714Y-61097438D02*
X87336333Y-61145057D01*
X88288714Y-62049819D02*
X87717286Y-62049819D01*
X88003000Y-62049819D02*
X88003000Y-61049819D01*
X88003000Y-61049819D02*
X87907762Y-61192676D01*
X87907762Y-61192676D02*
X87812524Y-61287914D01*
X87812524Y-61287914D02*
X87717286Y-61335533D01*
X114366666Y-55334819D02*
X114366666Y-56049104D01*
X114366666Y-56049104D02*
X114319047Y-56191961D01*
X114319047Y-56191961D02*
X114223809Y-56287200D01*
X114223809Y-56287200D02*
X114080952Y-56334819D01*
X114080952Y-56334819D02*
X113985714Y-56334819D01*
X114795238Y-55430057D02*
X114842857Y-55382438D01*
X114842857Y-55382438D02*
X114938095Y-55334819D01*
X114938095Y-55334819D02*
X115176190Y-55334819D01*
X115176190Y-55334819D02*
X115271428Y-55382438D01*
X115271428Y-55382438D02*
X115319047Y-55430057D01*
X115319047Y-55430057D02*
X115366666Y-55525295D01*
X115366666Y-55525295D02*
X115366666Y-55620533D01*
X115366666Y-55620533D02*
X115319047Y-55763390D01*
X115319047Y-55763390D02*
X114747619Y-56334819D01*
X114747619Y-56334819D02*
X115366666Y-56334819D01*
X94488095Y-46317819D02*
X94488095Y-47127342D01*
X94488095Y-47127342D02*
X94535714Y-47222580D01*
X94535714Y-47222580D02*
X94583333Y-47270200D01*
X94583333Y-47270200D02*
X94678571Y-47317819D01*
X94678571Y-47317819D02*
X94869047Y-47317819D01*
X94869047Y-47317819D02*
X94964285Y-47270200D01*
X94964285Y-47270200D02*
X95011904Y-47222580D01*
X95011904Y-47222580D02*
X95059523Y-47127342D01*
X95059523Y-47127342D02*
X95059523Y-46317819D01*
X96059523Y-47317819D02*
X95488095Y-47317819D01*
X95773809Y-47317819D02*
X95773809Y-46317819D01*
X95773809Y-46317819D02*
X95678571Y-46460676D01*
X95678571Y-46460676D02*
X95583333Y-46555914D01*
X95583333Y-46555914D02*
X95488095Y-46603533D01*
D11*
%TO.C,C2*%
X93479252Y-55272000D02*
X92956748Y-55272000D01*
X93479252Y-56742000D02*
X92956748Y-56742000D01*
%TO.C,J1*%
X74260000Y-48850000D02*
X74260000Y-49960000D01*
X74260000Y-51640000D02*
X74260000Y-52750000D01*
X77510000Y-48850000D02*
X77510000Y-49960000D01*
X77510000Y-51640000D02*
X77510000Y-52750000D01*
X78060000Y-50800000D02*
X78560000Y-51050000D01*
X78560000Y-50550000D02*
X78060000Y-50800000D01*
X78560000Y-51050000D02*
X78560000Y-50550000D01*
%TO.C,J3*%
X102063000Y-59631000D02*
X103173000Y-59631000D01*
X102063000Y-62881000D02*
X103173000Y-62881000D01*
X103763000Y-58581000D02*
X104013000Y-59081000D01*
X104013000Y-59081000D02*
X104263000Y-58581000D01*
X104263000Y-58581000D02*
X103763000Y-58581000D01*
X104853000Y-59631000D02*
X105963000Y-59631000D01*
X104853000Y-62881000D02*
X105963000Y-62881000D01*
%TO.C,J4*%
X92600000Y-62340000D02*
X92600000Y-60960000D01*
X93980000Y-62340000D02*
X92600000Y-62340000D01*
X95250000Y-59580000D02*
X97900000Y-59580000D01*
X95250000Y-62340000D02*
X95250000Y-59580000D01*
X95250000Y-62340000D02*
X97900000Y-62340000D01*
X97900000Y-62340000D02*
X97900000Y-59580000D01*
%TO.C,C3*%
X84982164Y-50440000D02*
X85197836Y-50440000D01*
X84982164Y-51160000D02*
X85197836Y-51160000D01*
%TO.C,C4*%
X105302164Y-50440000D02*
X105517836Y-50440000D01*
X105302164Y-51160000D02*
X105517836Y-51160000D01*
%TO.C,U2*%
X84510000Y-53105000D02*
X88270000Y-53105000D01*
X84510000Y-59925000D02*
X88270000Y-59925000D01*
X88270000Y-53105000D02*
X88270000Y-54365000D01*
X88270000Y-59925000D02*
X88270000Y-58665000D01*
X83230000Y-53205000D02*
X82990000Y-52875000D01*
X83470000Y-52875000D01*
X83230000Y-53205000D01*
G36*
X83230000Y-53205000D02*
G01*
X82990000Y-52875000D01*
X83470000Y-52875000D01*
X83230000Y-53205000D01*
G37*
%TO.C,R1*%
X104674936Y-54891000D02*
X105129064Y-54891000D01*
X104674936Y-56361000D02*
X105129064Y-56361000D01*
%TO.C,C5*%
X92956748Y-53113000D02*
X93479252Y-53113000D01*
X92956748Y-54583000D02*
X93479252Y-54583000D01*
%TO.C,C1*%
X90431252Y-60860000D02*
X89908748Y-60860000D01*
X90431252Y-62330000D02*
X89908748Y-62330000D01*
%TO.C,J2*%
X111940000Y-50550000D02*
X111940000Y-51050000D01*
X111940000Y-51050000D02*
X112440000Y-50800000D01*
X112440000Y-50800000D02*
X111940000Y-50550000D01*
X112990000Y-49960000D02*
X112990000Y-48850000D01*
X112990000Y-52750000D02*
X112990000Y-51640000D01*
X116240000Y-49960000D02*
X116240000Y-48850000D01*
X116240000Y-52750000D02*
X116240000Y-51640000D01*
%TO.C,U1*%
X94115000Y-48784000D02*
X94115000Y-50784000D01*
X96385000Y-48784000D02*
X96385000Y-50784000D01*
X96580000Y-48264000D02*
X96300000Y-48264000D01*
X96300000Y-47984000D01*
X96580000Y-48264000D01*
G36*
X96580000Y-48264000D02*
G01*
X96300000Y-48264000D01*
X96300000Y-47984000D01*
X96580000Y-48264000D01*
G37*
%TD*%
M02*
