M48
; DRILL file {KiCad 9.0.3} date 2025-07-11T20:05:53-0400
; FORMAT={-:-/ absolute / metric / decimal}
; #@! TF.CreationDate,2025-07-11T20:05:53-04:00
; #@! TF.GenerationSoftware,Kicad,Pcbnew,9.0.3
; #@! TF.FileFunction,Plated,1,4,PTH
FMAT,2
METRIC
; #@! TA.AperFunction,Plated,PTH,ViaDrill
T1C0.300
; #@! TA.AperFunction,Plated,PTH,ComponentDrill
T2C1.000
; #@! TA.AperFunction,Plated,PTH,ComponentDrill
T3C3.264
%
G90
G05
T1
X77.47Y-45.72
X77.47Y-55.88
X78.74Y-47.984
X78.74Y-49.53
X78.74Y-52.07
X78.74Y-53.34
X80.01Y-46.99
X80.01Y-49.53
X80.01Y-52.07
X81.28Y-49.53
X81.28Y-52.07
X81.28Y-53.34
X81.661Y-61.417
X82.55Y-44.45
X82.55Y-46.99
X82.55Y-49.53
X82.55Y-52.07
X83.82Y-49.53
X83.82Y-52.07
X83.972Y-61.595
X85.09Y-46.99
X85.09Y-49.53
X85.09Y-52.07
X85.09Y-53.205
X85.852Y-61.57
X86.36Y-49.53
X86.36Y-52.07
X86.36Y-53.205
X87.63Y-46.99
X87.63Y-49.53
X87.63Y-52.07
X87.63Y-53.205
X87.986Y-61.57
X88.9Y-44.45
X88.9Y-49.53
X88.9Y-52.07
X88.9Y-53.205
X90.17Y-46.99
X90.17Y-49.53
X90.17Y-52.07
X90.17Y-53.205
X91.44Y-49.53
X91.44Y-52.07
X91.44Y-53.205
X91.44Y-54.61
X91.44Y-55.88
X92.71Y-46.99
X92.71Y-49.53
X92.71Y-52.07
X93.98Y-52.07
X94.717Y-49.657
X95.25Y-44.45
X95.783Y-49.657
X97.79Y-46.99
X97.79Y-49.53
X97.79Y-52.07
X97.79Y-55.88
X99.06Y-49.53
X99.06Y-52.07
X99.06Y-55.88
X100.33Y-46.99
X100.33Y-49.53
X100.33Y-52.07
X100.33Y-55.88
X101.6Y-44.45
X101.6Y-49.53
X101.6Y-52.07
X101.6Y-55.88
X101.6Y-57.15
X101.6Y-58.42
X102.87Y-46.99
X102.87Y-49.53
X102.87Y-52.07
X104.14Y-49.53
X104.14Y-52.07
X104.14Y-53.34
X105.41Y-46.99
X105.41Y-49.53
X105.41Y-52.07
X106.68Y-49.53
X106.68Y-52.07
X106.68Y-53.34
X106.68Y-57.15
X106.68Y-58.42
X107.95Y-44.45
X107.95Y-46.99
X107.95Y-49.53
X107.95Y-52.07
X107.95Y-54.61
X109.22Y-49.53
X109.22Y-52.07
X110.49Y-46.99
X110.49Y-49.53
X110.49Y-52.07
X111.76Y-48.26
X111.76Y-49.53
X111.76Y-52.07
X111.76Y-53.34
X112.99Y-45.72
X113.03Y-55.88
T2
X93.98Y-60.96
X96.52Y-60.96
T3
X77.47Y-41.91
X77.47Y-59.69
X113.03Y-41.91
X113.03Y-59.69
M30
