%TF.GenerationSoftware,KiCad,Pcbnew,9.0.2*%
%TF.CreationDate,2025-07-07T19:52:27-04:00*%
%TF.ProjectId,S-Band PFU Simple,532d4261-6e64-4205-9046-552053696d70,v1.0*%
%TF.SameCoordinates,Original*%
%TF.FileFunction,Copper,L1,Top*%
%TF.FilePolarity,Positive*%
%FSLAX46Y46*%
G04 Gerber Fmt 4.6, Leading zero omitted, Abs format (unit mm)*
G04 Created by KiCad (PCBNEW 9.0.2) date 2025-07-07 19:52:27*
%MOMM*%
%LPD*%
G01*
G04 APERTURE LIST*
G04 Aperture macros list*
%AMRoundRect*
0 Rectangle with rounded corners*
0 $1 Rounding radius*
0 $2 $3 $4 $5 $6 $7 $8 $9 X,Y pos of 4 corners*
0 Add a 4 corners polygon primitive as box body*
4,1,4,$2,$3,$4,$5,$6,$7,$8,$9,$2,$3,0*
0 Add four circle primitives for the rounded corners*
1,1,$1+$1,$2,$3*
1,1,$1+$1,$4,$5*
1,1,$1+$1,$6,$7*
1,1,$1+$1,$8,$9*
0 Add four rect primitives between the rounded corners*
20,1,$1+$1,$2,$3,$4,$5,0*
20,1,$1+$1,$4,$5,$6,$7,0*
20,1,$1+$1,$6,$7,$8,$9,0*
20,1,$1+$1,$8,$9,$2,$3,0*%
G04 Aperture macros list end*
%TA.AperFunction,SMDPad,CuDef*%
%ADD10RoundRect,0.250000X0.475000X-0.250000X0.475000X0.250000X-0.475000X0.250000X-0.475000X-0.250000X0*%
%TD*%
%TA.AperFunction,SMDPad,CuDef*%
%ADD11RoundRect,0.250000X-1.350000X0.385000X-1.350000X-0.385000X1.350000X-0.385000X1.350000X0.385000X0*%
%TD*%
%TA.AperFunction,SMDPad,CuDef*%
%ADD12RoundRect,0.250000X-1.600000X0.425000X-1.600000X-0.425000X1.600000X-0.425000X1.600000X0.425000X0*%
%TD*%
%TA.AperFunction,SMDPad,CuDef*%
%ADD13RoundRect,0.250000X1.350000X-0.385000X1.350000X0.385000X-1.350000X0.385000X-1.350000X-0.385000X0*%
%TD*%
%TA.AperFunction,SMDPad,CuDef*%
%ADD14RoundRect,0.250000X1.600000X-0.425000X1.600000X0.425000X-1.600000X0.425000X-1.600000X-0.425000X0*%
%TD*%
%TA.AperFunction,ComponentPad*%
%ADD15C,5.562600*%
%TD*%
%TA.AperFunction,ComponentPad*%
%ADD16R,1.700000X1.700000*%
%TD*%
%TA.AperFunction,ComponentPad*%
%ADD17C,1.700000*%
%TD*%
%TA.AperFunction,SMDPad,CuDef*%
%ADD18RoundRect,0.140000X-0.140000X-0.170000X0.140000X-0.170000X0.140000X0.170000X-0.140000X0.170000X0*%
%TD*%
%TA.AperFunction,SMDPad,CuDef*%
%ADD19RoundRect,0.375000X-0.625000X-0.375000X0.625000X-0.375000X0.625000X0.375000X-0.625000X0.375000X0*%
%TD*%
%TA.AperFunction,SMDPad,CuDef*%
%ADD20RoundRect,0.500000X-0.500000X-1.400000X0.500000X-1.400000X0.500000X1.400000X-0.500000X1.400000X0*%
%TD*%
%TA.AperFunction,SMDPad,CuDef*%
%ADD21RoundRect,0.250000X0.262500X0.450000X-0.262500X0.450000X-0.262500X-0.450000X0.262500X-0.450000X0*%
%TD*%
%TA.AperFunction,SMDPad,CuDef*%
%ADD22RoundRect,0.062500X-0.062500X0.287500X-0.062500X-0.287500X0.062500X-0.287500X0.062500X0.287500X0*%
%TD*%
%TA.AperFunction,HeatsinkPad*%
%ADD23R,1.700000X0.900000*%
%TD*%
%TA.AperFunction,ViaPad*%
%ADD24C,0.600000*%
%TD*%
%TA.AperFunction,Conductor*%
%ADD25C,1.270000*%
%TD*%
%TA.AperFunction,Conductor*%
%ADD26C,0.254000*%
%TD*%
%TA.AperFunction,Conductor*%
%ADD27C,0.400000*%
%TD*%
G04 APERTURE END LIST*
D10*
%TO.P,C2,1*%
%TO.N,+3V3*%
X81153000Y-63688000D03*
%TO.P,C2,2*%
%TO.N,GND*%
X81153000Y-61788000D03*
%TD*%
D11*
%TO.P,J1,1,In*%
%TO.N,RF_IN*%
X75692000Y-50800000D03*
D12*
%TO.P,J1,2,Ext*%
%TO.N,GND*%
X75942000Y-53625000D03*
X75942000Y-47975000D03*
%TD*%
D13*
%TO.P,J3,1,In*%
%TO.N,GATE*%
X114808000Y-69850000D03*
D14*
%TO.P,J3,2,Ext*%
%TO.N,GND*%
X114558000Y-67025000D03*
X114558000Y-72675000D03*
%TD*%
D15*
%TO.P,H2,1,1*%
%TO.N,GND*%
X113538000Y-41402000D03*
%TD*%
D16*
%TO.P,J4,1,Pin_1*%
%TO.N,+5V*%
X93980000Y-74930000D03*
D17*
%TO.P,J4,2,Pin_2*%
%TO.N,GND*%
X96520000Y-74930000D03*
%TD*%
D18*
%TO.P,C3,1*%
%TO.N,RF_IN*%
X84610000Y-50800000D03*
%TO.P,C3,2*%
%TO.N,Net-(U1-RF1)*%
X85570000Y-50800000D03*
%TD*%
%TO.P,C4,1*%
%TO.N,Net-(U1-RF2)*%
X104930000Y-50800000D03*
%TO.P,C4,2*%
%TO.N,RF_OUT*%
X105890000Y-50800000D03*
%TD*%
D19*
%TO.P,U2,1,GND*%
%TO.N,GND*%
X84480000Y-62470000D03*
%TO.P,U2,2,VO*%
%TO.N,+3V3*%
X84480000Y-64770000D03*
D20*
X90780000Y-64770000D03*
D19*
%TO.P,U2,3,VI*%
%TO.N,+5V*%
X84480000Y-67070000D03*
%TD*%
D21*
%TO.P,R1,1*%
%TO.N,GATE*%
X106830500Y-69850000D03*
%TO.P,R1,2*%
%TO.N,GND*%
X105005500Y-69850000D03*
%TD*%
D10*
%TO.P,C5,1*%
%TO.N,GND*%
X94996000Y-55560000D03*
%TO.P,C5,2*%
%TO.N,+3V3*%
X94996000Y-53660000D03*
%TD*%
%TO.P,C1,1*%
%TO.N,+5V*%
X81153000Y-67625000D03*
%TO.P,C1,2*%
%TO.N,GND*%
X81153000Y-65725000D03*
%TD*%
D15*
%TO.P,H3,1,1*%
%TO.N,GND*%
X113538000Y-77978000D03*
%TD*%
%TO.P,H4,1,1*%
%TO.N,GND*%
X76962000Y-77978000D03*
%TD*%
%TO.P,H1,1,1*%
%TO.N,GND*%
X76962000Y-41402000D03*
%TD*%
D13*
%TO.P,J2,1,In*%
%TO.N,RF_OUT*%
X114808000Y-50800000D03*
D14*
%TO.P,J2,2,Ext*%
%TO.N,GND*%
X114558000Y-47975000D03*
X114558000Y-53625000D03*
%TD*%
D22*
%TO.P,U1,1,NC*%
%TO.N,unconnected-(U1-NC-Pad1)*%
X96000000Y-48784000D03*
%TO.P,U1,2,GND*%
%TO.N,GND*%
X95500000Y-48784000D03*
%TO.P,U1,3,GND*%
X95000000Y-48784000D03*
%TO.P,U1,4,NC*%
%TO.N,unconnected-(U1-NC-Pad4)*%
X94500000Y-48784000D03*
%TO.P,U1,5,RF1*%
%TO.N,Net-(U1-RF1)*%
X94500000Y-50784000D03*
%TO.P,U1,6,VS*%
%TO.N,+3V3*%
X95000000Y-50784000D03*
%TO.P,U1,7,V1*%
%TO.N,GATE*%
X95500000Y-50784000D03*
%TO.P,U1,8,RF2*%
%TO.N,Net-(U1-RF2)*%
X96000000Y-50784000D03*
D23*
%TO.P,U1,9*%
%TO.N,N/C*%
X95250000Y-49784000D03*
%TD*%
D24*
%TO.N,GND*%
X85090000Y-49530000D03*
X88900000Y-44450000D03*
X111760000Y-52070000D03*
X82550000Y-49530000D03*
X106680000Y-49530000D03*
X95250000Y-63500000D03*
X81280000Y-52070000D03*
X99060000Y-57150000D03*
X104140000Y-58420000D03*
X95250000Y-57150000D03*
X99060000Y-53340000D03*
X85090000Y-52070000D03*
X78740000Y-49530000D03*
X82550000Y-57150000D03*
X100330000Y-49530000D03*
X109220000Y-68580000D03*
X101600000Y-76200000D03*
X95250000Y-44450000D03*
X106680000Y-60960000D03*
X76200000Y-57150000D03*
X100330000Y-54610000D03*
X82550000Y-52070000D03*
X110490000Y-49530000D03*
X111760000Y-49530000D03*
X101600000Y-63500000D03*
X105410000Y-63500000D03*
X105410000Y-52070000D03*
X104140000Y-62230000D03*
X92710000Y-52070000D03*
X93980000Y-52070000D03*
X107950000Y-57150000D03*
X111760000Y-71120000D03*
X105410000Y-49530000D03*
X109220000Y-49530000D03*
X102870000Y-52070000D03*
X104140000Y-52070000D03*
X76200000Y-69850000D03*
X88900000Y-57150000D03*
X107950000Y-49530000D03*
X104140000Y-49530000D03*
X88900000Y-52070000D03*
X109220000Y-71120000D03*
X114300000Y-57150000D03*
X78740000Y-52070000D03*
X114300000Y-63500000D03*
X102870000Y-49530000D03*
X87630000Y-49530000D03*
X102870000Y-57150000D03*
X95250000Y-69850000D03*
X82550000Y-44450000D03*
X97790000Y-49530000D03*
X92710000Y-49530000D03*
X81280000Y-49530000D03*
X105410000Y-64770000D03*
X100330000Y-58420000D03*
X91440000Y-52070000D03*
X80010000Y-52070000D03*
X107950000Y-67310000D03*
X105410000Y-67310000D03*
X83820000Y-49530000D03*
X102870000Y-60960000D03*
X101600000Y-69850000D03*
X107950000Y-76200000D03*
X86360000Y-52070000D03*
X86360000Y-49530000D03*
X101600000Y-49530000D03*
X96520000Y-54610000D03*
X97790000Y-55880000D03*
X91440000Y-49530000D03*
X107950000Y-52070000D03*
X109220000Y-52070000D03*
X99060000Y-49530000D03*
X82550000Y-76200000D03*
X111760000Y-68580000D03*
X101600000Y-52070000D03*
X107950000Y-62230000D03*
X101600000Y-55880000D03*
X90170000Y-52070000D03*
X90170000Y-49530000D03*
X100330000Y-52070000D03*
X83820000Y-52070000D03*
X101600000Y-44450000D03*
X80010000Y-49530000D03*
X76200000Y-63500000D03*
X107950000Y-44450000D03*
X101600000Y-59690000D03*
X106680000Y-52070000D03*
X87630000Y-52070000D03*
X88900000Y-49530000D03*
X99060000Y-52070000D03*
X97790000Y-52070000D03*
X110490000Y-52070000D03*
X105410000Y-59690000D03*
X107950000Y-64770000D03*
%TD*%
D25*
%TO.N,+5V*%
X89662000Y-74930000D02*
X84480000Y-69748000D01*
X93980000Y-74930000D02*
X89662000Y-74930000D01*
X84480000Y-69748000D02*
X84480000Y-67070000D01*
X83925000Y-67625000D02*
X84480000Y-67070000D01*
X81153000Y-67625000D02*
X83925000Y-67625000D01*
%TO.N,+3V3*%
X82398000Y-63688000D02*
X81153000Y-63688000D01*
D26*
X95000000Y-50784000D02*
X95000000Y-51291220D01*
D25*
X93406000Y-53660000D02*
X94996000Y-53660000D01*
X83480000Y-64770000D02*
X82398000Y-63688000D01*
X90780000Y-64770000D02*
X90780000Y-56286000D01*
D27*
X94996000Y-53660000D02*
X94996000Y-51295220D01*
D25*
X84480000Y-64770000D02*
X90780000Y-64770000D01*
D27*
X94996000Y-51295220D02*
X95000000Y-51291220D01*
D25*
X84480000Y-64770000D02*
X83480000Y-64770000D01*
X90780000Y-56286000D02*
X93406000Y-53660000D01*
D26*
%TO.N,Net-(U1-RF1)*%
X94500000Y-50784000D02*
X94123000Y-50784000D01*
X94123000Y-50784000D02*
X94107000Y-50800000D01*
D27*
X85570000Y-50800000D02*
X94107000Y-50800000D01*
D26*
%TO.N,Net-(U1-RF2)*%
X96000000Y-50784000D02*
X96377000Y-50784000D01*
X96377000Y-50784000D02*
X96393000Y-50800000D01*
D27*
X104930000Y-50800000D02*
X96393000Y-50800000D01*
%TO.N,RF_IN*%
X75692000Y-50800000D02*
X84610000Y-50800000D01*
%TO.N,RF_OUT*%
X114808000Y-50800000D02*
X105890000Y-50800000D01*
%TO.N,GATE*%
X106830500Y-62634500D02*
X106830500Y-69850000D01*
X95545000Y-51349000D02*
X106830500Y-62634500D01*
X95545000Y-50829000D02*
X95545000Y-51349000D01*
X114808000Y-69850000D02*
X106830500Y-69850000D01*
X95500000Y-50784000D02*
X95545000Y-50829000D01*
%TD*%
%TA.AperFunction,Conductor*%
%TO.N,GND*%
G36*
X84168521Y-51420185D02*
G01*
X84176407Y-51425696D01*
X84202605Y-51445562D01*
X84202607Y-51445563D01*
X84271715Y-51472816D01*
X84340826Y-51500070D01*
X84427680Y-51510500D01*
X84427686Y-51510500D01*
X84792314Y-51510500D01*
X84792320Y-51510500D01*
X84879174Y-51500070D01*
X85017395Y-51445562D01*
X85017398Y-51445559D01*
X85024787Y-51441406D01*
X85025818Y-51443239D01*
X85080376Y-51422499D01*
X85148741Y-51436921D01*
X85159265Y-51443684D01*
X85162607Y-51445563D01*
X85231715Y-51472816D01*
X85300826Y-51500070D01*
X85387680Y-51510500D01*
X85387686Y-51510500D01*
X85752314Y-51510500D01*
X85752320Y-51510500D01*
X85839174Y-51500070D01*
X85977395Y-51445562D01*
X86003593Y-51425696D01*
X86068905Y-51400873D01*
X86078518Y-51400500D01*
X94062777Y-51400500D01*
X94120923Y-51414978D01*
X94129028Y-51419281D01*
X94218711Y-51485469D01*
X94321336Y-51521379D01*
X94329646Y-51525791D01*
X94348180Y-51543895D01*
X94369231Y-51558994D01*
X94372765Y-51567910D01*
X94379628Y-51574614D01*
X94385431Y-51599862D01*
X94394978Y-51623946D01*
X94395500Y-51635313D01*
X94395500Y-52500500D01*
X94375815Y-52567539D01*
X94323011Y-52613294D01*
X94271500Y-52624500D01*
X93304010Y-52624500D01*
X93103961Y-52664292D01*
X93103951Y-52664295D01*
X92915508Y-52742350D01*
X92915505Y-52742352D01*
X92745908Y-52855672D01*
X92745901Y-52855678D01*
X90119907Y-55481675D01*
X90047790Y-55553792D01*
X89975673Y-55625908D01*
X89862355Y-55795500D01*
X89862348Y-55795513D01*
X89784295Y-55983951D01*
X89784292Y-55983961D01*
X89744500Y-56184009D01*
X89744500Y-62585767D01*
X89724815Y-62652806D01*
X89698537Y-62682132D01*
X89639743Y-62729742D01*
X89520614Y-62876853D01*
X89434680Y-63045512D01*
X89385687Y-63228356D01*
X89385687Y-63228357D01*
X89379500Y-63306973D01*
X89379500Y-63610500D01*
X89359815Y-63677539D01*
X89307011Y-63723294D01*
X89255500Y-63734500D01*
X85547163Y-63734500D01*
X85481191Y-63715494D01*
X85443608Y-63691879D01*
X85443604Y-63691877D01*
X85278658Y-63634159D01*
X85278648Y-63634157D01*
X85148558Y-63619500D01*
X85148552Y-63619500D01*
X83845280Y-63619500D01*
X83778241Y-63599815D01*
X83757599Y-63583181D01*
X83058096Y-62883677D01*
X83058092Y-62883674D01*
X82888499Y-62770355D01*
X82888486Y-62770348D01*
X82700048Y-62692295D01*
X82700038Y-62692292D01*
X82499990Y-62652500D01*
X82499988Y-62652500D01*
X81051012Y-62652500D01*
X81051010Y-62652500D01*
X80850961Y-62692292D01*
X80850951Y-62692295D01*
X80662508Y-62770350D01*
X80657137Y-62773222D01*
X80656040Y-62771170D01*
X80607864Y-62787849D01*
X80575431Y-62790401D01*
X80575426Y-62790402D01*
X80417606Y-62836254D01*
X80417603Y-62836255D01*
X80276137Y-62919917D01*
X80276129Y-62919923D01*
X80159923Y-63036129D01*
X80159917Y-63036137D01*
X80076255Y-63177603D01*
X80076254Y-63177606D01*
X80030402Y-63335426D01*
X80030401Y-63335432D01*
X80027500Y-63372298D01*
X80027500Y-64003701D01*
X80030401Y-64040567D01*
X80030402Y-64040573D01*
X80076254Y-64198393D01*
X80076255Y-64198396D01*
X80159917Y-64339862D01*
X80159923Y-64339870D01*
X80276129Y-64456076D01*
X80276133Y-64456079D01*
X80276135Y-64456081D01*
X80417602Y-64539744D01*
X80459224Y-64551836D01*
X80575426Y-64585597D01*
X80575429Y-64585597D01*
X80575431Y-64585598D01*
X80607860Y-64588150D01*
X80656025Y-64604857D01*
X80657137Y-64602778D01*
X80662508Y-64605649D01*
X80850951Y-64683704D01*
X80850956Y-64683706D01*
X80850960Y-64683706D01*
X80850961Y-64683707D01*
X81051009Y-64723500D01*
X81051012Y-64723500D01*
X81917720Y-64723500D01*
X81984759Y-64743185D01*
X82005401Y-64759819D01*
X82675675Y-65430093D01*
X82819907Y-65574325D01*
X82819908Y-65574326D01*
X82989500Y-65687644D01*
X82989513Y-65687651D01*
X83177951Y-65765704D01*
X83177956Y-65765706D01*
X83177960Y-65765706D01*
X83177961Y-65765707D01*
X83378009Y-65805500D01*
X83378012Y-65805500D01*
X83378013Y-65805500D01*
X83382599Y-65805500D01*
X83449638Y-65825185D01*
X83495393Y-65877989D01*
X83505337Y-65947147D01*
X83476312Y-66010703D01*
X83448571Y-66034494D01*
X83368423Y-66084853D01*
X83244853Y-66208423D01*
X83151877Y-66356395D01*
X83118959Y-66450467D01*
X83103557Y-66494487D01*
X83099369Y-66506455D01*
X83058648Y-66563231D01*
X82993695Y-66588978D01*
X82982328Y-66589500D01*
X81051010Y-66589500D01*
X80850961Y-66629292D01*
X80850951Y-66629295D01*
X80662508Y-66707350D01*
X80657137Y-66710222D01*
X80656040Y-66708170D01*
X80607864Y-66724849D01*
X80575431Y-66727401D01*
X80575426Y-66727402D01*
X80417606Y-66773254D01*
X80417603Y-66773255D01*
X80276137Y-66856917D01*
X80276129Y-66856923D01*
X80159923Y-66973129D01*
X80159917Y-66973137D01*
X80076255Y-67114603D01*
X80076254Y-67114606D01*
X80030402Y-67272426D01*
X80030401Y-67272432D01*
X80027500Y-67309298D01*
X80027500Y-67940701D01*
X80030401Y-67977567D01*
X80030402Y-67977573D01*
X80076254Y-68135393D01*
X80076255Y-68135396D01*
X80159917Y-68276862D01*
X80159923Y-68276870D01*
X80276129Y-68393076D01*
X80276133Y-68393079D01*
X80276135Y-68393081D01*
X80417602Y-68476744D01*
X80459224Y-68488836D01*
X80575426Y-68522597D01*
X80575429Y-68522597D01*
X80575431Y-68522598D01*
X80607860Y-68525150D01*
X80656025Y-68541857D01*
X80657137Y-68539778D01*
X80662508Y-68542649D01*
X80850951Y-68620704D01*
X80850956Y-68620706D01*
X80850960Y-68620706D01*
X80850961Y-68620707D01*
X81051009Y-68660500D01*
X81051012Y-68660500D01*
X83320500Y-68660500D01*
X83387539Y-68680185D01*
X83433294Y-68732989D01*
X83444500Y-68784500D01*
X83444500Y-69849991D01*
X83484292Y-70050036D01*
X83484295Y-70050048D01*
X83562348Y-70238486D01*
X83562355Y-70238499D01*
X83675674Y-70408092D01*
X83675677Y-70408096D01*
X89001905Y-75734324D01*
X89001908Y-75734326D01*
X89117436Y-75811519D01*
X89171507Y-75847648D01*
X89171509Y-75847649D01*
X89171513Y-75847651D01*
X89310701Y-75905304D01*
X89359956Y-75925706D01*
X89359960Y-75925706D01*
X89359961Y-75925707D01*
X89560009Y-75965500D01*
X89560012Y-75965500D01*
X89560013Y-75965500D01*
X89763988Y-75965500D01*
X92700377Y-75965500D01*
X92767416Y-75985185D01*
X92800694Y-76016613D01*
X92801948Y-76018339D01*
X92801950Y-76018342D01*
X92891658Y-76108050D01*
X93004694Y-76165645D01*
X93004698Y-76165647D01*
X93098475Y-76180499D01*
X93098481Y-76180500D01*
X94861518Y-76180499D01*
X94955304Y-76165646D01*
X95068342Y-76108050D01*
X95158050Y-76018342D01*
X95215646Y-75905304D01*
X95215646Y-75905302D01*
X95215647Y-75905301D01*
X95230499Y-75811524D01*
X95230500Y-75811519D01*
X95230499Y-74048482D01*
X95215646Y-73954696D01*
X95158050Y-73841658D01*
X95158046Y-73841654D01*
X95158045Y-73841652D01*
X95068347Y-73751954D01*
X95068344Y-73751952D01*
X95068342Y-73751950D01*
X94991517Y-73712805D01*
X94955301Y-73694352D01*
X94861524Y-73679500D01*
X93098482Y-73679500D01*
X93017519Y-73692323D01*
X93004696Y-73694354D01*
X92891658Y-73751950D01*
X92891657Y-73751951D01*
X92891656Y-73751951D01*
X92801948Y-73841660D01*
X92800694Y-73843387D01*
X92798631Y-73844977D01*
X92795050Y-73848559D01*
X92794587Y-73848096D01*
X92745364Y-73886052D01*
X92700377Y-73894500D01*
X90142280Y-73894500D01*
X90075241Y-73874815D01*
X90054599Y-73858181D01*
X85551819Y-69355401D01*
X85518334Y-69294078D01*
X85515500Y-69267720D01*
X85515500Y-68171480D01*
X85535185Y-68104441D01*
X85573527Y-68066487D01*
X85591576Y-68055147D01*
X85715147Y-67931576D01*
X85808122Y-67783606D01*
X85865841Y-67618657D01*
X85880500Y-67488552D01*
X85880500Y-66651448D01*
X85865841Y-66521343D01*
X85808122Y-66356394D01*
X85715147Y-66208424D01*
X85591576Y-66084853D01*
X85511428Y-66034493D01*
X85465138Y-65982160D01*
X85454489Y-65913106D01*
X85482864Y-65849258D01*
X85541254Y-65810886D01*
X85577401Y-65805500D01*
X89255501Y-65805500D01*
X89322540Y-65825185D01*
X89368295Y-65877989D01*
X89379501Y-65929500D01*
X89379501Y-66233029D01*
X89385687Y-66311643D01*
X89416747Y-66427562D01*
X89434680Y-66494488D01*
X89456783Y-66537868D01*
X89520614Y-66663146D01*
X89556410Y-66707350D01*
X89639743Y-66810257D01*
X89697366Y-66856919D01*
X89786853Y-66929385D01*
X89870371Y-66971938D01*
X89955512Y-67015320D01*
X90138355Y-67064312D01*
X90216979Y-67070500D01*
X91343020Y-67070499D01*
X91421645Y-67064312D01*
X91604488Y-67015320D01*
X91733008Y-66949835D01*
X91773146Y-66929385D01*
X91773147Y-66929383D01*
X91773149Y-66929383D01*
X91920257Y-66810257D01*
X92039383Y-66663149D01*
X92045347Y-66651445D01*
X92077175Y-66588978D01*
X92125320Y-66494488D01*
X92174312Y-66311645D01*
X92180500Y-66233021D01*
X92180499Y-63306980D01*
X92174312Y-63228355D01*
X92125320Y-63045512D01*
X92068806Y-62934597D01*
X92039385Y-62876853D01*
X91920256Y-62729742D01*
X91861463Y-62682132D01*
X91821752Y-62624645D01*
X91815500Y-62585767D01*
X91815500Y-56766280D01*
X91835185Y-56699241D01*
X91851819Y-56678599D01*
X93798600Y-54731819D01*
X93859923Y-54698334D01*
X93886281Y-54695500D01*
X95097990Y-54695500D01*
X95232579Y-54668727D01*
X95298044Y-54655706D01*
X95486493Y-54577648D01*
X95486493Y-54577647D01*
X95491863Y-54574778D01*
X95492984Y-54576876D01*
X95541138Y-54560150D01*
X95573569Y-54557598D01*
X95573571Y-54557597D01*
X95573573Y-54557597D01*
X95615191Y-54545505D01*
X95731398Y-54511744D01*
X95872865Y-54428081D01*
X95989081Y-54311865D01*
X96072744Y-54170398D01*
X96118598Y-54012569D01*
X96121500Y-53975694D01*
X96121500Y-53344306D01*
X96118598Y-53307431D01*
X96072744Y-53149602D01*
X95989081Y-53008135D01*
X95989079Y-53008133D01*
X95989076Y-53008129D01*
X95872870Y-52891923D01*
X95872862Y-52891917D01*
X95731396Y-52808255D01*
X95731395Y-52808254D01*
X95685904Y-52795038D01*
X95627019Y-52757431D01*
X95597813Y-52693959D01*
X95596500Y-52675962D01*
X95596500Y-52549097D01*
X95616185Y-52482058D01*
X95668989Y-52436303D01*
X95738147Y-52426359D01*
X95801703Y-52455384D01*
X95808181Y-52461416D01*
X106193681Y-62846916D01*
X106227166Y-62908239D01*
X106230000Y-62934597D01*
X106230000Y-68773420D01*
X106210315Y-68840459D01*
X106172277Y-68877112D01*
X106172298Y-68877139D01*
X106172054Y-68877327D01*
X106169128Y-68880148D01*
X106166140Y-68881915D01*
X106166129Y-68881923D01*
X106049923Y-68998129D01*
X106049917Y-68998137D01*
X105966255Y-69139603D01*
X105966254Y-69139606D01*
X105920402Y-69297426D01*
X105920401Y-69297432D01*
X105917500Y-69334298D01*
X105917500Y-70365701D01*
X105920401Y-70402567D01*
X105920402Y-70402573D01*
X105966254Y-70560393D01*
X105966255Y-70560396D01*
X106049917Y-70701862D01*
X106049923Y-70701870D01*
X106166129Y-70818076D01*
X106166133Y-70818079D01*
X106166135Y-70818081D01*
X106307602Y-70901744D01*
X106319446Y-70905185D01*
X106465426Y-70947597D01*
X106465429Y-70947597D01*
X106465431Y-70947598D01*
X106502306Y-70950500D01*
X106502314Y-70950500D01*
X107158686Y-70950500D01*
X107158694Y-70950500D01*
X107195569Y-70947598D01*
X107195571Y-70947597D01*
X107195573Y-70947597D01*
X107237191Y-70935505D01*
X107353398Y-70901744D01*
X107494865Y-70818081D01*
X107611081Y-70701865D01*
X107694744Y-70560398D01*
X107700697Y-70539906D01*
X107738303Y-70481020D01*
X107801775Y-70451813D01*
X107819774Y-70450500D01*
X112758975Y-70450500D01*
X112826014Y-70470185D01*
X112865707Y-70511379D01*
X112939919Y-70636865D01*
X112939921Y-70636867D01*
X112939923Y-70636870D01*
X113056129Y-70753076D01*
X113056133Y-70753079D01*
X113056135Y-70753081D01*
X113197602Y-70836744D01*
X113239224Y-70848836D01*
X113355426Y-70882597D01*
X113355429Y-70882597D01*
X113355431Y-70882598D01*
X113392306Y-70885500D01*
X113392314Y-70885500D01*
X116215500Y-70885500D01*
X116282539Y-70905185D01*
X116328294Y-70957989D01*
X116339500Y-71009500D01*
X116339500Y-77974519D01*
X116339305Y-77981472D01*
X116322275Y-78284716D01*
X116320718Y-78298534D01*
X116270427Y-78594524D01*
X116267333Y-78608081D01*
X116184215Y-78896588D01*
X116179622Y-78909713D01*
X116064729Y-79187090D01*
X116058696Y-79199618D01*
X115913466Y-79462392D01*
X115906068Y-79474166D01*
X115732331Y-79719026D01*
X115723661Y-79729898D01*
X115523600Y-79953767D01*
X115513767Y-79963600D01*
X115289898Y-80163661D01*
X115279026Y-80172331D01*
X115034166Y-80346068D01*
X115022392Y-80353466D01*
X114759618Y-80498696D01*
X114747090Y-80504729D01*
X114469713Y-80619622D01*
X114456588Y-80624215D01*
X114168081Y-80707333D01*
X114154524Y-80710427D01*
X113858534Y-80760718D01*
X113844716Y-80762275D01*
X113541472Y-80779305D01*
X113534519Y-80779500D01*
X76965481Y-80779500D01*
X76958528Y-80779305D01*
X76655283Y-80762275D01*
X76641465Y-80760718D01*
X76345475Y-80710427D01*
X76331918Y-80707333D01*
X76043411Y-80624215D01*
X76030286Y-80619622D01*
X75752909Y-80504729D01*
X75740381Y-80498696D01*
X75477607Y-80353466D01*
X75465833Y-80346068D01*
X75220973Y-80172331D01*
X75210101Y-80163661D01*
X74986232Y-79963600D01*
X74976399Y-79953767D01*
X74776338Y-79729898D01*
X74767668Y-79719026D01*
X74593931Y-79474166D01*
X74586533Y-79462392D01*
X74555856Y-79406887D01*
X74441299Y-79199611D01*
X74435273Y-79187097D01*
X74320377Y-78909713D01*
X74315784Y-78896588D01*
X74232666Y-78608081D01*
X74229572Y-78594524D01*
X74219733Y-78536616D01*
X74179279Y-78298523D01*
X74177725Y-78284724D01*
X74160695Y-77981471D01*
X74160500Y-77974519D01*
X74160500Y-51959500D01*
X74180185Y-51892461D01*
X74232989Y-51846706D01*
X74284500Y-51835500D01*
X77107686Y-51835500D01*
X77107694Y-51835500D01*
X77144569Y-51832598D01*
X77144571Y-51832597D01*
X77144573Y-51832597D01*
X77186191Y-51820505D01*
X77302398Y-51786744D01*
X77443865Y-51703081D01*
X77560081Y-51586865D01*
X77634293Y-51461379D01*
X77685362Y-51413696D01*
X77741025Y-51400500D01*
X84101482Y-51400500D01*
X84168521Y-51420185D01*
G37*
%TD.AperFunction*%
%TA.AperFunction,Conductor*%
G36*
X104443085Y-51406843D02*
G01*
X104465535Y-51408589D01*
X104484140Y-51418898D01*
X104488521Y-51420185D01*
X104496407Y-51425696D01*
X104522605Y-51445562D01*
X104522607Y-51445563D01*
X104591715Y-51472816D01*
X104660826Y-51500070D01*
X104747680Y-51510500D01*
X104747686Y-51510500D01*
X105112314Y-51510500D01*
X105112320Y-51510500D01*
X105199174Y-51500070D01*
X105337395Y-51445562D01*
X105337398Y-51445559D01*
X105344787Y-51441406D01*
X105345818Y-51443239D01*
X105400376Y-51422499D01*
X105468741Y-51436921D01*
X105479265Y-51443684D01*
X105482607Y-51445563D01*
X105551715Y-51472816D01*
X105620826Y-51500070D01*
X105707680Y-51510500D01*
X105707686Y-51510500D01*
X106072314Y-51510500D01*
X106072320Y-51510500D01*
X106159174Y-51500070D01*
X106297395Y-51445562D01*
X106323593Y-51425696D01*
X106388905Y-51400873D01*
X106398518Y-51400500D01*
X112758975Y-51400500D01*
X112826014Y-51420185D01*
X112865707Y-51461379D01*
X112939919Y-51586865D01*
X112939921Y-51586867D01*
X112939923Y-51586870D01*
X113056129Y-51703076D01*
X113056133Y-51703079D01*
X113056135Y-51703081D01*
X113197602Y-51786744D01*
X113239224Y-51798836D01*
X113355426Y-51832597D01*
X113355429Y-51832597D01*
X113355431Y-51832598D01*
X113392306Y-51835500D01*
X113392314Y-51835500D01*
X116215500Y-51835500D01*
X116282539Y-51855185D01*
X116328294Y-51907989D01*
X116339500Y-51959500D01*
X116339500Y-68690500D01*
X116319815Y-68757539D01*
X116267011Y-68803294D01*
X116215500Y-68814500D01*
X113392298Y-68814500D01*
X113355432Y-68817401D01*
X113355426Y-68817402D01*
X113197606Y-68863254D01*
X113197603Y-68863255D01*
X113056137Y-68946917D01*
X113056129Y-68946923D01*
X112939923Y-69063129D01*
X112939917Y-69063138D01*
X112865707Y-69188621D01*
X112814638Y-69236304D01*
X112758975Y-69249500D01*
X107819774Y-69249500D01*
X107752735Y-69229815D01*
X107706980Y-69177011D01*
X107700697Y-69160093D01*
X107694744Y-69139603D01*
X107694744Y-69139602D01*
X107611081Y-68998135D01*
X107611079Y-68998133D01*
X107611076Y-68998129D01*
X107494870Y-68881923D01*
X107494866Y-68881920D01*
X107494865Y-68881919D01*
X107494862Y-68881917D01*
X107494859Y-68881915D01*
X107491872Y-68880148D01*
X107490010Y-68878153D01*
X107488702Y-68877139D01*
X107488865Y-68876927D01*
X107444192Y-68829076D01*
X107431000Y-68773420D01*
X107431000Y-62555445D01*
X107431000Y-62555443D01*
X107390077Y-62402716D01*
X107390077Y-62402715D01*
X107390077Y-62402714D01*
X107361139Y-62352595D01*
X107361137Y-62352592D01*
X107311020Y-62265784D01*
X107199216Y-62153980D01*
X107199215Y-62153979D01*
X107194885Y-62149649D01*
X107194874Y-62149639D01*
X96657416Y-51612181D01*
X96623931Y-51550858D01*
X96628915Y-51481166D01*
X96670787Y-51425233D01*
X96736251Y-51400816D01*
X96745097Y-51400500D01*
X104421482Y-51400500D01*
X104443085Y-51406843D01*
G37*
%TD.AperFunction*%
%TA.AperFunction,Conductor*%
G36*
X113541471Y-38600695D02*
G01*
X113578993Y-38602802D01*
X113844724Y-38617725D01*
X113858523Y-38619279D01*
X114154524Y-38669572D01*
X114168081Y-38672666D01*
X114456588Y-38755784D01*
X114469714Y-38760377D01*
X114747097Y-38875273D01*
X114759611Y-38881299D01*
X114966887Y-38995856D01*
X115022392Y-39026533D01*
X115034166Y-39033931D01*
X115279026Y-39207668D01*
X115289898Y-39216338D01*
X115513767Y-39416399D01*
X115523600Y-39426232D01*
X115723661Y-39650101D01*
X115732331Y-39660973D01*
X115906068Y-39905833D01*
X115913466Y-39917607D01*
X116058696Y-40180381D01*
X116064729Y-40192909D01*
X116179622Y-40470286D01*
X116184215Y-40483411D01*
X116267333Y-40771918D01*
X116270427Y-40785475D01*
X116320718Y-41081465D01*
X116322275Y-41095283D01*
X116339305Y-41398527D01*
X116339500Y-41405480D01*
X116339500Y-49640500D01*
X116319815Y-49707539D01*
X116267011Y-49753294D01*
X116215500Y-49764500D01*
X113392298Y-49764500D01*
X113355432Y-49767401D01*
X113355426Y-49767402D01*
X113197606Y-49813254D01*
X113197603Y-49813255D01*
X113056137Y-49896917D01*
X113056129Y-49896923D01*
X112939923Y-50013129D01*
X112939917Y-50013138D01*
X112865707Y-50138621D01*
X112814638Y-50186304D01*
X112758975Y-50199500D01*
X106398518Y-50199500D01*
X106331479Y-50179815D01*
X106323593Y-50174304D01*
X106297394Y-50154437D01*
X106297392Y-50154436D01*
X106159175Y-50099930D01*
X106146766Y-50098440D01*
X106072320Y-50089500D01*
X105707680Y-50089500D01*
X105642539Y-50097322D01*
X105620824Y-50099930D01*
X105482608Y-50154436D01*
X105475214Y-50158594D01*
X105474183Y-50156761D01*
X105419610Y-50177502D01*
X105351247Y-50163072D01*
X105340731Y-50156314D01*
X105337391Y-50154436D01*
X105199175Y-50099930D01*
X105186766Y-50098440D01*
X105112320Y-50089500D01*
X104747680Y-50089500D01*
X104682539Y-50097322D01*
X104660824Y-50099930D01*
X104522607Y-50154436D01*
X104522605Y-50154437D01*
X104496407Y-50174304D01*
X104431095Y-50199127D01*
X104421482Y-50199500D01*
X96624500Y-50199500D01*
X96557461Y-50179815D01*
X96511706Y-50127011D01*
X96500500Y-50075500D01*
X96500499Y-49302478D01*
X96496570Y-49277673D01*
X96502002Y-49217319D01*
X96503248Y-49213755D01*
X96522567Y-49158549D01*
X96525500Y-49127272D01*
X96525500Y-48440728D01*
X96522567Y-48409451D01*
X96522567Y-48409450D01*
X96522567Y-48409448D01*
X96476470Y-48277714D01*
X96476469Y-48277711D01*
X96393589Y-48165411D01*
X96393588Y-48165410D01*
X96281294Y-48082534D01*
X96281285Y-48082529D01*
X96149550Y-48036432D01*
X96118276Y-48033500D01*
X96118272Y-48033500D01*
X95881728Y-48033500D01*
X95881724Y-48033500D01*
X95850450Y-48036432D01*
X95850448Y-48036432D01*
X95718714Y-48082529D01*
X95718705Y-48082534D01*
X95606411Y-48165410D01*
X95606410Y-48165411D01*
X95523534Y-48277705D01*
X95523529Y-48277714D01*
X95477432Y-48409448D01*
X95477432Y-48409450D01*
X95474500Y-48440723D01*
X95474500Y-48809500D01*
X95471949Y-48818185D01*
X95473238Y-48827147D01*
X95462259Y-48851187D01*
X95454815Y-48876539D01*
X95447974Y-48882466D01*
X95444213Y-48890703D01*
X95421978Y-48904992D01*
X95402011Y-48922294D01*
X95391496Y-48924581D01*
X95385435Y-48928477D01*
X95350500Y-48933500D01*
X95149500Y-48933500D01*
X95082461Y-48913815D01*
X95036706Y-48861011D01*
X95025500Y-48809500D01*
X95025500Y-48440723D01*
X95022567Y-48409450D01*
X95022567Y-48409448D01*
X94976470Y-48277714D01*
X94976469Y-48277711D01*
X94893589Y-48165411D01*
X94893588Y-48165410D01*
X94781294Y-48082534D01*
X94781285Y-48082529D01*
X94649550Y-48036432D01*
X94618276Y-48033500D01*
X94618272Y-48033500D01*
X94381728Y-48033500D01*
X94381724Y-48033500D01*
X94350450Y-48036432D01*
X94350448Y-48036432D01*
X94218714Y-48082529D01*
X94218705Y-48082534D01*
X94106411Y-48165410D01*
X94106410Y-48165411D01*
X94023534Y-48277705D01*
X94023529Y-48277714D01*
X93977432Y-48409448D01*
X93977432Y-48409450D01*
X93974500Y-48440723D01*
X93974500Y-49127276D01*
X93977432Y-49158548D01*
X93997997Y-49217317D01*
X94003429Y-49277672D01*
X93999500Y-49302477D01*
X93999500Y-49302478D01*
X93999500Y-49302481D01*
X93999500Y-49744815D01*
X93999501Y-50075500D01*
X93979817Y-50142539D01*
X93927013Y-50188294D01*
X93875501Y-50199500D01*
X86078518Y-50199500D01*
X86011479Y-50179815D01*
X86003593Y-50174304D01*
X85977394Y-50154437D01*
X85977392Y-50154436D01*
X85839175Y-50099930D01*
X85826766Y-50098440D01*
X85752320Y-50089500D01*
X85387680Y-50089500D01*
X85322539Y-50097322D01*
X85300824Y-50099930D01*
X85162608Y-50154436D01*
X85155214Y-50158594D01*
X85154183Y-50156761D01*
X85099610Y-50177502D01*
X85031247Y-50163072D01*
X85020731Y-50156314D01*
X85017391Y-50154436D01*
X84879175Y-50099930D01*
X84866766Y-50098440D01*
X84792320Y-50089500D01*
X84427680Y-50089500D01*
X84362539Y-50097322D01*
X84340824Y-50099930D01*
X84202607Y-50154436D01*
X84202605Y-50154437D01*
X84176407Y-50174304D01*
X84111095Y-50199127D01*
X84101482Y-50199500D01*
X77741025Y-50199500D01*
X77673986Y-50179815D01*
X77634293Y-50138621D01*
X77596963Y-50075500D01*
X77560081Y-50013135D01*
X77560078Y-50013132D01*
X77560076Y-50013129D01*
X77443870Y-49896923D01*
X77443862Y-49896917D01*
X77302396Y-49813255D01*
X77302393Y-49813254D01*
X77144573Y-49767402D01*
X77144567Y-49767401D01*
X77107701Y-49764500D01*
X77107694Y-49764500D01*
X74284500Y-49764500D01*
X74217461Y-49744815D01*
X74171706Y-49692011D01*
X74160500Y-49640500D01*
X74160500Y-41405480D01*
X74160695Y-41398528D01*
X74164200Y-41336108D01*
X74177725Y-41095273D01*
X74179279Y-41081478D01*
X74229572Y-40785470D01*
X74232666Y-40771918D01*
X74315784Y-40483411D01*
X74320377Y-40470286D01*
X74435276Y-40192895D01*
X74441296Y-40180395D01*
X74586536Y-39917601D01*
X74593931Y-39905833D01*
X74767675Y-39660963D01*
X74776330Y-39650109D01*
X74976409Y-39426221D01*
X74986221Y-39416409D01*
X75210109Y-39216330D01*
X75220963Y-39207675D01*
X75465838Y-39033927D01*
X75477601Y-39026536D01*
X75740395Y-38881296D01*
X75752895Y-38875276D01*
X76030290Y-38760375D01*
X76043407Y-38755785D01*
X76331924Y-38672664D01*
X76345470Y-38669572D01*
X76641478Y-38619279D01*
X76655273Y-38617725D01*
X76924179Y-38602623D01*
X76958529Y-38600695D01*
X76965481Y-38600500D01*
X77027892Y-38600500D01*
X113472108Y-38600500D01*
X113534519Y-38600500D01*
X113541471Y-38600695D01*
G37*
%TD.AperFunction*%
%TD*%
M02*
