M48
; DRILL file {KiCad 9.0.2} date 2025-07-07T19:52:31-0400
; FORMAT={-:-/ absolute / metric / decimal}
; #@! TF.CreationDate,2025-07-07T19:52:31-04:00
; #@! TF.GenerationSoftware,Kicad,Pcbnew,9.0.2
; #@! TF.FileFunction,Plated,1,4,PTH
FMAT,2
METRIC
; #@! TA.AperFunction,Plated,PTH,ViaDrill
T1C0.300
; #@! TA.AperFunction,Plated,PTH,ComponentDrill
T2C1.000
; #@! TA.AperFunction,Plated,PTH,ComponentDrill
T3C3.264
%
G90
G05
T1
X76.2Y-57.15
X76.2Y-63.5
X76.2Y-69.85
X78.74Y-49.53
X78.74Y-52.07
X80.01Y-49.53
X80.01Y-52.07
X81.28Y-49.53
X81.28Y-52.07
X82.55Y-44.45
X82.55Y-49.53
X82.55Y-52.07
X82.55Y-57.15
X82.55Y-76.2
X83.82Y-49.53
X83.82Y-52.07
X85.09Y-49.53
X85.09Y-52.07
X86.36Y-49.53
X86.36Y-52.07
X87.63Y-49.53
X87.63Y-52.07
X88.9Y-44.45
X88.9Y-49.53
X88.9Y-52.07
X88.9Y-57.15
X90.17Y-49.53
X90.17Y-52.07
X91.44Y-49.53
X91.44Y-52.07
X92.71Y-49.53
X92.71Y-52.07
X93.98Y-52.07
X95.25Y-44.45
X95.25Y-57.15
X95.25Y-63.5
X95.25Y-69.85
X96.52Y-54.61
X97.79Y-49.53
X97.79Y-52.07
X97.79Y-55.88
X99.06Y-49.53
X99.06Y-52.07
X99.06Y-53.34
X99.06Y-57.15
X100.33Y-49.53
X100.33Y-52.07
X100.33Y-54.61
X100.33Y-58.42
X101.6Y-44.45
X101.6Y-49.53
X101.6Y-52.07
X101.6Y-55.88
X101.6Y-59.69
X101.6Y-63.5
X101.6Y-69.85
X101.6Y-76.2
X102.87Y-49.53
X102.87Y-52.07
X102.87Y-57.15
X102.87Y-60.96
X104.14Y-49.53
X104.14Y-52.07
X104.14Y-58.42
X104.14Y-62.23
X105.41Y-49.53
X105.41Y-52.07
X105.41Y-59.69
X105.41Y-63.5
X105.41Y-64.77
X105.41Y-67.31
X106.68Y-49.53
X106.68Y-52.07
X106.68Y-60.96
X107.95Y-44.45
X107.95Y-49.53
X107.95Y-52.07
X107.95Y-57.15
X107.95Y-62.23
X107.95Y-64.77
X107.95Y-67.31
X107.95Y-76.2
X109.22Y-49.53
X109.22Y-52.07
X109.22Y-68.58
X109.22Y-71.12
X110.49Y-49.53
X110.49Y-52.07
X111.76Y-49.53
X111.76Y-52.07
X111.76Y-68.58
X111.76Y-71.12
X114.3Y-57.15
X114.3Y-63.5
T2
X93.98Y-74.93
X96.52Y-74.93
T3
X76.962Y-41.402
X76.962Y-77.978
X113.538Y-41.402
X113.538Y-77.978
M30
