%TF.GenerationSoftware,KiCad,Pcbnew,9.0.3*%
%TF.CreationDate,2025-07-11T20:05:45-04:00*%
%TF.ProjectId,S-Band PFU Simple,532d4261-6e64-4205-9046-552053696d70,v1.0*%
%TF.SameCoordinates,Original*%
%TF.FileFunction,Copper,L1,Top*%
%TF.FilePolarity,Positive*%
%FSLAX46Y46*%
G04 Gerber Fmt 4.6, Leading zero omitted, Abs format (unit mm)*
G04 Created by KiCad (PCBNEW 9.0.3) date 2025-07-11 20:05:45*
%MOMM*%
%LPD*%
G01*
G04 APERTURE LIST*
G04 Aperture macros list*
%AMRoundRect*
0 Rectangle with rounded corners*
0 $1 Rounding radius*
0 $2 $3 $4 $5 $6 $7 $8 $9 X,Y pos of 4 corners*
0 Add a 4 corners polygon primitive as box body*
4,1,4,$2,$3,$4,$5,$6,$7,$8,$9,$2,$3,0*
0 Add four circle primitives for the rounded corners*
1,1,$1+$1,$2,$3*
1,1,$1+$1,$4,$5*
1,1,$1+$1,$6,$7*
1,1,$1+$1,$8,$9*
0 Add four rect primitives between the rounded corners*
20,1,$1+$1,$2,$3,$4,$5,0*
20,1,$1+$1,$4,$5,$6,$7,0*
20,1,$1+$1,$6,$7,$8,$9,0*
20,1,$1+$1,$8,$9,$2,$3,0*%
G04 Aperture macros list end*
%TA.AperFunction,SMDPad,CuDef*%
%ADD10RoundRect,0.250000X0.250000X0.475000X-0.250000X0.475000X-0.250000X-0.475000X0.250000X-0.475000X0*%
%TD*%
%TA.AperFunction,SMDPad,CuDef*%
%ADD11RoundRect,0.250000X-1.350000X0.385000X-1.350000X-0.385000X1.350000X-0.385000X1.350000X0.385000X0*%
%TD*%
%TA.AperFunction,SMDPad,CuDef*%
%ADD12RoundRect,0.250000X-1.600000X0.425000X-1.600000X-0.425000X1.600000X-0.425000X1.600000X0.425000X0*%
%TD*%
%TA.AperFunction,SMDPad,CuDef*%
%ADD13RoundRect,0.250000X-0.385000X-1.350000X0.385000X-1.350000X0.385000X1.350000X-0.385000X1.350000X0*%
%TD*%
%TA.AperFunction,SMDPad,CuDef*%
%ADD14RoundRect,0.250000X-0.425000X-1.600000X0.425000X-1.600000X0.425000X1.600000X-0.425000X1.600000X0*%
%TD*%
%TA.AperFunction,ComponentPad*%
%ADD15C,5.562600*%
%TD*%
%TA.AperFunction,ComponentPad*%
%ADD16R,1.700000X1.700000*%
%TD*%
%TA.AperFunction,ComponentPad*%
%ADD17C,1.700000*%
%TD*%
%TA.AperFunction,SMDPad,CuDef*%
%ADD18RoundRect,0.140000X-0.140000X-0.170000X0.140000X-0.170000X0.140000X0.170000X-0.140000X0.170000X0*%
%TD*%
%TA.AperFunction,SMDPad,CuDef*%
%ADD19RoundRect,0.375000X-0.625000X-0.375000X0.625000X-0.375000X0.625000X0.375000X-0.625000X0.375000X0*%
%TD*%
%TA.AperFunction,SMDPad,CuDef*%
%ADD20RoundRect,0.500000X-0.500000X-1.400000X0.500000X-1.400000X0.500000X1.400000X-0.500000X1.400000X0*%
%TD*%
%TA.AperFunction,SMDPad,CuDef*%
%ADD21RoundRect,0.250000X-0.262500X-0.450000X0.262500X-0.450000X0.262500X0.450000X-0.262500X0.450000X0*%
%TD*%
%TA.AperFunction,SMDPad,CuDef*%
%ADD22RoundRect,0.250000X-0.250000X-0.475000X0.250000X-0.475000X0.250000X0.475000X-0.250000X0.475000X0*%
%TD*%
%TA.AperFunction,SMDPad,CuDef*%
%ADD23RoundRect,0.250000X1.350000X-0.385000X1.350000X0.385000X-1.350000X0.385000X-1.350000X-0.385000X0*%
%TD*%
%TA.AperFunction,SMDPad,CuDef*%
%ADD24RoundRect,0.250000X1.600000X-0.425000X1.600000X0.425000X-1.600000X0.425000X-1.600000X-0.425000X0*%
%TD*%
%TA.AperFunction,SMDPad,CuDef*%
%ADD25RoundRect,0.062500X-0.062500X0.287500X-0.062500X-0.287500X0.062500X-0.287500X0.062500X0.287500X0*%
%TD*%
%TA.AperFunction,HeatsinkPad*%
%ADD26R,1.700000X0.900000*%
%TD*%
%TA.AperFunction,ViaPad*%
%ADD27C,0.600000*%
%TD*%
%TA.AperFunction,Conductor*%
%ADD28C,1.270000*%
%TD*%
%TA.AperFunction,Conductor*%
%ADD29C,0.254000*%
%TD*%
%TA.AperFunction,Conductor*%
%ADD30C,0.400000*%
%TD*%
G04 APERTURE END LIST*
D10*
%TO.P,C2,1*%
%TO.N,+3V3*%
X94168000Y-56007000D03*
%TO.P,C2,2*%
%TO.N,GND*%
X92268000Y-56007000D03*
%TD*%
D11*
%TO.P,J1,1,In*%
%TO.N,RF_IN*%
X75800000Y-50800000D03*
D12*
%TO.P,J1,2,Ext*%
%TO.N,GND*%
X76050000Y-53625000D03*
X76050000Y-47975000D03*
%TD*%
D13*
%TO.P,J3,1,In*%
%TO.N,GATE*%
X104013000Y-61341000D03*
D14*
%TO.P,J3,2,Ext*%
%TO.N,GND*%
X106838000Y-61091000D03*
X101188000Y-61091000D03*
%TD*%
D15*
%TO.P,H2,1,1*%
%TO.N,GND*%
X113030000Y-41910000D03*
%TD*%
D16*
%TO.P,J4,1,Pin_1*%
%TO.N,+5V*%
X93980000Y-60960000D03*
D17*
%TO.P,J4,2,Pin_2*%
%TO.N,GND*%
X96520000Y-60960000D03*
%TD*%
D18*
%TO.P,C3,1*%
%TO.N,RF_IN*%
X84610000Y-50800000D03*
%TO.P,C3,2*%
%TO.N,Net-(U1-RF1)*%
X85570000Y-50800000D03*
%TD*%
%TO.P,C4,1*%
%TO.N,Net-(U1-RF2)*%
X104930000Y-50800000D03*
%TO.P,C4,2*%
%TO.N,RF_OUT*%
X105890000Y-50800000D03*
%TD*%
D19*
%TO.P,U2,1,GND*%
%TO.N,GND*%
X83210000Y-54215000D03*
%TO.P,U2,2,VO*%
%TO.N,+3V3*%
X83210000Y-56515000D03*
D20*
X89510000Y-56515000D03*
D19*
%TO.P,U2,3,VI*%
%TO.N,+5V*%
X83210000Y-58815000D03*
%TD*%
D21*
%TO.P,R1,1*%
%TO.N,GATE*%
X103989500Y-55626000D03*
%TO.P,R1,2*%
%TO.N,GND*%
X105814500Y-55626000D03*
%TD*%
D22*
%TO.P,C5,1*%
%TO.N,GND*%
X92268000Y-53848000D03*
%TO.P,C5,2*%
%TO.N,+3V3*%
X94168000Y-53848000D03*
%TD*%
D10*
%TO.P,C1,1*%
%TO.N,+5V*%
X91120000Y-61595000D03*
%TO.P,C1,2*%
%TO.N,GND*%
X89220000Y-61595000D03*
%TD*%
D15*
%TO.P,H3,1,1*%
%TO.N,GND*%
X113030000Y-59690000D03*
%TD*%
%TO.P,H4,1,1*%
%TO.N,GND*%
X77470000Y-59690000D03*
%TD*%
%TO.P,H1,1,1*%
%TO.N,GND*%
X77470000Y-41910000D03*
%TD*%
D23*
%TO.P,J2,1,In*%
%TO.N,RF_OUT*%
X114700000Y-50800000D03*
D24*
%TO.P,J2,2,Ext*%
%TO.N,GND*%
X114450000Y-47975000D03*
X114450000Y-53625000D03*
%TD*%
D25*
%TO.P,U1,1,GND*%
%TO.N,GND*%
X96000000Y-48784000D03*
%TO.P,U1,2,GND*%
X95500000Y-48784000D03*
%TO.P,U1,3,GND*%
X95000000Y-48784000D03*
%TO.P,U1,4,GND*%
X94500000Y-48784000D03*
%TO.P,U1,5,RF1*%
%TO.N,Net-(U1-RF1)*%
X94500000Y-50784000D03*
%TO.P,U1,6,VS*%
%TO.N,+3V3*%
X95000000Y-50784000D03*
%TO.P,U1,7,V1*%
%TO.N,GATE*%
X95500000Y-50784000D03*
%TO.P,U1,8,RF2*%
%TO.N,Net-(U1-RF2)*%
X96000000Y-50784000D03*
D26*
%TO.P,U1,9,GND*%
%TO.N,GND*%
X95250000Y-49784000D03*
%TD*%
D27*
%TO.N,GND*%
X81661000Y-61417200D03*
X83972400Y-61595000D03*
X85852000Y-61569600D03*
X87985600Y-61569600D03*
X85090000Y-49530000D03*
X90170000Y-53205000D03*
X88900000Y-44450000D03*
X111760000Y-52070000D03*
X82550000Y-49530000D03*
X106680000Y-49530000D03*
X81280000Y-52070000D03*
X78740000Y-53340000D03*
X85090000Y-52070000D03*
X113030000Y-55880000D03*
X78740000Y-49530000D03*
X105410000Y-46990000D03*
X100330000Y-49530000D03*
X95250000Y-44450000D03*
X80010000Y-46990000D03*
X112990000Y-45720000D03*
X82550000Y-52070000D03*
X101600000Y-58420000D03*
X110490000Y-49530000D03*
X111760000Y-49530000D03*
X77470000Y-55880000D03*
X107950000Y-54610000D03*
X105410000Y-52070000D03*
X81280000Y-53340000D03*
X92710000Y-52070000D03*
X93980000Y-52070000D03*
X78740000Y-47984000D03*
X111760000Y-48260000D03*
X107950000Y-46990000D03*
X85090000Y-53205000D03*
X97790000Y-55880000D03*
X105410000Y-49530000D03*
X100330000Y-55880000D03*
X109220000Y-49530000D03*
X102870000Y-52070000D03*
X104140000Y-52070000D03*
X86360000Y-53205000D03*
X104140000Y-53340000D03*
X99060000Y-55880000D03*
X107950000Y-49530000D03*
X87630000Y-46990000D03*
X91440000Y-55880000D03*
X110490000Y-46990000D03*
X104140000Y-49530000D03*
X90170000Y-46990000D03*
X88900000Y-52070000D03*
X78740000Y-52070000D03*
X102870000Y-49530000D03*
X91440000Y-54610000D03*
X87630000Y-49530000D03*
X100330000Y-46990000D03*
X95783400Y-49657000D03*
X82550000Y-44450000D03*
X97790000Y-49530000D03*
X92710000Y-49530000D03*
X81280000Y-49530000D03*
X91440000Y-52070000D03*
X80010000Y-52070000D03*
X106680000Y-53340000D03*
X101600000Y-55880000D03*
X91440000Y-53205000D03*
X83820000Y-49530000D03*
X102870000Y-46990000D03*
X86360000Y-52070000D03*
X86360000Y-49530000D03*
X106680000Y-57150000D03*
X101600000Y-49530000D03*
X88900000Y-53205000D03*
X87630000Y-53205000D03*
X91440000Y-49530000D03*
X107950000Y-52070000D03*
X109220000Y-52070000D03*
X99060000Y-49530000D03*
X77470000Y-45720000D03*
X101600000Y-52070000D03*
X101600000Y-57150000D03*
X90170000Y-52070000D03*
X90170000Y-49530000D03*
X100330000Y-52070000D03*
X106680000Y-58420000D03*
X92710000Y-46990000D03*
X83820000Y-52070000D03*
X101600000Y-44450000D03*
X85090000Y-46990000D03*
X80010000Y-49530000D03*
X111760000Y-53340000D03*
X107950000Y-44450000D03*
X106680000Y-52070000D03*
X87630000Y-52070000D03*
X88900000Y-49530000D03*
X82550000Y-46990000D03*
X99060000Y-52070000D03*
X97790000Y-52070000D03*
X97790000Y-46990000D03*
X110490000Y-52070000D03*
X94716600Y-49657000D03*
%TD*%
D28*
%TO.N,+3V3*%
X93751400Y-57759600D02*
X94168000Y-57343000D01*
X90754600Y-57759600D02*
X93751400Y-57759600D01*
X89510000Y-56515000D02*
X90754600Y-57759600D01*
X94168000Y-57343000D02*
X94168000Y-56007000D01*
%TO.N,+5V*%
X91120000Y-60386000D02*
X91120000Y-61595000D01*
X90424000Y-59690000D02*
X91120000Y-60386000D01*
X83450000Y-59690000D02*
X90424000Y-59690000D01*
X83210000Y-59450000D02*
X83450000Y-59690000D01*
X83210000Y-58815000D02*
X83210000Y-59450000D01*
X91120000Y-61595000D02*
X93345000Y-61595000D01*
X93345000Y-61595000D02*
X93980000Y-60960000D01*
D29*
%TO.N,+3V3*%
X94953000Y-51234984D02*
X94953000Y-51228000D01*
D30*
X94869000Y-51562000D02*
X94869000Y-52959000D01*
D29*
X94953000Y-51228000D02*
X95000000Y-51181000D01*
X94869000Y-51318984D02*
X94953000Y-51234984D01*
X94869000Y-51562000D02*
X94869000Y-51318984D01*
D28*
X94168000Y-56007000D02*
X94168000Y-53848000D01*
D30*
X94869000Y-52959000D02*
X94168000Y-53660000D01*
X94168000Y-53660000D02*
X94168000Y-53848000D01*
D29*
X95000000Y-51181000D02*
X95000000Y-50784000D01*
%TO.N,Net-(U1-RF1)*%
X94500000Y-50784000D02*
X94123000Y-50784000D01*
X94123000Y-50784000D02*
X94107000Y-50800000D01*
D30*
X85570000Y-50800000D02*
X94107000Y-50800000D01*
D29*
%TO.N,Net-(U1-RF2)*%
X96000000Y-50784000D02*
X96377000Y-50784000D01*
X96377000Y-50784000D02*
X96393000Y-50800000D01*
D30*
X104930000Y-50800000D02*
X96393000Y-50800000D01*
%TO.N,RF_IN*%
X75800000Y-50800000D02*
X84610000Y-50800000D01*
%TO.N,RF_OUT*%
X114700000Y-50800000D02*
X105890000Y-50800000D01*
%TO.N,GATE*%
X104013000Y-56134000D02*
X104013000Y-61341000D01*
D29*
X95500000Y-50784000D02*
X95500000Y-51177000D01*
D30*
X103989500Y-55626000D02*
X102338500Y-53975000D01*
D29*
X95500000Y-51177000D02*
X95504000Y-51181000D01*
X95504000Y-51181000D02*
X95504000Y-51411500D01*
D30*
X102338500Y-53975000D02*
X98044000Y-53975000D01*
X98044000Y-53975000D02*
X95781500Y-51712500D01*
X95781500Y-51712500D02*
X95781500Y-51689000D01*
D29*
X95504000Y-51411500D02*
X95781500Y-51689000D01*
D30*
X103989500Y-56110500D02*
X104013000Y-56134000D01*
X103989500Y-55626000D02*
X103989500Y-56110500D01*
%TD*%
%TA.AperFunction,Conductor*%
%TO.N,+3V3*%
G36*
X89924059Y-54484061D02*
G01*
X90064163Y-54502506D01*
X90095431Y-54510884D01*
X90218418Y-54561827D01*
X90246451Y-54578012D01*
X90287238Y-54609309D01*
X90352063Y-54659050D01*
X90374951Y-54681938D01*
X90455987Y-54787548D01*
X90472172Y-54815581D01*
X90523115Y-54938568D01*
X90531493Y-54969835D01*
X90549939Y-55109939D01*
X90551000Y-55126125D01*
X90551000Y-57903874D01*
X90549939Y-57920060D01*
X90531493Y-58060164D01*
X90523115Y-58091431D01*
X90472172Y-58214418D01*
X90455987Y-58242451D01*
X90374951Y-58348061D01*
X90352061Y-58370951D01*
X90246451Y-58451987D01*
X90218418Y-58468172D01*
X90095431Y-58519115D01*
X90064164Y-58527493D01*
X89939625Y-58543889D01*
X89924058Y-58545939D01*
X89907874Y-58547000D01*
X88781127Y-58547000D01*
X88764941Y-58545939D01*
X88657703Y-58531820D01*
X88626437Y-58523442D01*
X88534085Y-58485189D01*
X88506050Y-58469003D01*
X88426741Y-58408146D01*
X88403853Y-58385258D01*
X88342996Y-58305949D01*
X88326810Y-58277914D01*
X88300509Y-58214418D01*
X88288556Y-58185561D01*
X88280179Y-58154295D01*
X88266061Y-58047057D01*
X88265000Y-58030872D01*
X88265000Y-57531000D01*
X87757000Y-57531000D01*
X82812126Y-57531000D01*
X82795941Y-57529939D01*
X82778102Y-57527590D01*
X82655835Y-57511493D01*
X82624568Y-57503115D01*
X82501581Y-57452172D01*
X82473548Y-57435987D01*
X82408725Y-57386248D01*
X82367936Y-57354949D01*
X82345050Y-57332063D01*
X82264012Y-57226451D01*
X82247827Y-57198418D01*
X82196884Y-57075431D01*
X82188506Y-57044163D01*
X82170061Y-56904059D01*
X82169000Y-56887874D01*
X82169000Y-56142125D01*
X82170061Y-56125940D01*
X82188506Y-55985836D01*
X82196884Y-55954568D01*
X82247827Y-55831581D01*
X82264012Y-55803548D01*
X82345053Y-55697932D01*
X82367932Y-55675053D01*
X82473549Y-55594010D01*
X82501579Y-55577827D01*
X82624569Y-55526883D01*
X82655835Y-55518506D01*
X82795941Y-55500061D01*
X82812126Y-55499000D01*
X84836000Y-55499000D01*
X84836000Y-54999127D01*
X84837061Y-54982942D01*
X84851179Y-54875704D01*
X84859556Y-54844440D01*
X84897812Y-54752081D01*
X84913996Y-54724050D01*
X84974853Y-54644741D01*
X84997741Y-54621853D01*
X85077050Y-54560996D01*
X85105081Y-54544812D01*
X85197440Y-54506556D01*
X85228701Y-54498179D01*
X85304241Y-54488234D01*
X85335942Y-54484061D01*
X85352127Y-54483000D01*
X89907874Y-54483000D01*
X89924059Y-54484061D01*
G37*
%TD.AperFunction*%
%TD*%
%TA.AperFunction,Conductor*%
%TO.N,GND*%
G36*
X84168521Y-51420185D02*
G01*
X84176407Y-51425696D01*
X84202605Y-51445562D01*
X84202607Y-51445563D01*
X84271715Y-51472816D01*
X84340826Y-51500070D01*
X84427680Y-51510500D01*
X84427686Y-51510500D01*
X84792314Y-51510500D01*
X84792320Y-51510500D01*
X84879174Y-51500070D01*
X85017395Y-51445562D01*
X85017398Y-51445559D01*
X85024787Y-51441406D01*
X85025818Y-51443239D01*
X85080376Y-51422499D01*
X85148741Y-51436921D01*
X85159265Y-51443684D01*
X85162607Y-51445563D01*
X85231715Y-51472816D01*
X85300826Y-51500070D01*
X85387680Y-51510500D01*
X85387686Y-51510500D01*
X85752314Y-51510500D01*
X85752320Y-51510500D01*
X85839174Y-51500070D01*
X85977395Y-51445562D01*
X86003593Y-51425696D01*
X86068905Y-51400873D01*
X86078518Y-51400500D01*
X94062777Y-51400500D01*
X94083629Y-51406623D01*
X94105318Y-51408026D01*
X94125703Y-51418977D01*
X94129816Y-51420185D01*
X94136410Y-51424729D01*
X94218133Y-51485042D01*
X94260384Y-51540689D01*
X94268500Y-51584813D01*
X94268500Y-52598500D01*
X94248815Y-52665539D01*
X94196011Y-52711294D01*
X94144500Y-52722500D01*
X93852298Y-52722500D01*
X93815432Y-52725401D01*
X93815426Y-52725402D01*
X93657606Y-52771254D01*
X93657603Y-52771255D01*
X93516137Y-52854917D01*
X93516129Y-52854923D01*
X93399923Y-52971129D01*
X93399917Y-52971137D01*
X93316255Y-53112603D01*
X93316254Y-53112606D01*
X93270402Y-53270426D01*
X93270401Y-53270431D01*
X93267849Y-53302864D01*
X93251170Y-53351040D01*
X93253222Y-53352137D01*
X93250350Y-53357508D01*
X93172295Y-53545951D01*
X93172292Y-53545961D01*
X93132500Y-53746009D01*
X93132500Y-56600100D01*
X93112815Y-56667139D01*
X93060011Y-56712894D01*
X93008500Y-56724100D01*
X91234880Y-56724100D01*
X91205439Y-56715455D01*
X91175453Y-56708932D01*
X91170437Y-56705177D01*
X91167841Y-56704415D01*
X91147199Y-56687781D01*
X91092819Y-56633401D01*
X91059334Y-56572078D01*
X91056500Y-56545720D01*
X91056500Y-55126140D01*
X91055998Y-55110806D01*
X91055417Y-55093060D01*
X91054356Y-55076874D01*
X91054016Y-55073426D01*
X91052681Y-55059865D01*
X91051114Y-55043955D01*
X91032668Y-54903851D01*
X91019768Y-54839001D01*
X91011390Y-54807734D01*
X91011388Y-54807726D01*
X91011387Y-54807725D01*
X90999985Y-54774137D01*
X90990136Y-54745121D01*
X90939193Y-54622134D01*
X90909947Y-54562829D01*
X90907524Y-54558633D01*
X90905608Y-54555313D01*
X90893762Y-54534796D01*
X90857030Y-54479822D01*
X90808310Y-54416328D01*
X90776009Y-54374231D01*
X90775988Y-54374205D01*
X90749246Y-54343713D01*
X90732393Y-54324496D01*
X90732380Y-54324483D01*
X90732366Y-54324468D01*
X90709532Y-54301634D01*
X90709516Y-54301619D01*
X90709505Y-54301608D01*
X90659790Y-54258008D01*
X90554178Y-54176970D01*
X90528718Y-54159958D01*
X90499212Y-54140242D01*
X90471168Y-54124050D01*
X90411868Y-54094807D01*
X90288888Y-54043866D01*
X90288874Y-54043861D01*
X90226278Y-54022613D01*
X90226247Y-54022603D01*
X90194994Y-54014230D01*
X90162114Y-54007690D01*
X90130144Y-54001331D01*
X90130141Y-54001330D01*
X90130138Y-54001330D01*
X89990049Y-53982887D01*
X89990043Y-53982886D01*
X89990040Y-53982886D01*
X89983883Y-53982279D01*
X89957131Y-53979644D01*
X89940942Y-53978583D01*
X89938736Y-53978510D01*
X89907874Y-53977500D01*
X85352127Y-53977500D01*
X85323193Y-53978447D01*
X85319058Y-53978583D01*
X85302863Y-53979644D01*
X85269956Y-53982885D01*
X85162727Y-53997002D01*
X85162717Y-53997004D01*
X85097869Y-54009903D01*
X85097842Y-54009910D01*
X85066616Y-54018277D01*
X85066578Y-54018289D01*
X85004006Y-54039529D01*
X85003986Y-54039537D01*
X84911658Y-54077780D01*
X84911633Y-54077791D01*
X84852317Y-54107043D01*
X84852314Y-54107045D01*
X84824300Y-54123219D01*
X84824292Y-54123224D01*
X84769328Y-54159949D01*
X84769313Y-54159960D01*
X84690015Y-54220809D01*
X84640286Y-54264422D01*
X84617422Y-54287286D01*
X84573809Y-54337015D01*
X84512960Y-54416313D01*
X84512949Y-54416328D01*
X84476224Y-54471292D01*
X84476219Y-54471300D01*
X84460045Y-54499314D01*
X84460043Y-54499317D01*
X84430791Y-54558633D01*
X84430780Y-54558658D01*
X84392537Y-54650984D01*
X84392532Y-54650998D01*
X84371285Y-54713591D01*
X84371275Y-54713622D01*
X84362905Y-54744863D01*
X84362901Y-54744879D01*
X84357082Y-54774137D01*
X84350402Y-54807726D01*
X84350003Y-54809731D01*
X84340004Y-54885685D01*
X84311738Y-54949581D01*
X84253414Y-54988053D01*
X84217065Y-54993500D01*
X82812126Y-54993500D01*
X82779059Y-54994583D01*
X82762858Y-54995645D01*
X82729956Y-54998885D01*
X82589862Y-55017329D01*
X82589860Y-55017329D01*
X82589855Y-55017330D01*
X82564419Y-55022389D01*
X82525019Y-55030226D01*
X82525000Y-55030230D01*
X82493755Y-55038602D01*
X82493724Y-55038611D01*
X82431126Y-55059860D01*
X82431112Y-55059865D01*
X82308142Y-55110801D01*
X82248822Y-55140054D01*
X82220802Y-55156231D01*
X82220801Y-55156232D01*
X82165826Y-55192965D01*
X82117263Y-55230228D01*
X82060203Y-55274013D01*
X82060201Y-55274015D01*
X82010492Y-55317608D01*
X81987602Y-55340499D01*
X81944008Y-55390209D01*
X81862964Y-55495830D01*
X81826236Y-55550796D01*
X81810050Y-55578830D01*
X81780807Y-55638130D01*
X81729866Y-55761110D01*
X81729861Y-55761124D01*
X81708613Y-55823720D01*
X81708603Y-55823751D01*
X81700230Y-55855004D01*
X81687330Y-55919860D01*
X81668887Y-56059949D01*
X81665644Y-56092867D01*
X81665644Y-56092873D01*
X81664583Y-56109058D01*
X81663515Y-56141694D01*
X81663500Y-56142139D01*
X81663500Y-56887859D01*
X81664583Y-56920942D01*
X81665644Y-56937131D01*
X81668887Y-56970049D01*
X81687330Y-57110138D01*
X81700230Y-57174994D01*
X81708603Y-57206247D01*
X81708613Y-57206278D01*
X81729861Y-57268874D01*
X81729866Y-57268888D01*
X81780807Y-57391868D01*
X81810050Y-57451168D01*
X81826242Y-57479212D01*
X81862478Y-57533442D01*
X81862970Y-57534178D01*
X81944008Y-57639790D01*
X81987608Y-57689505D01*
X81987619Y-57689516D01*
X81987634Y-57689532D01*
X82010466Y-57712364D01*
X82010507Y-57712403D01*
X82020387Y-57721068D01*
X82057808Y-57780072D01*
X82057388Y-57849940D01*
X82026305Y-57901971D01*
X81974853Y-57953423D01*
X81881877Y-58101395D01*
X81824159Y-58266341D01*
X81824157Y-58266351D01*
X81809500Y-58396441D01*
X81809500Y-59233558D01*
X81824157Y-59363648D01*
X81824159Y-59363658D01*
X81862391Y-59472917D01*
X81881878Y-59528606D01*
X81974853Y-59676576D01*
X82098424Y-59800147D01*
X82246394Y-59893122D01*
X82246396Y-59893122D01*
X82249597Y-59895134D01*
X82287852Y-59936172D01*
X82288967Y-59935428D01*
X82405674Y-60110092D01*
X82405677Y-60110096D01*
X82789903Y-60494322D01*
X82789907Y-60494325D01*
X82959500Y-60607644D01*
X82959513Y-60607651D01*
X83129219Y-60677945D01*
X83147956Y-60685706D01*
X83147960Y-60685706D01*
X83147961Y-60685707D01*
X83348009Y-60725500D01*
X83348012Y-60725500D01*
X83551987Y-60725500D01*
X89943720Y-60725500D01*
X89973160Y-60734144D01*
X90003147Y-60740668D01*
X90008162Y-60744422D01*
X90010759Y-60745185D01*
X90031401Y-60761819D01*
X90048181Y-60778599D01*
X90081666Y-60839922D01*
X90084500Y-60866280D01*
X90084500Y-61493012D01*
X90084500Y-61696988D01*
X90084500Y-61696990D01*
X90084499Y-61696990D01*
X90124292Y-61897038D01*
X90124295Y-61897048D01*
X90202349Y-62085488D01*
X90205224Y-62090866D01*
X90203161Y-62091968D01*
X90219849Y-62140136D01*
X90222401Y-62172568D01*
X90222402Y-62172573D01*
X90268254Y-62330393D01*
X90268255Y-62330396D01*
X90351917Y-62471862D01*
X90351923Y-62471870D01*
X90468129Y-62588076D01*
X90468133Y-62588079D01*
X90468135Y-62588081D01*
X90609602Y-62671744D01*
X90651224Y-62683836D01*
X90767426Y-62717597D01*
X90767429Y-62717597D01*
X90767431Y-62717598D01*
X90804306Y-62720500D01*
X90804314Y-62720500D01*
X91435686Y-62720500D01*
X91435694Y-62720500D01*
X91472569Y-62717598D01*
X91472571Y-62717597D01*
X91472573Y-62717597D01*
X91514191Y-62705505D01*
X91630398Y-62671744D01*
X91670939Y-62647767D01*
X91734060Y-62630500D01*
X93446990Y-62630500D01*
X93581579Y-62603727D01*
X93647044Y-62590706D01*
X93835493Y-62512648D01*
X94005093Y-62399325D01*
X94074025Y-62330393D01*
X94157601Y-62246818D01*
X94218924Y-62213333D01*
X94245282Y-62210499D01*
X94861517Y-62210499D01*
X94861518Y-62210499D01*
X94955304Y-62195646D01*
X95068342Y-62138050D01*
X95158050Y-62048342D01*
X95215646Y-61935304D01*
X95215646Y-61935302D01*
X95215647Y-61935301D01*
X95230499Y-61841524D01*
X95230500Y-61841519D01*
X95230499Y-60078482D01*
X95215646Y-59984696D01*
X95158050Y-59871658D01*
X95158046Y-59871654D01*
X95158045Y-59871652D01*
X95068347Y-59781954D01*
X95068344Y-59781952D01*
X95068342Y-59781950D01*
X94991517Y-59742805D01*
X94955301Y-59724352D01*
X94861524Y-59709500D01*
X93098482Y-59709500D01*
X93017519Y-59722323D01*
X93004696Y-59724354D01*
X92891658Y-59781950D01*
X92891657Y-59781951D01*
X92891652Y-59781954D01*
X92801954Y-59871652D01*
X92801951Y-59871657D01*
X92801950Y-59871658D01*
X92789799Y-59895505D01*
X92744352Y-59984698D01*
X92729500Y-60078475D01*
X92729500Y-60435500D01*
X92709815Y-60502539D01*
X92657011Y-60548294D01*
X92605500Y-60559500D01*
X92279500Y-60559500D01*
X92212461Y-60539815D01*
X92166706Y-60487011D01*
X92155500Y-60435500D01*
X92155500Y-60284009D01*
X92115707Y-60083961D01*
X92115706Y-60083960D01*
X92115706Y-60083956D01*
X92074592Y-59984697D01*
X92037649Y-59895508D01*
X92037647Y-59895505D01*
X91961772Y-59781949D01*
X91961771Y-59781949D01*
X91924324Y-59725905D01*
X91205200Y-59006781D01*
X91171715Y-58945458D01*
X91176699Y-58875766D01*
X91218571Y-58819833D01*
X91284035Y-58795416D01*
X91292881Y-58795100D01*
X93853390Y-58795100D01*
X93987979Y-58768327D01*
X94053444Y-58755306D01*
X94241893Y-58677248D01*
X94411493Y-58563925D01*
X94555725Y-58419693D01*
X94972325Y-58003093D01*
X95085648Y-57833493D01*
X95163706Y-57645044D01*
X95185761Y-57534169D01*
X95203500Y-57444990D01*
X95203500Y-53746009D01*
X95203499Y-53746007D01*
X95171257Y-53583914D01*
X95177484Y-53514323D01*
X95205190Y-53472044D01*
X95349520Y-53327716D01*
X95428577Y-53190784D01*
X95469501Y-53038057D01*
X95469501Y-52879942D01*
X95469501Y-52872347D01*
X95469500Y-52872329D01*
X95469500Y-52549097D01*
X95489185Y-52482058D01*
X95541989Y-52436303D01*
X95611147Y-52426359D01*
X95674703Y-52455384D01*
X95681181Y-52461416D01*
X97559139Y-54339374D01*
X97559149Y-54339385D01*
X97563479Y-54343715D01*
X97563480Y-54343716D01*
X97675284Y-54455520D01*
X97751145Y-54499317D01*
X97762095Y-54505639D01*
X97762097Y-54505641D01*
X97796494Y-54525500D01*
X97812215Y-54534577D01*
X97964943Y-54575500D01*
X98123057Y-54575500D01*
X102038403Y-54575500D01*
X102105442Y-54595185D01*
X102126084Y-54611819D01*
X103040181Y-55525916D01*
X103073666Y-55587239D01*
X103076500Y-55613597D01*
X103076500Y-56141701D01*
X103079401Y-56178567D01*
X103079402Y-56178573D01*
X103125254Y-56336393D01*
X103125255Y-56336396D01*
X103208917Y-56477862D01*
X103208923Y-56477870D01*
X103325129Y-56594076D01*
X103325132Y-56594078D01*
X103325135Y-56594081D01*
X103351619Y-56609743D01*
X103399303Y-56660811D01*
X103412500Y-56716476D01*
X103412500Y-59291975D01*
X103392815Y-59359014D01*
X103351621Y-59398707D01*
X103226138Y-59472917D01*
X103226129Y-59472923D01*
X103109923Y-59589129D01*
X103109917Y-59589137D01*
X103026255Y-59730603D01*
X103026254Y-59730606D01*
X102980402Y-59888426D01*
X102980401Y-59888432D01*
X102977500Y-59925298D01*
X102977500Y-62756701D01*
X102980401Y-62793567D01*
X102980402Y-62793573D01*
X102994154Y-62840905D01*
X102993955Y-62910774D01*
X102956013Y-62969444D01*
X102892375Y-62998288D01*
X102875078Y-62999500D01*
X77473246Y-62999500D01*
X77466756Y-62999330D01*
X77130549Y-62981709D01*
X77117641Y-62980352D01*
X76788337Y-62928196D01*
X76775642Y-62925498D01*
X76453586Y-62839204D01*
X76441241Y-62835193D01*
X76129972Y-62715708D01*
X76118115Y-62710429D01*
X75821029Y-62559055D01*
X75809802Y-62552573D01*
X75530171Y-62370978D01*
X75519683Y-62363359D01*
X75312573Y-62195645D01*
X75260558Y-62153524D01*
X75250913Y-62144839D01*
X75015160Y-61909086D01*
X75006475Y-61899441D01*
X74917648Y-61789749D01*
X74796638Y-61640313D01*
X74789023Y-61629832D01*
X74607423Y-61350191D01*
X74600947Y-61338976D01*
X74449565Y-61041873D01*
X74444296Y-61030038D01*
X74324803Y-60718749D01*
X74320798Y-60706422D01*
X74234497Y-60384342D01*
X74231806Y-60371677D01*
X74179647Y-60042358D01*
X74178290Y-60029450D01*
X74160670Y-59693243D01*
X74160500Y-59686753D01*
X74160500Y-51943442D01*
X74180185Y-51876403D01*
X74232989Y-51830648D01*
X74302147Y-51820704D01*
X74319095Y-51824366D01*
X74347426Y-51832597D01*
X74347429Y-51832597D01*
X74347431Y-51832598D01*
X74384306Y-51835500D01*
X74384314Y-51835500D01*
X77215686Y-51835500D01*
X77215694Y-51835500D01*
X77252569Y-51832598D01*
X77252571Y-51832597D01*
X77252573Y-51832597D01*
X77294191Y-51820505D01*
X77410398Y-51786744D01*
X77551865Y-51703081D01*
X77668081Y-51586865D01*
X77742293Y-51461379D01*
X77793362Y-51413696D01*
X77849025Y-51400500D01*
X84101482Y-51400500D01*
X84168521Y-51420185D01*
G37*
%TD.AperFunction*%
%TA.AperFunction,Conductor*%
G36*
X104443085Y-51406843D02*
G01*
X104465535Y-51408589D01*
X104484140Y-51418898D01*
X104488521Y-51420185D01*
X104496407Y-51425696D01*
X104522605Y-51445562D01*
X104522607Y-51445563D01*
X104591715Y-51472816D01*
X104660826Y-51500070D01*
X104747680Y-51510500D01*
X104747686Y-51510500D01*
X105112314Y-51510500D01*
X105112320Y-51510500D01*
X105199174Y-51500070D01*
X105337395Y-51445562D01*
X105337398Y-51445559D01*
X105344787Y-51441406D01*
X105345818Y-51443239D01*
X105400376Y-51422499D01*
X105468741Y-51436921D01*
X105479265Y-51443684D01*
X105482607Y-51445563D01*
X105551715Y-51472816D01*
X105620826Y-51500070D01*
X105707680Y-51510500D01*
X105707686Y-51510500D01*
X106072314Y-51510500D01*
X106072320Y-51510500D01*
X106159174Y-51500070D01*
X106297395Y-51445562D01*
X106323593Y-51425696D01*
X106388905Y-51400873D01*
X106398518Y-51400500D01*
X112650975Y-51400500D01*
X112718014Y-51420185D01*
X112757707Y-51461379D01*
X112831919Y-51586865D01*
X112831921Y-51586867D01*
X112831923Y-51586870D01*
X112948129Y-51703076D01*
X112948133Y-51703079D01*
X112948135Y-51703081D01*
X113089602Y-51786744D01*
X113131224Y-51798836D01*
X113247426Y-51832597D01*
X113247429Y-51832597D01*
X113247431Y-51832598D01*
X113284306Y-51835500D01*
X113284314Y-51835500D01*
X116115686Y-51835500D01*
X116115694Y-51835500D01*
X116152569Y-51832598D01*
X116152571Y-51832597D01*
X116152573Y-51832597D01*
X116180905Y-51824366D01*
X116250774Y-51824565D01*
X116309444Y-51862507D01*
X116338288Y-51926145D01*
X116339500Y-51943442D01*
X116339500Y-59686753D01*
X116339330Y-59693243D01*
X116321709Y-60029450D01*
X116320352Y-60042358D01*
X116268196Y-60371662D01*
X116265498Y-60384357D01*
X116179204Y-60706413D01*
X116175193Y-60718758D01*
X116055708Y-61030027D01*
X116050429Y-61041884D01*
X115899059Y-61338964D01*
X115892569Y-61350204D01*
X115710983Y-61629822D01*
X115703354Y-61640323D01*
X115493524Y-61899441D01*
X115484839Y-61909086D01*
X115249086Y-62144839D01*
X115239441Y-62153524D01*
X114980323Y-62363354D01*
X114969822Y-62370983D01*
X114690204Y-62552569D01*
X114678964Y-62559059D01*
X114381884Y-62710429D01*
X114370027Y-62715708D01*
X114058758Y-62835193D01*
X114046413Y-62839204D01*
X113724357Y-62925498D01*
X113711662Y-62928196D01*
X113382358Y-62980352D01*
X113369450Y-62981709D01*
X113033244Y-62999330D01*
X113026754Y-62999500D01*
X105150922Y-62999500D01*
X105083883Y-62979815D01*
X105038128Y-62927011D01*
X105028184Y-62857853D01*
X105031846Y-62840905D01*
X105045597Y-62793573D01*
X105045598Y-62793567D01*
X105048499Y-62756701D01*
X105048500Y-62756694D01*
X105048500Y-59925306D01*
X105045598Y-59888431D01*
X105040723Y-59871652D01*
X104999745Y-59730606D01*
X104999744Y-59730603D01*
X104999744Y-59730602D01*
X104916081Y-59589135D01*
X104916079Y-59589133D01*
X104916076Y-59589129D01*
X104799870Y-59472923D01*
X104799867Y-59472921D01*
X104799865Y-59472919D01*
X104674379Y-59398707D01*
X104626696Y-59347638D01*
X104613500Y-59291975D01*
X104613500Y-56685808D01*
X104633185Y-56618769D01*
X104649819Y-56598126D01*
X104653862Y-56594082D01*
X104653865Y-56594081D01*
X104770081Y-56477865D01*
X104853744Y-56336398D01*
X104899598Y-56178569D01*
X104902500Y-56141694D01*
X104902500Y-55110306D01*
X104899598Y-55073431D01*
X104895655Y-55059860D01*
X104853745Y-54915606D01*
X104853744Y-54915603D01*
X104853744Y-54915602D01*
X104770081Y-54774135D01*
X104770079Y-54774133D01*
X104770076Y-54774129D01*
X104653870Y-54657923D01*
X104653862Y-54657917D01*
X104512396Y-54574255D01*
X104512393Y-54574254D01*
X104354573Y-54528402D01*
X104354567Y-54528401D01*
X104317701Y-54525500D01*
X104317694Y-54525500D01*
X103789598Y-54525500D01*
X103722559Y-54505815D01*
X103701917Y-54489181D01*
X102826090Y-53613355D01*
X102826088Y-53613352D01*
X102707217Y-53494481D01*
X102707209Y-53494475D01*
X102612023Y-53439520D01*
X102612021Y-53439519D01*
X102570290Y-53415425D01*
X102570289Y-53415424D01*
X102557763Y-53412067D01*
X102417557Y-53374499D01*
X102259443Y-53374499D01*
X102251847Y-53374499D01*
X102251831Y-53374500D01*
X98344097Y-53374500D01*
X98277058Y-53354815D01*
X98256416Y-53338181D01*
X96530416Y-51612181D01*
X96496931Y-51550858D01*
X96501915Y-51481166D01*
X96543787Y-51425233D01*
X96609251Y-51400816D01*
X96618097Y-51400500D01*
X104421482Y-51400500D01*
X104443085Y-51406843D01*
G37*
%TD.AperFunction*%
%TA.AperFunction,Conductor*%
G36*
X113033243Y-38600669D02*
G01*
X113369450Y-38618290D01*
X113382358Y-38619647D01*
X113711677Y-38671806D01*
X113724342Y-38674497D01*
X114046422Y-38760798D01*
X114058749Y-38764803D01*
X114370038Y-38884296D01*
X114381873Y-38889565D01*
X114678976Y-39040947D01*
X114690191Y-39047423D01*
X114969832Y-39229023D01*
X114980313Y-39236638D01*
X115239441Y-39446475D01*
X115249086Y-39455160D01*
X115484839Y-39690913D01*
X115493524Y-39700558D01*
X115703359Y-39959683D01*
X115710978Y-39970171D01*
X115892573Y-40249802D01*
X115899059Y-40261035D01*
X116050429Y-40558115D01*
X116055708Y-40569972D01*
X116175193Y-40881241D01*
X116179204Y-40893586D01*
X116265498Y-41215642D01*
X116268196Y-41228337D01*
X116320352Y-41557641D01*
X116321709Y-41570549D01*
X116339330Y-41906756D01*
X116339500Y-41913246D01*
X116339500Y-49656558D01*
X116319815Y-49723597D01*
X116267011Y-49769352D01*
X116197853Y-49779296D01*
X116180905Y-49775634D01*
X116152573Y-49767402D01*
X116152567Y-49767401D01*
X116115701Y-49764500D01*
X116115694Y-49764500D01*
X113284306Y-49764500D01*
X113284298Y-49764500D01*
X113247432Y-49767401D01*
X113247426Y-49767402D01*
X113089606Y-49813254D01*
X113089603Y-49813255D01*
X112948137Y-49896917D01*
X112948129Y-49896923D01*
X112831923Y-50013129D01*
X112831917Y-50013138D01*
X112757707Y-50138621D01*
X112706638Y-50186304D01*
X112650975Y-50199500D01*
X106398518Y-50199500D01*
X106331479Y-50179815D01*
X106323593Y-50174304D01*
X106297394Y-50154437D01*
X106297392Y-50154436D01*
X106159175Y-50099930D01*
X106146766Y-50098440D01*
X106072320Y-50089500D01*
X105707680Y-50089500D01*
X105642539Y-50097322D01*
X105620824Y-50099930D01*
X105482608Y-50154436D01*
X105475214Y-50158594D01*
X105474183Y-50156761D01*
X105419610Y-50177502D01*
X105351247Y-50163072D01*
X105340731Y-50156314D01*
X105337391Y-50154436D01*
X105199175Y-50099930D01*
X105186766Y-50098440D01*
X105112320Y-50089500D01*
X104747680Y-50089500D01*
X104682539Y-50097322D01*
X104660824Y-50099930D01*
X104522607Y-50154436D01*
X104522605Y-50154437D01*
X104496407Y-50174304D01*
X104431095Y-50199127D01*
X104421482Y-50199500D01*
X96479040Y-50199500D01*
X96412001Y-50179815D01*
X96399971Y-50170121D01*
X96281294Y-50082534D01*
X96281285Y-50082529D01*
X96149550Y-50036432D01*
X96118276Y-50033500D01*
X96118272Y-50033500D01*
X95881728Y-50033500D01*
X95881724Y-50033500D01*
X95850455Y-50036432D01*
X95850448Y-50036433D01*
X95790953Y-50057251D01*
X95721174Y-50060812D01*
X95709047Y-50057251D01*
X95649551Y-50036433D01*
X95649544Y-50036432D01*
X95618276Y-50033500D01*
X95618272Y-50033500D01*
X95381728Y-50033500D01*
X95381724Y-50033500D01*
X95350455Y-50036432D01*
X95350448Y-50036433D01*
X95290953Y-50057251D01*
X95221174Y-50060812D01*
X95209047Y-50057251D01*
X95149551Y-50036433D01*
X95149544Y-50036432D01*
X95118276Y-50033500D01*
X95118272Y-50033500D01*
X94881728Y-50033500D01*
X94881724Y-50033500D01*
X94850455Y-50036432D01*
X94850448Y-50036433D01*
X94790953Y-50057251D01*
X94721174Y-50060812D01*
X94709047Y-50057251D01*
X94649551Y-50036433D01*
X94649544Y-50036432D01*
X94618276Y-50033500D01*
X94618272Y-50033500D01*
X94381728Y-50033500D01*
X94381724Y-50033500D01*
X94350450Y-50036432D01*
X94350448Y-50036432D01*
X94218714Y-50082529D01*
X94218705Y-50082534D01*
X94098934Y-50170929D01*
X94097646Y-50169184D01*
X94047318Y-50196666D01*
X94020960Y-50199500D01*
X86078518Y-50199500D01*
X86011479Y-50179815D01*
X86003593Y-50174304D01*
X85977394Y-50154437D01*
X85977392Y-50154436D01*
X85839175Y-50099930D01*
X85826766Y-50098440D01*
X85752320Y-50089500D01*
X85387680Y-50089500D01*
X85322539Y-50097322D01*
X85300824Y-50099930D01*
X85162608Y-50154436D01*
X85155214Y-50158594D01*
X85154183Y-50156761D01*
X85099610Y-50177502D01*
X85031247Y-50163072D01*
X85020731Y-50156314D01*
X85017391Y-50154436D01*
X84879175Y-50099930D01*
X84866766Y-50098440D01*
X84792320Y-50089500D01*
X84427680Y-50089500D01*
X84362539Y-50097322D01*
X84340824Y-50099930D01*
X84202607Y-50154436D01*
X84202605Y-50154437D01*
X84176407Y-50174304D01*
X84111095Y-50199127D01*
X84101482Y-50199500D01*
X77849025Y-50199500D01*
X77781986Y-50179815D01*
X77742293Y-50138621D01*
X77709123Y-50082534D01*
X77668081Y-50013135D01*
X77668078Y-50013132D01*
X77668076Y-50013129D01*
X77551870Y-49896923D01*
X77551862Y-49896917D01*
X77473681Y-49850681D01*
X77410398Y-49813256D01*
X77410397Y-49813255D01*
X77410396Y-49813255D01*
X77410393Y-49813254D01*
X77252573Y-49767402D01*
X77252567Y-49767401D01*
X77215701Y-49764500D01*
X77215694Y-49764500D01*
X74384306Y-49764500D01*
X74384298Y-49764500D01*
X74347432Y-49767401D01*
X74347426Y-49767402D01*
X74319095Y-49775634D01*
X74249226Y-49775435D01*
X74190556Y-49737493D01*
X74161712Y-49673855D01*
X74160500Y-49656558D01*
X74160500Y-41913246D01*
X74160670Y-41906756D01*
X74178290Y-41570549D01*
X74179647Y-41557641D01*
X74218261Y-41313841D01*
X74231806Y-41228318D01*
X74234496Y-41215661D01*
X74320799Y-40893571D01*
X74324801Y-40881256D01*
X74444298Y-40569954D01*
X74449561Y-40558133D01*
X74600951Y-40261014D01*
X74607417Y-40249816D01*
X74789029Y-39970158D01*
X74796631Y-39959695D01*
X75006483Y-39700548D01*
X75015150Y-39690923D01*
X75250923Y-39455150D01*
X75260548Y-39446483D01*
X75519695Y-39236631D01*
X75530158Y-39229029D01*
X75809816Y-39047417D01*
X75821014Y-39040951D01*
X76118133Y-38889561D01*
X76129954Y-38884298D01*
X76441256Y-38764801D01*
X76453571Y-38760799D01*
X76775661Y-38674496D01*
X76788318Y-38671806D01*
X77117643Y-38619646D01*
X77130547Y-38618290D01*
X77466756Y-38600669D01*
X77473246Y-38600500D01*
X77535892Y-38600500D01*
X112964108Y-38600500D01*
X113026754Y-38600500D01*
X113033243Y-38600669D01*
G37*
%TD.AperFunction*%
%TD*%
M02*
