%TF.GenerationSoftware,KiCad,Pcbnew,9.0.3*%
%TF.CreationDate,2025-07-27T15:43:23-04:00*%
%TF.ProjectId,S-Band Circulator,532d4261-6e64-4204-9369-7263756c6174,v1.0*%
%TF.SameCoordinates,Original*%
%TF.FileFunction,Soldermask,Bot*%
%TF.FilePolarity,Negative*%
%FSLAX46Y46*%
G04 Gerber Fmt 4.6, Leading zero omitted, Abs format (unit mm)*
G04 Created by KiCad (PCBNEW 9.0.3) date 2025-07-27 15:43:23*
%MOMM*%
%LPD*%
G01*
G04 APERTURE LIST*
G04 Aperture macros list*
%AMRoundRect*
0 Rectangle with rounded corners*
0 $1 Rounding radius*
0 $2 $3 $4 $5 $6 $7 $8 $9 X,Y pos of 4 corners*
0 Add a 4 corners polygon primitive as box body*
4,1,4,$2,$3,$4,$5,$6,$7,$8,$9,$2,$3,0*
0 Add four circle primitives for the rounded corners*
1,1,$1+$1,$2,$3*
1,1,$1+$1,$4,$5*
1,1,$1+$1,$6,$7*
1,1,$1+$1,$8,$9*
0 Add four rect primitives between the rounded corners*
20,1,$1+$1,$2,$3,$4,$5,0*
20,1,$1+$1,$4,$5,$6,$7,0*
20,1,$1+$1,$6,$7,$8,$9,0*
20,1,$1+$1,$8,$9,$2,$3,0*%
G04 Aperture macros list end*
%ADD10C,5.562600*%
%ADD11RoundRect,0.250000X-0.425000X-1.600000X0.425000X-1.600000X0.425000X1.600000X-0.425000X1.600000X0*%
%ADD12C,0.550000*%
%ADD13RoundRect,0.250000X-1.600000X0.425000X-1.600000X-0.425000X1.600000X-0.425000X1.600000X0.425000X0*%
%ADD14RoundRect,0.250000X1.600000X-0.425000X1.600000X0.425000X-1.600000X0.425000X-1.600000X-0.425000X0*%
G04 APERTURE END LIST*
D10*
%TO.C,H4*%
X80010000Y-46990000D03*
%TD*%
%TO.C,H1*%
X80010000Y-29210000D03*
%TD*%
D11*
%TO.C,J3*%
X98075000Y-48427500D03*
X92425000Y-48427500D03*
%TD*%
D12*
%TO.C,U1*%
X90750000Y-36830000D03*
X90750000Y-37830000D03*
X91050000Y-37330000D03*
X91050000Y-38330000D03*
X91350000Y-36830000D03*
X91350000Y-37830000D03*
X91350000Y-38830000D03*
X91650000Y-37330000D03*
X91650000Y-38330000D03*
X91650000Y-39330000D03*
X91950000Y-36830000D03*
X91950000Y-37830000D03*
X91950000Y-38830000D03*
X91950000Y-39830000D03*
X92250000Y-36330000D03*
X92250000Y-37330000D03*
X92250000Y-38330000D03*
X92250000Y-39330000D03*
X92250000Y-40330000D03*
X92550000Y-36830000D03*
X92550000Y-37830000D03*
X92550000Y-38830000D03*
X92550000Y-39830000D03*
X92850000Y-36330000D03*
X92850000Y-37330000D03*
X92850000Y-38330000D03*
X92850000Y-39330000D03*
X92850000Y-40330000D03*
X93150000Y-32830000D03*
X93150000Y-34830000D03*
X93150000Y-35830000D03*
X93150000Y-36830000D03*
X93150000Y-37830000D03*
X93150000Y-38830000D03*
X93150000Y-39830000D03*
X93150000Y-40830000D03*
X93450000Y-33330000D03*
X93450000Y-34330000D03*
X93450000Y-35330000D03*
X93450000Y-36330000D03*
X93450000Y-37330000D03*
X93450000Y-38330000D03*
X93450000Y-39330000D03*
X93450000Y-40330000D03*
X93750000Y-32830000D03*
X93750000Y-33830000D03*
X93750000Y-34830000D03*
X93750000Y-35830000D03*
X93750000Y-36830000D03*
X93750000Y-37830000D03*
X93750000Y-38830000D03*
X93750000Y-39830000D03*
X94050000Y-32330000D03*
X94050000Y-33330000D03*
X94050000Y-34330000D03*
X94050000Y-35330000D03*
X94050000Y-36330000D03*
X94050000Y-37330000D03*
X94050000Y-38330000D03*
X94050000Y-39330000D03*
X94350000Y-32830000D03*
X94350000Y-33830000D03*
X94350000Y-34830000D03*
X94350000Y-35830000D03*
X94350000Y-36830000D03*
X94350000Y-37830000D03*
X94350000Y-38830000D03*
X94650000Y-32330000D03*
X94650000Y-33330000D03*
X94650000Y-34330000D03*
X94650000Y-35330000D03*
X94650000Y-36330000D03*
X94650000Y-37330000D03*
X94650000Y-38330000D03*
X94650000Y-39330000D03*
X94950000Y-32830000D03*
X94950000Y-33830000D03*
X94950000Y-34830000D03*
X94950000Y-35830000D03*
X94950000Y-36830000D03*
X94950000Y-37830000D03*
X94950000Y-38830000D03*
X95250000Y-32330000D03*
X95250000Y-33330000D03*
X95250000Y-34330000D03*
X95250000Y-35330000D03*
X95250000Y-36330000D03*
X95250000Y-37330000D03*
X95250000Y-38330000D03*
X95250000Y-39330000D03*
X95550000Y-32830000D03*
X95550000Y-33830000D03*
X95550000Y-34830000D03*
X95550000Y-35830000D03*
X95550000Y-36830000D03*
X95550000Y-37830000D03*
X95550000Y-38830000D03*
X95850000Y-32330000D03*
X95850000Y-33330000D03*
X95850000Y-34330000D03*
X95850000Y-35330000D03*
X95850000Y-36330000D03*
X95850000Y-37330000D03*
X95850000Y-38330000D03*
X95850000Y-39330000D03*
X96150000Y-32830000D03*
X96150000Y-33830000D03*
X96150000Y-34830000D03*
X96150000Y-35830000D03*
X96150000Y-36830000D03*
X96150000Y-37830000D03*
X96150000Y-38830000D03*
X96450000Y-32330000D03*
X96450000Y-33330000D03*
X96450000Y-34330000D03*
X96450000Y-35330000D03*
X96450000Y-36330000D03*
X96450000Y-37330000D03*
X96450000Y-38330000D03*
X96450000Y-39330000D03*
X96750000Y-32830000D03*
X96750000Y-33830000D03*
X96750000Y-34830000D03*
X96750000Y-35830000D03*
X96750000Y-36830000D03*
X96750000Y-37830000D03*
X96750000Y-38830000D03*
X96750000Y-39830000D03*
X97050000Y-33330000D03*
X97050000Y-34330000D03*
X97050000Y-35330000D03*
X97050000Y-36330000D03*
X97050000Y-37330000D03*
X97050000Y-38330000D03*
X97050000Y-39330000D03*
X97050000Y-40330000D03*
X97350000Y-32830000D03*
X97350000Y-33830000D03*
X97350000Y-34830000D03*
X97350000Y-35830000D03*
X97350000Y-36830000D03*
X97350000Y-37830000D03*
X97350000Y-38830000D03*
X97350000Y-39830000D03*
X97350000Y-40830000D03*
X97650000Y-36330000D03*
X97650000Y-37330000D03*
X97650000Y-38330000D03*
X97650000Y-39330000D03*
X97650000Y-40330000D03*
X97950000Y-36830000D03*
X97950000Y-37830000D03*
X97950000Y-38830000D03*
X97950000Y-39830000D03*
X98250000Y-36330000D03*
X98250000Y-37330000D03*
X98250000Y-38330000D03*
X98250000Y-39330000D03*
X98250000Y-40330000D03*
X98550000Y-36830000D03*
X98550000Y-37830000D03*
X98550000Y-38830000D03*
X98550000Y-39830000D03*
X98850000Y-37330000D03*
X98850000Y-38330000D03*
X98850000Y-39330000D03*
X99150000Y-36830000D03*
X99150000Y-37830000D03*
X99150000Y-38830000D03*
X99450000Y-37330000D03*
X99450000Y-38330000D03*
X99750000Y-36830000D03*
X99750000Y-37830000D03*
%TD*%
D13*
%TO.C,J1*%
X78572500Y-40925000D03*
X78572500Y-35275000D03*
%TD*%
D10*
%TO.C,H3*%
X110490000Y-46990000D03*
%TD*%
D14*
%TO.C,J2*%
X111927500Y-35275000D03*
X111927500Y-40925000D03*
%TD*%
D10*
%TO.C,H2*%
X110490000Y-29210000D03*
%TD*%
M02*
