M48
; DRILL file {KiCad 9.0.3} date 2025-07-27T15:43:27-0400
; FORMAT={-:-/ absolute / metric / decimal}
; #@! TF.CreationDate,2025-07-27T15:43:27-04:00
; #@! TF.GenerationSoftware,Kicad,Pcbnew,9.0.3
; #@! TF.FileFunction,Plated,1,4,PTH
FMAT,2
METRIC
; #@! TA.AperFunction,Plated,PTH,ViaDrill
T1C0.300
; #@! TA.AperFunction,Plated,PTH,ComponentDrill
T2C0.300
; #@! TA.AperFunction,Plated,PTH,ComponentDrill
T3C3.264
%
G90
G05
T1
X78.74Y-33.655
X78.74Y-42.545
X81.28Y-34.925
X81.28Y-36.83
X81.28Y-39.37
X81.28Y-41.275
X82.55Y-36.83
X82.55Y-39.37
X83.82Y-36.83
X83.82Y-39.37
X84.455Y-48.26
X85.09Y-36.195
X85.725Y-38.735
X85.725Y-48.26
X86.36Y-34.925
X86.995Y-48.26
X87.63Y-33.655
X87.63Y-37.465
X88.265Y-48.26
X88.9Y-33.02
X88.9Y-36.195
X89.535Y-48.26
X90.805Y-48.26
X92.075Y-45.72
X93.345Y-43.18
X93.98Y-44.45
X93.98Y-45.72
X96.52Y-44.45
X96.52Y-45.72
X97.155Y-43.18
X98.425Y-45.72
X99.695Y-48.26
X100.965Y-48.26
X101.6Y-33.02
X101.6Y-36.195
X102.235Y-48.26
X102.87Y-33.655
X102.87Y-37.465
X103.505Y-48.26
X104.14Y-34.925
X104.775Y-38.735
X104.775Y-48.26
X105.41Y-36.195
X106.045Y-48.26
X106.68Y-36.83
X106.68Y-39.37
X107.95Y-36.83
X107.95Y-39.37
X109.22Y-34.925
X109.22Y-36.83
X109.22Y-39.37
X109.22Y-41.275
X111.76Y-33.655
X111.76Y-42.545
T2
X90.75Y-36.83
X90.75Y-37.83
X91.05Y-37.33
X91.05Y-38.33
X91.35Y-36.83
X91.35Y-37.83
X91.35Y-38.83
X91.65Y-37.33
X91.65Y-38.33
X91.65Y-39.33
X91.95Y-36.83
X91.95Y-37.83
X91.95Y-38.83
X91.95Y-39.83
X92.25Y-36.33
X92.25Y-37.33
X92.25Y-38.33
X92.25Y-39.33
X92.25Y-40.33
X92.55Y-36.83
X92.55Y-37.83
X92.55Y-38.83
X92.55Y-39.83
X92.85Y-36.33
X92.85Y-37.33
X92.85Y-38.33
X92.85Y-39.33
X92.85Y-40.33
X93.15Y-32.83
X93.15Y-34.83
X93.15Y-35.83
X93.15Y-36.83
X93.15Y-37.83
X93.15Y-38.83
X93.15Y-39.83
X93.15Y-40.83
X93.45Y-33.33
X93.45Y-34.33
X93.45Y-35.33
X93.45Y-36.33
X93.45Y-37.33
X93.45Y-38.33
X93.45Y-39.33
X93.45Y-40.33
X93.75Y-32.83
X93.75Y-33.83
X93.75Y-34.83
X93.75Y-35.83
X93.75Y-36.83
X93.75Y-37.83
X93.75Y-38.83
X93.75Y-39.83
X94.05Y-32.33
X94.05Y-33.33
X94.05Y-34.33
X94.05Y-35.33
X94.05Y-36.33
X94.05Y-37.33
X94.05Y-38.33
X94.05Y-39.33
X94.35Y-32.83
X94.35Y-33.83
X94.35Y-34.83
X94.35Y-35.83
X94.35Y-36.83
X94.35Y-37.83
X94.35Y-38.83
X94.65Y-32.33
X94.65Y-33.33
X94.65Y-34.33
X94.65Y-35.33
X94.65Y-36.33
X94.65Y-37.33
X94.65Y-38.33
X94.65Y-39.33
X94.95Y-32.83
X94.95Y-33.83
X94.95Y-34.83
X94.95Y-35.83
X94.95Y-36.83
X94.95Y-37.83
X94.95Y-38.83
X95.25Y-32.33
X95.25Y-33.33
X95.25Y-34.33
X95.25Y-35.33
X95.25Y-36.33
X95.25Y-37.33
X95.25Y-38.33
X95.25Y-39.33
X95.55Y-32.83
X95.55Y-33.83
X95.55Y-34.83
X95.55Y-35.83
X95.55Y-36.83
X95.55Y-37.83
X95.55Y-38.83
X95.85Y-32.33
X95.85Y-33.33
X95.85Y-34.33
X95.85Y-35.33
X95.85Y-36.33
X95.85Y-37.33
X95.85Y-38.33
X95.85Y-39.33
X96.15Y-32.83
X96.15Y-33.83
X96.15Y-34.83
X96.15Y-35.83
X96.15Y-36.83
X96.15Y-37.83
X96.15Y-38.83
X96.45Y-32.33
X96.45Y-33.33
X96.45Y-34.33
X96.45Y-35.33
X96.45Y-36.33
X96.45Y-37.33
X96.45Y-38.33
X96.45Y-39.33
X96.75Y-32.83
X96.75Y-33.83
X96.75Y-34.83
X96.75Y-35.83
X96.75Y-36.83
X96.75Y-37.83
X96.75Y-38.83
X96.75Y-39.83
X97.05Y-33.33
X97.05Y-34.33
X97.05Y-35.33
X97.05Y-36.33
X97.05Y-37.33
X97.05Y-38.33
X97.05Y-39.33
X97.05Y-40.33
X97.35Y-32.83
X97.35Y-33.83
X97.35Y-34.83
X97.35Y-35.83
X97.35Y-36.83
X97.35Y-37.83
X97.35Y-38.83
X97.35Y-39.83
X97.35Y-40.83
X97.65Y-36.33
X97.65Y-37.33
X97.65Y-38.33
X97.65Y-39.33
X97.65Y-40.33
X97.95Y-36.83
X97.95Y-37.83
X97.95Y-38.83
X97.95Y-39.83
X98.25Y-36.33
X98.25Y-37.33
X98.25Y-38.33
X98.25Y-39.33
X98.25Y-40.33
X98.55Y-36.83
X98.55Y-37.83
X98.55Y-38.83
X98.55Y-39.83
X98.85Y-37.33
X98.85Y-38.33
X98.85Y-39.33
X99.15Y-36.83
X99.15Y-37.83
X99.15Y-38.83
X99.45Y-37.33
X99.45Y-38.33
X99.75Y-36.83
X99.75Y-37.83
T3
X80.01Y-29.21
X80.01Y-46.99
X110.49Y-29.21
X110.49Y-46.99
M30
