%TF.GenerationSoftware,KiCad,Pcbnew,9.0.3*%
%TF.CreationDate,2025-07-27T15:43:23-04:00*%
%TF.ProjectId,S-Band Circulator,532d4261-6e64-4204-9369-7263756c6174,v1.0*%
%TF.SameCoordinates,Original*%
%TF.FileFunction,Legend,Top*%
%TF.FilePolarity,Positive*%
%FSLAX46Y46*%
G04 Gerber Fmt 4.6, Leading zero omitted, Abs format (unit mm)*
G04 Created by KiCad (PCBNEW 9.0.3) date 2025-07-27 15:43:23*
%MOMM*%
%LPD*%
G01*
G04 APERTURE LIST*
%ADD10C,0.150000*%
%ADD11C,0.120000*%
G04 APERTURE END LIST*
D10*
X86464285Y-27422256D02*
X86607142Y-27469875D01*
X86607142Y-27469875D02*
X86845237Y-27469875D01*
X86845237Y-27469875D02*
X86940475Y-27422256D01*
X86940475Y-27422256D02*
X86988094Y-27374636D01*
X86988094Y-27374636D02*
X87035713Y-27279398D01*
X87035713Y-27279398D02*
X87035713Y-27184160D01*
X87035713Y-27184160D02*
X86988094Y-27088922D01*
X86988094Y-27088922D02*
X86940475Y-27041303D01*
X86940475Y-27041303D02*
X86845237Y-26993684D01*
X86845237Y-26993684D02*
X86654761Y-26946065D01*
X86654761Y-26946065D02*
X86559523Y-26898446D01*
X86559523Y-26898446D02*
X86511904Y-26850827D01*
X86511904Y-26850827D02*
X86464285Y-26755589D01*
X86464285Y-26755589D02*
X86464285Y-26660351D01*
X86464285Y-26660351D02*
X86511904Y-26565113D01*
X86511904Y-26565113D02*
X86559523Y-26517494D01*
X86559523Y-26517494D02*
X86654761Y-26469875D01*
X86654761Y-26469875D02*
X86892856Y-26469875D01*
X86892856Y-26469875D02*
X87035713Y-26517494D01*
X87464285Y-27088922D02*
X88226190Y-27088922D01*
X89035713Y-26946065D02*
X89178570Y-26993684D01*
X89178570Y-26993684D02*
X89226189Y-27041303D01*
X89226189Y-27041303D02*
X89273808Y-27136541D01*
X89273808Y-27136541D02*
X89273808Y-27279398D01*
X89273808Y-27279398D02*
X89226189Y-27374636D01*
X89226189Y-27374636D02*
X89178570Y-27422256D01*
X89178570Y-27422256D02*
X89083332Y-27469875D01*
X89083332Y-27469875D02*
X88702380Y-27469875D01*
X88702380Y-27469875D02*
X88702380Y-26469875D01*
X88702380Y-26469875D02*
X89035713Y-26469875D01*
X89035713Y-26469875D02*
X89130951Y-26517494D01*
X89130951Y-26517494D02*
X89178570Y-26565113D01*
X89178570Y-26565113D02*
X89226189Y-26660351D01*
X89226189Y-26660351D02*
X89226189Y-26755589D01*
X89226189Y-26755589D02*
X89178570Y-26850827D01*
X89178570Y-26850827D02*
X89130951Y-26898446D01*
X89130951Y-26898446D02*
X89035713Y-26946065D01*
X89035713Y-26946065D02*
X88702380Y-26946065D01*
X90130951Y-27469875D02*
X90130951Y-26946065D01*
X90130951Y-26946065D02*
X90083332Y-26850827D01*
X90083332Y-26850827D02*
X89988094Y-26803208D01*
X89988094Y-26803208D02*
X89797618Y-26803208D01*
X89797618Y-26803208D02*
X89702380Y-26850827D01*
X90130951Y-27422256D02*
X90035713Y-27469875D01*
X90035713Y-27469875D02*
X89797618Y-27469875D01*
X89797618Y-27469875D02*
X89702380Y-27422256D01*
X89702380Y-27422256D02*
X89654761Y-27327017D01*
X89654761Y-27327017D02*
X89654761Y-27231779D01*
X89654761Y-27231779D02*
X89702380Y-27136541D01*
X89702380Y-27136541D02*
X89797618Y-27088922D01*
X89797618Y-27088922D02*
X90035713Y-27088922D01*
X90035713Y-27088922D02*
X90130951Y-27041303D01*
X90607142Y-26803208D02*
X90607142Y-27469875D01*
X90607142Y-26898446D02*
X90654761Y-26850827D01*
X90654761Y-26850827D02*
X90749999Y-26803208D01*
X90749999Y-26803208D02*
X90892856Y-26803208D01*
X90892856Y-26803208D02*
X90988094Y-26850827D01*
X90988094Y-26850827D02*
X91035713Y-26946065D01*
X91035713Y-26946065D02*
X91035713Y-27469875D01*
X91940475Y-27469875D02*
X91940475Y-26469875D01*
X91940475Y-27422256D02*
X91845237Y-27469875D01*
X91845237Y-27469875D02*
X91654761Y-27469875D01*
X91654761Y-27469875D02*
X91559523Y-27422256D01*
X91559523Y-27422256D02*
X91511904Y-27374636D01*
X91511904Y-27374636D02*
X91464285Y-27279398D01*
X91464285Y-27279398D02*
X91464285Y-26993684D01*
X91464285Y-26993684D02*
X91511904Y-26898446D01*
X91511904Y-26898446D02*
X91559523Y-26850827D01*
X91559523Y-26850827D02*
X91654761Y-26803208D01*
X91654761Y-26803208D02*
X91845237Y-26803208D01*
X91845237Y-26803208D02*
X91940475Y-26850827D01*
X93749999Y-27374636D02*
X93702380Y-27422256D01*
X93702380Y-27422256D02*
X93559523Y-27469875D01*
X93559523Y-27469875D02*
X93464285Y-27469875D01*
X93464285Y-27469875D02*
X93321428Y-27422256D01*
X93321428Y-27422256D02*
X93226190Y-27327017D01*
X93226190Y-27327017D02*
X93178571Y-27231779D01*
X93178571Y-27231779D02*
X93130952Y-27041303D01*
X93130952Y-27041303D02*
X93130952Y-26898446D01*
X93130952Y-26898446D02*
X93178571Y-26707970D01*
X93178571Y-26707970D02*
X93226190Y-26612732D01*
X93226190Y-26612732D02*
X93321428Y-26517494D01*
X93321428Y-26517494D02*
X93464285Y-26469875D01*
X93464285Y-26469875D02*
X93559523Y-26469875D01*
X93559523Y-26469875D02*
X93702380Y-26517494D01*
X93702380Y-26517494D02*
X93749999Y-26565113D01*
X94178571Y-27469875D02*
X94178571Y-26803208D01*
X94178571Y-26469875D02*
X94130952Y-26517494D01*
X94130952Y-26517494D02*
X94178571Y-26565113D01*
X94178571Y-26565113D02*
X94226190Y-26517494D01*
X94226190Y-26517494D02*
X94178571Y-26469875D01*
X94178571Y-26469875D02*
X94178571Y-26565113D01*
X94654761Y-27469875D02*
X94654761Y-26803208D01*
X94654761Y-26993684D02*
X94702380Y-26898446D01*
X94702380Y-26898446D02*
X94749999Y-26850827D01*
X94749999Y-26850827D02*
X94845237Y-26803208D01*
X94845237Y-26803208D02*
X94940475Y-26803208D01*
X95702380Y-27422256D02*
X95607142Y-27469875D01*
X95607142Y-27469875D02*
X95416666Y-27469875D01*
X95416666Y-27469875D02*
X95321428Y-27422256D01*
X95321428Y-27422256D02*
X95273809Y-27374636D01*
X95273809Y-27374636D02*
X95226190Y-27279398D01*
X95226190Y-27279398D02*
X95226190Y-26993684D01*
X95226190Y-26993684D02*
X95273809Y-26898446D01*
X95273809Y-26898446D02*
X95321428Y-26850827D01*
X95321428Y-26850827D02*
X95416666Y-26803208D01*
X95416666Y-26803208D02*
X95607142Y-26803208D01*
X95607142Y-26803208D02*
X95702380Y-26850827D01*
X96559523Y-26803208D02*
X96559523Y-27469875D01*
X96130952Y-26803208D02*
X96130952Y-27327017D01*
X96130952Y-27327017D02*
X96178571Y-27422256D01*
X96178571Y-27422256D02*
X96273809Y-27469875D01*
X96273809Y-27469875D02*
X96416666Y-27469875D01*
X96416666Y-27469875D02*
X96511904Y-27422256D01*
X96511904Y-27422256D02*
X96559523Y-27374636D01*
X97178571Y-27469875D02*
X97083333Y-27422256D01*
X97083333Y-27422256D02*
X97035714Y-27327017D01*
X97035714Y-27327017D02*
X97035714Y-26469875D01*
X97988095Y-27469875D02*
X97988095Y-26946065D01*
X97988095Y-26946065D02*
X97940476Y-26850827D01*
X97940476Y-26850827D02*
X97845238Y-26803208D01*
X97845238Y-26803208D02*
X97654762Y-26803208D01*
X97654762Y-26803208D02*
X97559524Y-26850827D01*
X97988095Y-27422256D02*
X97892857Y-27469875D01*
X97892857Y-27469875D02*
X97654762Y-27469875D01*
X97654762Y-27469875D02*
X97559524Y-27422256D01*
X97559524Y-27422256D02*
X97511905Y-27327017D01*
X97511905Y-27327017D02*
X97511905Y-27231779D01*
X97511905Y-27231779D02*
X97559524Y-27136541D01*
X97559524Y-27136541D02*
X97654762Y-27088922D01*
X97654762Y-27088922D02*
X97892857Y-27088922D01*
X97892857Y-27088922D02*
X97988095Y-27041303D01*
X98321429Y-26803208D02*
X98702381Y-26803208D01*
X98464286Y-26469875D02*
X98464286Y-27327017D01*
X98464286Y-27327017D02*
X98511905Y-27422256D01*
X98511905Y-27422256D02*
X98607143Y-27469875D01*
X98607143Y-27469875D02*
X98702381Y-27469875D01*
X99178572Y-27469875D02*
X99083334Y-27422256D01*
X99083334Y-27422256D02*
X99035715Y-27374636D01*
X99035715Y-27374636D02*
X98988096Y-27279398D01*
X98988096Y-27279398D02*
X98988096Y-26993684D01*
X98988096Y-26993684D02*
X99035715Y-26898446D01*
X99035715Y-26898446D02*
X99083334Y-26850827D01*
X99083334Y-26850827D02*
X99178572Y-26803208D01*
X99178572Y-26803208D02*
X99321429Y-26803208D01*
X99321429Y-26803208D02*
X99416667Y-26850827D01*
X99416667Y-26850827D02*
X99464286Y-26898446D01*
X99464286Y-26898446D02*
X99511905Y-26993684D01*
X99511905Y-26993684D02*
X99511905Y-27279398D01*
X99511905Y-27279398D02*
X99464286Y-27374636D01*
X99464286Y-27374636D02*
X99416667Y-27422256D01*
X99416667Y-27422256D02*
X99321429Y-27469875D01*
X99321429Y-27469875D02*
X99178572Y-27469875D01*
X99940477Y-27469875D02*
X99940477Y-26803208D01*
X99940477Y-26993684D02*
X99988096Y-26898446D01*
X99988096Y-26898446D02*
X100035715Y-26850827D01*
X100035715Y-26850827D02*
X100130953Y-26803208D01*
X100130953Y-26803208D02*
X100226191Y-26803208D01*
X101226192Y-26803208D02*
X101464287Y-27469875D01*
X101464287Y-27469875D02*
X101702382Y-26803208D01*
X102607144Y-27469875D02*
X102035716Y-27469875D01*
X102321430Y-27469875D02*
X102321430Y-26469875D01*
X102321430Y-26469875D02*
X102226192Y-26612732D01*
X102226192Y-26612732D02*
X102130954Y-26707970D01*
X102130954Y-26707970D02*
X102035716Y-26755589D01*
X103035716Y-27374636D02*
X103083335Y-27422256D01*
X103083335Y-27422256D02*
X103035716Y-27469875D01*
X103035716Y-27469875D02*
X102988097Y-27422256D01*
X102988097Y-27422256D02*
X103035716Y-27374636D01*
X103035716Y-27374636D02*
X103035716Y-27469875D01*
X103702382Y-26469875D02*
X103797620Y-26469875D01*
X103797620Y-26469875D02*
X103892858Y-26517494D01*
X103892858Y-26517494D02*
X103940477Y-26565113D01*
X103940477Y-26565113D02*
X103988096Y-26660351D01*
X103988096Y-26660351D02*
X104035715Y-26850827D01*
X104035715Y-26850827D02*
X104035715Y-27088922D01*
X104035715Y-27088922D02*
X103988096Y-27279398D01*
X103988096Y-27279398D02*
X103940477Y-27374636D01*
X103940477Y-27374636D02*
X103892858Y-27422256D01*
X103892858Y-27422256D02*
X103797620Y-27469875D01*
X103797620Y-27469875D02*
X103702382Y-27469875D01*
X103702382Y-27469875D02*
X103607144Y-27422256D01*
X103607144Y-27422256D02*
X103559525Y-27374636D01*
X103559525Y-27374636D02*
X103511906Y-27279398D01*
X103511906Y-27279398D02*
X103464287Y-27088922D01*
X103464287Y-27088922D02*
X103464287Y-26850827D01*
X103464287Y-26850827D02*
X103511906Y-26660351D01*
X103511906Y-26660351D02*
X103559525Y-26565113D01*
X103559525Y-26565113D02*
X103607144Y-26517494D01*
X103607144Y-26517494D02*
X103702382Y-26469875D01*
X89916666Y-28079819D02*
X90488094Y-28079819D01*
X90202380Y-29079819D02*
X90202380Y-28079819D01*
X90821428Y-29079819D02*
X90821428Y-28413152D01*
X90821428Y-28079819D02*
X90773809Y-28127438D01*
X90773809Y-28127438D02*
X90821428Y-28175057D01*
X90821428Y-28175057D02*
X90869047Y-28127438D01*
X90869047Y-28127438D02*
X90821428Y-28079819D01*
X90821428Y-28079819D02*
X90821428Y-28175057D01*
X91297618Y-29079819D02*
X91297618Y-28413152D01*
X91297618Y-28508390D02*
X91345237Y-28460771D01*
X91345237Y-28460771D02*
X91440475Y-28413152D01*
X91440475Y-28413152D02*
X91583332Y-28413152D01*
X91583332Y-28413152D02*
X91678570Y-28460771D01*
X91678570Y-28460771D02*
X91726189Y-28556009D01*
X91726189Y-28556009D02*
X91726189Y-29079819D01*
X91726189Y-28556009D02*
X91773808Y-28460771D01*
X91773808Y-28460771D02*
X91869046Y-28413152D01*
X91869046Y-28413152D02*
X92011903Y-28413152D01*
X92011903Y-28413152D02*
X92107142Y-28460771D01*
X92107142Y-28460771D02*
X92154761Y-28556009D01*
X92154761Y-28556009D02*
X92154761Y-29079819D01*
X92773808Y-29079819D02*
X92678570Y-29032200D01*
X92678570Y-29032200D02*
X92630951Y-28984580D01*
X92630951Y-28984580D02*
X92583332Y-28889342D01*
X92583332Y-28889342D02*
X92583332Y-28603628D01*
X92583332Y-28603628D02*
X92630951Y-28508390D01*
X92630951Y-28508390D02*
X92678570Y-28460771D01*
X92678570Y-28460771D02*
X92773808Y-28413152D01*
X92773808Y-28413152D02*
X92916665Y-28413152D01*
X92916665Y-28413152D02*
X93011903Y-28460771D01*
X93011903Y-28460771D02*
X93059522Y-28508390D01*
X93059522Y-28508390D02*
X93107141Y-28603628D01*
X93107141Y-28603628D02*
X93107141Y-28889342D01*
X93107141Y-28889342D02*
X93059522Y-28984580D01*
X93059522Y-28984580D02*
X93011903Y-29032200D01*
X93011903Y-29032200D02*
X92916665Y-29079819D01*
X92916665Y-29079819D02*
X92773808Y-29079819D01*
X93392856Y-28413152D02*
X93773808Y-28413152D01*
X93535713Y-28079819D02*
X93535713Y-28936961D01*
X93535713Y-28936961D02*
X93583332Y-29032200D01*
X93583332Y-29032200D02*
X93678570Y-29079819D01*
X93678570Y-29079819D02*
X93773808Y-29079819D01*
X94107142Y-29079819D02*
X94107142Y-28079819D01*
X94535713Y-29079819D02*
X94535713Y-28556009D01*
X94535713Y-28556009D02*
X94488094Y-28460771D01*
X94488094Y-28460771D02*
X94392856Y-28413152D01*
X94392856Y-28413152D02*
X94249999Y-28413152D01*
X94249999Y-28413152D02*
X94154761Y-28460771D01*
X94154761Y-28460771D02*
X94107142Y-28508390D01*
X94916666Y-28413152D02*
X95154761Y-29079819D01*
X95392856Y-28413152D02*
X95154761Y-29079819D01*
X95154761Y-29079819D02*
X95059523Y-29317914D01*
X95059523Y-29317914D02*
X95011904Y-29365533D01*
X95011904Y-29365533D02*
X94916666Y-29413152D01*
X96535714Y-29079819D02*
X96535714Y-28079819D01*
X97107142Y-29079819D02*
X96678571Y-28508390D01*
X97107142Y-28079819D02*
X96535714Y-28651247D01*
X97916666Y-29032200D02*
X97821428Y-29079819D01*
X97821428Y-29079819D02*
X97630952Y-29079819D01*
X97630952Y-29079819D02*
X97535714Y-29032200D01*
X97535714Y-29032200D02*
X97488095Y-28936961D01*
X97488095Y-28936961D02*
X97488095Y-28556009D01*
X97488095Y-28556009D02*
X97535714Y-28460771D01*
X97535714Y-28460771D02*
X97630952Y-28413152D01*
X97630952Y-28413152D02*
X97821428Y-28413152D01*
X97821428Y-28413152D02*
X97916666Y-28460771D01*
X97916666Y-28460771D02*
X97964285Y-28556009D01*
X97964285Y-28556009D02*
X97964285Y-28651247D01*
X97964285Y-28651247D02*
X97488095Y-28746485D01*
X98535714Y-29079819D02*
X98440476Y-29032200D01*
X98440476Y-29032200D02*
X98392857Y-28936961D01*
X98392857Y-28936961D02*
X98392857Y-28079819D01*
X99059524Y-29079819D02*
X98964286Y-29032200D01*
X98964286Y-29032200D02*
X98916667Y-28936961D01*
X98916667Y-28936961D02*
X98916667Y-28079819D01*
X99821429Y-29032200D02*
X99726191Y-29079819D01*
X99726191Y-29079819D02*
X99535715Y-29079819D01*
X99535715Y-29079819D02*
X99440477Y-29032200D01*
X99440477Y-29032200D02*
X99392858Y-28936961D01*
X99392858Y-28936961D02*
X99392858Y-28556009D01*
X99392858Y-28556009D02*
X99440477Y-28460771D01*
X99440477Y-28460771D02*
X99535715Y-28413152D01*
X99535715Y-28413152D02*
X99726191Y-28413152D01*
X99726191Y-28413152D02*
X99821429Y-28460771D01*
X99821429Y-28460771D02*
X99869048Y-28556009D01*
X99869048Y-28556009D02*
X99869048Y-28651247D01*
X99869048Y-28651247D02*
X99392858Y-28746485D01*
X100297620Y-29079819D02*
X100297620Y-28413152D01*
X100297620Y-28603628D02*
X100345239Y-28508390D01*
X100345239Y-28508390D02*
X100392858Y-28460771D01*
X100392858Y-28460771D02*
X100488096Y-28413152D01*
X100488096Y-28413152D02*
X100583334Y-28413152D01*
X99996666Y-46444819D02*
X99996666Y-47159104D01*
X99996666Y-47159104D02*
X99949047Y-47301961D01*
X99949047Y-47301961D02*
X99853809Y-47397200D01*
X99853809Y-47397200D02*
X99710952Y-47444819D01*
X99710952Y-47444819D02*
X99615714Y-47444819D01*
X100377619Y-46444819D02*
X100996666Y-46444819D01*
X100996666Y-46444819D02*
X100663333Y-46825771D01*
X100663333Y-46825771D02*
X100806190Y-46825771D01*
X100806190Y-46825771D02*
X100901428Y-46873390D01*
X100901428Y-46873390D02*
X100949047Y-46921009D01*
X100949047Y-46921009D02*
X100996666Y-47016247D01*
X100996666Y-47016247D02*
X100996666Y-47254342D01*
X100996666Y-47254342D02*
X100949047Y-47349580D01*
X100949047Y-47349580D02*
X100901428Y-47397200D01*
X100901428Y-47397200D02*
X100806190Y-47444819D01*
X100806190Y-47444819D02*
X100520476Y-47444819D01*
X100520476Y-47444819D02*
X100425238Y-47397200D01*
X100425238Y-47397200D02*
X100377619Y-47349580D01*
X99568095Y-40094819D02*
X99568095Y-40904342D01*
X99568095Y-40904342D02*
X99615714Y-40999580D01*
X99615714Y-40999580D02*
X99663333Y-41047200D01*
X99663333Y-41047200D02*
X99758571Y-41094819D01*
X99758571Y-41094819D02*
X99949047Y-41094819D01*
X99949047Y-41094819D02*
X100044285Y-41047200D01*
X100044285Y-41047200D02*
X100091904Y-40999580D01*
X100091904Y-40999580D02*
X100139523Y-40904342D01*
X100139523Y-40904342D02*
X100139523Y-40094819D01*
X101139523Y-41094819D02*
X100568095Y-41094819D01*
X100853809Y-41094819D02*
X100853809Y-40094819D01*
X100853809Y-40094819D02*
X100758571Y-40237676D01*
X100758571Y-40237676D02*
X100663333Y-40332914D01*
X100663333Y-40332914D02*
X100568095Y-40380533D01*
X79676666Y-32474819D02*
X79676666Y-33189104D01*
X79676666Y-33189104D02*
X79629047Y-33331961D01*
X79629047Y-33331961D02*
X79533809Y-33427200D01*
X79533809Y-33427200D02*
X79390952Y-33474819D01*
X79390952Y-33474819D02*
X79295714Y-33474819D01*
X80676666Y-33474819D02*
X80105238Y-33474819D01*
X80390952Y-33474819D02*
X80390952Y-32474819D01*
X80390952Y-32474819D02*
X80295714Y-32617676D01*
X80295714Y-32617676D02*
X80200476Y-32712914D01*
X80200476Y-32712914D02*
X80105238Y-32760533D01*
X110156666Y-32474819D02*
X110156666Y-33189104D01*
X110156666Y-33189104D02*
X110109047Y-33331961D01*
X110109047Y-33331961D02*
X110013809Y-33427200D01*
X110013809Y-33427200D02*
X109870952Y-33474819D01*
X109870952Y-33474819D02*
X109775714Y-33474819D01*
X110585238Y-32570057D02*
X110632857Y-32522438D01*
X110632857Y-32522438D02*
X110728095Y-32474819D01*
X110728095Y-32474819D02*
X110966190Y-32474819D01*
X110966190Y-32474819D02*
X111061428Y-32522438D01*
X111061428Y-32522438D02*
X111109047Y-32570057D01*
X111109047Y-32570057D02*
X111156666Y-32665295D01*
X111156666Y-32665295D02*
X111156666Y-32760533D01*
X111156666Y-32760533D02*
X111109047Y-32903390D01*
X111109047Y-32903390D02*
X110537619Y-33474819D01*
X110537619Y-33474819D02*
X111156666Y-33474819D01*
D11*
%TO.C,J3*%
X93300000Y-46967500D02*
X94410000Y-46967500D01*
X93300000Y-50217500D02*
X94410000Y-50217500D01*
X95000000Y-45917500D02*
X95250000Y-46417500D01*
X95250000Y-46417500D02*
X95500000Y-45917500D01*
X95500000Y-45917500D02*
X95000000Y-45917500D01*
X96090000Y-46967500D02*
X97200000Y-46967500D01*
X96090000Y-50217500D02*
X97200000Y-50217500D01*
%TO.C,J1*%
X76782500Y-36150000D02*
X76782500Y-37260000D01*
X76782500Y-38940000D02*
X76782500Y-40050000D01*
X80032500Y-36150000D02*
X80032500Y-37260000D01*
X80032500Y-38940000D02*
X80032500Y-40050000D01*
X80582500Y-38100000D02*
X81082500Y-38350000D01*
X81082500Y-37850000D02*
X80582500Y-38100000D01*
X81082500Y-38350000D02*
X81082500Y-37850000D01*
%TO.C,J2*%
X109417500Y-37850000D02*
X109417500Y-38350000D01*
X109417500Y-38350000D02*
X109917500Y-38100000D01*
X109917500Y-38100000D02*
X109417500Y-37850000D01*
X110467500Y-37260000D02*
X110467500Y-36150000D01*
X110467500Y-40050000D02*
X110467500Y-38940000D01*
X113717500Y-37260000D02*
X113717500Y-36150000D01*
X113717500Y-40050000D02*
X113717500Y-38940000D01*
%TD*%
M02*
