%TF.GenerationSoftware,KiCad,Pcbnew,9.0.3*%
%TF.CreationDate,2025-07-27T15:43:23-04:00*%
%TF.ProjectId,S-Band Circulator,532d4261-6e64-4204-9369-7263756c6174,v1.0*%
%TF.SameCoordinates,Original*%
%TF.FileFunction,Copper,L1,Top*%
%TF.FilePolarity,Positive*%
%FSLAX46Y46*%
G04 Gerber Fmt 4.6, Leading zero omitted, Abs format (unit mm)*
G04 Created by KiCad (PCBNEW 9.0.3) date 2025-07-27 15:43:23*
%MOMM*%
%LPD*%
G01*
G04 APERTURE LIST*
G04 Aperture macros list*
%AMRoundRect*
0 Rectangle with rounded corners*
0 $1 Rounding radius*
0 $2 $3 $4 $5 $6 $7 $8 $9 X,Y pos of 4 corners*
0 Add a 4 corners polygon primitive as box body*
4,1,4,$2,$3,$4,$5,$6,$7,$8,$9,$2,$3,0*
0 Add four circle primitives for the rounded corners*
1,1,$1+$1,$2,$3*
1,1,$1+$1,$4,$5*
1,1,$1+$1,$6,$7*
1,1,$1+$1,$8,$9*
0 Add four rect primitives between the rounded corners*
20,1,$1+$1,$2,$3,$4,$5,0*
20,1,$1+$1,$4,$5,$6,$7,0*
20,1,$1+$1,$6,$7,$8,$9,0*
20,1,$1+$1,$8,$9,$2,$3,0*%
%AMFreePoly0*
4,1,73,0.868241,4.924039,1.710101,4.698463,2.500000,4.330127,2.995581,3.983118,2.798038,3.785575,2.598076,3.500000,2.450742,3.184040,2.360512,2.847296,2.330127,2.500000,2.360512,2.152704,2.450742,1.815960,2.598076,1.500000,2.798038,1.214425,3.044552,0.967911,3.330127,0.767949,3.646087,0.620615,3.982831,0.530384,4.330127,0.500000,4.677423,0.530384,4.947271,0.602690,
5.000000,0.000000,4.924039,-0.868241,4.698463,-1.710101,4.330127,-2.500000,3.830222,-3.213938,3.213938,-3.830222,2.500000,-4.330127,1.951691,-4.585808,1.879385,-4.315960,1.732051,-4.000000,1.532089,-3.714425,1.285575,-3.467911,1.000000,-3.267949,0.684040,-3.120615,0.347296,-3.030384,0.000000,-3.000000,-0.347296,-3.030384,-0.684040,-3.120615,-1.000000,-3.267949,-1.285575,-3.467911,
-1.532089,-3.714425,-1.732051,-4.000000,-1.879385,-4.315960,-1.951691,-4.585808,-2.500000,-4.330127,-3.213938,-3.830222,-3.830222,-3.213938,-4.330127,-2.500000,-4.698463,-1.710101,-4.924039,-0.868241,-5.000000,0.000000,-4.947271,0.602690,-4.677423,0.530384,-4.330127,0.500000,-3.982831,0.530384,-3.646087,0.620615,-3.330127,0.767949,-3.044552,0.967911,-2.798038,1.214425,-2.598076,1.500000,
-2.450742,1.815960,-2.360512,2.152704,-2.330127,2.500000,-2.360512,2.847296,-2.450742,3.184040,-2.598076,3.500000,-2.798038,3.785575,-2.995581,3.983118,-2.500000,4.330127,-1.710101,4.698463,-0.868241,4.924039,0.000000,5.000000,0.868241,4.924039,0.868241,4.924039,$1*%
G04 Aperture macros list end*
%TA.AperFunction,ComponentPad*%
%ADD10C,5.562600*%
%TD*%
%TA.AperFunction,SMDPad,CuDef*%
%ADD11RoundRect,0.250000X-0.385000X-1.350000X0.385000X-1.350000X0.385000X1.350000X-0.385000X1.350000X0*%
%TD*%
%TA.AperFunction,SMDPad,CuDef*%
%ADD12RoundRect,0.250000X-0.425000X-1.600000X0.425000X-1.600000X0.425000X1.600000X-0.425000X1.600000X0*%
%TD*%
%TA.AperFunction,SMDPad,CuDef*%
%ADD13C,2.000000*%
%TD*%
%TA.AperFunction,ComponentPad*%
%ADD14C,0.550000*%
%TD*%
%TA.AperFunction,SMDPad,CuDef*%
%ADD15FreePoly0,0.000000*%
%TD*%
%TA.AperFunction,SMDPad,CuDef*%
%ADD16RoundRect,0.250000X-1.350000X0.385000X-1.350000X-0.385000X1.350000X-0.385000X1.350000X0.385000X0*%
%TD*%
%TA.AperFunction,SMDPad,CuDef*%
%ADD17RoundRect,0.250000X-1.600000X0.425000X-1.600000X-0.425000X1.600000X-0.425000X1.600000X0.425000X0*%
%TD*%
%TA.AperFunction,SMDPad,CuDef*%
%ADD18RoundRect,0.250000X1.350000X-0.385000X1.350000X0.385000X-1.350000X0.385000X-1.350000X-0.385000X0*%
%TD*%
%TA.AperFunction,SMDPad,CuDef*%
%ADD19RoundRect,0.250000X1.600000X-0.425000X1.600000X0.425000X-1.600000X0.425000X-1.600000X-0.425000X0*%
%TD*%
%TA.AperFunction,ViaPad*%
%ADD20C,0.600000*%
%TD*%
%TA.AperFunction,Conductor*%
%ADD21C,0.400000*%
%TD*%
G04 APERTURE END LIST*
D10*
%TO.P,H4,1,1*%
%TO.N,GND*%
X80010000Y-46990000D03*
%TD*%
%TO.P,H1,1,1*%
%TO.N,GND*%
X80010000Y-29210000D03*
%TD*%
D11*
%TO.P,J3,1,In*%
%TO.N,Net-(J3-In)*%
X95250000Y-48677500D03*
D12*
%TO.P,J3,2,Ext*%
%TO.N,GND*%
X98075000Y-48427500D03*
X92425000Y-48427500D03*
%TD*%
D13*
%TO.P,U1,1,1*%
%TO.N,Net-(J1-In)*%
X90850000Y-34230000D03*
%TO.P,U1,2,2*%
%TO.N,Net-(J2-In)*%
X99650000Y-34230000D03*
%TO.P,U1,3,3*%
%TO.N,Net-(J3-In)*%
X95250000Y-41930000D03*
D14*
%TO.P,U1,4,GND*%
%TO.N,GND*%
X90750000Y-36830000D03*
X90750000Y-37830000D03*
X91050000Y-37330000D03*
X91050000Y-38330000D03*
X91350000Y-36830000D03*
X91350000Y-37830000D03*
X91350000Y-38830000D03*
X91650000Y-37330000D03*
X91650000Y-38330000D03*
X91650000Y-39330000D03*
X91950000Y-36830000D03*
X91950000Y-37830000D03*
X91950000Y-38830000D03*
X91950000Y-39830000D03*
X92250000Y-36330000D03*
X92250000Y-37330000D03*
X92250000Y-38330000D03*
X92250000Y-39330000D03*
X92250000Y-40330000D03*
X92550000Y-36830000D03*
X92550000Y-37830000D03*
X92550000Y-38830000D03*
X92550000Y-39830000D03*
X92850000Y-36330000D03*
X92850000Y-37330000D03*
X92850000Y-38330000D03*
X92850000Y-39330000D03*
X92850000Y-40330000D03*
X93150000Y-32830000D03*
X93150000Y-34830000D03*
X93150000Y-35830000D03*
X93150000Y-36830000D03*
X93150000Y-37830000D03*
X93150000Y-38830000D03*
X93150000Y-39830000D03*
X93150000Y-40830000D03*
X93450000Y-33330000D03*
X93450000Y-34330000D03*
X93450000Y-35330000D03*
X93450000Y-36330000D03*
X93450000Y-37330000D03*
X93450000Y-38330000D03*
X93450000Y-39330000D03*
X93450000Y-40330000D03*
X93750000Y-32830000D03*
X93750000Y-33830000D03*
X93750000Y-34830000D03*
X93750000Y-35830000D03*
X93750000Y-36830000D03*
X93750000Y-37830000D03*
X93750000Y-38830000D03*
X93750000Y-39830000D03*
X94050000Y-32330000D03*
X94050000Y-33330000D03*
X94050000Y-34330000D03*
X94050000Y-35330000D03*
X94050000Y-36330000D03*
X94050000Y-37330000D03*
X94050000Y-38330000D03*
X94050000Y-39330000D03*
X94350000Y-32830000D03*
X94350000Y-33830000D03*
X94350000Y-34830000D03*
X94350000Y-35830000D03*
X94350000Y-36830000D03*
X94350000Y-37830000D03*
X94350000Y-38830000D03*
X94650000Y-32330000D03*
X94650000Y-33330000D03*
X94650000Y-34330000D03*
X94650000Y-35330000D03*
X94650000Y-36330000D03*
X94650000Y-37330000D03*
X94650000Y-38330000D03*
X94650000Y-39330000D03*
X94950000Y-32830000D03*
X94950000Y-33830000D03*
X94950000Y-34830000D03*
X94950000Y-35830000D03*
X94950000Y-36830000D03*
X94950000Y-37830000D03*
X94950000Y-38830000D03*
X95250000Y-32330000D03*
X95250000Y-33330000D03*
X95250000Y-34330000D03*
X95250000Y-35330000D03*
X95250000Y-36330000D03*
D15*
X95250000Y-36830000D03*
D14*
X95250000Y-37330000D03*
X95250000Y-38330000D03*
X95250000Y-39330000D03*
X95550000Y-32830000D03*
X95550000Y-33830000D03*
X95550000Y-34830000D03*
X95550000Y-35830000D03*
X95550000Y-36830000D03*
X95550000Y-37830000D03*
X95550000Y-38830000D03*
X95850000Y-32330000D03*
X95850000Y-33330000D03*
X95850000Y-34330000D03*
X95850000Y-35330000D03*
X95850000Y-36330000D03*
X95850000Y-37330000D03*
X95850000Y-38330000D03*
X95850000Y-39330000D03*
X96150000Y-32830000D03*
X96150000Y-33830000D03*
X96150000Y-34830000D03*
X96150000Y-35830000D03*
X96150000Y-36830000D03*
X96150000Y-37830000D03*
X96150000Y-38830000D03*
X96450000Y-32330000D03*
X96450000Y-33330000D03*
X96450000Y-34330000D03*
X96450000Y-35330000D03*
X96450000Y-36330000D03*
X96450000Y-37330000D03*
X96450000Y-38330000D03*
X96450000Y-39330000D03*
X96750000Y-32830000D03*
X96750000Y-33830000D03*
X96750000Y-34830000D03*
X96750000Y-35830000D03*
X96750000Y-36830000D03*
X96750000Y-37830000D03*
X96750000Y-38830000D03*
X96750000Y-39830000D03*
X97050000Y-33330000D03*
X97050000Y-34330000D03*
X97050000Y-35330000D03*
X97050000Y-36330000D03*
X97050000Y-37330000D03*
X97050000Y-38330000D03*
X97050000Y-39330000D03*
X97050000Y-40330000D03*
X97350000Y-32830000D03*
X97350000Y-33830000D03*
X97350000Y-34830000D03*
X97350000Y-35830000D03*
X97350000Y-36830000D03*
X97350000Y-37830000D03*
X97350000Y-38830000D03*
X97350000Y-39830000D03*
X97350000Y-40830000D03*
X97650000Y-36330000D03*
X97650000Y-37330000D03*
X97650000Y-38330000D03*
X97650000Y-39330000D03*
X97650000Y-40330000D03*
X97950000Y-36830000D03*
X97950000Y-37830000D03*
X97950000Y-38830000D03*
X97950000Y-39830000D03*
X98250000Y-36330000D03*
X98250000Y-37330000D03*
X98250000Y-38330000D03*
X98250000Y-39330000D03*
X98250000Y-40330000D03*
X98550000Y-36830000D03*
X98550000Y-37830000D03*
X98550000Y-38830000D03*
X98550000Y-39830000D03*
X98850000Y-37330000D03*
X98850000Y-38330000D03*
X98850000Y-39330000D03*
X99150000Y-36830000D03*
X99150000Y-37830000D03*
X99150000Y-38830000D03*
X99450000Y-37330000D03*
X99450000Y-38330000D03*
X99750000Y-36830000D03*
X99750000Y-37830000D03*
%TD*%
D16*
%TO.P,J1,1,In*%
%TO.N,Net-(J1-In)*%
X78322500Y-38100000D03*
D17*
%TO.P,J1,2,Ext*%
%TO.N,GND*%
X78572500Y-40925000D03*
X78572500Y-35275000D03*
%TD*%
D10*
%TO.P,H3,1,1*%
%TO.N,GND*%
X110490000Y-46990000D03*
%TD*%
D18*
%TO.P,J2,1,In*%
%TO.N,Net-(J2-In)*%
X112177500Y-38100000D03*
D19*
%TO.P,J2,2,Ext*%
%TO.N,GND*%
X111927500Y-35275000D03*
X111927500Y-40925000D03*
%TD*%
D10*
%TO.P,H2,1,1*%
%TO.N,GND*%
X110490000Y-29210000D03*
%TD*%
D20*
%TO.N,GND*%
X81280000Y-36830000D03*
X109220000Y-39370000D03*
X109220000Y-34925000D03*
X100965000Y-48260000D03*
X99695000Y-48260000D03*
X92075000Y-45720000D03*
X102870000Y-33655000D03*
X78740000Y-33655000D03*
X96520000Y-45720000D03*
X101600000Y-36195000D03*
X82550000Y-39370000D03*
X111760000Y-33655000D03*
X87630000Y-33655000D03*
X88900000Y-33020000D03*
X109220000Y-36830000D03*
X93345000Y-43180000D03*
X96520000Y-44450000D03*
X86995000Y-48260000D03*
X103505000Y-48260000D03*
X81280000Y-39370000D03*
X111760000Y-42545000D03*
X81280000Y-34925000D03*
X81280000Y-41275000D03*
X83820000Y-39370000D03*
X83820000Y-36830000D03*
X84455000Y-48260000D03*
X85725000Y-48260000D03*
X102235000Y-48260000D03*
X101600000Y-33020000D03*
X93980000Y-45720000D03*
X102870000Y-37465000D03*
X107950000Y-39370000D03*
X87630000Y-37465000D03*
X89535000Y-48260000D03*
X90805000Y-48260000D03*
X85725000Y-38735000D03*
X88265000Y-48260000D03*
X107950000Y-36830000D03*
X82550000Y-36830000D03*
X106680000Y-39370000D03*
X86360000Y-34925000D03*
X106680000Y-36830000D03*
X93980000Y-44450000D03*
X104775000Y-38735000D03*
X98425000Y-45720000D03*
X104140000Y-34925000D03*
X88900000Y-36195000D03*
X85090000Y-36195000D03*
X109220000Y-41275000D03*
X104775000Y-48260000D03*
X105410000Y-36195000D03*
X106045000Y-48260000D03*
X97155000Y-43180000D03*
X78740000Y-42545000D03*
%TD*%
D21*
%TO.N,Net-(J1-In)*%
X86205923Y-36984077D02*
X87844077Y-35345923D01*
X78322500Y-38100000D02*
X83511846Y-38100000D01*
X90538154Y-34230000D02*
X90850000Y-34230000D01*
X86205923Y-36984077D02*
G75*
G02*
X83511846Y-38100033I-2694123J2694077D01*
G01*
X87844077Y-35345923D02*
G75*
G02*
X90538154Y-34229967I2694123J-2694077D01*
G01*
%TO.N,Net-(J2-In)*%
X112177500Y-38100000D02*
X106988154Y-38100000D01*
X104294077Y-36984077D02*
X102655923Y-35345923D01*
X99961846Y-34230000D02*
X99650000Y-34230000D01*
X102655923Y-35345923D02*
G75*
G03*
X99961846Y-34229967I-2694123J-2694077D01*
G01*
X106988154Y-38100000D02*
G75*
G02*
X104294100Y-36984054I46J3810000D01*
G01*
%TO.N,Net-(J3-In)*%
X95250000Y-48677500D02*
X95250000Y-41930000D01*
%TD*%
%TA.AperFunction,Conductor*%
%TO.N,GND*%
G36*
X110493243Y-25900669D02*
G01*
X110829450Y-25918290D01*
X110842358Y-25919647D01*
X111171677Y-25971806D01*
X111184342Y-25974497D01*
X111506422Y-26060798D01*
X111518749Y-26064803D01*
X111830038Y-26184296D01*
X111841873Y-26189565D01*
X112138976Y-26340947D01*
X112150191Y-26347423D01*
X112429832Y-26529023D01*
X112440313Y-26536638D01*
X112699441Y-26746475D01*
X112709086Y-26755160D01*
X112944839Y-26990913D01*
X112953524Y-27000558D01*
X113163359Y-27259683D01*
X113170978Y-27270171D01*
X113352573Y-27549802D01*
X113359059Y-27561035D01*
X113510429Y-27858115D01*
X113515708Y-27869972D01*
X113635193Y-28181241D01*
X113639204Y-28193586D01*
X113725498Y-28515642D01*
X113728196Y-28528337D01*
X113780352Y-28857641D01*
X113781709Y-28870549D01*
X113799330Y-29206756D01*
X113799500Y-29213246D01*
X113799500Y-36951473D01*
X113779815Y-37018512D01*
X113727011Y-37064267D01*
X113657853Y-37074211D01*
X113640910Y-37070551D01*
X113630070Y-37067402D01*
X113630067Y-37067401D01*
X113593201Y-37064500D01*
X113593194Y-37064500D01*
X110761806Y-37064500D01*
X110761798Y-37064500D01*
X110724932Y-37067401D01*
X110724926Y-37067402D01*
X110567106Y-37113254D01*
X110567103Y-37113255D01*
X110425637Y-37196917D01*
X110425629Y-37196923D01*
X110309423Y-37313129D01*
X110309417Y-37313138D01*
X110235207Y-37438621D01*
X110184138Y-37486304D01*
X110128475Y-37499500D01*
X106991215Y-37499500D01*
X106985129Y-37499351D01*
X106679660Y-37484340D01*
X106667550Y-37483147D01*
X106368049Y-37438717D01*
X106356114Y-37436343D01*
X106062403Y-37362769D01*
X106050758Y-37359236D01*
X105765680Y-37257230D01*
X105754438Y-37252573D01*
X105480734Y-37123117D01*
X105470002Y-37117381D01*
X105210295Y-36961715D01*
X105200178Y-36954954D01*
X104956982Y-36774585D01*
X104947575Y-36766865D01*
X104720492Y-36561045D01*
X104716085Y-36556849D01*
X103019196Y-34859960D01*
X103018823Y-34859632D01*
X102944354Y-34785162D01*
X102649331Y-34537605D01*
X102333857Y-34316703D01*
X102000319Y-34124131D01*
X101651271Y-33961363D01*
X101651264Y-33961361D01*
X101289389Y-33829643D01*
X101289379Y-33829640D01*
X101289260Y-33829608D01*
X101028209Y-33759657D01*
X100968553Y-33723293D01*
X100949823Y-33696179D01*
X100947896Y-33692397D01*
X100947895Y-33692394D01*
X100847815Y-33495978D01*
X100831260Y-33473192D01*
X100718247Y-33317641D01*
X100718243Y-33317636D01*
X100562363Y-33161756D01*
X100562358Y-33161752D01*
X100384025Y-33032187D01*
X100384024Y-33032186D01*
X100384022Y-33032185D01*
X100321096Y-33000122D01*
X100187606Y-32932104D01*
X100187603Y-32932103D01*
X99977952Y-32863985D01*
X99869086Y-32846742D01*
X99760222Y-32829500D01*
X99539778Y-32829500D01*
X99467201Y-32840995D01*
X99322047Y-32863985D01*
X99112396Y-32932103D01*
X99112393Y-32932104D01*
X98915974Y-33032187D01*
X98737641Y-33161752D01*
X98737636Y-33161756D01*
X98581756Y-33317636D01*
X98581752Y-33317641D01*
X98452187Y-33495974D01*
X98352104Y-33692393D01*
X98352103Y-33692396D01*
X98283985Y-33902047D01*
X98249500Y-34119778D01*
X98249500Y-34340221D01*
X98283985Y-34557952D01*
X98352103Y-34767603D01*
X98352104Y-34767606D01*
X98452187Y-34964025D01*
X98581752Y-35142358D01*
X98581756Y-35142363D01*
X98737636Y-35298243D01*
X98737641Y-35298247D01*
X98843346Y-35375045D01*
X98915978Y-35427815D01*
X99044375Y-35493237D01*
X99112393Y-35527895D01*
X99112396Y-35527896D01*
X99197013Y-35555389D01*
X99322049Y-35596015D01*
X99539778Y-35630500D01*
X99539779Y-35630500D01*
X99760221Y-35630500D01*
X99760222Y-35630500D01*
X99977951Y-35596015D01*
X100187606Y-35527895D01*
X100384022Y-35427815D01*
X100562365Y-35298242D01*
X100718242Y-35142365D01*
X100799927Y-35029934D01*
X100855255Y-34987270D01*
X100924868Y-34981291D01*
X100942012Y-34986068D01*
X101184323Y-35072771D01*
X101195558Y-35077424D01*
X101469271Y-35206885D01*
X101479990Y-35212614D01*
X101622849Y-35298242D01*
X101739704Y-35368284D01*
X101749821Y-35375045D01*
X101993017Y-35555414D01*
X102002422Y-35563132D01*
X102229521Y-35768967D01*
X102233919Y-35773154D01*
X103930989Y-37470225D01*
X103931356Y-37470546D01*
X104005642Y-37544834D01*
X104005652Y-37544842D01*
X104005656Y-37544846D01*
X104300668Y-37792394D01*
X104616142Y-38013296D01*
X104616146Y-38013298D01*
X104616147Y-38013299D01*
X104949679Y-38205868D01*
X105298725Y-38368635D01*
X105493054Y-38439367D01*
X105660610Y-38500356D01*
X105660617Y-38500358D01*
X105660628Y-38500362D01*
X106032636Y-38600045D01*
X106411915Y-38666927D01*
X106754887Y-38696937D01*
X106795580Y-38700498D01*
X106795581Y-38700498D01*
X106901492Y-38700498D01*
X106901502Y-38700500D01*
X106909097Y-38700500D01*
X106988147Y-38700500D01*
X107061061Y-38700500D01*
X110128475Y-38700500D01*
X110195514Y-38720185D01*
X110235207Y-38761379D01*
X110309419Y-38886865D01*
X110309421Y-38886867D01*
X110309423Y-38886870D01*
X110425629Y-39003076D01*
X110425633Y-39003079D01*
X110425635Y-39003081D01*
X110567102Y-39086744D01*
X110608724Y-39098836D01*
X110724926Y-39132597D01*
X110724929Y-39132597D01*
X110724931Y-39132598D01*
X110761806Y-39135500D01*
X110761814Y-39135500D01*
X113593186Y-39135500D01*
X113593194Y-39135500D01*
X113630069Y-39132598D01*
X113640904Y-39129450D01*
X113710773Y-39129649D01*
X113769443Y-39167590D01*
X113798287Y-39231228D01*
X113799500Y-39248526D01*
X113799500Y-46986753D01*
X113799330Y-46993243D01*
X113781709Y-47329450D01*
X113780352Y-47342358D01*
X113728196Y-47671662D01*
X113725498Y-47684357D01*
X113639204Y-48006413D01*
X113635193Y-48018758D01*
X113515708Y-48330027D01*
X113510429Y-48341884D01*
X113359059Y-48638964D01*
X113352569Y-48650204D01*
X113170983Y-48929822D01*
X113163354Y-48940323D01*
X112953524Y-49199441D01*
X112944839Y-49209086D01*
X112709086Y-49444839D01*
X112699441Y-49453524D01*
X112440323Y-49663354D01*
X112429822Y-49670983D01*
X112150204Y-49852569D01*
X112138964Y-49859059D01*
X111841884Y-50010429D01*
X111830027Y-50015708D01*
X111518758Y-50135193D01*
X111506413Y-50139204D01*
X111184357Y-50225498D01*
X111171662Y-50228196D01*
X110842358Y-50280352D01*
X110829450Y-50281709D01*
X110493244Y-50299330D01*
X110486754Y-50299500D01*
X96398526Y-50299500D01*
X96331487Y-50279815D01*
X96285732Y-50227011D01*
X96275788Y-50157853D01*
X96279450Y-50140903D01*
X96279944Y-50139204D01*
X96282598Y-50130069D01*
X96285500Y-50093194D01*
X96285500Y-47261806D01*
X96282598Y-47224931D01*
X96236744Y-47067102D01*
X96153081Y-46925635D01*
X96153079Y-46925633D01*
X96153076Y-46925629D01*
X96036870Y-46809423D01*
X96036867Y-46809421D01*
X96036865Y-46809419D01*
X95911379Y-46735207D01*
X95863696Y-46684138D01*
X95850500Y-46628475D01*
X95850500Y-43271835D01*
X95870185Y-43204796D01*
X95918206Y-43161350D01*
X95918547Y-43161175D01*
X95984022Y-43127815D01*
X96162365Y-42998242D01*
X96318242Y-42842365D01*
X96447815Y-42664022D01*
X96547895Y-42467606D01*
X96616015Y-42257951D01*
X96650500Y-42040222D01*
X96650500Y-41819778D01*
X96616015Y-41602049D01*
X96547895Y-41392394D01*
X96547895Y-41392393D01*
X96513237Y-41324375D01*
X96447815Y-41195978D01*
X96431260Y-41173192D01*
X96318247Y-41017641D01*
X96318243Y-41017636D01*
X96162363Y-40861756D01*
X96162358Y-40861752D01*
X95984025Y-40732187D01*
X95984024Y-40732186D01*
X95984022Y-40732185D01*
X95921096Y-40700122D01*
X95787606Y-40632104D01*
X95787603Y-40632103D01*
X95577952Y-40563985D01*
X95469086Y-40546742D01*
X95360222Y-40529500D01*
X95139778Y-40529500D01*
X95067201Y-40540995D01*
X94922047Y-40563985D01*
X94712396Y-40632103D01*
X94712393Y-40632104D01*
X94515974Y-40732187D01*
X94337641Y-40861752D01*
X94337636Y-40861756D01*
X94181756Y-41017636D01*
X94181752Y-41017641D01*
X94052187Y-41195974D01*
X93952104Y-41392393D01*
X93952103Y-41392396D01*
X93883985Y-41602047D01*
X93849500Y-41819778D01*
X93849500Y-42040221D01*
X93883985Y-42257952D01*
X93952103Y-42467603D01*
X93952104Y-42467606D01*
X94052187Y-42664025D01*
X94181752Y-42842358D01*
X94181756Y-42842363D01*
X94337636Y-42998243D01*
X94337641Y-42998247D01*
X94515976Y-43127814D01*
X94581794Y-43161350D01*
X94632591Y-43209324D01*
X94649500Y-43271835D01*
X94649500Y-46628475D01*
X94629815Y-46695514D01*
X94588621Y-46735207D01*
X94463138Y-46809417D01*
X94463129Y-46809423D01*
X94346923Y-46925629D01*
X94346917Y-46925637D01*
X94263255Y-47067103D01*
X94263254Y-47067106D01*
X94217402Y-47224926D01*
X94217401Y-47224932D01*
X94214500Y-47261798D01*
X94214500Y-50093201D01*
X94217401Y-50130067D01*
X94220550Y-50140903D01*
X94220351Y-50210773D01*
X94182410Y-50269443D01*
X94118772Y-50298287D01*
X94101474Y-50299500D01*
X80013246Y-50299500D01*
X80006756Y-50299330D01*
X79670549Y-50281709D01*
X79657641Y-50280352D01*
X79328337Y-50228196D01*
X79315642Y-50225498D01*
X78993586Y-50139204D01*
X78981241Y-50135193D01*
X78669972Y-50015708D01*
X78658115Y-50010429D01*
X78361029Y-49859055D01*
X78349802Y-49852573D01*
X78070171Y-49670978D01*
X78059683Y-49663359D01*
X77800558Y-49453524D01*
X77790913Y-49444839D01*
X77555160Y-49209086D01*
X77546475Y-49199441D01*
X77457648Y-49089749D01*
X77336638Y-48940313D01*
X77329023Y-48929832D01*
X77147423Y-48650191D01*
X77140947Y-48638976D01*
X76989565Y-48341873D01*
X76984296Y-48330038D01*
X76864803Y-48018749D01*
X76860798Y-48006422D01*
X76774497Y-47684342D01*
X76771806Y-47671677D01*
X76719647Y-47342358D01*
X76718290Y-47329450D01*
X76700670Y-46993243D01*
X76700500Y-46986753D01*
X76700500Y-39248526D01*
X76720185Y-39181487D01*
X76772989Y-39135732D01*
X76842147Y-39125788D01*
X76859091Y-39129448D01*
X76869931Y-39132598D01*
X76906806Y-39135500D01*
X76906814Y-39135500D01*
X79738186Y-39135500D01*
X79738194Y-39135500D01*
X79775069Y-39132598D01*
X79775071Y-39132597D01*
X79775073Y-39132597D01*
X79816691Y-39120505D01*
X79932898Y-39086744D01*
X80074365Y-39003081D01*
X80190581Y-38886865D01*
X80264793Y-38761379D01*
X80315862Y-38713696D01*
X80371525Y-38700500D01*
X83438939Y-38700500D01*
X83460458Y-38700500D01*
X83460570Y-38700532D01*
X83511853Y-38700531D01*
X83511853Y-38700532D01*
X83704420Y-38700530D01*
X84088089Y-38666959D01*
X84467371Y-38600077D01*
X84839381Y-38500392D01*
X84839395Y-38500386D01*
X84839398Y-38500386D01*
X84921470Y-38470513D01*
X85201288Y-38368665D01*
X85550336Y-38205897D01*
X85883870Y-38013326D01*
X86199352Y-37792419D01*
X86494379Y-37544857D01*
X86584633Y-37454602D01*
X88266542Y-35772692D01*
X88270911Y-35768532D01*
X88497567Y-35563098D01*
X88506948Y-35555399D01*
X88750165Y-35375013D01*
X88760271Y-35368260D01*
X89020002Y-35212580D01*
X89030704Y-35206860D01*
X89304443Y-35077389D01*
X89315649Y-35072747D01*
X89557962Y-34986042D01*
X89627712Y-34981991D01*
X89688582Y-35016293D01*
X89700050Y-35029904D01*
X89781753Y-35142358D01*
X89781758Y-35142365D01*
X89937636Y-35298243D01*
X89937641Y-35298247D01*
X90043346Y-35375045D01*
X90115978Y-35427815D01*
X90244375Y-35493237D01*
X90312393Y-35527895D01*
X90312396Y-35527896D01*
X90397013Y-35555389D01*
X90522049Y-35596015D01*
X90739778Y-35630500D01*
X90739779Y-35630500D01*
X90960221Y-35630500D01*
X90960222Y-35630500D01*
X91177951Y-35596015D01*
X91387606Y-35527895D01*
X91584022Y-35427815D01*
X91762365Y-35298242D01*
X91918242Y-35142365D01*
X92047815Y-34964022D01*
X92147895Y-34767606D01*
X92216015Y-34557951D01*
X92250500Y-34340222D01*
X92250500Y-34119778D01*
X92216015Y-33902049D01*
X92181955Y-33797221D01*
X92147896Y-33692396D01*
X92147895Y-33692393D01*
X92113237Y-33624375D01*
X92047815Y-33495978D01*
X92031260Y-33473192D01*
X91918247Y-33317641D01*
X91918243Y-33317636D01*
X91762363Y-33161756D01*
X91762358Y-33161752D01*
X91584025Y-33032187D01*
X91584024Y-33032186D01*
X91584022Y-33032185D01*
X91521096Y-33000122D01*
X91387606Y-32932104D01*
X91387603Y-32932103D01*
X91177952Y-32863985D01*
X91069086Y-32846742D01*
X90960222Y-32829500D01*
X90739778Y-32829500D01*
X90667201Y-32840995D01*
X90522047Y-32863985D01*
X90312396Y-32932103D01*
X90312393Y-32932104D01*
X90115974Y-33032187D01*
X89937641Y-33161752D01*
X89937636Y-33161756D01*
X89781756Y-33317636D01*
X89781752Y-33317641D01*
X89652187Y-33495974D01*
X89550197Y-33696139D01*
X89502222Y-33746935D01*
X89471807Y-33759618D01*
X89210639Y-33829602D01*
X89210622Y-33829606D01*
X89210619Y-33829608D01*
X89210616Y-33829608D01*
X89210600Y-33829614D01*
X88848721Y-33961331D01*
X88848715Y-33961333D01*
X88499665Y-34124102D01*
X88166125Y-34316676D01*
X87850654Y-34537576D01*
X87555625Y-34785139D01*
X87555612Y-34785151D01*
X85783477Y-36557287D01*
X85779070Y-36561483D01*
X85552444Y-36766890D01*
X85543038Y-36774610D01*
X85299840Y-36954981D01*
X85289722Y-36961742D01*
X85030012Y-37117410D01*
X85019280Y-37123146D01*
X84745574Y-37252602D01*
X84734332Y-37257259D01*
X84449250Y-37359267D01*
X84437605Y-37362800D01*
X84143891Y-37436375D01*
X84131956Y-37438749D01*
X83832453Y-37483179D01*
X83820343Y-37484372D01*
X83515522Y-37499351D01*
X83509436Y-37499500D01*
X80371525Y-37499500D01*
X80304486Y-37479815D01*
X80264793Y-37438621D01*
X80256496Y-37424591D01*
X80190581Y-37313135D01*
X80190578Y-37313132D01*
X80190576Y-37313129D01*
X80074370Y-37196923D01*
X80074362Y-37196917D01*
X79949572Y-37123117D01*
X79932898Y-37113256D01*
X79932897Y-37113255D01*
X79932896Y-37113255D01*
X79932893Y-37113254D01*
X79775073Y-37067402D01*
X79775067Y-37067401D01*
X79738201Y-37064500D01*
X79738194Y-37064500D01*
X76906806Y-37064500D01*
X76906798Y-37064500D01*
X76869932Y-37067401D01*
X76869929Y-37067402D01*
X76859090Y-37070551D01*
X76789221Y-37070348D01*
X76730552Y-37032404D01*
X76701712Y-36968765D01*
X76700500Y-36951473D01*
X76700500Y-29213246D01*
X76700670Y-29206756D01*
X76718290Y-28870549D01*
X76719647Y-28857641D01*
X76758261Y-28613841D01*
X76771806Y-28528318D01*
X76774496Y-28515661D01*
X76860799Y-28193571D01*
X76864801Y-28181256D01*
X76984298Y-27869954D01*
X76989561Y-27858133D01*
X77140951Y-27561014D01*
X77147417Y-27549816D01*
X77329029Y-27270158D01*
X77336631Y-27259695D01*
X77546483Y-27000548D01*
X77555150Y-26990923D01*
X77790923Y-26755150D01*
X77800548Y-26746483D01*
X78059695Y-26536631D01*
X78070158Y-26529029D01*
X78349816Y-26347417D01*
X78361014Y-26340951D01*
X78658133Y-26189561D01*
X78669954Y-26184298D01*
X78981256Y-26064801D01*
X78993571Y-26060799D01*
X79315661Y-25974496D01*
X79328318Y-25971806D01*
X79657643Y-25919646D01*
X79670547Y-25918290D01*
X80006756Y-25900669D01*
X80013246Y-25900500D01*
X80075892Y-25900500D01*
X110424108Y-25900500D01*
X110486754Y-25900500D01*
X110493243Y-25900669D01*
G37*
%TD.AperFunction*%
%TD*%
M02*
