%TF.GenerationSoftware,KiCad,Pcbnew,9.0.3*%
%TF.CreationDate,2025-07-27T15:43:23-04:00*%
%TF.ProjectId,S-Band Circulator,532d4261-6e64-4204-9369-7263756c6174,v1.0*%
%TF.SameCoordinates,Original*%
%TF.FileFunction,Soldermask,Top*%
%TF.FilePolarity,Negative*%
%FSLAX46Y46*%
G04 Gerber Fmt 4.6, Leading zero omitted, Abs format (unit mm)*
G04 Created by KiCad (PCBNEW 9.0.3) date 2025-07-27 15:43:23*
%MOMM*%
%LPD*%
G01*
G04 APERTURE LIST*
G04 Aperture macros list*
%AMRoundRect*
0 Rectangle with rounded corners*
0 $1 Rounding radius*
0 $2 $3 $4 $5 $6 $7 $8 $9 X,Y pos of 4 corners*
0 Add a 4 corners polygon primitive as box body*
4,1,4,$2,$3,$4,$5,$6,$7,$8,$9,$2,$3,0*
0 Add four circle primitives for the rounded corners*
1,1,$1+$1,$2,$3*
1,1,$1+$1,$4,$5*
1,1,$1+$1,$6,$7*
1,1,$1+$1,$8,$9*
0 Add four rect primitives between the rounded corners*
20,1,$1+$1,$2,$3,$4,$5,0*
20,1,$1+$1,$4,$5,$6,$7,0*
20,1,$1+$1,$6,$7,$8,$9,0*
20,1,$1+$1,$8,$9,$2,$3,0*%
%AMFreePoly0*
4,1,73,0.868241,4.924039,1.710101,4.698463,2.500000,4.330127,2.995581,3.983118,2.798038,3.785575,2.598076,3.500000,2.450742,3.184040,2.360512,2.847296,2.330127,2.500000,2.360512,2.152704,2.450742,1.815960,2.598076,1.500000,2.798038,1.214425,3.044552,0.967911,3.330127,0.767949,3.646087,0.620615,3.982831,0.530384,4.330127,0.500000,4.677423,0.530384,4.947271,0.602690,
5.000000,0.000000,4.924039,-0.868241,4.698463,-1.710101,4.330127,-2.500000,3.830222,-3.213938,3.213938,-3.830222,2.500000,-4.330127,1.951691,-4.585808,1.879385,-4.315960,1.732051,-4.000000,1.532089,-3.714425,1.285575,-3.467911,1.000000,-3.267949,0.684040,-3.120615,0.347296,-3.030384,0.000000,-3.000000,-0.347296,-3.030384,-0.684040,-3.120615,-1.000000,-3.267949,-1.285575,-3.467911,
-1.532089,-3.714425,-1.732051,-4.000000,-1.879385,-4.315960,-1.951691,-4.585808,-2.500000,-4.330127,-3.213938,-3.830222,-3.830222,-3.213938,-4.330127,-2.500000,-4.698463,-1.710101,-4.924039,-0.868241,-5.000000,0.000000,-4.947271,0.602690,-4.677423,0.530384,-4.330127,0.500000,-3.982831,0.530384,-3.646087,0.620615,-3.330127,0.767949,-3.044552,0.967911,-2.798038,1.214425,-2.598076,1.500000,
-2.450742,1.815960,-2.360512,2.152704,-2.330127,2.500000,-2.360512,2.847296,-2.450742,3.184040,-2.598076,3.500000,-2.798038,3.785575,-2.995581,3.983118,-2.500000,4.330127,-1.710101,4.698463,-0.868241,4.924039,0.000000,5.000000,0.868241,4.924039,0.868241,4.924039,$1*%
G04 Aperture macros list end*
%ADD10C,5.562600*%
%ADD11RoundRect,0.250000X-0.385000X-1.350000X0.385000X-1.350000X0.385000X1.350000X-0.385000X1.350000X0*%
%ADD12RoundRect,0.250000X-0.425000X-1.600000X0.425000X-1.600000X0.425000X1.600000X-0.425000X1.600000X0*%
%ADD13C,2.000000*%
%ADD14C,0.550000*%
%ADD15FreePoly0,0.000000*%
%ADD16RoundRect,0.250000X-1.350000X0.385000X-1.350000X-0.385000X1.350000X-0.385000X1.350000X0.385000X0*%
%ADD17RoundRect,0.250000X-1.600000X0.425000X-1.600000X-0.425000X1.600000X-0.425000X1.600000X0.425000X0*%
%ADD18RoundRect,0.250000X1.350000X-0.385000X1.350000X0.385000X-1.350000X0.385000X-1.350000X-0.385000X0*%
%ADD19RoundRect,0.250000X1.600000X-0.425000X1.600000X0.425000X-1.600000X0.425000X-1.600000X-0.425000X0*%
G04 APERTURE END LIST*
D10*
%TO.C,H4*%
X80010000Y-46990000D03*
%TD*%
%TO.C,H1*%
X80010000Y-29210000D03*
%TD*%
D11*
%TO.C,J3*%
X95250000Y-48677500D03*
D12*
X98075000Y-48427500D03*
X92425000Y-48427500D03*
%TD*%
D13*
%TO.C,U1*%
X90850000Y-34230000D03*
X99650000Y-34230000D03*
X95250000Y-41930000D03*
D14*
X90750000Y-36830000D03*
X90750000Y-37830000D03*
X91050000Y-37330000D03*
X91050000Y-38330000D03*
X91350000Y-36830000D03*
X91350000Y-37830000D03*
X91350000Y-38830000D03*
X91650000Y-37330000D03*
X91650000Y-38330000D03*
X91650000Y-39330000D03*
X91950000Y-36830000D03*
X91950000Y-37830000D03*
X91950000Y-38830000D03*
X91950000Y-39830000D03*
X92250000Y-36330000D03*
X92250000Y-37330000D03*
X92250000Y-38330000D03*
X92250000Y-39330000D03*
X92250000Y-40330000D03*
X92550000Y-36830000D03*
X92550000Y-37830000D03*
X92550000Y-38830000D03*
X92550000Y-39830000D03*
X92850000Y-36330000D03*
X92850000Y-37330000D03*
X92850000Y-38330000D03*
X92850000Y-39330000D03*
X92850000Y-40330000D03*
X93150000Y-32830000D03*
X93150000Y-34830000D03*
X93150000Y-35830000D03*
X93150000Y-36830000D03*
X93150000Y-37830000D03*
X93150000Y-38830000D03*
X93150000Y-39830000D03*
X93150000Y-40830000D03*
X93450000Y-33330000D03*
X93450000Y-34330000D03*
X93450000Y-35330000D03*
X93450000Y-36330000D03*
X93450000Y-37330000D03*
X93450000Y-38330000D03*
X93450000Y-39330000D03*
X93450000Y-40330000D03*
X93750000Y-32830000D03*
X93750000Y-33830000D03*
X93750000Y-34830000D03*
X93750000Y-35830000D03*
X93750000Y-36830000D03*
X93750000Y-37830000D03*
X93750000Y-38830000D03*
X93750000Y-39830000D03*
X94050000Y-32330000D03*
X94050000Y-33330000D03*
X94050000Y-34330000D03*
X94050000Y-35330000D03*
X94050000Y-36330000D03*
X94050000Y-37330000D03*
X94050000Y-38330000D03*
X94050000Y-39330000D03*
X94350000Y-32830000D03*
X94350000Y-33830000D03*
X94350000Y-34830000D03*
X94350000Y-35830000D03*
X94350000Y-36830000D03*
X94350000Y-37830000D03*
X94350000Y-38830000D03*
X94650000Y-32330000D03*
X94650000Y-33330000D03*
X94650000Y-34330000D03*
X94650000Y-35330000D03*
X94650000Y-36330000D03*
X94650000Y-37330000D03*
X94650000Y-38330000D03*
X94650000Y-39330000D03*
X94950000Y-32830000D03*
X94950000Y-33830000D03*
X94950000Y-34830000D03*
X94950000Y-35830000D03*
X94950000Y-36830000D03*
X94950000Y-37830000D03*
X94950000Y-38830000D03*
X95250000Y-32330000D03*
X95250000Y-33330000D03*
X95250000Y-34330000D03*
X95250000Y-35330000D03*
X95250000Y-36330000D03*
D15*
X95250000Y-36830000D03*
D14*
X95250000Y-37330000D03*
X95250000Y-38330000D03*
X95250000Y-39330000D03*
X95550000Y-32830000D03*
X95550000Y-33830000D03*
X95550000Y-34830000D03*
X95550000Y-35830000D03*
X95550000Y-36830000D03*
X95550000Y-37830000D03*
X95550000Y-38830000D03*
X95850000Y-32330000D03*
X95850000Y-33330000D03*
X95850000Y-34330000D03*
X95850000Y-35330000D03*
X95850000Y-36330000D03*
X95850000Y-37330000D03*
X95850000Y-38330000D03*
X95850000Y-39330000D03*
X96150000Y-32830000D03*
X96150000Y-33830000D03*
X96150000Y-34830000D03*
X96150000Y-35830000D03*
X96150000Y-36830000D03*
X96150000Y-37830000D03*
X96150000Y-38830000D03*
X96450000Y-32330000D03*
X96450000Y-33330000D03*
X96450000Y-34330000D03*
X96450000Y-35330000D03*
X96450000Y-36330000D03*
X96450000Y-37330000D03*
X96450000Y-38330000D03*
X96450000Y-39330000D03*
X96750000Y-32830000D03*
X96750000Y-33830000D03*
X96750000Y-34830000D03*
X96750000Y-35830000D03*
X96750000Y-36830000D03*
X96750000Y-37830000D03*
X96750000Y-38830000D03*
X96750000Y-39830000D03*
X97050000Y-33330000D03*
X97050000Y-34330000D03*
X97050000Y-35330000D03*
X97050000Y-36330000D03*
X97050000Y-37330000D03*
X97050000Y-38330000D03*
X97050000Y-39330000D03*
X97050000Y-40330000D03*
X97350000Y-32830000D03*
X97350000Y-33830000D03*
X97350000Y-34830000D03*
X97350000Y-35830000D03*
X97350000Y-36830000D03*
X97350000Y-37830000D03*
X97350000Y-38830000D03*
X97350000Y-39830000D03*
X97350000Y-40830000D03*
X97650000Y-36330000D03*
X97650000Y-37330000D03*
X97650000Y-38330000D03*
X97650000Y-39330000D03*
X97650000Y-40330000D03*
X97950000Y-36830000D03*
X97950000Y-37830000D03*
X97950000Y-38830000D03*
X97950000Y-39830000D03*
X98250000Y-36330000D03*
X98250000Y-37330000D03*
X98250000Y-38330000D03*
X98250000Y-39330000D03*
X98250000Y-40330000D03*
X98550000Y-36830000D03*
X98550000Y-37830000D03*
X98550000Y-38830000D03*
X98550000Y-39830000D03*
X98850000Y-37330000D03*
X98850000Y-38330000D03*
X98850000Y-39330000D03*
X99150000Y-36830000D03*
X99150000Y-37830000D03*
X99150000Y-38830000D03*
X99450000Y-37330000D03*
X99450000Y-38330000D03*
X99750000Y-36830000D03*
X99750000Y-37830000D03*
%TD*%
D16*
%TO.C,J1*%
X78322500Y-38100000D03*
D17*
X78572500Y-40925000D03*
X78572500Y-35275000D03*
%TD*%
D10*
%TO.C,H3*%
X110490000Y-46990000D03*
%TD*%
D18*
%TO.C,J2*%
X112177500Y-38100000D03*
D19*
X111927500Y-35275000D03*
X111927500Y-40925000D03*
%TD*%
D10*
%TO.C,H2*%
X110490000Y-29210000D03*
%TD*%
M02*
