%TF.GenerationSoftware,KiCad,Pcbnew,8.0.0*%
%TF.CreationDate,2024-07-26T18:05:43-04:00*%
%TF.ProjectId,X-Band Amplifier HMC441,582d4261-6e64-4204-916d-706c69666965,v1.1*%
%TF.SameCoordinates,Original*%
%TF.FileFunction,Copper,L2,Inr*%
%TF.FilePolarity,Positive*%
%FSLAX46Y46*%
G04 Gerber Fmt 4.6, Leading zero omitted, Abs format (unit mm)*
G04 Created by KiCad (PCBNEW 8.0.0) date 2024-07-26 18:05:43*
%MOMM*%
%LPD*%
G01*
G04 APERTURE LIST*
%TA.AperFunction,ComponentPad*%
%ADD10C,0.508000*%
%TD*%
%TA.AperFunction,ComponentPad*%
%ADD11C,5.562600*%
%TD*%
%TA.AperFunction,ViaPad*%
%ADD12C,0.600000*%
%TD*%
G04 APERTURE END LIST*
D10*
%TO.N,GND*%
%TO.C,U1*%
X139065000Y-63119000D03*
X139065000Y-63754000D03*
X139065000Y-64389000D03*
X139700000Y-63119000D03*
X139700000Y-63754000D03*
X139700000Y-64389000D03*
X140335000Y-63119000D03*
X140335000Y-63754000D03*
X140335000Y-64389000D03*
%TD*%
D11*
%TO.N,GND*%
%TO.C,H2*%
X149225000Y-53975000D03*
%TD*%
%TO.N,GND*%
%TO.C,H3*%
X130175000Y-73025000D03*
%TD*%
%TO.N,GND*%
%TO.C,H4*%
X149225000Y-73025000D03*
%TD*%
%TO.N,GND*%
%TO.C,H1*%
X130175000Y-53975000D03*
%TD*%
D12*
%TO.N,GND*%
X134366000Y-73660000D03*
X138303000Y-60960000D03*
X139700000Y-69342000D03*
X142113000Y-64516000D03*
X137160000Y-64516000D03*
X137287000Y-62230000D03*
X141986000Y-62230000D03*
X141859000Y-65405000D03*
X137414000Y-65278000D03*
X138303000Y-62357000D03*
X141097000Y-62357000D03*
X141097000Y-65151000D03*
X138303000Y-65151000D03*
X134112000Y-52197000D03*
X134112000Y-54102000D03*
X134112000Y-56134000D03*
X140843000Y-60198000D03*
X141224000Y-61087000D03*
X140462000Y-52324000D03*
X148082000Y-62484000D03*
X140462000Y-56769000D03*
X132588000Y-62484000D03*
X143256000Y-61849000D03*
X133858000Y-62484000D03*
X131953000Y-64516000D03*
X132842000Y-61849000D03*
X130048000Y-64516000D03*
X147447000Y-62484000D03*
X148717000Y-62484000D03*
X133477000Y-61849000D03*
X146177000Y-64516000D03*
X148971000Y-61849000D03*
X148717000Y-64516000D03*
X136017000Y-61849000D03*
X140462000Y-52959000D03*
X137160000Y-66421000D03*
X149606000Y-65151000D03*
X134493000Y-62484000D03*
X144018000Y-56134000D03*
X149987000Y-64516000D03*
X142621000Y-61849000D03*
X132842000Y-65151000D03*
X144018000Y-51689000D03*
X134493000Y-58039000D03*
X135763000Y-62484000D03*
X143256000Y-60452000D03*
X147066000Y-61849000D03*
X149606000Y-61849000D03*
X144018000Y-54864000D03*
X135128000Y-62484000D03*
X145796000Y-65151000D03*
X143891000Y-65151000D03*
X150241000Y-65151000D03*
X148336000Y-69088000D03*
X149352000Y-62484000D03*
X144272000Y-62484000D03*
X133223000Y-62484000D03*
X140462000Y-51689000D03*
X140462000Y-54229000D03*
X132588000Y-64516000D03*
X148336000Y-61849000D03*
X131953000Y-62484000D03*
X140462000Y-55499000D03*
X143891000Y-61849000D03*
X144018000Y-55499000D03*
X150622000Y-62484000D03*
X128397000Y-61849000D03*
X135382000Y-61849000D03*
X146177000Y-57912000D03*
X144018000Y-54229000D03*
X135382000Y-65151000D03*
X127889000Y-57531000D03*
X129032000Y-65151000D03*
X150241000Y-61849000D03*
X134493000Y-59309000D03*
X133350000Y-66802000D03*
X132207000Y-65151000D03*
X145542000Y-64516000D03*
X146812000Y-62484000D03*
X145161000Y-65151000D03*
X136652000Y-65151000D03*
X135128000Y-64516000D03*
X144526000Y-59436000D03*
X133350000Y-69977000D03*
X143002000Y-64516000D03*
X151511000Y-61849000D03*
X142621000Y-65913000D03*
X145161000Y-61849000D03*
X136398000Y-62484000D03*
X150876000Y-61849000D03*
X133985000Y-68326000D03*
X145542000Y-75311000D03*
X146050000Y-59690000D03*
X129032000Y-61849000D03*
X148971000Y-65151000D03*
X127508000Y-64516000D03*
X139700000Y-73914000D03*
X151257000Y-62484000D03*
X143002000Y-62484000D03*
X147701000Y-65151000D03*
X145161000Y-73660000D03*
X128143000Y-62484000D03*
X130937000Y-61849000D03*
X144526000Y-61849000D03*
X129667000Y-61849000D03*
X134493000Y-64516000D03*
X139700000Y-72009000D03*
X140462000Y-56134000D03*
X133604000Y-60452000D03*
X127762000Y-61849000D03*
X136017000Y-65151000D03*
X128778000Y-64516000D03*
X142621000Y-59055000D03*
X129667000Y-65151000D03*
X131318000Y-62484000D03*
X148336000Y-65151000D03*
X128143000Y-64516000D03*
X144018000Y-53594000D03*
X151130000Y-69215000D03*
X145034000Y-60579000D03*
X131318000Y-64516000D03*
X135128000Y-66802000D03*
X147066000Y-65151000D03*
X133223000Y-64516000D03*
X144018000Y-56769000D03*
X149352000Y-64516000D03*
X145542000Y-62484000D03*
X147447000Y-64516000D03*
X130302000Y-65151000D03*
X151892000Y-64516000D03*
X143637000Y-64516000D03*
X128397000Y-65151000D03*
X142240000Y-66421000D03*
X144018000Y-52959000D03*
X150622000Y-64516000D03*
X140462000Y-53594000D03*
X127508000Y-62484000D03*
X130683000Y-62484000D03*
X131572000Y-65151000D03*
X127762000Y-65151000D03*
X150622000Y-57785000D03*
X144907000Y-62484000D03*
X136398000Y-64516000D03*
X132588000Y-57658000D03*
X134112000Y-61849000D03*
X144272000Y-64516000D03*
X128778000Y-62484000D03*
X149987000Y-62484000D03*
X145415000Y-71501000D03*
X151257000Y-64516000D03*
X143256000Y-65151000D03*
X150876000Y-65151000D03*
X130810000Y-68961000D03*
X136779000Y-65786000D03*
X130683000Y-64516000D03*
X146177000Y-62484000D03*
X135712200Y-57683400D03*
X151892000Y-62484000D03*
X143637000Y-62484000D03*
X130048000Y-62484000D03*
X129413000Y-64516000D03*
X136220200Y-58293000D03*
X140462000Y-54864000D03*
X144526000Y-65151000D03*
X129413000Y-62484000D03*
X134493000Y-75311000D03*
X134112000Y-71882000D03*
X130937000Y-65151000D03*
X147828000Y-57785000D03*
X135763000Y-64516000D03*
X133477000Y-65151000D03*
X134112000Y-65151000D03*
X147701000Y-61849000D03*
X145923000Y-67056000D03*
X131572000Y-61849000D03*
X142621000Y-65151000D03*
X133858000Y-64516000D03*
X144018000Y-52324000D03*
X136652000Y-61849000D03*
X135382000Y-60452000D03*
X144145000Y-66802000D03*
X146431000Y-65151000D03*
X144272000Y-58039000D03*
X145796000Y-61849000D03*
X134747000Y-65151000D03*
X148082000Y-64516000D03*
X137414000Y-60579000D03*
X144907000Y-64516000D03*
X132207000Y-61849000D03*
X128270000Y-69215000D03*
X146812000Y-64516000D03*
X130175000Y-57531000D03*
X130302000Y-61849000D03*
X146431000Y-61849000D03*
X151511000Y-65151000D03*
X136220200Y-59309000D03*
X134747000Y-61849000D03*
%TD*%
%TA.AperFunction,Conductor*%
%TO.N,GND*%
G36*
X149228471Y-51054695D02*
G01*
X149268500Y-51056942D01*
X149545048Y-51072473D01*
X149558847Y-51074027D01*
X149823126Y-51118931D01*
X149868003Y-51126556D01*
X149881560Y-51129650D01*
X150182891Y-51216462D01*
X150196015Y-51221055D01*
X150485721Y-51341054D01*
X150498243Y-51347083D01*
X150649796Y-51430844D01*
X150772704Y-51498773D01*
X150784478Y-51506171D01*
X151040231Y-51687637D01*
X151051099Y-51696305D01*
X151284912Y-51905255D01*
X151294744Y-51915087D01*
X151503694Y-52148900D01*
X151512365Y-52159772D01*
X151693828Y-52415521D01*
X151701226Y-52427295D01*
X151852912Y-52701749D01*
X151858945Y-52714278D01*
X151978944Y-53003984D01*
X151983537Y-53017108D01*
X152070349Y-53318439D01*
X152073443Y-53331996D01*
X152125970Y-53641141D01*
X152127527Y-53654959D01*
X152145305Y-53971527D01*
X152145500Y-53978480D01*
X152145500Y-73021519D01*
X152145305Y-73028472D01*
X152127527Y-73345040D01*
X152125970Y-73358858D01*
X152073443Y-73668003D01*
X152070349Y-73681560D01*
X151983537Y-73982891D01*
X151978944Y-73996015D01*
X151858945Y-74285721D01*
X151852912Y-74298250D01*
X151701226Y-74572704D01*
X151693828Y-74584478D01*
X151512365Y-74840227D01*
X151503694Y-74851099D01*
X151294744Y-75084912D01*
X151284912Y-75094744D01*
X151051099Y-75303694D01*
X151040227Y-75312365D01*
X150784478Y-75493828D01*
X150772704Y-75501226D01*
X150498250Y-75652912D01*
X150485721Y-75658945D01*
X150196015Y-75778944D01*
X150182891Y-75783537D01*
X149881560Y-75870349D01*
X149868003Y-75873443D01*
X149558858Y-75925970D01*
X149545040Y-75927527D01*
X149228472Y-75945305D01*
X149221519Y-75945500D01*
X130178481Y-75945500D01*
X130171528Y-75945305D01*
X129854959Y-75927527D01*
X129841141Y-75925970D01*
X129531996Y-75873443D01*
X129518439Y-75870349D01*
X129217108Y-75783537D01*
X129203984Y-75778944D01*
X128914278Y-75658945D01*
X128901749Y-75652912D01*
X128627295Y-75501226D01*
X128615521Y-75493828D01*
X128359772Y-75312365D01*
X128348900Y-75303694D01*
X128115087Y-75094744D01*
X128105255Y-75084912D01*
X127896305Y-74851099D01*
X127887634Y-74840227D01*
X127706171Y-74584478D01*
X127698773Y-74572704D01*
X127547087Y-74298250D01*
X127541054Y-74285721D01*
X127421055Y-73996015D01*
X127416462Y-73982891D01*
X127329650Y-73681560D01*
X127326556Y-73668003D01*
X127302907Y-73528819D01*
X127274027Y-73358847D01*
X127272473Y-73345048D01*
X127254695Y-73028471D01*
X127254500Y-73021519D01*
X127254500Y-53978480D01*
X127254695Y-53971528D01*
X127263961Y-53806519D01*
X127272473Y-53654949D01*
X127274027Y-53641154D01*
X127326556Y-53331994D01*
X127329650Y-53318439D01*
X127416462Y-53017108D01*
X127421055Y-53003984D01*
X127497991Y-52818243D01*
X127541057Y-52714269D01*
X127547079Y-52701763D01*
X127698776Y-52427289D01*
X127706171Y-52415521D01*
X127887643Y-52159759D01*
X127896294Y-52148912D01*
X128105256Y-51915085D01*
X128115087Y-51905255D01*
X128348912Y-51696294D01*
X128359759Y-51687643D01*
X128615526Y-51506167D01*
X128627289Y-51498776D01*
X128901763Y-51347079D01*
X128914269Y-51341057D01*
X129203984Y-51221055D01*
X129217104Y-51216463D01*
X129518440Y-51129649D01*
X129531996Y-51126556D01*
X129841154Y-51074027D01*
X129854949Y-51072473D01*
X130134843Y-51056755D01*
X130171529Y-51054695D01*
X130178481Y-51054500D01*
X130219875Y-51054500D01*
X149180125Y-51054500D01*
X149221519Y-51054500D01*
X149228471Y-51054695D01*
G37*
%TD.AperFunction*%
%TD*%
M02*
