M48
; DRILL file {KiCad 8.0.0} date 2024-07-26T18:05:46-0400
; FORMAT={-:-/ absolute / inch / decimal}
; #@! TF.CreationDate,2024-07-26T18:05:46-04:00
; #@! TF.GenerationSoftware,Kicad,Pcbnew,8.0.0
; #@! TF.FileFunction,Plated,1,4,PTH
FMAT,2
INCH
; #@! TA.AperFunction,Plated,PTH,ViaDrill
T1C0.0118
; #@! TA.AperFunction,Plated,PTH,ComponentDrill
T2C0.0120
; #@! TA.AperFunction,Plated,PTH,ComponentDrill
T3C0.1285
%
G90
G05
T1
X5.02Y-2.46
X5.02Y-2.54
X5.03Y-2.435
X5.03Y-2.565
X5.035Y-2.265
X5.045Y-2.46
X5.045Y-2.54
X5.05Y-2.725
X5.055Y-2.435
X5.055Y-2.565
X5.07Y-2.46
X5.07Y-2.54
X5.08Y-2.435
X5.08Y-2.565
X5.095Y-2.46
X5.095Y-2.54
X5.105Y-2.435
X5.105Y-2.565
X5.12Y-2.46
X5.12Y-2.54
X5.125Y-2.265
X5.13Y-2.435
X5.13Y-2.565
X5.145Y-2.46
X5.145Y-2.54
X5.15Y-2.715
X5.155Y-2.435
X5.155Y-2.565
X5.17Y-2.46
X5.17Y-2.54
X5.18Y-2.435
X5.18Y-2.565
X5.195Y-2.46
X5.195Y-2.54
X5.205Y-2.435
X5.205Y-2.565
X5.22Y-2.27
X5.22Y-2.46
X5.22Y-2.54
X5.23Y-2.435
X5.23Y-2.565
X5.245Y-2.46
X5.245Y-2.54
X5.25Y-2.63
X5.25Y-2.755
X5.255Y-2.435
X5.255Y-2.565
X5.26Y-2.38
X5.27Y-2.46
X5.27Y-2.54
X5.275Y-2.69
X5.28Y-2.055
X5.28Y-2.13
X5.28Y-2.21
X5.28Y-2.435
X5.28Y-2.565
X5.28Y-2.83
X5.29Y-2.9
X5.295Y-2.285
X5.295Y-2.335
X5.295Y-2.46
X5.295Y-2.54
X5.295Y-2.965
X5.305Y-2.435
X5.305Y-2.565
X5.32Y-2.46
X5.32Y-2.54
X5.32Y-2.63
X5.33Y-2.38
X5.33Y-2.435
X5.33Y-2.565
X5.343Y-2.271
X5.345Y-2.46
X5.345Y-2.54
X5.355Y-2.435
X5.355Y-2.565
X5.363Y-2.295
X5.363Y-2.335
X5.37Y-2.46
X5.37Y-2.54
X5.38Y-2.435
X5.38Y-2.565
X5.385Y-2.59
X5.4Y-2.54
X5.4Y-2.615
X5.405Y-2.45
X5.41Y-2.385
X5.41Y-2.57
X5.445Y-2.4
X5.445Y-2.455
X5.445Y-2.565
X5.5Y-2.73
X5.5Y-2.835
X5.5Y-2.91
X5.53Y-2.035
X5.53Y-2.06
X5.53Y-2.085
X5.53Y-2.11
X5.53Y-2.135
X5.53Y-2.16
X5.53Y-2.185
X5.53Y-2.21
X5.53Y-2.235
X5.545Y-2.37
X5.555Y-2.455
X5.555Y-2.565
X5.56Y-2.405
X5.585Y-2.575
X5.59Y-2.45
X5.595Y-2.54
X5.6Y-2.615
X5.615Y-2.325
X5.615Y-2.435
X5.615Y-2.565
X5.615Y-2.595
X5.63Y-2.46
X5.63Y-2.54
X5.64Y-2.38
X5.64Y-2.435
X5.64Y-2.565
X5.655Y-2.46
X5.655Y-2.54
X5.665Y-2.435
X5.665Y-2.565
X5.67Y-2.035
X5.67Y-2.06
X5.67Y-2.085
X5.67Y-2.11
X5.67Y-2.135
X5.67Y-2.16
X5.67Y-2.185
X5.67Y-2.21
X5.67Y-2.235
X5.675Y-2.63
X5.68Y-2.285
X5.68Y-2.46
X5.68Y-2.54
X5.69Y-2.34
X5.69Y-2.435
X5.69Y-2.565
X5.705Y-2.46
X5.705Y-2.54
X5.71Y-2.385
X5.715Y-2.435
X5.715Y-2.565
X5.715Y-2.9
X5.725Y-2.815
X5.73Y-2.46
X5.73Y-2.54
X5.73Y-2.965
X5.74Y-2.435
X5.74Y-2.565
X5.745Y-2.64
X5.75Y-2.35
X5.755Y-2.28
X5.755Y-2.46
X5.755Y-2.54
X5.765Y-2.435
X5.765Y-2.565
X5.78Y-2.46
X5.78Y-2.54
X5.79Y-2.435
X5.79Y-2.565
X5.805Y-2.46
X5.805Y-2.54
X5.815Y-2.435
X5.815Y-2.565
X5.82Y-2.275
X5.83Y-2.46
X5.83Y-2.54
X5.84Y-2.435
X5.84Y-2.565
X5.84Y-2.72
X5.855Y-2.46
X5.855Y-2.54
X5.865Y-2.435
X5.865Y-2.565
X5.88Y-2.46
X5.88Y-2.54
X5.89Y-2.435
X5.89Y-2.565
X5.905Y-2.46
X5.905Y-2.54
X5.915Y-2.435
X5.915Y-2.565
X5.93Y-2.275
X5.93Y-2.46
X5.93Y-2.54
X5.94Y-2.435
X5.94Y-2.565
X5.95Y-2.725
X5.955Y-2.46
X5.955Y-2.54
X5.965Y-2.435
X5.965Y-2.565
X5.98Y-2.46
X5.98Y-2.54
T2
X5.475Y-2.485
X5.475Y-2.51
X5.475Y-2.535
X5.5Y-2.485
X5.5Y-2.51
X5.5Y-2.535
X5.525Y-2.485
X5.525Y-2.51
X5.525Y-2.535
T3
X5.125Y-2.125
X5.125Y-2.875
X5.875Y-2.125
X5.875Y-2.875
M30
