%TF.GenerationSoftware,KiCad,Pcbnew,8.0.0*%
%TF.CreationDate,2024-07-26T18:05:43-04:00*%
%TF.ProjectId,X-Band Amplifier HMC441,582d4261-6e64-4204-916d-706c69666965,v1.1*%
%TF.SameCoordinates,Original*%
%TF.FileFunction,Copper,L1,Top*%
%TF.FilePolarity,Positive*%
%FSLAX46Y46*%
G04 Gerber Fmt 4.6, Leading zero omitted, Abs format (unit mm)*
G04 Created by KiCad (PCBNEW 8.0.0) date 2024-07-26 18:05:43*
%MOMM*%
%LPD*%
G01*
G04 APERTURE LIST*
G04 Aperture macros list*
%AMRoundRect*
0 Rectangle with rounded corners*
0 $1 Rounding radius*
0 $2 $3 $4 $5 $6 $7 $8 $9 X,Y pos of 4 corners*
0 Add a 4 corners polygon primitive as box body*
4,1,4,$2,$3,$4,$5,$6,$7,$8,$9,$2,$3,0*
0 Add four circle primitives for the rounded corners*
1,1,$1+$1,$2,$3*
1,1,$1+$1,$4,$5*
1,1,$1+$1,$6,$7*
1,1,$1+$1,$8,$9*
0 Add four rect primitives between the rounded corners*
20,1,$1+$1,$2,$3,$4,$5,0*
20,1,$1+$1,$4,$5,$6,$7,0*
20,1,$1+$1,$6,$7,$8,$9,0*
20,1,$1+$1,$8,$9,$2,$3,0*%
G04 Aperture macros list end*
%TA.AperFunction,SMDPad,CuDef*%
%ADD10RoundRect,0.250000X-0.250000X-0.475000X0.250000X-0.475000X0.250000X0.475000X-0.250000X0.475000X0*%
%TD*%
%TA.AperFunction,SMDPad,CuDef*%
%ADD11R,0.711200X0.254000*%
%TD*%
%TA.AperFunction,SMDPad,CuDef*%
%ADD12R,0.254000X0.711200*%
%TD*%
%TA.AperFunction,ComponentPad*%
%ADD13C,0.508000*%
%TD*%
%TA.AperFunction,SMDPad,CuDef*%
%ADD14R,1.955800X1.955800*%
%TD*%
%TA.AperFunction,SMDPad,CuDef*%
%ADD15RoundRect,0.140000X-0.140000X-0.170000X0.140000X-0.170000X0.140000X0.170000X-0.140000X0.170000X0*%
%TD*%
%TA.AperFunction,SMDPad,CuDef*%
%ADD16RoundRect,0.087500X0.412500X-0.087500X0.412500X0.087500X-0.412500X0.087500X-0.412500X-0.087500X0*%
%TD*%
%TA.AperFunction,SMDPad,CuDef*%
%ADD17R,5.500000X4.000000*%
%TD*%
%TA.AperFunction,SMDPad,CuDef*%
%ADD18RoundRect,0.087500X-0.412500X0.087500X-0.412500X-0.087500X0.412500X-0.087500X0.412500X0.087500X0*%
%TD*%
%TA.AperFunction,ComponentPad*%
%ADD19C,5.562600*%
%TD*%
%TA.AperFunction,SMDPad,CuDef*%
%ADD20RoundRect,0.140000X0.140000X0.170000X-0.140000X0.170000X-0.140000X-0.170000X0.140000X-0.170000X0*%
%TD*%
%TA.AperFunction,ViaPad*%
%ADD21C,0.600000*%
%TD*%
%TA.AperFunction,Conductor*%
%ADD22C,0.635000*%
%TD*%
%TA.AperFunction,Conductor*%
%ADD23C,0.250000*%
%TD*%
%TA.AperFunction,Conductor*%
%ADD24C,0.400000*%
%TD*%
G04 APERTURE END LIST*
D10*
%TO.P,C1,1*%
%TO.N,GND*%
X137607000Y-59182000D03*
%TO.P,C1,2*%
%TO.N,VD*%
X139507000Y-59182000D03*
%TD*%
D11*
%TO.P,U1,1,GND*%
%TO.N,GND*%
X138201400Y-63003999D03*
%TO.P,U1,2,RFIN*%
%TO.N,Net-(J1-In)*%
X138201400Y-63504000D03*
%TO.P,U1,3,GND*%
%TO.N,GND*%
X138201400Y-64004000D03*
%TO.P,U1,4,GND*%
X138201400Y-64504001D03*
D12*
%TO.P,U1,5,GND*%
X138949999Y-65252600D03*
%TO.P,U1,6,VGG1*%
%TO.N,VGG1*%
X139450000Y-65252600D03*
%TO.P,U1,7,VGG2*%
%TO.N,VGG2*%
X139950000Y-65252600D03*
%TO.P,U1,8,GND*%
%TO.N,GND*%
X140450001Y-65252600D03*
D11*
%TO.P,U1,9,GND*%
X141198600Y-64504001D03*
%TO.P,U1,10,GND*%
X141198600Y-64004000D03*
%TO.P,U1,11,RFOUT*%
%TO.N,Net-(J2-In)*%
X141198600Y-63504000D03*
%TO.P,U1,12,GND*%
%TO.N,GND*%
X141198600Y-63003999D03*
D12*
%TO.P,U1,13,GND*%
X140450001Y-62255400D03*
%TO.P,U1,14,GND*%
X139950000Y-62255400D03*
%TO.P,U1,15,VDD*%
%TO.N,VD*%
X139450000Y-62255400D03*
%TO.P,U1,16,GND*%
%TO.N,GND*%
X138949999Y-62255400D03*
D13*
%TO.P,U1,17,GND*%
X139065000Y-63119000D03*
X139065000Y-63754000D03*
X139065000Y-64389000D03*
X139700000Y-63119000D03*
X139700000Y-63754000D03*
D14*
X139700000Y-63754000D03*
D13*
X139700000Y-64389000D03*
X140335000Y-63119000D03*
X140335000Y-63754000D03*
X140335000Y-64389000D03*
%TD*%
D15*
%TO.P,C4,1*%
%TO.N,VGG2*%
X140236000Y-66548000D03*
%TO.P,C4,2*%
%TO.N,GND*%
X141196000Y-66548000D03*
%TD*%
%TO.P,C3,1*%
%TO.N,GND*%
X138204000Y-66548000D03*
%TO.P,C3,2*%
%TO.N,VGG1*%
X139164000Y-66548000D03*
%TD*%
D16*
%TO.P,J2,1,In*%
%TO.N,Net-(J2-In)*%
X151850000Y-63500000D03*
D17*
%TO.P,J2,2,Ext*%
%TO.N,GND*%
X149600000Y-66135000D03*
X149600000Y-60865000D03*
%TD*%
D18*
%TO.P,J1,1,In*%
%TO.N,Net-(J1-In)*%
X127550000Y-63500000D03*
D17*
%TO.P,J1,2,Ext*%
%TO.N,GND*%
X129800000Y-60865000D03*
X129800000Y-66135000D03*
%TD*%
D19*
%TO.P,H2,1,1*%
%TO.N,GND*%
X149225000Y-53975000D03*
%TD*%
%TO.P,H3,1,1*%
%TO.N,GND*%
X130175000Y-73025000D03*
%TD*%
D20*
%TO.P,C2,1*%
%TO.N,GND*%
X140434000Y-61087000D03*
%TO.P,C2,2*%
%TO.N,VD*%
X139474000Y-61087000D03*
%TD*%
D19*
%TO.P,H4,1,1*%
%TO.N,GND*%
X149225000Y-73025000D03*
%TD*%
%TO.P,H1,1,1*%
%TO.N,GND*%
X130175000Y-53975000D03*
%TD*%
D21*
%TO.N,GND*%
X134366000Y-73660000D03*
X138303000Y-60960000D03*
X139700000Y-69342000D03*
X142113000Y-64516000D03*
X137160000Y-64516000D03*
X137287000Y-62230000D03*
X141986000Y-62230000D03*
X141859000Y-65405000D03*
X137414000Y-65278000D03*
X138303000Y-62357000D03*
X141097000Y-62357000D03*
X141097000Y-65151000D03*
X138303000Y-65151000D03*
X134112000Y-52197000D03*
X134112000Y-54102000D03*
X134112000Y-56134000D03*
X140843000Y-60198000D03*
X141224000Y-61087000D03*
X140462000Y-52324000D03*
X148082000Y-62484000D03*
X140462000Y-56769000D03*
X132588000Y-62484000D03*
X143256000Y-61849000D03*
X133858000Y-62484000D03*
X131953000Y-64516000D03*
X132842000Y-61849000D03*
X130048000Y-64516000D03*
X147447000Y-62484000D03*
X148717000Y-62484000D03*
X133477000Y-61849000D03*
X146177000Y-64516000D03*
X148971000Y-61849000D03*
X148717000Y-64516000D03*
X136017000Y-61849000D03*
X140462000Y-52959000D03*
X137160000Y-66421000D03*
X149606000Y-65151000D03*
X134493000Y-62484000D03*
X144018000Y-56134000D03*
X149987000Y-64516000D03*
X142621000Y-61849000D03*
X132842000Y-65151000D03*
X144018000Y-51689000D03*
X134493000Y-58039000D03*
X135763000Y-62484000D03*
X143256000Y-60452000D03*
X147066000Y-61849000D03*
X149606000Y-61849000D03*
X144018000Y-54864000D03*
X135128000Y-62484000D03*
X145796000Y-65151000D03*
X143891000Y-65151000D03*
X150241000Y-65151000D03*
X148336000Y-69088000D03*
X149352000Y-62484000D03*
X144272000Y-62484000D03*
X133223000Y-62484000D03*
X140462000Y-51689000D03*
X140462000Y-54229000D03*
X132588000Y-64516000D03*
X148336000Y-61849000D03*
X131953000Y-62484000D03*
X140462000Y-55499000D03*
X143891000Y-61849000D03*
X144018000Y-55499000D03*
X150622000Y-62484000D03*
X128397000Y-61849000D03*
X135382000Y-61849000D03*
X146177000Y-57912000D03*
X144018000Y-54229000D03*
X135382000Y-65151000D03*
X127889000Y-57531000D03*
X129032000Y-65151000D03*
X150241000Y-61849000D03*
X134493000Y-59309000D03*
X133350000Y-66802000D03*
X132207000Y-65151000D03*
X145542000Y-64516000D03*
X146812000Y-62484000D03*
X145161000Y-65151000D03*
X136652000Y-65151000D03*
X135128000Y-64516000D03*
X144526000Y-59436000D03*
X133350000Y-69977000D03*
X143002000Y-64516000D03*
X151511000Y-61849000D03*
X142621000Y-65913000D03*
X145161000Y-61849000D03*
X136398000Y-62484000D03*
X150876000Y-61849000D03*
X133985000Y-68326000D03*
X145542000Y-75311000D03*
X146050000Y-59690000D03*
X129032000Y-61849000D03*
X148971000Y-65151000D03*
X127508000Y-64516000D03*
X139700000Y-73914000D03*
X151257000Y-62484000D03*
X143002000Y-62484000D03*
X147701000Y-65151000D03*
X145161000Y-73660000D03*
X128143000Y-62484000D03*
X130937000Y-61849000D03*
X144526000Y-61849000D03*
X129667000Y-61849000D03*
X134493000Y-64516000D03*
X139700000Y-72009000D03*
X140462000Y-56134000D03*
X133604000Y-60452000D03*
X127762000Y-61849000D03*
X136017000Y-65151000D03*
X128778000Y-64516000D03*
X142621000Y-59055000D03*
X129667000Y-65151000D03*
X131318000Y-62484000D03*
X148336000Y-65151000D03*
X128143000Y-64516000D03*
X144018000Y-53594000D03*
X151130000Y-69215000D03*
X145034000Y-60579000D03*
X131318000Y-64516000D03*
X135128000Y-66802000D03*
X147066000Y-65151000D03*
X133223000Y-64516000D03*
X144018000Y-56769000D03*
X149352000Y-64516000D03*
X145542000Y-62484000D03*
X147447000Y-64516000D03*
X130302000Y-65151000D03*
X151892000Y-64516000D03*
X143637000Y-64516000D03*
X128397000Y-65151000D03*
X142240000Y-66421000D03*
X144018000Y-52959000D03*
X150622000Y-64516000D03*
X140462000Y-53594000D03*
X127508000Y-62484000D03*
X130683000Y-62484000D03*
X131572000Y-65151000D03*
X127762000Y-65151000D03*
X150622000Y-57785000D03*
X144907000Y-62484000D03*
X136398000Y-64516000D03*
X132588000Y-57658000D03*
X134112000Y-61849000D03*
X144272000Y-64516000D03*
X128778000Y-62484000D03*
X149987000Y-62484000D03*
X145415000Y-71501000D03*
X151257000Y-64516000D03*
X143256000Y-65151000D03*
X150876000Y-65151000D03*
X130810000Y-68961000D03*
X136779000Y-65786000D03*
X130683000Y-64516000D03*
X146177000Y-62484000D03*
X135712200Y-57683400D03*
X151892000Y-62484000D03*
X143637000Y-62484000D03*
X130048000Y-62484000D03*
X129413000Y-64516000D03*
X136220200Y-58293000D03*
X140462000Y-54864000D03*
X144526000Y-65151000D03*
X129413000Y-62484000D03*
X134493000Y-75311000D03*
X134112000Y-71882000D03*
X130937000Y-65151000D03*
X147828000Y-57785000D03*
X135763000Y-64516000D03*
X133477000Y-65151000D03*
X134112000Y-65151000D03*
X147701000Y-61849000D03*
X145923000Y-67056000D03*
X131572000Y-61849000D03*
X142621000Y-65151000D03*
X133858000Y-64516000D03*
X144018000Y-52324000D03*
X136652000Y-61849000D03*
X135382000Y-60452000D03*
X144145000Y-66802000D03*
X146431000Y-65151000D03*
X144272000Y-58039000D03*
X145796000Y-61849000D03*
X134747000Y-65151000D03*
X148082000Y-64516000D03*
X137414000Y-60579000D03*
X144907000Y-64516000D03*
X132207000Y-61849000D03*
X128270000Y-69215000D03*
X146812000Y-64516000D03*
X130175000Y-57531000D03*
X130302000Y-61849000D03*
X146431000Y-61849000D03*
X151511000Y-65151000D03*
X136220200Y-59309000D03*
X134747000Y-61849000D03*
%TD*%
D22*
%TO.N,VGG1*%
X137210800Y-69773800D02*
X137210800Y-70815200D01*
X139164000Y-67820600D02*
X137210800Y-69773800D01*
X139164000Y-66548000D02*
X139164000Y-67820600D01*
%TO.N,VGG2*%
X140236000Y-67846000D02*
X142290800Y-69900800D01*
X142290800Y-69900800D02*
X142290800Y-70612000D01*
X140236000Y-66548000D02*
X140236000Y-67846000D01*
D23*
%TO.N,GND*%
X138949999Y-64504001D02*
X139065000Y-64389000D01*
X138949999Y-65252600D02*
X138949999Y-64504001D01*
X140450001Y-65252600D02*
X140450001Y-64504001D01*
X140450001Y-64504001D02*
X140335000Y-64389000D01*
X141198600Y-64004000D02*
X140585000Y-64004000D01*
X140585000Y-64004000D02*
X140335000Y-63754000D01*
X140450001Y-63003999D02*
X140335000Y-63119000D01*
X141198600Y-63003999D02*
X140450001Y-63003999D01*
X138949999Y-63003999D02*
X139700000Y-63754000D01*
X138949999Y-62255400D02*
X138949999Y-63003999D01*
X139950000Y-62869000D02*
X139700000Y-63119000D01*
X139950000Y-62255400D02*
X139950000Y-62869000D01*
X138949999Y-63003999D02*
X139065000Y-63119000D01*
X138201400Y-63003999D02*
X138949999Y-63003999D01*
X138815000Y-64004000D02*
X139065000Y-63754000D01*
X138201400Y-64004000D02*
X138815000Y-64004000D01*
%TO.N,VGG2*%
X139950000Y-66262000D02*
X140236000Y-66548000D01*
X139950000Y-65252600D02*
X139950000Y-66262000D01*
%TO.N,VGG1*%
X139450000Y-66262000D02*
X139164000Y-66548000D01*
X139450000Y-65252600D02*
X139450000Y-66262000D01*
D22*
%TO.N,VD*%
X139192000Y-58039000D02*
X137414000Y-56261000D01*
X139507000Y-59182000D02*
X139507000Y-58354000D01*
X139507000Y-58354000D02*
X139192000Y-58039000D01*
X139474000Y-59215000D02*
X139507000Y-59182000D01*
X139474000Y-61087000D02*
X139474000Y-59215000D01*
D23*
X139450000Y-61111000D02*
X139474000Y-61087000D01*
X139450000Y-62255400D02*
X139450000Y-61111000D01*
%TO.N,Net-(J2-In)*%
X141202600Y-63500000D02*
X141198600Y-63504000D01*
X141732000Y-63500000D02*
X141202600Y-63500000D01*
D24*
X151850000Y-63500000D02*
X141732000Y-63500000D01*
D23*
%TO.N,Net-(J1-In)*%
X138197400Y-63500000D02*
X138201400Y-63504000D01*
D24*
X127550000Y-63500000D02*
X137668000Y-63500000D01*
D23*
X137668000Y-63500000D02*
X138197400Y-63500000D01*
%TD*%
%TA.AperFunction,Conductor*%
%TO.N,GND*%
G36*
X135422760Y-51074502D02*
G01*
X135469253Y-51128158D01*
X135479357Y-51198432D01*
X135469252Y-51232844D01*
X135416986Y-51347284D01*
X135397302Y-51414320D01*
X135397301Y-51414324D01*
X135397301Y-51414326D01*
X135397300Y-51414330D01*
X135376502Y-51558992D01*
X135376500Y-51559003D01*
X135376500Y-56645007D01*
X135388237Y-56754164D01*
X135399441Y-56805667D01*
X135434109Y-56909825D01*
X135513130Y-57032784D01*
X135513131Y-57032786D01*
X135558880Y-57085582D01*
X135558882Y-57085583D01*
X135558884Y-57085586D01*
X135669339Y-57181297D01*
X135748416Y-57217411D01*
X135802284Y-57242013D01*
X135802286Y-57242013D01*
X135802287Y-57242014D01*
X135869326Y-57261699D01*
X135869330Y-57261700D01*
X136014000Y-57282500D01*
X137367905Y-57282500D01*
X137436026Y-57302502D01*
X137457000Y-57319405D01*
X138586567Y-58448972D01*
X138620593Y-58511284D01*
X138618470Y-58573217D01*
X138609402Y-58604432D01*
X138609401Y-58604433D01*
X138606500Y-58641306D01*
X138606500Y-59722693D01*
X138609401Y-59759567D01*
X138609401Y-59759568D01*
X138655256Y-59917399D01*
X138696164Y-59986570D01*
X138738453Y-60058077D01*
X138756000Y-60122216D01*
X138756000Y-61157719D01*
X138783592Y-61296432D01*
X138783595Y-61296443D01*
X138790429Y-61312942D01*
X138799120Y-61346130D01*
X138803929Y-61386170D01*
X138803929Y-61386172D01*
X138858437Y-61524394D01*
X138898898Y-61577750D01*
X138924121Y-61644115D01*
X138924500Y-61653883D01*
X138924500Y-61845737D01*
X138922949Y-61865445D01*
X138922500Y-61868280D01*
X138922500Y-62642516D01*
X138937353Y-62736302D01*
X138994949Y-62849342D01*
X139084657Y-62939050D01*
X139123299Y-62958738D01*
X139197696Y-62996646D01*
X139291481Y-63011500D01*
X139608518Y-63011499D01*
X139702304Y-62996646D01*
X139815342Y-62939050D01*
X139905050Y-62849342D01*
X139962646Y-62736304D01*
X139977500Y-62642519D01*
X139977499Y-62230000D01*
X141097000Y-62230000D01*
X146558000Y-62230000D01*
X146558000Y-61341000D01*
X144018000Y-61341000D01*
X142290800Y-61341000D01*
X141097000Y-61722000D01*
X141097000Y-62230000D01*
X139977499Y-62230000D01*
X139977499Y-61868282D01*
X139977049Y-61865444D01*
X139975500Y-61845745D01*
X139975500Y-61717181D01*
X139995502Y-61649060D01*
X140001102Y-61641048D01*
X140089562Y-61524395D01*
X140144070Y-61386174D01*
X140148878Y-61346136D01*
X140157571Y-61312938D01*
X140164408Y-61296433D01*
X140192000Y-61157717D01*
X140192000Y-60194136D01*
X140212002Y-60126015D01*
X140228900Y-60105045D01*
X140275081Y-60058865D01*
X140358744Y-59917398D01*
X140404598Y-59759569D01*
X140407500Y-59722694D01*
X140407500Y-58641306D01*
X140404598Y-58604431D01*
X140358744Y-58446602D01*
X140275081Y-58305135D01*
X140275076Y-58305129D01*
X140245017Y-58275070D01*
X140210991Y-58212758D01*
X140210533Y-58210555D01*
X140197408Y-58144567D01*
X140197406Y-58144564D01*
X140197406Y-58144560D01*
X140145652Y-58019618D01*
X140143977Y-58014937D01*
X140064707Y-57896302D01*
X139649698Y-57481293D01*
X138971744Y-56803339D01*
X138937718Y-56741027D01*
X138936122Y-56696312D01*
X138943500Y-56645000D01*
X138943500Y-51559000D01*
X138931764Y-51449843D01*
X138920558Y-51398332D01*
X138885890Y-51294173D01*
X138856614Y-51248620D01*
X138836613Y-51180500D01*
X138856615Y-51112379D01*
X138910271Y-51065886D01*
X138962613Y-51054500D01*
X149180125Y-51054500D01*
X149221461Y-51054500D01*
X149228525Y-51054697D01*
X149544929Y-51072466D01*
X149558965Y-51074047D01*
X149867904Y-51126539D01*
X149881662Y-51129679D01*
X150182784Y-51216431D01*
X150196118Y-51221097D01*
X150485619Y-51341012D01*
X150498349Y-51347143D01*
X150772602Y-51498717D01*
X150784567Y-51506234D01*
X151040132Y-51687567D01*
X151051179Y-51696377D01*
X151284828Y-51905180D01*
X151294819Y-51915171D01*
X151503622Y-52148820D01*
X151512432Y-52159867D01*
X151693765Y-52415432D01*
X151701282Y-52427397D01*
X151852856Y-52701650D01*
X151858987Y-52714380D01*
X151978902Y-53003881D01*
X151983569Y-53017218D01*
X152070318Y-53318329D01*
X152073462Y-53332104D01*
X152125951Y-53641032D01*
X152127533Y-53655073D01*
X152145302Y-53971474D01*
X152145500Y-53978539D01*
X152145500Y-62793289D01*
X152125498Y-62861410D01*
X152071842Y-62907903D01*
X152001568Y-62918007D01*
X151986890Y-62914996D01*
X151929057Y-62899500D01*
X141652943Y-62899500D01*
X141500216Y-62940423D01*
X141500215Y-62940423D01*
X141500213Y-62940424D01*
X141470431Y-62957619D01*
X141407431Y-62974500D01*
X141279517Y-62974500D01*
X141279501Y-62974499D01*
X141271783Y-62974499D01*
X141133417Y-62974499D01*
X141133415Y-62974499D01*
X141126393Y-62975423D01*
X141109955Y-62976500D01*
X140811483Y-62976500D01*
X140717697Y-62991353D01*
X140604657Y-63048949D01*
X140514949Y-63138657D01*
X140457355Y-63251694D01*
X140457354Y-63251696D01*
X140448484Y-63307701D01*
X140442500Y-63345484D01*
X140442500Y-63662516D01*
X140457353Y-63756302D01*
X140514949Y-63869342D01*
X140604657Y-63959050D01*
X140643299Y-63978738D01*
X140717696Y-64016646D01*
X140811481Y-64031500D01*
X141417821Y-64031499D01*
X141480821Y-64048380D01*
X141500211Y-64059575D01*
X141500213Y-64059575D01*
X141500216Y-64059577D01*
X141652943Y-64100500D01*
X141652945Y-64100500D01*
X151929056Y-64100500D01*
X151929057Y-64100500D01*
X151986888Y-64085004D01*
X152057864Y-64086693D01*
X152116660Y-64126486D01*
X152144609Y-64191750D01*
X152145500Y-64206710D01*
X152145500Y-73021460D01*
X152145302Y-73028525D01*
X152127533Y-73344926D01*
X152125951Y-73358967D01*
X152073462Y-73667895D01*
X152070318Y-73681670D01*
X151983569Y-73982781D01*
X151978902Y-73996118D01*
X151858987Y-74285619D01*
X151852856Y-74298349D01*
X151701282Y-74572602D01*
X151693765Y-74584567D01*
X151512432Y-74840132D01*
X151503622Y-74851179D01*
X151294819Y-75084828D01*
X151284828Y-75094819D01*
X151051179Y-75303622D01*
X151040132Y-75312432D01*
X150784567Y-75493765D01*
X150772602Y-75501282D01*
X150498349Y-75652856D01*
X150485619Y-75658987D01*
X150196118Y-75778902D01*
X150182781Y-75783569D01*
X149881670Y-75870318D01*
X149867895Y-75873462D01*
X149558967Y-75925951D01*
X149544926Y-75927533D01*
X149228526Y-75945302D01*
X149221461Y-75945500D01*
X144045361Y-75945500D01*
X143977240Y-75925498D01*
X143930747Y-75871842D01*
X143920643Y-75801568D01*
X143930748Y-75767156D01*
X143983013Y-75652715D01*
X143983014Y-75652713D01*
X144002699Y-75585674D01*
X144002700Y-75585670D01*
X144023500Y-75441000D01*
X144023500Y-70355000D01*
X144011764Y-70245843D01*
X144000558Y-70194332D01*
X143965890Y-70090173D01*
X143886871Y-69967218D01*
X143886870Y-69967217D01*
X143886869Y-69967215D01*
X143886868Y-69967213D01*
X143841119Y-69914417D01*
X143824347Y-69899884D01*
X143730661Y-69818703D01*
X143597715Y-69757986D01*
X143530679Y-69738302D01*
X143530675Y-69738301D01*
X143530672Y-69738300D01*
X143530670Y-69738300D01*
X143386000Y-69717500D01*
X143385996Y-69717500D01*
X143076222Y-69717500D01*
X143008101Y-69697498D01*
X142961608Y-69643842D01*
X142959825Y-69639747D01*
X142958788Y-69637242D01*
X142927084Y-69560699D01*
X142848507Y-69443102D01*
X142848504Y-69443099D01*
X142848502Y-69443096D01*
X140990905Y-67585499D01*
X140956879Y-67523187D01*
X140954000Y-67496404D01*
X140954000Y-66477284D01*
X140953999Y-66477280D01*
X140926408Y-66338567D01*
X140919571Y-66322061D01*
X140910878Y-66288868D01*
X140906070Y-66248826D01*
X140851562Y-66110605D01*
X140761785Y-65992214D01*
X140683722Y-65933019D01*
X140643395Y-65902438D01*
X140643393Y-65902437D01*
X140643394Y-65902437D01*
X140555276Y-65867688D01*
X140499243Y-65824090D01*
X140475675Y-65757119D01*
X140475500Y-65750473D01*
X140475500Y-65662263D01*
X140477051Y-65642553D01*
X140477052Y-65642548D01*
X140477500Y-65639719D01*
X140477499Y-64865482D01*
X140462646Y-64771696D01*
X140433848Y-64715177D01*
X140405050Y-64658657D01*
X140315342Y-64568949D01*
X140239502Y-64530307D01*
X140202304Y-64511354D01*
X140108519Y-64496500D01*
X140108515Y-64496500D01*
X139791482Y-64496500D01*
X139719709Y-64507867D01*
X139680292Y-64507867D01*
X139623598Y-64498888D01*
X139608519Y-64496500D01*
X139608518Y-64496500D01*
X139291483Y-64496500D01*
X139197697Y-64511353D01*
X139084657Y-64568949D01*
X138994949Y-64658657D01*
X138937355Y-64771694D01*
X138937354Y-64771696D01*
X138922500Y-64865481D01*
X138922500Y-64865484D01*
X138922500Y-65639718D01*
X138922949Y-65642548D01*
X138924500Y-65662255D01*
X138924500Y-65750473D01*
X138904498Y-65818594D01*
X138850842Y-65865087D01*
X138844724Y-65867688D01*
X138756605Y-65902437D01*
X138638214Y-65992214D01*
X138548437Y-66110605D01*
X138493929Y-66248828D01*
X138489120Y-66288869D01*
X138480432Y-66322051D01*
X138473590Y-66338571D01*
X138446000Y-66477277D01*
X138446000Y-67471004D01*
X138425998Y-67539125D01*
X138409095Y-67560099D01*
X136653097Y-69316096D01*
X136653095Y-69316098D01*
X136574516Y-69433699D01*
X136542811Y-69510242D01*
X136521912Y-69560698D01*
X136520392Y-69564367D01*
X136510690Y-69613146D01*
X136510106Y-69616081D01*
X136477199Y-69678991D01*
X136415504Y-69714123D01*
X136386527Y-69717500D01*
X136013992Y-69717500D01*
X135920104Y-69727595D01*
X135904843Y-69729236D01*
X135904841Y-69729236D01*
X135904835Y-69729237D01*
X135853332Y-69740441D01*
X135749174Y-69775109D01*
X135626215Y-69854130D01*
X135626213Y-69854131D01*
X135573417Y-69899880D01*
X135477704Y-70010337D01*
X135477703Y-70010338D01*
X135416986Y-70143284D01*
X135397302Y-70210320D01*
X135397301Y-70210324D01*
X135397301Y-70210326D01*
X135397300Y-70210330D01*
X135376502Y-70354992D01*
X135376500Y-70355003D01*
X135376500Y-75441007D01*
X135388237Y-75550164D01*
X135399441Y-75601667D01*
X135434109Y-75705825D01*
X135463385Y-75751379D01*
X135483387Y-75819500D01*
X135463385Y-75887621D01*
X135409729Y-75934114D01*
X135357387Y-75945500D01*
X130178539Y-75945500D01*
X130171474Y-75945302D01*
X129855073Y-75927533D01*
X129841032Y-75925951D01*
X129532104Y-75873462D01*
X129518329Y-75870318D01*
X129217218Y-75783569D01*
X129203881Y-75778902D01*
X128914380Y-75658987D01*
X128901650Y-75652856D01*
X128627397Y-75501282D01*
X128615432Y-75493765D01*
X128359867Y-75312432D01*
X128348820Y-75303622D01*
X128115171Y-75094819D01*
X128105180Y-75084828D01*
X127896377Y-74851179D01*
X127887567Y-74840132D01*
X127706234Y-74584567D01*
X127698717Y-74572602D01*
X127547143Y-74298349D01*
X127541012Y-74285619D01*
X127421097Y-73996118D01*
X127416430Y-73982781D01*
X127329681Y-73681670D01*
X127326539Y-73667904D01*
X127274047Y-73358965D01*
X127272466Y-73344926D01*
X127254698Y-73028525D01*
X127254500Y-73021460D01*
X127254500Y-64206710D01*
X127274502Y-64138589D01*
X127328158Y-64092096D01*
X127398432Y-64081992D01*
X127413109Y-64085003D01*
X127470943Y-64100500D01*
X127470944Y-64100500D01*
X137747055Y-64100500D01*
X137747057Y-64100500D01*
X137899784Y-64059577D01*
X137919176Y-64048380D01*
X137982177Y-64031499D01*
X138588516Y-64031499D01*
X138588518Y-64031499D01*
X138682304Y-64016646D01*
X138795342Y-63959050D01*
X138885050Y-63869342D01*
X138942646Y-63756304D01*
X138957500Y-63662519D01*
X138957499Y-63345482D01*
X138942646Y-63251696D01*
X138904190Y-63176222D01*
X138885050Y-63138657D01*
X138795342Y-63048949D01*
X138719502Y-63010307D01*
X138682304Y-62991354D01*
X138588519Y-62976500D01*
X138588516Y-62976500D01*
X138290043Y-62976500D01*
X138273601Y-62975423D01*
X138266584Y-62974499D01*
X138266583Y-62974499D01*
X138128217Y-62974499D01*
X138120499Y-62974499D01*
X138120483Y-62974500D01*
X137992569Y-62974500D01*
X137929569Y-62957619D01*
X137899786Y-62940424D01*
X137899785Y-62940423D01*
X137899784Y-62940423D01*
X137747057Y-62899500D01*
X127470943Y-62899500D01*
X127470942Y-62899500D01*
X127413110Y-62914996D01*
X127342134Y-62913306D01*
X127283338Y-62873511D01*
X127255391Y-62808247D01*
X127254500Y-62793289D01*
X127254500Y-53978539D01*
X127254698Y-53971474D01*
X127272466Y-53655073D01*
X127274048Y-53641032D01*
X127302907Y-53471181D01*
X127326539Y-53332091D01*
X127329678Y-53318341D01*
X127416432Y-53017209D01*
X127421094Y-53003889D01*
X127541014Y-52714375D01*
X127547143Y-52701650D01*
X127698717Y-52427397D01*
X127706229Y-52415439D01*
X127887573Y-52159859D01*
X127896370Y-52148827D01*
X128105180Y-51915170D01*
X128115171Y-51905180D01*
X128348827Y-51696370D01*
X128359859Y-51687573D01*
X128615439Y-51506229D01*
X128627397Y-51498717D01*
X128901650Y-51347143D01*
X128914375Y-51341014D01*
X129203889Y-51221094D01*
X129217209Y-51216432D01*
X129518341Y-51129678D01*
X129532091Y-51126539D01*
X129841036Y-51074047D01*
X129855068Y-51072466D01*
X130171474Y-51054697D01*
X130178539Y-51054500D01*
X130219875Y-51054500D01*
X135354639Y-51054500D01*
X135422760Y-51074502D01*
G37*
%TD.AperFunction*%
%TA.AperFunction,Conductor*%
G36*
X139731333Y-68372839D02*
G01*
X139776395Y-68401800D01*
X140925429Y-69550834D01*
X140959455Y-69613146D01*
X140954390Y-69683961D01*
X140911843Y-69740797D01*
X140876128Y-69759480D01*
X140829176Y-69775108D01*
X140706215Y-69854130D01*
X140706213Y-69854131D01*
X140653417Y-69899880D01*
X140557704Y-70010337D01*
X140557703Y-70010338D01*
X140496986Y-70143284D01*
X140477302Y-70210320D01*
X140477301Y-70210324D01*
X140477301Y-70210326D01*
X140477300Y-70210330D01*
X140456502Y-70354992D01*
X140456500Y-70355003D01*
X140456500Y-75441007D01*
X140468237Y-75550164D01*
X140479441Y-75601667D01*
X140514109Y-75705825D01*
X140543385Y-75751379D01*
X140563387Y-75819500D01*
X140543385Y-75887621D01*
X140489729Y-75934114D01*
X140437387Y-75945500D01*
X138965361Y-75945500D01*
X138897240Y-75925498D01*
X138850747Y-75871842D01*
X138840643Y-75801568D01*
X138850748Y-75767156D01*
X138903013Y-75652715D01*
X138903014Y-75652713D01*
X138922699Y-75585674D01*
X138922700Y-75585670D01*
X138943500Y-75441000D01*
X138943500Y-70355000D01*
X138931764Y-70245843D01*
X138920558Y-70194332D01*
X138885890Y-70090173D01*
X138806871Y-69967218D01*
X138806870Y-69967217D01*
X138806869Y-69967215D01*
X138806868Y-69967213D01*
X138761119Y-69914417D01*
X138744347Y-69899884D01*
X138650661Y-69818703D01*
X138517715Y-69757986D01*
X138508346Y-69755235D01*
X138448623Y-69716847D01*
X138419134Y-69652264D01*
X138429243Y-69581990D01*
X138454755Y-69545249D01*
X139598205Y-68401800D01*
X139660517Y-68367774D01*
X139731333Y-68372839D01*
G37*
%TD.AperFunction*%
%TD*%
%TA.AperFunction,Conductor*%
%TO.N,VD*%
G36*
X138373039Y-51454685D02*
G01*
X138418794Y-51507489D01*
X138430000Y-51559000D01*
X138430000Y-56645000D01*
X138410315Y-56712039D01*
X138357511Y-56757794D01*
X138306000Y-56769000D01*
X136014000Y-56769000D01*
X135946961Y-56749315D01*
X135901206Y-56696511D01*
X135890000Y-56645000D01*
X135890000Y-51559000D01*
X135909685Y-51491961D01*
X135962489Y-51446206D01*
X136014000Y-51435000D01*
X138306000Y-51435000D01*
X138373039Y-51454685D01*
G37*
%TD.AperFunction*%
%TD*%
%TA.AperFunction,Conductor*%
%TO.N,GND*%
G36*
X146558000Y-62230000D02*
G01*
X141097000Y-62230000D01*
X141097000Y-61722000D01*
X142290800Y-61341000D01*
X144018000Y-61341000D01*
X146558000Y-61341000D01*
X146558000Y-62230000D01*
G37*
%TD.AperFunction*%
%TD*%
%TA.AperFunction,Conductor*%
%TO.N,VGG1*%
G36*
X138373039Y-70250685D02*
G01*
X138418794Y-70303489D01*
X138430000Y-70355000D01*
X138430000Y-75441000D01*
X138410315Y-75508039D01*
X138357511Y-75553794D01*
X138306000Y-75565000D01*
X136014000Y-75565000D01*
X135946961Y-75545315D01*
X135901206Y-75492511D01*
X135890000Y-75441000D01*
X135890000Y-70355000D01*
X135909685Y-70287961D01*
X135962489Y-70242206D01*
X136014000Y-70231000D01*
X138306000Y-70231000D01*
X138373039Y-70250685D01*
G37*
%TD.AperFunction*%
%TD*%
%TA.AperFunction,Conductor*%
%TO.N,VGG2*%
G36*
X143453039Y-70250685D02*
G01*
X143498794Y-70303489D01*
X143510000Y-70355000D01*
X143510000Y-75441000D01*
X143490315Y-75508039D01*
X143437511Y-75553794D01*
X143386000Y-75565000D01*
X141094000Y-75565000D01*
X141026961Y-75545315D01*
X140981206Y-75492511D01*
X140970000Y-75441000D01*
X140970000Y-70355000D01*
X140989685Y-70287961D01*
X141042489Y-70242206D01*
X141094000Y-70231000D01*
X143386000Y-70231000D01*
X143453039Y-70250685D01*
G37*
%TD.AperFunction*%
%TD*%
M02*
