M48
; DRILL file {KiCad 8.0.1} date 2024-04-20T11:29:00-0400
; FORMAT={-:-/ absolute / inch / decimal}
; #@! TF.CreationDate,2024-04-20T11:29:00-04:00
; #@! TF.GenerationSoftware,Kicad,Pcbnew,8.0.1
; #@! TF.FileFunction,Plated,1,4,PTH
FMAT,2
INCH
; #@! TA.AperFunction,Plated,PTH,ViaDrill
T1C0.0118
; #@! TA.AperFunction,Plated,PTH,ComponentDrill
T2C0.0157
; #@! TA.AperFunction,Plated,PTH,ComponentDrill
T3C0.0236
; #@! TA.AperFunction,Plated,PTH,ComponentDrill
T4C0.0394
; #@! TA.AperFunction,Plated,PTH,ComponentDrill
T5C0.0591
; #@! TA.AperFunction,Plated,PTH,ComponentDrill
T6C0.0669
; #@! TA.AperFunction,Plated,PTH,ComponentDrill
T7C0.1285
%
G90
G05
T1
X0.975Y-1.25
X0.975Y-1.45
X0.975Y-2.025
X0.975Y-2.25
X0.975Y-2.775
X0.975Y-3.0
X0.975Y-3.5
X0.975Y-3.75
X1.07Y-2.9
X1.0827Y-3.8189
X1.1024Y-3.4252
X1.122Y-1.2008
X1.122Y-1.5354
X1.122Y-3.1102
X1.1417Y-4.1732
X1.1614Y-1.8701
X1.175Y-3.85
X1.18Y-1.4
X1.1811Y-4.0748
X1.195Y-1.805
X1.2008Y-0.9055
X1.2402Y-3.8976
X1.27Y-1.26
X1.285Y-1.51
X1.295Y-0.935
X1.315Y-1.82
X1.34Y-1.26
X1.375Y-2.175
X1.38Y-1.455
X1.385Y-0.935
X1.39Y-0.755
X1.415Y-3.885
X1.425Y-1.285
X1.425Y-4.255
X1.44Y-1.815
X1.45Y-3.35
X1.47Y-1.375
X1.48Y-3.605
X1.48Y-4.25
X1.495Y-0.955
X1.495Y-1.04
X1.495Y-1.715
X1.5Y-1.15
X1.5Y-2.8
X1.52Y-3.85
X1.535Y-1.6
X1.555Y-3.515
X1.6Y-2.6
X1.625Y-1.975
X1.625Y-3.15
X1.625Y-3.35
X1.625Y-3.775
X1.625Y-4.325
X1.67Y-1.28
X1.7Y-1.01
X1.7Y-2.8
X1.71Y-3.67
X1.72Y-3.905
X1.73Y-3.35
X1.735Y-3.01
X1.76Y-0.785
X1.76Y-3.43
X1.765Y-3.795
X1.7665Y-3.6528
X1.775Y-1.505
X1.775Y-4.0
X1.785Y-1.335
X1.8173Y-3.22
X1.825Y-3.775
X1.8373Y-2.96
X1.86Y-2.9122
X1.875Y-3.5
X1.875Y-3.7
X1.9Y-1.4
X1.9Y-1.55
X1.925Y-4.0
X1.9598Y-3.1475
X1.9601Y-3.1855
X1.9721Y-3.0487
X1.975Y-3.6
X2.0Y-0.855
X2.005Y-1.055
X2.03Y-3.715
X2.065Y-1.435
X2.075Y-4.0
X2.075Y-4.31
X2.08Y-3.05
X2.12Y-1.435
X2.15Y-3.48
X2.155Y-3.19
X2.17Y-1.435
X2.175Y-1.355
X2.175Y-3.525
X2.1751Y-3.3233
X2.1941Y-2.9241
X2.195Y-3.275
X2.1967Y-3.1962
X2.2047Y-1.9094
X2.225Y-3.27
X2.225Y-4.0
X2.225Y-4.305
X2.2294Y-3.1891
X2.23Y-3.53
X2.245Y-1.29
X2.2458Y-3.1599
X2.2574Y-3.1285
X2.26Y-3.265
X2.275Y-3.355
X2.28Y-0.79
X2.2921Y-3.1175
X2.3Y-3.99
X2.305Y-1.33
X2.31Y-3.86
X2.3132Y-3.3332
X2.3235Y-3.115
X2.34Y-1.06
X2.35Y-3.515
X2.355Y-3.115
X2.36Y-1.35
X2.3617Y-3.3833
X2.365Y-2.22
X2.375Y-3.715
X2.375Y-4.0
X2.38Y-3.415
X2.4009Y-3.3817
X2.4044Y-3.2883
X2.41Y-3.99
X2.415Y-3.815
X2.415Y-3.895
X2.4196Y-1.3004
X2.42Y-3.315
X2.42Y-3.65
X2.42Y-3.69
X2.45Y-4.0
X2.455Y-3.855
X2.47Y-3.145
X2.47Y-3.265
X2.475Y-4.16
X2.49Y-3.24
X2.4923Y-1.875
X2.495Y-1.33
X2.495Y-3.815
X2.495Y-3.895
X2.5286Y-3.18
X2.545Y-4.16
X2.56Y-3.425
X2.61Y-3.7
X2.615Y-4.16
X2.6225Y-4.25
X2.6225Y-4.28
X2.63Y-3.055
X2.64Y-0.715
X2.655Y-3.96
X2.6575Y-4.25
X2.6575Y-4.28
X2.7Y-3.4
X2.73Y-3.04
X2.76Y-4.035
X2.795Y-3.89
X2.87Y-4.25
X2.88Y-3.595
X2.9134Y-3.4449
X2.975Y-4.125
X3.125Y-3.4
T2
X2.9665Y-3.7079
X2.9665Y-3.7413
X2.9665Y-3.7748
X2.9665Y-3.8083
X2.9665Y-3.8417
X2.9665Y-3.8752
X2.9665Y-3.9087
X2.9665Y-3.9421
X3.0197Y-3.7079
X3.0197Y-3.7413
X3.0197Y-3.7748
X3.0197Y-3.8083
X3.0197Y-3.8417
X3.0197Y-3.8752
X3.0197Y-3.9087
X3.0197Y-3.9421
T4
X1.9898Y-2.5506
X1.9898Y-2.6506
X1.9898Y-2.7506
X2.0898Y-2.5506
X2.0898Y-2.6506
X2.0898Y-2.7506
X2.2748Y-2.5506
X2.2748Y-2.6506
X2.2748Y-2.7506
X2.3748Y-2.5506
X2.3748Y-2.6506
X2.3748Y-2.7506
X2.8796Y-1.125
X2.8796Y-1.225
X2.8796Y-1.325
X2.8796Y-1.425
X2.8796Y-1.525
X2.8796Y-1.625
X2.8796Y-1.725
X2.8796Y-1.825
X2.8796Y-2.35
X2.8796Y-2.45
X2.8796Y-2.55
X2.8796Y-2.65
X2.8796Y-2.75
X2.8796Y-2.85
X2.8796Y-2.95
X2.8796Y-3.05
X2.9796Y-1.125
X2.9796Y-1.225
X2.9796Y-1.325
X2.9796Y-1.425
X2.9796Y-1.525
X2.9796Y-1.625
X2.9796Y-1.725
X2.9796Y-1.825
X2.9796Y-2.35
X2.9796Y-2.45
X2.9796Y-2.55
X2.9796Y-2.65
X2.9796Y-2.75
X2.9796Y-2.85
X2.9796Y-2.95
X2.9796Y-3.05
T5
X1.25Y-3.625
T6
X1.15Y-3.525
X1.15Y-3.725
X1.35Y-3.525
X1.35Y-3.725
T7
X1.05Y-0.7
X1.05Y-4.3
X3.05Y-0.7
X3.05Y-4.3
T3
G00X2.9756Y-3.6547
M15
G01X3.0346Y-3.6547
M16
G05
G00X2.9756Y-3.9953
M15
G01X3.0346Y-3.9953
M16
G05
G00X3.1224Y-3.6547
M15
G01X3.1539Y-3.6547
M16
G05
G00X3.1224Y-3.9953
M15
G01X3.1539Y-3.9953
M16
G05
M30
