%TF.GenerationSoftware,KiCad,Pcbnew,8.0.1*%
%TF.CreationDate,2024-04-20T11:28:48-04:00*%
%TF.ProjectId,Bridge_Controller,42726964-6765-45f4-936f-6e74726f6c6c,v1.0*%
%TF.SameCoordinates,Original*%
%TF.FileFunction,Copper,L4,Bot*%
%TF.FilePolarity,Positive*%
%FSLAX46Y46*%
G04 Gerber Fmt 4.6, Leading zero omitted, Abs format (unit mm)*
G04 Created by KiCad (PCBNEW 8.0.1) date 2024-04-20 11:28:48*
%MOMM*%
%LPD*%
G01*
G04 APERTURE LIST*
G04 Aperture macros list*
%AMRoundRect*
0 Rectangle with rounded corners*
0 $1 Rounding radius*
0 $2 $3 $4 $5 $6 $7 $8 $9 X,Y pos of 4 corners*
0 Add a 4 corners polygon primitive as box body*
4,1,4,$2,$3,$4,$5,$6,$7,$8,$9,$2,$3,0*
0 Add four circle primitives for the rounded corners*
1,1,$1+$1,$2,$3*
1,1,$1+$1,$4,$5*
1,1,$1+$1,$6,$7*
1,1,$1+$1,$8,$9*
0 Add four rect primitives between the rounded corners*
20,1,$1+$1,$2,$3,$4,$5,0*
20,1,$1+$1,$4,$5,$6,$7,0*
20,1,$1+$1,$6,$7,$8,$9,0*
20,1,$1+$1,$8,$9,$2,$3,0*%
G04 Aperture macros list end*
%TA.AperFunction,SMDPad,CuDef*%
%ADD10R,4.200000X1.350000*%
%TD*%
%TA.AperFunction,ComponentPad*%
%ADD11R,1.700000X1.700000*%
%TD*%
%TA.AperFunction,ComponentPad*%
%ADD12O,1.700000X1.700000*%
%TD*%
%TA.AperFunction,ComponentPad*%
%ADD13RoundRect,0.250000X0.600000X0.600000X-0.600000X0.600000X-0.600000X-0.600000X0.600000X-0.600000X0*%
%TD*%
%TA.AperFunction,ComponentPad*%
%ADD14C,1.700000*%
%TD*%
%TA.AperFunction,ComponentPad*%
%ADD15C,5.562600*%
%TD*%
%TA.AperFunction,ComponentPad*%
%ADD16C,0.700000*%
%TD*%
%TA.AperFunction,ComponentPad*%
%ADD17O,2.400000X0.900000*%
%TD*%
%TA.AperFunction,ComponentPad*%
%ADD18O,1.700000X0.900000*%
%TD*%
%TA.AperFunction,ComponentPad*%
%ADD19C,2.050000*%
%TD*%
%TA.AperFunction,ComponentPad*%
%ADD20C,2.250000*%
%TD*%
%TA.AperFunction,ViaPad*%
%ADD21C,0.600000*%
%TD*%
%TA.AperFunction,Conductor*%
%ADD22C,0.200000*%
%TD*%
%TA.AperFunction,Conductor*%
%ADD23C,0.254000*%
%TD*%
G04 APERTURE END LIST*
D10*
%TO.P,J8,2,Ext*%
%TO.N,GND*%
X24982500Y-60675000D03*
X24982500Y-66325000D03*
%TD*%
D11*
%TO.P,J1,1,DATA*%
%TO.N,UPDI*%
X57780000Y-64785000D03*
D12*
%TO.P,J1,2,VCC*%
%TO.N,+5V*%
X60320000Y-64785000D03*
%TO.P,J1,3,NC*%
%TO.N,unconnected-(J1-NC-Pad3)*%
X57780000Y-67325000D03*
%TO.P,J1,4,NC*%
%TO.N,unconnected-(J1-NC-Pad4)*%
X60320000Y-67325000D03*
%TO.P,J1,5,NC*%
%TO.N,unconnected-(J1-NC-Pad5)*%
X57780000Y-69865000D03*
%TO.P,J1,6,GND*%
%TO.N,GND*%
X60320000Y-69865000D03*
%TD*%
D10*
%TO.P,J11,2,Ext*%
%TO.N,GND*%
X24982500Y-41625000D03*
X24982500Y-47275000D03*
%TD*%
D13*
%TO.P,J2,1,Pin_1*%
%TO.N,PG0*%
X75682500Y-46355000D03*
D14*
%TO.P,J2,2,Pin_2*%
%TO.N,PG1*%
X73142500Y-46355000D03*
%TO.P,J2,3,Pin_3*%
%TO.N,PG2*%
X75682500Y-43815000D03*
%TO.P,J2,4,Pin_4*%
%TO.N,PG3*%
X73142500Y-43815000D03*
%TO.P,J2,5,Pin_5*%
%TO.N,PG4*%
X75682500Y-41275000D03*
%TO.P,J2,6,Pin_6*%
%TO.N,GND*%
X73142500Y-41275000D03*
%TO.P,J2,7,Pin_7*%
%TO.N,PG5*%
X75682500Y-38735000D03*
%TO.P,J2,8,Pin_8*%
%TO.N,GND*%
X73142500Y-38735000D03*
%TO.P,J2,9,Pin_9*%
%TO.N,PG6*%
X75682500Y-36195000D03*
%TO.P,J2,10,Pin_10*%
%TO.N,GND*%
X73142500Y-36195000D03*
%TO.P,J2,11,Pin_11*%
%TO.N,PG7*%
X75682500Y-33655000D03*
%TO.P,J2,12,Pin_12*%
%TO.N,GND*%
X73142500Y-33655000D03*
%TO.P,J2,13,Pin_13*%
%TO.N,AIN0*%
X75682500Y-31115000D03*
%TO.P,J2,14,Pin_14*%
%TO.N,+5V*%
X73142500Y-31115000D03*
%TO.P,J2,15,Pin_15*%
%TO.N,AIN1*%
X75682500Y-28575000D03*
%TO.P,J2,16,Pin_16*%
%TO.N,+5V*%
X73142500Y-28575000D03*
%TD*%
D11*
%TO.P,J4,1,Pin_1*%
%TO.N,PB0*%
X50541000Y-64785000D03*
D12*
%TO.P,J4,2,Pin_2*%
%TO.N,PB1*%
X53081000Y-64785000D03*
%TO.P,J4,3,Pin_3*%
%TO.N,PB2*%
X50541000Y-67325000D03*
%TO.P,J4,4,Pin_4*%
%TO.N,PB3*%
X53081000Y-67325000D03*
%TO.P,J4,5,Pin_5*%
%TO.N,+5V*%
X50541000Y-69865000D03*
%TO.P,J4,6,Pin_6*%
%TO.N,GND*%
X53081000Y-69865000D03*
%TD*%
D10*
%TO.P,J7,2,Ext*%
%TO.N,GND*%
X24982500Y-98775000D03*
X24982500Y-104425000D03*
%TD*%
D15*
%TO.P,H1,1,1*%
%TO.N,GND*%
X26670000Y-17780000D03*
%TD*%
%TO.P,H2,1,1*%
%TO.N,GND*%
X26670000Y-109220000D03*
%TD*%
%TO.P,H3,1,1*%
%TO.N,GND*%
X77470000Y-17780000D03*
%TD*%
D16*
%TO.P,J5,A1,GND*%
%TO.N,GND*%
X75350000Y-100130000D03*
%TO.P,J5,A4,VBUS*%
%TO.N,VBUS*%
X75350000Y-99280000D03*
%TO.P,J5,A5,CC1*%
%TO.N,Net-(J5-CC1)*%
X75350000Y-98430000D03*
%TO.P,J5,A6,D+*%
%TO.N,USBDP*%
X75350000Y-97580000D03*
%TO.P,J5,A7,D-*%
%TO.N,USBDM*%
X75350000Y-96730000D03*
%TO.P,J5,A8,SBU1*%
%TO.N,unconnected-(J5-SBU1-PadA8)*%
X75350000Y-95880000D03*
%TO.P,J5,A9,VBUS*%
%TO.N,VBUS*%
X75350000Y-95030000D03*
%TO.P,J5,A12,GND*%
%TO.N,GND*%
X75350000Y-94180000D03*
%TO.P,J5,B1,GND*%
X76700000Y-94180000D03*
%TO.P,J5,B4,VBUS*%
%TO.N,VBUS*%
X76700000Y-95030000D03*
%TO.P,J5,B5,CC2*%
%TO.N,Net-(J5-CC2)*%
X76700000Y-95880000D03*
%TO.P,J5,B6,D+*%
%TO.N,USBDP*%
X76700000Y-96730000D03*
%TO.P,J5,B7,D-*%
%TO.N,USBDM*%
X76700000Y-97580000D03*
%TO.P,J5,B8,SBU2*%
%TO.N,unconnected-(J5-SBU2-PadB8)*%
X76700000Y-98430000D03*
%TO.P,J5,B9,VBUS*%
%TO.N,VBUS*%
X76700000Y-99280000D03*
%TO.P,J5,B12,GND*%
%TO.N,GND*%
X76700000Y-100130000D03*
D17*
%TO.P,J5,S1,SHIELD*%
X76330000Y-101480000D03*
D18*
X79710000Y-101480000D03*
D17*
X76330000Y-92830000D03*
D18*
X79710000Y-92830000D03*
%TD*%
D10*
%TO.P,J9,2,Ext*%
%TO.N,GND*%
X24982500Y-79725000D03*
X24982500Y-85375000D03*
%TD*%
D13*
%TO.P,J3,1,Pin_1*%
%TO.N,PE0*%
X75682500Y-77470000D03*
D14*
%TO.P,J3,2,Pin_2*%
%TO.N,PE1*%
X73142500Y-77470000D03*
%TO.P,J3,3,Pin_3*%
%TO.N,PE2*%
X75682500Y-74930000D03*
%TO.P,J3,4,Pin_4*%
%TO.N,PE3*%
X73142500Y-74930000D03*
%TO.P,J3,5,Pin_5*%
%TO.N,PE4*%
X75682500Y-72390000D03*
%TO.P,J3,6,Pin_6*%
%TO.N,GND*%
X73142500Y-72390000D03*
%TO.P,J3,7,Pin_7*%
%TO.N,PE5*%
X75682500Y-69850000D03*
%TO.P,J3,8,Pin_8*%
%TO.N,GND*%
X73142500Y-69850000D03*
%TO.P,J3,9,Pin_9*%
%TO.N,PE6*%
X75682500Y-67310000D03*
%TO.P,J3,10,Pin_10*%
%TO.N,GND*%
X73142500Y-67310000D03*
%TO.P,J3,11,Pin_11*%
%TO.N,PE7*%
X75682500Y-64770000D03*
%TO.P,J3,12,Pin_12*%
%TO.N,GND*%
X73142500Y-64770000D03*
%TO.P,J3,13,Pin_13*%
%TO.N,AIN2*%
X75682500Y-62230000D03*
%TO.P,J3,14,Pin_14*%
%TO.N,+5V*%
X73142500Y-62230000D03*
%TO.P,J3,15,Pin_15*%
%TO.N,AIN3*%
X75682500Y-59690000D03*
%TO.P,J3,16,Pin_16*%
%TO.N,+5V*%
X73142500Y-59690000D03*
%TD*%
D10*
%TO.P,J10,2,Ext*%
%TO.N,GND*%
X24982500Y-22575000D03*
X24982500Y-28225000D03*
%TD*%
D19*
%TO.P,J6,1,In*%
%TO.N,EXT_REF*%
X31750000Y-92075000D03*
D20*
%TO.P,J6,2,Ext*%
%TO.N,GND*%
X34290000Y-89535000D03*
X29210000Y-89535000D03*
X34290000Y-94615000D03*
X29210000Y-94615000D03*
%TD*%
D15*
%TO.P,H4,1,1*%
%TO.N,GND*%
X77470000Y-109220000D03*
%TD*%
D21*
%TO.N,GND*%
X63373000Y-98933000D03*
X55245000Y-89535000D03*
X63373000Y-96901000D03*
X37338000Y-34925000D03*
X29000000Y-106000000D03*
X28500000Y-30500000D03*
X56000000Y-48500000D03*
X50927000Y-26797000D03*
X43180000Y-25654000D03*
X30000000Y-103500000D03*
X66294000Y-93980000D03*
X32639000Y-38354000D03*
X62357000Y-97917000D03*
X47625000Y-93980000D03*
X79375000Y-86360000D03*
X32893000Y-23749000D03*
X50800000Y-21717000D03*
X60071000Y-56388000D03*
X60452000Y-86741000D03*
X28500000Y-39000000D03*
X40640000Y-66040000D03*
X24765000Y-70485000D03*
X41275000Y-50165000D03*
X24765000Y-76200000D03*
X37973000Y-24257000D03*
X27500000Y-97000000D03*
X59436000Y-26924000D03*
X30500000Y-23000000D03*
X35306000Y-19177000D03*
X41275000Y-85090000D03*
X24765000Y-95250000D03*
X24765000Y-36830000D03*
X31500000Y-99000000D03*
X68580000Y-86360000D03*
X69342000Y-77216000D03*
X39497000Y-89281000D03*
X46355000Y-95885000D03*
X61341000Y-96901000D03*
X41275000Y-80010000D03*
X24765000Y-88900000D03*
X75565000Y-104775000D03*
X41275000Y-109855000D03*
X28500000Y-79000000D03*
X35179000Y-23749000D03*
X37973000Y-43561000D03*
X37973000Y-26416000D03*
X48260000Y-35560000D03*
X64227000Y-80772000D03*
X24765000Y-31750000D03*
X67437000Y-100584000D03*
X24765000Y-51435000D03*
X29500000Y-47500000D03*
X30353000Y-45847000D03*
X57912000Y-20066000D03*
X36576000Y-46101000D03*
X45339000Y-33909000D03*
X52832000Y-77470000D03*
X55118000Y-36449000D03*
X61341000Y-98933000D03*
X48260000Y-39370000D03*
X33401000Y-46228000D03*
X35052000Y-36957000D03*
X34925000Y-55245000D03*
X72898000Y-107950000D03*
X34036000Y-32004000D03*
X62230000Y-101600000D03*
X36195000Y-32639000D03*
X29845000Y-97790000D03*
X67056000Y-18161000D03*
X24765000Y-57150000D03*
X32258000Y-32004000D03*
X53848000Y-36449000D03*
X52451000Y-36449000D03*
X55245000Y-34417000D03*
X36830000Y-85090000D03*
X70993000Y-98806000D03*
X50165000Y-91440000D03*
X47625000Y-88900000D03*
X44704000Y-19939000D03*
X28000000Y-87000000D03*
X74000000Y-87500000D03*
X45085000Y-38227000D03*
X29972000Y-35560000D03*
X70104000Y-102489000D03*
X41275000Y-95885000D03*
X55246841Y-84412181D03*
%TO.N,+5V*%
X60325000Y-101600000D03*
X54610000Y-88392000D03*
X52705000Y-101600000D03*
X66421000Y-105664000D03*
X67500500Y-107950000D03*
X51562000Y-94361000D03*
X38100000Y-71120000D03*
X65024000Y-86995000D03*
X61468000Y-92710000D03*
X35941000Y-98679000D03*
X63373000Y-33782000D03*
X37592000Y-107950000D03*
X64643000Y-105664000D03*
X63304000Y-47625000D03*
X37592000Y-91567000D03*
X42418000Y-32512000D03*
X43688000Y-99187000D03*
X62865000Y-105664000D03*
X66802000Y-77597000D03*
X66611500Y-108712000D03*
X66611500Y-107950000D03*
X67500500Y-108712000D03*
X43180000Y-71120000D03*
X56515000Y-101600000D03*
X58420000Y-101346000D03*
X55729508Y-74271508D03*
%TO.N,RX_LED*%
X61468000Y-93726000D03*
X56515000Y-109347000D03*
%TO.N,TX_LED*%
X52705000Y-109474000D03*
X60325000Y-94361000D03*
%TO.N,AIN0*%
X61468000Y-84201000D03*
%TO.N,PG3*%
X57338224Y-79464237D03*
%TO.N,PG7*%
X54737000Y-81026000D03*
%TO.N,PG2*%
X58219583Y-79185300D03*
%TO.N,PG6*%
X55795000Y-81182288D03*
%TO.N,PG0*%
X59817000Y-79121000D03*
%TO.N,PG5*%
X56625658Y-81001980D03*
%TO.N,AIN1*%
X61071000Y-83523589D03*
%TO.N,PG4*%
X57042152Y-80261009D03*
%TO.N,PG1*%
X59016997Y-79121000D03*
%TO.N,AIN3*%
X63246000Y-82296000D03*
%TO.N,AIN2*%
X62738000Y-82931000D03*
%TO.N,PE2*%
X62738000Y-79883000D03*
%TO.N,Net-(J5-CC1)*%
X73152000Y-91313000D03*
%TO.N,MOSI*%
X44870000Y-92780000D03*
X61459000Y-33029000D03*
X47244000Y-73970000D03*
X46159000Y-81788000D03*
%TO.N,MISO*%
X59944000Y-34290000D03*
X43942000Y-85090000D03*
%TO.N,SCLK*%
X44704000Y-87122000D03*
X46667000Y-75184000D03*
X43434000Y-93218000D03*
X57023000Y-32766000D03*
%TO.N,RUN_LED*%
X56642000Y-89662000D03*
X45085000Y-101600000D03*
%TO.N,ERROR_LED*%
X59690000Y-89281000D03*
X48895000Y-101600000D03*
%TO.N,XO_EN*%
X59986000Y-85936000D03*
X38608000Y-97790000D03*
%TO.N,Net-(U3-VOUT_A)*%
X27178000Y-73660000D03*
X44069000Y-76454000D03*
%TO.N,Net-(U4-VOUT)*%
X36195000Y-108077000D03*
X44831000Y-96393000D03*
%TO.N,+2V5*%
X38100000Y-29210000D03*
X38989000Y-40640000D03*
%TO.N,TX*%
X61214000Y-101346000D03*
X49779076Y-79946499D03*
%TO.N,~{CS_DAC}*%
X60983030Y-85896393D03*
X50091000Y-77435788D03*
%TO.N,RX*%
X49787108Y-80911954D03*
X58674000Y-98044000D03*
%TO.N,~{CS_ADC}*%
X58547000Y-33782000D03*
X58755688Y-84663682D03*
%TO.N,PB1*%
X56515000Y-83058000D03*
%TO.N,PB0*%
X55753000Y-83185000D03*
%TO.N,PB2*%
X57404000Y-82931000D03*
%TO.N,PB3*%
X57785000Y-85217000D03*
%TD*%
D22*
%TO.N,USBDM*%
X75780761Y-96730000D02*
X76630761Y-97580000D01*
X76630761Y-97580000D02*
X76700000Y-97580000D01*
X75350000Y-96730000D02*
X75780761Y-96730000D01*
D23*
%TO.N,RX_LED*%
X60902000Y-94600002D02*
X53975000Y-101527002D01*
X60902000Y-94292000D02*
X60902000Y-94600002D01*
X53975000Y-101527002D02*
X53975000Y-106807000D01*
X53975000Y-106807000D02*
X56515000Y-109347000D01*
X61468000Y-93726000D02*
X60902000Y-94292000D01*
%TO.N,TX_LED*%
X53282000Y-101404000D02*
X53282000Y-108897000D01*
X60325000Y-94361000D02*
X53282000Y-101404000D01*
X53282000Y-108897000D02*
X52705000Y-109474000D01*
%TO.N,AIN0*%
X62161000Y-79643998D02*
X64500000Y-77304998D01*
X72604340Y-32385000D02*
X74412500Y-32385000D01*
X74412500Y-32385000D02*
X75682500Y-31115000D01*
X61468000Y-84201000D02*
X62161000Y-83508000D01*
X64500000Y-77304998D02*
X64500000Y-40489340D01*
X64500000Y-40489340D02*
X72604340Y-32385000D01*
X62161000Y-83508000D02*
X62161000Y-79643998D01*
%TO.N,AIN1*%
X71882000Y-29845000D02*
X63985000Y-37742000D01*
X61757000Y-82837589D02*
X61071000Y-83523589D01*
X63985000Y-77248656D02*
X61757000Y-79476656D01*
X74412500Y-29845000D02*
X71882000Y-29845000D01*
X61757000Y-79476656D02*
X61757000Y-82837589D01*
X75682500Y-28575000D02*
X74412500Y-29845000D01*
X63985000Y-37742000D02*
X63985000Y-77248656D01*
%TO.N,AIN3*%
X71247000Y-76327000D02*
X71247000Y-61976000D01*
X65278000Y-82296000D02*
X71247000Y-76327000D01*
X63246000Y-82296000D02*
X65278000Y-82296000D01*
X74555500Y-60817000D02*
X75682500Y-59690000D01*
X71247000Y-61976000D02*
X72406000Y-60817000D01*
X72406000Y-60817000D02*
X74555500Y-60817000D01*
%TO.N,AIN2*%
X71755000Y-64516000D02*
X72914000Y-63357000D01*
X62738000Y-82931000D02*
X65405000Y-82931000D01*
X65405000Y-82931000D02*
X71755000Y-76581000D01*
X71755000Y-76581000D02*
X71755000Y-64516000D01*
X72914000Y-63357000D02*
X74555500Y-63357000D01*
X74555500Y-63357000D02*
X75682500Y-62230000D01*
%TO.N,Net-(J5-CC1)*%
X74168000Y-97742974D02*
X74168000Y-92075000D01*
X74168000Y-92075000D02*
X73406000Y-91313000D01*
X74855026Y-98430000D02*
X74168000Y-97742974D01*
X73406000Y-91313000D02*
X73152000Y-91313000D01*
X75350000Y-98430000D02*
X74855026Y-98430000D01*
%TO.N,RUN_LED*%
X46228000Y-101600000D02*
X45085000Y-101600000D01*
X56642000Y-89662000D02*
X56642000Y-91186000D01*
X56642000Y-91186000D02*
X46228000Y-101600000D01*
%TO.N,ERROR_LED*%
X48895000Y-101600000D02*
X48895000Y-100076000D01*
X48895000Y-100076000D02*
X59690000Y-89281000D01*
%TO.N,XO_EN*%
X38608000Y-97790000D02*
X41021000Y-97790000D01*
X41021000Y-97790000D02*
X52875000Y-85936000D01*
X52875000Y-85936000D02*
X59986000Y-85936000D01*
%TO.N,Net-(U3-VOUT_A)*%
X44069000Y-76454000D02*
X29972000Y-76454000D01*
X29972000Y-76454000D02*
X27178000Y-73660000D01*
D22*
%TO.N,+2V5*%
X38989000Y-40640000D02*
X38989000Y-30099000D01*
X38989000Y-30099000D02*
X38100000Y-29210000D01*
D23*
%TO.N,~{CS_ADC}*%
X58547000Y-33782000D02*
X59055000Y-34290000D01*
X55880000Y-52959000D02*
X55880000Y-70104000D01*
X55880000Y-70104000D02*
X60960000Y-75184000D01*
X60960000Y-82459370D02*
X58755688Y-84663682D01*
X59055000Y-49784000D02*
X55880000Y-52959000D01*
X59055000Y-34290000D02*
X59055000Y-49784000D01*
X60960000Y-75184000D02*
X60960000Y-82459370D01*
%TO.N,PB1*%
X51345500Y-66198000D02*
X50074181Y-66198000D01*
X54160000Y-82608000D02*
X56065000Y-82608000D01*
X52758500Y-64785000D02*
X51345500Y-66198000D01*
X56065000Y-82608000D02*
X56515000Y-83058000D01*
X53081000Y-64785000D02*
X52758500Y-64785000D01*
X49149000Y-77597000D02*
X54160000Y-82608000D01*
X49149000Y-67123181D02*
X49149000Y-77597000D01*
X50074181Y-66198000D02*
X49149000Y-67123181D01*
%TO.N,PB0*%
X48641000Y-77851000D02*
X48641000Y-66685000D01*
X48641000Y-66685000D02*
X50541000Y-64785000D01*
X55753000Y-83185000D02*
X53975000Y-83185000D01*
X53975000Y-83185000D02*
X48641000Y-77851000D01*
%TO.N,PB2*%
X56515000Y-82042000D02*
X54356000Y-82042000D01*
X54356000Y-82042000D02*
X51816000Y-79502000D01*
X51816000Y-68600000D02*
X50541000Y-67325000D01*
X51816000Y-79502000D02*
X51816000Y-68600000D01*
X57404000Y-82931000D02*
X56515000Y-82042000D01*
%TO.N,PB3*%
X57785000Y-83439000D02*
X60394000Y-80830000D01*
X54208000Y-68452000D02*
X53081000Y-67325000D01*
X60394000Y-80830000D02*
X60394000Y-76523000D01*
X60394000Y-76523000D02*
X54208000Y-70337000D01*
X54208000Y-70337000D02*
X54208000Y-68452000D01*
X57785000Y-85217000D02*
X57785000Y-83439000D01*
%TD*%
%TA.AperFunction,Conductor*%
%TO.N,GND*%
G36*
X52612003Y-68597746D02*
G01*
X52612256Y-68597053D01*
X52617331Y-68598900D01*
X52617337Y-68598903D01*
X52617342Y-68598904D01*
X52617344Y-68598905D01*
X52630761Y-68602500D01*
X52845592Y-68660063D01*
X53023177Y-68675600D01*
X53080999Y-68680659D01*
X53081000Y-68680659D01*
X53081001Y-68680659D01*
X53138823Y-68675600D01*
X53316408Y-68660063D01*
X53414642Y-68633741D01*
X53484491Y-68635404D01*
X53534416Y-68665835D01*
X53544181Y-68675600D01*
X53577666Y-68736923D01*
X53580500Y-68763281D01*
X53580500Y-70398807D01*
X53604612Y-70520027D01*
X53604614Y-70520035D01*
X53629750Y-70580718D01*
X53651915Y-70634230D01*
X53700795Y-70707383D01*
X53700795Y-70707384D01*
X53720590Y-70737010D01*
X53720593Y-70737013D01*
X59730181Y-76746600D01*
X59763666Y-76807923D01*
X59766500Y-76834281D01*
X59766500Y-78210311D01*
X59746815Y-78277350D01*
X59694011Y-78323105D01*
X59656385Y-78333531D01*
X59637750Y-78335630D01*
X59460905Y-78397511D01*
X59460155Y-78395369D01*
X59401821Y-78404958D01*
X59373405Y-78396611D01*
X59373091Y-78397510D01*
X59196259Y-78335633D01*
X59196246Y-78335630D01*
X59017001Y-78315435D01*
X59016993Y-78315435D01*
X58837747Y-78335630D01*
X58837734Y-78335633D01*
X58667477Y-78395209D01*
X58617120Y-78426850D01*
X58549883Y-78445849D01*
X58510196Y-78438897D01*
X58398840Y-78399932D01*
X58398832Y-78399930D01*
X58219587Y-78379735D01*
X58219579Y-78379735D01*
X58040333Y-78399930D01*
X58040328Y-78399931D01*
X57870059Y-78459511D01*
X57717320Y-78555484D01*
X57717319Y-78555485D01*
X57628186Y-78644617D01*
X57566863Y-78678101D01*
X57524596Y-78677890D01*
X57524399Y-78679648D01*
X57338228Y-78658672D01*
X57338220Y-78658672D01*
X57158974Y-78678867D01*
X57158969Y-78678868D01*
X56988700Y-78738448D01*
X56835961Y-78834421D01*
X56708408Y-78961974D01*
X56612435Y-79114713D01*
X56552855Y-79284982D01*
X56552854Y-79284987D01*
X56532659Y-79464233D01*
X56532659Y-79464239D01*
X56543611Y-79561445D01*
X56531556Y-79630267D01*
X56508073Y-79663008D01*
X56412337Y-79758745D01*
X56412336Y-79758746D01*
X56316363Y-79911485D01*
X56256783Y-80081754D01*
X56256782Y-80081758D01*
X56238418Y-80244752D01*
X56211352Y-80309166D01*
X56181171Y-80335861D01*
X56123394Y-80372164D01*
X56123393Y-80372165D01*
X56121484Y-80374075D01*
X56119946Y-80374914D01*
X56117948Y-80376508D01*
X56117668Y-80376157D01*
X56060158Y-80407555D01*
X55992856Y-80403429D01*
X55974255Y-80396920D01*
X55974253Y-80396919D01*
X55974251Y-80396919D01*
X55974246Y-80396918D01*
X55795004Y-80376723D01*
X55794996Y-80376723D01*
X55615750Y-80396918D01*
X55615745Y-80396919D01*
X55445475Y-80456499D01*
X55439604Y-80460189D01*
X55372367Y-80479188D01*
X55305532Y-80458819D01*
X55285953Y-80442875D01*
X55239262Y-80396184D01*
X55086523Y-80300211D01*
X54916254Y-80240631D01*
X54916249Y-80240630D01*
X54737004Y-80220435D01*
X54736996Y-80220435D01*
X54557750Y-80240630D01*
X54557745Y-80240631D01*
X54387476Y-80300211D01*
X54234737Y-80396184D01*
X54107184Y-80523737D01*
X54107182Y-80523740D01*
X54042493Y-80626691D01*
X53990158Y-80672982D01*
X53921105Y-80683629D01*
X53857257Y-80655254D01*
X53849819Y-80648399D01*
X52479819Y-79278399D01*
X52446334Y-79217076D01*
X52443500Y-79190718D01*
X52443500Y-74271511D01*
X54923943Y-74271511D01*
X54944138Y-74450757D01*
X54944139Y-74450762D01*
X55003719Y-74621031D01*
X55073785Y-74732540D01*
X55099692Y-74773770D01*
X55227246Y-74901324D01*
X55379986Y-74997297D01*
X55550244Y-75056873D01*
X55550253Y-75056876D01*
X55550258Y-75056877D01*
X55729504Y-75077073D01*
X55729508Y-75077073D01*
X55729512Y-75077073D01*
X55908757Y-75056877D01*
X55908760Y-75056876D01*
X55908763Y-75056876D01*
X56079030Y-74997297D01*
X56231770Y-74901324D01*
X56359324Y-74773770D01*
X56455297Y-74621030D01*
X56514876Y-74450763D01*
X56520750Y-74398632D01*
X56535073Y-74271511D01*
X56535073Y-74271504D01*
X56514877Y-74092258D01*
X56514876Y-74092253D01*
X56503099Y-74058597D01*
X56455297Y-73921986D01*
X56436144Y-73891505D01*
X56372836Y-73790750D01*
X56359324Y-73769246D01*
X56231770Y-73641692D01*
X56079031Y-73545719D01*
X55908762Y-73486139D01*
X55908757Y-73486138D01*
X55729512Y-73465943D01*
X55729504Y-73465943D01*
X55550258Y-73486138D01*
X55550253Y-73486139D01*
X55379984Y-73545719D01*
X55227245Y-73641692D01*
X55099692Y-73769245D01*
X55003719Y-73921984D01*
X54944139Y-74092253D01*
X54944138Y-74092258D01*
X54923943Y-74271504D01*
X54923943Y-74271511D01*
X52443500Y-74271511D01*
X52443500Y-68712482D01*
X52463185Y-68645443D01*
X52515989Y-68599688D01*
X52585147Y-68589744D01*
X52612003Y-68597746D01*
G37*
%TD.AperFunction*%
%TA.AperFunction,Conductor*%
G36*
X74431071Y-64004185D02*
G01*
X74476826Y-64056989D01*
X74486770Y-64126147D01*
X74476414Y-64160905D01*
X74408597Y-64306335D01*
X74408594Y-64306344D01*
X74347438Y-64534586D01*
X74347436Y-64534596D01*
X74326841Y-64769999D01*
X74326841Y-64770000D01*
X74347436Y-65005403D01*
X74347438Y-65005413D01*
X74408594Y-65233655D01*
X74408596Y-65233659D01*
X74408597Y-65233663D01*
X74432256Y-65284399D01*
X74508465Y-65447830D01*
X74508467Y-65447834D01*
X74644001Y-65641395D01*
X74644006Y-65641402D01*
X74811097Y-65808493D01*
X74811103Y-65808498D01*
X74996658Y-65938425D01*
X75040283Y-65993002D01*
X75047477Y-66062500D01*
X75015954Y-66124855D01*
X74996658Y-66141575D01*
X74811097Y-66271505D01*
X74644005Y-66438597D01*
X74508465Y-66632169D01*
X74508464Y-66632171D01*
X74408598Y-66846335D01*
X74408594Y-66846344D01*
X74347438Y-67074586D01*
X74347436Y-67074596D01*
X74326841Y-67309999D01*
X74326841Y-67310000D01*
X74347436Y-67545403D01*
X74347438Y-67545413D01*
X74408594Y-67773655D01*
X74408596Y-67773659D01*
X74408597Y-67773663D01*
X74495498Y-67960023D01*
X74508465Y-67987830D01*
X74508467Y-67987834D01*
X74644001Y-68181395D01*
X74644006Y-68181402D01*
X74811097Y-68348493D01*
X74811103Y-68348498D01*
X74996658Y-68478425D01*
X75040283Y-68533002D01*
X75047477Y-68602500D01*
X75015954Y-68664855D01*
X74996658Y-68681575D01*
X74811097Y-68811505D01*
X74644005Y-68978597D01*
X74508465Y-69172169D01*
X74508464Y-69172171D01*
X74408598Y-69386335D01*
X74408594Y-69386344D01*
X74347438Y-69614586D01*
X74347436Y-69614596D01*
X74326841Y-69849999D01*
X74326841Y-69850000D01*
X74347436Y-70085403D01*
X74347438Y-70085413D01*
X74408594Y-70313655D01*
X74408596Y-70313659D01*
X74408597Y-70313663D01*
X74449432Y-70401233D01*
X74508465Y-70527830D01*
X74508467Y-70527834D01*
X74571419Y-70617738D01*
X74634189Y-70707383D01*
X74644001Y-70721395D01*
X74644006Y-70721402D01*
X74811097Y-70888493D01*
X74811103Y-70888498D01*
X74996658Y-71018425D01*
X75040283Y-71073002D01*
X75047477Y-71142500D01*
X75015954Y-71204855D01*
X74996658Y-71221575D01*
X74811097Y-71351505D01*
X74644005Y-71518597D01*
X74508465Y-71712169D01*
X74508464Y-71712171D01*
X74408598Y-71926335D01*
X74408594Y-71926344D01*
X74347438Y-72154586D01*
X74347436Y-72154596D01*
X74326841Y-72389999D01*
X74326841Y-72390000D01*
X74347436Y-72625403D01*
X74347438Y-72625413D01*
X74408594Y-72853655D01*
X74408596Y-72853659D01*
X74408597Y-72853663D01*
X74490910Y-73030184D01*
X74508465Y-73067830D01*
X74508467Y-73067834D01*
X74590249Y-73184630D01*
X74631968Y-73244211D01*
X74644001Y-73261395D01*
X74644006Y-73261402D01*
X74811097Y-73428493D01*
X74811103Y-73428498D01*
X74996658Y-73558425D01*
X75040283Y-73613002D01*
X75047477Y-73682500D01*
X75015954Y-73744855D01*
X74996658Y-73761575D01*
X74811097Y-73891505D01*
X74644005Y-74058597D01*
X74514075Y-74244158D01*
X74459498Y-74287783D01*
X74390000Y-74294977D01*
X74327645Y-74263454D01*
X74310925Y-74244158D01*
X74180994Y-74058597D01*
X74013902Y-73891506D01*
X74013895Y-73891501D01*
X73820334Y-73755967D01*
X73820330Y-73755965D01*
X73797665Y-73745396D01*
X73606163Y-73656097D01*
X73606159Y-73656096D01*
X73606155Y-73656094D01*
X73377913Y-73594938D01*
X73377903Y-73594936D01*
X73142501Y-73574341D01*
X73142499Y-73574341D01*
X72907096Y-73594936D01*
X72907086Y-73594938D01*
X72678844Y-73656094D01*
X72678830Y-73656099D01*
X72558904Y-73712022D01*
X72489827Y-73722514D01*
X72426043Y-73693994D01*
X72387804Y-73635517D01*
X72382500Y-73599640D01*
X72382500Y-64827281D01*
X72402185Y-64760242D01*
X72418819Y-64739600D01*
X73137600Y-64020819D01*
X73198923Y-63987334D01*
X73225281Y-63984500D01*
X74364032Y-63984500D01*
X74431071Y-64004185D01*
G37*
%TD.AperFunction*%
%TA.AperFunction,Conductor*%
G36*
X77473243Y-14470669D02*
G01*
X77809450Y-14488290D01*
X77822358Y-14489647D01*
X78151677Y-14541806D01*
X78164342Y-14544497D01*
X78486422Y-14630798D01*
X78498749Y-14634803D01*
X78810038Y-14754296D01*
X78821873Y-14759565D01*
X79118976Y-14910947D01*
X79130191Y-14917423D01*
X79409832Y-15099023D01*
X79420313Y-15106638D01*
X79679441Y-15316475D01*
X79689086Y-15325160D01*
X79924839Y-15560913D01*
X79933524Y-15570558D01*
X80143359Y-15829683D01*
X80150978Y-15840171D01*
X80332573Y-16119802D01*
X80339059Y-16131035D01*
X80490429Y-16428115D01*
X80495708Y-16439972D01*
X80615193Y-16751241D01*
X80619204Y-16763586D01*
X80705498Y-17085642D01*
X80708196Y-17098337D01*
X80760352Y-17427641D01*
X80761709Y-17440549D01*
X80779330Y-17776756D01*
X80779500Y-17783246D01*
X80779500Y-109216753D01*
X80779330Y-109223243D01*
X80761709Y-109559450D01*
X80760352Y-109572358D01*
X80708196Y-109901662D01*
X80705498Y-109914357D01*
X80619204Y-110236413D01*
X80615193Y-110248758D01*
X80495708Y-110560027D01*
X80490429Y-110571884D01*
X80339059Y-110868964D01*
X80332569Y-110880204D01*
X80150983Y-111159822D01*
X80143354Y-111170323D01*
X79933524Y-111429441D01*
X79924839Y-111439086D01*
X79689086Y-111674839D01*
X79679441Y-111683524D01*
X79420323Y-111893354D01*
X79409822Y-111900983D01*
X79130204Y-112082569D01*
X79118964Y-112089059D01*
X78821884Y-112240429D01*
X78810027Y-112245708D01*
X78498758Y-112365193D01*
X78486413Y-112369204D01*
X78164357Y-112455498D01*
X78151662Y-112458196D01*
X77822358Y-112510352D01*
X77809450Y-112511709D01*
X77473244Y-112529330D01*
X77466754Y-112529500D01*
X26673246Y-112529500D01*
X26666756Y-112529330D01*
X26330549Y-112511709D01*
X26317641Y-112510352D01*
X25988337Y-112458196D01*
X25975642Y-112455498D01*
X25653586Y-112369204D01*
X25641241Y-112365193D01*
X25329972Y-112245708D01*
X25318115Y-112240429D01*
X25021029Y-112089055D01*
X25009802Y-112082573D01*
X24730171Y-111900978D01*
X24719683Y-111893359D01*
X24460558Y-111683524D01*
X24450913Y-111674839D01*
X24215160Y-111439086D01*
X24206475Y-111429441D01*
X24117648Y-111319749D01*
X23996638Y-111170313D01*
X23989023Y-111159832D01*
X23807423Y-110880191D01*
X23800947Y-110868976D01*
X23649565Y-110571873D01*
X23644296Y-110560038D01*
X23524803Y-110248749D01*
X23520798Y-110236422D01*
X23434497Y-109914342D01*
X23431806Y-109901677D01*
X23379647Y-109572358D01*
X23378290Y-109559450D01*
X23373812Y-109474003D01*
X51899435Y-109474003D01*
X51919630Y-109653249D01*
X51919631Y-109653254D01*
X51979211Y-109823523D01*
X52032345Y-109908084D01*
X52075184Y-109976262D01*
X52202738Y-110103816D01*
X52355478Y-110199789D01*
X52525745Y-110259368D01*
X52525750Y-110259369D01*
X52704996Y-110279565D01*
X52705000Y-110279565D01*
X52705004Y-110279565D01*
X52884249Y-110259369D01*
X52884252Y-110259368D01*
X52884255Y-110259368D01*
X53054522Y-110199789D01*
X53207262Y-110103816D01*
X53334816Y-109976262D01*
X53430789Y-109823522D01*
X53490368Y-109653255D01*
X53495313Y-109609361D01*
X53522378Y-109544951D01*
X53530832Y-109535585D01*
X53769411Y-109297008D01*
X53776838Y-109285892D01*
X53838083Y-109194233D01*
X53885385Y-109080035D01*
X53901807Y-108997478D01*
X53909500Y-108958805D01*
X53909500Y-107928281D01*
X53929185Y-107861242D01*
X53981989Y-107815487D01*
X54051147Y-107805543D01*
X54114703Y-107834568D01*
X54121179Y-107840598D01*
X54910930Y-108630350D01*
X55689147Y-109408567D01*
X55722632Y-109469890D01*
X55724686Y-109482362D01*
X55729632Y-109526255D01*
X55743517Y-109565937D01*
X55789210Y-109696521D01*
X55864384Y-109816159D01*
X55885184Y-109849262D01*
X56012738Y-109976816D01*
X56165478Y-110072789D01*
X56254148Y-110103816D01*
X56335745Y-110132368D01*
X56335750Y-110132369D01*
X56514996Y-110152565D01*
X56515000Y-110152565D01*
X56515004Y-110152565D01*
X56694249Y-110132369D01*
X56694252Y-110132368D01*
X56694255Y-110132368D01*
X56864522Y-110072789D01*
X57017262Y-109976816D01*
X57144816Y-109849262D01*
X57240789Y-109696522D01*
X57300368Y-109526255D01*
X57305314Y-109482362D01*
X57320565Y-109347003D01*
X57320565Y-109346996D01*
X57300369Y-109167750D01*
X57300368Y-109167745D01*
X57285228Y-109124478D01*
X57240789Y-108997478D01*
X57224615Y-108971738D01*
X57201582Y-108935080D01*
X57144816Y-108844738D01*
X57017262Y-108717184D01*
X57009017Y-108712003D01*
X65805935Y-108712003D01*
X65826130Y-108891249D01*
X65826131Y-108891254D01*
X65885711Y-109061523D01*
X65969099Y-109194233D01*
X65981684Y-109214262D01*
X66109238Y-109341816D01*
X66167000Y-109378110D01*
X66232530Y-109419286D01*
X66261978Y-109437789D01*
X66432245Y-109497368D01*
X66432250Y-109497369D01*
X66611496Y-109517565D01*
X66611500Y-109517565D01*
X66611504Y-109517565D01*
X66790749Y-109497369D01*
X66790752Y-109497368D01*
X66790755Y-109497368D01*
X66961022Y-109437789D01*
X66990027Y-109419564D01*
X67057263Y-109400563D01*
X67121973Y-109419564D01*
X67150975Y-109437788D01*
X67321245Y-109497368D01*
X67321250Y-109497369D01*
X67500496Y-109517565D01*
X67500500Y-109517565D01*
X67500504Y-109517565D01*
X67679749Y-109497369D01*
X67679752Y-109497368D01*
X67679755Y-109497368D01*
X67850022Y-109437789D01*
X68002762Y-109341816D01*
X68130316Y-109214262D01*
X68226289Y-109061522D01*
X68285868Y-108891255D01*
X68291109Y-108844738D01*
X68306065Y-108712003D01*
X68306065Y-108711996D01*
X68285869Y-108532750D01*
X68285866Y-108532737D01*
X68229606Y-108371955D01*
X68226044Y-108302176D01*
X68229606Y-108290045D01*
X68285866Y-108129262D01*
X68285869Y-108129249D01*
X68306065Y-107950003D01*
X68306065Y-107949996D01*
X68285869Y-107770750D01*
X68285868Y-107770745D01*
X68270728Y-107727478D01*
X68226289Y-107600478D01*
X68210115Y-107574738D01*
X68130315Y-107447737D01*
X68002762Y-107320184D01*
X67850023Y-107224211D01*
X67679754Y-107164631D01*
X67679749Y-107164630D01*
X67500504Y-107144435D01*
X67500496Y-107144435D01*
X67321250Y-107164630D01*
X67321237Y-107164633D01*
X67150980Y-107224209D01*
X67121970Y-107242437D01*
X67054733Y-107261436D01*
X66990030Y-107242437D01*
X66961019Y-107224209D01*
X66790762Y-107164633D01*
X66790749Y-107164630D01*
X66611504Y-107144435D01*
X66611496Y-107144435D01*
X66432250Y-107164630D01*
X66432245Y-107164631D01*
X66261976Y-107224211D01*
X66109237Y-107320184D01*
X65981684Y-107447737D01*
X65885711Y-107600476D01*
X65826131Y-107770745D01*
X65826130Y-107770750D01*
X65805935Y-107949996D01*
X65805935Y-107950003D01*
X65826130Y-108129249D01*
X65826133Y-108129262D01*
X65882394Y-108290045D01*
X65885956Y-108359824D01*
X65882394Y-108371955D01*
X65826133Y-108532737D01*
X65826130Y-108532750D01*
X65805935Y-108711996D01*
X65805935Y-108712003D01*
X57009017Y-108712003D01*
X56864521Y-108621210D01*
X56746219Y-108579815D01*
X56694255Y-108561632D01*
X56672134Y-108559139D01*
X56650362Y-108556686D01*
X56585949Y-108529618D01*
X56576567Y-108521147D01*
X54638819Y-106583399D01*
X54605334Y-106522076D01*
X54602500Y-106495718D01*
X54602500Y-105664003D01*
X62059435Y-105664003D01*
X62079630Y-105843249D01*
X62079631Y-105843254D01*
X62139211Y-106013523D01*
X62235184Y-106166262D01*
X62362738Y-106293816D01*
X62515478Y-106389789D01*
X62685745Y-106449368D01*
X62685750Y-106449369D01*
X62864996Y-106469565D01*
X62865000Y-106469565D01*
X62865004Y-106469565D01*
X63044249Y-106449369D01*
X63044252Y-106449368D01*
X63044255Y-106449368D01*
X63214522Y-106389789D01*
X63367262Y-106293816D01*
X63494816Y-106166262D01*
X63590789Y-106013522D01*
X63636958Y-105881579D01*
X63677680Y-105824802D01*
X63742633Y-105799055D01*
X63811194Y-105812511D01*
X63861597Y-105860898D01*
X63871042Y-105881579D01*
X63917210Y-106013521D01*
X64013184Y-106166262D01*
X64140738Y-106293816D01*
X64293478Y-106389789D01*
X64463745Y-106449368D01*
X64463750Y-106449369D01*
X64642996Y-106469565D01*
X64643000Y-106469565D01*
X64643004Y-106469565D01*
X64822249Y-106449369D01*
X64822252Y-106449368D01*
X64822255Y-106449368D01*
X64992522Y-106389789D01*
X65145262Y-106293816D01*
X65272816Y-106166262D01*
X65368789Y-106013522D01*
X65414958Y-105881579D01*
X65455680Y-105824802D01*
X65520633Y-105799055D01*
X65589194Y-105812511D01*
X65639597Y-105860898D01*
X65649042Y-105881579D01*
X65695210Y-106013521D01*
X65791184Y-106166262D01*
X65918738Y-106293816D01*
X66071478Y-106389789D01*
X66241745Y-106449368D01*
X66241750Y-106449369D01*
X66420996Y-106469565D01*
X66421000Y-106469565D01*
X66421004Y-106469565D01*
X66600249Y-106449369D01*
X66600252Y-106449368D01*
X66600255Y-106449368D01*
X66770522Y-106389789D01*
X66923262Y-106293816D01*
X67050816Y-106166262D01*
X67146789Y-106013522D01*
X67206368Y-105843255D01*
X67226565Y-105664000D01*
X67206368Y-105484745D01*
X67146789Y-105314478D01*
X67050816Y-105161738D01*
X66923262Y-105034184D01*
X66770523Y-104938211D01*
X66600254Y-104878631D01*
X66600249Y-104878630D01*
X66421004Y-104858435D01*
X66420996Y-104858435D01*
X66241750Y-104878630D01*
X66241745Y-104878631D01*
X66071476Y-104938211D01*
X65918737Y-105034184D01*
X65791184Y-105161737D01*
X65695209Y-105314480D01*
X65649041Y-105446421D01*
X65608320Y-105503197D01*
X65543367Y-105528944D01*
X65474805Y-105515488D01*
X65424403Y-105467100D01*
X65414959Y-105446421D01*
X65368790Y-105314480D01*
X65368789Y-105314478D01*
X65272816Y-105161738D01*
X65145262Y-105034184D01*
X64992523Y-104938211D01*
X64822254Y-104878631D01*
X64822249Y-104878630D01*
X64643004Y-104858435D01*
X64642996Y-104858435D01*
X64463750Y-104878630D01*
X64463745Y-104878631D01*
X64293476Y-104938211D01*
X64140737Y-105034184D01*
X64013184Y-105161737D01*
X63917209Y-105314480D01*
X63871041Y-105446421D01*
X63830320Y-105503197D01*
X63765367Y-105528944D01*
X63696805Y-105515488D01*
X63646403Y-105467100D01*
X63636959Y-105446421D01*
X63590790Y-105314480D01*
X63590789Y-105314478D01*
X63494816Y-105161738D01*
X63367262Y-105034184D01*
X63214523Y-104938211D01*
X63044254Y-104878631D01*
X63044249Y-104878630D01*
X62865004Y-104858435D01*
X62864996Y-104858435D01*
X62685750Y-104878630D01*
X62685745Y-104878631D01*
X62515476Y-104938211D01*
X62362737Y-105034184D01*
X62235184Y-105161737D01*
X62139211Y-105314476D01*
X62079631Y-105484745D01*
X62079630Y-105484750D01*
X62059435Y-105663996D01*
X62059435Y-105664003D01*
X54602500Y-105664003D01*
X54602500Y-101838282D01*
X54622185Y-101771243D01*
X54638814Y-101750606D01*
X54789417Y-101600003D01*
X55709435Y-101600003D01*
X55729630Y-101779249D01*
X55729631Y-101779254D01*
X55789211Y-101949523D01*
X55875852Y-102087411D01*
X55885184Y-102102262D01*
X56012738Y-102229816D01*
X56165478Y-102325789D01*
X56335742Y-102385367D01*
X56335745Y-102385368D01*
X56335750Y-102385369D01*
X56514996Y-102405565D01*
X56515000Y-102405565D01*
X56515004Y-102405565D01*
X56694249Y-102385369D01*
X56694252Y-102385368D01*
X56694255Y-102385368D01*
X56864522Y-102325789D01*
X57017262Y-102229816D01*
X57144816Y-102102262D01*
X57240789Y-101949522D01*
X57300368Y-101779255D01*
X57303597Y-101750601D01*
X57320565Y-101600003D01*
X57320565Y-101599996D01*
X57300369Y-101420750D01*
X57300368Y-101420745D01*
X57274215Y-101346003D01*
X57614435Y-101346003D01*
X57634630Y-101525249D01*
X57634631Y-101525254D01*
X57694211Y-101695523D01*
X57746820Y-101779249D01*
X57790184Y-101848262D01*
X57917738Y-101975816D01*
X58070478Y-102071789D01*
X58221726Y-102124713D01*
X58240745Y-102131368D01*
X58240750Y-102131369D01*
X58419996Y-102151565D01*
X58420000Y-102151565D01*
X58420004Y-102151565D01*
X58599249Y-102131369D01*
X58599252Y-102131368D01*
X58599255Y-102131368D01*
X58769522Y-102071789D01*
X58922262Y-101975816D01*
X59049816Y-101848262D01*
X59145789Y-101695522D01*
X59179213Y-101600003D01*
X59519435Y-101600003D01*
X59539630Y-101779249D01*
X59539631Y-101779254D01*
X59599211Y-101949523D01*
X59685852Y-102087411D01*
X59695184Y-102102262D01*
X59822738Y-102229816D01*
X59975478Y-102325789D01*
X60145742Y-102385367D01*
X60145745Y-102385368D01*
X60145750Y-102385369D01*
X60324996Y-102405565D01*
X60325000Y-102405565D01*
X60325004Y-102405565D01*
X60504249Y-102385369D01*
X60504252Y-102385368D01*
X60504255Y-102385368D01*
X60674522Y-102325789D01*
X60827262Y-102229816D01*
X60898881Y-102158196D01*
X60960201Y-102124713D01*
X61027514Y-102128837D01*
X61034745Y-102131368D01*
X61034749Y-102131368D01*
X61034751Y-102131369D01*
X61034748Y-102131369D01*
X61213996Y-102151565D01*
X61214000Y-102151565D01*
X61214004Y-102151565D01*
X61393249Y-102131369D01*
X61393252Y-102131368D01*
X61393255Y-102131368D01*
X61563522Y-102071789D01*
X61716262Y-101975816D01*
X61843816Y-101848262D01*
X61939789Y-101695522D01*
X61999368Y-101525255D01*
X62011143Y-101420750D01*
X62019565Y-101346003D01*
X62019565Y-101345996D01*
X61999369Y-101166750D01*
X61999368Y-101166745D01*
X61939788Y-100996476D01*
X61843815Y-100843737D01*
X61716262Y-100716184D01*
X61563523Y-100620211D01*
X61393254Y-100560631D01*
X61393249Y-100560630D01*
X61214004Y-100540435D01*
X61213996Y-100540435D01*
X61034750Y-100560630D01*
X61034745Y-100560631D01*
X60864476Y-100620211D01*
X60711734Y-100716186D01*
X60711733Y-100716187D01*
X60640118Y-100787801D01*
X60578795Y-100821286D01*
X60511485Y-100817161D01*
X60504260Y-100814633D01*
X60504249Y-100814630D01*
X60325004Y-100794435D01*
X60324996Y-100794435D01*
X60145750Y-100814630D01*
X60145745Y-100814631D01*
X59975476Y-100874211D01*
X59822737Y-100970184D01*
X59695184Y-101097737D01*
X59599211Y-101250476D01*
X59539631Y-101420745D01*
X59539630Y-101420750D01*
X59519435Y-101599996D01*
X59519435Y-101600003D01*
X59179213Y-101600003D01*
X59205368Y-101525255D01*
X59217143Y-101420750D01*
X59225565Y-101346003D01*
X59225565Y-101345996D01*
X59205369Y-101166750D01*
X59205368Y-101166745D01*
X59145788Y-100996476D01*
X59049815Y-100843737D01*
X58922262Y-100716184D01*
X58769523Y-100620211D01*
X58599254Y-100560631D01*
X58599249Y-100560630D01*
X58420004Y-100540435D01*
X58419996Y-100540435D01*
X58240750Y-100560630D01*
X58240745Y-100560631D01*
X58070476Y-100620211D01*
X57917737Y-100716184D01*
X57790184Y-100843737D01*
X57694211Y-100996476D01*
X57634631Y-101166745D01*
X57634630Y-101166750D01*
X57614435Y-101345996D01*
X57614435Y-101346003D01*
X57274215Y-101346003D01*
X57240789Y-101250478D01*
X57144816Y-101097738D01*
X57017262Y-100970184D01*
X56963147Y-100936181D01*
X56864523Y-100874211D01*
X56694254Y-100814631D01*
X56694249Y-100814630D01*
X56515004Y-100794435D01*
X56514996Y-100794435D01*
X56335750Y-100814630D01*
X56335745Y-100814631D01*
X56165476Y-100874211D01*
X56012737Y-100970184D01*
X55885184Y-101097737D01*
X55789211Y-101250476D01*
X55729631Y-101420745D01*
X55729630Y-101420750D01*
X55709435Y-101599996D01*
X55709435Y-101600003D01*
X54789417Y-101600003D01*
X57856882Y-98532537D01*
X57918203Y-98499054D01*
X57987895Y-98504038D01*
X58041503Y-98542900D01*
X58044182Y-98546259D01*
X58044184Y-98546262D01*
X58171738Y-98673816D01*
X58324478Y-98769789D01*
X58390803Y-98792997D01*
X58494745Y-98829368D01*
X58494750Y-98829369D01*
X58673996Y-98849565D01*
X58674000Y-98849565D01*
X58674004Y-98849565D01*
X58853249Y-98829369D01*
X58853252Y-98829368D01*
X58853255Y-98829368D01*
X59023522Y-98769789D01*
X59176262Y-98673816D01*
X59303816Y-98546262D01*
X59399789Y-98393522D01*
X59459368Y-98223255D01*
X59464609Y-98176738D01*
X59479565Y-98044003D01*
X59479565Y-98043996D01*
X59459369Y-97864750D01*
X59459368Y-97864745D01*
X59433215Y-97790003D01*
X59399789Y-97694478D01*
X59303816Y-97541738D01*
X59176262Y-97414184D01*
X59176259Y-97414182D01*
X59172900Y-97411503D01*
X59132764Y-97354311D01*
X59129919Y-97284500D01*
X59162537Y-97226882D01*
X61389411Y-95000010D01*
X61458083Y-94897235D01*
X61505385Y-94783037D01*
X61519809Y-94710523D01*
X61529500Y-94661807D01*
X61529500Y-94635449D01*
X61549185Y-94568410D01*
X61601989Y-94522655D01*
X61639616Y-94512228D01*
X61647255Y-94511368D01*
X61817522Y-94451789D01*
X61970262Y-94355816D01*
X62097816Y-94228262D01*
X62193789Y-94075522D01*
X62253368Y-93905255D01*
X62258609Y-93858738D01*
X62273565Y-93726003D01*
X62273565Y-93725996D01*
X62253369Y-93546750D01*
X62253368Y-93546745D01*
X62193788Y-93376475D01*
X62135664Y-93283973D01*
X62116663Y-93216736D01*
X62135664Y-93152027D01*
X62193788Y-93059524D01*
X62253368Y-92889254D01*
X62253369Y-92889249D01*
X62273565Y-92710003D01*
X62273565Y-92709996D01*
X62253369Y-92530750D01*
X62253368Y-92530745D01*
X62218283Y-92430478D01*
X62193789Y-92360478D01*
X62193440Y-92359923D01*
X62151257Y-92292789D01*
X62097816Y-92207738D01*
X61970262Y-92080184D01*
X61952880Y-92069262D01*
X61817523Y-91984211D01*
X61647254Y-91924631D01*
X61647249Y-91924630D01*
X61468004Y-91904435D01*
X61467996Y-91904435D01*
X61288750Y-91924630D01*
X61288745Y-91924631D01*
X61118476Y-91984211D01*
X60965737Y-92080184D01*
X60838184Y-92207737D01*
X60742211Y-92360476D01*
X60682631Y-92530745D01*
X60682630Y-92530750D01*
X60662435Y-92709996D01*
X60662435Y-92710003D01*
X60682630Y-92889249D01*
X60682631Y-92889254D01*
X60742211Y-93059523D01*
X60800336Y-93152028D01*
X60819336Y-93219265D01*
X60800336Y-93283972D01*
X60742209Y-93376480D01*
X60695122Y-93511047D01*
X60654401Y-93567823D01*
X60589448Y-93593570D01*
X60537127Y-93587134D01*
X60504252Y-93575631D01*
X60325004Y-93555435D01*
X60324996Y-93555435D01*
X60145750Y-93575630D01*
X60145745Y-93575631D01*
X59975476Y-93635211D01*
X59822737Y-93731184D01*
X59695184Y-93858737D01*
X59599210Y-94011478D01*
X59539632Y-94181745D01*
X59534686Y-94225637D01*
X59507618Y-94290051D01*
X59499147Y-94299432D01*
X53013200Y-100785379D01*
X52951877Y-100818864D01*
X52891278Y-100815152D01*
X52891044Y-100816181D01*
X52884800Y-100814756D01*
X52884571Y-100814742D01*
X52884254Y-100814631D01*
X52705004Y-100794435D01*
X52704996Y-100794435D01*
X52525750Y-100814630D01*
X52525745Y-100814631D01*
X52355476Y-100874211D01*
X52202737Y-100970184D01*
X52075184Y-101097737D01*
X51979211Y-101250476D01*
X51919631Y-101420745D01*
X51919630Y-101420750D01*
X51899435Y-101599996D01*
X51899435Y-101600003D01*
X51919630Y-101779249D01*
X51919631Y-101779254D01*
X51979211Y-101949523D01*
X52065852Y-102087411D01*
X52075184Y-102102262D01*
X52202738Y-102229816D01*
X52355478Y-102325789D01*
X52525745Y-102385368D01*
X52544382Y-102387467D01*
X52608795Y-102414532D01*
X52648352Y-102472126D01*
X52654500Y-102510688D01*
X52654500Y-108563311D01*
X52634815Y-108630350D01*
X52582011Y-108676105D01*
X52544389Y-108686531D01*
X52525745Y-108688632D01*
X52355478Y-108748210D01*
X52202737Y-108844184D01*
X52075184Y-108971737D01*
X51979211Y-109124476D01*
X51919631Y-109294745D01*
X51919630Y-109294750D01*
X51899435Y-109473996D01*
X51899435Y-109474003D01*
X23373812Y-109474003D01*
X23360670Y-109223243D01*
X23360500Y-109216753D01*
X23360500Y-108077003D01*
X35389435Y-108077003D01*
X35409630Y-108256249D01*
X35409631Y-108256254D01*
X35469211Y-108426523D01*
X35554106Y-108561632D01*
X35565184Y-108579262D01*
X35692738Y-108706816D01*
X35845478Y-108802789D01*
X36015745Y-108862368D01*
X36015750Y-108862369D01*
X36194996Y-108882565D01*
X36195000Y-108882565D01*
X36195004Y-108882565D01*
X36374249Y-108862369D01*
X36374252Y-108862368D01*
X36374255Y-108862368D01*
X36544522Y-108802789D01*
X36697262Y-108706816D01*
X36824816Y-108579262D01*
X36844104Y-108548565D01*
X36896436Y-108502275D01*
X36965489Y-108491625D01*
X37029338Y-108519999D01*
X37036778Y-108526856D01*
X37089738Y-108579816D01*
X37242478Y-108675789D01*
X37331148Y-108706816D01*
X37412745Y-108735368D01*
X37412750Y-108735369D01*
X37591996Y-108755565D01*
X37592000Y-108755565D01*
X37592004Y-108755565D01*
X37771249Y-108735369D01*
X37771252Y-108735368D01*
X37771255Y-108735368D01*
X37941522Y-108675789D01*
X38094262Y-108579816D01*
X38221816Y-108452262D01*
X38317789Y-108299522D01*
X38377368Y-108129255D01*
X38377369Y-108129249D01*
X38397565Y-107950003D01*
X38397565Y-107949996D01*
X38377369Y-107770750D01*
X38377368Y-107770745D01*
X38362228Y-107727478D01*
X38317789Y-107600478D01*
X38301615Y-107574738D01*
X38221815Y-107447737D01*
X38094262Y-107320184D01*
X37941523Y-107224211D01*
X37771254Y-107164631D01*
X37771249Y-107164630D01*
X37592004Y-107144435D01*
X37591996Y-107144435D01*
X37412750Y-107164630D01*
X37412745Y-107164631D01*
X37242476Y-107224211D01*
X37089737Y-107320184D01*
X36962184Y-107447737D01*
X36962182Y-107447740D01*
X36942895Y-107478435D01*
X36890560Y-107524726D01*
X36821506Y-107535373D01*
X36757658Y-107506997D01*
X36750221Y-107500143D01*
X36697262Y-107447184D01*
X36544523Y-107351211D01*
X36374254Y-107291631D01*
X36374249Y-107291630D01*
X36195004Y-107271435D01*
X36194996Y-107271435D01*
X36015750Y-107291630D01*
X36015745Y-107291631D01*
X35845476Y-107351211D01*
X35692737Y-107447184D01*
X35565184Y-107574737D01*
X35469211Y-107727476D01*
X35409631Y-107897745D01*
X35409630Y-107897750D01*
X35389435Y-108076996D01*
X35389435Y-108077003D01*
X23360500Y-108077003D01*
X23360500Y-101600003D01*
X44279435Y-101600003D01*
X44299630Y-101779249D01*
X44299631Y-101779254D01*
X44359211Y-101949523D01*
X44445852Y-102087411D01*
X44455184Y-102102262D01*
X44582738Y-102229816D01*
X44735478Y-102325789D01*
X44905742Y-102385367D01*
X44905745Y-102385368D01*
X44905750Y-102385369D01*
X45084996Y-102405565D01*
X45085000Y-102405565D01*
X45085004Y-102405565D01*
X45264249Y-102385369D01*
X45264252Y-102385368D01*
X45264255Y-102385368D01*
X45434522Y-102325789D01*
X45560700Y-102246505D01*
X45626672Y-102227500D01*
X46289804Y-102227500D01*
X46289805Y-102227499D01*
X46411035Y-102203386D01*
X46491784Y-102169937D01*
X46525233Y-102156083D01*
X46628008Y-102087411D01*
X46715411Y-102000008D01*
X48055819Y-100659600D01*
X48117142Y-100626115D01*
X48186834Y-100631099D01*
X48242767Y-100672971D01*
X48267184Y-100738435D01*
X48267500Y-100747281D01*
X48267500Y-101058328D01*
X48248494Y-101124300D01*
X48169211Y-101250476D01*
X48109631Y-101420745D01*
X48109630Y-101420750D01*
X48089435Y-101599996D01*
X48089435Y-101600003D01*
X48109630Y-101779249D01*
X48109631Y-101779254D01*
X48169211Y-101949523D01*
X48255852Y-102087411D01*
X48265184Y-102102262D01*
X48392738Y-102229816D01*
X48545478Y-102325789D01*
X48715742Y-102385367D01*
X48715745Y-102385368D01*
X48715750Y-102385369D01*
X48894996Y-102405565D01*
X48895000Y-102405565D01*
X48895004Y-102405565D01*
X49074249Y-102385369D01*
X49074252Y-102385368D01*
X49074255Y-102385368D01*
X49244522Y-102325789D01*
X49397262Y-102229816D01*
X49524816Y-102102262D01*
X49620789Y-101949522D01*
X49680368Y-101779255D01*
X49683597Y-101750601D01*
X49700565Y-101600003D01*
X49700565Y-101599996D01*
X49680369Y-101420750D01*
X49680368Y-101420745D01*
X49654215Y-101346003D01*
X49620789Y-101250478D01*
X49541505Y-101124299D01*
X49522500Y-101058328D01*
X49522500Y-100387280D01*
X49542185Y-100320241D01*
X49558814Y-100299604D01*
X58545414Y-91313003D01*
X72346435Y-91313003D01*
X72366630Y-91492249D01*
X72366631Y-91492254D01*
X72426211Y-91662523D01*
X72522184Y-91815262D01*
X72649738Y-91942816D01*
X72700061Y-91974436D01*
X72761748Y-92013197D01*
X72802478Y-92038789D01*
X72846552Y-92054211D01*
X72972745Y-92098368D01*
X72972750Y-92098369D01*
X73151996Y-92118565D01*
X73152000Y-92118565D01*
X73152003Y-92118565D01*
X73247374Y-92107819D01*
X73316196Y-92119873D01*
X73348939Y-92143358D01*
X73504181Y-92298600D01*
X73537666Y-92359923D01*
X73540500Y-92386281D01*
X73540500Y-97804781D01*
X73564612Y-97926002D01*
X73564614Y-97926009D01*
X73588411Y-97983458D01*
X73597334Y-98005000D01*
X73611916Y-98040206D01*
X73611917Y-98040207D01*
X73667981Y-98124113D01*
X73667982Y-98124115D01*
X73680588Y-98142981D01*
X73680593Y-98142987D01*
X74367615Y-98830008D01*
X74455018Y-98917411D01*
X74474355Y-98930331D01*
X74519160Y-98983942D01*
X74527867Y-99053267D01*
X74523396Y-99071749D01*
X74513503Y-99102195D01*
X74494815Y-99280000D01*
X74513503Y-99457805D01*
X74513504Y-99457807D01*
X74568747Y-99627829D01*
X74568750Y-99627835D01*
X74658141Y-99782665D01*
X74688890Y-99816815D01*
X74777764Y-99915521D01*
X74777767Y-99915523D01*
X74777770Y-99915526D01*
X74922407Y-100020612D01*
X75085733Y-100093329D01*
X75260609Y-100130500D01*
X75260610Y-100130500D01*
X75439389Y-100130500D01*
X75439391Y-100130500D01*
X75614267Y-100093329D01*
X75777593Y-100020612D01*
X75922230Y-99915526D01*
X75932849Y-99903731D01*
X75992335Y-99867083D01*
X76062192Y-99868412D01*
X76117150Y-99903731D01*
X76127770Y-99915526D01*
X76272407Y-100020612D01*
X76435733Y-100093329D01*
X76610609Y-100130500D01*
X76610610Y-100130500D01*
X76789389Y-100130500D01*
X76789391Y-100130500D01*
X76964267Y-100093329D01*
X77127593Y-100020612D01*
X77272230Y-99915526D01*
X77274695Y-99912789D01*
X77298148Y-99886741D01*
X77391859Y-99782665D01*
X77481250Y-99627835D01*
X77536497Y-99457803D01*
X77555185Y-99280000D01*
X77536497Y-99102197D01*
X77481250Y-98932165D01*
X77472494Y-98916999D01*
X77456021Y-98849103D01*
X77472493Y-98793000D01*
X77481250Y-98777835D01*
X77536497Y-98607803D01*
X77555185Y-98430000D01*
X77536497Y-98252197D01*
X77481250Y-98082165D01*
X77472494Y-98066999D01*
X77456021Y-97999103D01*
X77472493Y-97943000D01*
X77481250Y-97927835D01*
X77536497Y-97757803D01*
X77555185Y-97580000D01*
X77536497Y-97402197D01*
X77481250Y-97232165D01*
X77472494Y-97216999D01*
X77456021Y-97149103D01*
X77472493Y-97093000D01*
X77481250Y-97077835D01*
X77536497Y-96907803D01*
X77555185Y-96730000D01*
X77536497Y-96552197D01*
X77481250Y-96382165D01*
X77472494Y-96366999D01*
X77456021Y-96299103D01*
X77472493Y-96243000D01*
X77481250Y-96227835D01*
X77536497Y-96057803D01*
X77555185Y-95880000D01*
X77536497Y-95702197D01*
X77481250Y-95532165D01*
X77472494Y-95516999D01*
X77456021Y-95449103D01*
X77472493Y-95393000D01*
X77481250Y-95377835D01*
X77536497Y-95207803D01*
X77555185Y-95030000D01*
X77536497Y-94852197D01*
X77481250Y-94682165D01*
X77391859Y-94527335D01*
X77323836Y-94451788D01*
X77272235Y-94394478D01*
X77272232Y-94394476D01*
X77272231Y-94394475D01*
X77272230Y-94394474D01*
X77127593Y-94289388D01*
X76964267Y-94216671D01*
X76964265Y-94216670D01*
X76799976Y-94181750D01*
X76789391Y-94179500D01*
X76610609Y-94179500D01*
X76600024Y-94181750D01*
X76435733Y-94216670D01*
X76435728Y-94216672D01*
X76272408Y-94289387D01*
X76127767Y-94394476D01*
X76117148Y-94406270D01*
X76057661Y-94442917D01*
X75987804Y-94441586D01*
X75932852Y-94406270D01*
X75922232Y-94394476D01*
X75922231Y-94394475D01*
X75922230Y-94394474D01*
X75777593Y-94289388D01*
X75614267Y-94216671D01*
X75614265Y-94216670D01*
X75449976Y-94181750D01*
X75439391Y-94179500D01*
X75260609Y-94179500D01*
X75250024Y-94181750D01*
X75085733Y-94216670D01*
X75085728Y-94216672D01*
X74969936Y-94268227D01*
X74900686Y-94277512D01*
X74837409Y-94247884D01*
X74800196Y-94188749D01*
X74795500Y-94154948D01*
X74795500Y-92013196D01*
X74795499Y-92013195D01*
X74787790Y-91974435D01*
X74771386Y-91891966D01*
X74726407Y-91783379D01*
X74724763Y-91778784D01*
X74655414Y-91674996D01*
X74655413Y-91674994D01*
X74642941Y-91662522D01*
X74568008Y-91587589D01*
X74197895Y-91217476D01*
X73806011Y-90825591D01*
X73806010Y-90825590D01*
X73788011Y-90813564D01*
X73769220Y-90798142D01*
X73654262Y-90683184D01*
X73501523Y-90587211D01*
X73331254Y-90527631D01*
X73331249Y-90527630D01*
X73152004Y-90507435D01*
X73151996Y-90507435D01*
X72972750Y-90527630D01*
X72972745Y-90527631D01*
X72802476Y-90587211D01*
X72649737Y-90683184D01*
X72522184Y-90810737D01*
X72426211Y-90963476D01*
X72366631Y-91133745D01*
X72366630Y-91133750D01*
X72346435Y-91312996D01*
X72346435Y-91313003D01*
X58545414Y-91313003D01*
X59751567Y-90106850D01*
X59812888Y-90073367D01*
X59825345Y-90071315D01*
X59869255Y-90066368D01*
X60039522Y-90006789D01*
X60192262Y-89910816D01*
X60319816Y-89783262D01*
X60415789Y-89630522D01*
X60475368Y-89460255D01*
X60475369Y-89460249D01*
X60495565Y-89281003D01*
X60495565Y-89280996D01*
X60475369Y-89101750D01*
X60475368Y-89101745D01*
X60415789Y-88931478D01*
X60319816Y-88778738D01*
X60192262Y-88651184D01*
X60039523Y-88555211D01*
X59869254Y-88495631D01*
X59869249Y-88495630D01*
X59690004Y-88475435D01*
X59689996Y-88475435D01*
X59510750Y-88495630D01*
X59510745Y-88495631D01*
X59340476Y-88555211D01*
X59187737Y-88651184D01*
X59060184Y-88778737D01*
X58964210Y-88931478D01*
X58904632Y-89101745D01*
X58899686Y-89145637D01*
X58872618Y-89210051D01*
X58864147Y-89219432D01*
X57481181Y-90602399D01*
X57419858Y-90635884D01*
X57350166Y-90630900D01*
X57294233Y-90589028D01*
X57269816Y-90523564D01*
X57269500Y-90514718D01*
X57269500Y-90203671D01*
X57288507Y-90137698D01*
X57367788Y-90011524D01*
X57369445Y-90006788D01*
X57427368Y-89841255D01*
X57427369Y-89841249D01*
X57447565Y-89662003D01*
X57447565Y-89661996D01*
X57427369Y-89482750D01*
X57427368Y-89482745D01*
X57367788Y-89312476D01*
X57295584Y-89197565D01*
X57271816Y-89159738D01*
X57144262Y-89032184D01*
X56991523Y-88936211D01*
X56821254Y-88876631D01*
X56821249Y-88876630D01*
X56642004Y-88856435D01*
X56641996Y-88856435D01*
X56462750Y-88876630D01*
X56462745Y-88876631D01*
X56292476Y-88936211D01*
X56139737Y-89032184D01*
X56012184Y-89159737D01*
X55916211Y-89312476D01*
X55856631Y-89482745D01*
X55856630Y-89482750D01*
X55836435Y-89661996D01*
X55836435Y-89662003D01*
X55856630Y-89841249D01*
X55856631Y-89841254D01*
X55916211Y-90011524D01*
X55995493Y-90137698D01*
X56014500Y-90203671D01*
X56014500Y-90874718D01*
X55994815Y-90941757D01*
X55978181Y-90962399D01*
X52571106Y-94369473D01*
X52509783Y-94402958D01*
X52440091Y-94397974D01*
X52384158Y-94356102D01*
X52360205Y-94295675D01*
X52347369Y-94181750D01*
X52347368Y-94181745D01*
X52287788Y-94011476D01*
X52245257Y-93943789D01*
X52191816Y-93858738D01*
X52064262Y-93731184D01*
X51911523Y-93635211D01*
X51741254Y-93575631D01*
X51741249Y-93575630D01*
X51562004Y-93555435D01*
X51561996Y-93555435D01*
X51382750Y-93575630D01*
X51382745Y-93575631D01*
X51212476Y-93635211D01*
X51059737Y-93731184D01*
X50932184Y-93858737D01*
X50836211Y-94011476D01*
X50776631Y-94181745D01*
X50776630Y-94181750D01*
X50756435Y-94360996D01*
X50756435Y-94361003D01*
X50776630Y-94540249D01*
X50776631Y-94540254D01*
X50836211Y-94710523D01*
X50925231Y-94852197D01*
X50932184Y-94863262D01*
X51059738Y-94990816D01*
X51212478Y-95086789D01*
X51301280Y-95117862D01*
X51382745Y-95146368D01*
X51382750Y-95146369D01*
X51496675Y-95159205D01*
X51561089Y-95186271D01*
X51600644Y-95243866D01*
X51602782Y-95313703D01*
X51570473Y-95370106D01*
X46004400Y-100936181D01*
X45943077Y-100969666D01*
X45916719Y-100972500D01*
X45626672Y-100972500D01*
X45560700Y-100953494D01*
X45434523Y-100874211D01*
X45264254Y-100814631D01*
X45264249Y-100814630D01*
X45085004Y-100794435D01*
X45084996Y-100794435D01*
X44905750Y-100814630D01*
X44905745Y-100814631D01*
X44735476Y-100874211D01*
X44582737Y-100970184D01*
X44455184Y-101097737D01*
X44359211Y-101250476D01*
X44299631Y-101420745D01*
X44299630Y-101420750D01*
X44279435Y-101599996D01*
X44279435Y-101600003D01*
X23360500Y-101600003D01*
X23360500Y-98679003D01*
X35135435Y-98679003D01*
X35155630Y-98858249D01*
X35155631Y-98858254D01*
X35215211Y-99028523D01*
X35230759Y-99053267D01*
X35311184Y-99181262D01*
X35438738Y-99308816D01*
X35591478Y-99404789D01*
X35742983Y-99457803D01*
X35761745Y-99464368D01*
X35761750Y-99464369D01*
X35940996Y-99484565D01*
X35941000Y-99484565D01*
X35941004Y-99484565D01*
X36120249Y-99464369D01*
X36120252Y-99464368D01*
X36120255Y-99464368D01*
X36290522Y-99404789D01*
X36443262Y-99308816D01*
X36565075Y-99187003D01*
X42882435Y-99187003D01*
X42902630Y-99366249D01*
X42902631Y-99366254D01*
X42962211Y-99536523D01*
X43019583Y-99627829D01*
X43058184Y-99689262D01*
X43185738Y-99816816D01*
X43338478Y-99912789D01*
X43508745Y-99972368D01*
X43508750Y-99972369D01*
X43687996Y-99992565D01*
X43688000Y-99992565D01*
X43688004Y-99992565D01*
X43867249Y-99972369D01*
X43867252Y-99972368D01*
X43867255Y-99972368D01*
X44037522Y-99912789D01*
X44190262Y-99816816D01*
X44317816Y-99689262D01*
X44413789Y-99536522D01*
X44473368Y-99366255D01*
X44493565Y-99187000D01*
X44492918Y-99181262D01*
X44473369Y-99007750D01*
X44473368Y-99007745D01*
X44418018Y-98849565D01*
X44413789Y-98837478D01*
X44409095Y-98830008D01*
X44371257Y-98769789D01*
X44317816Y-98684738D01*
X44190262Y-98557184D01*
X44151040Y-98532539D01*
X44037523Y-98461211D01*
X43867254Y-98401631D01*
X43867249Y-98401630D01*
X43688004Y-98381435D01*
X43687996Y-98381435D01*
X43508750Y-98401630D01*
X43508745Y-98401631D01*
X43338476Y-98461211D01*
X43185737Y-98557184D01*
X43058184Y-98684737D01*
X42962211Y-98837476D01*
X42902631Y-99007745D01*
X42902630Y-99007750D01*
X42882435Y-99186996D01*
X42882435Y-99187003D01*
X36565075Y-99187003D01*
X36570816Y-99181262D01*
X36666789Y-99028522D01*
X36726368Y-98858255D01*
X36728709Y-98837478D01*
X36746565Y-98679003D01*
X36746565Y-98678996D01*
X36726369Y-98499750D01*
X36726368Y-98499745D01*
X36701963Y-98430000D01*
X36666789Y-98329478D01*
X36570816Y-98176738D01*
X36443262Y-98049184D01*
X36290523Y-97953211D01*
X36120254Y-97893631D01*
X36120249Y-97893630D01*
X35941004Y-97873435D01*
X35940996Y-97873435D01*
X35761750Y-97893630D01*
X35761745Y-97893631D01*
X35591476Y-97953211D01*
X35438737Y-98049184D01*
X35311184Y-98176737D01*
X35215211Y-98329476D01*
X35155631Y-98499745D01*
X35155630Y-98499750D01*
X35135435Y-98678996D01*
X35135435Y-98679003D01*
X23360500Y-98679003D01*
X23360500Y-97790003D01*
X37802435Y-97790003D01*
X37822630Y-97969249D01*
X37822631Y-97969254D01*
X37882211Y-98139523D01*
X37953009Y-98252197D01*
X37978184Y-98292262D01*
X38105738Y-98419816D01*
X38258478Y-98515789D01*
X38306347Y-98532539D01*
X38428745Y-98575368D01*
X38428750Y-98575369D01*
X38607996Y-98595565D01*
X38608000Y-98595565D01*
X38608004Y-98595565D01*
X38787249Y-98575369D01*
X38787252Y-98575368D01*
X38787255Y-98575368D01*
X38957522Y-98515789D01*
X39083700Y-98436505D01*
X39149672Y-98417500D01*
X41082804Y-98417500D01*
X41082805Y-98417499D01*
X41204035Y-98393386D01*
X41284784Y-98359937D01*
X41318233Y-98346083D01*
X41421008Y-98277411D01*
X41508411Y-98190008D01*
X43305416Y-96393003D01*
X44025435Y-96393003D01*
X44045630Y-96572249D01*
X44045631Y-96572254D01*
X44105211Y-96742523D01*
X44201184Y-96895262D01*
X44328738Y-97022816D01*
X44481478Y-97118789D01*
X44584963Y-97155000D01*
X44651745Y-97178368D01*
X44651750Y-97178369D01*
X44830996Y-97198565D01*
X44831000Y-97198565D01*
X44831004Y-97198565D01*
X45010249Y-97178369D01*
X45010252Y-97178368D01*
X45010255Y-97178368D01*
X45180522Y-97118789D01*
X45333262Y-97022816D01*
X45460816Y-96895262D01*
X45556789Y-96742522D01*
X45616368Y-96572255D01*
X45618628Y-96552197D01*
X45636565Y-96393003D01*
X45636565Y-96392996D01*
X45616369Y-96213750D01*
X45616368Y-96213745D01*
X45561802Y-96057805D01*
X45556789Y-96043478D01*
X45460816Y-95890738D01*
X45333262Y-95763184D01*
X45236202Y-95702197D01*
X45180523Y-95667211D01*
X45010254Y-95607631D01*
X45010249Y-95607630D01*
X44831004Y-95587435D01*
X44830996Y-95587435D01*
X44651750Y-95607630D01*
X44651745Y-95607631D01*
X44481476Y-95667211D01*
X44328737Y-95763184D01*
X44201184Y-95890737D01*
X44105211Y-96043476D01*
X44045631Y-96213745D01*
X44045630Y-96213750D01*
X44025435Y-96392996D01*
X44025435Y-96393003D01*
X43305416Y-96393003D01*
X51306416Y-88392003D01*
X53804435Y-88392003D01*
X53824630Y-88571249D01*
X53824631Y-88571254D01*
X53884211Y-88741523D01*
X53907595Y-88778738D01*
X53980184Y-88894262D01*
X54107738Y-89021816D01*
X54260478Y-89117789D01*
X54430745Y-89177368D01*
X54430750Y-89177369D01*
X54609996Y-89197565D01*
X54610000Y-89197565D01*
X54610004Y-89197565D01*
X54789249Y-89177369D01*
X54789252Y-89177368D01*
X54789255Y-89177368D01*
X54959522Y-89117789D01*
X55112262Y-89021816D01*
X55239816Y-88894262D01*
X55335789Y-88741522D01*
X55395368Y-88571255D01*
X55403889Y-88495630D01*
X55415565Y-88392003D01*
X55415565Y-88391996D01*
X55395369Y-88212750D01*
X55395368Y-88212745D01*
X55335788Y-88042476D01*
X55250894Y-87907369D01*
X55239816Y-87889738D01*
X55112262Y-87762184D01*
X54959523Y-87666211D01*
X54789254Y-87606631D01*
X54789249Y-87606630D01*
X54610004Y-87586435D01*
X54609996Y-87586435D01*
X54430750Y-87606630D01*
X54430745Y-87606631D01*
X54260476Y-87666211D01*
X54107737Y-87762184D01*
X53980184Y-87889737D01*
X53884211Y-88042476D01*
X53824631Y-88212745D01*
X53824630Y-88212750D01*
X53804435Y-88391996D01*
X53804435Y-88392003D01*
X51306416Y-88392003D01*
X52703416Y-86995003D01*
X64218435Y-86995003D01*
X64238630Y-87174249D01*
X64238631Y-87174254D01*
X64298211Y-87344523D01*
X64378010Y-87471522D01*
X64394184Y-87497262D01*
X64521738Y-87624816D01*
X64674478Y-87720789D01*
X64763148Y-87751816D01*
X64844745Y-87780368D01*
X64844750Y-87780369D01*
X65023996Y-87800565D01*
X65024000Y-87800565D01*
X65024004Y-87800565D01*
X65203249Y-87780369D01*
X65203252Y-87780368D01*
X65203255Y-87780368D01*
X65373522Y-87720789D01*
X65526262Y-87624816D01*
X65653816Y-87497262D01*
X65749789Y-87344522D01*
X65809368Y-87174255D01*
X65809369Y-87174249D01*
X65829565Y-86995003D01*
X65829565Y-86994996D01*
X65809369Y-86815750D01*
X65809368Y-86815745D01*
X65794228Y-86772478D01*
X65749789Y-86645478D01*
X65733615Y-86619738D01*
X65674847Y-86526209D01*
X65653816Y-86492738D01*
X65526262Y-86365184D01*
X65480822Y-86336632D01*
X65373523Y-86269211D01*
X65203254Y-86209631D01*
X65203249Y-86209630D01*
X65024004Y-86189435D01*
X65023996Y-86189435D01*
X64844750Y-86209630D01*
X64844745Y-86209631D01*
X64674476Y-86269211D01*
X64521737Y-86365184D01*
X64394184Y-86492737D01*
X64298211Y-86645476D01*
X64238631Y-86815745D01*
X64238630Y-86815750D01*
X64218435Y-86994996D01*
X64218435Y-86995003D01*
X52703416Y-86995003D01*
X53098600Y-86599819D01*
X53159923Y-86566334D01*
X53186281Y-86563500D01*
X59444328Y-86563500D01*
X59510299Y-86582505D01*
X59636478Y-86661789D01*
X59806745Y-86721368D01*
X59806750Y-86721369D01*
X59985996Y-86741565D01*
X59986000Y-86741565D01*
X59986004Y-86741565D01*
X60165249Y-86721369D01*
X60165252Y-86721368D01*
X60165255Y-86721368D01*
X60335522Y-86661789D01*
X60450061Y-86589819D01*
X60517294Y-86570819D01*
X60582004Y-86589820D01*
X60633508Y-86622182D01*
X60633511Y-86622183D01*
X60803767Y-86681759D01*
X60803773Y-86681760D01*
X60803775Y-86681761D01*
X60803776Y-86681761D01*
X60803780Y-86681762D01*
X60983026Y-86701958D01*
X60983030Y-86701958D01*
X60983034Y-86701958D01*
X61162279Y-86681762D01*
X61162282Y-86681761D01*
X61162285Y-86681761D01*
X61332552Y-86622182D01*
X61485292Y-86526209D01*
X61612846Y-86398655D01*
X61708819Y-86245915D01*
X61768398Y-86075648D01*
X61788595Y-85896393D01*
X61786226Y-85875369D01*
X61768399Y-85717143D01*
X61768398Y-85717138D01*
X61708818Y-85546869D01*
X61669612Y-85484473D01*
X61612846Y-85394131D01*
X61485292Y-85266577D01*
X61485290Y-85266575D01*
X61431830Y-85232984D01*
X61385540Y-85180650D01*
X61374892Y-85111596D01*
X61403267Y-85047748D01*
X61461657Y-85009376D01*
X61483917Y-85004771D01*
X61557175Y-84996517D01*
X61647249Y-84986369D01*
X61647252Y-84986368D01*
X61647255Y-84986368D01*
X61817522Y-84926789D01*
X61970262Y-84830816D01*
X62097816Y-84703262D01*
X62193789Y-84550522D01*
X62253368Y-84380255D01*
X62258313Y-84336361D01*
X62285378Y-84271951D01*
X62293832Y-84262585D01*
X62648411Y-83908008D01*
X62696859Y-83835500D01*
X62717083Y-83805233D01*
X62717899Y-83803260D01*
X62718605Y-83802385D01*
X62719958Y-83799855D01*
X62720437Y-83800111D01*
X62761735Y-83748855D01*
X62818576Y-83727485D01*
X62917255Y-83716368D01*
X63087522Y-83656789D01*
X63213700Y-83577505D01*
X63279672Y-83558500D01*
X65466804Y-83558500D01*
X65466805Y-83558499D01*
X65588035Y-83534386D01*
X65669110Y-83500803D01*
X65702233Y-83487083D01*
X65805008Y-83418411D01*
X65892411Y-83331008D01*
X71596121Y-77627296D01*
X71657442Y-77593813D01*
X71727134Y-77598797D01*
X71783067Y-77640669D01*
X71805815Y-77700199D01*
X71806498Y-77700079D01*
X71807121Y-77703616D01*
X71807327Y-77704154D01*
X71807436Y-77705400D01*
X71807438Y-77705413D01*
X71868594Y-77933655D01*
X71868596Y-77933659D01*
X71868597Y-77933663D01*
X71945815Y-78099257D01*
X71968465Y-78147830D01*
X71968467Y-78147834D01*
X72040710Y-78251007D01*
X72104005Y-78341401D01*
X72271099Y-78508495D01*
X72326170Y-78547056D01*
X72464665Y-78644032D01*
X72464667Y-78644033D01*
X72464670Y-78644035D01*
X72678837Y-78743903D01*
X72678843Y-78743904D01*
X72678844Y-78743905D01*
X72719550Y-78754812D01*
X72907092Y-78805063D01*
X73083534Y-78820500D01*
X73142499Y-78825659D01*
X73142500Y-78825659D01*
X73142501Y-78825659D01*
X73201466Y-78820500D01*
X73377908Y-78805063D01*
X73606163Y-78743903D01*
X73820330Y-78644035D01*
X74013901Y-78508495D01*
X74180995Y-78341401D01*
X74181004Y-78341388D01*
X74182136Y-78340040D01*
X74182793Y-78339602D01*
X74184823Y-78337573D01*
X74185230Y-78337980D01*
X74240305Y-78301334D01*
X74310166Y-78300220D01*
X74369538Y-78337053D01*
X74394837Y-78380735D01*
X74397685Y-78389331D01*
X74397687Y-78389336D01*
X74432545Y-78445849D01*
X74489788Y-78538656D01*
X74613844Y-78662712D01*
X74763166Y-78754814D01*
X74929703Y-78809999D01*
X75032491Y-78820500D01*
X76332508Y-78820499D01*
X76435297Y-78809999D01*
X76601834Y-78754814D01*
X76751156Y-78662712D01*
X76875212Y-78538656D01*
X76967314Y-78389334D01*
X77022499Y-78222797D01*
X77033000Y-78120009D01*
X77032999Y-76819992D01*
X77022499Y-76717203D01*
X76967314Y-76550666D01*
X76875212Y-76401344D01*
X76751156Y-76277288D01*
X76658388Y-76220069D01*
X76601836Y-76185187D01*
X76601831Y-76185185D01*
X76601715Y-76185146D01*
X76593233Y-76182336D01*
X76535790Y-76142564D01*
X76508967Y-76078048D01*
X76521282Y-76009272D01*
X76550267Y-75972517D01*
X76550073Y-75972323D01*
X76551719Y-75970676D01*
X76552540Y-75969636D01*
X76553888Y-75968504D01*
X76553901Y-75968495D01*
X76720995Y-75801401D01*
X76856535Y-75607830D01*
X76956403Y-75393663D01*
X77017563Y-75165408D01*
X77038159Y-74930000D01*
X77017563Y-74694592D01*
X76956403Y-74466337D01*
X76856535Y-74252171D01*
X76850925Y-74244158D01*
X76720994Y-74058597D01*
X76553902Y-73891506D01*
X76553896Y-73891501D01*
X76368342Y-73761575D01*
X76324717Y-73706998D01*
X76317523Y-73637500D01*
X76349046Y-73575145D01*
X76368342Y-73558425D01*
X76479280Y-73480745D01*
X76553901Y-73428495D01*
X76720995Y-73261401D01*
X76856535Y-73067830D01*
X76956403Y-72853663D01*
X77017563Y-72625408D01*
X77038159Y-72390000D01*
X77017563Y-72154592D01*
X76956403Y-71926337D01*
X76856535Y-71712171D01*
X76793581Y-71622262D01*
X76720994Y-71518597D01*
X76553902Y-71351506D01*
X76553896Y-71351501D01*
X76368342Y-71221575D01*
X76324717Y-71166998D01*
X76317523Y-71097500D01*
X76349046Y-71035145D01*
X76368342Y-71018425D01*
X76479280Y-70940745D01*
X76553901Y-70888495D01*
X76720995Y-70721401D01*
X76856535Y-70527830D01*
X76956403Y-70313663D01*
X77017563Y-70085408D01*
X77038159Y-69850000D01*
X77017563Y-69614592D01*
X76956403Y-69386337D01*
X76856535Y-69172171D01*
X76775511Y-69056455D01*
X76720994Y-68978597D01*
X76553902Y-68811506D01*
X76553896Y-68811501D01*
X76368342Y-68681575D01*
X76324717Y-68626998D01*
X76317523Y-68557500D01*
X76349046Y-68495145D01*
X76368342Y-68478425D01*
X76494344Y-68390197D01*
X76553901Y-68348495D01*
X76720995Y-68181401D01*
X76856535Y-67987830D01*
X76956403Y-67773663D01*
X77017563Y-67545408D01*
X77038159Y-67310000D01*
X77017563Y-67074592D01*
X76959616Y-66858328D01*
X76956405Y-66846344D01*
X76956404Y-66846343D01*
X76956403Y-66846337D01*
X76856535Y-66632171D01*
X76850252Y-66623197D01*
X76720994Y-66438597D01*
X76553902Y-66271506D01*
X76553896Y-66271501D01*
X76368342Y-66141575D01*
X76324717Y-66086998D01*
X76317523Y-66017500D01*
X76349046Y-65955145D01*
X76368342Y-65938425D01*
X76455597Y-65877328D01*
X76553901Y-65808495D01*
X76720995Y-65641401D01*
X76856535Y-65447830D01*
X76956403Y-65233663D01*
X77017563Y-65005408D01*
X77038159Y-64770000D01*
X77017563Y-64534592D01*
X76956403Y-64306337D01*
X76856535Y-64092171D01*
X76831901Y-64056989D01*
X76720994Y-63898597D01*
X76553902Y-63731506D01*
X76553896Y-63731501D01*
X76368342Y-63601575D01*
X76324717Y-63546998D01*
X76317523Y-63477500D01*
X76349046Y-63415145D01*
X76368342Y-63398425D01*
X76393810Y-63380592D01*
X76553901Y-63268495D01*
X76720995Y-63101401D01*
X76856535Y-62907830D01*
X76956403Y-62693663D01*
X77017563Y-62465408D01*
X77038159Y-62230000D01*
X77017563Y-61994592D01*
X76956403Y-61766337D01*
X76856535Y-61552171D01*
X76812016Y-61488590D01*
X76720994Y-61358597D01*
X76553902Y-61191506D01*
X76553896Y-61191501D01*
X76368342Y-61061575D01*
X76324717Y-61006998D01*
X76317523Y-60937500D01*
X76349046Y-60875145D01*
X76368342Y-60858425D01*
X76390526Y-60842891D01*
X76553901Y-60728495D01*
X76720995Y-60561401D01*
X76856535Y-60367830D01*
X76956403Y-60153663D01*
X77017563Y-59925408D01*
X77038159Y-59690000D01*
X77017563Y-59454592D01*
X76956403Y-59226337D01*
X76856535Y-59012171D01*
X76850925Y-59004158D01*
X76720994Y-58818597D01*
X76553902Y-58651506D01*
X76553895Y-58651501D01*
X76360334Y-58515967D01*
X76360330Y-58515965D01*
X76360328Y-58515964D01*
X76146163Y-58416097D01*
X76146159Y-58416096D01*
X76146155Y-58416094D01*
X75917913Y-58354938D01*
X75917903Y-58354936D01*
X75682501Y-58334341D01*
X75682499Y-58334341D01*
X75447096Y-58354936D01*
X75447086Y-58354938D01*
X75218844Y-58416094D01*
X75218835Y-58416098D01*
X75004671Y-58515964D01*
X75004669Y-58515965D01*
X74811097Y-58651505D01*
X74644005Y-58818597D01*
X74514075Y-59004158D01*
X74459498Y-59047783D01*
X74390000Y-59054977D01*
X74327645Y-59023454D01*
X74310925Y-59004158D01*
X74180994Y-58818597D01*
X74013902Y-58651506D01*
X74013895Y-58651501D01*
X73820334Y-58515967D01*
X73820330Y-58515965D01*
X73820328Y-58515964D01*
X73606163Y-58416097D01*
X73606159Y-58416096D01*
X73606155Y-58416094D01*
X73377913Y-58354938D01*
X73377903Y-58354936D01*
X73142501Y-58334341D01*
X73142499Y-58334341D01*
X72907096Y-58354936D01*
X72907086Y-58354938D01*
X72678844Y-58416094D01*
X72678835Y-58416098D01*
X72464671Y-58515964D01*
X72464669Y-58515965D01*
X72271097Y-58651505D01*
X72104005Y-58818597D01*
X71968465Y-59012169D01*
X71968464Y-59012171D01*
X71868598Y-59226335D01*
X71868594Y-59226344D01*
X71807438Y-59454586D01*
X71807436Y-59454596D01*
X71786841Y-59689999D01*
X71786841Y-59690000D01*
X71807436Y-59925403D01*
X71807438Y-59925413D01*
X71868594Y-60153655D01*
X71868596Y-60153659D01*
X71868597Y-60153663D01*
X71931543Y-60288651D01*
X71942035Y-60357729D01*
X71913515Y-60421513D01*
X71906842Y-60428737D01*
X70976984Y-61358597D01*
X70846992Y-61488589D01*
X70803289Y-61532292D01*
X70759586Y-61575994D01*
X70759585Y-61575996D01*
X70690233Y-61679789D01*
X70688586Y-61684393D01*
X70643614Y-61792964D01*
X70643612Y-61792972D01*
X70619500Y-61914192D01*
X70619500Y-76015719D01*
X70599815Y-76082758D01*
X70583181Y-76103400D01*
X65054400Y-81632181D01*
X64993077Y-81665666D01*
X64966719Y-81668500D01*
X63787672Y-81668500D01*
X63721700Y-81649494D01*
X63595523Y-81570211D01*
X63425254Y-81510631D01*
X63425249Y-81510630D01*
X63246004Y-81490435D01*
X63245996Y-81490435D01*
X63066750Y-81510630D01*
X63066742Y-81510632D01*
X62953454Y-81550273D01*
X62883675Y-81553834D01*
X62823048Y-81519105D01*
X62790821Y-81457111D01*
X62788500Y-81433231D01*
X62788500Y-80793688D01*
X62808185Y-80726649D01*
X62860989Y-80680894D01*
X62898616Y-80670468D01*
X62917255Y-80668368D01*
X63087522Y-80608789D01*
X63240262Y-80512816D01*
X63367816Y-80385262D01*
X63463789Y-80232522D01*
X63523368Y-80062255D01*
X63523369Y-80062249D01*
X63543565Y-79883003D01*
X63543565Y-79882996D01*
X63523369Y-79703750D01*
X63523368Y-79703745D01*
X63463789Y-79533478D01*
X63420282Y-79464237D01*
X63398764Y-79429991D01*
X63379764Y-79362754D01*
X63400132Y-79295919D01*
X63416072Y-79276343D01*
X64987411Y-77705006D01*
X65047522Y-77615043D01*
X65056083Y-77602231D01*
X65058249Y-77597003D01*
X65996435Y-77597003D01*
X66016630Y-77776249D01*
X66016631Y-77776254D01*
X66076211Y-77946523D01*
X66172181Y-78099257D01*
X66172184Y-78099262D01*
X66299738Y-78226816D01*
X66338241Y-78251009D01*
X66418332Y-78301334D01*
X66452478Y-78322789D01*
X66615220Y-78379735D01*
X66622745Y-78382368D01*
X66622750Y-78382369D01*
X66801996Y-78402565D01*
X66802000Y-78402565D01*
X66802004Y-78402565D01*
X66981249Y-78382369D01*
X66981252Y-78382368D01*
X66981255Y-78382368D01*
X67151522Y-78322789D01*
X67304262Y-78226816D01*
X67431816Y-78099262D01*
X67527789Y-77946522D01*
X67587368Y-77776255D01*
X67595350Y-77705413D01*
X67607565Y-77597003D01*
X67607565Y-77596996D01*
X67587369Y-77417750D01*
X67587368Y-77417745D01*
X67527788Y-77247476D01*
X67485257Y-77179789D01*
X67431816Y-77094738D01*
X67304262Y-76967184D01*
X67286880Y-76956262D01*
X67151523Y-76871211D01*
X66981254Y-76811631D01*
X66981249Y-76811630D01*
X66802004Y-76791435D01*
X66801996Y-76791435D01*
X66622750Y-76811630D01*
X66622745Y-76811631D01*
X66452476Y-76871211D01*
X66299737Y-76967184D01*
X66172184Y-77094737D01*
X66076211Y-77247476D01*
X66016631Y-77417745D01*
X66016630Y-77417750D01*
X65996435Y-77596996D01*
X65996435Y-77597003D01*
X65058249Y-77597003D01*
X65076157Y-77553768D01*
X65103386Y-77488032D01*
X65127500Y-77366801D01*
X65127500Y-77243194D01*
X65127500Y-40800621D01*
X65147185Y-40733582D01*
X65163819Y-40712940D01*
X72827940Y-33048819D01*
X72889263Y-33015334D01*
X72915621Y-33012500D01*
X74297349Y-33012500D01*
X74364388Y-33032185D01*
X74410143Y-33084989D01*
X74420087Y-33154147D01*
X74409733Y-33188898D01*
X74408723Y-33191065D01*
X74408596Y-33191339D01*
X74408594Y-33191344D01*
X74347438Y-33419586D01*
X74347436Y-33419596D01*
X74326841Y-33654999D01*
X74326841Y-33655000D01*
X74347436Y-33890403D01*
X74347438Y-33890413D01*
X74408594Y-34118655D01*
X74408596Y-34118659D01*
X74408597Y-34118663D01*
X74414594Y-34131523D01*
X74508465Y-34332830D01*
X74508467Y-34332834D01*
X74644001Y-34526395D01*
X74644006Y-34526402D01*
X74811097Y-34693493D01*
X74811103Y-34693498D01*
X74996658Y-34823425D01*
X75040283Y-34878002D01*
X75047477Y-34947500D01*
X75015954Y-35009855D01*
X74996658Y-35026575D01*
X74811097Y-35156505D01*
X74644005Y-35323597D01*
X74508465Y-35517169D01*
X74508464Y-35517171D01*
X74408598Y-35731335D01*
X74408594Y-35731344D01*
X74347438Y-35959586D01*
X74347436Y-35959596D01*
X74326841Y-36194999D01*
X74326841Y-36195000D01*
X74347436Y-36430403D01*
X74347438Y-36430413D01*
X74408594Y-36658655D01*
X74408596Y-36658659D01*
X74408597Y-36658663D01*
X74508465Y-36872830D01*
X74508467Y-36872834D01*
X74644001Y-37066395D01*
X74644006Y-37066402D01*
X74811097Y-37233493D01*
X74811103Y-37233498D01*
X74996658Y-37363425D01*
X75040283Y-37418002D01*
X75047477Y-37487500D01*
X75015954Y-37549855D01*
X74996658Y-37566575D01*
X74811097Y-37696505D01*
X74644005Y-37863597D01*
X74508465Y-38057169D01*
X74508464Y-38057171D01*
X74408598Y-38271335D01*
X74408594Y-38271344D01*
X74347438Y-38499586D01*
X74347436Y-38499596D01*
X74326841Y-38734999D01*
X74326841Y-38735000D01*
X74347436Y-38970403D01*
X74347438Y-38970413D01*
X74408594Y-39198655D01*
X74408596Y-39198659D01*
X74408597Y-39198663D01*
X74439236Y-39264368D01*
X74508465Y-39412830D01*
X74508467Y-39412834D01*
X74644001Y-39606395D01*
X74644006Y-39606402D01*
X74811097Y-39773493D01*
X74811103Y-39773498D01*
X74996658Y-39903425D01*
X75040283Y-39958002D01*
X75047477Y-40027500D01*
X75015954Y-40089855D01*
X74996658Y-40106575D01*
X74811097Y-40236505D01*
X74644005Y-40403597D01*
X74508465Y-40597169D01*
X74508464Y-40597171D01*
X74408598Y-40811335D01*
X74408594Y-40811344D01*
X74347438Y-41039586D01*
X74347436Y-41039596D01*
X74326841Y-41274999D01*
X74326841Y-41275000D01*
X74347436Y-41510403D01*
X74347438Y-41510413D01*
X74408594Y-41738655D01*
X74408596Y-41738659D01*
X74408597Y-41738663D01*
X74508465Y-41952830D01*
X74508467Y-41952834D01*
X74644001Y-42146395D01*
X74644006Y-42146402D01*
X74811097Y-42313493D01*
X74811103Y-42313498D01*
X74996658Y-42443425D01*
X75040283Y-42498002D01*
X75047477Y-42567500D01*
X75015954Y-42629855D01*
X74996658Y-42646575D01*
X74811097Y-42776505D01*
X74644005Y-42943597D01*
X74514075Y-43129158D01*
X74459498Y-43172783D01*
X74390000Y-43179977D01*
X74327645Y-43148454D01*
X74310925Y-43129158D01*
X74180994Y-42943597D01*
X74013902Y-42776506D01*
X74013895Y-42776501D01*
X73820334Y-42640967D01*
X73820330Y-42640965D01*
X73820328Y-42640964D01*
X73606163Y-42541097D01*
X73606159Y-42541096D01*
X73606155Y-42541094D01*
X73377913Y-42479938D01*
X73377903Y-42479936D01*
X73142501Y-42459341D01*
X73142499Y-42459341D01*
X72907096Y-42479936D01*
X72907086Y-42479938D01*
X72678844Y-42541094D01*
X72678835Y-42541098D01*
X72464671Y-42640964D01*
X72464669Y-42640965D01*
X72271097Y-42776505D01*
X72104005Y-42943597D01*
X71968465Y-43137169D01*
X71968464Y-43137171D01*
X71868598Y-43351335D01*
X71868594Y-43351344D01*
X71807438Y-43579586D01*
X71807436Y-43579596D01*
X71786841Y-43814999D01*
X71786841Y-43815000D01*
X71807436Y-44050403D01*
X71807438Y-44050413D01*
X71868594Y-44278655D01*
X71868596Y-44278659D01*
X71868597Y-44278663D01*
X71872500Y-44287032D01*
X71968465Y-44492830D01*
X71968467Y-44492834D01*
X72076781Y-44647521D01*
X72104001Y-44686396D01*
X72104006Y-44686402D01*
X72271097Y-44853493D01*
X72271103Y-44853498D01*
X72456658Y-44983425D01*
X72500283Y-45038002D01*
X72507477Y-45107500D01*
X72475954Y-45169855D01*
X72456658Y-45186575D01*
X72271097Y-45316505D01*
X72104005Y-45483597D01*
X71968465Y-45677169D01*
X71968464Y-45677171D01*
X71868598Y-45891335D01*
X71868594Y-45891344D01*
X71807438Y-46119586D01*
X71807436Y-46119596D01*
X71786841Y-46354999D01*
X71786841Y-46355000D01*
X71807436Y-46590403D01*
X71807438Y-46590413D01*
X71868594Y-46818655D01*
X71868596Y-46818659D01*
X71868597Y-46818663D01*
X71950910Y-46995184D01*
X71968465Y-47032830D01*
X71968467Y-47032834D01*
X72031419Y-47122738D01*
X72104005Y-47226401D01*
X72271099Y-47393495D01*
X72314175Y-47423657D01*
X72464665Y-47529032D01*
X72464667Y-47529033D01*
X72464670Y-47529035D01*
X72678837Y-47628903D01*
X72907092Y-47690063D01*
X73083534Y-47705500D01*
X73142499Y-47710659D01*
X73142500Y-47710659D01*
X73142501Y-47710659D01*
X73201466Y-47705500D01*
X73377908Y-47690063D01*
X73606163Y-47628903D01*
X73820330Y-47529035D01*
X74013901Y-47393495D01*
X74180995Y-47226401D01*
X74181004Y-47226388D01*
X74182136Y-47225040D01*
X74182793Y-47224602D01*
X74184823Y-47222573D01*
X74185230Y-47222980D01*
X74240305Y-47186334D01*
X74310166Y-47185220D01*
X74369538Y-47222053D01*
X74394837Y-47265735D01*
X74397685Y-47274331D01*
X74397687Y-47274336D01*
X74432569Y-47330888D01*
X74489788Y-47423656D01*
X74613844Y-47547712D01*
X74763166Y-47639814D01*
X74929703Y-47694999D01*
X75032491Y-47705500D01*
X76332508Y-47705499D01*
X76435297Y-47694999D01*
X76601834Y-47639814D01*
X76751156Y-47547712D01*
X76875212Y-47423656D01*
X76967314Y-47274334D01*
X77022499Y-47107797D01*
X77033000Y-47005009D01*
X77032999Y-45704992D01*
X77022499Y-45602203D01*
X76967314Y-45435666D01*
X76875212Y-45286344D01*
X76751156Y-45162288D01*
X76658388Y-45105069D01*
X76601836Y-45070187D01*
X76601831Y-45070185D01*
X76601715Y-45070146D01*
X76593233Y-45067336D01*
X76535790Y-45027564D01*
X76508967Y-44963048D01*
X76521282Y-44894272D01*
X76550267Y-44857517D01*
X76550073Y-44857323D01*
X76551719Y-44855676D01*
X76552540Y-44854636D01*
X76553888Y-44853504D01*
X76553901Y-44853495D01*
X76720995Y-44686401D01*
X76856535Y-44492830D01*
X76956403Y-44278663D01*
X77017563Y-44050408D01*
X77038159Y-43815000D01*
X77017563Y-43579592D01*
X76956403Y-43351337D01*
X76856535Y-43137171D01*
X76850925Y-43129158D01*
X76720994Y-42943597D01*
X76553902Y-42776506D01*
X76553896Y-42776501D01*
X76368342Y-42646575D01*
X76324717Y-42591998D01*
X76317523Y-42522500D01*
X76349046Y-42460145D01*
X76368342Y-42443425D01*
X76390526Y-42427891D01*
X76553901Y-42313495D01*
X76720995Y-42146401D01*
X76856535Y-41952830D01*
X76956403Y-41738663D01*
X77017563Y-41510408D01*
X77038159Y-41275000D01*
X77037705Y-41269816D01*
X77017563Y-41039596D01*
X77017563Y-41039592D01*
X76956403Y-40811337D01*
X76856535Y-40597171D01*
X76761013Y-40460750D01*
X76720994Y-40403597D01*
X76553902Y-40236506D01*
X76553896Y-40236501D01*
X76368342Y-40106575D01*
X76324717Y-40051998D01*
X76317523Y-39982500D01*
X76349046Y-39920145D01*
X76368342Y-39903425D01*
X76390526Y-39887891D01*
X76553901Y-39773495D01*
X76720995Y-39606401D01*
X76856535Y-39412830D01*
X76956403Y-39198663D01*
X77017563Y-38970408D01*
X77038159Y-38735000D01*
X77017563Y-38499592D01*
X76956403Y-38271337D01*
X76856535Y-38057171D01*
X76817848Y-38001919D01*
X76720994Y-37863597D01*
X76553902Y-37696506D01*
X76553896Y-37696501D01*
X76368342Y-37566575D01*
X76324717Y-37511998D01*
X76317523Y-37442500D01*
X76349046Y-37380145D01*
X76368342Y-37363425D01*
X76398946Y-37341996D01*
X76553901Y-37233495D01*
X76720995Y-37066401D01*
X76856535Y-36872830D01*
X76956403Y-36658663D01*
X77017563Y-36430408D01*
X77038159Y-36195000D01*
X77017563Y-35959592D01*
X76956403Y-35731337D01*
X76856535Y-35517171D01*
X76720995Y-35323599D01*
X76720994Y-35323597D01*
X76553902Y-35156506D01*
X76553896Y-35156501D01*
X76368342Y-35026575D01*
X76324717Y-34971998D01*
X76317523Y-34902500D01*
X76349046Y-34840145D01*
X76368342Y-34823425D01*
X76412847Y-34792262D01*
X76553901Y-34693495D01*
X76720995Y-34526401D01*
X76856535Y-34332830D01*
X76956403Y-34118663D01*
X77017563Y-33890408D01*
X77038159Y-33655000D01*
X77017563Y-33419592D01*
X76956403Y-33191337D01*
X76856535Y-32977171D01*
X76834193Y-32945262D01*
X76720994Y-32783597D01*
X76553902Y-32616506D01*
X76553896Y-32616501D01*
X76368342Y-32486575D01*
X76324717Y-32431998D01*
X76317523Y-32362500D01*
X76349046Y-32300145D01*
X76368342Y-32283425D01*
X76425172Y-32243632D01*
X76553901Y-32153495D01*
X76720995Y-31986401D01*
X76856535Y-31792830D01*
X76956403Y-31578663D01*
X77017563Y-31350408D01*
X77038159Y-31115000D01*
X77017563Y-30879592D01*
X76956403Y-30651337D01*
X76856535Y-30437171D01*
X76829876Y-30399097D01*
X76720994Y-30243597D01*
X76553902Y-30076506D01*
X76553896Y-30076501D01*
X76368342Y-29946575D01*
X76324717Y-29891998D01*
X76317523Y-29822500D01*
X76349046Y-29760145D01*
X76368342Y-29743425D01*
X76412847Y-29712262D01*
X76553901Y-29613495D01*
X76720995Y-29446401D01*
X76856535Y-29252830D01*
X76956403Y-29038663D01*
X77017563Y-28810408D01*
X77038159Y-28575000D01*
X77017563Y-28339592D01*
X76956403Y-28111337D01*
X76856535Y-27897171D01*
X76850925Y-27889158D01*
X76720994Y-27703597D01*
X76553902Y-27536506D01*
X76553895Y-27536501D01*
X76360334Y-27400967D01*
X76360330Y-27400965D01*
X76360328Y-27400964D01*
X76146163Y-27301097D01*
X76146159Y-27301096D01*
X76146155Y-27301094D01*
X75917913Y-27239938D01*
X75917903Y-27239936D01*
X75682501Y-27219341D01*
X75682499Y-27219341D01*
X75447096Y-27239936D01*
X75447086Y-27239938D01*
X75218844Y-27301094D01*
X75218835Y-27301098D01*
X75004671Y-27400964D01*
X75004669Y-27400965D01*
X74811097Y-27536505D01*
X74644005Y-27703597D01*
X74514075Y-27889158D01*
X74459498Y-27932783D01*
X74390000Y-27939977D01*
X74327645Y-27908454D01*
X74310925Y-27889158D01*
X74180994Y-27703597D01*
X74013902Y-27536506D01*
X74013895Y-27536501D01*
X73820334Y-27400967D01*
X73820330Y-27400965D01*
X73820328Y-27400964D01*
X73606163Y-27301097D01*
X73606159Y-27301096D01*
X73606155Y-27301094D01*
X73377913Y-27239938D01*
X73377903Y-27239936D01*
X73142501Y-27219341D01*
X73142499Y-27219341D01*
X72907096Y-27239936D01*
X72907086Y-27239938D01*
X72678844Y-27301094D01*
X72678835Y-27301098D01*
X72464671Y-27400964D01*
X72464669Y-27400965D01*
X72271097Y-27536505D01*
X72104005Y-27703597D01*
X71968465Y-27897169D01*
X71968464Y-27897171D01*
X71868598Y-28111335D01*
X71868594Y-28111344D01*
X71807438Y-28339586D01*
X71807436Y-28339596D01*
X71786841Y-28574999D01*
X71786841Y-28575000D01*
X71807436Y-28810403D01*
X71807438Y-28810413D01*
X71868594Y-29038655D01*
X71868599Y-29038669D01*
X71874028Y-29050310D01*
X71884521Y-29119387D01*
X71856002Y-29183171D01*
X71797526Y-29221412D01*
X71785839Y-29224333D01*
X71698971Y-29241612D01*
X71698962Y-29241615D01*
X71671888Y-29252830D01*
X71584770Y-29288915D01*
X71584761Y-29288920D01*
X71490152Y-29352137D01*
X71490150Y-29352138D01*
X71481994Y-29357586D01*
X71481990Y-29357590D01*
X67522016Y-33317565D01*
X63584992Y-37254589D01*
X63541289Y-37298292D01*
X63497586Y-37341994D01*
X63497585Y-37341996D01*
X63428233Y-37445789D01*
X63426586Y-37450393D01*
X63381614Y-37558964D01*
X63381612Y-37558972D01*
X63357500Y-37680192D01*
X63357500Y-46702593D01*
X63337815Y-46769632D01*
X63285011Y-46815387D01*
X63247384Y-46825813D01*
X63124749Y-46839630D01*
X63124745Y-46839631D01*
X62954476Y-46899211D01*
X62801737Y-46995184D01*
X62674184Y-47122737D01*
X62578211Y-47275476D01*
X62518631Y-47445745D01*
X62518630Y-47445750D01*
X62498435Y-47624996D01*
X62498435Y-47625003D01*
X62518630Y-47804249D01*
X62518631Y-47804254D01*
X62578211Y-47974523D01*
X62674184Y-48127262D01*
X62801738Y-48254816D01*
X62954478Y-48350789D01*
X63124745Y-48410368D01*
X63124750Y-48410369D01*
X63247383Y-48424186D01*
X63311797Y-48451252D01*
X63351352Y-48508847D01*
X63357500Y-48547406D01*
X63357500Y-76937375D01*
X63337815Y-77004414D01*
X63321181Y-77025056D01*
X61799181Y-78547056D01*
X61737858Y-78580541D01*
X61668166Y-78575557D01*
X61612233Y-78533685D01*
X61587816Y-78468221D01*
X61587500Y-78459375D01*
X61587500Y-75122196D01*
X61587499Y-75122195D01*
X61574507Y-75056876D01*
X61574507Y-75056873D01*
X61563387Y-75000971D01*
X61563386Y-75000965D01*
X61529937Y-74920215D01*
X61516083Y-74886767D01*
X61447414Y-74783996D01*
X61447413Y-74783994D01*
X61418787Y-74755368D01*
X61360008Y-74696589D01*
X58047456Y-71384037D01*
X58013971Y-71322714D01*
X58018955Y-71253022D01*
X58060827Y-71197089D01*
X58103042Y-71176581D01*
X58243663Y-71138903D01*
X58457830Y-71039035D01*
X58651401Y-70903495D01*
X58818495Y-70736401D01*
X58954035Y-70542830D01*
X59053903Y-70328663D01*
X59115063Y-70100408D01*
X59135659Y-69865000D01*
X59115063Y-69629592D01*
X59053903Y-69401337D01*
X58954035Y-69187171D01*
X58857472Y-69049263D01*
X58818494Y-68993597D01*
X58651402Y-68826506D01*
X58651396Y-68826501D01*
X58465842Y-68696575D01*
X58422217Y-68641998D01*
X58415023Y-68572500D01*
X58446546Y-68510145D01*
X58465842Y-68493425D01*
X58544501Y-68438347D01*
X58651401Y-68363495D01*
X58818495Y-68196401D01*
X58948425Y-68010842D01*
X59003002Y-67967217D01*
X59072500Y-67960023D01*
X59134855Y-67991546D01*
X59151575Y-68010842D01*
X59281500Y-68196395D01*
X59281505Y-68196401D01*
X59448599Y-68363495D01*
X59545384Y-68431265D01*
X59642165Y-68499032D01*
X59642167Y-68499033D01*
X59642170Y-68499035D01*
X59856337Y-68598903D01*
X59856343Y-68598904D01*
X59856344Y-68598905D01*
X59869761Y-68602500D01*
X60084592Y-68660063D01*
X60262177Y-68675600D01*
X60319999Y-68680659D01*
X60320000Y-68680659D01*
X60320001Y-68680659D01*
X60377823Y-68675600D01*
X60555408Y-68660063D01*
X60783663Y-68598903D01*
X60997830Y-68499035D01*
X61191401Y-68363495D01*
X61358495Y-68196401D01*
X61494035Y-68002830D01*
X61593903Y-67788663D01*
X61655063Y-67560408D01*
X61675659Y-67325000D01*
X61655063Y-67089592D01*
X61593903Y-66861337D01*
X61494035Y-66647171D01*
X61488425Y-66639158D01*
X61358494Y-66453597D01*
X61191402Y-66286506D01*
X61191396Y-66286501D01*
X61005842Y-66156575D01*
X60962217Y-66101998D01*
X60955023Y-66032500D01*
X60986546Y-65970145D01*
X61005842Y-65953425D01*
X61073889Y-65905778D01*
X61191401Y-65823495D01*
X61358495Y-65656401D01*
X61494035Y-65462830D01*
X61593903Y-65248663D01*
X61655063Y-65020408D01*
X61675659Y-64785000D01*
X61674864Y-64775919D01*
X61655063Y-64549596D01*
X61655063Y-64549592D01*
X61593903Y-64321337D01*
X61494035Y-64107171D01*
X61458898Y-64056989D01*
X61358494Y-63913597D01*
X61191402Y-63746506D01*
X61191395Y-63746501D01*
X60997834Y-63610967D01*
X60997830Y-63610965D01*
X60965662Y-63595965D01*
X60783663Y-63511097D01*
X60783659Y-63511096D01*
X60783655Y-63511094D01*
X60555413Y-63449938D01*
X60555403Y-63449936D01*
X60320001Y-63429341D01*
X60319999Y-63429341D01*
X60084596Y-63449936D01*
X60084586Y-63449938D01*
X59856344Y-63511094D01*
X59856335Y-63511098D01*
X59642171Y-63610964D01*
X59642169Y-63610965D01*
X59448600Y-63746503D01*
X59326673Y-63868430D01*
X59265350Y-63901914D01*
X59195658Y-63896930D01*
X59139725Y-63855058D01*
X59122810Y-63824081D01*
X59073797Y-63692671D01*
X59073793Y-63692664D01*
X58987547Y-63577455D01*
X58987544Y-63577452D01*
X58872335Y-63491206D01*
X58872328Y-63491202D01*
X58737482Y-63440908D01*
X58737483Y-63440908D01*
X58677883Y-63434501D01*
X58677881Y-63434500D01*
X58677873Y-63434500D01*
X58677864Y-63434500D01*
X56882129Y-63434500D01*
X56882123Y-63434501D01*
X56822516Y-63440908D01*
X56679359Y-63494303D01*
X56678544Y-63492119D01*
X56622646Y-63504275D01*
X56557183Y-63479854D01*
X56515315Y-63423918D01*
X56507500Y-63380592D01*
X56507500Y-53270281D01*
X56527185Y-53203242D01*
X56543819Y-53182600D01*
X59542408Y-50184011D01*
X59542411Y-50184008D01*
X59611083Y-50081233D01*
X59658385Y-49967035D01*
X59682500Y-49845803D01*
X59682500Y-35204857D01*
X59702185Y-35137818D01*
X59754989Y-35092063D01*
X59820384Y-35081637D01*
X59943997Y-35095565D01*
X59944000Y-35095565D01*
X59944004Y-35095565D01*
X60123249Y-35075369D01*
X60123252Y-35075368D01*
X60123255Y-35075368D01*
X60293522Y-35015789D01*
X60446262Y-34919816D01*
X60573816Y-34792262D01*
X60669789Y-34639522D01*
X60729368Y-34469255D01*
X60744739Y-34332834D01*
X60749565Y-34290003D01*
X60749565Y-34289996D01*
X60729369Y-34110750D01*
X60729368Y-34110745D01*
X60669788Y-33940476D01*
X60590549Y-33814369D01*
X60573816Y-33787738D01*
X60446262Y-33660184D01*
X60418023Y-33642440D01*
X60293523Y-33564211D01*
X60123254Y-33504631D01*
X60123249Y-33504630D01*
X59944004Y-33484435D01*
X59943996Y-33484435D01*
X59764750Y-33504630D01*
X59764745Y-33504631D01*
X59594476Y-33564211D01*
X59500215Y-33623440D01*
X59432978Y-33642440D01*
X59366143Y-33622072D01*
X59320929Y-33568804D01*
X59317201Y-33559400D01*
X59272789Y-33432478D01*
X59187894Y-33297369D01*
X59176816Y-33279738D01*
X59049262Y-33152184D01*
X59049260Y-33152183D01*
X58896523Y-33056211D01*
X58818767Y-33029003D01*
X60653435Y-33029003D01*
X60673630Y-33208249D01*
X60673631Y-33208254D01*
X60733211Y-33378523D01*
X60804381Y-33491788D01*
X60829184Y-33531262D01*
X60956738Y-33658816D01*
X61109478Y-33754789D01*
X61203638Y-33787737D01*
X61279745Y-33814368D01*
X61279750Y-33814369D01*
X61458996Y-33834565D01*
X61459000Y-33834565D01*
X61459004Y-33834565D01*
X61638249Y-33814369D01*
X61638252Y-33814368D01*
X61638255Y-33814368D01*
X61730749Y-33782003D01*
X62567435Y-33782003D01*
X62587630Y-33961249D01*
X62587631Y-33961254D01*
X62647211Y-34131523D01*
X62743184Y-34284262D01*
X62870738Y-34411816D01*
X63023478Y-34507789D01*
X63076671Y-34526402D01*
X63193745Y-34567368D01*
X63193750Y-34567369D01*
X63372996Y-34587565D01*
X63373000Y-34587565D01*
X63373004Y-34587565D01*
X63552249Y-34567369D01*
X63552252Y-34567368D01*
X63552255Y-34567368D01*
X63722522Y-34507789D01*
X63875262Y-34411816D01*
X64002816Y-34284262D01*
X64098789Y-34131522D01*
X64158368Y-33961255D01*
X64160709Y-33940478D01*
X64178565Y-33782003D01*
X64178565Y-33781996D01*
X64158369Y-33602750D01*
X64158368Y-33602745D01*
X64147458Y-33571565D01*
X64098789Y-33432478D01*
X64090688Y-33419586D01*
X64013894Y-33297369D01*
X64002816Y-33279738D01*
X63875262Y-33152184D01*
X63875260Y-33152183D01*
X63722523Y-33056211D01*
X63552254Y-32996631D01*
X63552249Y-32996630D01*
X63373004Y-32976435D01*
X63372996Y-32976435D01*
X63193750Y-32996630D01*
X63193745Y-32996631D01*
X63023476Y-33056211D01*
X62870737Y-33152184D01*
X62743184Y-33279737D01*
X62647211Y-33432476D01*
X62587631Y-33602745D01*
X62587630Y-33602750D01*
X62567435Y-33781996D01*
X62567435Y-33782003D01*
X61730749Y-33782003D01*
X61808522Y-33754789D01*
X61961262Y-33658816D01*
X62088816Y-33531262D01*
X62184789Y-33378522D01*
X62244368Y-33208255D01*
X62244369Y-33208249D01*
X62264565Y-33029003D01*
X62264565Y-33028996D01*
X62244369Y-32849750D01*
X62244368Y-32849745D01*
X62184789Y-32679478D01*
X62088816Y-32526738D01*
X61961262Y-32399184D01*
X61902880Y-32362500D01*
X61808523Y-32303211D01*
X61638254Y-32243631D01*
X61638249Y-32243630D01*
X61459004Y-32223435D01*
X61458996Y-32223435D01*
X61279750Y-32243630D01*
X61279745Y-32243631D01*
X61109476Y-32303211D01*
X60956737Y-32399184D01*
X60829184Y-32526737D01*
X60733211Y-32679476D01*
X60673631Y-32849745D01*
X60673630Y-32849750D01*
X60653435Y-33028996D01*
X60653435Y-33029003D01*
X58818767Y-33029003D01*
X58726254Y-32996631D01*
X58726249Y-32996630D01*
X58547004Y-32976435D01*
X58546996Y-32976435D01*
X58367750Y-32996630D01*
X58367745Y-32996631D01*
X58197476Y-33056211D01*
X58044739Y-33152183D01*
X57953914Y-33243008D01*
X57892590Y-33276492D01*
X57822899Y-33271508D01*
X57766965Y-33229636D01*
X57742549Y-33164171D01*
X57749192Y-33114371D01*
X57808366Y-32945262D01*
X57808369Y-32945249D01*
X57828565Y-32766003D01*
X57828565Y-32765996D01*
X57808369Y-32586750D01*
X57808368Y-32586745D01*
X57782215Y-32512003D01*
X57748789Y-32416478D01*
X57737922Y-32399184D01*
X57696176Y-32332745D01*
X57652816Y-32263738D01*
X57525262Y-32136184D01*
X57372523Y-32040211D01*
X57202254Y-31980631D01*
X57202249Y-31980630D01*
X57023004Y-31960435D01*
X57022996Y-31960435D01*
X56843750Y-31980630D01*
X56843745Y-31980631D01*
X56673476Y-32040211D01*
X56520737Y-32136184D01*
X56393184Y-32263737D01*
X56297211Y-32416476D01*
X56237631Y-32586745D01*
X56237630Y-32586750D01*
X56217435Y-32765996D01*
X56217435Y-32766003D01*
X56237630Y-32945249D01*
X56237631Y-32945254D01*
X56297211Y-33115523D01*
X56377316Y-33243008D01*
X56393184Y-33268262D01*
X56520738Y-33395816D01*
X56673478Y-33491789D01*
X56843745Y-33551368D01*
X56843750Y-33551369D01*
X57022996Y-33571565D01*
X57023000Y-33571565D01*
X57023004Y-33571565D01*
X57202249Y-33551369D01*
X57202252Y-33551368D01*
X57202255Y-33551368D01*
X57372522Y-33491789D01*
X57525262Y-33395816D01*
X57616088Y-33304989D01*
X57677407Y-33271507D01*
X57747099Y-33276491D01*
X57803033Y-33318362D01*
X57827450Y-33383826D01*
X57820808Y-33433627D01*
X57761632Y-33602742D01*
X57761630Y-33602750D01*
X57741435Y-33781996D01*
X57741435Y-33782003D01*
X57761630Y-33961249D01*
X57761631Y-33961254D01*
X57821211Y-34131523D01*
X57917184Y-34284262D01*
X58044738Y-34411816D01*
X58136142Y-34469249D01*
X58197478Y-34507789D01*
X58344454Y-34559218D01*
X58401230Y-34599940D01*
X58426978Y-34664892D01*
X58427500Y-34676260D01*
X58427500Y-49472719D01*
X58407815Y-49539758D01*
X58391181Y-49560400D01*
X55479992Y-52471589D01*
X55436289Y-52515292D01*
X55392586Y-52558994D01*
X55392585Y-52558996D01*
X55323233Y-52662789D01*
X55321586Y-52667393D01*
X55276614Y-52775964D01*
X55276612Y-52775972D01*
X55252500Y-52897192D01*
X55252500Y-70165802D01*
X55254265Y-70174677D01*
X55248036Y-70244268D01*
X55205172Y-70299445D01*
X55139282Y-70322688D01*
X55071285Y-70306619D01*
X55044966Y-70286547D01*
X54871819Y-70113400D01*
X54838334Y-70052077D01*
X54835500Y-70025719D01*
X54835500Y-68390196D01*
X54835499Y-68390195D01*
X54822631Y-68325500D01*
X54822631Y-68325497D01*
X54811387Y-68268971D01*
X54811386Y-68268970D01*
X54811386Y-68268966D01*
X54766407Y-68160379D01*
X54764763Y-68155784D01*
X54695414Y-68051996D01*
X54695413Y-68051994D01*
X54654261Y-68010842D01*
X54608008Y-67964589D01*
X54421835Y-67778416D01*
X54388350Y-67717093D01*
X54389741Y-67658641D01*
X54416063Y-67560408D01*
X54436659Y-67325000D01*
X54416063Y-67089592D01*
X54354903Y-66861337D01*
X54255035Y-66647171D01*
X54249425Y-66639158D01*
X54119494Y-66453597D01*
X53952402Y-66286506D01*
X53952396Y-66286501D01*
X53766842Y-66156575D01*
X53723217Y-66101998D01*
X53716023Y-66032500D01*
X53747546Y-65970145D01*
X53766842Y-65953425D01*
X53834889Y-65905778D01*
X53952401Y-65823495D01*
X54119495Y-65656401D01*
X54255035Y-65462830D01*
X54354903Y-65248663D01*
X54416063Y-65020408D01*
X54436659Y-64785000D01*
X54435864Y-64775919D01*
X54416063Y-64549596D01*
X54416063Y-64549592D01*
X54354903Y-64321337D01*
X54255035Y-64107171D01*
X54219898Y-64056989D01*
X54119494Y-63913597D01*
X53952402Y-63746506D01*
X53952395Y-63746501D01*
X53758834Y-63610967D01*
X53758830Y-63610965D01*
X53726662Y-63595965D01*
X53544663Y-63511097D01*
X53544659Y-63511096D01*
X53544655Y-63511094D01*
X53316413Y-63449938D01*
X53316403Y-63449936D01*
X53081001Y-63429341D01*
X53080999Y-63429341D01*
X52845596Y-63449936D01*
X52845586Y-63449938D01*
X52617344Y-63511094D01*
X52617335Y-63511098D01*
X52403171Y-63610964D01*
X52403169Y-63610965D01*
X52209600Y-63746503D01*
X52087673Y-63868430D01*
X52026350Y-63901914D01*
X51956658Y-63896930D01*
X51900725Y-63855058D01*
X51883810Y-63824081D01*
X51834797Y-63692671D01*
X51834793Y-63692664D01*
X51748547Y-63577455D01*
X51748544Y-63577452D01*
X51633335Y-63491206D01*
X51633328Y-63491202D01*
X51498482Y-63440908D01*
X51498483Y-63440908D01*
X51438883Y-63434501D01*
X51438881Y-63434500D01*
X51438873Y-63434500D01*
X51438864Y-63434500D01*
X49643129Y-63434500D01*
X49643123Y-63434501D01*
X49583516Y-63440908D01*
X49448671Y-63491202D01*
X49448664Y-63491206D01*
X49333455Y-63577452D01*
X49333452Y-63577455D01*
X49247206Y-63692664D01*
X49247202Y-63692671D01*
X49196908Y-63827517D01*
X49190501Y-63887116D01*
X49190500Y-63887135D01*
X49190500Y-65196718D01*
X49170815Y-65263757D01*
X49154180Y-65284399D01*
X48240992Y-66197589D01*
X48197289Y-66241292D01*
X48153586Y-66284994D01*
X48153585Y-66284996D01*
X48084233Y-66388789D01*
X48082586Y-66393393D01*
X48037615Y-66501962D01*
X48037612Y-66501972D01*
X48024658Y-66567099D01*
X48013500Y-66623192D01*
X48013500Y-73308060D01*
X47993815Y-73375099D01*
X47941011Y-73420854D01*
X47871853Y-73430798D01*
X47808297Y-73401773D01*
X47801819Y-73395741D01*
X47746262Y-73340184D01*
X47593523Y-73244211D01*
X47423254Y-73184631D01*
X47423249Y-73184630D01*
X47244004Y-73164435D01*
X47243996Y-73164435D01*
X47064750Y-73184630D01*
X47064745Y-73184631D01*
X46894476Y-73244211D01*
X46741737Y-73340184D01*
X46614184Y-73467737D01*
X46518211Y-73620476D01*
X46458631Y-73790745D01*
X46458630Y-73790750D01*
X46438435Y-73969996D01*
X46438435Y-73970003D01*
X46458630Y-74149249D01*
X46458633Y-74149262D01*
X46498594Y-74263462D01*
X46502156Y-74333241D01*
X46467428Y-74393868D01*
X46422508Y-74421458D01*
X46317480Y-74458209D01*
X46164737Y-74554184D01*
X46037184Y-74681737D01*
X45941211Y-74834476D01*
X45881631Y-75004745D01*
X45881630Y-75004750D01*
X45861435Y-75183996D01*
X45861435Y-75184003D01*
X45881630Y-75363249D01*
X45881631Y-75363254D01*
X45941211Y-75533523D01*
X45987902Y-75607830D01*
X46037184Y-75686262D01*
X46164738Y-75813816D01*
X46317478Y-75909789D01*
X46485233Y-75968489D01*
X46487745Y-75969368D01*
X46487750Y-75969369D01*
X46666996Y-75989565D01*
X46667000Y-75989565D01*
X46667004Y-75989565D01*
X46846249Y-75969369D01*
X46846252Y-75969368D01*
X46846255Y-75969368D01*
X47016522Y-75909789D01*
X47169262Y-75813816D01*
X47296816Y-75686262D01*
X47392789Y-75533522D01*
X47452368Y-75363255D01*
X47472565Y-75184000D01*
X47470470Y-75165408D01*
X47452369Y-75004750D01*
X47452368Y-75004745D01*
X47412405Y-74890537D01*
X47408844Y-74820758D01*
X47443573Y-74760130D01*
X47488492Y-74732540D01*
X47593522Y-74695789D01*
X47746262Y-74599816D01*
X47801819Y-74544259D01*
X47863142Y-74510774D01*
X47932834Y-74515758D01*
X47988767Y-74557630D01*
X48013184Y-74623094D01*
X48013500Y-74631940D01*
X48013500Y-77912807D01*
X48037612Y-78034028D01*
X48037614Y-78034035D01*
X48064633Y-78099262D01*
X48084917Y-78148233D01*
X48084919Y-78148236D01*
X48084920Y-78148238D01*
X48147135Y-78241349D01*
X48147138Y-78241353D01*
X48153589Y-78251008D01*
X48153590Y-78251009D01*
X49160358Y-79257777D01*
X49193843Y-79319100D01*
X49188859Y-79388792D01*
X49160358Y-79433139D01*
X49149260Y-79444236D01*
X49053287Y-79596975D01*
X48993707Y-79767244D01*
X48993706Y-79767249D01*
X48973511Y-79946495D01*
X48973511Y-79946502D01*
X48993706Y-80125748D01*
X48993707Y-80125753D01*
X49053287Y-80296022D01*
X49099548Y-80369645D01*
X49118548Y-80436881D01*
X49099549Y-80501587D01*
X49061317Y-80562434D01*
X49001741Y-80732691D01*
X49001738Y-80732704D01*
X48981543Y-80911950D01*
X48981543Y-80911957D01*
X49001738Y-81091203D01*
X49001739Y-81091208D01*
X49061319Y-81261477D01*
X49117886Y-81351502D01*
X49157292Y-81414216D01*
X49284846Y-81541770D01*
X49437586Y-81637743D01*
X49570241Y-81684161D01*
X49607853Y-81697322D01*
X49607858Y-81697323D01*
X49787104Y-81717519D01*
X49787108Y-81717519D01*
X49787112Y-81717519D01*
X49966357Y-81697323D01*
X49966360Y-81697322D01*
X49966363Y-81697322D01*
X50136630Y-81637743D01*
X50289370Y-81541770D01*
X50416924Y-81414216D01*
X50512897Y-81261476D01*
X50572476Y-81091209D01*
X50575744Y-81062211D01*
X50586310Y-80968428D01*
X50613376Y-80904014D01*
X50670971Y-80864459D01*
X50740808Y-80862321D01*
X50797211Y-80894630D01*
X53487589Y-83585008D01*
X53556981Y-83654400D01*
X53574993Y-83672412D01*
X53677760Y-83741079D01*
X53677773Y-83741086D01*
X53780867Y-83783788D01*
X53780869Y-83783789D01*
X53791965Y-83788385D01*
X53821653Y-83794290D01*
X53913194Y-83812500D01*
X53913197Y-83812500D01*
X54036803Y-83812500D01*
X55211328Y-83812500D01*
X55277300Y-83831506D01*
X55399053Y-83908009D01*
X55403478Y-83910789D01*
X55451064Y-83927440D01*
X55573745Y-83970368D01*
X55573750Y-83970369D01*
X55752996Y-83990565D01*
X55753000Y-83990565D01*
X55753004Y-83990565D01*
X55932249Y-83970369D01*
X55932252Y-83970368D01*
X55932255Y-83970368D01*
X56102522Y-83910789D01*
X56106947Y-83908009D01*
X56204300Y-83846837D01*
X56271537Y-83827836D01*
X56311227Y-83834788D01*
X56335745Y-83843368D01*
X56335751Y-83843368D01*
X56335753Y-83843369D01*
X56514996Y-83863565D01*
X56515000Y-83863565D01*
X56515004Y-83863565D01*
X56694249Y-83843369D01*
X56694252Y-83843368D01*
X56694255Y-83843368D01*
X56864522Y-83783789D01*
X56967528Y-83719066D01*
X57034764Y-83700066D01*
X57101600Y-83720434D01*
X57146814Y-83773701D01*
X57157500Y-83824060D01*
X57157500Y-84675328D01*
X57138494Y-84741300D01*
X57059211Y-84867476D01*
X56999631Y-85037745D01*
X56999630Y-85037750D01*
X56981532Y-85198383D01*
X56954466Y-85262797D01*
X56896871Y-85302353D01*
X56858312Y-85308500D01*
X52813192Y-85308500D01*
X52691973Y-85332612D01*
X52691965Y-85332614D01*
X52632828Y-85357110D01*
X52632827Y-85357110D01*
X52577773Y-85379913D01*
X52577760Y-85379920D01*
X52497218Y-85433738D01*
X52497217Y-85433739D01*
X52474989Y-85448590D01*
X52474988Y-85448591D01*
X45660510Y-92263070D01*
X45599187Y-92296555D01*
X45529495Y-92291571D01*
X45485148Y-92263070D01*
X45372262Y-92150184D01*
X45219523Y-92054211D01*
X45049254Y-91994631D01*
X45049249Y-91994630D01*
X44870004Y-91974435D01*
X44869996Y-91974435D01*
X44690750Y-91994630D01*
X44690745Y-91994631D01*
X44520476Y-92054211D01*
X44367737Y-92150184D01*
X44240184Y-92277737D01*
X44144210Y-92430478D01*
X44112849Y-92520105D01*
X44072127Y-92576882D01*
X44007174Y-92602629D01*
X43938613Y-92589173D01*
X43929835Y-92584145D01*
X43783523Y-92492211D01*
X43613254Y-92432631D01*
X43613249Y-92432630D01*
X43434004Y-92412435D01*
X43433996Y-92412435D01*
X43254750Y-92432630D01*
X43254745Y-92432631D01*
X43084476Y-92492211D01*
X42931737Y-92588184D01*
X42804184Y-92715737D01*
X42708211Y-92868476D01*
X42648631Y-93038745D01*
X42648630Y-93038750D01*
X42628435Y-93217996D01*
X42628435Y-93218003D01*
X42648630Y-93397249D01*
X42648631Y-93397254D01*
X42708211Y-93567523D01*
X42731896Y-93605217D01*
X42804184Y-93720262D01*
X42931738Y-93847816D01*
X43084478Y-93943789D01*
X43254745Y-94003368D01*
X43254750Y-94003369D01*
X43433996Y-94023565D01*
X43434000Y-94023565D01*
X43434004Y-94023565D01*
X43607047Y-94004068D01*
X43675868Y-94016123D01*
X43727248Y-94063472D01*
X43744872Y-94131082D01*
X43723145Y-94197488D01*
X43708611Y-94214969D01*
X40797400Y-97126181D01*
X40736077Y-97159666D01*
X40709719Y-97162500D01*
X39149672Y-97162500D01*
X39083700Y-97143494D01*
X38957523Y-97064211D01*
X38787254Y-97004631D01*
X38787249Y-97004630D01*
X38608004Y-96984435D01*
X38607996Y-96984435D01*
X38428750Y-97004630D01*
X38428745Y-97004631D01*
X38258476Y-97064211D01*
X38105737Y-97160184D01*
X37978184Y-97287737D01*
X37882211Y-97440476D01*
X37822631Y-97610745D01*
X37822630Y-97610750D01*
X37802435Y-97789996D01*
X37802435Y-97790003D01*
X23360500Y-97790003D01*
X23360500Y-92075000D01*
X30219783Y-92075000D01*
X30238623Y-92314382D01*
X30294674Y-92547853D01*
X30294678Y-92547865D01*
X30386565Y-92769702D01*
X30459827Y-92889255D01*
X30512028Y-92974439D01*
X30667973Y-93157027D01*
X30850561Y-93312972D01*
X30850563Y-93312973D01*
X31055297Y-93438434D01*
X31122244Y-93466164D01*
X31277137Y-93530323D01*
X31510621Y-93586377D01*
X31750000Y-93605217D01*
X31989379Y-93586377D01*
X32222863Y-93530323D01*
X32444704Y-93438433D01*
X32649439Y-93312972D01*
X32832027Y-93157027D01*
X32987972Y-92974439D01*
X33113433Y-92769704D01*
X33205323Y-92547863D01*
X33261377Y-92314379D01*
X33280217Y-92075000D01*
X33261377Y-91835621D01*
X33205323Y-91602137D01*
X33190770Y-91567003D01*
X36786435Y-91567003D01*
X36806630Y-91746249D01*
X36806631Y-91746254D01*
X36866211Y-91916523D01*
X36952727Y-92054211D01*
X36962184Y-92069262D01*
X37089738Y-92196816D01*
X37180080Y-92253582D01*
X37240539Y-92291571D01*
X37242478Y-92292789D01*
X37362879Y-92334919D01*
X37412745Y-92352368D01*
X37412750Y-92352369D01*
X37591996Y-92372565D01*
X37592000Y-92372565D01*
X37592004Y-92372565D01*
X37771249Y-92352369D01*
X37771252Y-92352368D01*
X37771255Y-92352368D01*
X37941522Y-92292789D01*
X38094262Y-92196816D01*
X38221816Y-92069262D01*
X38317789Y-91916522D01*
X38377368Y-91746255D01*
X38385397Y-91674994D01*
X38397565Y-91567003D01*
X38397565Y-91566996D01*
X38377369Y-91387750D01*
X38377368Y-91387745D01*
X38351215Y-91313003D01*
X38317789Y-91217478D01*
X38221816Y-91064738D01*
X38094262Y-90937184D01*
X38076592Y-90926081D01*
X37941523Y-90841211D01*
X37771254Y-90781631D01*
X37771249Y-90781630D01*
X37592004Y-90761435D01*
X37591996Y-90761435D01*
X37412750Y-90781630D01*
X37412745Y-90781631D01*
X37242476Y-90841211D01*
X37089737Y-90937184D01*
X36962184Y-91064737D01*
X36866211Y-91217476D01*
X36806631Y-91387745D01*
X36806630Y-91387750D01*
X36786435Y-91566996D01*
X36786435Y-91567003D01*
X33190770Y-91567003D01*
X33116521Y-91387750D01*
X33113434Y-91380297D01*
X32987973Y-91175563D01*
X32987972Y-91175561D01*
X32832027Y-90992973D01*
X32649439Y-90837028D01*
X32649436Y-90837026D01*
X32444702Y-90711565D01*
X32222865Y-90619678D01*
X32222867Y-90619678D01*
X32222863Y-90619677D01*
X32222859Y-90619676D01*
X32222853Y-90619674D01*
X31989382Y-90563623D01*
X31750000Y-90544783D01*
X31510617Y-90563623D01*
X31277146Y-90619674D01*
X31277134Y-90619678D01*
X31055297Y-90711565D01*
X30850563Y-90837026D01*
X30667973Y-90992973D01*
X30512026Y-91175563D01*
X30386565Y-91380297D01*
X30294678Y-91602134D01*
X30294674Y-91602146D01*
X30238623Y-91835617D01*
X30219783Y-92075000D01*
X23360500Y-92075000D01*
X23360500Y-87122003D01*
X43898435Y-87122003D01*
X43918630Y-87301249D01*
X43918631Y-87301254D01*
X43978211Y-87471523D01*
X44050416Y-87586435D01*
X44074184Y-87624262D01*
X44201738Y-87751816D01*
X44354478Y-87847789D01*
X44524745Y-87907368D01*
X44524750Y-87907369D01*
X44703996Y-87927565D01*
X44704000Y-87927565D01*
X44704004Y-87927565D01*
X44883249Y-87907369D01*
X44883252Y-87907368D01*
X44883255Y-87907368D01*
X45053522Y-87847789D01*
X45206262Y-87751816D01*
X45333816Y-87624262D01*
X45429789Y-87471522D01*
X45489368Y-87301255D01*
X45489369Y-87301249D01*
X45509565Y-87122003D01*
X45509565Y-87121996D01*
X45489369Y-86942750D01*
X45489368Y-86942745D01*
X45429789Y-86772478D01*
X45333816Y-86619738D01*
X45206262Y-86492184D01*
X45053523Y-86396211D01*
X44883254Y-86336631D01*
X44883249Y-86336630D01*
X44704004Y-86316435D01*
X44703996Y-86316435D01*
X44524750Y-86336630D01*
X44524745Y-86336631D01*
X44354476Y-86396211D01*
X44201737Y-86492184D01*
X44074184Y-86619737D01*
X43978211Y-86772476D01*
X43918631Y-86942745D01*
X43918630Y-86942750D01*
X43898435Y-87121996D01*
X43898435Y-87122003D01*
X23360500Y-87122003D01*
X23360500Y-85090003D01*
X43136435Y-85090003D01*
X43156630Y-85269249D01*
X43156631Y-85269254D01*
X43216211Y-85439523D01*
X43283663Y-85546871D01*
X43312184Y-85592262D01*
X43439738Y-85719816D01*
X43592478Y-85815789D01*
X43762745Y-85875368D01*
X43762750Y-85875369D01*
X43941996Y-85895565D01*
X43942000Y-85895565D01*
X43942004Y-85895565D01*
X44121249Y-85875369D01*
X44121252Y-85875368D01*
X44121255Y-85875368D01*
X44291522Y-85815789D01*
X44444262Y-85719816D01*
X44571816Y-85592262D01*
X44667789Y-85439522D01*
X44727368Y-85269255D01*
X44728234Y-85261573D01*
X44747565Y-85090003D01*
X44747565Y-85089996D01*
X44727369Y-84910750D01*
X44727368Y-84910745D01*
X44712228Y-84867478D01*
X44667789Y-84740478D01*
X44664116Y-84734633D01*
X44628582Y-84678080D01*
X44571816Y-84587738D01*
X44444262Y-84460184D01*
X44291523Y-84364211D01*
X44121254Y-84304631D01*
X44121249Y-84304630D01*
X43942004Y-84284435D01*
X43941996Y-84284435D01*
X43762750Y-84304630D01*
X43762745Y-84304631D01*
X43592476Y-84364211D01*
X43439737Y-84460184D01*
X43312184Y-84587737D01*
X43216211Y-84740476D01*
X43156631Y-84910745D01*
X43156630Y-84910750D01*
X43136435Y-85089996D01*
X43136435Y-85090003D01*
X23360500Y-85090003D01*
X23360500Y-81788003D01*
X45353435Y-81788003D01*
X45373630Y-81967249D01*
X45373631Y-81967254D01*
X45433211Y-82137523D01*
X45494944Y-82235769D01*
X45529184Y-82290262D01*
X45656738Y-82417816D01*
X45809478Y-82513789D01*
X45979745Y-82573368D01*
X45979750Y-82573369D01*
X46158996Y-82593565D01*
X46159000Y-82593565D01*
X46159004Y-82593565D01*
X46338249Y-82573369D01*
X46338252Y-82573368D01*
X46338255Y-82573368D01*
X46508522Y-82513789D01*
X46661262Y-82417816D01*
X46788816Y-82290262D01*
X46884789Y-82137522D01*
X46944368Y-81967255D01*
X46944949Y-81962099D01*
X46964565Y-81788003D01*
X46964565Y-81787996D01*
X46944369Y-81608750D01*
X46944368Y-81608745D01*
X46920932Y-81541769D01*
X46884789Y-81438478D01*
X46788816Y-81285738D01*
X46661262Y-81158184D01*
X46508523Y-81062211D01*
X46338254Y-81002631D01*
X46338249Y-81002630D01*
X46159004Y-80982435D01*
X46158996Y-80982435D01*
X45979750Y-81002630D01*
X45979745Y-81002631D01*
X45809476Y-81062211D01*
X45656737Y-81158184D01*
X45529184Y-81285737D01*
X45433211Y-81438476D01*
X45373631Y-81608745D01*
X45373630Y-81608750D01*
X45353435Y-81787996D01*
X45353435Y-81788003D01*
X23360500Y-81788003D01*
X23360500Y-73660003D01*
X26372435Y-73660003D01*
X26392630Y-73839249D01*
X26392631Y-73839254D01*
X26452211Y-74009523D01*
X26548184Y-74162262D01*
X26675738Y-74289816D01*
X26828478Y-74385789D01*
X26998745Y-74445368D01*
X27042635Y-74450313D01*
X27107048Y-74477378D01*
X27116433Y-74485852D01*
X29484589Y-76854008D01*
X29564106Y-76933525D01*
X29571994Y-76941413D01*
X29571996Y-76941414D01*
X29674756Y-77010076D01*
X29674758Y-77010077D01*
X29674767Y-77010083D01*
X29699772Y-77020440D01*
X29722071Y-77029677D01*
X29764254Y-77047149D01*
X29788966Y-77057386D01*
X29910192Y-77081499D01*
X29910196Y-77081500D01*
X29910197Y-77081500D01*
X30033803Y-77081500D01*
X43527328Y-77081500D01*
X43593299Y-77100505D01*
X43719478Y-77179789D01*
X43889745Y-77239368D01*
X43889750Y-77239369D01*
X44068996Y-77259565D01*
X44069000Y-77259565D01*
X44069004Y-77259565D01*
X44248249Y-77239369D01*
X44248252Y-77239368D01*
X44248255Y-77239368D01*
X44418522Y-77179789D01*
X44571262Y-77083816D01*
X44698816Y-76956262D01*
X44794789Y-76803522D01*
X44854368Y-76633255D01*
X44856232Y-76616711D01*
X44874565Y-76454003D01*
X44874565Y-76453996D01*
X44854369Y-76274750D01*
X44854368Y-76274745D01*
X44844659Y-76246998D01*
X44794789Y-76104478D01*
X44781141Y-76082758D01*
X44711750Y-75972323D01*
X44698816Y-75951738D01*
X44571262Y-75824184D01*
X44418523Y-75728211D01*
X44248254Y-75668631D01*
X44248249Y-75668630D01*
X44069004Y-75648435D01*
X44068996Y-75648435D01*
X43889750Y-75668630D01*
X43889745Y-75668631D01*
X43719476Y-75728211D01*
X43593300Y-75807494D01*
X43527328Y-75826500D01*
X30283281Y-75826500D01*
X30216242Y-75806815D01*
X30195600Y-75790181D01*
X28003852Y-73598433D01*
X27970367Y-73537110D01*
X27968314Y-73524648D01*
X27963368Y-73480745D01*
X27903789Y-73310478D01*
X27872952Y-73261402D01*
X27862151Y-73244211D01*
X27807816Y-73157738D01*
X27680262Y-73030184D01*
X27527523Y-72934211D01*
X27357254Y-72874631D01*
X27357249Y-72874630D01*
X27178004Y-72854435D01*
X27177996Y-72854435D01*
X26998750Y-72874630D01*
X26998745Y-72874631D01*
X26828476Y-72934211D01*
X26675737Y-73030184D01*
X26548184Y-73157737D01*
X26452211Y-73310476D01*
X26392631Y-73480745D01*
X26392630Y-73480750D01*
X26372435Y-73659996D01*
X26372435Y-73660003D01*
X23360500Y-73660003D01*
X23360500Y-71120003D01*
X37294435Y-71120003D01*
X37314630Y-71299249D01*
X37314631Y-71299254D01*
X37374211Y-71469523D01*
X37405048Y-71518599D01*
X37470184Y-71622262D01*
X37597738Y-71749816D01*
X37750478Y-71845789D01*
X37920745Y-71905368D01*
X37920750Y-71905369D01*
X38099996Y-71925565D01*
X38100000Y-71925565D01*
X38100004Y-71925565D01*
X38279249Y-71905369D01*
X38279252Y-71905368D01*
X38279255Y-71905368D01*
X38449522Y-71845789D01*
X38602262Y-71749816D01*
X38729816Y-71622262D01*
X38825789Y-71469522D01*
X38885368Y-71299255D01*
X38890577Y-71253022D01*
X38905565Y-71120003D01*
X42374435Y-71120003D01*
X42394630Y-71299249D01*
X42394631Y-71299254D01*
X42454211Y-71469523D01*
X42485048Y-71518599D01*
X42550184Y-71622262D01*
X42677738Y-71749816D01*
X42830478Y-71845789D01*
X43000745Y-71905368D01*
X43000750Y-71905369D01*
X43179996Y-71925565D01*
X43180000Y-71925565D01*
X43180004Y-71925565D01*
X43359249Y-71905369D01*
X43359252Y-71905368D01*
X43359255Y-71905368D01*
X43529522Y-71845789D01*
X43682262Y-71749816D01*
X43809816Y-71622262D01*
X43905789Y-71469522D01*
X43965368Y-71299255D01*
X43970577Y-71253022D01*
X43985565Y-71120003D01*
X43985565Y-71119996D01*
X43965369Y-70940750D01*
X43965368Y-70940745D01*
X43905788Y-70770476D01*
X43866144Y-70707383D01*
X43809816Y-70617738D01*
X43682262Y-70490184D01*
X43649344Y-70469500D01*
X43529523Y-70394211D01*
X43359254Y-70334631D01*
X43359249Y-70334630D01*
X43180004Y-70314435D01*
X43179996Y-70314435D01*
X43000750Y-70334630D01*
X43000745Y-70334631D01*
X42830476Y-70394211D01*
X42677737Y-70490184D01*
X42550184Y-70617737D01*
X42454211Y-70770476D01*
X42394631Y-70940745D01*
X42394630Y-70940750D01*
X42374435Y-71119996D01*
X42374435Y-71120003D01*
X38905565Y-71120003D01*
X38905565Y-71119996D01*
X38885369Y-70940750D01*
X38885368Y-70940745D01*
X38825788Y-70770476D01*
X38786144Y-70707383D01*
X38729816Y-70617738D01*
X38602262Y-70490184D01*
X38569344Y-70469500D01*
X38449523Y-70394211D01*
X38279254Y-70334631D01*
X38279249Y-70334630D01*
X38100004Y-70314435D01*
X38099996Y-70314435D01*
X37920750Y-70334630D01*
X37920745Y-70334631D01*
X37750476Y-70394211D01*
X37597737Y-70490184D01*
X37470184Y-70617737D01*
X37374211Y-70770476D01*
X37314631Y-70940745D01*
X37314630Y-70940750D01*
X37294435Y-71119996D01*
X37294435Y-71120003D01*
X23360500Y-71120003D01*
X23360500Y-29210003D01*
X37294435Y-29210003D01*
X37314630Y-29389249D01*
X37314631Y-29389254D01*
X37374211Y-29559523D01*
X37470184Y-29712262D01*
X37597738Y-29839816D01*
X37750478Y-29935789D01*
X37920745Y-29995368D01*
X38007669Y-30005161D01*
X38072080Y-30032226D01*
X38081465Y-30040700D01*
X38352181Y-30311416D01*
X38385666Y-30372739D01*
X38388500Y-30399097D01*
X38388500Y-40057587D01*
X38368815Y-40124626D01*
X38361450Y-40134896D01*
X38359186Y-40137734D01*
X38263211Y-40290476D01*
X38203631Y-40460745D01*
X38203630Y-40460750D01*
X38183435Y-40639996D01*
X38183435Y-40640003D01*
X38203630Y-40819249D01*
X38203631Y-40819254D01*
X38263211Y-40989523D01*
X38359184Y-41142262D01*
X38486738Y-41269816D01*
X38639478Y-41365789D01*
X38809745Y-41425368D01*
X38809750Y-41425369D01*
X38988996Y-41445565D01*
X38989000Y-41445565D01*
X38989004Y-41445565D01*
X39168249Y-41425369D01*
X39168252Y-41425368D01*
X39168255Y-41425368D01*
X39338522Y-41365789D01*
X39491262Y-41269816D01*
X39618816Y-41142262D01*
X39714789Y-40989522D01*
X39774368Y-40819255D01*
X39774369Y-40819249D01*
X39794565Y-40640003D01*
X39794565Y-40639996D01*
X39774369Y-40460750D01*
X39774368Y-40460745D01*
X39714788Y-40290476D01*
X39618813Y-40137734D01*
X39616550Y-40134896D01*
X39615659Y-40132715D01*
X39615111Y-40131842D01*
X39615264Y-40131745D01*
X39590144Y-40070209D01*
X39589500Y-40057587D01*
X39589500Y-32512003D01*
X41612435Y-32512003D01*
X41632630Y-32691249D01*
X41632631Y-32691254D01*
X41692211Y-32861523D01*
X41744820Y-32945249D01*
X41788184Y-33014262D01*
X41915738Y-33141816D01*
X41932237Y-33152183D01*
X42055502Y-33229636D01*
X42068478Y-33237789D01*
X42238745Y-33297368D01*
X42238750Y-33297369D01*
X42417996Y-33317565D01*
X42418000Y-33317565D01*
X42418004Y-33317565D01*
X42597249Y-33297369D01*
X42597252Y-33297368D01*
X42597255Y-33297368D01*
X42767522Y-33237789D01*
X42920262Y-33141816D01*
X43047816Y-33014262D01*
X43143789Y-32861522D01*
X43203368Y-32691255D01*
X43211790Y-32616506D01*
X43223565Y-32512003D01*
X43223565Y-32511996D01*
X43203369Y-32332750D01*
X43203368Y-32332745D01*
X43143788Y-32162476D01*
X43104582Y-32100080D01*
X43047816Y-32009738D01*
X42920262Y-31882184D01*
X42767523Y-31786211D01*
X42597254Y-31726631D01*
X42597249Y-31726630D01*
X42418004Y-31706435D01*
X42417996Y-31706435D01*
X42238750Y-31726630D01*
X42238745Y-31726631D01*
X42068476Y-31786211D01*
X41915737Y-31882184D01*
X41788184Y-32009737D01*
X41692211Y-32162476D01*
X41632631Y-32332745D01*
X41632630Y-32332750D01*
X41612435Y-32511996D01*
X41612435Y-32512003D01*
X39589500Y-32512003D01*
X39589500Y-30188059D01*
X39589501Y-30188046D01*
X39589501Y-30019945D01*
X39589501Y-30019943D01*
X39548577Y-29867215D01*
X39500068Y-29783196D01*
X39469520Y-29730284D01*
X39357716Y-29618480D01*
X39357715Y-29618479D01*
X39353385Y-29614149D01*
X39353374Y-29614139D01*
X38930700Y-29191465D01*
X38897215Y-29130142D01*
X38895163Y-29117686D01*
X38885368Y-29030745D01*
X38825789Y-28860478D01*
X38729816Y-28707738D01*
X38602262Y-28580184D01*
X38594010Y-28574999D01*
X38449523Y-28484211D01*
X38279254Y-28424631D01*
X38279249Y-28424630D01*
X38100004Y-28404435D01*
X38099996Y-28404435D01*
X37920750Y-28424630D01*
X37920745Y-28424631D01*
X37750476Y-28484211D01*
X37597737Y-28580184D01*
X37470184Y-28707737D01*
X37374211Y-28860476D01*
X37314631Y-29030745D01*
X37314630Y-29030750D01*
X37294435Y-29209996D01*
X37294435Y-29210003D01*
X23360500Y-29210003D01*
X23360500Y-17783246D01*
X23360670Y-17776756D01*
X23378290Y-17440549D01*
X23379647Y-17427641D01*
X23418261Y-17183841D01*
X23431806Y-17098318D01*
X23434496Y-17085661D01*
X23520799Y-16763571D01*
X23524801Y-16751256D01*
X23644298Y-16439954D01*
X23649561Y-16428133D01*
X23800951Y-16131014D01*
X23807417Y-16119816D01*
X23989029Y-15840158D01*
X23996631Y-15829695D01*
X24206483Y-15570548D01*
X24215150Y-15560923D01*
X24450923Y-15325150D01*
X24460548Y-15316483D01*
X24719695Y-15106631D01*
X24730158Y-15099029D01*
X25009816Y-14917417D01*
X25021014Y-14910951D01*
X25318133Y-14759561D01*
X25329954Y-14754298D01*
X25641256Y-14634801D01*
X25653571Y-14630799D01*
X25975661Y-14544496D01*
X25988318Y-14541806D01*
X26317643Y-14489646D01*
X26330547Y-14488290D01*
X26666756Y-14470669D01*
X26673246Y-14470500D01*
X26735892Y-14470500D01*
X77404108Y-14470500D01*
X77466754Y-14470500D01*
X77473243Y-14470669D01*
G37*
%TD.AperFunction*%
%TD*%
M02*
