%TF.GenerationSoftware,KiCad,Pcbnew,8.0.1*%
%TF.CreationDate,2024-04-20T11:28:48-04:00*%
%TF.ProjectId,Bridge_Controller,42726964-6765-45f4-936f-6e74726f6c6c,v1.0*%
%TF.SameCoordinates,Original*%
%TF.FileFunction,Legend,Bot*%
%TF.FilePolarity,Positive*%
%FSLAX46Y46*%
G04 Gerber Fmt 4.6, Leading zero omitted, Abs format (unit mm)*
G04 Created by KiCad (PCBNEW 8.0.1) date 2024-04-20 11:28:48*
%MOMM*%
%LPD*%
G01*
G04 APERTURE LIST*
%ADD10C,0.150000*%
G04 APERTURE END LIST*
D10*
X79673220Y-60194819D02*
X79673220Y-59194819D01*
X79673220Y-59194819D02*
X79292268Y-59194819D01*
X79292268Y-59194819D02*
X79197030Y-59242438D01*
X79197030Y-59242438D02*
X79149411Y-59290057D01*
X79149411Y-59290057D02*
X79101792Y-59385295D01*
X79101792Y-59385295D02*
X79101792Y-59528152D01*
X79101792Y-59528152D02*
X79149411Y-59623390D01*
X79149411Y-59623390D02*
X79197030Y-59671009D01*
X79197030Y-59671009D02*
X79292268Y-59718628D01*
X79292268Y-59718628D02*
X79673220Y-59718628D01*
X78673220Y-60194819D02*
X78673220Y-59194819D01*
X78673220Y-59194819D02*
X78435125Y-59194819D01*
X78435125Y-59194819D02*
X78292268Y-59242438D01*
X78292268Y-59242438D02*
X78197030Y-59337676D01*
X78197030Y-59337676D02*
X78149411Y-59432914D01*
X78149411Y-59432914D02*
X78101792Y-59623390D01*
X78101792Y-59623390D02*
X78101792Y-59766247D01*
X78101792Y-59766247D02*
X78149411Y-59956723D01*
X78149411Y-59956723D02*
X78197030Y-60051961D01*
X78197030Y-60051961D02*
X78292268Y-60147200D01*
X78292268Y-60147200D02*
X78435125Y-60194819D01*
X78435125Y-60194819D02*
X78673220Y-60194819D01*
X77768458Y-59194819D02*
X77149411Y-59194819D01*
X77149411Y-59194819D02*
X77482744Y-59575771D01*
X77482744Y-59575771D02*
X77339887Y-59575771D01*
X77339887Y-59575771D02*
X77244649Y-59623390D01*
X77244649Y-59623390D02*
X77197030Y-59671009D01*
X77197030Y-59671009D02*
X77149411Y-59766247D01*
X77149411Y-59766247D02*
X77149411Y-60004342D01*
X77149411Y-60004342D02*
X77197030Y-60099580D01*
X77197030Y-60099580D02*
X77244649Y-60147200D01*
X77244649Y-60147200D02*
X77339887Y-60194819D01*
X77339887Y-60194819D02*
X77625601Y-60194819D01*
X77625601Y-60194819D02*
X77720839Y-60147200D01*
X77720839Y-60147200D02*
X77768458Y-60099580D01*
X71418220Y-59813866D02*
X70656316Y-59813866D01*
X71037268Y-60194819D02*
X71037268Y-59432914D01*
X69703935Y-59194819D02*
X70180125Y-59194819D01*
X70180125Y-59194819D02*
X70227744Y-59671009D01*
X70227744Y-59671009D02*
X70180125Y-59623390D01*
X70180125Y-59623390D02*
X70084887Y-59575771D01*
X70084887Y-59575771D02*
X69846792Y-59575771D01*
X69846792Y-59575771D02*
X69751554Y-59623390D01*
X69751554Y-59623390D02*
X69703935Y-59671009D01*
X69703935Y-59671009D02*
X69656316Y-59766247D01*
X69656316Y-59766247D02*
X69656316Y-60004342D01*
X69656316Y-60004342D02*
X69703935Y-60099580D01*
X69703935Y-60099580D02*
X69751554Y-60147200D01*
X69751554Y-60147200D02*
X69846792Y-60194819D01*
X69846792Y-60194819D02*
X70084887Y-60194819D01*
X70084887Y-60194819D02*
X70180125Y-60147200D01*
X70180125Y-60147200D02*
X70227744Y-60099580D01*
X69370601Y-59194819D02*
X69037268Y-60194819D01*
X69037268Y-60194819D02*
X68703935Y-59194819D01*
X79673220Y-65274819D02*
X79673220Y-64274819D01*
X79673220Y-64274819D02*
X79292268Y-64274819D01*
X79292268Y-64274819D02*
X79197030Y-64322438D01*
X79197030Y-64322438D02*
X79149411Y-64370057D01*
X79149411Y-64370057D02*
X79101792Y-64465295D01*
X79101792Y-64465295D02*
X79101792Y-64608152D01*
X79101792Y-64608152D02*
X79149411Y-64703390D01*
X79149411Y-64703390D02*
X79197030Y-64751009D01*
X79197030Y-64751009D02*
X79292268Y-64798628D01*
X79292268Y-64798628D02*
X79673220Y-64798628D01*
X78673220Y-64751009D02*
X78339887Y-64751009D01*
X78197030Y-65274819D02*
X78673220Y-65274819D01*
X78673220Y-65274819D02*
X78673220Y-64274819D01*
X78673220Y-64274819D02*
X78197030Y-64274819D01*
X77863696Y-64274819D02*
X77197030Y-64274819D01*
X77197030Y-64274819D02*
X77625601Y-65274819D01*
X71418220Y-46859819D02*
X71418220Y-45859819D01*
X71418220Y-45859819D02*
X71037268Y-45859819D01*
X71037268Y-45859819D02*
X70942030Y-45907438D01*
X70942030Y-45907438D02*
X70894411Y-45955057D01*
X70894411Y-45955057D02*
X70846792Y-46050295D01*
X70846792Y-46050295D02*
X70846792Y-46193152D01*
X70846792Y-46193152D02*
X70894411Y-46288390D01*
X70894411Y-46288390D02*
X70942030Y-46336009D01*
X70942030Y-46336009D02*
X71037268Y-46383628D01*
X71037268Y-46383628D02*
X71418220Y-46383628D01*
X69894411Y-45907438D02*
X69989649Y-45859819D01*
X69989649Y-45859819D02*
X70132506Y-45859819D01*
X70132506Y-45859819D02*
X70275363Y-45907438D01*
X70275363Y-45907438D02*
X70370601Y-46002676D01*
X70370601Y-46002676D02*
X70418220Y-46097914D01*
X70418220Y-46097914D02*
X70465839Y-46288390D01*
X70465839Y-46288390D02*
X70465839Y-46431247D01*
X70465839Y-46431247D02*
X70418220Y-46621723D01*
X70418220Y-46621723D02*
X70370601Y-46716961D01*
X70370601Y-46716961D02*
X70275363Y-46812200D01*
X70275363Y-46812200D02*
X70132506Y-46859819D01*
X70132506Y-46859819D02*
X70037268Y-46859819D01*
X70037268Y-46859819D02*
X69894411Y-46812200D01*
X69894411Y-46812200D02*
X69846792Y-46764580D01*
X69846792Y-46764580D02*
X69846792Y-46431247D01*
X69846792Y-46431247D02*
X70037268Y-46431247D01*
X68894411Y-46859819D02*
X69465839Y-46859819D01*
X69180125Y-46859819D02*
X69180125Y-45859819D01*
X69180125Y-45859819D02*
X69275363Y-46002676D01*
X69275363Y-46002676D02*
X69370601Y-46097914D01*
X69370601Y-46097914D02*
X69465839Y-46145533D01*
X79673220Y-62734819D02*
X79673220Y-61734819D01*
X79673220Y-61734819D02*
X79292268Y-61734819D01*
X79292268Y-61734819D02*
X79197030Y-61782438D01*
X79197030Y-61782438D02*
X79149411Y-61830057D01*
X79149411Y-61830057D02*
X79101792Y-61925295D01*
X79101792Y-61925295D02*
X79101792Y-62068152D01*
X79101792Y-62068152D02*
X79149411Y-62163390D01*
X79149411Y-62163390D02*
X79197030Y-62211009D01*
X79197030Y-62211009D02*
X79292268Y-62258628D01*
X79292268Y-62258628D02*
X79673220Y-62258628D01*
X78673220Y-62734819D02*
X78673220Y-61734819D01*
X78673220Y-61734819D02*
X78435125Y-61734819D01*
X78435125Y-61734819D02*
X78292268Y-61782438D01*
X78292268Y-61782438D02*
X78197030Y-61877676D01*
X78197030Y-61877676D02*
X78149411Y-61972914D01*
X78149411Y-61972914D02*
X78101792Y-62163390D01*
X78101792Y-62163390D02*
X78101792Y-62306247D01*
X78101792Y-62306247D02*
X78149411Y-62496723D01*
X78149411Y-62496723D02*
X78197030Y-62591961D01*
X78197030Y-62591961D02*
X78292268Y-62687200D01*
X78292268Y-62687200D02*
X78435125Y-62734819D01*
X78435125Y-62734819D02*
X78673220Y-62734819D01*
X77720839Y-61830057D02*
X77673220Y-61782438D01*
X77673220Y-61782438D02*
X77577982Y-61734819D01*
X77577982Y-61734819D02*
X77339887Y-61734819D01*
X77339887Y-61734819D02*
X77244649Y-61782438D01*
X77244649Y-61782438D02*
X77197030Y-61830057D01*
X77197030Y-61830057D02*
X77149411Y-61925295D01*
X77149411Y-61925295D02*
X77149411Y-62020533D01*
X77149411Y-62020533D02*
X77197030Y-62163390D01*
X77197030Y-62163390D02*
X77768458Y-62734819D01*
X77768458Y-62734819D02*
X77149411Y-62734819D01*
X54273220Y-62734819D02*
X54273220Y-61734819D01*
X54273220Y-61734819D02*
X53892268Y-61734819D01*
X53892268Y-61734819D02*
X53797030Y-61782438D01*
X53797030Y-61782438D02*
X53749411Y-61830057D01*
X53749411Y-61830057D02*
X53701792Y-61925295D01*
X53701792Y-61925295D02*
X53701792Y-62068152D01*
X53701792Y-62068152D02*
X53749411Y-62163390D01*
X53749411Y-62163390D02*
X53797030Y-62211009D01*
X53797030Y-62211009D02*
X53892268Y-62258628D01*
X53892268Y-62258628D02*
X54273220Y-62258628D01*
X52939887Y-62211009D02*
X52797030Y-62258628D01*
X52797030Y-62258628D02*
X52749411Y-62306247D01*
X52749411Y-62306247D02*
X52701792Y-62401485D01*
X52701792Y-62401485D02*
X52701792Y-62544342D01*
X52701792Y-62544342D02*
X52749411Y-62639580D01*
X52749411Y-62639580D02*
X52797030Y-62687200D01*
X52797030Y-62687200D02*
X52892268Y-62734819D01*
X52892268Y-62734819D02*
X53273220Y-62734819D01*
X53273220Y-62734819D02*
X53273220Y-61734819D01*
X53273220Y-61734819D02*
X52939887Y-61734819D01*
X52939887Y-61734819D02*
X52844649Y-61782438D01*
X52844649Y-61782438D02*
X52797030Y-61830057D01*
X52797030Y-61830057D02*
X52749411Y-61925295D01*
X52749411Y-61925295D02*
X52749411Y-62020533D01*
X52749411Y-62020533D02*
X52797030Y-62115771D01*
X52797030Y-62115771D02*
X52844649Y-62163390D01*
X52844649Y-62163390D02*
X52939887Y-62211009D01*
X52939887Y-62211009D02*
X53273220Y-62211009D01*
X51749411Y-62734819D02*
X52320839Y-62734819D01*
X52035125Y-62734819D02*
X52035125Y-61734819D01*
X52035125Y-61734819D02*
X52130363Y-61877676D01*
X52130363Y-61877676D02*
X52225601Y-61972914D01*
X52225601Y-61972914D02*
X52320839Y-62020533D01*
X79673220Y-44319819D02*
X79673220Y-43319819D01*
X79673220Y-43319819D02*
X79292268Y-43319819D01*
X79292268Y-43319819D02*
X79197030Y-43367438D01*
X79197030Y-43367438D02*
X79149411Y-43415057D01*
X79149411Y-43415057D02*
X79101792Y-43510295D01*
X79101792Y-43510295D02*
X79101792Y-43653152D01*
X79101792Y-43653152D02*
X79149411Y-43748390D01*
X79149411Y-43748390D02*
X79197030Y-43796009D01*
X79197030Y-43796009D02*
X79292268Y-43843628D01*
X79292268Y-43843628D02*
X79673220Y-43843628D01*
X78149411Y-43367438D02*
X78244649Y-43319819D01*
X78244649Y-43319819D02*
X78387506Y-43319819D01*
X78387506Y-43319819D02*
X78530363Y-43367438D01*
X78530363Y-43367438D02*
X78625601Y-43462676D01*
X78625601Y-43462676D02*
X78673220Y-43557914D01*
X78673220Y-43557914D02*
X78720839Y-43748390D01*
X78720839Y-43748390D02*
X78720839Y-43891247D01*
X78720839Y-43891247D02*
X78673220Y-44081723D01*
X78673220Y-44081723D02*
X78625601Y-44176961D01*
X78625601Y-44176961D02*
X78530363Y-44272200D01*
X78530363Y-44272200D02*
X78387506Y-44319819D01*
X78387506Y-44319819D02*
X78292268Y-44319819D01*
X78292268Y-44319819D02*
X78149411Y-44272200D01*
X78149411Y-44272200D02*
X78101792Y-44224580D01*
X78101792Y-44224580D02*
X78101792Y-43891247D01*
X78101792Y-43891247D02*
X78292268Y-43891247D01*
X77720839Y-43415057D02*
X77673220Y-43367438D01*
X77673220Y-43367438D02*
X77577982Y-43319819D01*
X77577982Y-43319819D02*
X77339887Y-43319819D01*
X77339887Y-43319819D02*
X77244649Y-43367438D01*
X77244649Y-43367438D02*
X77197030Y-43415057D01*
X77197030Y-43415057D02*
X77149411Y-43510295D01*
X77149411Y-43510295D02*
X77149411Y-43605533D01*
X77149411Y-43605533D02*
X77197030Y-43748390D01*
X77197030Y-43748390D02*
X77768458Y-44319819D01*
X77768458Y-44319819D02*
X77149411Y-44319819D01*
X71418220Y-77974819D02*
X71418220Y-76974819D01*
X71418220Y-76974819D02*
X71037268Y-76974819D01*
X71037268Y-76974819D02*
X70942030Y-77022438D01*
X70942030Y-77022438D02*
X70894411Y-77070057D01*
X70894411Y-77070057D02*
X70846792Y-77165295D01*
X70846792Y-77165295D02*
X70846792Y-77308152D01*
X70846792Y-77308152D02*
X70894411Y-77403390D01*
X70894411Y-77403390D02*
X70942030Y-77451009D01*
X70942030Y-77451009D02*
X71037268Y-77498628D01*
X71037268Y-77498628D02*
X71418220Y-77498628D01*
X70418220Y-77451009D02*
X70084887Y-77451009D01*
X69942030Y-77974819D02*
X70418220Y-77974819D01*
X70418220Y-77974819D02*
X70418220Y-76974819D01*
X70418220Y-76974819D02*
X69942030Y-76974819D01*
X68989649Y-77974819D02*
X69561077Y-77974819D01*
X69275363Y-77974819D02*
X69275363Y-76974819D01*
X69275363Y-76974819D02*
X69370601Y-77117676D01*
X69370601Y-77117676D02*
X69465839Y-77212914D01*
X69465839Y-77212914D02*
X69561077Y-77260533D01*
X55749819Y-66376779D02*
X54749819Y-66376779D01*
X54749819Y-66376779D02*
X54749819Y-66757731D01*
X54749819Y-66757731D02*
X54797438Y-66852969D01*
X54797438Y-66852969D02*
X54845057Y-66900588D01*
X54845057Y-66900588D02*
X54940295Y-66948207D01*
X54940295Y-66948207D02*
X55083152Y-66948207D01*
X55083152Y-66948207D02*
X55178390Y-66900588D01*
X55178390Y-66900588D02*
X55226009Y-66852969D01*
X55226009Y-66852969D02*
X55273628Y-66757731D01*
X55273628Y-66757731D02*
X55273628Y-66376779D01*
X55226009Y-67710112D02*
X55273628Y-67852969D01*
X55273628Y-67852969D02*
X55321247Y-67900588D01*
X55321247Y-67900588D02*
X55416485Y-67948207D01*
X55416485Y-67948207D02*
X55559342Y-67948207D01*
X55559342Y-67948207D02*
X55654580Y-67900588D01*
X55654580Y-67900588D02*
X55702200Y-67852969D01*
X55702200Y-67852969D02*
X55749819Y-67757731D01*
X55749819Y-67757731D02*
X55749819Y-67376779D01*
X55749819Y-67376779D02*
X54749819Y-67376779D01*
X54749819Y-67376779D02*
X54749819Y-67710112D01*
X54749819Y-67710112D02*
X54797438Y-67805350D01*
X54797438Y-67805350D02*
X54845057Y-67852969D01*
X54845057Y-67852969D02*
X54940295Y-67900588D01*
X54940295Y-67900588D02*
X55035533Y-67900588D01*
X55035533Y-67900588D02*
X55130771Y-67852969D01*
X55130771Y-67852969D02*
X55178390Y-67805350D01*
X55178390Y-67805350D02*
X55226009Y-67710112D01*
X55226009Y-67710112D02*
X55226009Y-67376779D01*
X54749819Y-68281541D02*
X54749819Y-68900588D01*
X54749819Y-68900588D02*
X55130771Y-68567255D01*
X55130771Y-68567255D02*
X55130771Y-68710112D01*
X55130771Y-68710112D02*
X55178390Y-68805350D01*
X55178390Y-68805350D02*
X55226009Y-68852969D01*
X55226009Y-68852969D02*
X55321247Y-68900588D01*
X55321247Y-68900588D02*
X55559342Y-68900588D01*
X55559342Y-68900588D02*
X55654580Y-68852969D01*
X55654580Y-68852969D02*
X55702200Y-68805350D01*
X55702200Y-68805350D02*
X55749819Y-68710112D01*
X55749819Y-68710112D02*
X55749819Y-68424398D01*
X55749819Y-68424398D02*
X55702200Y-68329160D01*
X55702200Y-68329160D02*
X55654580Y-68281541D01*
X48558220Y-69973866D02*
X47796316Y-69973866D01*
X48177268Y-70354819D02*
X48177268Y-69592914D01*
X46843935Y-69354819D02*
X47320125Y-69354819D01*
X47320125Y-69354819D02*
X47367744Y-69831009D01*
X47367744Y-69831009D02*
X47320125Y-69783390D01*
X47320125Y-69783390D02*
X47224887Y-69735771D01*
X47224887Y-69735771D02*
X46986792Y-69735771D01*
X46986792Y-69735771D02*
X46891554Y-69783390D01*
X46891554Y-69783390D02*
X46843935Y-69831009D01*
X46843935Y-69831009D02*
X46796316Y-69926247D01*
X46796316Y-69926247D02*
X46796316Y-70164342D01*
X46796316Y-70164342D02*
X46843935Y-70259580D01*
X46843935Y-70259580D02*
X46891554Y-70307200D01*
X46891554Y-70307200D02*
X46986792Y-70354819D01*
X46986792Y-70354819D02*
X47224887Y-70354819D01*
X47224887Y-70354819D02*
X47320125Y-70307200D01*
X47320125Y-70307200D02*
X47367744Y-70259580D01*
X46510601Y-69354819D02*
X46177268Y-70354819D01*
X46177268Y-70354819D02*
X45843935Y-69354819D01*
X71418220Y-75434819D02*
X71418220Y-74434819D01*
X71418220Y-74434819D02*
X71037268Y-74434819D01*
X71037268Y-74434819D02*
X70942030Y-74482438D01*
X70942030Y-74482438D02*
X70894411Y-74530057D01*
X70894411Y-74530057D02*
X70846792Y-74625295D01*
X70846792Y-74625295D02*
X70846792Y-74768152D01*
X70846792Y-74768152D02*
X70894411Y-74863390D01*
X70894411Y-74863390D02*
X70942030Y-74911009D01*
X70942030Y-74911009D02*
X71037268Y-74958628D01*
X71037268Y-74958628D02*
X71418220Y-74958628D01*
X70418220Y-74911009D02*
X70084887Y-74911009D01*
X69942030Y-75434819D02*
X70418220Y-75434819D01*
X70418220Y-75434819D02*
X70418220Y-74434819D01*
X70418220Y-74434819D02*
X69942030Y-74434819D01*
X69608696Y-74434819D02*
X68989649Y-74434819D01*
X68989649Y-74434819D02*
X69322982Y-74815771D01*
X69322982Y-74815771D02*
X69180125Y-74815771D01*
X69180125Y-74815771D02*
X69084887Y-74863390D01*
X69084887Y-74863390D02*
X69037268Y-74911009D01*
X69037268Y-74911009D02*
X68989649Y-75006247D01*
X68989649Y-75006247D02*
X68989649Y-75244342D01*
X68989649Y-75244342D02*
X69037268Y-75339580D01*
X69037268Y-75339580D02*
X69084887Y-75387200D01*
X69084887Y-75387200D02*
X69180125Y-75434819D01*
X69180125Y-75434819D02*
X69465839Y-75434819D01*
X69465839Y-75434819D02*
X69561077Y-75387200D01*
X69561077Y-75387200D02*
X69608696Y-75339580D01*
X79673220Y-36699819D02*
X79673220Y-35699819D01*
X79673220Y-35699819D02*
X79292268Y-35699819D01*
X79292268Y-35699819D02*
X79197030Y-35747438D01*
X79197030Y-35747438D02*
X79149411Y-35795057D01*
X79149411Y-35795057D02*
X79101792Y-35890295D01*
X79101792Y-35890295D02*
X79101792Y-36033152D01*
X79101792Y-36033152D02*
X79149411Y-36128390D01*
X79149411Y-36128390D02*
X79197030Y-36176009D01*
X79197030Y-36176009D02*
X79292268Y-36223628D01*
X79292268Y-36223628D02*
X79673220Y-36223628D01*
X78149411Y-35747438D02*
X78244649Y-35699819D01*
X78244649Y-35699819D02*
X78387506Y-35699819D01*
X78387506Y-35699819D02*
X78530363Y-35747438D01*
X78530363Y-35747438D02*
X78625601Y-35842676D01*
X78625601Y-35842676D02*
X78673220Y-35937914D01*
X78673220Y-35937914D02*
X78720839Y-36128390D01*
X78720839Y-36128390D02*
X78720839Y-36271247D01*
X78720839Y-36271247D02*
X78673220Y-36461723D01*
X78673220Y-36461723D02*
X78625601Y-36556961D01*
X78625601Y-36556961D02*
X78530363Y-36652200D01*
X78530363Y-36652200D02*
X78387506Y-36699819D01*
X78387506Y-36699819D02*
X78292268Y-36699819D01*
X78292268Y-36699819D02*
X78149411Y-36652200D01*
X78149411Y-36652200D02*
X78101792Y-36604580D01*
X78101792Y-36604580D02*
X78101792Y-36271247D01*
X78101792Y-36271247D02*
X78292268Y-36271247D01*
X77244649Y-35699819D02*
X77435125Y-35699819D01*
X77435125Y-35699819D02*
X77530363Y-35747438D01*
X77530363Y-35747438D02*
X77577982Y-35795057D01*
X77577982Y-35795057D02*
X77673220Y-35937914D01*
X77673220Y-35937914D02*
X77720839Y-36128390D01*
X77720839Y-36128390D02*
X77720839Y-36509342D01*
X77720839Y-36509342D02*
X77673220Y-36604580D01*
X77673220Y-36604580D02*
X77625601Y-36652200D01*
X77625601Y-36652200D02*
X77530363Y-36699819D01*
X77530363Y-36699819D02*
X77339887Y-36699819D01*
X77339887Y-36699819D02*
X77244649Y-36652200D01*
X77244649Y-36652200D02*
X77197030Y-36604580D01*
X77197030Y-36604580D02*
X77149411Y-36509342D01*
X77149411Y-36509342D02*
X77149411Y-36271247D01*
X77149411Y-36271247D02*
X77197030Y-36176009D01*
X77197030Y-36176009D02*
X77244649Y-36128390D01*
X77244649Y-36128390D02*
X77339887Y-36080771D01*
X77339887Y-36080771D02*
X77530363Y-36080771D01*
X77530363Y-36080771D02*
X77625601Y-36128390D01*
X77625601Y-36128390D02*
X77673220Y-36176009D01*
X77673220Y-36176009D02*
X77720839Y-36271247D01*
X70894411Y-69402438D02*
X70989649Y-69354819D01*
X70989649Y-69354819D02*
X71132506Y-69354819D01*
X71132506Y-69354819D02*
X71275363Y-69402438D01*
X71275363Y-69402438D02*
X71370601Y-69497676D01*
X71370601Y-69497676D02*
X71418220Y-69592914D01*
X71418220Y-69592914D02*
X71465839Y-69783390D01*
X71465839Y-69783390D02*
X71465839Y-69926247D01*
X71465839Y-69926247D02*
X71418220Y-70116723D01*
X71418220Y-70116723D02*
X71370601Y-70211961D01*
X71370601Y-70211961D02*
X71275363Y-70307200D01*
X71275363Y-70307200D02*
X71132506Y-70354819D01*
X71132506Y-70354819D02*
X71037268Y-70354819D01*
X71037268Y-70354819D02*
X70894411Y-70307200D01*
X70894411Y-70307200D02*
X70846792Y-70259580D01*
X70846792Y-70259580D02*
X70846792Y-69926247D01*
X70846792Y-69926247D02*
X71037268Y-69926247D01*
X70418220Y-70354819D02*
X70418220Y-69354819D01*
X70418220Y-69354819D02*
X69846792Y-70354819D01*
X69846792Y-70354819D02*
X69846792Y-69354819D01*
X69370601Y-70354819D02*
X69370601Y-69354819D01*
X69370601Y-69354819D02*
X69132506Y-69354819D01*
X69132506Y-69354819D02*
X68989649Y-69402438D01*
X68989649Y-69402438D02*
X68894411Y-69497676D01*
X68894411Y-69497676D02*
X68846792Y-69592914D01*
X68846792Y-69592914D02*
X68799173Y-69783390D01*
X68799173Y-69783390D02*
X68799173Y-69926247D01*
X68799173Y-69926247D02*
X68846792Y-70116723D01*
X68846792Y-70116723D02*
X68894411Y-70211961D01*
X68894411Y-70211961D02*
X68989649Y-70307200D01*
X68989649Y-70307200D02*
X69132506Y-70354819D01*
X69132506Y-70354819D02*
X69370601Y-70354819D01*
X70894411Y-35747438D02*
X70989649Y-35699819D01*
X70989649Y-35699819D02*
X71132506Y-35699819D01*
X71132506Y-35699819D02*
X71275363Y-35747438D01*
X71275363Y-35747438D02*
X71370601Y-35842676D01*
X71370601Y-35842676D02*
X71418220Y-35937914D01*
X71418220Y-35937914D02*
X71465839Y-36128390D01*
X71465839Y-36128390D02*
X71465839Y-36271247D01*
X71465839Y-36271247D02*
X71418220Y-36461723D01*
X71418220Y-36461723D02*
X71370601Y-36556961D01*
X71370601Y-36556961D02*
X71275363Y-36652200D01*
X71275363Y-36652200D02*
X71132506Y-36699819D01*
X71132506Y-36699819D02*
X71037268Y-36699819D01*
X71037268Y-36699819D02*
X70894411Y-36652200D01*
X70894411Y-36652200D02*
X70846792Y-36604580D01*
X70846792Y-36604580D02*
X70846792Y-36271247D01*
X70846792Y-36271247D02*
X71037268Y-36271247D01*
X70418220Y-36699819D02*
X70418220Y-35699819D01*
X70418220Y-35699819D02*
X69846792Y-36699819D01*
X69846792Y-36699819D02*
X69846792Y-35699819D01*
X69370601Y-36699819D02*
X69370601Y-35699819D01*
X69370601Y-35699819D02*
X69132506Y-35699819D01*
X69132506Y-35699819D02*
X68989649Y-35747438D01*
X68989649Y-35747438D02*
X68894411Y-35842676D01*
X68894411Y-35842676D02*
X68846792Y-35937914D01*
X68846792Y-35937914D02*
X68799173Y-36128390D01*
X68799173Y-36128390D02*
X68799173Y-36271247D01*
X68799173Y-36271247D02*
X68846792Y-36461723D01*
X68846792Y-36461723D02*
X68894411Y-36556961D01*
X68894411Y-36556961D02*
X68989649Y-36652200D01*
X68989649Y-36652200D02*
X69132506Y-36699819D01*
X69132506Y-36699819D02*
X69370601Y-36699819D01*
X71418220Y-28698866D02*
X70656316Y-28698866D01*
X71037268Y-29079819D02*
X71037268Y-28317914D01*
X69703935Y-28079819D02*
X70180125Y-28079819D01*
X70180125Y-28079819D02*
X70227744Y-28556009D01*
X70227744Y-28556009D02*
X70180125Y-28508390D01*
X70180125Y-28508390D02*
X70084887Y-28460771D01*
X70084887Y-28460771D02*
X69846792Y-28460771D01*
X69846792Y-28460771D02*
X69751554Y-28508390D01*
X69751554Y-28508390D02*
X69703935Y-28556009D01*
X69703935Y-28556009D02*
X69656316Y-28651247D01*
X69656316Y-28651247D02*
X69656316Y-28889342D01*
X69656316Y-28889342D02*
X69703935Y-28984580D01*
X69703935Y-28984580D02*
X69751554Y-29032200D01*
X69751554Y-29032200D02*
X69846792Y-29079819D01*
X69846792Y-29079819D02*
X70084887Y-29079819D01*
X70084887Y-29079819D02*
X70180125Y-29032200D01*
X70180125Y-29032200D02*
X70227744Y-28984580D01*
X69370601Y-28079819D02*
X69037268Y-29079819D01*
X69037268Y-29079819D02*
X68703935Y-28079819D01*
X79673220Y-67814819D02*
X79673220Y-66814819D01*
X79673220Y-66814819D02*
X79292268Y-66814819D01*
X79292268Y-66814819D02*
X79197030Y-66862438D01*
X79197030Y-66862438D02*
X79149411Y-66910057D01*
X79149411Y-66910057D02*
X79101792Y-67005295D01*
X79101792Y-67005295D02*
X79101792Y-67148152D01*
X79101792Y-67148152D02*
X79149411Y-67243390D01*
X79149411Y-67243390D02*
X79197030Y-67291009D01*
X79197030Y-67291009D02*
X79292268Y-67338628D01*
X79292268Y-67338628D02*
X79673220Y-67338628D01*
X78673220Y-67291009D02*
X78339887Y-67291009D01*
X78197030Y-67814819D02*
X78673220Y-67814819D01*
X78673220Y-67814819D02*
X78673220Y-66814819D01*
X78673220Y-66814819D02*
X78197030Y-66814819D01*
X77339887Y-66814819D02*
X77530363Y-66814819D01*
X77530363Y-66814819D02*
X77625601Y-66862438D01*
X77625601Y-66862438D02*
X77673220Y-66910057D01*
X77673220Y-66910057D02*
X77768458Y-67052914D01*
X77768458Y-67052914D02*
X77816077Y-67243390D01*
X77816077Y-67243390D02*
X77816077Y-67624342D01*
X77816077Y-67624342D02*
X77768458Y-67719580D01*
X77768458Y-67719580D02*
X77720839Y-67767200D01*
X77720839Y-67767200D02*
X77625601Y-67814819D01*
X77625601Y-67814819D02*
X77435125Y-67814819D01*
X77435125Y-67814819D02*
X77339887Y-67767200D01*
X77339887Y-67767200D02*
X77292268Y-67719580D01*
X77292268Y-67719580D02*
X77244649Y-67624342D01*
X77244649Y-67624342D02*
X77244649Y-67386247D01*
X77244649Y-67386247D02*
X77292268Y-67291009D01*
X77292268Y-67291009D02*
X77339887Y-67243390D01*
X77339887Y-67243390D02*
X77435125Y-67195771D01*
X77435125Y-67195771D02*
X77625601Y-67195771D01*
X77625601Y-67195771D02*
X77720839Y-67243390D01*
X77720839Y-67243390D02*
X77768458Y-67291009D01*
X77768458Y-67291009D02*
X77816077Y-67386247D01*
X79673220Y-72894819D02*
X79673220Y-71894819D01*
X79673220Y-71894819D02*
X79292268Y-71894819D01*
X79292268Y-71894819D02*
X79197030Y-71942438D01*
X79197030Y-71942438D02*
X79149411Y-71990057D01*
X79149411Y-71990057D02*
X79101792Y-72085295D01*
X79101792Y-72085295D02*
X79101792Y-72228152D01*
X79101792Y-72228152D02*
X79149411Y-72323390D01*
X79149411Y-72323390D02*
X79197030Y-72371009D01*
X79197030Y-72371009D02*
X79292268Y-72418628D01*
X79292268Y-72418628D02*
X79673220Y-72418628D01*
X78673220Y-72371009D02*
X78339887Y-72371009D01*
X78197030Y-72894819D02*
X78673220Y-72894819D01*
X78673220Y-72894819D02*
X78673220Y-71894819D01*
X78673220Y-71894819D02*
X78197030Y-71894819D01*
X77339887Y-72228152D02*
X77339887Y-72894819D01*
X77577982Y-71847200D02*
X77816077Y-72561485D01*
X77816077Y-72561485D02*
X77197030Y-72561485D01*
X79673220Y-46859819D02*
X79673220Y-45859819D01*
X79673220Y-45859819D02*
X79292268Y-45859819D01*
X79292268Y-45859819D02*
X79197030Y-45907438D01*
X79197030Y-45907438D02*
X79149411Y-45955057D01*
X79149411Y-45955057D02*
X79101792Y-46050295D01*
X79101792Y-46050295D02*
X79101792Y-46193152D01*
X79101792Y-46193152D02*
X79149411Y-46288390D01*
X79149411Y-46288390D02*
X79197030Y-46336009D01*
X79197030Y-46336009D02*
X79292268Y-46383628D01*
X79292268Y-46383628D02*
X79673220Y-46383628D01*
X78149411Y-45907438D02*
X78244649Y-45859819D01*
X78244649Y-45859819D02*
X78387506Y-45859819D01*
X78387506Y-45859819D02*
X78530363Y-45907438D01*
X78530363Y-45907438D02*
X78625601Y-46002676D01*
X78625601Y-46002676D02*
X78673220Y-46097914D01*
X78673220Y-46097914D02*
X78720839Y-46288390D01*
X78720839Y-46288390D02*
X78720839Y-46431247D01*
X78720839Y-46431247D02*
X78673220Y-46621723D01*
X78673220Y-46621723D02*
X78625601Y-46716961D01*
X78625601Y-46716961D02*
X78530363Y-46812200D01*
X78530363Y-46812200D02*
X78387506Y-46859819D01*
X78387506Y-46859819D02*
X78292268Y-46859819D01*
X78292268Y-46859819D02*
X78149411Y-46812200D01*
X78149411Y-46812200D02*
X78101792Y-46764580D01*
X78101792Y-46764580D02*
X78101792Y-46431247D01*
X78101792Y-46431247D02*
X78292268Y-46431247D01*
X77482744Y-45859819D02*
X77387506Y-45859819D01*
X77387506Y-45859819D02*
X77292268Y-45907438D01*
X77292268Y-45907438D02*
X77244649Y-45955057D01*
X77244649Y-45955057D02*
X77197030Y-46050295D01*
X77197030Y-46050295D02*
X77149411Y-46240771D01*
X77149411Y-46240771D02*
X77149411Y-46478866D01*
X77149411Y-46478866D02*
X77197030Y-46669342D01*
X77197030Y-46669342D02*
X77244649Y-46764580D01*
X77244649Y-46764580D02*
X77292268Y-46812200D01*
X77292268Y-46812200D02*
X77387506Y-46859819D01*
X77387506Y-46859819D02*
X77482744Y-46859819D01*
X77482744Y-46859819D02*
X77577982Y-46812200D01*
X77577982Y-46812200D02*
X77625601Y-46764580D01*
X77625601Y-46764580D02*
X77673220Y-46669342D01*
X77673220Y-46669342D02*
X77720839Y-46478866D01*
X77720839Y-46478866D02*
X77720839Y-46240771D01*
X77720839Y-46240771D02*
X77673220Y-46050295D01*
X77673220Y-46050295D02*
X77625601Y-45955057D01*
X77625601Y-45955057D02*
X77577982Y-45907438D01*
X77577982Y-45907438D02*
X77482744Y-45859819D01*
X71418220Y-31238866D02*
X70656316Y-31238866D01*
X71037268Y-31619819D02*
X71037268Y-30857914D01*
X69703935Y-30619819D02*
X70180125Y-30619819D01*
X70180125Y-30619819D02*
X70227744Y-31096009D01*
X70227744Y-31096009D02*
X70180125Y-31048390D01*
X70180125Y-31048390D02*
X70084887Y-31000771D01*
X70084887Y-31000771D02*
X69846792Y-31000771D01*
X69846792Y-31000771D02*
X69751554Y-31048390D01*
X69751554Y-31048390D02*
X69703935Y-31096009D01*
X69703935Y-31096009D02*
X69656316Y-31191247D01*
X69656316Y-31191247D02*
X69656316Y-31429342D01*
X69656316Y-31429342D02*
X69703935Y-31524580D01*
X69703935Y-31524580D02*
X69751554Y-31572200D01*
X69751554Y-31572200D02*
X69846792Y-31619819D01*
X69846792Y-31619819D02*
X70084887Y-31619819D01*
X70084887Y-31619819D02*
X70180125Y-31572200D01*
X70180125Y-31572200D02*
X70227744Y-31524580D01*
X69370601Y-30619819D02*
X69037268Y-31619819D01*
X69037268Y-31619819D02*
X68703935Y-30619819D01*
X79673220Y-31619819D02*
X79673220Y-30619819D01*
X79673220Y-30619819D02*
X79292268Y-30619819D01*
X79292268Y-30619819D02*
X79197030Y-30667438D01*
X79197030Y-30667438D02*
X79149411Y-30715057D01*
X79149411Y-30715057D02*
X79101792Y-30810295D01*
X79101792Y-30810295D02*
X79101792Y-30953152D01*
X79101792Y-30953152D02*
X79149411Y-31048390D01*
X79149411Y-31048390D02*
X79197030Y-31096009D01*
X79197030Y-31096009D02*
X79292268Y-31143628D01*
X79292268Y-31143628D02*
X79673220Y-31143628D01*
X78673220Y-31619819D02*
X78673220Y-30619819D01*
X78673220Y-30619819D02*
X78435125Y-30619819D01*
X78435125Y-30619819D02*
X78292268Y-30667438D01*
X78292268Y-30667438D02*
X78197030Y-30762676D01*
X78197030Y-30762676D02*
X78149411Y-30857914D01*
X78149411Y-30857914D02*
X78101792Y-31048390D01*
X78101792Y-31048390D02*
X78101792Y-31191247D01*
X78101792Y-31191247D02*
X78149411Y-31381723D01*
X78149411Y-31381723D02*
X78197030Y-31476961D01*
X78197030Y-31476961D02*
X78292268Y-31572200D01*
X78292268Y-31572200D02*
X78435125Y-31619819D01*
X78435125Y-31619819D02*
X78673220Y-31619819D01*
X77482744Y-30619819D02*
X77387506Y-30619819D01*
X77387506Y-30619819D02*
X77292268Y-30667438D01*
X77292268Y-30667438D02*
X77244649Y-30715057D01*
X77244649Y-30715057D02*
X77197030Y-30810295D01*
X77197030Y-30810295D02*
X77149411Y-31000771D01*
X77149411Y-31000771D02*
X77149411Y-31238866D01*
X77149411Y-31238866D02*
X77197030Y-31429342D01*
X77197030Y-31429342D02*
X77244649Y-31524580D01*
X77244649Y-31524580D02*
X77292268Y-31572200D01*
X77292268Y-31572200D02*
X77387506Y-31619819D01*
X77387506Y-31619819D02*
X77482744Y-31619819D01*
X77482744Y-31619819D02*
X77577982Y-31572200D01*
X77577982Y-31572200D02*
X77625601Y-31524580D01*
X77625601Y-31524580D02*
X77673220Y-31429342D01*
X77673220Y-31429342D02*
X77720839Y-31238866D01*
X77720839Y-31238866D02*
X77720839Y-31000771D01*
X77720839Y-31000771D02*
X77673220Y-30810295D01*
X77673220Y-30810295D02*
X77625601Y-30715057D01*
X77625601Y-30715057D02*
X77577982Y-30667438D01*
X77577982Y-30667438D02*
X77482744Y-30619819D01*
X79673220Y-29079819D02*
X79673220Y-28079819D01*
X79673220Y-28079819D02*
X79292268Y-28079819D01*
X79292268Y-28079819D02*
X79197030Y-28127438D01*
X79197030Y-28127438D02*
X79149411Y-28175057D01*
X79149411Y-28175057D02*
X79101792Y-28270295D01*
X79101792Y-28270295D02*
X79101792Y-28413152D01*
X79101792Y-28413152D02*
X79149411Y-28508390D01*
X79149411Y-28508390D02*
X79197030Y-28556009D01*
X79197030Y-28556009D02*
X79292268Y-28603628D01*
X79292268Y-28603628D02*
X79673220Y-28603628D01*
X78673220Y-29079819D02*
X78673220Y-28079819D01*
X78673220Y-28079819D02*
X78435125Y-28079819D01*
X78435125Y-28079819D02*
X78292268Y-28127438D01*
X78292268Y-28127438D02*
X78197030Y-28222676D01*
X78197030Y-28222676D02*
X78149411Y-28317914D01*
X78149411Y-28317914D02*
X78101792Y-28508390D01*
X78101792Y-28508390D02*
X78101792Y-28651247D01*
X78101792Y-28651247D02*
X78149411Y-28841723D01*
X78149411Y-28841723D02*
X78197030Y-28936961D01*
X78197030Y-28936961D02*
X78292268Y-29032200D01*
X78292268Y-29032200D02*
X78435125Y-29079819D01*
X78435125Y-29079819D02*
X78673220Y-29079819D01*
X77149411Y-29079819D02*
X77720839Y-29079819D01*
X77435125Y-29079819D02*
X77435125Y-28079819D01*
X77435125Y-28079819D02*
X77530363Y-28222676D01*
X77530363Y-28222676D02*
X77625601Y-28317914D01*
X77625601Y-28317914D02*
X77720839Y-28365533D01*
X70894411Y-33207438D02*
X70989649Y-33159819D01*
X70989649Y-33159819D02*
X71132506Y-33159819D01*
X71132506Y-33159819D02*
X71275363Y-33207438D01*
X71275363Y-33207438D02*
X71370601Y-33302676D01*
X71370601Y-33302676D02*
X71418220Y-33397914D01*
X71418220Y-33397914D02*
X71465839Y-33588390D01*
X71465839Y-33588390D02*
X71465839Y-33731247D01*
X71465839Y-33731247D02*
X71418220Y-33921723D01*
X71418220Y-33921723D02*
X71370601Y-34016961D01*
X71370601Y-34016961D02*
X71275363Y-34112200D01*
X71275363Y-34112200D02*
X71132506Y-34159819D01*
X71132506Y-34159819D02*
X71037268Y-34159819D01*
X71037268Y-34159819D02*
X70894411Y-34112200D01*
X70894411Y-34112200D02*
X70846792Y-34064580D01*
X70846792Y-34064580D02*
X70846792Y-33731247D01*
X70846792Y-33731247D02*
X71037268Y-33731247D01*
X70418220Y-34159819D02*
X70418220Y-33159819D01*
X70418220Y-33159819D02*
X69846792Y-34159819D01*
X69846792Y-34159819D02*
X69846792Y-33159819D01*
X69370601Y-34159819D02*
X69370601Y-33159819D01*
X69370601Y-33159819D02*
X69132506Y-33159819D01*
X69132506Y-33159819D02*
X68989649Y-33207438D01*
X68989649Y-33207438D02*
X68894411Y-33302676D01*
X68894411Y-33302676D02*
X68846792Y-33397914D01*
X68846792Y-33397914D02*
X68799173Y-33588390D01*
X68799173Y-33588390D02*
X68799173Y-33731247D01*
X68799173Y-33731247D02*
X68846792Y-33921723D01*
X68846792Y-33921723D02*
X68894411Y-34016961D01*
X68894411Y-34016961D02*
X68989649Y-34112200D01*
X68989649Y-34112200D02*
X69132506Y-34159819D01*
X69132506Y-34159819D02*
X69370601Y-34159819D01*
X53749411Y-71942438D02*
X53844649Y-71894819D01*
X53844649Y-71894819D02*
X53987506Y-71894819D01*
X53987506Y-71894819D02*
X54130363Y-71942438D01*
X54130363Y-71942438D02*
X54225601Y-72037676D01*
X54225601Y-72037676D02*
X54273220Y-72132914D01*
X54273220Y-72132914D02*
X54320839Y-72323390D01*
X54320839Y-72323390D02*
X54320839Y-72466247D01*
X54320839Y-72466247D02*
X54273220Y-72656723D01*
X54273220Y-72656723D02*
X54225601Y-72751961D01*
X54225601Y-72751961D02*
X54130363Y-72847200D01*
X54130363Y-72847200D02*
X53987506Y-72894819D01*
X53987506Y-72894819D02*
X53892268Y-72894819D01*
X53892268Y-72894819D02*
X53749411Y-72847200D01*
X53749411Y-72847200D02*
X53701792Y-72799580D01*
X53701792Y-72799580D02*
X53701792Y-72466247D01*
X53701792Y-72466247D02*
X53892268Y-72466247D01*
X53273220Y-72894819D02*
X53273220Y-71894819D01*
X53273220Y-71894819D02*
X52701792Y-72894819D01*
X52701792Y-72894819D02*
X52701792Y-71894819D01*
X52225601Y-72894819D02*
X52225601Y-71894819D01*
X52225601Y-71894819D02*
X51987506Y-71894819D01*
X51987506Y-71894819D02*
X51844649Y-71942438D01*
X51844649Y-71942438D02*
X51749411Y-72037676D01*
X51749411Y-72037676D02*
X51701792Y-72132914D01*
X51701792Y-72132914D02*
X51654173Y-72323390D01*
X51654173Y-72323390D02*
X51654173Y-72466247D01*
X51654173Y-72466247D02*
X51701792Y-72656723D01*
X51701792Y-72656723D02*
X51749411Y-72751961D01*
X51749411Y-72751961D02*
X51844649Y-72847200D01*
X51844649Y-72847200D02*
X51987506Y-72894819D01*
X51987506Y-72894819D02*
X52225601Y-72894819D01*
X79673220Y-70354819D02*
X79673220Y-69354819D01*
X79673220Y-69354819D02*
X79292268Y-69354819D01*
X79292268Y-69354819D02*
X79197030Y-69402438D01*
X79197030Y-69402438D02*
X79149411Y-69450057D01*
X79149411Y-69450057D02*
X79101792Y-69545295D01*
X79101792Y-69545295D02*
X79101792Y-69688152D01*
X79101792Y-69688152D02*
X79149411Y-69783390D01*
X79149411Y-69783390D02*
X79197030Y-69831009D01*
X79197030Y-69831009D02*
X79292268Y-69878628D01*
X79292268Y-69878628D02*
X79673220Y-69878628D01*
X78673220Y-69831009D02*
X78339887Y-69831009D01*
X78197030Y-70354819D02*
X78673220Y-70354819D01*
X78673220Y-70354819D02*
X78673220Y-69354819D01*
X78673220Y-69354819D02*
X78197030Y-69354819D01*
X77292268Y-69354819D02*
X77768458Y-69354819D01*
X77768458Y-69354819D02*
X77816077Y-69831009D01*
X77816077Y-69831009D02*
X77768458Y-69783390D01*
X77768458Y-69783390D02*
X77673220Y-69735771D01*
X77673220Y-69735771D02*
X77435125Y-69735771D01*
X77435125Y-69735771D02*
X77339887Y-69783390D01*
X77339887Y-69783390D02*
X77292268Y-69831009D01*
X77292268Y-69831009D02*
X77244649Y-69926247D01*
X77244649Y-69926247D02*
X77244649Y-70164342D01*
X77244649Y-70164342D02*
X77292268Y-70259580D01*
X77292268Y-70259580D02*
X77339887Y-70307200D01*
X77339887Y-70307200D02*
X77435125Y-70354819D01*
X77435125Y-70354819D02*
X77673220Y-70354819D01*
X77673220Y-70354819D02*
X77768458Y-70307200D01*
X77768458Y-70307200D02*
X77816077Y-70259580D01*
X48558220Y-65274819D02*
X48558220Y-64274819D01*
X48558220Y-64274819D02*
X48177268Y-64274819D01*
X48177268Y-64274819D02*
X48082030Y-64322438D01*
X48082030Y-64322438D02*
X48034411Y-64370057D01*
X48034411Y-64370057D02*
X47986792Y-64465295D01*
X47986792Y-64465295D02*
X47986792Y-64608152D01*
X47986792Y-64608152D02*
X48034411Y-64703390D01*
X48034411Y-64703390D02*
X48082030Y-64751009D01*
X48082030Y-64751009D02*
X48177268Y-64798628D01*
X48177268Y-64798628D02*
X48558220Y-64798628D01*
X47224887Y-64751009D02*
X47082030Y-64798628D01*
X47082030Y-64798628D02*
X47034411Y-64846247D01*
X47034411Y-64846247D02*
X46986792Y-64941485D01*
X46986792Y-64941485D02*
X46986792Y-65084342D01*
X46986792Y-65084342D02*
X47034411Y-65179580D01*
X47034411Y-65179580D02*
X47082030Y-65227200D01*
X47082030Y-65227200D02*
X47177268Y-65274819D01*
X47177268Y-65274819D02*
X47558220Y-65274819D01*
X47558220Y-65274819D02*
X47558220Y-64274819D01*
X47558220Y-64274819D02*
X47224887Y-64274819D01*
X47224887Y-64274819D02*
X47129649Y-64322438D01*
X47129649Y-64322438D02*
X47082030Y-64370057D01*
X47082030Y-64370057D02*
X47034411Y-64465295D01*
X47034411Y-64465295D02*
X47034411Y-64560533D01*
X47034411Y-64560533D02*
X47082030Y-64655771D01*
X47082030Y-64655771D02*
X47129649Y-64703390D01*
X47129649Y-64703390D02*
X47224887Y-64751009D01*
X47224887Y-64751009D02*
X47558220Y-64751009D01*
X46367744Y-64274819D02*
X46272506Y-64274819D01*
X46272506Y-64274819D02*
X46177268Y-64322438D01*
X46177268Y-64322438D02*
X46129649Y-64370057D01*
X46129649Y-64370057D02*
X46082030Y-64465295D01*
X46082030Y-64465295D02*
X46034411Y-64655771D01*
X46034411Y-64655771D02*
X46034411Y-64893866D01*
X46034411Y-64893866D02*
X46082030Y-65084342D01*
X46082030Y-65084342D02*
X46129649Y-65179580D01*
X46129649Y-65179580D02*
X46177268Y-65227200D01*
X46177268Y-65227200D02*
X46272506Y-65274819D01*
X46272506Y-65274819D02*
X46367744Y-65274819D01*
X46367744Y-65274819D02*
X46462982Y-65227200D01*
X46462982Y-65227200D02*
X46510601Y-65179580D01*
X46510601Y-65179580D02*
X46558220Y-65084342D01*
X46558220Y-65084342D02*
X46605839Y-64893866D01*
X46605839Y-64893866D02*
X46605839Y-64655771D01*
X46605839Y-64655771D02*
X46558220Y-64465295D01*
X46558220Y-64465295D02*
X46510601Y-64370057D01*
X46510601Y-64370057D02*
X46462982Y-64322438D01*
X46462982Y-64322438D02*
X46367744Y-64274819D01*
X79673220Y-75434819D02*
X79673220Y-74434819D01*
X79673220Y-74434819D02*
X79292268Y-74434819D01*
X79292268Y-74434819D02*
X79197030Y-74482438D01*
X79197030Y-74482438D02*
X79149411Y-74530057D01*
X79149411Y-74530057D02*
X79101792Y-74625295D01*
X79101792Y-74625295D02*
X79101792Y-74768152D01*
X79101792Y-74768152D02*
X79149411Y-74863390D01*
X79149411Y-74863390D02*
X79197030Y-74911009D01*
X79197030Y-74911009D02*
X79292268Y-74958628D01*
X79292268Y-74958628D02*
X79673220Y-74958628D01*
X78673220Y-74911009D02*
X78339887Y-74911009D01*
X78197030Y-75434819D02*
X78673220Y-75434819D01*
X78673220Y-75434819D02*
X78673220Y-74434819D01*
X78673220Y-74434819D02*
X78197030Y-74434819D01*
X77816077Y-74530057D02*
X77768458Y-74482438D01*
X77768458Y-74482438D02*
X77673220Y-74434819D01*
X77673220Y-74434819D02*
X77435125Y-74434819D01*
X77435125Y-74434819D02*
X77339887Y-74482438D01*
X77339887Y-74482438D02*
X77292268Y-74530057D01*
X77292268Y-74530057D02*
X77244649Y-74625295D01*
X77244649Y-74625295D02*
X77244649Y-74720533D01*
X77244649Y-74720533D02*
X77292268Y-74863390D01*
X77292268Y-74863390D02*
X77863696Y-75434819D01*
X77863696Y-75434819D02*
X77244649Y-75434819D01*
X70894411Y-71942438D02*
X70989649Y-71894819D01*
X70989649Y-71894819D02*
X71132506Y-71894819D01*
X71132506Y-71894819D02*
X71275363Y-71942438D01*
X71275363Y-71942438D02*
X71370601Y-72037676D01*
X71370601Y-72037676D02*
X71418220Y-72132914D01*
X71418220Y-72132914D02*
X71465839Y-72323390D01*
X71465839Y-72323390D02*
X71465839Y-72466247D01*
X71465839Y-72466247D02*
X71418220Y-72656723D01*
X71418220Y-72656723D02*
X71370601Y-72751961D01*
X71370601Y-72751961D02*
X71275363Y-72847200D01*
X71275363Y-72847200D02*
X71132506Y-72894819D01*
X71132506Y-72894819D02*
X71037268Y-72894819D01*
X71037268Y-72894819D02*
X70894411Y-72847200D01*
X70894411Y-72847200D02*
X70846792Y-72799580D01*
X70846792Y-72799580D02*
X70846792Y-72466247D01*
X70846792Y-72466247D02*
X71037268Y-72466247D01*
X70418220Y-72894819D02*
X70418220Y-71894819D01*
X70418220Y-71894819D02*
X69846792Y-72894819D01*
X69846792Y-72894819D02*
X69846792Y-71894819D01*
X69370601Y-72894819D02*
X69370601Y-71894819D01*
X69370601Y-71894819D02*
X69132506Y-71894819D01*
X69132506Y-71894819D02*
X68989649Y-71942438D01*
X68989649Y-71942438D02*
X68894411Y-72037676D01*
X68894411Y-72037676D02*
X68846792Y-72132914D01*
X68846792Y-72132914D02*
X68799173Y-72323390D01*
X68799173Y-72323390D02*
X68799173Y-72466247D01*
X68799173Y-72466247D02*
X68846792Y-72656723D01*
X68846792Y-72656723D02*
X68894411Y-72751961D01*
X68894411Y-72751961D02*
X68989649Y-72847200D01*
X68989649Y-72847200D02*
X69132506Y-72894819D01*
X69132506Y-72894819D02*
X69370601Y-72894819D01*
X79663220Y-77869819D02*
X79663220Y-76869819D01*
X79663220Y-76869819D02*
X79282268Y-76869819D01*
X79282268Y-76869819D02*
X79187030Y-76917438D01*
X79187030Y-76917438D02*
X79139411Y-76965057D01*
X79139411Y-76965057D02*
X79091792Y-77060295D01*
X79091792Y-77060295D02*
X79091792Y-77203152D01*
X79091792Y-77203152D02*
X79139411Y-77298390D01*
X79139411Y-77298390D02*
X79187030Y-77346009D01*
X79187030Y-77346009D02*
X79282268Y-77393628D01*
X79282268Y-77393628D02*
X79663220Y-77393628D01*
X78663220Y-77346009D02*
X78329887Y-77346009D01*
X78187030Y-77869819D02*
X78663220Y-77869819D01*
X78663220Y-77869819D02*
X78663220Y-76869819D01*
X78663220Y-76869819D02*
X78187030Y-76869819D01*
X77567982Y-76869819D02*
X77472744Y-76869819D01*
X77472744Y-76869819D02*
X77377506Y-76917438D01*
X77377506Y-76917438D02*
X77329887Y-76965057D01*
X77329887Y-76965057D02*
X77282268Y-77060295D01*
X77282268Y-77060295D02*
X77234649Y-77250771D01*
X77234649Y-77250771D02*
X77234649Y-77488866D01*
X77234649Y-77488866D02*
X77282268Y-77679342D01*
X77282268Y-77679342D02*
X77329887Y-77774580D01*
X77329887Y-77774580D02*
X77377506Y-77822200D01*
X77377506Y-77822200D02*
X77472744Y-77869819D01*
X77472744Y-77869819D02*
X77567982Y-77869819D01*
X77567982Y-77869819D02*
X77663220Y-77822200D01*
X77663220Y-77822200D02*
X77710839Y-77774580D01*
X77710839Y-77774580D02*
X77758458Y-77679342D01*
X77758458Y-77679342D02*
X77806077Y-77488866D01*
X77806077Y-77488866D02*
X77806077Y-77250771D01*
X77806077Y-77250771D02*
X77758458Y-77060295D01*
X77758458Y-77060295D02*
X77710839Y-76965057D01*
X77710839Y-76965057D02*
X77663220Y-76917438D01*
X77663220Y-76917438D02*
X77567982Y-76869819D01*
X79673220Y-41779819D02*
X79673220Y-40779819D01*
X79673220Y-40779819D02*
X79292268Y-40779819D01*
X79292268Y-40779819D02*
X79197030Y-40827438D01*
X79197030Y-40827438D02*
X79149411Y-40875057D01*
X79149411Y-40875057D02*
X79101792Y-40970295D01*
X79101792Y-40970295D02*
X79101792Y-41113152D01*
X79101792Y-41113152D02*
X79149411Y-41208390D01*
X79149411Y-41208390D02*
X79197030Y-41256009D01*
X79197030Y-41256009D02*
X79292268Y-41303628D01*
X79292268Y-41303628D02*
X79673220Y-41303628D01*
X78149411Y-40827438D02*
X78244649Y-40779819D01*
X78244649Y-40779819D02*
X78387506Y-40779819D01*
X78387506Y-40779819D02*
X78530363Y-40827438D01*
X78530363Y-40827438D02*
X78625601Y-40922676D01*
X78625601Y-40922676D02*
X78673220Y-41017914D01*
X78673220Y-41017914D02*
X78720839Y-41208390D01*
X78720839Y-41208390D02*
X78720839Y-41351247D01*
X78720839Y-41351247D02*
X78673220Y-41541723D01*
X78673220Y-41541723D02*
X78625601Y-41636961D01*
X78625601Y-41636961D02*
X78530363Y-41732200D01*
X78530363Y-41732200D02*
X78387506Y-41779819D01*
X78387506Y-41779819D02*
X78292268Y-41779819D01*
X78292268Y-41779819D02*
X78149411Y-41732200D01*
X78149411Y-41732200D02*
X78101792Y-41684580D01*
X78101792Y-41684580D02*
X78101792Y-41351247D01*
X78101792Y-41351247D02*
X78292268Y-41351247D01*
X77244649Y-41113152D02*
X77244649Y-41779819D01*
X77482744Y-40732200D02*
X77720839Y-41446485D01*
X77720839Y-41446485D02*
X77101792Y-41446485D01*
X79673220Y-34159819D02*
X79673220Y-33159819D01*
X79673220Y-33159819D02*
X79292268Y-33159819D01*
X79292268Y-33159819D02*
X79197030Y-33207438D01*
X79197030Y-33207438D02*
X79149411Y-33255057D01*
X79149411Y-33255057D02*
X79101792Y-33350295D01*
X79101792Y-33350295D02*
X79101792Y-33493152D01*
X79101792Y-33493152D02*
X79149411Y-33588390D01*
X79149411Y-33588390D02*
X79197030Y-33636009D01*
X79197030Y-33636009D02*
X79292268Y-33683628D01*
X79292268Y-33683628D02*
X79673220Y-33683628D01*
X78149411Y-33207438D02*
X78244649Y-33159819D01*
X78244649Y-33159819D02*
X78387506Y-33159819D01*
X78387506Y-33159819D02*
X78530363Y-33207438D01*
X78530363Y-33207438D02*
X78625601Y-33302676D01*
X78625601Y-33302676D02*
X78673220Y-33397914D01*
X78673220Y-33397914D02*
X78720839Y-33588390D01*
X78720839Y-33588390D02*
X78720839Y-33731247D01*
X78720839Y-33731247D02*
X78673220Y-33921723D01*
X78673220Y-33921723D02*
X78625601Y-34016961D01*
X78625601Y-34016961D02*
X78530363Y-34112200D01*
X78530363Y-34112200D02*
X78387506Y-34159819D01*
X78387506Y-34159819D02*
X78292268Y-34159819D01*
X78292268Y-34159819D02*
X78149411Y-34112200D01*
X78149411Y-34112200D02*
X78101792Y-34064580D01*
X78101792Y-34064580D02*
X78101792Y-33731247D01*
X78101792Y-33731247D02*
X78292268Y-33731247D01*
X77768458Y-33159819D02*
X77101792Y-33159819D01*
X77101792Y-33159819D02*
X77530363Y-34159819D01*
X70894411Y-40827438D02*
X70989649Y-40779819D01*
X70989649Y-40779819D02*
X71132506Y-40779819D01*
X71132506Y-40779819D02*
X71275363Y-40827438D01*
X71275363Y-40827438D02*
X71370601Y-40922676D01*
X71370601Y-40922676D02*
X71418220Y-41017914D01*
X71418220Y-41017914D02*
X71465839Y-41208390D01*
X71465839Y-41208390D02*
X71465839Y-41351247D01*
X71465839Y-41351247D02*
X71418220Y-41541723D01*
X71418220Y-41541723D02*
X71370601Y-41636961D01*
X71370601Y-41636961D02*
X71275363Y-41732200D01*
X71275363Y-41732200D02*
X71132506Y-41779819D01*
X71132506Y-41779819D02*
X71037268Y-41779819D01*
X71037268Y-41779819D02*
X70894411Y-41732200D01*
X70894411Y-41732200D02*
X70846792Y-41684580D01*
X70846792Y-41684580D02*
X70846792Y-41351247D01*
X70846792Y-41351247D02*
X71037268Y-41351247D01*
X70418220Y-41779819D02*
X70418220Y-40779819D01*
X70418220Y-40779819D02*
X69846792Y-41779819D01*
X69846792Y-41779819D02*
X69846792Y-40779819D01*
X69370601Y-41779819D02*
X69370601Y-40779819D01*
X69370601Y-40779819D02*
X69132506Y-40779819D01*
X69132506Y-40779819D02*
X68989649Y-40827438D01*
X68989649Y-40827438D02*
X68894411Y-40922676D01*
X68894411Y-40922676D02*
X68846792Y-41017914D01*
X68846792Y-41017914D02*
X68799173Y-41208390D01*
X68799173Y-41208390D02*
X68799173Y-41351247D01*
X68799173Y-41351247D02*
X68846792Y-41541723D01*
X68846792Y-41541723D02*
X68894411Y-41636961D01*
X68894411Y-41636961D02*
X68989649Y-41732200D01*
X68989649Y-41732200D02*
X69132506Y-41779819D01*
X69132506Y-41779819D02*
X69370601Y-41779819D01*
X79673220Y-39239819D02*
X79673220Y-38239819D01*
X79673220Y-38239819D02*
X79292268Y-38239819D01*
X79292268Y-38239819D02*
X79197030Y-38287438D01*
X79197030Y-38287438D02*
X79149411Y-38335057D01*
X79149411Y-38335057D02*
X79101792Y-38430295D01*
X79101792Y-38430295D02*
X79101792Y-38573152D01*
X79101792Y-38573152D02*
X79149411Y-38668390D01*
X79149411Y-38668390D02*
X79197030Y-38716009D01*
X79197030Y-38716009D02*
X79292268Y-38763628D01*
X79292268Y-38763628D02*
X79673220Y-38763628D01*
X78149411Y-38287438D02*
X78244649Y-38239819D01*
X78244649Y-38239819D02*
X78387506Y-38239819D01*
X78387506Y-38239819D02*
X78530363Y-38287438D01*
X78530363Y-38287438D02*
X78625601Y-38382676D01*
X78625601Y-38382676D02*
X78673220Y-38477914D01*
X78673220Y-38477914D02*
X78720839Y-38668390D01*
X78720839Y-38668390D02*
X78720839Y-38811247D01*
X78720839Y-38811247D02*
X78673220Y-39001723D01*
X78673220Y-39001723D02*
X78625601Y-39096961D01*
X78625601Y-39096961D02*
X78530363Y-39192200D01*
X78530363Y-39192200D02*
X78387506Y-39239819D01*
X78387506Y-39239819D02*
X78292268Y-39239819D01*
X78292268Y-39239819D02*
X78149411Y-39192200D01*
X78149411Y-39192200D02*
X78101792Y-39144580D01*
X78101792Y-39144580D02*
X78101792Y-38811247D01*
X78101792Y-38811247D02*
X78292268Y-38811247D01*
X77197030Y-38239819D02*
X77673220Y-38239819D01*
X77673220Y-38239819D02*
X77720839Y-38716009D01*
X77720839Y-38716009D02*
X77673220Y-38668390D01*
X77673220Y-38668390D02*
X77577982Y-38620771D01*
X77577982Y-38620771D02*
X77339887Y-38620771D01*
X77339887Y-38620771D02*
X77244649Y-38668390D01*
X77244649Y-38668390D02*
X77197030Y-38716009D01*
X77197030Y-38716009D02*
X77149411Y-38811247D01*
X77149411Y-38811247D02*
X77149411Y-39049342D01*
X77149411Y-39049342D02*
X77197030Y-39144580D01*
X77197030Y-39144580D02*
X77244649Y-39192200D01*
X77244649Y-39192200D02*
X77339887Y-39239819D01*
X77339887Y-39239819D02*
X77577982Y-39239819D01*
X77577982Y-39239819D02*
X77673220Y-39192200D01*
X77673220Y-39192200D02*
X77720839Y-39144580D01*
X70894411Y-38287438D02*
X70989649Y-38239819D01*
X70989649Y-38239819D02*
X71132506Y-38239819D01*
X71132506Y-38239819D02*
X71275363Y-38287438D01*
X71275363Y-38287438D02*
X71370601Y-38382676D01*
X71370601Y-38382676D02*
X71418220Y-38477914D01*
X71418220Y-38477914D02*
X71465839Y-38668390D01*
X71465839Y-38668390D02*
X71465839Y-38811247D01*
X71465839Y-38811247D02*
X71418220Y-39001723D01*
X71418220Y-39001723D02*
X71370601Y-39096961D01*
X71370601Y-39096961D02*
X71275363Y-39192200D01*
X71275363Y-39192200D02*
X71132506Y-39239819D01*
X71132506Y-39239819D02*
X71037268Y-39239819D01*
X71037268Y-39239819D02*
X70894411Y-39192200D01*
X70894411Y-39192200D02*
X70846792Y-39144580D01*
X70846792Y-39144580D02*
X70846792Y-38811247D01*
X70846792Y-38811247D02*
X71037268Y-38811247D01*
X70418220Y-39239819D02*
X70418220Y-38239819D01*
X70418220Y-38239819D02*
X69846792Y-39239819D01*
X69846792Y-39239819D02*
X69846792Y-38239819D01*
X69370601Y-39239819D02*
X69370601Y-38239819D01*
X69370601Y-38239819D02*
X69132506Y-38239819D01*
X69132506Y-38239819D02*
X68989649Y-38287438D01*
X68989649Y-38287438D02*
X68894411Y-38382676D01*
X68894411Y-38382676D02*
X68846792Y-38477914D01*
X68846792Y-38477914D02*
X68799173Y-38668390D01*
X68799173Y-38668390D02*
X68799173Y-38811247D01*
X68799173Y-38811247D02*
X68846792Y-39001723D01*
X68846792Y-39001723D02*
X68894411Y-39096961D01*
X68894411Y-39096961D02*
X68989649Y-39192200D01*
X68989649Y-39192200D02*
X69132506Y-39239819D01*
X69132506Y-39239819D02*
X69370601Y-39239819D01*
X71418220Y-62353866D02*
X70656316Y-62353866D01*
X71037268Y-62734819D02*
X71037268Y-61972914D01*
X69703935Y-61734819D02*
X70180125Y-61734819D01*
X70180125Y-61734819D02*
X70227744Y-62211009D01*
X70227744Y-62211009D02*
X70180125Y-62163390D01*
X70180125Y-62163390D02*
X70084887Y-62115771D01*
X70084887Y-62115771D02*
X69846792Y-62115771D01*
X69846792Y-62115771D02*
X69751554Y-62163390D01*
X69751554Y-62163390D02*
X69703935Y-62211009D01*
X69703935Y-62211009D02*
X69656316Y-62306247D01*
X69656316Y-62306247D02*
X69656316Y-62544342D01*
X69656316Y-62544342D02*
X69703935Y-62639580D01*
X69703935Y-62639580D02*
X69751554Y-62687200D01*
X69751554Y-62687200D02*
X69846792Y-62734819D01*
X69846792Y-62734819D02*
X70084887Y-62734819D01*
X70084887Y-62734819D02*
X70180125Y-62687200D01*
X70180125Y-62687200D02*
X70227744Y-62639580D01*
X69370601Y-61734819D02*
X69037268Y-62734819D01*
X69037268Y-62734819D02*
X68703935Y-61734819D01*
X48558220Y-67814819D02*
X48558220Y-66814819D01*
X48558220Y-66814819D02*
X48177268Y-66814819D01*
X48177268Y-66814819D02*
X48082030Y-66862438D01*
X48082030Y-66862438D02*
X48034411Y-66910057D01*
X48034411Y-66910057D02*
X47986792Y-67005295D01*
X47986792Y-67005295D02*
X47986792Y-67148152D01*
X47986792Y-67148152D02*
X48034411Y-67243390D01*
X48034411Y-67243390D02*
X48082030Y-67291009D01*
X48082030Y-67291009D02*
X48177268Y-67338628D01*
X48177268Y-67338628D02*
X48558220Y-67338628D01*
X47224887Y-67291009D02*
X47082030Y-67338628D01*
X47082030Y-67338628D02*
X47034411Y-67386247D01*
X47034411Y-67386247D02*
X46986792Y-67481485D01*
X46986792Y-67481485D02*
X46986792Y-67624342D01*
X46986792Y-67624342D02*
X47034411Y-67719580D01*
X47034411Y-67719580D02*
X47082030Y-67767200D01*
X47082030Y-67767200D02*
X47177268Y-67814819D01*
X47177268Y-67814819D02*
X47558220Y-67814819D01*
X47558220Y-67814819D02*
X47558220Y-66814819D01*
X47558220Y-66814819D02*
X47224887Y-66814819D01*
X47224887Y-66814819D02*
X47129649Y-66862438D01*
X47129649Y-66862438D02*
X47082030Y-66910057D01*
X47082030Y-66910057D02*
X47034411Y-67005295D01*
X47034411Y-67005295D02*
X47034411Y-67100533D01*
X47034411Y-67100533D02*
X47082030Y-67195771D01*
X47082030Y-67195771D02*
X47129649Y-67243390D01*
X47129649Y-67243390D02*
X47224887Y-67291009D01*
X47224887Y-67291009D02*
X47558220Y-67291009D01*
X46605839Y-66910057D02*
X46558220Y-66862438D01*
X46558220Y-66862438D02*
X46462982Y-66814819D01*
X46462982Y-66814819D02*
X46224887Y-66814819D01*
X46224887Y-66814819D02*
X46129649Y-66862438D01*
X46129649Y-66862438D02*
X46082030Y-66910057D01*
X46082030Y-66910057D02*
X46034411Y-67005295D01*
X46034411Y-67005295D02*
X46034411Y-67100533D01*
X46034411Y-67100533D02*
X46082030Y-67243390D01*
X46082030Y-67243390D02*
X46653458Y-67814819D01*
X46653458Y-67814819D02*
X46034411Y-67814819D01*
X71418220Y-44319819D02*
X71418220Y-43319819D01*
X71418220Y-43319819D02*
X71037268Y-43319819D01*
X71037268Y-43319819D02*
X70942030Y-43367438D01*
X70942030Y-43367438D02*
X70894411Y-43415057D01*
X70894411Y-43415057D02*
X70846792Y-43510295D01*
X70846792Y-43510295D02*
X70846792Y-43653152D01*
X70846792Y-43653152D02*
X70894411Y-43748390D01*
X70894411Y-43748390D02*
X70942030Y-43796009D01*
X70942030Y-43796009D02*
X71037268Y-43843628D01*
X71037268Y-43843628D02*
X71418220Y-43843628D01*
X69894411Y-43367438D02*
X69989649Y-43319819D01*
X69989649Y-43319819D02*
X70132506Y-43319819D01*
X70132506Y-43319819D02*
X70275363Y-43367438D01*
X70275363Y-43367438D02*
X70370601Y-43462676D01*
X70370601Y-43462676D02*
X70418220Y-43557914D01*
X70418220Y-43557914D02*
X70465839Y-43748390D01*
X70465839Y-43748390D02*
X70465839Y-43891247D01*
X70465839Y-43891247D02*
X70418220Y-44081723D01*
X70418220Y-44081723D02*
X70370601Y-44176961D01*
X70370601Y-44176961D02*
X70275363Y-44272200D01*
X70275363Y-44272200D02*
X70132506Y-44319819D01*
X70132506Y-44319819D02*
X70037268Y-44319819D01*
X70037268Y-44319819D02*
X69894411Y-44272200D01*
X69894411Y-44272200D02*
X69846792Y-44224580D01*
X69846792Y-44224580D02*
X69846792Y-43891247D01*
X69846792Y-43891247D02*
X70037268Y-43891247D01*
X69513458Y-43319819D02*
X68894411Y-43319819D01*
X68894411Y-43319819D02*
X69227744Y-43700771D01*
X69227744Y-43700771D02*
X69084887Y-43700771D01*
X69084887Y-43700771D02*
X68989649Y-43748390D01*
X68989649Y-43748390D02*
X68942030Y-43796009D01*
X68942030Y-43796009D02*
X68894411Y-43891247D01*
X68894411Y-43891247D02*
X68894411Y-44129342D01*
X68894411Y-44129342D02*
X68942030Y-44224580D01*
X68942030Y-44224580D02*
X68989649Y-44272200D01*
X68989649Y-44272200D02*
X69084887Y-44319819D01*
X69084887Y-44319819D02*
X69370601Y-44319819D01*
X69370601Y-44319819D02*
X69465839Y-44272200D01*
X69465839Y-44272200D02*
X69513458Y-44224580D01*
X70894411Y-66862438D02*
X70989649Y-66814819D01*
X70989649Y-66814819D02*
X71132506Y-66814819D01*
X71132506Y-66814819D02*
X71275363Y-66862438D01*
X71275363Y-66862438D02*
X71370601Y-66957676D01*
X71370601Y-66957676D02*
X71418220Y-67052914D01*
X71418220Y-67052914D02*
X71465839Y-67243390D01*
X71465839Y-67243390D02*
X71465839Y-67386247D01*
X71465839Y-67386247D02*
X71418220Y-67576723D01*
X71418220Y-67576723D02*
X71370601Y-67671961D01*
X71370601Y-67671961D02*
X71275363Y-67767200D01*
X71275363Y-67767200D02*
X71132506Y-67814819D01*
X71132506Y-67814819D02*
X71037268Y-67814819D01*
X71037268Y-67814819D02*
X70894411Y-67767200D01*
X70894411Y-67767200D02*
X70846792Y-67719580D01*
X70846792Y-67719580D02*
X70846792Y-67386247D01*
X70846792Y-67386247D02*
X71037268Y-67386247D01*
X70418220Y-67814819D02*
X70418220Y-66814819D01*
X70418220Y-66814819D02*
X69846792Y-67814819D01*
X69846792Y-67814819D02*
X69846792Y-66814819D01*
X69370601Y-67814819D02*
X69370601Y-66814819D01*
X69370601Y-66814819D02*
X69132506Y-66814819D01*
X69132506Y-66814819D02*
X68989649Y-66862438D01*
X68989649Y-66862438D02*
X68894411Y-66957676D01*
X68894411Y-66957676D02*
X68846792Y-67052914D01*
X68846792Y-67052914D02*
X68799173Y-67243390D01*
X68799173Y-67243390D02*
X68799173Y-67386247D01*
X68799173Y-67386247D02*
X68846792Y-67576723D01*
X68846792Y-67576723D02*
X68894411Y-67671961D01*
X68894411Y-67671961D02*
X68989649Y-67767200D01*
X68989649Y-67767200D02*
X69132506Y-67814819D01*
X69132506Y-67814819D02*
X69370601Y-67814819D01*
X70894411Y-64322438D02*
X70989649Y-64274819D01*
X70989649Y-64274819D02*
X71132506Y-64274819D01*
X71132506Y-64274819D02*
X71275363Y-64322438D01*
X71275363Y-64322438D02*
X71370601Y-64417676D01*
X71370601Y-64417676D02*
X71418220Y-64512914D01*
X71418220Y-64512914D02*
X71465839Y-64703390D01*
X71465839Y-64703390D02*
X71465839Y-64846247D01*
X71465839Y-64846247D02*
X71418220Y-65036723D01*
X71418220Y-65036723D02*
X71370601Y-65131961D01*
X71370601Y-65131961D02*
X71275363Y-65227200D01*
X71275363Y-65227200D02*
X71132506Y-65274819D01*
X71132506Y-65274819D02*
X71037268Y-65274819D01*
X71037268Y-65274819D02*
X70894411Y-65227200D01*
X70894411Y-65227200D02*
X70846792Y-65179580D01*
X70846792Y-65179580D02*
X70846792Y-64846247D01*
X70846792Y-64846247D02*
X71037268Y-64846247D01*
X70418220Y-65274819D02*
X70418220Y-64274819D01*
X70418220Y-64274819D02*
X69846792Y-65274819D01*
X69846792Y-65274819D02*
X69846792Y-64274819D01*
X69370601Y-65274819D02*
X69370601Y-64274819D01*
X69370601Y-64274819D02*
X69132506Y-64274819D01*
X69132506Y-64274819D02*
X68989649Y-64322438D01*
X68989649Y-64322438D02*
X68894411Y-64417676D01*
X68894411Y-64417676D02*
X68846792Y-64512914D01*
X68846792Y-64512914D02*
X68799173Y-64703390D01*
X68799173Y-64703390D02*
X68799173Y-64846247D01*
X68799173Y-64846247D02*
X68846792Y-65036723D01*
X68846792Y-65036723D02*
X68894411Y-65131961D01*
X68894411Y-65131961D02*
X68989649Y-65227200D01*
X68989649Y-65227200D02*
X69132506Y-65274819D01*
X69132506Y-65274819D02*
X69370601Y-65274819D01*
M02*
