%TF.GenerationSoftware,KiCad,Pcbnew,8.0.1*%
%TF.CreationDate,2024-04-20T11:28:48-04:00*%
%TF.ProjectId,Bridge_Controller,42726964-6765-45f4-936f-6e74726f6c6c,v1.0*%
%TF.SameCoordinates,Original*%
%TF.FileFunction,Paste,Top*%
%TF.FilePolarity,Positive*%
%FSLAX46Y46*%
G04 Gerber Fmt 4.6, Leading zero omitted, Abs format (unit mm)*
G04 Created by KiCad (PCBNEW 8.0.1) date 2024-04-20 11:28:48*
%MOMM*%
%LPD*%
G01*
G04 APERTURE LIST*
G04 Aperture macros list*
%AMRoundRect*
0 Rectangle with rounded corners*
0 $1 Rounding radius*
0 $2 $3 $4 $5 $6 $7 $8 $9 X,Y pos of 4 corners*
0 Add a 4 corners polygon primitive as box body*
4,1,4,$2,$3,$4,$5,$6,$7,$8,$9,$2,$3,0*
0 Add four circle primitives for the rounded corners*
1,1,$1+$1,$2,$3*
1,1,$1+$1,$4,$5*
1,1,$1+$1,$6,$7*
1,1,$1+$1,$8,$9*
0 Add four rect primitives between the rounded corners*
20,1,$1+$1,$2,$3,$4,$5,0*
20,1,$1+$1,$4,$5,$6,$7,0*
20,1,$1+$1,$6,$7,$8,$9,0*
20,1,$1+$1,$8,$9,$2,$3,0*%
G04 Aperture macros list end*
%ADD10RoundRect,0.200000X-0.200000X-0.275000X0.200000X-0.275000X0.200000X0.275000X-0.200000X0.275000X0*%
%ADD11R,1.450000X0.450000*%
%ADD12RoundRect,0.225000X0.225000X0.250000X-0.225000X0.250000X-0.225000X-0.250000X0.225000X-0.250000X0*%
%ADD13RoundRect,0.207500X0.207500X-0.207500X0.207500X0.207500X-0.207500X0.207500X-0.207500X-0.207500X0*%
%ADD14RoundRect,0.062500X0.062500X-0.375000X0.062500X0.375000X-0.062500X0.375000X-0.062500X-0.375000X0*%
%ADD15RoundRect,0.062500X0.375000X-0.062500X0.375000X0.062500X-0.375000X0.062500X-0.375000X-0.062500X0*%
%ADD16RoundRect,0.200000X-0.275000X0.200000X-0.275000X-0.200000X0.275000X-0.200000X0.275000X0.200000X0*%
%ADD17RoundRect,0.225000X-0.225000X-0.250000X0.225000X-0.250000X0.225000X0.250000X-0.225000X0.250000X0*%
%ADD18RoundRect,0.075000X-0.415425X-0.521491X0.521491X0.415425X0.415425X0.521491X-0.521491X-0.415425X0*%
%ADD19RoundRect,0.075000X0.415425X-0.521491X0.521491X-0.415425X-0.415425X0.521491X-0.521491X0.415425X0*%
%ADD20RoundRect,0.225000X-0.250000X0.225000X-0.250000X-0.225000X0.250000X-0.225000X0.250000X0.225000X0*%
%ADD21RoundRect,0.200000X0.200000X0.275000X-0.200000X0.275000X-0.200000X-0.275000X0.200000X-0.275000X0*%
%ADD22R,3.600000X1.270000*%
%ADD23R,4.200000X1.350000*%
%ADD24RoundRect,0.175000X0.325000X-0.175000X0.325000X0.175000X-0.325000X0.175000X-0.325000X-0.175000X0*%
%ADD25RoundRect,0.150000X0.150000X-0.200000X0.150000X0.200000X-0.150000X0.200000X-0.150000X-0.200000X0*%
%ADD26RoundRect,0.200000X0.275000X-0.200000X0.275000X0.200000X-0.275000X0.200000X-0.275000X-0.200000X0*%
%ADD27RoundRect,0.225000X0.017678X-0.335876X0.335876X-0.017678X-0.017678X0.335876X-0.335876X0.017678X0*%
%ADD28RoundRect,0.243750X0.456250X-0.243750X0.456250X0.243750X-0.456250X0.243750X-0.456250X-0.243750X0*%
%ADD29R,2.750000X1.000000*%
%ADD30RoundRect,0.225000X0.335876X0.017678X0.017678X0.335876X-0.335876X-0.017678X-0.017678X-0.335876X0*%
%ADD31RoundRect,0.225000X-0.335876X-0.017678X-0.017678X-0.335876X0.335876X0.017678X0.017678X0.335876X0*%
%ADD32R,1.400000X1.200000*%
%ADD33RoundRect,0.225000X-0.017678X0.335876X-0.335876X0.017678X0.017678X-0.335876X0.335876X-0.017678X0*%
%ADD34RoundRect,0.250000X-0.450000X-0.425000X0.450000X-0.425000X0.450000X0.425000X-0.450000X0.425000X0*%
%ADD35RoundRect,0.087500X0.725000X0.087500X-0.725000X0.087500X-0.725000X-0.087500X0.725000X-0.087500X0*%
%ADD36RoundRect,0.218750X0.218750X0.381250X-0.218750X0.381250X-0.218750X-0.381250X0.218750X-0.381250X0*%
%ADD37RoundRect,0.075000X-0.650000X-0.075000X0.650000X-0.075000X0.650000X0.075000X-0.650000X0.075000X0*%
%ADD38RoundRect,0.150000X-0.512500X-0.150000X0.512500X-0.150000X0.512500X0.150000X-0.512500X0.150000X0*%
%ADD39RoundRect,0.225000X0.250000X-0.225000X0.250000X0.225000X-0.250000X0.225000X-0.250000X-0.225000X0*%
G04 APERTURE END LIST*
D10*
%TO.C,R35*%
X35370000Y-44450000D03*
X37020000Y-44450000D03*
%TD*%
%TO.C,R22*%
X28385000Y-73660000D03*
X30035000Y-73660000D03*
%TD*%
%TO.C,R39*%
X35370000Y-31115000D03*
X37020000Y-31115000D03*
%TD*%
D11*
%TO.C,U6*%
X37170000Y-100625000D03*
X37170000Y-101275000D03*
X37170000Y-101925000D03*
X37170000Y-102575000D03*
X41570000Y-102575000D03*
X41570000Y-101925000D03*
X41570000Y-101275000D03*
X41570000Y-100625000D03*
%TD*%
D12*
%TO.C,C32*%
X43955000Y-33655000D03*
X42405000Y-33655000D03*
%TD*%
%TO.C,C10*%
X68720000Y-93980000D03*
X67170000Y-93980000D03*
%TD*%
D13*
%TO.C,U2*%
X61302500Y-98935000D03*
X62332500Y-98935000D03*
X63362500Y-98935000D03*
X61302500Y-97905000D03*
X62332500Y-97905000D03*
X63362500Y-97905000D03*
X61302500Y-96875000D03*
X62332500Y-96875000D03*
X63362500Y-96875000D03*
D14*
X60582500Y-100342500D03*
X61082500Y-100342500D03*
X61582500Y-100342500D03*
X62082500Y-100342500D03*
X62582500Y-100342500D03*
X63082500Y-100342500D03*
X63582500Y-100342500D03*
X64082500Y-100342500D03*
D15*
X64770000Y-99655000D03*
X64770000Y-99155000D03*
X64770000Y-98655000D03*
X64770000Y-98155000D03*
X64770000Y-97655000D03*
X64770000Y-97155000D03*
X64770000Y-96655000D03*
X64770000Y-96155000D03*
D14*
X64082500Y-95467500D03*
X63582500Y-95467500D03*
X63082500Y-95467500D03*
X62582500Y-95467500D03*
X62082500Y-95467500D03*
X61582500Y-95467500D03*
X61082500Y-95467500D03*
X60582500Y-95467500D03*
D15*
X59895000Y-96155000D03*
X59895000Y-96655000D03*
X59895000Y-97155000D03*
X59895000Y-97655000D03*
X59895000Y-98155000D03*
X59895000Y-98655000D03*
X59895000Y-99155000D03*
X59895000Y-99655000D03*
%TD*%
D12*
%TO.C,C14*%
X58433000Y-100330000D03*
X56883000Y-100330000D03*
%TD*%
D10*
%TO.C,R33*%
X32195000Y-44450000D03*
X33845000Y-44450000D03*
%TD*%
%TO.C,R27*%
X32195000Y-71120000D03*
X33845000Y-71120000D03*
%TD*%
D16*
%TO.C,R6*%
X48895000Y-102680000D03*
X48895000Y-104330000D03*
%TD*%
D17*
%TO.C,C21*%
X51295000Y-97155000D03*
X52845000Y-97155000D03*
%TD*%
D18*
%TO.C,U1*%
X52399357Y-83267342D03*
X52752911Y-83620895D03*
X53106464Y-83974449D03*
X53460018Y-84328002D03*
X53813571Y-84681555D03*
X54167124Y-85035109D03*
X54520678Y-85388662D03*
X54874231Y-85742215D03*
X55227785Y-86095769D03*
X55581338Y-86449322D03*
X55934891Y-86802876D03*
X56288445Y-87156429D03*
X56641998Y-87509982D03*
X56995551Y-87863536D03*
X57349105Y-88217089D03*
X57702658Y-88570643D03*
D19*
X60407342Y-88570643D03*
X60760895Y-88217089D03*
X61114449Y-87863536D03*
X61468002Y-87509982D03*
X61821555Y-87156429D03*
X62175109Y-86802876D03*
X62528662Y-86449322D03*
X62882215Y-86095769D03*
X63235769Y-85742215D03*
X63589322Y-85388662D03*
X63942876Y-85035109D03*
X64296429Y-84681555D03*
X64649982Y-84328002D03*
X65003536Y-83974449D03*
X65357089Y-83620895D03*
X65710643Y-83267342D03*
D18*
X65710643Y-80562658D03*
X65357089Y-80209105D03*
X65003536Y-79855551D03*
X64649982Y-79501998D03*
X64296429Y-79148445D03*
X63942876Y-78794891D03*
X63589322Y-78441338D03*
X63235769Y-78087785D03*
X62882215Y-77734231D03*
X62528662Y-77380678D03*
X62175109Y-77027124D03*
X61821555Y-76673571D03*
X61468002Y-76320018D03*
X61114449Y-75966464D03*
X60760895Y-75612911D03*
X60407342Y-75259357D03*
D19*
X57702658Y-75259357D03*
X57349105Y-75612911D03*
X56995551Y-75966464D03*
X56641998Y-76320018D03*
X56288445Y-76673571D03*
X55934891Y-77027124D03*
X55581338Y-77380678D03*
X55227785Y-77734231D03*
X54874231Y-78087785D03*
X54520678Y-78441338D03*
X54167124Y-78794891D03*
X53813571Y-79148445D03*
X53460018Y-79501998D03*
X53106464Y-79855551D03*
X52752911Y-80209105D03*
X52399357Y-80562658D03*
%TD*%
D20*
%TO.C,C13*%
X62865000Y-92443000D03*
X62865000Y-93993000D03*
%TD*%
D17*
%TO.C,C23*%
X39865000Y-73660000D03*
X41415000Y-73660000D03*
%TD*%
D21*
%TO.C,R47*%
X50990000Y-33655000D03*
X49340000Y-33655000D03*
%TD*%
D22*
%TO.C,J8*%
X24782500Y-63500000D03*
D23*
X24982500Y-60675000D03*
X24982500Y-66325000D03*
%TD*%
D24*
%TO.C,D3*%
X71005000Y-98155000D03*
D25*
X72705000Y-98155000D03*
X72705000Y-96155000D03*
X70805000Y-96155000D03*
%TD*%
D21*
%TO.C,R7*%
X68770000Y-97790000D03*
X67120000Y-97790000D03*
%TD*%
D26*
%TO.C,R9*%
X75057000Y-90170000D03*
X75057000Y-88520000D03*
%TD*%
D10*
%TO.C,R38*%
X35370000Y-29210000D03*
X37020000Y-29210000D03*
%TD*%
D21*
%TO.C,R1*%
X45783000Y-57150000D03*
X44133000Y-57150000D03*
%TD*%
D16*
%TO.C,R17*%
X56515000Y-102680000D03*
X56515000Y-104330000D03*
%TD*%
D10*
%TO.C,R26*%
X37275000Y-104775000D03*
X38925000Y-104775000D03*
%TD*%
D22*
%TO.C,J11*%
X24782500Y-44450000D03*
D23*
X24982500Y-41625000D03*
X24982500Y-47275000D03*
%TD*%
D12*
%TO.C,C11*%
X68720000Y-99695000D03*
X67170000Y-99695000D03*
%TD*%
%TO.C,C31*%
X50940000Y-39370000D03*
X49390000Y-39370000D03*
%TD*%
D27*
%TO.C,C2*%
X51521992Y-87543008D03*
X52618008Y-86446992D03*
%TD*%
D17*
%TO.C,C24*%
X34150000Y-104775000D03*
X35700000Y-104775000D03*
%TD*%
D21*
%TO.C,R4*%
X47815000Y-86995000D03*
X46165000Y-86995000D03*
%TD*%
D17*
%TO.C,C26*%
X61455000Y-46355000D03*
X63005000Y-46355000D03*
%TD*%
D10*
%TO.C,R25*%
X37275000Y-106680000D03*
X38925000Y-106680000D03*
%TD*%
D12*
%TO.C,C18*%
X45860000Y-71120000D03*
X44310000Y-71120000D03*
%TD*%
D10*
%TO.C,R21*%
X41085000Y-89535000D03*
X42735000Y-89535000D03*
%TD*%
%TO.C,R32*%
X32195000Y-42545000D03*
X33845000Y-42545000D03*
%TD*%
D12*
%TO.C,C1*%
X45733000Y-55245000D03*
X44183000Y-55245000D03*
%TD*%
%TO.C,C15*%
X73800000Y-106045000D03*
X72250000Y-106045000D03*
%TD*%
D28*
%TO.C,D5*%
X56515000Y-108252500D03*
X56515000Y-106377500D03*
%TD*%
D10*
%TO.C,R29*%
X32830000Y-101600000D03*
X34480000Y-101600000D03*
%TD*%
D16*
%TO.C,R15*%
X66421000Y-103061000D03*
X66421000Y-104711000D03*
%TD*%
%TO.C,R13*%
X52705000Y-102680000D03*
X52705000Y-104330000D03*
%TD*%
D12*
%TO.C,C35*%
X45225000Y-100330000D03*
X43675000Y-100330000D03*
%TD*%
D21*
%TO.C,R8*%
X68770000Y-95885000D03*
X67120000Y-95885000D03*
%TD*%
D26*
%TO.C,R10*%
X76962000Y-90170000D03*
X76962000Y-88520000D03*
%TD*%
D10*
%TO.C,R37*%
X32195000Y-29210000D03*
X33845000Y-29210000D03*
%TD*%
D21*
%TO.C,R3*%
X47815000Y-85090000D03*
X46165000Y-85090000D03*
%TD*%
D16*
%TO.C,R14*%
X64643000Y-103061000D03*
X64643000Y-104711000D03*
%TD*%
D22*
%TO.C,J7*%
X24782500Y-101600000D03*
D23*
X24982500Y-98775000D03*
X24982500Y-104425000D03*
%TD*%
D28*
%TO.C,D4*%
X52705000Y-108252500D03*
X52705000Y-106377500D03*
%TD*%
D21*
%TO.C,R24*%
X35750000Y-106680000D03*
X34100000Y-106680000D03*
%TD*%
D12*
%TO.C,C22*%
X29985000Y-75565000D03*
X28435000Y-75565000D03*
%TD*%
D29*
%TO.C,SW1*%
X48687000Y-54134000D03*
X54437000Y-54134000D03*
X48687000Y-58134000D03*
X54437000Y-58134000D03*
%TD*%
D11*
%TO.C,U8*%
X35265000Y-33950000D03*
X35265000Y-34600000D03*
X35265000Y-35250000D03*
X35265000Y-35900000D03*
X39665000Y-35900000D03*
X39665000Y-35250000D03*
X39665000Y-34600000D03*
X39665000Y-33950000D03*
%TD*%
%TO.C,U5*%
X32725000Y-73320000D03*
X32725000Y-73970000D03*
X32725000Y-74620000D03*
X32725000Y-75270000D03*
X37125000Y-75270000D03*
X37125000Y-74620000D03*
X37125000Y-73970000D03*
X37125000Y-73320000D03*
%TD*%
D10*
%TO.C,R40*%
X35370000Y-40640000D03*
X37020000Y-40640000D03*
%TD*%
D30*
%TO.C,C3*%
X64048008Y-90083008D03*
X62951992Y-88986992D03*
%TD*%
D27*
%TO.C,C7*%
X65618992Y-77510008D03*
X66715008Y-76413992D03*
%TD*%
D10*
%TO.C,R42*%
X30925000Y-35560000D03*
X32575000Y-35560000D03*
%TD*%
%TO.C,R36*%
X32195000Y-40640000D03*
X33845000Y-40640000D03*
%TD*%
D21*
%TO.C,R41*%
X37020000Y-38735000D03*
X35370000Y-38735000D03*
%TD*%
%TO.C,R48*%
X50990000Y-37465000D03*
X49340000Y-37465000D03*
%TD*%
D10*
%TO.C,R34*%
X35370000Y-25400000D03*
X37020000Y-25400000D03*
%TD*%
D12*
%TO.C,C19*%
X52845000Y-93345000D03*
X51295000Y-93345000D03*
%TD*%
D11*
%TO.C,U3*%
X44155000Y-73320000D03*
X44155000Y-73970000D03*
X44155000Y-74620000D03*
X44155000Y-75270000D03*
X48555000Y-75270000D03*
X48555000Y-74620000D03*
X48555000Y-73970000D03*
X48555000Y-73320000D03*
%TD*%
D22*
%TO.C,J9*%
X24782500Y-82550000D03*
D23*
X24982500Y-79725000D03*
X24982500Y-85375000D03*
%TD*%
D28*
%TO.C,D6*%
X60325000Y-108252500D03*
X60325000Y-106377500D03*
%TD*%
D30*
%TO.C,C6*%
X55158008Y-74843008D03*
X54061992Y-73746992D03*
%TD*%
D10*
%TO.C,R46*%
X63310000Y-38735000D03*
X64960000Y-38735000D03*
%TD*%
%TO.C,R20*%
X41085000Y-91440000D03*
X42735000Y-91440000D03*
%TD*%
D17*
%TO.C,C20*%
X51295000Y-95250000D03*
X52845000Y-95250000D03*
%TD*%
D31*
%TO.C,C5*%
X52791992Y-75016992D03*
X53888008Y-76113008D03*
%TD*%
D32*
%TO.C,X1*%
X38735000Y-95715000D03*
X41275000Y-95715000D03*
X41275000Y-93515000D03*
X38735000Y-93515000D03*
%TD*%
D12*
%TO.C,C33*%
X64910000Y-34925000D03*
X63360000Y-34925000D03*
%TD*%
D28*
%TO.C,D2*%
X48895000Y-108252500D03*
X48895000Y-106377500D03*
%TD*%
D12*
%TO.C,C25*%
X30620000Y-101600000D03*
X29070000Y-101600000D03*
%TD*%
D17*
%TO.C,C27*%
X35420000Y-27305000D03*
X36970000Y-27305000D03*
%TD*%
D21*
%TO.C,R19*%
X37655000Y-97790000D03*
X36005000Y-97790000D03*
%TD*%
D20*
%TO.C,C12*%
X64389000Y-92443000D03*
X64389000Y-93993000D03*
%TD*%
D16*
%TO.C,R16*%
X62865000Y-103061000D03*
X62865000Y-104711000D03*
%TD*%
D33*
%TO.C,C4*%
X67985008Y-77683992D03*
X66888992Y-78780008D03*
%TD*%
D22*
%TO.C,J10*%
X24782500Y-25400000D03*
D23*
X24982500Y-22575000D03*
X24982500Y-28225000D03*
%TD*%
D21*
%TO.C,R28*%
X33743400Y-77266800D03*
X32093400Y-77266800D03*
%TD*%
D34*
%TO.C,C16*%
X68881000Y-108331000D03*
X71581000Y-108331000D03*
%TD*%
D35*
%TO.C,U4*%
X49102500Y-95615000D03*
X49102500Y-95115000D03*
X49102500Y-94615000D03*
X49102500Y-94115000D03*
X49102500Y-93615000D03*
X44877500Y-93615000D03*
X44877500Y-94115000D03*
X44877500Y-94615000D03*
X44877500Y-95115000D03*
X44877500Y-95615000D03*
%TD*%
D10*
%TO.C,R45*%
X42355000Y-35560000D03*
X44005000Y-35560000D03*
%TD*%
D31*
%TO.C,C8*%
X64221992Y-87716992D03*
X65318008Y-88813008D03*
%TD*%
D36*
%TO.C,L1*%
X70785500Y-105918000D03*
X68660500Y-105918000D03*
%TD*%
D37*
%TO.C,U9*%
X56855000Y-33925000D03*
X56855000Y-34425000D03*
X56855000Y-34925000D03*
X56855000Y-35425000D03*
X56855000Y-35925000D03*
X61255000Y-35925000D03*
X61255000Y-35425000D03*
X61255000Y-34925000D03*
X61255000Y-34425000D03*
X61255000Y-33925000D03*
%TD*%
D21*
%TO.C,R23*%
X41465000Y-75565000D03*
X39815000Y-75565000D03*
%TD*%
D38*
%TO.C,U7*%
X57282500Y-46040000D03*
X57282500Y-46990000D03*
X57282500Y-47940000D03*
X59557500Y-47940000D03*
X59557500Y-46990000D03*
X59557500Y-46040000D03*
%TD*%
D39*
%TO.C,C17*%
X38735000Y-91580000D03*
X38735000Y-90030000D03*
%TD*%
D17*
%TO.C,C29*%
X63360000Y-36830000D03*
X64910000Y-36830000D03*
%TD*%
D10*
%TO.C,R31*%
X32195000Y-27305000D03*
X33845000Y-27305000D03*
%TD*%
D16*
%TO.C,R18*%
X60325000Y-102680000D03*
X60325000Y-104330000D03*
%TD*%
D33*
%TO.C,C9*%
X53888008Y-87716992D03*
X52791992Y-88813008D03*
%TD*%
D17*
%TO.C,C28*%
X35420000Y-42545000D03*
X36970000Y-42545000D03*
%TD*%
D12*
%TO.C,C30*%
X50940000Y-35560000D03*
X49390000Y-35560000D03*
%TD*%
D21*
%TO.C,R43*%
X44005000Y-37465000D03*
X42355000Y-37465000D03*
%TD*%
D16*
%TO.C,R5*%
X45085000Y-102680000D03*
X45085000Y-104330000D03*
%TD*%
D26*
%TO.C,R11*%
X71247000Y-90170000D03*
X71247000Y-88520000D03*
%TD*%
%TO.C,R12*%
X73152000Y-90170000D03*
X73152000Y-88520000D03*
%TD*%
D10*
%TO.C,R44*%
X30925000Y-33655000D03*
X32575000Y-33655000D03*
%TD*%
D21*
%TO.C,R2*%
X47815000Y-83185000D03*
X46165000Y-83185000D03*
%TD*%
D10*
%TO.C,R30*%
X32195000Y-25400000D03*
X33845000Y-25400000D03*
%TD*%
D28*
%TO.C,D1*%
X45085000Y-108252500D03*
X45085000Y-106377500D03*
%TD*%
D17*
%TO.C,C34*%
X35420000Y-71120000D03*
X36970000Y-71120000D03*
%TD*%
M02*
