%TF.GenerationSoftware,KiCad,Pcbnew,8.0.0*%
%TF.CreationDate,2024-06-21T14:10:28-04:00*%
%TF.ProjectId,GaN Drain Driver,47614e20-4472-4616-996e-204472697665,v1.0*%
%TF.SameCoordinates,Original*%
%TF.FileFunction,Legend,Top*%
%TF.FilePolarity,Positive*%
%FSLAX46Y46*%
G04 Gerber Fmt 4.6, Leading zero omitted, Abs format (unit mm)*
G04 Created by KiCad (PCBNEW 8.0.0) date 2024-06-21 14:10:28*
%MOMM*%
%LPD*%
G01*
G04 APERTURE LIST*
%ADD10C,0.150000*%
%ADD11C,0.100000*%
%ADD12C,0.120000*%
G04 APERTURE END LIST*
D10*
X127225588Y-30667438D02*
X127130350Y-30619819D01*
X127130350Y-30619819D02*
X126987493Y-30619819D01*
X126987493Y-30619819D02*
X126844636Y-30667438D01*
X126844636Y-30667438D02*
X126749398Y-30762676D01*
X126749398Y-30762676D02*
X126701779Y-30857914D01*
X126701779Y-30857914D02*
X126654160Y-31048390D01*
X126654160Y-31048390D02*
X126654160Y-31191247D01*
X126654160Y-31191247D02*
X126701779Y-31381723D01*
X126701779Y-31381723D02*
X126749398Y-31476961D01*
X126749398Y-31476961D02*
X126844636Y-31572200D01*
X126844636Y-31572200D02*
X126987493Y-31619819D01*
X126987493Y-31619819D02*
X127082731Y-31619819D01*
X127082731Y-31619819D02*
X127225588Y-31572200D01*
X127225588Y-31572200D02*
X127273207Y-31524580D01*
X127273207Y-31524580D02*
X127273207Y-31191247D01*
X127273207Y-31191247D02*
X127082731Y-31191247D01*
X127701779Y-31619819D02*
X127701779Y-30619819D01*
X127701779Y-30619819D02*
X128273207Y-31619819D01*
X128273207Y-31619819D02*
X128273207Y-30619819D01*
X128749398Y-31619819D02*
X128749398Y-30619819D01*
X128749398Y-30619819D02*
X128987493Y-30619819D01*
X128987493Y-30619819D02*
X129130350Y-30667438D01*
X129130350Y-30667438D02*
X129225588Y-30762676D01*
X129225588Y-30762676D02*
X129273207Y-30857914D01*
X129273207Y-30857914D02*
X129320826Y-31048390D01*
X129320826Y-31048390D02*
X129320826Y-31191247D01*
X129320826Y-31191247D02*
X129273207Y-31381723D01*
X129273207Y-31381723D02*
X129225588Y-31476961D01*
X129225588Y-31476961D02*
X129130350Y-31572200D01*
X129130350Y-31572200D02*
X128987493Y-31619819D01*
X128987493Y-31619819D02*
X128749398Y-31619819D01*
X123383922Y-30619819D02*
X123717255Y-31619819D01*
X123717255Y-31619819D02*
X124050588Y-30619819D01*
X124955350Y-31524580D02*
X124907731Y-31572200D01*
X124907731Y-31572200D02*
X124764874Y-31619819D01*
X124764874Y-31619819D02*
X124669636Y-31619819D01*
X124669636Y-31619819D02*
X124526779Y-31572200D01*
X124526779Y-31572200D02*
X124431541Y-31476961D01*
X124431541Y-31476961D02*
X124383922Y-31381723D01*
X124383922Y-31381723D02*
X124336303Y-31191247D01*
X124336303Y-31191247D02*
X124336303Y-31048390D01*
X124336303Y-31048390D02*
X124383922Y-30857914D01*
X124383922Y-30857914D02*
X124431541Y-30762676D01*
X124431541Y-30762676D02*
X124526779Y-30667438D01*
X124526779Y-30667438D02*
X124669636Y-30619819D01*
X124669636Y-30619819D02*
X124764874Y-30619819D01*
X124764874Y-30619819D02*
X124907731Y-30667438D01*
X124907731Y-30667438D02*
X124955350Y-30715057D01*
X125955350Y-31524580D02*
X125907731Y-31572200D01*
X125907731Y-31572200D02*
X125764874Y-31619819D01*
X125764874Y-31619819D02*
X125669636Y-31619819D01*
X125669636Y-31619819D02*
X125526779Y-31572200D01*
X125526779Y-31572200D02*
X125431541Y-31476961D01*
X125431541Y-31476961D02*
X125383922Y-31381723D01*
X125383922Y-31381723D02*
X125336303Y-31191247D01*
X125336303Y-31191247D02*
X125336303Y-31048390D01*
X125336303Y-31048390D02*
X125383922Y-30857914D01*
X125383922Y-30857914D02*
X125431541Y-30762676D01*
X125431541Y-30762676D02*
X125526779Y-30667438D01*
X125526779Y-30667438D02*
X125669636Y-30619819D01*
X125669636Y-30619819D02*
X125764874Y-30619819D01*
X125764874Y-30619819D02*
X125907731Y-30667438D01*
X125907731Y-30667438D02*
X125955350Y-30715057D01*
X61296779Y-31619819D02*
X61296779Y-30619819D01*
X61772969Y-31619819D02*
X61772969Y-30619819D01*
X61772969Y-30619819D02*
X62344397Y-31619819D01*
X62344397Y-31619819D02*
X62344397Y-30619819D01*
X62820588Y-31619819D02*
X62820588Y-30619819D01*
X62820588Y-30619819D02*
X63201540Y-30619819D01*
X63201540Y-30619819D02*
X63296778Y-30667438D01*
X63296778Y-30667438D02*
X63344397Y-30715057D01*
X63344397Y-30715057D02*
X63392016Y-30810295D01*
X63392016Y-30810295D02*
X63392016Y-30953152D01*
X63392016Y-30953152D02*
X63344397Y-31048390D01*
X63344397Y-31048390D02*
X63296778Y-31096009D01*
X63296778Y-31096009D02*
X63201540Y-31143628D01*
X63201540Y-31143628D02*
X62820588Y-31143628D01*
X63820588Y-30619819D02*
X63820588Y-31429342D01*
X63820588Y-31429342D02*
X63868207Y-31524580D01*
X63868207Y-31524580D02*
X63915826Y-31572200D01*
X63915826Y-31572200D02*
X64011064Y-31619819D01*
X64011064Y-31619819D02*
X64201540Y-31619819D01*
X64201540Y-31619819D02*
X64296778Y-31572200D01*
X64296778Y-31572200D02*
X64344397Y-31524580D01*
X64344397Y-31524580D02*
X64392016Y-31429342D01*
X64392016Y-31429342D02*
X64392016Y-30619819D01*
X64725350Y-30619819D02*
X65296778Y-30619819D01*
X65011064Y-31619819D02*
X65011064Y-30619819D01*
X132305588Y-34223438D02*
X132210350Y-34175819D01*
X132210350Y-34175819D02*
X132067493Y-34175819D01*
X132067493Y-34175819D02*
X131924636Y-34223438D01*
X131924636Y-34223438D02*
X131829398Y-34318676D01*
X131829398Y-34318676D02*
X131781779Y-34413914D01*
X131781779Y-34413914D02*
X131734160Y-34604390D01*
X131734160Y-34604390D02*
X131734160Y-34747247D01*
X131734160Y-34747247D02*
X131781779Y-34937723D01*
X131781779Y-34937723D02*
X131829398Y-35032961D01*
X131829398Y-35032961D02*
X131924636Y-35128200D01*
X131924636Y-35128200D02*
X132067493Y-35175819D01*
X132067493Y-35175819D02*
X132162731Y-35175819D01*
X132162731Y-35175819D02*
X132305588Y-35128200D01*
X132305588Y-35128200D02*
X132353207Y-35080580D01*
X132353207Y-35080580D02*
X132353207Y-34747247D01*
X132353207Y-34747247D02*
X132162731Y-34747247D01*
X132781779Y-35175819D02*
X132781779Y-34175819D01*
X132781779Y-34175819D02*
X133353207Y-35175819D01*
X133353207Y-35175819D02*
X133353207Y-34175819D01*
X133829398Y-35175819D02*
X133829398Y-34175819D01*
X133829398Y-34175819D02*
X134067493Y-34175819D01*
X134067493Y-34175819D02*
X134210350Y-34223438D01*
X134210350Y-34223438D02*
X134305588Y-34318676D01*
X134305588Y-34318676D02*
X134353207Y-34413914D01*
X134353207Y-34413914D02*
X134400826Y-34604390D01*
X134400826Y-34604390D02*
X134400826Y-34747247D01*
X134400826Y-34747247D02*
X134353207Y-34937723D01*
X134353207Y-34937723D02*
X134305588Y-35032961D01*
X134305588Y-35032961D02*
X134210350Y-35128200D01*
X134210350Y-35128200D02*
X134067493Y-35175819D01*
X134067493Y-35175819D02*
X133829398Y-35175819D01*
X76425588Y-30667438D02*
X76330350Y-30619819D01*
X76330350Y-30619819D02*
X76187493Y-30619819D01*
X76187493Y-30619819D02*
X76044636Y-30667438D01*
X76044636Y-30667438D02*
X75949398Y-30762676D01*
X75949398Y-30762676D02*
X75901779Y-30857914D01*
X75901779Y-30857914D02*
X75854160Y-31048390D01*
X75854160Y-31048390D02*
X75854160Y-31191247D01*
X75854160Y-31191247D02*
X75901779Y-31381723D01*
X75901779Y-31381723D02*
X75949398Y-31476961D01*
X75949398Y-31476961D02*
X76044636Y-31572200D01*
X76044636Y-31572200D02*
X76187493Y-31619819D01*
X76187493Y-31619819D02*
X76282731Y-31619819D01*
X76282731Y-31619819D02*
X76425588Y-31572200D01*
X76425588Y-31572200D02*
X76473207Y-31524580D01*
X76473207Y-31524580D02*
X76473207Y-31191247D01*
X76473207Y-31191247D02*
X76282731Y-31191247D01*
X76901779Y-31619819D02*
X76901779Y-30619819D01*
X76901779Y-30619819D02*
X77473207Y-31619819D01*
X77473207Y-31619819D02*
X77473207Y-30619819D01*
X77949398Y-31619819D02*
X77949398Y-30619819D01*
X77949398Y-30619819D02*
X78187493Y-30619819D01*
X78187493Y-30619819D02*
X78330350Y-30667438D01*
X78330350Y-30667438D02*
X78425588Y-30762676D01*
X78425588Y-30762676D02*
X78473207Y-30857914D01*
X78473207Y-30857914D02*
X78520826Y-31048390D01*
X78520826Y-31048390D02*
X78520826Y-31191247D01*
X78520826Y-31191247D02*
X78473207Y-31381723D01*
X78473207Y-31381723D02*
X78425588Y-31476961D01*
X78425588Y-31476961D02*
X78330350Y-31572200D01*
X78330350Y-31572200D02*
X78187493Y-31619819D01*
X78187493Y-31619819D02*
X77949398Y-31619819D01*
X71456779Y-31238866D02*
X72218684Y-31238866D01*
X71837731Y-31619819D02*
X71837731Y-30857914D01*
X73218683Y-31619819D02*
X72647255Y-31619819D01*
X72932969Y-31619819D02*
X72932969Y-30619819D01*
X72932969Y-30619819D02*
X72837731Y-30762676D01*
X72837731Y-30762676D02*
X72742493Y-30857914D01*
X72742493Y-30857914D02*
X72647255Y-30905533D01*
X74123445Y-30619819D02*
X73647255Y-30619819D01*
X73647255Y-30619819D02*
X73599636Y-31096009D01*
X73599636Y-31096009D02*
X73647255Y-31048390D01*
X73647255Y-31048390D02*
X73742493Y-31000771D01*
X73742493Y-31000771D02*
X73980588Y-31000771D01*
X73980588Y-31000771D02*
X74075826Y-31048390D01*
X74075826Y-31048390D02*
X74123445Y-31096009D01*
X74123445Y-31096009D02*
X74171064Y-31191247D01*
X74171064Y-31191247D02*
X74171064Y-31429342D01*
X74171064Y-31429342D02*
X74123445Y-31524580D01*
X74123445Y-31524580D02*
X74075826Y-31572200D01*
X74075826Y-31572200D02*
X73980588Y-31619819D01*
X73980588Y-31619819D02*
X73742493Y-31619819D01*
X73742493Y-31619819D02*
X73647255Y-31572200D01*
X73647255Y-31572200D02*
X73599636Y-31524580D01*
X74456779Y-30619819D02*
X74790112Y-31619819D01*
X74790112Y-31619819D02*
X75123445Y-30619819D01*
X90305714Y-60489875D02*
X90305714Y-59489875D01*
X90305714Y-59489875D02*
X90543809Y-59489875D01*
X90543809Y-59489875D02*
X90686666Y-59537494D01*
X90686666Y-59537494D02*
X90781904Y-59632732D01*
X90781904Y-59632732D02*
X90829523Y-59727970D01*
X90829523Y-59727970D02*
X90877142Y-59918446D01*
X90877142Y-59918446D02*
X90877142Y-60061303D01*
X90877142Y-60061303D02*
X90829523Y-60251779D01*
X90829523Y-60251779D02*
X90781904Y-60347017D01*
X90781904Y-60347017D02*
X90686666Y-60442256D01*
X90686666Y-60442256D02*
X90543809Y-60489875D01*
X90543809Y-60489875D02*
X90305714Y-60489875D01*
X91305714Y-60489875D02*
X91305714Y-59823208D01*
X91305714Y-60013684D02*
X91353333Y-59918446D01*
X91353333Y-59918446D02*
X91400952Y-59870827D01*
X91400952Y-59870827D02*
X91496190Y-59823208D01*
X91496190Y-59823208D02*
X91591428Y-59823208D01*
X92353333Y-60489875D02*
X92353333Y-59966065D01*
X92353333Y-59966065D02*
X92305714Y-59870827D01*
X92305714Y-59870827D02*
X92210476Y-59823208D01*
X92210476Y-59823208D02*
X92020000Y-59823208D01*
X92020000Y-59823208D02*
X91924762Y-59870827D01*
X92353333Y-60442256D02*
X92258095Y-60489875D01*
X92258095Y-60489875D02*
X92020000Y-60489875D01*
X92020000Y-60489875D02*
X91924762Y-60442256D01*
X91924762Y-60442256D02*
X91877143Y-60347017D01*
X91877143Y-60347017D02*
X91877143Y-60251779D01*
X91877143Y-60251779D02*
X91924762Y-60156541D01*
X91924762Y-60156541D02*
X92020000Y-60108922D01*
X92020000Y-60108922D02*
X92258095Y-60108922D01*
X92258095Y-60108922D02*
X92353333Y-60061303D01*
X92829524Y-60489875D02*
X92829524Y-59823208D01*
X92829524Y-59489875D02*
X92781905Y-59537494D01*
X92781905Y-59537494D02*
X92829524Y-59585113D01*
X92829524Y-59585113D02*
X92877143Y-59537494D01*
X92877143Y-59537494D02*
X92829524Y-59489875D01*
X92829524Y-59489875D02*
X92829524Y-59585113D01*
X93305714Y-59823208D02*
X93305714Y-60489875D01*
X93305714Y-59918446D02*
X93353333Y-59870827D01*
X93353333Y-59870827D02*
X93448571Y-59823208D01*
X93448571Y-59823208D02*
X93591428Y-59823208D01*
X93591428Y-59823208D02*
X93686666Y-59870827D01*
X93686666Y-59870827D02*
X93734285Y-59966065D01*
X93734285Y-59966065D02*
X93734285Y-60489875D01*
X94972381Y-60489875D02*
X94972381Y-59489875D01*
X94972381Y-59489875D02*
X95210476Y-59489875D01*
X95210476Y-59489875D02*
X95353333Y-59537494D01*
X95353333Y-59537494D02*
X95448571Y-59632732D01*
X95448571Y-59632732D02*
X95496190Y-59727970D01*
X95496190Y-59727970D02*
X95543809Y-59918446D01*
X95543809Y-59918446D02*
X95543809Y-60061303D01*
X95543809Y-60061303D02*
X95496190Y-60251779D01*
X95496190Y-60251779D02*
X95448571Y-60347017D01*
X95448571Y-60347017D02*
X95353333Y-60442256D01*
X95353333Y-60442256D02*
X95210476Y-60489875D01*
X95210476Y-60489875D02*
X94972381Y-60489875D01*
X95972381Y-60489875D02*
X95972381Y-59823208D01*
X95972381Y-60013684D02*
X96020000Y-59918446D01*
X96020000Y-59918446D02*
X96067619Y-59870827D01*
X96067619Y-59870827D02*
X96162857Y-59823208D01*
X96162857Y-59823208D02*
X96258095Y-59823208D01*
X96591429Y-60489875D02*
X96591429Y-59823208D01*
X96591429Y-59489875D02*
X96543810Y-59537494D01*
X96543810Y-59537494D02*
X96591429Y-59585113D01*
X96591429Y-59585113D02*
X96639048Y-59537494D01*
X96639048Y-59537494D02*
X96591429Y-59489875D01*
X96591429Y-59489875D02*
X96591429Y-59585113D01*
X96972381Y-59823208D02*
X97210476Y-60489875D01*
X97210476Y-60489875D02*
X97448571Y-59823208D01*
X98210476Y-60442256D02*
X98115238Y-60489875D01*
X98115238Y-60489875D02*
X97924762Y-60489875D01*
X97924762Y-60489875D02*
X97829524Y-60442256D01*
X97829524Y-60442256D02*
X97781905Y-60347017D01*
X97781905Y-60347017D02*
X97781905Y-59966065D01*
X97781905Y-59966065D02*
X97829524Y-59870827D01*
X97829524Y-59870827D02*
X97924762Y-59823208D01*
X97924762Y-59823208D02*
X98115238Y-59823208D01*
X98115238Y-59823208D02*
X98210476Y-59870827D01*
X98210476Y-59870827D02*
X98258095Y-59966065D01*
X98258095Y-59966065D02*
X98258095Y-60061303D01*
X98258095Y-60061303D02*
X97781905Y-60156541D01*
X98686667Y-60489875D02*
X98686667Y-59823208D01*
X98686667Y-60013684D02*
X98734286Y-59918446D01*
X98734286Y-59918446D02*
X98781905Y-59870827D01*
X98781905Y-59870827D02*
X98877143Y-59823208D01*
X98877143Y-59823208D02*
X98972381Y-59823208D01*
X99972382Y-59823208D02*
X100210477Y-60489875D01*
X100210477Y-60489875D02*
X100448572Y-59823208D01*
X101353334Y-60489875D02*
X100781906Y-60489875D01*
X101067620Y-60489875D02*
X101067620Y-59489875D01*
X101067620Y-59489875D02*
X100972382Y-59632732D01*
X100972382Y-59632732D02*
X100877144Y-59727970D01*
X100877144Y-59727970D02*
X100781906Y-59775589D01*
X101781906Y-60394636D02*
X101829525Y-60442256D01*
X101829525Y-60442256D02*
X101781906Y-60489875D01*
X101781906Y-60489875D02*
X101734287Y-60442256D01*
X101734287Y-60442256D02*
X101781906Y-60394636D01*
X101781906Y-60394636D02*
X101781906Y-60489875D01*
X102448572Y-59489875D02*
X102543810Y-59489875D01*
X102543810Y-59489875D02*
X102639048Y-59537494D01*
X102639048Y-59537494D02*
X102686667Y-59585113D01*
X102686667Y-59585113D02*
X102734286Y-59680351D01*
X102734286Y-59680351D02*
X102781905Y-59870827D01*
X102781905Y-59870827D02*
X102781905Y-60108922D01*
X102781905Y-60108922D02*
X102734286Y-60299398D01*
X102734286Y-60299398D02*
X102686667Y-60394636D01*
X102686667Y-60394636D02*
X102639048Y-60442256D01*
X102639048Y-60442256D02*
X102543810Y-60489875D01*
X102543810Y-60489875D02*
X102448572Y-60489875D01*
X102448572Y-60489875D02*
X102353334Y-60442256D01*
X102353334Y-60442256D02*
X102305715Y-60394636D01*
X102305715Y-60394636D02*
X102258096Y-60299398D01*
X102258096Y-60299398D02*
X102210477Y-60108922D01*
X102210477Y-60108922D02*
X102210477Y-59870827D01*
X102210477Y-59870827D02*
X102258096Y-59680351D01*
X102258096Y-59680351D02*
X102305715Y-59585113D01*
X102305715Y-59585113D02*
X102353334Y-59537494D01*
X102353334Y-59537494D02*
X102448572Y-59489875D01*
X91186666Y-61099819D02*
X91758094Y-61099819D01*
X91472380Y-62099819D02*
X91472380Y-61099819D01*
X92091428Y-62099819D02*
X92091428Y-61433152D01*
X92091428Y-61099819D02*
X92043809Y-61147438D01*
X92043809Y-61147438D02*
X92091428Y-61195057D01*
X92091428Y-61195057D02*
X92139047Y-61147438D01*
X92139047Y-61147438D02*
X92091428Y-61099819D01*
X92091428Y-61099819D02*
X92091428Y-61195057D01*
X92567618Y-62099819D02*
X92567618Y-61433152D01*
X92567618Y-61528390D02*
X92615237Y-61480771D01*
X92615237Y-61480771D02*
X92710475Y-61433152D01*
X92710475Y-61433152D02*
X92853332Y-61433152D01*
X92853332Y-61433152D02*
X92948570Y-61480771D01*
X92948570Y-61480771D02*
X92996189Y-61576009D01*
X92996189Y-61576009D02*
X92996189Y-62099819D01*
X92996189Y-61576009D02*
X93043808Y-61480771D01*
X93043808Y-61480771D02*
X93139046Y-61433152D01*
X93139046Y-61433152D02*
X93281903Y-61433152D01*
X93281903Y-61433152D02*
X93377142Y-61480771D01*
X93377142Y-61480771D02*
X93424761Y-61576009D01*
X93424761Y-61576009D02*
X93424761Y-62099819D01*
X94043808Y-62099819D02*
X93948570Y-62052200D01*
X93948570Y-62052200D02*
X93900951Y-62004580D01*
X93900951Y-62004580D02*
X93853332Y-61909342D01*
X93853332Y-61909342D02*
X93853332Y-61623628D01*
X93853332Y-61623628D02*
X93900951Y-61528390D01*
X93900951Y-61528390D02*
X93948570Y-61480771D01*
X93948570Y-61480771D02*
X94043808Y-61433152D01*
X94043808Y-61433152D02*
X94186665Y-61433152D01*
X94186665Y-61433152D02*
X94281903Y-61480771D01*
X94281903Y-61480771D02*
X94329522Y-61528390D01*
X94329522Y-61528390D02*
X94377141Y-61623628D01*
X94377141Y-61623628D02*
X94377141Y-61909342D01*
X94377141Y-61909342D02*
X94329522Y-62004580D01*
X94329522Y-62004580D02*
X94281903Y-62052200D01*
X94281903Y-62052200D02*
X94186665Y-62099819D01*
X94186665Y-62099819D02*
X94043808Y-62099819D01*
X94662856Y-61433152D02*
X95043808Y-61433152D01*
X94805713Y-61099819D02*
X94805713Y-61956961D01*
X94805713Y-61956961D02*
X94853332Y-62052200D01*
X94853332Y-62052200D02*
X94948570Y-62099819D01*
X94948570Y-62099819D02*
X95043808Y-62099819D01*
X95377142Y-62099819D02*
X95377142Y-61099819D01*
X95805713Y-62099819D02*
X95805713Y-61576009D01*
X95805713Y-61576009D02*
X95758094Y-61480771D01*
X95758094Y-61480771D02*
X95662856Y-61433152D01*
X95662856Y-61433152D02*
X95519999Y-61433152D01*
X95519999Y-61433152D02*
X95424761Y-61480771D01*
X95424761Y-61480771D02*
X95377142Y-61528390D01*
X96186666Y-61433152D02*
X96424761Y-62099819D01*
X96662856Y-61433152D02*
X96424761Y-62099819D01*
X96424761Y-62099819D02*
X96329523Y-62337914D01*
X96329523Y-62337914D02*
X96281904Y-62385533D01*
X96281904Y-62385533D02*
X96186666Y-62433152D01*
X97805714Y-62099819D02*
X97805714Y-61099819D01*
X98377142Y-62099819D02*
X97948571Y-61528390D01*
X98377142Y-61099819D02*
X97805714Y-61671247D01*
X99186666Y-62052200D02*
X99091428Y-62099819D01*
X99091428Y-62099819D02*
X98900952Y-62099819D01*
X98900952Y-62099819D02*
X98805714Y-62052200D01*
X98805714Y-62052200D02*
X98758095Y-61956961D01*
X98758095Y-61956961D02*
X98758095Y-61576009D01*
X98758095Y-61576009D02*
X98805714Y-61480771D01*
X98805714Y-61480771D02*
X98900952Y-61433152D01*
X98900952Y-61433152D02*
X99091428Y-61433152D01*
X99091428Y-61433152D02*
X99186666Y-61480771D01*
X99186666Y-61480771D02*
X99234285Y-61576009D01*
X99234285Y-61576009D02*
X99234285Y-61671247D01*
X99234285Y-61671247D02*
X98758095Y-61766485D01*
X99805714Y-62099819D02*
X99710476Y-62052200D01*
X99710476Y-62052200D02*
X99662857Y-61956961D01*
X99662857Y-61956961D02*
X99662857Y-61099819D01*
X100329524Y-62099819D02*
X100234286Y-62052200D01*
X100234286Y-62052200D02*
X100186667Y-61956961D01*
X100186667Y-61956961D02*
X100186667Y-61099819D01*
X101091429Y-62052200D02*
X100996191Y-62099819D01*
X100996191Y-62099819D02*
X100805715Y-62099819D01*
X100805715Y-62099819D02*
X100710477Y-62052200D01*
X100710477Y-62052200D02*
X100662858Y-61956961D01*
X100662858Y-61956961D02*
X100662858Y-61576009D01*
X100662858Y-61576009D02*
X100710477Y-61480771D01*
X100710477Y-61480771D02*
X100805715Y-61433152D01*
X100805715Y-61433152D02*
X100996191Y-61433152D01*
X100996191Y-61433152D02*
X101091429Y-61480771D01*
X101091429Y-61480771D02*
X101139048Y-61576009D01*
X101139048Y-61576009D02*
X101139048Y-61671247D01*
X101139048Y-61671247D02*
X100662858Y-61766485D01*
X101567620Y-62099819D02*
X101567620Y-61433152D01*
X101567620Y-61623628D02*
X101615239Y-61528390D01*
X101615239Y-61528390D02*
X101662858Y-61480771D01*
X101662858Y-61480771D02*
X101758096Y-61433152D01*
X101758096Y-61433152D02*
X101853334Y-61433152D01*
X126781160Y-37684104D02*
X127257350Y-37684104D01*
X126685922Y-37969819D02*
X127019255Y-36969819D01*
X127019255Y-36969819D02*
X127352588Y-37969819D01*
X127685922Y-37969819D02*
X127685922Y-36969819D01*
X127685922Y-36969819D02*
X128019255Y-37684104D01*
X128019255Y-37684104D02*
X128352588Y-36969819D01*
X128352588Y-36969819D02*
X128352588Y-37969819D01*
X128828779Y-37969819D02*
X128828779Y-36969819D01*
X128828779Y-36969819D02*
X129209731Y-36969819D01*
X129209731Y-36969819D02*
X129304969Y-37017438D01*
X129304969Y-37017438D02*
X129352588Y-37065057D01*
X129352588Y-37065057D02*
X129400207Y-37160295D01*
X129400207Y-37160295D02*
X129400207Y-37303152D01*
X129400207Y-37303152D02*
X129352588Y-37398390D01*
X129352588Y-37398390D02*
X129304969Y-37446009D01*
X129304969Y-37446009D02*
X129209731Y-37493628D01*
X129209731Y-37493628D02*
X128828779Y-37493628D01*
X130590684Y-37969819D02*
X130590684Y-36969819D01*
X130590684Y-36969819D02*
X130828779Y-36969819D01*
X130828779Y-36969819D02*
X130971636Y-37017438D01*
X130971636Y-37017438D02*
X131066874Y-37112676D01*
X131066874Y-37112676D02*
X131114493Y-37207914D01*
X131114493Y-37207914D02*
X131162112Y-37398390D01*
X131162112Y-37398390D02*
X131162112Y-37541247D01*
X131162112Y-37541247D02*
X131114493Y-37731723D01*
X131114493Y-37731723D02*
X131066874Y-37826961D01*
X131066874Y-37826961D02*
X130971636Y-37922200D01*
X130971636Y-37922200D02*
X130828779Y-37969819D01*
X130828779Y-37969819D02*
X130590684Y-37969819D01*
X132162112Y-37969819D02*
X131828779Y-37493628D01*
X131590684Y-37969819D02*
X131590684Y-36969819D01*
X131590684Y-36969819D02*
X131971636Y-36969819D01*
X131971636Y-36969819D02*
X132066874Y-37017438D01*
X132066874Y-37017438D02*
X132114493Y-37065057D01*
X132114493Y-37065057D02*
X132162112Y-37160295D01*
X132162112Y-37160295D02*
X132162112Y-37303152D01*
X132162112Y-37303152D02*
X132114493Y-37398390D01*
X132114493Y-37398390D02*
X132066874Y-37446009D01*
X132066874Y-37446009D02*
X131971636Y-37493628D01*
X131971636Y-37493628D02*
X131590684Y-37493628D01*
X132543065Y-37684104D02*
X133019255Y-37684104D01*
X132447827Y-37969819D02*
X132781160Y-36969819D01*
X132781160Y-36969819D02*
X133114493Y-37969819D01*
X133447827Y-37969819D02*
X133447827Y-36969819D01*
X133924017Y-37969819D02*
X133924017Y-36969819D01*
X133924017Y-36969819D02*
X134495445Y-37969819D01*
X134495445Y-37969819D02*
X134495445Y-36969819D01*
X122279580Y-60967857D02*
X122327200Y-61015476D01*
X122327200Y-61015476D02*
X122374819Y-61158333D01*
X122374819Y-61158333D02*
X122374819Y-61253571D01*
X122374819Y-61253571D02*
X122327200Y-61396428D01*
X122327200Y-61396428D02*
X122231961Y-61491666D01*
X122231961Y-61491666D02*
X122136723Y-61539285D01*
X122136723Y-61539285D02*
X121946247Y-61586904D01*
X121946247Y-61586904D02*
X121803390Y-61586904D01*
X121803390Y-61586904D02*
X121612914Y-61539285D01*
X121612914Y-61539285D02*
X121517676Y-61491666D01*
X121517676Y-61491666D02*
X121422438Y-61396428D01*
X121422438Y-61396428D02*
X121374819Y-61253571D01*
X121374819Y-61253571D02*
X121374819Y-61158333D01*
X121374819Y-61158333D02*
X121422438Y-61015476D01*
X121422438Y-61015476D02*
X121470057Y-60967857D01*
X122374819Y-60015476D02*
X122374819Y-60586904D01*
X122374819Y-60301190D02*
X121374819Y-60301190D01*
X121374819Y-60301190D02*
X121517676Y-60396428D01*
X121517676Y-60396428D02*
X121612914Y-60491666D01*
X121612914Y-60491666D02*
X121660533Y-60586904D01*
X121374819Y-59682142D02*
X121374819Y-59063095D01*
X121374819Y-59063095D02*
X121755771Y-59396428D01*
X121755771Y-59396428D02*
X121755771Y-59253571D01*
X121755771Y-59253571D02*
X121803390Y-59158333D01*
X121803390Y-59158333D02*
X121851009Y-59110714D01*
X121851009Y-59110714D02*
X121946247Y-59063095D01*
X121946247Y-59063095D02*
X122184342Y-59063095D01*
X122184342Y-59063095D02*
X122279580Y-59110714D01*
X122279580Y-59110714D02*
X122327200Y-59158333D01*
X122327200Y-59158333D02*
X122374819Y-59253571D01*
X122374819Y-59253571D02*
X122374819Y-59539285D01*
X122374819Y-59539285D02*
X122327200Y-59634523D01*
X122327200Y-59634523D02*
X122279580Y-59682142D01*
D11*
X92416333Y-47098179D02*
X92368714Y-47145799D01*
X92368714Y-47145799D02*
X92225857Y-47193418D01*
X92225857Y-47193418D02*
X92130619Y-47193418D01*
X92130619Y-47193418D02*
X91987762Y-47145799D01*
X91987762Y-47145799D02*
X91892524Y-47050560D01*
X91892524Y-47050560D02*
X91844905Y-46955322D01*
X91844905Y-46955322D02*
X91797286Y-46764846D01*
X91797286Y-46764846D02*
X91797286Y-46621989D01*
X91797286Y-46621989D02*
X91844905Y-46431513D01*
X91844905Y-46431513D02*
X91892524Y-46336275D01*
X91892524Y-46336275D02*
X91987762Y-46241037D01*
X91987762Y-46241037D02*
X92130619Y-46193418D01*
X92130619Y-46193418D02*
X92225857Y-46193418D01*
X92225857Y-46193418D02*
X92368714Y-46241037D01*
X92368714Y-46241037D02*
X92416333Y-46288656D01*
X93273476Y-46193418D02*
X93083000Y-46193418D01*
X93083000Y-46193418D02*
X92987762Y-46241037D01*
X92987762Y-46241037D02*
X92940143Y-46288656D01*
X92940143Y-46288656D02*
X92844905Y-46431513D01*
X92844905Y-46431513D02*
X92797286Y-46621989D01*
X92797286Y-46621989D02*
X92797286Y-47002941D01*
X92797286Y-47002941D02*
X92844905Y-47098179D01*
X92844905Y-47098179D02*
X92892524Y-47145799D01*
X92892524Y-47145799D02*
X92987762Y-47193418D01*
X92987762Y-47193418D02*
X93178238Y-47193418D01*
X93178238Y-47193418D02*
X93273476Y-47145799D01*
X93273476Y-47145799D02*
X93321095Y-47098179D01*
X93321095Y-47098179D02*
X93368714Y-47002941D01*
X93368714Y-47002941D02*
X93368714Y-46764846D01*
X93368714Y-46764846D02*
X93321095Y-46669608D01*
X93321095Y-46669608D02*
X93273476Y-46621989D01*
X93273476Y-46621989D02*
X93178238Y-46574370D01*
X93178238Y-46574370D02*
X92987762Y-46574370D01*
X92987762Y-46574370D02*
X92892524Y-46621989D01*
X92892524Y-46621989D02*
X92844905Y-46669608D01*
X92844905Y-46669608D02*
X92797286Y-46764846D01*
X59269333Y-49130180D02*
X59221714Y-49177800D01*
X59221714Y-49177800D02*
X59078857Y-49225419D01*
X59078857Y-49225419D02*
X58983619Y-49225419D01*
X58983619Y-49225419D02*
X58840762Y-49177800D01*
X58840762Y-49177800D02*
X58745524Y-49082561D01*
X58745524Y-49082561D02*
X58697905Y-48987323D01*
X58697905Y-48987323D02*
X58650286Y-48796847D01*
X58650286Y-48796847D02*
X58650286Y-48653990D01*
X58650286Y-48653990D02*
X58697905Y-48463514D01*
X58697905Y-48463514D02*
X58745524Y-48368276D01*
X58745524Y-48368276D02*
X58840762Y-48273038D01*
X58840762Y-48273038D02*
X58983619Y-48225419D01*
X58983619Y-48225419D02*
X59078857Y-48225419D01*
X59078857Y-48225419D02*
X59221714Y-48273038D01*
X59221714Y-48273038D02*
X59269333Y-48320657D01*
X59745524Y-49225419D02*
X59936000Y-49225419D01*
X59936000Y-49225419D02*
X60031238Y-49177800D01*
X60031238Y-49177800D02*
X60078857Y-49130180D01*
X60078857Y-49130180D02*
X60174095Y-48987323D01*
X60174095Y-48987323D02*
X60221714Y-48796847D01*
X60221714Y-48796847D02*
X60221714Y-48415895D01*
X60221714Y-48415895D02*
X60174095Y-48320657D01*
X60174095Y-48320657D02*
X60126476Y-48273038D01*
X60126476Y-48273038D02*
X60031238Y-48225419D01*
X60031238Y-48225419D02*
X59840762Y-48225419D01*
X59840762Y-48225419D02*
X59745524Y-48273038D01*
X59745524Y-48273038D02*
X59697905Y-48320657D01*
X59697905Y-48320657D02*
X59650286Y-48415895D01*
X59650286Y-48415895D02*
X59650286Y-48653990D01*
X59650286Y-48653990D02*
X59697905Y-48749228D01*
X59697905Y-48749228D02*
X59745524Y-48796847D01*
X59745524Y-48796847D02*
X59840762Y-48844466D01*
X59840762Y-48844466D02*
X60031238Y-48844466D01*
X60031238Y-48844466D02*
X60126476Y-48796847D01*
X60126476Y-48796847D02*
X60174095Y-48749228D01*
X60174095Y-48749228D02*
X60221714Y-48653990D01*
X69683333Y-30617180D02*
X69635714Y-30664800D01*
X69635714Y-30664800D02*
X69492857Y-30712419D01*
X69492857Y-30712419D02*
X69397619Y-30712419D01*
X69397619Y-30712419D02*
X69254762Y-30664800D01*
X69254762Y-30664800D02*
X69159524Y-30569561D01*
X69159524Y-30569561D02*
X69111905Y-30474323D01*
X69111905Y-30474323D02*
X69064286Y-30283847D01*
X69064286Y-30283847D02*
X69064286Y-30140990D01*
X69064286Y-30140990D02*
X69111905Y-29950514D01*
X69111905Y-29950514D02*
X69159524Y-29855276D01*
X69159524Y-29855276D02*
X69254762Y-29760038D01*
X69254762Y-29760038D02*
X69397619Y-29712419D01*
X69397619Y-29712419D02*
X69492857Y-29712419D01*
X69492857Y-29712419D02*
X69635714Y-29760038D01*
X69635714Y-29760038D02*
X69683333Y-29807657D01*
X70254762Y-30140990D02*
X70159524Y-30093371D01*
X70159524Y-30093371D02*
X70111905Y-30045752D01*
X70111905Y-30045752D02*
X70064286Y-29950514D01*
X70064286Y-29950514D02*
X70064286Y-29902895D01*
X70064286Y-29902895D02*
X70111905Y-29807657D01*
X70111905Y-29807657D02*
X70159524Y-29760038D01*
X70159524Y-29760038D02*
X70254762Y-29712419D01*
X70254762Y-29712419D02*
X70445238Y-29712419D01*
X70445238Y-29712419D02*
X70540476Y-29760038D01*
X70540476Y-29760038D02*
X70588095Y-29807657D01*
X70588095Y-29807657D02*
X70635714Y-29902895D01*
X70635714Y-29902895D02*
X70635714Y-29950514D01*
X70635714Y-29950514D02*
X70588095Y-30045752D01*
X70588095Y-30045752D02*
X70540476Y-30093371D01*
X70540476Y-30093371D02*
X70445238Y-30140990D01*
X70445238Y-30140990D02*
X70254762Y-30140990D01*
X70254762Y-30140990D02*
X70159524Y-30188609D01*
X70159524Y-30188609D02*
X70111905Y-30236228D01*
X70111905Y-30236228D02*
X70064286Y-30331466D01*
X70064286Y-30331466D02*
X70064286Y-30521942D01*
X70064286Y-30521942D02*
X70111905Y-30617180D01*
X70111905Y-30617180D02*
X70159524Y-30664800D01*
X70159524Y-30664800D02*
X70254762Y-30712419D01*
X70254762Y-30712419D02*
X70445238Y-30712419D01*
X70445238Y-30712419D02*
X70540476Y-30664800D01*
X70540476Y-30664800D02*
X70588095Y-30617180D01*
X70588095Y-30617180D02*
X70635714Y-30521942D01*
X70635714Y-30521942D02*
X70635714Y-30331466D01*
X70635714Y-30331466D02*
X70588095Y-30236228D01*
X70588095Y-30236228D02*
X70540476Y-30188609D01*
X70540476Y-30188609D02*
X70445238Y-30140990D01*
X74763333Y-39417179D02*
X74715714Y-39464799D01*
X74715714Y-39464799D02*
X74572857Y-39512418D01*
X74572857Y-39512418D02*
X74477619Y-39512418D01*
X74477619Y-39512418D02*
X74334762Y-39464799D01*
X74334762Y-39464799D02*
X74239524Y-39369560D01*
X74239524Y-39369560D02*
X74191905Y-39274322D01*
X74191905Y-39274322D02*
X74144286Y-39083846D01*
X74144286Y-39083846D02*
X74144286Y-38940989D01*
X74144286Y-38940989D02*
X74191905Y-38750513D01*
X74191905Y-38750513D02*
X74239524Y-38655275D01*
X74239524Y-38655275D02*
X74334762Y-38560037D01*
X74334762Y-38560037D02*
X74477619Y-38512418D01*
X74477619Y-38512418D02*
X74572857Y-38512418D01*
X74572857Y-38512418D02*
X74715714Y-38560037D01*
X74715714Y-38560037D02*
X74763333Y-38607656D01*
X75715714Y-39512418D02*
X75144286Y-39512418D01*
X75430000Y-39512418D02*
X75430000Y-38512418D01*
X75430000Y-38512418D02*
X75334762Y-38655275D01*
X75334762Y-38655275D02*
X75239524Y-38750513D01*
X75239524Y-38750513D02*
X75144286Y-38798132D01*
X77684333Y-47098180D02*
X77636714Y-47145800D01*
X77636714Y-47145800D02*
X77493857Y-47193419D01*
X77493857Y-47193419D02*
X77398619Y-47193419D01*
X77398619Y-47193419D02*
X77255762Y-47145800D01*
X77255762Y-47145800D02*
X77160524Y-47050561D01*
X77160524Y-47050561D02*
X77112905Y-46955323D01*
X77112905Y-46955323D02*
X77065286Y-46764847D01*
X77065286Y-46764847D02*
X77065286Y-46621990D01*
X77065286Y-46621990D02*
X77112905Y-46431514D01*
X77112905Y-46431514D02*
X77160524Y-46336276D01*
X77160524Y-46336276D02*
X77255762Y-46241038D01*
X77255762Y-46241038D02*
X77398619Y-46193419D01*
X77398619Y-46193419D02*
X77493857Y-46193419D01*
X77493857Y-46193419D02*
X77636714Y-46241038D01*
X77636714Y-46241038D02*
X77684333Y-46288657D01*
X78589095Y-46193419D02*
X78112905Y-46193419D01*
X78112905Y-46193419D02*
X78065286Y-46669609D01*
X78065286Y-46669609D02*
X78112905Y-46621990D01*
X78112905Y-46621990D02*
X78208143Y-46574371D01*
X78208143Y-46574371D02*
X78446238Y-46574371D01*
X78446238Y-46574371D02*
X78541476Y-46621990D01*
X78541476Y-46621990D02*
X78589095Y-46669609D01*
X78589095Y-46669609D02*
X78636714Y-46764847D01*
X78636714Y-46764847D02*
X78636714Y-47002942D01*
X78636714Y-47002942D02*
X78589095Y-47098180D01*
X78589095Y-47098180D02*
X78541476Y-47145800D01*
X78541476Y-47145800D02*
X78446238Y-47193419D01*
X78446238Y-47193419D02*
X78208143Y-47193419D01*
X78208143Y-47193419D02*
X78112905Y-47145800D01*
X78112905Y-47145800D02*
X78065286Y-47098180D01*
X136318666Y-39565419D02*
X136318666Y-40279704D01*
X136318666Y-40279704D02*
X136271047Y-40422561D01*
X136271047Y-40422561D02*
X136175809Y-40517800D01*
X136175809Y-40517800D02*
X136032952Y-40565419D01*
X136032952Y-40565419D02*
X135937714Y-40565419D01*
X136747238Y-39660657D02*
X136794857Y-39613038D01*
X136794857Y-39613038D02*
X136890095Y-39565419D01*
X136890095Y-39565419D02*
X137128190Y-39565419D01*
X137128190Y-39565419D02*
X137223428Y-39613038D01*
X137223428Y-39613038D02*
X137271047Y-39660657D01*
X137271047Y-39660657D02*
X137318666Y-39755895D01*
X137318666Y-39755895D02*
X137318666Y-39851133D01*
X137318666Y-39851133D02*
X137271047Y-39993990D01*
X137271047Y-39993990D02*
X136699619Y-40565419D01*
X136699619Y-40565419D02*
X137318666Y-40565419D01*
X60198095Y-42637419D02*
X60198095Y-43446942D01*
X60198095Y-43446942D02*
X60245714Y-43542180D01*
X60245714Y-43542180D02*
X60293333Y-43589800D01*
X60293333Y-43589800D02*
X60388571Y-43637419D01*
X60388571Y-43637419D02*
X60579047Y-43637419D01*
X60579047Y-43637419D02*
X60674285Y-43589800D01*
X60674285Y-43589800D02*
X60721904Y-43542180D01*
X60721904Y-43542180D02*
X60769523Y-43446942D01*
X60769523Y-43446942D02*
X60769523Y-42637419D01*
X61769523Y-43637419D02*
X61198095Y-43637419D01*
X61483809Y-43637419D02*
X61483809Y-42637419D01*
X61483809Y-42637419D02*
X61388571Y-42780276D01*
X61388571Y-42780276D02*
X61293333Y-42875514D01*
X61293333Y-42875514D02*
X61198095Y-42923133D01*
X93178333Y-32336964D02*
X93130714Y-32384584D01*
X93130714Y-32384584D02*
X92987857Y-32432203D01*
X92987857Y-32432203D02*
X92892619Y-32432203D01*
X92892619Y-32432203D02*
X92749762Y-32384584D01*
X92749762Y-32384584D02*
X92654524Y-32289345D01*
X92654524Y-32289345D02*
X92606905Y-32194107D01*
X92606905Y-32194107D02*
X92559286Y-32003631D01*
X92559286Y-32003631D02*
X92559286Y-31860774D01*
X92559286Y-31860774D02*
X92606905Y-31670298D01*
X92606905Y-31670298D02*
X92654524Y-31575060D01*
X92654524Y-31575060D02*
X92749762Y-31479822D01*
X92749762Y-31479822D02*
X92892619Y-31432203D01*
X92892619Y-31432203D02*
X92987857Y-31432203D01*
X92987857Y-31432203D02*
X93130714Y-31479822D01*
X93130714Y-31479822D02*
X93178333Y-31527441D01*
X93511667Y-31432203D02*
X94130714Y-31432203D01*
X94130714Y-31432203D02*
X93797381Y-31813155D01*
X93797381Y-31813155D02*
X93940238Y-31813155D01*
X93940238Y-31813155D02*
X94035476Y-31860774D01*
X94035476Y-31860774D02*
X94083095Y-31908393D01*
X94083095Y-31908393D02*
X94130714Y-32003631D01*
X94130714Y-32003631D02*
X94130714Y-32241726D01*
X94130714Y-32241726D02*
X94083095Y-32336964D01*
X94083095Y-32336964D02*
X94035476Y-32384584D01*
X94035476Y-32384584D02*
X93940238Y-32432203D01*
X93940238Y-32432203D02*
X93654524Y-32432203D01*
X93654524Y-32432203D02*
X93559286Y-32384584D01*
X93559286Y-32384584D02*
X93511667Y-32336964D01*
X122011666Y-28007419D02*
X122011666Y-28721704D01*
X122011666Y-28721704D02*
X121964047Y-28864561D01*
X121964047Y-28864561D02*
X121868809Y-28959800D01*
X121868809Y-28959800D02*
X121725952Y-29007419D01*
X121725952Y-29007419D02*
X121630714Y-29007419D01*
X122916428Y-28340752D02*
X122916428Y-29007419D01*
X122678333Y-27959800D02*
X122440238Y-28674085D01*
X122440238Y-28674085D02*
X123059285Y-28674085D01*
X65301905Y-34112419D02*
X65301905Y-33112419D01*
X65301905Y-33112419D02*
X65540000Y-33112419D01*
X65540000Y-33112419D02*
X65682857Y-33160038D01*
X65682857Y-33160038D02*
X65778095Y-33255276D01*
X65778095Y-33255276D02*
X65825714Y-33350514D01*
X65825714Y-33350514D02*
X65873333Y-33540990D01*
X65873333Y-33540990D02*
X65873333Y-33683847D01*
X65873333Y-33683847D02*
X65825714Y-33874323D01*
X65825714Y-33874323D02*
X65778095Y-33969561D01*
X65778095Y-33969561D02*
X65682857Y-34064800D01*
X65682857Y-34064800D02*
X65540000Y-34112419D01*
X65540000Y-34112419D02*
X65301905Y-34112419D01*
X66825714Y-34112419D02*
X66254286Y-34112419D01*
X66540000Y-34112419D02*
X66540000Y-33112419D01*
X66540000Y-33112419D02*
X66444762Y-33255276D01*
X66444762Y-33255276D02*
X66349524Y-33350514D01*
X66349524Y-33350514D02*
X66254286Y-33398133D01*
X106513333Y-47098180D02*
X106465714Y-47145800D01*
X106465714Y-47145800D02*
X106322857Y-47193419D01*
X106322857Y-47193419D02*
X106227619Y-47193419D01*
X106227619Y-47193419D02*
X106084762Y-47145800D01*
X106084762Y-47145800D02*
X105989524Y-47050561D01*
X105989524Y-47050561D02*
X105941905Y-46955323D01*
X105941905Y-46955323D02*
X105894286Y-46764847D01*
X105894286Y-46764847D02*
X105894286Y-46621990D01*
X105894286Y-46621990D02*
X105941905Y-46431514D01*
X105941905Y-46431514D02*
X105989524Y-46336276D01*
X105989524Y-46336276D02*
X106084762Y-46241038D01*
X106084762Y-46241038D02*
X106227619Y-46193419D01*
X106227619Y-46193419D02*
X106322857Y-46193419D01*
X106322857Y-46193419D02*
X106465714Y-46241038D01*
X106465714Y-46241038D02*
X106513333Y-46288657D01*
X106846667Y-46193419D02*
X107513333Y-46193419D01*
X107513333Y-46193419D02*
X107084762Y-47193419D01*
X79041666Y-28057419D02*
X79041666Y-28771704D01*
X79041666Y-28771704D02*
X78994047Y-28914561D01*
X78994047Y-28914561D02*
X78898809Y-29009800D01*
X78898809Y-29009800D02*
X78755952Y-29057419D01*
X78755952Y-29057419D02*
X78660714Y-29057419D01*
X79422619Y-28057419D02*
X80041666Y-28057419D01*
X80041666Y-28057419D02*
X79708333Y-28438371D01*
X79708333Y-28438371D02*
X79851190Y-28438371D01*
X79851190Y-28438371D02*
X79946428Y-28485990D01*
X79946428Y-28485990D02*
X79994047Y-28533609D01*
X79994047Y-28533609D02*
X80041666Y-28628847D01*
X80041666Y-28628847D02*
X80041666Y-28866942D01*
X80041666Y-28866942D02*
X79994047Y-28962180D01*
X79994047Y-28962180D02*
X79946428Y-29009800D01*
X79946428Y-29009800D02*
X79851190Y-29057419D01*
X79851190Y-29057419D02*
X79565476Y-29057419D01*
X79565476Y-29057419D02*
X79470238Y-29009800D01*
X79470238Y-29009800D02*
X79422619Y-28962180D01*
X68921333Y-44907419D02*
X68588000Y-44431228D01*
X68349905Y-44907419D02*
X68349905Y-43907419D01*
X68349905Y-43907419D02*
X68730857Y-43907419D01*
X68730857Y-43907419D02*
X68826095Y-43955038D01*
X68826095Y-43955038D02*
X68873714Y-44002657D01*
X68873714Y-44002657D02*
X68921333Y-44097895D01*
X68921333Y-44097895D02*
X68921333Y-44240752D01*
X68921333Y-44240752D02*
X68873714Y-44335990D01*
X68873714Y-44335990D02*
X68826095Y-44383609D01*
X68826095Y-44383609D02*
X68730857Y-44431228D01*
X68730857Y-44431228D02*
X68349905Y-44431228D01*
X69873714Y-44907419D02*
X69302286Y-44907419D01*
X69588000Y-44907419D02*
X69588000Y-43907419D01*
X69588000Y-43907419D02*
X69492762Y-44050276D01*
X69492762Y-44050276D02*
X69397524Y-44145514D01*
X69397524Y-44145514D02*
X69302286Y-44193133D01*
X77938333Y-33382180D02*
X77890714Y-33429800D01*
X77890714Y-33429800D02*
X77747857Y-33477419D01*
X77747857Y-33477419D02*
X77652619Y-33477419D01*
X77652619Y-33477419D02*
X77509762Y-33429800D01*
X77509762Y-33429800D02*
X77414524Y-33334561D01*
X77414524Y-33334561D02*
X77366905Y-33239323D01*
X77366905Y-33239323D02*
X77319286Y-33048847D01*
X77319286Y-33048847D02*
X77319286Y-32905990D01*
X77319286Y-32905990D02*
X77366905Y-32715514D01*
X77366905Y-32715514D02*
X77414524Y-32620276D01*
X77414524Y-32620276D02*
X77509762Y-32525038D01*
X77509762Y-32525038D02*
X77652619Y-32477419D01*
X77652619Y-32477419D02*
X77747857Y-32477419D01*
X77747857Y-32477419D02*
X77890714Y-32525038D01*
X77890714Y-32525038D02*
X77938333Y-32572657D01*
X78319286Y-32572657D02*
X78366905Y-32525038D01*
X78366905Y-32525038D02*
X78462143Y-32477419D01*
X78462143Y-32477419D02*
X78700238Y-32477419D01*
X78700238Y-32477419D02*
X78795476Y-32525038D01*
X78795476Y-32525038D02*
X78843095Y-32572657D01*
X78843095Y-32572657D02*
X78890714Y-32667895D01*
X78890714Y-32667895D02*
X78890714Y-32763133D01*
X78890714Y-32763133D02*
X78843095Y-32905990D01*
X78843095Y-32905990D02*
X78271667Y-33477419D01*
X78271667Y-33477419D02*
X78890714Y-33477419D01*
D10*
X126597580Y-60967857D02*
X126645200Y-61015476D01*
X126645200Y-61015476D02*
X126692819Y-61158333D01*
X126692819Y-61158333D02*
X126692819Y-61253571D01*
X126692819Y-61253571D02*
X126645200Y-61396428D01*
X126645200Y-61396428D02*
X126549961Y-61491666D01*
X126549961Y-61491666D02*
X126454723Y-61539285D01*
X126454723Y-61539285D02*
X126264247Y-61586904D01*
X126264247Y-61586904D02*
X126121390Y-61586904D01*
X126121390Y-61586904D02*
X125930914Y-61539285D01*
X125930914Y-61539285D02*
X125835676Y-61491666D01*
X125835676Y-61491666D02*
X125740438Y-61396428D01*
X125740438Y-61396428D02*
X125692819Y-61253571D01*
X125692819Y-61253571D02*
X125692819Y-61158333D01*
X125692819Y-61158333D02*
X125740438Y-61015476D01*
X125740438Y-61015476D02*
X125788057Y-60967857D01*
X126692819Y-60015476D02*
X126692819Y-60586904D01*
X126692819Y-60301190D02*
X125692819Y-60301190D01*
X125692819Y-60301190D02*
X125835676Y-60396428D01*
X125835676Y-60396428D02*
X125930914Y-60491666D01*
X125930914Y-60491666D02*
X125978533Y-60586904D01*
X126692819Y-59063095D02*
X126692819Y-59634523D01*
X126692819Y-59348809D02*
X125692819Y-59348809D01*
X125692819Y-59348809D02*
X125835676Y-59444047D01*
X125835676Y-59444047D02*
X125930914Y-59539285D01*
X125930914Y-59539285D02*
X125978533Y-59634523D01*
X128756580Y-60967857D02*
X128804200Y-61015476D01*
X128804200Y-61015476D02*
X128851819Y-61158333D01*
X128851819Y-61158333D02*
X128851819Y-61253571D01*
X128851819Y-61253571D02*
X128804200Y-61396428D01*
X128804200Y-61396428D02*
X128708961Y-61491666D01*
X128708961Y-61491666D02*
X128613723Y-61539285D01*
X128613723Y-61539285D02*
X128423247Y-61586904D01*
X128423247Y-61586904D02*
X128280390Y-61586904D01*
X128280390Y-61586904D02*
X128089914Y-61539285D01*
X128089914Y-61539285D02*
X127994676Y-61491666D01*
X127994676Y-61491666D02*
X127899438Y-61396428D01*
X127899438Y-61396428D02*
X127851819Y-61253571D01*
X127851819Y-61253571D02*
X127851819Y-61158333D01*
X127851819Y-61158333D02*
X127899438Y-61015476D01*
X127899438Y-61015476D02*
X127947057Y-60967857D01*
X128851819Y-60015476D02*
X128851819Y-60586904D01*
X128851819Y-60301190D02*
X127851819Y-60301190D01*
X127851819Y-60301190D02*
X127994676Y-60396428D01*
X127994676Y-60396428D02*
X128089914Y-60491666D01*
X128089914Y-60491666D02*
X128137533Y-60586904D01*
X127851819Y-59396428D02*
X127851819Y-59301190D01*
X127851819Y-59301190D02*
X127899438Y-59205952D01*
X127899438Y-59205952D02*
X127947057Y-59158333D01*
X127947057Y-59158333D02*
X128042295Y-59110714D01*
X128042295Y-59110714D02*
X128232771Y-59063095D01*
X128232771Y-59063095D02*
X128470866Y-59063095D01*
X128470866Y-59063095D02*
X128661342Y-59110714D01*
X128661342Y-59110714D02*
X128756580Y-59158333D01*
X128756580Y-59158333D02*
X128804200Y-59205952D01*
X128804200Y-59205952D02*
X128851819Y-59301190D01*
X128851819Y-59301190D02*
X128851819Y-59396428D01*
X128851819Y-59396428D02*
X128804200Y-59491666D01*
X128804200Y-59491666D02*
X128756580Y-59539285D01*
X128756580Y-59539285D02*
X128661342Y-59586904D01*
X128661342Y-59586904D02*
X128470866Y-59634523D01*
X128470866Y-59634523D02*
X128232771Y-59634523D01*
X128232771Y-59634523D02*
X128042295Y-59586904D01*
X128042295Y-59586904D02*
X127947057Y-59539285D01*
X127947057Y-59539285D02*
X127899438Y-59491666D01*
X127899438Y-59491666D02*
X127851819Y-59396428D01*
D11*
X127569761Y-43732657D02*
X127474523Y-43685038D01*
X127474523Y-43685038D02*
X127379285Y-43589800D01*
X127379285Y-43589800D02*
X127236428Y-43446942D01*
X127236428Y-43446942D02*
X127141190Y-43399323D01*
X127141190Y-43399323D02*
X127045952Y-43399323D01*
X127093571Y-43637419D02*
X126998333Y-43589800D01*
X126998333Y-43589800D02*
X126903095Y-43494561D01*
X126903095Y-43494561D02*
X126855476Y-43304085D01*
X126855476Y-43304085D02*
X126855476Y-42970752D01*
X126855476Y-42970752D02*
X126903095Y-42780276D01*
X126903095Y-42780276D02*
X126998333Y-42685038D01*
X126998333Y-42685038D02*
X127093571Y-42637419D01*
X127093571Y-42637419D02*
X127284047Y-42637419D01*
X127284047Y-42637419D02*
X127379285Y-42685038D01*
X127379285Y-42685038D02*
X127474523Y-42780276D01*
X127474523Y-42780276D02*
X127522142Y-42970752D01*
X127522142Y-42970752D02*
X127522142Y-43304085D01*
X127522142Y-43304085D02*
X127474523Y-43494561D01*
X127474523Y-43494561D02*
X127379285Y-43589800D01*
X127379285Y-43589800D02*
X127284047Y-43637419D01*
X127284047Y-43637419D02*
X127093571Y-43637419D01*
X128474523Y-43637419D02*
X127903095Y-43637419D01*
X128188809Y-43637419D02*
X128188809Y-42637419D01*
X128188809Y-42637419D02*
X128093571Y-42780276D01*
X128093571Y-42780276D02*
X127998333Y-42875514D01*
X127998333Y-42875514D02*
X127903095Y-42923133D01*
X107148333Y-32336964D02*
X107100714Y-32384584D01*
X107100714Y-32384584D02*
X106957857Y-32432203D01*
X106957857Y-32432203D02*
X106862619Y-32432203D01*
X106862619Y-32432203D02*
X106719762Y-32384584D01*
X106719762Y-32384584D02*
X106624524Y-32289345D01*
X106624524Y-32289345D02*
X106576905Y-32194107D01*
X106576905Y-32194107D02*
X106529286Y-32003631D01*
X106529286Y-32003631D02*
X106529286Y-31860774D01*
X106529286Y-31860774D02*
X106576905Y-31670298D01*
X106576905Y-31670298D02*
X106624524Y-31575060D01*
X106624524Y-31575060D02*
X106719762Y-31479822D01*
X106719762Y-31479822D02*
X106862619Y-31432203D01*
X106862619Y-31432203D02*
X106957857Y-31432203D01*
X106957857Y-31432203D02*
X107100714Y-31479822D01*
X107100714Y-31479822D02*
X107148333Y-31527441D01*
X108005476Y-31765536D02*
X108005476Y-32432203D01*
X107767381Y-31384584D02*
X107529286Y-32098869D01*
X107529286Y-32098869D02*
X108148333Y-32098869D01*
D10*
X124438580Y-60967857D02*
X124486200Y-61015476D01*
X124486200Y-61015476D02*
X124533819Y-61158333D01*
X124533819Y-61158333D02*
X124533819Y-61253571D01*
X124533819Y-61253571D02*
X124486200Y-61396428D01*
X124486200Y-61396428D02*
X124390961Y-61491666D01*
X124390961Y-61491666D02*
X124295723Y-61539285D01*
X124295723Y-61539285D02*
X124105247Y-61586904D01*
X124105247Y-61586904D02*
X123962390Y-61586904D01*
X123962390Y-61586904D02*
X123771914Y-61539285D01*
X123771914Y-61539285D02*
X123676676Y-61491666D01*
X123676676Y-61491666D02*
X123581438Y-61396428D01*
X123581438Y-61396428D02*
X123533819Y-61253571D01*
X123533819Y-61253571D02*
X123533819Y-61158333D01*
X123533819Y-61158333D02*
X123581438Y-61015476D01*
X123581438Y-61015476D02*
X123629057Y-60967857D01*
X124533819Y-60015476D02*
X124533819Y-60586904D01*
X124533819Y-60301190D02*
X123533819Y-60301190D01*
X123533819Y-60301190D02*
X123676676Y-60396428D01*
X123676676Y-60396428D02*
X123771914Y-60491666D01*
X123771914Y-60491666D02*
X123819533Y-60586904D01*
X123629057Y-59634523D02*
X123581438Y-59586904D01*
X123581438Y-59586904D02*
X123533819Y-59491666D01*
X123533819Y-59491666D02*
X123533819Y-59253571D01*
X123533819Y-59253571D02*
X123581438Y-59158333D01*
X123581438Y-59158333D02*
X123629057Y-59110714D01*
X123629057Y-59110714D02*
X123724295Y-59063095D01*
X123724295Y-59063095D02*
X123819533Y-59063095D01*
X123819533Y-59063095D02*
X123962390Y-59110714D01*
X123962390Y-59110714D02*
X124533819Y-59682142D01*
X124533819Y-59682142D02*
X124533819Y-59063095D01*
D11*
X57618333Y-39573419D02*
X57285000Y-39097228D01*
X57046905Y-39573419D02*
X57046905Y-38573419D01*
X57046905Y-38573419D02*
X57427857Y-38573419D01*
X57427857Y-38573419D02*
X57523095Y-38621038D01*
X57523095Y-38621038D02*
X57570714Y-38668657D01*
X57570714Y-38668657D02*
X57618333Y-38763895D01*
X57618333Y-38763895D02*
X57618333Y-38906752D01*
X57618333Y-38906752D02*
X57570714Y-39001990D01*
X57570714Y-39001990D02*
X57523095Y-39049609D01*
X57523095Y-39049609D02*
X57427857Y-39097228D01*
X57427857Y-39097228D02*
X57046905Y-39097228D01*
X57999286Y-38668657D02*
X58046905Y-38621038D01*
X58046905Y-38621038D02*
X58142143Y-38573419D01*
X58142143Y-38573419D02*
X58380238Y-38573419D01*
X58380238Y-38573419D02*
X58475476Y-38621038D01*
X58475476Y-38621038D02*
X58523095Y-38668657D01*
X58523095Y-38668657D02*
X58570714Y-38763895D01*
X58570714Y-38763895D02*
X58570714Y-38859133D01*
X58570714Y-38859133D02*
X58523095Y-39001990D01*
X58523095Y-39001990D02*
X57951667Y-39573419D01*
X57951667Y-39573419D02*
X58570714Y-39573419D01*
D12*
%TO.C,C13*%
X121185000Y-56888748D02*
X121185000Y-57411252D01*
X122655000Y-56888748D02*
X122655000Y-57411252D01*
%TO.C,C6*%
X97620000Y-52476000D02*
X92568000Y-52476000D01*
X97620000Y-52516000D02*
X92575000Y-52516000D01*
X97620000Y-52556000D02*
X92582000Y-52556000D01*
X97620000Y-52596000D02*
X92589000Y-52596000D01*
X97620000Y-52636000D02*
X92597000Y-52636000D01*
X97620000Y-52676000D02*
X92604000Y-52676000D01*
X97620000Y-52716000D02*
X92612000Y-52716000D01*
X97620000Y-52756000D02*
X92621000Y-52756000D01*
X97620000Y-52796000D02*
X92629000Y-52796000D01*
X97620000Y-52836000D02*
X92638000Y-52836000D01*
X97620000Y-52876000D02*
X92647000Y-52876000D01*
X97620000Y-52916000D02*
X92656000Y-52916000D01*
X97620000Y-52956000D02*
X92666000Y-52956000D01*
X97620000Y-52996000D02*
X92676000Y-52996000D01*
X97620000Y-53036000D02*
X92686000Y-53036000D01*
X97620000Y-53076000D02*
X92696000Y-53076000D01*
X97620000Y-53116000D02*
X92707000Y-53116000D01*
X97620000Y-53156000D02*
X92718000Y-53156000D01*
X97620000Y-53196000D02*
X92729000Y-53196000D01*
X97620000Y-53236000D02*
X92740000Y-53236000D01*
X97620000Y-53276000D02*
X92752000Y-53276000D01*
X97620000Y-53316000D02*
X92764000Y-53316000D01*
X97620000Y-53356000D02*
X92776000Y-53356000D01*
X97620000Y-53396000D02*
X92789000Y-53396000D01*
X97620000Y-53436000D02*
X92802000Y-53436000D01*
X97620000Y-53476000D02*
X92815000Y-53476000D01*
X97620000Y-53516000D02*
X92828000Y-53516000D01*
X97620000Y-53556000D02*
X92842000Y-53556000D01*
X97620000Y-53596000D02*
X92856000Y-53596000D01*
X97620000Y-53636000D02*
X92870000Y-53636000D01*
X97620000Y-53676000D02*
X92885000Y-53676000D01*
X97620000Y-53716000D02*
X92899000Y-53716000D01*
X97620000Y-53756000D02*
X92914000Y-53756000D01*
X97620000Y-53796000D02*
X92930000Y-53796000D01*
X97620000Y-53836000D02*
X92946000Y-53836000D01*
X97620000Y-53876000D02*
X92962000Y-53876000D01*
X97620000Y-53916000D02*
X92978000Y-53916000D01*
X97620000Y-53956000D02*
X92995000Y-53956000D01*
X97620000Y-53996000D02*
X93011000Y-53996000D01*
X97620000Y-54036000D02*
X93029000Y-54036000D01*
X97620000Y-54076000D02*
X93046000Y-54076000D01*
X97620000Y-54116000D02*
X93064000Y-54116000D01*
X97620000Y-54156000D02*
X93082000Y-54156000D01*
X97620000Y-54196000D02*
X93101000Y-54196000D01*
X97620000Y-54236000D02*
X93120000Y-54236000D01*
X97620000Y-54276000D02*
X93139000Y-54276000D01*
X97620000Y-54316000D02*
X93158000Y-54316000D01*
X97620000Y-54356000D02*
X93178000Y-54356000D01*
X97620000Y-54396000D02*
X93198000Y-54396000D01*
X97620000Y-54436000D02*
X93219000Y-54436000D01*
X97620000Y-54476000D02*
X93240000Y-54476000D01*
X97620000Y-54516000D02*
X93261000Y-54516000D01*
X97620000Y-54556000D02*
X93282000Y-54556000D01*
X97620000Y-54596000D02*
X93304000Y-54596000D01*
X97620000Y-54636000D02*
X93327000Y-54636000D01*
X97620000Y-54676000D02*
X93349000Y-54676000D01*
X97620000Y-54716000D02*
X93372000Y-54716000D01*
X97620000Y-54756000D02*
X93396000Y-54756000D01*
X97620000Y-54796000D02*
X93419000Y-54796000D01*
X97620000Y-54836000D02*
X93443000Y-54836000D01*
X97620000Y-54876000D02*
X93468000Y-54876000D01*
X97620000Y-54916000D02*
X93493000Y-54916000D01*
X97620000Y-54956000D02*
X93518000Y-54956000D01*
X97620000Y-54996000D02*
X93544000Y-54996000D01*
X97620000Y-55036000D02*
X93570000Y-55036000D01*
X97620000Y-55076000D02*
X93597000Y-55076000D01*
X97620000Y-55116000D02*
X93624000Y-55116000D01*
X97620000Y-55156000D02*
X93651000Y-55156000D01*
X97620000Y-55196000D02*
X93679000Y-55196000D01*
X97620000Y-55236000D02*
X93707000Y-55236000D01*
X97620000Y-55276000D02*
X93736000Y-55276000D01*
X97620000Y-55316000D02*
X93765000Y-55316000D01*
X99535000Y-57996000D02*
X98585000Y-57996000D01*
X99910000Y-57956000D02*
X98210000Y-57956000D01*
X100167000Y-57916000D02*
X97953000Y-57916000D01*
X100375000Y-57876000D02*
X97745000Y-57876000D01*
X100554000Y-57836000D02*
X97566000Y-57836000D01*
X100713000Y-57796000D02*
X97407000Y-57796000D01*
X100858000Y-57756000D02*
X97262000Y-57756000D01*
X100991000Y-57716000D02*
X97129000Y-57716000D01*
X101115000Y-57676000D02*
X97005000Y-57676000D01*
X101231000Y-57636000D02*
X96889000Y-57636000D01*
X101341000Y-57596000D02*
X96779000Y-57596000D01*
X101445000Y-57556000D02*
X96675000Y-57556000D01*
X101544000Y-57516000D02*
X96576000Y-57516000D01*
X101639000Y-57476000D02*
X96481000Y-57476000D01*
X101730000Y-57436000D02*
X96390000Y-57436000D01*
X101818000Y-57396000D02*
X96302000Y-57396000D01*
X101902000Y-57356000D02*
X96218000Y-57356000D01*
X101983000Y-57316000D02*
X96137000Y-57316000D01*
X102062000Y-57276000D02*
X96058000Y-57276000D01*
X102138000Y-57236000D02*
X95982000Y-57236000D01*
X102212000Y-57196000D02*
X95908000Y-57196000D01*
X102283000Y-57156000D02*
X95837000Y-57156000D01*
X102353000Y-57116000D02*
X95767000Y-57116000D01*
X102421000Y-57076000D02*
X95699000Y-57076000D01*
X102487000Y-57036000D02*
X95633000Y-57036000D01*
X102551000Y-56996000D02*
X95569000Y-56996000D01*
X102614000Y-56956000D02*
X95506000Y-56956000D01*
X102675000Y-56916000D02*
X95445000Y-56916000D01*
X102735000Y-56876000D02*
X95385000Y-56876000D01*
X102775000Y-44310431D02*
X102775000Y-45610431D01*
X102793000Y-56836000D02*
X95327000Y-56836000D01*
X102850000Y-56796000D02*
X95270000Y-56796000D01*
X102906000Y-56756000D02*
X95214000Y-56756000D01*
X102960000Y-56716000D02*
X95160000Y-56716000D01*
X103014000Y-56676000D02*
X95106000Y-56676000D01*
X103066000Y-56636000D02*
X95054000Y-56636000D01*
X103117000Y-56596000D02*
X95003000Y-56596000D01*
X103168000Y-56556000D02*
X94952000Y-56556000D01*
X103217000Y-56516000D02*
X94903000Y-56516000D01*
X103265000Y-56476000D02*
X94855000Y-56476000D01*
X103313000Y-56436000D02*
X94807000Y-56436000D01*
X103359000Y-56396000D02*
X94761000Y-56396000D01*
X103405000Y-56356000D02*
X94715000Y-56356000D01*
X103425000Y-44960431D02*
X102125000Y-44960431D01*
X103450000Y-56316000D02*
X94670000Y-56316000D01*
X103494000Y-56276000D02*
X94626000Y-56276000D01*
X103537000Y-56236000D02*
X94583000Y-56236000D01*
X103579000Y-56196000D02*
X94541000Y-56196000D01*
X103621000Y-56156000D02*
X94499000Y-56156000D01*
X103662000Y-56116000D02*
X94458000Y-56116000D01*
X103703000Y-56076000D02*
X94417000Y-56076000D01*
X103742000Y-56036000D02*
X94378000Y-56036000D01*
X103781000Y-55996000D02*
X94339000Y-55996000D01*
X103820000Y-55956000D02*
X94300000Y-55956000D01*
X103857000Y-55916000D02*
X94263000Y-55916000D01*
X103894000Y-55876000D02*
X94226000Y-55876000D01*
X103931000Y-55836000D02*
X94189000Y-55836000D01*
X103967000Y-55796000D02*
X94153000Y-55796000D01*
X104002000Y-55756000D02*
X94118000Y-55756000D01*
X104037000Y-55716000D02*
X94083000Y-55716000D01*
X104071000Y-55676000D02*
X94049000Y-55676000D01*
X104104000Y-55636000D02*
X94016000Y-55636000D01*
X104138000Y-55596000D02*
X93982000Y-55596000D01*
X104170000Y-55556000D02*
X93950000Y-55556000D01*
X104202000Y-55516000D02*
X93918000Y-55516000D01*
X104234000Y-55476000D02*
X93886000Y-55476000D01*
X104265000Y-55436000D02*
X93855000Y-55436000D01*
X104295000Y-55396000D02*
X93825000Y-55396000D01*
X104325000Y-55356000D02*
X93795000Y-55356000D01*
X104355000Y-55316000D02*
X100500000Y-55316000D01*
X104384000Y-55276000D02*
X100500000Y-55276000D01*
X104413000Y-55236000D02*
X100500000Y-55236000D01*
X104441000Y-55196000D02*
X100500000Y-55196000D01*
X104469000Y-55156000D02*
X100500000Y-55156000D01*
X104496000Y-55116000D02*
X100500000Y-55116000D01*
X104523000Y-55076000D02*
X100500000Y-55076000D01*
X104550000Y-55036000D02*
X100500000Y-55036000D01*
X104576000Y-54996000D02*
X100500000Y-54996000D01*
X104602000Y-54956000D02*
X100500000Y-54956000D01*
X104627000Y-54916000D02*
X100500000Y-54916000D01*
X104652000Y-54876000D02*
X100500000Y-54876000D01*
X104677000Y-54836000D02*
X100500000Y-54836000D01*
X104701000Y-54796000D02*
X100500000Y-54796000D01*
X104724000Y-54756000D02*
X100500000Y-54756000D01*
X104748000Y-54716000D02*
X100500000Y-54716000D01*
X104771000Y-54676000D02*
X100500000Y-54676000D01*
X104793000Y-54636000D02*
X100500000Y-54636000D01*
X104816000Y-54596000D02*
X100500000Y-54596000D01*
X104838000Y-54556000D02*
X100500000Y-54556000D01*
X104859000Y-54516000D02*
X100500000Y-54516000D01*
X104880000Y-54476000D02*
X100500000Y-54476000D01*
X104901000Y-54436000D02*
X100500000Y-54436000D01*
X104922000Y-54396000D02*
X100500000Y-54396000D01*
X104942000Y-54356000D02*
X100500000Y-54356000D01*
X104962000Y-54316000D02*
X100500000Y-54316000D01*
X104981000Y-54276000D02*
X100500000Y-54276000D01*
X105000000Y-54236000D02*
X100500000Y-54236000D01*
X105019000Y-54196000D02*
X100500000Y-54196000D01*
X105038000Y-54156000D02*
X100500000Y-54156000D01*
X105056000Y-54116000D02*
X100500000Y-54116000D01*
X105074000Y-54076000D02*
X100500000Y-54076000D01*
X105091000Y-54036000D02*
X100500000Y-54036000D01*
X105109000Y-53996000D02*
X100500000Y-53996000D01*
X105125000Y-53956000D02*
X100500000Y-53956000D01*
X105142000Y-53916000D02*
X100500000Y-53916000D01*
X105158000Y-53876000D02*
X100500000Y-53876000D01*
X105174000Y-53836000D02*
X100500000Y-53836000D01*
X105190000Y-53796000D02*
X100500000Y-53796000D01*
X105206000Y-53756000D02*
X100500000Y-53756000D01*
X105221000Y-53716000D02*
X100500000Y-53716000D01*
X105235000Y-53676000D02*
X100500000Y-53676000D01*
X105250000Y-53636000D02*
X100500000Y-53636000D01*
X105264000Y-53596000D02*
X100500000Y-53596000D01*
X105278000Y-53556000D02*
X100500000Y-53556000D01*
X105292000Y-53516000D02*
X100500000Y-53516000D01*
X105305000Y-53476000D02*
X100500000Y-53476000D01*
X105318000Y-53436000D02*
X100500000Y-53436000D01*
X105331000Y-53396000D02*
X100500000Y-53396000D01*
X105344000Y-53356000D02*
X100500000Y-53356000D01*
X105356000Y-53316000D02*
X100500000Y-53316000D01*
X105368000Y-53276000D02*
X100500000Y-53276000D01*
X105380000Y-53236000D02*
X100500000Y-53236000D01*
X105391000Y-53196000D02*
X100500000Y-53196000D01*
X105402000Y-53156000D02*
X100500000Y-53156000D01*
X105413000Y-53116000D02*
X100500000Y-53116000D01*
X105424000Y-53076000D02*
X100500000Y-53076000D01*
X105434000Y-53036000D02*
X100500000Y-53036000D01*
X105444000Y-52996000D02*
X100500000Y-52996000D01*
X105454000Y-52956000D02*
X100500000Y-52956000D01*
X105464000Y-52916000D02*
X100500000Y-52916000D01*
X105473000Y-52876000D02*
X100500000Y-52876000D01*
X105482000Y-52836000D02*
X100500000Y-52836000D01*
X105491000Y-52796000D02*
X100500000Y-52796000D01*
X105499000Y-52756000D02*
X100500000Y-52756000D01*
X105508000Y-52716000D02*
X100500000Y-52716000D01*
X105516000Y-52676000D02*
X100500000Y-52676000D01*
X105523000Y-52636000D02*
X100500000Y-52636000D01*
X105531000Y-52596000D02*
X100500000Y-52596000D01*
X105538000Y-52556000D02*
X100500000Y-52556000D01*
X105545000Y-52516000D02*
X100500000Y-52516000D01*
X105552000Y-52476000D02*
X100500000Y-52476000D01*
X105558000Y-52436000D02*
X92562000Y-52436000D01*
X105565000Y-52396000D02*
X92555000Y-52396000D01*
X105571000Y-52356000D02*
X92549000Y-52356000D01*
X105576000Y-52316000D02*
X92544000Y-52316000D01*
X105582000Y-52276000D02*
X92538000Y-52276000D01*
X105587000Y-52236000D02*
X92533000Y-52236000D01*
X105592000Y-52196000D02*
X92528000Y-52196000D01*
X105597000Y-52156000D02*
X92523000Y-52156000D01*
X105601000Y-52116000D02*
X92519000Y-52116000D01*
X105605000Y-52075000D02*
X92515000Y-52075000D01*
X105609000Y-52035000D02*
X92511000Y-52035000D01*
X105613000Y-51995000D02*
X92507000Y-51995000D01*
X105617000Y-51955000D02*
X92503000Y-51955000D01*
X105620000Y-51915000D02*
X92500000Y-51915000D01*
X105623000Y-51875000D02*
X92497000Y-51875000D01*
X105626000Y-51835000D02*
X92494000Y-51835000D01*
X105628000Y-51795000D02*
X92492000Y-51795000D01*
X105631000Y-51755000D02*
X92489000Y-51755000D01*
X105633000Y-51715000D02*
X92487000Y-51715000D01*
X105635000Y-51675000D02*
X92485000Y-51675000D01*
X105636000Y-51635000D02*
X92484000Y-51635000D01*
X105637000Y-51595000D02*
X92483000Y-51595000D01*
X105639000Y-51515000D02*
X92481000Y-51515000D01*
X105639000Y-51555000D02*
X92481000Y-51555000D01*
X105640000Y-51395000D02*
X92480000Y-51395000D01*
X105640000Y-51435000D02*
X92480000Y-51435000D01*
X105640000Y-51475000D02*
X92480000Y-51475000D01*
X105680000Y-51395000D02*
G75*
G02*
X92440000Y-51395000I-6620000J0D01*
G01*
X92440000Y-51395000D02*
G75*
G02*
X105680000Y-51395000I6620000J0D01*
G01*
%TO.C,C9*%
X64600000Y-55240785D02*
X59548000Y-55240785D01*
X64600000Y-55280785D02*
X59555000Y-55280785D01*
X64600000Y-55320785D02*
X59562000Y-55320785D01*
X64600000Y-55360785D02*
X59569000Y-55360785D01*
X64600000Y-55400785D02*
X59577000Y-55400785D01*
X64600000Y-55440785D02*
X59584000Y-55440785D01*
X64600000Y-55480785D02*
X59592000Y-55480785D01*
X64600000Y-55520785D02*
X59601000Y-55520785D01*
X64600000Y-55560785D02*
X59609000Y-55560785D01*
X64600000Y-55600785D02*
X59618000Y-55600785D01*
X64600000Y-55640785D02*
X59627000Y-55640785D01*
X64600000Y-55680785D02*
X59636000Y-55680785D01*
X64600000Y-55720785D02*
X59646000Y-55720785D01*
X64600000Y-55760785D02*
X59656000Y-55760785D01*
X64600000Y-55800785D02*
X59666000Y-55800785D01*
X64600000Y-55840785D02*
X59676000Y-55840785D01*
X64600000Y-55880785D02*
X59687000Y-55880785D01*
X64600000Y-55920785D02*
X59698000Y-55920785D01*
X64600000Y-55960785D02*
X59709000Y-55960785D01*
X64600000Y-56000785D02*
X59720000Y-56000785D01*
X64600000Y-56040785D02*
X59732000Y-56040785D01*
X64600000Y-56080785D02*
X59744000Y-56080785D01*
X64600000Y-56120785D02*
X59756000Y-56120785D01*
X64600000Y-56160785D02*
X59769000Y-56160785D01*
X64600000Y-56200785D02*
X59782000Y-56200785D01*
X64600000Y-56240785D02*
X59795000Y-56240785D01*
X64600000Y-56280785D02*
X59808000Y-56280785D01*
X64600000Y-56320785D02*
X59822000Y-56320785D01*
X64600000Y-56360785D02*
X59836000Y-56360785D01*
X64600000Y-56400785D02*
X59850000Y-56400785D01*
X64600000Y-56440785D02*
X59865000Y-56440785D01*
X64600000Y-56480785D02*
X59879000Y-56480785D01*
X64600000Y-56520785D02*
X59894000Y-56520785D01*
X64600000Y-56560785D02*
X59910000Y-56560785D01*
X64600000Y-56600785D02*
X59926000Y-56600785D01*
X64600000Y-56640785D02*
X59942000Y-56640785D01*
X64600000Y-56680785D02*
X59958000Y-56680785D01*
X64600000Y-56720785D02*
X59975000Y-56720785D01*
X64600000Y-56760785D02*
X59991000Y-56760785D01*
X64600000Y-56800785D02*
X60009000Y-56800785D01*
X64600000Y-56840785D02*
X60026000Y-56840785D01*
X64600000Y-56880785D02*
X60044000Y-56880785D01*
X64600000Y-56920785D02*
X60062000Y-56920785D01*
X64600000Y-56960785D02*
X60081000Y-56960785D01*
X64600000Y-57000785D02*
X60100000Y-57000785D01*
X64600000Y-57040785D02*
X60119000Y-57040785D01*
X64600000Y-57080785D02*
X60138000Y-57080785D01*
X64600000Y-57120785D02*
X60158000Y-57120785D01*
X64600000Y-57160785D02*
X60178000Y-57160785D01*
X64600000Y-57200785D02*
X60199000Y-57200785D01*
X64600000Y-57240785D02*
X60220000Y-57240785D01*
X64600000Y-57280785D02*
X60241000Y-57280785D01*
X64600000Y-57320785D02*
X60262000Y-57320785D01*
X64600000Y-57360785D02*
X60284000Y-57360785D01*
X64600000Y-57400785D02*
X60307000Y-57400785D01*
X64600000Y-57440785D02*
X60329000Y-57440785D01*
X64600000Y-57480785D02*
X60352000Y-57480785D01*
X64600000Y-57520785D02*
X60376000Y-57520785D01*
X64600000Y-57560785D02*
X60399000Y-57560785D01*
X64600000Y-57600785D02*
X60423000Y-57600785D01*
X64600000Y-57640785D02*
X60448000Y-57640785D01*
X64600000Y-57680785D02*
X60473000Y-57680785D01*
X64600000Y-57720785D02*
X60498000Y-57720785D01*
X64600000Y-57760785D02*
X60524000Y-57760785D01*
X64600000Y-57800785D02*
X60550000Y-57800785D01*
X64600000Y-57840785D02*
X60577000Y-57840785D01*
X64600000Y-57880785D02*
X60604000Y-57880785D01*
X64600000Y-57920785D02*
X60631000Y-57920785D01*
X64600000Y-57960785D02*
X60659000Y-57960785D01*
X64600000Y-58000785D02*
X60687000Y-58000785D01*
X64600000Y-58040785D02*
X60716000Y-58040785D01*
X64600000Y-58080785D02*
X60745000Y-58080785D01*
X66515000Y-60760785D02*
X65565000Y-60760785D01*
X66890000Y-60720785D02*
X65190000Y-60720785D01*
X67147000Y-60680785D02*
X64933000Y-60680785D01*
X67355000Y-60640785D02*
X64725000Y-60640785D01*
X67534000Y-60600785D02*
X64546000Y-60600785D01*
X67693000Y-60560785D02*
X64387000Y-60560785D01*
X67838000Y-60520785D02*
X64242000Y-60520785D01*
X67971000Y-60480785D02*
X64109000Y-60480785D01*
X68095000Y-60440785D02*
X63985000Y-60440785D01*
X68211000Y-60400785D02*
X63869000Y-60400785D01*
X68321000Y-60360785D02*
X63759000Y-60360785D01*
X68425000Y-60320785D02*
X63655000Y-60320785D01*
X68524000Y-60280785D02*
X63556000Y-60280785D01*
X68619000Y-60240785D02*
X63461000Y-60240785D01*
X68710000Y-60200785D02*
X63370000Y-60200785D01*
X68798000Y-60160785D02*
X63282000Y-60160785D01*
X68882000Y-60120785D02*
X63198000Y-60120785D01*
X68963000Y-60080785D02*
X63117000Y-60080785D01*
X69042000Y-60040785D02*
X63038000Y-60040785D01*
X69118000Y-60000785D02*
X62962000Y-60000785D01*
X69192000Y-59960785D02*
X62888000Y-59960785D01*
X69263000Y-59920785D02*
X62817000Y-59920785D01*
X69333000Y-59880785D02*
X62747000Y-59880785D01*
X69401000Y-59840785D02*
X62679000Y-59840785D01*
X69467000Y-59800785D02*
X62613000Y-59800785D01*
X69531000Y-59760785D02*
X62549000Y-59760785D01*
X69594000Y-59720785D02*
X62486000Y-59720785D01*
X69655000Y-59680785D02*
X62425000Y-59680785D01*
X69715000Y-59640785D02*
X62365000Y-59640785D01*
X69755000Y-47075216D02*
X69755000Y-48375216D01*
X69773000Y-59600785D02*
X62307000Y-59600785D01*
X69830000Y-59560785D02*
X62250000Y-59560785D01*
X69886000Y-59520785D02*
X62194000Y-59520785D01*
X69940000Y-59480785D02*
X62140000Y-59480785D01*
X69994000Y-59440785D02*
X62086000Y-59440785D01*
X70046000Y-59400785D02*
X62034000Y-59400785D01*
X70097000Y-59360785D02*
X61983000Y-59360785D01*
X70148000Y-59320785D02*
X61932000Y-59320785D01*
X70197000Y-59280785D02*
X61883000Y-59280785D01*
X70245000Y-59240785D02*
X61835000Y-59240785D01*
X70293000Y-59200785D02*
X61787000Y-59200785D01*
X70339000Y-59160785D02*
X61741000Y-59160785D01*
X70385000Y-59120785D02*
X61695000Y-59120785D01*
X70405000Y-47725216D02*
X69105000Y-47725216D01*
X70430000Y-59080785D02*
X61650000Y-59080785D01*
X70474000Y-59040785D02*
X61606000Y-59040785D01*
X70517000Y-59000785D02*
X61563000Y-59000785D01*
X70559000Y-58960785D02*
X61521000Y-58960785D01*
X70601000Y-58920785D02*
X61479000Y-58920785D01*
X70642000Y-58880785D02*
X61438000Y-58880785D01*
X70683000Y-58840785D02*
X61397000Y-58840785D01*
X70722000Y-58800785D02*
X61358000Y-58800785D01*
X70761000Y-58760785D02*
X61319000Y-58760785D01*
X70800000Y-58720785D02*
X61280000Y-58720785D01*
X70837000Y-58680785D02*
X61243000Y-58680785D01*
X70874000Y-58640785D02*
X61206000Y-58640785D01*
X70911000Y-58600785D02*
X61169000Y-58600785D01*
X70947000Y-58560785D02*
X61133000Y-58560785D01*
X70982000Y-58520785D02*
X61098000Y-58520785D01*
X71017000Y-58480785D02*
X61063000Y-58480785D01*
X71051000Y-58440785D02*
X61029000Y-58440785D01*
X71084000Y-58400785D02*
X60996000Y-58400785D01*
X71118000Y-58360785D02*
X60962000Y-58360785D01*
X71150000Y-58320785D02*
X60930000Y-58320785D01*
X71182000Y-58280785D02*
X60898000Y-58280785D01*
X71214000Y-58240785D02*
X60866000Y-58240785D01*
X71245000Y-58200785D02*
X60835000Y-58200785D01*
X71275000Y-58160785D02*
X60805000Y-58160785D01*
X71305000Y-58120785D02*
X60775000Y-58120785D01*
X71335000Y-58080785D02*
X67480000Y-58080785D01*
X71364000Y-58040785D02*
X67480000Y-58040785D01*
X71393000Y-58000785D02*
X67480000Y-58000785D01*
X71421000Y-57960785D02*
X67480000Y-57960785D01*
X71449000Y-57920785D02*
X67480000Y-57920785D01*
X71476000Y-57880785D02*
X67480000Y-57880785D01*
X71503000Y-57840785D02*
X67480000Y-57840785D01*
X71530000Y-57800785D02*
X67480000Y-57800785D01*
X71556000Y-57760785D02*
X67480000Y-57760785D01*
X71582000Y-57720785D02*
X67480000Y-57720785D01*
X71607000Y-57680785D02*
X67480000Y-57680785D01*
X71632000Y-57640785D02*
X67480000Y-57640785D01*
X71657000Y-57600785D02*
X67480000Y-57600785D01*
X71681000Y-57560785D02*
X67480000Y-57560785D01*
X71704000Y-57520785D02*
X67480000Y-57520785D01*
X71728000Y-57480785D02*
X67480000Y-57480785D01*
X71751000Y-57440785D02*
X67480000Y-57440785D01*
X71773000Y-57400785D02*
X67480000Y-57400785D01*
X71796000Y-57360785D02*
X67480000Y-57360785D01*
X71818000Y-57320785D02*
X67480000Y-57320785D01*
X71839000Y-57280785D02*
X67480000Y-57280785D01*
X71860000Y-57240785D02*
X67480000Y-57240785D01*
X71881000Y-57200785D02*
X67480000Y-57200785D01*
X71902000Y-57160785D02*
X67480000Y-57160785D01*
X71922000Y-57120785D02*
X67480000Y-57120785D01*
X71942000Y-57080785D02*
X67480000Y-57080785D01*
X71961000Y-57040785D02*
X67480000Y-57040785D01*
X71980000Y-57000785D02*
X67480000Y-57000785D01*
X71999000Y-56960785D02*
X67480000Y-56960785D01*
X72018000Y-56920785D02*
X67480000Y-56920785D01*
X72036000Y-56880785D02*
X67480000Y-56880785D01*
X72054000Y-56840785D02*
X67480000Y-56840785D01*
X72071000Y-56800785D02*
X67480000Y-56800785D01*
X72089000Y-56760785D02*
X67480000Y-56760785D01*
X72105000Y-56720785D02*
X67480000Y-56720785D01*
X72122000Y-56680785D02*
X67480000Y-56680785D01*
X72138000Y-56640785D02*
X67480000Y-56640785D01*
X72154000Y-56600785D02*
X67480000Y-56600785D01*
X72170000Y-56560785D02*
X67480000Y-56560785D01*
X72186000Y-56520785D02*
X67480000Y-56520785D01*
X72201000Y-56480785D02*
X67480000Y-56480785D01*
X72215000Y-56440785D02*
X67480000Y-56440785D01*
X72230000Y-56400785D02*
X67480000Y-56400785D01*
X72244000Y-56360785D02*
X67480000Y-56360785D01*
X72258000Y-56320785D02*
X67480000Y-56320785D01*
X72272000Y-56280785D02*
X67480000Y-56280785D01*
X72285000Y-56240785D02*
X67480000Y-56240785D01*
X72298000Y-56200785D02*
X67480000Y-56200785D01*
X72311000Y-56160785D02*
X67480000Y-56160785D01*
X72324000Y-56120785D02*
X67480000Y-56120785D01*
X72336000Y-56080785D02*
X67480000Y-56080785D01*
X72348000Y-56040785D02*
X67480000Y-56040785D01*
X72360000Y-56000785D02*
X67480000Y-56000785D01*
X72371000Y-55960785D02*
X67480000Y-55960785D01*
X72382000Y-55920785D02*
X67480000Y-55920785D01*
X72393000Y-55880785D02*
X67480000Y-55880785D01*
X72404000Y-55840785D02*
X67480000Y-55840785D01*
X72414000Y-55800785D02*
X67480000Y-55800785D01*
X72424000Y-55760785D02*
X67480000Y-55760785D01*
X72434000Y-55720785D02*
X67480000Y-55720785D01*
X72444000Y-55680785D02*
X67480000Y-55680785D01*
X72453000Y-55640785D02*
X67480000Y-55640785D01*
X72462000Y-55600785D02*
X67480000Y-55600785D01*
X72471000Y-55560785D02*
X67480000Y-55560785D01*
X72479000Y-55520785D02*
X67480000Y-55520785D01*
X72488000Y-55480785D02*
X67480000Y-55480785D01*
X72496000Y-55440785D02*
X67480000Y-55440785D01*
X72503000Y-55400785D02*
X67480000Y-55400785D01*
X72511000Y-55360785D02*
X67480000Y-55360785D01*
X72518000Y-55320785D02*
X67480000Y-55320785D01*
X72525000Y-55280785D02*
X67480000Y-55280785D01*
X72532000Y-55240785D02*
X67480000Y-55240785D01*
X72538000Y-55200785D02*
X59542000Y-55200785D01*
X72545000Y-55160785D02*
X59535000Y-55160785D01*
X72551000Y-55120785D02*
X59529000Y-55120785D01*
X72556000Y-55080785D02*
X59524000Y-55080785D01*
X72562000Y-55040785D02*
X59518000Y-55040785D01*
X72567000Y-55000785D02*
X59513000Y-55000785D01*
X72572000Y-54960785D02*
X59508000Y-54960785D01*
X72577000Y-54920785D02*
X59503000Y-54920785D01*
X72581000Y-54880785D02*
X59499000Y-54880785D01*
X72585000Y-54839785D02*
X59495000Y-54839785D01*
X72589000Y-54799785D02*
X59491000Y-54799785D01*
X72593000Y-54759785D02*
X59487000Y-54759785D01*
X72597000Y-54719785D02*
X59483000Y-54719785D01*
X72600000Y-54679785D02*
X59480000Y-54679785D01*
X72603000Y-54639785D02*
X59477000Y-54639785D01*
X72606000Y-54599785D02*
X59474000Y-54599785D01*
X72608000Y-54559785D02*
X59472000Y-54559785D01*
X72611000Y-54519785D02*
X59469000Y-54519785D01*
X72613000Y-54479785D02*
X59467000Y-54479785D01*
X72615000Y-54439785D02*
X59465000Y-54439785D01*
X72616000Y-54399785D02*
X59464000Y-54399785D01*
X72617000Y-54359785D02*
X59463000Y-54359785D01*
X72619000Y-54279785D02*
X59461000Y-54279785D01*
X72619000Y-54319785D02*
X59461000Y-54319785D01*
X72620000Y-54159785D02*
X59460000Y-54159785D01*
X72620000Y-54199785D02*
X59460000Y-54199785D01*
X72620000Y-54239785D02*
X59460000Y-54239785D01*
X72660000Y-54159785D02*
G75*
G02*
X59420000Y-54159785I-6620000J0D01*
G01*
X59420000Y-54159785D02*
G75*
G02*
X72660000Y-54159785I6620000J0D01*
G01*
%TO.C,C8*%
X70426252Y-27840000D02*
X69903748Y-27840000D01*
X70426252Y-29310000D02*
X69903748Y-29310000D01*
%TO.C,C1*%
X71655000Y-38793748D02*
X71655000Y-39316252D01*
X73125000Y-38793748D02*
X73125000Y-39316252D01*
%TO.C,C5*%
X83650000Y-52476000D02*
X78598000Y-52476000D01*
X83650000Y-52516000D02*
X78605000Y-52516000D01*
X83650000Y-52556000D02*
X78612000Y-52556000D01*
X83650000Y-52596000D02*
X78619000Y-52596000D01*
X83650000Y-52636000D02*
X78627000Y-52636000D01*
X83650000Y-52676000D02*
X78634000Y-52676000D01*
X83650000Y-52716000D02*
X78642000Y-52716000D01*
X83650000Y-52756000D02*
X78651000Y-52756000D01*
X83650000Y-52796000D02*
X78659000Y-52796000D01*
X83650000Y-52836000D02*
X78668000Y-52836000D01*
X83650000Y-52876000D02*
X78677000Y-52876000D01*
X83650000Y-52916000D02*
X78686000Y-52916000D01*
X83650000Y-52956000D02*
X78696000Y-52956000D01*
X83650000Y-52996000D02*
X78706000Y-52996000D01*
X83650000Y-53036000D02*
X78716000Y-53036000D01*
X83650000Y-53076000D02*
X78726000Y-53076000D01*
X83650000Y-53116000D02*
X78737000Y-53116000D01*
X83650000Y-53156000D02*
X78748000Y-53156000D01*
X83650000Y-53196000D02*
X78759000Y-53196000D01*
X83650000Y-53236000D02*
X78770000Y-53236000D01*
X83650000Y-53276000D02*
X78782000Y-53276000D01*
X83650000Y-53316000D02*
X78794000Y-53316000D01*
X83650000Y-53356000D02*
X78806000Y-53356000D01*
X83650000Y-53396000D02*
X78819000Y-53396000D01*
X83650000Y-53436000D02*
X78832000Y-53436000D01*
X83650000Y-53476000D02*
X78845000Y-53476000D01*
X83650000Y-53516000D02*
X78858000Y-53516000D01*
X83650000Y-53556000D02*
X78872000Y-53556000D01*
X83650000Y-53596000D02*
X78886000Y-53596000D01*
X83650000Y-53636000D02*
X78900000Y-53636000D01*
X83650000Y-53676000D02*
X78915000Y-53676000D01*
X83650000Y-53716000D02*
X78929000Y-53716000D01*
X83650000Y-53756000D02*
X78944000Y-53756000D01*
X83650000Y-53796000D02*
X78960000Y-53796000D01*
X83650000Y-53836000D02*
X78976000Y-53836000D01*
X83650000Y-53876000D02*
X78992000Y-53876000D01*
X83650000Y-53916000D02*
X79008000Y-53916000D01*
X83650000Y-53956000D02*
X79025000Y-53956000D01*
X83650000Y-53996000D02*
X79041000Y-53996000D01*
X83650000Y-54036000D02*
X79059000Y-54036000D01*
X83650000Y-54076000D02*
X79076000Y-54076000D01*
X83650000Y-54116000D02*
X79094000Y-54116000D01*
X83650000Y-54156000D02*
X79112000Y-54156000D01*
X83650000Y-54196000D02*
X79131000Y-54196000D01*
X83650000Y-54236000D02*
X79150000Y-54236000D01*
X83650000Y-54276000D02*
X79169000Y-54276000D01*
X83650000Y-54316000D02*
X79188000Y-54316000D01*
X83650000Y-54356000D02*
X79208000Y-54356000D01*
X83650000Y-54396000D02*
X79228000Y-54396000D01*
X83650000Y-54436000D02*
X79249000Y-54436000D01*
X83650000Y-54476000D02*
X79270000Y-54476000D01*
X83650000Y-54516000D02*
X79291000Y-54516000D01*
X83650000Y-54556000D02*
X79312000Y-54556000D01*
X83650000Y-54596000D02*
X79334000Y-54596000D01*
X83650000Y-54636000D02*
X79357000Y-54636000D01*
X83650000Y-54676000D02*
X79379000Y-54676000D01*
X83650000Y-54716000D02*
X79402000Y-54716000D01*
X83650000Y-54756000D02*
X79426000Y-54756000D01*
X83650000Y-54796000D02*
X79449000Y-54796000D01*
X83650000Y-54836000D02*
X79473000Y-54836000D01*
X83650000Y-54876000D02*
X79498000Y-54876000D01*
X83650000Y-54916000D02*
X79523000Y-54916000D01*
X83650000Y-54956000D02*
X79548000Y-54956000D01*
X83650000Y-54996000D02*
X79574000Y-54996000D01*
X83650000Y-55036000D02*
X79600000Y-55036000D01*
X83650000Y-55076000D02*
X79627000Y-55076000D01*
X83650000Y-55116000D02*
X79654000Y-55116000D01*
X83650000Y-55156000D02*
X79681000Y-55156000D01*
X83650000Y-55196000D02*
X79709000Y-55196000D01*
X83650000Y-55236000D02*
X79737000Y-55236000D01*
X83650000Y-55276000D02*
X79766000Y-55276000D01*
X83650000Y-55316000D02*
X79795000Y-55316000D01*
X85565000Y-57996000D02*
X84615000Y-57996000D01*
X85940000Y-57956000D02*
X84240000Y-57956000D01*
X86197000Y-57916000D02*
X83983000Y-57916000D01*
X86405000Y-57876000D02*
X83775000Y-57876000D01*
X86584000Y-57836000D02*
X83596000Y-57836000D01*
X86743000Y-57796000D02*
X83437000Y-57796000D01*
X86888000Y-57756000D02*
X83292000Y-57756000D01*
X87021000Y-57716000D02*
X83159000Y-57716000D01*
X87145000Y-57676000D02*
X83035000Y-57676000D01*
X87261000Y-57636000D02*
X82919000Y-57636000D01*
X87371000Y-57596000D02*
X82809000Y-57596000D01*
X87475000Y-57556000D02*
X82705000Y-57556000D01*
X87574000Y-57516000D02*
X82606000Y-57516000D01*
X87669000Y-57476000D02*
X82511000Y-57476000D01*
X87760000Y-57436000D02*
X82420000Y-57436000D01*
X87848000Y-57396000D02*
X82332000Y-57396000D01*
X87932000Y-57356000D02*
X82248000Y-57356000D01*
X88013000Y-57316000D02*
X82167000Y-57316000D01*
X88092000Y-57276000D02*
X82088000Y-57276000D01*
X88168000Y-57236000D02*
X82012000Y-57236000D01*
X88242000Y-57196000D02*
X81938000Y-57196000D01*
X88313000Y-57156000D02*
X81867000Y-57156000D01*
X88383000Y-57116000D02*
X81797000Y-57116000D01*
X88451000Y-57076000D02*
X81729000Y-57076000D01*
X88517000Y-57036000D02*
X81663000Y-57036000D01*
X88581000Y-56996000D02*
X81599000Y-56996000D01*
X88644000Y-56956000D02*
X81536000Y-56956000D01*
X88705000Y-56916000D02*
X81475000Y-56916000D01*
X88765000Y-56876000D02*
X81415000Y-56876000D01*
X88805000Y-44310431D02*
X88805000Y-45610431D01*
X88823000Y-56836000D02*
X81357000Y-56836000D01*
X88880000Y-56796000D02*
X81300000Y-56796000D01*
X88936000Y-56756000D02*
X81244000Y-56756000D01*
X88990000Y-56716000D02*
X81190000Y-56716000D01*
X89044000Y-56676000D02*
X81136000Y-56676000D01*
X89096000Y-56636000D02*
X81084000Y-56636000D01*
X89147000Y-56596000D02*
X81033000Y-56596000D01*
X89198000Y-56556000D02*
X80982000Y-56556000D01*
X89247000Y-56516000D02*
X80933000Y-56516000D01*
X89295000Y-56476000D02*
X80885000Y-56476000D01*
X89343000Y-56436000D02*
X80837000Y-56436000D01*
X89389000Y-56396000D02*
X80791000Y-56396000D01*
X89435000Y-56356000D02*
X80745000Y-56356000D01*
X89455000Y-44960431D02*
X88155000Y-44960431D01*
X89480000Y-56316000D02*
X80700000Y-56316000D01*
X89524000Y-56276000D02*
X80656000Y-56276000D01*
X89567000Y-56236000D02*
X80613000Y-56236000D01*
X89609000Y-56196000D02*
X80571000Y-56196000D01*
X89651000Y-56156000D02*
X80529000Y-56156000D01*
X89692000Y-56116000D02*
X80488000Y-56116000D01*
X89733000Y-56076000D02*
X80447000Y-56076000D01*
X89772000Y-56036000D02*
X80408000Y-56036000D01*
X89811000Y-55996000D02*
X80369000Y-55996000D01*
X89850000Y-55956000D02*
X80330000Y-55956000D01*
X89887000Y-55916000D02*
X80293000Y-55916000D01*
X89924000Y-55876000D02*
X80256000Y-55876000D01*
X89961000Y-55836000D02*
X80219000Y-55836000D01*
X89997000Y-55796000D02*
X80183000Y-55796000D01*
X90032000Y-55756000D02*
X80148000Y-55756000D01*
X90067000Y-55716000D02*
X80113000Y-55716000D01*
X90101000Y-55676000D02*
X80079000Y-55676000D01*
X90134000Y-55636000D02*
X80046000Y-55636000D01*
X90168000Y-55596000D02*
X80012000Y-55596000D01*
X90200000Y-55556000D02*
X79980000Y-55556000D01*
X90232000Y-55516000D02*
X79948000Y-55516000D01*
X90264000Y-55476000D02*
X79916000Y-55476000D01*
X90295000Y-55436000D02*
X79885000Y-55436000D01*
X90325000Y-55396000D02*
X79855000Y-55396000D01*
X90355000Y-55356000D02*
X79825000Y-55356000D01*
X90385000Y-55316000D02*
X86530000Y-55316000D01*
X90414000Y-55276000D02*
X86530000Y-55276000D01*
X90443000Y-55236000D02*
X86530000Y-55236000D01*
X90471000Y-55196000D02*
X86530000Y-55196000D01*
X90499000Y-55156000D02*
X86530000Y-55156000D01*
X90526000Y-55116000D02*
X86530000Y-55116000D01*
X90553000Y-55076000D02*
X86530000Y-55076000D01*
X90580000Y-55036000D02*
X86530000Y-55036000D01*
X90606000Y-54996000D02*
X86530000Y-54996000D01*
X90632000Y-54956000D02*
X86530000Y-54956000D01*
X90657000Y-54916000D02*
X86530000Y-54916000D01*
X90682000Y-54876000D02*
X86530000Y-54876000D01*
X90707000Y-54836000D02*
X86530000Y-54836000D01*
X90731000Y-54796000D02*
X86530000Y-54796000D01*
X90754000Y-54756000D02*
X86530000Y-54756000D01*
X90778000Y-54716000D02*
X86530000Y-54716000D01*
X90801000Y-54676000D02*
X86530000Y-54676000D01*
X90823000Y-54636000D02*
X86530000Y-54636000D01*
X90846000Y-54596000D02*
X86530000Y-54596000D01*
X90868000Y-54556000D02*
X86530000Y-54556000D01*
X90889000Y-54516000D02*
X86530000Y-54516000D01*
X90910000Y-54476000D02*
X86530000Y-54476000D01*
X90931000Y-54436000D02*
X86530000Y-54436000D01*
X90952000Y-54396000D02*
X86530000Y-54396000D01*
X90972000Y-54356000D02*
X86530000Y-54356000D01*
X90992000Y-54316000D02*
X86530000Y-54316000D01*
X91011000Y-54276000D02*
X86530000Y-54276000D01*
X91030000Y-54236000D02*
X86530000Y-54236000D01*
X91049000Y-54196000D02*
X86530000Y-54196000D01*
X91068000Y-54156000D02*
X86530000Y-54156000D01*
X91086000Y-54116000D02*
X86530000Y-54116000D01*
X91104000Y-54076000D02*
X86530000Y-54076000D01*
X91121000Y-54036000D02*
X86530000Y-54036000D01*
X91139000Y-53996000D02*
X86530000Y-53996000D01*
X91155000Y-53956000D02*
X86530000Y-53956000D01*
X91172000Y-53916000D02*
X86530000Y-53916000D01*
X91188000Y-53876000D02*
X86530000Y-53876000D01*
X91204000Y-53836000D02*
X86530000Y-53836000D01*
X91220000Y-53796000D02*
X86530000Y-53796000D01*
X91236000Y-53756000D02*
X86530000Y-53756000D01*
X91251000Y-53716000D02*
X86530000Y-53716000D01*
X91265000Y-53676000D02*
X86530000Y-53676000D01*
X91280000Y-53636000D02*
X86530000Y-53636000D01*
X91294000Y-53596000D02*
X86530000Y-53596000D01*
X91308000Y-53556000D02*
X86530000Y-53556000D01*
X91322000Y-53516000D02*
X86530000Y-53516000D01*
X91335000Y-53476000D02*
X86530000Y-53476000D01*
X91348000Y-53436000D02*
X86530000Y-53436000D01*
X91361000Y-53396000D02*
X86530000Y-53396000D01*
X91374000Y-53356000D02*
X86530000Y-53356000D01*
X91386000Y-53316000D02*
X86530000Y-53316000D01*
X91398000Y-53276000D02*
X86530000Y-53276000D01*
X91410000Y-53236000D02*
X86530000Y-53236000D01*
X91421000Y-53196000D02*
X86530000Y-53196000D01*
X91432000Y-53156000D02*
X86530000Y-53156000D01*
X91443000Y-53116000D02*
X86530000Y-53116000D01*
X91454000Y-53076000D02*
X86530000Y-53076000D01*
X91464000Y-53036000D02*
X86530000Y-53036000D01*
X91474000Y-52996000D02*
X86530000Y-52996000D01*
X91484000Y-52956000D02*
X86530000Y-52956000D01*
X91494000Y-52916000D02*
X86530000Y-52916000D01*
X91503000Y-52876000D02*
X86530000Y-52876000D01*
X91512000Y-52836000D02*
X86530000Y-52836000D01*
X91521000Y-52796000D02*
X86530000Y-52796000D01*
X91529000Y-52756000D02*
X86530000Y-52756000D01*
X91538000Y-52716000D02*
X86530000Y-52716000D01*
X91546000Y-52676000D02*
X86530000Y-52676000D01*
X91553000Y-52636000D02*
X86530000Y-52636000D01*
X91561000Y-52596000D02*
X86530000Y-52596000D01*
X91568000Y-52556000D02*
X86530000Y-52556000D01*
X91575000Y-52516000D02*
X86530000Y-52516000D01*
X91582000Y-52476000D02*
X86530000Y-52476000D01*
X91588000Y-52436000D02*
X78592000Y-52436000D01*
X91595000Y-52396000D02*
X78585000Y-52396000D01*
X91601000Y-52356000D02*
X78579000Y-52356000D01*
X91606000Y-52316000D02*
X78574000Y-52316000D01*
X91612000Y-52276000D02*
X78568000Y-52276000D01*
X91617000Y-52236000D02*
X78563000Y-52236000D01*
X91622000Y-52196000D02*
X78558000Y-52196000D01*
X91627000Y-52156000D02*
X78553000Y-52156000D01*
X91631000Y-52116000D02*
X78549000Y-52116000D01*
X91635000Y-52075000D02*
X78545000Y-52075000D01*
X91639000Y-52035000D02*
X78541000Y-52035000D01*
X91643000Y-51995000D02*
X78537000Y-51995000D01*
X91647000Y-51955000D02*
X78533000Y-51955000D01*
X91650000Y-51915000D02*
X78530000Y-51915000D01*
X91653000Y-51875000D02*
X78527000Y-51875000D01*
X91656000Y-51835000D02*
X78524000Y-51835000D01*
X91658000Y-51795000D02*
X78522000Y-51795000D01*
X91661000Y-51755000D02*
X78519000Y-51755000D01*
X91663000Y-51715000D02*
X78517000Y-51715000D01*
X91665000Y-51675000D02*
X78515000Y-51675000D01*
X91666000Y-51635000D02*
X78514000Y-51635000D01*
X91667000Y-51595000D02*
X78513000Y-51595000D01*
X91669000Y-51515000D02*
X78511000Y-51515000D01*
X91669000Y-51555000D02*
X78511000Y-51555000D01*
X91670000Y-51395000D02*
X78510000Y-51395000D01*
X91670000Y-51435000D02*
X78510000Y-51435000D01*
X91670000Y-51475000D02*
X78510000Y-51475000D01*
X91710000Y-51395000D02*
G75*
G02*
X78470000Y-51395000I-6620000J0D01*
G01*
X78470000Y-51395000D02*
G75*
G02*
X91710000Y-51395000I6620000J0D01*
G01*
%TO.C,J2*%
X135322000Y-36068000D02*
X135322000Y-33468000D01*
X135322000Y-38668000D02*
X135322000Y-37338000D01*
X136652000Y-38668000D02*
X135322000Y-38668000D01*
X137982000Y-33468000D02*
X135322000Y-33468000D01*
X137982000Y-36068000D02*
X135322000Y-36068000D01*
X137982000Y-36068000D02*
X137982000Y-33468000D01*
%TO.C,U1*%
X66040000Y-37445000D02*
X64090000Y-37445000D01*
X66040000Y-37445000D02*
X67990000Y-37445000D01*
X66040000Y-42565000D02*
X64090000Y-42565000D01*
X66040000Y-42565000D02*
X67990000Y-42565000D01*
X63340000Y-37540000D02*
X63100000Y-37210000D01*
X63580000Y-37210000D01*
X63340000Y-37540000D01*
G36*
X63340000Y-37540000D02*
G01*
X63100000Y-37210000D01*
X63580000Y-37210000D01*
X63340000Y-37540000D01*
G37*
%TO.C,C3*%
X92480000Y-37425000D02*
X105640000Y-37425000D01*
X92480000Y-37465000D02*
X105640000Y-37465000D01*
X92480000Y-37505000D02*
X105640000Y-37505000D01*
X92481000Y-37345000D02*
X105639000Y-37345000D01*
X92481000Y-37385000D02*
X105639000Y-37385000D01*
X92483000Y-37305000D02*
X105637000Y-37305000D01*
X92484000Y-37265000D02*
X105636000Y-37265000D01*
X92485000Y-37225000D02*
X105635000Y-37225000D01*
X92487000Y-37185000D02*
X105633000Y-37185000D01*
X92489000Y-37145000D02*
X105631000Y-37145000D01*
X92492000Y-37105000D02*
X105628000Y-37105000D01*
X92494000Y-37065000D02*
X105626000Y-37065000D01*
X92497000Y-37025000D02*
X105623000Y-37025000D01*
X92500000Y-36985000D02*
X105620000Y-36985000D01*
X92503000Y-36945000D02*
X105617000Y-36945000D01*
X92507000Y-36905000D02*
X105613000Y-36905000D01*
X92511000Y-36865000D02*
X105609000Y-36865000D01*
X92515000Y-36825000D02*
X105605000Y-36825000D01*
X92519000Y-36784000D02*
X105601000Y-36784000D01*
X92523000Y-36744000D02*
X105597000Y-36744000D01*
X92528000Y-36704000D02*
X105592000Y-36704000D01*
X92533000Y-36664000D02*
X105587000Y-36664000D01*
X92538000Y-36624000D02*
X105582000Y-36624000D01*
X92544000Y-36584000D02*
X105576000Y-36584000D01*
X92549000Y-36544000D02*
X105571000Y-36544000D01*
X92555000Y-36504000D02*
X105565000Y-36504000D01*
X92562000Y-36464000D02*
X105558000Y-36464000D01*
X92568000Y-36424000D02*
X97620000Y-36424000D01*
X92575000Y-36384000D02*
X97620000Y-36384000D01*
X92582000Y-36344000D02*
X97620000Y-36344000D01*
X92589000Y-36304000D02*
X97620000Y-36304000D01*
X92597000Y-36264000D02*
X97620000Y-36264000D01*
X92604000Y-36224000D02*
X97620000Y-36224000D01*
X92612000Y-36184000D02*
X97620000Y-36184000D01*
X92621000Y-36144000D02*
X97620000Y-36144000D01*
X92629000Y-36104000D02*
X97620000Y-36104000D01*
X92638000Y-36064000D02*
X97620000Y-36064000D01*
X92647000Y-36024000D02*
X97620000Y-36024000D01*
X92656000Y-35984000D02*
X97620000Y-35984000D01*
X92666000Y-35944000D02*
X97620000Y-35944000D01*
X92676000Y-35904000D02*
X97620000Y-35904000D01*
X92686000Y-35864000D02*
X97620000Y-35864000D01*
X92696000Y-35824000D02*
X97620000Y-35824000D01*
X92707000Y-35784000D02*
X97620000Y-35784000D01*
X92718000Y-35744000D02*
X97620000Y-35744000D01*
X92729000Y-35704000D02*
X97620000Y-35704000D01*
X92740000Y-35664000D02*
X97620000Y-35664000D01*
X92752000Y-35624000D02*
X97620000Y-35624000D01*
X92764000Y-35584000D02*
X97620000Y-35584000D01*
X92776000Y-35544000D02*
X97620000Y-35544000D01*
X92789000Y-35504000D02*
X97620000Y-35504000D01*
X92802000Y-35464000D02*
X97620000Y-35464000D01*
X92815000Y-35424000D02*
X97620000Y-35424000D01*
X92828000Y-35384000D02*
X97620000Y-35384000D01*
X92842000Y-35344000D02*
X97620000Y-35344000D01*
X92856000Y-35304000D02*
X97620000Y-35304000D01*
X92870000Y-35264000D02*
X97620000Y-35264000D01*
X92885000Y-35224000D02*
X97620000Y-35224000D01*
X92899000Y-35184000D02*
X97620000Y-35184000D01*
X92914000Y-35144000D02*
X97620000Y-35144000D01*
X92930000Y-35104000D02*
X97620000Y-35104000D01*
X92946000Y-35064000D02*
X97620000Y-35064000D01*
X92962000Y-35024000D02*
X97620000Y-35024000D01*
X92978000Y-34984000D02*
X97620000Y-34984000D01*
X92995000Y-34944000D02*
X97620000Y-34944000D01*
X93011000Y-34904000D02*
X97620000Y-34904000D01*
X93029000Y-34864000D02*
X97620000Y-34864000D01*
X93046000Y-34824000D02*
X97620000Y-34824000D01*
X93064000Y-34784000D02*
X97620000Y-34784000D01*
X93082000Y-34744000D02*
X97620000Y-34744000D01*
X93101000Y-34704000D02*
X97620000Y-34704000D01*
X93120000Y-34664000D02*
X97620000Y-34664000D01*
X93139000Y-34624000D02*
X97620000Y-34624000D01*
X93158000Y-34584000D02*
X97620000Y-34584000D01*
X93178000Y-34544000D02*
X97620000Y-34544000D01*
X93198000Y-34504000D02*
X97620000Y-34504000D01*
X93219000Y-34464000D02*
X97620000Y-34464000D01*
X93240000Y-34424000D02*
X97620000Y-34424000D01*
X93261000Y-34384000D02*
X97620000Y-34384000D01*
X93282000Y-34344000D02*
X97620000Y-34344000D01*
X93304000Y-34304000D02*
X97620000Y-34304000D01*
X93327000Y-34264000D02*
X97620000Y-34264000D01*
X93349000Y-34224000D02*
X97620000Y-34224000D01*
X93372000Y-34184000D02*
X97620000Y-34184000D01*
X93396000Y-34144000D02*
X97620000Y-34144000D01*
X93419000Y-34104000D02*
X97620000Y-34104000D01*
X93443000Y-34064000D02*
X97620000Y-34064000D01*
X93468000Y-34024000D02*
X97620000Y-34024000D01*
X93493000Y-33984000D02*
X97620000Y-33984000D01*
X93518000Y-33944000D02*
X97620000Y-33944000D01*
X93544000Y-33904000D02*
X97620000Y-33904000D01*
X93570000Y-33864000D02*
X97620000Y-33864000D01*
X93597000Y-33824000D02*
X97620000Y-33824000D01*
X93624000Y-33784000D02*
X97620000Y-33784000D01*
X93651000Y-33744000D02*
X97620000Y-33744000D01*
X93679000Y-33704000D02*
X97620000Y-33704000D01*
X93707000Y-33664000D02*
X97620000Y-33664000D01*
X93736000Y-33624000D02*
X97620000Y-33624000D01*
X93765000Y-33584000D02*
X97620000Y-33584000D01*
X93795000Y-33544000D02*
X104325000Y-33544000D01*
X93825000Y-33504000D02*
X104295000Y-33504000D01*
X93855000Y-33464000D02*
X104265000Y-33464000D01*
X93886000Y-33424000D02*
X104234000Y-33424000D01*
X93918000Y-33384000D02*
X104202000Y-33384000D01*
X93950000Y-33344000D02*
X104170000Y-33344000D01*
X93982000Y-33304000D02*
X104138000Y-33304000D01*
X94016000Y-33264000D02*
X104104000Y-33264000D01*
X94049000Y-33224000D02*
X104071000Y-33224000D01*
X94083000Y-33184000D02*
X104037000Y-33184000D01*
X94118000Y-33144000D02*
X104002000Y-33144000D01*
X94153000Y-33104000D02*
X103967000Y-33104000D01*
X94189000Y-33064000D02*
X103931000Y-33064000D01*
X94226000Y-33024000D02*
X103894000Y-33024000D01*
X94263000Y-32984000D02*
X103857000Y-32984000D01*
X94300000Y-32944000D02*
X103820000Y-32944000D01*
X94339000Y-32904000D02*
X103781000Y-32904000D01*
X94378000Y-32864000D02*
X103742000Y-32864000D01*
X94417000Y-32824000D02*
X103703000Y-32824000D01*
X94458000Y-32784000D02*
X103662000Y-32784000D01*
X94499000Y-32744000D02*
X103621000Y-32744000D01*
X94541000Y-32704000D02*
X103579000Y-32704000D01*
X94583000Y-32664000D02*
X103537000Y-32664000D01*
X94626000Y-32624000D02*
X103494000Y-32624000D01*
X94670000Y-32584000D02*
X103450000Y-32584000D01*
X94695000Y-43939569D02*
X95995000Y-43939569D01*
X94715000Y-32544000D02*
X103405000Y-32544000D01*
X94761000Y-32504000D02*
X103359000Y-32504000D01*
X94807000Y-32464000D02*
X103313000Y-32464000D01*
X94855000Y-32424000D02*
X103265000Y-32424000D01*
X94903000Y-32384000D02*
X103217000Y-32384000D01*
X94952000Y-32344000D02*
X103168000Y-32344000D01*
X95003000Y-32304000D02*
X103117000Y-32304000D01*
X95054000Y-32264000D02*
X103066000Y-32264000D01*
X95106000Y-32224000D02*
X103014000Y-32224000D01*
X95160000Y-32184000D02*
X102960000Y-32184000D01*
X95214000Y-32144000D02*
X102906000Y-32144000D01*
X95270000Y-32104000D02*
X102850000Y-32104000D01*
X95327000Y-32064000D02*
X102793000Y-32064000D01*
X95345000Y-44589569D02*
X95345000Y-43289569D01*
X95385000Y-32024000D02*
X102735000Y-32024000D01*
X95445000Y-31984000D02*
X102675000Y-31984000D01*
X95506000Y-31944000D02*
X102614000Y-31944000D01*
X95569000Y-31904000D02*
X102551000Y-31904000D01*
X95633000Y-31864000D02*
X102487000Y-31864000D01*
X95699000Y-31824000D02*
X102421000Y-31824000D01*
X95767000Y-31784000D02*
X102353000Y-31784000D01*
X95837000Y-31744000D02*
X102283000Y-31744000D01*
X95908000Y-31704000D02*
X102212000Y-31704000D01*
X95982000Y-31664000D02*
X102138000Y-31664000D01*
X96058000Y-31624000D02*
X102062000Y-31624000D01*
X96137000Y-31584000D02*
X101983000Y-31584000D01*
X96218000Y-31544000D02*
X101902000Y-31544000D01*
X96302000Y-31504000D02*
X101818000Y-31504000D01*
X96390000Y-31464000D02*
X101730000Y-31464000D01*
X96481000Y-31424000D02*
X101639000Y-31424000D01*
X96576000Y-31384000D02*
X101544000Y-31384000D01*
X96675000Y-31344000D02*
X101445000Y-31344000D01*
X96779000Y-31304000D02*
X101341000Y-31304000D01*
X96889000Y-31264000D02*
X101231000Y-31264000D01*
X97005000Y-31224000D02*
X101115000Y-31224000D01*
X97129000Y-31184000D02*
X100991000Y-31184000D01*
X97262000Y-31144000D02*
X100858000Y-31144000D01*
X97407000Y-31104000D02*
X100713000Y-31104000D01*
X97566000Y-31064000D02*
X100554000Y-31064000D01*
X97745000Y-31024000D02*
X100375000Y-31024000D01*
X97953000Y-30984000D02*
X100167000Y-30984000D01*
X98210000Y-30944000D02*
X99910000Y-30944000D01*
X98585000Y-30904000D02*
X99535000Y-30904000D01*
X100500000Y-33584000D02*
X104355000Y-33584000D01*
X100500000Y-33624000D02*
X104384000Y-33624000D01*
X100500000Y-33664000D02*
X104413000Y-33664000D01*
X100500000Y-33704000D02*
X104441000Y-33704000D01*
X100500000Y-33744000D02*
X104469000Y-33744000D01*
X100500000Y-33784000D02*
X104496000Y-33784000D01*
X100500000Y-33824000D02*
X104523000Y-33824000D01*
X100500000Y-33864000D02*
X104550000Y-33864000D01*
X100500000Y-33904000D02*
X104576000Y-33904000D01*
X100500000Y-33944000D02*
X104602000Y-33944000D01*
X100500000Y-33984000D02*
X104627000Y-33984000D01*
X100500000Y-34024000D02*
X104652000Y-34024000D01*
X100500000Y-34064000D02*
X104677000Y-34064000D01*
X100500000Y-34104000D02*
X104701000Y-34104000D01*
X100500000Y-34144000D02*
X104724000Y-34144000D01*
X100500000Y-34184000D02*
X104748000Y-34184000D01*
X100500000Y-34224000D02*
X104771000Y-34224000D01*
X100500000Y-34264000D02*
X104793000Y-34264000D01*
X100500000Y-34304000D02*
X104816000Y-34304000D01*
X100500000Y-34344000D02*
X104838000Y-34344000D01*
X100500000Y-34384000D02*
X104859000Y-34384000D01*
X100500000Y-34424000D02*
X104880000Y-34424000D01*
X100500000Y-34464000D02*
X104901000Y-34464000D01*
X100500000Y-34504000D02*
X104922000Y-34504000D01*
X100500000Y-34544000D02*
X104942000Y-34544000D01*
X100500000Y-34584000D02*
X104962000Y-34584000D01*
X100500000Y-34624000D02*
X104981000Y-34624000D01*
X100500000Y-34664000D02*
X105000000Y-34664000D01*
X100500000Y-34704000D02*
X105019000Y-34704000D01*
X100500000Y-34744000D02*
X105038000Y-34744000D01*
X100500000Y-34784000D02*
X105056000Y-34784000D01*
X100500000Y-34824000D02*
X105074000Y-34824000D01*
X100500000Y-34864000D02*
X105091000Y-34864000D01*
X100500000Y-34904000D02*
X105109000Y-34904000D01*
X100500000Y-34944000D02*
X105125000Y-34944000D01*
X100500000Y-34984000D02*
X105142000Y-34984000D01*
X100500000Y-35024000D02*
X105158000Y-35024000D01*
X100500000Y-35064000D02*
X105174000Y-35064000D01*
X100500000Y-35104000D02*
X105190000Y-35104000D01*
X100500000Y-35144000D02*
X105206000Y-35144000D01*
X100500000Y-35184000D02*
X105221000Y-35184000D01*
X100500000Y-35224000D02*
X105235000Y-35224000D01*
X100500000Y-35264000D02*
X105250000Y-35264000D01*
X100500000Y-35304000D02*
X105264000Y-35304000D01*
X100500000Y-35344000D02*
X105278000Y-35344000D01*
X100500000Y-35384000D02*
X105292000Y-35384000D01*
X100500000Y-35424000D02*
X105305000Y-35424000D01*
X100500000Y-35464000D02*
X105318000Y-35464000D01*
X100500000Y-35504000D02*
X105331000Y-35504000D01*
X100500000Y-35544000D02*
X105344000Y-35544000D01*
X100500000Y-35584000D02*
X105356000Y-35584000D01*
X100500000Y-35624000D02*
X105368000Y-35624000D01*
X100500000Y-35664000D02*
X105380000Y-35664000D01*
X100500000Y-35704000D02*
X105391000Y-35704000D01*
X100500000Y-35744000D02*
X105402000Y-35744000D01*
X100500000Y-35784000D02*
X105413000Y-35784000D01*
X100500000Y-35824000D02*
X105424000Y-35824000D01*
X100500000Y-35864000D02*
X105434000Y-35864000D01*
X100500000Y-35904000D02*
X105444000Y-35904000D01*
X100500000Y-35944000D02*
X105454000Y-35944000D01*
X100500000Y-35984000D02*
X105464000Y-35984000D01*
X100500000Y-36024000D02*
X105473000Y-36024000D01*
X100500000Y-36064000D02*
X105482000Y-36064000D01*
X100500000Y-36104000D02*
X105491000Y-36104000D01*
X100500000Y-36144000D02*
X105499000Y-36144000D01*
X100500000Y-36184000D02*
X105508000Y-36184000D01*
X100500000Y-36224000D02*
X105516000Y-36224000D01*
X100500000Y-36264000D02*
X105523000Y-36264000D01*
X100500000Y-36304000D02*
X105531000Y-36304000D01*
X100500000Y-36344000D02*
X105538000Y-36344000D01*
X100500000Y-36384000D02*
X105545000Y-36384000D01*
X100500000Y-36424000D02*
X105552000Y-36424000D01*
X105680000Y-37505000D02*
G75*
G02*
X92440000Y-37505000I-6620000J0D01*
G01*
X92440000Y-37505000D02*
G75*
G02*
X105680000Y-37505000I6620000J0D01*
G01*
%TO.C,J4*%
X123785000Y-27220000D02*
X125115000Y-27220000D01*
X123785000Y-28550000D02*
X123785000Y-27220000D01*
X126385000Y-27220000D02*
X128985000Y-27220000D01*
X126385000Y-29880000D02*
X126385000Y-27220000D01*
X126385000Y-29880000D02*
X128985000Y-29880000D01*
X128985000Y-29880000D02*
X128985000Y-27220000D01*
%TO.C,D1*%
X68400000Y-34560000D02*
X64390000Y-34560000D01*
X68400000Y-36560000D02*
X64390000Y-36560000D01*
X68400000Y-36560000D02*
X68400000Y-34560000D01*
%TO.C,C7*%
X111590000Y-52476001D02*
X106538000Y-52476001D01*
X111590000Y-52516001D02*
X106545000Y-52516001D01*
X111590000Y-52556001D02*
X106552000Y-52556001D01*
X111590000Y-52596001D02*
X106559000Y-52596001D01*
X111590000Y-52636001D02*
X106567000Y-52636001D01*
X111590000Y-52676001D02*
X106574000Y-52676001D01*
X111590000Y-52716001D02*
X106582000Y-52716001D01*
X111590000Y-52756001D02*
X106591000Y-52756001D01*
X111590000Y-52796001D02*
X106599000Y-52796001D01*
X111590000Y-52836001D02*
X106608000Y-52836001D01*
X111590000Y-52876001D02*
X106617000Y-52876001D01*
X111590000Y-52916001D02*
X106626000Y-52916001D01*
X111590000Y-52956001D02*
X106636000Y-52956001D01*
X111590000Y-52996001D02*
X106646000Y-52996001D01*
X111590000Y-53036001D02*
X106656000Y-53036001D01*
X111590000Y-53076001D02*
X106666000Y-53076001D01*
X111590000Y-53116001D02*
X106677000Y-53116001D01*
X111590000Y-53156001D02*
X106688000Y-53156001D01*
X111590000Y-53196001D02*
X106699000Y-53196001D01*
X111590000Y-53236001D02*
X106710000Y-53236001D01*
X111590000Y-53276001D02*
X106722000Y-53276001D01*
X111590000Y-53316001D02*
X106734000Y-53316001D01*
X111590000Y-53356001D02*
X106746000Y-53356001D01*
X111590000Y-53396001D02*
X106759000Y-53396001D01*
X111590000Y-53436001D02*
X106772000Y-53436001D01*
X111590000Y-53476001D02*
X106785000Y-53476001D01*
X111590000Y-53516001D02*
X106798000Y-53516001D01*
X111590000Y-53556001D02*
X106812000Y-53556001D01*
X111590000Y-53596001D02*
X106826000Y-53596001D01*
X111590000Y-53636001D02*
X106840000Y-53636001D01*
X111590000Y-53676001D02*
X106855000Y-53676001D01*
X111590000Y-53716001D02*
X106869000Y-53716001D01*
X111590000Y-53756001D02*
X106884000Y-53756001D01*
X111590000Y-53796001D02*
X106900000Y-53796001D01*
X111590000Y-53836001D02*
X106916000Y-53836001D01*
X111590000Y-53876001D02*
X106932000Y-53876001D01*
X111590000Y-53916001D02*
X106948000Y-53916001D01*
X111590000Y-53956001D02*
X106965000Y-53956001D01*
X111590000Y-53996001D02*
X106981000Y-53996001D01*
X111590000Y-54036001D02*
X106999000Y-54036001D01*
X111590000Y-54076001D02*
X107016000Y-54076001D01*
X111590000Y-54116001D02*
X107034000Y-54116001D01*
X111590000Y-54156001D02*
X107052000Y-54156001D01*
X111590000Y-54196001D02*
X107071000Y-54196001D01*
X111590000Y-54236001D02*
X107090000Y-54236001D01*
X111590000Y-54276001D02*
X107109000Y-54276001D01*
X111590000Y-54316001D02*
X107128000Y-54316001D01*
X111590000Y-54356001D02*
X107148000Y-54356001D01*
X111590000Y-54396001D02*
X107168000Y-54396001D01*
X111590000Y-54436001D02*
X107189000Y-54436001D01*
X111590000Y-54476001D02*
X107210000Y-54476001D01*
X111590000Y-54516001D02*
X107231000Y-54516001D01*
X111590000Y-54556001D02*
X107252000Y-54556001D01*
X111590000Y-54596001D02*
X107274000Y-54596001D01*
X111590000Y-54636001D02*
X107297000Y-54636001D01*
X111590000Y-54676001D02*
X107319000Y-54676001D01*
X111590000Y-54716001D02*
X107342000Y-54716001D01*
X111590000Y-54756001D02*
X107366000Y-54756001D01*
X111590000Y-54796001D02*
X107389000Y-54796001D01*
X111590000Y-54836001D02*
X107413000Y-54836001D01*
X111590000Y-54876001D02*
X107438000Y-54876001D01*
X111590000Y-54916001D02*
X107463000Y-54916001D01*
X111590000Y-54956001D02*
X107488000Y-54956001D01*
X111590000Y-54996001D02*
X107514000Y-54996001D01*
X111590000Y-55036001D02*
X107540000Y-55036001D01*
X111590000Y-55076001D02*
X107567000Y-55076001D01*
X111590000Y-55116001D02*
X107594000Y-55116001D01*
X111590000Y-55156001D02*
X107621000Y-55156001D01*
X111590000Y-55196001D02*
X107649000Y-55196001D01*
X111590000Y-55236001D02*
X107677000Y-55236001D01*
X111590000Y-55276001D02*
X107706000Y-55276001D01*
X111590000Y-55316001D02*
X107735000Y-55316001D01*
X113505000Y-57996001D02*
X112555000Y-57996001D01*
X113880000Y-57956001D02*
X112180000Y-57956001D01*
X114137000Y-57916001D02*
X111923000Y-57916001D01*
X114345000Y-57876001D02*
X111715000Y-57876001D01*
X114524000Y-57836001D02*
X111536000Y-57836001D01*
X114683000Y-57796001D02*
X111377000Y-57796001D01*
X114828000Y-57756001D02*
X111232000Y-57756001D01*
X114961000Y-57716001D02*
X111099000Y-57716001D01*
X115085000Y-57676001D02*
X110975000Y-57676001D01*
X115201000Y-57636001D02*
X110859000Y-57636001D01*
X115311000Y-57596001D02*
X110749000Y-57596001D01*
X115415000Y-57556001D02*
X110645000Y-57556001D01*
X115514000Y-57516001D02*
X110546000Y-57516001D01*
X115609000Y-57476001D02*
X110451000Y-57476001D01*
X115700000Y-57436001D02*
X110360000Y-57436001D01*
X115788000Y-57396001D02*
X110272000Y-57396001D01*
X115872000Y-57356001D02*
X110188000Y-57356001D01*
X115953000Y-57316001D02*
X110107000Y-57316001D01*
X116032000Y-57276001D02*
X110028000Y-57276001D01*
X116108000Y-57236001D02*
X109952000Y-57236001D01*
X116182000Y-57196001D02*
X109878000Y-57196001D01*
X116253000Y-57156001D02*
X109807000Y-57156001D01*
X116323000Y-57116001D02*
X109737000Y-57116001D01*
X116391000Y-57076001D02*
X109669000Y-57076001D01*
X116457000Y-57036001D02*
X109603000Y-57036001D01*
X116521000Y-56996001D02*
X109539000Y-56996001D01*
X116584000Y-56956001D02*
X109476000Y-56956001D01*
X116645000Y-56916001D02*
X109415000Y-56916001D01*
X116705000Y-56876001D02*
X109355000Y-56876001D01*
X116745000Y-44310432D02*
X116745000Y-45610432D01*
X116763000Y-56836001D02*
X109297000Y-56836001D01*
X116820000Y-56796001D02*
X109240000Y-56796001D01*
X116876000Y-56756001D02*
X109184000Y-56756001D01*
X116930000Y-56716001D02*
X109130000Y-56716001D01*
X116984000Y-56676001D02*
X109076000Y-56676001D01*
X117036000Y-56636001D02*
X109024000Y-56636001D01*
X117087000Y-56596001D02*
X108973000Y-56596001D01*
X117138000Y-56556001D02*
X108922000Y-56556001D01*
X117187000Y-56516001D02*
X108873000Y-56516001D01*
X117235000Y-56476001D02*
X108825000Y-56476001D01*
X117283000Y-56436001D02*
X108777000Y-56436001D01*
X117329000Y-56396001D02*
X108731000Y-56396001D01*
X117375000Y-56356001D02*
X108685000Y-56356001D01*
X117395000Y-44960432D02*
X116095000Y-44960432D01*
X117420000Y-56316001D02*
X108640000Y-56316001D01*
X117464000Y-56276001D02*
X108596000Y-56276001D01*
X117507000Y-56236001D02*
X108553000Y-56236001D01*
X117549000Y-56196001D02*
X108511000Y-56196001D01*
X117591000Y-56156001D02*
X108469000Y-56156001D01*
X117632000Y-56116001D02*
X108428000Y-56116001D01*
X117673000Y-56076001D02*
X108387000Y-56076001D01*
X117712000Y-56036001D02*
X108348000Y-56036001D01*
X117751000Y-55996001D02*
X108309000Y-55996001D01*
X117790000Y-55956001D02*
X108270000Y-55956001D01*
X117827000Y-55916001D02*
X108233000Y-55916001D01*
X117864000Y-55876001D02*
X108196000Y-55876001D01*
X117901000Y-55836001D02*
X108159000Y-55836001D01*
X117937000Y-55796001D02*
X108123000Y-55796001D01*
X117972000Y-55756001D02*
X108088000Y-55756001D01*
X118007000Y-55716001D02*
X108053000Y-55716001D01*
X118041000Y-55676001D02*
X108019000Y-55676001D01*
X118074000Y-55636001D02*
X107986000Y-55636001D01*
X118108000Y-55596001D02*
X107952000Y-55596001D01*
X118140000Y-55556001D02*
X107920000Y-55556001D01*
X118172000Y-55516001D02*
X107888000Y-55516001D01*
X118204000Y-55476001D02*
X107856000Y-55476001D01*
X118235000Y-55436001D02*
X107825000Y-55436001D01*
X118265000Y-55396001D02*
X107795000Y-55396001D01*
X118295000Y-55356001D02*
X107765000Y-55356001D01*
X118325000Y-55316001D02*
X114470000Y-55316001D01*
X118354000Y-55276001D02*
X114470000Y-55276001D01*
X118383000Y-55236001D02*
X114470000Y-55236001D01*
X118411000Y-55196001D02*
X114470000Y-55196001D01*
X118439000Y-55156001D02*
X114470000Y-55156001D01*
X118466000Y-55116001D02*
X114470000Y-55116001D01*
X118493000Y-55076001D02*
X114470000Y-55076001D01*
X118520000Y-55036001D02*
X114470000Y-55036001D01*
X118546000Y-54996001D02*
X114470000Y-54996001D01*
X118572000Y-54956001D02*
X114470000Y-54956001D01*
X118597000Y-54916001D02*
X114470000Y-54916001D01*
X118622000Y-54876001D02*
X114470000Y-54876001D01*
X118647000Y-54836001D02*
X114470000Y-54836001D01*
X118671000Y-54796001D02*
X114470000Y-54796001D01*
X118694000Y-54756001D02*
X114470000Y-54756001D01*
X118718000Y-54716001D02*
X114470000Y-54716001D01*
X118741000Y-54676001D02*
X114470000Y-54676001D01*
X118763000Y-54636001D02*
X114470000Y-54636001D01*
X118786000Y-54596001D02*
X114470000Y-54596001D01*
X118808000Y-54556001D02*
X114470000Y-54556001D01*
X118829000Y-54516001D02*
X114470000Y-54516001D01*
X118850000Y-54476001D02*
X114470000Y-54476001D01*
X118871000Y-54436001D02*
X114470000Y-54436001D01*
X118892000Y-54396001D02*
X114470000Y-54396001D01*
X118912000Y-54356001D02*
X114470000Y-54356001D01*
X118932000Y-54316001D02*
X114470000Y-54316001D01*
X118951000Y-54276001D02*
X114470000Y-54276001D01*
X118970000Y-54236001D02*
X114470000Y-54236001D01*
X118989000Y-54196001D02*
X114470000Y-54196001D01*
X119008000Y-54156001D02*
X114470000Y-54156001D01*
X119026000Y-54116001D02*
X114470000Y-54116001D01*
X119044000Y-54076001D02*
X114470000Y-54076001D01*
X119061000Y-54036001D02*
X114470000Y-54036001D01*
X119079000Y-53996001D02*
X114470000Y-53996001D01*
X119095000Y-53956001D02*
X114470000Y-53956001D01*
X119112000Y-53916001D02*
X114470000Y-53916001D01*
X119128000Y-53876001D02*
X114470000Y-53876001D01*
X119144000Y-53836001D02*
X114470000Y-53836001D01*
X119160000Y-53796001D02*
X114470000Y-53796001D01*
X119176000Y-53756001D02*
X114470000Y-53756001D01*
X119191000Y-53716001D02*
X114470000Y-53716001D01*
X119205000Y-53676001D02*
X114470000Y-53676001D01*
X119220000Y-53636001D02*
X114470000Y-53636001D01*
X119234000Y-53596001D02*
X114470000Y-53596001D01*
X119248000Y-53556001D02*
X114470000Y-53556001D01*
X119262000Y-53516001D02*
X114470000Y-53516001D01*
X119275000Y-53476001D02*
X114470000Y-53476001D01*
X119288000Y-53436001D02*
X114470000Y-53436001D01*
X119301000Y-53396001D02*
X114470000Y-53396001D01*
X119314000Y-53356001D02*
X114470000Y-53356001D01*
X119326000Y-53316001D02*
X114470000Y-53316001D01*
X119338000Y-53276001D02*
X114470000Y-53276001D01*
X119350000Y-53236001D02*
X114470000Y-53236001D01*
X119361000Y-53196001D02*
X114470000Y-53196001D01*
X119372000Y-53156001D02*
X114470000Y-53156001D01*
X119383000Y-53116001D02*
X114470000Y-53116001D01*
X119394000Y-53076001D02*
X114470000Y-53076001D01*
X119404000Y-53036001D02*
X114470000Y-53036001D01*
X119414000Y-52996001D02*
X114470000Y-52996001D01*
X119424000Y-52956001D02*
X114470000Y-52956001D01*
X119434000Y-52916001D02*
X114470000Y-52916001D01*
X119443000Y-52876001D02*
X114470000Y-52876001D01*
X119452000Y-52836001D02*
X114470000Y-52836001D01*
X119461000Y-52796001D02*
X114470000Y-52796001D01*
X119469000Y-52756001D02*
X114470000Y-52756001D01*
X119478000Y-52716001D02*
X114470000Y-52716001D01*
X119486000Y-52676001D02*
X114470000Y-52676001D01*
X119493000Y-52636001D02*
X114470000Y-52636001D01*
X119501000Y-52596001D02*
X114470000Y-52596001D01*
X119508000Y-52556001D02*
X114470000Y-52556001D01*
X119515000Y-52516001D02*
X114470000Y-52516001D01*
X119522000Y-52476001D02*
X114470000Y-52476001D01*
X119528000Y-52436001D02*
X106532000Y-52436001D01*
X119535000Y-52396001D02*
X106525000Y-52396001D01*
X119541000Y-52356001D02*
X106519000Y-52356001D01*
X119546000Y-52316001D02*
X106514000Y-52316001D01*
X119552000Y-52276001D02*
X106508000Y-52276001D01*
X119557000Y-52236001D02*
X106503000Y-52236001D01*
X119562000Y-52196001D02*
X106498000Y-52196001D01*
X119567000Y-52156001D02*
X106493000Y-52156001D01*
X119571000Y-52116001D02*
X106489000Y-52116001D01*
X119575000Y-52075001D02*
X106485000Y-52075001D01*
X119579000Y-52035001D02*
X106481000Y-52035001D01*
X119583000Y-51995001D02*
X106477000Y-51995001D01*
X119587000Y-51955001D02*
X106473000Y-51955001D01*
X119590000Y-51915001D02*
X106470000Y-51915001D01*
X119593000Y-51875001D02*
X106467000Y-51875001D01*
X119596000Y-51835001D02*
X106464000Y-51835001D01*
X119598000Y-51795001D02*
X106462000Y-51795001D01*
X119601000Y-51755001D02*
X106459000Y-51755001D01*
X119603000Y-51715001D02*
X106457000Y-51715001D01*
X119605000Y-51675001D02*
X106455000Y-51675001D01*
X119606000Y-51635001D02*
X106454000Y-51635001D01*
X119607000Y-51595001D02*
X106453000Y-51595001D01*
X119609000Y-51515001D02*
X106451000Y-51515001D01*
X119609000Y-51555001D02*
X106451000Y-51555001D01*
X119610000Y-51395001D02*
X106450000Y-51395001D01*
X119610000Y-51435001D02*
X106450000Y-51435001D01*
X119610000Y-51475001D02*
X106450000Y-51475001D01*
X119650000Y-51395001D02*
G75*
G02*
X106410000Y-51395001I-6620000J0D01*
G01*
X106410000Y-51395001D02*
G75*
G02*
X119650000Y-51395001I6620000J0D01*
G01*
%TO.C,J3*%
X72604000Y-27245000D02*
X73934000Y-27245000D01*
X72604000Y-28575000D02*
X72604000Y-27245000D01*
X75204000Y-27245000D02*
X77804000Y-27245000D01*
X75204000Y-29905000D02*
X75204000Y-27245000D01*
X75204000Y-29905000D02*
X77804000Y-29905000D01*
X77804000Y-29905000D02*
X77804000Y-27245000D01*
%TO.C,R1*%
X65812936Y-43715000D02*
X66267064Y-43715000D01*
X65812936Y-45185000D02*
X66267064Y-45185000D01*
%TO.C,C2*%
X78510000Y-37425000D02*
X91670000Y-37425000D01*
X78510000Y-37465000D02*
X91670000Y-37465000D01*
X78510000Y-37505000D02*
X91670000Y-37505000D01*
X78511000Y-37345000D02*
X91669000Y-37345000D01*
X78511000Y-37385000D02*
X91669000Y-37385000D01*
X78513000Y-37305000D02*
X91667000Y-37305000D01*
X78514000Y-37265000D02*
X91666000Y-37265000D01*
X78515000Y-37225000D02*
X91665000Y-37225000D01*
X78517000Y-37185000D02*
X91663000Y-37185000D01*
X78519000Y-37145000D02*
X91661000Y-37145000D01*
X78522000Y-37105000D02*
X91658000Y-37105000D01*
X78524000Y-37065000D02*
X91656000Y-37065000D01*
X78527000Y-37025000D02*
X91653000Y-37025000D01*
X78530000Y-36985000D02*
X91650000Y-36985000D01*
X78533000Y-36945000D02*
X91647000Y-36945000D01*
X78537000Y-36905000D02*
X91643000Y-36905000D01*
X78541000Y-36865000D02*
X91639000Y-36865000D01*
X78545000Y-36825000D02*
X91635000Y-36825000D01*
X78549000Y-36784000D02*
X91631000Y-36784000D01*
X78553000Y-36744000D02*
X91627000Y-36744000D01*
X78558000Y-36704000D02*
X91622000Y-36704000D01*
X78563000Y-36664000D02*
X91617000Y-36664000D01*
X78568000Y-36624000D02*
X91612000Y-36624000D01*
X78574000Y-36584000D02*
X91606000Y-36584000D01*
X78579000Y-36544000D02*
X91601000Y-36544000D01*
X78585000Y-36504000D02*
X91595000Y-36504000D01*
X78592000Y-36464000D02*
X91588000Y-36464000D01*
X78598000Y-36424000D02*
X83650000Y-36424000D01*
X78605000Y-36384000D02*
X83650000Y-36384000D01*
X78612000Y-36344000D02*
X83650000Y-36344000D01*
X78619000Y-36304000D02*
X83650000Y-36304000D01*
X78627000Y-36264000D02*
X83650000Y-36264000D01*
X78634000Y-36224000D02*
X83650000Y-36224000D01*
X78642000Y-36184000D02*
X83650000Y-36184000D01*
X78651000Y-36144000D02*
X83650000Y-36144000D01*
X78659000Y-36104000D02*
X83650000Y-36104000D01*
X78668000Y-36064000D02*
X83650000Y-36064000D01*
X78677000Y-36024000D02*
X83650000Y-36024000D01*
X78686000Y-35984000D02*
X83650000Y-35984000D01*
X78696000Y-35944000D02*
X83650000Y-35944000D01*
X78706000Y-35904000D02*
X83650000Y-35904000D01*
X78716000Y-35864000D02*
X83650000Y-35864000D01*
X78726000Y-35824000D02*
X83650000Y-35824000D01*
X78737000Y-35784000D02*
X83650000Y-35784000D01*
X78748000Y-35744000D02*
X83650000Y-35744000D01*
X78759000Y-35704000D02*
X83650000Y-35704000D01*
X78770000Y-35664000D02*
X83650000Y-35664000D01*
X78782000Y-35624000D02*
X83650000Y-35624000D01*
X78794000Y-35584000D02*
X83650000Y-35584000D01*
X78806000Y-35544000D02*
X83650000Y-35544000D01*
X78819000Y-35504000D02*
X83650000Y-35504000D01*
X78832000Y-35464000D02*
X83650000Y-35464000D01*
X78845000Y-35424000D02*
X83650000Y-35424000D01*
X78858000Y-35384000D02*
X83650000Y-35384000D01*
X78872000Y-35344000D02*
X83650000Y-35344000D01*
X78886000Y-35304000D02*
X83650000Y-35304000D01*
X78900000Y-35264000D02*
X83650000Y-35264000D01*
X78915000Y-35224000D02*
X83650000Y-35224000D01*
X78929000Y-35184000D02*
X83650000Y-35184000D01*
X78944000Y-35144000D02*
X83650000Y-35144000D01*
X78960000Y-35104000D02*
X83650000Y-35104000D01*
X78976000Y-35064000D02*
X83650000Y-35064000D01*
X78992000Y-35024000D02*
X83650000Y-35024000D01*
X79008000Y-34984000D02*
X83650000Y-34984000D01*
X79025000Y-34944000D02*
X83650000Y-34944000D01*
X79041000Y-34904000D02*
X83650000Y-34904000D01*
X79059000Y-34864000D02*
X83650000Y-34864000D01*
X79076000Y-34824000D02*
X83650000Y-34824000D01*
X79094000Y-34784000D02*
X83650000Y-34784000D01*
X79112000Y-34744000D02*
X83650000Y-34744000D01*
X79131000Y-34704000D02*
X83650000Y-34704000D01*
X79150000Y-34664000D02*
X83650000Y-34664000D01*
X79169000Y-34624000D02*
X83650000Y-34624000D01*
X79188000Y-34584000D02*
X83650000Y-34584000D01*
X79208000Y-34544000D02*
X83650000Y-34544000D01*
X79228000Y-34504000D02*
X83650000Y-34504000D01*
X79249000Y-34464000D02*
X83650000Y-34464000D01*
X79270000Y-34424000D02*
X83650000Y-34424000D01*
X79291000Y-34384000D02*
X83650000Y-34384000D01*
X79312000Y-34344000D02*
X83650000Y-34344000D01*
X79334000Y-34304000D02*
X83650000Y-34304000D01*
X79357000Y-34264000D02*
X83650000Y-34264000D01*
X79379000Y-34224000D02*
X83650000Y-34224000D01*
X79402000Y-34184000D02*
X83650000Y-34184000D01*
X79426000Y-34144000D02*
X83650000Y-34144000D01*
X79449000Y-34104000D02*
X83650000Y-34104000D01*
X79473000Y-34064000D02*
X83650000Y-34064000D01*
X79498000Y-34024000D02*
X83650000Y-34024000D01*
X79523000Y-33984000D02*
X83650000Y-33984000D01*
X79548000Y-33944000D02*
X83650000Y-33944000D01*
X79574000Y-33904000D02*
X83650000Y-33904000D01*
X79600000Y-33864000D02*
X83650000Y-33864000D01*
X79627000Y-33824000D02*
X83650000Y-33824000D01*
X79654000Y-33784000D02*
X83650000Y-33784000D01*
X79681000Y-33744000D02*
X83650000Y-33744000D01*
X79709000Y-33704000D02*
X83650000Y-33704000D01*
X79737000Y-33664000D02*
X83650000Y-33664000D01*
X79766000Y-33624000D02*
X83650000Y-33624000D01*
X79795000Y-33584000D02*
X83650000Y-33584000D01*
X79825000Y-33544000D02*
X90355000Y-33544000D01*
X79855000Y-33504000D02*
X90325000Y-33504000D01*
X79885000Y-33464000D02*
X90295000Y-33464000D01*
X79916000Y-33424000D02*
X90264000Y-33424000D01*
X79948000Y-33384000D02*
X90232000Y-33384000D01*
X79980000Y-33344000D02*
X90200000Y-33344000D01*
X80012000Y-33304000D02*
X90168000Y-33304000D01*
X80046000Y-33264000D02*
X90134000Y-33264000D01*
X80079000Y-33224000D02*
X90101000Y-33224000D01*
X80113000Y-33184000D02*
X90067000Y-33184000D01*
X80148000Y-33144000D02*
X90032000Y-33144000D01*
X80183000Y-33104000D02*
X89997000Y-33104000D01*
X80219000Y-33064000D02*
X89961000Y-33064000D01*
X80256000Y-33024000D02*
X89924000Y-33024000D01*
X80293000Y-32984000D02*
X89887000Y-32984000D01*
X80330000Y-32944000D02*
X89850000Y-32944000D01*
X80369000Y-32904000D02*
X89811000Y-32904000D01*
X80408000Y-32864000D02*
X89772000Y-32864000D01*
X80447000Y-32824000D02*
X89733000Y-32824000D01*
X80488000Y-32784000D02*
X89692000Y-32784000D01*
X80529000Y-32744000D02*
X89651000Y-32744000D01*
X80571000Y-32704000D02*
X89609000Y-32704000D01*
X80613000Y-32664000D02*
X89567000Y-32664000D01*
X80656000Y-32624000D02*
X89524000Y-32624000D01*
X80700000Y-32584000D02*
X89480000Y-32584000D01*
X80725000Y-43939569D02*
X82025000Y-43939569D01*
X80745000Y-32544000D02*
X89435000Y-32544000D01*
X80791000Y-32504000D02*
X89389000Y-32504000D01*
X80837000Y-32464000D02*
X89343000Y-32464000D01*
X80885000Y-32424000D02*
X89295000Y-32424000D01*
X80933000Y-32384000D02*
X89247000Y-32384000D01*
X80982000Y-32344000D02*
X89198000Y-32344000D01*
X81033000Y-32304000D02*
X89147000Y-32304000D01*
X81084000Y-32264000D02*
X89096000Y-32264000D01*
X81136000Y-32224000D02*
X89044000Y-32224000D01*
X81190000Y-32184000D02*
X88990000Y-32184000D01*
X81244000Y-32144000D02*
X88936000Y-32144000D01*
X81300000Y-32104000D02*
X88880000Y-32104000D01*
X81357000Y-32064000D02*
X88823000Y-32064000D01*
X81375000Y-44589569D02*
X81375000Y-43289569D01*
X81415000Y-32024000D02*
X88765000Y-32024000D01*
X81475000Y-31984000D02*
X88705000Y-31984000D01*
X81536000Y-31944000D02*
X88644000Y-31944000D01*
X81599000Y-31904000D02*
X88581000Y-31904000D01*
X81663000Y-31864000D02*
X88517000Y-31864000D01*
X81729000Y-31824000D02*
X88451000Y-31824000D01*
X81797000Y-31784000D02*
X88383000Y-31784000D01*
X81867000Y-31744000D02*
X88313000Y-31744000D01*
X81938000Y-31704000D02*
X88242000Y-31704000D01*
X82012000Y-31664000D02*
X88168000Y-31664000D01*
X82088000Y-31624000D02*
X88092000Y-31624000D01*
X82167000Y-31584000D02*
X88013000Y-31584000D01*
X82248000Y-31544000D02*
X87932000Y-31544000D01*
X82332000Y-31504000D02*
X87848000Y-31504000D01*
X82420000Y-31464000D02*
X87760000Y-31464000D01*
X82511000Y-31424000D02*
X87669000Y-31424000D01*
X82606000Y-31384000D02*
X87574000Y-31384000D01*
X82705000Y-31344000D02*
X87475000Y-31344000D01*
X82809000Y-31304000D02*
X87371000Y-31304000D01*
X82919000Y-31264000D02*
X87261000Y-31264000D01*
X83035000Y-31224000D02*
X87145000Y-31224000D01*
X83159000Y-31184000D02*
X87021000Y-31184000D01*
X83292000Y-31144000D02*
X86888000Y-31144000D01*
X83437000Y-31104000D02*
X86743000Y-31104000D01*
X83596000Y-31064000D02*
X86584000Y-31064000D01*
X83775000Y-31024000D02*
X86405000Y-31024000D01*
X83983000Y-30984000D02*
X86197000Y-30984000D01*
X84240000Y-30944000D02*
X85940000Y-30944000D01*
X84615000Y-30904000D02*
X85565000Y-30904000D01*
X86530000Y-33584000D02*
X90385000Y-33584000D01*
X86530000Y-33624000D02*
X90414000Y-33624000D01*
X86530000Y-33664000D02*
X90443000Y-33664000D01*
X86530000Y-33704000D02*
X90471000Y-33704000D01*
X86530000Y-33744000D02*
X90499000Y-33744000D01*
X86530000Y-33784000D02*
X90526000Y-33784000D01*
X86530000Y-33824000D02*
X90553000Y-33824000D01*
X86530000Y-33864000D02*
X90580000Y-33864000D01*
X86530000Y-33904000D02*
X90606000Y-33904000D01*
X86530000Y-33944000D02*
X90632000Y-33944000D01*
X86530000Y-33984000D02*
X90657000Y-33984000D01*
X86530000Y-34024000D02*
X90682000Y-34024000D01*
X86530000Y-34064000D02*
X90707000Y-34064000D01*
X86530000Y-34104000D02*
X90731000Y-34104000D01*
X86530000Y-34144000D02*
X90754000Y-34144000D01*
X86530000Y-34184000D02*
X90778000Y-34184000D01*
X86530000Y-34224000D02*
X90801000Y-34224000D01*
X86530000Y-34264000D02*
X90823000Y-34264000D01*
X86530000Y-34304000D02*
X90846000Y-34304000D01*
X86530000Y-34344000D02*
X90868000Y-34344000D01*
X86530000Y-34384000D02*
X90889000Y-34384000D01*
X86530000Y-34424000D02*
X90910000Y-34424000D01*
X86530000Y-34464000D02*
X90931000Y-34464000D01*
X86530000Y-34504000D02*
X90952000Y-34504000D01*
X86530000Y-34544000D02*
X90972000Y-34544000D01*
X86530000Y-34584000D02*
X90992000Y-34584000D01*
X86530000Y-34624000D02*
X91011000Y-34624000D01*
X86530000Y-34664000D02*
X91030000Y-34664000D01*
X86530000Y-34704000D02*
X91049000Y-34704000D01*
X86530000Y-34744000D02*
X91068000Y-34744000D01*
X86530000Y-34784000D02*
X91086000Y-34784000D01*
X86530000Y-34824000D02*
X91104000Y-34824000D01*
X86530000Y-34864000D02*
X91121000Y-34864000D01*
X86530000Y-34904000D02*
X91139000Y-34904000D01*
X86530000Y-34944000D02*
X91155000Y-34944000D01*
X86530000Y-34984000D02*
X91172000Y-34984000D01*
X86530000Y-35024000D02*
X91188000Y-35024000D01*
X86530000Y-35064000D02*
X91204000Y-35064000D01*
X86530000Y-35104000D02*
X91220000Y-35104000D01*
X86530000Y-35144000D02*
X91236000Y-35144000D01*
X86530000Y-35184000D02*
X91251000Y-35184000D01*
X86530000Y-35224000D02*
X91265000Y-35224000D01*
X86530000Y-35264000D02*
X91280000Y-35264000D01*
X86530000Y-35304000D02*
X91294000Y-35304000D01*
X86530000Y-35344000D02*
X91308000Y-35344000D01*
X86530000Y-35384000D02*
X91322000Y-35384000D01*
X86530000Y-35424000D02*
X91335000Y-35424000D01*
X86530000Y-35464000D02*
X91348000Y-35464000D01*
X86530000Y-35504000D02*
X91361000Y-35504000D01*
X86530000Y-35544000D02*
X91374000Y-35544000D01*
X86530000Y-35584000D02*
X91386000Y-35584000D01*
X86530000Y-35624000D02*
X91398000Y-35624000D01*
X86530000Y-35664000D02*
X91410000Y-35664000D01*
X86530000Y-35704000D02*
X91421000Y-35704000D01*
X86530000Y-35744000D02*
X91432000Y-35744000D01*
X86530000Y-35784000D02*
X91443000Y-35784000D01*
X86530000Y-35824000D02*
X91454000Y-35824000D01*
X86530000Y-35864000D02*
X91464000Y-35864000D01*
X86530000Y-35904000D02*
X91474000Y-35904000D01*
X86530000Y-35944000D02*
X91484000Y-35944000D01*
X86530000Y-35984000D02*
X91494000Y-35984000D01*
X86530000Y-36024000D02*
X91503000Y-36024000D01*
X86530000Y-36064000D02*
X91512000Y-36064000D01*
X86530000Y-36104000D02*
X91521000Y-36104000D01*
X86530000Y-36144000D02*
X91529000Y-36144000D01*
X86530000Y-36184000D02*
X91538000Y-36184000D01*
X86530000Y-36224000D02*
X91546000Y-36224000D01*
X86530000Y-36264000D02*
X91553000Y-36264000D01*
X86530000Y-36304000D02*
X91561000Y-36304000D01*
X86530000Y-36344000D02*
X91568000Y-36344000D01*
X86530000Y-36384000D02*
X91575000Y-36384000D01*
X86530000Y-36424000D02*
X91582000Y-36424000D01*
X91710000Y-37505000D02*
G75*
G02*
X78470000Y-37505000I-6620000J0D01*
G01*
X78470000Y-37505000D02*
G75*
G02*
X91710000Y-37505000I6620000J0D01*
G01*
%TO.C,C11*%
X125503000Y-56888748D02*
X125503000Y-57411252D01*
X126973000Y-56888748D02*
X126973000Y-57411252D01*
%TO.C,C10*%
X127662000Y-56888748D02*
X127662000Y-57411252D01*
X129132000Y-56888748D02*
X129132000Y-57411252D01*
%TO.C,Q1*%
X132230000Y-44330000D02*
X133730000Y-44330000D01*
X132230000Y-54730000D02*
X133730000Y-54730000D01*
X133730000Y-44330000D02*
X133730000Y-46140000D01*
X133730000Y-54730000D02*
X133730000Y-52920000D01*
X136532500Y-53250000D02*
X136052500Y-53250000D01*
X136292500Y-52920000D01*
X136532500Y-53250000D01*
G36*
X136532500Y-53250000D02*
G01*
X136052500Y-53250000D01*
X136292500Y-52920000D01*
X136532500Y-53250000D01*
G37*
%TO.C,J1*%
X62660000Y-25522500D02*
X61550000Y-25522500D01*
X62660000Y-29232500D02*
X61550000Y-29232500D01*
X63250000Y-30282500D02*
X63750000Y-30282500D01*
X63500000Y-29782500D02*
X63250000Y-30282500D01*
X63750000Y-30282500D02*
X63500000Y-29782500D01*
X65450000Y-25522500D02*
X64340000Y-25522500D01*
X65450000Y-29232500D02*
X64340000Y-29232500D01*
%TO.C,C4*%
X106450000Y-37425000D02*
X119610000Y-37425000D01*
X106450000Y-37465000D02*
X119610000Y-37465000D01*
X106450000Y-37505000D02*
X119610000Y-37505000D01*
X106451000Y-37345000D02*
X119609000Y-37345000D01*
X106451000Y-37385000D02*
X119609000Y-37385000D01*
X106453000Y-37305000D02*
X119607000Y-37305000D01*
X106454000Y-37265000D02*
X119606000Y-37265000D01*
X106455000Y-37225000D02*
X119605000Y-37225000D01*
X106457000Y-37185000D02*
X119603000Y-37185000D01*
X106459000Y-37145000D02*
X119601000Y-37145000D01*
X106462000Y-37105000D02*
X119598000Y-37105000D01*
X106464000Y-37065000D02*
X119596000Y-37065000D01*
X106467000Y-37025000D02*
X119593000Y-37025000D01*
X106470000Y-36985000D02*
X119590000Y-36985000D01*
X106473000Y-36945000D02*
X119587000Y-36945000D01*
X106477000Y-36905000D02*
X119583000Y-36905000D01*
X106481000Y-36865000D02*
X119579000Y-36865000D01*
X106485000Y-36825000D02*
X119575000Y-36825000D01*
X106489000Y-36784000D02*
X119571000Y-36784000D01*
X106493000Y-36744000D02*
X119567000Y-36744000D01*
X106498000Y-36704000D02*
X119562000Y-36704000D01*
X106503000Y-36664000D02*
X119557000Y-36664000D01*
X106508000Y-36624000D02*
X119552000Y-36624000D01*
X106514000Y-36584000D02*
X119546000Y-36584000D01*
X106519000Y-36544000D02*
X119541000Y-36544000D01*
X106525000Y-36504000D02*
X119535000Y-36504000D01*
X106532000Y-36464000D02*
X119528000Y-36464000D01*
X106538000Y-36424000D02*
X111590000Y-36424000D01*
X106545000Y-36384000D02*
X111590000Y-36384000D01*
X106552000Y-36344000D02*
X111590000Y-36344000D01*
X106559000Y-36304000D02*
X111590000Y-36304000D01*
X106567000Y-36264000D02*
X111590000Y-36264000D01*
X106574000Y-36224000D02*
X111590000Y-36224000D01*
X106582000Y-36184000D02*
X111590000Y-36184000D01*
X106591000Y-36144000D02*
X111590000Y-36144000D01*
X106599000Y-36104000D02*
X111590000Y-36104000D01*
X106608000Y-36064000D02*
X111590000Y-36064000D01*
X106617000Y-36024000D02*
X111590000Y-36024000D01*
X106626000Y-35984000D02*
X111590000Y-35984000D01*
X106636000Y-35944000D02*
X111590000Y-35944000D01*
X106646000Y-35904000D02*
X111590000Y-35904000D01*
X106656000Y-35864000D02*
X111590000Y-35864000D01*
X106666000Y-35824000D02*
X111590000Y-35824000D01*
X106677000Y-35784000D02*
X111590000Y-35784000D01*
X106688000Y-35744000D02*
X111590000Y-35744000D01*
X106699000Y-35704000D02*
X111590000Y-35704000D01*
X106710000Y-35664000D02*
X111590000Y-35664000D01*
X106722000Y-35624000D02*
X111590000Y-35624000D01*
X106734000Y-35584000D02*
X111590000Y-35584000D01*
X106746000Y-35544000D02*
X111590000Y-35544000D01*
X106759000Y-35504000D02*
X111590000Y-35504000D01*
X106772000Y-35464000D02*
X111590000Y-35464000D01*
X106785000Y-35424000D02*
X111590000Y-35424000D01*
X106798000Y-35384000D02*
X111590000Y-35384000D01*
X106812000Y-35344000D02*
X111590000Y-35344000D01*
X106826000Y-35304000D02*
X111590000Y-35304000D01*
X106840000Y-35264000D02*
X111590000Y-35264000D01*
X106855000Y-35224000D02*
X111590000Y-35224000D01*
X106869000Y-35184000D02*
X111590000Y-35184000D01*
X106884000Y-35144000D02*
X111590000Y-35144000D01*
X106900000Y-35104000D02*
X111590000Y-35104000D01*
X106916000Y-35064000D02*
X111590000Y-35064000D01*
X106932000Y-35024000D02*
X111590000Y-35024000D01*
X106948000Y-34984000D02*
X111590000Y-34984000D01*
X106965000Y-34944000D02*
X111590000Y-34944000D01*
X106981000Y-34904000D02*
X111590000Y-34904000D01*
X106999000Y-34864000D02*
X111590000Y-34864000D01*
X107016000Y-34824000D02*
X111590000Y-34824000D01*
X107034000Y-34784000D02*
X111590000Y-34784000D01*
X107052000Y-34744000D02*
X111590000Y-34744000D01*
X107071000Y-34704000D02*
X111590000Y-34704000D01*
X107090000Y-34664000D02*
X111590000Y-34664000D01*
X107109000Y-34624000D02*
X111590000Y-34624000D01*
X107128000Y-34584000D02*
X111590000Y-34584000D01*
X107148000Y-34544000D02*
X111590000Y-34544000D01*
X107168000Y-34504000D02*
X111590000Y-34504000D01*
X107189000Y-34464000D02*
X111590000Y-34464000D01*
X107210000Y-34424000D02*
X111590000Y-34424000D01*
X107231000Y-34384000D02*
X111590000Y-34384000D01*
X107252000Y-34344000D02*
X111590000Y-34344000D01*
X107274000Y-34304000D02*
X111590000Y-34304000D01*
X107297000Y-34264000D02*
X111590000Y-34264000D01*
X107319000Y-34224000D02*
X111590000Y-34224000D01*
X107342000Y-34184000D02*
X111590000Y-34184000D01*
X107366000Y-34144000D02*
X111590000Y-34144000D01*
X107389000Y-34104000D02*
X111590000Y-34104000D01*
X107413000Y-34064000D02*
X111590000Y-34064000D01*
X107438000Y-34024000D02*
X111590000Y-34024000D01*
X107463000Y-33984000D02*
X111590000Y-33984000D01*
X107488000Y-33944000D02*
X111590000Y-33944000D01*
X107514000Y-33904000D02*
X111590000Y-33904000D01*
X107540000Y-33864000D02*
X111590000Y-33864000D01*
X107567000Y-33824000D02*
X111590000Y-33824000D01*
X107594000Y-33784000D02*
X111590000Y-33784000D01*
X107621000Y-33744000D02*
X111590000Y-33744000D01*
X107649000Y-33704000D02*
X111590000Y-33704000D01*
X107677000Y-33664000D02*
X111590000Y-33664000D01*
X107706000Y-33624000D02*
X111590000Y-33624000D01*
X107735000Y-33584000D02*
X111590000Y-33584000D01*
X107765000Y-33544000D02*
X118295000Y-33544000D01*
X107795000Y-33504000D02*
X118265000Y-33504000D01*
X107825000Y-33464000D02*
X118235000Y-33464000D01*
X107856000Y-33424000D02*
X118204000Y-33424000D01*
X107888000Y-33384000D02*
X118172000Y-33384000D01*
X107920000Y-33344000D02*
X118140000Y-33344000D01*
X107952000Y-33304000D02*
X118108000Y-33304000D01*
X107986000Y-33264000D02*
X118074000Y-33264000D01*
X108019000Y-33224000D02*
X118041000Y-33224000D01*
X108053000Y-33184000D02*
X118007000Y-33184000D01*
X108088000Y-33144000D02*
X117972000Y-33144000D01*
X108123000Y-33104000D02*
X117937000Y-33104000D01*
X108159000Y-33064000D02*
X117901000Y-33064000D01*
X108196000Y-33024000D02*
X117864000Y-33024000D01*
X108233000Y-32984000D02*
X117827000Y-32984000D01*
X108270000Y-32944000D02*
X117790000Y-32944000D01*
X108309000Y-32904000D02*
X117751000Y-32904000D01*
X108348000Y-32864000D02*
X117712000Y-32864000D01*
X108387000Y-32824000D02*
X117673000Y-32824000D01*
X108428000Y-32784000D02*
X117632000Y-32784000D01*
X108469000Y-32744000D02*
X117591000Y-32744000D01*
X108511000Y-32704000D02*
X117549000Y-32704000D01*
X108553000Y-32664000D02*
X117507000Y-32664000D01*
X108596000Y-32624000D02*
X117464000Y-32624000D01*
X108640000Y-32584000D02*
X117420000Y-32584000D01*
X108665000Y-43939569D02*
X109965000Y-43939569D01*
X108685000Y-32544000D02*
X117375000Y-32544000D01*
X108731000Y-32504000D02*
X117329000Y-32504000D01*
X108777000Y-32464000D02*
X117283000Y-32464000D01*
X108825000Y-32424000D02*
X117235000Y-32424000D01*
X108873000Y-32384000D02*
X117187000Y-32384000D01*
X108922000Y-32344000D02*
X117138000Y-32344000D01*
X108973000Y-32304000D02*
X117087000Y-32304000D01*
X109024000Y-32264000D02*
X117036000Y-32264000D01*
X109076000Y-32224000D02*
X116984000Y-32224000D01*
X109130000Y-32184000D02*
X116930000Y-32184000D01*
X109184000Y-32144000D02*
X116876000Y-32144000D01*
X109240000Y-32104000D02*
X116820000Y-32104000D01*
X109297000Y-32064000D02*
X116763000Y-32064000D01*
X109315000Y-44589569D02*
X109315000Y-43289569D01*
X109355000Y-32024000D02*
X116705000Y-32024000D01*
X109415000Y-31984000D02*
X116645000Y-31984000D01*
X109476000Y-31944000D02*
X116584000Y-31944000D01*
X109539000Y-31904000D02*
X116521000Y-31904000D01*
X109603000Y-31864000D02*
X116457000Y-31864000D01*
X109669000Y-31824000D02*
X116391000Y-31824000D01*
X109737000Y-31784000D02*
X116323000Y-31784000D01*
X109807000Y-31744000D02*
X116253000Y-31744000D01*
X109878000Y-31704000D02*
X116182000Y-31704000D01*
X109952000Y-31664000D02*
X116108000Y-31664000D01*
X110028000Y-31624000D02*
X116032000Y-31624000D01*
X110107000Y-31584000D02*
X115953000Y-31584000D01*
X110188000Y-31544000D02*
X115872000Y-31544000D01*
X110272000Y-31504000D02*
X115788000Y-31504000D01*
X110360000Y-31464000D02*
X115700000Y-31464000D01*
X110451000Y-31424000D02*
X115609000Y-31424000D01*
X110546000Y-31384000D02*
X115514000Y-31384000D01*
X110645000Y-31344000D02*
X115415000Y-31344000D01*
X110749000Y-31304000D02*
X115311000Y-31304000D01*
X110859000Y-31264000D02*
X115201000Y-31264000D01*
X110975000Y-31224000D02*
X115085000Y-31224000D01*
X111099000Y-31184000D02*
X114961000Y-31184000D01*
X111232000Y-31144000D02*
X114828000Y-31144000D01*
X111377000Y-31104000D02*
X114683000Y-31104000D01*
X111536000Y-31064000D02*
X114524000Y-31064000D01*
X111715000Y-31024000D02*
X114345000Y-31024000D01*
X111923000Y-30984000D02*
X114137000Y-30984000D01*
X112180000Y-30944000D02*
X113880000Y-30944000D01*
X112555000Y-30904000D02*
X113505000Y-30904000D01*
X114470000Y-33584000D02*
X118325000Y-33584000D01*
X114470000Y-33624000D02*
X118354000Y-33624000D01*
X114470000Y-33664000D02*
X118383000Y-33664000D01*
X114470000Y-33704000D02*
X118411000Y-33704000D01*
X114470000Y-33744000D02*
X118439000Y-33744000D01*
X114470000Y-33784000D02*
X118466000Y-33784000D01*
X114470000Y-33824000D02*
X118493000Y-33824000D01*
X114470000Y-33864000D02*
X118520000Y-33864000D01*
X114470000Y-33904000D02*
X118546000Y-33904000D01*
X114470000Y-33944000D02*
X118572000Y-33944000D01*
X114470000Y-33984000D02*
X118597000Y-33984000D01*
X114470000Y-34024000D02*
X118622000Y-34024000D01*
X114470000Y-34064000D02*
X118647000Y-34064000D01*
X114470000Y-34104000D02*
X118671000Y-34104000D01*
X114470000Y-34144000D02*
X118694000Y-34144000D01*
X114470000Y-34184000D02*
X118718000Y-34184000D01*
X114470000Y-34224000D02*
X118741000Y-34224000D01*
X114470000Y-34264000D02*
X118763000Y-34264000D01*
X114470000Y-34304000D02*
X118786000Y-34304000D01*
X114470000Y-34344000D02*
X118808000Y-34344000D01*
X114470000Y-34384000D02*
X118829000Y-34384000D01*
X114470000Y-34424000D02*
X118850000Y-34424000D01*
X114470000Y-34464000D02*
X118871000Y-34464000D01*
X114470000Y-34504000D02*
X118892000Y-34504000D01*
X114470000Y-34544000D02*
X118912000Y-34544000D01*
X114470000Y-34584000D02*
X118932000Y-34584000D01*
X114470000Y-34624000D02*
X118951000Y-34624000D01*
X114470000Y-34664000D02*
X118970000Y-34664000D01*
X114470000Y-34704000D02*
X118989000Y-34704000D01*
X114470000Y-34744000D02*
X119008000Y-34744000D01*
X114470000Y-34784000D02*
X119026000Y-34784000D01*
X114470000Y-34824000D02*
X119044000Y-34824000D01*
X114470000Y-34864000D02*
X119061000Y-34864000D01*
X114470000Y-34904000D02*
X119079000Y-34904000D01*
X114470000Y-34944000D02*
X119095000Y-34944000D01*
X114470000Y-34984000D02*
X119112000Y-34984000D01*
X114470000Y-35024000D02*
X119128000Y-35024000D01*
X114470000Y-35064000D02*
X119144000Y-35064000D01*
X114470000Y-35104000D02*
X119160000Y-35104000D01*
X114470000Y-35144000D02*
X119176000Y-35144000D01*
X114470000Y-35184000D02*
X119191000Y-35184000D01*
X114470000Y-35224000D02*
X119205000Y-35224000D01*
X114470000Y-35264000D02*
X119220000Y-35264000D01*
X114470000Y-35304000D02*
X119234000Y-35304000D01*
X114470000Y-35344000D02*
X119248000Y-35344000D01*
X114470000Y-35384000D02*
X119262000Y-35384000D01*
X114470000Y-35424000D02*
X119275000Y-35424000D01*
X114470000Y-35464000D02*
X119288000Y-35464000D01*
X114470000Y-35504000D02*
X119301000Y-35504000D01*
X114470000Y-35544000D02*
X119314000Y-35544000D01*
X114470000Y-35584000D02*
X119326000Y-35584000D01*
X114470000Y-35624000D02*
X119338000Y-35624000D01*
X114470000Y-35664000D02*
X119350000Y-35664000D01*
X114470000Y-35704000D02*
X119361000Y-35704000D01*
X114470000Y-35744000D02*
X119372000Y-35744000D01*
X114470000Y-35784000D02*
X119383000Y-35784000D01*
X114470000Y-35824000D02*
X119394000Y-35824000D01*
X114470000Y-35864000D02*
X119404000Y-35864000D01*
X114470000Y-35904000D02*
X119414000Y-35904000D01*
X114470000Y-35944000D02*
X119424000Y-35944000D01*
X114470000Y-35984000D02*
X119434000Y-35984000D01*
X114470000Y-36024000D02*
X119443000Y-36024000D01*
X114470000Y-36064000D02*
X119452000Y-36064000D01*
X114470000Y-36104000D02*
X119461000Y-36104000D01*
X114470000Y-36144000D02*
X119469000Y-36144000D01*
X114470000Y-36184000D02*
X119478000Y-36184000D01*
X114470000Y-36224000D02*
X119486000Y-36224000D01*
X114470000Y-36264000D02*
X119493000Y-36264000D01*
X114470000Y-36304000D02*
X119501000Y-36304000D01*
X114470000Y-36344000D02*
X119508000Y-36344000D01*
X114470000Y-36384000D02*
X119515000Y-36384000D01*
X114470000Y-36424000D02*
X119522000Y-36424000D01*
X119650000Y-37505000D02*
G75*
G02*
X106410000Y-37505000I-6620000J0D01*
G01*
X106410000Y-37505000D02*
G75*
G02*
X119650000Y-37505000I6620000J0D01*
G01*
%TO.C,C12*%
X123344000Y-56888748D02*
X123344000Y-57411252D01*
X124814000Y-56888748D02*
X124814000Y-57411252D01*
%TO.C,R2*%
X58955000Y-38888936D02*
X58955000Y-39343064D01*
X60425000Y-38888936D02*
X60425000Y-39343064D01*
%TD*%
M02*
