%TF.GenerationSoftware,KiCad,Pcbnew,8.0.0*%
%TF.CreationDate,2024-06-21T14:10:28-04:00*%
%TF.ProjectId,GaN Drain Driver,47614e20-4472-4616-996e-204472697665,v1.0*%
%TF.SameCoordinates,Original*%
%TF.FileFunction,Copper,L2,Bot*%
%TF.FilePolarity,Positive*%
%FSLAX46Y46*%
G04 Gerber Fmt 4.6, Leading zero omitted, Abs format (unit mm)*
G04 Created by KiCad (PCBNEW 8.0.0) date 2024-06-21 14:10:28*
%MOMM*%
%LPD*%
G01*
G04 APERTURE LIST*
%TA.AperFunction,ComponentPad*%
%ADD10R,2.400000X2.400000*%
%TD*%
%TA.AperFunction,ComponentPad*%
%ADD11C,2.400000*%
%TD*%
%TA.AperFunction,ComponentPad*%
%ADD12R,1.700000X1.700000*%
%TD*%
%TA.AperFunction,ComponentPad*%
%ADD13O,1.700000X1.700000*%
%TD*%
%TA.AperFunction,ComponentPad*%
%ADD14C,5.562600*%
%TD*%
%TA.AperFunction,SMDPad,CuDef*%
%ADD15R,1.350000X4.200000*%
%TD*%
%TA.AperFunction,ViaPad*%
%ADD16C,0.600000*%
%TD*%
%TA.AperFunction,Conductor*%
%ADD17C,1.270000*%
%TD*%
G04 APERTURE END LIST*
D10*
%TO.P,C6,1*%
%TO.N,VCC*%
X99060000Y-48895000D03*
D11*
%TO.P,C6,2*%
%TO.N,GND*%
X99060000Y-53895000D03*
%TD*%
D10*
%TO.P,C9,1*%
%TO.N,+15V*%
X66040000Y-51659785D03*
D11*
%TO.P,C9,2*%
%TO.N,GND*%
X66040000Y-56659785D03*
%TD*%
D10*
%TO.P,C5,1*%
%TO.N,VCC*%
X85090000Y-48895000D03*
D11*
%TO.P,C5,2*%
%TO.N,GND*%
X85090000Y-53895000D03*
%TD*%
D12*
%TO.P,J2,1,Pin_1*%
%TO.N,AMP_DRAIN*%
X136652000Y-37338000D03*
D13*
%TO.P,J2,2,Pin_2*%
%TO.N,GND*%
X136652000Y-34798000D03*
%TD*%
D14*
%TO.P,H4,1,1*%
%TO.N,GND*%
X53975000Y-60325000D03*
%TD*%
D10*
%TO.P,C3,1*%
%TO.N,VCC*%
X99060000Y-40005000D03*
D11*
%TO.P,C3,2*%
%TO.N,GND*%
X99060000Y-35005000D03*
%TD*%
D14*
%TO.P,H3,1,1*%
%TO.N,GND*%
X136525000Y-60325000D03*
%TD*%
D12*
%TO.P,J4,1,Pin_1*%
%TO.N,VCC*%
X125115000Y-28550000D03*
D13*
%TO.P,J4,2,Pin_2*%
%TO.N,GND*%
X127655000Y-28550000D03*
%TD*%
D10*
%TO.P,C7,1*%
%TO.N,VCC*%
X113030000Y-48895001D03*
D11*
%TO.P,C7,2*%
%TO.N,GND*%
X113030000Y-53895001D03*
%TD*%
D12*
%TO.P,J3,1,Pin_1*%
%TO.N,+15V*%
X73934000Y-28575000D03*
D13*
%TO.P,J3,2,Pin_2*%
%TO.N,GND*%
X76474000Y-28575000D03*
%TD*%
D10*
%TO.P,C2,1*%
%TO.N,VCC*%
X85090000Y-40005000D03*
D11*
%TO.P,C2,2*%
%TO.N,GND*%
X85090000Y-35005000D03*
%TD*%
D15*
%TO.P,J1,2,Ext*%
%TO.N,GND*%
X66325000Y-27522500D03*
X60675000Y-27522500D03*
%TD*%
D10*
%TO.P,C4,1*%
%TO.N,VCC*%
X113030000Y-40005000D03*
D11*
%TO.P,C4,2*%
%TO.N,GND*%
X113030000Y-35005000D03*
%TD*%
D14*
%TO.P,H1,1,1*%
%TO.N,GND*%
X136525000Y-28575000D03*
%TD*%
%TO.P,H2,1,1*%
%TO.N,GND*%
X53975000Y-28575000D03*
%TD*%
D16*
%TO.N,AMP_DRAIN*%
X84836000Y-29464000D03*
%TO.N,VCC*%
X130810000Y-53340000D03*
X123190000Y-44450000D03*
X127000000Y-44450000D03*
X123190000Y-50800000D03*
X124460000Y-45720000D03*
X127000000Y-49530000D03*
X125730000Y-49530000D03*
X130810000Y-49530000D03*
X123190000Y-46990000D03*
X125730000Y-44450000D03*
X123190000Y-48260000D03*
X125730000Y-45720000D03*
X128270000Y-54610000D03*
X129540000Y-46990000D03*
X123190000Y-54610000D03*
X124460000Y-53340000D03*
X129540000Y-48260000D03*
X130810000Y-44450000D03*
X124460000Y-46990000D03*
X130810000Y-52070000D03*
X128270000Y-44450000D03*
X127000000Y-46990000D03*
X130810000Y-54610000D03*
X130810000Y-48260000D03*
X124460000Y-49530000D03*
X128270000Y-45720000D03*
X127000000Y-45720000D03*
X125730000Y-48260000D03*
X129540000Y-44450000D03*
X129540000Y-49530000D03*
X124460000Y-44450000D03*
X127000000Y-50800000D03*
X129540000Y-52070000D03*
X127000000Y-52070000D03*
X125730000Y-50800000D03*
X127000000Y-54610000D03*
X129540000Y-54610000D03*
X123190000Y-53340000D03*
X127000000Y-53340000D03*
X128270000Y-46990000D03*
X130810000Y-50800000D03*
X129540000Y-45720000D03*
X124460000Y-52070000D03*
X129540000Y-53340000D03*
X127000000Y-48260000D03*
X128270000Y-48260000D03*
X124460000Y-50800000D03*
X124460000Y-54610000D03*
X125730000Y-46990000D03*
X125730000Y-53340000D03*
X129540000Y-50800000D03*
X123190000Y-45720000D03*
X128270000Y-50800000D03*
X128270000Y-49530000D03*
X130810000Y-45720000D03*
X125730000Y-52070000D03*
X125730000Y-54610000D03*
X123190000Y-52070000D03*
X123190000Y-49530000D03*
X130810000Y-46990000D03*
X128270000Y-52070000D03*
X124460000Y-48260000D03*
X128270000Y-53340000D03*
%TO.N,GND*%
X57150000Y-38100000D03*
X129667000Y-57785000D03*
X57150000Y-57150000D03*
X53975000Y-34925000D03*
X127635000Y-57785000D03*
X53975000Y-47625000D03*
X69215000Y-34290000D03*
X74295000Y-57150000D03*
X53975000Y-41275000D03*
X57150000Y-44450000D03*
X85090000Y-27305000D03*
X92075000Y-57150000D03*
X99060000Y-27305000D03*
X106045000Y-57150000D03*
X113030000Y-62230000D03*
X53975000Y-53975000D03*
X136525000Y-49530000D03*
X125095000Y-57531000D03*
X92075000Y-33020000D03*
X106045000Y-33020000D03*
X128905000Y-35560000D03*
X74930000Y-45085000D03*
X74295000Y-38100000D03*
X113030000Y-27305000D03*
X70485000Y-36195000D03*
X57150000Y-31750000D03*
X122936000Y-57531000D03*
X66040000Y-37465000D03*
X84455000Y-62230000D03*
X74295000Y-32385000D03*
X120650000Y-57531000D03*
X73025000Y-34925000D03*
X98425000Y-62230000D03*
X57150000Y-50800000D03*
%TO.N,+15V*%
X63565000Y-37084000D03*
%TD*%
D17*
%TO.N,AMP_DRAIN*%
X136398000Y-37592000D02*
X121920000Y-37592000D01*
X121920000Y-37592000D02*
X113792000Y-29464000D01*
X113792000Y-29464000D02*
X84836000Y-29464000D01*
X136652000Y-37338000D02*
X136398000Y-37592000D01*
%TO.N,+15V*%
X66040000Y-40132000D02*
X66040000Y-51659785D01*
X63565000Y-37657000D02*
X66040000Y-40132000D01*
X63565000Y-37084000D02*
X63565000Y-37657000D01*
%TD*%
%TA.AperFunction,Conductor*%
%TO.N,GND*%
G36*
X136528472Y-25900695D02*
G01*
X136817507Y-25916927D01*
X136831305Y-25918481D01*
X137113265Y-25966388D01*
X137126821Y-25969482D01*
X137401642Y-26048657D01*
X137414768Y-26053250D01*
X137678994Y-26162696D01*
X137691508Y-26168722D01*
X137941830Y-26307070D01*
X137953603Y-26314468D01*
X138186843Y-26479961D01*
X138197704Y-26488622D01*
X138410964Y-26679202D01*
X138420797Y-26689035D01*
X138611373Y-26902290D01*
X138620042Y-26913162D01*
X138785530Y-27146395D01*
X138792929Y-27158169D01*
X138931273Y-27408484D01*
X138937306Y-27421012D01*
X139046749Y-27685232D01*
X139051342Y-27698357D01*
X139130517Y-27973178D01*
X139133611Y-27986735D01*
X139181516Y-28268684D01*
X139183073Y-28282502D01*
X139199305Y-28571527D01*
X139199500Y-28578480D01*
X139199500Y-60321519D01*
X139199305Y-60328472D01*
X139183073Y-60617497D01*
X139181516Y-60631315D01*
X139133611Y-60913264D01*
X139130517Y-60926821D01*
X139051342Y-61201642D01*
X139046749Y-61214767D01*
X138937306Y-61478987D01*
X138931273Y-61491515D01*
X138792929Y-61741830D01*
X138785530Y-61753604D01*
X138620042Y-61986837D01*
X138611373Y-61997709D01*
X138420797Y-62210964D01*
X138410964Y-62220797D01*
X138197709Y-62411373D01*
X138186837Y-62420042D01*
X137953604Y-62585530D01*
X137941830Y-62592929D01*
X137691515Y-62731273D01*
X137678987Y-62737306D01*
X137414767Y-62846749D01*
X137401642Y-62851342D01*
X137126821Y-62930517D01*
X137113264Y-62933611D01*
X136831315Y-62981516D01*
X136817497Y-62983073D01*
X136528472Y-62999305D01*
X136521519Y-62999500D01*
X53978481Y-62999500D01*
X53971528Y-62999305D01*
X53682502Y-62983073D01*
X53668684Y-62981516D01*
X53386735Y-62933611D01*
X53373178Y-62930517D01*
X53098357Y-62851342D01*
X53085232Y-62846749D01*
X52821012Y-62737306D01*
X52808484Y-62731273D01*
X52558169Y-62592929D01*
X52546395Y-62585530D01*
X52313162Y-62420042D01*
X52302290Y-62411373D01*
X52089035Y-62220797D01*
X52079202Y-62210964D01*
X51888626Y-61997709D01*
X51879961Y-61986843D01*
X51714468Y-61753603D01*
X51707070Y-61741830D01*
X51568726Y-61491515D01*
X51562696Y-61478994D01*
X51453250Y-61214767D01*
X51448657Y-61201642D01*
X51369482Y-60926821D01*
X51366388Y-60913264D01*
X51318481Y-60631305D01*
X51316927Y-60617507D01*
X51300695Y-60328472D01*
X51300500Y-60321519D01*
X51300500Y-55756000D01*
X121414500Y-55756000D01*
X121414501Y-55756009D01*
X121426052Y-55863450D01*
X121426054Y-55863462D01*
X121437260Y-55914972D01*
X121471383Y-56017497D01*
X121471386Y-56017503D01*
X121549171Y-56138537D01*
X121549179Y-56138548D01*
X121594923Y-56191340D01*
X121594926Y-56191343D01*
X121594930Y-56191347D01*
X121703664Y-56285567D01*
X121703667Y-56285568D01*
X121703668Y-56285569D01*
X121797925Y-56328616D01*
X121834541Y-56345338D01*
X121901580Y-56365023D01*
X121901584Y-56365024D01*
X122044000Y-56385500D01*
X122044003Y-56385500D01*
X132590990Y-56385500D01*
X132591000Y-56385500D01*
X132698456Y-56373947D01*
X132749967Y-56362741D01*
X132784197Y-56351347D01*
X132852497Y-56328616D01*
X132852501Y-56328613D01*
X132852504Y-56328613D01*
X132973543Y-56250825D01*
X133026347Y-56205070D01*
X133120567Y-56096336D01*
X133180338Y-55965459D01*
X133200023Y-55898420D01*
X133200024Y-55898416D01*
X133220500Y-55756000D01*
X133220500Y-43304000D01*
X133208947Y-43196544D01*
X133197741Y-43145033D01*
X133197637Y-43144722D01*
X133163616Y-43042502D01*
X133163613Y-43042496D01*
X133085828Y-42921462D01*
X133085825Y-42921457D01*
X133085820Y-42921451D01*
X133040076Y-42868659D01*
X133040072Y-42868656D01*
X133040070Y-42868653D01*
X132931336Y-42774433D01*
X132931333Y-42774431D01*
X132931331Y-42774430D01*
X132800465Y-42714664D01*
X132800460Y-42714662D01*
X132800459Y-42714662D01*
X132733420Y-42694977D01*
X132733422Y-42694977D01*
X132733417Y-42694976D01*
X132671347Y-42686052D01*
X132591000Y-42674500D01*
X122044000Y-42674500D01*
X122043991Y-42674500D01*
X122043990Y-42674501D01*
X121936549Y-42686052D01*
X121936537Y-42686054D01*
X121885027Y-42697260D01*
X121782502Y-42731383D01*
X121782496Y-42731386D01*
X121661462Y-42809171D01*
X121661451Y-42809179D01*
X121608659Y-42854923D01*
X121514433Y-42963664D01*
X121514430Y-42963668D01*
X121454664Y-43094534D01*
X121434976Y-43161582D01*
X121429949Y-43196549D01*
X121414500Y-43304000D01*
X121414500Y-55756000D01*
X51300500Y-55756000D01*
X51300500Y-37746370D01*
X62429500Y-37746370D01*
X62457458Y-37922894D01*
X62474643Y-37975782D01*
X62512692Y-38092885D01*
X62593833Y-38252132D01*
X62651664Y-38331729D01*
X62651663Y-38331729D01*
X62698884Y-38396721D01*
X62698891Y-38396730D01*
X64868181Y-40566020D01*
X64901666Y-40627343D01*
X64904500Y-40653701D01*
X64904500Y-49835821D01*
X64884815Y-49902860D01*
X64832011Y-49948615D01*
X64793754Y-49959111D01*
X64732516Y-49965694D01*
X64597671Y-50015987D01*
X64597664Y-50015991D01*
X64482455Y-50102237D01*
X64482452Y-50102240D01*
X64396206Y-50217449D01*
X64396202Y-50217456D01*
X64345908Y-50352302D01*
X64339501Y-50411901D01*
X64339501Y-50411908D01*
X64339500Y-50411920D01*
X64339500Y-52907655D01*
X64339501Y-52907661D01*
X64345908Y-52967268D01*
X64396202Y-53102113D01*
X64396206Y-53102120D01*
X64482452Y-53217329D01*
X64482455Y-53217332D01*
X64597664Y-53303578D01*
X64597671Y-53303582D01*
X64732517Y-53353876D01*
X64732516Y-53353876D01*
X64739444Y-53354620D01*
X64792127Y-53360285D01*
X67287872Y-53360284D01*
X67347483Y-53353876D01*
X67482331Y-53303581D01*
X67597546Y-53217331D01*
X67683796Y-53102116D01*
X67734091Y-52967268D01*
X67740500Y-52907658D01*
X67740499Y-50411913D01*
X67734091Y-50352302D01*
X67728507Y-50337331D01*
X67683797Y-50217456D01*
X67683793Y-50217449D01*
X67627963Y-50142870D01*
X83389500Y-50142870D01*
X83389501Y-50142876D01*
X83395908Y-50202483D01*
X83446202Y-50337328D01*
X83446206Y-50337335D01*
X83532452Y-50452544D01*
X83532455Y-50452547D01*
X83647664Y-50538793D01*
X83647671Y-50538797D01*
X83782517Y-50589091D01*
X83782516Y-50589091D01*
X83789444Y-50589835D01*
X83842127Y-50595500D01*
X86337872Y-50595499D01*
X86397483Y-50589091D01*
X86532331Y-50538796D01*
X86647546Y-50452546D01*
X86733796Y-50337331D01*
X86784091Y-50202483D01*
X86790500Y-50142873D01*
X86790500Y-50142870D01*
X97359500Y-50142870D01*
X97359501Y-50142876D01*
X97365908Y-50202483D01*
X97416202Y-50337328D01*
X97416206Y-50337335D01*
X97502452Y-50452544D01*
X97502455Y-50452547D01*
X97617664Y-50538793D01*
X97617671Y-50538797D01*
X97752517Y-50589091D01*
X97752516Y-50589091D01*
X97759444Y-50589835D01*
X97812127Y-50595500D01*
X100307872Y-50595499D01*
X100367483Y-50589091D01*
X100502331Y-50538796D01*
X100617546Y-50452546D01*
X100703796Y-50337331D01*
X100754091Y-50202483D01*
X100760500Y-50142873D01*
X100760500Y-50142871D01*
X111329500Y-50142871D01*
X111329501Y-50142877D01*
X111335908Y-50202484D01*
X111386202Y-50337329D01*
X111386206Y-50337336D01*
X111472452Y-50452545D01*
X111472455Y-50452548D01*
X111587664Y-50538794D01*
X111587671Y-50538798D01*
X111722517Y-50589092D01*
X111722516Y-50589092D01*
X111729444Y-50589836D01*
X111782127Y-50595501D01*
X114277872Y-50595500D01*
X114337483Y-50589092D01*
X114472331Y-50538797D01*
X114587546Y-50452547D01*
X114673796Y-50337332D01*
X114724091Y-50202484D01*
X114730500Y-50142874D01*
X114730499Y-47647129D01*
X114724091Y-47587518D01*
X114724090Y-47587516D01*
X114673797Y-47452672D01*
X114673793Y-47452665D01*
X114587547Y-47337456D01*
X114587544Y-47337453D01*
X114472335Y-47251207D01*
X114472328Y-47251203D01*
X114337482Y-47200909D01*
X114337483Y-47200909D01*
X114277883Y-47194502D01*
X114277881Y-47194501D01*
X114277873Y-47194501D01*
X114277864Y-47194501D01*
X111782129Y-47194501D01*
X111782123Y-47194502D01*
X111722516Y-47200909D01*
X111587671Y-47251203D01*
X111587664Y-47251207D01*
X111472455Y-47337453D01*
X111472452Y-47337456D01*
X111386206Y-47452665D01*
X111386202Y-47452672D01*
X111335908Y-47587518D01*
X111329501Y-47647116D01*
X111329501Y-47647124D01*
X111329500Y-47647136D01*
X111329500Y-50142871D01*
X100760500Y-50142871D01*
X100760499Y-47647128D01*
X100754091Y-47587517D01*
X100703796Y-47452669D01*
X100703795Y-47452668D01*
X100703793Y-47452664D01*
X100617547Y-47337455D01*
X100617544Y-47337452D01*
X100502335Y-47251206D01*
X100502328Y-47251202D01*
X100367482Y-47200908D01*
X100367483Y-47200908D01*
X100307883Y-47194501D01*
X100307881Y-47194500D01*
X100307873Y-47194500D01*
X100307864Y-47194500D01*
X97812129Y-47194500D01*
X97812123Y-47194501D01*
X97752516Y-47200908D01*
X97617671Y-47251202D01*
X97617664Y-47251206D01*
X97502455Y-47337452D01*
X97502452Y-47337455D01*
X97416206Y-47452664D01*
X97416202Y-47452671D01*
X97365908Y-47587517D01*
X97359501Y-47647116D01*
X97359501Y-47647124D01*
X97359500Y-47647135D01*
X97359500Y-50142870D01*
X86790500Y-50142870D01*
X86790499Y-47647128D01*
X86784091Y-47587517D01*
X86733796Y-47452669D01*
X86733795Y-47452668D01*
X86733793Y-47452664D01*
X86647547Y-47337455D01*
X86647544Y-47337452D01*
X86532335Y-47251206D01*
X86532328Y-47251202D01*
X86397482Y-47200908D01*
X86397483Y-47200908D01*
X86337883Y-47194501D01*
X86337881Y-47194500D01*
X86337873Y-47194500D01*
X86337864Y-47194500D01*
X83842129Y-47194500D01*
X83842123Y-47194501D01*
X83782516Y-47200908D01*
X83647671Y-47251202D01*
X83647664Y-47251206D01*
X83532455Y-47337452D01*
X83532452Y-47337455D01*
X83446206Y-47452664D01*
X83446202Y-47452671D01*
X83395908Y-47587517D01*
X83389501Y-47647116D01*
X83389501Y-47647124D01*
X83389500Y-47647135D01*
X83389500Y-50142870D01*
X67627963Y-50142870D01*
X67597547Y-50102240D01*
X67597544Y-50102237D01*
X67482335Y-50015991D01*
X67482328Y-50015987D01*
X67347483Y-49965693D01*
X67286243Y-49959109D01*
X67221692Y-49932370D01*
X67181845Y-49874977D01*
X67175500Y-49835820D01*
X67175500Y-41252870D01*
X83389500Y-41252870D01*
X83389501Y-41252876D01*
X83395908Y-41312483D01*
X83446202Y-41447328D01*
X83446206Y-41447335D01*
X83532452Y-41562544D01*
X83532455Y-41562547D01*
X83647664Y-41648793D01*
X83647671Y-41648797D01*
X83782517Y-41699091D01*
X83782516Y-41699091D01*
X83789444Y-41699835D01*
X83842127Y-41705500D01*
X86337872Y-41705499D01*
X86397483Y-41699091D01*
X86532331Y-41648796D01*
X86647546Y-41562546D01*
X86733796Y-41447331D01*
X86784091Y-41312483D01*
X86790500Y-41252873D01*
X86790500Y-41252870D01*
X97359500Y-41252870D01*
X97359501Y-41252876D01*
X97365908Y-41312483D01*
X97416202Y-41447328D01*
X97416206Y-41447335D01*
X97502452Y-41562544D01*
X97502455Y-41562547D01*
X97617664Y-41648793D01*
X97617671Y-41648797D01*
X97752517Y-41699091D01*
X97752516Y-41699091D01*
X97759444Y-41699835D01*
X97812127Y-41705500D01*
X100307872Y-41705499D01*
X100367483Y-41699091D01*
X100502331Y-41648796D01*
X100617546Y-41562546D01*
X100703796Y-41447331D01*
X100754091Y-41312483D01*
X100760500Y-41252873D01*
X100760500Y-41252870D01*
X111329500Y-41252870D01*
X111329501Y-41252876D01*
X111335908Y-41312483D01*
X111386202Y-41447328D01*
X111386206Y-41447335D01*
X111472452Y-41562544D01*
X111472455Y-41562547D01*
X111587664Y-41648793D01*
X111587671Y-41648797D01*
X111722517Y-41699091D01*
X111722516Y-41699091D01*
X111729444Y-41699835D01*
X111782127Y-41705500D01*
X114277872Y-41705499D01*
X114337483Y-41699091D01*
X114472331Y-41648796D01*
X114587546Y-41562546D01*
X114673796Y-41447331D01*
X114724091Y-41312483D01*
X114730500Y-41252873D01*
X114730499Y-38757128D01*
X114724091Y-38697517D01*
X114722991Y-38694569D01*
X114673797Y-38562671D01*
X114673793Y-38562664D01*
X114587547Y-38447455D01*
X114587544Y-38447452D01*
X114472335Y-38361206D01*
X114472328Y-38361202D01*
X114337482Y-38310908D01*
X114337483Y-38310908D01*
X114277883Y-38304501D01*
X114277881Y-38304500D01*
X114277873Y-38304500D01*
X114277864Y-38304500D01*
X111782129Y-38304500D01*
X111782123Y-38304501D01*
X111722516Y-38310908D01*
X111587671Y-38361202D01*
X111587664Y-38361206D01*
X111472455Y-38447452D01*
X111472452Y-38447455D01*
X111386206Y-38562664D01*
X111386202Y-38562671D01*
X111335908Y-38697517D01*
X111332685Y-38727500D01*
X111329501Y-38757123D01*
X111329500Y-38757135D01*
X111329500Y-41252870D01*
X100760500Y-41252870D01*
X100760499Y-38757128D01*
X100754091Y-38697517D01*
X100752991Y-38694569D01*
X100703797Y-38562671D01*
X100703793Y-38562664D01*
X100617547Y-38447455D01*
X100617544Y-38447452D01*
X100502335Y-38361206D01*
X100502328Y-38361202D01*
X100367482Y-38310908D01*
X100367483Y-38310908D01*
X100307883Y-38304501D01*
X100307881Y-38304500D01*
X100307873Y-38304500D01*
X100307864Y-38304500D01*
X97812129Y-38304500D01*
X97812123Y-38304501D01*
X97752516Y-38310908D01*
X97617671Y-38361202D01*
X97617664Y-38361206D01*
X97502455Y-38447452D01*
X97502452Y-38447455D01*
X97416206Y-38562664D01*
X97416202Y-38562671D01*
X97365908Y-38697517D01*
X97362685Y-38727500D01*
X97359501Y-38757123D01*
X97359500Y-38757135D01*
X97359500Y-41252870D01*
X86790500Y-41252870D01*
X86790499Y-38757128D01*
X86784091Y-38697517D01*
X86782991Y-38694569D01*
X86733797Y-38562671D01*
X86733793Y-38562664D01*
X86647547Y-38447455D01*
X86647544Y-38447452D01*
X86532335Y-38361206D01*
X86532328Y-38361202D01*
X86397482Y-38310908D01*
X86397483Y-38310908D01*
X86337883Y-38304501D01*
X86337881Y-38304500D01*
X86337873Y-38304500D01*
X86337864Y-38304500D01*
X83842129Y-38304500D01*
X83842123Y-38304501D01*
X83782516Y-38310908D01*
X83647671Y-38361202D01*
X83647664Y-38361206D01*
X83532455Y-38447452D01*
X83532452Y-38447455D01*
X83446206Y-38562664D01*
X83446202Y-38562671D01*
X83395908Y-38697517D01*
X83392685Y-38727500D01*
X83389501Y-38757123D01*
X83389500Y-38757135D01*
X83389500Y-41252870D01*
X67175500Y-41252870D01*
X67175500Y-40042629D01*
X67161945Y-39957051D01*
X67147541Y-39866103D01*
X67092310Y-39696120D01*
X67052511Y-39618011D01*
X67011167Y-39536868D01*
X66906111Y-39392272D01*
X66779728Y-39265889D01*
X64736819Y-37222980D01*
X64703334Y-37161657D01*
X64700500Y-37135299D01*
X64700500Y-36994634D01*
X64672540Y-36818103D01*
X64672539Y-36818099D01*
X64672539Y-36818098D01*
X64617310Y-36648121D01*
X64617308Y-36648118D01*
X64536166Y-36488867D01*
X64512420Y-36456184D01*
X64431111Y-36344272D01*
X64304728Y-36217889D01*
X64160132Y-36112833D01*
X64000881Y-36031691D01*
X64000878Y-36031689D01*
X63830899Y-35976460D01*
X63713209Y-35957820D01*
X63654366Y-35948500D01*
X63475634Y-35948500D01*
X63416790Y-35957820D01*
X63299101Y-35976460D01*
X63299098Y-35976460D01*
X63129121Y-36031689D01*
X63129118Y-36031691D01*
X62969867Y-36112833D01*
X62825270Y-36217890D01*
X62698890Y-36344270D01*
X62593833Y-36488867D01*
X62512691Y-36648118D01*
X62512689Y-36648121D01*
X62457460Y-36818098D01*
X62457460Y-36818101D01*
X62429500Y-36994634D01*
X62429500Y-37746370D01*
X51300500Y-37746370D01*
X51300500Y-29472870D01*
X72583500Y-29472870D01*
X72583501Y-29472876D01*
X72589908Y-29532483D01*
X72640202Y-29667328D01*
X72640206Y-29667335D01*
X72726452Y-29782544D01*
X72726455Y-29782547D01*
X72841664Y-29868793D01*
X72841671Y-29868797D01*
X72976517Y-29919091D01*
X72976516Y-29919091D01*
X72983444Y-29919835D01*
X73036127Y-29925500D01*
X74831872Y-29925499D01*
X74891483Y-29919091D01*
X75026331Y-29868796D01*
X75141546Y-29782546D01*
X75227796Y-29667331D01*
X75270303Y-29553365D01*
X83700500Y-29553365D01*
X83728460Y-29729898D01*
X83728460Y-29729901D01*
X83783689Y-29899878D01*
X83783691Y-29899881D01*
X83864833Y-30059132D01*
X83969889Y-30203728D01*
X84096272Y-30330111D01*
X84240868Y-30435167D01*
X84400119Y-30516309D01*
X84400121Y-30516310D01*
X84558670Y-30567825D01*
X84570103Y-30571540D01*
X84746634Y-30599500D01*
X113270299Y-30599500D01*
X113337338Y-30619185D01*
X113357980Y-30635819D01*
X121053889Y-38331728D01*
X121180272Y-38458111D01*
X121276669Y-38528148D01*
X121324869Y-38563168D01*
X121407708Y-38605375D01*
X121484119Y-38644309D01*
X121525802Y-38657851D01*
X121525804Y-38657853D01*
X121525805Y-38657853D01*
X121557880Y-38668275D01*
X121654103Y-38699541D01*
X121729759Y-38711523D01*
X121830630Y-38727500D01*
X121830634Y-38727500D01*
X136487370Y-38727500D01*
X136579233Y-38712950D01*
X136663897Y-38699541D01*
X136679198Y-38694568D01*
X136717519Y-38688499D01*
X137549871Y-38688499D01*
X137549872Y-38688499D01*
X137609483Y-38682091D01*
X137744331Y-38631796D01*
X137859546Y-38545546D01*
X137945796Y-38430331D01*
X137996091Y-38295483D01*
X138002500Y-38235873D01*
X138002499Y-36440128D01*
X137996091Y-36380517D01*
X137945796Y-36245669D01*
X137945795Y-36245668D01*
X137945793Y-36245664D01*
X137859547Y-36130455D01*
X137859544Y-36130452D01*
X137744335Y-36044206D01*
X137744328Y-36044202D01*
X137609482Y-35993908D01*
X137609483Y-35993908D01*
X137549883Y-35987501D01*
X137549881Y-35987500D01*
X137549873Y-35987500D01*
X137549864Y-35987500D01*
X135754129Y-35987500D01*
X135754123Y-35987501D01*
X135694516Y-35993908D01*
X135559671Y-36044202D01*
X135559664Y-36044206D01*
X135444455Y-36130452D01*
X135444452Y-36130455D01*
X135358206Y-36245664D01*
X135358202Y-36245671D01*
X135309656Y-36375833D01*
X135267785Y-36431767D01*
X135202321Y-36456184D01*
X135193474Y-36456500D01*
X122441701Y-36456500D01*
X122374662Y-36436815D01*
X122354020Y-36420181D01*
X115381709Y-29447870D01*
X123764500Y-29447870D01*
X123764501Y-29447876D01*
X123770908Y-29507483D01*
X123821202Y-29642328D01*
X123821206Y-29642335D01*
X123907452Y-29757544D01*
X123907455Y-29757547D01*
X124022664Y-29843793D01*
X124022671Y-29843797D01*
X124157517Y-29894091D01*
X124157516Y-29894091D01*
X124164444Y-29894835D01*
X124217127Y-29900500D01*
X126012872Y-29900499D01*
X126072483Y-29894091D01*
X126207331Y-29843796D01*
X126322546Y-29757546D01*
X126408796Y-29642331D01*
X126459091Y-29507483D01*
X126465500Y-29447873D01*
X126465499Y-27652128D01*
X126459091Y-27592517D01*
X126418120Y-27482669D01*
X126408797Y-27457671D01*
X126408793Y-27457664D01*
X126322547Y-27342455D01*
X126322544Y-27342452D01*
X126207335Y-27256206D01*
X126207328Y-27256202D01*
X126072482Y-27205908D01*
X126072483Y-27205908D01*
X126012883Y-27199501D01*
X126012881Y-27199500D01*
X126012873Y-27199500D01*
X126012864Y-27199500D01*
X124217129Y-27199500D01*
X124217123Y-27199501D01*
X124157516Y-27205908D01*
X124022671Y-27256202D01*
X124022664Y-27256206D01*
X123907455Y-27342452D01*
X123907452Y-27342455D01*
X123821206Y-27457664D01*
X123821202Y-27457671D01*
X123770908Y-27592517D01*
X123764501Y-27652116D01*
X123764501Y-27652123D01*
X123764500Y-27652135D01*
X123764500Y-29447870D01*
X115381709Y-29447870D01*
X114531729Y-28597890D01*
X114409532Y-28509108D01*
X114387131Y-28492832D01*
X114227881Y-28411691D01*
X114227875Y-28411688D01*
X114186194Y-28398146D01*
X114119453Y-28376460D01*
X114057897Y-28356459D01*
X114057895Y-28356458D01*
X114057894Y-28356458D01*
X113881370Y-28328500D01*
X113881366Y-28328500D01*
X84746634Y-28328500D01*
X84687790Y-28337820D01*
X84570101Y-28356460D01*
X84570098Y-28356460D01*
X84400121Y-28411689D01*
X84400118Y-28411691D01*
X84240867Y-28492833D01*
X84096270Y-28597890D01*
X83969890Y-28724270D01*
X83864833Y-28868867D01*
X83783691Y-29028118D01*
X83783689Y-29028121D01*
X83728460Y-29198098D01*
X83728460Y-29198101D01*
X83700500Y-29374634D01*
X83700500Y-29553365D01*
X75270303Y-29553365D01*
X75278091Y-29532483D01*
X75284500Y-29472873D01*
X75284499Y-27677128D01*
X75278091Y-27617517D01*
X75268766Y-27592516D01*
X75227797Y-27482671D01*
X75227793Y-27482664D01*
X75141547Y-27367455D01*
X75141544Y-27367452D01*
X75026335Y-27281206D01*
X75026328Y-27281202D01*
X74891482Y-27230908D01*
X74891483Y-27230908D01*
X74831883Y-27224501D01*
X74831881Y-27224500D01*
X74831873Y-27224500D01*
X74831864Y-27224500D01*
X73036129Y-27224500D01*
X73036123Y-27224501D01*
X72976516Y-27230908D01*
X72841671Y-27281202D01*
X72841664Y-27281206D01*
X72726455Y-27367452D01*
X72726452Y-27367455D01*
X72640206Y-27482664D01*
X72640202Y-27482671D01*
X72589908Y-27617517D01*
X72586187Y-27652135D01*
X72583501Y-27677123D01*
X72583500Y-27677135D01*
X72583500Y-29472870D01*
X51300500Y-29472870D01*
X51300500Y-28578480D01*
X51300695Y-28571527D01*
X51305114Y-28492833D01*
X51316927Y-28282490D01*
X51318481Y-28268696D01*
X51366389Y-27986730D01*
X51369482Y-27973178D01*
X51448657Y-27698357D01*
X51453250Y-27685232D01*
X51562699Y-27420997D01*
X51568719Y-27408498D01*
X51707076Y-27158159D01*
X51714463Y-27146404D01*
X51879968Y-26913147D01*
X51888614Y-26902304D01*
X52079212Y-26689024D01*
X52089024Y-26679212D01*
X52302304Y-26488614D01*
X52313147Y-26479968D01*
X52546404Y-26314463D01*
X52558159Y-26307076D01*
X52808498Y-26168719D01*
X52820997Y-26162699D01*
X53085236Y-26053248D01*
X53098353Y-26048658D01*
X53373184Y-25969480D01*
X53386730Y-25966389D01*
X53668696Y-25918481D01*
X53682490Y-25916927D01*
X53971528Y-25900695D01*
X53978481Y-25900500D01*
X54040892Y-25900500D01*
X136459108Y-25900500D01*
X136521519Y-25900500D01*
X136528472Y-25900695D01*
G37*
%TD.AperFunction*%
%TD*%
%TA.AperFunction,Conductor*%
%TO.N,VCC*%
G36*
X132658039Y-43199685D02*
G01*
X132703794Y-43252489D01*
X132715000Y-43304000D01*
X132715000Y-55756000D01*
X132695315Y-55823039D01*
X132642511Y-55868794D01*
X132591000Y-55880000D01*
X122044000Y-55880000D01*
X121976961Y-55860315D01*
X121931206Y-55807511D01*
X121920000Y-55756000D01*
X121920000Y-43304000D01*
X121939685Y-43236961D01*
X121992489Y-43191206D01*
X122044000Y-43180000D01*
X132591000Y-43180000D01*
X132658039Y-43199685D01*
G37*
%TD.AperFunction*%
%TD*%
M02*
