%TF.GenerationSoftware,KiCad,Pcbnew,8.0.0*%
%TF.CreationDate,2024-06-21T14:10:28-04:00*%
%TF.ProjectId,GaN Drain Driver,47614e20-4472-4616-996e-204472697665,v1.0*%
%TF.SameCoordinates,Original*%
%TF.FileFunction,Copper,L1,Top*%
%TF.FilePolarity,Positive*%
%FSLAX46Y46*%
G04 Gerber Fmt 4.6, Leading zero omitted, Abs format (unit mm)*
G04 Created by KiCad (PCBNEW 8.0.0) date 2024-06-21 14:10:28*
%MOMM*%
%LPD*%
G01*
G04 APERTURE LIST*
G04 Aperture macros list*
%AMRoundRect*
0 Rectangle with rounded corners*
0 $1 Rounding radius*
0 $2 $3 $4 $5 $6 $7 $8 $9 X,Y pos of 4 corners*
0 Add a 4 corners polygon primitive as box body*
4,1,4,$2,$3,$4,$5,$6,$7,$8,$9,$2,$3,0*
0 Add four circle primitives for the rounded corners*
1,1,$1+$1,$2,$3*
1,1,$1+$1,$4,$5*
1,1,$1+$1,$6,$7*
1,1,$1+$1,$8,$9*
0 Add four rect primitives between the rounded corners*
20,1,$1+$1,$2,$3,$4,$5,0*
20,1,$1+$1,$4,$5,$6,$7,0*
20,1,$1+$1,$6,$7,$8,$9,0*
20,1,$1+$1,$8,$9,$2,$3,0*%
G04 Aperture macros list end*
%TA.AperFunction,SMDPad,CuDef*%
%ADD10RoundRect,0.250000X-0.475000X0.250000X-0.475000X-0.250000X0.475000X-0.250000X0.475000X0.250000X0*%
%TD*%
%TA.AperFunction,ComponentPad*%
%ADD11R,2.400000X2.400000*%
%TD*%
%TA.AperFunction,ComponentPad*%
%ADD12C,2.400000*%
%TD*%
%TA.AperFunction,SMDPad,CuDef*%
%ADD13RoundRect,0.250000X0.250000X0.475000X-0.250000X0.475000X-0.250000X-0.475000X0.250000X-0.475000X0*%
%TD*%
%TA.AperFunction,ComponentPad*%
%ADD14R,1.700000X1.700000*%
%TD*%
%TA.AperFunction,ComponentPad*%
%ADD15O,1.700000X1.700000*%
%TD*%
%TA.AperFunction,SMDPad,CuDef*%
%ADD16RoundRect,0.150000X-0.825000X-0.150000X0.825000X-0.150000X0.825000X0.150000X-0.825000X0.150000X0*%
%TD*%
%TA.AperFunction,ComponentPad*%
%ADD17C,5.562600*%
%TD*%
%TA.AperFunction,SMDPad,CuDef*%
%ADD18RoundRect,0.225000X0.225000X0.375000X-0.225000X0.375000X-0.225000X-0.375000X0.225000X-0.375000X0*%
%TD*%
%TA.AperFunction,SMDPad,CuDef*%
%ADD19RoundRect,0.250000X-0.262500X-0.450000X0.262500X-0.450000X0.262500X0.450000X-0.262500X0.450000X0*%
%TD*%
%TA.AperFunction,SMDPad,CuDef*%
%ADD20RoundRect,0.250000X2.050000X0.300000X-2.050000X0.300000X-2.050000X-0.300000X2.050000X-0.300000X0*%
%TD*%
%TA.AperFunction,SMDPad,CuDef*%
%ADD21RoundRect,0.250000X2.025000X2.375000X-2.025000X2.375000X-2.025000X-2.375000X2.025000X-2.375000X0*%
%TD*%
%TA.AperFunction,SMDPad,CuDef*%
%ADD22RoundRect,0.250002X4.449998X5.149998X-4.449998X5.149998X-4.449998X-5.149998X4.449998X-5.149998X0*%
%TD*%
%TA.AperFunction,SMDPad,CuDef*%
%ADD23R,1.270000X3.600000*%
%TD*%
%TA.AperFunction,SMDPad,CuDef*%
%ADD24R,1.350000X4.200000*%
%TD*%
%TA.AperFunction,SMDPad,CuDef*%
%ADD25RoundRect,0.250000X-0.450000X0.262500X-0.450000X-0.262500X0.450000X-0.262500X0.450000X0.262500X0*%
%TD*%
%TA.AperFunction,ViaPad*%
%ADD26C,0.600000*%
%TD*%
%TA.AperFunction,Conductor*%
%ADD27C,1.270000*%
%TD*%
%TA.AperFunction,Conductor*%
%ADD28C,0.635000*%
%TD*%
G04 APERTURE END LIST*
D10*
%TO.P,C13,1*%
%TO.N,VCC*%
X121920000Y-56200000D03*
%TO.P,C13,2*%
%TO.N,GND*%
X121920000Y-58100000D03*
%TD*%
D11*
%TO.P,C6,1*%
%TO.N,VCC*%
X99060000Y-48895000D03*
D12*
%TO.P,C6,2*%
%TO.N,GND*%
X99060000Y-53895000D03*
%TD*%
D11*
%TO.P,C9,1*%
%TO.N,+15V*%
X66040000Y-51659785D03*
D12*
%TO.P,C9,2*%
%TO.N,GND*%
X66040000Y-56659785D03*
%TD*%
D13*
%TO.P,C8,1*%
%TO.N,+15V*%
X71115000Y-28575000D03*
%TO.P,C8,2*%
%TO.N,GND*%
X69215000Y-28575000D03*
%TD*%
D10*
%TO.P,C1,1*%
%TO.N,Net-(D1-K)*%
X72390000Y-38105000D03*
%TO.P,C1,2*%
%TO.N,AMP_DRAIN*%
X72390000Y-40005000D03*
%TD*%
D11*
%TO.P,C5,1*%
%TO.N,VCC*%
X85090000Y-48895000D03*
D12*
%TO.P,C5,2*%
%TO.N,GND*%
X85090000Y-53895000D03*
%TD*%
D14*
%TO.P,J2,1,Pin_1*%
%TO.N,AMP_DRAIN*%
X136652000Y-37338000D03*
D15*
%TO.P,J2,2,Pin_2*%
%TO.N,GND*%
X136652000Y-34798000D03*
%TD*%
D16*
%TO.P,U1,1,VCC*%
%TO.N,+15V*%
X63565000Y-38100000D03*
%TO.P,U1,2,HIN*%
%TO.N,Net-(J1-In)*%
X63565000Y-39370000D03*
%TO.P,U1,3,LIN*%
%TO.N,GND*%
X63565000Y-40640000D03*
%TO.P,U1,4,COM*%
X63565000Y-41910000D03*
%TO.P,U1,5,LO*%
%TO.N,unconnected-(U1-LO-Pad5)*%
X68515000Y-41910000D03*
%TO.P,U1,6,VS*%
%TO.N,AMP_DRAIN*%
X68515000Y-40640000D03*
%TO.P,U1,7,HO*%
%TO.N,Net-(U1-HO)*%
X68515000Y-39370000D03*
%TO.P,U1,8,VB*%
%TO.N,Net-(D1-K)*%
X68515000Y-38100000D03*
%TD*%
D17*
%TO.P,H4,1,1*%
%TO.N,GND*%
X53975000Y-60325000D03*
%TD*%
D11*
%TO.P,C3,1*%
%TO.N,VCC*%
X99060000Y-40005000D03*
D12*
%TO.P,C3,2*%
%TO.N,GND*%
X99060000Y-35005000D03*
%TD*%
D17*
%TO.P,H3,1,1*%
%TO.N,GND*%
X136525000Y-60325000D03*
%TD*%
D14*
%TO.P,J4,1,Pin_1*%
%TO.N,VCC*%
X125115000Y-28550000D03*
D15*
%TO.P,J4,2,Pin_2*%
%TO.N,GND*%
X127655000Y-28550000D03*
%TD*%
D18*
%TO.P,D1,1,K*%
%TO.N,Net-(D1-K)*%
X67690000Y-35560000D03*
%TO.P,D1,2,A*%
%TO.N,+15V*%
X64390000Y-35560000D03*
%TD*%
D11*
%TO.P,C7,1*%
%TO.N,VCC*%
X113030000Y-48895001D03*
D12*
%TO.P,C7,2*%
%TO.N,GND*%
X113030000Y-53895001D03*
%TD*%
D14*
%TO.P,J3,1,Pin_1*%
%TO.N,+15V*%
X73934000Y-28575000D03*
D15*
%TO.P,J3,2,Pin_2*%
%TO.N,GND*%
X76474000Y-28575000D03*
%TD*%
D19*
%TO.P,R1,1*%
%TO.N,Net-(U1-HO)*%
X65127500Y-44450000D03*
%TO.P,R1,2*%
%TO.N,Net-(Q1-G)*%
X66952500Y-44450000D03*
%TD*%
D11*
%TO.P,C2,1*%
%TO.N,VCC*%
X85090000Y-40005000D03*
D12*
%TO.P,C2,2*%
%TO.N,GND*%
X85090000Y-35005000D03*
%TD*%
D10*
%TO.P,C11,1*%
%TO.N,VCC*%
X126238000Y-56200000D03*
%TO.P,C11,2*%
%TO.N,GND*%
X126238000Y-58100000D03*
%TD*%
%TO.P,C10,1*%
%TO.N,VCC*%
X128397000Y-56200000D03*
%TO.P,C10,2*%
%TO.N,GND*%
X128397000Y-58100000D03*
%TD*%
D20*
%TO.P,Q1,1,G*%
%TO.N,Net-(Q1-G)*%
X136555000Y-52070000D03*
D21*
%TO.P,Q1,2,D*%
%TO.N,VCC*%
X129830000Y-52305000D03*
X129830000Y-46755000D03*
D22*
X127405000Y-49530000D03*
D21*
X124980000Y-52305000D03*
X124980000Y-46755000D03*
D20*
%TO.P,Q1,3,S*%
%TO.N,AMP_DRAIN*%
X136555000Y-46990000D03*
%TD*%
D23*
%TO.P,J1,1,In*%
%TO.N,Net-(J1-In)*%
X63500000Y-27322500D03*
D24*
%TO.P,J1,2,Ext*%
%TO.N,GND*%
X66325000Y-27522500D03*
X60675000Y-27522500D03*
%TD*%
D11*
%TO.P,C4,1*%
%TO.N,VCC*%
X113030000Y-40005000D03*
D12*
%TO.P,C4,2*%
%TO.N,GND*%
X113030000Y-35005000D03*
%TD*%
D17*
%TO.P,H1,1,1*%
%TO.N,GND*%
X136525000Y-28575000D03*
%TD*%
D10*
%TO.P,C12,1*%
%TO.N,VCC*%
X124079000Y-56200000D03*
%TO.P,C12,2*%
%TO.N,GND*%
X124079000Y-58100000D03*
%TD*%
D17*
%TO.P,H2,1,1*%
%TO.N,GND*%
X53975000Y-28575000D03*
%TD*%
D25*
%TO.P,R2,1*%
%TO.N,Net-(J1-In)*%
X59690000Y-38203500D03*
%TO.P,R2,2*%
%TO.N,GND*%
X59690000Y-40028500D03*
%TD*%
D26*
%TO.N,AMP_DRAIN*%
X84836000Y-29464000D03*
%TO.N,VCC*%
X130810000Y-53340000D03*
X123190000Y-44450000D03*
X127000000Y-44450000D03*
X123190000Y-50800000D03*
X124460000Y-45720000D03*
X127000000Y-49530000D03*
X125730000Y-49530000D03*
X130810000Y-49530000D03*
X123190000Y-46990000D03*
X125730000Y-44450000D03*
X123190000Y-48260000D03*
X125730000Y-45720000D03*
X128270000Y-54610000D03*
X129540000Y-46990000D03*
X123190000Y-54610000D03*
X124460000Y-53340000D03*
X129540000Y-48260000D03*
X130810000Y-44450000D03*
X124460000Y-46990000D03*
X130810000Y-52070000D03*
X128270000Y-44450000D03*
X127000000Y-46990000D03*
X130810000Y-54610000D03*
X130810000Y-48260000D03*
X124460000Y-49530000D03*
X128270000Y-45720000D03*
X127000000Y-45720000D03*
X125730000Y-48260000D03*
X129540000Y-44450000D03*
X129540000Y-49530000D03*
X124460000Y-44450000D03*
X127000000Y-50800000D03*
X129540000Y-52070000D03*
X127000000Y-52070000D03*
X125730000Y-50800000D03*
X127000000Y-54610000D03*
X129540000Y-54610000D03*
X123190000Y-53340000D03*
X127000000Y-53340000D03*
X128270000Y-46990000D03*
X130810000Y-50800000D03*
X129540000Y-45720000D03*
X124460000Y-52070000D03*
X129540000Y-53340000D03*
X127000000Y-48260000D03*
X128270000Y-48260000D03*
X124460000Y-50800000D03*
X124460000Y-54610000D03*
X125730000Y-46990000D03*
X125730000Y-53340000D03*
X129540000Y-50800000D03*
X123190000Y-45720000D03*
X128270000Y-50800000D03*
X128270000Y-49530000D03*
X130810000Y-45720000D03*
X125730000Y-52070000D03*
X125730000Y-54610000D03*
X123190000Y-52070000D03*
X123190000Y-49530000D03*
X130810000Y-46990000D03*
X128270000Y-52070000D03*
X124460000Y-48260000D03*
X128270000Y-53340000D03*
%TO.N,GND*%
X57150000Y-38100000D03*
X129667000Y-57785000D03*
X57150000Y-57150000D03*
X53975000Y-34925000D03*
X127635000Y-57785000D03*
X53975000Y-47625000D03*
X69215000Y-34290000D03*
X74295000Y-57150000D03*
X53975000Y-41275000D03*
X57150000Y-44450000D03*
X85090000Y-27305000D03*
X92075000Y-57150000D03*
X99060000Y-27305000D03*
X106045000Y-57150000D03*
X113030000Y-62230000D03*
X53975000Y-53975000D03*
X136525000Y-49530000D03*
X125095000Y-57531000D03*
X92075000Y-33020000D03*
X106045000Y-33020000D03*
X128905000Y-35560000D03*
X74930000Y-45085000D03*
X74295000Y-38100000D03*
X113030000Y-27305000D03*
X70485000Y-36195000D03*
X57150000Y-31750000D03*
X122936000Y-57531000D03*
X66040000Y-37465000D03*
X84455000Y-62230000D03*
X74295000Y-32385000D03*
X120650000Y-57531000D03*
X73025000Y-34925000D03*
X98425000Y-62230000D03*
X57150000Y-50800000D03*
%TO.N,+15V*%
X63565000Y-37084000D03*
%TD*%
D27*
%TO.N,AMP_DRAIN*%
X136555000Y-37435000D02*
X136555000Y-46990000D01*
X81661000Y-29464000D02*
X76200000Y-34925000D01*
D28*
X71755000Y-40640000D02*
X72390000Y-40005000D01*
D27*
X76200000Y-34925000D02*
X76200000Y-38735000D01*
D28*
X68515000Y-40640000D02*
X71755000Y-40640000D01*
D27*
X74930000Y-40005000D02*
X72390000Y-40005000D01*
X84836000Y-29464000D02*
X81661000Y-29464000D01*
X136652000Y-37338000D02*
X136555000Y-37435000D01*
X76200000Y-38735000D02*
X74930000Y-40005000D01*
D28*
%TO.N,Net-(D1-K)*%
X68515000Y-36385000D02*
X67690000Y-35560000D01*
X68515000Y-38100000D02*
X72385000Y-38100000D01*
X68515000Y-38100000D02*
X68515000Y-36385000D01*
X72385000Y-38100000D02*
X72390000Y-38105000D01*
D27*
%TO.N,VCC*%
X124460000Y-44450000D02*
X125730000Y-45720000D01*
X125115000Y-45105000D02*
X124460000Y-45720000D01*
X125730000Y-45720000D02*
X125115000Y-45105000D01*
X125115000Y-47240000D02*
X127405000Y-49530000D01*
X124460000Y-44450000D02*
X124460000Y-44450000D01*
X125115000Y-28550000D02*
X125115000Y-46620000D01*
X125730000Y-44450000D02*
X124460000Y-44450000D01*
X125115000Y-46620000D02*
X124980000Y-46755000D01*
X124460000Y-45720000D02*
X125115000Y-47240000D01*
%TO.N,+15V*%
X71140000Y-31095000D02*
X71140000Y-28600000D01*
X71140000Y-28600000D02*
X71115000Y-28575000D01*
X64390000Y-35560000D02*
X67565000Y-32385000D01*
X73934000Y-28575000D02*
X71115000Y-28575000D01*
X69850000Y-32385000D02*
X71140000Y-31095000D01*
D28*
X63565000Y-38100000D02*
X63565000Y-36385000D01*
X63565000Y-36385000D02*
X64390000Y-35560000D01*
D27*
X67565000Y-32385000D02*
X69850000Y-32385000D01*
D28*
X63565000Y-37084000D02*
X63565000Y-36385000D01*
%TO.N,Net-(J1-In)*%
X59690000Y-35814000D02*
X59690000Y-38203500D01*
X61063500Y-38203500D02*
X59690000Y-38203500D01*
X63500000Y-32004000D02*
X59690000Y-35814000D01*
X63565000Y-39370000D02*
X62230000Y-39370000D01*
X63500000Y-27322500D02*
X63500000Y-32004000D01*
X62230000Y-39370000D02*
X61063500Y-38203500D01*
%TO.N,Net-(Q1-G)*%
X67310000Y-44450000D02*
X82804000Y-59944000D01*
X136525000Y-52100000D02*
X136555000Y-52070000D01*
X130556000Y-59944000D02*
X136525000Y-53975000D01*
X136525000Y-53975000D02*
X136525000Y-52100000D01*
X66952500Y-44450000D02*
X67310000Y-44450000D01*
X82804000Y-59944000D02*
X130556000Y-59944000D01*
%TO.N,Net-(U1-HO)*%
X68515000Y-39370000D02*
X67540001Y-39370000D01*
X66040000Y-40870001D02*
X66040000Y-42545000D01*
X65127500Y-43457500D02*
X65127500Y-44450000D01*
X67540001Y-39370000D02*
X66040000Y-40870001D01*
X66040000Y-42545000D02*
X65127500Y-43457500D01*
%TD*%
%TA.AperFunction,Conductor*%
%TO.N,AMP_DRAIN*%
G36*
X139008039Y-36341685D02*
G01*
X139053794Y-36394489D01*
X139065000Y-36446000D01*
X139065000Y-47628000D01*
X139045315Y-47695039D01*
X138992511Y-47740794D01*
X138941000Y-47752000D01*
X134109000Y-47752000D01*
X134041961Y-47732315D01*
X133996206Y-47679511D01*
X133985000Y-47628000D01*
X133985000Y-36446000D01*
X134004685Y-36378961D01*
X134057489Y-36333206D01*
X134109000Y-36322000D01*
X138941000Y-36322000D01*
X139008039Y-36341685D01*
G37*
%TD.AperFunction*%
%TD*%
%TA.AperFunction,Conductor*%
%TO.N,VCC*%
G36*
X126308039Y-27324685D02*
G01*
X126353794Y-27377489D01*
X126365000Y-27429000D01*
X126365000Y-28130087D01*
X126360775Y-28162180D01*
X126319938Y-28314586D01*
X126319936Y-28314596D01*
X126299341Y-28549999D01*
X126299341Y-28550000D01*
X126319936Y-28785403D01*
X126319938Y-28785413D01*
X126360775Y-28937818D01*
X126365000Y-28969911D01*
X126365000Y-38100000D01*
X118745000Y-38100000D01*
X118745000Y-27429000D01*
X118764685Y-27361961D01*
X118817489Y-27316206D01*
X118869000Y-27305000D01*
X126241000Y-27305000D01*
X126308039Y-27324685D01*
G37*
%TD.AperFunction*%
%TD*%
%TA.AperFunction,Conductor*%
%TO.N,VCC*%
G36*
X132658039Y-38119685D02*
G01*
X132703794Y-38172489D01*
X132715000Y-38224000D01*
X132715000Y-55756000D01*
X132695315Y-55823039D01*
X132642511Y-55868794D01*
X132591000Y-55880000D01*
X120774000Y-55880000D01*
X120706961Y-55860315D01*
X120661206Y-55807511D01*
X120650000Y-55756000D01*
X120650000Y-50800000D01*
X78864000Y-50800000D01*
X78796961Y-50780315D01*
X78751206Y-50727511D01*
X78740000Y-50676000D01*
X78740000Y-38224000D01*
X78759685Y-38156961D01*
X78812489Y-38111206D01*
X78864000Y-38100000D01*
X118745000Y-38100000D01*
X120650000Y-38100000D01*
X126365000Y-38100000D01*
X132591000Y-38100000D01*
X132658039Y-38119685D01*
G37*
%TD.AperFunction*%
%TD*%
%TA.AperFunction,Conductor*%
%TO.N,GND*%
G36*
X62307539Y-25920185D02*
G01*
X62353294Y-25972989D01*
X62364500Y-26024500D01*
X62364500Y-29170370D01*
X62364501Y-29170376D01*
X62370908Y-29229983D01*
X62421202Y-29364828D01*
X62421206Y-29364835D01*
X62507452Y-29480044D01*
X62507455Y-29480047D01*
X62629769Y-29571612D01*
X62627986Y-29573993D01*
X62666832Y-29612838D01*
X62682000Y-29672266D01*
X62682000Y-31613810D01*
X62662315Y-31680849D01*
X62645681Y-31701491D01*
X59054620Y-35292551D01*
X59054617Y-35292555D01*
X58965100Y-35426525D01*
X58965093Y-35426538D01*
X58903436Y-35575393D01*
X58903433Y-35575405D01*
X58872000Y-35733429D01*
X58872000Y-37216995D01*
X58852315Y-37284034D01*
X58813098Y-37322533D01*
X58771344Y-37348287D01*
X58647289Y-37472342D01*
X58555187Y-37621663D01*
X58555185Y-37621668D01*
X58532673Y-37689606D01*
X58500001Y-37788203D01*
X58500001Y-37788204D01*
X58500000Y-37788204D01*
X58489500Y-37890983D01*
X58489500Y-38516001D01*
X58489501Y-38516019D01*
X58500000Y-38618796D01*
X58500001Y-38618799D01*
X58555185Y-38785331D01*
X58555187Y-38785336D01*
X58575418Y-38818135D01*
X58647288Y-38934656D01*
X58771344Y-39058712D01*
X58920666Y-39150814D01*
X59087203Y-39205999D01*
X59189991Y-39216500D01*
X60190008Y-39216499D01*
X60190016Y-39216498D01*
X60190019Y-39216498D01*
X60246302Y-39210748D01*
X60292797Y-39205999D01*
X60459334Y-39150814D01*
X60608656Y-39058712D01*
X60608657Y-39058710D01*
X60614803Y-39054920D01*
X60615640Y-39056278D01*
X60672456Y-39033357D01*
X60741098Y-39046395D01*
X60772255Y-39069082D01*
X61594617Y-39891444D01*
X61594618Y-39891445D01*
X61708554Y-40005381D01*
X61842533Y-40094903D01*
X61907336Y-40121745D01*
X61991398Y-40156565D01*
X62149429Y-40187999D01*
X62149433Y-40188000D01*
X62149434Y-40188000D01*
X63645567Y-40188000D01*
X63645567Y-40187999D01*
X63721565Y-40172882D01*
X63745756Y-40170500D01*
X64455686Y-40170500D01*
X64455694Y-40170500D01*
X64492569Y-40167598D01*
X64492571Y-40167597D01*
X64492573Y-40167597D01*
X64534191Y-40155505D01*
X64650398Y-40121744D01*
X64791865Y-40038081D01*
X64908081Y-39921865D01*
X64991744Y-39780398D01*
X65037598Y-39622569D01*
X65040500Y-39585694D01*
X65040500Y-39154306D01*
X65037598Y-39117431D01*
X65037597Y-39117429D01*
X65037597Y-39117426D01*
X64991745Y-38959606D01*
X64991744Y-38959603D01*
X64991744Y-38959602D01*
X64908081Y-38818135D01*
X64908078Y-38818132D01*
X64903298Y-38811969D01*
X64905750Y-38810066D01*
X64879155Y-38761421D01*
X64884104Y-38691726D01*
X64904940Y-38659304D01*
X64903298Y-38658031D01*
X64908075Y-38651870D01*
X64908081Y-38651865D01*
X64991744Y-38510398D01*
X65037598Y-38352569D01*
X65040500Y-38315694D01*
X65040500Y-37884306D01*
X65037598Y-37847431D01*
X65035862Y-37841457D01*
X64995404Y-37702200D01*
X64991744Y-37689602D01*
X64908081Y-37548135D01*
X64908079Y-37548133D01*
X64908076Y-37548129D01*
X64791870Y-37431923D01*
X64791862Y-37431917D01*
X64650396Y-37348255D01*
X64650393Y-37348254D01*
X64492573Y-37302402D01*
X64486333Y-37301263D01*
X64486784Y-37298789D01*
X64431923Y-37277842D01*
X64390486Y-37221586D01*
X64383000Y-37179153D01*
X64383000Y-36816669D01*
X64402685Y-36749630D01*
X64455489Y-36703875D01*
X64487602Y-36694196D01*
X64576076Y-36680183D01*
X64655897Y-36667541D01*
X64671523Y-36662463D01*
X64697236Y-36657036D01*
X64762708Y-36650349D01*
X64923697Y-36597003D01*
X65068044Y-36507968D01*
X65187968Y-36388044D01*
X65212834Y-36347728D01*
X65230685Y-36325152D01*
X66529485Y-35026353D01*
X66590807Y-34992869D01*
X66660499Y-34997853D01*
X66716432Y-35039725D01*
X66740849Y-35105189D01*
X66740523Y-35126635D01*
X66739501Y-35136640D01*
X66739500Y-35136660D01*
X66739500Y-35983337D01*
X66739501Y-35983355D01*
X66749650Y-36082707D01*
X66749651Y-36082710D01*
X66802996Y-36243694D01*
X66803001Y-36243705D01*
X66892029Y-36388040D01*
X66892032Y-36388044D01*
X67011955Y-36507967D01*
X67011959Y-36507970D01*
X67156294Y-36596998D01*
X67156297Y-36596999D01*
X67156303Y-36597003D01*
X67317292Y-36650349D01*
X67416655Y-36660500D01*
X67572999Y-36660499D01*
X67640039Y-36680183D01*
X67685794Y-36732987D01*
X67697000Y-36784499D01*
X67697000Y-37179153D01*
X67677315Y-37246192D01*
X67624511Y-37291947D01*
X67593437Y-37300006D01*
X67593667Y-37301263D01*
X67587426Y-37302402D01*
X67429606Y-37348254D01*
X67429603Y-37348255D01*
X67288137Y-37431917D01*
X67288129Y-37431923D01*
X67171923Y-37548129D01*
X67171917Y-37548137D01*
X67088255Y-37689603D01*
X67088254Y-37689606D01*
X67042402Y-37847426D01*
X67042401Y-37847432D01*
X67039500Y-37884298D01*
X67039500Y-38315701D01*
X67042401Y-38352567D01*
X67042402Y-38352573D01*
X67088254Y-38510393D01*
X67088254Y-38510394D01*
X67088255Y-38510396D01*
X67088256Y-38510398D01*
X67103817Y-38536710D01*
X67120998Y-38604434D01*
X67098838Y-38670697D01*
X67065976Y-38702931D01*
X67018559Y-38734615D01*
X67018557Y-38734616D01*
X66967843Y-38785331D01*
X66904619Y-38848555D01*
X66904617Y-38848557D01*
X65404620Y-40348552D01*
X65404617Y-40348556D01*
X65315098Y-40482529D01*
X65296908Y-40526445D01*
X65253436Y-40631394D01*
X65253433Y-40631406D01*
X65222000Y-40789430D01*
X65222000Y-42154810D01*
X65202315Y-42221849D01*
X65185681Y-42242491D01*
X64492120Y-42936051D01*
X64492117Y-42936055D01*
X64402600Y-43070025D01*
X64402593Y-43070038D01*
X64340936Y-43218893D01*
X64340933Y-43218905D01*
X64309500Y-43376929D01*
X64309500Y-43442770D01*
X64289815Y-43509809D01*
X64273181Y-43530451D01*
X64272289Y-43531342D01*
X64180187Y-43680663D01*
X64180186Y-43680666D01*
X64125001Y-43847203D01*
X64125001Y-43847204D01*
X64125000Y-43847204D01*
X64114500Y-43949983D01*
X64114500Y-44950001D01*
X64114501Y-44950019D01*
X64125000Y-45052796D01*
X64125001Y-45052799D01*
X64180185Y-45219331D01*
X64180186Y-45219334D01*
X64272288Y-45368656D01*
X64396344Y-45492712D01*
X64545666Y-45584814D01*
X64712203Y-45639999D01*
X64814991Y-45650500D01*
X65440008Y-45650499D01*
X65440016Y-45650498D01*
X65440019Y-45650498D01*
X65496302Y-45644748D01*
X65542797Y-45639999D01*
X65709334Y-45584814D01*
X65858656Y-45492712D01*
X65952319Y-45399049D01*
X66013642Y-45365564D01*
X66083334Y-45370548D01*
X66127681Y-45399049D01*
X66221344Y-45492712D01*
X66370666Y-45584814D01*
X66537203Y-45639999D01*
X66639991Y-45650500D01*
X67265008Y-45650499D01*
X67286835Y-45648269D01*
X67355527Y-45661038D01*
X67387119Y-45683946D01*
X82282551Y-60579379D01*
X82282555Y-60579382D01*
X82416532Y-60668903D01*
X82490963Y-60699732D01*
X82490964Y-60699733D01*
X82490965Y-60699733D01*
X82565398Y-60730565D01*
X82723429Y-60761999D01*
X82723433Y-60762000D01*
X82723434Y-60762000D01*
X130636567Y-60762000D01*
X130636568Y-60761999D01*
X130794602Y-60730565D01*
X130869035Y-60699733D01*
X130943468Y-60668903D01*
X131077445Y-60579382D01*
X137046442Y-54610383D01*
X137046445Y-54610382D01*
X137160382Y-54496445D01*
X137204281Y-54430745D01*
X137204283Y-54430743D01*
X137227092Y-54396606D01*
X137249903Y-54362468D01*
X137311565Y-54213602D01*
X137339986Y-54070717D01*
X137343000Y-54055566D01*
X137343000Y-53244499D01*
X137362685Y-53177460D01*
X137415489Y-53131705D01*
X137467000Y-53120499D01*
X138655002Y-53120499D01*
X138655008Y-53120499D01*
X138757797Y-53109999D01*
X138924334Y-53054814D01*
X139010404Y-53001725D01*
X139077796Y-52983286D01*
X139144459Y-53004209D01*
X139189229Y-53057851D01*
X139199500Y-53107265D01*
X139199500Y-60321519D01*
X139199305Y-60328472D01*
X139183073Y-60617497D01*
X139181516Y-60631315D01*
X139133611Y-60913264D01*
X139130517Y-60926821D01*
X139051342Y-61201642D01*
X139046749Y-61214767D01*
X138937306Y-61478987D01*
X138931273Y-61491515D01*
X138792929Y-61741830D01*
X138785530Y-61753604D01*
X138620042Y-61986837D01*
X138611373Y-61997709D01*
X138420797Y-62210964D01*
X138410964Y-62220797D01*
X138197709Y-62411373D01*
X138186837Y-62420042D01*
X137953604Y-62585530D01*
X137941830Y-62592929D01*
X137691515Y-62731273D01*
X137678987Y-62737306D01*
X137414767Y-62846749D01*
X137401642Y-62851342D01*
X137126821Y-62930517D01*
X137113264Y-62933611D01*
X136831315Y-62981516D01*
X136817497Y-62983073D01*
X136528472Y-62999305D01*
X136521519Y-62999500D01*
X53978481Y-62999500D01*
X53971528Y-62999305D01*
X53682502Y-62983073D01*
X53668684Y-62981516D01*
X53386735Y-62933611D01*
X53373178Y-62930517D01*
X53098357Y-62851342D01*
X53085232Y-62846749D01*
X52821012Y-62737306D01*
X52808484Y-62731273D01*
X52558169Y-62592929D01*
X52546395Y-62585530D01*
X52313162Y-62420042D01*
X52302290Y-62411373D01*
X52089035Y-62220797D01*
X52079202Y-62210964D01*
X51888626Y-61997709D01*
X51879961Y-61986843D01*
X51714468Y-61753603D01*
X51707070Y-61741830D01*
X51568726Y-61491515D01*
X51562696Y-61478994D01*
X51453250Y-61214767D01*
X51448657Y-61201642D01*
X51369482Y-60926821D01*
X51366388Y-60913264D01*
X51318481Y-60631305D01*
X51316927Y-60617507D01*
X51300695Y-60328472D01*
X51300500Y-60321519D01*
X51300500Y-52907655D01*
X64339500Y-52907655D01*
X64339501Y-52907661D01*
X64345908Y-52967268D01*
X64396202Y-53102113D01*
X64396206Y-53102120D01*
X64482452Y-53217329D01*
X64482455Y-53217332D01*
X64597664Y-53303578D01*
X64597671Y-53303582D01*
X64732517Y-53353876D01*
X64732516Y-53353876D01*
X64739444Y-53354620D01*
X64792127Y-53360285D01*
X67287872Y-53360284D01*
X67347483Y-53353876D01*
X67482331Y-53303581D01*
X67597546Y-53217331D01*
X67683796Y-53102116D01*
X67734091Y-52967268D01*
X67740500Y-52907658D01*
X67740499Y-50411913D01*
X67734091Y-50352302D01*
X67683796Y-50217454D01*
X67683795Y-50217453D01*
X67683793Y-50217449D01*
X67597547Y-50102240D01*
X67597544Y-50102237D01*
X67482335Y-50015991D01*
X67482328Y-50015987D01*
X67347482Y-49965693D01*
X67347483Y-49965693D01*
X67287883Y-49959286D01*
X67287881Y-49959285D01*
X67287873Y-49959285D01*
X67287864Y-49959285D01*
X64792129Y-49959285D01*
X64792123Y-49959286D01*
X64732516Y-49965693D01*
X64597671Y-50015987D01*
X64597664Y-50015991D01*
X64482455Y-50102237D01*
X64482452Y-50102240D01*
X64396206Y-50217449D01*
X64396202Y-50217456D01*
X64345908Y-50352302D01*
X64339501Y-50411901D01*
X64339501Y-50411908D01*
X64339500Y-50411920D01*
X64339500Y-52907655D01*
X51300500Y-52907655D01*
X51300500Y-28578480D01*
X51300695Y-28571527D01*
X51305519Y-28485629D01*
X51316927Y-28282490D01*
X51318481Y-28268696D01*
X51366389Y-27986730D01*
X51369482Y-27973178D01*
X51376966Y-27947203D01*
X51448658Y-27698353D01*
X51453250Y-27685232D01*
X51562699Y-27420997D01*
X51568719Y-27408498D01*
X51707076Y-27158159D01*
X51714463Y-27146404D01*
X51879968Y-26913147D01*
X51888614Y-26902304D01*
X52079212Y-26689024D01*
X52089024Y-26679212D01*
X52302304Y-26488614D01*
X52313147Y-26479968D01*
X52546404Y-26314463D01*
X52558159Y-26307076D01*
X52808498Y-26168719D01*
X52820997Y-26162699D01*
X53085236Y-26053248D01*
X53098353Y-26048658D01*
X53373184Y-25969480D01*
X53386730Y-25966389D01*
X53668696Y-25918481D01*
X53682490Y-25916927D01*
X53971528Y-25900695D01*
X53978481Y-25900500D01*
X54040892Y-25900500D01*
X62240500Y-25900500D01*
X62307539Y-25920185D01*
G37*
%TD.AperFunction*%
%TA.AperFunction,Conductor*%
G36*
X136528472Y-25900695D02*
G01*
X136817507Y-25916927D01*
X136831305Y-25918481D01*
X137113265Y-25966388D01*
X137126821Y-25969482D01*
X137401642Y-26048657D01*
X137414768Y-26053250D01*
X137678994Y-26162696D01*
X137691508Y-26168722D01*
X137941830Y-26307070D01*
X137953603Y-26314468D01*
X138186843Y-26479961D01*
X138197704Y-26488622D01*
X138410964Y-26679202D01*
X138420795Y-26689033D01*
X138608819Y-26899433D01*
X138611373Y-26902290D01*
X138620039Y-26913159D01*
X138677158Y-26993659D01*
X138785530Y-27146395D01*
X138792929Y-27158169D01*
X138931273Y-27408484D01*
X138937306Y-27421012D01*
X139046749Y-27685232D01*
X139051342Y-27698357D01*
X139130517Y-27973178D01*
X139133611Y-27986735D01*
X139181516Y-28268684D01*
X139183073Y-28282502D01*
X139199305Y-28571527D01*
X139199500Y-28578480D01*
X139199500Y-35710562D01*
X139179815Y-35777601D01*
X139127011Y-35823356D01*
X139057854Y-35833300D01*
X138941001Y-35816500D01*
X138941000Y-35816500D01*
X134109000Y-35816500D01*
X134108991Y-35816500D01*
X134108990Y-35816501D01*
X134001549Y-35828052D01*
X134001537Y-35828054D01*
X133950027Y-35839260D01*
X133847502Y-35873383D01*
X133847496Y-35873386D01*
X133726462Y-35951171D01*
X133726451Y-35951179D01*
X133673659Y-35996923D01*
X133579433Y-36105664D01*
X133579430Y-36105668D01*
X133519664Y-36236534D01*
X133499976Y-36303582D01*
X133495402Y-36335398D01*
X133479500Y-36446000D01*
X133479500Y-47628000D01*
X133479501Y-47628009D01*
X133491052Y-47735450D01*
X133491054Y-47735462D01*
X133502260Y-47786972D01*
X133536383Y-47889497D01*
X133536386Y-47889503D01*
X133614171Y-48010537D01*
X133614179Y-48010548D01*
X133659923Y-48063340D01*
X133659926Y-48063343D01*
X133659930Y-48063347D01*
X133768664Y-48157567D01*
X133768667Y-48157568D01*
X133768668Y-48157569D01*
X133865106Y-48201612D01*
X133899541Y-48217338D01*
X133966580Y-48237023D01*
X133966584Y-48237024D01*
X134109000Y-48257500D01*
X134109003Y-48257500D01*
X138940990Y-48257500D01*
X138941000Y-48257500D01*
X139048456Y-48245947D01*
X139049140Y-48245798D01*
X139049302Y-48245809D01*
X139051745Y-48245414D01*
X139051838Y-48245990D01*
X139118831Y-48250781D01*
X139174766Y-48292652D01*
X139199184Y-48358116D01*
X139199500Y-48366964D01*
X139199500Y-51032734D01*
X139179815Y-51099773D01*
X139127011Y-51145528D01*
X139057853Y-51155472D01*
X139010404Y-51138273D01*
X138924340Y-51085190D01*
X138924334Y-51085186D01*
X138757797Y-51030001D01*
X138757795Y-51030000D01*
X138655010Y-51019500D01*
X134454998Y-51019500D01*
X134454981Y-51019501D01*
X134352203Y-51030000D01*
X134352200Y-51030001D01*
X134185668Y-51085185D01*
X134185663Y-51085187D01*
X134036342Y-51177289D01*
X133912289Y-51301342D01*
X133820187Y-51450663D01*
X133820186Y-51450666D01*
X133765001Y-51617203D01*
X133765001Y-51617204D01*
X133765000Y-51617204D01*
X133754500Y-51719983D01*
X133754500Y-52420001D01*
X133754501Y-52420019D01*
X133765000Y-52522796D01*
X133765001Y-52522799D01*
X133820185Y-52689331D01*
X133820186Y-52689334D01*
X133912288Y-52838656D01*
X134036344Y-52962712D01*
X134185666Y-53054814D01*
X134352203Y-53109999D01*
X134454991Y-53120500D01*
X135583000Y-53120499D01*
X135650039Y-53140184D01*
X135695794Y-53192987D01*
X135707000Y-53244499D01*
X135707000Y-53584811D01*
X135687315Y-53651850D01*
X135670681Y-53672492D01*
X133422367Y-55920805D01*
X133361044Y-55954290D01*
X133291352Y-55949306D01*
X133235419Y-55907434D01*
X133211002Y-55841970D01*
X133211947Y-55815482D01*
X133220500Y-55756000D01*
X133220500Y-38224000D01*
X133208947Y-38116544D01*
X133197741Y-38065033D01*
X133197637Y-38064722D01*
X133163616Y-37962502D01*
X133163613Y-37962496D01*
X133113363Y-37884306D01*
X133085825Y-37841457D01*
X133069718Y-37822868D01*
X133040076Y-37788659D01*
X133040072Y-37788656D01*
X133040070Y-37788653D01*
X132931336Y-37694433D01*
X132931333Y-37694431D01*
X132931331Y-37694430D01*
X132800465Y-37634664D01*
X132800460Y-37634662D01*
X132800459Y-37634662D01*
X132733420Y-37614977D01*
X132733422Y-37614977D01*
X132733417Y-37614976D01*
X132671347Y-37606052D01*
X132591000Y-37594500D01*
X132590998Y-37594500D01*
X126994500Y-37594500D01*
X126927461Y-37574815D01*
X126881706Y-37522011D01*
X126870500Y-37470500D01*
X126870500Y-28969919D01*
X126870500Y-28969911D01*
X126866176Y-28903932D01*
X126861951Y-28871839D01*
X126849050Y-28806984D01*
X126822465Y-28707772D01*
X126818713Y-28686487D01*
X126816778Y-28664371D01*
X126807716Y-28560797D01*
X126807716Y-28539195D01*
X126818711Y-28413516D01*
X126822464Y-28392234D01*
X126849051Y-28293011D01*
X126861951Y-28228159D01*
X126866176Y-28196066D01*
X126870500Y-28130087D01*
X126870500Y-27429000D01*
X126858947Y-27321544D01*
X126847741Y-27270033D01*
X126847637Y-27269722D01*
X126813616Y-27167502D01*
X126813613Y-27167496D01*
X126735828Y-27046462D01*
X126735825Y-27046457D01*
X126696979Y-27001626D01*
X126690076Y-26993659D01*
X126690072Y-26993656D01*
X126690070Y-26993653D01*
X126581336Y-26899433D01*
X126581333Y-26899431D01*
X126581331Y-26899430D01*
X126450465Y-26839664D01*
X126450460Y-26839662D01*
X126450459Y-26839662D01*
X126383420Y-26819977D01*
X126383422Y-26819977D01*
X126383417Y-26819976D01*
X126321347Y-26811052D01*
X126241000Y-26799500D01*
X118869000Y-26799500D01*
X118868991Y-26799500D01*
X118868990Y-26799501D01*
X118761549Y-26811052D01*
X118761537Y-26811054D01*
X118710027Y-26822260D01*
X118607502Y-26856383D01*
X118607496Y-26856386D01*
X118486462Y-26934171D01*
X118486451Y-26934179D01*
X118433659Y-26979923D01*
X118339433Y-27088664D01*
X118339430Y-27088668D01*
X118279664Y-27219534D01*
X118259976Y-27286582D01*
X118249420Y-27360001D01*
X118239502Y-27428990D01*
X118239500Y-27429001D01*
X118239500Y-37470500D01*
X118219815Y-37537539D01*
X118167011Y-37583294D01*
X118115500Y-37594500D01*
X78864000Y-37594500D01*
X78863991Y-37594500D01*
X78863990Y-37594501D01*
X78756549Y-37606052D01*
X78756537Y-37606054D01*
X78705027Y-37617260D01*
X78602502Y-37651383D01*
X78602496Y-37651386D01*
X78481462Y-37729171D01*
X78481451Y-37729179D01*
X78428659Y-37774923D01*
X78334433Y-37883664D01*
X78334430Y-37883668D01*
X78274664Y-38014534D01*
X78254976Y-38081582D01*
X78249949Y-38116549D01*
X78234500Y-38224000D01*
X78234500Y-50676000D01*
X78234501Y-50676009D01*
X78246052Y-50783450D01*
X78246054Y-50783462D01*
X78257260Y-50834972D01*
X78291383Y-50937497D01*
X78291386Y-50937503D01*
X78369171Y-51058537D01*
X78369179Y-51058548D01*
X78414923Y-51111340D01*
X78414926Y-51111343D01*
X78414930Y-51111347D01*
X78523664Y-51205567D01*
X78654541Y-51265338D01*
X78721580Y-51285023D01*
X78721584Y-51285024D01*
X78864000Y-51305500D01*
X120020500Y-51305500D01*
X120087539Y-51325185D01*
X120133294Y-51377989D01*
X120144500Y-51429500D01*
X120144500Y-55756000D01*
X120144501Y-55756009D01*
X120156052Y-55863450D01*
X120156054Y-55863462D01*
X120167260Y-55914972D01*
X120201383Y-56017497D01*
X120201386Y-56017503D01*
X120279171Y-56138537D01*
X120279179Y-56138548D01*
X120324923Y-56191340D01*
X120324926Y-56191343D01*
X120324930Y-56191347D01*
X120433664Y-56285567D01*
X120433667Y-56285568D01*
X120433668Y-56285569D01*
X120564536Y-56345336D01*
X120564537Y-56345336D01*
X120564541Y-56345338D01*
X120605436Y-56357346D01*
X120664214Y-56395121D01*
X120693238Y-56458677D01*
X120694500Y-56476318D01*
X120694500Y-56499998D01*
X120694501Y-56500019D01*
X120705000Y-56602796D01*
X120705001Y-56602799D01*
X120760185Y-56769331D01*
X120760186Y-56769334D01*
X120852288Y-56918656D01*
X120976344Y-57042712D01*
X121125666Y-57134814D01*
X121292203Y-57189999D01*
X121394991Y-57200500D01*
X122445008Y-57200499D01*
X122445016Y-57200498D01*
X122445019Y-57200498D01*
X122501302Y-57194748D01*
X122547797Y-57189999D01*
X122714334Y-57134814D01*
X122863656Y-57042712D01*
X122911819Y-56994549D01*
X122973142Y-56961064D01*
X123042834Y-56966048D01*
X123087181Y-56994549D01*
X123135344Y-57042712D01*
X123284666Y-57134814D01*
X123451203Y-57189999D01*
X123553991Y-57200500D01*
X124604008Y-57200499D01*
X124604016Y-57200498D01*
X124604019Y-57200498D01*
X124660302Y-57194748D01*
X124706797Y-57189999D01*
X124873334Y-57134814D01*
X125022656Y-57042712D01*
X125070819Y-56994549D01*
X125132142Y-56961064D01*
X125201834Y-56966048D01*
X125246181Y-56994549D01*
X125294344Y-57042712D01*
X125443666Y-57134814D01*
X125610203Y-57189999D01*
X125712991Y-57200500D01*
X126763008Y-57200499D01*
X126763016Y-57200498D01*
X126763019Y-57200498D01*
X126819302Y-57194748D01*
X126865797Y-57189999D01*
X127032334Y-57134814D01*
X127181656Y-57042712D01*
X127229819Y-56994549D01*
X127291142Y-56961064D01*
X127360834Y-56966048D01*
X127405181Y-56994549D01*
X127453344Y-57042712D01*
X127602666Y-57134814D01*
X127769203Y-57189999D01*
X127871991Y-57200500D01*
X128922008Y-57200499D01*
X128922016Y-57200498D01*
X128922019Y-57200498D01*
X128978302Y-57194748D01*
X129024797Y-57189999D01*
X129191334Y-57134814D01*
X129340656Y-57042712D01*
X129464712Y-56918656D01*
X129556814Y-56769334D01*
X129611999Y-56602797D01*
X129622500Y-56500009D01*
X129622500Y-56500008D01*
X129622818Y-56496897D01*
X129649214Y-56432206D01*
X129706395Y-56392054D01*
X129746176Y-56385500D01*
X132590990Y-56385500D01*
X132591000Y-56385500D01*
X132652365Y-56378902D01*
X132721122Y-56391306D01*
X132772260Y-56438916D01*
X132789540Y-56506616D01*
X132767476Y-56572910D01*
X132753300Y-56589872D01*
X130253492Y-59089681D01*
X130192169Y-59123166D01*
X130165811Y-59126000D01*
X83194189Y-59126000D01*
X83127150Y-59106315D01*
X83106508Y-59089681D01*
X67996542Y-43979715D01*
X67963057Y-43918392D01*
X67960865Y-43904634D01*
X67954999Y-43847203D01*
X67954998Y-43847200D01*
X67899814Y-43680666D01*
X67807712Y-43531344D01*
X67683656Y-43407288D01*
X67534334Y-43315186D01*
X67367797Y-43260001D01*
X67367795Y-43260000D01*
X67265016Y-43249500D01*
X66785055Y-43249500D01*
X66718016Y-43229815D01*
X66672261Y-43177011D01*
X66662317Y-43107853D01*
X66681950Y-43056614D01*
X66711238Y-43012780D01*
X66764903Y-42932468D01*
X66771887Y-42915606D01*
X66795733Y-42858037D01*
X66795733Y-42858035D01*
X66826565Y-42783602D01*
X66858000Y-42625566D01*
X66858000Y-42384323D01*
X66877685Y-42317284D01*
X66930489Y-42271529D01*
X66999647Y-42261585D01*
X67063203Y-42290610D01*
X67088730Y-42321199D01*
X67126061Y-42384323D01*
X67171917Y-42461862D01*
X67171923Y-42461870D01*
X67288129Y-42578076D01*
X67288133Y-42578079D01*
X67288135Y-42578081D01*
X67429602Y-42661744D01*
X67471224Y-42673836D01*
X67587426Y-42707597D01*
X67587429Y-42707597D01*
X67587431Y-42707598D01*
X67624306Y-42710500D01*
X67624314Y-42710500D01*
X69405686Y-42710500D01*
X69405694Y-42710500D01*
X69442569Y-42707598D01*
X69442571Y-42707597D01*
X69442573Y-42707597D01*
X69484191Y-42695505D01*
X69600398Y-42661744D01*
X69741865Y-42578081D01*
X69858081Y-42461865D01*
X69941744Y-42320398D01*
X69987598Y-42162569D01*
X69990500Y-42125694D01*
X69990500Y-41694306D01*
X69987598Y-41657431D01*
X69975734Y-41616595D01*
X69975933Y-41546727D01*
X70013874Y-41488056D01*
X70077512Y-41459212D01*
X70094810Y-41458000D01*
X71835567Y-41458000D01*
X71835568Y-41457999D01*
X71993602Y-41426565D01*
X72068035Y-41395733D01*
X72142468Y-41364903D01*
X72276445Y-41275382D01*
X72375009Y-41176817D01*
X72436330Y-41143334D01*
X72462689Y-41140500D01*
X75019370Y-41140500D01*
X75097824Y-41128073D01*
X75195897Y-41112541D01*
X75324193Y-41070853D01*
X75365881Y-41057309D01*
X75525132Y-40976167D01*
X75669728Y-40871111D01*
X75796111Y-40744728D01*
X75854670Y-40686169D01*
X75854682Y-40686155D01*
X77066111Y-39474729D01*
X77113235Y-39409868D01*
X77171167Y-39330132D01*
X77252309Y-39170881D01*
X77285027Y-39070186D01*
X77307539Y-39000901D01*
X77307539Y-39000900D01*
X77307540Y-39000897D01*
X77335500Y-38824366D01*
X77335500Y-35446701D01*
X77355185Y-35379662D01*
X77371819Y-35359020D01*
X82095021Y-30635819D01*
X82156344Y-30602334D01*
X82182702Y-30599500D01*
X84925365Y-30599500D01*
X84925366Y-30599500D01*
X85101897Y-30571540D01*
X85101900Y-30571539D01*
X85101901Y-30571539D01*
X85271878Y-30516310D01*
X85271878Y-30516309D01*
X85271881Y-30516309D01*
X85431132Y-30435167D01*
X85575728Y-30330111D01*
X85702111Y-30203728D01*
X85807167Y-30059132D01*
X85888309Y-29899881D01*
X85926433Y-29782547D01*
X85943539Y-29729901D01*
X85943539Y-29729900D01*
X85943540Y-29729897D01*
X85971500Y-29553366D01*
X85971500Y-29374634D01*
X85943540Y-29198103D01*
X85943539Y-29198099D01*
X85943539Y-29198098D01*
X85888310Y-29028121D01*
X85888308Y-29028118D01*
X85858655Y-28969919D01*
X85807167Y-28868868D01*
X85702111Y-28724272D01*
X85575728Y-28597889D01*
X85431132Y-28492833D01*
X85271881Y-28411691D01*
X85271878Y-28411689D01*
X85101899Y-28356460D01*
X84984209Y-28337820D01*
X84925366Y-28328500D01*
X81571634Y-28328500D01*
X81512790Y-28337820D01*
X81395101Y-28356460D01*
X81395098Y-28356460D01*
X81225121Y-28411689D01*
X81225118Y-28411691D01*
X81065867Y-28492833D01*
X80987189Y-28549997D01*
X80987188Y-28549997D01*
X80921276Y-28597883D01*
X80921272Y-28597887D01*
X75460272Y-34058889D01*
X75333891Y-34185269D01*
X75333890Y-34185270D01*
X75228833Y-34329867D01*
X75147243Y-34489997D01*
X75146184Y-34493754D01*
X75092459Y-34659101D01*
X75092458Y-34659109D01*
X75080920Y-34731955D01*
X75080921Y-34731956D01*
X75064500Y-34835634D01*
X75064500Y-34835639D01*
X75064500Y-38213298D01*
X75044815Y-38280337D01*
X75028181Y-38300979D01*
X74495980Y-38833181D01*
X74434657Y-38866666D01*
X74408299Y-38869500D01*
X73651609Y-38869500D01*
X73584570Y-38849815D01*
X73538815Y-38797011D01*
X73528871Y-38727853D01*
X73546071Y-38680403D01*
X73549809Y-38674342D01*
X73549808Y-38674342D01*
X73549814Y-38674334D01*
X73604999Y-38507797D01*
X73615500Y-38405009D01*
X73615499Y-37804992D01*
X73612427Y-37774923D01*
X73604999Y-37702203D01*
X73604998Y-37702200D01*
X73588159Y-37651383D01*
X73549814Y-37535666D01*
X73457712Y-37386344D01*
X73333656Y-37262288D01*
X73184334Y-37170186D01*
X73017797Y-37115001D01*
X73017795Y-37115000D01*
X72915010Y-37104500D01*
X71864998Y-37104500D01*
X71864980Y-37104501D01*
X71762203Y-37115000D01*
X71762200Y-37115001D01*
X71595668Y-37170185D01*
X71595663Y-37170187D01*
X71519776Y-37216995D01*
X71446344Y-37262288D01*
X71446342Y-37262289D01*
X71444317Y-37263539D01*
X71379220Y-37282000D01*
X69457000Y-37282000D01*
X69389961Y-37262315D01*
X69344206Y-37209511D01*
X69333000Y-37158000D01*
X69333000Y-36304433D01*
X69332999Y-36304429D01*
X69313060Y-36204187D01*
X69301565Y-36146398D01*
X69239905Y-35997539D01*
X69239903Y-35997533D01*
X69195142Y-35930543D01*
X69150382Y-35863555D01*
X69036445Y-35749618D01*
X68676818Y-35389991D01*
X68643333Y-35328668D01*
X68640499Y-35302310D01*
X68640499Y-35136662D01*
X68640498Y-35136644D01*
X68630349Y-35037292D01*
X68630348Y-35037289D01*
X68577003Y-34876303D01*
X68576999Y-34876297D01*
X68576998Y-34876294D01*
X68487969Y-34731957D01*
X68368044Y-34612032D01*
X68368040Y-34612029D01*
X68223705Y-34523001D01*
X68223699Y-34522998D01*
X68223697Y-34522997D01*
X68124109Y-34489997D01*
X68062709Y-34469651D01*
X67963346Y-34459500D01*
X67416662Y-34459500D01*
X67416634Y-34459502D01*
X67406631Y-34460524D01*
X67337939Y-34447752D01*
X67287056Y-34399870D01*
X67270138Y-34332079D01*
X67292556Y-34265904D01*
X67306349Y-34249489D01*
X67999020Y-33556819D01*
X68060343Y-33523334D01*
X68086701Y-33520500D01*
X69939370Y-33520500D01*
X70017824Y-33508073D01*
X70115897Y-33492541D01*
X70244193Y-33450853D01*
X70285881Y-33437309D01*
X70445132Y-33356167D01*
X70589728Y-33251111D01*
X70716111Y-33124728D01*
X70774670Y-33066169D01*
X70774682Y-33066155D01*
X72006111Y-31834729D01*
X72056483Y-31765398D01*
X72111167Y-31690132D01*
X72192309Y-31530881D01*
X72230340Y-31413833D01*
X72247539Y-31360901D01*
X72247539Y-31360900D01*
X72247540Y-31360897D01*
X72275500Y-31184366D01*
X72275500Y-29834500D01*
X72295185Y-29767461D01*
X72347989Y-29721706D01*
X72399500Y-29710500D01*
X72610451Y-29710500D01*
X72677490Y-29730185D01*
X72709718Y-29760190D01*
X72726449Y-29782541D01*
X72726452Y-29782544D01*
X72726454Y-29782546D01*
X72726457Y-29782548D01*
X72841664Y-29868793D01*
X72841671Y-29868797D01*
X72976517Y-29919091D01*
X72976516Y-29919091D01*
X72983444Y-29919835D01*
X73036127Y-29925500D01*
X74831872Y-29925499D01*
X74891483Y-29919091D01*
X75026331Y-29868796D01*
X75141546Y-29782546D01*
X75227796Y-29667331D01*
X75278091Y-29532483D01*
X75284500Y-29472873D01*
X75284499Y-27677128D01*
X75278091Y-27617517D01*
X75236978Y-27507288D01*
X75227797Y-27482671D01*
X75227793Y-27482664D01*
X75141547Y-27367455D01*
X75141544Y-27367452D01*
X75026335Y-27281206D01*
X75026328Y-27281202D01*
X74891482Y-27230908D01*
X74891483Y-27230908D01*
X74831883Y-27224501D01*
X74831881Y-27224500D01*
X74831873Y-27224500D01*
X74831864Y-27224500D01*
X73036129Y-27224500D01*
X73036123Y-27224501D01*
X72976516Y-27230908D01*
X72841671Y-27281202D01*
X72841664Y-27281206D01*
X72726457Y-27367451D01*
X72726449Y-27367458D01*
X72709718Y-27389810D01*
X72653785Y-27431682D01*
X72610451Y-27439500D01*
X71758919Y-27439500D01*
X71693825Y-27421040D01*
X71684334Y-27415186D01*
X71517797Y-27360001D01*
X71517795Y-27360000D01*
X71415010Y-27349500D01*
X70814998Y-27349500D01*
X70814980Y-27349501D01*
X70712203Y-27360000D01*
X70712200Y-27360001D01*
X70545668Y-27415185D01*
X70545663Y-27415187D01*
X70396342Y-27507289D01*
X70272289Y-27631342D01*
X70180187Y-27780663D01*
X70180185Y-27780668D01*
X70125001Y-27947201D01*
X70125000Y-27947208D01*
X70118458Y-28011242D01*
X70105585Y-28054932D01*
X70062244Y-28139994D01*
X70061184Y-28143754D01*
X70007458Y-28309105D01*
X69979500Y-28485629D01*
X69979500Y-28664371D01*
X70002973Y-28812572D01*
X70004500Y-28831970D01*
X70004500Y-30573298D01*
X69984815Y-30640337D01*
X69968181Y-30660979D01*
X69415980Y-31213181D01*
X69354657Y-31246666D01*
X69328299Y-31249500D01*
X67475630Y-31249500D01*
X67299105Y-31277458D01*
X67170805Y-31319146D01*
X67170804Y-31319145D01*
X67129118Y-31332690D01*
X67058608Y-31368618D01*
X66969867Y-31413833D01*
X66825270Y-31518890D01*
X66825269Y-31518891D01*
X63774849Y-34569310D01*
X63752268Y-34587166D01*
X63711952Y-34612034D01*
X63711952Y-34612035D01*
X63592035Y-34731952D01*
X63592034Y-34731952D01*
X63567166Y-34772268D01*
X63549313Y-34794846D01*
X63523889Y-34820271D01*
X63523883Y-34820278D01*
X63418835Y-34964865D01*
X63337692Y-35124115D01*
X63310075Y-35209111D01*
X63282459Y-35294103D01*
X63282458Y-35294106D01*
X63282458Y-35294108D01*
X63254500Y-35470629D01*
X63254500Y-35487310D01*
X63234815Y-35554349D01*
X63218181Y-35574991D01*
X62929620Y-35863551D01*
X62929617Y-35863555D01*
X62840100Y-35997526D01*
X62840093Y-35997539D01*
X62812791Y-36063455D01*
X62812791Y-36063456D01*
X62778435Y-36146397D01*
X62778433Y-36146405D01*
X62747000Y-36304429D01*
X62747000Y-37179153D01*
X62727315Y-37246192D01*
X62674511Y-37291947D01*
X62643437Y-37300006D01*
X62643667Y-37301263D01*
X62637426Y-37302402D01*
X62479606Y-37348254D01*
X62479603Y-37348255D01*
X62338137Y-37431917D01*
X62338129Y-37431923D01*
X62221923Y-37548129D01*
X62221917Y-37548137D01*
X62138255Y-37689603D01*
X62138254Y-37689604D01*
X62099537Y-37822868D01*
X62061930Y-37881753D01*
X61998457Y-37910959D01*
X61929271Y-37901213D01*
X61892780Y-37875953D01*
X61584948Y-37568120D01*
X61584944Y-37568117D01*
X61450974Y-37478600D01*
X61450961Y-37478593D01*
X61302106Y-37416936D01*
X61302094Y-37416933D01*
X61144070Y-37385500D01*
X61144066Y-37385500D01*
X60697230Y-37385500D01*
X60630191Y-37365815D01*
X60609549Y-37349181D01*
X60608655Y-37348287D01*
X60566902Y-37322533D01*
X60520178Y-37270584D01*
X60508000Y-37216995D01*
X60508000Y-36204187D01*
X60527685Y-36137148D01*
X60544314Y-36116511D01*
X64011235Y-32649589D01*
X64011240Y-32649586D01*
X64021443Y-32639382D01*
X64021445Y-32639382D01*
X64135382Y-32525445D01*
X64135618Y-32525090D01*
X64171236Y-32471784D01*
X64171238Y-32471780D01*
X64224903Y-32391468D01*
X64286565Y-32242602D01*
X64318000Y-32084565D01*
X64318000Y-31923434D01*
X64318000Y-29672266D01*
X64337685Y-29605227D01*
X64371692Y-29573564D01*
X64370231Y-29571612D01*
X64450136Y-29511793D01*
X64492546Y-29480046D01*
X64578796Y-29364831D01*
X64629091Y-29229983D01*
X64635500Y-29170373D01*
X64635499Y-26024499D01*
X64655184Y-25957461D01*
X64707988Y-25911706D01*
X64759499Y-25900500D01*
X136459108Y-25900500D01*
X136521519Y-25900500D01*
X136528472Y-25900695D01*
G37*
%TD.AperFunction*%
%TD*%
M02*
