M48
; DRILL file {KiCad 8.0.0} date 2024-06-21T14:10:32-0400
; FORMAT={-:-/ absolute / inch / decimal}
; #@! TF.CreationDate,2024-06-21T14:10:32-04:00
; #@! TF.GenerationSoftware,Kicad,Pcbnew,8.0.0
; #@! TF.FileFunction,Plated,1,2,PTH
FMAT,2
INCH
; #@! TA.AperFunction,Plated,PTH,ViaDrill
T1C0.0118
; #@! TA.AperFunction,Plated,PTH,ComponentDrill
T2C0.0394
; #@! TA.AperFunction,Plated,PTH,ComponentDrill
T3C0.0472
; #@! TA.AperFunction,Plated,PTH,ComponentDrill
T4C0.1285
%
G90
G05
T1
X2.125Y-1.375
X2.125Y-1.625
X2.125Y-1.875
X2.125Y-2.125
X2.25Y-1.25
X2.25Y-1.5
X2.25Y-1.75
X2.25Y-2.0
X2.25Y-2.25
X2.5026Y-1.46
X2.6Y-1.475
X2.725Y-1.35
X2.775Y-1.425
X2.875Y-1.375
X2.925Y-1.275
X2.925Y-1.5
X2.925Y-2.25
X2.95Y-1.775
X3.325Y-2.45
X3.34Y-1.16
X3.35Y-1.075
X3.625Y-1.3
X3.625Y-2.25
X3.875Y-2.45
X3.9Y-1.075
X4.175Y-1.3
X4.175Y-2.25
X4.45Y-1.075
X4.45Y-2.45
X4.75Y-2.265
X4.84Y-2.265
X4.85Y-1.75
X4.85Y-1.8
X4.85Y-1.85
X4.85Y-1.9
X4.85Y-1.95
X4.85Y-2.0
X4.85Y-2.05
X4.85Y-2.1
X4.85Y-2.15
X4.9Y-1.75
X4.9Y-1.8
X4.9Y-1.85
X4.9Y-1.9
X4.9Y-1.95
X4.9Y-2.0
X4.9Y-2.05
X4.9Y-2.1
X4.9Y-2.15
X4.925Y-2.265
X4.95Y-1.75
X4.95Y-1.8
X4.95Y-1.85
X4.95Y-1.9
X4.95Y-1.95
X4.95Y-2.0
X4.95Y-2.05
X4.95Y-2.1
X4.95Y-2.15
X5.0Y-1.75
X5.0Y-1.8
X5.0Y-1.85
X5.0Y-1.9
X5.0Y-1.95
X5.0Y-2.0
X5.0Y-2.05
X5.0Y-2.1
X5.0Y-2.15
X5.025Y-2.275
X5.05Y-1.75
X5.05Y-1.8
X5.05Y-1.85
X5.05Y-1.9
X5.05Y-1.95
X5.05Y-2.0
X5.05Y-2.05
X5.05Y-2.1
X5.05Y-2.15
X5.075Y-1.4
X5.1Y-1.75
X5.1Y-1.8
X5.1Y-1.85
X5.1Y-1.9
X5.1Y-1.95
X5.1Y-2.0
X5.1Y-2.05
X5.1Y-2.1
X5.1Y-2.15
X5.105Y-2.275
X5.15Y-1.75
X5.15Y-1.8
X5.15Y-1.85
X5.15Y-1.9
X5.15Y-1.95
X5.15Y-2.0
X5.15Y-2.05
X5.15Y-2.1
X5.15Y-2.15
X5.375Y-1.95
T2
X2.9108Y-1.125
X3.0108Y-1.125
X4.9258Y-1.124
X5.0258Y-1.124
X5.38Y-1.37
X5.38Y-1.47
T3
X2.6Y-2.0338
X2.6Y-2.2307
X3.35Y-1.3781
X3.35Y-1.575
X3.35Y-1.925
X3.35Y-2.1219
X3.9Y-1.3781
X3.9Y-1.575
X3.9Y-1.925
X3.9Y-2.1219
X4.45Y-1.3781
X4.45Y-1.575
X4.45Y-1.925
X4.45Y-2.1219
T4
X2.125Y-1.125
X2.125Y-2.375
X5.375Y-1.125
X5.375Y-2.375
M30
