%TF.GenerationSoftware,KiCad,Pcbnew,8.0.1*%
%TF.CreationDate,2024-07-13T13:04:58-04:00*%
%TF.ProjectId,GaN Drain Driver,47614e20-4472-4616-996e-204472697665,v1.0*%
%TF.SameCoordinates,Original*%
%TF.FileFunction,Soldermask,Bot*%
%TF.FilePolarity,Negative*%
%FSLAX46Y46*%
G04 Gerber Fmt 4.6, Leading zero omitted, Abs format (unit mm)*
G04 Created by KiCad (PCBNEW 8.0.1) date 2024-07-13 13:04:58*
%MOMM*%
%LPD*%
G01*
G04 APERTURE LIST*
G04 Aperture macros list*
%AMRoundRect*
0 Rectangle with rounded corners*
0 $1 Rounding radius*
0 $2 $3 $4 $5 $6 $7 $8 $9 X,Y pos of 4 corners*
0 Add a 4 corners polygon primitive as box body*
4,1,4,$2,$3,$4,$5,$6,$7,$8,$9,$2,$3,0*
0 Add four circle primitives for the rounded corners*
1,1,$1+$1,$2,$3*
1,1,$1+$1,$4,$5*
1,1,$1+$1,$6,$7*
1,1,$1+$1,$8,$9*
0 Add four rect primitives between the rounded corners*
20,1,$1+$1,$2,$3,$4,$5,0*
20,1,$1+$1,$4,$5,$6,$7,0*
20,1,$1+$1,$6,$7,$8,$9,0*
20,1,$1+$1,$8,$9,$2,$3,0*%
G04 Aperture macros list end*
%ADD10R,2.400000X2.400000*%
%ADD11C,2.400000*%
%ADD12RoundRect,0.250000X-0.620000X-0.845000X0.620000X-0.845000X0.620000X0.845000X-0.620000X0.845000X0*%
%ADD13O,1.740000X2.190000*%
%ADD14C,5.562600*%
%ADD15RoundRect,0.250000X0.620000X0.845000X-0.620000X0.845000X-0.620000X-0.845000X0.620000X-0.845000X0*%
%ADD16R,1.350000X4.200000*%
%ADD17C,1.440000*%
G04 APERTURE END LIST*
D10*
%TO.C,C20*%
X137795000Y-44450000D03*
D11*
X137795000Y-49450000D03*
%TD*%
D10*
%TO.C,C4*%
X123825000Y-44450000D03*
D11*
X123825000Y-49450000D03*
%TD*%
D12*
%TO.C,J2*%
X137795000Y-72370000D03*
D13*
X140335000Y-72370000D03*
%TD*%
D14*
%TO.C,H4*%
X53975000Y-73025000D03*
%TD*%
D10*
%TO.C,C21*%
X123825000Y-30480000D03*
D11*
X123825000Y-35480000D03*
%TD*%
D14*
%TO.C,H3*%
X149225000Y-73025000D03*
%TD*%
D15*
%TO.C,J4*%
X111760000Y-29190000D03*
D13*
X109220000Y-29190000D03*
%TD*%
%TO.C,J3*%
X129540000Y-72410000D03*
D12*
X127000000Y-72410000D03*
%TD*%
D16*
%TO.C,J1*%
X86837000Y-27482800D03*
X81187000Y-27482800D03*
%TD*%
D10*
%TO.C,C24*%
X137795000Y-30480000D03*
D11*
X137795000Y-35480000D03*
%TD*%
D14*
%TO.C,H1*%
X149225000Y-28575000D03*
%TD*%
D17*
%TO.C,RV1*%
X111125000Y-53975000D03*
X108585000Y-53975000D03*
X106045000Y-53975000D03*
%TD*%
D14*
%TO.C,H2*%
X53975000Y-28575000D03*
%TD*%
D17*
%TO.C,RV2*%
X99695000Y-53975000D03*
X97155000Y-53975000D03*
X94615000Y-53975000D03*
%TD*%
G36*
X149549039Y-57550685D02*
G01*
X149594794Y-57603489D01*
X149606000Y-57655000D01*
X149606000Y-63757000D01*
X149586315Y-63824039D01*
X149533511Y-63869794D01*
X149482000Y-63881000D01*
X142618000Y-63881000D01*
X142550961Y-63861315D01*
X142505206Y-63808511D01*
X142494000Y-63757000D01*
X142494000Y-57655000D01*
X142513685Y-57587961D01*
X142566489Y-57542206D01*
X142618000Y-57531000D01*
X149482000Y-57531000D01*
X149549039Y-57550685D01*
G37*
G36*
X134944039Y-57423685D02*
G01*
X134989794Y-57476489D01*
X135001000Y-57528000D01*
X135001000Y-63630000D01*
X134981315Y-63697039D01*
X134928511Y-63742794D01*
X134877000Y-63754000D01*
X128013000Y-63754000D01*
X127945961Y-63734315D01*
X127900206Y-63681511D01*
X127889000Y-63630000D01*
X127889000Y-57528000D01*
X127908685Y-57460961D01*
X127961489Y-57415206D01*
X128013000Y-57404000D01*
X134877000Y-57404000D01*
X134944039Y-57423685D01*
G37*
M02*
