%TF.GenerationSoftware,KiCad,Pcbnew,8.0.1*%
%TF.CreationDate,2024-07-13T13:04:58-04:00*%
%TF.ProjectId,GaN Drain Driver,47614e20-4472-4616-996e-204472697665,v1.0*%
%TF.SameCoordinates,Original*%
%TF.FileFunction,Paste,Top*%
%TF.FilePolarity,Positive*%
%FSLAX46Y46*%
G04 Gerber Fmt 4.6, Leading zero omitted, Abs format (unit mm)*
G04 Created by KiCad (PCBNEW 8.0.1) date 2024-07-13 13:04:58*
%MOMM*%
%LPD*%
G01*
G04 APERTURE LIST*
G04 Aperture macros list*
%AMRoundRect*
0 Rectangle with rounded corners*
0 $1 Rounding radius*
0 $2 $3 $4 $5 $6 $7 $8 $9 X,Y pos of 4 corners*
0 Add a 4 corners polygon primitive as box body*
4,1,4,$2,$3,$4,$5,$6,$7,$8,$9,$2,$3,0*
0 Add four circle primitives for the rounded corners*
1,1,$1+$1,$2,$3*
1,1,$1+$1,$4,$5*
1,1,$1+$1,$6,$7*
1,1,$1+$1,$8,$9*
0 Add four rect primitives between the rounded corners*
20,1,$1+$1,$2,$3,$4,$5,0*
20,1,$1+$1,$4,$5,$6,$7,0*
20,1,$1+$1,$6,$7,$8,$9,0*
20,1,$1+$1,$8,$9,$2,$3,0*%
G04 Aperture macros list end*
%ADD10R,0.457200X1.600200*%
%ADD11RoundRect,0.250000X0.262500X0.450000X-0.262500X0.450000X-0.262500X-0.450000X0.262500X-0.450000X0*%
%ADD12RoundRect,0.250000X-0.262500X-0.450000X0.262500X-0.450000X0.262500X0.450000X-0.262500X0.450000X0*%
%ADD13RoundRect,0.225000X0.225000X0.375000X-0.225000X0.375000X-0.225000X-0.375000X0.225000X-0.375000X0*%
%ADD14RoundRect,0.250000X0.475000X-0.250000X0.475000X0.250000X-0.475000X0.250000X-0.475000X-0.250000X0*%
%ADD15RoundRect,0.250000X0.250000X0.475000X-0.250000X0.475000X-0.250000X-0.475000X0.250000X-0.475000X0*%
%ADD16RoundRect,0.225000X-0.225000X-0.375000X0.225000X-0.375000X0.225000X0.375000X-0.225000X0.375000X0*%
%ADD17RoundRect,0.250000X-0.250000X-0.475000X0.250000X-0.475000X0.250000X0.475000X-0.250000X0.475000X0*%
%ADD18RoundRect,0.225000X0.375000X-0.225000X0.375000X0.225000X-0.375000X0.225000X-0.375000X-0.225000X0*%
%ADD19RoundRect,0.375000X0.375000X-0.625000X0.375000X0.625000X-0.375000X0.625000X-0.375000X-0.625000X0*%
%ADD20RoundRect,0.500000X1.400000X-0.500000X1.400000X0.500000X-1.400000X0.500000X-1.400000X-0.500000X0*%
%ADD21RoundRect,0.150000X-0.825000X-0.150000X0.825000X-0.150000X0.825000X0.150000X-0.825000X0.150000X0*%
%ADD22RoundRect,0.250000X-0.475000X0.250000X-0.475000X-0.250000X0.475000X-0.250000X0.475000X0.250000X0*%
%ADD23RoundRect,0.250000X-0.850000X-0.350000X0.850000X-0.350000X0.850000X0.350000X-0.850000X0.350000X0*%
%ADD24RoundRect,0.250000X-1.275000X-1.125000X1.275000X-1.125000X1.275000X1.125000X-1.275000X1.125000X0*%
%ADD25R,1.270000X3.600000*%
%ADD26R,1.350000X4.200000*%
G04 APERTURE END LIST*
D10*
%TO.C,U2*%
X60960000Y-42519600D03*
X63500000Y-42519600D03*
X68580000Y-42519600D03*
X68580000Y-32410400D03*
X60960000Y-32410400D03*
%TD*%
D11*
%TO.C,R1*%
X79652500Y-39370000D03*
X77827500Y-39370000D03*
%TD*%
D12*
%TO.C,R4*%
X90527500Y-41275000D03*
X92352500Y-41275000D03*
%TD*%
D13*
%TO.C,D2*%
X75945000Y-67945000D03*
X72645000Y-67945000D03*
%TD*%
D11*
%TO.C,R6*%
X60602500Y-64135000D03*
X58777500Y-64135000D03*
%TD*%
%TO.C,R3*%
X72032500Y-64135000D03*
X70207500Y-64135000D03*
%TD*%
%TO.C,R8*%
X101242500Y-64770000D03*
X99417500Y-64770000D03*
%TD*%
D14*
%TO.C,C11*%
X55245000Y-61275000D03*
X55245000Y-59375000D03*
%TD*%
D15*
%TO.C,C19*%
X99380000Y-67310000D03*
X101280000Y-67310000D03*
%TD*%
D12*
%TO.C,R17*%
X77827500Y-44450000D03*
X79652500Y-44450000D03*
%TD*%
D16*
%TO.C,D6*%
X88645000Y-59055000D03*
X85345000Y-59055000D03*
%TD*%
D15*
%TO.C,C5*%
X81595000Y-35814000D03*
X79695000Y-35814000D03*
%TD*%
%TO.C,C23*%
X100645000Y-43815000D03*
X98745000Y-43815000D03*
%TD*%
D17*
%TO.C,C8*%
X92390000Y-38735000D03*
X90490000Y-38735000D03*
%TD*%
%TO.C,C9*%
X62550000Y-64135000D03*
X64450000Y-64135000D03*
%TD*%
D18*
%TO.C,D1*%
X80645000Y-59435000D03*
X80645000Y-56135000D03*
%TD*%
D12*
%TO.C,R15*%
X112117500Y-69850000D03*
X113942500Y-69850000D03*
%TD*%
D17*
%TO.C,C14*%
X111445000Y-46355000D03*
X113345000Y-46355000D03*
%TD*%
D18*
%TO.C,D4*%
X66040000Y-59435000D03*
X66040000Y-56135000D03*
%TD*%
D19*
%TO.C,U4*%
X58025000Y-60935000D03*
X60325000Y-60935000D03*
D20*
X60325000Y-54635000D03*
D19*
X62625000Y-60935000D03*
%TD*%
D11*
%TO.C,R2*%
X75842500Y-64135000D03*
X74017500Y-64135000D03*
%TD*%
D15*
%TO.C,C16*%
X109535000Y-69850000D03*
X107635000Y-69850000D03*
%TD*%
D17*
%TO.C,C18*%
X112080000Y-62230000D03*
X113980000Y-62230000D03*
%TD*%
D11*
%TO.C,R9*%
X113307500Y-43815000D03*
X111482500Y-43815000D03*
%TD*%
D21*
%TO.C,U3*%
X82488000Y-38735000D03*
X82488000Y-40005000D03*
X82488000Y-41275000D03*
X82488000Y-42545000D03*
X87438000Y-42545000D03*
X87438000Y-41275000D03*
X87438000Y-40005000D03*
X87438000Y-38735000D03*
%TD*%
D11*
%TO.C,R13*%
X113942500Y-67310000D03*
X112117500Y-67310000D03*
%TD*%
D12*
%TO.C,R10*%
X111482500Y-41275000D03*
X113307500Y-41275000D03*
%TD*%
D13*
%TO.C,D3*%
X86740000Y-35814000D03*
X83440000Y-35814000D03*
%TD*%
D21*
%TO.C,U5*%
X104205000Y-62865000D03*
X104205000Y-64135000D03*
X104205000Y-65405000D03*
X104205000Y-66675000D03*
X109155000Y-66675000D03*
X109155000Y-65405000D03*
X109155000Y-64135000D03*
X109155000Y-62865000D03*
%TD*%
D17*
%TO.C,C2*%
X77790000Y-64135000D03*
X79690000Y-64135000D03*
%TD*%
D22*
%TO.C,C12*%
X55245000Y-54930000D03*
X55245000Y-56830000D03*
%TD*%
D11*
%TO.C,R7*%
X56792500Y-64135000D03*
X54967500Y-64135000D03*
%TD*%
D17*
%TO.C,C6*%
X66995000Y-45720000D03*
X68895000Y-45720000D03*
%TD*%
D19*
%TO.C,U1*%
X73265000Y-60935000D03*
X75565000Y-60935000D03*
D20*
X75565000Y-54635000D03*
D19*
X77865000Y-60935000D03*
%TD*%
D12*
%TO.C,R5*%
X90527500Y-43815000D03*
X92352500Y-43815000D03*
%TD*%
D15*
%TO.C,C1*%
X62545000Y-45720000D03*
X60645000Y-45720000D03*
%TD*%
D11*
%TO.C,R12*%
X87272500Y-61595000D03*
X85447500Y-61595000D03*
%TD*%
D17*
%TO.C,C15*%
X87310000Y-64135000D03*
X85410000Y-64135000D03*
%TD*%
D11*
%TO.C,R11*%
X113307500Y-38735000D03*
X111482500Y-38735000D03*
%TD*%
D15*
%TO.C,C10*%
X101280000Y-69850000D03*
X99380000Y-69850000D03*
%TD*%
D17*
%TO.C,C22*%
X111445000Y-36195000D03*
X113345000Y-36195000D03*
%TD*%
D23*
%TO.C,Q1*%
X139740000Y-58420000D03*
D24*
X144365000Y-59175000D03*
X144365000Y-62225000D03*
X147715000Y-59175000D03*
X147715000Y-62225000D03*
D23*
X139740000Y-62980000D03*
%TD*%
D15*
%TO.C,C13*%
X101280000Y-62230000D03*
X99380000Y-62230000D03*
%TD*%
D11*
%TO.C,R18*%
X79652500Y-41910000D03*
X77827500Y-41910000D03*
%TD*%
D25*
%TO.C,J1*%
X84012000Y-27282800D03*
D26*
X86837000Y-27482800D03*
X81187000Y-27482800D03*
%TD*%
D13*
%TO.C,D5*%
X57405000Y-67945000D03*
X60705000Y-67945000D03*
%TD*%
D23*
%TO.C,Q2*%
X125095000Y-58300000D03*
D24*
X129720000Y-59055000D03*
X129720000Y-62105000D03*
X133070000Y-59055000D03*
X133070000Y-62105000D03*
D23*
X125095000Y-62860000D03*
%TD*%
D22*
%TO.C,C7*%
X70485000Y-54930000D03*
X70485000Y-56830000D03*
%TD*%
D17*
%TO.C,C17*%
X98745000Y-41275000D03*
X100645000Y-41275000D03*
%TD*%
D11*
%TO.C,R14*%
X113942500Y-64770000D03*
X112117500Y-64770000D03*
%TD*%
%TO.C,R16*%
X100607500Y-38735000D03*
X98782500Y-38735000D03*
%TD*%
D21*
%TO.C,U6*%
X103570000Y-38735000D03*
X103570000Y-40005000D03*
X103570000Y-41275000D03*
X103570000Y-42545000D03*
X108520000Y-42545000D03*
X108520000Y-41275000D03*
X108520000Y-40005000D03*
X108520000Y-38735000D03*
%TD*%
D14*
%TO.C,C3*%
X70485000Y-61275000D03*
X70485000Y-59375000D03*
%TD*%
M02*
