%TF.GenerationSoftware,KiCad,Pcbnew,8.0.1*%
%TF.CreationDate,2024-07-13T13:04:58-04:00*%
%TF.ProjectId,GaN Drain Driver,47614e20-4472-4616-996e-204472697665,v1.0*%
%TF.SameCoordinates,Original*%
%TF.FileFunction,Copper,L2,Inr*%
%TF.FilePolarity,Positive*%
%FSLAX46Y46*%
G04 Gerber Fmt 4.6, Leading zero omitted, Abs format (unit mm)*
G04 Created by KiCad (PCBNEW 8.0.1) date 2024-07-13 13:04:58*
%MOMM*%
%LPD*%
G01*
G04 APERTURE LIST*
G04 Aperture macros list*
%AMRoundRect*
0 Rectangle with rounded corners*
0 $1 Rounding radius*
0 $2 $3 $4 $5 $6 $7 $8 $9 X,Y pos of 4 corners*
0 Add a 4 corners polygon primitive as box body*
4,1,4,$2,$3,$4,$5,$6,$7,$8,$9,$2,$3,0*
0 Add four circle primitives for the rounded corners*
1,1,$1+$1,$2,$3*
1,1,$1+$1,$4,$5*
1,1,$1+$1,$6,$7*
1,1,$1+$1,$8,$9*
0 Add four rect primitives between the rounded corners*
20,1,$1+$1,$2,$3,$4,$5,0*
20,1,$1+$1,$4,$5,$6,$7,0*
20,1,$1+$1,$6,$7,$8,$9,0*
20,1,$1+$1,$8,$9,$2,$3,0*%
G04 Aperture macros list end*
%TA.AperFunction,ComponentPad*%
%ADD10R,2.400000X2.400000*%
%TD*%
%TA.AperFunction,ComponentPad*%
%ADD11C,2.400000*%
%TD*%
%TA.AperFunction,ComponentPad*%
%ADD12RoundRect,0.250000X-0.620000X-0.845000X0.620000X-0.845000X0.620000X0.845000X-0.620000X0.845000X0*%
%TD*%
%TA.AperFunction,ComponentPad*%
%ADD13O,1.740000X2.190000*%
%TD*%
%TA.AperFunction,ComponentPad*%
%ADD14C,5.562600*%
%TD*%
%TA.AperFunction,ComponentPad*%
%ADD15RoundRect,0.250000X0.620000X0.845000X-0.620000X0.845000X-0.620000X-0.845000X0.620000X-0.845000X0*%
%TD*%
%TA.AperFunction,ComponentPad*%
%ADD16C,1.440000*%
%TD*%
%TA.AperFunction,ViaPad*%
%ADD17C,0.600000*%
%TD*%
G04 APERTURE END LIST*
D10*
%TO.N,VCC*%
%TO.C,C20*%
X137795000Y-44450000D03*
D11*
%TO.N,GND*%
X137795000Y-49450000D03*
%TD*%
D10*
%TO.N,VCC*%
%TO.C,C4*%
X123825000Y-44450000D03*
D11*
%TO.N,GND*%
X123825000Y-49450000D03*
%TD*%
D12*
%TO.N,Vd*%
%TO.C,J2*%
X137795000Y-72370000D03*
D13*
%TO.N,GND*%
X140335000Y-72370000D03*
%TD*%
D14*
%TO.N,GND*%
%TO.C,H4*%
X53975000Y-73025000D03*
%TD*%
D10*
%TO.N,VCC*%
%TO.C,C21*%
X123825000Y-30480000D03*
D11*
%TO.N,GND*%
X123825000Y-35480000D03*
%TD*%
D14*
%TO.N,GND*%
%TO.C,H3*%
X149225000Y-73025000D03*
%TD*%
D15*
%TO.N,VCC*%
%TO.C,J4*%
X111760000Y-29190000D03*
D13*
%TO.N,GND*%
X109220000Y-29190000D03*
%TD*%
%TO.N,GND*%
%TO.C,J3*%
X129540000Y-72410000D03*
D12*
%TO.N,Vg*%
X127000000Y-72410000D03*
%TD*%
D10*
%TO.N,VCC*%
%TO.C,C24*%
X137795000Y-30480000D03*
D11*
%TO.N,GND*%
X137795000Y-35480000D03*
%TD*%
D14*
%TO.N,GND*%
%TO.C,H1*%
X149225000Y-28575000D03*
%TD*%
D16*
%TO.N,+3.3V REF*%
%TO.C,RV1*%
X111125000Y-53975000D03*
%TO.N,Net-(U5A-+)*%
X108585000Y-53975000D03*
%TO.N,-3.3V REF*%
X106045000Y-53975000D03*
%TD*%
D14*
%TO.N,GND*%
%TO.C,H2*%
X53975000Y-28575000D03*
%TD*%
D16*
%TO.N,+3.3V REF*%
%TO.C,RV2*%
X99695000Y-53975000D03*
%TO.N,Net-(U6A-+)*%
X97155000Y-53975000D03*
%TO.N,-3.3V REF*%
X94615000Y-53975000D03*
%TD*%
D17*
%TO.N,GND*%
X143510000Y-67310000D03*
X116840000Y-48895000D03*
X116840000Y-44450000D03*
X114300000Y-46355000D03*
X114935000Y-33655000D03*
X117475000Y-40005000D03*
X114935000Y-37465000D03*
X97155000Y-40640000D03*
X97155000Y-42545000D03*
X102870000Y-46355000D03*
X60960000Y-37465000D03*
X68580000Y-37465000D03*
X68580000Y-29210000D03*
X69850000Y-32385000D03*
X126365000Y-60960000D03*
X123825000Y-60960000D03*
X122555000Y-69215000D03*
X72390000Y-52705000D03*
X65405000Y-29210000D03*
X92710000Y-29210000D03*
X65405000Y-71755000D03*
X75565000Y-73025000D03*
X83820000Y-72390000D03*
X91440000Y-73025000D03*
X135255000Y-65405000D03*
X138430000Y-66675000D03*
X147955000Y-67310000D03*
X139700000Y-60960000D03*
X136525000Y-60325000D03*
X118745000Y-59055000D03*
X122555000Y-61595000D03*
X125095000Y-60960000D03*
X125095000Y-64770000D03*
X123825000Y-64770000D03*
X126365000Y-64770000D03*
X122555000Y-64135000D03*
X122555000Y-62865000D03*
X115570000Y-62230000D03*
X116205000Y-65405000D03*
X115570000Y-71755000D03*
X99695000Y-71755000D03*
X106045000Y-71755000D03*
X104140000Y-59690000D03*
X97155000Y-59055000D03*
X92710000Y-64135000D03*
X89535000Y-49530000D03*
X84455000Y-54610000D03*
X56515000Y-52070000D03*
X53340000Y-57785000D03*
X55245000Y-58420000D03*
X53340000Y-64135000D03*
X63500000Y-66040000D03*
X66040000Y-66040000D03*
X68580000Y-66040000D03*
X68580000Y-64135000D03*
X66040000Y-64135000D03*
X58420000Y-57785000D03*
X64770000Y-50165000D03*
X70485000Y-43815000D03*
X65405000Y-45720000D03*
X60960000Y-40640000D03*
X59055000Y-45720000D03*
X59055000Y-41910000D03*
X54610000Y-46990000D03*
X64770000Y-37465000D03*
X77470000Y-29845000D03*
X85090000Y-35814000D03*
X86360000Y-33020000D03*
X105410000Y-35560000D03*
X95250000Y-36830000D03*
X102870000Y-29210000D03*
X97790000Y-32385000D03*
%TO.N,Vd*%
X133350000Y-62865000D03*
X131445000Y-62865000D03*
X128905000Y-62865000D03*
X130810000Y-62865000D03*
X132080000Y-62865000D03*
X130175000Y-62865000D03*
X129540000Y-62865000D03*
X132715000Y-62865000D03*
X133985000Y-62865000D03*
X132715000Y-62230000D03*
X133985000Y-62230000D03*
X130175000Y-62230000D03*
X133350000Y-62230000D03*
X130810000Y-62230000D03*
X129540000Y-62230000D03*
X131445000Y-62230000D03*
X132080000Y-62230000D03*
X128905000Y-62230000D03*
X129540000Y-61595000D03*
X130175000Y-61595000D03*
X133350000Y-61595000D03*
X131445000Y-61595000D03*
X132080000Y-61595000D03*
X128905000Y-61595000D03*
X130810000Y-61595000D03*
X132715000Y-61595000D03*
X133985000Y-61595000D03*
X132715000Y-60960000D03*
X133985000Y-60960000D03*
X129540000Y-60960000D03*
X133350000Y-60960000D03*
X131445000Y-60960000D03*
X130810000Y-60960000D03*
X128905000Y-60960000D03*
X132080000Y-60960000D03*
X130175000Y-60960000D03*
X132080000Y-60325000D03*
X130175000Y-60325000D03*
X133985000Y-60325000D03*
X130810000Y-60325000D03*
X132715000Y-60325000D03*
X128905000Y-60325000D03*
X129540000Y-60325000D03*
X131445000Y-60325000D03*
X133350000Y-60325000D03*
X129540000Y-59690000D03*
X131445000Y-59690000D03*
X133350000Y-59690000D03*
X128905000Y-59690000D03*
X132080000Y-59690000D03*
X133985000Y-59690000D03*
X130810000Y-59690000D03*
X130175000Y-59690000D03*
X132715000Y-59690000D03*
X133350000Y-59055000D03*
X132715000Y-59055000D03*
X133985000Y-59055000D03*
X130810000Y-59055000D03*
X130175000Y-59055000D03*
X129540000Y-59055000D03*
X132080000Y-59055000D03*
X131445000Y-59055000D03*
X128905000Y-59055000D03*
X133985000Y-58420000D03*
X132715000Y-58420000D03*
X133350000Y-58420000D03*
X132080000Y-58420000D03*
X131445000Y-58420000D03*
X130810000Y-58420000D03*
X130175000Y-58420000D03*
X129540000Y-58420000D03*
X128905000Y-58420000D03*
%TO.N,VCC*%
X146050000Y-59055000D03*
X146685000Y-59690000D03*
X147320000Y-59055000D03*
X146685000Y-59055000D03*
X146685000Y-58420000D03*
X147955000Y-58420000D03*
X147955000Y-59690000D03*
X147955000Y-59055000D03*
X148590000Y-59055000D03*
X148590000Y-60325000D03*
X147955000Y-60960000D03*
X147955000Y-60325000D03*
X147320000Y-60325000D03*
X146685000Y-60325000D03*
X146685000Y-60960000D03*
X146050000Y-60325000D03*
X145415000Y-59690000D03*
X145415000Y-60960000D03*
X145415000Y-60325000D03*
X144780000Y-60325000D03*
X144780000Y-59055000D03*
X145415000Y-59055000D03*
X145415000Y-58420000D03*
X144145000Y-58420000D03*
X144145000Y-59690000D03*
X144145000Y-59055000D03*
X143510000Y-59055000D03*
X143510000Y-60325000D03*
X144145000Y-60325000D03*
X144145000Y-60960000D03*
X143510000Y-61595000D03*
X144145000Y-61595000D03*
X144780000Y-61595000D03*
X145415000Y-61595000D03*
X146050000Y-61595000D03*
X146685000Y-61595000D03*
X147320000Y-61595000D03*
X147955000Y-61595000D03*
X148590000Y-61595000D03*
X148590000Y-62865000D03*
X147955000Y-62230000D03*
X147955000Y-62865000D03*
X147320000Y-62865000D03*
X146685000Y-62230000D03*
X146685000Y-62865000D03*
X146050000Y-62865000D03*
X145415000Y-62230000D03*
X145415000Y-62865000D03*
X144780000Y-62865000D03*
X144145000Y-62230000D03*
X144145000Y-62865000D03*
X143510000Y-62865000D03*
X143510000Y-62230000D03*
X144780000Y-62230000D03*
X146050000Y-62230000D03*
X147320000Y-62230000D03*
X148590000Y-62230000D03*
X148590000Y-60960000D03*
X147320000Y-60960000D03*
X146050000Y-60960000D03*
X144780000Y-60960000D03*
X143510000Y-60960000D03*
X143510000Y-59690000D03*
X144780000Y-59690000D03*
X146050000Y-59690000D03*
X147320000Y-59690000D03*
X148590000Y-59690000D03*
X148590000Y-58420000D03*
X147320000Y-58420000D03*
X146050000Y-58420000D03*
X144780000Y-58420000D03*
X143510000Y-58420000D03*
%TO.N,+5V*%
X112064800Y-60756800D03*
%TO.N,GND*%
X103022400Y-54051200D03*
%TO.N,-5V*%
X102463600Y-66675000D03*
%TO.N,Vg*%
X101219000Y-60325000D03*
X105283000Y-40259000D03*
%TO.N,GND*%
X81026000Y-42545000D03*
%TO.N,~{SD}*%
X81915000Y-43815000D03*
X97790000Y-38735000D03*
%TO.N,Net-(U6A-+)*%
X106045000Y-43789600D03*
%TO.N,GND*%
X109855000Y-55880000D03*
X109220000Y-59055000D03*
X108585000Y-43815000D03*
X107950000Y-46355000D03*
%TO.N,VCC*%
X82550000Y-59436000D03*
%TO.N,+5V*%
X61849000Y-67945000D03*
X88519000Y-61595000D03*
X112318800Y-37439600D03*
X114935000Y-43815000D03*
%TO.N,-5V*%
X100711000Y-46736000D03*
X69088000Y-48133000D03*
%TO.N,+5V*%
X77851000Y-46228000D03*
X61244500Y-47020500D03*
%TO.N,+3.3V REF*%
X85217000Y-57785000D03*
%TO.N,Net-(D3-K)*%
X90551000Y-39878000D03*
X87757000Y-35814000D03*
%TO.N,-3.3V REF*%
X113665000Y-57150000D03*
%TO.N,+3.3V REF*%
X115189000Y-68453000D03*
X87884000Y-66675000D03*
%TO.N,GND*%
X98425000Y-67310000D03*
X98425000Y-69850000D03*
X106426000Y-69850000D03*
X110617000Y-67437000D03*
%TD*%
%TA.AperFunction,Conductor*%
%TO.N,GND*%
G36*
X149228472Y-25900695D02*
G01*
X149517507Y-25916927D01*
X149531305Y-25918481D01*
X149813265Y-25966388D01*
X149826821Y-25969482D01*
X150101642Y-26048657D01*
X150114768Y-26053250D01*
X150378994Y-26162696D01*
X150391508Y-26168722D01*
X150641830Y-26307070D01*
X150653603Y-26314468D01*
X150886843Y-26479961D01*
X150897704Y-26488622D01*
X151110964Y-26679202D01*
X151120797Y-26689035D01*
X151311373Y-26902290D01*
X151320042Y-26913162D01*
X151485530Y-27146395D01*
X151492929Y-27158169D01*
X151631273Y-27408484D01*
X151637306Y-27421012D01*
X151746749Y-27685232D01*
X151751342Y-27698357D01*
X151830517Y-27973178D01*
X151833611Y-27986735D01*
X151881516Y-28268684D01*
X151883073Y-28282502D01*
X151899305Y-28571527D01*
X151899500Y-28578480D01*
X151899500Y-73021519D01*
X151899305Y-73028472D01*
X151883073Y-73317497D01*
X151881516Y-73331315D01*
X151833611Y-73613264D01*
X151830517Y-73626821D01*
X151751342Y-73901642D01*
X151746749Y-73914767D01*
X151637306Y-74178987D01*
X151631273Y-74191515D01*
X151492929Y-74441830D01*
X151485530Y-74453604D01*
X151320042Y-74686837D01*
X151311373Y-74697709D01*
X151120797Y-74910964D01*
X151110964Y-74920797D01*
X150897709Y-75111373D01*
X150886837Y-75120042D01*
X150653604Y-75285530D01*
X150641830Y-75292929D01*
X150391515Y-75431273D01*
X150378987Y-75437306D01*
X150114767Y-75546749D01*
X150101642Y-75551342D01*
X149826821Y-75630517D01*
X149813264Y-75633611D01*
X149531315Y-75681516D01*
X149517497Y-75683073D01*
X149228472Y-75699305D01*
X149221519Y-75699500D01*
X53978481Y-75699500D01*
X53971528Y-75699305D01*
X53682502Y-75683073D01*
X53668684Y-75681516D01*
X53386735Y-75633611D01*
X53373178Y-75630517D01*
X53098357Y-75551342D01*
X53085232Y-75546749D01*
X52821012Y-75437306D01*
X52808484Y-75431273D01*
X52558169Y-75292929D01*
X52546395Y-75285530D01*
X52313162Y-75120042D01*
X52302290Y-75111373D01*
X52089035Y-74920797D01*
X52079202Y-74910964D01*
X51888626Y-74697709D01*
X51879961Y-74686843D01*
X51714468Y-74453603D01*
X51707070Y-74441830D01*
X51568726Y-74191515D01*
X51562696Y-74178994D01*
X51453250Y-73914767D01*
X51448657Y-73901642D01*
X51369482Y-73626821D01*
X51366388Y-73613264D01*
X51359773Y-73574331D01*
X51318481Y-73331305D01*
X51316927Y-73317507D01*
X51316225Y-73305001D01*
X125629500Y-73305001D01*
X125629501Y-73305018D01*
X125640000Y-73407796D01*
X125640001Y-73407799D01*
X125681930Y-73534331D01*
X125695186Y-73574334D01*
X125787288Y-73723656D01*
X125911344Y-73847712D01*
X126060666Y-73939814D01*
X126227203Y-73994999D01*
X126329991Y-74005500D01*
X127670008Y-74005499D01*
X127772797Y-73994999D01*
X127939334Y-73939814D01*
X128088656Y-73847712D01*
X128212712Y-73723656D01*
X128304814Y-73574334D01*
X128359999Y-73407797D01*
X128370500Y-73305009D01*
X128370500Y-73265001D01*
X136424500Y-73265001D01*
X136424501Y-73265018D01*
X136435000Y-73367796D01*
X136435001Y-73367799D01*
X136448256Y-73407799D01*
X136490186Y-73534334D01*
X136582288Y-73683656D01*
X136706344Y-73807712D01*
X136855666Y-73899814D01*
X137022203Y-73954999D01*
X137124991Y-73965500D01*
X138465008Y-73965499D01*
X138567797Y-73954999D01*
X138734334Y-73899814D01*
X138883656Y-73807712D01*
X139007712Y-73683656D01*
X139099814Y-73534334D01*
X139154999Y-73367797D01*
X139165500Y-73265009D01*
X139165499Y-71474992D01*
X139154999Y-71372203D01*
X139099814Y-71205666D01*
X139007712Y-71056344D01*
X138883656Y-70932288D01*
X138734334Y-70840186D01*
X138567797Y-70785001D01*
X138567795Y-70785000D01*
X138465010Y-70774500D01*
X137124998Y-70774500D01*
X137124981Y-70774501D01*
X137022203Y-70785000D01*
X137022200Y-70785001D01*
X136855668Y-70840185D01*
X136855663Y-70840187D01*
X136706342Y-70932289D01*
X136582289Y-71056342D01*
X136490187Y-71205663D01*
X136490185Y-71205668D01*
X136462349Y-71289670D01*
X136435001Y-71372203D01*
X136435001Y-71372204D01*
X136435000Y-71372204D01*
X136424500Y-71474983D01*
X136424500Y-73265001D01*
X128370500Y-73265001D01*
X128370499Y-71514992D01*
X128359999Y-71412203D01*
X128304814Y-71245666D01*
X128212712Y-71096344D01*
X128088656Y-70972288D01*
X127939334Y-70880186D01*
X127772797Y-70825001D01*
X127772795Y-70825000D01*
X127670010Y-70814500D01*
X126329998Y-70814500D01*
X126329981Y-70814501D01*
X126227203Y-70825000D01*
X126227200Y-70825001D01*
X126060668Y-70880185D01*
X126060663Y-70880187D01*
X125911342Y-70972289D01*
X125787289Y-71096342D01*
X125695187Y-71245663D01*
X125695186Y-71245666D01*
X125640001Y-71412203D01*
X125640001Y-71412204D01*
X125640000Y-71412204D01*
X125629500Y-71514983D01*
X125629500Y-73305001D01*
X51316225Y-73305001D01*
X51300695Y-73028472D01*
X51300500Y-73021519D01*
X51300500Y-67945003D01*
X61043435Y-67945003D01*
X61063630Y-68124249D01*
X61063631Y-68124254D01*
X61123211Y-68294523D01*
X61219184Y-68447262D01*
X61346738Y-68574816D01*
X61499478Y-68670789D01*
X61669745Y-68730368D01*
X61669750Y-68730369D01*
X61848996Y-68750565D01*
X61849000Y-68750565D01*
X61849004Y-68750565D01*
X62028249Y-68730369D01*
X62028252Y-68730368D01*
X62028255Y-68730368D01*
X62198522Y-68670789D01*
X62351262Y-68574816D01*
X62473075Y-68453003D01*
X114383435Y-68453003D01*
X114403630Y-68632249D01*
X114403631Y-68632254D01*
X114463211Y-68802523D01*
X114559184Y-68955262D01*
X114686738Y-69082816D01*
X114839478Y-69178789D01*
X115009745Y-69238368D01*
X115009750Y-69238369D01*
X115188996Y-69258565D01*
X115189000Y-69258565D01*
X115189004Y-69258565D01*
X115368249Y-69238369D01*
X115368252Y-69238368D01*
X115368255Y-69238368D01*
X115538522Y-69178789D01*
X115691262Y-69082816D01*
X115818816Y-68955262D01*
X115914789Y-68802522D01*
X115974368Y-68632255D01*
X115994565Y-68453000D01*
X115993918Y-68447262D01*
X115974369Y-68273750D01*
X115974368Y-68273745D01*
X115914788Y-68103476D01*
X115818815Y-67950737D01*
X115691262Y-67823184D01*
X115538523Y-67727211D01*
X115368254Y-67667631D01*
X115368249Y-67667630D01*
X115189004Y-67647435D01*
X115188996Y-67647435D01*
X115009750Y-67667630D01*
X115009745Y-67667631D01*
X114839476Y-67727211D01*
X114686737Y-67823184D01*
X114559184Y-67950737D01*
X114463211Y-68103476D01*
X114403631Y-68273745D01*
X114403630Y-68273750D01*
X114383435Y-68452996D01*
X114383435Y-68453003D01*
X62473075Y-68453003D01*
X62478816Y-68447262D01*
X62574789Y-68294522D01*
X62634368Y-68124255D01*
X62636709Y-68103478D01*
X62654565Y-67945003D01*
X62654565Y-67944996D01*
X62634369Y-67765750D01*
X62634368Y-67765745D01*
X62600036Y-67667630D01*
X62574789Y-67595478D01*
X62478816Y-67442738D01*
X62351262Y-67315184D01*
X62198523Y-67219211D01*
X62028254Y-67159631D01*
X62028249Y-67159630D01*
X61849004Y-67139435D01*
X61848996Y-67139435D01*
X61669750Y-67159630D01*
X61669745Y-67159631D01*
X61499476Y-67219211D01*
X61346737Y-67315184D01*
X61219184Y-67442737D01*
X61123211Y-67595476D01*
X61063631Y-67765745D01*
X61063630Y-67765750D01*
X61043435Y-67944996D01*
X61043435Y-67945003D01*
X51300500Y-67945003D01*
X51300500Y-66675003D01*
X87078435Y-66675003D01*
X87098630Y-66854249D01*
X87098631Y-66854254D01*
X87158211Y-67024523D01*
X87230416Y-67139435D01*
X87254184Y-67177262D01*
X87381738Y-67304816D01*
X87534478Y-67400789D01*
X87704745Y-67460368D01*
X87704750Y-67460369D01*
X87883996Y-67480565D01*
X87884000Y-67480565D01*
X87884004Y-67480565D01*
X88063249Y-67460369D01*
X88063252Y-67460368D01*
X88063255Y-67460368D01*
X88233522Y-67400789D01*
X88386262Y-67304816D01*
X88513816Y-67177262D01*
X88609789Y-67024522D01*
X88669368Y-66854255D01*
X88689565Y-66675003D01*
X101658035Y-66675003D01*
X101678230Y-66854249D01*
X101678231Y-66854254D01*
X101737811Y-67024523D01*
X101810016Y-67139435D01*
X101833784Y-67177262D01*
X101961338Y-67304816D01*
X102114078Y-67400789D01*
X102284345Y-67460368D01*
X102284350Y-67460369D01*
X102463596Y-67480565D01*
X102463600Y-67480565D01*
X102463604Y-67480565D01*
X102642849Y-67460369D01*
X102642852Y-67460368D01*
X102642855Y-67460368D01*
X102813122Y-67400789D01*
X102965862Y-67304816D01*
X103093416Y-67177262D01*
X103189389Y-67024522D01*
X103248968Y-66854255D01*
X103269165Y-66675000D01*
X103248968Y-66495745D01*
X103189389Y-66325478D01*
X103093416Y-66172738D01*
X102965862Y-66045184D01*
X102813123Y-65949211D01*
X102642854Y-65889631D01*
X102642849Y-65889630D01*
X102463604Y-65869435D01*
X102463596Y-65869435D01*
X102284350Y-65889630D01*
X102284345Y-65889631D01*
X102114076Y-65949211D01*
X101961337Y-66045184D01*
X101833784Y-66172737D01*
X101737811Y-66325476D01*
X101678231Y-66495745D01*
X101678230Y-66495750D01*
X101658035Y-66674996D01*
X101658035Y-66675003D01*
X88689565Y-66675003D01*
X88689565Y-66675000D01*
X88669368Y-66495745D01*
X88609789Y-66325478D01*
X88513816Y-66172738D01*
X88386262Y-66045184D01*
X88233523Y-65949211D01*
X88063254Y-65889631D01*
X88063249Y-65889630D01*
X87884004Y-65869435D01*
X87883996Y-65869435D01*
X87704750Y-65889630D01*
X87704745Y-65889631D01*
X87534476Y-65949211D01*
X87381737Y-66045184D01*
X87254184Y-66172737D01*
X87158211Y-66325476D01*
X87098631Y-66495745D01*
X87098630Y-66495750D01*
X87078435Y-66674996D01*
X87078435Y-66675003D01*
X51300500Y-66675003D01*
X51300500Y-62865003D01*
X128099435Y-62865003D01*
X128119630Y-63044249D01*
X128119631Y-63044254D01*
X128179211Y-63214523D01*
X128275184Y-63367262D01*
X128402738Y-63494816D01*
X128555478Y-63590789D01*
X128628453Y-63616324D01*
X128725745Y-63650368D01*
X128725750Y-63650369D01*
X128904996Y-63670565D01*
X128905000Y-63670565D01*
X128905004Y-63670565D01*
X129084251Y-63650369D01*
X129084253Y-63650368D01*
X129084255Y-63650368D01*
X129181545Y-63616323D01*
X129251323Y-63612761D01*
X129263455Y-63616324D01*
X129360748Y-63650369D01*
X129539996Y-63670565D01*
X129540000Y-63670565D01*
X129540004Y-63670565D01*
X129719251Y-63650369D01*
X129719253Y-63650368D01*
X129719255Y-63650368D01*
X129816545Y-63616323D01*
X129886323Y-63612761D01*
X129898455Y-63616324D01*
X129995748Y-63650369D01*
X130174996Y-63670565D01*
X130175000Y-63670565D01*
X130175004Y-63670565D01*
X130354251Y-63650369D01*
X130354253Y-63650368D01*
X130354255Y-63650368D01*
X130451545Y-63616323D01*
X130521323Y-63612761D01*
X130533455Y-63616324D01*
X130630748Y-63650369D01*
X130809996Y-63670565D01*
X130810000Y-63670565D01*
X130810004Y-63670565D01*
X130989251Y-63650369D01*
X130989253Y-63650368D01*
X130989255Y-63650368D01*
X131086545Y-63616323D01*
X131156323Y-63612761D01*
X131168455Y-63616324D01*
X131265748Y-63650369D01*
X131444996Y-63670565D01*
X131445000Y-63670565D01*
X131445004Y-63670565D01*
X131624251Y-63650369D01*
X131624253Y-63650368D01*
X131624255Y-63650368D01*
X131721545Y-63616323D01*
X131791323Y-63612761D01*
X131803455Y-63616324D01*
X131900748Y-63650369D01*
X132079996Y-63670565D01*
X132080000Y-63670565D01*
X132080004Y-63670565D01*
X132259251Y-63650369D01*
X132259253Y-63650368D01*
X132259255Y-63650368D01*
X132356545Y-63616323D01*
X132426323Y-63612761D01*
X132438455Y-63616324D01*
X132535748Y-63650369D01*
X132714996Y-63670565D01*
X132715000Y-63670565D01*
X132715004Y-63670565D01*
X132894251Y-63650369D01*
X132894253Y-63650368D01*
X132894255Y-63650368D01*
X132991545Y-63616323D01*
X133061323Y-63612761D01*
X133073455Y-63616324D01*
X133170748Y-63650369D01*
X133349996Y-63670565D01*
X133350000Y-63670565D01*
X133350004Y-63670565D01*
X133529251Y-63650369D01*
X133529253Y-63650368D01*
X133529255Y-63650368D01*
X133626545Y-63616323D01*
X133696323Y-63612761D01*
X133708455Y-63616324D01*
X133805748Y-63650369D01*
X133984996Y-63670565D01*
X133985000Y-63670565D01*
X133985004Y-63670565D01*
X134164249Y-63650369D01*
X134164252Y-63650368D01*
X134164255Y-63650368D01*
X134334522Y-63590789D01*
X134487262Y-63494816D01*
X134614816Y-63367262D01*
X134710789Y-63214522D01*
X134770368Y-63044255D01*
X134790565Y-62865003D01*
X142704435Y-62865003D01*
X142724630Y-63044249D01*
X142724631Y-63044254D01*
X142784211Y-63214523D01*
X142880184Y-63367262D01*
X143007738Y-63494816D01*
X143160478Y-63590789D01*
X143233453Y-63616324D01*
X143330745Y-63650368D01*
X143330750Y-63650369D01*
X143509996Y-63670565D01*
X143510000Y-63670565D01*
X143510004Y-63670565D01*
X143689251Y-63650369D01*
X143689253Y-63650368D01*
X143689255Y-63650368D01*
X143786545Y-63616323D01*
X143856323Y-63612761D01*
X143868455Y-63616324D01*
X143965748Y-63650369D01*
X144144996Y-63670565D01*
X144145000Y-63670565D01*
X144145004Y-63670565D01*
X144324251Y-63650369D01*
X144324253Y-63650368D01*
X144324255Y-63650368D01*
X144421545Y-63616323D01*
X144491323Y-63612761D01*
X144503455Y-63616324D01*
X144600748Y-63650369D01*
X144779996Y-63670565D01*
X144780000Y-63670565D01*
X144780004Y-63670565D01*
X144959251Y-63650369D01*
X144959253Y-63650368D01*
X144959255Y-63650368D01*
X145056545Y-63616323D01*
X145126323Y-63612761D01*
X145138455Y-63616324D01*
X145235748Y-63650369D01*
X145414996Y-63670565D01*
X145415000Y-63670565D01*
X145415004Y-63670565D01*
X145594251Y-63650369D01*
X145594253Y-63650368D01*
X145594255Y-63650368D01*
X145691545Y-63616323D01*
X145761323Y-63612761D01*
X145773455Y-63616324D01*
X145870748Y-63650369D01*
X146049996Y-63670565D01*
X146050000Y-63670565D01*
X146050004Y-63670565D01*
X146229251Y-63650369D01*
X146229253Y-63650368D01*
X146229255Y-63650368D01*
X146326545Y-63616323D01*
X146396323Y-63612761D01*
X146408455Y-63616324D01*
X146505748Y-63650369D01*
X146684996Y-63670565D01*
X146685000Y-63670565D01*
X146685004Y-63670565D01*
X146864251Y-63650369D01*
X146864253Y-63650368D01*
X146864255Y-63650368D01*
X146961545Y-63616323D01*
X147031323Y-63612761D01*
X147043455Y-63616324D01*
X147140748Y-63650369D01*
X147319996Y-63670565D01*
X147320000Y-63670565D01*
X147320004Y-63670565D01*
X147499251Y-63650369D01*
X147499253Y-63650368D01*
X147499255Y-63650368D01*
X147596545Y-63616323D01*
X147666323Y-63612761D01*
X147678455Y-63616324D01*
X147775748Y-63650369D01*
X147954996Y-63670565D01*
X147955000Y-63670565D01*
X147955004Y-63670565D01*
X148134251Y-63650369D01*
X148134253Y-63650368D01*
X148134255Y-63650368D01*
X148231545Y-63616323D01*
X148301323Y-63612761D01*
X148313455Y-63616324D01*
X148410748Y-63650369D01*
X148589996Y-63670565D01*
X148590000Y-63670565D01*
X148590004Y-63670565D01*
X148769249Y-63650369D01*
X148769252Y-63650368D01*
X148769255Y-63650368D01*
X148939522Y-63590789D01*
X149092262Y-63494816D01*
X149219816Y-63367262D01*
X149315789Y-63214522D01*
X149375368Y-63044255D01*
X149395565Y-62865000D01*
X149375369Y-62685750D01*
X149375369Y-62685748D01*
X149341324Y-62588455D01*
X149337761Y-62518677D01*
X149341324Y-62506545D01*
X149375369Y-62409251D01*
X149395565Y-62230003D01*
X149395565Y-62229996D01*
X149375369Y-62050748D01*
X149341324Y-61953455D01*
X149337761Y-61883677D01*
X149341324Y-61871545D01*
X149375369Y-61774251D01*
X149395565Y-61595003D01*
X149395565Y-61594996D01*
X149375369Y-61415748D01*
X149341324Y-61318455D01*
X149337761Y-61248677D01*
X149341324Y-61236545D01*
X149375369Y-61139251D01*
X149395565Y-60960003D01*
X149395565Y-60959996D01*
X149375369Y-60780748D01*
X149341324Y-60683455D01*
X149337761Y-60613677D01*
X149341324Y-60601545D01*
X149375369Y-60504251D01*
X149395565Y-60325003D01*
X149395565Y-60324996D01*
X149375369Y-60145748D01*
X149341324Y-60048455D01*
X149337761Y-59978677D01*
X149341324Y-59966545D01*
X149375369Y-59869251D01*
X149395565Y-59690003D01*
X149395565Y-59689996D01*
X149375369Y-59510748D01*
X149341324Y-59413455D01*
X149337761Y-59343677D01*
X149341324Y-59331545D01*
X149375369Y-59234251D01*
X149395565Y-59055003D01*
X149395565Y-59054996D01*
X149375369Y-58875748D01*
X149341324Y-58778455D01*
X149337761Y-58708677D01*
X149341324Y-58696545D01*
X149375369Y-58599251D01*
X149395565Y-58420003D01*
X149395565Y-58419996D01*
X149375369Y-58240750D01*
X149375368Y-58240745D01*
X149315788Y-58070476D01*
X149276582Y-58008080D01*
X149219816Y-57917738D01*
X149092262Y-57790184D01*
X148939523Y-57694211D01*
X148769254Y-57634631D01*
X148769249Y-57634630D01*
X148590004Y-57614435D01*
X148589996Y-57614435D01*
X148410750Y-57634630D01*
X148410742Y-57634632D01*
X148313454Y-57668675D01*
X148243676Y-57672236D01*
X148231546Y-57668675D01*
X148134257Y-57634632D01*
X148134249Y-57634630D01*
X147955004Y-57614435D01*
X147954996Y-57614435D01*
X147775750Y-57634630D01*
X147775742Y-57634632D01*
X147678454Y-57668675D01*
X147608676Y-57672236D01*
X147596546Y-57668675D01*
X147499257Y-57634632D01*
X147499249Y-57634630D01*
X147320004Y-57614435D01*
X147319996Y-57614435D01*
X147140750Y-57634630D01*
X147140742Y-57634632D01*
X147043454Y-57668675D01*
X146973676Y-57672236D01*
X146961546Y-57668675D01*
X146864257Y-57634632D01*
X146864249Y-57634630D01*
X146685004Y-57614435D01*
X146684996Y-57614435D01*
X146505750Y-57634630D01*
X146505742Y-57634632D01*
X146408454Y-57668675D01*
X146338676Y-57672236D01*
X146326546Y-57668675D01*
X146229257Y-57634632D01*
X146229249Y-57634630D01*
X146050004Y-57614435D01*
X146049996Y-57614435D01*
X145870750Y-57634630D01*
X145870742Y-57634632D01*
X145773454Y-57668675D01*
X145703676Y-57672236D01*
X145691546Y-57668675D01*
X145594257Y-57634632D01*
X145594249Y-57634630D01*
X145415004Y-57614435D01*
X145414996Y-57614435D01*
X145235750Y-57634630D01*
X145235742Y-57634632D01*
X145138454Y-57668675D01*
X145068676Y-57672236D01*
X145056546Y-57668675D01*
X144959257Y-57634632D01*
X144959249Y-57634630D01*
X144780004Y-57614435D01*
X144779996Y-57614435D01*
X144600750Y-57634630D01*
X144600742Y-57634632D01*
X144503454Y-57668675D01*
X144433676Y-57672236D01*
X144421546Y-57668675D01*
X144324257Y-57634632D01*
X144324249Y-57634630D01*
X144145004Y-57614435D01*
X144144996Y-57614435D01*
X143965750Y-57634630D01*
X143965742Y-57634632D01*
X143868454Y-57668675D01*
X143798676Y-57672236D01*
X143786546Y-57668675D01*
X143689257Y-57634632D01*
X143689249Y-57634630D01*
X143510004Y-57614435D01*
X143509996Y-57614435D01*
X143330750Y-57634630D01*
X143330745Y-57634631D01*
X143160476Y-57694211D01*
X143007737Y-57790184D01*
X142880184Y-57917737D01*
X142784211Y-58070476D01*
X142724631Y-58240745D01*
X142724630Y-58240750D01*
X142704435Y-58419996D01*
X142704435Y-58420003D01*
X142724630Y-58599249D01*
X142724632Y-58599257D01*
X142758675Y-58696546D01*
X142762236Y-58766324D01*
X142758675Y-58778454D01*
X142724632Y-58875742D01*
X142724630Y-58875750D01*
X142704435Y-59054996D01*
X142704435Y-59055003D01*
X142724630Y-59234249D01*
X142724632Y-59234257D01*
X142758675Y-59331546D01*
X142762236Y-59401324D01*
X142758675Y-59413454D01*
X142724632Y-59510742D01*
X142724630Y-59510750D01*
X142704435Y-59689996D01*
X142704435Y-59690003D01*
X142724630Y-59869249D01*
X142724632Y-59869257D01*
X142758675Y-59966546D01*
X142762236Y-60036324D01*
X142758675Y-60048454D01*
X142724632Y-60145742D01*
X142724630Y-60145750D01*
X142704435Y-60324996D01*
X142704435Y-60325003D01*
X142724630Y-60504249D01*
X142724632Y-60504257D01*
X142758675Y-60601546D01*
X142762236Y-60671324D01*
X142758675Y-60683454D01*
X142724632Y-60780742D01*
X142724630Y-60780750D01*
X142704435Y-60959996D01*
X142704435Y-60960003D01*
X142724630Y-61139249D01*
X142724632Y-61139257D01*
X142758675Y-61236546D01*
X142762236Y-61306324D01*
X142758675Y-61318454D01*
X142724632Y-61415742D01*
X142724630Y-61415750D01*
X142704435Y-61594996D01*
X142704435Y-61595003D01*
X142724630Y-61774249D01*
X142724632Y-61774257D01*
X142758675Y-61871546D01*
X142762236Y-61941324D01*
X142758675Y-61953454D01*
X142724632Y-62050742D01*
X142724630Y-62050750D01*
X142704435Y-62229996D01*
X142704435Y-62230003D01*
X142724630Y-62409249D01*
X142724632Y-62409257D01*
X142758675Y-62506546D01*
X142762236Y-62576324D01*
X142758675Y-62588454D01*
X142724632Y-62685742D01*
X142724630Y-62685750D01*
X142704435Y-62864996D01*
X142704435Y-62865003D01*
X134790565Y-62865003D01*
X134790565Y-62865000D01*
X134770369Y-62685750D01*
X134770369Y-62685748D01*
X134736324Y-62588455D01*
X134732761Y-62518677D01*
X134736324Y-62506545D01*
X134770369Y-62409251D01*
X134790565Y-62230003D01*
X134790565Y-62229996D01*
X134770369Y-62050748D01*
X134736324Y-61953455D01*
X134732761Y-61883677D01*
X134736324Y-61871545D01*
X134770369Y-61774251D01*
X134790565Y-61595003D01*
X134790565Y-61594996D01*
X134770369Y-61415748D01*
X134736324Y-61318455D01*
X134732761Y-61248677D01*
X134736324Y-61236545D01*
X134770369Y-61139251D01*
X134790565Y-60960003D01*
X134790565Y-60959996D01*
X134770369Y-60780748D01*
X134736324Y-60683455D01*
X134732761Y-60613677D01*
X134736324Y-60601545D01*
X134770369Y-60504251D01*
X134790565Y-60325003D01*
X134790565Y-60324996D01*
X134770369Y-60145748D01*
X134736324Y-60048455D01*
X134732761Y-59978677D01*
X134736324Y-59966545D01*
X134770369Y-59869251D01*
X134790565Y-59690003D01*
X134790565Y-59689996D01*
X134770369Y-59510748D01*
X134736324Y-59413455D01*
X134732761Y-59343677D01*
X134736324Y-59331545D01*
X134770369Y-59234251D01*
X134790565Y-59055003D01*
X134790565Y-59054996D01*
X134770369Y-58875748D01*
X134736324Y-58778455D01*
X134732761Y-58708677D01*
X134736324Y-58696545D01*
X134770369Y-58599251D01*
X134790565Y-58420003D01*
X134790565Y-58419996D01*
X134770369Y-58240750D01*
X134770368Y-58240745D01*
X134710788Y-58070476D01*
X134671582Y-58008080D01*
X134614816Y-57917738D01*
X134487262Y-57790184D01*
X134334523Y-57694211D01*
X134164254Y-57634631D01*
X134164249Y-57634630D01*
X133985004Y-57614435D01*
X133984996Y-57614435D01*
X133805750Y-57634630D01*
X133805742Y-57634632D01*
X133708454Y-57668675D01*
X133638676Y-57672236D01*
X133626546Y-57668675D01*
X133529257Y-57634632D01*
X133529249Y-57634630D01*
X133350004Y-57614435D01*
X133349996Y-57614435D01*
X133170750Y-57634630D01*
X133170742Y-57634632D01*
X133073454Y-57668675D01*
X133003676Y-57672236D01*
X132991546Y-57668675D01*
X132894257Y-57634632D01*
X132894249Y-57634630D01*
X132715004Y-57614435D01*
X132714996Y-57614435D01*
X132535750Y-57634630D01*
X132535742Y-57634632D01*
X132438454Y-57668675D01*
X132368676Y-57672236D01*
X132356546Y-57668675D01*
X132259257Y-57634632D01*
X132259249Y-57634630D01*
X132080004Y-57614435D01*
X132079996Y-57614435D01*
X131900750Y-57634630D01*
X131900742Y-57634632D01*
X131803454Y-57668675D01*
X131733676Y-57672236D01*
X131721546Y-57668675D01*
X131624257Y-57634632D01*
X131624249Y-57634630D01*
X131445004Y-57614435D01*
X131444996Y-57614435D01*
X131265750Y-57634630D01*
X131265742Y-57634632D01*
X131168454Y-57668675D01*
X131098676Y-57672236D01*
X131086546Y-57668675D01*
X130989257Y-57634632D01*
X130989249Y-57634630D01*
X130810004Y-57614435D01*
X130809996Y-57614435D01*
X130630750Y-57634630D01*
X130630742Y-57634632D01*
X130533454Y-57668675D01*
X130463676Y-57672236D01*
X130451546Y-57668675D01*
X130354257Y-57634632D01*
X130354249Y-57634630D01*
X130175004Y-57614435D01*
X130174996Y-57614435D01*
X129995750Y-57634630D01*
X129995742Y-57634632D01*
X129898454Y-57668675D01*
X129828676Y-57672236D01*
X129816546Y-57668675D01*
X129719257Y-57634632D01*
X129719249Y-57634630D01*
X129540004Y-57614435D01*
X129539996Y-57614435D01*
X129360750Y-57634630D01*
X129360742Y-57634632D01*
X129263454Y-57668675D01*
X129193676Y-57672236D01*
X129181546Y-57668675D01*
X129084257Y-57634632D01*
X129084249Y-57634630D01*
X128905004Y-57614435D01*
X128904996Y-57614435D01*
X128725750Y-57634630D01*
X128725745Y-57634631D01*
X128555476Y-57694211D01*
X128402737Y-57790184D01*
X128275184Y-57917737D01*
X128179211Y-58070476D01*
X128119631Y-58240745D01*
X128119630Y-58240750D01*
X128099435Y-58419996D01*
X128099435Y-58420003D01*
X128119630Y-58599249D01*
X128119632Y-58599257D01*
X128153675Y-58696546D01*
X128157236Y-58766324D01*
X128153675Y-58778454D01*
X128119632Y-58875742D01*
X128119630Y-58875750D01*
X128099435Y-59054996D01*
X128099435Y-59055003D01*
X128119630Y-59234249D01*
X128119632Y-59234257D01*
X128153675Y-59331546D01*
X128157236Y-59401324D01*
X128153675Y-59413454D01*
X128119632Y-59510742D01*
X128119630Y-59510750D01*
X128099435Y-59689996D01*
X128099435Y-59690003D01*
X128119630Y-59869249D01*
X128119632Y-59869257D01*
X128153675Y-59966546D01*
X128157236Y-60036324D01*
X128153675Y-60048454D01*
X128119632Y-60145742D01*
X128119630Y-60145750D01*
X128099435Y-60324996D01*
X128099435Y-60325003D01*
X128119630Y-60504249D01*
X128119632Y-60504257D01*
X128153675Y-60601546D01*
X128157236Y-60671324D01*
X128153675Y-60683454D01*
X128119632Y-60780742D01*
X128119630Y-60780750D01*
X128099435Y-60959996D01*
X128099435Y-60960003D01*
X128119630Y-61139249D01*
X128119632Y-61139257D01*
X128153675Y-61236546D01*
X128157236Y-61306324D01*
X128153675Y-61318454D01*
X128119632Y-61415742D01*
X128119630Y-61415750D01*
X128099435Y-61594996D01*
X128099435Y-61595003D01*
X128119630Y-61774249D01*
X128119632Y-61774257D01*
X128153675Y-61871546D01*
X128157236Y-61941324D01*
X128153675Y-61953454D01*
X128119632Y-62050742D01*
X128119630Y-62050750D01*
X128099435Y-62229996D01*
X128099435Y-62230003D01*
X128119630Y-62409249D01*
X128119632Y-62409257D01*
X128153675Y-62506546D01*
X128157236Y-62576324D01*
X128153675Y-62588454D01*
X128119632Y-62685742D01*
X128119630Y-62685750D01*
X128099435Y-62864996D01*
X128099435Y-62865003D01*
X51300500Y-62865003D01*
X51300500Y-61595003D01*
X87713435Y-61595003D01*
X87733630Y-61774249D01*
X87733631Y-61774254D01*
X87793211Y-61944523D01*
X87889184Y-62097262D01*
X88016738Y-62224816D01*
X88169478Y-62320789D01*
X88339745Y-62380368D01*
X88339750Y-62380369D01*
X88518996Y-62400565D01*
X88519000Y-62400565D01*
X88519004Y-62400565D01*
X88698249Y-62380369D01*
X88698252Y-62380368D01*
X88698255Y-62380368D01*
X88868522Y-62320789D01*
X89021262Y-62224816D01*
X89148816Y-62097262D01*
X89244789Y-61944522D01*
X89304368Y-61774255D01*
X89304368Y-61774252D01*
X89304369Y-61774249D01*
X89324565Y-61595003D01*
X89324565Y-61594996D01*
X89304369Y-61415750D01*
X89304368Y-61415745D01*
X89244788Y-61245476D01*
X89178046Y-61139257D01*
X89148816Y-61092738D01*
X89021262Y-60965184D01*
X88868523Y-60869211D01*
X88698254Y-60809631D01*
X88698249Y-60809630D01*
X88519004Y-60789435D01*
X88518996Y-60789435D01*
X88339750Y-60809630D01*
X88339745Y-60809631D01*
X88169476Y-60869211D01*
X88016737Y-60965184D01*
X87889184Y-61092737D01*
X87793211Y-61245476D01*
X87733631Y-61415745D01*
X87733630Y-61415750D01*
X87713435Y-61594996D01*
X87713435Y-61595003D01*
X51300500Y-61595003D01*
X51300500Y-60325003D01*
X100413435Y-60325003D01*
X100433630Y-60504249D01*
X100433631Y-60504254D01*
X100493211Y-60674523D01*
X100565416Y-60789435D01*
X100589184Y-60827262D01*
X100716738Y-60954816D01*
X100869478Y-61050789D01*
X101028182Y-61106322D01*
X101039745Y-61110368D01*
X101039750Y-61110369D01*
X101218996Y-61130565D01*
X101219000Y-61130565D01*
X101219004Y-61130565D01*
X101398249Y-61110369D01*
X101398252Y-61110368D01*
X101398255Y-61110368D01*
X101568522Y-61050789D01*
X101721262Y-60954816D01*
X101848816Y-60827262D01*
X101893088Y-60756803D01*
X111259235Y-60756803D01*
X111279430Y-60936049D01*
X111279431Y-60936054D01*
X111339011Y-61106323D01*
X111359704Y-61139255D01*
X111434984Y-61259062D01*
X111562538Y-61386616D01*
X111715278Y-61482589D01*
X111885545Y-61542168D01*
X111885550Y-61542169D01*
X112064796Y-61562365D01*
X112064800Y-61562365D01*
X112064804Y-61562365D01*
X112244049Y-61542169D01*
X112244052Y-61542168D01*
X112244055Y-61542168D01*
X112414322Y-61482589D01*
X112567062Y-61386616D01*
X112694616Y-61259062D01*
X112790589Y-61106322D01*
X112850168Y-60936055D01*
X112850169Y-60936049D01*
X112870365Y-60756803D01*
X112870365Y-60756796D01*
X112850169Y-60577550D01*
X112850168Y-60577545D01*
X112824521Y-60504251D01*
X112790589Y-60407278D01*
X112694616Y-60254538D01*
X112567062Y-60126984D01*
X112469714Y-60065816D01*
X112414323Y-60031011D01*
X112244054Y-59971431D01*
X112244049Y-59971430D01*
X112064804Y-59951235D01*
X112064796Y-59951235D01*
X111885550Y-59971430D01*
X111885545Y-59971431D01*
X111715276Y-60031011D01*
X111562537Y-60126984D01*
X111434984Y-60254537D01*
X111339011Y-60407276D01*
X111279431Y-60577545D01*
X111279430Y-60577550D01*
X111259235Y-60756796D01*
X111259235Y-60756803D01*
X101893088Y-60756803D01*
X101944789Y-60674522D01*
X102004368Y-60504255D01*
X102004368Y-60504252D01*
X102004369Y-60504249D01*
X102024565Y-60325003D01*
X102024565Y-60324996D01*
X102004369Y-60145750D01*
X102004368Y-60145745D01*
X101997803Y-60126984D01*
X101944789Y-59975478D01*
X101942245Y-59971430D01*
X101878046Y-59869257D01*
X101848816Y-59822738D01*
X101721262Y-59695184D01*
X101568523Y-59599211D01*
X101398254Y-59539631D01*
X101398249Y-59539630D01*
X101219004Y-59519435D01*
X101218996Y-59519435D01*
X101039750Y-59539630D01*
X101039745Y-59539631D01*
X100869476Y-59599211D01*
X100716737Y-59695184D01*
X100589184Y-59822737D01*
X100493211Y-59975476D01*
X100433631Y-60145745D01*
X100433630Y-60145750D01*
X100413435Y-60324996D01*
X100413435Y-60325003D01*
X51300500Y-60325003D01*
X51300500Y-59436003D01*
X81744435Y-59436003D01*
X81764630Y-59615249D01*
X81764631Y-59615254D01*
X81824211Y-59785523D01*
X81847595Y-59822738D01*
X81920184Y-59938262D01*
X82047738Y-60065816D01*
X82200478Y-60161789D01*
X82370745Y-60221368D01*
X82370750Y-60221369D01*
X82549996Y-60241565D01*
X82550000Y-60241565D01*
X82550004Y-60241565D01*
X82729249Y-60221369D01*
X82729252Y-60221368D01*
X82729255Y-60221368D01*
X82899522Y-60161789D01*
X83052262Y-60065816D01*
X83179816Y-59938262D01*
X83275789Y-59785522D01*
X83335368Y-59615255D01*
X83343889Y-59539630D01*
X83355565Y-59436003D01*
X83355565Y-59435996D01*
X83335369Y-59256750D01*
X83335368Y-59256745D01*
X83275788Y-59086476D01*
X83179815Y-58933737D01*
X83052262Y-58806184D01*
X82899523Y-58710211D01*
X82729254Y-58650631D01*
X82729249Y-58650630D01*
X82550004Y-58630435D01*
X82549996Y-58630435D01*
X82370750Y-58650630D01*
X82370745Y-58650631D01*
X82200476Y-58710211D01*
X82047737Y-58806184D01*
X81920184Y-58933737D01*
X81824211Y-59086476D01*
X81764631Y-59256745D01*
X81764630Y-59256750D01*
X81744435Y-59435996D01*
X81744435Y-59436003D01*
X51300500Y-59436003D01*
X51300500Y-57785003D01*
X84411435Y-57785003D01*
X84431630Y-57964249D01*
X84431631Y-57964254D01*
X84491211Y-58134523D01*
X84587184Y-58287262D01*
X84714738Y-58414816D01*
X84867478Y-58510789D01*
X85037745Y-58570368D01*
X85037750Y-58570369D01*
X85216996Y-58590565D01*
X85217000Y-58590565D01*
X85217004Y-58590565D01*
X85396249Y-58570369D01*
X85396252Y-58570368D01*
X85396255Y-58570368D01*
X85566522Y-58510789D01*
X85719262Y-58414816D01*
X85846816Y-58287262D01*
X85942789Y-58134522D01*
X86002368Y-57964255D01*
X86007609Y-57917738D01*
X86022565Y-57785003D01*
X86022565Y-57784996D01*
X86002369Y-57605750D01*
X86002368Y-57605745D01*
X85942788Y-57435476D01*
X85903582Y-57373080D01*
X85846816Y-57282738D01*
X85719262Y-57155184D01*
X85711017Y-57150003D01*
X112859435Y-57150003D01*
X112879630Y-57329249D01*
X112879631Y-57329254D01*
X112939211Y-57499523D01*
X113011416Y-57614435D01*
X113035184Y-57652262D01*
X113162738Y-57779816D01*
X113315478Y-57875789D01*
X113485745Y-57935368D01*
X113485750Y-57935369D01*
X113664996Y-57955565D01*
X113665000Y-57955565D01*
X113665004Y-57955565D01*
X113844249Y-57935369D01*
X113844252Y-57935368D01*
X113844255Y-57935368D01*
X114014522Y-57875789D01*
X114167262Y-57779816D01*
X114294816Y-57652262D01*
X114390789Y-57499522D01*
X114450368Y-57329255D01*
X114455609Y-57282738D01*
X114470565Y-57150003D01*
X114470565Y-57149996D01*
X114450369Y-56970750D01*
X114450368Y-56970745D01*
X114390788Y-56800476D01*
X114294815Y-56647737D01*
X114167262Y-56520184D01*
X114014523Y-56424211D01*
X113844254Y-56364631D01*
X113844249Y-56364630D01*
X113665004Y-56344435D01*
X113664996Y-56344435D01*
X113485750Y-56364630D01*
X113485745Y-56364631D01*
X113315476Y-56424211D01*
X113162737Y-56520184D01*
X113035184Y-56647737D01*
X112939211Y-56800476D01*
X112879631Y-56970745D01*
X112879630Y-56970750D01*
X112859435Y-57149996D01*
X112859435Y-57150003D01*
X85711017Y-57150003D01*
X85566523Y-57059211D01*
X85396254Y-56999631D01*
X85396249Y-56999630D01*
X85217004Y-56979435D01*
X85216996Y-56979435D01*
X85037750Y-56999630D01*
X85037745Y-56999631D01*
X84867476Y-57059211D01*
X84714737Y-57155184D01*
X84587184Y-57282737D01*
X84491211Y-57435476D01*
X84431631Y-57605745D01*
X84431630Y-57605750D01*
X84411435Y-57784996D01*
X84411435Y-57785003D01*
X51300500Y-57785003D01*
X51300500Y-53975001D01*
X93389838Y-53975001D01*
X93408450Y-54187741D01*
X93408452Y-54187752D01*
X93463721Y-54394022D01*
X93463723Y-54394026D01*
X93463724Y-54394030D01*
X93506171Y-54485058D01*
X93553977Y-54587578D01*
X93676472Y-54762521D01*
X93827478Y-54913527D01*
X93827481Y-54913529D01*
X94002419Y-55036021D01*
X94002421Y-55036022D01*
X94002420Y-55036022D01*
X94066936Y-55066106D01*
X94195970Y-55126276D01*
X94402253Y-55181549D01*
X94554215Y-55194844D01*
X94614998Y-55200162D01*
X94615000Y-55200162D01*
X94615002Y-55200162D01*
X94668186Y-55195508D01*
X94827747Y-55181549D01*
X95034030Y-55126276D01*
X95227581Y-55036021D01*
X95402519Y-54913529D01*
X95553529Y-54762519D01*
X95676021Y-54587581D01*
X95766276Y-54394030D01*
X95766280Y-54394013D01*
X95768130Y-54388936D01*
X95770253Y-54389709D01*
X95801576Y-54338305D01*
X95864419Y-54307766D01*
X95933796Y-54316050D01*
X95987680Y-54360528D01*
X96000827Y-54389315D01*
X96001870Y-54388936D01*
X96003722Y-54394022D01*
X96003724Y-54394030D01*
X96046171Y-54485058D01*
X96093977Y-54587578D01*
X96216472Y-54762521D01*
X96367478Y-54913527D01*
X96367481Y-54913529D01*
X96542419Y-55036021D01*
X96542421Y-55036022D01*
X96542420Y-55036022D01*
X96606936Y-55066106D01*
X96735970Y-55126276D01*
X96942253Y-55181549D01*
X97094215Y-55194844D01*
X97154998Y-55200162D01*
X97155000Y-55200162D01*
X97155002Y-55200162D01*
X97208186Y-55195508D01*
X97367747Y-55181549D01*
X97574030Y-55126276D01*
X97767581Y-55036021D01*
X97942519Y-54913529D01*
X98093529Y-54762519D01*
X98216021Y-54587581D01*
X98306276Y-54394030D01*
X98306280Y-54394013D01*
X98308130Y-54388936D01*
X98310253Y-54389709D01*
X98341576Y-54338305D01*
X98404419Y-54307766D01*
X98473796Y-54316050D01*
X98527680Y-54360528D01*
X98540827Y-54389315D01*
X98541870Y-54388936D01*
X98543722Y-54394022D01*
X98543724Y-54394030D01*
X98586171Y-54485058D01*
X98633977Y-54587578D01*
X98756472Y-54762521D01*
X98907478Y-54913527D01*
X98907481Y-54913529D01*
X99082419Y-55036021D01*
X99082421Y-55036022D01*
X99082420Y-55036022D01*
X99146936Y-55066106D01*
X99275970Y-55126276D01*
X99482253Y-55181549D01*
X99634215Y-55194844D01*
X99694998Y-55200162D01*
X99695000Y-55200162D01*
X99695002Y-55200162D01*
X99748186Y-55195508D01*
X99907747Y-55181549D01*
X100114030Y-55126276D01*
X100307581Y-55036021D01*
X100482519Y-54913529D01*
X100633529Y-54762519D01*
X100756021Y-54587581D01*
X100846276Y-54394030D01*
X100901549Y-54187747D01*
X100920162Y-53975001D01*
X104819838Y-53975001D01*
X104838450Y-54187741D01*
X104838452Y-54187752D01*
X104893721Y-54394022D01*
X104893723Y-54394026D01*
X104893724Y-54394030D01*
X104936171Y-54485058D01*
X104983977Y-54587578D01*
X105106472Y-54762521D01*
X105257478Y-54913527D01*
X105257481Y-54913529D01*
X105432419Y-55036021D01*
X105432421Y-55036022D01*
X105432420Y-55036022D01*
X105496936Y-55066106D01*
X105625970Y-55126276D01*
X105832253Y-55181549D01*
X105984215Y-55194844D01*
X106044998Y-55200162D01*
X106045000Y-55200162D01*
X106045002Y-55200162D01*
X106098186Y-55195508D01*
X106257747Y-55181549D01*
X106464030Y-55126276D01*
X106657581Y-55036021D01*
X106832519Y-54913529D01*
X106983529Y-54762519D01*
X107106021Y-54587581D01*
X107196276Y-54394030D01*
X107196280Y-54394013D01*
X107198130Y-54388936D01*
X107200253Y-54389709D01*
X107231576Y-54338305D01*
X107294419Y-54307766D01*
X107363796Y-54316050D01*
X107417680Y-54360528D01*
X107430827Y-54389315D01*
X107431870Y-54388936D01*
X107433722Y-54394022D01*
X107433724Y-54394030D01*
X107476171Y-54485058D01*
X107523977Y-54587578D01*
X107646472Y-54762521D01*
X107797478Y-54913527D01*
X107797481Y-54913529D01*
X107972419Y-55036021D01*
X107972421Y-55036022D01*
X107972420Y-55036022D01*
X108036936Y-55066106D01*
X108165970Y-55126276D01*
X108372253Y-55181549D01*
X108524215Y-55194844D01*
X108584998Y-55200162D01*
X108585000Y-55200162D01*
X108585002Y-55200162D01*
X108638186Y-55195508D01*
X108797747Y-55181549D01*
X109004030Y-55126276D01*
X109197581Y-55036021D01*
X109372519Y-54913529D01*
X109523529Y-54762519D01*
X109646021Y-54587581D01*
X109736276Y-54394030D01*
X109736280Y-54394013D01*
X109738130Y-54388936D01*
X109740253Y-54389709D01*
X109771576Y-54338305D01*
X109834419Y-54307766D01*
X109903796Y-54316050D01*
X109957680Y-54360528D01*
X109970827Y-54389315D01*
X109971870Y-54388936D01*
X109973722Y-54394022D01*
X109973724Y-54394030D01*
X110016171Y-54485058D01*
X110063977Y-54587578D01*
X110186472Y-54762521D01*
X110337478Y-54913527D01*
X110337481Y-54913529D01*
X110512419Y-55036021D01*
X110512421Y-55036022D01*
X110512420Y-55036022D01*
X110576936Y-55066106D01*
X110705970Y-55126276D01*
X110912253Y-55181549D01*
X111064215Y-55194844D01*
X111124998Y-55200162D01*
X111125000Y-55200162D01*
X111125002Y-55200162D01*
X111178186Y-55195508D01*
X111337747Y-55181549D01*
X111544030Y-55126276D01*
X111737581Y-55036021D01*
X111912519Y-54913529D01*
X112063529Y-54762519D01*
X112186021Y-54587581D01*
X112276276Y-54394030D01*
X112331549Y-54187747D01*
X112350162Y-53975000D01*
X112331549Y-53762253D01*
X112276276Y-53555970D01*
X112186021Y-53362419D01*
X112063529Y-53187481D01*
X112063527Y-53187478D01*
X111912521Y-53036472D01*
X111737578Y-52913977D01*
X111737579Y-52913977D01*
X111608547Y-52853809D01*
X111544030Y-52823724D01*
X111544026Y-52823723D01*
X111544022Y-52823721D01*
X111337752Y-52768452D01*
X111337748Y-52768451D01*
X111337747Y-52768451D01*
X111337746Y-52768450D01*
X111337741Y-52768450D01*
X111125002Y-52749838D01*
X111124998Y-52749838D01*
X110912258Y-52768450D01*
X110912247Y-52768452D01*
X110705977Y-52823721D01*
X110705968Y-52823725D01*
X110512421Y-52913977D01*
X110337478Y-53036472D01*
X110186472Y-53187478D01*
X110063977Y-53362421D01*
X109973725Y-53555968D01*
X109971870Y-53561064D01*
X109969749Y-53560292D01*
X109938406Y-53611710D01*
X109875558Y-53642237D01*
X109806183Y-53633939D01*
X109752307Y-53589452D01*
X109739169Y-53560685D01*
X109738130Y-53561064D01*
X109736279Y-53555983D01*
X109736276Y-53555970D01*
X109646021Y-53362419D01*
X109523529Y-53187481D01*
X109523527Y-53187478D01*
X109372521Y-53036472D01*
X109197578Y-52913977D01*
X109197579Y-52913977D01*
X109068547Y-52853809D01*
X109004030Y-52823724D01*
X109004026Y-52823723D01*
X109004022Y-52823721D01*
X108797752Y-52768452D01*
X108797748Y-52768451D01*
X108797747Y-52768451D01*
X108797746Y-52768450D01*
X108797741Y-52768450D01*
X108585002Y-52749838D01*
X108584998Y-52749838D01*
X108372258Y-52768450D01*
X108372247Y-52768452D01*
X108165977Y-52823721D01*
X108165968Y-52823725D01*
X107972421Y-52913977D01*
X107797478Y-53036472D01*
X107646472Y-53187478D01*
X107523977Y-53362421D01*
X107433725Y-53555968D01*
X107431870Y-53561064D01*
X107429749Y-53560292D01*
X107398406Y-53611710D01*
X107335558Y-53642237D01*
X107266183Y-53633939D01*
X107212307Y-53589452D01*
X107199169Y-53560685D01*
X107198130Y-53561064D01*
X107196279Y-53555983D01*
X107196276Y-53555970D01*
X107106021Y-53362419D01*
X106983529Y-53187481D01*
X106983527Y-53187478D01*
X106832521Y-53036472D01*
X106657578Y-52913977D01*
X106657579Y-52913977D01*
X106528547Y-52853809D01*
X106464030Y-52823724D01*
X106464026Y-52823723D01*
X106464022Y-52823721D01*
X106257752Y-52768452D01*
X106257748Y-52768451D01*
X106257747Y-52768451D01*
X106257746Y-52768450D01*
X106257741Y-52768450D01*
X106045002Y-52749838D01*
X106044998Y-52749838D01*
X105832258Y-52768450D01*
X105832247Y-52768452D01*
X105625977Y-52823721D01*
X105625968Y-52823725D01*
X105432421Y-52913977D01*
X105257478Y-53036472D01*
X105106472Y-53187478D01*
X104983977Y-53362421D01*
X104893725Y-53555968D01*
X104893721Y-53555977D01*
X104838452Y-53762247D01*
X104838450Y-53762258D01*
X104819838Y-53974998D01*
X104819838Y-53975001D01*
X100920162Y-53975001D01*
X100920162Y-53975000D01*
X100901549Y-53762253D01*
X100846276Y-53555970D01*
X100756021Y-53362419D01*
X100633529Y-53187481D01*
X100633527Y-53187478D01*
X100482521Y-53036472D01*
X100307578Y-52913977D01*
X100307579Y-52913977D01*
X100178547Y-52853809D01*
X100114030Y-52823724D01*
X100114026Y-52823723D01*
X100114022Y-52823721D01*
X99907752Y-52768452D01*
X99907748Y-52768451D01*
X99907747Y-52768451D01*
X99907746Y-52768450D01*
X99907741Y-52768450D01*
X99695002Y-52749838D01*
X99694998Y-52749838D01*
X99482258Y-52768450D01*
X99482247Y-52768452D01*
X99275977Y-52823721D01*
X99275968Y-52823725D01*
X99082421Y-52913977D01*
X98907478Y-53036472D01*
X98756472Y-53187478D01*
X98633977Y-53362421D01*
X98543725Y-53555968D01*
X98541870Y-53561064D01*
X98539749Y-53560292D01*
X98508406Y-53611710D01*
X98445558Y-53642237D01*
X98376183Y-53633939D01*
X98322307Y-53589452D01*
X98309169Y-53560685D01*
X98308130Y-53561064D01*
X98306279Y-53555983D01*
X98306276Y-53555970D01*
X98216021Y-53362419D01*
X98093529Y-53187481D01*
X98093527Y-53187478D01*
X97942521Y-53036472D01*
X97767578Y-52913977D01*
X97767579Y-52913977D01*
X97638547Y-52853809D01*
X97574030Y-52823724D01*
X97574026Y-52823723D01*
X97574022Y-52823721D01*
X97367752Y-52768452D01*
X97367748Y-52768451D01*
X97367747Y-52768451D01*
X97367746Y-52768450D01*
X97367741Y-52768450D01*
X97155002Y-52749838D01*
X97154998Y-52749838D01*
X96942258Y-52768450D01*
X96942247Y-52768452D01*
X96735977Y-52823721D01*
X96735968Y-52823725D01*
X96542421Y-52913977D01*
X96367478Y-53036472D01*
X96216472Y-53187478D01*
X96093977Y-53362421D01*
X96003725Y-53555968D01*
X96001870Y-53561064D01*
X95999749Y-53560292D01*
X95968406Y-53611710D01*
X95905558Y-53642237D01*
X95836183Y-53633939D01*
X95782307Y-53589452D01*
X95769169Y-53560685D01*
X95768130Y-53561064D01*
X95766279Y-53555983D01*
X95766276Y-53555970D01*
X95676021Y-53362419D01*
X95553529Y-53187481D01*
X95553527Y-53187478D01*
X95402521Y-53036472D01*
X95227578Y-52913977D01*
X95227579Y-52913977D01*
X95098547Y-52853809D01*
X95034030Y-52823724D01*
X95034026Y-52823723D01*
X95034022Y-52823721D01*
X94827752Y-52768452D01*
X94827748Y-52768451D01*
X94827747Y-52768451D01*
X94827746Y-52768450D01*
X94827741Y-52768450D01*
X94615002Y-52749838D01*
X94614998Y-52749838D01*
X94402258Y-52768450D01*
X94402247Y-52768452D01*
X94195977Y-52823721D01*
X94195968Y-52823725D01*
X94002421Y-52913977D01*
X93827478Y-53036472D01*
X93676472Y-53187478D01*
X93553977Y-53362421D01*
X93463725Y-53555968D01*
X93463721Y-53555977D01*
X93408452Y-53762247D01*
X93408450Y-53762258D01*
X93389838Y-53974998D01*
X93389838Y-53975001D01*
X51300500Y-53975001D01*
X51300500Y-48133003D01*
X68282435Y-48133003D01*
X68302630Y-48312249D01*
X68302631Y-48312254D01*
X68362211Y-48482523D01*
X68458184Y-48635262D01*
X68585738Y-48762816D01*
X68738478Y-48858789D01*
X68908745Y-48918368D01*
X68908750Y-48918369D01*
X69087996Y-48938565D01*
X69088000Y-48938565D01*
X69088004Y-48938565D01*
X69267249Y-48918369D01*
X69267252Y-48918368D01*
X69267255Y-48918368D01*
X69437522Y-48858789D01*
X69590262Y-48762816D01*
X69717816Y-48635262D01*
X69813789Y-48482522D01*
X69873368Y-48312255D01*
X69893565Y-48133000D01*
X69873368Y-47953745D01*
X69813789Y-47783478D01*
X69717816Y-47630738D01*
X69590262Y-47503184D01*
X69437523Y-47407211D01*
X69267254Y-47347631D01*
X69267249Y-47347630D01*
X69088004Y-47327435D01*
X69087996Y-47327435D01*
X68908750Y-47347630D01*
X68908745Y-47347631D01*
X68738476Y-47407211D01*
X68585737Y-47503184D01*
X68458184Y-47630737D01*
X68362211Y-47783476D01*
X68302631Y-47953745D01*
X68302630Y-47953750D01*
X68282435Y-48132996D01*
X68282435Y-48133003D01*
X51300500Y-48133003D01*
X51300500Y-47020503D01*
X60438935Y-47020503D01*
X60459130Y-47199749D01*
X60459131Y-47199754D01*
X60518711Y-47370023D01*
X60542078Y-47407211D01*
X60614684Y-47522762D01*
X60742238Y-47650316D01*
X60894978Y-47746289D01*
X61001258Y-47783478D01*
X61065245Y-47805868D01*
X61065250Y-47805869D01*
X61244496Y-47826065D01*
X61244500Y-47826065D01*
X61244504Y-47826065D01*
X61423749Y-47805869D01*
X61423752Y-47805868D01*
X61423755Y-47805868D01*
X61594022Y-47746289D01*
X61746762Y-47650316D01*
X61874316Y-47522762D01*
X61970289Y-47370022D01*
X62029868Y-47199755D01*
X62050065Y-47020500D01*
X62049261Y-47013368D01*
X62029869Y-46841250D01*
X62029868Y-46841245D01*
X61970288Y-46670976D01*
X61898515Y-46556750D01*
X61874316Y-46518238D01*
X61746762Y-46390684D01*
X61740065Y-46386476D01*
X61594023Y-46294711D01*
X61423754Y-46235131D01*
X61423749Y-46235130D01*
X61360492Y-46228003D01*
X77045435Y-46228003D01*
X77065630Y-46407249D01*
X77065631Y-46407254D01*
X77125211Y-46577523D01*
X77183932Y-46670976D01*
X77221184Y-46730262D01*
X77348738Y-46857816D01*
X77501478Y-46953789D01*
X77671745Y-47013368D01*
X77671750Y-47013369D01*
X77850996Y-47033565D01*
X77851000Y-47033565D01*
X77851004Y-47033565D01*
X78030249Y-47013369D01*
X78030252Y-47013368D01*
X78030255Y-47013368D01*
X78200522Y-46953789D01*
X78353262Y-46857816D01*
X78475075Y-46736003D01*
X99905435Y-46736003D01*
X99925630Y-46915249D01*
X99925631Y-46915254D01*
X99985211Y-47085523D01*
X100056988Y-47199754D01*
X100081184Y-47238262D01*
X100208738Y-47365816D01*
X100361478Y-47461789D01*
X100479778Y-47503184D01*
X100531745Y-47521368D01*
X100531750Y-47521369D01*
X100710996Y-47541565D01*
X100711000Y-47541565D01*
X100711004Y-47541565D01*
X100890249Y-47521369D01*
X100890252Y-47521368D01*
X100890255Y-47521368D01*
X101060522Y-47461789D01*
X101213262Y-47365816D01*
X101340816Y-47238262D01*
X101436789Y-47085522D01*
X101496368Y-46915255D01*
X101502840Y-46857815D01*
X101516565Y-46736003D01*
X101516565Y-46735996D01*
X101496369Y-46556750D01*
X101496368Y-46556745D01*
X101444057Y-46407249D01*
X101436789Y-46386478D01*
X101340816Y-46233738D01*
X101213262Y-46106184D01*
X101193542Y-46093793D01*
X101060523Y-46010211D01*
X100890254Y-45950631D01*
X100890249Y-45950630D01*
X100711004Y-45930435D01*
X100710996Y-45930435D01*
X100531750Y-45950630D01*
X100531745Y-45950631D01*
X100361476Y-46010211D01*
X100208737Y-46106184D01*
X100081184Y-46233737D01*
X99985211Y-46386476D01*
X99925631Y-46556745D01*
X99925630Y-46556750D01*
X99905435Y-46735996D01*
X99905435Y-46736003D01*
X78475075Y-46736003D01*
X78480816Y-46730262D01*
X78576789Y-46577522D01*
X78636368Y-46407255D01*
X78638709Y-46386478D01*
X78656565Y-46228003D01*
X78656565Y-46227996D01*
X78636369Y-46048750D01*
X78636368Y-46048745D01*
X78602036Y-45950630D01*
X78576789Y-45878478D01*
X78480816Y-45725738D01*
X78452948Y-45697870D01*
X122124500Y-45697870D01*
X122124501Y-45697876D01*
X122130908Y-45757483D01*
X122181202Y-45892328D01*
X122181206Y-45892335D01*
X122267452Y-46007544D01*
X122267455Y-46007547D01*
X122382664Y-46093793D01*
X122382671Y-46093797D01*
X122517517Y-46144091D01*
X122517516Y-46144091D01*
X122524444Y-46144835D01*
X122577127Y-46150500D01*
X125072872Y-46150499D01*
X125132483Y-46144091D01*
X125267331Y-46093796D01*
X125382546Y-46007546D01*
X125468796Y-45892331D01*
X125519091Y-45757483D01*
X125525500Y-45697873D01*
X125525500Y-45697870D01*
X136094500Y-45697870D01*
X136094501Y-45697876D01*
X136100908Y-45757483D01*
X136151202Y-45892328D01*
X136151206Y-45892335D01*
X136237452Y-46007544D01*
X136237455Y-46007547D01*
X136352664Y-46093793D01*
X136352671Y-46093797D01*
X136487517Y-46144091D01*
X136487516Y-46144091D01*
X136494444Y-46144835D01*
X136547127Y-46150500D01*
X139042872Y-46150499D01*
X139102483Y-46144091D01*
X139237331Y-46093796D01*
X139352546Y-46007546D01*
X139438796Y-45892331D01*
X139489091Y-45757483D01*
X139495500Y-45697873D01*
X139495499Y-43202128D01*
X139489091Y-43142517D01*
X139446987Y-43029631D01*
X139438797Y-43007671D01*
X139438793Y-43007664D01*
X139352547Y-42892455D01*
X139352544Y-42892452D01*
X139237335Y-42806206D01*
X139237328Y-42806202D01*
X139102482Y-42755908D01*
X139102483Y-42755908D01*
X139042883Y-42749501D01*
X139042881Y-42749500D01*
X139042873Y-42749500D01*
X139042864Y-42749500D01*
X136547129Y-42749500D01*
X136547123Y-42749501D01*
X136487516Y-42755908D01*
X136352671Y-42806202D01*
X136352664Y-42806206D01*
X136237455Y-42892452D01*
X136237452Y-42892455D01*
X136151206Y-43007664D01*
X136151202Y-43007671D01*
X136100908Y-43142517D01*
X136094501Y-43202116D01*
X136094501Y-43202123D01*
X136094500Y-43202135D01*
X136094500Y-45697870D01*
X125525500Y-45697870D01*
X125525499Y-43202128D01*
X125519091Y-43142517D01*
X125476987Y-43029631D01*
X125468797Y-43007671D01*
X125468793Y-43007664D01*
X125382547Y-42892455D01*
X125382544Y-42892452D01*
X125267335Y-42806206D01*
X125267328Y-42806202D01*
X125132482Y-42755908D01*
X125132483Y-42755908D01*
X125072883Y-42749501D01*
X125072881Y-42749500D01*
X125072873Y-42749500D01*
X125072864Y-42749500D01*
X122577129Y-42749500D01*
X122577123Y-42749501D01*
X122517516Y-42755908D01*
X122382671Y-42806202D01*
X122382664Y-42806206D01*
X122267455Y-42892452D01*
X122267452Y-42892455D01*
X122181206Y-43007664D01*
X122181202Y-43007671D01*
X122130908Y-43142517D01*
X122124501Y-43202116D01*
X122124501Y-43202123D01*
X122124500Y-43202135D01*
X122124500Y-45697870D01*
X78452948Y-45697870D01*
X78353262Y-45598184D01*
X78200523Y-45502211D01*
X78030254Y-45442631D01*
X78030249Y-45442630D01*
X77851004Y-45422435D01*
X77850996Y-45422435D01*
X77671750Y-45442630D01*
X77671745Y-45442631D01*
X77501476Y-45502211D01*
X77348737Y-45598184D01*
X77221184Y-45725737D01*
X77125211Y-45878476D01*
X77065631Y-46048745D01*
X77065630Y-46048750D01*
X77045435Y-46227996D01*
X77045435Y-46228003D01*
X61360492Y-46228003D01*
X61244504Y-46214935D01*
X61244496Y-46214935D01*
X61065250Y-46235130D01*
X61065245Y-46235131D01*
X60894976Y-46294711D01*
X60742237Y-46390684D01*
X60614684Y-46518237D01*
X60518711Y-46670976D01*
X60459131Y-46841245D01*
X60459130Y-46841250D01*
X60438935Y-47020496D01*
X60438935Y-47020503D01*
X51300500Y-47020503D01*
X51300500Y-43815003D01*
X81109435Y-43815003D01*
X81129630Y-43994249D01*
X81129631Y-43994254D01*
X81189211Y-44164523D01*
X81269224Y-44291862D01*
X81285184Y-44317262D01*
X81412738Y-44444816D01*
X81503080Y-44501582D01*
X81525052Y-44515388D01*
X81565478Y-44540789D01*
X81663156Y-44574968D01*
X81735745Y-44600368D01*
X81735750Y-44600369D01*
X81914996Y-44620565D01*
X81915000Y-44620565D01*
X81915004Y-44620565D01*
X82094249Y-44600369D01*
X82094252Y-44600368D01*
X82094255Y-44600368D01*
X82264522Y-44540789D01*
X82417262Y-44444816D01*
X82544816Y-44317262D01*
X82640789Y-44164522D01*
X82700368Y-43994255D01*
X82720565Y-43815000D01*
X82717703Y-43789603D01*
X105239435Y-43789603D01*
X105259630Y-43968849D01*
X105259631Y-43968854D01*
X105319211Y-44139123D01*
X105415184Y-44291862D01*
X105542738Y-44419416D01*
X105695478Y-44515389D01*
X105865745Y-44574968D01*
X105865750Y-44574969D01*
X106044996Y-44595165D01*
X106045000Y-44595165D01*
X106045004Y-44595165D01*
X106224249Y-44574969D01*
X106224252Y-44574968D01*
X106224255Y-44574968D01*
X106394522Y-44515389D01*
X106547262Y-44419416D01*
X106674816Y-44291862D01*
X106770789Y-44139122D01*
X106830368Y-43968855D01*
X106847703Y-43815003D01*
X114129435Y-43815003D01*
X114149630Y-43994249D01*
X114149631Y-43994254D01*
X114209211Y-44164523D01*
X114289224Y-44291862D01*
X114305184Y-44317262D01*
X114432738Y-44444816D01*
X114523080Y-44501582D01*
X114545052Y-44515388D01*
X114585478Y-44540789D01*
X114683156Y-44574968D01*
X114755745Y-44600368D01*
X114755750Y-44600369D01*
X114934996Y-44620565D01*
X114935000Y-44620565D01*
X114935004Y-44620565D01*
X115114249Y-44600369D01*
X115114252Y-44600368D01*
X115114255Y-44600368D01*
X115284522Y-44540789D01*
X115437262Y-44444816D01*
X115564816Y-44317262D01*
X115660789Y-44164522D01*
X115720368Y-43994255D01*
X115740565Y-43815000D01*
X115737703Y-43789603D01*
X115720369Y-43635750D01*
X115720368Y-43635745D01*
X115660788Y-43465476D01*
X115564815Y-43312737D01*
X115437262Y-43185184D01*
X115284523Y-43089211D01*
X115114254Y-43029631D01*
X115114249Y-43029630D01*
X114935004Y-43009435D01*
X114934996Y-43009435D01*
X114755750Y-43029630D01*
X114755745Y-43029631D01*
X114585476Y-43089211D01*
X114432737Y-43185184D01*
X114305184Y-43312737D01*
X114209211Y-43465476D01*
X114149631Y-43635745D01*
X114149630Y-43635750D01*
X114129435Y-43814996D01*
X114129435Y-43815003D01*
X106847703Y-43815003D01*
X106850565Y-43789600D01*
X106833230Y-43635750D01*
X106830369Y-43610350D01*
X106830368Y-43610345D01*
X106770788Y-43440076D01*
X106674815Y-43287337D01*
X106547262Y-43159784D01*
X106394523Y-43063811D01*
X106224254Y-43004231D01*
X106224249Y-43004230D01*
X106045004Y-42984035D01*
X106044996Y-42984035D01*
X105865750Y-43004230D01*
X105865745Y-43004231D01*
X105695476Y-43063811D01*
X105542737Y-43159784D01*
X105415184Y-43287337D01*
X105319211Y-43440076D01*
X105259631Y-43610345D01*
X105259630Y-43610350D01*
X105239435Y-43789596D01*
X105239435Y-43789603D01*
X82717703Y-43789603D01*
X82700369Y-43635750D01*
X82700368Y-43635745D01*
X82640788Y-43465476D01*
X82544815Y-43312737D01*
X82417262Y-43185184D01*
X82264523Y-43089211D01*
X82094254Y-43029631D01*
X82094249Y-43029630D01*
X81915004Y-43009435D01*
X81914996Y-43009435D01*
X81735750Y-43029630D01*
X81735745Y-43029631D01*
X81565476Y-43089211D01*
X81412737Y-43185184D01*
X81285184Y-43312737D01*
X81189211Y-43465476D01*
X81129631Y-43635745D01*
X81129630Y-43635750D01*
X81109435Y-43814996D01*
X81109435Y-43815003D01*
X51300500Y-43815003D01*
X51300500Y-39878003D01*
X89745435Y-39878003D01*
X89765630Y-40057249D01*
X89765631Y-40057254D01*
X89825211Y-40227523D01*
X89921184Y-40380262D01*
X90048738Y-40507816D01*
X90201478Y-40603789D01*
X90371745Y-40663368D01*
X90371750Y-40663369D01*
X90550996Y-40683565D01*
X90551000Y-40683565D01*
X90551004Y-40683565D01*
X90730249Y-40663369D01*
X90730252Y-40663368D01*
X90730255Y-40663368D01*
X90900522Y-40603789D01*
X91053262Y-40507816D01*
X91180816Y-40380262D01*
X91257008Y-40259003D01*
X104477435Y-40259003D01*
X104497630Y-40438249D01*
X104497631Y-40438254D01*
X104557211Y-40608523D01*
X104653184Y-40761262D01*
X104780738Y-40888816D01*
X104933478Y-40984789D01*
X105103745Y-41044368D01*
X105103750Y-41044369D01*
X105282996Y-41064565D01*
X105283000Y-41064565D01*
X105283004Y-41064565D01*
X105462249Y-41044369D01*
X105462252Y-41044368D01*
X105462255Y-41044368D01*
X105632522Y-40984789D01*
X105785262Y-40888816D01*
X105912816Y-40761262D01*
X106008789Y-40608522D01*
X106068368Y-40438255D01*
X106068369Y-40438249D01*
X106088565Y-40259003D01*
X106088565Y-40258996D01*
X106068369Y-40079750D01*
X106068368Y-40079745D01*
X106008788Y-39909476D01*
X105912815Y-39756737D01*
X105785262Y-39629184D01*
X105632523Y-39533211D01*
X105462254Y-39473631D01*
X105462249Y-39473630D01*
X105283004Y-39453435D01*
X105282996Y-39453435D01*
X105103750Y-39473630D01*
X105103745Y-39473631D01*
X104933476Y-39533211D01*
X104780737Y-39629184D01*
X104653184Y-39756737D01*
X104557211Y-39909476D01*
X104497631Y-40079745D01*
X104497630Y-40079750D01*
X104477435Y-40258996D01*
X104477435Y-40259003D01*
X91257008Y-40259003D01*
X91276789Y-40227522D01*
X91336368Y-40057255D01*
X91336369Y-40057249D01*
X91356565Y-39878003D01*
X91356565Y-39877996D01*
X91336369Y-39698750D01*
X91336368Y-39698745D01*
X91276789Y-39528478D01*
X91180816Y-39375738D01*
X91053262Y-39248184D01*
X91035880Y-39237262D01*
X90900523Y-39152211D01*
X90730254Y-39092631D01*
X90730249Y-39092630D01*
X90551004Y-39072435D01*
X90550996Y-39072435D01*
X90371750Y-39092630D01*
X90371745Y-39092631D01*
X90201476Y-39152211D01*
X90048737Y-39248184D01*
X89921184Y-39375737D01*
X89825211Y-39528476D01*
X89765631Y-39698745D01*
X89765630Y-39698750D01*
X89745435Y-39877996D01*
X89745435Y-39878003D01*
X51300500Y-39878003D01*
X51300500Y-38735003D01*
X96984435Y-38735003D01*
X97004630Y-38914249D01*
X97004631Y-38914254D01*
X97064211Y-39084523D01*
X97106743Y-39152211D01*
X97160184Y-39237262D01*
X97287738Y-39364816D01*
X97440478Y-39460789D01*
X97610745Y-39520368D01*
X97610750Y-39520369D01*
X97789996Y-39540565D01*
X97790000Y-39540565D01*
X97790004Y-39540565D01*
X97969249Y-39520369D01*
X97969252Y-39520368D01*
X97969255Y-39520368D01*
X98139522Y-39460789D01*
X98292262Y-39364816D01*
X98419816Y-39237262D01*
X98515789Y-39084522D01*
X98575368Y-38914255D01*
X98595565Y-38735000D01*
X98575368Y-38555745D01*
X98515789Y-38385478D01*
X98419816Y-38232738D01*
X98292262Y-38105184D01*
X98235336Y-38069415D01*
X98139523Y-38009211D01*
X97969254Y-37949631D01*
X97969249Y-37949630D01*
X97790004Y-37929435D01*
X97789996Y-37929435D01*
X97610750Y-37949630D01*
X97610745Y-37949631D01*
X97440476Y-38009211D01*
X97287737Y-38105184D01*
X97160184Y-38232737D01*
X97064211Y-38385476D01*
X97004631Y-38555745D01*
X97004630Y-38555750D01*
X96984435Y-38734996D01*
X96984435Y-38735003D01*
X51300500Y-38735003D01*
X51300500Y-37439603D01*
X111513235Y-37439603D01*
X111533430Y-37618849D01*
X111533431Y-37618854D01*
X111593011Y-37789123D01*
X111681176Y-37929435D01*
X111688984Y-37941862D01*
X111816538Y-38069416D01*
X111969278Y-38165389D01*
X112139545Y-38224968D01*
X112139550Y-38224969D01*
X112318796Y-38245165D01*
X112318800Y-38245165D01*
X112318804Y-38245165D01*
X112498049Y-38224969D01*
X112498052Y-38224968D01*
X112498055Y-38224968D01*
X112668322Y-38165389D01*
X112821062Y-38069416D01*
X112948616Y-37941862D01*
X113044589Y-37789122D01*
X113104168Y-37618855D01*
X113124365Y-37439600D01*
X113104168Y-37260345D01*
X113044589Y-37090078D01*
X112948616Y-36937338D01*
X112821062Y-36809784D01*
X112668323Y-36713811D01*
X112498054Y-36654231D01*
X112498049Y-36654230D01*
X112318804Y-36634035D01*
X112318796Y-36634035D01*
X112139550Y-36654230D01*
X112139545Y-36654231D01*
X111969276Y-36713811D01*
X111816537Y-36809784D01*
X111688984Y-36937337D01*
X111593011Y-37090076D01*
X111533431Y-37260345D01*
X111533430Y-37260350D01*
X111513235Y-37439596D01*
X111513235Y-37439603D01*
X51300500Y-37439603D01*
X51300500Y-35814003D01*
X86951435Y-35814003D01*
X86971630Y-35993249D01*
X86971631Y-35993254D01*
X87031211Y-36163523D01*
X87127184Y-36316262D01*
X87254738Y-36443816D01*
X87407478Y-36539789D01*
X87577745Y-36599368D01*
X87577750Y-36599369D01*
X87756996Y-36619565D01*
X87757000Y-36619565D01*
X87757004Y-36619565D01*
X87936249Y-36599369D01*
X87936252Y-36599368D01*
X87936255Y-36599368D01*
X88106522Y-36539789D01*
X88259262Y-36443816D01*
X88386816Y-36316262D01*
X88482789Y-36163522D01*
X88542368Y-35993255D01*
X88562565Y-35814000D01*
X88542368Y-35634745D01*
X88482789Y-35464478D01*
X88386816Y-35311738D01*
X88259262Y-35184184D01*
X88106523Y-35088211D01*
X87936254Y-35028631D01*
X87936249Y-35028630D01*
X87757004Y-35008435D01*
X87756996Y-35008435D01*
X87577750Y-35028630D01*
X87577745Y-35028631D01*
X87407476Y-35088211D01*
X87254737Y-35184184D01*
X87127184Y-35311737D01*
X87031211Y-35464476D01*
X86971631Y-35634745D01*
X86971630Y-35634750D01*
X86951435Y-35813996D01*
X86951435Y-35814003D01*
X51300500Y-35814003D01*
X51300500Y-31727870D01*
X122124500Y-31727870D01*
X122124501Y-31727876D01*
X122130908Y-31787483D01*
X122181202Y-31922328D01*
X122181206Y-31922335D01*
X122267452Y-32037544D01*
X122267455Y-32037547D01*
X122382664Y-32123793D01*
X122382671Y-32123797D01*
X122517517Y-32174091D01*
X122517516Y-32174091D01*
X122524444Y-32174835D01*
X122577127Y-32180500D01*
X125072872Y-32180499D01*
X125132483Y-32174091D01*
X125267331Y-32123796D01*
X125382546Y-32037546D01*
X125468796Y-31922331D01*
X125519091Y-31787483D01*
X125525500Y-31727873D01*
X125525500Y-31727870D01*
X136094500Y-31727870D01*
X136094501Y-31727876D01*
X136100908Y-31787483D01*
X136151202Y-31922328D01*
X136151206Y-31922335D01*
X136237452Y-32037544D01*
X136237455Y-32037547D01*
X136352664Y-32123793D01*
X136352671Y-32123797D01*
X136487517Y-32174091D01*
X136487516Y-32174091D01*
X136494444Y-32174835D01*
X136547127Y-32180500D01*
X139042872Y-32180499D01*
X139102483Y-32174091D01*
X139237331Y-32123796D01*
X139352546Y-32037546D01*
X139438796Y-31922331D01*
X139489091Y-31787483D01*
X139495500Y-31727873D01*
X139495499Y-29232128D01*
X139489091Y-29172517D01*
X139438796Y-29037669D01*
X139438795Y-29037668D01*
X139438793Y-29037664D01*
X139352547Y-28922455D01*
X139352544Y-28922452D01*
X139237335Y-28836206D01*
X139237328Y-28836202D01*
X139102482Y-28785908D01*
X139102483Y-28785908D01*
X139042883Y-28779501D01*
X139042881Y-28779500D01*
X139042873Y-28779500D01*
X139042864Y-28779500D01*
X136547129Y-28779500D01*
X136547123Y-28779501D01*
X136487516Y-28785908D01*
X136352671Y-28836202D01*
X136352664Y-28836206D01*
X136237455Y-28922452D01*
X136237452Y-28922455D01*
X136151206Y-29037664D01*
X136151202Y-29037671D01*
X136100908Y-29172517D01*
X136094501Y-29232116D01*
X136094501Y-29232123D01*
X136094500Y-29232135D01*
X136094500Y-31727870D01*
X125525500Y-31727870D01*
X125525499Y-29232128D01*
X125519091Y-29172517D01*
X125468796Y-29037669D01*
X125468795Y-29037668D01*
X125468793Y-29037664D01*
X125382547Y-28922455D01*
X125382544Y-28922452D01*
X125267335Y-28836206D01*
X125267328Y-28836202D01*
X125132482Y-28785908D01*
X125132483Y-28785908D01*
X125072883Y-28779501D01*
X125072881Y-28779500D01*
X125072873Y-28779500D01*
X125072864Y-28779500D01*
X122577129Y-28779500D01*
X122577123Y-28779501D01*
X122517516Y-28785908D01*
X122382671Y-28836202D01*
X122382664Y-28836206D01*
X122267455Y-28922452D01*
X122267452Y-28922455D01*
X122181206Y-29037664D01*
X122181202Y-29037671D01*
X122130908Y-29172517D01*
X122124501Y-29232116D01*
X122124501Y-29232123D01*
X122124500Y-29232135D01*
X122124500Y-31727870D01*
X51300500Y-31727870D01*
X51300500Y-30085001D01*
X110389500Y-30085001D01*
X110389501Y-30085018D01*
X110400000Y-30187796D01*
X110400001Y-30187799D01*
X110455185Y-30354331D01*
X110455186Y-30354334D01*
X110547288Y-30503656D01*
X110671344Y-30627712D01*
X110820666Y-30719814D01*
X110987203Y-30774999D01*
X111089991Y-30785500D01*
X112430008Y-30785499D01*
X112532797Y-30774999D01*
X112699334Y-30719814D01*
X112848656Y-30627712D01*
X112972712Y-30503656D01*
X113064814Y-30354334D01*
X113119999Y-30187797D01*
X113130500Y-30085009D01*
X113130499Y-28294992D01*
X113119999Y-28192203D01*
X113064814Y-28025666D01*
X112972712Y-27876344D01*
X112848656Y-27752288D01*
X112699334Y-27660186D01*
X112532797Y-27605001D01*
X112532795Y-27605000D01*
X112430010Y-27594500D01*
X111089998Y-27594500D01*
X111089981Y-27594501D01*
X110987203Y-27605000D01*
X110987200Y-27605001D01*
X110820668Y-27660185D01*
X110820663Y-27660187D01*
X110671342Y-27752289D01*
X110547289Y-27876342D01*
X110455187Y-28025663D01*
X110455186Y-28025666D01*
X110400001Y-28192203D01*
X110400001Y-28192204D01*
X110400000Y-28192204D01*
X110389500Y-28294983D01*
X110389500Y-30085001D01*
X51300500Y-30085001D01*
X51300500Y-28578480D01*
X51300695Y-28571527D01*
X51304200Y-28509108D01*
X51316927Y-28282490D01*
X51318481Y-28268696D01*
X51366389Y-27986730D01*
X51369482Y-27973178D01*
X51433120Y-27752289D01*
X51448658Y-27698353D01*
X51453250Y-27685232D01*
X51562699Y-27420997D01*
X51568719Y-27408498D01*
X51707076Y-27158159D01*
X51714463Y-27146404D01*
X51879968Y-26913147D01*
X51888614Y-26902304D01*
X52079212Y-26689024D01*
X52089024Y-26679212D01*
X52302304Y-26488614D01*
X52313147Y-26479968D01*
X52546404Y-26314463D01*
X52558159Y-26307076D01*
X52808498Y-26168719D01*
X52820997Y-26162699D01*
X53085236Y-26053248D01*
X53098353Y-26048658D01*
X53373184Y-25969480D01*
X53386730Y-25966389D01*
X53668696Y-25918481D01*
X53682490Y-25916927D01*
X53971528Y-25900695D01*
X53978481Y-25900500D01*
X54040892Y-25900500D01*
X149159108Y-25900500D01*
X149221519Y-25900500D01*
X149228472Y-25900695D01*
G37*
%TD.AperFunction*%
%TD*%
M02*
