M48
; DRILL file {KiCad 8.0.1} date 2024-07-13T13:05:00-0400
; FORMAT={-:-/ absolute / inch / decimal}
; #@! TF.CreationDate,2024-07-13T13:05:00-04:00
; #@! TF.GenerationSoftware,Kicad,Pcbnew,8.0.1
; #@! TF.FileFunction,Plated,1,4,PTH
FMAT,2
INCH
; #@! TA.AperFunction,Plated,PTH,ViaDrill
T1C0.0118
; #@! TA.AperFunction,Plated,PTH,ComponentDrill
T2C0.0315
; #@! TA.AperFunction,Plated,PTH,ComponentDrill
T3C0.0469
; #@! TA.AperFunction,Plated,PTH,ComponentDrill
T4C0.0472
; #@! TA.AperFunction,Plated,PTH,ComponentDrill
T5C0.1285
%
G90
G05
T1
X2.1Y-2.275
X2.1Y-2.525
X2.15Y-1.85
X2.175Y-2.3
X2.225Y-2.05
X2.3Y-2.275
X2.325Y-1.65
X2.325Y-1.8
X2.4Y-1.475
X2.4Y-1.6
X2.4112Y-1.8512
X2.435Y-2.675
X2.5Y-2.6
X2.55Y-1.475
X2.55Y-1.975
X2.575Y-1.15
X2.575Y-1.8
X2.575Y-2.825
X2.6Y-2.525
X2.6Y-2.6
X2.7Y-1.15
X2.7Y-1.475
X2.7Y-2.525
X2.7Y-2.6
X2.72Y-1.895
X2.75Y-1.275
X2.775Y-1.725
X2.85Y-2.075
X2.975Y-2.875
X3.05Y-1.175
X3.065Y-1.82
X3.19Y-1.675
X3.225Y-1.725
X3.25Y-2.34
X3.3Y-2.85
X3.325Y-2.15
X3.35Y-1.41
X3.355Y-2.275
X3.4Y-1.3
X3.455Y-1.41
X3.46Y-2.625
X3.485Y-2.425
X3.525Y-1.95
X3.565Y-1.57
X3.6Y-2.875
X3.65Y-1.15
X3.65Y-2.525
X3.75Y-1.45
X3.825Y-1.6
X3.825Y-1.675
X3.825Y-2.325
X3.85Y-1.275
X3.85Y-1.525
X3.875Y-2.65
X3.875Y-2.75
X3.925Y-2.825
X3.965Y-1.84
X3.985Y-2.375
X4.034Y-2.625
X4.05Y-1.15
X4.05Y-1.825
X4.056Y-2.128
X4.1Y-2.35
X4.145Y-1.585
X4.15Y-1.4
X4.175Y-1.724
X4.175Y-2.825
X4.19Y-2.75
X4.25Y-1.825
X4.275Y-1.725
X4.3Y-2.325
X4.325Y-2.2
X4.355Y-2.655
X4.412Y-2.392
X4.422Y-1.474
X4.475Y-2.25
X4.5Y-1.825
X4.525Y-1.325
X4.525Y-1.475
X4.525Y-1.725
X4.535Y-2.695
X4.55Y-2.45
X4.55Y-2.825
X4.575Y-2.575
X4.6Y-1.75
X4.6Y-1.925
X4.625Y-1.575
X4.675Y-2.325
X4.825Y-2.425
X4.825Y-2.475
X4.825Y-2.525
X4.825Y-2.725
X4.875Y-2.4
X4.875Y-2.55
X4.925Y-2.4
X4.925Y-2.55
X4.975Y-2.4
X4.975Y-2.55
X5.075Y-2.3
X5.075Y-2.325
X5.075Y-2.35
X5.075Y-2.375
X5.075Y-2.4
X5.075Y-2.425
X5.075Y-2.45
X5.075Y-2.475
X5.1Y-2.3
X5.1Y-2.325
X5.1Y-2.35
X5.1Y-2.375
X5.1Y-2.4
X5.1Y-2.425
X5.1Y-2.45
X5.1Y-2.475
X5.125Y-2.3
X5.125Y-2.325
X5.125Y-2.35
X5.125Y-2.375
X5.125Y-2.4
X5.125Y-2.425
X5.125Y-2.45
X5.125Y-2.475
X5.15Y-2.3
X5.15Y-2.325
X5.15Y-2.35
X5.15Y-2.375
X5.15Y-2.4
X5.15Y-2.425
X5.15Y-2.45
X5.15Y-2.475
X5.175Y-2.3
X5.175Y-2.325
X5.175Y-2.35
X5.175Y-2.375
X5.175Y-2.4
X5.175Y-2.425
X5.175Y-2.45
X5.175Y-2.475
X5.2Y-2.3
X5.2Y-2.325
X5.2Y-2.35
X5.2Y-2.375
X5.2Y-2.4
X5.2Y-2.425
X5.2Y-2.45
X5.2Y-2.475
X5.225Y-2.3
X5.225Y-2.325
X5.225Y-2.35
X5.225Y-2.375
X5.225Y-2.4
X5.225Y-2.425
X5.225Y-2.45
X5.225Y-2.475
X5.25Y-2.3
X5.25Y-2.325
X5.25Y-2.35
X5.25Y-2.375
X5.25Y-2.4
X5.25Y-2.425
X5.25Y-2.45
X5.25Y-2.475
X5.275Y-2.3
X5.275Y-2.325
X5.275Y-2.35
X5.275Y-2.375
X5.275Y-2.4
X5.275Y-2.425
X5.275Y-2.45
X5.275Y-2.475
X5.325Y-2.575
X5.375Y-2.375
X5.45Y-2.625
X5.5Y-2.4
X5.65Y-2.3
X5.65Y-2.325
X5.65Y-2.35
X5.65Y-2.375
X5.65Y-2.4
X5.65Y-2.425
X5.65Y-2.45
X5.65Y-2.475
X5.65Y-2.65
X5.675Y-2.3
X5.675Y-2.325
X5.675Y-2.35
X5.675Y-2.375
X5.675Y-2.4
X5.675Y-2.425
X5.675Y-2.45
X5.675Y-2.475
X5.7Y-2.3
X5.7Y-2.325
X5.7Y-2.35
X5.7Y-2.375
X5.7Y-2.4
X5.7Y-2.425
X5.7Y-2.45
X5.7Y-2.475
X5.725Y-2.3
X5.725Y-2.325
X5.725Y-2.35
X5.725Y-2.375
X5.725Y-2.4
X5.725Y-2.425
X5.725Y-2.45
X5.725Y-2.475
X5.75Y-2.3
X5.75Y-2.325
X5.75Y-2.35
X5.75Y-2.375
X5.75Y-2.4
X5.75Y-2.425
X5.75Y-2.45
X5.75Y-2.475
X5.775Y-2.3
X5.775Y-2.325
X5.775Y-2.35
X5.775Y-2.375
X5.775Y-2.4
X5.775Y-2.425
X5.775Y-2.45
X5.775Y-2.475
X5.8Y-2.3
X5.8Y-2.325
X5.8Y-2.35
X5.8Y-2.375
X5.8Y-2.4
X5.8Y-2.425
X5.8Y-2.45
X5.8Y-2.475
X5.825Y-2.3
X5.825Y-2.325
X5.825Y-2.35
X5.825Y-2.375
X5.825Y-2.4
X5.825Y-2.425
X5.825Y-2.45
X5.825Y-2.475
X5.825Y-2.65
X5.85Y-2.3
X5.85Y-2.325
X5.85Y-2.35
X5.85Y-2.375
X5.85Y-2.4
X5.85Y-2.425
X5.85Y-2.45
X5.85Y-2.475
T2
X3.725Y-2.125
X3.825Y-2.125
X3.925Y-2.125
X4.175Y-2.125
X4.275Y-2.125
X4.375Y-2.125
T3
X4.3Y-1.1492
X4.4Y-1.1492
X5.0Y-2.8508
X5.1Y-2.8508
X5.425Y-2.8492
X5.525Y-2.8492
T4
X4.875Y-1.2
X4.875Y-1.3969
X4.875Y-1.75
X4.875Y-1.9469
X5.425Y-1.2
X5.425Y-1.3969
X5.425Y-1.75
X5.425Y-1.9469
T5
X2.125Y-1.125
X2.125Y-2.875
X5.875Y-1.125
X5.875Y-2.875
M30
