%TF.GenerationSoftware,KiCad,Pcbnew,8.0.1*%
%TF.CreationDate,2024-07-13T13:04:58-04:00*%
%TF.ProjectId,GaN Drain Driver,47614e20-4472-4616-996e-204472697665,v1.0*%
%TF.SameCoordinates,Original*%
%TF.FileFunction,Legend,Top*%
%TF.FilePolarity,Positive*%
%FSLAX46Y46*%
G04 Gerber Fmt 4.6, Leading zero omitted, Abs format (unit mm)*
G04 Created by KiCad (PCBNEW 8.0.1) date 2024-07-13 13:04:58*
%MOMM*%
%LPD*%
G01*
G04 APERTURE LIST*
%ADD10C,0.120000*%
%ADD11C,0.152400*%
%ADD12C,0.100000*%
G04 APERTURE END LIST*
D10*
X106960400Y-56919993D02*
X107193734Y-57619993D01*
X107193734Y-57619993D02*
X107427067Y-56919993D01*
X107960400Y-57153326D02*
X107960400Y-57719993D01*
X107960400Y-57719993D02*
X107927067Y-57786660D01*
X107927067Y-57786660D02*
X107893734Y-57819993D01*
X107893734Y-57819993D02*
X107827067Y-57853326D01*
X107827067Y-57853326D02*
X107727067Y-57853326D01*
X107727067Y-57853326D02*
X107660400Y-57819993D01*
X107960400Y-57586660D02*
X107893734Y-57619993D01*
X107893734Y-57619993D02*
X107760400Y-57619993D01*
X107760400Y-57619993D02*
X107693734Y-57586660D01*
X107693734Y-57586660D02*
X107660400Y-57553326D01*
X107660400Y-57553326D02*
X107627067Y-57486660D01*
X107627067Y-57486660D02*
X107627067Y-57286660D01*
X107627067Y-57286660D02*
X107660400Y-57219993D01*
X107660400Y-57219993D02*
X107693734Y-57186660D01*
X107693734Y-57186660D02*
X107760400Y-57153326D01*
X107760400Y-57153326D02*
X107893734Y-57153326D01*
X107893734Y-57153326D02*
X107960400Y-57186660D01*
X108793733Y-57586660D02*
X108893733Y-57619993D01*
X108893733Y-57619993D02*
X109060400Y-57619993D01*
X109060400Y-57619993D02*
X109127066Y-57586660D01*
X109127066Y-57586660D02*
X109160400Y-57553326D01*
X109160400Y-57553326D02*
X109193733Y-57486660D01*
X109193733Y-57486660D02*
X109193733Y-57419993D01*
X109193733Y-57419993D02*
X109160400Y-57353326D01*
X109160400Y-57353326D02*
X109127066Y-57319993D01*
X109127066Y-57319993D02*
X109060400Y-57286660D01*
X109060400Y-57286660D02*
X108927066Y-57253326D01*
X108927066Y-57253326D02*
X108860400Y-57219993D01*
X108860400Y-57219993D02*
X108827066Y-57186660D01*
X108827066Y-57186660D02*
X108793733Y-57119993D01*
X108793733Y-57119993D02*
X108793733Y-57053326D01*
X108793733Y-57053326D02*
X108827066Y-56986660D01*
X108827066Y-56986660D02*
X108860400Y-56953326D01*
X108860400Y-56953326D02*
X108927066Y-56919993D01*
X108927066Y-56919993D02*
X109093733Y-56919993D01*
X109093733Y-56919993D02*
X109193733Y-56953326D01*
X109760400Y-57586660D02*
X109693733Y-57619993D01*
X109693733Y-57619993D02*
X109560400Y-57619993D01*
X109560400Y-57619993D02*
X109493733Y-57586660D01*
X109493733Y-57586660D02*
X109460400Y-57519993D01*
X109460400Y-57519993D02*
X109460400Y-57253326D01*
X109460400Y-57253326D02*
X109493733Y-57186660D01*
X109493733Y-57186660D02*
X109560400Y-57153326D01*
X109560400Y-57153326D02*
X109693733Y-57153326D01*
X109693733Y-57153326D02*
X109760400Y-57186660D01*
X109760400Y-57186660D02*
X109793733Y-57253326D01*
X109793733Y-57253326D02*
X109793733Y-57319993D01*
X109793733Y-57319993D02*
X109460400Y-57386660D01*
X109993733Y-57153326D02*
X110260400Y-57153326D01*
X110093733Y-56919993D02*
X110093733Y-57519993D01*
X110093733Y-57519993D02*
X110127067Y-57586660D01*
X110127067Y-57586660D02*
X110193733Y-57619993D01*
X110193733Y-57619993D02*
X110260400Y-57619993D01*
X93980400Y-56919993D02*
X94213734Y-57619993D01*
X94213734Y-57619993D02*
X94447067Y-56919993D01*
X94980400Y-57153326D02*
X94980400Y-57719993D01*
X94980400Y-57719993D02*
X94947067Y-57786660D01*
X94947067Y-57786660D02*
X94913734Y-57819993D01*
X94913734Y-57819993D02*
X94847067Y-57853326D01*
X94847067Y-57853326D02*
X94747067Y-57853326D01*
X94747067Y-57853326D02*
X94680400Y-57819993D01*
X94980400Y-57586660D02*
X94913734Y-57619993D01*
X94913734Y-57619993D02*
X94780400Y-57619993D01*
X94780400Y-57619993D02*
X94713734Y-57586660D01*
X94713734Y-57586660D02*
X94680400Y-57553326D01*
X94680400Y-57553326D02*
X94647067Y-57486660D01*
X94647067Y-57486660D02*
X94647067Y-57286660D01*
X94647067Y-57286660D02*
X94680400Y-57219993D01*
X94680400Y-57219993D02*
X94713734Y-57186660D01*
X94713734Y-57186660D02*
X94780400Y-57153326D01*
X94780400Y-57153326D02*
X94913734Y-57153326D01*
X94913734Y-57153326D02*
X94980400Y-57186660D01*
X96180400Y-57619993D02*
X95847066Y-57619993D01*
X95847066Y-57619993D02*
X95847066Y-56919993D01*
X96413733Y-57619993D02*
X96413733Y-57153326D01*
X96413733Y-56919993D02*
X96380400Y-56953326D01*
X96380400Y-56953326D02*
X96413733Y-56986660D01*
X96413733Y-56986660D02*
X96447067Y-56953326D01*
X96447067Y-56953326D02*
X96413733Y-56919993D01*
X96413733Y-56919993D02*
X96413733Y-56986660D01*
X96747066Y-57619993D02*
X96747066Y-57153326D01*
X96747066Y-57219993D02*
X96780400Y-57186660D01*
X96780400Y-57186660D02*
X96847066Y-57153326D01*
X96847066Y-57153326D02*
X96947066Y-57153326D01*
X96947066Y-57153326D02*
X97013733Y-57186660D01*
X97013733Y-57186660D02*
X97047066Y-57253326D01*
X97047066Y-57253326D02*
X97047066Y-57619993D01*
X97047066Y-57253326D02*
X97080400Y-57186660D01*
X97080400Y-57186660D02*
X97147066Y-57153326D01*
X97147066Y-57153326D02*
X97247066Y-57153326D01*
X97247066Y-57153326D02*
X97313733Y-57186660D01*
X97313733Y-57186660D02*
X97347066Y-57253326D01*
X97347066Y-57253326D02*
X97347066Y-57619993D01*
X97680399Y-57619993D02*
X97680399Y-57153326D01*
X97680399Y-56919993D02*
X97647066Y-56953326D01*
X97647066Y-56953326D02*
X97680399Y-56986660D01*
X97680399Y-56986660D02*
X97713733Y-56953326D01*
X97713733Y-56953326D02*
X97680399Y-56919993D01*
X97680399Y-56919993D02*
X97680399Y-56986660D01*
X97913732Y-57153326D02*
X98180399Y-57153326D01*
X98013732Y-56919993D02*
X98013732Y-57519993D01*
X98013732Y-57519993D02*
X98047066Y-57586660D01*
X98047066Y-57586660D02*
X98113732Y-57619993D01*
X98113732Y-57619993D02*
X98180399Y-57619993D01*
X98913732Y-57586660D02*
X99013732Y-57619993D01*
X99013732Y-57619993D02*
X99180399Y-57619993D01*
X99180399Y-57619993D02*
X99247065Y-57586660D01*
X99247065Y-57586660D02*
X99280399Y-57553326D01*
X99280399Y-57553326D02*
X99313732Y-57486660D01*
X99313732Y-57486660D02*
X99313732Y-57419993D01*
X99313732Y-57419993D02*
X99280399Y-57353326D01*
X99280399Y-57353326D02*
X99247065Y-57319993D01*
X99247065Y-57319993D02*
X99180399Y-57286660D01*
X99180399Y-57286660D02*
X99047065Y-57253326D01*
X99047065Y-57253326D02*
X98980399Y-57219993D01*
X98980399Y-57219993D02*
X98947065Y-57186660D01*
X98947065Y-57186660D02*
X98913732Y-57119993D01*
X98913732Y-57119993D02*
X98913732Y-57053326D01*
X98913732Y-57053326D02*
X98947065Y-56986660D01*
X98947065Y-56986660D02*
X98980399Y-56953326D01*
X98980399Y-56953326D02*
X99047065Y-56919993D01*
X99047065Y-56919993D02*
X99213732Y-56919993D01*
X99213732Y-56919993D02*
X99313732Y-56953326D01*
X99880399Y-57586660D02*
X99813732Y-57619993D01*
X99813732Y-57619993D02*
X99680399Y-57619993D01*
X99680399Y-57619993D02*
X99613732Y-57586660D01*
X99613732Y-57586660D02*
X99580399Y-57519993D01*
X99580399Y-57519993D02*
X99580399Y-57253326D01*
X99580399Y-57253326D02*
X99613732Y-57186660D01*
X99613732Y-57186660D02*
X99680399Y-57153326D01*
X99680399Y-57153326D02*
X99813732Y-57153326D01*
X99813732Y-57153326D02*
X99880399Y-57186660D01*
X99880399Y-57186660D02*
X99913732Y-57253326D01*
X99913732Y-57253326D02*
X99913732Y-57319993D01*
X99913732Y-57319993D02*
X99580399Y-57386660D01*
X100113732Y-57153326D02*
X100380399Y-57153326D01*
X100213732Y-56919993D02*
X100213732Y-57519993D01*
X100213732Y-57519993D02*
X100247066Y-57586660D01*
X100247066Y-57586660D02*
X100313732Y-57619993D01*
X100313732Y-57619993D02*
X100380399Y-57619993D01*
X88861333Y-50061993D02*
X89094667Y-50761993D01*
X89094667Y-50761993D02*
X89328000Y-50061993D01*
X89861333Y-50295326D02*
X89861333Y-50861993D01*
X89861333Y-50861993D02*
X89828000Y-50928660D01*
X89828000Y-50928660D02*
X89794667Y-50961993D01*
X89794667Y-50961993D02*
X89728000Y-50995326D01*
X89728000Y-50995326D02*
X89628000Y-50995326D01*
X89628000Y-50995326D02*
X89561333Y-50961993D01*
X89861333Y-50728660D02*
X89794667Y-50761993D01*
X89794667Y-50761993D02*
X89661333Y-50761993D01*
X89661333Y-50761993D02*
X89594667Y-50728660D01*
X89594667Y-50728660D02*
X89561333Y-50695326D01*
X89561333Y-50695326D02*
X89528000Y-50628660D01*
X89528000Y-50628660D02*
X89528000Y-50428660D01*
X89528000Y-50428660D02*
X89561333Y-50361993D01*
X89561333Y-50361993D02*
X89594667Y-50328660D01*
X89594667Y-50328660D02*
X89661333Y-50295326D01*
X89661333Y-50295326D02*
X89794667Y-50295326D01*
X89794667Y-50295326D02*
X89861333Y-50328660D01*
X90727999Y-50761993D02*
X90727999Y-50061993D01*
X90727999Y-50061993D02*
X90961333Y-50561993D01*
X90961333Y-50561993D02*
X91194666Y-50061993D01*
X91194666Y-50061993D02*
X91194666Y-50761993D01*
X91827999Y-50761993D02*
X91827999Y-50395326D01*
X91827999Y-50395326D02*
X91794666Y-50328660D01*
X91794666Y-50328660D02*
X91727999Y-50295326D01*
X91727999Y-50295326D02*
X91594666Y-50295326D01*
X91594666Y-50295326D02*
X91527999Y-50328660D01*
X91827999Y-50728660D02*
X91761333Y-50761993D01*
X91761333Y-50761993D02*
X91594666Y-50761993D01*
X91594666Y-50761993D02*
X91527999Y-50728660D01*
X91527999Y-50728660D02*
X91494666Y-50661993D01*
X91494666Y-50661993D02*
X91494666Y-50595326D01*
X91494666Y-50595326D02*
X91527999Y-50528660D01*
X91527999Y-50528660D02*
X91594666Y-50495326D01*
X91594666Y-50495326D02*
X91761333Y-50495326D01*
X91761333Y-50495326D02*
X91827999Y-50461993D01*
X92094666Y-50761993D02*
X92461332Y-50295326D01*
X92094666Y-50295326D02*
X92461332Y-50761993D01*
X101601000Y-72261593D02*
X101834334Y-72961593D01*
X101834334Y-72961593D02*
X102067667Y-72261593D01*
X102601000Y-72494926D02*
X102601000Y-73061593D01*
X102601000Y-73061593D02*
X102567667Y-73128260D01*
X102567667Y-73128260D02*
X102534334Y-73161593D01*
X102534334Y-73161593D02*
X102467667Y-73194926D01*
X102467667Y-73194926D02*
X102367667Y-73194926D01*
X102367667Y-73194926D02*
X102301000Y-73161593D01*
X102601000Y-72928260D02*
X102534334Y-72961593D01*
X102534334Y-72961593D02*
X102401000Y-72961593D01*
X102401000Y-72961593D02*
X102334334Y-72928260D01*
X102334334Y-72928260D02*
X102301000Y-72894926D01*
X102301000Y-72894926D02*
X102267667Y-72828260D01*
X102267667Y-72828260D02*
X102267667Y-72628260D01*
X102267667Y-72628260D02*
X102301000Y-72561593D01*
X102301000Y-72561593D02*
X102334334Y-72528260D01*
X102334334Y-72528260D02*
X102401000Y-72494926D01*
X102401000Y-72494926D02*
X102534334Y-72494926D01*
X102534334Y-72494926D02*
X102601000Y-72528260D01*
X103434333Y-72928260D02*
X103534333Y-72961593D01*
X103534333Y-72961593D02*
X103701000Y-72961593D01*
X103701000Y-72961593D02*
X103767666Y-72928260D01*
X103767666Y-72928260D02*
X103801000Y-72894926D01*
X103801000Y-72894926D02*
X103834333Y-72828260D01*
X103834333Y-72828260D02*
X103834333Y-72761593D01*
X103834333Y-72761593D02*
X103801000Y-72694926D01*
X103801000Y-72694926D02*
X103767666Y-72661593D01*
X103767666Y-72661593D02*
X103701000Y-72628260D01*
X103701000Y-72628260D02*
X103567666Y-72594926D01*
X103567666Y-72594926D02*
X103501000Y-72561593D01*
X103501000Y-72561593D02*
X103467666Y-72528260D01*
X103467666Y-72528260D02*
X103434333Y-72461593D01*
X103434333Y-72461593D02*
X103434333Y-72394926D01*
X103434333Y-72394926D02*
X103467666Y-72328260D01*
X103467666Y-72328260D02*
X103501000Y-72294926D01*
X103501000Y-72294926D02*
X103567666Y-72261593D01*
X103567666Y-72261593D02*
X103734333Y-72261593D01*
X103734333Y-72261593D02*
X103834333Y-72294926D01*
X104401000Y-72928260D02*
X104334333Y-72961593D01*
X104334333Y-72961593D02*
X104201000Y-72961593D01*
X104201000Y-72961593D02*
X104134333Y-72928260D01*
X104134333Y-72928260D02*
X104101000Y-72861593D01*
X104101000Y-72861593D02*
X104101000Y-72594926D01*
X104101000Y-72594926D02*
X104134333Y-72528260D01*
X104134333Y-72528260D02*
X104201000Y-72494926D01*
X104201000Y-72494926D02*
X104334333Y-72494926D01*
X104334333Y-72494926D02*
X104401000Y-72528260D01*
X104401000Y-72528260D02*
X104434333Y-72594926D01*
X104434333Y-72594926D02*
X104434333Y-72661593D01*
X104434333Y-72661593D02*
X104101000Y-72728260D01*
X104634333Y-72494926D02*
X104901000Y-72494926D01*
X104734333Y-72261593D02*
X104734333Y-72861593D01*
X104734333Y-72861593D02*
X104767667Y-72928260D01*
X104767667Y-72928260D02*
X104834333Y-72961593D01*
X104834333Y-72961593D02*
X104901000Y-72961593D01*
X119719000Y-73074393D02*
X119952334Y-73774393D01*
X119952334Y-73774393D02*
X120185667Y-73074393D01*
X120719000Y-73307726D02*
X120719000Y-73874393D01*
X120719000Y-73874393D02*
X120685667Y-73941060D01*
X120685667Y-73941060D02*
X120652334Y-73974393D01*
X120652334Y-73974393D02*
X120585667Y-74007726D01*
X120585667Y-74007726D02*
X120485667Y-74007726D01*
X120485667Y-74007726D02*
X120419000Y-73974393D01*
X120719000Y-73741060D02*
X120652334Y-73774393D01*
X120652334Y-73774393D02*
X120519000Y-73774393D01*
X120519000Y-73774393D02*
X120452334Y-73741060D01*
X120452334Y-73741060D02*
X120419000Y-73707726D01*
X120419000Y-73707726D02*
X120385667Y-73641060D01*
X120385667Y-73641060D02*
X120385667Y-73441060D01*
X120385667Y-73441060D02*
X120419000Y-73374393D01*
X120419000Y-73374393D02*
X120452334Y-73341060D01*
X120452334Y-73341060D02*
X120519000Y-73307726D01*
X120519000Y-73307726D02*
X120652334Y-73307726D01*
X120652334Y-73307726D02*
X120719000Y-73341060D01*
X115984666Y-71424926D02*
X116518000Y-71424926D01*
X116784667Y-70991593D02*
X117218000Y-70991593D01*
X117218000Y-70991593D02*
X116984667Y-71258260D01*
X116984667Y-71258260D02*
X117084667Y-71258260D01*
X117084667Y-71258260D02*
X117151333Y-71291593D01*
X117151333Y-71291593D02*
X117184667Y-71324926D01*
X117184667Y-71324926D02*
X117218000Y-71391593D01*
X117218000Y-71391593D02*
X117218000Y-71558260D01*
X117218000Y-71558260D02*
X117184667Y-71624926D01*
X117184667Y-71624926D02*
X117151333Y-71658260D01*
X117151333Y-71658260D02*
X117084667Y-71691593D01*
X117084667Y-71691593D02*
X116884667Y-71691593D01*
X116884667Y-71691593D02*
X116818000Y-71658260D01*
X116818000Y-71658260D02*
X116784667Y-71624926D01*
X117518000Y-71624926D02*
X117551334Y-71658260D01*
X117551334Y-71658260D02*
X117518000Y-71691593D01*
X117518000Y-71691593D02*
X117484667Y-71658260D01*
X117484667Y-71658260D02*
X117518000Y-71624926D01*
X117518000Y-71624926D02*
X117518000Y-71691593D01*
X117784667Y-70991593D02*
X118218000Y-70991593D01*
X118218000Y-70991593D02*
X117984667Y-71258260D01*
X117984667Y-71258260D02*
X118084667Y-71258260D01*
X118084667Y-71258260D02*
X118151333Y-71291593D01*
X118151333Y-71291593D02*
X118184667Y-71324926D01*
X118184667Y-71324926D02*
X118218000Y-71391593D01*
X118218000Y-71391593D02*
X118218000Y-71558260D01*
X118218000Y-71558260D02*
X118184667Y-71624926D01*
X118184667Y-71624926D02*
X118151333Y-71658260D01*
X118151333Y-71658260D02*
X118084667Y-71691593D01*
X118084667Y-71691593D02*
X117884667Y-71691593D01*
X117884667Y-71691593D02*
X117818000Y-71658260D01*
X117818000Y-71658260D02*
X117784667Y-71624926D01*
X118418000Y-70991593D02*
X118651334Y-71691593D01*
X118651334Y-71691593D02*
X118884667Y-70991593D01*
X120051333Y-71691593D02*
X119818000Y-71358260D01*
X119651333Y-71691593D02*
X119651333Y-70991593D01*
X119651333Y-70991593D02*
X119918000Y-70991593D01*
X119918000Y-70991593D02*
X119984667Y-71024926D01*
X119984667Y-71024926D02*
X120018000Y-71058260D01*
X120018000Y-71058260D02*
X120051333Y-71124926D01*
X120051333Y-71124926D02*
X120051333Y-71224926D01*
X120051333Y-71224926D02*
X120018000Y-71291593D01*
X120018000Y-71291593D02*
X119984667Y-71324926D01*
X119984667Y-71324926D02*
X119918000Y-71358260D01*
X119918000Y-71358260D02*
X119651333Y-71358260D01*
X120351333Y-71324926D02*
X120584667Y-71324926D01*
X120684667Y-71691593D02*
X120351333Y-71691593D01*
X120351333Y-71691593D02*
X120351333Y-70991593D01*
X120351333Y-70991593D02*
X120684667Y-70991593D01*
X121218000Y-71324926D02*
X120984666Y-71324926D01*
X120984666Y-71691593D02*
X120984666Y-70991593D01*
X120984666Y-70991593D02*
X121318000Y-70991593D01*
X83523466Y-68275326D02*
X84056800Y-68275326D01*
X83790133Y-68541993D02*
X83790133Y-68008660D01*
X84323467Y-67841993D02*
X84756800Y-67841993D01*
X84756800Y-67841993D02*
X84523467Y-68108660D01*
X84523467Y-68108660D02*
X84623467Y-68108660D01*
X84623467Y-68108660D02*
X84690133Y-68141993D01*
X84690133Y-68141993D02*
X84723467Y-68175326D01*
X84723467Y-68175326D02*
X84756800Y-68241993D01*
X84756800Y-68241993D02*
X84756800Y-68408660D01*
X84756800Y-68408660D02*
X84723467Y-68475326D01*
X84723467Y-68475326D02*
X84690133Y-68508660D01*
X84690133Y-68508660D02*
X84623467Y-68541993D01*
X84623467Y-68541993D02*
X84423467Y-68541993D01*
X84423467Y-68541993D02*
X84356800Y-68508660D01*
X84356800Y-68508660D02*
X84323467Y-68475326D01*
X85056800Y-68475326D02*
X85090134Y-68508660D01*
X85090134Y-68508660D02*
X85056800Y-68541993D01*
X85056800Y-68541993D02*
X85023467Y-68508660D01*
X85023467Y-68508660D02*
X85056800Y-68475326D01*
X85056800Y-68475326D02*
X85056800Y-68541993D01*
X85323467Y-67841993D02*
X85756800Y-67841993D01*
X85756800Y-67841993D02*
X85523467Y-68108660D01*
X85523467Y-68108660D02*
X85623467Y-68108660D01*
X85623467Y-68108660D02*
X85690133Y-68141993D01*
X85690133Y-68141993D02*
X85723467Y-68175326D01*
X85723467Y-68175326D02*
X85756800Y-68241993D01*
X85756800Y-68241993D02*
X85756800Y-68408660D01*
X85756800Y-68408660D02*
X85723467Y-68475326D01*
X85723467Y-68475326D02*
X85690133Y-68508660D01*
X85690133Y-68508660D02*
X85623467Y-68541993D01*
X85623467Y-68541993D02*
X85423467Y-68541993D01*
X85423467Y-68541993D02*
X85356800Y-68508660D01*
X85356800Y-68508660D02*
X85323467Y-68475326D01*
X85956800Y-67841993D02*
X86190134Y-68541993D01*
X86190134Y-68541993D02*
X86423467Y-67841993D01*
X87590133Y-68541993D02*
X87356800Y-68208660D01*
X87190133Y-68541993D02*
X87190133Y-67841993D01*
X87190133Y-67841993D02*
X87456800Y-67841993D01*
X87456800Y-67841993D02*
X87523467Y-67875326D01*
X87523467Y-67875326D02*
X87556800Y-67908660D01*
X87556800Y-67908660D02*
X87590133Y-67975326D01*
X87590133Y-67975326D02*
X87590133Y-68075326D01*
X87590133Y-68075326D02*
X87556800Y-68141993D01*
X87556800Y-68141993D02*
X87523467Y-68175326D01*
X87523467Y-68175326D02*
X87456800Y-68208660D01*
X87456800Y-68208660D02*
X87190133Y-68208660D01*
X87890133Y-68175326D02*
X88123467Y-68175326D01*
X88223467Y-68541993D02*
X87890133Y-68541993D01*
X87890133Y-68541993D02*
X87890133Y-67841993D01*
X87890133Y-67841993D02*
X88223467Y-67841993D01*
X88756800Y-68175326D02*
X88523466Y-68175326D01*
X88523466Y-68541993D02*
X88523466Y-67841993D01*
X88523466Y-67841993D02*
X88856800Y-67841993D01*
X79411666Y-52501926D02*
X79945000Y-52501926D01*
X79678333Y-52768593D02*
X79678333Y-52235260D01*
X80645000Y-52768593D02*
X80245000Y-52768593D01*
X80445000Y-52768593D02*
X80445000Y-52068593D01*
X80445000Y-52068593D02*
X80378333Y-52168593D01*
X80378333Y-52168593D02*
X80311667Y-52235260D01*
X80311667Y-52235260D02*
X80245000Y-52268593D01*
X81278334Y-52068593D02*
X80945000Y-52068593D01*
X80945000Y-52068593D02*
X80911667Y-52401926D01*
X80911667Y-52401926D02*
X80945000Y-52368593D01*
X80945000Y-52368593D02*
X81011667Y-52335260D01*
X81011667Y-52335260D02*
X81178334Y-52335260D01*
X81178334Y-52335260D02*
X81245000Y-52368593D01*
X81245000Y-52368593D02*
X81278334Y-52401926D01*
X81278334Y-52401926D02*
X81311667Y-52468593D01*
X81311667Y-52468593D02*
X81311667Y-52635260D01*
X81311667Y-52635260D02*
X81278334Y-52701926D01*
X81278334Y-52701926D02*
X81245000Y-52735260D01*
X81245000Y-52735260D02*
X81178334Y-52768593D01*
X81178334Y-52768593D02*
X81011667Y-52768593D01*
X81011667Y-52768593D02*
X80945000Y-52735260D01*
X80945000Y-52735260D02*
X80911667Y-52701926D01*
X81511667Y-52068593D02*
X81745001Y-52768593D01*
X81745001Y-52768593D02*
X81978334Y-52068593D01*
X65139999Y-52501926D02*
X65673333Y-52501926D01*
X65406666Y-52768593D02*
X65406666Y-52235260D01*
X66340000Y-52068593D02*
X66006666Y-52068593D01*
X66006666Y-52068593D02*
X65973333Y-52401926D01*
X65973333Y-52401926D02*
X66006666Y-52368593D01*
X66006666Y-52368593D02*
X66073333Y-52335260D01*
X66073333Y-52335260D02*
X66240000Y-52335260D01*
X66240000Y-52335260D02*
X66306666Y-52368593D01*
X66306666Y-52368593D02*
X66340000Y-52401926D01*
X66340000Y-52401926D02*
X66373333Y-52468593D01*
X66373333Y-52468593D02*
X66373333Y-52635260D01*
X66373333Y-52635260D02*
X66340000Y-52701926D01*
X66340000Y-52701926D02*
X66306666Y-52735260D01*
X66306666Y-52735260D02*
X66240000Y-52768593D01*
X66240000Y-52768593D02*
X66073333Y-52768593D01*
X66073333Y-52768593D02*
X66006666Y-52735260D01*
X66006666Y-52735260D02*
X65973333Y-52701926D01*
X66573333Y-52068593D02*
X66806667Y-52768593D01*
X66806667Y-52768593D02*
X67040000Y-52068593D01*
X77783600Y-48595060D02*
X77883600Y-48628393D01*
X77883600Y-48628393D02*
X78050267Y-48628393D01*
X78050267Y-48628393D02*
X78116933Y-48595060D01*
X78116933Y-48595060D02*
X78150267Y-48561726D01*
X78150267Y-48561726D02*
X78183600Y-48495060D01*
X78183600Y-48495060D02*
X78183600Y-48428393D01*
X78183600Y-48428393D02*
X78150267Y-48361726D01*
X78150267Y-48361726D02*
X78116933Y-48328393D01*
X78116933Y-48328393D02*
X78050267Y-48295060D01*
X78050267Y-48295060D02*
X77916933Y-48261726D01*
X77916933Y-48261726D02*
X77850267Y-48228393D01*
X77850267Y-48228393D02*
X77816933Y-48195060D01*
X77816933Y-48195060D02*
X77783600Y-48128393D01*
X77783600Y-48128393D02*
X77783600Y-48061726D01*
X77783600Y-48061726D02*
X77816933Y-47995060D01*
X77816933Y-47995060D02*
X77850267Y-47961726D01*
X77850267Y-47961726D02*
X77916933Y-47928393D01*
X77916933Y-47928393D02*
X78083600Y-47928393D01*
X78083600Y-47928393D02*
X78183600Y-47961726D01*
X78483600Y-48628393D02*
X78483600Y-47928393D01*
X78483600Y-47928393D02*
X78650267Y-47928393D01*
X78650267Y-47928393D02*
X78750267Y-47961726D01*
X78750267Y-47961726D02*
X78816934Y-48028393D01*
X78816934Y-48028393D02*
X78850267Y-48095060D01*
X78850267Y-48095060D02*
X78883600Y-48228393D01*
X78883600Y-48228393D02*
X78883600Y-48328393D01*
X78883600Y-48328393D02*
X78850267Y-48461726D01*
X78850267Y-48461726D02*
X78816934Y-48528393D01*
X78816934Y-48528393D02*
X78750267Y-48595060D01*
X78750267Y-48595060D02*
X78650267Y-48628393D01*
X78650267Y-48628393D02*
X78483600Y-48628393D01*
X77720267Y-47734060D02*
X78946934Y-47734060D01*
X70727999Y-47447326D02*
X71261333Y-47447326D01*
X71928000Y-47013993D02*
X71594666Y-47013993D01*
X71594666Y-47013993D02*
X71561333Y-47347326D01*
X71561333Y-47347326D02*
X71594666Y-47313993D01*
X71594666Y-47313993D02*
X71661333Y-47280660D01*
X71661333Y-47280660D02*
X71828000Y-47280660D01*
X71828000Y-47280660D02*
X71894666Y-47313993D01*
X71894666Y-47313993D02*
X71928000Y-47347326D01*
X71928000Y-47347326D02*
X71961333Y-47413993D01*
X71961333Y-47413993D02*
X71961333Y-47580660D01*
X71961333Y-47580660D02*
X71928000Y-47647326D01*
X71928000Y-47647326D02*
X71894666Y-47680660D01*
X71894666Y-47680660D02*
X71828000Y-47713993D01*
X71828000Y-47713993D02*
X71661333Y-47713993D01*
X71661333Y-47713993D02*
X71594666Y-47680660D01*
X71594666Y-47680660D02*
X71561333Y-47647326D01*
X72161333Y-47013993D02*
X72394667Y-47713993D01*
X72394667Y-47713993D02*
X72628000Y-47013993D01*
X129190926Y-68351332D02*
X129157593Y-68417999D01*
X129157593Y-68417999D02*
X129157593Y-68517999D01*
X129157593Y-68517999D02*
X129190926Y-68617999D01*
X129190926Y-68617999D02*
X129257593Y-68684666D01*
X129257593Y-68684666D02*
X129324260Y-68717999D01*
X129324260Y-68717999D02*
X129457593Y-68751332D01*
X129457593Y-68751332D02*
X129557593Y-68751332D01*
X129557593Y-68751332D02*
X129690926Y-68717999D01*
X129690926Y-68717999D02*
X129757593Y-68684666D01*
X129757593Y-68684666D02*
X129824260Y-68617999D01*
X129824260Y-68617999D02*
X129857593Y-68517999D01*
X129857593Y-68517999D02*
X129857593Y-68451332D01*
X129857593Y-68451332D02*
X129824260Y-68351332D01*
X129824260Y-68351332D02*
X129790926Y-68317999D01*
X129790926Y-68317999D02*
X129557593Y-68317999D01*
X129557593Y-68317999D02*
X129557593Y-68451332D01*
X129857593Y-68017999D02*
X129157593Y-68017999D01*
X129157593Y-68017999D02*
X129857593Y-67617999D01*
X129857593Y-67617999D02*
X129157593Y-67617999D01*
X129857593Y-67284666D02*
X129157593Y-67284666D01*
X129157593Y-67284666D02*
X129157593Y-67117999D01*
X129157593Y-67117999D02*
X129190926Y-67017999D01*
X129190926Y-67017999D02*
X129257593Y-66951333D01*
X129257593Y-66951333D02*
X129324260Y-66917999D01*
X129324260Y-66917999D02*
X129457593Y-66884666D01*
X129457593Y-66884666D02*
X129557593Y-66884666D01*
X129557593Y-66884666D02*
X129690926Y-66917999D01*
X129690926Y-66917999D02*
X129757593Y-66951333D01*
X129757593Y-66951333D02*
X129824260Y-67017999D01*
X129824260Y-67017999D02*
X129857593Y-67117999D01*
X129857593Y-67117999D02*
X129857593Y-67284666D01*
X126617593Y-68748999D02*
X127317593Y-68515666D01*
X127317593Y-68515666D02*
X126617593Y-68282332D01*
X126850926Y-67748999D02*
X127417593Y-67748999D01*
X127417593Y-67748999D02*
X127484260Y-67782332D01*
X127484260Y-67782332D02*
X127517593Y-67815666D01*
X127517593Y-67815666D02*
X127550926Y-67882332D01*
X127550926Y-67882332D02*
X127550926Y-67982332D01*
X127550926Y-67982332D02*
X127517593Y-68048999D01*
X127284260Y-67748999D02*
X127317593Y-67815666D01*
X127317593Y-67815666D02*
X127317593Y-67948999D01*
X127317593Y-67948999D02*
X127284260Y-68015666D01*
X127284260Y-68015666D02*
X127250926Y-68048999D01*
X127250926Y-68048999D02*
X127184260Y-68082332D01*
X127184260Y-68082332D02*
X126984260Y-68082332D01*
X126984260Y-68082332D02*
X126917593Y-68048999D01*
X126917593Y-68048999D02*
X126884260Y-68015666D01*
X126884260Y-68015666D02*
X126850926Y-67948999D01*
X126850926Y-67948999D02*
X126850926Y-67815666D01*
X126850926Y-67815666D02*
X126884260Y-67748999D01*
X139985926Y-68351332D02*
X139952593Y-68417999D01*
X139952593Y-68417999D02*
X139952593Y-68517999D01*
X139952593Y-68517999D02*
X139985926Y-68617999D01*
X139985926Y-68617999D02*
X140052593Y-68684666D01*
X140052593Y-68684666D02*
X140119260Y-68717999D01*
X140119260Y-68717999D02*
X140252593Y-68751332D01*
X140252593Y-68751332D02*
X140352593Y-68751332D01*
X140352593Y-68751332D02*
X140485926Y-68717999D01*
X140485926Y-68717999D02*
X140552593Y-68684666D01*
X140552593Y-68684666D02*
X140619260Y-68617999D01*
X140619260Y-68617999D02*
X140652593Y-68517999D01*
X140652593Y-68517999D02*
X140652593Y-68451332D01*
X140652593Y-68451332D02*
X140619260Y-68351332D01*
X140619260Y-68351332D02*
X140585926Y-68317999D01*
X140585926Y-68317999D02*
X140352593Y-68317999D01*
X140352593Y-68317999D02*
X140352593Y-68451332D01*
X140652593Y-68017999D02*
X139952593Y-68017999D01*
X139952593Y-68017999D02*
X140652593Y-67617999D01*
X140652593Y-67617999D02*
X139952593Y-67617999D01*
X140652593Y-67284666D02*
X139952593Y-67284666D01*
X139952593Y-67284666D02*
X139952593Y-67117999D01*
X139952593Y-67117999D02*
X139985926Y-67017999D01*
X139985926Y-67017999D02*
X140052593Y-66951333D01*
X140052593Y-66951333D02*
X140119260Y-66917999D01*
X140119260Y-66917999D02*
X140252593Y-66884666D01*
X140252593Y-66884666D02*
X140352593Y-66884666D01*
X140352593Y-66884666D02*
X140485926Y-66917999D01*
X140485926Y-66917999D02*
X140552593Y-66951333D01*
X140552593Y-66951333D02*
X140619260Y-67017999D01*
X140619260Y-67017999D02*
X140652593Y-67117999D01*
X140652593Y-67117999D02*
X140652593Y-67284666D01*
X126977280Y-30991426D02*
X126910613Y-30958093D01*
X126910613Y-30958093D02*
X126810613Y-30958093D01*
X126810613Y-30958093D02*
X126710613Y-30991426D01*
X126710613Y-30991426D02*
X126643947Y-31058093D01*
X126643947Y-31058093D02*
X126610613Y-31124760D01*
X126610613Y-31124760D02*
X126577280Y-31258093D01*
X126577280Y-31258093D02*
X126577280Y-31358093D01*
X126577280Y-31358093D02*
X126610613Y-31491426D01*
X126610613Y-31491426D02*
X126643947Y-31558093D01*
X126643947Y-31558093D02*
X126710613Y-31624760D01*
X126710613Y-31624760D02*
X126810613Y-31658093D01*
X126810613Y-31658093D02*
X126877280Y-31658093D01*
X126877280Y-31658093D02*
X126977280Y-31624760D01*
X126977280Y-31624760D02*
X127010613Y-31591426D01*
X127010613Y-31591426D02*
X127010613Y-31358093D01*
X127010613Y-31358093D02*
X126877280Y-31358093D01*
X127310613Y-31658093D02*
X127310613Y-30958093D01*
X127310613Y-30958093D02*
X127710613Y-31658093D01*
X127710613Y-31658093D02*
X127710613Y-30958093D01*
X128043946Y-31658093D02*
X128043946Y-30958093D01*
X128043946Y-30958093D02*
X128210613Y-30958093D01*
X128210613Y-30958093D02*
X128310613Y-30991426D01*
X128310613Y-30991426D02*
X128377280Y-31058093D01*
X128377280Y-31058093D02*
X128410613Y-31124760D01*
X128410613Y-31124760D02*
X128443946Y-31258093D01*
X128443946Y-31258093D02*
X128443946Y-31358093D01*
X128443946Y-31358093D02*
X128410613Y-31491426D01*
X128410613Y-31491426D02*
X128377280Y-31558093D01*
X128377280Y-31558093D02*
X128310613Y-31624760D01*
X128310613Y-31624760D02*
X128210613Y-31658093D01*
X128210613Y-31658093D02*
X128043946Y-31658093D01*
X111428393Y-34613733D02*
X112128393Y-34380400D01*
X112128393Y-34380400D02*
X111428393Y-34147066D01*
X112061726Y-33513733D02*
X112095060Y-33547066D01*
X112095060Y-33547066D02*
X112128393Y-33647066D01*
X112128393Y-33647066D02*
X112128393Y-33713733D01*
X112128393Y-33713733D02*
X112095060Y-33813733D01*
X112095060Y-33813733D02*
X112028393Y-33880400D01*
X112028393Y-33880400D02*
X111961726Y-33913733D01*
X111961726Y-33913733D02*
X111828393Y-33947066D01*
X111828393Y-33947066D02*
X111728393Y-33947066D01*
X111728393Y-33947066D02*
X111595060Y-33913733D01*
X111595060Y-33913733D02*
X111528393Y-33880400D01*
X111528393Y-33880400D02*
X111461726Y-33813733D01*
X111461726Y-33813733D02*
X111428393Y-33713733D01*
X111428393Y-33713733D02*
X111428393Y-33647066D01*
X111428393Y-33647066D02*
X111461726Y-33547066D01*
X111461726Y-33547066D02*
X111495060Y-33513733D01*
X112061726Y-32813733D02*
X112095060Y-32847066D01*
X112095060Y-32847066D02*
X112128393Y-32947066D01*
X112128393Y-32947066D02*
X112128393Y-33013733D01*
X112128393Y-33013733D02*
X112095060Y-33113733D01*
X112095060Y-33113733D02*
X112028393Y-33180400D01*
X112028393Y-33180400D02*
X111961726Y-33213733D01*
X111961726Y-33213733D02*
X111828393Y-33247066D01*
X111828393Y-33247066D02*
X111728393Y-33247066D01*
X111728393Y-33247066D02*
X111595060Y-33213733D01*
X111595060Y-33213733D02*
X111528393Y-33180400D01*
X111528393Y-33180400D02*
X111461726Y-33113733D01*
X111461726Y-33113733D02*
X111428393Y-33013733D01*
X111428393Y-33013733D02*
X111428393Y-32947066D01*
X111428393Y-32947066D02*
X111461726Y-32847066D01*
X111461726Y-32847066D02*
X111495060Y-32813733D01*
X76678800Y-28257593D02*
X76678800Y-27557593D01*
X77012133Y-28257593D02*
X77012133Y-27557593D01*
X77012133Y-27557593D02*
X77412133Y-28257593D01*
X77412133Y-28257593D02*
X77412133Y-27557593D01*
X77745466Y-28257593D02*
X77745466Y-27557593D01*
X77745466Y-27557593D02*
X78012133Y-27557593D01*
X78012133Y-27557593D02*
X78078800Y-27590926D01*
X78078800Y-27590926D02*
X78112133Y-27624260D01*
X78112133Y-27624260D02*
X78145466Y-27690926D01*
X78145466Y-27690926D02*
X78145466Y-27790926D01*
X78145466Y-27790926D02*
X78112133Y-27857593D01*
X78112133Y-27857593D02*
X78078800Y-27890926D01*
X78078800Y-27890926D02*
X78012133Y-27924260D01*
X78012133Y-27924260D02*
X77745466Y-27924260D01*
X78445466Y-27557593D02*
X78445466Y-28124260D01*
X78445466Y-28124260D02*
X78478800Y-28190926D01*
X78478800Y-28190926D02*
X78512133Y-28224260D01*
X78512133Y-28224260D02*
X78578800Y-28257593D01*
X78578800Y-28257593D02*
X78712133Y-28257593D01*
X78712133Y-28257593D02*
X78778800Y-28224260D01*
X78778800Y-28224260D02*
X78812133Y-28190926D01*
X78812133Y-28190926D02*
X78845466Y-28124260D01*
X78845466Y-28124260D02*
X78845466Y-27557593D01*
X79078799Y-27557593D02*
X79478799Y-27557593D01*
X79278799Y-28257593D02*
X79278799Y-27557593D01*
X108870926Y-34315332D02*
X108837593Y-34381999D01*
X108837593Y-34381999D02*
X108837593Y-34481999D01*
X108837593Y-34481999D02*
X108870926Y-34581999D01*
X108870926Y-34581999D02*
X108937593Y-34648666D01*
X108937593Y-34648666D02*
X109004260Y-34681999D01*
X109004260Y-34681999D02*
X109137593Y-34715332D01*
X109137593Y-34715332D02*
X109237593Y-34715332D01*
X109237593Y-34715332D02*
X109370926Y-34681999D01*
X109370926Y-34681999D02*
X109437593Y-34648666D01*
X109437593Y-34648666D02*
X109504260Y-34581999D01*
X109504260Y-34581999D02*
X109537593Y-34481999D01*
X109537593Y-34481999D02*
X109537593Y-34415332D01*
X109537593Y-34415332D02*
X109504260Y-34315332D01*
X109504260Y-34315332D02*
X109470926Y-34281999D01*
X109470926Y-34281999D02*
X109237593Y-34281999D01*
X109237593Y-34281999D02*
X109237593Y-34415332D01*
X109537593Y-33981999D02*
X108837593Y-33981999D01*
X108837593Y-33981999D02*
X109537593Y-33581999D01*
X109537593Y-33581999D02*
X108837593Y-33581999D01*
X109537593Y-33248666D02*
X108837593Y-33248666D01*
X108837593Y-33248666D02*
X108837593Y-33081999D01*
X108837593Y-33081999D02*
X108870926Y-32981999D01*
X108870926Y-32981999D02*
X108937593Y-32915333D01*
X108937593Y-32915333D02*
X109004260Y-32881999D01*
X109004260Y-32881999D02*
X109137593Y-32848666D01*
X109137593Y-32848666D02*
X109237593Y-32848666D01*
X109237593Y-32848666D02*
X109370926Y-32881999D01*
X109370926Y-32881999D02*
X109437593Y-32915333D01*
X109437593Y-32915333D02*
X109504260Y-32981999D01*
X109504260Y-32981999D02*
X109537593Y-33081999D01*
X109537593Y-33081999D02*
X109537593Y-33248666D01*
X59785001Y-74346132D02*
X59785001Y-73646132D01*
X59785001Y-73646132D02*
X59951668Y-73646132D01*
X59951668Y-73646132D02*
X60051668Y-73679465D01*
X60051668Y-73679465D02*
X60118335Y-73746132D01*
X60118335Y-73746132D02*
X60151668Y-73812799D01*
X60151668Y-73812799D02*
X60185001Y-73946132D01*
X60185001Y-73946132D02*
X60185001Y-74046132D01*
X60185001Y-74046132D02*
X60151668Y-74179465D01*
X60151668Y-74179465D02*
X60118335Y-74246132D01*
X60118335Y-74246132D02*
X60051668Y-74312799D01*
X60051668Y-74312799D02*
X59951668Y-74346132D01*
X59951668Y-74346132D02*
X59785001Y-74346132D01*
X60485001Y-74346132D02*
X60485001Y-73879465D01*
X60485001Y-74012799D02*
X60518335Y-73946132D01*
X60518335Y-73946132D02*
X60551668Y-73912799D01*
X60551668Y-73912799D02*
X60618335Y-73879465D01*
X60618335Y-73879465D02*
X60685001Y-73879465D01*
X61218334Y-74346132D02*
X61218334Y-73979465D01*
X61218334Y-73979465D02*
X61185001Y-73912799D01*
X61185001Y-73912799D02*
X61118334Y-73879465D01*
X61118334Y-73879465D02*
X60985001Y-73879465D01*
X60985001Y-73879465D02*
X60918334Y-73912799D01*
X61218334Y-74312799D02*
X61151668Y-74346132D01*
X61151668Y-74346132D02*
X60985001Y-74346132D01*
X60985001Y-74346132D02*
X60918334Y-74312799D01*
X60918334Y-74312799D02*
X60885001Y-74246132D01*
X60885001Y-74246132D02*
X60885001Y-74179465D01*
X60885001Y-74179465D02*
X60918334Y-74112799D01*
X60918334Y-74112799D02*
X60985001Y-74079465D01*
X60985001Y-74079465D02*
X61151668Y-74079465D01*
X61151668Y-74079465D02*
X61218334Y-74046132D01*
X61551667Y-74346132D02*
X61551667Y-73879465D01*
X61551667Y-73646132D02*
X61518334Y-73679465D01*
X61518334Y-73679465D02*
X61551667Y-73712799D01*
X61551667Y-73712799D02*
X61585001Y-73679465D01*
X61585001Y-73679465D02*
X61551667Y-73646132D01*
X61551667Y-73646132D02*
X61551667Y-73712799D01*
X61885000Y-73879465D02*
X61885000Y-74346132D01*
X61885000Y-73946132D02*
X61918334Y-73912799D01*
X61918334Y-73912799D02*
X61985000Y-73879465D01*
X61985000Y-73879465D02*
X62085000Y-73879465D01*
X62085000Y-73879465D02*
X62151667Y-73912799D01*
X62151667Y-73912799D02*
X62185000Y-73979465D01*
X62185000Y-73979465D02*
X62185000Y-74346132D01*
X63051666Y-74346132D02*
X63051666Y-73646132D01*
X63051666Y-73646132D02*
X63218333Y-73646132D01*
X63218333Y-73646132D02*
X63318333Y-73679465D01*
X63318333Y-73679465D02*
X63385000Y-73746132D01*
X63385000Y-73746132D02*
X63418333Y-73812799D01*
X63418333Y-73812799D02*
X63451666Y-73946132D01*
X63451666Y-73946132D02*
X63451666Y-74046132D01*
X63451666Y-74046132D02*
X63418333Y-74179465D01*
X63418333Y-74179465D02*
X63385000Y-74246132D01*
X63385000Y-74246132D02*
X63318333Y-74312799D01*
X63318333Y-74312799D02*
X63218333Y-74346132D01*
X63218333Y-74346132D02*
X63051666Y-74346132D01*
X63751666Y-74346132D02*
X63751666Y-73879465D01*
X63751666Y-74012799D02*
X63785000Y-73946132D01*
X63785000Y-73946132D02*
X63818333Y-73912799D01*
X63818333Y-73912799D02*
X63885000Y-73879465D01*
X63885000Y-73879465D02*
X63951666Y-73879465D01*
X64184999Y-74346132D02*
X64184999Y-73879465D01*
X64184999Y-73646132D02*
X64151666Y-73679465D01*
X64151666Y-73679465D02*
X64184999Y-73712799D01*
X64184999Y-73712799D02*
X64218333Y-73679465D01*
X64218333Y-73679465D02*
X64184999Y-73646132D01*
X64184999Y-73646132D02*
X64184999Y-73712799D01*
X64451666Y-73879465D02*
X64618332Y-74346132D01*
X64618332Y-74346132D02*
X64784999Y-73879465D01*
X65318332Y-74312799D02*
X65251665Y-74346132D01*
X65251665Y-74346132D02*
X65118332Y-74346132D01*
X65118332Y-74346132D02*
X65051665Y-74312799D01*
X65051665Y-74312799D02*
X65018332Y-74246132D01*
X65018332Y-74246132D02*
X65018332Y-73979465D01*
X65018332Y-73979465D02*
X65051665Y-73912799D01*
X65051665Y-73912799D02*
X65118332Y-73879465D01*
X65118332Y-73879465D02*
X65251665Y-73879465D01*
X65251665Y-73879465D02*
X65318332Y-73912799D01*
X65318332Y-73912799D02*
X65351665Y-73979465D01*
X65351665Y-73979465D02*
X65351665Y-74046132D01*
X65351665Y-74046132D02*
X65018332Y-74112799D01*
X65651665Y-74346132D02*
X65651665Y-73879465D01*
X65651665Y-74012799D02*
X65684999Y-73946132D01*
X65684999Y-73946132D02*
X65718332Y-73912799D01*
X65718332Y-73912799D02*
X65784999Y-73879465D01*
X65784999Y-73879465D02*
X65851665Y-73879465D01*
X66551665Y-73879465D02*
X66718331Y-74346132D01*
X66718331Y-74346132D02*
X66884998Y-73879465D01*
X67518331Y-74346132D02*
X67118331Y-74346132D01*
X67318331Y-74346132D02*
X67318331Y-73646132D01*
X67318331Y-73646132D02*
X67251664Y-73746132D01*
X67251664Y-73746132D02*
X67184998Y-73812799D01*
X67184998Y-73812799D02*
X67118331Y-73846132D01*
X67818331Y-74279465D02*
X67851665Y-74312799D01*
X67851665Y-74312799D02*
X67818331Y-74346132D01*
X67818331Y-74346132D02*
X67784998Y-74312799D01*
X67784998Y-74312799D02*
X67818331Y-74279465D01*
X67818331Y-74279465D02*
X67818331Y-74346132D01*
X68284998Y-73646132D02*
X68351664Y-73646132D01*
X68351664Y-73646132D02*
X68418331Y-73679465D01*
X68418331Y-73679465D02*
X68451664Y-73712799D01*
X68451664Y-73712799D02*
X68484998Y-73779465D01*
X68484998Y-73779465D02*
X68518331Y-73912799D01*
X68518331Y-73912799D02*
X68518331Y-74079465D01*
X68518331Y-74079465D02*
X68484998Y-74212799D01*
X68484998Y-74212799D02*
X68451664Y-74279465D01*
X68451664Y-74279465D02*
X68418331Y-74312799D01*
X68418331Y-74312799D02*
X68351664Y-74346132D01*
X68351664Y-74346132D02*
X68284998Y-74346132D01*
X68284998Y-74346132D02*
X68218331Y-74312799D01*
X68218331Y-74312799D02*
X68184998Y-74279465D01*
X68184998Y-74279465D02*
X68151664Y-74212799D01*
X68151664Y-74212799D02*
X68118331Y-74079465D01*
X68118331Y-74079465D02*
X68118331Y-73912799D01*
X68118331Y-73912799D02*
X68151664Y-73779465D01*
X68151664Y-73779465D02*
X68184998Y-73712799D01*
X68184998Y-73712799D02*
X68218331Y-73679465D01*
X68218331Y-73679465D02*
X68284998Y-73646132D01*
X60401667Y-74773093D02*
X60801667Y-74773093D01*
X60601667Y-75473093D02*
X60601667Y-74773093D01*
X61035000Y-75473093D02*
X61035000Y-75006426D01*
X61035000Y-74773093D02*
X61001667Y-74806426D01*
X61001667Y-74806426D02*
X61035000Y-74839760D01*
X61035000Y-74839760D02*
X61068334Y-74806426D01*
X61068334Y-74806426D02*
X61035000Y-74773093D01*
X61035000Y-74773093D02*
X61035000Y-74839760D01*
X61368333Y-75473093D02*
X61368333Y-75006426D01*
X61368333Y-75073093D02*
X61401667Y-75039760D01*
X61401667Y-75039760D02*
X61468333Y-75006426D01*
X61468333Y-75006426D02*
X61568333Y-75006426D01*
X61568333Y-75006426D02*
X61635000Y-75039760D01*
X61635000Y-75039760D02*
X61668333Y-75106426D01*
X61668333Y-75106426D02*
X61668333Y-75473093D01*
X61668333Y-75106426D02*
X61701667Y-75039760D01*
X61701667Y-75039760D02*
X61768333Y-75006426D01*
X61768333Y-75006426D02*
X61868333Y-75006426D01*
X61868333Y-75006426D02*
X61935000Y-75039760D01*
X61935000Y-75039760D02*
X61968333Y-75106426D01*
X61968333Y-75106426D02*
X61968333Y-75473093D01*
X62401666Y-75473093D02*
X62335000Y-75439760D01*
X62335000Y-75439760D02*
X62301666Y-75406426D01*
X62301666Y-75406426D02*
X62268333Y-75339760D01*
X62268333Y-75339760D02*
X62268333Y-75139760D01*
X62268333Y-75139760D02*
X62301666Y-75073093D01*
X62301666Y-75073093D02*
X62335000Y-75039760D01*
X62335000Y-75039760D02*
X62401666Y-75006426D01*
X62401666Y-75006426D02*
X62501666Y-75006426D01*
X62501666Y-75006426D02*
X62568333Y-75039760D01*
X62568333Y-75039760D02*
X62601666Y-75073093D01*
X62601666Y-75073093D02*
X62635000Y-75139760D01*
X62635000Y-75139760D02*
X62635000Y-75339760D01*
X62635000Y-75339760D02*
X62601666Y-75406426D01*
X62601666Y-75406426D02*
X62568333Y-75439760D01*
X62568333Y-75439760D02*
X62501666Y-75473093D01*
X62501666Y-75473093D02*
X62401666Y-75473093D01*
X62834999Y-75006426D02*
X63101666Y-75006426D01*
X62934999Y-74773093D02*
X62934999Y-75373093D01*
X62934999Y-75373093D02*
X62968333Y-75439760D01*
X62968333Y-75439760D02*
X63034999Y-75473093D01*
X63034999Y-75473093D02*
X63101666Y-75473093D01*
X63334999Y-75473093D02*
X63334999Y-74773093D01*
X63634999Y-75473093D02*
X63634999Y-75106426D01*
X63634999Y-75106426D02*
X63601666Y-75039760D01*
X63601666Y-75039760D02*
X63534999Y-75006426D01*
X63534999Y-75006426D02*
X63434999Y-75006426D01*
X63434999Y-75006426D02*
X63368333Y-75039760D01*
X63368333Y-75039760D02*
X63334999Y-75073093D01*
X63901666Y-75006426D02*
X64068332Y-75473093D01*
X64234999Y-75006426D02*
X64068332Y-75473093D01*
X64068332Y-75473093D02*
X64001666Y-75639760D01*
X64001666Y-75639760D02*
X63968332Y-75673093D01*
X63968332Y-75673093D02*
X63901666Y-75706426D01*
X65034998Y-75473093D02*
X65034998Y-74773093D01*
X65434998Y-75473093D02*
X65134998Y-75073093D01*
X65434998Y-74773093D02*
X65034998Y-75173093D01*
X66001665Y-75439760D02*
X65934998Y-75473093D01*
X65934998Y-75473093D02*
X65801665Y-75473093D01*
X65801665Y-75473093D02*
X65734998Y-75439760D01*
X65734998Y-75439760D02*
X65701665Y-75373093D01*
X65701665Y-75373093D02*
X65701665Y-75106426D01*
X65701665Y-75106426D02*
X65734998Y-75039760D01*
X65734998Y-75039760D02*
X65801665Y-75006426D01*
X65801665Y-75006426D02*
X65934998Y-75006426D01*
X65934998Y-75006426D02*
X66001665Y-75039760D01*
X66001665Y-75039760D02*
X66034998Y-75106426D01*
X66034998Y-75106426D02*
X66034998Y-75173093D01*
X66034998Y-75173093D02*
X65701665Y-75239760D01*
X66434998Y-75473093D02*
X66368332Y-75439760D01*
X66368332Y-75439760D02*
X66334998Y-75373093D01*
X66334998Y-75373093D02*
X66334998Y-74773093D01*
X66801665Y-75473093D02*
X66734999Y-75439760D01*
X66734999Y-75439760D02*
X66701665Y-75373093D01*
X66701665Y-75373093D02*
X66701665Y-74773093D01*
X67334999Y-75439760D02*
X67268332Y-75473093D01*
X67268332Y-75473093D02*
X67134999Y-75473093D01*
X67134999Y-75473093D02*
X67068332Y-75439760D01*
X67068332Y-75439760D02*
X67034999Y-75373093D01*
X67034999Y-75373093D02*
X67034999Y-75106426D01*
X67034999Y-75106426D02*
X67068332Y-75039760D01*
X67068332Y-75039760D02*
X67134999Y-75006426D01*
X67134999Y-75006426D02*
X67268332Y-75006426D01*
X67268332Y-75006426D02*
X67334999Y-75039760D01*
X67334999Y-75039760D02*
X67368332Y-75106426D01*
X67368332Y-75106426D02*
X67368332Y-75173093D01*
X67368332Y-75173093D02*
X67034999Y-75239760D01*
X67668332Y-75473093D02*
X67668332Y-75006426D01*
X67668332Y-75139760D02*
X67701666Y-75073093D01*
X67701666Y-75073093D02*
X67734999Y-75039760D01*
X67734999Y-75039760D02*
X67801666Y-75006426D01*
X67801666Y-75006426D02*
X67868332Y-75006426D01*
X137412593Y-68748999D02*
X138112593Y-68515666D01*
X138112593Y-68515666D02*
X137412593Y-68282332D01*
X138112593Y-67748999D02*
X137412593Y-67748999D01*
X138079260Y-67748999D02*
X138112593Y-67815666D01*
X138112593Y-67815666D02*
X138112593Y-67948999D01*
X138112593Y-67948999D02*
X138079260Y-68015666D01*
X138079260Y-68015666D02*
X138045926Y-68048999D01*
X138045926Y-68048999D02*
X137979260Y-68082332D01*
X137979260Y-68082332D02*
X137779260Y-68082332D01*
X137779260Y-68082332D02*
X137712593Y-68048999D01*
X137712593Y-68048999D02*
X137679260Y-68015666D01*
X137679260Y-68015666D02*
X137645926Y-67948999D01*
X137645926Y-67948999D02*
X137645926Y-67815666D01*
X137645926Y-67815666D02*
X137679260Y-67748999D01*
X57021593Y-37998333D02*
X57588260Y-37998333D01*
X57588260Y-37998333D02*
X57654926Y-37965000D01*
X57654926Y-37965000D02*
X57688260Y-37931666D01*
X57688260Y-37931666D02*
X57721593Y-37865000D01*
X57721593Y-37865000D02*
X57721593Y-37731666D01*
X57721593Y-37731666D02*
X57688260Y-37665000D01*
X57688260Y-37665000D02*
X57654926Y-37631666D01*
X57654926Y-37631666D02*
X57588260Y-37598333D01*
X57588260Y-37598333D02*
X57021593Y-37598333D01*
X57088260Y-37298333D02*
X57054926Y-37265000D01*
X57054926Y-37265000D02*
X57021593Y-37198333D01*
X57021593Y-37198333D02*
X57021593Y-37031667D01*
X57021593Y-37031667D02*
X57054926Y-36965000D01*
X57054926Y-36965000D02*
X57088260Y-36931667D01*
X57088260Y-36931667D02*
X57154926Y-36898333D01*
X57154926Y-36898333D02*
X57221593Y-36898333D01*
X57221593Y-36898333D02*
X57321593Y-36931667D01*
X57321593Y-36931667D02*
X57721593Y-37331667D01*
X57721593Y-37331667D02*
X57721593Y-36898333D01*
X76210333Y-39687593D02*
X75977000Y-39354260D01*
X75810333Y-39687593D02*
X75810333Y-38987593D01*
X75810333Y-38987593D02*
X76077000Y-38987593D01*
X76077000Y-38987593D02*
X76143667Y-39020926D01*
X76143667Y-39020926D02*
X76177000Y-39054260D01*
X76177000Y-39054260D02*
X76210333Y-39120926D01*
X76210333Y-39120926D02*
X76210333Y-39220926D01*
X76210333Y-39220926D02*
X76177000Y-39287593D01*
X76177000Y-39287593D02*
X76143667Y-39320926D01*
X76143667Y-39320926D02*
X76077000Y-39354260D01*
X76077000Y-39354260D02*
X75810333Y-39354260D01*
X76877000Y-39687593D02*
X76477000Y-39687593D01*
X76677000Y-39687593D02*
X76677000Y-38987593D01*
X76677000Y-38987593D02*
X76610333Y-39087593D01*
X76610333Y-39087593D02*
X76543667Y-39154260D01*
X76543667Y-39154260D02*
X76477000Y-39187593D01*
X93863333Y-41592593D02*
X93630000Y-41259260D01*
X93463333Y-41592593D02*
X93463333Y-40892593D01*
X93463333Y-40892593D02*
X93730000Y-40892593D01*
X93730000Y-40892593D02*
X93796667Y-40925926D01*
X93796667Y-40925926D02*
X93830000Y-40959260D01*
X93830000Y-40959260D02*
X93863333Y-41025926D01*
X93863333Y-41025926D02*
X93863333Y-41125926D01*
X93863333Y-41125926D02*
X93830000Y-41192593D01*
X93830000Y-41192593D02*
X93796667Y-41225926D01*
X93796667Y-41225926D02*
X93730000Y-41259260D01*
X93730000Y-41259260D02*
X93463333Y-41259260D01*
X94463333Y-41125926D02*
X94463333Y-41592593D01*
X94296667Y-40859260D02*
X94130000Y-41359260D01*
X94130000Y-41359260D02*
X94563333Y-41359260D01*
X143821999Y-52066926D02*
X143788666Y-52100260D01*
X143788666Y-52100260D02*
X143688666Y-52133593D01*
X143688666Y-52133593D02*
X143621999Y-52133593D01*
X143621999Y-52133593D02*
X143521999Y-52100260D01*
X143521999Y-52100260D02*
X143455333Y-52033593D01*
X143455333Y-52033593D02*
X143421999Y-51966926D01*
X143421999Y-51966926D02*
X143388666Y-51833593D01*
X143388666Y-51833593D02*
X143388666Y-51733593D01*
X143388666Y-51733593D02*
X143421999Y-51600260D01*
X143421999Y-51600260D02*
X143455333Y-51533593D01*
X143455333Y-51533593D02*
X143521999Y-51466926D01*
X143521999Y-51466926D02*
X143621999Y-51433593D01*
X143621999Y-51433593D02*
X143688666Y-51433593D01*
X143688666Y-51433593D02*
X143788666Y-51466926D01*
X143788666Y-51466926D02*
X143821999Y-51500260D01*
X144088666Y-51500260D02*
X144121999Y-51466926D01*
X144121999Y-51466926D02*
X144188666Y-51433593D01*
X144188666Y-51433593D02*
X144355333Y-51433593D01*
X144355333Y-51433593D02*
X144421999Y-51466926D01*
X144421999Y-51466926D02*
X144455333Y-51500260D01*
X144455333Y-51500260D02*
X144488666Y-51566926D01*
X144488666Y-51566926D02*
X144488666Y-51633593D01*
X144488666Y-51633593D02*
X144455333Y-51733593D01*
X144455333Y-51733593D02*
X144055333Y-52133593D01*
X144055333Y-52133593D02*
X144488666Y-52133593D01*
X144922000Y-51433593D02*
X144988666Y-51433593D01*
X144988666Y-51433593D02*
X145055333Y-51466926D01*
X145055333Y-51466926D02*
X145088666Y-51500260D01*
X145088666Y-51500260D02*
X145122000Y-51566926D01*
X145122000Y-51566926D02*
X145155333Y-51700260D01*
X145155333Y-51700260D02*
X145155333Y-51866926D01*
X145155333Y-51866926D02*
X145122000Y-52000260D01*
X145122000Y-52000260D02*
X145088666Y-52066926D01*
X145088666Y-52066926D02*
X145055333Y-52100260D01*
X145055333Y-52100260D02*
X144988666Y-52133593D01*
X144988666Y-52133593D02*
X144922000Y-52133593D01*
X144922000Y-52133593D02*
X144855333Y-52100260D01*
X144855333Y-52100260D02*
X144822000Y-52066926D01*
X144822000Y-52066926D02*
X144788666Y-52000260D01*
X144788666Y-52000260D02*
X144755333Y-51866926D01*
X144755333Y-51866926D02*
X144755333Y-51700260D01*
X144755333Y-51700260D02*
X144788666Y-51566926D01*
X144788666Y-51566926D02*
X144822000Y-51500260D01*
X144822000Y-51500260D02*
X144855333Y-51466926D01*
X144855333Y-51466926D02*
X144922000Y-51433593D01*
X129423333Y-52574926D02*
X129390000Y-52608260D01*
X129390000Y-52608260D02*
X129290000Y-52641593D01*
X129290000Y-52641593D02*
X129223333Y-52641593D01*
X129223333Y-52641593D02*
X129123333Y-52608260D01*
X129123333Y-52608260D02*
X129056667Y-52541593D01*
X129056667Y-52541593D02*
X129023333Y-52474926D01*
X129023333Y-52474926D02*
X128990000Y-52341593D01*
X128990000Y-52341593D02*
X128990000Y-52241593D01*
X128990000Y-52241593D02*
X129023333Y-52108260D01*
X129023333Y-52108260D02*
X129056667Y-52041593D01*
X129056667Y-52041593D02*
X129123333Y-51974926D01*
X129123333Y-51974926D02*
X129223333Y-51941593D01*
X129223333Y-51941593D02*
X129290000Y-51941593D01*
X129290000Y-51941593D02*
X129390000Y-51974926D01*
X129390000Y-51974926D02*
X129423333Y-52008260D01*
X130023333Y-52174926D02*
X130023333Y-52641593D01*
X129856667Y-51908260D02*
X129690000Y-52408260D01*
X129690000Y-52408260D02*
X130123333Y-52408260D01*
X73778333Y-70262593D02*
X73778333Y-69562593D01*
X73778333Y-69562593D02*
X73945000Y-69562593D01*
X73945000Y-69562593D02*
X74045000Y-69595926D01*
X74045000Y-69595926D02*
X74111667Y-69662593D01*
X74111667Y-69662593D02*
X74145000Y-69729260D01*
X74145000Y-69729260D02*
X74178333Y-69862593D01*
X74178333Y-69862593D02*
X74178333Y-69962593D01*
X74178333Y-69962593D02*
X74145000Y-70095926D01*
X74145000Y-70095926D02*
X74111667Y-70162593D01*
X74111667Y-70162593D02*
X74045000Y-70229260D01*
X74045000Y-70229260D02*
X73945000Y-70262593D01*
X73945000Y-70262593D02*
X73778333Y-70262593D01*
X74445000Y-69629260D02*
X74478333Y-69595926D01*
X74478333Y-69595926D02*
X74545000Y-69562593D01*
X74545000Y-69562593D02*
X74711667Y-69562593D01*
X74711667Y-69562593D02*
X74778333Y-69595926D01*
X74778333Y-69595926D02*
X74811667Y-69629260D01*
X74811667Y-69629260D02*
X74845000Y-69695926D01*
X74845000Y-69695926D02*
X74845000Y-69762593D01*
X74845000Y-69762593D02*
X74811667Y-69862593D01*
X74811667Y-69862593D02*
X74411667Y-70262593D01*
X74411667Y-70262593D02*
X74845000Y-70262593D01*
X59573333Y-66102593D02*
X59340000Y-65769260D01*
X59173333Y-66102593D02*
X59173333Y-65402593D01*
X59173333Y-65402593D02*
X59440000Y-65402593D01*
X59440000Y-65402593D02*
X59506667Y-65435926D01*
X59506667Y-65435926D02*
X59540000Y-65469260D01*
X59540000Y-65469260D02*
X59573333Y-65535926D01*
X59573333Y-65535926D02*
X59573333Y-65635926D01*
X59573333Y-65635926D02*
X59540000Y-65702593D01*
X59540000Y-65702593D02*
X59506667Y-65735926D01*
X59506667Y-65735926D02*
X59440000Y-65769260D01*
X59440000Y-65769260D02*
X59173333Y-65769260D01*
X60173333Y-65402593D02*
X60040000Y-65402593D01*
X60040000Y-65402593D02*
X59973333Y-65435926D01*
X59973333Y-65435926D02*
X59940000Y-65469260D01*
X59940000Y-65469260D02*
X59873333Y-65569260D01*
X59873333Y-65569260D02*
X59840000Y-65702593D01*
X59840000Y-65702593D02*
X59840000Y-65969260D01*
X59840000Y-65969260D02*
X59873333Y-66035926D01*
X59873333Y-66035926D02*
X59906667Y-66069260D01*
X59906667Y-66069260D02*
X59973333Y-66102593D01*
X59973333Y-66102593D02*
X60106667Y-66102593D01*
X60106667Y-66102593D02*
X60173333Y-66069260D01*
X60173333Y-66069260D02*
X60206667Y-66035926D01*
X60206667Y-66035926D02*
X60240000Y-65969260D01*
X60240000Y-65969260D02*
X60240000Y-65802593D01*
X60240000Y-65802593D02*
X60206667Y-65735926D01*
X60206667Y-65735926D02*
X60173333Y-65702593D01*
X60173333Y-65702593D02*
X60106667Y-65669260D01*
X60106667Y-65669260D02*
X59973333Y-65669260D01*
X59973333Y-65669260D02*
X59906667Y-65702593D01*
X59906667Y-65702593D02*
X59873333Y-65735926D01*
X59873333Y-65735926D02*
X59840000Y-65802593D01*
X71130333Y-66042593D02*
X70897000Y-65709260D01*
X70730333Y-66042593D02*
X70730333Y-65342593D01*
X70730333Y-65342593D02*
X70997000Y-65342593D01*
X70997000Y-65342593D02*
X71063667Y-65375926D01*
X71063667Y-65375926D02*
X71097000Y-65409260D01*
X71097000Y-65409260D02*
X71130333Y-65475926D01*
X71130333Y-65475926D02*
X71130333Y-65575926D01*
X71130333Y-65575926D02*
X71097000Y-65642593D01*
X71097000Y-65642593D02*
X71063667Y-65675926D01*
X71063667Y-65675926D02*
X70997000Y-65709260D01*
X70997000Y-65709260D02*
X70730333Y-65709260D01*
X71363667Y-65342593D02*
X71797000Y-65342593D01*
X71797000Y-65342593D02*
X71563667Y-65609260D01*
X71563667Y-65609260D02*
X71663667Y-65609260D01*
X71663667Y-65609260D02*
X71730333Y-65642593D01*
X71730333Y-65642593D02*
X71763667Y-65675926D01*
X71763667Y-65675926D02*
X71797000Y-65742593D01*
X71797000Y-65742593D02*
X71797000Y-65909260D01*
X71797000Y-65909260D02*
X71763667Y-65975926D01*
X71763667Y-65975926D02*
X71730333Y-66009260D01*
X71730333Y-66009260D02*
X71663667Y-66042593D01*
X71663667Y-66042593D02*
X71463667Y-66042593D01*
X71463667Y-66042593D02*
X71397000Y-66009260D01*
X71397000Y-66009260D02*
X71363667Y-65975926D01*
X97038333Y-65087593D02*
X96805000Y-64754260D01*
X96638333Y-65087593D02*
X96638333Y-64387593D01*
X96638333Y-64387593D02*
X96905000Y-64387593D01*
X96905000Y-64387593D02*
X96971667Y-64420926D01*
X96971667Y-64420926D02*
X97005000Y-64454260D01*
X97005000Y-64454260D02*
X97038333Y-64520926D01*
X97038333Y-64520926D02*
X97038333Y-64620926D01*
X97038333Y-64620926D02*
X97005000Y-64687593D01*
X97005000Y-64687593D02*
X96971667Y-64720926D01*
X96971667Y-64720926D02*
X96905000Y-64754260D01*
X96905000Y-64754260D02*
X96638333Y-64754260D01*
X97438333Y-64687593D02*
X97371667Y-64654260D01*
X97371667Y-64654260D02*
X97338333Y-64620926D01*
X97338333Y-64620926D02*
X97305000Y-64554260D01*
X97305000Y-64554260D02*
X97305000Y-64520926D01*
X97305000Y-64520926D02*
X97338333Y-64454260D01*
X97338333Y-64454260D02*
X97371667Y-64420926D01*
X97371667Y-64420926D02*
X97438333Y-64387593D01*
X97438333Y-64387593D02*
X97571667Y-64387593D01*
X97571667Y-64387593D02*
X97638333Y-64420926D01*
X97638333Y-64420926D02*
X97671667Y-64454260D01*
X97671667Y-64454260D02*
X97705000Y-64520926D01*
X97705000Y-64520926D02*
X97705000Y-64554260D01*
X97705000Y-64554260D02*
X97671667Y-64620926D01*
X97671667Y-64620926D02*
X97638333Y-64654260D01*
X97638333Y-64654260D02*
X97571667Y-64687593D01*
X97571667Y-64687593D02*
X97438333Y-64687593D01*
X97438333Y-64687593D02*
X97371667Y-64720926D01*
X97371667Y-64720926D02*
X97338333Y-64754260D01*
X97338333Y-64754260D02*
X97305000Y-64820926D01*
X97305000Y-64820926D02*
X97305000Y-64954260D01*
X97305000Y-64954260D02*
X97338333Y-65020926D01*
X97338333Y-65020926D02*
X97371667Y-65054260D01*
X97371667Y-65054260D02*
X97438333Y-65087593D01*
X97438333Y-65087593D02*
X97571667Y-65087593D01*
X97571667Y-65087593D02*
X97638333Y-65054260D01*
X97638333Y-65054260D02*
X97671667Y-65020926D01*
X97671667Y-65020926D02*
X97705000Y-64954260D01*
X97705000Y-64954260D02*
X97705000Y-64820926D01*
X97705000Y-64820926D02*
X97671667Y-64754260D01*
X97671667Y-64754260D02*
X97638333Y-64720926D01*
X97638333Y-64720926D02*
X97571667Y-64687593D01*
X53971926Y-60775000D02*
X54005260Y-60808333D01*
X54005260Y-60808333D02*
X54038593Y-60908333D01*
X54038593Y-60908333D02*
X54038593Y-60975000D01*
X54038593Y-60975000D02*
X54005260Y-61075000D01*
X54005260Y-61075000D02*
X53938593Y-61141667D01*
X53938593Y-61141667D02*
X53871926Y-61175000D01*
X53871926Y-61175000D02*
X53738593Y-61208333D01*
X53738593Y-61208333D02*
X53638593Y-61208333D01*
X53638593Y-61208333D02*
X53505260Y-61175000D01*
X53505260Y-61175000D02*
X53438593Y-61141667D01*
X53438593Y-61141667D02*
X53371926Y-61075000D01*
X53371926Y-61075000D02*
X53338593Y-60975000D01*
X53338593Y-60975000D02*
X53338593Y-60908333D01*
X53338593Y-60908333D02*
X53371926Y-60808333D01*
X53371926Y-60808333D02*
X53405260Y-60775000D01*
X54038593Y-60108333D02*
X54038593Y-60508333D01*
X54038593Y-60308333D02*
X53338593Y-60308333D01*
X53338593Y-60308333D02*
X53438593Y-60375000D01*
X53438593Y-60375000D02*
X53505260Y-60441667D01*
X53505260Y-60441667D02*
X53538593Y-60508333D01*
X54038593Y-59441666D02*
X54038593Y-59841666D01*
X54038593Y-59641666D02*
X53338593Y-59641666D01*
X53338593Y-59641666D02*
X53438593Y-59708333D01*
X53438593Y-59708333D02*
X53505260Y-59775000D01*
X53505260Y-59775000D02*
X53538593Y-59841666D01*
X96704999Y-67560926D02*
X96671666Y-67594260D01*
X96671666Y-67594260D02*
X96571666Y-67627593D01*
X96571666Y-67627593D02*
X96504999Y-67627593D01*
X96504999Y-67627593D02*
X96404999Y-67594260D01*
X96404999Y-67594260D02*
X96338333Y-67527593D01*
X96338333Y-67527593D02*
X96304999Y-67460926D01*
X96304999Y-67460926D02*
X96271666Y-67327593D01*
X96271666Y-67327593D02*
X96271666Y-67227593D01*
X96271666Y-67227593D02*
X96304999Y-67094260D01*
X96304999Y-67094260D02*
X96338333Y-67027593D01*
X96338333Y-67027593D02*
X96404999Y-66960926D01*
X96404999Y-66960926D02*
X96504999Y-66927593D01*
X96504999Y-66927593D02*
X96571666Y-66927593D01*
X96571666Y-66927593D02*
X96671666Y-66960926D01*
X96671666Y-66960926D02*
X96704999Y-66994260D01*
X97371666Y-67627593D02*
X96971666Y-67627593D01*
X97171666Y-67627593D02*
X97171666Y-66927593D01*
X97171666Y-66927593D02*
X97104999Y-67027593D01*
X97104999Y-67027593D02*
X97038333Y-67094260D01*
X97038333Y-67094260D02*
X96971666Y-67127593D01*
X97705000Y-67627593D02*
X97838333Y-67627593D01*
X97838333Y-67627593D02*
X97905000Y-67594260D01*
X97905000Y-67594260D02*
X97938333Y-67560926D01*
X97938333Y-67560926D02*
X98005000Y-67460926D01*
X98005000Y-67460926D02*
X98038333Y-67327593D01*
X98038333Y-67327593D02*
X98038333Y-67060926D01*
X98038333Y-67060926D02*
X98005000Y-66994260D01*
X98005000Y-66994260D02*
X97971666Y-66960926D01*
X97971666Y-66960926D02*
X97905000Y-66927593D01*
X97905000Y-66927593D02*
X97771666Y-66927593D01*
X97771666Y-66927593D02*
X97705000Y-66960926D01*
X97705000Y-66960926D02*
X97671666Y-66994260D01*
X97671666Y-66994260D02*
X97638333Y-67060926D01*
X97638333Y-67060926D02*
X97638333Y-67227593D01*
X97638333Y-67227593D02*
X97671666Y-67294260D01*
X97671666Y-67294260D02*
X97705000Y-67327593D01*
X97705000Y-67327593D02*
X97771666Y-67360926D01*
X97771666Y-67360926D02*
X97905000Y-67360926D01*
X97905000Y-67360926D02*
X97971666Y-67327593D01*
X97971666Y-67327593D02*
X98005000Y-67294260D01*
X98005000Y-67294260D02*
X98038333Y-67227593D01*
X75495999Y-44767593D02*
X75262666Y-44434260D01*
X75095999Y-44767593D02*
X75095999Y-44067593D01*
X75095999Y-44067593D02*
X75362666Y-44067593D01*
X75362666Y-44067593D02*
X75429333Y-44100926D01*
X75429333Y-44100926D02*
X75462666Y-44134260D01*
X75462666Y-44134260D02*
X75495999Y-44200926D01*
X75495999Y-44200926D02*
X75495999Y-44300926D01*
X75495999Y-44300926D02*
X75462666Y-44367593D01*
X75462666Y-44367593D02*
X75429333Y-44400926D01*
X75429333Y-44400926D02*
X75362666Y-44434260D01*
X75362666Y-44434260D02*
X75095999Y-44434260D01*
X76162666Y-44767593D02*
X75762666Y-44767593D01*
X75962666Y-44767593D02*
X75962666Y-44067593D01*
X75962666Y-44067593D02*
X75895999Y-44167593D01*
X75895999Y-44167593D02*
X75829333Y-44234260D01*
X75829333Y-44234260D02*
X75762666Y-44267593D01*
X76396000Y-44067593D02*
X76862666Y-44067593D01*
X76862666Y-44067593D02*
X76562666Y-44767593D01*
X89653333Y-59372593D02*
X89653333Y-58672593D01*
X89653333Y-58672593D02*
X89820000Y-58672593D01*
X89820000Y-58672593D02*
X89920000Y-58705926D01*
X89920000Y-58705926D02*
X89986667Y-58772593D01*
X89986667Y-58772593D02*
X90020000Y-58839260D01*
X90020000Y-58839260D02*
X90053333Y-58972593D01*
X90053333Y-58972593D02*
X90053333Y-59072593D01*
X90053333Y-59072593D02*
X90020000Y-59205926D01*
X90020000Y-59205926D02*
X89986667Y-59272593D01*
X89986667Y-59272593D02*
X89920000Y-59339260D01*
X89920000Y-59339260D02*
X89820000Y-59372593D01*
X89820000Y-59372593D02*
X89653333Y-59372593D01*
X90653333Y-58672593D02*
X90520000Y-58672593D01*
X90520000Y-58672593D02*
X90453333Y-58705926D01*
X90453333Y-58705926D02*
X90420000Y-58739260D01*
X90420000Y-58739260D02*
X90353333Y-58839260D01*
X90353333Y-58839260D02*
X90320000Y-58972593D01*
X90320000Y-58972593D02*
X90320000Y-59239260D01*
X90320000Y-59239260D02*
X90353333Y-59305926D01*
X90353333Y-59305926D02*
X90386667Y-59339260D01*
X90386667Y-59339260D02*
X90453333Y-59372593D01*
X90453333Y-59372593D02*
X90586667Y-59372593D01*
X90586667Y-59372593D02*
X90653333Y-59339260D01*
X90653333Y-59339260D02*
X90686667Y-59305926D01*
X90686667Y-59305926D02*
X90720000Y-59239260D01*
X90720000Y-59239260D02*
X90720000Y-59072593D01*
X90720000Y-59072593D02*
X90686667Y-59005926D01*
X90686667Y-59005926D02*
X90653333Y-58972593D01*
X90653333Y-58972593D02*
X90586667Y-58939260D01*
X90586667Y-58939260D02*
X90453333Y-58939260D01*
X90453333Y-58939260D02*
X90386667Y-58972593D01*
X90386667Y-58972593D02*
X90353333Y-59005926D01*
X90353333Y-59005926D02*
X90320000Y-59072593D01*
X77988333Y-35937926D02*
X77955000Y-35971260D01*
X77955000Y-35971260D02*
X77855000Y-36004593D01*
X77855000Y-36004593D02*
X77788333Y-36004593D01*
X77788333Y-36004593D02*
X77688333Y-35971260D01*
X77688333Y-35971260D02*
X77621667Y-35904593D01*
X77621667Y-35904593D02*
X77588333Y-35837926D01*
X77588333Y-35837926D02*
X77555000Y-35704593D01*
X77555000Y-35704593D02*
X77555000Y-35604593D01*
X77555000Y-35604593D02*
X77588333Y-35471260D01*
X77588333Y-35471260D02*
X77621667Y-35404593D01*
X77621667Y-35404593D02*
X77688333Y-35337926D01*
X77688333Y-35337926D02*
X77788333Y-35304593D01*
X77788333Y-35304593D02*
X77855000Y-35304593D01*
X77855000Y-35304593D02*
X77955000Y-35337926D01*
X77955000Y-35337926D02*
X77988333Y-35371260D01*
X78621667Y-35304593D02*
X78288333Y-35304593D01*
X78288333Y-35304593D02*
X78255000Y-35637926D01*
X78255000Y-35637926D02*
X78288333Y-35604593D01*
X78288333Y-35604593D02*
X78355000Y-35571260D01*
X78355000Y-35571260D02*
X78521667Y-35571260D01*
X78521667Y-35571260D02*
X78588333Y-35604593D01*
X78588333Y-35604593D02*
X78621667Y-35637926D01*
X78621667Y-35637926D02*
X78655000Y-35704593D01*
X78655000Y-35704593D02*
X78655000Y-35871260D01*
X78655000Y-35871260D02*
X78621667Y-35937926D01*
X78621667Y-35937926D02*
X78588333Y-35971260D01*
X78588333Y-35971260D02*
X78521667Y-36004593D01*
X78521667Y-36004593D02*
X78355000Y-36004593D01*
X78355000Y-36004593D02*
X78288333Y-35971260D01*
X78288333Y-35971260D02*
X78255000Y-35937926D01*
X96069999Y-44065926D02*
X96036666Y-44099260D01*
X96036666Y-44099260D02*
X95936666Y-44132593D01*
X95936666Y-44132593D02*
X95869999Y-44132593D01*
X95869999Y-44132593D02*
X95769999Y-44099260D01*
X95769999Y-44099260D02*
X95703333Y-44032593D01*
X95703333Y-44032593D02*
X95669999Y-43965926D01*
X95669999Y-43965926D02*
X95636666Y-43832593D01*
X95636666Y-43832593D02*
X95636666Y-43732593D01*
X95636666Y-43732593D02*
X95669999Y-43599260D01*
X95669999Y-43599260D02*
X95703333Y-43532593D01*
X95703333Y-43532593D02*
X95769999Y-43465926D01*
X95769999Y-43465926D02*
X95869999Y-43432593D01*
X95869999Y-43432593D02*
X95936666Y-43432593D01*
X95936666Y-43432593D02*
X96036666Y-43465926D01*
X96036666Y-43465926D02*
X96069999Y-43499260D01*
X96336666Y-43499260D02*
X96369999Y-43465926D01*
X96369999Y-43465926D02*
X96436666Y-43432593D01*
X96436666Y-43432593D02*
X96603333Y-43432593D01*
X96603333Y-43432593D02*
X96669999Y-43465926D01*
X96669999Y-43465926D02*
X96703333Y-43499260D01*
X96703333Y-43499260D02*
X96736666Y-43565926D01*
X96736666Y-43565926D02*
X96736666Y-43632593D01*
X96736666Y-43632593D02*
X96703333Y-43732593D01*
X96703333Y-43732593D02*
X96303333Y-44132593D01*
X96303333Y-44132593D02*
X96736666Y-44132593D01*
X96970000Y-43432593D02*
X97403333Y-43432593D01*
X97403333Y-43432593D02*
X97170000Y-43699260D01*
X97170000Y-43699260D02*
X97270000Y-43699260D01*
X97270000Y-43699260D02*
X97336666Y-43732593D01*
X97336666Y-43732593D02*
X97370000Y-43765926D01*
X97370000Y-43765926D02*
X97403333Y-43832593D01*
X97403333Y-43832593D02*
X97403333Y-43999260D01*
X97403333Y-43999260D02*
X97370000Y-44065926D01*
X97370000Y-44065926D02*
X97336666Y-44099260D01*
X97336666Y-44099260D02*
X97270000Y-44132593D01*
X97270000Y-44132593D02*
X97070000Y-44132593D01*
X97070000Y-44132593D02*
X97003333Y-44099260D01*
X97003333Y-44099260D02*
X96970000Y-44065926D01*
X93863333Y-38985926D02*
X93830000Y-39019260D01*
X93830000Y-39019260D02*
X93730000Y-39052593D01*
X93730000Y-39052593D02*
X93663333Y-39052593D01*
X93663333Y-39052593D02*
X93563333Y-39019260D01*
X93563333Y-39019260D02*
X93496667Y-38952593D01*
X93496667Y-38952593D02*
X93463333Y-38885926D01*
X93463333Y-38885926D02*
X93430000Y-38752593D01*
X93430000Y-38752593D02*
X93430000Y-38652593D01*
X93430000Y-38652593D02*
X93463333Y-38519260D01*
X93463333Y-38519260D02*
X93496667Y-38452593D01*
X93496667Y-38452593D02*
X93563333Y-38385926D01*
X93563333Y-38385926D02*
X93663333Y-38352593D01*
X93663333Y-38352593D02*
X93730000Y-38352593D01*
X93730000Y-38352593D02*
X93830000Y-38385926D01*
X93830000Y-38385926D02*
X93863333Y-38419260D01*
X94263333Y-38652593D02*
X94196667Y-38619260D01*
X94196667Y-38619260D02*
X94163333Y-38585926D01*
X94163333Y-38585926D02*
X94130000Y-38519260D01*
X94130000Y-38519260D02*
X94130000Y-38485926D01*
X94130000Y-38485926D02*
X94163333Y-38419260D01*
X94163333Y-38419260D02*
X94196667Y-38385926D01*
X94196667Y-38385926D02*
X94263333Y-38352593D01*
X94263333Y-38352593D02*
X94396667Y-38352593D01*
X94396667Y-38352593D02*
X94463333Y-38385926D01*
X94463333Y-38385926D02*
X94496667Y-38419260D01*
X94496667Y-38419260D02*
X94530000Y-38485926D01*
X94530000Y-38485926D02*
X94530000Y-38519260D01*
X94530000Y-38519260D02*
X94496667Y-38585926D01*
X94496667Y-38585926D02*
X94463333Y-38619260D01*
X94463333Y-38619260D02*
X94396667Y-38652593D01*
X94396667Y-38652593D02*
X94263333Y-38652593D01*
X94263333Y-38652593D02*
X94196667Y-38685926D01*
X94196667Y-38685926D02*
X94163333Y-38719260D01*
X94163333Y-38719260D02*
X94130000Y-38785926D01*
X94130000Y-38785926D02*
X94130000Y-38919260D01*
X94130000Y-38919260D02*
X94163333Y-38985926D01*
X94163333Y-38985926D02*
X94196667Y-39019260D01*
X94196667Y-39019260D02*
X94263333Y-39052593D01*
X94263333Y-39052593D02*
X94396667Y-39052593D01*
X94396667Y-39052593D02*
X94463333Y-39019260D01*
X94463333Y-39019260D02*
X94496667Y-38985926D01*
X94496667Y-38985926D02*
X94530000Y-38919260D01*
X94530000Y-38919260D02*
X94530000Y-38785926D01*
X94530000Y-38785926D02*
X94496667Y-38719260D01*
X94496667Y-38719260D02*
X94463333Y-38685926D01*
X94463333Y-38685926D02*
X94396667Y-38652593D01*
X63383333Y-66036926D02*
X63350000Y-66070260D01*
X63350000Y-66070260D02*
X63250000Y-66103593D01*
X63250000Y-66103593D02*
X63183333Y-66103593D01*
X63183333Y-66103593D02*
X63083333Y-66070260D01*
X63083333Y-66070260D02*
X63016667Y-66003593D01*
X63016667Y-66003593D02*
X62983333Y-65936926D01*
X62983333Y-65936926D02*
X62950000Y-65803593D01*
X62950000Y-65803593D02*
X62950000Y-65703593D01*
X62950000Y-65703593D02*
X62983333Y-65570260D01*
X62983333Y-65570260D02*
X63016667Y-65503593D01*
X63016667Y-65503593D02*
X63083333Y-65436926D01*
X63083333Y-65436926D02*
X63183333Y-65403593D01*
X63183333Y-65403593D02*
X63250000Y-65403593D01*
X63250000Y-65403593D02*
X63350000Y-65436926D01*
X63350000Y-65436926D02*
X63383333Y-65470260D01*
X63716667Y-66103593D02*
X63850000Y-66103593D01*
X63850000Y-66103593D02*
X63916667Y-66070260D01*
X63916667Y-66070260D02*
X63950000Y-66036926D01*
X63950000Y-66036926D02*
X64016667Y-65936926D01*
X64016667Y-65936926D02*
X64050000Y-65803593D01*
X64050000Y-65803593D02*
X64050000Y-65536926D01*
X64050000Y-65536926D02*
X64016667Y-65470260D01*
X64016667Y-65470260D02*
X63983333Y-65436926D01*
X63983333Y-65436926D02*
X63916667Y-65403593D01*
X63916667Y-65403593D02*
X63783333Y-65403593D01*
X63783333Y-65403593D02*
X63716667Y-65436926D01*
X63716667Y-65436926D02*
X63683333Y-65470260D01*
X63683333Y-65470260D02*
X63650000Y-65536926D01*
X63650000Y-65536926D02*
X63650000Y-65703593D01*
X63650000Y-65703593D02*
X63683333Y-65770260D01*
X63683333Y-65770260D02*
X63716667Y-65803593D01*
X63716667Y-65803593D02*
X63783333Y-65836926D01*
X63783333Y-65836926D02*
X63916667Y-65836926D01*
X63916667Y-65836926D02*
X63983333Y-65803593D01*
X63983333Y-65803593D02*
X64016667Y-65770260D01*
X64016667Y-65770260D02*
X64050000Y-65703593D01*
X82971593Y-58301666D02*
X82271593Y-58301666D01*
X82271593Y-58301666D02*
X82271593Y-58134999D01*
X82271593Y-58134999D02*
X82304926Y-58034999D01*
X82304926Y-58034999D02*
X82371593Y-57968333D01*
X82371593Y-57968333D02*
X82438260Y-57934999D01*
X82438260Y-57934999D02*
X82571593Y-57901666D01*
X82571593Y-57901666D02*
X82671593Y-57901666D01*
X82671593Y-57901666D02*
X82804926Y-57934999D01*
X82804926Y-57934999D02*
X82871593Y-57968333D01*
X82871593Y-57968333D02*
X82938260Y-58034999D01*
X82938260Y-58034999D02*
X82971593Y-58134999D01*
X82971593Y-58134999D02*
X82971593Y-58301666D01*
X82971593Y-57234999D02*
X82971593Y-57634999D01*
X82971593Y-57434999D02*
X82271593Y-57434999D01*
X82271593Y-57434999D02*
X82371593Y-57501666D01*
X82371593Y-57501666D02*
X82438260Y-57568333D01*
X82438260Y-57568333D02*
X82471593Y-57634999D01*
X115754999Y-70167593D02*
X115521666Y-69834260D01*
X115354999Y-70167593D02*
X115354999Y-69467593D01*
X115354999Y-69467593D02*
X115621666Y-69467593D01*
X115621666Y-69467593D02*
X115688333Y-69500926D01*
X115688333Y-69500926D02*
X115721666Y-69534260D01*
X115721666Y-69534260D02*
X115754999Y-69600926D01*
X115754999Y-69600926D02*
X115754999Y-69700926D01*
X115754999Y-69700926D02*
X115721666Y-69767593D01*
X115721666Y-69767593D02*
X115688333Y-69800926D01*
X115688333Y-69800926D02*
X115621666Y-69834260D01*
X115621666Y-69834260D02*
X115354999Y-69834260D01*
X116421666Y-70167593D02*
X116021666Y-70167593D01*
X116221666Y-70167593D02*
X116221666Y-69467593D01*
X116221666Y-69467593D02*
X116154999Y-69567593D01*
X116154999Y-69567593D02*
X116088333Y-69634260D01*
X116088333Y-69634260D02*
X116021666Y-69667593D01*
X117055000Y-69467593D02*
X116721666Y-69467593D01*
X116721666Y-69467593D02*
X116688333Y-69800926D01*
X116688333Y-69800926D02*
X116721666Y-69767593D01*
X116721666Y-69767593D02*
X116788333Y-69734260D01*
X116788333Y-69734260D02*
X116955000Y-69734260D01*
X116955000Y-69734260D02*
X117021666Y-69767593D01*
X117021666Y-69767593D02*
X117055000Y-69800926D01*
X117055000Y-69800926D02*
X117088333Y-69867593D01*
X117088333Y-69867593D02*
X117088333Y-70034260D01*
X117088333Y-70034260D02*
X117055000Y-70100926D01*
X117055000Y-70100926D02*
X117021666Y-70134260D01*
X117021666Y-70134260D02*
X116955000Y-70167593D01*
X116955000Y-70167593D02*
X116788333Y-70167593D01*
X116788333Y-70167593D02*
X116721666Y-70134260D01*
X116721666Y-70134260D02*
X116688333Y-70100926D01*
X115119999Y-46605926D02*
X115086666Y-46639260D01*
X115086666Y-46639260D02*
X114986666Y-46672593D01*
X114986666Y-46672593D02*
X114919999Y-46672593D01*
X114919999Y-46672593D02*
X114819999Y-46639260D01*
X114819999Y-46639260D02*
X114753333Y-46572593D01*
X114753333Y-46572593D02*
X114719999Y-46505926D01*
X114719999Y-46505926D02*
X114686666Y-46372593D01*
X114686666Y-46372593D02*
X114686666Y-46272593D01*
X114686666Y-46272593D02*
X114719999Y-46139260D01*
X114719999Y-46139260D02*
X114753333Y-46072593D01*
X114753333Y-46072593D02*
X114819999Y-46005926D01*
X114819999Y-46005926D02*
X114919999Y-45972593D01*
X114919999Y-45972593D02*
X114986666Y-45972593D01*
X114986666Y-45972593D02*
X115086666Y-46005926D01*
X115086666Y-46005926D02*
X115119999Y-46039260D01*
X115786666Y-46672593D02*
X115386666Y-46672593D01*
X115586666Y-46672593D02*
X115586666Y-45972593D01*
X115586666Y-45972593D02*
X115519999Y-46072593D01*
X115519999Y-46072593D02*
X115453333Y-46139260D01*
X115453333Y-46139260D02*
X115386666Y-46172593D01*
X116386666Y-46205926D02*
X116386666Y-46672593D01*
X116220000Y-45939260D02*
X116053333Y-46439260D01*
X116053333Y-46439260D02*
X116486666Y-46439260D01*
X142641666Y-72007593D02*
X142641666Y-72507593D01*
X142641666Y-72507593D02*
X142608333Y-72607593D01*
X142608333Y-72607593D02*
X142541666Y-72674260D01*
X142541666Y-72674260D02*
X142441666Y-72707593D01*
X142441666Y-72707593D02*
X142375000Y-72707593D01*
X142941666Y-72074260D02*
X142974999Y-72040926D01*
X142974999Y-72040926D02*
X143041666Y-72007593D01*
X143041666Y-72007593D02*
X143208333Y-72007593D01*
X143208333Y-72007593D02*
X143274999Y-72040926D01*
X143274999Y-72040926D02*
X143308333Y-72074260D01*
X143308333Y-72074260D02*
X143341666Y-72140926D01*
X143341666Y-72140926D02*
X143341666Y-72207593D01*
X143341666Y-72207593D02*
X143308333Y-72307593D01*
X143308333Y-72307593D02*
X142908333Y-72707593D01*
X142908333Y-72707593D02*
X143341666Y-72707593D01*
X66357593Y-61476666D02*
X65657593Y-61476666D01*
X65657593Y-61476666D02*
X65657593Y-61309999D01*
X65657593Y-61309999D02*
X65690926Y-61209999D01*
X65690926Y-61209999D02*
X65757593Y-61143333D01*
X65757593Y-61143333D02*
X65824260Y-61109999D01*
X65824260Y-61109999D02*
X65957593Y-61076666D01*
X65957593Y-61076666D02*
X66057593Y-61076666D01*
X66057593Y-61076666D02*
X66190926Y-61109999D01*
X66190926Y-61109999D02*
X66257593Y-61143333D01*
X66257593Y-61143333D02*
X66324260Y-61209999D01*
X66324260Y-61209999D02*
X66357593Y-61309999D01*
X66357593Y-61309999D02*
X66357593Y-61476666D01*
X65890926Y-60476666D02*
X66357593Y-60476666D01*
X65624260Y-60643333D02*
X66124260Y-60809999D01*
X66124260Y-60809999D02*
X66124260Y-60376666D01*
X59791666Y-52322593D02*
X59791666Y-52889260D01*
X59791666Y-52889260D02*
X59825000Y-52955926D01*
X59825000Y-52955926D02*
X59858333Y-52989260D01*
X59858333Y-52989260D02*
X59925000Y-53022593D01*
X59925000Y-53022593D02*
X60058333Y-53022593D01*
X60058333Y-53022593D02*
X60125000Y-52989260D01*
X60125000Y-52989260D02*
X60158333Y-52955926D01*
X60158333Y-52955926D02*
X60191666Y-52889260D01*
X60191666Y-52889260D02*
X60191666Y-52322593D01*
X60824999Y-52555926D02*
X60824999Y-53022593D01*
X60658333Y-52289260D02*
X60491666Y-52789260D01*
X60491666Y-52789260D02*
X60924999Y-52789260D01*
X74813333Y-66102593D02*
X74580000Y-65769260D01*
X74413333Y-66102593D02*
X74413333Y-65402593D01*
X74413333Y-65402593D02*
X74680000Y-65402593D01*
X74680000Y-65402593D02*
X74746667Y-65435926D01*
X74746667Y-65435926D02*
X74780000Y-65469260D01*
X74780000Y-65469260D02*
X74813333Y-65535926D01*
X74813333Y-65535926D02*
X74813333Y-65635926D01*
X74813333Y-65635926D02*
X74780000Y-65702593D01*
X74780000Y-65702593D02*
X74746667Y-65735926D01*
X74746667Y-65735926D02*
X74680000Y-65769260D01*
X74680000Y-65769260D02*
X74413333Y-65769260D01*
X75080000Y-65469260D02*
X75113333Y-65435926D01*
X75113333Y-65435926D02*
X75180000Y-65402593D01*
X75180000Y-65402593D02*
X75346667Y-65402593D01*
X75346667Y-65402593D02*
X75413333Y-65435926D01*
X75413333Y-65435926D02*
X75446667Y-65469260D01*
X75446667Y-65469260D02*
X75480000Y-65535926D01*
X75480000Y-65535926D02*
X75480000Y-65602593D01*
X75480000Y-65602593D02*
X75446667Y-65702593D01*
X75446667Y-65702593D02*
X75046667Y-66102593D01*
X75046667Y-66102593D02*
X75480000Y-66102593D01*
X129089999Y-38761142D02*
X129056666Y-38794476D01*
X129056666Y-38794476D02*
X128956666Y-38827809D01*
X128956666Y-38827809D02*
X128889999Y-38827809D01*
X128889999Y-38827809D02*
X128789999Y-38794476D01*
X128789999Y-38794476D02*
X128723333Y-38727809D01*
X128723333Y-38727809D02*
X128689999Y-38661142D01*
X128689999Y-38661142D02*
X128656666Y-38527809D01*
X128656666Y-38527809D02*
X128656666Y-38427809D01*
X128656666Y-38427809D02*
X128689999Y-38294476D01*
X128689999Y-38294476D02*
X128723333Y-38227809D01*
X128723333Y-38227809D02*
X128789999Y-38161142D01*
X128789999Y-38161142D02*
X128889999Y-38127809D01*
X128889999Y-38127809D02*
X128956666Y-38127809D01*
X128956666Y-38127809D02*
X129056666Y-38161142D01*
X129056666Y-38161142D02*
X129089999Y-38194476D01*
X129356666Y-38194476D02*
X129389999Y-38161142D01*
X129389999Y-38161142D02*
X129456666Y-38127809D01*
X129456666Y-38127809D02*
X129623333Y-38127809D01*
X129623333Y-38127809D02*
X129689999Y-38161142D01*
X129689999Y-38161142D02*
X129723333Y-38194476D01*
X129723333Y-38194476D02*
X129756666Y-38261142D01*
X129756666Y-38261142D02*
X129756666Y-38327809D01*
X129756666Y-38327809D02*
X129723333Y-38427809D01*
X129723333Y-38427809D02*
X129323333Y-38827809D01*
X129323333Y-38827809D02*
X129756666Y-38827809D01*
X130423333Y-38827809D02*
X130023333Y-38827809D01*
X130223333Y-38827809D02*
X130223333Y-38127809D01*
X130223333Y-38127809D02*
X130156666Y-38227809D01*
X130156666Y-38227809D02*
X130090000Y-38294476D01*
X130090000Y-38294476D02*
X130023333Y-38327809D01*
X104959999Y-70100926D02*
X104926666Y-70134260D01*
X104926666Y-70134260D02*
X104826666Y-70167593D01*
X104826666Y-70167593D02*
X104759999Y-70167593D01*
X104759999Y-70167593D02*
X104659999Y-70134260D01*
X104659999Y-70134260D02*
X104593333Y-70067593D01*
X104593333Y-70067593D02*
X104559999Y-70000926D01*
X104559999Y-70000926D02*
X104526666Y-69867593D01*
X104526666Y-69867593D02*
X104526666Y-69767593D01*
X104526666Y-69767593D02*
X104559999Y-69634260D01*
X104559999Y-69634260D02*
X104593333Y-69567593D01*
X104593333Y-69567593D02*
X104659999Y-69500926D01*
X104659999Y-69500926D02*
X104759999Y-69467593D01*
X104759999Y-69467593D02*
X104826666Y-69467593D01*
X104826666Y-69467593D02*
X104926666Y-69500926D01*
X104926666Y-69500926D02*
X104959999Y-69534260D01*
X105626666Y-70167593D02*
X105226666Y-70167593D01*
X105426666Y-70167593D02*
X105426666Y-69467593D01*
X105426666Y-69467593D02*
X105359999Y-69567593D01*
X105359999Y-69567593D02*
X105293333Y-69634260D01*
X105293333Y-69634260D02*
X105226666Y-69667593D01*
X106226666Y-69467593D02*
X106093333Y-69467593D01*
X106093333Y-69467593D02*
X106026666Y-69500926D01*
X106026666Y-69500926D02*
X105993333Y-69534260D01*
X105993333Y-69534260D02*
X105926666Y-69634260D01*
X105926666Y-69634260D02*
X105893333Y-69767593D01*
X105893333Y-69767593D02*
X105893333Y-70034260D01*
X105893333Y-70034260D02*
X105926666Y-70100926D01*
X105926666Y-70100926D02*
X105960000Y-70134260D01*
X105960000Y-70134260D02*
X106026666Y-70167593D01*
X106026666Y-70167593D02*
X106160000Y-70167593D01*
X106160000Y-70167593D02*
X106226666Y-70134260D01*
X106226666Y-70134260D02*
X106260000Y-70100926D01*
X106260000Y-70100926D02*
X106293333Y-70034260D01*
X106293333Y-70034260D02*
X106293333Y-69867593D01*
X106293333Y-69867593D02*
X106260000Y-69800926D01*
X106260000Y-69800926D02*
X106226666Y-69767593D01*
X106226666Y-69767593D02*
X106160000Y-69734260D01*
X106160000Y-69734260D02*
X106026666Y-69734260D01*
X106026666Y-69734260D02*
X105960000Y-69767593D01*
X105960000Y-69767593D02*
X105926666Y-69800926D01*
X105926666Y-69800926D02*
X105893333Y-69867593D01*
X115754999Y-62480926D02*
X115721666Y-62514260D01*
X115721666Y-62514260D02*
X115621666Y-62547593D01*
X115621666Y-62547593D02*
X115554999Y-62547593D01*
X115554999Y-62547593D02*
X115454999Y-62514260D01*
X115454999Y-62514260D02*
X115388333Y-62447593D01*
X115388333Y-62447593D02*
X115354999Y-62380926D01*
X115354999Y-62380926D02*
X115321666Y-62247593D01*
X115321666Y-62247593D02*
X115321666Y-62147593D01*
X115321666Y-62147593D02*
X115354999Y-62014260D01*
X115354999Y-62014260D02*
X115388333Y-61947593D01*
X115388333Y-61947593D02*
X115454999Y-61880926D01*
X115454999Y-61880926D02*
X115554999Y-61847593D01*
X115554999Y-61847593D02*
X115621666Y-61847593D01*
X115621666Y-61847593D02*
X115721666Y-61880926D01*
X115721666Y-61880926D02*
X115754999Y-61914260D01*
X116421666Y-62547593D02*
X116021666Y-62547593D01*
X116221666Y-62547593D02*
X116221666Y-61847593D01*
X116221666Y-61847593D02*
X116154999Y-61947593D01*
X116154999Y-61947593D02*
X116088333Y-62014260D01*
X116088333Y-62014260D02*
X116021666Y-62047593D01*
X116821666Y-62147593D02*
X116755000Y-62114260D01*
X116755000Y-62114260D02*
X116721666Y-62080926D01*
X116721666Y-62080926D02*
X116688333Y-62014260D01*
X116688333Y-62014260D02*
X116688333Y-61980926D01*
X116688333Y-61980926D02*
X116721666Y-61914260D01*
X116721666Y-61914260D02*
X116755000Y-61880926D01*
X116755000Y-61880926D02*
X116821666Y-61847593D01*
X116821666Y-61847593D02*
X116955000Y-61847593D01*
X116955000Y-61847593D02*
X117021666Y-61880926D01*
X117021666Y-61880926D02*
X117055000Y-61914260D01*
X117055000Y-61914260D02*
X117088333Y-61980926D01*
X117088333Y-61980926D02*
X117088333Y-62014260D01*
X117088333Y-62014260D02*
X117055000Y-62080926D01*
X117055000Y-62080926D02*
X117021666Y-62114260D01*
X117021666Y-62114260D02*
X116955000Y-62147593D01*
X116955000Y-62147593D02*
X116821666Y-62147593D01*
X116821666Y-62147593D02*
X116755000Y-62180926D01*
X116755000Y-62180926D02*
X116721666Y-62214260D01*
X116721666Y-62214260D02*
X116688333Y-62280926D01*
X116688333Y-62280926D02*
X116688333Y-62414260D01*
X116688333Y-62414260D02*
X116721666Y-62480926D01*
X116721666Y-62480926D02*
X116755000Y-62514260D01*
X116755000Y-62514260D02*
X116821666Y-62547593D01*
X116821666Y-62547593D02*
X116955000Y-62547593D01*
X116955000Y-62547593D02*
X117021666Y-62514260D01*
X117021666Y-62514260D02*
X117055000Y-62480926D01*
X117055000Y-62480926D02*
X117088333Y-62414260D01*
X117088333Y-62414260D02*
X117088333Y-62280926D01*
X117088333Y-62280926D02*
X117055000Y-62214260D01*
X117055000Y-62214260D02*
X117021666Y-62180926D01*
X117021666Y-62180926D02*
X116955000Y-62147593D01*
X105811666Y-28700593D02*
X105811666Y-29200593D01*
X105811666Y-29200593D02*
X105778333Y-29300593D01*
X105778333Y-29300593D02*
X105711666Y-29367260D01*
X105711666Y-29367260D02*
X105611666Y-29400593D01*
X105611666Y-29400593D02*
X105545000Y-29400593D01*
X106444999Y-28933926D02*
X106444999Y-29400593D01*
X106278333Y-28667260D02*
X106111666Y-29167260D01*
X106111666Y-29167260D02*
X106544999Y-29167260D01*
X114818333Y-44132593D02*
X114585000Y-43799260D01*
X114418333Y-44132593D02*
X114418333Y-43432593D01*
X114418333Y-43432593D02*
X114685000Y-43432593D01*
X114685000Y-43432593D02*
X114751667Y-43465926D01*
X114751667Y-43465926D02*
X114785000Y-43499260D01*
X114785000Y-43499260D02*
X114818333Y-43565926D01*
X114818333Y-43565926D02*
X114818333Y-43665926D01*
X114818333Y-43665926D02*
X114785000Y-43732593D01*
X114785000Y-43732593D02*
X114751667Y-43765926D01*
X114751667Y-43765926D02*
X114685000Y-43799260D01*
X114685000Y-43799260D02*
X114418333Y-43799260D01*
X115151667Y-44132593D02*
X115285000Y-44132593D01*
X115285000Y-44132593D02*
X115351667Y-44099260D01*
X115351667Y-44099260D02*
X115385000Y-44065926D01*
X115385000Y-44065926D02*
X115451667Y-43965926D01*
X115451667Y-43965926D02*
X115485000Y-43832593D01*
X115485000Y-43832593D02*
X115485000Y-43565926D01*
X115485000Y-43565926D02*
X115451667Y-43499260D01*
X115451667Y-43499260D02*
X115418333Y-43465926D01*
X115418333Y-43465926D02*
X115351667Y-43432593D01*
X115351667Y-43432593D02*
X115218333Y-43432593D01*
X115218333Y-43432593D02*
X115151667Y-43465926D01*
X115151667Y-43465926D02*
X115118333Y-43499260D01*
X115118333Y-43499260D02*
X115085000Y-43565926D01*
X115085000Y-43565926D02*
X115085000Y-43732593D01*
X115085000Y-43732593D02*
X115118333Y-43799260D01*
X115118333Y-43799260D02*
X115151667Y-43832593D01*
X115151667Y-43832593D02*
X115218333Y-43865926D01*
X115218333Y-43865926D02*
X115351667Y-43865926D01*
X115351667Y-43865926D02*
X115418333Y-43832593D01*
X115418333Y-43832593D02*
X115451667Y-43799260D01*
X115451667Y-43799260D02*
X115485000Y-43732593D01*
X86969666Y-43686593D02*
X86969666Y-44253260D01*
X86969666Y-44253260D02*
X87003000Y-44319926D01*
X87003000Y-44319926D02*
X87036333Y-44353260D01*
X87036333Y-44353260D02*
X87103000Y-44386593D01*
X87103000Y-44386593D02*
X87236333Y-44386593D01*
X87236333Y-44386593D02*
X87303000Y-44353260D01*
X87303000Y-44353260D02*
X87336333Y-44319926D01*
X87336333Y-44319926D02*
X87369666Y-44253260D01*
X87369666Y-44253260D02*
X87369666Y-43686593D01*
X87636333Y-43686593D02*
X88069666Y-43686593D01*
X88069666Y-43686593D02*
X87836333Y-43953260D01*
X87836333Y-43953260D02*
X87936333Y-43953260D01*
X87936333Y-43953260D02*
X88002999Y-43986593D01*
X88002999Y-43986593D02*
X88036333Y-44019926D01*
X88036333Y-44019926D02*
X88069666Y-44086593D01*
X88069666Y-44086593D02*
X88069666Y-44253260D01*
X88069666Y-44253260D02*
X88036333Y-44319926D01*
X88036333Y-44319926D02*
X88002999Y-44353260D01*
X88002999Y-44353260D02*
X87936333Y-44386593D01*
X87936333Y-44386593D02*
X87736333Y-44386593D01*
X87736333Y-44386593D02*
X87669666Y-44353260D01*
X87669666Y-44353260D02*
X87636333Y-44319926D01*
X115754999Y-67627593D02*
X115521666Y-67294260D01*
X115354999Y-67627593D02*
X115354999Y-66927593D01*
X115354999Y-66927593D02*
X115621666Y-66927593D01*
X115621666Y-66927593D02*
X115688333Y-66960926D01*
X115688333Y-66960926D02*
X115721666Y-66994260D01*
X115721666Y-66994260D02*
X115754999Y-67060926D01*
X115754999Y-67060926D02*
X115754999Y-67160926D01*
X115754999Y-67160926D02*
X115721666Y-67227593D01*
X115721666Y-67227593D02*
X115688333Y-67260926D01*
X115688333Y-67260926D02*
X115621666Y-67294260D01*
X115621666Y-67294260D02*
X115354999Y-67294260D01*
X116421666Y-67627593D02*
X116021666Y-67627593D01*
X116221666Y-67627593D02*
X116221666Y-66927593D01*
X116221666Y-66927593D02*
X116154999Y-67027593D01*
X116154999Y-67027593D02*
X116088333Y-67094260D01*
X116088333Y-67094260D02*
X116021666Y-67127593D01*
X116655000Y-66927593D02*
X117088333Y-66927593D01*
X117088333Y-66927593D02*
X116855000Y-67194260D01*
X116855000Y-67194260D02*
X116955000Y-67194260D01*
X116955000Y-67194260D02*
X117021666Y-67227593D01*
X117021666Y-67227593D02*
X117055000Y-67260926D01*
X117055000Y-67260926D02*
X117088333Y-67327593D01*
X117088333Y-67327593D02*
X117088333Y-67494260D01*
X117088333Y-67494260D02*
X117055000Y-67560926D01*
X117055000Y-67560926D02*
X117021666Y-67594260D01*
X117021666Y-67594260D02*
X116955000Y-67627593D01*
X116955000Y-67627593D02*
X116755000Y-67627593D01*
X116755000Y-67627593D02*
X116688333Y-67594260D01*
X116688333Y-67594260D02*
X116655000Y-67560926D01*
X115119999Y-41592593D02*
X114886666Y-41259260D01*
X114719999Y-41592593D02*
X114719999Y-40892593D01*
X114719999Y-40892593D02*
X114986666Y-40892593D01*
X114986666Y-40892593D02*
X115053333Y-40925926D01*
X115053333Y-40925926D02*
X115086666Y-40959260D01*
X115086666Y-40959260D02*
X115119999Y-41025926D01*
X115119999Y-41025926D02*
X115119999Y-41125926D01*
X115119999Y-41125926D02*
X115086666Y-41192593D01*
X115086666Y-41192593D02*
X115053333Y-41225926D01*
X115053333Y-41225926D02*
X114986666Y-41259260D01*
X114986666Y-41259260D02*
X114719999Y-41259260D01*
X115786666Y-41592593D02*
X115386666Y-41592593D01*
X115586666Y-41592593D02*
X115586666Y-40892593D01*
X115586666Y-40892593D02*
X115519999Y-40992593D01*
X115519999Y-40992593D02*
X115453333Y-41059260D01*
X115453333Y-41059260D02*
X115386666Y-41092593D01*
X116220000Y-40892593D02*
X116286666Y-40892593D01*
X116286666Y-40892593D02*
X116353333Y-40925926D01*
X116353333Y-40925926D02*
X116386666Y-40959260D01*
X116386666Y-40959260D02*
X116420000Y-41025926D01*
X116420000Y-41025926D02*
X116453333Y-41159260D01*
X116453333Y-41159260D02*
X116453333Y-41325926D01*
X116453333Y-41325926D02*
X116420000Y-41459260D01*
X116420000Y-41459260D02*
X116386666Y-41525926D01*
X116386666Y-41525926D02*
X116353333Y-41559260D01*
X116353333Y-41559260D02*
X116286666Y-41592593D01*
X116286666Y-41592593D02*
X116220000Y-41592593D01*
X116220000Y-41592593D02*
X116153333Y-41559260D01*
X116153333Y-41559260D02*
X116120000Y-41525926D01*
X116120000Y-41525926D02*
X116086666Y-41459260D01*
X116086666Y-41459260D02*
X116053333Y-41325926D01*
X116053333Y-41325926D02*
X116053333Y-41159260D01*
X116053333Y-41159260D02*
X116086666Y-41025926D01*
X116086666Y-41025926D02*
X116120000Y-40959260D01*
X116120000Y-40959260D02*
X116153333Y-40925926D01*
X116153333Y-40925926D02*
X116220000Y-40892593D01*
X131846666Y-72007593D02*
X131846666Y-72507593D01*
X131846666Y-72507593D02*
X131813333Y-72607593D01*
X131813333Y-72607593D02*
X131746666Y-72674260D01*
X131746666Y-72674260D02*
X131646666Y-72707593D01*
X131646666Y-72707593D02*
X131580000Y-72707593D01*
X132113333Y-72007593D02*
X132546666Y-72007593D01*
X132546666Y-72007593D02*
X132313333Y-72274260D01*
X132313333Y-72274260D02*
X132413333Y-72274260D01*
X132413333Y-72274260D02*
X132479999Y-72307593D01*
X132479999Y-72307593D02*
X132513333Y-72340926D01*
X132513333Y-72340926D02*
X132546666Y-72407593D01*
X132546666Y-72407593D02*
X132546666Y-72574260D01*
X132546666Y-72574260D02*
X132513333Y-72640926D01*
X132513333Y-72640926D02*
X132479999Y-72674260D01*
X132479999Y-72674260D02*
X132413333Y-72707593D01*
X132413333Y-72707593D02*
X132213333Y-72707593D01*
X132213333Y-72707593D02*
X132146666Y-72674260D01*
X132146666Y-72674260D02*
X132113333Y-72640926D01*
X87748333Y-36131593D02*
X87748333Y-35431593D01*
X87748333Y-35431593D02*
X87915000Y-35431593D01*
X87915000Y-35431593D02*
X88015000Y-35464926D01*
X88015000Y-35464926D02*
X88081667Y-35531593D01*
X88081667Y-35531593D02*
X88115000Y-35598260D01*
X88115000Y-35598260D02*
X88148333Y-35731593D01*
X88148333Y-35731593D02*
X88148333Y-35831593D01*
X88148333Y-35831593D02*
X88115000Y-35964926D01*
X88115000Y-35964926D02*
X88081667Y-36031593D01*
X88081667Y-36031593D02*
X88015000Y-36098260D01*
X88015000Y-36098260D02*
X87915000Y-36131593D01*
X87915000Y-36131593D02*
X87748333Y-36131593D01*
X88381667Y-35431593D02*
X88815000Y-35431593D01*
X88815000Y-35431593D02*
X88581667Y-35698260D01*
X88581667Y-35698260D02*
X88681667Y-35698260D01*
X88681667Y-35698260D02*
X88748333Y-35731593D01*
X88748333Y-35731593D02*
X88781667Y-35764926D01*
X88781667Y-35764926D02*
X88815000Y-35831593D01*
X88815000Y-35831593D02*
X88815000Y-35998260D01*
X88815000Y-35998260D02*
X88781667Y-36064926D01*
X88781667Y-36064926D02*
X88748333Y-36098260D01*
X88748333Y-36098260D02*
X88681667Y-36131593D01*
X88681667Y-36131593D02*
X88481667Y-36131593D01*
X88481667Y-36131593D02*
X88415000Y-36098260D01*
X88415000Y-36098260D02*
X88381667Y-36064926D01*
X106146666Y-60987593D02*
X106146666Y-61554260D01*
X106146666Y-61554260D02*
X106180000Y-61620926D01*
X106180000Y-61620926D02*
X106213333Y-61654260D01*
X106213333Y-61654260D02*
X106280000Y-61687593D01*
X106280000Y-61687593D02*
X106413333Y-61687593D01*
X106413333Y-61687593D02*
X106480000Y-61654260D01*
X106480000Y-61654260D02*
X106513333Y-61620926D01*
X106513333Y-61620926D02*
X106546666Y-61554260D01*
X106546666Y-61554260D02*
X106546666Y-60987593D01*
X107213333Y-60987593D02*
X106879999Y-60987593D01*
X106879999Y-60987593D02*
X106846666Y-61320926D01*
X106846666Y-61320926D02*
X106879999Y-61287593D01*
X106879999Y-61287593D02*
X106946666Y-61254260D01*
X106946666Y-61254260D02*
X107113333Y-61254260D01*
X107113333Y-61254260D02*
X107179999Y-61287593D01*
X107179999Y-61287593D02*
X107213333Y-61320926D01*
X107213333Y-61320926D02*
X107246666Y-61387593D01*
X107246666Y-61387593D02*
X107246666Y-61554260D01*
X107246666Y-61554260D02*
X107213333Y-61620926D01*
X107213333Y-61620926D02*
X107179999Y-61654260D01*
X107179999Y-61654260D02*
X107113333Y-61687593D01*
X107113333Y-61687593D02*
X106946666Y-61687593D01*
X106946666Y-61687593D02*
X106879999Y-61654260D01*
X106879999Y-61654260D02*
X106846666Y-61620926D01*
X78623333Y-65975926D02*
X78590000Y-66009260D01*
X78590000Y-66009260D02*
X78490000Y-66042593D01*
X78490000Y-66042593D02*
X78423333Y-66042593D01*
X78423333Y-66042593D02*
X78323333Y-66009260D01*
X78323333Y-66009260D02*
X78256667Y-65942593D01*
X78256667Y-65942593D02*
X78223333Y-65875926D01*
X78223333Y-65875926D02*
X78190000Y-65742593D01*
X78190000Y-65742593D02*
X78190000Y-65642593D01*
X78190000Y-65642593D02*
X78223333Y-65509260D01*
X78223333Y-65509260D02*
X78256667Y-65442593D01*
X78256667Y-65442593D02*
X78323333Y-65375926D01*
X78323333Y-65375926D02*
X78423333Y-65342593D01*
X78423333Y-65342593D02*
X78490000Y-65342593D01*
X78490000Y-65342593D02*
X78590000Y-65375926D01*
X78590000Y-65375926D02*
X78623333Y-65409260D01*
X78890000Y-65409260D02*
X78923333Y-65375926D01*
X78923333Y-65375926D02*
X78990000Y-65342593D01*
X78990000Y-65342593D02*
X79156667Y-65342593D01*
X79156667Y-65342593D02*
X79223333Y-65375926D01*
X79223333Y-65375926D02*
X79256667Y-65409260D01*
X79256667Y-65409260D02*
X79290000Y-65475926D01*
X79290000Y-65475926D02*
X79290000Y-65542593D01*
X79290000Y-65542593D02*
X79256667Y-65642593D01*
X79256667Y-65642593D02*
X78856667Y-66042593D01*
X78856667Y-66042593D02*
X79290000Y-66042593D01*
X53971926Y-56330000D02*
X54005260Y-56363333D01*
X54005260Y-56363333D02*
X54038593Y-56463333D01*
X54038593Y-56463333D02*
X54038593Y-56530000D01*
X54038593Y-56530000D02*
X54005260Y-56630000D01*
X54005260Y-56630000D02*
X53938593Y-56696667D01*
X53938593Y-56696667D02*
X53871926Y-56730000D01*
X53871926Y-56730000D02*
X53738593Y-56763333D01*
X53738593Y-56763333D02*
X53638593Y-56763333D01*
X53638593Y-56763333D02*
X53505260Y-56730000D01*
X53505260Y-56730000D02*
X53438593Y-56696667D01*
X53438593Y-56696667D02*
X53371926Y-56630000D01*
X53371926Y-56630000D02*
X53338593Y-56530000D01*
X53338593Y-56530000D02*
X53338593Y-56463333D01*
X53338593Y-56463333D02*
X53371926Y-56363333D01*
X53371926Y-56363333D02*
X53405260Y-56330000D01*
X54038593Y-55663333D02*
X54038593Y-56063333D01*
X54038593Y-55863333D02*
X53338593Y-55863333D01*
X53338593Y-55863333D02*
X53438593Y-55930000D01*
X53438593Y-55930000D02*
X53505260Y-55996667D01*
X53505260Y-55996667D02*
X53538593Y-56063333D01*
X53405260Y-55396666D02*
X53371926Y-55363333D01*
X53371926Y-55363333D02*
X53338593Y-55296666D01*
X53338593Y-55296666D02*
X53338593Y-55130000D01*
X53338593Y-55130000D02*
X53371926Y-55063333D01*
X53371926Y-55063333D02*
X53405260Y-55030000D01*
X53405260Y-55030000D02*
X53471926Y-54996666D01*
X53471926Y-54996666D02*
X53538593Y-54996666D01*
X53538593Y-54996666D02*
X53638593Y-55030000D01*
X53638593Y-55030000D02*
X54038593Y-55430000D01*
X54038593Y-55430000D02*
X54038593Y-54996666D01*
X55763333Y-66102593D02*
X55530000Y-65769260D01*
X55363333Y-66102593D02*
X55363333Y-65402593D01*
X55363333Y-65402593D02*
X55630000Y-65402593D01*
X55630000Y-65402593D02*
X55696667Y-65435926D01*
X55696667Y-65435926D02*
X55730000Y-65469260D01*
X55730000Y-65469260D02*
X55763333Y-65535926D01*
X55763333Y-65535926D02*
X55763333Y-65635926D01*
X55763333Y-65635926D02*
X55730000Y-65702593D01*
X55730000Y-65702593D02*
X55696667Y-65735926D01*
X55696667Y-65735926D02*
X55630000Y-65769260D01*
X55630000Y-65769260D02*
X55363333Y-65769260D01*
X55996667Y-65402593D02*
X56463333Y-65402593D01*
X56463333Y-65402593D02*
X56163333Y-66102593D01*
X67828333Y-47875926D02*
X67795000Y-47909260D01*
X67795000Y-47909260D02*
X67695000Y-47942593D01*
X67695000Y-47942593D02*
X67628333Y-47942593D01*
X67628333Y-47942593D02*
X67528333Y-47909260D01*
X67528333Y-47909260D02*
X67461667Y-47842593D01*
X67461667Y-47842593D02*
X67428333Y-47775926D01*
X67428333Y-47775926D02*
X67395000Y-47642593D01*
X67395000Y-47642593D02*
X67395000Y-47542593D01*
X67395000Y-47542593D02*
X67428333Y-47409260D01*
X67428333Y-47409260D02*
X67461667Y-47342593D01*
X67461667Y-47342593D02*
X67528333Y-47275926D01*
X67528333Y-47275926D02*
X67628333Y-47242593D01*
X67628333Y-47242593D02*
X67695000Y-47242593D01*
X67695000Y-47242593D02*
X67795000Y-47275926D01*
X67795000Y-47275926D02*
X67828333Y-47309260D01*
X68428333Y-47242593D02*
X68295000Y-47242593D01*
X68295000Y-47242593D02*
X68228333Y-47275926D01*
X68228333Y-47275926D02*
X68195000Y-47309260D01*
X68195000Y-47309260D02*
X68128333Y-47409260D01*
X68128333Y-47409260D02*
X68095000Y-47542593D01*
X68095000Y-47542593D02*
X68095000Y-47809260D01*
X68095000Y-47809260D02*
X68128333Y-47875926D01*
X68128333Y-47875926D02*
X68161667Y-47909260D01*
X68161667Y-47909260D02*
X68228333Y-47942593D01*
X68228333Y-47942593D02*
X68361667Y-47942593D01*
X68361667Y-47942593D02*
X68428333Y-47909260D01*
X68428333Y-47909260D02*
X68461667Y-47875926D01*
X68461667Y-47875926D02*
X68495000Y-47809260D01*
X68495000Y-47809260D02*
X68495000Y-47642593D01*
X68495000Y-47642593D02*
X68461667Y-47575926D01*
X68461667Y-47575926D02*
X68428333Y-47542593D01*
X68428333Y-47542593D02*
X68361667Y-47509260D01*
X68361667Y-47509260D02*
X68228333Y-47509260D01*
X68228333Y-47509260D02*
X68161667Y-47542593D01*
X68161667Y-47542593D02*
X68128333Y-47575926D01*
X68128333Y-47575926D02*
X68095000Y-47642593D01*
X75158666Y-52068593D02*
X75158666Y-52635260D01*
X75158666Y-52635260D02*
X75192000Y-52701926D01*
X75192000Y-52701926D02*
X75225333Y-52735260D01*
X75225333Y-52735260D02*
X75292000Y-52768593D01*
X75292000Y-52768593D02*
X75425333Y-52768593D01*
X75425333Y-52768593D02*
X75492000Y-52735260D01*
X75492000Y-52735260D02*
X75525333Y-52701926D01*
X75525333Y-52701926D02*
X75558666Y-52635260D01*
X75558666Y-52635260D02*
X75558666Y-52068593D01*
X76258666Y-52768593D02*
X75858666Y-52768593D01*
X76058666Y-52768593D02*
X76058666Y-52068593D01*
X76058666Y-52068593D02*
X75991999Y-52168593D01*
X75991999Y-52168593D02*
X75925333Y-52235260D01*
X75925333Y-52235260D02*
X75858666Y-52268593D01*
X93863333Y-44132593D02*
X93630000Y-43799260D01*
X93463333Y-44132593D02*
X93463333Y-43432593D01*
X93463333Y-43432593D02*
X93730000Y-43432593D01*
X93730000Y-43432593D02*
X93796667Y-43465926D01*
X93796667Y-43465926D02*
X93830000Y-43499260D01*
X93830000Y-43499260D02*
X93863333Y-43565926D01*
X93863333Y-43565926D02*
X93863333Y-43665926D01*
X93863333Y-43665926D02*
X93830000Y-43732593D01*
X93830000Y-43732593D02*
X93796667Y-43765926D01*
X93796667Y-43765926D02*
X93730000Y-43799260D01*
X93730000Y-43799260D02*
X93463333Y-43799260D01*
X94496667Y-43432593D02*
X94163333Y-43432593D01*
X94163333Y-43432593D02*
X94130000Y-43765926D01*
X94130000Y-43765926D02*
X94163333Y-43732593D01*
X94163333Y-43732593D02*
X94230000Y-43699260D01*
X94230000Y-43699260D02*
X94396667Y-43699260D01*
X94396667Y-43699260D02*
X94463333Y-43732593D01*
X94463333Y-43732593D02*
X94496667Y-43765926D01*
X94496667Y-43765926D02*
X94530000Y-43832593D01*
X94530000Y-43832593D02*
X94530000Y-43999260D01*
X94530000Y-43999260D02*
X94496667Y-44065926D01*
X94496667Y-44065926D02*
X94463333Y-44099260D01*
X94463333Y-44099260D02*
X94396667Y-44132593D01*
X94396667Y-44132593D02*
X94230000Y-44132593D01*
X94230000Y-44132593D02*
X94163333Y-44099260D01*
X94163333Y-44099260D02*
X94130000Y-44065926D01*
X61478333Y-47875926D02*
X61445000Y-47909260D01*
X61445000Y-47909260D02*
X61345000Y-47942593D01*
X61345000Y-47942593D02*
X61278333Y-47942593D01*
X61278333Y-47942593D02*
X61178333Y-47909260D01*
X61178333Y-47909260D02*
X61111667Y-47842593D01*
X61111667Y-47842593D02*
X61078333Y-47775926D01*
X61078333Y-47775926D02*
X61045000Y-47642593D01*
X61045000Y-47642593D02*
X61045000Y-47542593D01*
X61045000Y-47542593D02*
X61078333Y-47409260D01*
X61078333Y-47409260D02*
X61111667Y-47342593D01*
X61111667Y-47342593D02*
X61178333Y-47275926D01*
X61178333Y-47275926D02*
X61278333Y-47242593D01*
X61278333Y-47242593D02*
X61345000Y-47242593D01*
X61345000Y-47242593D02*
X61445000Y-47275926D01*
X61445000Y-47275926D02*
X61478333Y-47309260D01*
X62145000Y-47942593D02*
X61745000Y-47942593D01*
X61945000Y-47942593D02*
X61945000Y-47242593D01*
X61945000Y-47242593D02*
X61878333Y-47342593D01*
X61878333Y-47342593D02*
X61811667Y-47409260D01*
X61811667Y-47409260D02*
X61745000Y-47442593D01*
X89084999Y-61912593D02*
X88851666Y-61579260D01*
X88684999Y-61912593D02*
X88684999Y-61212593D01*
X88684999Y-61212593D02*
X88951666Y-61212593D01*
X88951666Y-61212593D02*
X89018333Y-61245926D01*
X89018333Y-61245926D02*
X89051666Y-61279260D01*
X89051666Y-61279260D02*
X89084999Y-61345926D01*
X89084999Y-61345926D02*
X89084999Y-61445926D01*
X89084999Y-61445926D02*
X89051666Y-61512593D01*
X89051666Y-61512593D02*
X89018333Y-61545926D01*
X89018333Y-61545926D02*
X88951666Y-61579260D01*
X88951666Y-61579260D02*
X88684999Y-61579260D01*
X89751666Y-61912593D02*
X89351666Y-61912593D01*
X89551666Y-61912593D02*
X89551666Y-61212593D01*
X89551666Y-61212593D02*
X89484999Y-61312593D01*
X89484999Y-61312593D02*
X89418333Y-61379260D01*
X89418333Y-61379260D02*
X89351666Y-61412593D01*
X90018333Y-61279260D02*
X90051666Y-61245926D01*
X90051666Y-61245926D02*
X90118333Y-61212593D01*
X90118333Y-61212593D02*
X90285000Y-61212593D01*
X90285000Y-61212593D02*
X90351666Y-61245926D01*
X90351666Y-61245926D02*
X90385000Y-61279260D01*
X90385000Y-61279260D02*
X90418333Y-61345926D01*
X90418333Y-61345926D02*
X90418333Y-61412593D01*
X90418333Y-61412593D02*
X90385000Y-61512593D01*
X90385000Y-61512593D02*
X89985000Y-61912593D01*
X89985000Y-61912593D02*
X90418333Y-61912593D01*
X89084999Y-64385926D02*
X89051666Y-64419260D01*
X89051666Y-64419260D02*
X88951666Y-64452593D01*
X88951666Y-64452593D02*
X88884999Y-64452593D01*
X88884999Y-64452593D02*
X88784999Y-64419260D01*
X88784999Y-64419260D02*
X88718333Y-64352593D01*
X88718333Y-64352593D02*
X88684999Y-64285926D01*
X88684999Y-64285926D02*
X88651666Y-64152593D01*
X88651666Y-64152593D02*
X88651666Y-64052593D01*
X88651666Y-64052593D02*
X88684999Y-63919260D01*
X88684999Y-63919260D02*
X88718333Y-63852593D01*
X88718333Y-63852593D02*
X88784999Y-63785926D01*
X88784999Y-63785926D02*
X88884999Y-63752593D01*
X88884999Y-63752593D02*
X88951666Y-63752593D01*
X88951666Y-63752593D02*
X89051666Y-63785926D01*
X89051666Y-63785926D02*
X89084999Y-63819260D01*
X89751666Y-64452593D02*
X89351666Y-64452593D01*
X89551666Y-64452593D02*
X89551666Y-63752593D01*
X89551666Y-63752593D02*
X89484999Y-63852593D01*
X89484999Y-63852593D02*
X89418333Y-63919260D01*
X89418333Y-63919260D02*
X89351666Y-63952593D01*
X90385000Y-63752593D02*
X90051666Y-63752593D01*
X90051666Y-63752593D02*
X90018333Y-64085926D01*
X90018333Y-64085926D02*
X90051666Y-64052593D01*
X90051666Y-64052593D02*
X90118333Y-64019260D01*
X90118333Y-64019260D02*
X90285000Y-64019260D01*
X90285000Y-64019260D02*
X90351666Y-64052593D01*
X90351666Y-64052593D02*
X90385000Y-64085926D01*
X90385000Y-64085926D02*
X90418333Y-64152593D01*
X90418333Y-64152593D02*
X90418333Y-64319260D01*
X90418333Y-64319260D02*
X90385000Y-64385926D01*
X90385000Y-64385926D02*
X90351666Y-64419260D01*
X90351666Y-64419260D02*
X90285000Y-64452593D01*
X90285000Y-64452593D02*
X90118333Y-64452593D01*
X90118333Y-64452593D02*
X90051666Y-64419260D01*
X90051666Y-64419260D02*
X90018333Y-64385926D01*
X115119999Y-39052593D02*
X114886666Y-38719260D01*
X114719999Y-39052593D02*
X114719999Y-38352593D01*
X114719999Y-38352593D02*
X114986666Y-38352593D01*
X114986666Y-38352593D02*
X115053333Y-38385926D01*
X115053333Y-38385926D02*
X115086666Y-38419260D01*
X115086666Y-38419260D02*
X115119999Y-38485926D01*
X115119999Y-38485926D02*
X115119999Y-38585926D01*
X115119999Y-38585926D02*
X115086666Y-38652593D01*
X115086666Y-38652593D02*
X115053333Y-38685926D01*
X115053333Y-38685926D02*
X114986666Y-38719260D01*
X114986666Y-38719260D02*
X114719999Y-38719260D01*
X115786666Y-39052593D02*
X115386666Y-39052593D01*
X115586666Y-39052593D02*
X115586666Y-38352593D01*
X115586666Y-38352593D02*
X115519999Y-38452593D01*
X115519999Y-38452593D02*
X115453333Y-38519260D01*
X115453333Y-38519260D02*
X115386666Y-38552593D01*
X116453333Y-39052593D02*
X116053333Y-39052593D01*
X116253333Y-39052593D02*
X116253333Y-38352593D01*
X116253333Y-38352593D02*
X116186666Y-38452593D01*
X116186666Y-38452593D02*
X116120000Y-38519260D01*
X116120000Y-38519260D02*
X116053333Y-38552593D01*
X96704999Y-70100926D02*
X96671666Y-70134260D01*
X96671666Y-70134260D02*
X96571666Y-70167593D01*
X96571666Y-70167593D02*
X96504999Y-70167593D01*
X96504999Y-70167593D02*
X96404999Y-70134260D01*
X96404999Y-70134260D02*
X96338333Y-70067593D01*
X96338333Y-70067593D02*
X96304999Y-70000926D01*
X96304999Y-70000926D02*
X96271666Y-69867593D01*
X96271666Y-69867593D02*
X96271666Y-69767593D01*
X96271666Y-69767593D02*
X96304999Y-69634260D01*
X96304999Y-69634260D02*
X96338333Y-69567593D01*
X96338333Y-69567593D02*
X96404999Y-69500926D01*
X96404999Y-69500926D02*
X96504999Y-69467593D01*
X96504999Y-69467593D02*
X96571666Y-69467593D01*
X96571666Y-69467593D02*
X96671666Y-69500926D01*
X96671666Y-69500926D02*
X96704999Y-69534260D01*
X97371666Y-70167593D02*
X96971666Y-70167593D01*
X97171666Y-70167593D02*
X97171666Y-69467593D01*
X97171666Y-69467593D02*
X97104999Y-69567593D01*
X97104999Y-69567593D02*
X97038333Y-69634260D01*
X97038333Y-69634260D02*
X96971666Y-69667593D01*
X97805000Y-69467593D02*
X97871666Y-69467593D01*
X97871666Y-69467593D02*
X97938333Y-69500926D01*
X97938333Y-69500926D02*
X97971666Y-69534260D01*
X97971666Y-69534260D02*
X98005000Y-69600926D01*
X98005000Y-69600926D02*
X98038333Y-69734260D01*
X98038333Y-69734260D02*
X98038333Y-69900926D01*
X98038333Y-69900926D02*
X98005000Y-70034260D01*
X98005000Y-70034260D02*
X97971666Y-70100926D01*
X97971666Y-70100926D02*
X97938333Y-70134260D01*
X97938333Y-70134260D02*
X97871666Y-70167593D01*
X97871666Y-70167593D02*
X97805000Y-70167593D01*
X97805000Y-70167593D02*
X97738333Y-70134260D01*
X97738333Y-70134260D02*
X97705000Y-70100926D01*
X97705000Y-70100926D02*
X97671666Y-70034260D01*
X97671666Y-70034260D02*
X97638333Y-69900926D01*
X97638333Y-69900926D02*
X97638333Y-69734260D01*
X97638333Y-69734260D02*
X97671666Y-69600926D01*
X97671666Y-69600926D02*
X97705000Y-69534260D01*
X97705000Y-69534260D02*
X97738333Y-69500926D01*
X97738333Y-69500926D02*
X97805000Y-69467593D01*
X115119999Y-36445926D02*
X115086666Y-36479260D01*
X115086666Y-36479260D02*
X114986666Y-36512593D01*
X114986666Y-36512593D02*
X114919999Y-36512593D01*
X114919999Y-36512593D02*
X114819999Y-36479260D01*
X114819999Y-36479260D02*
X114753333Y-36412593D01*
X114753333Y-36412593D02*
X114719999Y-36345926D01*
X114719999Y-36345926D02*
X114686666Y-36212593D01*
X114686666Y-36212593D02*
X114686666Y-36112593D01*
X114686666Y-36112593D02*
X114719999Y-35979260D01*
X114719999Y-35979260D02*
X114753333Y-35912593D01*
X114753333Y-35912593D02*
X114819999Y-35845926D01*
X114819999Y-35845926D02*
X114919999Y-35812593D01*
X114919999Y-35812593D02*
X114986666Y-35812593D01*
X114986666Y-35812593D02*
X115086666Y-35845926D01*
X115086666Y-35845926D02*
X115119999Y-35879260D01*
X115386666Y-35879260D02*
X115419999Y-35845926D01*
X115419999Y-35845926D02*
X115486666Y-35812593D01*
X115486666Y-35812593D02*
X115653333Y-35812593D01*
X115653333Y-35812593D02*
X115719999Y-35845926D01*
X115719999Y-35845926D02*
X115753333Y-35879260D01*
X115753333Y-35879260D02*
X115786666Y-35945926D01*
X115786666Y-35945926D02*
X115786666Y-36012593D01*
X115786666Y-36012593D02*
X115753333Y-36112593D01*
X115753333Y-36112593D02*
X115353333Y-36512593D01*
X115353333Y-36512593D02*
X115786666Y-36512593D01*
X116053333Y-35879260D02*
X116086666Y-35845926D01*
X116086666Y-35845926D02*
X116153333Y-35812593D01*
X116153333Y-35812593D02*
X116320000Y-35812593D01*
X116320000Y-35812593D02*
X116386666Y-35845926D01*
X116386666Y-35845926D02*
X116420000Y-35879260D01*
X116420000Y-35879260D02*
X116453333Y-35945926D01*
X116453333Y-35945926D02*
X116453333Y-36012593D01*
X116453333Y-36012593D02*
X116420000Y-36112593D01*
X116420000Y-36112593D02*
X116020000Y-36512593D01*
X116020000Y-36512593D02*
X116453333Y-36512593D01*
X144713333Y-56584260D02*
X144646666Y-56550926D01*
X144646666Y-56550926D02*
X144580000Y-56484260D01*
X144580000Y-56484260D02*
X144480000Y-56384260D01*
X144480000Y-56384260D02*
X144413333Y-56350926D01*
X144413333Y-56350926D02*
X144346666Y-56350926D01*
X144380000Y-56517593D02*
X144313333Y-56484260D01*
X144313333Y-56484260D02*
X144246666Y-56417593D01*
X144246666Y-56417593D02*
X144213333Y-56284260D01*
X144213333Y-56284260D02*
X144213333Y-56050926D01*
X144213333Y-56050926D02*
X144246666Y-55917593D01*
X144246666Y-55917593D02*
X144313333Y-55850926D01*
X144313333Y-55850926D02*
X144380000Y-55817593D01*
X144380000Y-55817593D02*
X144513333Y-55817593D01*
X144513333Y-55817593D02*
X144580000Y-55850926D01*
X144580000Y-55850926D02*
X144646666Y-55917593D01*
X144646666Y-55917593D02*
X144680000Y-56050926D01*
X144680000Y-56050926D02*
X144680000Y-56284260D01*
X144680000Y-56284260D02*
X144646666Y-56417593D01*
X144646666Y-56417593D02*
X144580000Y-56484260D01*
X144580000Y-56484260D02*
X144513333Y-56517593D01*
X144513333Y-56517593D02*
X144380000Y-56517593D01*
X145346666Y-56517593D02*
X144946666Y-56517593D01*
X145146666Y-56517593D02*
X145146666Y-55817593D01*
X145146666Y-55817593D02*
X145079999Y-55917593D01*
X145079999Y-55917593D02*
X145013333Y-55984260D01*
X145013333Y-55984260D02*
X144946666Y-56017593D01*
X96704999Y-62480926D02*
X96671666Y-62514260D01*
X96671666Y-62514260D02*
X96571666Y-62547593D01*
X96571666Y-62547593D02*
X96504999Y-62547593D01*
X96504999Y-62547593D02*
X96404999Y-62514260D01*
X96404999Y-62514260D02*
X96338333Y-62447593D01*
X96338333Y-62447593D02*
X96304999Y-62380926D01*
X96304999Y-62380926D02*
X96271666Y-62247593D01*
X96271666Y-62247593D02*
X96271666Y-62147593D01*
X96271666Y-62147593D02*
X96304999Y-62014260D01*
X96304999Y-62014260D02*
X96338333Y-61947593D01*
X96338333Y-61947593D02*
X96404999Y-61880926D01*
X96404999Y-61880926D02*
X96504999Y-61847593D01*
X96504999Y-61847593D02*
X96571666Y-61847593D01*
X96571666Y-61847593D02*
X96671666Y-61880926D01*
X96671666Y-61880926D02*
X96704999Y-61914260D01*
X97371666Y-62547593D02*
X96971666Y-62547593D01*
X97171666Y-62547593D02*
X97171666Y-61847593D01*
X97171666Y-61847593D02*
X97104999Y-61947593D01*
X97104999Y-61947593D02*
X97038333Y-62014260D01*
X97038333Y-62014260D02*
X96971666Y-62047593D01*
X97605000Y-61847593D02*
X98038333Y-61847593D01*
X98038333Y-61847593D02*
X97805000Y-62114260D01*
X97805000Y-62114260D02*
X97905000Y-62114260D01*
X97905000Y-62114260D02*
X97971666Y-62147593D01*
X97971666Y-62147593D02*
X98005000Y-62180926D01*
X98005000Y-62180926D02*
X98038333Y-62247593D01*
X98038333Y-62247593D02*
X98038333Y-62414260D01*
X98038333Y-62414260D02*
X98005000Y-62480926D01*
X98005000Y-62480926D02*
X97971666Y-62514260D01*
X97971666Y-62514260D02*
X97905000Y-62547593D01*
X97905000Y-62547593D02*
X97705000Y-62547593D01*
X97705000Y-62547593D02*
X97638333Y-62514260D01*
X97638333Y-62514260D02*
X97605000Y-62480926D01*
X75495999Y-42227593D02*
X75262666Y-41894260D01*
X75095999Y-42227593D02*
X75095999Y-41527593D01*
X75095999Y-41527593D02*
X75362666Y-41527593D01*
X75362666Y-41527593D02*
X75429333Y-41560926D01*
X75429333Y-41560926D02*
X75462666Y-41594260D01*
X75462666Y-41594260D02*
X75495999Y-41660926D01*
X75495999Y-41660926D02*
X75495999Y-41760926D01*
X75495999Y-41760926D02*
X75462666Y-41827593D01*
X75462666Y-41827593D02*
X75429333Y-41860926D01*
X75429333Y-41860926D02*
X75362666Y-41894260D01*
X75362666Y-41894260D02*
X75095999Y-41894260D01*
X76162666Y-42227593D02*
X75762666Y-42227593D01*
X75962666Y-42227593D02*
X75962666Y-41527593D01*
X75962666Y-41527593D02*
X75895999Y-41627593D01*
X75895999Y-41627593D02*
X75829333Y-41694260D01*
X75829333Y-41694260D02*
X75762666Y-41727593D01*
X76562666Y-41827593D02*
X76496000Y-41794260D01*
X76496000Y-41794260D02*
X76462666Y-41760926D01*
X76462666Y-41760926D02*
X76429333Y-41694260D01*
X76429333Y-41694260D02*
X76429333Y-41660926D01*
X76429333Y-41660926D02*
X76462666Y-41594260D01*
X76462666Y-41594260D02*
X76496000Y-41560926D01*
X76496000Y-41560926D02*
X76562666Y-41527593D01*
X76562666Y-41527593D02*
X76696000Y-41527593D01*
X76696000Y-41527593D02*
X76762666Y-41560926D01*
X76762666Y-41560926D02*
X76796000Y-41594260D01*
X76796000Y-41594260D02*
X76829333Y-41660926D01*
X76829333Y-41660926D02*
X76829333Y-41694260D01*
X76829333Y-41694260D02*
X76796000Y-41760926D01*
X76796000Y-41760926D02*
X76762666Y-41794260D01*
X76762666Y-41794260D02*
X76696000Y-41827593D01*
X76696000Y-41827593D02*
X76562666Y-41827593D01*
X76562666Y-41827593D02*
X76496000Y-41860926D01*
X76496000Y-41860926D02*
X76462666Y-41894260D01*
X76462666Y-41894260D02*
X76429333Y-41960926D01*
X76429333Y-41960926D02*
X76429333Y-42094260D01*
X76429333Y-42094260D02*
X76462666Y-42160926D01*
X76462666Y-42160926D02*
X76496000Y-42194260D01*
X76496000Y-42194260D02*
X76562666Y-42227593D01*
X76562666Y-42227593D02*
X76696000Y-42227593D01*
X76696000Y-42227593D02*
X76762666Y-42194260D01*
X76762666Y-42194260D02*
X76796000Y-42160926D01*
X76796000Y-42160926D02*
X76829333Y-42094260D01*
X76829333Y-42094260D02*
X76829333Y-41960926D01*
X76829333Y-41960926D02*
X76796000Y-41894260D01*
X76796000Y-41894260D02*
X76762666Y-41860926D01*
X76762666Y-41860926D02*
X76696000Y-41827593D01*
X58538333Y-70294593D02*
X58538333Y-69594593D01*
X58538333Y-69594593D02*
X58705000Y-69594593D01*
X58705000Y-69594593D02*
X58805000Y-69627926D01*
X58805000Y-69627926D02*
X58871667Y-69694593D01*
X58871667Y-69694593D02*
X58905000Y-69761260D01*
X58905000Y-69761260D02*
X58938333Y-69894593D01*
X58938333Y-69894593D02*
X58938333Y-69994593D01*
X58938333Y-69994593D02*
X58905000Y-70127926D01*
X58905000Y-70127926D02*
X58871667Y-70194593D01*
X58871667Y-70194593D02*
X58805000Y-70261260D01*
X58805000Y-70261260D02*
X58705000Y-70294593D01*
X58705000Y-70294593D02*
X58538333Y-70294593D01*
X59571667Y-69594593D02*
X59238333Y-69594593D01*
X59238333Y-69594593D02*
X59205000Y-69927926D01*
X59205000Y-69927926D02*
X59238333Y-69894593D01*
X59238333Y-69894593D02*
X59305000Y-69861260D01*
X59305000Y-69861260D02*
X59471667Y-69861260D01*
X59471667Y-69861260D02*
X59538333Y-69894593D01*
X59538333Y-69894593D02*
X59571667Y-69927926D01*
X59571667Y-69927926D02*
X59605000Y-69994593D01*
X59605000Y-69994593D02*
X59605000Y-70161260D01*
X59605000Y-70161260D02*
X59571667Y-70227926D01*
X59571667Y-70227926D02*
X59538333Y-70261260D01*
X59538333Y-70261260D02*
X59471667Y-70294593D01*
X59471667Y-70294593D02*
X59305000Y-70294593D01*
X59305000Y-70294593D02*
X59238333Y-70261260D01*
X59238333Y-70261260D02*
X59205000Y-70227926D01*
X130068333Y-56464260D02*
X130001666Y-56430926D01*
X130001666Y-56430926D02*
X129935000Y-56364260D01*
X129935000Y-56364260D02*
X129835000Y-56264260D01*
X129835000Y-56264260D02*
X129768333Y-56230926D01*
X129768333Y-56230926D02*
X129701666Y-56230926D01*
X129735000Y-56397593D02*
X129668333Y-56364260D01*
X129668333Y-56364260D02*
X129601666Y-56297593D01*
X129601666Y-56297593D02*
X129568333Y-56164260D01*
X129568333Y-56164260D02*
X129568333Y-55930926D01*
X129568333Y-55930926D02*
X129601666Y-55797593D01*
X129601666Y-55797593D02*
X129668333Y-55730926D01*
X129668333Y-55730926D02*
X129735000Y-55697593D01*
X129735000Y-55697593D02*
X129868333Y-55697593D01*
X129868333Y-55697593D02*
X129935000Y-55730926D01*
X129935000Y-55730926D02*
X130001666Y-55797593D01*
X130001666Y-55797593D02*
X130035000Y-55930926D01*
X130035000Y-55930926D02*
X130035000Y-56164260D01*
X130035000Y-56164260D02*
X130001666Y-56297593D01*
X130001666Y-56297593D02*
X129935000Y-56364260D01*
X129935000Y-56364260D02*
X129868333Y-56397593D01*
X129868333Y-56397593D02*
X129735000Y-56397593D01*
X130301666Y-55764260D02*
X130334999Y-55730926D01*
X130334999Y-55730926D02*
X130401666Y-55697593D01*
X130401666Y-55697593D02*
X130568333Y-55697593D01*
X130568333Y-55697593D02*
X130634999Y-55730926D01*
X130634999Y-55730926D02*
X130668333Y-55764260D01*
X130668333Y-55764260D02*
X130701666Y-55830926D01*
X130701666Y-55830926D02*
X130701666Y-55897593D01*
X130701666Y-55897593D02*
X130668333Y-55997593D01*
X130668333Y-55997593D02*
X130268333Y-56397593D01*
X130268333Y-56397593D02*
X130701666Y-56397593D01*
X143059999Y-38761142D02*
X143026666Y-38794476D01*
X143026666Y-38794476D02*
X142926666Y-38827809D01*
X142926666Y-38827809D02*
X142859999Y-38827809D01*
X142859999Y-38827809D02*
X142759999Y-38794476D01*
X142759999Y-38794476D02*
X142693333Y-38727809D01*
X142693333Y-38727809D02*
X142659999Y-38661142D01*
X142659999Y-38661142D02*
X142626666Y-38527809D01*
X142626666Y-38527809D02*
X142626666Y-38427809D01*
X142626666Y-38427809D02*
X142659999Y-38294476D01*
X142659999Y-38294476D02*
X142693333Y-38227809D01*
X142693333Y-38227809D02*
X142759999Y-38161142D01*
X142759999Y-38161142D02*
X142859999Y-38127809D01*
X142859999Y-38127809D02*
X142926666Y-38127809D01*
X142926666Y-38127809D02*
X143026666Y-38161142D01*
X143026666Y-38161142D02*
X143059999Y-38194476D01*
X143326666Y-38194476D02*
X143359999Y-38161142D01*
X143359999Y-38161142D02*
X143426666Y-38127809D01*
X143426666Y-38127809D02*
X143593333Y-38127809D01*
X143593333Y-38127809D02*
X143659999Y-38161142D01*
X143659999Y-38161142D02*
X143693333Y-38194476D01*
X143693333Y-38194476D02*
X143726666Y-38261142D01*
X143726666Y-38261142D02*
X143726666Y-38327809D01*
X143726666Y-38327809D02*
X143693333Y-38427809D01*
X143693333Y-38427809D02*
X143293333Y-38827809D01*
X143293333Y-38827809D02*
X143726666Y-38827809D01*
X144326666Y-38361142D02*
X144326666Y-38827809D01*
X144160000Y-38094476D02*
X143993333Y-38594476D01*
X143993333Y-38594476D02*
X144426666Y-38594476D01*
X69465926Y-55996666D02*
X69499260Y-56029999D01*
X69499260Y-56029999D02*
X69532593Y-56129999D01*
X69532593Y-56129999D02*
X69532593Y-56196666D01*
X69532593Y-56196666D02*
X69499260Y-56296666D01*
X69499260Y-56296666D02*
X69432593Y-56363333D01*
X69432593Y-56363333D02*
X69365926Y-56396666D01*
X69365926Y-56396666D02*
X69232593Y-56429999D01*
X69232593Y-56429999D02*
X69132593Y-56429999D01*
X69132593Y-56429999D02*
X68999260Y-56396666D01*
X68999260Y-56396666D02*
X68932593Y-56363333D01*
X68932593Y-56363333D02*
X68865926Y-56296666D01*
X68865926Y-56296666D02*
X68832593Y-56196666D01*
X68832593Y-56196666D02*
X68832593Y-56129999D01*
X68832593Y-56129999D02*
X68865926Y-56029999D01*
X68865926Y-56029999D02*
X68899260Y-55996666D01*
X68832593Y-55763333D02*
X68832593Y-55296666D01*
X68832593Y-55296666D02*
X69532593Y-55596666D01*
X96069999Y-41525926D02*
X96036666Y-41559260D01*
X96036666Y-41559260D02*
X95936666Y-41592593D01*
X95936666Y-41592593D02*
X95869999Y-41592593D01*
X95869999Y-41592593D02*
X95769999Y-41559260D01*
X95769999Y-41559260D02*
X95703333Y-41492593D01*
X95703333Y-41492593D02*
X95669999Y-41425926D01*
X95669999Y-41425926D02*
X95636666Y-41292593D01*
X95636666Y-41292593D02*
X95636666Y-41192593D01*
X95636666Y-41192593D02*
X95669999Y-41059260D01*
X95669999Y-41059260D02*
X95703333Y-40992593D01*
X95703333Y-40992593D02*
X95769999Y-40925926D01*
X95769999Y-40925926D02*
X95869999Y-40892593D01*
X95869999Y-40892593D02*
X95936666Y-40892593D01*
X95936666Y-40892593D02*
X96036666Y-40925926D01*
X96036666Y-40925926D02*
X96069999Y-40959260D01*
X96736666Y-41592593D02*
X96336666Y-41592593D01*
X96536666Y-41592593D02*
X96536666Y-40892593D01*
X96536666Y-40892593D02*
X96469999Y-40992593D01*
X96469999Y-40992593D02*
X96403333Y-41059260D01*
X96403333Y-41059260D02*
X96336666Y-41092593D01*
X96970000Y-40892593D02*
X97436666Y-40892593D01*
X97436666Y-40892593D02*
X97136666Y-41592593D01*
X108168333Y-50632593D02*
X107935000Y-50299260D01*
X107768333Y-50632593D02*
X107768333Y-49932593D01*
X107768333Y-49932593D02*
X108035000Y-49932593D01*
X108035000Y-49932593D02*
X108101667Y-49965926D01*
X108101667Y-49965926D02*
X108135000Y-49999260D01*
X108135000Y-49999260D02*
X108168333Y-50065926D01*
X108168333Y-50065926D02*
X108168333Y-50165926D01*
X108168333Y-50165926D02*
X108135000Y-50232593D01*
X108135000Y-50232593D02*
X108101667Y-50265926D01*
X108101667Y-50265926D02*
X108035000Y-50299260D01*
X108035000Y-50299260D02*
X107768333Y-50299260D01*
X108368333Y-49932593D02*
X108601667Y-50632593D01*
X108601667Y-50632593D02*
X108835000Y-49932593D01*
X109435000Y-50632593D02*
X109035000Y-50632593D01*
X109235000Y-50632593D02*
X109235000Y-49932593D01*
X109235000Y-49932593D02*
X109168333Y-50032593D01*
X109168333Y-50032593D02*
X109101667Y-50099260D01*
X109101667Y-50099260D02*
X109035000Y-50132593D01*
X115754999Y-65087593D02*
X115521666Y-64754260D01*
X115354999Y-65087593D02*
X115354999Y-64387593D01*
X115354999Y-64387593D02*
X115621666Y-64387593D01*
X115621666Y-64387593D02*
X115688333Y-64420926D01*
X115688333Y-64420926D02*
X115721666Y-64454260D01*
X115721666Y-64454260D02*
X115754999Y-64520926D01*
X115754999Y-64520926D02*
X115754999Y-64620926D01*
X115754999Y-64620926D02*
X115721666Y-64687593D01*
X115721666Y-64687593D02*
X115688333Y-64720926D01*
X115688333Y-64720926D02*
X115621666Y-64754260D01*
X115621666Y-64754260D02*
X115354999Y-64754260D01*
X116421666Y-65087593D02*
X116021666Y-65087593D01*
X116221666Y-65087593D02*
X116221666Y-64387593D01*
X116221666Y-64387593D02*
X116154999Y-64487593D01*
X116154999Y-64487593D02*
X116088333Y-64554260D01*
X116088333Y-64554260D02*
X116021666Y-64587593D01*
X117021666Y-64620926D02*
X117021666Y-65087593D01*
X116855000Y-64354260D02*
X116688333Y-64854260D01*
X116688333Y-64854260D02*
X117121666Y-64854260D01*
X96069999Y-39052593D02*
X95836666Y-38719260D01*
X95669999Y-39052593D02*
X95669999Y-38352593D01*
X95669999Y-38352593D02*
X95936666Y-38352593D01*
X95936666Y-38352593D02*
X96003333Y-38385926D01*
X96003333Y-38385926D02*
X96036666Y-38419260D01*
X96036666Y-38419260D02*
X96069999Y-38485926D01*
X96069999Y-38485926D02*
X96069999Y-38585926D01*
X96069999Y-38585926D02*
X96036666Y-38652593D01*
X96036666Y-38652593D02*
X96003333Y-38685926D01*
X96003333Y-38685926D02*
X95936666Y-38719260D01*
X95936666Y-38719260D02*
X95669999Y-38719260D01*
X96736666Y-39052593D02*
X96336666Y-39052593D01*
X96536666Y-39052593D02*
X96536666Y-38352593D01*
X96536666Y-38352593D02*
X96469999Y-38452593D01*
X96469999Y-38452593D02*
X96403333Y-38519260D01*
X96403333Y-38519260D02*
X96336666Y-38552593D01*
X97336666Y-38352593D02*
X97203333Y-38352593D01*
X97203333Y-38352593D02*
X97136666Y-38385926D01*
X97136666Y-38385926D02*
X97103333Y-38419260D01*
X97103333Y-38419260D02*
X97036666Y-38519260D01*
X97036666Y-38519260D02*
X97003333Y-38652593D01*
X97003333Y-38652593D02*
X97003333Y-38919260D01*
X97003333Y-38919260D02*
X97036666Y-38985926D01*
X97036666Y-38985926D02*
X97070000Y-39019260D01*
X97070000Y-39019260D02*
X97136666Y-39052593D01*
X97136666Y-39052593D02*
X97270000Y-39052593D01*
X97270000Y-39052593D02*
X97336666Y-39019260D01*
X97336666Y-39019260D02*
X97370000Y-38985926D01*
X97370000Y-38985926D02*
X97403333Y-38919260D01*
X97403333Y-38919260D02*
X97403333Y-38752593D01*
X97403333Y-38752593D02*
X97370000Y-38685926D01*
X97370000Y-38685926D02*
X97336666Y-38652593D01*
X97336666Y-38652593D02*
X97270000Y-38619260D01*
X97270000Y-38619260D02*
X97136666Y-38619260D01*
X97136666Y-38619260D02*
X97070000Y-38652593D01*
X97070000Y-38652593D02*
X97036666Y-38685926D01*
X97036666Y-38685926D02*
X97003333Y-38752593D01*
X106781666Y-36857593D02*
X106781666Y-37424260D01*
X106781666Y-37424260D02*
X106815000Y-37490926D01*
X106815000Y-37490926D02*
X106848333Y-37524260D01*
X106848333Y-37524260D02*
X106915000Y-37557593D01*
X106915000Y-37557593D02*
X107048333Y-37557593D01*
X107048333Y-37557593D02*
X107115000Y-37524260D01*
X107115000Y-37524260D02*
X107148333Y-37490926D01*
X107148333Y-37490926D02*
X107181666Y-37424260D01*
X107181666Y-37424260D02*
X107181666Y-36857593D01*
X107814999Y-36857593D02*
X107681666Y-36857593D01*
X107681666Y-36857593D02*
X107614999Y-36890926D01*
X107614999Y-36890926D02*
X107581666Y-36924260D01*
X107581666Y-36924260D02*
X107514999Y-37024260D01*
X107514999Y-37024260D02*
X107481666Y-37157593D01*
X107481666Y-37157593D02*
X107481666Y-37424260D01*
X107481666Y-37424260D02*
X107514999Y-37490926D01*
X107514999Y-37490926D02*
X107548333Y-37524260D01*
X107548333Y-37524260D02*
X107614999Y-37557593D01*
X107614999Y-37557593D02*
X107748333Y-37557593D01*
X107748333Y-37557593D02*
X107814999Y-37524260D01*
X107814999Y-37524260D02*
X107848333Y-37490926D01*
X107848333Y-37490926D02*
X107881666Y-37424260D01*
X107881666Y-37424260D02*
X107881666Y-37257593D01*
X107881666Y-37257593D02*
X107848333Y-37190926D01*
X107848333Y-37190926D02*
X107814999Y-37157593D01*
X107814999Y-37157593D02*
X107748333Y-37124260D01*
X107748333Y-37124260D02*
X107614999Y-37124260D01*
X107614999Y-37124260D02*
X107548333Y-37157593D01*
X107548333Y-37157593D02*
X107514999Y-37190926D01*
X107514999Y-37190926D02*
X107481666Y-37257593D01*
X96738333Y-50632593D02*
X96505000Y-50299260D01*
X96338333Y-50632593D02*
X96338333Y-49932593D01*
X96338333Y-49932593D02*
X96605000Y-49932593D01*
X96605000Y-49932593D02*
X96671667Y-49965926D01*
X96671667Y-49965926D02*
X96705000Y-49999260D01*
X96705000Y-49999260D02*
X96738333Y-50065926D01*
X96738333Y-50065926D02*
X96738333Y-50165926D01*
X96738333Y-50165926D02*
X96705000Y-50232593D01*
X96705000Y-50232593D02*
X96671667Y-50265926D01*
X96671667Y-50265926D02*
X96605000Y-50299260D01*
X96605000Y-50299260D02*
X96338333Y-50299260D01*
X96938333Y-49932593D02*
X97171667Y-50632593D01*
X97171667Y-50632593D02*
X97405000Y-49932593D01*
X97605000Y-49999260D02*
X97638333Y-49965926D01*
X97638333Y-49965926D02*
X97705000Y-49932593D01*
X97705000Y-49932593D02*
X97871667Y-49932593D01*
X97871667Y-49932593D02*
X97938333Y-49965926D01*
X97938333Y-49965926D02*
X97971667Y-49999260D01*
X97971667Y-49999260D02*
X98005000Y-50065926D01*
X98005000Y-50065926D02*
X98005000Y-50132593D01*
X98005000Y-50132593D02*
X97971667Y-50232593D01*
X97971667Y-50232593D02*
X97571667Y-50632593D01*
X97571667Y-50632593D02*
X98005000Y-50632593D01*
X69465926Y-60441666D02*
X69499260Y-60474999D01*
X69499260Y-60474999D02*
X69532593Y-60574999D01*
X69532593Y-60574999D02*
X69532593Y-60641666D01*
X69532593Y-60641666D02*
X69499260Y-60741666D01*
X69499260Y-60741666D02*
X69432593Y-60808333D01*
X69432593Y-60808333D02*
X69365926Y-60841666D01*
X69365926Y-60841666D02*
X69232593Y-60874999D01*
X69232593Y-60874999D02*
X69132593Y-60874999D01*
X69132593Y-60874999D02*
X68999260Y-60841666D01*
X68999260Y-60841666D02*
X68932593Y-60808333D01*
X68932593Y-60808333D02*
X68865926Y-60741666D01*
X68865926Y-60741666D02*
X68832593Y-60641666D01*
X68832593Y-60641666D02*
X68832593Y-60574999D01*
X68832593Y-60574999D02*
X68865926Y-60474999D01*
X68865926Y-60474999D02*
X68899260Y-60441666D01*
X68832593Y-60208333D02*
X68832593Y-59774999D01*
X68832593Y-59774999D02*
X69099260Y-60008333D01*
X69099260Y-60008333D02*
X69099260Y-59908333D01*
X69099260Y-59908333D02*
X69132593Y-59841666D01*
X69132593Y-59841666D02*
X69165926Y-59808333D01*
X69165926Y-59808333D02*
X69232593Y-59774999D01*
X69232593Y-59774999D02*
X69399260Y-59774999D01*
X69399260Y-59774999D02*
X69465926Y-59808333D01*
X69465926Y-59808333D02*
X69499260Y-59841666D01*
X69499260Y-59841666D02*
X69532593Y-59908333D01*
X69532593Y-59908333D02*
X69532593Y-60108333D01*
X69532593Y-60108333D02*
X69499260Y-60174999D01*
X69499260Y-60174999D02*
X69465926Y-60208333D01*
D11*
%TO.C,U2*%
X58267600Y-42938700D02*
X60398660Y-42938700D01*
X61521340Y-42938700D02*
X62938660Y-42938700D01*
X64061340Y-42938700D02*
X68018660Y-42938700D01*
X69141340Y-42938700D02*
X71272400Y-42938700D01*
X71272400Y-42938700D02*
X71272400Y-31991300D01*
X58267600Y-31991300D02*
X58267600Y-42938700D01*
X60398660Y-31991300D02*
X58267600Y-31991300D01*
X68018660Y-31991300D02*
X61521340Y-31991300D01*
X71272400Y-31991300D02*
X69141340Y-31991300D01*
D12*
X57785000Y-42545000D02*
X57150000Y-43053000D01*
X57150000Y-42037000D01*
X57785000Y-42545000D01*
G36*
X57785000Y-42545000D02*
G01*
X57150000Y-43053000D01*
X57150000Y-42037000D01*
X57785000Y-42545000D01*
G37*
D10*
%TO.C,R1*%
X78967064Y-40105000D02*
X78512936Y-40105000D01*
X78967064Y-38635000D02*
X78512936Y-38635000D01*
%TO.C,R4*%
X91212936Y-40540000D02*
X91667064Y-40540000D01*
X91212936Y-42010000D02*
X91667064Y-42010000D01*
%TO.C,TP9*%
X103925600Y-71170800D02*
G75*
G02*
X102525600Y-71170800I-700000J0D01*
G01*
X102525600Y-71170800D02*
G75*
G02*
X103925600Y-71170800I700000J0D01*
G01*
%TO.C,TP8*%
X122823200Y-73507600D02*
G75*
G02*
X121423200Y-73507600I-700000J0D01*
G01*
X121423200Y-73507600D02*
G75*
G02*
X122823200Y-73507600I700000J0D01*
G01*
%TO.C,C20*%
X141510000Y-39865431D02*
X141510000Y-41165431D01*
X142160000Y-40515431D02*
X140860000Y-40515431D01*
X144375000Y-46950000D02*
X131215000Y-46950000D01*
X144375000Y-46990000D02*
X131215000Y-46990000D01*
X144375000Y-47030000D02*
X131215000Y-47030000D01*
X144374000Y-47070000D02*
X131216000Y-47070000D01*
X144374000Y-47110000D02*
X131216000Y-47110000D01*
X144372000Y-47150000D02*
X131218000Y-47150000D01*
X144371000Y-47190000D02*
X131219000Y-47190000D01*
X144370000Y-47230000D02*
X131220000Y-47230000D01*
X144368000Y-47270000D02*
X131222000Y-47270000D01*
X144366000Y-47310000D02*
X131224000Y-47310000D01*
X144363000Y-47350000D02*
X131227000Y-47350000D01*
X144361000Y-47390000D02*
X131229000Y-47390000D01*
X144358000Y-47430000D02*
X131232000Y-47430000D01*
X144355000Y-47470000D02*
X131235000Y-47470000D01*
X144352000Y-47510000D02*
X131238000Y-47510000D01*
X144348000Y-47550000D02*
X131242000Y-47550000D01*
X144344000Y-47590000D02*
X131246000Y-47590000D01*
X144340000Y-47630000D02*
X131250000Y-47630000D01*
X144336000Y-47671000D02*
X131254000Y-47671000D01*
X144332000Y-47711000D02*
X131258000Y-47711000D01*
X144327000Y-47751000D02*
X131263000Y-47751000D01*
X144322000Y-47791000D02*
X131268000Y-47791000D01*
X144317000Y-47831000D02*
X131273000Y-47831000D01*
X144311000Y-47871000D02*
X131279000Y-47871000D01*
X144306000Y-47911000D02*
X131284000Y-47911000D01*
X144300000Y-47951000D02*
X131290000Y-47951000D01*
X144293000Y-47991000D02*
X131297000Y-47991000D01*
X144287000Y-48031000D02*
X139235000Y-48031000D01*
X136355000Y-48031000D02*
X131303000Y-48031000D01*
X144280000Y-48071000D02*
X139235000Y-48071000D01*
X136355000Y-48071000D02*
X131310000Y-48071000D01*
X144273000Y-48111000D02*
X139235000Y-48111000D01*
X136355000Y-48111000D02*
X131317000Y-48111000D01*
X144266000Y-48151000D02*
X139235000Y-48151000D01*
X136355000Y-48151000D02*
X131324000Y-48151000D01*
X144258000Y-48191000D02*
X139235000Y-48191000D01*
X136355000Y-48191000D02*
X131332000Y-48191000D01*
X144251000Y-48231000D02*
X139235000Y-48231000D01*
X136355000Y-48231000D02*
X131339000Y-48231000D01*
X144243000Y-48271000D02*
X139235000Y-48271000D01*
X136355000Y-48271000D02*
X131347000Y-48271000D01*
X144234000Y-48311000D02*
X139235000Y-48311000D01*
X136355000Y-48311000D02*
X131356000Y-48311000D01*
X144226000Y-48351000D02*
X139235000Y-48351000D01*
X136355000Y-48351000D02*
X131364000Y-48351000D01*
X144217000Y-48391000D02*
X139235000Y-48391000D01*
X136355000Y-48391000D02*
X131373000Y-48391000D01*
X144208000Y-48431000D02*
X139235000Y-48431000D01*
X136355000Y-48431000D02*
X131382000Y-48431000D01*
X144199000Y-48471000D02*
X139235000Y-48471000D01*
X136355000Y-48471000D02*
X131391000Y-48471000D01*
X144189000Y-48511000D02*
X139235000Y-48511000D01*
X136355000Y-48511000D02*
X131401000Y-48511000D01*
X144179000Y-48551000D02*
X139235000Y-48551000D01*
X136355000Y-48551000D02*
X131411000Y-48551000D01*
X144169000Y-48591000D02*
X139235000Y-48591000D01*
X136355000Y-48591000D02*
X131421000Y-48591000D01*
X144159000Y-48631000D02*
X139235000Y-48631000D01*
X136355000Y-48631000D02*
X131431000Y-48631000D01*
X144148000Y-48671000D02*
X139235000Y-48671000D01*
X136355000Y-48671000D02*
X131442000Y-48671000D01*
X144137000Y-48711000D02*
X139235000Y-48711000D01*
X136355000Y-48711000D02*
X131453000Y-48711000D01*
X144126000Y-48751000D02*
X139235000Y-48751000D01*
X136355000Y-48751000D02*
X131464000Y-48751000D01*
X144115000Y-48791000D02*
X139235000Y-48791000D01*
X136355000Y-48791000D02*
X131475000Y-48791000D01*
X144103000Y-48831000D02*
X139235000Y-48831000D01*
X136355000Y-48831000D02*
X131487000Y-48831000D01*
X144091000Y-48871000D02*
X139235000Y-48871000D01*
X136355000Y-48871000D02*
X131499000Y-48871000D01*
X144079000Y-48911000D02*
X139235000Y-48911000D01*
X136355000Y-48911000D02*
X131511000Y-48911000D01*
X144066000Y-48951000D02*
X139235000Y-48951000D01*
X136355000Y-48951000D02*
X131524000Y-48951000D01*
X144053000Y-48991000D02*
X139235000Y-48991000D01*
X136355000Y-48991000D02*
X131537000Y-48991000D01*
X144040000Y-49031000D02*
X139235000Y-49031000D01*
X136355000Y-49031000D02*
X131550000Y-49031000D01*
X144027000Y-49071000D02*
X139235000Y-49071000D01*
X136355000Y-49071000D02*
X131563000Y-49071000D01*
X144013000Y-49111000D02*
X139235000Y-49111000D01*
X136355000Y-49111000D02*
X131577000Y-49111000D01*
X143999000Y-49151000D02*
X139235000Y-49151000D01*
X136355000Y-49151000D02*
X131591000Y-49151000D01*
X143985000Y-49191000D02*
X139235000Y-49191000D01*
X136355000Y-49191000D02*
X131605000Y-49191000D01*
X143970000Y-49231000D02*
X139235000Y-49231000D01*
X136355000Y-49231000D02*
X131620000Y-49231000D01*
X143956000Y-49271000D02*
X139235000Y-49271000D01*
X136355000Y-49271000D02*
X131634000Y-49271000D01*
X143941000Y-49311000D02*
X139235000Y-49311000D01*
X136355000Y-49311000D02*
X131649000Y-49311000D01*
X143925000Y-49351000D02*
X139235000Y-49351000D01*
X136355000Y-49351000D02*
X131665000Y-49351000D01*
X143909000Y-49391000D02*
X139235000Y-49391000D01*
X136355000Y-49391000D02*
X131681000Y-49391000D01*
X143893000Y-49431000D02*
X139235000Y-49431000D01*
X136355000Y-49431000D02*
X131697000Y-49431000D01*
X143877000Y-49471000D02*
X139235000Y-49471000D01*
X136355000Y-49471000D02*
X131713000Y-49471000D01*
X143860000Y-49511000D02*
X139235000Y-49511000D01*
X136355000Y-49511000D02*
X131730000Y-49511000D01*
X143844000Y-49551000D02*
X139235000Y-49551000D01*
X136355000Y-49551000D02*
X131746000Y-49551000D01*
X143826000Y-49591000D02*
X139235000Y-49591000D01*
X136355000Y-49591000D02*
X131764000Y-49591000D01*
X143809000Y-49631000D02*
X139235000Y-49631000D01*
X136355000Y-49631000D02*
X131781000Y-49631000D01*
X143791000Y-49671000D02*
X139235000Y-49671000D01*
X136355000Y-49671000D02*
X131799000Y-49671000D01*
X143773000Y-49711000D02*
X139235000Y-49711000D01*
X136355000Y-49711000D02*
X131817000Y-49711000D01*
X143754000Y-49751000D02*
X139235000Y-49751000D01*
X136355000Y-49751000D02*
X131836000Y-49751000D01*
X143735000Y-49791000D02*
X139235000Y-49791000D01*
X136355000Y-49791000D02*
X131855000Y-49791000D01*
X143716000Y-49831000D02*
X139235000Y-49831000D01*
X136355000Y-49831000D02*
X131874000Y-49831000D01*
X143697000Y-49871000D02*
X139235000Y-49871000D01*
X136355000Y-49871000D02*
X131893000Y-49871000D01*
X143677000Y-49911000D02*
X139235000Y-49911000D01*
X136355000Y-49911000D02*
X131913000Y-49911000D01*
X143657000Y-49951000D02*
X139235000Y-49951000D01*
X136355000Y-49951000D02*
X131933000Y-49951000D01*
X143636000Y-49991000D02*
X139235000Y-49991000D01*
X136355000Y-49991000D02*
X131954000Y-49991000D01*
X143615000Y-50031000D02*
X139235000Y-50031000D01*
X136355000Y-50031000D02*
X131975000Y-50031000D01*
X143594000Y-50071000D02*
X139235000Y-50071000D01*
X136355000Y-50071000D02*
X131996000Y-50071000D01*
X143573000Y-50111000D02*
X139235000Y-50111000D01*
X136355000Y-50111000D02*
X132017000Y-50111000D01*
X143551000Y-50151000D02*
X139235000Y-50151000D01*
X136355000Y-50151000D02*
X132039000Y-50151000D01*
X143528000Y-50191000D02*
X139235000Y-50191000D01*
X136355000Y-50191000D02*
X132062000Y-50191000D01*
X143506000Y-50231000D02*
X139235000Y-50231000D01*
X136355000Y-50231000D02*
X132084000Y-50231000D01*
X143483000Y-50271000D02*
X139235000Y-50271000D01*
X136355000Y-50271000D02*
X132107000Y-50271000D01*
X143459000Y-50311000D02*
X139235000Y-50311000D01*
X136355000Y-50311000D02*
X132131000Y-50311000D01*
X143436000Y-50351000D02*
X139235000Y-50351000D01*
X136355000Y-50351000D02*
X132154000Y-50351000D01*
X143412000Y-50391000D02*
X139235000Y-50391000D01*
X136355000Y-50391000D02*
X132178000Y-50391000D01*
X143387000Y-50431000D02*
X139235000Y-50431000D01*
X136355000Y-50431000D02*
X132203000Y-50431000D01*
X143362000Y-50471000D02*
X139235000Y-50471000D01*
X136355000Y-50471000D02*
X132228000Y-50471000D01*
X143337000Y-50511000D02*
X139235000Y-50511000D01*
X136355000Y-50511000D02*
X132253000Y-50511000D01*
X143311000Y-50551000D02*
X139235000Y-50551000D01*
X136355000Y-50551000D02*
X132279000Y-50551000D01*
X143285000Y-50591000D02*
X139235000Y-50591000D01*
X136355000Y-50591000D02*
X132305000Y-50591000D01*
X143258000Y-50631000D02*
X139235000Y-50631000D01*
X136355000Y-50631000D02*
X132332000Y-50631000D01*
X143231000Y-50671000D02*
X139235000Y-50671000D01*
X136355000Y-50671000D02*
X132359000Y-50671000D01*
X143204000Y-50711000D02*
X139235000Y-50711000D01*
X136355000Y-50711000D02*
X132386000Y-50711000D01*
X143176000Y-50751000D02*
X139235000Y-50751000D01*
X136355000Y-50751000D02*
X132414000Y-50751000D01*
X143148000Y-50791000D02*
X139235000Y-50791000D01*
X136355000Y-50791000D02*
X132442000Y-50791000D01*
X143119000Y-50831000D02*
X139235000Y-50831000D01*
X136355000Y-50831000D02*
X132471000Y-50831000D01*
X143090000Y-50871000D02*
X139235000Y-50871000D01*
X136355000Y-50871000D02*
X132500000Y-50871000D01*
X143060000Y-50911000D02*
X132530000Y-50911000D01*
X143030000Y-50951000D02*
X132560000Y-50951000D01*
X143000000Y-50991000D02*
X132590000Y-50991000D01*
X142969000Y-51031000D02*
X132621000Y-51031000D01*
X142937000Y-51071000D02*
X132653000Y-51071000D01*
X142905000Y-51111000D02*
X132685000Y-51111000D01*
X142873000Y-51151000D02*
X132717000Y-51151000D01*
X142839000Y-51191000D02*
X132751000Y-51191000D01*
X142806000Y-51231000D02*
X132784000Y-51231000D01*
X142772000Y-51271000D02*
X132818000Y-51271000D01*
X142737000Y-51311000D02*
X132853000Y-51311000D01*
X142702000Y-51351000D02*
X132888000Y-51351000D01*
X142666000Y-51391000D02*
X132924000Y-51391000D01*
X142629000Y-51431000D02*
X132961000Y-51431000D01*
X142592000Y-51471000D02*
X132998000Y-51471000D01*
X142555000Y-51511000D02*
X133035000Y-51511000D01*
X142516000Y-51551000D02*
X133074000Y-51551000D01*
X142477000Y-51591000D02*
X133113000Y-51591000D01*
X142438000Y-51631000D02*
X133152000Y-51631000D01*
X142397000Y-51671000D02*
X133193000Y-51671000D01*
X142356000Y-51711000D02*
X133234000Y-51711000D01*
X142314000Y-51751000D02*
X133276000Y-51751000D01*
X142272000Y-51791000D02*
X133318000Y-51791000D01*
X142229000Y-51831000D02*
X133361000Y-51831000D01*
X142185000Y-51871000D02*
X133405000Y-51871000D01*
X142140000Y-51911000D02*
X133450000Y-51911000D01*
X142094000Y-51951000D02*
X133496000Y-51951000D01*
X142048000Y-51991000D02*
X133542000Y-51991000D01*
X142000000Y-52031000D02*
X133590000Y-52031000D01*
X141952000Y-52071000D02*
X133638000Y-52071000D01*
X141903000Y-52111000D02*
X133687000Y-52111000D01*
X141852000Y-52151000D02*
X133738000Y-52151000D01*
X141801000Y-52191000D02*
X133789000Y-52191000D01*
X141749000Y-52231000D02*
X133841000Y-52231000D01*
X141695000Y-52271000D02*
X133895000Y-52271000D01*
X141641000Y-52311000D02*
X133949000Y-52311000D01*
X141585000Y-52351000D02*
X134005000Y-52351000D01*
X141528000Y-52391000D02*
X134062000Y-52391000D01*
X141470000Y-52431000D02*
X134120000Y-52431000D01*
X141410000Y-52471000D02*
X134180000Y-52471000D01*
X141349000Y-52511000D02*
X134241000Y-52511000D01*
X141286000Y-52551000D02*
X134304000Y-52551000D01*
X141222000Y-52591000D02*
X134368000Y-52591000D01*
X141156000Y-52631000D02*
X134434000Y-52631000D01*
X141088000Y-52671000D02*
X134502000Y-52671000D01*
X141018000Y-52711000D02*
X134572000Y-52711000D01*
X140947000Y-52751000D02*
X134643000Y-52751000D01*
X140873000Y-52791000D02*
X134717000Y-52791000D01*
X140797000Y-52831000D02*
X134793000Y-52831000D01*
X140718000Y-52871000D02*
X134872000Y-52871000D01*
X140637000Y-52911000D02*
X134953000Y-52911000D01*
X140553000Y-52951000D02*
X135037000Y-52951000D01*
X140465000Y-52991000D02*
X135125000Y-52991000D01*
X140374000Y-53031000D02*
X135216000Y-53031000D01*
X140279000Y-53071000D02*
X135311000Y-53071000D01*
X140180000Y-53111000D02*
X135410000Y-53111000D01*
X140076000Y-53151000D02*
X135514000Y-53151000D01*
X139966000Y-53191000D02*
X135624000Y-53191000D01*
X139850000Y-53231000D02*
X135740000Y-53231000D01*
X139726000Y-53271000D02*
X135864000Y-53271000D01*
X139593000Y-53311000D02*
X135997000Y-53311000D01*
X139448000Y-53351000D02*
X136142000Y-53351000D01*
X139289000Y-53391000D02*
X136301000Y-53391000D01*
X139110000Y-53431000D02*
X136480000Y-53431000D01*
X138902000Y-53471000D02*
X136688000Y-53471000D01*
X138645000Y-53511000D02*
X136945000Y-53511000D01*
X138270000Y-53551000D02*
X137320000Y-53551000D01*
X144415000Y-46950000D02*
G75*
G02*
X131175000Y-46950000I-6620000J0D01*
G01*
X131175000Y-46950000D02*
G75*
G02*
X144415000Y-46950000I6620000J0D01*
G01*
%TO.C,C4*%
X127540000Y-39865431D02*
X127540000Y-41165431D01*
X128190000Y-40515431D02*
X126890000Y-40515431D01*
X130405000Y-46950000D02*
X117245000Y-46950000D01*
X130405000Y-46990000D02*
X117245000Y-46990000D01*
X130405000Y-47030000D02*
X117245000Y-47030000D01*
X130404000Y-47070000D02*
X117246000Y-47070000D01*
X130404000Y-47110000D02*
X117246000Y-47110000D01*
X130402000Y-47150000D02*
X117248000Y-47150000D01*
X130401000Y-47190000D02*
X117249000Y-47190000D01*
X130400000Y-47230000D02*
X117250000Y-47230000D01*
X130398000Y-47270000D02*
X117252000Y-47270000D01*
X130396000Y-47310000D02*
X117254000Y-47310000D01*
X130393000Y-47350000D02*
X117257000Y-47350000D01*
X130391000Y-47390000D02*
X117259000Y-47390000D01*
X130388000Y-47430000D02*
X117262000Y-47430000D01*
X130385000Y-47470000D02*
X117265000Y-47470000D01*
X130382000Y-47510000D02*
X117268000Y-47510000D01*
X130378000Y-47550000D02*
X117272000Y-47550000D01*
X130374000Y-47590000D02*
X117276000Y-47590000D01*
X130370000Y-47630000D02*
X117280000Y-47630000D01*
X130366000Y-47671000D02*
X117284000Y-47671000D01*
X130362000Y-47711000D02*
X117288000Y-47711000D01*
X130357000Y-47751000D02*
X117293000Y-47751000D01*
X130352000Y-47791000D02*
X117298000Y-47791000D01*
X130347000Y-47831000D02*
X117303000Y-47831000D01*
X130341000Y-47871000D02*
X117309000Y-47871000D01*
X130336000Y-47911000D02*
X117314000Y-47911000D01*
X130330000Y-47951000D02*
X117320000Y-47951000D01*
X130323000Y-47991000D02*
X117327000Y-47991000D01*
X130317000Y-48031000D02*
X125265000Y-48031000D01*
X122385000Y-48031000D02*
X117333000Y-48031000D01*
X130310000Y-48071000D02*
X125265000Y-48071000D01*
X122385000Y-48071000D02*
X117340000Y-48071000D01*
X130303000Y-48111000D02*
X125265000Y-48111000D01*
X122385000Y-48111000D02*
X117347000Y-48111000D01*
X130296000Y-48151000D02*
X125265000Y-48151000D01*
X122385000Y-48151000D02*
X117354000Y-48151000D01*
X130288000Y-48191000D02*
X125265000Y-48191000D01*
X122385000Y-48191000D02*
X117362000Y-48191000D01*
X130281000Y-48231000D02*
X125265000Y-48231000D01*
X122385000Y-48231000D02*
X117369000Y-48231000D01*
X130273000Y-48271000D02*
X125265000Y-48271000D01*
X122385000Y-48271000D02*
X117377000Y-48271000D01*
X130264000Y-48311000D02*
X125265000Y-48311000D01*
X122385000Y-48311000D02*
X117386000Y-48311000D01*
X130256000Y-48351000D02*
X125265000Y-48351000D01*
X122385000Y-48351000D02*
X117394000Y-48351000D01*
X130247000Y-48391000D02*
X125265000Y-48391000D01*
X122385000Y-48391000D02*
X117403000Y-48391000D01*
X130238000Y-48431000D02*
X125265000Y-48431000D01*
X122385000Y-48431000D02*
X117412000Y-48431000D01*
X130229000Y-48471000D02*
X125265000Y-48471000D01*
X122385000Y-48471000D02*
X117421000Y-48471000D01*
X130219000Y-48511000D02*
X125265000Y-48511000D01*
X122385000Y-48511000D02*
X117431000Y-48511000D01*
X130209000Y-48551000D02*
X125265000Y-48551000D01*
X122385000Y-48551000D02*
X117441000Y-48551000D01*
X130199000Y-48591000D02*
X125265000Y-48591000D01*
X122385000Y-48591000D02*
X117451000Y-48591000D01*
X130189000Y-48631000D02*
X125265000Y-48631000D01*
X122385000Y-48631000D02*
X117461000Y-48631000D01*
X130178000Y-48671000D02*
X125265000Y-48671000D01*
X122385000Y-48671000D02*
X117472000Y-48671000D01*
X130167000Y-48711000D02*
X125265000Y-48711000D01*
X122385000Y-48711000D02*
X117483000Y-48711000D01*
X130156000Y-48751000D02*
X125265000Y-48751000D01*
X122385000Y-48751000D02*
X117494000Y-48751000D01*
X130145000Y-48791000D02*
X125265000Y-48791000D01*
X122385000Y-48791000D02*
X117505000Y-48791000D01*
X130133000Y-48831000D02*
X125265000Y-48831000D01*
X122385000Y-48831000D02*
X117517000Y-48831000D01*
X130121000Y-48871000D02*
X125265000Y-48871000D01*
X122385000Y-48871000D02*
X117529000Y-48871000D01*
X130109000Y-48911000D02*
X125265000Y-48911000D01*
X122385000Y-48911000D02*
X117541000Y-48911000D01*
X130096000Y-48951000D02*
X125265000Y-48951000D01*
X122385000Y-48951000D02*
X117554000Y-48951000D01*
X130083000Y-48991000D02*
X125265000Y-48991000D01*
X122385000Y-48991000D02*
X117567000Y-48991000D01*
X130070000Y-49031000D02*
X125265000Y-49031000D01*
X122385000Y-49031000D02*
X117580000Y-49031000D01*
X130057000Y-49071000D02*
X125265000Y-49071000D01*
X122385000Y-49071000D02*
X117593000Y-49071000D01*
X130043000Y-49111000D02*
X125265000Y-49111000D01*
X122385000Y-49111000D02*
X117607000Y-49111000D01*
X130029000Y-49151000D02*
X125265000Y-49151000D01*
X122385000Y-49151000D02*
X117621000Y-49151000D01*
X130015000Y-49191000D02*
X125265000Y-49191000D01*
X122385000Y-49191000D02*
X117635000Y-49191000D01*
X130000000Y-49231000D02*
X125265000Y-49231000D01*
X122385000Y-49231000D02*
X117650000Y-49231000D01*
X129986000Y-49271000D02*
X125265000Y-49271000D01*
X122385000Y-49271000D02*
X117664000Y-49271000D01*
X129971000Y-49311000D02*
X125265000Y-49311000D01*
X122385000Y-49311000D02*
X117679000Y-49311000D01*
X129955000Y-49351000D02*
X125265000Y-49351000D01*
X122385000Y-49351000D02*
X117695000Y-49351000D01*
X129939000Y-49391000D02*
X125265000Y-49391000D01*
X122385000Y-49391000D02*
X117711000Y-49391000D01*
X129923000Y-49431000D02*
X125265000Y-49431000D01*
X122385000Y-49431000D02*
X117727000Y-49431000D01*
X129907000Y-49471000D02*
X125265000Y-49471000D01*
X122385000Y-49471000D02*
X117743000Y-49471000D01*
X129890000Y-49511000D02*
X125265000Y-49511000D01*
X122385000Y-49511000D02*
X117760000Y-49511000D01*
X129874000Y-49551000D02*
X125265000Y-49551000D01*
X122385000Y-49551000D02*
X117776000Y-49551000D01*
X129856000Y-49591000D02*
X125265000Y-49591000D01*
X122385000Y-49591000D02*
X117794000Y-49591000D01*
X129839000Y-49631000D02*
X125265000Y-49631000D01*
X122385000Y-49631000D02*
X117811000Y-49631000D01*
X129821000Y-49671000D02*
X125265000Y-49671000D01*
X122385000Y-49671000D02*
X117829000Y-49671000D01*
X129803000Y-49711000D02*
X125265000Y-49711000D01*
X122385000Y-49711000D02*
X117847000Y-49711000D01*
X129784000Y-49751000D02*
X125265000Y-49751000D01*
X122385000Y-49751000D02*
X117866000Y-49751000D01*
X129765000Y-49791000D02*
X125265000Y-49791000D01*
X122385000Y-49791000D02*
X117885000Y-49791000D01*
X129746000Y-49831000D02*
X125265000Y-49831000D01*
X122385000Y-49831000D02*
X117904000Y-49831000D01*
X129727000Y-49871000D02*
X125265000Y-49871000D01*
X122385000Y-49871000D02*
X117923000Y-49871000D01*
X129707000Y-49911000D02*
X125265000Y-49911000D01*
X122385000Y-49911000D02*
X117943000Y-49911000D01*
X129687000Y-49951000D02*
X125265000Y-49951000D01*
X122385000Y-49951000D02*
X117963000Y-49951000D01*
X129666000Y-49991000D02*
X125265000Y-49991000D01*
X122385000Y-49991000D02*
X117984000Y-49991000D01*
X129645000Y-50031000D02*
X125265000Y-50031000D01*
X122385000Y-50031000D02*
X118005000Y-50031000D01*
X129624000Y-50071000D02*
X125265000Y-50071000D01*
X122385000Y-50071000D02*
X118026000Y-50071000D01*
X129603000Y-50111000D02*
X125265000Y-50111000D01*
X122385000Y-50111000D02*
X118047000Y-50111000D01*
X129581000Y-50151000D02*
X125265000Y-50151000D01*
X122385000Y-50151000D02*
X118069000Y-50151000D01*
X129558000Y-50191000D02*
X125265000Y-50191000D01*
X122385000Y-50191000D02*
X118092000Y-50191000D01*
X129536000Y-50231000D02*
X125265000Y-50231000D01*
X122385000Y-50231000D02*
X118114000Y-50231000D01*
X129513000Y-50271000D02*
X125265000Y-50271000D01*
X122385000Y-50271000D02*
X118137000Y-50271000D01*
X129489000Y-50311000D02*
X125265000Y-50311000D01*
X122385000Y-50311000D02*
X118161000Y-50311000D01*
X129466000Y-50351000D02*
X125265000Y-50351000D01*
X122385000Y-50351000D02*
X118184000Y-50351000D01*
X129442000Y-50391000D02*
X125265000Y-50391000D01*
X122385000Y-50391000D02*
X118208000Y-50391000D01*
X129417000Y-50431000D02*
X125265000Y-50431000D01*
X122385000Y-50431000D02*
X118233000Y-50431000D01*
X129392000Y-50471000D02*
X125265000Y-50471000D01*
X122385000Y-50471000D02*
X118258000Y-50471000D01*
X129367000Y-50511000D02*
X125265000Y-50511000D01*
X122385000Y-50511000D02*
X118283000Y-50511000D01*
X129341000Y-50551000D02*
X125265000Y-50551000D01*
X122385000Y-50551000D02*
X118309000Y-50551000D01*
X129315000Y-50591000D02*
X125265000Y-50591000D01*
X122385000Y-50591000D02*
X118335000Y-50591000D01*
X129288000Y-50631000D02*
X125265000Y-50631000D01*
X122385000Y-50631000D02*
X118362000Y-50631000D01*
X129261000Y-50671000D02*
X125265000Y-50671000D01*
X122385000Y-50671000D02*
X118389000Y-50671000D01*
X129234000Y-50711000D02*
X125265000Y-50711000D01*
X122385000Y-50711000D02*
X118416000Y-50711000D01*
X129206000Y-50751000D02*
X125265000Y-50751000D01*
X122385000Y-50751000D02*
X118444000Y-50751000D01*
X129178000Y-50791000D02*
X125265000Y-50791000D01*
X122385000Y-50791000D02*
X118472000Y-50791000D01*
X129149000Y-50831000D02*
X125265000Y-50831000D01*
X122385000Y-50831000D02*
X118501000Y-50831000D01*
X129120000Y-50871000D02*
X125265000Y-50871000D01*
X122385000Y-50871000D02*
X118530000Y-50871000D01*
X129090000Y-50911000D02*
X118560000Y-50911000D01*
X129060000Y-50951000D02*
X118590000Y-50951000D01*
X129030000Y-50991000D02*
X118620000Y-50991000D01*
X128999000Y-51031000D02*
X118651000Y-51031000D01*
X128967000Y-51071000D02*
X118683000Y-51071000D01*
X128935000Y-51111000D02*
X118715000Y-51111000D01*
X128903000Y-51151000D02*
X118747000Y-51151000D01*
X128869000Y-51191000D02*
X118781000Y-51191000D01*
X128836000Y-51231000D02*
X118814000Y-51231000D01*
X128802000Y-51271000D02*
X118848000Y-51271000D01*
X128767000Y-51311000D02*
X118883000Y-51311000D01*
X128732000Y-51351000D02*
X118918000Y-51351000D01*
X128696000Y-51391000D02*
X118954000Y-51391000D01*
X128659000Y-51431000D02*
X118991000Y-51431000D01*
X128622000Y-51471000D02*
X119028000Y-51471000D01*
X128585000Y-51511000D02*
X119065000Y-51511000D01*
X128546000Y-51551000D02*
X119104000Y-51551000D01*
X128507000Y-51591000D02*
X119143000Y-51591000D01*
X128468000Y-51631000D02*
X119182000Y-51631000D01*
X128427000Y-51671000D02*
X119223000Y-51671000D01*
X128386000Y-51711000D02*
X119264000Y-51711000D01*
X128344000Y-51751000D02*
X119306000Y-51751000D01*
X128302000Y-51791000D02*
X119348000Y-51791000D01*
X128259000Y-51831000D02*
X119391000Y-51831000D01*
X128215000Y-51871000D02*
X119435000Y-51871000D01*
X128170000Y-51911000D02*
X119480000Y-51911000D01*
X128124000Y-51951000D02*
X119526000Y-51951000D01*
X128078000Y-51991000D02*
X119572000Y-51991000D01*
X128030000Y-52031000D02*
X119620000Y-52031000D01*
X127982000Y-52071000D02*
X119668000Y-52071000D01*
X127933000Y-52111000D02*
X119717000Y-52111000D01*
X127882000Y-52151000D02*
X119768000Y-52151000D01*
X127831000Y-52191000D02*
X119819000Y-52191000D01*
X127779000Y-52231000D02*
X119871000Y-52231000D01*
X127725000Y-52271000D02*
X119925000Y-52271000D01*
X127671000Y-52311000D02*
X119979000Y-52311000D01*
X127615000Y-52351000D02*
X120035000Y-52351000D01*
X127558000Y-52391000D02*
X120092000Y-52391000D01*
X127500000Y-52431000D02*
X120150000Y-52431000D01*
X127440000Y-52471000D02*
X120210000Y-52471000D01*
X127379000Y-52511000D02*
X120271000Y-52511000D01*
X127316000Y-52551000D02*
X120334000Y-52551000D01*
X127252000Y-52591000D02*
X120398000Y-52591000D01*
X127186000Y-52631000D02*
X120464000Y-52631000D01*
X127118000Y-52671000D02*
X120532000Y-52671000D01*
X127048000Y-52711000D02*
X120602000Y-52711000D01*
X126977000Y-52751000D02*
X120673000Y-52751000D01*
X126903000Y-52791000D02*
X120747000Y-52791000D01*
X126827000Y-52831000D02*
X120823000Y-52831000D01*
X126748000Y-52871000D02*
X120902000Y-52871000D01*
X126667000Y-52911000D02*
X120983000Y-52911000D01*
X126583000Y-52951000D02*
X121067000Y-52951000D01*
X126495000Y-52991000D02*
X121155000Y-52991000D01*
X126404000Y-53031000D02*
X121246000Y-53031000D01*
X126309000Y-53071000D02*
X121341000Y-53071000D01*
X126210000Y-53111000D02*
X121440000Y-53111000D01*
X126106000Y-53151000D02*
X121544000Y-53151000D01*
X125996000Y-53191000D02*
X121654000Y-53191000D01*
X125880000Y-53231000D02*
X121770000Y-53231000D01*
X125756000Y-53271000D02*
X121894000Y-53271000D01*
X125623000Y-53311000D02*
X122027000Y-53311000D01*
X125478000Y-53351000D02*
X122172000Y-53351000D01*
X125319000Y-53391000D02*
X122331000Y-53391000D01*
X125140000Y-53431000D02*
X122510000Y-53431000D01*
X124932000Y-53471000D02*
X122718000Y-53471000D01*
X124675000Y-53511000D02*
X122975000Y-53511000D01*
X124300000Y-53551000D02*
X123350000Y-53551000D01*
X130445000Y-46950000D02*
G75*
G02*
X117205000Y-46950000I-6620000J0D01*
G01*
X117205000Y-46950000D02*
G75*
G02*
X130445000Y-46950000I6620000J0D01*
G01*
%TO.C,D2*%
X76655000Y-66945000D02*
X72645000Y-66945000D01*
X76655000Y-68945000D02*
X76655000Y-66945000D01*
X76655000Y-68945000D02*
X72645000Y-68945000D01*
%TO.C,R6*%
X59917064Y-63400000D02*
X59462936Y-63400000D01*
X59917064Y-64870000D02*
X59462936Y-64870000D01*
%TO.C,R3*%
X71347064Y-63400000D02*
X70892936Y-63400000D01*
X71347064Y-64870000D02*
X70892936Y-64870000D01*
%TO.C,R8*%
X100557064Y-65505000D02*
X100102936Y-65505000D01*
X100557064Y-64035000D02*
X100102936Y-64035000D01*
%TO.C,C11*%
X54510000Y-60586252D02*
X54510000Y-60063748D01*
X55980000Y-60586252D02*
X55980000Y-60063748D01*
%TO.C,C19*%
X100591252Y-66575000D02*
X100068748Y-66575000D01*
X100591252Y-68045000D02*
X100068748Y-68045000D01*
%TO.C,TP6*%
X80710000Y-46990000D02*
G75*
G02*
X79310000Y-46990000I-700000J0D01*
G01*
X79310000Y-46990000D02*
G75*
G02*
X80710000Y-46990000I700000J0D01*
G01*
%TO.C,R17*%
X78512936Y-45185000D02*
X78967064Y-45185000D01*
X78512936Y-43715000D02*
X78967064Y-43715000D01*
%TO.C,D6*%
X84635000Y-60055000D02*
X88645000Y-60055000D01*
X84635000Y-58055000D02*
X88645000Y-58055000D01*
X84635000Y-58055000D02*
X84635000Y-60055000D01*
%TO.C,C5*%
X80906252Y-35079000D02*
X80383748Y-35079000D01*
X80906252Y-36549000D02*
X80383748Y-36549000D01*
%TO.C,TP2*%
X66740000Y-53975000D02*
G75*
G02*
X65340000Y-53975000I-700000J0D01*
G01*
X65340000Y-53975000D02*
G75*
G02*
X66740000Y-53975000I700000J0D01*
G01*
%TO.C,C23*%
X99956252Y-44550000D02*
X99433748Y-44550000D01*
X99956252Y-43080000D02*
X99433748Y-43080000D01*
%TO.C,C8*%
X91178748Y-39470000D02*
X91701252Y-39470000D01*
X91178748Y-38000000D02*
X91701252Y-38000000D01*
%TO.C,C9*%
X63238748Y-63400000D02*
X63761252Y-63400000D01*
X63238748Y-64870000D02*
X63761252Y-64870000D01*
%TO.C,D1*%
X79645000Y-60145000D02*
X79645000Y-56135000D01*
X79645000Y-60145000D02*
X81645000Y-60145000D01*
X81645000Y-60145000D02*
X81645000Y-56135000D01*
%TO.C,R15*%
X112802936Y-69115000D02*
X113257064Y-69115000D01*
X112802936Y-70585000D02*
X113257064Y-70585000D01*
%TO.C,C14*%
X112133748Y-45620000D02*
X112656252Y-45620000D01*
X112133748Y-47090000D02*
X112656252Y-47090000D01*
%TO.C,J2*%
X141715000Y-75360000D02*
X141715000Y-69340000D01*
X141715000Y-69340000D02*
X136415000Y-69340000D01*
X141135000Y-69940000D02*
X141135000Y-69340000D01*
X140335000Y-74360000D02*
X140335000Y-75360000D01*
X140085000Y-75360000D02*
X140085000Y-74360000D01*
X140085000Y-73830000D02*
X140335000Y-74360000D01*
X139535000Y-69940000D02*
X141135000Y-69940000D01*
X139535000Y-69340000D02*
X139535000Y-69940000D01*
X138595000Y-69940000D02*
X138595000Y-69340000D01*
X138045000Y-75360000D02*
X138045000Y-74360000D01*
X138045000Y-73830000D02*
X140085000Y-73830000D01*
X137795000Y-75360000D02*
X137795000Y-74360000D01*
X137795000Y-74360000D02*
X140335000Y-74360000D01*
X137795000Y-74360000D02*
X138045000Y-73830000D01*
X136995000Y-69940000D02*
X138595000Y-69940000D01*
X136995000Y-69340000D02*
X136995000Y-69940000D01*
X136415000Y-75360000D02*
X141715000Y-75360000D01*
X136415000Y-69340000D02*
X136415000Y-75360000D01*
X136125000Y-70370000D02*
X136125000Y-74370000D01*
%TO.C,D4*%
X65040000Y-60145000D02*
X65040000Y-56135000D01*
X65040000Y-60145000D02*
X67040000Y-60145000D01*
X67040000Y-60145000D02*
X67040000Y-56135000D01*
%TO.C,U4*%
X56915000Y-55875000D02*
X58175000Y-55875000D01*
X56915000Y-59635000D02*
X56915000Y-55875000D01*
X63735000Y-55875000D02*
X62475000Y-55875000D01*
X63735000Y-59635000D02*
X63735000Y-55875000D01*
X57015000Y-60915000D02*
X56685000Y-61155000D01*
X56685000Y-60675000D01*
X57015000Y-60915000D01*
G36*
X57015000Y-60915000D02*
G01*
X56685000Y-61155000D01*
X56685000Y-60675000D01*
X57015000Y-60915000D01*
G37*
%TO.C,R2*%
X75157064Y-63400000D02*
X74702936Y-63400000D01*
X75157064Y-64870000D02*
X74702936Y-64870000D01*
%TO.C,C21*%
X122385000Y-34061000D02*
X117333000Y-34061000D01*
X122385000Y-34101000D02*
X117340000Y-34101000D01*
X122385000Y-34141000D02*
X117347000Y-34141000D01*
X122385000Y-34181000D02*
X117354000Y-34181000D01*
X122385000Y-34221000D02*
X117362000Y-34221000D01*
X122385000Y-34261000D02*
X117369000Y-34261000D01*
X122385000Y-34301000D02*
X117377000Y-34301000D01*
X122385000Y-34341000D02*
X117386000Y-34341000D01*
X122385000Y-34381000D02*
X117394000Y-34381000D01*
X122385000Y-34421000D02*
X117403000Y-34421000D01*
X122385000Y-34461000D02*
X117412000Y-34461000D01*
X122385000Y-34501000D02*
X117421000Y-34501000D01*
X122385000Y-34541000D02*
X117431000Y-34541000D01*
X122385000Y-34581000D02*
X117441000Y-34581000D01*
X122385000Y-34621000D02*
X117451000Y-34621000D01*
X122385000Y-34661000D02*
X117461000Y-34661000D01*
X122385000Y-34701000D02*
X117472000Y-34701000D01*
X122385000Y-34741000D02*
X117483000Y-34741000D01*
X122385000Y-34781000D02*
X117494000Y-34781000D01*
X122385000Y-34821000D02*
X117505000Y-34821000D01*
X122385000Y-34861000D02*
X117517000Y-34861000D01*
X122385000Y-34901000D02*
X117529000Y-34901000D01*
X122385000Y-34941000D02*
X117541000Y-34941000D01*
X122385000Y-34981000D02*
X117554000Y-34981000D01*
X122385000Y-35021000D02*
X117567000Y-35021000D01*
X122385000Y-35061000D02*
X117580000Y-35061000D01*
X122385000Y-35101000D02*
X117593000Y-35101000D01*
X122385000Y-35141000D02*
X117607000Y-35141000D01*
X122385000Y-35181000D02*
X117621000Y-35181000D01*
X122385000Y-35221000D02*
X117635000Y-35221000D01*
X122385000Y-35261000D02*
X117650000Y-35261000D01*
X122385000Y-35301000D02*
X117664000Y-35301000D01*
X122385000Y-35341000D02*
X117679000Y-35341000D01*
X122385000Y-35381000D02*
X117695000Y-35381000D01*
X122385000Y-35421000D02*
X117711000Y-35421000D01*
X122385000Y-35461000D02*
X117727000Y-35461000D01*
X122385000Y-35501000D02*
X117743000Y-35501000D01*
X122385000Y-35541000D02*
X117760000Y-35541000D01*
X122385000Y-35581000D02*
X117776000Y-35581000D01*
X122385000Y-35621000D02*
X117794000Y-35621000D01*
X122385000Y-35661000D02*
X117811000Y-35661000D01*
X122385000Y-35701000D02*
X117829000Y-35701000D01*
X122385000Y-35741000D02*
X117847000Y-35741000D01*
X122385000Y-35781000D02*
X117866000Y-35781000D01*
X122385000Y-35821000D02*
X117885000Y-35821000D01*
X122385000Y-35861000D02*
X117904000Y-35861000D01*
X122385000Y-35901000D02*
X117923000Y-35901000D01*
X122385000Y-35941000D02*
X117943000Y-35941000D01*
X122385000Y-35981000D02*
X117963000Y-35981000D01*
X122385000Y-36021000D02*
X117984000Y-36021000D01*
X122385000Y-36061000D02*
X118005000Y-36061000D01*
X122385000Y-36101000D02*
X118026000Y-36101000D01*
X122385000Y-36141000D02*
X118047000Y-36141000D01*
X122385000Y-36181000D02*
X118069000Y-36181000D01*
X122385000Y-36221000D02*
X118092000Y-36221000D01*
X122385000Y-36261000D02*
X118114000Y-36261000D01*
X122385000Y-36301000D02*
X118137000Y-36301000D01*
X122385000Y-36341000D02*
X118161000Y-36341000D01*
X122385000Y-36381000D02*
X118184000Y-36381000D01*
X122385000Y-36421000D02*
X118208000Y-36421000D01*
X122385000Y-36461000D02*
X118233000Y-36461000D01*
X122385000Y-36501000D02*
X118258000Y-36501000D01*
X122385000Y-36541000D02*
X118283000Y-36541000D01*
X122385000Y-36581000D02*
X118309000Y-36581000D01*
X122385000Y-36621000D02*
X118335000Y-36621000D01*
X122385000Y-36661000D02*
X118362000Y-36661000D01*
X122385000Y-36701000D02*
X118389000Y-36701000D01*
X122385000Y-36741000D02*
X118416000Y-36741000D01*
X122385000Y-36781000D02*
X118444000Y-36781000D01*
X122385000Y-36821000D02*
X118472000Y-36821000D01*
X122385000Y-36861000D02*
X118501000Y-36861000D01*
X122385000Y-36901000D02*
X118530000Y-36901000D01*
X124300000Y-39581000D02*
X123350000Y-39581000D01*
X124675000Y-39541000D02*
X122975000Y-39541000D01*
X124932000Y-39501000D02*
X122718000Y-39501000D01*
X125140000Y-39461000D02*
X122510000Y-39461000D01*
X125319000Y-39421000D02*
X122331000Y-39421000D01*
X125478000Y-39381000D02*
X122172000Y-39381000D01*
X125623000Y-39341000D02*
X122027000Y-39341000D01*
X125756000Y-39301000D02*
X121894000Y-39301000D01*
X125880000Y-39261000D02*
X121770000Y-39261000D01*
X125996000Y-39221000D02*
X121654000Y-39221000D01*
X126106000Y-39181000D02*
X121544000Y-39181000D01*
X126210000Y-39141000D02*
X121440000Y-39141000D01*
X126309000Y-39101000D02*
X121341000Y-39101000D01*
X126404000Y-39061000D02*
X121246000Y-39061000D01*
X126495000Y-39021000D02*
X121155000Y-39021000D01*
X126583000Y-38981000D02*
X121067000Y-38981000D01*
X126667000Y-38941000D02*
X120983000Y-38941000D01*
X126748000Y-38901000D02*
X120902000Y-38901000D01*
X126827000Y-38861000D02*
X120823000Y-38861000D01*
X126903000Y-38821000D02*
X120747000Y-38821000D01*
X126977000Y-38781000D02*
X120673000Y-38781000D01*
X127048000Y-38741000D02*
X120602000Y-38741000D01*
X127118000Y-38701000D02*
X120532000Y-38701000D01*
X127186000Y-38661000D02*
X120464000Y-38661000D01*
X127252000Y-38621000D02*
X120398000Y-38621000D01*
X127316000Y-38581000D02*
X120334000Y-38581000D01*
X127379000Y-38541000D02*
X120271000Y-38541000D01*
X127440000Y-38501000D02*
X120210000Y-38501000D01*
X127500000Y-38461000D02*
X120150000Y-38461000D01*
X127540000Y-25895431D02*
X127540000Y-27195431D01*
X127558000Y-38421000D02*
X120092000Y-38421000D01*
X127615000Y-38381000D02*
X120035000Y-38381000D01*
X127671000Y-38341000D02*
X119979000Y-38341000D01*
X127725000Y-38301000D02*
X119925000Y-38301000D01*
X127779000Y-38261000D02*
X119871000Y-38261000D01*
X127831000Y-38221000D02*
X119819000Y-38221000D01*
X127882000Y-38181000D02*
X119768000Y-38181000D01*
X127933000Y-38141000D02*
X119717000Y-38141000D01*
X127982000Y-38101000D02*
X119668000Y-38101000D01*
X128030000Y-38061000D02*
X119620000Y-38061000D01*
X128078000Y-38021000D02*
X119572000Y-38021000D01*
X128124000Y-37981000D02*
X119526000Y-37981000D01*
X128170000Y-37941000D02*
X119480000Y-37941000D01*
X128190000Y-26545431D02*
X126890000Y-26545431D01*
X128215000Y-37901000D02*
X119435000Y-37901000D01*
X128259000Y-37861000D02*
X119391000Y-37861000D01*
X128302000Y-37821000D02*
X119348000Y-37821000D01*
X128344000Y-37781000D02*
X119306000Y-37781000D01*
X128386000Y-37741000D02*
X119264000Y-37741000D01*
X128427000Y-37701000D02*
X119223000Y-37701000D01*
X128468000Y-37661000D02*
X119182000Y-37661000D01*
X128507000Y-37621000D02*
X119143000Y-37621000D01*
X128546000Y-37581000D02*
X119104000Y-37581000D01*
X128585000Y-37541000D02*
X119065000Y-37541000D01*
X128622000Y-37501000D02*
X119028000Y-37501000D01*
X128659000Y-37461000D02*
X118991000Y-37461000D01*
X128696000Y-37421000D02*
X118954000Y-37421000D01*
X128732000Y-37381000D02*
X118918000Y-37381000D01*
X128767000Y-37341000D02*
X118883000Y-37341000D01*
X128802000Y-37301000D02*
X118848000Y-37301000D01*
X128836000Y-37261000D02*
X118814000Y-37261000D01*
X128869000Y-37221000D02*
X118781000Y-37221000D01*
X128903000Y-37181000D02*
X118747000Y-37181000D01*
X128935000Y-37141000D02*
X118715000Y-37141000D01*
X128967000Y-37101000D02*
X118683000Y-37101000D01*
X128999000Y-37061000D02*
X118651000Y-37061000D01*
X129030000Y-37021000D02*
X118620000Y-37021000D01*
X129060000Y-36981000D02*
X118590000Y-36981000D01*
X129090000Y-36941000D02*
X118560000Y-36941000D01*
X129120000Y-36901000D02*
X125265000Y-36901000D01*
X129149000Y-36861000D02*
X125265000Y-36861000D01*
X129178000Y-36821000D02*
X125265000Y-36821000D01*
X129206000Y-36781000D02*
X125265000Y-36781000D01*
X129234000Y-36741000D02*
X125265000Y-36741000D01*
X129261000Y-36701000D02*
X125265000Y-36701000D01*
X129288000Y-36661000D02*
X125265000Y-36661000D01*
X129315000Y-36621000D02*
X125265000Y-36621000D01*
X129341000Y-36581000D02*
X125265000Y-36581000D01*
X129367000Y-36541000D02*
X125265000Y-36541000D01*
X129392000Y-36501000D02*
X125265000Y-36501000D01*
X129417000Y-36461000D02*
X125265000Y-36461000D01*
X129442000Y-36421000D02*
X125265000Y-36421000D01*
X129466000Y-36381000D02*
X125265000Y-36381000D01*
X129489000Y-36341000D02*
X125265000Y-36341000D01*
X129513000Y-36301000D02*
X125265000Y-36301000D01*
X129536000Y-36261000D02*
X125265000Y-36261000D01*
X129558000Y-36221000D02*
X125265000Y-36221000D01*
X129581000Y-36181000D02*
X125265000Y-36181000D01*
X129603000Y-36141000D02*
X125265000Y-36141000D01*
X129624000Y-36101000D02*
X125265000Y-36101000D01*
X129645000Y-36061000D02*
X125265000Y-36061000D01*
X129666000Y-36021000D02*
X125265000Y-36021000D01*
X129687000Y-35981000D02*
X125265000Y-35981000D01*
X129707000Y-35941000D02*
X125265000Y-35941000D01*
X129727000Y-35901000D02*
X125265000Y-35901000D01*
X129746000Y-35861000D02*
X125265000Y-35861000D01*
X129765000Y-35821000D02*
X125265000Y-35821000D01*
X129784000Y-35781000D02*
X125265000Y-35781000D01*
X129803000Y-35741000D02*
X125265000Y-35741000D01*
X129821000Y-35701000D02*
X125265000Y-35701000D01*
X129839000Y-35661000D02*
X125265000Y-35661000D01*
X129856000Y-35621000D02*
X125265000Y-35621000D01*
X129874000Y-35581000D02*
X125265000Y-35581000D01*
X129890000Y-35541000D02*
X125265000Y-35541000D01*
X129907000Y-35501000D02*
X125265000Y-35501000D01*
X129923000Y-35461000D02*
X125265000Y-35461000D01*
X129939000Y-35421000D02*
X125265000Y-35421000D01*
X129955000Y-35381000D02*
X125265000Y-35381000D01*
X129971000Y-35341000D02*
X125265000Y-35341000D01*
X129986000Y-35301000D02*
X125265000Y-35301000D01*
X130000000Y-35261000D02*
X125265000Y-35261000D01*
X130015000Y-35221000D02*
X125265000Y-35221000D01*
X130029000Y-35181000D02*
X125265000Y-35181000D01*
X130043000Y-35141000D02*
X125265000Y-35141000D01*
X130057000Y-35101000D02*
X125265000Y-35101000D01*
X130070000Y-35061000D02*
X125265000Y-35061000D01*
X130083000Y-35021000D02*
X125265000Y-35021000D01*
X130096000Y-34981000D02*
X125265000Y-34981000D01*
X130109000Y-34941000D02*
X125265000Y-34941000D01*
X130121000Y-34901000D02*
X125265000Y-34901000D01*
X130133000Y-34861000D02*
X125265000Y-34861000D01*
X130145000Y-34821000D02*
X125265000Y-34821000D01*
X130156000Y-34781000D02*
X125265000Y-34781000D01*
X130167000Y-34741000D02*
X125265000Y-34741000D01*
X130178000Y-34701000D02*
X125265000Y-34701000D01*
X130189000Y-34661000D02*
X125265000Y-34661000D01*
X130199000Y-34621000D02*
X125265000Y-34621000D01*
X130209000Y-34581000D02*
X125265000Y-34581000D01*
X130219000Y-34541000D02*
X125265000Y-34541000D01*
X130229000Y-34501000D02*
X125265000Y-34501000D01*
X130238000Y-34461000D02*
X125265000Y-34461000D01*
X130247000Y-34421000D02*
X125265000Y-34421000D01*
X130256000Y-34381000D02*
X125265000Y-34381000D01*
X130264000Y-34341000D02*
X125265000Y-34341000D01*
X130273000Y-34301000D02*
X125265000Y-34301000D01*
X130281000Y-34261000D02*
X125265000Y-34261000D01*
X130288000Y-34221000D02*
X125265000Y-34221000D01*
X130296000Y-34181000D02*
X125265000Y-34181000D01*
X130303000Y-34141000D02*
X125265000Y-34141000D01*
X130310000Y-34101000D02*
X125265000Y-34101000D01*
X130317000Y-34061000D02*
X125265000Y-34061000D01*
X130323000Y-34021000D02*
X117327000Y-34021000D01*
X130330000Y-33981000D02*
X117320000Y-33981000D01*
X130336000Y-33941000D02*
X117314000Y-33941000D01*
X130341000Y-33901000D02*
X117309000Y-33901000D01*
X130347000Y-33861000D02*
X117303000Y-33861000D01*
X130352000Y-33821000D02*
X117298000Y-33821000D01*
X130357000Y-33781000D02*
X117293000Y-33781000D01*
X130362000Y-33741000D02*
X117288000Y-33741000D01*
X130366000Y-33701000D02*
X117284000Y-33701000D01*
X130370000Y-33660000D02*
X117280000Y-33660000D01*
X130374000Y-33620000D02*
X117276000Y-33620000D01*
X130378000Y-33580000D02*
X117272000Y-33580000D01*
X130382000Y-33540000D02*
X117268000Y-33540000D01*
X130385000Y-33500000D02*
X117265000Y-33500000D01*
X130388000Y-33460000D02*
X117262000Y-33460000D01*
X130391000Y-33420000D02*
X117259000Y-33420000D01*
X130393000Y-33380000D02*
X117257000Y-33380000D01*
X130396000Y-33340000D02*
X117254000Y-33340000D01*
X130398000Y-33300000D02*
X117252000Y-33300000D01*
X130400000Y-33260000D02*
X117250000Y-33260000D01*
X130401000Y-33220000D02*
X117249000Y-33220000D01*
X130402000Y-33180000D02*
X117248000Y-33180000D01*
X130404000Y-33100000D02*
X117246000Y-33100000D01*
X130404000Y-33140000D02*
X117246000Y-33140000D01*
X130405000Y-32980000D02*
X117245000Y-32980000D01*
X130405000Y-33020000D02*
X117245000Y-33020000D01*
X130405000Y-33060000D02*
X117245000Y-33060000D01*
X130445000Y-32980000D02*
G75*
G02*
X117205000Y-32980000I-6620000J0D01*
G01*
X117205000Y-32980000D02*
G75*
G02*
X130445000Y-32980000I6620000J0D01*
G01*
%TO.C,C16*%
X108846252Y-70585000D02*
X108323748Y-70585000D01*
X108846252Y-69115000D02*
X108323748Y-69115000D01*
%TO.C,C18*%
X112768748Y-61495000D02*
X113291252Y-61495000D01*
X112768748Y-62965000D02*
X113291252Y-62965000D01*
%TO.C,J4*%
X107840000Y-26200000D02*
X107840000Y-32220000D01*
X107840000Y-32220000D02*
X113140000Y-32220000D01*
X108420000Y-31620000D02*
X108420000Y-32220000D01*
X109220000Y-27200000D02*
X109220000Y-26200000D01*
X109470000Y-26200000D02*
X109470000Y-27200000D01*
X109470000Y-27730000D02*
X109220000Y-27200000D01*
X110020000Y-31620000D02*
X108420000Y-31620000D01*
X110020000Y-32220000D02*
X110020000Y-31620000D01*
X110960000Y-31620000D02*
X110960000Y-32220000D01*
X111510000Y-26200000D02*
X111510000Y-27200000D01*
X111510000Y-27730000D02*
X109470000Y-27730000D01*
X111760000Y-26200000D02*
X111760000Y-27200000D01*
X111760000Y-27200000D02*
X109220000Y-27200000D01*
X111760000Y-27200000D02*
X111510000Y-27730000D01*
X112560000Y-31620000D02*
X110960000Y-31620000D01*
X112560000Y-32220000D02*
X112560000Y-31620000D01*
X113140000Y-26200000D02*
X107840000Y-26200000D01*
X113140000Y-32220000D02*
X113140000Y-26200000D01*
X113430000Y-31190000D02*
X113430000Y-27190000D01*
%TO.C,R9*%
X112622064Y-44550000D02*
X112167936Y-44550000D01*
X112622064Y-43080000D02*
X112167936Y-43080000D01*
%TO.C,U3*%
X84963000Y-38080000D02*
X83013000Y-38080000D01*
X84963000Y-38080000D02*
X86913000Y-38080000D01*
X84963000Y-43200000D02*
X83013000Y-43200000D01*
X84963000Y-43200000D02*
X86913000Y-43200000D01*
X82263000Y-38175000D02*
X82023000Y-37845000D01*
X82503000Y-37845000D01*
X82263000Y-38175000D01*
G36*
X82263000Y-38175000D02*
G01*
X82023000Y-37845000D01*
X82503000Y-37845000D01*
X82263000Y-38175000D01*
G37*
%TO.C,R13*%
X113257064Y-68045000D02*
X112802936Y-68045000D01*
X113257064Y-66575000D02*
X112802936Y-66575000D01*
%TO.C,TP3*%
X87060000Y-66675000D02*
G75*
G02*
X85660000Y-66675000I-700000J0D01*
G01*
X85660000Y-66675000D02*
G75*
G02*
X87060000Y-66675000I700000J0D01*
G01*
%TO.C,R10*%
X112167936Y-40540000D02*
X112622064Y-40540000D01*
X112167936Y-42010000D02*
X112622064Y-42010000D01*
%TO.C,J3*%
X125330000Y-70410000D02*
X125330000Y-74410000D01*
X125620000Y-69380000D02*
X125620000Y-75400000D01*
X125620000Y-75400000D02*
X130920000Y-75400000D01*
X126200000Y-69380000D02*
X126200000Y-69980000D01*
X126200000Y-69980000D02*
X127800000Y-69980000D01*
X127000000Y-74400000D02*
X127250000Y-73870000D01*
X127000000Y-74400000D02*
X129540000Y-74400000D01*
X127000000Y-75400000D02*
X127000000Y-74400000D01*
X127250000Y-73870000D02*
X129290000Y-73870000D01*
X127250000Y-75400000D02*
X127250000Y-74400000D01*
X127800000Y-69980000D02*
X127800000Y-69380000D01*
X128740000Y-69380000D02*
X128740000Y-69980000D01*
X128740000Y-69980000D02*
X130340000Y-69980000D01*
X129290000Y-73870000D02*
X129540000Y-74400000D01*
X129290000Y-75400000D02*
X129290000Y-74400000D01*
X129540000Y-74400000D02*
X129540000Y-75400000D01*
X130340000Y-69980000D02*
X130340000Y-69380000D01*
X130920000Y-69380000D02*
X125620000Y-69380000D01*
X130920000Y-75400000D02*
X130920000Y-69380000D01*
%TO.C,D3*%
X87450000Y-34814000D02*
X83440000Y-34814000D01*
X87450000Y-36814000D02*
X83440000Y-36814000D01*
X87450000Y-36814000D02*
X87450000Y-34814000D01*
%TO.C,U5*%
X106680000Y-62210000D02*
X104730000Y-62210000D01*
X106680000Y-62210000D02*
X108630000Y-62210000D01*
X106680000Y-67330000D02*
X104730000Y-67330000D01*
X106680000Y-67330000D02*
X108630000Y-67330000D01*
X103980000Y-62305000D02*
X103740000Y-61975000D01*
X104220000Y-61975000D01*
X103980000Y-62305000D01*
G36*
X103980000Y-62305000D02*
G01*
X103740000Y-61975000D01*
X104220000Y-61975000D01*
X103980000Y-62305000D01*
G37*
%TO.C,C2*%
X78478748Y-63400000D02*
X79001252Y-63400000D01*
X78478748Y-64870000D02*
X79001252Y-64870000D01*
%TO.C,C12*%
X54510000Y-55618748D02*
X54510000Y-56141252D01*
X55980000Y-55618748D02*
X55980000Y-56141252D01*
%TO.C,R7*%
X56107064Y-63400000D02*
X55652936Y-63400000D01*
X56107064Y-64870000D02*
X55652936Y-64870000D01*
%TO.C,TP4*%
X119445000Y-69850000D02*
G75*
G02*
X118045000Y-69850000I-700000J0D01*
G01*
X118045000Y-69850000D02*
G75*
G02*
X119445000Y-69850000I700000J0D01*
G01*
%TO.C,C6*%
X67683748Y-46455000D02*
X68206252Y-46455000D01*
X67683748Y-44985000D02*
X68206252Y-44985000D01*
%TO.C,U1*%
X72155000Y-55875000D02*
X73415000Y-55875000D01*
X72155000Y-59635000D02*
X72155000Y-55875000D01*
X78975000Y-55875000D02*
X77715000Y-55875000D01*
X78975000Y-59635000D02*
X78975000Y-55875000D01*
X72255000Y-60915000D02*
X71925000Y-61155000D01*
X71925000Y-60675000D01*
X72255000Y-60915000D01*
G36*
X72255000Y-60915000D02*
G01*
X71925000Y-61155000D01*
X71925000Y-60675000D01*
X72255000Y-60915000D01*
G37*
%TO.C,R5*%
X91212936Y-43080000D02*
X91667064Y-43080000D01*
X91212936Y-44550000D02*
X91667064Y-44550000D01*
%TO.C,C1*%
X61856252Y-44985000D02*
X61333748Y-44985000D01*
X61856252Y-46455000D02*
X61333748Y-46455000D01*
%TO.C,R12*%
X86587064Y-62330000D02*
X86132936Y-62330000D01*
X86587064Y-60860000D02*
X86132936Y-60860000D01*
%TO.C,C15*%
X86098748Y-64870000D02*
X86621252Y-64870000D01*
X86098748Y-63400000D02*
X86621252Y-63400000D01*
%TO.C,R11*%
X112622064Y-39470000D02*
X112167936Y-39470000D01*
X112622064Y-38000000D02*
X112167936Y-38000000D01*
%TO.C,C10*%
X100591252Y-70585000D02*
X100068748Y-70585000D01*
X100591252Y-69115000D02*
X100068748Y-69115000D01*
%TO.C,C22*%
X112133748Y-35460000D02*
X112656252Y-35460000D01*
X112133748Y-36930000D02*
X112656252Y-36930000D01*
%TO.C,Q1*%
X141470000Y-57250000D02*
X141470000Y-57520000D01*
X141470000Y-64150000D02*
X141470000Y-63880000D01*
X147890000Y-57250000D02*
X141470000Y-57250000D01*
X147890000Y-64150000D02*
X141470000Y-64150000D01*
X140050000Y-57560000D02*
X139810000Y-57230000D01*
X140290000Y-57230000D01*
X140050000Y-57560000D01*
G36*
X140050000Y-57560000D02*
G01*
X139810000Y-57230000D01*
X140290000Y-57230000D01*
X140050000Y-57560000D01*
G37*
%TO.C,C13*%
X100591252Y-62965000D02*
X100068748Y-62965000D01*
X100591252Y-61495000D02*
X100068748Y-61495000D01*
%TO.C,R18*%
X78967064Y-42645000D02*
X78512936Y-42645000D01*
X78967064Y-41175000D02*
X78512936Y-41175000D01*
%TO.C,J1*%
X83172000Y-25482800D02*
X82062000Y-25482800D01*
X83172000Y-29192800D02*
X82062000Y-29192800D01*
X83762000Y-30242800D02*
X84262000Y-30242800D01*
X84012000Y-29742800D02*
X83762000Y-30242800D01*
X84262000Y-30242800D02*
X84012000Y-29742800D01*
X85962000Y-25482800D02*
X84852000Y-25482800D01*
X85962000Y-29192800D02*
X84852000Y-29192800D01*
%TO.C,D5*%
X61415000Y-68945000D02*
X57405000Y-68945000D01*
X61415000Y-68945000D02*
X61415000Y-66945000D01*
X61415000Y-66945000D02*
X57405000Y-66945000D01*
%TO.C,Q2*%
X126825000Y-57130000D02*
X126825000Y-57400000D01*
X126825000Y-64030000D02*
X126825000Y-63760000D01*
X133245000Y-57130000D02*
X126825000Y-57130000D01*
X133245000Y-64030000D02*
X126825000Y-64030000D01*
X125405000Y-57440000D02*
X125165000Y-57110000D01*
X125645000Y-57110000D01*
X125405000Y-57440000D01*
G36*
X125405000Y-57440000D02*
G01*
X125165000Y-57110000D01*
X125645000Y-57110000D01*
X125405000Y-57440000D01*
G37*
%TO.C,C24*%
X136355000Y-34061000D02*
X131303000Y-34061000D01*
X136355000Y-34101000D02*
X131310000Y-34101000D01*
X136355000Y-34141000D02*
X131317000Y-34141000D01*
X136355000Y-34181000D02*
X131324000Y-34181000D01*
X136355000Y-34221000D02*
X131332000Y-34221000D01*
X136355000Y-34261000D02*
X131339000Y-34261000D01*
X136355000Y-34301000D02*
X131347000Y-34301000D01*
X136355000Y-34341000D02*
X131356000Y-34341000D01*
X136355000Y-34381000D02*
X131364000Y-34381000D01*
X136355000Y-34421000D02*
X131373000Y-34421000D01*
X136355000Y-34461000D02*
X131382000Y-34461000D01*
X136355000Y-34501000D02*
X131391000Y-34501000D01*
X136355000Y-34541000D02*
X131401000Y-34541000D01*
X136355000Y-34581000D02*
X131411000Y-34581000D01*
X136355000Y-34621000D02*
X131421000Y-34621000D01*
X136355000Y-34661000D02*
X131431000Y-34661000D01*
X136355000Y-34701000D02*
X131442000Y-34701000D01*
X136355000Y-34741000D02*
X131453000Y-34741000D01*
X136355000Y-34781000D02*
X131464000Y-34781000D01*
X136355000Y-34821000D02*
X131475000Y-34821000D01*
X136355000Y-34861000D02*
X131487000Y-34861000D01*
X136355000Y-34901000D02*
X131499000Y-34901000D01*
X136355000Y-34941000D02*
X131511000Y-34941000D01*
X136355000Y-34981000D02*
X131524000Y-34981000D01*
X136355000Y-35021000D02*
X131537000Y-35021000D01*
X136355000Y-35061000D02*
X131550000Y-35061000D01*
X136355000Y-35101000D02*
X131563000Y-35101000D01*
X136355000Y-35141000D02*
X131577000Y-35141000D01*
X136355000Y-35181000D02*
X131591000Y-35181000D01*
X136355000Y-35221000D02*
X131605000Y-35221000D01*
X136355000Y-35261000D02*
X131620000Y-35261000D01*
X136355000Y-35301000D02*
X131634000Y-35301000D01*
X136355000Y-35341000D02*
X131649000Y-35341000D01*
X136355000Y-35381000D02*
X131665000Y-35381000D01*
X136355000Y-35421000D02*
X131681000Y-35421000D01*
X136355000Y-35461000D02*
X131697000Y-35461000D01*
X136355000Y-35501000D02*
X131713000Y-35501000D01*
X136355000Y-35541000D02*
X131730000Y-35541000D01*
X136355000Y-35581000D02*
X131746000Y-35581000D01*
X136355000Y-35621000D02*
X131764000Y-35621000D01*
X136355000Y-35661000D02*
X131781000Y-35661000D01*
X136355000Y-35701000D02*
X131799000Y-35701000D01*
X136355000Y-35741000D02*
X131817000Y-35741000D01*
X136355000Y-35781000D02*
X131836000Y-35781000D01*
X136355000Y-35821000D02*
X131855000Y-35821000D01*
X136355000Y-35861000D02*
X131874000Y-35861000D01*
X136355000Y-35901000D02*
X131893000Y-35901000D01*
X136355000Y-35941000D02*
X131913000Y-35941000D01*
X136355000Y-35981000D02*
X131933000Y-35981000D01*
X136355000Y-36021000D02*
X131954000Y-36021000D01*
X136355000Y-36061000D02*
X131975000Y-36061000D01*
X136355000Y-36101000D02*
X131996000Y-36101000D01*
X136355000Y-36141000D02*
X132017000Y-36141000D01*
X136355000Y-36181000D02*
X132039000Y-36181000D01*
X136355000Y-36221000D02*
X132062000Y-36221000D01*
X136355000Y-36261000D02*
X132084000Y-36261000D01*
X136355000Y-36301000D02*
X132107000Y-36301000D01*
X136355000Y-36341000D02*
X132131000Y-36341000D01*
X136355000Y-36381000D02*
X132154000Y-36381000D01*
X136355000Y-36421000D02*
X132178000Y-36421000D01*
X136355000Y-36461000D02*
X132203000Y-36461000D01*
X136355000Y-36501000D02*
X132228000Y-36501000D01*
X136355000Y-36541000D02*
X132253000Y-36541000D01*
X136355000Y-36581000D02*
X132279000Y-36581000D01*
X136355000Y-36621000D02*
X132305000Y-36621000D01*
X136355000Y-36661000D02*
X132332000Y-36661000D01*
X136355000Y-36701000D02*
X132359000Y-36701000D01*
X136355000Y-36741000D02*
X132386000Y-36741000D01*
X136355000Y-36781000D02*
X132414000Y-36781000D01*
X136355000Y-36821000D02*
X132442000Y-36821000D01*
X136355000Y-36861000D02*
X132471000Y-36861000D01*
X136355000Y-36901000D02*
X132500000Y-36901000D01*
X138270000Y-39581000D02*
X137320000Y-39581000D01*
X138645000Y-39541000D02*
X136945000Y-39541000D01*
X138902000Y-39501000D02*
X136688000Y-39501000D01*
X139110000Y-39461000D02*
X136480000Y-39461000D01*
X139289000Y-39421000D02*
X136301000Y-39421000D01*
X139448000Y-39381000D02*
X136142000Y-39381000D01*
X139593000Y-39341000D02*
X135997000Y-39341000D01*
X139726000Y-39301000D02*
X135864000Y-39301000D01*
X139850000Y-39261000D02*
X135740000Y-39261000D01*
X139966000Y-39221000D02*
X135624000Y-39221000D01*
X140076000Y-39181000D02*
X135514000Y-39181000D01*
X140180000Y-39141000D02*
X135410000Y-39141000D01*
X140279000Y-39101000D02*
X135311000Y-39101000D01*
X140374000Y-39061000D02*
X135216000Y-39061000D01*
X140465000Y-39021000D02*
X135125000Y-39021000D01*
X140553000Y-38981000D02*
X135037000Y-38981000D01*
X140637000Y-38941000D02*
X134953000Y-38941000D01*
X140718000Y-38901000D02*
X134872000Y-38901000D01*
X140797000Y-38861000D02*
X134793000Y-38861000D01*
X140873000Y-38821000D02*
X134717000Y-38821000D01*
X140947000Y-38781000D02*
X134643000Y-38781000D01*
X141018000Y-38741000D02*
X134572000Y-38741000D01*
X141088000Y-38701000D02*
X134502000Y-38701000D01*
X141156000Y-38661000D02*
X134434000Y-38661000D01*
X141222000Y-38621000D02*
X134368000Y-38621000D01*
X141286000Y-38581000D02*
X134304000Y-38581000D01*
X141349000Y-38541000D02*
X134241000Y-38541000D01*
X141410000Y-38501000D02*
X134180000Y-38501000D01*
X141470000Y-38461000D02*
X134120000Y-38461000D01*
X141510000Y-25895431D02*
X141510000Y-27195431D01*
X141528000Y-38421000D02*
X134062000Y-38421000D01*
X141585000Y-38381000D02*
X134005000Y-38381000D01*
X141641000Y-38341000D02*
X133949000Y-38341000D01*
X141695000Y-38301000D02*
X133895000Y-38301000D01*
X141749000Y-38261000D02*
X133841000Y-38261000D01*
X141801000Y-38221000D02*
X133789000Y-38221000D01*
X141852000Y-38181000D02*
X133738000Y-38181000D01*
X141903000Y-38141000D02*
X133687000Y-38141000D01*
X141952000Y-38101000D02*
X133638000Y-38101000D01*
X142000000Y-38061000D02*
X133590000Y-38061000D01*
X142048000Y-38021000D02*
X133542000Y-38021000D01*
X142094000Y-37981000D02*
X133496000Y-37981000D01*
X142140000Y-37941000D02*
X133450000Y-37941000D01*
X142160000Y-26545431D02*
X140860000Y-26545431D01*
X142185000Y-37901000D02*
X133405000Y-37901000D01*
X142229000Y-37861000D02*
X133361000Y-37861000D01*
X142272000Y-37821000D02*
X133318000Y-37821000D01*
X142314000Y-37781000D02*
X133276000Y-37781000D01*
X142356000Y-37741000D02*
X133234000Y-37741000D01*
X142397000Y-37701000D02*
X133193000Y-37701000D01*
X142438000Y-37661000D02*
X133152000Y-37661000D01*
X142477000Y-37621000D02*
X133113000Y-37621000D01*
X142516000Y-37581000D02*
X133074000Y-37581000D01*
X142555000Y-37541000D02*
X133035000Y-37541000D01*
X142592000Y-37501000D02*
X132998000Y-37501000D01*
X142629000Y-37461000D02*
X132961000Y-37461000D01*
X142666000Y-37421000D02*
X132924000Y-37421000D01*
X142702000Y-37381000D02*
X132888000Y-37381000D01*
X142737000Y-37341000D02*
X132853000Y-37341000D01*
X142772000Y-37301000D02*
X132818000Y-37301000D01*
X142806000Y-37261000D02*
X132784000Y-37261000D01*
X142839000Y-37221000D02*
X132751000Y-37221000D01*
X142873000Y-37181000D02*
X132717000Y-37181000D01*
X142905000Y-37141000D02*
X132685000Y-37141000D01*
X142937000Y-37101000D02*
X132653000Y-37101000D01*
X142969000Y-37061000D02*
X132621000Y-37061000D01*
X143000000Y-37021000D02*
X132590000Y-37021000D01*
X143030000Y-36981000D02*
X132560000Y-36981000D01*
X143060000Y-36941000D02*
X132530000Y-36941000D01*
X143090000Y-36901000D02*
X139235000Y-36901000D01*
X143119000Y-36861000D02*
X139235000Y-36861000D01*
X143148000Y-36821000D02*
X139235000Y-36821000D01*
X143176000Y-36781000D02*
X139235000Y-36781000D01*
X143204000Y-36741000D02*
X139235000Y-36741000D01*
X143231000Y-36701000D02*
X139235000Y-36701000D01*
X143258000Y-36661000D02*
X139235000Y-36661000D01*
X143285000Y-36621000D02*
X139235000Y-36621000D01*
X143311000Y-36581000D02*
X139235000Y-36581000D01*
X143337000Y-36541000D02*
X139235000Y-36541000D01*
X143362000Y-36501000D02*
X139235000Y-36501000D01*
X143387000Y-36461000D02*
X139235000Y-36461000D01*
X143412000Y-36421000D02*
X139235000Y-36421000D01*
X143436000Y-36381000D02*
X139235000Y-36381000D01*
X143459000Y-36341000D02*
X139235000Y-36341000D01*
X143483000Y-36301000D02*
X139235000Y-36301000D01*
X143506000Y-36261000D02*
X139235000Y-36261000D01*
X143528000Y-36221000D02*
X139235000Y-36221000D01*
X143551000Y-36181000D02*
X139235000Y-36181000D01*
X143573000Y-36141000D02*
X139235000Y-36141000D01*
X143594000Y-36101000D02*
X139235000Y-36101000D01*
X143615000Y-36061000D02*
X139235000Y-36061000D01*
X143636000Y-36021000D02*
X139235000Y-36021000D01*
X143657000Y-35981000D02*
X139235000Y-35981000D01*
X143677000Y-35941000D02*
X139235000Y-35941000D01*
X143697000Y-35901000D02*
X139235000Y-35901000D01*
X143716000Y-35861000D02*
X139235000Y-35861000D01*
X143735000Y-35821000D02*
X139235000Y-35821000D01*
X143754000Y-35781000D02*
X139235000Y-35781000D01*
X143773000Y-35741000D02*
X139235000Y-35741000D01*
X143791000Y-35701000D02*
X139235000Y-35701000D01*
X143809000Y-35661000D02*
X139235000Y-35661000D01*
X143826000Y-35621000D02*
X139235000Y-35621000D01*
X143844000Y-35581000D02*
X139235000Y-35581000D01*
X143860000Y-35541000D02*
X139235000Y-35541000D01*
X143877000Y-35501000D02*
X139235000Y-35501000D01*
X143893000Y-35461000D02*
X139235000Y-35461000D01*
X143909000Y-35421000D02*
X139235000Y-35421000D01*
X143925000Y-35381000D02*
X139235000Y-35381000D01*
X143941000Y-35341000D02*
X139235000Y-35341000D01*
X143956000Y-35301000D02*
X139235000Y-35301000D01*
X143970000Y-35261000D02*
X139235000Y-35261000D01*
X143985000Y-35221000D02*
X139235000Y-35221000D01*
X143999000Y-35181000D02*
X139235000Y-35181000D01*
X144013000Y-35141000D02*
X139235000Y-35141000D01*
X144027000Y-35101000D02*
X139235000Y-35101000D01*
X144040000Y-35061000D02*
X139235000Y-35061000D01*
X144053000Y-35021000D02*
X139235000Y-35021000D01*
X144066000Y-34981000D02*
X139235000Y-34981000D01*
X144079000Y-34941000D02*
X139235000Y-34941000D01*
X144091000Y-34901000D02*
X139235000Y-34901000D01*
X144103000Y-34861000D02*
X139235000Y-34861000D01*
X144115000Y-34821000D02*
X139235000Y-34821000D01*
X144126000Y-34781000D02*
X139235000Y-34781000D01*
X144137000Y-34741000D02*
X139235000Y-34741000D01*
X144148000Y-34701000D02*
X139235000Y-34701000D01*
X144159000Y-34661000D02*
X139235000Y-34661000D01*
X144169000Y-34621000D02*
X139235000Y-34621000D01*
X144179000Y-34581000D02*
X139235000Y-34581000D01*
X144189000Y-34541000D02*
X139235000Y-34541000D01*
X144199000Y-34501000D02*
X139235000Y-34501000D01*
X144208000Y-34461000D02*
X139235000Y-34461000D01*
X144217000Y-34421000D02*
X139235000Y-34421000D01*
X144226000Y-34381000D02*
X139235000Y-34381000D01*
X144234000Y-34341000D02*
X139235000Y-34341000D01*
X144243000Y-34301000D02*
X139235000Y-34301000D01*
X144251000Y-34261000D02*
X139235000Y-34261000D01*
X144258000Y-34221000D02*
X139235000Y-34221000D01*
X144266000Y-34181000D02*
X139235000Y-34181000D01*
X144273000Y-34141000D02*
X139235000Y-34141000D01*
X144280000Y-34101000D02*
X139235000Y-34101000D01*
X144287000Y-34061000D02*
X139235000Y-34061000D01*
X144293000Y-34021000D02*
X131297000Y-34021000D01*
X144300000Y-33981000D02*
X131290000Y-33981000D01*
X144306000Y-33941000D02*
X131284000Y-33941000D01*
X144311000Y-33901000D02*
X131279000Y-33901000D01*
X144317000Y-33861000D02*
X131273000Y-33861000D01*
X144322000Y-33821000D02*
X131268000Y-33821000D01*
X144327000Y-33781000D02*
X131263000Y-33781000D01*
X144332000Y-33741000D02*
X131258000Y-33741000D01*
X144336000Y-33701000D02*
X131254000Y-33701000D01*
X144340000Y-33660000D02*
X131250000Y-33660000D01*
X144344000Y-33620000D02*
X131246000Y-33620000D01*
X144348000Y-33580000D02*
X131242000Y-33580000D01*
X144352000Y-33540000D02*
X131238000Y-33540000D01*
X144355000Y-33500000D02*
X131235000Y-33500000D01*
X144358000Y-33460000D02*
X131232000Y-33460000D01*
X144361000Y-33420000D02*
X131229000Y-33420000D01*
X144363000Y-33380000D02*
X131227000Y-33380000D01*
X144366000Y-33340000D02*
X131224000Y-33340000D01*
X144368000Y-33300000D02*
X131222000Y-33300000D01*
X144370000Y-33260000D02*
X131220000Y-33260000D01*
X144371000Y-33220000D02*
X131219000Y-33220000D01*
X144372000Y-33180000D02*
X131218000Y-33180000D01*
X144374000Y-33100000D02*
X131216000Y-33100000D01*
X144374000Y-33140000D02*
X131216000Y-33140000D01*
X144375000Y-32980000D02*
X131215000Y-32980000D01*
X144375000Y-33020000D02*
X131215000Y-33020000D01*
X144375000Y-33060000D02*
X131215000Y-33060000D01*
X144415000Y-32980000D02*
G75*
G02*
X131175000Y-32980000I-6620000J0D01*
G01*
X131175000Y-32980000D02*
G75*
G02*
X144415000Y-32980000I6620000J0D01*
G01*
%TO.C,TP5*%
X94273600Y-49682400D02*
G75*
G02*
X92873600Y-49682400I-700000J0D01*
G01*
X92873600Y-49682400D02*
G75*
G02*
X94273600Y-49682400I700000J0D01*
G01*
%TO.C,C7*%
X71220000Y-55618748D02*
X71220000Y-56141252D01*
X69750000Y-55618748D02*
X69750000Y-56141252D01*
%TO.C,C17*%
X99433748Y-40540000D02*
X99956252Y-40540000D01*
X99433748Y-42010000D02*
X99956252Y-42010000D01*
%TO.C,RV1*%
X103700000Y-51445000D02*
X103700000Y-56515000D01*
X103700000Y-51445000D02*
X113470000Y-51445000D01*
X103700000Y-56515000D02*
X113470000Y-56515000D01*
X113470000Y-51445000D02*
X113470000Y-56515000D01*
%TO.C,R14*%
X113257064Y-65505000D02*
X112802936Y-65505000D01*
X113257064Y-64035000D02*
X112802936Y-64035000D01*
%TO.C,R16*%
X99922064Y-39470000D02*
X99467936Y-39470000D01*
X99922064Y-38000000D02*
X99467936Y-38000000D01*
%TO.C,U6*%
X106045000Y-38080000D02*
X104095000Y-38080000D01*
X106045000Y-38080000D02*
X107995000Y-38080000D01*
X106045000Y-43200000D02*
X104095000Y-43200000D01*
X106045000Y-43200000D02*
X107995000Y-43200000D01*
X103345000Y-38175000D02*
X103105000Y-37845000D01*
X103585000Y-37845000D01*
X103345000Y-38175000D01*
G36*
X103345000Y-38175000D02*
G01*
X103105000Y-37845000D01*
X103585000Y-37845000D01*
X103345000Y-38175000D01*
G37*
%TO.C,TP7*%
X72455000Y-45720000D02*
G75*
G02*
X71055000Y-45720000I-700000J0D01*
G01*
X71055000Y-45720000D02*
G75*
G02*
X72455000Y-45720000I700000J0D01*
G01*
%TO.C,RV2*%
X92270000Y-51445000D02*
X92270000Y-56515000D01*
X92270000Y-51445000D02*
X102040000Y-51445000D01*
X92270000Y-56515000D02*
X102040000Y-56515000D01*
X102040000Y-51445000D02*
X102040000Y-56515000D01*
%TO.C,C3*%
X71220000Y-60586252D02*
X71220000Y-60063748D01*
X69750000Y-60586252D02*
X69750000Y-60063748D01*
%TO.C,TP1*%
X81345000Y-53975000D02*
G75*
G02*
X79945000Y-53975000I-700000J0D01*
G01*
X79945000Y-53975000D02*
G75*
G02*
X81345000Y-53975000I700000J0D01*
G01*
%TD*%
M02*
