%TF.GenerationSoftware,KiCad,Pcbnew,8.0.1*%
%TF.CreationDate,2024-07-13T13:04:58-04:00*%
%TF.ProjectId,GaN Drain Driver,47614e20-4472-4616-996e-204472697665,v1.0*%
%TF.SameCoordinates,Original*%
%TF.FileFunction,Copper,L4,Bot*%
%TF.FilePolarity,Positive*%
%FSLAX46Y46*%
G04 Gerber Fmt 4.6, Leading zero omitted, Abs format (unit mm)*
G04 Created by KiCad (PCBNEW 8.0.1) date 2024-07-13 13:04:58*
%MOMM*%
%LPD*%
G01*
G04 APERTURE LIST*
G04 Aperture macros list*
%AMRoundRect*
0 Rectangle with rounded corners*
0 $1 Rounding radius*
0 $2 $3 $4 $5 $6 $7 $8 $9 X,Y pos of 4 corners*
0 Add a 4 corners polygon primitive as box body*
4,1,4,$2,$3,$4,$5,$6,$7,$8,$9,$2,$3,0*
0 Add four circle primitives for the rounded corners*
1,1,$1+$1,$2,$3*
1,1,$1+$1,$4,$5*
1,1,$1+$1,$6,$7*
1,1,$1+$1,$8,$9*
0 Add four rect primitives between the rounded corners*
20,1,$1+$1,$2,$3,$4,$5,0*
20,1,$1+$1,$4,$5,$6,$7,0*
20,1,$1+$1,$6,$7,$8,$9,0*
20,1,$1+$1,$8,$9,$2,$3,0*%
G04 Aperture macros list end*
%TA.AperFunction,ComponentPad*%
%ADD10R,2.400000X2.400000*%
%TD*%
%TA.AperFunction,ComponentPad*%
%ADD11C,2.400000*%
%TD*%
%TA.AperFunction,ComponentPad*%
%ADD12RoundRect,0.250000X-0.620000X-0.845000X0.620000X-0.845000X0.620000X0.845000X-0.620000X0.845000X0*%
%TD*%
%TA.AperFunction,ComponentPad*%
%ADD13O,1.740000X2.190000*%
%TD*%
%TA.AperFunction,ComponentPad*%
%ADD14C,5.562600*%
%TD*%
%TA.AperFunction,ComponentPad*%
%ADD15RoundRect,0.250000X0.620000X0.845000X-0.620000X0.845000X-0.620000X-0.845000X0.620000X-0.845000X0*%
%TD*%
%TA.AperFunction,SMDPad,CuDef*%
%ADD16R,1.350000X4.200000*%
%TD*%
%TA.AperFunction,ComponentPad*%
%ADD17C,1.440000*%
%TD*%
%TA.AperFunction,ViaPad*%
%ADD18C,0.600000*%
%TD*%
%TA.AperFunction,Conductor*%
%ADD19C,0.635000*%
%TD*%
%TA.AperFunction,Conductor*%
%ADD20C,0.254000*%
%TD*%
G04 APERTURE END LIST*
D10*
%TO.P,C20,1*%
%TO.N,VCC*%
X137795000Y-44450000D03*
D11*
%TO.P,C20,2*%
%TO.N,GND*%
X137795000Y-49450000D03*
%TD*%
D10*
%TO.P,C4,1*%
%TO.N,VCC*%
X123825000Y-44450000D03*
D11*
%TO.P,C4,2*%
%TO.N,GND*%
X123825000Y-49450000D03*
%TD*%
D12*
%TO.P,J2,1,Pin_1*%
%TO.N,Vd*%
X137795000Y-72370000D03*
D13*
%TO.P,J2,2,Pin_2*%
%TO.N,GND*%
X140335000Y-72370000D03*
%TD*%
D14*
%TO.P,H4,1,1*%
%TO.N,GND*%
X53975000Y-73025000D03*
%TD*%
D10*
%TO.P,C21,1*%
%TO.N,VCC*%
X123825000Y-30480000D03*
D11*
%TO.P,C21,2*%
%TO.N,GND*%
X123825000Y-35480000D03*
%TD*%
D14*
%TO.P,H3,1,1*%
%TO.N,GND*%
X149225000Y-73025000D03*
%TD*%
D15*
%TO.P,J4,1,Pin_1*%
%TO.N,VCC*%
X111760000Y-29190000D03*
D13*
%TO.P,J4,2,Pin_2*%
%TO.N,GND*%
X109220000Y-29190000D03*
%TD*%
%TO.P,J3,2,Pin_2*%
%TO.N,GND*%
X129540000Y-72410000D03*
D12*
%TO.P,J3,1,Pin_1*%
%TO.N,Vg*%
X127000000Y-72410000D03*
%TD*%
D16*
%TO.P,J1,2,Ext*%
%TO.N,GND*%
X86837000Y-27482800D03*
X81187000Y-27482800D03*
%TD*%
D10*
%TO.P,C24,1*%
%TO.N,VCC*%
X137795000Y-30480000D03*
D11*
%TO.P,C24,2*%
%TO.N,GND*%
X137795000Y-35480000D03*
%TD*%
D14*
%TO.P,H1,1,1*%
%TO.N,GND*%
X149225000Y-28575000D03*
%TD*%
D17*
%TO.P,RV1,1,1*%
%TO.N,+3.3V REF*%
X111125000Y-53975000D03*
%TO.P,RV1,2,2*%
%TO.N,Net-(U5A-+)*%
X108585000Y-53975000D03*
%TO.P,RV1,3,3*%
%TO.N,-3.3V REF*%
X106045000Y-53975000D03*
%TD*%
D14*
%TO.P,H2,1,1*%
%TO.N,GND*%
X53975000Y-28575000D03*
%TD*%
D17*
%TO.P,RV2,1,1*%
%TO.N,+3.3V REF*%
X99695000Y-53975000D03*
%TO.P,RV2,2,2*%
%TO.N,Net-(U6A-+)*%
X97155000Y-53975000D03*
%TO.P,RV2,3,3*%
%TO.N,-3.3V REF*%
X94615000Y-53975000D03*
%TD*%
D18*
%TO.N,GND*%
X143510000Y-67310000D03*
X116840000Y-48895000D03*
X116840000Y-44450000D03*
X114300000Y-46355000D03*
X114935000Y-33655000D03*
X117475000Y-40005000D03*
X114935000Y-37465000D03*
X97155000Y-40640000D03*
X97155000Y-42545000D03*
X102870000Y-46355000D03*
X60960000Y-37465000D03*
X68580000Y-37465000D03*
X68580000Y-29210000D03*
X69850000Y-32385000D03*
X126365000Y-60960000D03*
X123825000Y-60960000D03*
X122555000Y-69215000D03*
X72390000Y-52705000D03*
X65405000Y-29210000D03*
X92710000Y-29210000D03*
X65405000Y-71755000D03*
X75565000Y-73025000D03*
X83820000Y-72390000D03*
X91440000Y-73025000D03*
X135255000Y-65405000D03*
X138430000Y-66675000D03*
X147955000Y-67310000D03*
X139700000Y-60960000D03*
X136525000Y-60325000D03*
X118745000Y-59055000D03*
X122555000Y-61595000D03*
X125095000Y-60960000D03*
X125095000Y-64770000D03*
X123825000Y-64770000D03*
X126365000Y-64770000D03*
X122555000Y-64135000D03*
X122555000Y-62865000D03*
X115570000Y-62230000D03*
X116205000Y-65405000D03*
X115570000Y-71755000D03*
X99695000Y-71755000D03*
X106045000Y-71755000D03*
X104140000Y-59690000D03*
X97155000Y-59055000D03*
X92710000Y-64135000D03*
X89535000Y-49530000D03*
X84455000Y-54610000D03*
X56515000Y-52070000D03*
X53340000Y-57785000D03*
X55245000Y-58420000D03*
X53340000Y-64135000D03*
X63500000Y-66040000D03*
X66040000Y-66040000D03*
X68580000Y-66040000D03*
X68580000Y-64135000D03*
X66040000Y-64135000D03*
X58420000Y-57785000D03*
X64770000Y-50165000D03*
X70485000Y-43815000D03*
X65405000Y-45720000D03*
X60960000Y-40640000D03*
X59055000Y-45720000D03*
X59055000Y-41910000D03*
X54610000Y-46990000D03*
X64770000Y-37465000D03*
X77470000Y-29845000D03*
X85090000Y-35814000D03*
X86360000Y-33020000D03*
X105410000Y-35560000D03*
X95250000Y-36830000D03*
X102870000Y-29210000D03*
X97790000Y-32385000D03*
%TO.N,Vd*%
X133350000Y-62865000D03*
X131445000Y-62865000D03*
X128905000Y-62865000D03*
X130810000Y-62865000D03*
X132080000Y-62865000D03*
X130175000Y-62865000D03*
X129540000Y-62865000D03*
X132715000Y-62865000D03*
X133985000Y-62865000D03*
X132715000Y-62230000D03*
X133985000Y-62230000D03*
X130175000Y-62230000D03*
X133350000Y-62230000D03*
X130810000Y-62230000D03*
X129540000Y-62230000D03*
X131445000Y-62230000D03*
X132080000Y-62230000D03*
X128905000Y-62230000D03*
X129540000Y-61595000D03*
X130175000Y-61595000D03*
X133350000Y-61595000D03*
X131445000Y-61595000D03*
X132080000Y-61595000D03*
X128905000Y-61595000D03*
X130810000Y-61595000D03*
X132715000Y-61595000D03*
X133985000Y-61595000D03*
X132715000Y-60960000D03*
X133985000Y-60960000D03*
X129540000Y-60960000D03*
X133350000Y-60960000D03*
X131445000Y-60960000D03*
X130810000Y-60960000D03*
X128905000Y-60960000D03*
X132080000Y-60960000D03*
X130175000Y-60960000D03*
X132080000Y-60325000D03*
X130175000Y-60325000D03*
X133985000Y-60325000D03*
X130810000Y-60325000D03*
X132715000Y-60325000D03*
X128905000Y-60325000D03*
X129540000Y-60325000D03*
X131445000Y-60325000D03*
X133350000Y-60325000D03*
X129540000Y-59690000D03*
X131445000Y-59690000D03*
X133350000Y-59690000D03*
X128905000Y-59690000D03*
X132080000Y-59690000D03*
X133985000Y-59690000D03*
X130810000Y-59690000D03*
X130175000Y-59690000D03*
X132715000Y-59690000D03*
X133350000Y-59055000D03*
X132715000Y-59055000D03*
X133985000Y-59055000D03*
X130810000Y-59055000D03*
X130175000Y-59055000D03*
X129540000Y-59055000D03*
X132080000Y-59055000D03*
X131445000Y-59055000D03*
X128905000Y-59055000D03*
X133985000Y-58420000D03*
X132715000Y-58420000D03*
X133350000Y-58420000D03*
X132080000Y-58420000D03*
X131445000Y-58420000D03*
X130810000Y-58420000D03*
X130175000Y-58420000D03*
X129540000Y-58420000D03*
X128905000Y-58420000D03*
%TO.N,VCC*%
X146050000Y-59055000D03*
X146685000Y-59690000D03*
X147320000Y-59055000D03*
X146685000Y-59055000D03*
X146685000Y-58420000D03*
X147955000Y-58420000D03*
X147955000Y-59690000D03*
X147955000Y-59055000D03*
X148590000Y-59055000D03*
X148590000Y-60325000D03*
X147955000Y-60960000D03*
X147955000Y-60325000D03*
X147320000Y-60325000D03*
X146685000Y-60325000D03*
X146685000Y-60960000D03*
X146050000Y-60325000D03*
X145415000Y-59690000D03*
X145415000Y-60960000D03*
X145415000Y-60325000D03*
X144780000Y-60325000D03*
X144780000Y-59055000D03*
X145415000Y-59055000D03*
X145415000Y-58420000D03*
X144145000Y-58420000D03*
X144145000Y-59690000D03*
X144145000Y-59055000D03*
X143510000Y-59055000D03*
X143510000Y-60325000D03*
X144145000Y-60325000D03*
X144145000Y-60960000D03*
X143510000Y-61595000D03*
X144145000Y-61595000D03*
X144780000Y-61595000D03*
X145415000Y-61595000D03*
X146050000Y-61595000D03*
X146685000Y-61595000D03*
X147320000Y-61595000D03*
X147955000Y-61595000D03*
X148590000Y-61595000D03*
X148590000Y-62865000D03*
X147955000Y-62230000D03*
X147955000Y-62865000D03*
X147320000Y-62865000D03*
X146685000Y-62230000D03*
X146685000Y-62865000D03*
X146050000Y-62865000D03*
X145415000Y-62230000D03*
X145415000Y-62865000D03*
X144780000Y-62865000D03*
X144145000Y-62230000D03*
X144145000Y-62865000D03*
X143510000Y-62865000D03*
X143510000Y-62230000D03*
X144780000Y-62230000D03*
X146050000Y-62230000D03*
X147320000Y-62230000D03*
X148590000Y-62230000D03*
X148590000Y-60960000D03*
X147320000Y-60960000D03*
X146050000Y-60960000D03*
X144780000Y-60960000D03*
X143510000Y-60960000D03*
X143510000Y-59690000D03*
X144780000Y-59690000D03*
X146050000Y-59690000D03*
X147320000Y-59690000D03*
X148590000Y-59690000D03*
X148590000Y-58420000D03*
X147320000Y-58420000D03*
X146050000Y-58420000D03*
X144780000Y-58420000D03*
X143510000Y-58420000D03*
%TO.N,+5V*%
X112064800Y-60756800D03*
%TO.N,GND*%
X103022400Y-54051200D03*
%TO.N,-5V*%
X102463600Y-66675000D03*
%TO.N,Vg*%
X101219000Y-60325000D03*
X105283000Y-40259000D03*
%TO.N,GND*%
X81026000Y-42545000D03*
%TO.N,~{SD}*%
X81915000Y-43815000D03*
X97790000Y-38735000D03*
%TO.N,Net-(U6A-+)*%
X106045000Y-43789600D03*
%TO.N,GND*%
X109855000Y-55880000D03*
X109220000Y-59055000D03*
X108585000Y-43815000D03*
X107950000Y-46355000D03*
%TO.N,VCC*%
X82550000Y-59436000D03*
%TO.N,+5V*%
X61849000Y-67945000D03*
X88519000Y-61595000D03*
X112318800Y-37439600D03*
X114935000Y-43815000D03*
%TO.N,-5V*%
X100711000Y-46736000D03*
X69088000Y-48133000D03*
%TO.N,+5V*%
X77851000Y-46228000D03*
X61244500Y-47020500D03*
%TO.N,+3.3V REF*%
X85217000Y-57785000D03*
%TO.N,Net-(D3-K)*%
X90551000Y-39878000D03*
X87757000Y-35814000D03*
%TO.N,-3.3V REF*%
X113665000Y-57150000D03*
%TO.N,+3.3V REF*%
X115189000Y-68453000D03*
X87884000Y-66675000D03*
%TO.N,GND*%
X98425000Y-67310000D03*
X98425000Y-69850000D03*
X106426000Y-69850000D03*
X110617000Y-67437000D03*
%TD*%
D19*
%TO.N,+5V*%
X114935000Y-41161120D02*
X114935000Y-43815000D01*
X112318800Y-37439600D02*
X112318800Y-38544920D01*
X112318800Y-38544920D02*
X114935000Y-41161120D01*
X115417600Y-57404000D02*
X115417600Y-44297600D01*
X112064800Y-60756800D02*
X115417600Y-57404000D01*
X115417600Y-44297600D02*
X114935000Y-43815000D01*
D20*
%TO.N,+3.3V REF*%
X98298000Y-52578000D02*
X99695000Y-53975000D01*
X90424000Y-52578000D02*
X98298000Y-52578000D01*
X85217000Y-57785000D02*
X90424000Y-52578000D01*
%TO.N,-3.3V REF*%
X94615000Y-56134000D02*
X94615000Y-53975000D01*
X95631000Y-57150000D02*
X94615000Y-56134000D01*
X113665000Y-57150000D02*
X95631000Y-57150000D01*
%TO.N,~{SD}*%
X90805000Y-43815000D02*
X81915000Y-43815000D01*
X95885000Y-38735000D02*
X90805000Y-43815000D01*
X97790000Y-38735000D02*
X95885000Y-38735000D01*
D19*
%TO.N,+5V*%
X82169000Y-67945000D02*
X88519000Y-61595000D01*
X61849000Y-67945000D02*
X82169000Y-67945000D01*
%TO.N,-5V*%
X79248000Y-46736000D02*
X100711000Y-46736000D01*
X77851000Y-48133000D02*
X79248000Y-46736000D01*
X69088000Y-48133000D02*
X77851000Y-48133000D01*
%TO.N,+5V*%
X113665000Y-45085000D02*
X114935000Y-43815000D01*
X102235000Y-45085000D02*
X113665000Y-45085000D01*
X78994000Y-45085000D02*
X102235000Y-45085000D01*
X77851000Y-46228000D02*
X78994000Y-45085000D01*
X77089000Y-46990000D02*
X77851000Y-46228000D01*
X61275000Y-46990000D02*
X77089000Y-46990000D01*
X61244500Y-47020500D02*
X61275000Y-46990000D01*
D20*
%TO.N,Net-(D3-K)*%
X87757000Y-37084000D02*
X90551000Y-39878000D01*
X87757000Y-35814000D02*
X87757000Y-37084000D01*
%TO.N,+3.3V REF*%
X89662000Y-68453000D02*
X87884000Y-66675000D01*
X115189000Y-68453000D02*
X89662000Y-68453000D01*
%TD*%
%TA.AperFunction,Conductor*%
%TO.N,GND*%
G36*
X149228472Y-25900695D02*
G01*
X149517507Y-25916927D01*
X149531305Y-25918481D01*
X149813265Y-25966388D01*
X149826821Y-25969482D01*
X150101642Y-26048657D01*
X150114768Y-26053250D01*
X150378994Y-26162696D01*
X150391508Y-26168722D01*
X150641830Y-26307070D01*
X150653603Y-26314468D01*
X150886843Y-26479961D01*
X150897704Y-26488622D01*
X151110964Y-26679202D01*
X151120797Y-26689035D01*
X151311373Y-26902290D01*
X151320042Y-26913162D01*
X151485530Y-27146395D01*
X151492929Y-27158169D01*
X151631273Y-27408484D01*
X151637306Y-27421012D01*
X151746749Y-27685232D01*
X151751342Y-27698357D01*
X151830517Y-27973178D01*
X151833611Y-27986735D01*
X151881516Y-28268684D01*
X151883073Y-28282502D01*
X151899305Y-28571527D01*
X151899500Y-28578480D01*
X151899500Y-73021519D01*
X151899305Y-73028472D01*
X151883073Y-73317497D01*
X151881516Y-73331315D01*
X151833611Y-73613264D01*
X151830517Y-73626821D01*
X151751342Y-73901642D01*
X151746749Y-73914767D01*
X151637306Y-74178987D01*
X151631273Y-74191515D01*
X151492929Y-74441830D01*
X151485530Y-74453604D01*
X151320042Y-74686837D01*
X151311373Y-74697709D01*
X151120797Y-74910964D01*
X151110964Y-74920797D01*
X150897709Y-75111373D01*
X150886837Y-75120042D01*
X150653604Y-75285530D01*
X150641830Y-75292929D01*
X150391515Y-75431273D01*
X150378987Y-75437306D01*
X150114767Y-75546749D01*
X150101642Y-75551342D01*
X149826821Y-75630517D01*
X149813264Y-75633611D01*
X149531315Y-75681516D01*
X149517497Y-75683073D01*
X149228472Y-75699305D01*
X149221519Y-75699500D01*
X53978481Y-75699500D01*
X53971528Y-75699305D01*
X53682502Y-75683073D01*
X53668684Y-75681516D01*
X53386735Y-75633611D01*
X53373178Y-75630517D01*
X53098357Y-75551342D01*
X53085232Y-75546749D01*
X52821012Y-75437306D01*
X52808484Y-75431273D01*
X52558169Y-75292929D01*
X52546395Y-75285530D01*
X52313162Y-75120042D01*
X52302290Y-75111373D01*
X52089035Y-74920797D01*
X52079202Y-74910964D01*
X51888626Y-74697709D01*
X51879961Y-74686843D01*
X51714468Y-74453603D01*
X51707070Y-74441830D01*
X51568726Y-74191515D01*
X51562696Y-74178994D01*
X51453250Y-73914767D01*
X51448657Y-73901642D01*
X51369482Y-73626821D01*
X51366388Y-73613264D01*
X51359773Y-73574331D01*
X51318481Y-73331305D01*
X51316927Y-73317507D01*
X51316225Y-73305001D01*
X125629500Y-73305001D01*
X125629501Y-73305018D01*
X125640000Y-73407796D01*
X125640001Y-73407799D01*
X125681930Y-73534331D01*
X125695186Y-73574334D01*
X125787288Y-73723656D01*
X125911344Y-73847712D01*
X126060666Y-73939814D01*
X126227203Y-73994999D01*
X126329991Y-74005500D01*
X127670008Y-74005499D01*
X127772797Y-73994999D01*
X127939334Y-73939814D01*
X128088656Y-73847712D01*
X128212712Y-73723656D01*
X128304814Y-73574334D01*
X128359999Y-73407797D01*
X128370500Y-73305009D01*
X128370500Y-73265001D01*
X136424500Y-73265001D01*
X136424501Y-73265018D01*
X136435000Y-73367796D01*
X136435001Y-73367799D01*
X136448256Y-73407799D01*
X136490186Y-73534334D01*
X136582288Y-73683656D01*
X136706344Y-73807712D01*
X136855666Y-73899814D01*
X137022203Y-73954999D01*
X137124991Y-73965500D01*
X138465008Y-73965499D01*
X138567797Y-73954999D01*
X138734334Y-73899814D01*
X138883656Y-73807712D01*
X139007712Y-73683656D01*
X139099814Y-73534334D01*
X139154999Y-73367797D01*
X139165500Y-73265009D01*
X139165499Y-71474992D01*
X139154999Y-71372203D01*
X139099814Y-71205666D01*
X139007712Y-71056344D01*
X138883656Y-70932288D01*
X138734334Y-70840186D01*
X138567797Y-70785001D01*
X138567795Y-70785000D01*
X138465010Y-70774500D01*
X137124998Y-70774500D01*
X137124981Y-70774501D01*
X137022203Y-70785000D01*
X137022200Y-70785001D01*
X136855668Y-70840185D01*
X136855663Y-70840187D01*
X136706342Y-70932289D01*
X136582289Y-71056342D01*
X136490187Y-71205663D01*
X136490185Y-71205668D01*
X136462349Y-71289670D01*
X136435001Y-71372203D01*
X136435001Y-71372204D01*
X136435000Y-71372204D01*
X136424500Y-71474983D01*
X136424500Y-73265001D01*
X128370500Y-73265001D01*
X128370499Y-71514992D01*
X128359999Y-71412203D01*
X128304814Y-71245666D01*
X128212712Y-71096344D01*
X128088656Y-70972288D01*
X127939334Y-70880186D01*
X127772797Y-70825001D01*
X127772795Y-70825000D01*
X127670010Y-70814500D01*
X126329998Y-70814500D01*
X126329981Y-70814501D01*
X126227203Y-70825000D01*
X126227200Y-70825001D01*
X126060668Y-70880185D01*
X126060663Y-70880187D01*
X125911342Y-70972289D01*
X125787289Y-71096342D01*
X125695187Y-71245663D01*
X125695186Y-71245666D01*
X125640001Y-71412203D01*
X125640001Y-71412204D01*
X125640000Y-71412204D01*
X125629500Y-71514983D01*
X125629500Y-73305001D01*
X51316225Y-73305001D01*
X51300695Y-73028472D01*
X51300500Y-73021519D01*
X51300500Y-68025570D01*
X61031000Y-68025570D01*
X61062433Y-68183594D01*
X61062435Y-68183602D01*
X61124096Y-68332466D01*
X61213619Y-68466447D01*
X61327552Y-68580380D01*
X61461533Y-68669903D01*
X61535959Y-68700731D01*
X61610398Y-68731565D01*
X61768429Y-68762999D01*
X61768433Y-68763000D01*
X61768434Y-68763000D01*
X82249567Y-68763000D01*
X82249568Y-68762999D01*
X82407602Y-68731565D01*
X82482035Y-68700733D01*
X82556468Y-68669903D01*
X82690445Y-68580382D01*
X84595824Y-66675003D01*
X87078435Y-66675003D01*
X87098630Y-66854249D01*
X87098631Y-66854254D01*
X87158211Y-67024523D01*
X87222602Y-67127000D01*
X87254184Y-67177262D01*
X87381738Y-67304816D01*
X87534478Y-67400789D01*
X87704745Y-67460368D01*
X87748635Y-67465313D01*
X87813048Y-67492378D01*
X87822433Y-67500852D01*
X89174589Y-68853008D01*
X89261992Y-68940411D01*
X89261994Y-68940413D01*
X89261996Y-68940414D01*
X89364756Y-69009076D01*
X89364758Y-69009077D01*
X89364767Y-69009083D01*
X89389772Y-69019440D01*
X89412071Y-69028677D01*
X89454254Y-69046149D01*
X89478966Y-69056386D01*
X89600192Y-69080499D01*
X89600196Y-69080500D01*
X89600197Y-69080500D01*
X114647328Y-69080500D01*
X114713299Y-69099505D01*
X114839478Y-69178789D01*
X115009745Y-69238368D01*
X115009750Y-69238369D01*
X115188996Y-69258565D01*
X115189000Y-69258565D01*
X115189004Y-69258565D01*
X115368249Y-69238369D01*
X115368252Y-69238368D01*
X115368255Y-69238368D01*
X115538522Y-69178789D01*
X115691262Y-69082816D01*
X115818816Y-68955262D01*
X115914789Y-68802522D01*
X115974368Y-68632255D01*
X115994565Y-68453000D01*
X115980984Y-68332468D01*
X115974369Y-68273750D01*
X115974368Y-68273745D01*
X115914789Y-68103478D01*
X115818816Y-67950738D01*
X115691262Y-67823184D01*
X115664700Y-67806494D01*
X115538523Y-67727211D01*
X115368254Y-67667631D01*
X115368249Y-67667630D01*
X115189004Y-67647435D01*
X115188996Y-67647435D01*
X115009750Y-67667630D01*
X115009745Y-67667631D01*
X114839476Y-67727211D01*
X114713300Y-67806494D01*
X114647328Y-67825500D01*
X89973281Y-67825500D01*
X89906242Y-67805815D01*
X89885600Y-67789181D01*
X88771422Y-66675003D01*
X101658035Y-66675003D01*
X101678230Y-66854249D01*
X101678231Y-66854254D01*
X101737811Y-67024523D01*
X101802202Y-67127000D01*
X101833784Y-67177262D01*
X101961338Y-67304816D01*
X102114078Y-67400789D01*
X102284342Y-67460367D01*
X102284345Y-67460368D01*
X102284350Y-67460369D01*
X102463596Y-67480565D01*
X102463600Y-67480565D01*
X102463604Y-67480565D01*
X102642849Y-67460369D01*
X102642852Y-67460368D01*
X102642855Y-67460368D01*
X102813122Y-67400789D01*
X102965862Y-67304816D01*
X103093416Y-67177262D01*
X103189389Y-67024522D01*
X103248968Y-66854255D01*
X103269165Y-66675000D01*
X103262228Y-66613433D01*
X103248969Y-66495750D01*
X103248968Y-66495745D01*
X103189388Y-66325476D01*
X103093415Y-66172737D01*
X102965862Y-66045184D01*
X102813123Y-65949211D01*
X102642854Y-65889631D01*
X102642849Y-65889630D01*
X102463604Y-65869435D01*
X102463596Y-65869435D01*
X102284350Y-65889630D01*
X102284345Y-65889631D01*
X102114076Y-65949211D01*
X101961337Y-66045184D01*
X101833784Y-66172737D01*
X101737811Y-66325476D01*
X101678231Y-66495745D01*
X101678230Y-66495750D01*
X101658035Y-66674996D01*
X101658035Y-66675003D01*
X88771422Y-66675003D01*
X88709852Y-66613433D01*
X88676367Y-66552110D01*
X88674314Y-66539648D01*
X88669368Y-66495745D01*
X88609789Y-66325478D01*
X88513816Y-66172738D01*
X88386262Y-66045184D01*
X88233523Y-65949211D01*
X88063254Y-65889631D01*
X88063249Y-65889630D01*
X87884004Y-65869435D01*
X87883996Y-65869435D01*
X87704750Y-65889630D01*
X87704745Y-65889631D01*
X87534476Y-65949211D01*
X87381737Y-66045184D01*
X87254184Y-66172737D01*
X87158211Y-66325476D01*
X87098631Y-66495745D01*
X87098630Y-66495750D01*
X87078435Y-66674996D01*
X87078435Y-66675003D01*
X84595824Y-66675003D01*
X87640827Y-63630000D01*
X127383500Y-63630000D01*
X127383501Y-63630009D01*
X127395052Y-63737450D01*
X127395054Y-63737462D01*
X127406260Y-63788972D01*
X127440383Y-63891497D01*
X127440386Y-63891503D01*
X127518171Y-64012537D01*
X127518179Y-64012548D01*
X127563923Y-64065340D01*
X127563926Y-64065343D01*
X127563930Y-64065347D01*
X127672664Y-64159567D01*
X127672667Y-64159568D01*
X127672668Y-64159569D01*
X127774488Y-64206070D01*
X127803541Y-64219338D01*
X127870580Y-64239023D01*
X127870584Y-64239024D01*
X128013000Y-64259500D01*
X128013003Y-64259500D01*
X134876990Y-64259500D01*
X134877000Y-64259500D01*
X134984456Y-64247947D01*
X135035967Y-64236741D01*
X135070197Y-64225347D01*
X135138497Y-64202616D01*
X135138501Y-64202613D01*
X135138504Y-64202613D01*
X135259543Y-64124825D01*
X135312347Y-64079070D01*
X135406567Y-63970336D01*
X135466338Y-63839459D01*
X135486023Y-63772420D01*
X135486024Y-63772416D01*
X135488240Y-63757000D01*
X141988500Y-63757000D01*
X141988501Y-63757009D01*
X142000052Y-63864450D01*
X142000054Y-63864462D01*
X142011260Y-63915972D01*
X142045383Y-64018497D01*
X142045386Y-64018503D01*
X142123171Y-64139537D01*
X142123179Y-64139548D01*
X142168923Y-64192340D01*
X142168926Y-64192343D01*
X142168930Y-64192347D01*
X142277664Y-64286567D01*
X142277667Y-64286568D01*
X142277668Y-64286569D01*
X142371925Y-64329616D01*
X142408541Y-64346338D01*
X142475580Y-64366023D01*
X142475584Y-64366024D01*
X142618000Y-64386500D01*
X142618003Y-64386500D01*
X149481990Y-64386500D01*
X149482000Y-64386500D01*
X149589456Y-64374947D01*
X149640967Y-64363741D01*
X149675197Y-64352347D01*
X149743497Y-64329616D01*
X149743501Y-64329613D01*
X149743504Y-64329613D01*
X149864543Y-64251825D01*
X149917347Y-64206070D01*
X150011567Y-64097336D01*
X150071338Y-63966459D01*
X150091023Y-63899420D01*
X150091024Y-63899416D01*
X150111500Y-63757000D01*
X150111500Y-57655000D01*
X150099947Y-57547544D01*
X150088741Y-57496033D01*
X150084924Y-57484566D01*
X150054616Y-57393502D01*
X150054613Y-57393496D01*
X150038891Y-57369033D01*
X149976825Y-57272457D01*
X149971660Y-57266496D01*
X149931076Y-57219659D01*
X149931072Y-57219656D01*
X149931070Y-57219653D01*
X149822336Y-57125433D01*
X149822333Y-57125431D01*
X149822331Y-57125430D01*
X149691465Y-57065664D01*
X149691460Y-57065662D01*
X149691459Y-57065662D01*
X149624420Y-57045977D01*
X149624422Y-57045977D01*
X149624417Y-57045976D01*
X149535409Y-57033179D01*
X149482000Y-57025500D01*
X142618000Y-57025500D01*
X142617991Y-57025500D01*
X142617990Y-57025501D01*
X142510549Y-57037052D01*
X142510537Y-57037054D01*
X142459027Y-57048260D01*
X142356502Y-57082383D01*
X142356496Y-57082386D01*
X142235462Y-57160171D01*
X142235451Y-57160179D01*
X142182659Y-57205923D01*
X142088433Y-57314664D01*
X142088430Y-57314668D01*
X142028664Y-57445534D01*
X142008976Y-57512582D01*
X142003949Y-57547549D01*
X141988500Y-57655000D01*
X141988500Y-63757000D01*
X135488240Y-63757000D01*
X135506500Y-63630000D01*
X135506500Y-57528000D01*
X135494947Y-57420544D01*
X135483741Y-57369033D01*
X135483637Y-57368722D01*
X135449616Y-57266502D01*
X135449613Y-57266496D01*
X135378076Y-57155184D01*
X135371825Y-57145457D01*
X135371820Y-57145451D01*
X135326076Y-57092659D01*
X135326072Y-57092656D01*
X135326070Y-57092653D01*
X135217336Y-56998433D01*
X135217333Y-56998431D01*
X135217331Y-56998430D01*
X135086465Y-56938664D01*
X135086460Y-56938662D01*
X135086459Y-56938662D01*
X135019420Y-56918977D01*
X135019422Y-56918977D01*
X135019417Y-56918976D01*
X134957347Y-56910052D01*
X134877000Y-56898500D01*
X128013000Y-56898500D01*
X128012991Y-56898500D01*
X128012990Y-56898501D01*
X127905549Y-56910052D01*
X127905537Y-56910054D01*
X127854027Y-56921260D01*
X127751502Y-56955383D01*
X127751496Y-56955386D01*
X127630462Y-57033171D01*
X127630451Y-57033179D01*
X127577659Y-57078923D01*
X127483433Y-57187664D01*
X127483430Y-57187668D01*
X127423664Y-57318534D01*
X127403976Y-57385582D01*
X127398949Y-57420549D01*
X127383500Y-57528000D01*
X127383500Y-63630000D01*
X87640827Y-63630000D01*
X89154382Y-62116445D01*
X89243902Y-61982468D01*
X89305564Y-61833602D01*
X89337000Y-61675566D01*
X89337000Y-61514434D01*
X89337000Y-61514431D01*
X89305565Y-61356403D01*
X89305564Y-61356402D01*
X89305564Y-61356398D01*
X89305562Y-61356393D01*
X89243905Y-61207538D01*
X89243898Y-61207525D01*
X89154382Y-61073556D01*
X89154379Y-61073552D01*
X89040447Y-60959620D01*
X89040443Y-60959617D01*
X88906474Y-60870101D01*
X88906461Y-60870094D01*
X88757606Y-60808437D01*
X88757596Y-60808434D01*
X88599568Y-60777000D01*
X88599566Y-60777000D01*
X88438434Y-60777000D01*
X88438432Y-60777000D01*
X88280403Y-60808434D01*
X88280393Y-60808437D01*
X88131535Y-60870095D01*
X87997552Y-60959619D01*
X87997551Y-60959620D01*
X81866492Y-67090681D01*
X81805169Y-67124166D01*
X81778811Y-67127000D01*
X61768429Y-67127000D01*
X61610405Y-67158433D01*
X61610397Y-67158435D01*
X61461533Y-67220096D01*
X61327552Y-67309619D01*
X61213619Y-67423552D01*
X61124096Y-67557533D01*
X61062435Y-67706397D01*
X61062433Y-67706405D01*
X61031000Y-67864429D01*
X61031000Y-68025570D01*
X51300500Y-68025570D01*
X51300500Y-60325003D01*
X100413435Y-60325003D01*
X100433630Y-60504249D01*
X100433631Y-60504254D01*
X100493211Y-60674523D01*
X100577355Y-60808436D01*
X100589184Y-60827262D01*
X100716738Y-60954816D01*
X100869478Y-61050789D01*
X101039745Y-61110368D01*
X101039750Y-61110369D01*
X101218996Y-61130565D01*
X101219000Y-61130565D01*
X101219004Y-61130565D01*
X101398249Y-61110369D01*
X101398252Y-61110368D01*
X101398255Y-61110368D01*
X101568522Y-61050789D01*
X101721262Y-60954816D01*
X101848816Y-60827262D01*
X101944789Y-60674522D01*
X102004368Y-60504255D01*
X102019570Y-60369331D01*
X102024565Y-60325003D01*
X102024565Y-60324996D01*
X102004369Y-60145750D01*
X102004368Y-60145745D01*
X101944789Y-59975478D01*
X101848816Y-59822738D01*
X101721262Y-59695184D01*
X101568523Y-59599211D01*
X101398254Y-59539631D01*
X101398249Y-59539630D01*
X101219004Y-59519435D01*
X101218996Y-59519435D01*
X101039750Y-59539630D01*
X101039745Y-59539631D01*
X100869476Y-59599211D01*
X100716737Y-59695184D01*
X100589184Y-59822737D01*
X100493211Y-59975476D01*
X100433631Y-60145745D01*
X100433630Y-60145750D01*
X100413435Y-60324996D01*
X100413435Y-60325003D01*
X51300500Y-60325003D01*
X51300500Y-59436003D01*
X81744435Y-59436003D01*
X81764630Y-59615249D01*
X81764631Y-59615254D01*
X81824211Y-59785523D01*
X81847595Y-59822738D01*
X81920184Y-59938262D01*
X82047738Y-60065816D01*
X82200478Y-60161789D01*
X82370745Y-60221368D01*
X82370750Y-60221369D01*
X82549996Y-60241565D01*
X82550000Y-60241565D01*
X82550004Y-60241565D01*
X82729249Y-60221369D01*
X82729252Y-60221368D01*
X82729255Y-60221368D01*
X82899522Y-60161789D01*
X83052262Y-60065816D01*
X83179816Y-59938262D01*
X83275789Y-59785522D01*
X83335368Y-59615255D01*
X83343889Y-59539630D01*
X83355565Y-59436003D01*
X83355565Y-59435996D01*
X83335369Y-59256750D01*
X83335368Y-59256745D01*
X83275788Y-59086476D01*
X83179815Y-58933737D01*
X83052262Y-58806184D01*
X82899523Y-58710211D01*
X82729254Y-58650631D01*
X82729249Y-58650630D01*
X82550004Y-58630435D01*
X82549996Y-58630435D01*
X82370750Y-58650630D01*
X82370745Y-58650631D01*
X82200476Y-58710211D01*
X82047737Y-58806184D01*
X81920184Y-58933737D01*
X81824211Y-59086476D01*
X81764631Y-59256745D01*
X81764630Y-59256750D01*
X81744435Y-59435996D01*
X81744435Y-59436003D01*
X51300500Y-59436003D01*
X51300500Y-47101068D01*
X60426499Y-47101068D01*
X60457934Y-47259095D01*
X60457936Y-47259103D01*
X60519597Y-47407968D01*
X60519598Y-47407971D01*
X60609117Y-47541944D01*
X60609120Y-47541948D01*
X60723051Y-47655879D01*
X60723055Y-47655882D01*
X60857028Y-47745401D01*
X60857030Y-47745401D01*
X60857032Y-47745403D01*
X61005898Y-47807064D01*
X61044598Y-47814762D01*
X61163931Y-47838500D01*
X61163934Y-47838500D01*
X61325068Y-47838500D01*
X61466417Y-47810383D01*
X61490609Y-47808000D01*
X68167526Y-47808000D01*
X68234565Y-47827685D01*
X68280320Y-47880489D01*
X68290264Y-47949647D01*
X68289143Y-47956191D01*
X68270000Y-48052429D01*
X68270000Y-48213570D01*
X68301433Y-48371594D01*
X68301435Y-48371602D01*
X68363096Y-48520466D01*
X68452619Y-48654447D01*
X68566552Y-48768380D01*
X68700533Y-48857903D01*
X68774959Y-48888731D01*
X68849398Y-48919565D01*
X69007429Y-48950999D01*
X69007433Y-48951000D01*
X69007434Y-48951000D01*
X77931567Y-48951000D01*
X77931568Y-48950999D01*
X78089602Y-48919565D01*
X78164035Y-48888733D01*
X78238468Y-48857903D01*
X78372445Y-48768382D01*
X79550508Y-47590319D01*
X79611831Y-47556834D01*
X79638189Y-47554000D01*
X100791567Y-47554000D01*
X100791568Y-47553999D01*
X100949602Y-47522565D01*
X101098468Y-47460902D01*
X101232445Y-47371382D01*
X101346382Y-47257445D01*
X101435902Y-47123468D01*
X101497565Y-46974602D01*
X101529000Y-46816566D01*
X101529000Y-46655434D01*
X101497565Y-46497398D01*
X101438423Y-46354618D01*
X101435903Y-46348533D01*
X101346380Y-46214552D01*
X101246509Y-46114681D01*
X101213024Y-46053358D01*
X101218008Y-45983666D01*
X101259880Y-45927733D01*
X101325344Y-45903316D01*
X101334190Y-45903000D01*
X113745567Y-45903000D01*
X113745568Y-45902999D01*
X113903602Y-45871565D01*
X113978524Y-45840531D01*
X114052468Y-45809903D01*
X114186445Y-45720382D01*
X114387919Y-45518908D01*
X114449242Y-45485423D01*
X114518933Y-45490407D01*
X114574867Y-45532278D01*
X114599284Y-45597743D01*
X114599600Y-45606589D01*
X114599600Y-56702384D01*
X114579915Y-56769423D01*
X114527111Y-56815178D01*
X114457953Y-56825122D01*
X114394397Y-56796097D01*
X114370607Y-56768357D01*
X114294817Y-56647739D01*
X114167262Y-56520184D01*
X114014523Y-56424211D01*
X113844254Y-56364631D01*
X113844249Y-56364630D01*
X113665004Y-56344435D01*
X113664996Y-56344435D01*
X113485750Y-56364630D01*
X113485745Y-56364631D01*
X113315476Y-56424211D01*
X113189300Y-56503494D01*
X113123328Y-56522500D01*
X95942281Y-56522500D01*
X95875242Y-56502815D01*
X95854600Y-56486181D01*
X95278819Y-55910400D01*
X95245334Y-55849077D01*
X95242500Y-55822719D01*
X95242500Y-55090124D01*
X95262185Y-55023085D01*
X95295375Y-54988550D01*
X95402519Y-54913529D01*
X95553529Y-54762519D01*
X95676021Y-54587581D01*
X95766276Y-54394030D01*
X95766280Y-54394013D01*
X95768130Y-54388936D01*
X95770253Y-54389709D01*
X95801576Y-54338305D01*
X95864419Y-54307766D01*
X95933796Y-54316050D01*
X95987680Y-54360528D01*
X96000827Y-54389315D01*
X96001870Y-54388936D01*
X96003722Y-54394022D01*
X96003724Y-54394030D01*
X96046171Y-54485058D01*
X96093977Y-54587578D01*
X96216472Y-54762521D01*
X96367478Y-54913527D01*
X96367481Y-54913529D01*
X96542419Y-55036021D01*
X96542421Y-55036022D01*
X96542420Y-55036022D01*
X96557653Y-55043125D01*
X96735970Y-55126276D01*
X96942253Y-55181549D01*
X97094215Y-55194844D01*
X97154998Y-55200162D01*
X97155000Y-55200162D01*
X97155002Y-55200162D01*
X97208186Y-55195508D01*
X97367747Y-55181549D01*
X97574030Y-55126276D01*
X97767581Y-55036021D01*
X97942519Y-54913529D01*
X98093529Y-54762519D01*
X98216021Y-54587581D01*
X98306276Y-54394030D01*
X98306280Y-54394013D01*
X98308130Y-54388936D01*
X98310253Y-54389709D01*
X98341576Y-54338305D01*
X98404419Y-54307766D01*
X98473796Y-54316050D01*
X98527680Y-54360528D01*
X98540827Y-54389315D01*
X98541870Y-54388936D01*
X98543722Y-54394022D01*
X98543724Y-54394030D01*
X98586171Y-54485058D01*
X98633977Y-54587578D01*
X98756472Y-54762521D01*
X98907478Y-54913527D01*
X98907481Y-54913529D01*
X99082419Y-55036021D01*
X99082421Y-55036022D01*
X99082420Y-55036022D01*
X99097653Y-55043125D01*
X99275970Y-55126276D01*
X99482253Y-55181549D01*
X99634215Y-55194844D01*
X99694998Y-55200162D01*
X99695000Y-55200162D01*
X99695002Y-55200162D01*
X99748186Y-55195508D01*
X99907747Y-55181549D01*
X100114030Y-55126276D01*
X100307581Y-55036021D01*
X100482519Y-54913529D01*
X100633529Y-54762519D01*
X100756021Y-54587581D01*
X100846276Y-54394030D01*
X100901549Y-54187747D01*
X100920162Y-53975001D01*
X104819838Y-53975001D01*
X104838450Y-54187741D01*
X104838452Y-54187752D01*
X104893721Y-54394022D01*
X104893723Y-54394026D01*
X104893724Y-54394030D01*
X104936171Y-54485058D01*
X104983977Y-54587578D01*
X105106472Y-54762521D01*
X105257478Y-54913527D01*
X105257481Y-54913529D01*
X105432419Y-55036021D01*
X105432421Y-55036022D01*
X105432420Y-55036022D01*
X105447653Y-55043125D01*
X105625970Y-55126276D01*
X105832253Y-55181549D01*
X105984215Y-55194844D01*
X106044998Y-55200162D01*
X106045000Y-55200162D01*
X106045002Y-55200162D01*
X106098186Y-55195508D01*
X106257747Y-55181549D01*
X106464030Y-55126276D01*
X106657581Y-55036021D01*
X106832519Y-54913529D01*
X106983529Y-54762519D01*
X107106021Y-54587581D01*
X107196276Y-54394030D01*
X107196280Y-54394013D01*
X107198130Y-54388936D01*
X107200253Y-54389709D01*
X107231576Y-54338305D01*
X107294419Y-54307766D01*
X107363796Y-54316050D01*
X107417680Y-54360528D01*
X107430827Y-54389315D01*
X107431870Y-54388936D01*
X107433722Y-54394022D01*
X107433724Y-54394030D01*
X107476171Y-54485058D01*
X107523977Y-54587578D01*
X107646472Y-54762521D01*
X107797478Y-54913527D01*
X107797481Y-54913529D01*
X107972419Y-55036021D01*
X107972421Y-55036022D01*
X107972420Y-55036022D01*
X107987653Y-55043125D01*
X108165970Y-55126276D01*
X108372253Y-55181549D01*
X108524215Y-55194844D01*
X108584998Y-55200162D01*
X108585000Y-55200162D01*
X108585002Y-55200162D01*
X108638186Y-55195508D01*
X108797747Y-55181549D01*
X109004030Y-55126276D01*
X109197581Y-55036021D01*
X109372519Y-54913529D01*
X109523529Y-54762519D01*
X109646021Y-54587581D01*
X109736276Y-54394030D01*
X109736280Y-54394013D01*
X109738130Y-54388936D01*
X109740253Y-54389709D01*
X109771576Y-54338305D01*
X109834419Y-54307766D01*
X109903796Y-54316050D01*
X109957680Y-54360528D01*
X109970827Y-54389315D01*
X109971870Y-54388936D01*
X109973722Y-54394022D01*
X109973724Y-54394030D01*
X110016171Y-54485058D01*
X110063977Y-54587578D01*
X110186472Y-54762521D01*
X110337478Y-54913527D01*
X110337481Y-54913529D01*
X110512419Y-55036021D01*
X110512421Y-55036022D01*
X110512420Y-55036022D01*
X110527653Y-55043125D01*
X110705970Y-55126276D01*
X110912253Y-55181549D01*
X111064215Y-55194844D01*
X111124998Y-55200162D01*
X111125000Y-55200162D01*
X111125002Y-55200162D01*
X111178186Y-55195508D01*
X111337747Y-55181549D01*
X111544030Y-55126276D01*
X111737581Y-55036021D01*
X111912519Y-54913529D01*
X112063529Y-54762519D01*
X112186021Y-54587581D01*
X112276276Y-54394030D01*
X112331549Y-54187747D01*
X112350162Y-53975000D01*
X112331549Y-53762253D01*
X112276276Y-53555970D01*
X112186021Y-53362419D01*
X112063529Y-53187481D01*
X112063527Y-53187478D01*
X111912521Y-53036472D01*
X111737578Y-52913977D01*
X111737579Y-52913977D01*
X111608547Y-52853809D01*
X111544030Y-52823724D01*
X111544026Y-52823723D01*
X111544022Y-52823721D01*
X111337752Y-52768452D01*
X111337748Y-52768451D01*
X111337747Y-52768451D01*
X111337746Y-52768450D01*
X111337741Y-52768450D01*
X111125002Y-52749838D01*
X111124998Y-52749838D01*
X110912258Y-52768450D01*
X110912247Y-52768452D01*
X110705977Y-52823721D01*
X110705968Y-52823725D01*
X110512421Y-52913977D01*
X110337478Y-53036472D01*
X110186472Y-53187478D01*
X110063977Y-53362421D01*
X109973725Y-53555968D01*
X109971870Y-53561064D01*
X109969749Y-53560292D01*
X109938406Y-53611710D01*
X109875558Y-53642237D01*
X109806183Y-53633939D01*
X109752307Y-53589452D01*
X109739169Y-53560685D01*
X109738130Y-53561064D01*
X109736279Y-53555983D01*
X109736276Y-53555970D01*
X109646021Y-53362419D01*
X109523529Y-53187481D01*
X109523527Y-53187478D01*
X109372521Y-53036472D01*
X109197578Y-52913977D01*
X109197579Y-52913977D01*
X109068547Y-52853809D01*
X109004030Y-52823724D01*
X109004026Y-52823723D01*
X109004022Y-52823721D01*
X108797752Y-52768452D01*
X108797748Y-52768451D01*
X108797747Y-52768451D01*
X108797746Y-52768450D01*
X108797741Y-52768450D01*
X108585002Y-52749838D01*
X108584998Y-52749838D01*
X108372258Y-52768450D01*
X108372247Y-52768452D01*
X108165977Y-52823721D01*
X108165968Y-52823725D01*
X107972421Y-52913977D01*
X107797478Y-53036472D01*
X107646472Y-53187478D01*
X107523977Y-53362421D01*
X107433725Y-53555968D01*
X107431870Y-53561064D01*
X107429749Y-53560292D01*
X107398406Y-53611710D01*
X107335558Y-53642237D01*
X107266183Y-53633939D01*
X107212307Y-53589452D01*
X107199169Y-53560685D01*
X107198130Y-53561064D01*
X107196279Y-53555983D01*
X107196276Y-53555970D01*
X107106021Y-53362419D01*
X106983529Y-53187481D01*
X106983527Y-53187478D01*
X106832521Y-53036472D01*
X106657578Y-52913977D01*
X106657579Y-52913977D01*
X106528547Y-52853809D01*
X106464030Y-52823724D01*
X106464026Y-52823723D01*
X106464022Y-52823721D01*
X106257752Y-52768452D01*
X106257748Y-52768451D01*
X106257747Y-52768451D01*
X106257746Y-52768450D01*
X106257741Y-52768450D01*
X106045002Y-52749838D01*
X106044998Y-52749838D01*
X105832258Y-52768450D01*
X105832247Y-52768452D01*
X105625977Y-52823721D01*
X105625968Y-52823725D01*
X105432421Y-52913977D01*
X105257478Y-53036472D01*
X105106472Y-53187478D01*
X104983977Y-53362421D01*
X104893725Y-53555968D01*
X104893721Y-53555977D01*
X104838452Y-53762247D01*
X104838450Y-53762258D01*
X104819838Y-53974998D01*
X104819838Y-53975001D01*
X100920162Y-53975001D01*
X100920162Y-53975000D01*
X100901549Y-53762253D01*
X100846276Y-53555970D01*
X100756021Y-53362419D01*
X100633529Y-53187481D01*
X100633527Y-53187478D01*
X100482521Y-53036472D01*
X100307578Y-52913977D01*
X100307579Y-52913977D01*
X100178547Y-52853809D01*
X100114030Y-52823724D01*
X100114026Y-52823723D01*
X100114022Y-52823721D01*
X99907752Y-52768452D01*
X99907748Y-52768451D01*
X99907747Y-52768451D01*
X99907746Y-52768450D01*
X99907741Y-52768450D01*
X99695002Y-52749838D01*
X99694998Y-52749838D01*
X99482258Y-52768450D01*
X99482248Y-52768452D01*
X99467499Y-52772404D01*
X99397649Y-52770739D01*
X99347728Y-52740309D01*
X98698011Y-52090591D01*
X98698007Y-52090588D01*
X98595239Y-52021920D01*
X98595226Y-52021913D01*
X98561785Y-52008062D01*
X98481035Y-51974614D01*
X98481027Y-51974612D01*
X98359807Y-51950500D01*
X98359803Y-51950500D01*
X90485803Y-51950500D01*
X90362197Y-51950500D01*
X90362192Y-51950500D01*
X90240972Y-51974612D01*
X90240964Y-51974614D01*
X90160215Y-52008062D01*
X90126777Y-52021913D01*
X90126767Y-52021917D01*
X90126763Y-52021920D01*
X90023989Y-52090590D01*
X85155432Y-56959147D01*
X85094109Y-56992632D01*
X85081637Y-56994686D01*
X85037745Y-56999632D01*
X84867478Y-57059210D01*
X84714737Y-57155184D01*
X84587184Y-57282737D01*
X84491211Y-57435476D01*
X84431631Y-57605745D01*
X84431630Y-57605750D01*
X84411435Y-57784996D01*
X84411435Y-57785003D01*
X84431630Y-57964249D01*
X84431631Y-57964254D01*
X84491211Y-58134523D01*
X84587184Y-58287262D01*
X84714738Y-58414816D01*
X84867478Y-58510789D01*
X85037745Y-58570368D01*
X85037750Y-58570369D01*
X85216996Y-58590565D01*
X85217000Y-58590565D01*
X85217004Y-58590565D01*
X85396249Y-58570369D01*
X85396252Y-58570368D01*
X85396255Y-58570368D01*
X85566522Y-58510789D01*
X85719262Y-58414816D01*
X85846816Y-58287262D01*
X85942789Y-58134522D01*
X86002368Y-57964255D01*
X86007313Y-57920361D01*
X86034378Y-57855951D01*
X86042842Y-57846575D01*
X90647600Y-53241819D01*
X90708923Y-53208334D01*
X90735281Y-53205500D01*
X93432510Y-53205500D01*
X93499549Y-53225185D01*
X93545304Y-53277989D01*
X93555248Y-53347147D01*
X93544892Y-53381905D01*
X93463725Y-53555968D01*
X93463721Y-53555977D01*
X93408452Y-53762247D01*
X93408450Y-53762258D01*
X93389838Y-53974998D01*
X93389838Y-53975001D01*
X93408450Y-54187741D01*
X93408452Y-54187752D01*
X93463721Y-54394022D01*
X93463723Y-54394026D01*
X93463724Y-54394030D01*
X93506171Y-54485058D01*
X93553977Y-54587578D01*
X93676472Y-54762521D01*
X93827477Y-54913526D01*
X93827480Y-54913528D01*
X93827481Y-54913529D01*
X93934623Y-54988550D01*
X93978248Y-55043125D01*
X93987500Y-55090124D01*
X93987500Y-56195807D01*
X94011612Y-56317028D01*
X94011613Y-56317032D01*
X94011614Y-56317035D01*
X94022964Y-56344435D01*
X94058915Y-56431230D01*
X94058916Y-56431232D01*
X94058917Y-56431233D01*
X94095632Y-56486181D01*
X94104531Y-56499498D01*
X94104531Y-56499499D01*
X94127590Y-56534010D01*
X94127593Y-56534013D01*
X95143589Y-57550008D01*
X95199326Y-57605745D01*
X95230994Y-57637413D01*
X95230996Y-57637414D01*
X95333761Y-57706079D01*
X95333767Y-57706083D01*
X95367215Y-57719937D01*
X95447965Y-57753386D01*
X95569192Y-57777499D01*
X95569196Y-57777500D01*
X95569197Y-57777500D01*
X113123328Y-57777500D01*
X113189299Y-57796505D01*
X113315478Y-57875789D01*
X113479973Y-57933348D01*
X113536749Y-57974070D01*
X113562497Y-58039022D01*
X113549041Y-58107584D01*
X113526700Y-58138071D01*
X111429420Y-60235351D01*
X111429417Y-60235355D01*
X111339898Y-60369328D01*
X111339897Y-60369331D01*
X111278236Y-60518196D01*
X111278234Y-60518204D01*
X111246800Y-60676231D01*
X111246800Y-60676234D01*
X111246800Y-60837366D01*
X111246800Y-60837368D01*
X111246799Y-60837368D01*
X111278234Y-60995395D01*
X111278236Y-60995403D01*
X111339897Y-61144268D01*
X111339898Y-61144271D01*
X111429417Y-61278244D01*
X111429420Y-61278248D01*
X111543351Y-61392179D01*
X111543355Y-61392182D01*
X111677328Y-61481701D01*
X111677330Y-61481701D01*
X111677332Y-61481703D01*
X111826198Y-61543364D01*
X111864898Y-61551062D01*
X111984231Y-61574800D01*
X111984234Y-61574800D01*
X112145368Y-61574800D01*
X112224923Y-61558974D01*
X112303402Y-61543364D01*
X112452268Y-61481703D01*
X112586245Y-61392182D01*
X116052982Y-57925445D01*
X116142502Y-57791469D01*
X116158276Y-57753387D01*
X116177870Y-57706084D01*
X116177870Y-57706083D01*
X116199025Y-57655010D01*
X116204165Y-57642602D01*
X116235600Y-57484566D01*
X116235600Y-45697870D01*
X122124500Y-45697870D01*
X122124501Y-45697876D01*
X122130908Y-45757483D01*
X122181202Y-45892328D01*
X122181206Y-45892335D01*
X122267452Y-46007544D01*
X122267455Y-46007547D01*
X122382664Y-46093793D01*
X122382671Y-46093797D01*
X122517517Y-46144091D01*
X122517516Y-46144091D01*
X122524444Y-46144835D01*
X122577127Y-46150500D01*
X125072872Y-46150499D01*
X125132483Y-46144091D01*
X125267331Y-46093796D01*
X125382546Y-46007546D01*
X125468796Y-45892331D01*
X125519091Y-45757483D01*
X125525500Y-45697873D01*
X125525500Y-45697870D01*
X136094500Y-45697870D01*
X136094501Y-45697876D01*
X136100908Y-45757483D01*
X136151202Y-45892328D01*
X136151206Y-45892335D01*
X136237452Y-46007544D01*
X136237455Y-46007547D01*
X136352664Y-46093793D01*
X136352671Y-46093797D01*
X136487517Y-46144091D01*
X136487516Y-46144091D01*
X136494444Y-46144835D01*
X136547127Y-46150500D01*
X139042872Y-46150499D01*
X139102483Y-46144091D01*
X139237331Y-46093796D01*
X139352546Y-46007546D01*
X139438796Y-45892331D01*
X139489091Y-45757483D01*
X139495500Y-45697873D01*
X139495499Y-43202128D01*
X139489091Y-43142517D01*
X139446987Y-43029631D01*
X139438797Y-43007671D01*
X139438793Y-43007664D01*
X139352547Y-42892455D01*
X139352544Y-42892452D01*
X139237335Y-42806206D01*
X139237328Y-42806202D01*
X139102482Y-42755908D01*
X139102483Y-42755908D01*
X139042883Y-42749501D01*
X139042881Y-42749500D01*
X139042873Y-42749500D01*
X139042864Y-42749500D01*
X136547129Y-42749500D01*
X136547123Y-42749501D01*
X136487516Y-42755908D01*
X136352671Y-42806202D01*
X136352664Y-42806206D01*
X136237455Y-42892452D01*
X136237452Y-42892455D01*
X136151206Y-43007664D01*
X136151202Y-43007671D01*
X136100908Y-43142517D01*
X136094501Y-43202116D01*
X136094501Y-43202123D01*
X136094500Y-43202135D01*
X136094500Y-45697870D01*
X125525500Y-45697870D01*
X125525499Y-43202128D01*
X125519091Y-43142517D01*
X125476987Y-43029631D01*
X125468797Y-43007671D01*
X125468793Y-43007664D01*
X125382547Y-42892455D01*
X125382544Y-42892452D01*
X125267335Y-42806206D01*
X125267328Y-42806202D01*
X125132482Y-42755908D01*
X125132483Y-42755908D01*
X125072883Y-42749501D01*
X125072881Y-42749500D01*
X125072873Y-42749500D01*
X125072864Y-42749500D01*
X122577129Y-42749500D01*
X122577123Y-42749501D01*
X122517516Y-42755908D01*
X122382671Y-42806202D01*
X122382664Y-42806206D01*
X122267455Y-42892452D01*
X122267452Y-42892455D01*
X122181206Y-43007664D01*
X122181202Y-43007671D01*
X122130908Y-43142517D01*
X122124501Y-43202116D01*
X122124501Y-43202123D01*
X122124500Y-43202135D01*
X122124500Y-45697870D01*
X116235600Y-45697870D01*
X116235600Y-44217034D01*
X116204165Y-44058998D01*
X116144828Y-43915749D01*
X116143184Y-43911151D01*
X116052982Y-43776154D01*
X115789319Y-43512491D01*
X115755834Y-43451168D01*
X115753000Y-43424810D01*
X115753000Y-41247820D01*
X115753001Y-41247799D01*
X115753001Y-41080552D01*
X115721566Y-40922523D01*
X115721565Y-40922522D01*
X115721565Y-40922518D01*
X115659903Y-40773652D01*
X115586213Y-40663368D01*
X115570382Y-40639675D01*
X115570380Y-40639672D01*
X115452126Y-40521418D01*
X115452103Y-40521397D01*
X113173119Y-38242412D01*
X113139634Y-38181089D01*
X113136800Y-38154731D01*
X113136800Y-37359033D01*
X113136799Y-37359029D01*
X113105366Y-37201005D01*
X113105365Y-37200998D01*
X113074533Y-37126565D01*
X113043703Y-37052133D01*
X112954180Y-36918152D01*
X112840247Y-36804219D01*
X112706266Y-36714696D01*
X112557402Y-36653035D01*
X112557394Y-36653033D01*
X112399370Y-36621600D01*
X112399366Y-36621600D01*
X112238234Y-36621600D01*
X112238229Y-36621600D01*
X112080205Y-36653033D01*
X112080197Y-36653035D01*
X111931333Y-36714696D01*
X111797352Y-36804219D01*
X111683419Y-36918152D01*
X111593896Y-37052133D01*
X111532235Y-37200997D01*
X111532233Y-37201005D01*
X111500800Y-37359029D01*
X111500800Y-38625490D01*
X111532233Y-38783514D01*
X111532236Y-38783526D01*
X111593893Y-38932381D01*
X111593900Y-38932394D01*
X111683417Y-39066364D01*
X111683420Y-39066368D01*
X114080681Y-41463627D01*
X114114166Y-41524950D01*
X114117000Y-41551308D01*
X114117000Y-43424811D01*
X114097315Y-43491850D01*
X114080681Y-43512492D01*
X113362492Y-44230681D01*
X113301169Y-44264166D01*
X113274811Y-44267000D01*
X106900805Y-44267000D01*
X106833766Y-44247315D01*
X106788011Y-44194511D01*
X106778067Y-44125353D01*
X106783763Y-44102046D01*
X106830367Y-43968857D01*
X106830368Y-43968855D01*
X106830369Y-43968849D01*
X106850565Y-43789603D01*
X106850565Y-43789596D01*
X106830369Y-43610350D01*
X106830368Y-43610345D01*
X106779676Y-43465476D01*
X106770789Y-43440078D01*
X106761195Y-43424810D01*
X106674815Y-43287337D01*
X106547262Y-43159784D01*
X106394523Y-43063811D01*
X106224254Y-43004231D01*
X106224249Y-43004230D01*
X106045004Y-42984035D01*
X106044996Y-42984035D01*
X105865750Y-43004230D01*
X105865745Y-43004231D01*
X105695476Y-43063811D01*
X105542737Y-43159784D01*
X105415184Y-43287337D01*
X105319211Y-43440076D01*
X105259631Y-43610345D01*
X105259630Y-43610350D01*
X105239435Y-43789596D01*
X105239435Y-43789603D01*
X105259630Y-43968849D01*
X105259632Y-43968857D01*
X105306237Y-44102046D01*
X105309798Y-44171824D01*
X105275069Y-44232452D01*
X105213076Y-44264679D01*
X105189195Y-44267000D01*
X91539781Y-44267000D01*
X91472742Y-44247315D01*
X91426987Y-44194511D01*
X91417043Y-44125353D01*
X91446068Y-44061797D01*
X91452100Y-44055319D01*
X95248416Y-40259003D01*
X104477435Y-40259003D01*
X104497630Y-40438249D01*
X104497631Y-40438254D01*
X104557211Y-40608523D01*
X104653184Y-40761262D01*
X104780738Y-40888816D01*
X104933478Y-40984789D01*
X105103745Y-41044368D01*
X105103750Y-41044369D01*
X105282996Y-41064565D01*
X105283000Y-41064565D01*
X105283004Y-41064565D01*
X105462249Y-41044369D01*
X105462252Y-41044368D01*
X105462255Y-41044368D01*
X105632522Y-40984789D01*
X105785262Y-40888816D01*
X105912816Y-40761262D01*
X106008789Y-40608522D01*
X106068368Y-40438255D01*
X106068369Y-40438249D01*
X106088565Y-40259003D01*
X106088565Y-40258996D01*
X106068369Y-40079750D01*
X106068368Y-40079745D01*
X106008788Y-39909476D01*
X105912815Y-39756737D01*
X105785262Y-39629184D01*
X105632523Y-39533211D01*
X105462254Y-39473631D01*
X105462249Y-39473630D01*
X105283004Y-39453435D01*
X105282996Y-39453435D01*
X105103750Y-39473630D01*
X105103745Y-39473631D01*
X104933476Y-39533211D01*
X104780737Y-39629184D01*
X104653184Y-39756737D01*
X104557211Y-39909476D01*
X104497631Y-40079745D01*
X104497630Y-40079750D01*
X104477435Y-40258996D01*
X104477435Y-40259003D01*
X95248416Y-40259003D01*
X96108600Y-39398819D01*
X96169923Y-39365334D01*
X96196281Y-39362500D01*
X97248328Y-39362500D01*
X97314299Y-39381505D01*
X97440478Y-39460789D01*
X97610745Y-39520368D01*
X97610750Y-39520369D01*
X97789996Y-39540565D01*
X97790000Y-39540565D01*
X97790004Y-39540565D01*
X97969249Y-39520369D01*
X97969252Y-39520368D01*
X97969255Y-39520368D01*
X98139522Y-39460789D01*
X98292262Y-39364816D01*
X98419816Y-39237262D01*
X98515789Y-39084522D01*
X98575368Y-38914255D01*
X98575369Y-38914249D01*
X98595565Y-38735003D01*
X98595565Y-38734996D01*
X98575369Y-38555750D01*
X98575368Y-38555745D01*
X98515788Y-38385476D01*
X98476582Y-38323080D01*
X98419816Y-38232738D01*
X98292262Y-38105184D01*
X98265700Y-38088494D01*
X98139523Y-38009211D01*
X97969254Y-37949631D01*
X97969249Y-37949630D01*
X97790004Y-37929435D01*
X97789996Y-37929435D01*
X97610750Y-37949630D01*
X97610745Y-37949631D01*
X97440476Y-38009211D01*
X97314300Y-38088494D01*
X97248328Y-38107500D01*
X95823192Y-38107500D01*
X95701972Y-38131612D01*
X95701964Y-38131614D01*
X95639587Y-38157452D01*
X95587770Y-38178915D01*
X95587761Y-38178920D01*
X95518847Y-38224968D01*
X95518846Y-38224969D01*
X95484989Y-38247590D01*
X95484988Y-38247591D01*
X90581400Y-43151181D01*
X90520077Y-43184666D01*
X90493719Y-43187500D01*
X82456672Y-43187500D01*
X82390700Y-43168494D01*
X82264523Y-43089211D01*
X82094254Y-43029631D01*
X82094249Y-43029630D01*
X81915004Y-43009435D01*
X81914996Y-43009435D01*
X81735750Y-43029630D01*
X81735745Y-43029631D01*
X81565476Y-43089211D01*
X81412737Y-43185184D01*
X81285184Y-43312737D01*
X81189211Y-43465476D01*
X81129631Y-43635745D01*
X81129630Y-43635750D01*
X81109435Y-43814996D01*
X81109435Y-43815003D01*
X81129630Y-43994249D01*
X81129633Y-43994262D01*
X81167349Y-44102045D01*
X81170911Y-44171824D01*
X81136183Y-44232451D01*
X81074190Y-44264679D01*
X81050308Y-44267000D01*
X78913429Y-44267000D01*
X78755405Y-44298433D01*
X78755397Y-44298435D01*
X78606533Y-44360096D01*
X78472552Y-44449619D01*
X78472551Y-44449620D01*
X77215618Y-45706555D01*
X76786492Y-46135681D01*
X76725169Y-46169166D01*
X76698811Y-46172000D01*
X61361700Y-46172000D01*
X61361680Y-46171999D01*
X61355566Y-46171999D01*
X61194435Y-46171999D01*
X61194433Y-46171999D01*
X61036403Y-46203433D01*
X61036393Y-46203436D01*
X60887536Y-46265094D01*
X60887535Y-46265095D01*
X60887532Y-46265096D01*
X60887532Y-46265097D01*
X60822477Y-46308566D01*
X60753555Y-46354618D01*
X60676696Y-46431477D01*
X60642906Y-46465267D01*
X60609116Y-46499056D01*
X60519598Y-46633028D01*
X60519597Y-46633031D01*
X60457936Y-46781896D01*
X60457934Y-46781904D01*
X60426500Y-46939931D01*
X60426500Y-46939934D01*
X60426500Y-47101066D01*
X60426500Y-47101068D01*
X60426499Y-47101068D01*
X51300500Y-47101068D01*
X51300500Y-35814003D01*
X86951435Y-35814003D01*
X86971630Y-35993249D01*
X86971631Y-35993254D01*
X87031211Y-36163524D01*
X87110493Y-36289698D01*
X87129500Y-36355671D01*
X87129500Y-37145807D01*
X87153612Y-37267027D01*
X87153614Y-37267035D01*
X87187062Y-37347785D01*
X87200915Y-37381230D01*
X87239916Y-37439598D01*
X87239916Y-37439599D01*
X87269590Y-37484010D01*
X87269593Y-37484013D01*
X89725146Y-39939565D01*
X89758631Y-40000888D01*
X89760685Y-40013361D01*
X89765630Y-40057249D01*
X89825210Y-40227521D01*
X89844987Y-40258996D01*
X89921184Y-40380262D01*
X90048738Y-40507816D01*
X90201478Y-40603789D01*
X90371745Y-40663368D01*
X90371750Y-40663369D01*
X90550996Y-40683565D01*
X90551000Y-40683565D01*
X90551004Y-40683565D01*
X90730249Y-40663369D01*
X90730252Y-40663368D01*
X90730255Y-40663368D01*
X90900522Y-40603789D01*
X91053262Y-40507816D01*
X91180816Y-40380262D01*
X91276789Y-40227522D01*
X91336368Y-40057255D01*
X91342719Y-40000888D01*
X91356565Y-39878003D01*
X91356565Y-39877996D01*
X91336369Y-39698750D01*
X91336368Y-39698745D01*
X91276789Y-39528478D01*
X91180816Y-39375738D01*
X91053262Y-39248184D01*
X91035880Y-39237262D01*
X90900521Y-39152210D01*
X90730249Y-39092630D01*
X90686361Y-39087685D01*
X90621947Y-39060617D01*
X90612565Y-39052146D01*
X88420819Y-36860400D01*
X88387334Y-36799077D01*
X88384500Y-36772719D01*
X88384500Y-36355671D01*
X88403507Y-36289698D01*
X88482788Y-36163524D01*
X88542368Y-35993254D01*
X88542369Y-35993249D01*
X88562565Y-35814003D01*
X88562565Y-35813996D01*
X88542369Y-35634750D01*
X88542368Y-35634745D01*
X88482788Y-35464476D01*
X88386815Y-35311737D01*
X88259262Y-35184184D01*
X88106523Y-35088211D01*
X87936254Y-35028631D01*
X87936249Y-35028630D01*
X87757004Y-35008435D01*
X87756996Y-35008435D01*
X87577750Y-35028630D01*
X87577745Y-35028631D01*
X87407476Y-35088211D01*
X87254737Y-35184184D01*
X87127184Y-35311737D01*
X87031211Y-35464476D01*
X86971631Y-35634745D01*
X86971630Y-35634750D01*
X86951435Y-35813996D01*
X86951435Y-35814003D01*
X51300500Y-35814003D01*
X51300500Y-31727870D01*
X122124500Y-31727870D01*
X122124501Y-31727876D01*
X122130908Y-31787483D01*
X122181202Y-31922328D01*
X122181206Y-31922335D01*
X122267452Y-32037544D01*
X122267455Y-32037547D01*
X122382664Y-32123793D01*
X122382671Y-32123797D01*
X122517517Y-32174091D01*
X122517516Y-32174091D01*
X122524444Y-32174835D01*
X122577127Y-32180500D01*
X125072872Y-32180499D01*
X125132483Y-32174091D01*
X125267331Y-32123796D01*
X125382546Y-32037546D01*
X125468796Y-31922331D01*
X125519091Y-31787483D01*
X125525500Y-31727873D01*
X125525500Y-31727870D01*
X136094500Y-31727870D01*
X136094501Y-31727876D01*
X136100908Y-31787483D01*
X136151202Y-31922328D01*
X136151206Y-31922335D01*
X136237452Y-32037544D01*
X136237455Y-32037547D01*
X136352664Y-32123793D01*
X136352671Y-32123797D01*
X136487517Y-32174091D01*
X136487516Y-32174091D01*
X136494444Y-32174835D01*
X136547127Y-32180500D01*
X139042872Y-32180499D01*
X139102483Y-32174091D01*
X139237331Y-32123796D01*
X139352546Y-32037546D01*
X139438796Y-31922331D01*
X139489091Y-31787483D01*
X139495500Y-31727873D01*
X139495499Y-29232128D01*
X139489091Y-29172517D01*
X139438796Y-29037669D01*
X139438795Y-29037668D01*
X139438793Y-29037664D01*
X139352547Y-28922455D01*
X139352544Y-28922452D01*
X139237335Y-28836206D01*
X139237328Y-28836202D01*
X139102482Y-28785908D01*
X139102483Y-28785908D01*
X139042883Y-28779501D01*
X139042881Y-28779500D01*
X139042873Y-28779500D01*
X139042864Y-28779500D01*
X136547129Y-28779500D01*
X136547123Y-28779501D01*
X136487516Y-28785908D01*
X136352671Y-28836202D01*
X136352664Y-28836206D01*
X136237455Y-28922452D01*
X136237452Y-28922455D01*
X136151206Y-29037664D01*
X136151202Y-29037671D01*
X136100908Y-29172517D01*
X136094501Y-29232116D01*
X136094501Y-29232123D01*
X136094500Y-29232135D01*
X136094500Y-31727870D01*
X125525500Y-31727870D01*
X125525499Y-29232128D01*
X125519091Y-29172517D01*
X125468796Y-29037669D01*
X125468795Y-29037668D01*
X125468793Y-29037664D01*
X125382547Y-28922455D01*
X125382544Y-28922452D01*
X125267335Y-28836206D01*
X125267328Y-28836202D01*
X125132482Y-28785908D01*
X125132483Y-28785908D01*
X125072883Y-28779501D01*
X125072881Y-28779500D01*
X125072873Y-28779500D01*
X125072864Y-28779500D01*
X122577129Y-28779500D01*
X122577123Y-28779501D01*
X122517516Y-28785908D01*
X122382671Y-28836202D01*
X122382664Y-28836206D01*
X122267455Y-28922452D01*
X122267452Y-28922455D01*
X122181206Y-29037664D01*
X122181202Y-29037671D01*
X122130908Y-29172517D01*
X122124501Y-29232116D01*
X122124501Y-29232123D01*
X122124500Y-29232135D01*
X122124500Y-31727870D01*
X51300500Y-31727870D01*
X51300500Y-30085001D01*
X110389500Y-30085001D01*
X110389501Y-30085018D01*
X110400000Y-30187796D01*
X110400001Y-30187799D01*
X110455185Y-30354331D01*
X110455186Y-30354334D01*
X110547288Y-30503656D01*
X110671344Y-30627712D01*
X110820666Y-30719814D01*
X110987203Y-30774999D01*
X111089991Y-30785500D01*
X112430008Y-30785499D01*
X112532797Y-30774999D01*
X112699334Y-30719814D01*
X112848656Y-30627712D01*
X112972712Y-30503656D01*
X113064814Y-30354334D01*
X113119999Y-30187797D01*
X113130500Y-30085009D01*
X113130499Y-28294992D01*
X113119999Y-28192203D01*
X113064814Y-28025666D01*
X112972712Y-27876344D01*
X112848656Y-27752288D01*
X112699334Y-27660186D01*
X112532797Y-27605001D01*
X112532795Y-27605000D01*
X112430010Y-27594500D01*
X111089998Y-27594500D01*
X111089981Y-27594501D01*
X110987203Y-27605000D01*
X110987200Y-27605001D01*
X110820668Y-27660185D01*
X110820663Y-27660187D01*
X110671342Y-27752289D01*
X110547289Y-27876342D01*
X110455187Y-28025663D01*
X110455186Y-28025666D01*
X110400001Y-28192203D01*
X110400001Y-28192204D01*
X110400000Y-28192204D01*
X110389500Y-28294983D01*
X110389500Y-30085001D01*
X51300500Y-30085001D01*
X51300500Y-28578480D01*
X51300695Y-28571527D01*
X51304200Y-28509108D01*
X51316927Y-28282490D01*
X51318481Y-28268696D01*
X51366389Y-27986730D01*
X51369482Y-27973178D01*
X51433120Y-27752289D01*
X51448658Y-27698353D01*
X51453250Y-27685232D01*
X51562699Y-27420997D01*
X51568719Y-27408498D01*
X51707076Y-27158159D01*
X51714463Y-27146404D01*
X51879968Y-26913147D01*
X51888614Y-26902304D01*
X52079212Y-26689024D01*
X52089024Y-26679212D01*
X52302304Y-26488614D01*
X52313147Y-26479968D01*
X52546404Y-26314463D01*
X52558159Y-26307076D01*
X52808498Y-26168719D01*
X52820997Y-26162699D01*
X53085236Y-26053248D01*
X53098353Y-26048658D01*
X53373184Y-25969480D01*
X53386730Y-25966389D01*
X53668696Y-25918481D01*
X53682490Y-25916927D01*
X53971528Y-25900695D01*
X53978481Y-25900500D01*
X54040892Y-25900500D01*
X149159108Y-25900500D01*
X149221519Y-25900500D01*
X149228472Y-25900695D01*
G37*
%TD.AperFunction*%
%TD*%
%TA.AperFunction,Conductor*%
%TO.N,VCC*%
G36*
X149549039Y-57550685D02*
G01*
X149594794Y-57603489D01*
X149606000Y-57655000D01*
X149606000Y-63757000D01*
X149586315Y-63824039D01*
X149533511Y-63869794D01*
X149482000Y-63881000D01*
X142618000Y-63881000D01*
X142550961Y-63861315D01*
X142505206Y-63808511D01*
X142494000Y-63757000D01*
X142494000Y-57655000D01*
X142513685Y-57587961D01*
X142566489Y-57542206D01*
X142618000Y-57531000D01*
X149482000Y-57531000D01*
X149549039Y-57550685D01*
G37*
%TD.AperFunction*%
%TD*%
%TA.AperFunction,Conductor*%
%TO.N,Vd*%
G36*
X134944039Y-57423685D02*
G01*
X134989794Y-57476489D01*
X135001000Y-57528000D01*
X135001000Y-63630000D01*
X134981315Y-63697039D01*
X134928511Y-63742794D01*
X134877000Y-63754000D01*
X128013000Y-63754000D01*
X127945961Y-63734315D01*
X127900206Y-63681511D01*
X127889000Y-63630000D01*
X127889000Y-57528000D01*
X127908685Y-57460961D01*
X127961489Y-57415206D01*
X128013000Y-57404000D01*
X134877000Y-57404000D01*
X134944039Y-57423685D01*
G37*
%TD.AperFunction*%
%TD*%
M02*
