%TF.GenerationSoftware,KiCad,Pcbnew,9.0.3*%
%TF.CreationDate,2026-01-11T19:53:57-05:00*%
%TF.ProjectId,Phase_shifter_150MHz,50686173-655f-4736-9869-667465725f31,v1.0*%
%TF.SameCoordinates,Original*%
%TF.FileFunction,Copper,L2,Bot*%
%TF.FilePolarity,Positive*%
%FSLAX46Y46*%
G04 Gerber Fmt 4.6, Leading zero omitted, Abs format (unit mm)*
G04 Created by KiCad (PCBNEW 9.0.3) date 2026-01-11 19:53:57*
%MOMM*%
%LPD*%
G01*
G04 APERTURE LIST*
G04 Aperture macros list*
%AMRoundRect*
0 Rectangle with rounded corners*
0 $1 Rounding radius*
0 $2 $3 $4 $5 $6 $7 $8 $9 X,Y pos of 4 corners*
0 Add a 4 corners polygon primitive as box body*
4,1,4,$2,$3,$4,$5,$6,$7,$8,$9,$2,$3,0*
0 Add four circle primitives for the rounded corners*
1,1,$1+$1,$2,$3*
1,1,$1+$1,$4,$5*
1,1,$1+$1,$6,$7*
1,1,$1+$1,$8,$9*
0 Add four rect primitives between the rounded corners*
20,1,$1+$1,$2,$3,$4,$5,0*
20,1,$1+$1,$4,$5,$6,$7,0*
20,1,$1+$1,$6,$7,$8,$9,0*
20,1,$1+$1,$8,$9,$2,$3,0*%
G04 Aperture macros list end*
%TA.AperFunction,ComponentPad*%
%ADD10O,2.190000X1.740000*%
%TD*%
%TA.AperFunction,ComponentPad*%
%ADD11RoundRect,0.250000X0.845000X-0.620000X0.845000X0.620000X-0.845000X0.620000X-0.845000X-0.620000X0*%
%TD*%
%TA.AperFunction,ComponentPad*%
%ADD12C,5.600000*%
%TD*%
%TA.AperFunction,ComponentPad*%
%ADD13C,0.762000*%
%TD*%
%TA.AperFunction,SMDPad,CuDef*%
%ADD14RoundRect,0.250000X-1.600000X0.425000X-1.600000X-0.425000X1.600000X-0.425000X1.600000X0.425000X0*%
%TD*%
%TA.AperFunction,SMDPad,CuDef*%
%ADD15RoundRect,0.250000X1.600000X-0.425000X1.600000X0.425000X-1.600000X0.425000X-1.600000X-0.425000X0*%
%TD*%
%TA.AperFunction,ViaPad*%
%ADD16C,0.600000*%
%TD*%
G04 APERTURE END LIST*
D10*
%TO.P,J1,2,Pin_2*%
%TO.N,GND*%
X105770000Y-63735000D03*
D11*
%TO.P,J1,1,Pin_1*%
%TO.N,+12V*%
X105770000Y-66275000D03*
%TD*%
D12*
%TO.P,H4,1,1*%
%TO.N,GND*%
X54000000Y-96000000D03*
%TD*%
%TO.P,H3,1,1*%
%TO.N,GND*%
X54000000Y-54000000D03*
%TD*%
%TO.P,H2,1,1*%
%TO.N,GND*%
X106000000Y-54000000D03*
%TD*%
%TO.P,H1,1,1*%
%TO.N,GND*%
X106000000Y-96000000D03*
%TD*%
D13*
%TO.P,U2,2,GND*%
%TO.N,GND*%
X66030000Y-74840000D03*
X66030000Y-79920000D03*
X66030000Y-82460000D03*
X66030000Y-85000000D03*
X66030000Y-87540000D03*
X66030000Y-92620000D03*
X66030000Y-95160000D03*
X67300000Y-74840000D03*
X67300000Y-79920000D03*
X67300000Y-82460000D03*
X67300000Y-85000000D03*
X67300000Y-87540000D03*
X67300000Y-92620000D03*
X67300000Y-95160000D03*
X69840000Y-74840000D03*
X69840000Y-95160000D03*
X72380000Y-74840000D03*
X72380000Y-77380000D03*
X72380000Y-79920000D03*
X72380000Y-82460000D03*
X72380000Y-85000000D03*
X72380000Y-87540000D03*
X72380000Y-90080000D03*
X72380000Y-92620000D03*
X72380000Y-95160000D03*
X74920000Y-74840000D03*
X74920000Y-77380000D03*
X74920000Y-79920000D03*
X74920000Y-82460000D03*
X74920000Y-85000000D03*
X74920000Y-87540000D03*
X74920000Y-90080000D03*
X74920000Y-92620000D03*
X74920000Y-95160000D03*
X77460000Y-74840000D03*
X77460000Y-77380000D03*
X77460000Y-79920000D03*
X77460000Y-82460000D03*
X77460000Y-85000000D03*
X77460000Y-87540000D03*
X77460000Y-90080000D03*
X77460000Y-92620000D03*
X77460000Y-95160000D03*
X80000000Y-74840000D03*
X80000000Y-77380000D03*
X80000000Y-79920000D03*
X80000000Y-82460000D03*
X80000000Y-85000000D03*
X80000000Y-87540000D03*
X80000000Y-90080000D03*
X80000000Y-92620000D03*
X80000000Y-95160000D03*
X82540000Y-74840000D03*
X82540000Y-77380000D03*
X82540000Y-79920000D03*
X82540000Y-82460000D03*
X82540000Y-85000000D03*
X82540000Y-87540000D03*
X82540000Y-90080000D03*
X82540000Y-92620000D03*
X82540000Y-95160000D03*
X85080000Y-74840000D03*
X85080000Y-77380000D03*
X85080000Y-79920000D03*
X85080000Y-82460000D03*
X85080000Y-85000000D03*
X85080000Y-87540000D03*
X85080000Y-90080000D03*
X85080000Y-92620000D03*
X85080000Y-95160000D03*
X87620000Y-74840000D03*
X87620000Y-77380000D03*
X87620000Y-79920000D03*
X87620000Y-82460000D03*
X87620000Y-85000000D03*
X87620000Y-87540000D03*
X87620000Y-90080000D03*
X87620000Y-92620000D03*
X87620000Y-95160000D03*
X90160000Y-74840000D03*
X90160000Y-95160000D03*
X92700000Y-74840000D03*
X92700000Y-77380000D03*
X92700000Y-79920000D03*
X92700000Y-82460000D03*
X92700000Y-90080000D03*
X92700000Y-92620000D03*
X92700000Y-95160000D03*
X93970000Y-77380000D03*
X93970000Y-79920000D03*
X93970000Y-82460000D03*
X93970000Y-90080000D03*
X93970000Y-92620000D03*
%TD*%
D14*
%TO.P,J4,2,Ext*%
%TO.N,GND*%
X52500000Y-87825000D03*
X52500000Y-82175000D03*
%TD*%
%TO.P,J3,2,Ext*%
%TO.N,GND*%
X52500000Y-67825000D03*
X52500000Y-62175000D03*
%TD*%
D15*
%TO.P,J2,2,Ext*%
%TO.N,GND*%
X107500000Y-82175000D03*
X107500000Y-87825000D03*
%TD*%
D16*
%TO.N,GND*%
X90000000Y-63750000D03*
X90000000Y-63000000D03*
X90000000Y-62250000D03*
X90000000Y-61500000D03*
X77250000Y-66000000D03*
X76250000Y-66000000D03*
X79500000Y-65000000D03*
X90000000Y-60750000D03*
X65000000Y-63000000D03*
X103000000Y-87000000D03*
X104000000Y-82000000D03*
X104000000Y-80000000D03*
X104000000Y-78000000D03*
X104000000Y-76000000D03*
X104000000Y-74000000D03*
X104000000Y-71000000D03*
X102000000Y-69000000D03*
X100000000Y-65000000D03*
X100000000Y-67000000D03*
X98000000Y-65000000D03*
X98000000Y-63000000D03*
X96000000Y-63000000D03*
X98500000Y-87000000D03*
X94000000Y-87000000D03*
X98000000Y-82000000D03*
X98000000Y-80000000D03*
X98000000Y-78000000D03*
X98000000Y-76000000D03*
X98000000Y-74000000D03*
X96000000Y-72000000D03*
X94000000Y-70000000D03*
X92000000Y-68000000D03*
X94000000Y-66000000D03*
X96000000Y-68000000D03*
X98000000Y-70000000D03*
X100000000Y-72000000D03*
X100000000Y-74000000D03*
X100000000Y-76000000D03*
X100000000Y-78000000D03*
X100000000Y-80000000D03*
X100000000Y-82000000D03*
X100000000Y-84000000D03*
X101000000Y-85000000D03*
X102000000Y-86000000D03*
X56000000Y-90000000D03*
X57000000Y-91000000D03*
X58000000Y-92000000D03*
X59000000Y-93000000D03*
X60000000Y-93000000D03*
X61000000Y-93000000D03*
X62000000Y-93000000D03*
X63000000Y-93000000D03*
X64000000Y-93000000D03*
X56000000Y-82000000D03*
X57000000Y-82000000D03*
X58000000Y-83000000D03*
X59000000Y-84000000D03*
X60000000Y-85000000D03*
X61000000Y-86000000D03*
X62000000Y-87000000D03*
X63000000Y-87000000D03*
X64000000Y-87000000D03*
X56000000Y-69000000D03*
X57000000Y-70000000D03*
X57000000Y-71000000D03*
X57000000Y-72000000D03*
X57000000Y-73000000D03*
X57000000Y-74000000D03*
X57000000Y-75000000D03*
X57000000Y-76000000D03*
X58000000Y-77000000D03*
X59000000Y-78000000D03*
X60000000Y-79000000D03*
X61000000Y-80000000D03*
X62000000Y-80000000D03*
X63000000Y-80000000D03*
X64000000Y-80000000D03*
X63000000Y-68000000D03*
X56000000Y-62000000D03*
X57000000Y-62000000D03*
X58000000Y-63000000D03*
X59000000Y-64000000D03*
X60000000Y-65000000D03*
X61000000Y-66000000D03*
X62000000Y-67000000D03*
X63000000Y-69000000D03*
X63000000Y-71000000D03*
X63000000Y-70000000D03*
X63000000Y-72000000D03*
X63000000Y-73000000D03*
X63000000Y-74000000D03*
X64000000Y-75000000D03*
X69900000Y-63000000D03*
X75000000Y-65250000D03*
%TD*%
%TA.AperFunction,Conductor*%
%TO.N,GND*%
G36*
X106003032Y-50500648D02*
G01*
X106336929Y-50517052D01*
X106349037Y-50518245D01*
X106452146Y-50533539D01*
X106676699Y-50566849D01*
X106688617Y-50569219D01*
X107009951Y-50649709D01*
X107021588Y-50653240D01*
X107092806Y-50678722D01*
X107333467Y-50764832D01*
X107344688Y-50769479D01*
X107644163Y-50911120D01*
X107654871Y-50916844D01*
X107938988Y-51087137D01*
X107949106Y-51093897D01*
X108215170Y-51291224D01*
X108224576Y-51298944D01*
X108470013Y-51521395D01*
X108478604Y-51529986D01*
X108665755Y-51736475D01*
X108701055Y-51775423D01*
X108708775Y-51784829D01*
X108906102Y-52050893D01*
X108912862Y-52061011D01*
X109041776Y-52276092D01*
X109083148Y-52345116D01*
X109088885Y-52355848D01*
X109230514Y-52655297D01*
X109235170Y-52666540D01*
X109346759Y-52978411D01*
X109350292Y-52990055D01*
X109430777Y-53311369D01*
X109433151Y-53323305D01*
X109481754Y-53650962D01*
X109482947Y-53663071D01*
X109499351Y-53996966D01*
X109499500Y-54003051D01*
X109499500Y-95996948D01*
X109499351Y-96003033D01*
X109482947Y-96336928D01*
X109481754Y-96349037D01*
X109433151Y-96676694D01*
X109430777Y-96688630D01*
X109350292Y-97009944D01*
X109346759Y-97021588D01*
X109235170Y-97333459D01*
X109230514Y-97344702D01*
X109088885Y-97644151D01*
X109083148Y-97654883D01*
X108912862Y-97938988D01*
X108906102Y-97949106D01*
X108708775Y-98215170D01*
X108701055Y-98224576D01*
X108478611Y-98470006D01*
X108470006Y-98478611D01*
X108224576Y-98701055D01*
X108215170Y-98708775D01*
X107949106Y-98906102D01*
X107938988Y-98912862D01*
X107654883Y-99083148D01*
X107644151Y-99088885D01*
X107344702Y-99230514D01*
X107333459Y-99235170D01*
X107021588Y-99346759D01*
X107009944Y-99350292D01*
X106688630Y-99430777D01*
X106676694Y-99433151D01*
X106349037Y-99481754D01*
X106336928Y-99482947D01*
X106021989Y-99498419D01*
X106003031Y-99499351D01*
X105996949Y-99499500D01*
X54003051Y-99499500D01*
X53996968Y-99499351D01*
X53976900Y-99498365D01*
X53663071Y-99482947D01*
X53650962Y-99481754D01*
X53323305Y-99433151D01*
X53311369Y-99430777D01*
X52990055Y-99350292D01*
X52978411Y-99346759D01*
X52666540Y-99235170D01*
X52655301Y-99230515D01*
X52355844Y-99088883D01*
X52345121Y-99083150D01*
X52061011Y-98912862D01*
X52050893Y-98906102D01*
X51784829Y-98708775D01*
X51775423Y-98701055D01*
X51736475Y-98665755D01*
X51529986Y-98478604D01*
X51521395Y-98470013D01*
X51298944Y-98224576D01*
X51291224Y-98215170D01*
X51093897Y-97949106D01*
X51087137Y-97938988D01*
X50916844Y-97654871D01*
X50911120Y-97644163D01*
X50769479Y-97344688D01*
X50764829Y-97333459D01*
X50653240Y-97021588D01*
X50649707Y-97009944D01*
X50640958Y-96975015D01*
X50569219Y-96688617D01*
X50566848Y-96676694D01*
X50518245Y-96349037D01*
X50517052Y-96336927D01*
X50500649Y-96003032D01*
X50500500Y-95996948D01*
X50500500Y-65590777D01*
X103674500Y-65590777D01*
X103674500Y-66959208D01*
X103674501Y-66959223D01*
X103684904Y-67091413D01*
X103684905Y-67091420D01*
X103739902Y-67309678D01*
X103739903Y-67309681D01*
X103832991Y-67514622D01*
X103832997Y-67514632D01*
X103961174Y-67699645D01*
X103961178Y-67699650D01*
X103961181Y-67699654D01*
X104120346Y-67858819D01*
X104120350Y-67858822D01*
X104120354Y-67858825D01*
X104259603Y-67955297D01*
X104305374Y-67987007D01*
X104510317Y-68080096D01*
X104510321Y-68080097D01*
X104728579Y-68135094D01*
X104728581Y-68135094D01*
X104728588Y-68135096D01*
X104860783Y-68145500D01*
X106679216Y-68145499D01*
X106811412Y-68135096D01*
X107029683Y-68080096D01*
X107234626Y-67987007D01*
X107419654Y-67858819D01*
X107578819Y-67699654D01*
X107707007Y-67514626D01*
X107800096Y-67309683D01*
X107855096Y-67091412D01*
X107865500Y-66959217D01*
X107865499Y-65590784D01*
X107855096Y-65458588D01*
X107800096Y-65240317D01*
X107707007Y-65035374D01*
X107578819Y-64850346D01*
X107419654Y-64691181D01*
X107419650Y-64691178D01*
X107419645Y-64691174D01*
X107234632Y-64562997D01*
X107234630Y-64562995D01*
X107234626Y-64562993D01*
X107029683Y-64469904D01*
X107029681Y-64469903D01*
X107029678Y-64469902D01*
X106811420Y-64414905D01*
X106811413Y-64414904D01*
X106767347Y-64411436D01*
X106679217Y-64404500D01*
X106679215Y-64404500D01*
X104860791Y-64404500D01*
X104860776Y-64404501D01*
X104728586Y-64414904D01*
X104728579Y-64414905D01*
X104510321Y-64469902D01*
X104510318Y-64469903D01*
X104305377Y-64562991D01*
X104305367Y-64562997D01*
X104120354Y-64691174D01*
X104120342Y-64691184D01*
X103961184Y-64850342D01*
X103961174Y-64850354D01*
X103832997Y-65035367D01*
X103832991Y-65035377D01*
X103739903Y-65240318D01*
X103739902Y-65240321D01*
X103684905Y-65458579D01*
X103684904Y-65458586D01*
X103674500Y-65590777D01*
X50500500Y-65590777D01*
X50500500Y-54003051D01*
X50500649Y-53996967D01*
X50517052Y-53663072D01*
X50518245Y-53650962D01*
X50566849Y-53323296D01*
X50569218Y-53311385D01*
X50649710Y-52990043D01*
X50653240Y-52978411D01*
X50764835Y-52666525D01*
X50769476Y-52655318D01*
X50911124Y-52355828D01*
X50916840Y-52345136D01*
X51087145Y-52060998D01*
X51093888Y-52050905D01*
X51291232Y-51784818D01*
X51298935Y-51775433D01*
X51521405Y-51529975D01*
X51529975Y-51521405D01*
X51775433Y-51298935D01*
X51784818Y-51291232D01*
X52050905Y-51093888D01*
X52060998Y-51087145D01*
X52345136Y-50916840D01*
X52355828Y-50911124D01*
X52655318Y-50769476D01*
X52666525Y-50764835D01*
X52978412Y-50653239D01*
X52990043Y-50649710D01*
X53311385Y-50569218D01*
X53323296Y-50566849D01*
X53650962Y-50518244D01*
X53663068Y-50517052D01*
X53996967Y-50500648D01*
X54003051Y-50500500D01*
X54065892Y-50500500D01*
X105934108Y-50500500D01*
X105996949Y-50500500D01*
X106003032Y-50500648D01*
G37*
%TD.AperFunction*%
%TD*%
M02*
