%TF.GenerationSoftware,KiCad,Pcbnew,9.0.3*%
%TF.CreationDate,2026-01-11T19:53:57-05:00*%
%TF.ProjectId,Phase_shifter_150MHz,50686173-655f-4736-9869-667465725f31,v1.0*%
%TF.SameCoordinates,Original*%
%TF.FileFunction,Soldermask,Bot*%
%TF.FilePolarity,Negative*%
%FSLAX46Y46*%
G04 Gerber Fmt 4.6, Leading zero omitted, Abs format (unit mm)*
G04 Created by KiCad (PCBNEW 9.0.3) date 2026-01-11 19:53:57*
%MOMM*%
%LPD*%
G01*
G04 APERTURE LIST*
G04 Aperture macros list*
%AMRoundRect*
0 Rectangle with rounded corners*
0 $1 Rounding radius*
0 $2 $3 $4 $5 $6 $7 $8 $9 X,Y pos of 4 corners*
0 Add a 4 corners polygon primitive as box body*
4,1,4,$2,$3,$4,$5,$6,$7,$8,$9,$2,$3,0*
0 Add four circle primitives for the rounded corners*
1,1,$1+$1,$2,$3*
1,1,$1+$1,$4,$5*
1,1,$1+$1,$6,$7*
1,1,$1+$1,$8,$9*
0 Add four rect primitives between the rounded corners*
20,1,$1+$1,$2,$3,$4,$5,0*
20,1,$1+$1,$4,$5,$6,$7,0*
20,1,$1+$1,$6,$7,$8,$9,0*
20,1,$1+$1,$8,$9,$2,$3,0*%
G04 Aperture macros list end*
%ADD10O,2.190000X1.740000*%
%ADD11RoundRect,0.250000X0.845000X-0.620000X0.845000X0.620000X-0.845000X0.620000X-0.845000X-0.620000X0*%
%ADD12C,5.600000*%
%ADD13C,0.762000*%
%ADD14RoundRect,0.250000X-1.600000X0.425000X-1.600000X-0.425000X1.600000X-0.425000X1.600000X0.425000X0*%
%ADD15RoundRect,0.250000X1.600000X-0.425000X1.600000X0.425000X-1.600000X0.425000X-1.600000X-0.425000X0*%
G04 APERTURE END LIST*
D10*
%TO.C,J1*%
X105770000Y-63735000D03*
D11*
X105770000Y-66275000D03*
%TD*%
D12*
%TO.C,H4*%
X54000000Y-96000000D03*
%TD*%
%TO.C,H3*%
X54000000Y-54000000D03*
%TD*%
%TO.C,H2*%
X106000000Y-54000000D03*
%TD*%
%TO.C,H1*%
X106000000Y-96000000D03*
%TD*%
D13*
%TO.C,U2*%
X66030000Y-74840000D03*
X66030000Y-79920000D03*
X66030000Y-82460000D03*
X66030000Y-85000000D03*
X66030000Y-87540000D03*
X66030000Y-92620000D03*
X66030000Y-95160000D03*
X67300000Y-74840000D03*
X67300000Y-79920000D03*
X67300000Y-82460000D03*
X67300000Y-85000000D03*
X67300000Y-87540000D03*
X67300000Y-92620000D03*
X67300000Y-95160000D03*
X69840000Y-74840000D03*
X69840000Y-95160000D03*
X72380000Y-74840000D03*
X72380000Y-77380000D03*
X72380000Y-79920000D03*
X72380000Y-82460000D03*
X72380000Y-85000000D03*
X72380000Y-87540000D03*
X72380000Y-90080000D03*
X72380000Y-92620000D03*
X72380000Y-95160000D03*
X74920000Y-74840000D03*
X74920000Y-77380000D03*
X74920000Y-79920000D03*
X74920000Y-82460000D03*
X74920000Y-85000000D03*
X74920000Y-87540000D03*
X74920000Y-90080000D03*
X74920000Y-92620000D03*
X74920000Y-95160000D03*
X77460000Y-74840000D03*
X77460000Y-77380000D03*
X77460000Y-79920000D03*
X77460000Y-82460000D03*
X77460000Y-85000000D03*
X77460000Y-87540000D03*
X77460000Y-90080000D03*
X77460000Y-92620000D03*
X77460000Y-95160000D03*
X80000000Y-74840000D03*
X80000000Y-77380000D03*
X80000000Y-79920000D03*
X80000000Y-82460000D03*
X80000000Y-85000000D03*
X80000000Y-87540000D03*
X80000000Y-90080000D03*
X80000000Y-92620000D03*
X80000000Y-95160000D03*
X82540000Y-74840000D03*
X82540000Y-77380000D03*
X82540000Y-79920000D03*
X82540000Y-82460000D03*
X82540000Y-85000000D03*
X82540000Y-87540000D03*
X82540000Y-90080000D03*
X82540000Y-92620000D03*
X82540000Y-95160000D03*
X85080000Y-74840000D03*
X85080000Y-77380000D03*
X85080000Y-79920000D03*
X85080000Y-82460000D03*
X85080000Y-85000000D03*
X85080000Y-87540000D03*
X85080000Y-90080000D03*
X85080000Y-92620000D03*
X85080000Y-95160000D03*
X87620000Y-74840000D03*
X87620000Y-77380000D03*
X87620000Y-79920000D03*
X87620000Y-82460000D03*
X87620000Y-85000000D03*
X87620000Y-87540000D03*
X87620000Y-90080000D03*
X87620000Y-92620000D03*
X87620000Y-95160000D03*
X90160000Y-74840000D03*
X90160000Y-95160000D03*
X92700000Y-74840000D03*
X92700000Y-77380000D03*
X92700000Y-79920000D03*
X92700000Y-82460000D03*
X92700000Y-90080000D03*
X92700000Y-92620000D03*
X92700000Y-95160000D03*
X93970000Y-77380000D03*
X93970000Y-79920000D03*
X93970000Y-82460000D03*
X93970000Y-90080000D03*
X93970000Y-92620000D03*
%TD*%
D14*
%TO.C,J4*%
X52500000Y-87825000D03*
X52500000Y-82175000D03*
%TD*%
%TO.C,J3*%
X52500000Y-67825000D03*
X52500000Y-62175000D03*
%TD*%
D15*
%TO.C,J2*%
X107500000Y-82175000D03*
X107500000Y-87825000D03*
%TD*%
M02*
