M48
; DRILL file {KiCad 9.0.3} date 2026-01-11T19:54:06-0500
; FORMAT={-:-/ absolute / metric / decimal}
; #@! TF.CreationDate,2026-01-11T19:54:06-05:00
; #@! TF.GenerationSoftware,Kicad,Pcbnew,9.0.3
; #@! TF.FileFunction,Plated,1,2,PTH
FMAT,2
METRIC
; #@! TA.AperFunction,Plated,PTH,ViaDrill
T1C0.300
; #@! TA.AperFunction,Plated,PTH,ComponentDrill
T2C0.508
; #@! TA.AperFunction,Plated,PTH,ComponentDrill
T3C1.190
; #@! TA.AperFunction,Plated,PTH,ComponentDrill
T4C3.200
%
G90
G05
T1
X56.0Y-62.0
X56.0Y-69.0
X56.0Y-82.0
X56.0Y-90.0
X57.0Y-62.0
X57.0Y-70.0
X57.0Y-71.0
X57.0Y-72.0
X57.0Y-73.0
X57.0Y-74.0
X57.0Y-75.0
X57.0Y-76.0
X57.0Y-82.0
X57.0Y-91.0
X58.0Y-63.0
X58.0Y-77.0
X58.0Y-83.0
X58.0Y-92.0
X59.0Y-64.0
X59.0Y-78.0
X59.0Y-84.0
X59.0Y-93.0
X60.0Y-65.0
X60.0Y-79.0
X60.0Y-85.0
X60.0Y-93.0
X61.0Y-66.0
X61.0Y-80.0
X61.0Y-86.0
X61.0Y-93.0
X62.0Y-67.0
X62.0Y-80.0
X62.0Y-87.0
X62.0Y-93.0
X63.0Y-68.0
X63.0Y-69.0
X63.0Y-70.0
X63.0Y-71.0
X63.0Y-72.0
X63.0Y-73.0
X63.0Y-74.0
X63.0Y-80.0
X63.0Y-87.0
X63.0Y-93.0
X64.0Y-75.0
X64.0Y-80.0
X64.0Y-87.0
X64.0Y-93.0
X65.0Y-63.0
X69.9Y-63.0
X75.0Y-65.25
X76.25Y-66.0
X77.25Y-66.0
X79.5Y-65.0
X90.0Y-60.75
X90.0Y-61.5
X90.0Y-62.25
X90.0Y-63.0
X90.0Y-63.75
X92.0Y-68.0
X94.0Y-66.0
X94.0Y-70.0
X94.0Y-87.0
X96.0Y-63.0
X96.0Y-68.0
X96.0Y-72.0
X98.0Y-63.0
X98.0Y-65.0
X98.0Y-70.0
X98.0Y-74.0
X98.0Y-76.0
X98.0Y-78.0
X98.0Y-80.0
X98.0Y-82.0
X98.5Y-87.0
X100.0Y-65.0
X100.0Y-67.0
X100.0Y-72.0
X100.0Y-74.0
X100.0Y-76.0
X100.0Y-78.0
X100.0Y-80.0
X100.0Y-82.0
X100.0Y-84.0
X101.0Y-85.0
X102.0Y-69.0
X102.0Y-86.0
X103.0Y-87.0
X104.0Y-71.0
X104.0Y-74.0
X104.0Y-76.0
X104.0Y-78.0
X104.0Y-80.0
X104.0Y-82.0
T2
X66.03Y-74.84
X66.03Y-79.92
X66.03Y-82.46
X66.03Y-85.0
X66.03Y-87.54
X66.03Y-92.62
X66.03Y-95.16
X67.3Y-74.84
X67.3Y-79.92
X67.3Y-82.46
X67.3Y-85.0
X67.3Y-87.54
X67.3Y-92.62
X67.3Y-95.16
X69.84Y-74.84
X69.84Y-95.16
X72.38Y-74.84
X72.38Y-77.38
X72.38Y-79.92
X72.38Y-82.46
X72.38Y-85.0
X72.38Y-87.54
X72.38Y-90.08
X72.38Y-92.62
X72.38Y-95.16
X74.92Y-74.84
X74.92Y-77.38
X74.92Y-79.92
X74.92Y-82.46
X74.92Y-85.0
X74.92Y-87.54
X74.92Y-90.08
X74.92Y-92.62
X74.92Y-95.16
X77.46Y-74.84
X77.46Y-77.38
X77.46Y-79.92
X77.46Y-82.46
X77.46Y-85.0
X77.46Y-87.54
X77.46Y-90.08
X77.46Y-92.62
X77.46Y-95.16
X80.0Y-74.84
X80.0Y-77.38
X80.0Y-79.92
X80.0Y-82.46
X80.0Y-85.0
X80.0Y-87.54
X80.0Y-90.08
X80.0Y-92.62
X80.0Y-95.16
X82.54Y-74.84
X82.54Y-77.38
X82.54Y-79.92
X82.54Y-82.46
X82.54Y-85.0
X82.54Y-87.54
X82.54Y-90.08
X82.54Y-92.62
X82.54Y-95.16
X85.08Y-74.84
X85.08Y-77.38
X85.08Y-79.92
X85.08Y-82.46
X85.08Y-85.0
X85.08Y-87.54
X85.08Y-90.08
X85.08Y-92.62
X85.08Y-95.16
X87.62Y-74.84
X87.62Y-77.38
X87.62Y-79.92
X87.62Y-82.46
X87.62Y-85.0
X87.62Y-87.54
X87.62Y-90.08
X87.62Y-92.62
X87.62Y-95.16
X90.16Y-74.84
X90.16Y-95.16
X92.7Y-74.84
X92.7Y-77.38
X92.7Y-79.92
X92.7Y-82.46
X92.7Y-90.08
X92.7Y-92.62
X92.7Y-95.16
X93.97Y-77.38
X93.97Y-79.92
X93.97Y-82.46
X93.97Y-90.08
X93.97Y-92.62
T3
X105.77Y-63.735
X105.77Y-66.275
T4
X54.0Y-54.0
X54.0Y-96.0
X106.0Y-54.0
X106.0Y-96.0
M30
