%TF.GenerationSoftware,KiCad,Pcbnew,9.0.3*%
%TF.CreationDate,2025-07-27T15:38:02-04:00*%
%TF.ProjectId,S-Band Limiter,532d4261-6e64-4204-9c69-6d697465722e,v1.0*%
%TF.SameCoordinates,Original*%
%TF.FileFunction,Copper,L3,Inr*%
%TF.FilePolarity,Positive*%
%FSLAX46Y46*%
G04 Gerber Fmt 4.6, Leading zero omitted, Abs format (unit mm)*
G04 Created by KiCad (PCBNEW 9.0.3) date 2025-07-27 15:38:02*
%MOMM*%
%LPD*%
G01*
G04 APERTURE LIST*
%TA.AperFunction,ComponentPad*%
%ADD10C,5.562600*%
%TD*%
%TA.AperFunction,ViaPad*%
%ADD11C,0.600000*%
%TD*%
G04 APERTURE END LIST*
D10*
%TO.N,GND*%
%TO.C,H2*%
X111500000Y-31000000D03*
%TD*%
%TO.N,GND*%
%TO.C,H3*%
X111500000Y-49000000D03*
%TD*%
%TO.N,GND*%
%TO.C,H4*%
X83500000Y-49000000D03*
%TD*%
%TO.N,GND*%
%TO.C,H1*%
X83500000Y-31000000D03*
%TD*%
D11*
%TO.N,GND*%
X85000000Y-39000000D03*
X102000000Y-41000000D03*
X102500000Y-45000000D03*
X99000000Y-41000000D03*
X105000000Y-32500000D03*
X90000000Y-41000000D03*
X113000000Y-44500000D03*
X95000000Y-47500000D03*
X107500000Y-45000000D03*
X109000000Y-43000000D03*
X110000000Y-44500000D03*
X82000000Y-34500000D03*
X106000000Y-39000000D03*
X92500000Y-45000000D03*
X113000000Y-45500000D03*
X90000000Y-39000000D03*
X84000000Y-44500000D03*
X87500000Y-45000000D03*
X97000000Y-39000000D03*
X90000000Y-32500000D03*
X95000000Y-38500000D03*
X106000000Y-41000000D03*
X107500000Y-29000000D03*
X93500000Y-29000000D03*
X109000000Y-41000000D03*
X92500000Y-35000000D03*
X112000000Y-44500000D03*
X88000000Y-39000000D03*
X112000000Y-35500000D03*
X97500000Y-45000000D03*
X88000000Y-41000000D03*
X85000000Y-37000000D03*
X89000000Y-39000000D03*
X85000000Y-42000000D03*
X101500000Y-51000000D03*
X89500000Y-29000000D03*
X109000000Y-42000000D03*
X101000000Y-39000000D03*
X102500000Y-35000000D03*
X98000000Y-41000000D03*
X83000000Y-44500000D03*
X99000000Y-39000000D03*
X87000000Y-41000000D03*
X101500000Y-29000000D03*
X94000000Y-39500000D03*
X85000000Y-41000000D03*
X95000000Y-32500000D03*
X89500000Y-51000000D03*
X97000000Y-42000000D03*
X97500000Y-51000000D03*
X91500000Y-51000000D03*
X109000000Y-38000000D03*
X107000000Y-41000000D03*
X96000000Y-39000000D03*
X111000000Y-44500000D03*
X93500000Y-51000000D03*
X94000000Y-38500000D03*
X99500000Y-29000000D03*
X91000000Y-39000000D03*
X101000000Y-41000000D03*
X86000000Y-41000000D03*
X95000000Y-41000000D03*
X104000000Y-41000000D03*
X92000000Y-39000000D03*
X110000000Y-35500000D03*
X100000000Y-39000000D03*
X90000000Y-47500000D03*
X85000000Y-38000000D03*
X84000000Y-35500000D03*
X97500000Y-35000000D03*
X83000000Y-35500000D03*
X99500000Y-51000000D03*
X91500000Y-29000000D03*
X93000000Y-38500000D03*
X86000000Y-39000000D03*
X111000000Y-35500000D03*
X108000000Y-41000000D03*
X82000000Y-44500000D03*
X96000000Y-41000000D03*
X93000000Y-41000000D03*
X100000000Y-32500000D03*
X109000000Y-37000000D03*
X102000000Y-39000000D03*
X87500000Y-29000000D03*
X82000000Y-35500000D03*
X98000000Y-39000000D03*
X87500000Y-51000000D03*
X95500000Y-29000000D03*
X91000000Y-41000000D03*
X107500000Y-51000000D03*
X87500000Y-35000000D03*
X113000000Y-34500000D03*
X105000000Y-41000000D03*
X95500000Y-51000000D03*
X103500000Y-29000000D03*
X107500000Y-35000000D03*
X92000000Y-41000000D03*
X89000000Y-41000000D03*
X105500000Y-29000000D03*
X107000000Y-39000000D03*
X109000000Y-39000000D03*
X105000000Y-47500000D03*
X87000000Y-39000000D03*
X113000000Y-35500000D03*
X103500000Y-51000000D03*
X82000000Y-45500000D03*
X108000000Y-39000000D03*
X100000000Y-47500000D03*
X94000000Y-40500000D03*
X105500000Y-51000000D03*
X85000000Y-43000000D03*
X97500000Y-29000000D03*
X100000000Y-41000000D03*
X104000000Y-40000000D03*
X103000000Y-41000000D03*
%TD*%
%TA.AperFunction,Conductor*%
%TO.N,GND*%
G36*
X111503244Y-28000670D02*
G01*
X111807046Y-28016592D01*
X111819953Y-28017949D01*
X111951089Y-28038718D01*
X112117209Y-28065028D01*
X112129896Y-28067724D01*
X112420625Y-28145625D01*
X112432965Y-28149635D01*
X112713938Y-28257490D01*
X112725790Y-28262767D01*
X112993968Y-28399411D01*
X113005199Y-28405896D01*
X113257608Y-28569812D01*
X113268109Y-28577441D01*
X113502010Y-28766850D01*
X113511655Y-28775535D01*
X113724464Y-28988344D01*
X113733149Y-28997989D01*
X113922558Y-29231890D01*
X113930187Y-29242391D01*
X114094101Y-29494796D01*
X114100591Y-29506036D01*
X114237231Y-29774206D01*
X114242510Y-29786064D01*
X114350363Y-30067033D01*
X114354374Y-30079376D01*
X114432273Y-30370097D01*
X114434971Y-30382794D01*
X114482050Y-30680046D01*
X114483407Y-30692953D01*
X114499330Y-30996756D01*
X114499500Y-31003246D01*
X114499500Y-48996753D01*
X114499330Y-49003243D01*
X114483407Y-49307046D01*
X114482050Y-49319953D01*
X114434971Y-49617205D01*
X114432273Y-49629902D01*
X114354374Y-49920623D01*
X114350363Y-49932966D01*
X114242510Y-50213935D01*
X114237231Y-50225793D01*
X114100591Y-50493963D01*
X114094101Y-50505203D01*
X113930187Y-50757608D01*
X113922558Y-50768109D01*
X113733149Y-51002010D01*
X113724464Y-51011655D01*
X113511655Y-51224464D01*
X113502010Y-51233149D01*
X113268109Y-51422558D01*
X113257608Y-51430187D01*
X113005203Y-51594101D01*
X112993963Y-51600591D01*
X112725793Y-51737231D01*
X112713935Y-51742510D01*
X112432966Y-51850363D01*
X112420623Y-51854374D01*
X112129902Y-51932273D01*
X112117205Y-51934971D01*
X111819953Y-51982050D01*
X111807046Y-51983407D01*
X111503244Y-51999330D01*
X111496754Y-51999500D01*
X83503246Y-51999500D01*
X83496756Y-51999330D01*
X83192953Y-51983407D01*
X83180046Y-51982050D01*
X82882794Y-51934971D01*
X82870097Y-51932273D01*
X82579376Y-51854374D01*
X82567033Y-51850363D01*
X82286064Y-51742510D01*
X82274206Y-51737231D01*
X82006036Y-51600591D01*
X81994796Y-51594101D01*
X81742391Y-51430187D01*
X81731890Y-51422558D01*
X81497989Y-51233149D01*
X81488344Y-51224464D01*
X81275535Y-51011655D01*
X81266850Y-51002010D01*
X81077441Y-50768109D01*
X81069812Y-50757608D01*
X80905896Y-50505199D01*
X80899408Y-50493963D01*
X80762768Y-50225793D01*
X80757489Y-50213935D01*
X80649636Y-49932966D01*
X80645625Y-49920623D01*
X80567726Y-49629902D01*
X80565028Y-49617205D01*
X80517949Y-49319953D01*
X80516592Y-49307046D01*
X80500670Y-49003243D01*
X80500500Y-48996753D01*
X80500500Y-31003246D01*
X80500670Y-30996756D01*
X80516592Y-30692953D01*
X80517949Y-30680046D01*
X80565028Y-30382794D01*
X80567723Y-30370107D01*
X80645627Y-30079368D01*
X80649636Y-30067033D01*
X80757493Y-29786054D01*
X80762763Y-29774215D01*
X80899415Y-29506023D01*
X80905891Y-29494808D01*
X81069819Y-29242380D01*
X81077434Y-29231899D01*
X81266858Y-28997979D01*
X81275525Y-28988354D01*
X81488354Y-28775525D01*
X81497979Y-28766858D01*
X81731899Y-28577434D01*
X81742380Y-28569819D01*
X81994808Y-28405891D01*
X82006023Y-28399415D01*
X82274215Y-28262763D01*
X82286054Y-28257493D01*
X82567040Y-28149633D01*
X82579368Y-28145627D01*
X82870107Y-28067723D01*
X82882786Y-28065029D01*
X83180046Y-28017949D01*
X83192951Y-28016592D01*
X83496756Y-28000669D01*
X83503246Y-28000500D01*
X83565892Y-28000500D01*
X111434108Y-28000500D01*
X111496754Y-28000500D01*
X111503244Y-28000670D01*
G37*
%TD.AperFunction*%
%TD*%
M02*
