%TF.GenerationSoftware,KiCad,Pcbnew,9.0.3*%
%TF.CreationDate,2025-07-27T15:38:02-04:00*%
%TF.ProjectId,S-Band Limiter,532d4261-6e64-4204-9c69-6d697465722e,v1.0*%
%TF.SameCoordinates,Original*%
%TF.FileFunction,Copper,L1,Top*%
%TF.FilePolarity,Positive*%
%FSLAX46Y46*%
G04 Gerber Fmt 4.6, Leading zero omitted, Abs format (unit mm)*
G04 Created by KiCad (PCBNEW 9.0.3) date 2025-07-27 15:38:02*
%MOMM*%
%LPD*%
G01*
G04 APERTURE LIST*
G04 Aperture macros list*
%AMRoundRect*
0 Rectangle with rounded corners*
0 $1 Rounding radius*
0 $2 $3 $4 $5 $6 $7 $8 $9 X,Y pos of 4 corners*
0 Add a 4 corners polygon primitive as box body*
4,1,4,$2,$3,$4,$5,$6,$7,$8,$9,$2,$3,0*
0 Add four circle primitives for the rounded corners*
1,1,$1+$1,$2,$3*
1,1,$1+$1,$4,$5*
1,1,$1+$1,$6,$7*
1,1,$1+$1,$8,$9*
0 Add four rect primitives between the rounded corners*
20,1,$1+$1,$2,$3,$4,$5,0*
20,1,$1+$1,$4,$5,$6,$7,0*
20,1,$1+$1,$6,$7,$8,$9,0*
20,1,$1+$1,$8,$9,$2,$3,0*%
G04 Aperture macros list end*
%TA.AperFunction,ComponentPad*%
%ADD10C,5.562600*%
%TD*%
%TA.AperFunction,SMDPad,CuDef*%
%ADD11RoundRect,0.250000X1.350000X-0.385000X1.350000X0.385000X-1.350000X0.385000X-1.350000X-0.385000X0*%
%TD*%
%TA.AperFunction,SMDPad,CuDef*%
%ADD12RoundRect,0.250000X1.600000X-0.425000X1.600000X0.425000X-1.600000X0.425000X-1.600000X-0.425000X0*%
%TD*%
%TA.AperFunction,SMDPad,CuDef*%
%ADD13R,0.300000X0.250000*%
%TD*%
%TA.AperFunction,SMDPad,CuDef*%
%ADD14RoundRect,0.125000X-0.175000X-0.000010X0.175000X-0.000010X0.175000X0.000010X-0.175000X0.000010X0*%
%TD*%
%TA.AperFunction,SMDPad,CuDef*%
%ADD15R,1.000000X0.726000*%
%TD*%
%TA.AperFunction,SMDPad,CuDef*%
%ADD16R,1.792000X0.736000*%
%TD*%
%TA.AperFunction,SMDPad,CuDef*%
%ADD17RoundRect,0.250000X-1.350000X0.385000X-1.350000X-0.385000X1.350000X-0.385000X1.350000X0.385000X0*%
%TD*%
%TA.AperFunction,SMDPad,CuDef*%
%ADD18RoundRect,0.250000X-1.600000X0.425000X-1.600000X-0.425000X1.600000X-0.425000X1.600000X0.425000X0*%
%TD*%
%TA.AperFunction,SMDPad,CuDef*%
%ADD19R,0.550000X0.270000*%
%TD*%
%TA.AperFunction,SMDPad,CuDef*%
%ADD20RoundRect,0.125000X-0.125000X-0.725000X0.125000X-0.725000X0.125000X0.725000X-0.125000X0.725000X0*%
%TD*%
%TA.AperFunction,SMDPad,CuDef*%
%ADD21RoundRect,0.140000X-0.140000X-0.170000X0.140000X-0.170000X0.140000X0.170000X-0.140000X0.170000X0*%
%TD*%
%TA.AperFunction,SMDPad,CuDef*%
%ADD22RoundRect,0.147500X-0.172500X0.147500X-0.172500X-0.147500X0.172500X-0.147500X0.172500X0.147500X0*%
%TD*%
%TA.AperFunction,ViaPad*%
%ADD23C,0.600000*%
%TD*%
%TA.AperFunction,Conductor*%
%ADD24C,0.400000*%
%TD*%
G04 APERTURE END LIST*
D10*
%TO.P,H2,1,1*%
%TO.N,GND*%
X111500000Y-31000000D03*
%TD*%
D11*
%TO.P,J2,1,In*%
%TO.N,Net-(J2-In)*%
X112900000Y-40000000D03*
D12*
%TO.P,J2,2,Ext*%
%TO.N,GND*%
X112650000Y-37175000D03*
X112650000Y-42825000D03*
%TD*%
D10*
%TO.P,H3,1,1*%
%TO.N,GND*%
X111500000Y-49000000D03*
%TD*%
%TO.P,H4,1,1*%
%TO.N,GND*%
X83500000Y-49000000D03*
%TD*%
D13*
%TO.P,U1,1,RF_IN*%
%TO.N,Net-(U1-RF_IN)*%
X102800000Y-40000000D03*
D14*
X102950000Y-40000000D03*
%TO.P,U1,2,RF_OUT*%
%TO.N,Net-(J2-In)*%
X105050000Y-40000000D03*
D13*
X105200000Y-40000000D03*
D15*
%TO.P,U1,3,GND*%
%TO.N,GND*%
X104000000Y-39860000D03*
D16*
%TO.P,U1,4,PAD*%
%TO.N,unconnected-(U1-PAD-Pad4)*%
X104000000Y-38800000D03*
%TD*%
D17*
%TO.P,J1,1,In*%
%TO.N,Net-(J1-In)*%
X82162500Y-40000000D03*
D18*
%TO.P,J1,2,Ext*%
%TO.N,GND*%
X82412500Y-42825000D03*
X82412500Y-37175000D03*
%TD*%
D19*
%TO.P,U2,1,IN*%
%TO.N,Net-(U2-IN)*%
X93225000Y-40000000D03*
%TO.P,U2,2,OUT*%
%TO.N,Net-(U2-OUT)*%
X94775000Y-40000000D03*
D20*
%TO.P,U2,3,GND*%
%TO.N,GND*%
X94000000Y-40000000D03*
%TD*%
D21*
%TO.P,C1,1*%
%TO.N,Net-(U2-OUT)*%
X99540000Y-40000000D03*
%TO.P,C1,2*%
%TO.N,Net-(U1-RF_IN)*%
X100500000Y-40000000D03*
%TD*%
%TO.P,C2,1*%
%TO.N,Net-(J1-In)*%
X89520000Y-40000000D03*
%TO.P,C2,2*%
%TO.N,Net-(U2-IN)*%
X90480000Y-40000000D03*
%TD*%
D10*
%TO.P,H1,1,1*%
%TO.N,GND*%
X83500000Y-31000000D03*
%TD*%
D22*
%TO.P,L1,1*%
%TO.N,Net-(U2-OUT)*%
X97000000Y-40030000D03*
%TO.P,L1,2*%
%TO.N,GND*%
X97000000Y-41000000D03*
%TD*%
D23*
%TO.N,GND*%
X85000000Y-39000000D03*
X102000000Y-41000000D03*
X102500000Y-45000000D03*
X99000000Y-41000000D03*
X105000000Y-32500000D03*
X90000000Y-41000000D03*
X113000000Y-44500000D03*
X95000000Y-47500000D03*
X107500000Y-45000000D03*
X109000000Y-43000000D03*
X110000000Y-44500000D03*
X82000000Y-34500000D03*
X106000000Y-39000000D03*
X92500000Y-45000000D03*
X113000000Y-45500000D03*
X90000000Y-39000000D03*
X84000000Y-44500000D03*
X87500000Y-45000000D03*
X97000000Y-39000000D03*
X90000000Y-32500000D03*
X95000000Y-38500000D03*
X106000000Y-41000000D03*
X107500000Y-29000000D03*
X93500000Y-29000000D03*
X109000000Y-41000000D03*
X92500000Y-35000000D03*
X112000000Y-44500000D03*
X88000000Y-39000000D03*
X112000000Y-35500000D03*
X97500000Y-45000000D03*
X88000000Y-41000000D03*
X85000000Y-37000000D03*
X89000000Y-39000000D03*
X85000000Y-42000000D03*
X101500000Y-51000000D03*
X89500000Y-29000000D03*
X109000000Y-42000000D03*
X101000000Y-39000000D03*
X102500000Y-35000000D03*
X98000000Y-41000000D03*
X83000000Y-44500000D03*
X99000000Y-39000000D03*
X87000000Y-41000000D03*
X101500000Y-29000000D03*
X94000000Y-39500000D03*
X85000000Y-41000000D03*
X95000000Y-32500000D03*
X89500000Y-51000000D03*
X97000000Y-42000000D03*
X97500000Y-51000000D03*
X91500000Y-51000000D03*
X109000000Y-38000000D03*
X107000000Y-41000000D03*
X96000000Y-39000000D03*
X111000000Y-44500000D03*
X93500000Y-51000000D03*
X94000000Y-38500000D03*
X99500000Y-29000000D03*
X91000000Y-39000000D03*
X101000000Y-41000000D03*
X86000000Y-41000000D03*
X95000000Y-41000000D03*
X104000000Y-41000000D03*
X92000000Y-39000000D03*
X110000000Y-35500000D03*
X100000000Y-39000000D03*
X90000000Y-47500000D03*
X85000000Y-38000000D03*
X84000000Y-35500000D03*
X97500000Y-35000000D03*
X83000000Y-35500000D03*
X99500000Y-51000000D03*
X91500000Y-29000000D03*
X93000000Y-38500000D03*
X86000000Y-39000000D03*
X111000000Y-35500000D03*
X108000000Y-41000000D03*
X82000000Y-44500000D03*
X96000000Y-41000000D03*
X93000000Y-41000000D03*
X100000000Y-32500000D03*
X109000000Y-37000000D03*
X102000000Y-39000000D03*
X87500000Y-29000000D03*
X82000000Y-35500000D03*
X98000000Y-39000000D03*
X87500000Y-51000000D03*
X95500000Y-29000000D03*
X91000000Y-41000000D03*
X107500000Y-51000000D03*
X87500000Y-35000000D03*
X113000000Y-34500000D03*
X105000000Y-41000000D03*
X95500000Y-51000000D03*
X103500000Y-29000000D03*
X107500000Y-35000000D03*
X92000000Y-41000000D03*
X89000000Y-41000000D03*
X105500000Y-29000000D03*
X107000000Y-39000000D03*
X109000000Y-39000000D03*
X105000000Y-47500000D03*
X87000000Y-39000000D03*
X113000000Y-35500000D03*
X103500000Y-51000000D03*
X82000000Y-45500000D03*
X108000000Y-39000000D03*
X100000000Y-47500000D03*
X94000000Y-40500000D03*
X105500000Y-51000000D03*
X85000000Y-43000000D03*
X97500000Y-29000000D03*
X100000000Y-41000000D03*
X104000000Y-40000000D03*
X103000000Y-41000000D03*
%TD*%
D24*
%TO.N,Net-(U1-RF_IN)*%
X100500000Y-40000000D02*
X102950000Y-40000000D01*
%TO.N,Net-(U2-OUT)*%
X99540000Y-40000000D02*
X97030000Y-40000000D01*
X96970000Y-40000000D02*
X97000000Y-40030000D01*
X97030000Y-40000000D02*
X97000000Y-40030000D01*
X94775000Y-40000000D02*
X96970000Y-40000000D01*
%TO.N,Net-(U2-IN)*%
X90480000Y-40000000D02*
X93225000Y-40000000D01*
%TO.N,Net-(J1-In)*%
X82162500Y-40000000D02*
X89520000Y-40000000D01*
%TO.N,Net-(J2-In)*%
X105050000Y-40000000D02*
X112900000Y-40000000D01*
%TD*%
%TA.AperFunction,Conductor*%
%TO.N,GND*%
G36*
X104365123Y-39588184D02*
G01*
X104410878Y-39640988D01*
X104420822Y-39710146D01*
X104413439Y-39737989D01*
X104359640Y-39874411D01*
X104354065Y-39920841D01*
X104349500Y-39958856D01*
X104349500Y-40041144D01*
X104354825Y-40085494D01*
X104359640Y-40125588D01*
X104412636Y-40259976D01*
X104499921Y-40375078D01*
X104615024Y-40462364D01*
X104641517Y-40472811D01*
X104716315Y-40502308D01*
X104732808Y-40510267D01*
X104818216Y-40559577D01*
X104970943Y-40600500D01*
X110850975Y-40600500D01*
X110918014Y-40620185D01*
X110957707Y-40661379D01*
X111031919Y-40786865D01*
X111031921Y-40786867D01*
X111031923Y-40786870D01*
X111148129Y-40903076D01*
X111148133Y-40903079D01*
X111148135Y-40903081D01*
X111289602Y-40986744D01*
X111331224Y-40998836D01*
X111447426Y-41032597D01*
X111447429Y-41032597D01*
X111447431Y-41032598D01*
X111484306Y-41035500D01*
X111484314Y-41035500D01*
X114315686Y-41035500D01*
X114315694Y-41035500D01*
X114352569Y-41032598D01*
X114352570Y-41032597D01*
X114353215Y-41032480D01*
X114353580Y-41032518D01*
X114358886Y-41032101D01*
X114358963Y-41033085D01*
X114422701Y-41039796D01*
X114477201Y-41083517D01*
X114499411Y-41149763D01*
X114499500Y-41154461D01*
X114499500Y-48996753D01*
X114499330Y-49003243D01*
X114483407Y-49307046D01*
X114482050Y-49319953D01*
X114434971Y-49617205D01*
X114432273Y-49629902D01*
X114354374Y-49920623D01*
X114350363Y-49932966D01*
X114242510Y-50213935D01*
X114237231Y-50225793D01*
X114100591Y-50493963D01*
X114094101Y-50505203D01*
X113930187Y-50757608D01*
X113922558Y-50768109D01*
X113733149Y-51002010D01*
X113724464Y-51011655D01*
X113511655Y-51224464D01*
X113502010Y-51233149D01*
X113268109Y-51422558D01*
X113257608Y-51430187D01*
X113005203Y-51594101D01*
X112993963Y-51600591D01*
X112725793Y-51737231D01*
X112713935Y-51742510D01*
X112432966Y-51850363D01*
X112420623Y-51854374D01*
X112129902Y-51932273D01*
X112117205Y-51934971D01*
X111819953Y-51982050D01*
X111807046Y-51983407D01*
X111503244Y-51999330D01*
X111496754Y-51999500D01*
X83503246Y-51999500D01*
X83496756Y-51999330D01*
X83192953Y-51983407D01*
X83180046Y-51982050D01*
X82882794Y-51934971D01*
X82870097Y-51932273D01*
X82579376Y-51854374D01*
X82567033Y-51850363D01*
X82286064Y-51742510D01*
X82274206Y-51737231D01*
X82006036Y-51600591D01*
X81994796Y-51594101D01*
X81742391Y-51430187D01*
X81731890Y-51422558D01*
X81497989Y-51233149D01*
X81488344Y-51224464D01*
X81275535Y-51011655D01*
X81266850Y-51002010D01*
X81077441Y-50768109D01*
X81069812Y-50757608D01*
X80905896Y-50505199D01*
X80899408Y-50493963D01*
X80762768Y-50225793D01*
X80757489Y-50213935D01*
X80649636Y-49932966D01*
X80645625Y-49920623D01*
X80567726Y-49629902D01*
X80565028Y-49617205D01*
X80517949Y-49319953D01*
X80516592Y-49307046D01*
X80500670Y-49003243D01*
X80500500Y-48996753D01*
X80500500Y-41136905D01*
X80520185Y-41069866D01*
X80572989Y-41024111D01*
X80642147Y-41014167D01*
X80659095Y-41017829D01*
X80709926Y-41032597D01*
X80709929Y-41032597D01*
X80709931Y-41032598D01*
X80746806Y-41035500D01*
X80746814Y-41035500D01*
X83578186Y-41035500D01*
X83578194Y-41035500D01*
X83615069Y-41032598D01*
X83615071Y-41032597D01*
X83615073Y-41032597D01*
X83678508Y-41014167D01*
X83772898Y-40986744D01*
X83914365Y-40903081D01*
X84030581Y-40786865D01*
X84104793Y-40661379D01*
X84155862Y-40613696D01*
X84211525Y-40600500D01*
X89011482Y-40600500D01*
X89078521Y-40620185D01*
X89086407Y-40625696D01*
X89112605Y-40645562D01*
X89112607Y-40645563D01*
X89181715Y-40672816D01*
X89250826Y-40700070D01*
X89337680Y-40710500D01*
X89337686Y-40710500D01*
X89702314Y-40710500D01*
X89702320Y-40710500D01*
X89789174Y-40700070D01*
X89927395Y-40645562D01*
X89927398Y-40645559D01*
X89934787Y-40641406D01*
X89935818Y-40643239D01*
X89990376Y-40622499D01*
X90058741Y-40636921D01*
X90069265Y-40643684D01*
X90072607Y-40645563D01*
X90141715Y-40672816D01*
X90210826Y-40700070D01*
X90297680Y-40710500D01*
X90297686Y-40710500D01*
X90662314Y-40710500D01*
X90662320Y-40710500D01*
X90749174Y-40700070D01*
X90887395Y-40645562D01*
X90913593Y-40625696D01*
X90978905Y-40600873D01*
X90988518Y-40600500D01*
X93304055Y-40600500D01*
X93304057Y-40600500D01*
X93456784Y-40559577D01*
X93456788Y-40559575D01*
X93469712Y-40552113D01*
X93526741Y-40536831D01*
X93526667Y-40535881D01*
X93531511Y-40535499D01*
X93531518Y-40535499D01*
X93625304Y-40520646D01*
X93738342Y-40463050D01*
X93828050Y-40373342D01*
X93885646Y-40260304D01*
X93885646Y-40260301D01*
X93889515Y-40252709D01*
X93937490Y-40201913D01*
X94005311Y-40185118D01*
X94071446Y-40207655D01*
X94110485Y-40252709D01*
X94114353Y-40260301D01*
X94114354Y-40260304D01*
X94171950Y-40373342D01*
X94171952Y-40373344D01*
X94171954Y-40373347D01*
X94261652Y-40463045D01*
X94261654Y-40463046D01*
X94261658Y-40463050D01*
X94354338Y-40510273D01*
X94374698Y-40520647D01*
X94468478Y-40535500D01*
X94473333Y-40535882D01*
X94473257Y-40536837D01*
X94530288Y-40552113D01*
X94543216Y-40559577D01*
X94695943Y-40600500D01*
X96436680Y-40600500D01*
X96503719Y-40620185D01*
X96511605Y-40625696D01*
X96537802Y-40645562D01*
X96556395Y-40659661D01*
X96696533Y-40714924D01*
X96784599Y-40725500D01*
X97215400Y-40725499D01*
X97303467Y-40714924D01*
X97443605Y-40659661D01*
X97488395Y-40625696D01*
X97553706Y-40600873D01*
X97563320Y-40600500D01*
X99031482Y-40600500D01*
X99098521Y-40620185D01*
X99106407Y-40625696D01*
X99132605Y-40645562D01*
X99132607Y-40645563D01*
X99201715Y-40672816D01*
X99270826Y-40700070D01*
X99357680Y-40710500D01*
X99357686Y-40710500D01*
X99722314Y-40710500D01*
X99722320Y-40710500D01*
X99809174Y-40700070D01*
X99947395Y-40645562D01*
X99947398Y-40645559D01*
X99954787Y-40641406D01*
X99955818Y-40643239D01*
X100010376Y-40622499D01*
X100078741Y-40636921D01*
X100089265Y-40643684D01*
X100092607Y-40645563D01*
X100161715Y-40672816D01*
X100230826Y-40700070D01*
X100317680Y-40710500D01*
X100317686Y-40710500D01*
X100682314Y-40710500D01*
X100682320Y-40710500D01*
X100769174Y-40700070D01*
X100907395Y-40645562D01*
X100933593Y-40625696D01*
X100998905Y-40600873D01*
X101008518Y-40600500D01*
X103029055Y-40600500D01*
X103029057Y-40600500D01*
X103181784Y-40559577D01*
X103267189Y-40510267D01*
X103283684Y-40502307D01*
X103384975Y-40462364D01*
X103500078Y-40375078D01*
X103587364Y-40259975D01*
X103640359Y-40125590D01*
X103650500Y-40041144D01*
X103650500Y-39958856D01*
X103640359Y-39874410D01*
X103587364Y-39740025D01*
X103587363Y-39740024D01*
X103586561Y-39737989D01*
X103580280Y-39668402D01*
X103612617Y-39606466D01*
X103673306Y-39571845D01*
X103701916Y-39568499D01*
X104298084Y-39568499D01*
X104365123Y-39588184D01*
G37*
%TD.AperFunction*%
%TA.AperFunction,Conductor*%
G36*
X111503244Y-28000670D02*
G01*
X111807046Y-28016592D01*
X111819953Y-28017949D01*
X111951089Y-28038718D01*
X112117209Y-28065028D01*
X112129896Y-28067724D01*
X112420625Y-28145625D01*
X112432965Y-28149635D01*
X112713938Y-28257490D01*
X112725790Y-28262767D01*
X112993968Y-28399411D01*
X113005199Y-28405896D01*
X113257608Y-28569812D01*
X113268109Y-28577441D01*
X113502010Y-28766850D01*
X113511655Y-28775535D01*
X113724464Y-28988344D01*
X113733149Y-28997989D01*
X113922558Y-29231890D01*
X113930187Y-29242391D01*
X114094101Y-29494796D01*
X114100591Y-29506036D01*
X114237231Y-29774206D01*
X114242510Y-29786064D01*
X114350363Y-30067033D01*
X114354374Y-30079376D01*
X114432273Y-30370097D01*
X114434971Y-30382794D01*
X114482050Y-30680046D01*
X114483407Y-30692953D01*
X114499330Y-30996756D01*
X114499500Y-31003246D01*
X114499500Y-38845538D01*
X114479815Y-38912577D01*
X114427011Y-38958332D01*
X114357853Y-38968276D01*
X114353232Y-38967522D01*
X114352577Y-38967402D01*
X114315701Y-38964500D01*
X114315694Y-38964500D01*
X111484306Y-38964500D01*
X111484298Y-38964500D01*
X111447432Y-38967401D01*
X111447426Y-38967402D01*
X111289606Y-39013254D01*
X111289603Y-39013255D01*
X111148137Y-39096917D01*
X111148129Y-39096923D01*
X111031923Y-39213129D01*
X111031917Y-39213138D01*
X110957707Y-39338621D01*
X110906638Y-39386304D01*
X110850975Y-39399500D01*
X105410012Y-39399500D01*
X105342973Y-39379815D01*
X105297218Y-39327011D01*
X105287274Y-39257853D01*
X105287539Y-39256102D01*
X105296499Y-39199524D01*
X105296499Y-39199523D01*
X105296500Y-39199519D01*
X105296499Y-38400482D01*
X105281646Y-38306696D01*
X105224050Y-38193658D01*
X105224046Y-38193654D01*
X105224045Y-38193652D01*
X105134347Y-38103954D01*
X105134344Y-38103952D01*
X105134342Y-38103950D01*
X105057517Y-38064805D01*
X105021301Y-38046352D01*
X104927524Y-38031500D01*
X103072482Y-38031500D01*
X102991519Y-38044323D01*
X102978696Y-38046354D01*
X102865658Y-38103950D01*
X102865657Y-38103951D01*
X102865652Y-38103954D01*
X102775954Y-38193652D01*
X102775951Y-38193657D01*
X102718352Y-38306698D01*
X102703500Y-38400475D01*
X102703500Y-39199523D01*
X102712462Y-39256103D01*
X102703507Y-39325396D01*
X102658511Y-39378848D01*
X102591759Y-39399487D01*
X102589989Y-39399500D01*
X101008518Y-39399500D01*
X100941479Y-39379815D01*
X100933593Y-39374304D01*
X100907394Y-39354437D01*
X100907392Y-39354436D01*
X100769175Y-39299930D01*
X100756766Y-39298440D01*
X100682320Y-39289500D01*
X100317680Y-39289500D01*
X100252539Y-39297322D01*
X100230824Y-39299930D01*
X100092608Y-39354436D01*
X100085214Y-39358594D01*
X100084183Y-39356761D01*
X100029610Y-39377502D01*
X99961247Y-39363072D01*
X99950731Y-39356314D01*
X99947391Y-39354436D01*
X99809175Y-39299930D01*
X99796766Y-39298440D01*
X99722320Y-39289500D01*
X99357680Y-39289500D01*
X99292539Y-39297322D01*
X99270824Y-39299930D01*
X99132607Y-39354436D01*
X99132605Y-39354437D01*
X99106407Y-39374304D01*
X99041095Y-39399127D01*
X99031482Y-39399500D01*
X97465045Y-39399500D01*
X97419556Y-39390855D01*
X97303468Y-39345076D01*
X97303464Y-39345075D01*
X97215401Y-39334500D01*
X96784606Y-39334500D01*
X96696533Y-39345076D01*
X96580444Y-39390855D01*
X96534955Y-39399500D01*
X94695943Y-39399500D01*
X94543216Y-39440423D01*
X94543213Y-39440424D01*
X94543211Y-39440425D01*
X94530278Y-39447891D01*
X94473270Y-39463170D01*
X94473345Y-39464118D01*
X94468490Y-39464500D01*
X94468483Y-39464500D01*
X94468482Y-39464501D01*
X94374696Y-39479354D01*
X94261658Y-39536950D01*
X94261657Y-39536951D01*
X94261652Y-39536954D01*
X94171954Y-39626652D01*
X94171949Y-39626659D01*
X94110483Y-39747291D01*
X94062508Y-39798086D01*
X93994687Y-39814881D01*
X93928553Y-39792343D01*
X93889514Y-39747290D01*
X93885646Y-39739699D01*
X93885646Y-39739696D01*
X93828050Y-39626658D01*
X93828048Y-39626656D01*
X93828045Y-39626652D01*
X93738347Y-39536954D01*
X93738344Y-39536952D01*
X93738342Y-39536950D01*
X93661517Y-39497805D01*
X93625301Y-39479352D01*
X93531522Y-39464499D01*
X93526669Y-39464118D01*
X93526743Y-39463168D01*
X93469712Y-39447887D01*
X93456786Y-39440424D01*
X93456785Y-39440423D01*
X93456784Y-39440423D01*
X93304057Y-39399500D01*
X93304056Y-39399500D01*
X90988518Y-39399500D01*
X90921479Y-39379815D01*
X90913593Y-39374304D01*
X90887394Y-39354437D01*
X90887392Y-39354436D01*
X90749175Y-39299930D01*
X90736766Y-39298440D01*
X90662320Y-39289500D01*
X90297680Y-39289500D01*
X90232539Y-39297322D01*
X90210824Y-39299930D01*
X90072608Y-39354436D01*
X90065214Y-39358594D01*
X90064183Y-39356761D01*
X90009610Y-39377502D01*
X89941247Y-39363072D01*
X89930731Y-39356314D01*
X89927391Y-39354436D01*
X89789175Y-39299930D01*
X89776766Y-39298440D01*
X89702320Y-39289500D01*
X89337680Y-39289500D01*
X89272539Y-39297322D01*
X89250824Y-39299930D01*
X89112607Y-39354436D01*
X89112605Y-39354437D01*
X89086407Y-39374304D01*
X89021095Y-39399127D01*
X89011482Y-39399500D01*
X84211525Y-39399500D01*
X84144486Y-39379815D01*
X84104793Y-39338621D01*
X84081911Y-39299930D01*
X84030581Y-39213135D01*
X84030578Y-39213132D01*
X84030576Y-39213129D01*
X83914370Y-39096923D01*
X83914362Y-39096917D01*
X83772896Y-39013255D01*
X83772893Y-39013254D01*
X83615073Y-38967402D01*
X83615067Y-38967401D01*
X83578201Y-38964500D01*
X83578194Y-38964500D01*
X80746806Y-38964500D01*
X80746798Y-38964500D01*
X80709932Y-38967401D01*
X80709929Y-38967402D01*
X80659093Y-38982171D01*
X80589224Y-38981970D01*
X80530554Y-38944028D01*
X80501712Y-38880389D01*
X80500500Y-38863094D01*
X80500500Y-31003246D01*
X80500670Y-30996756D01*
X80516592Y-30692953D01*
X80517949Y-30680046D01*
X80565028Y-30382794D01*
X80567723Y-30370107D01*
X80645627Y-30079368D01*
X80649636Y-30067033D01*
X80757493Y-29786054D01*
X80762763Y-29774215D01*
X80899415Y-29506023D01*
X80905891Y-29494808D01*
X81069819Y-29242380D01*
X81077434Y-29231899D01*
X81266858Y-28997979D01*
X81275525Y-28988354D01*
X81488354Y-28775525D01*
X81497979Y-28766858D01*
X81731899Y-28577434D01*
X81742380Y-28569819D01*
X81994808Y-28405891D01*
X82006023Y-28399415D01*
X82274215Y-28262763D01*
X82286054Y-28257493D01*
X82567040Y-28149633D01*
X82579368Y-28145627D01*
X82870107Y-28067723D01*
X82882786Y-28065029D01*
X83180046Y-28017949D01*
X83192951Y-28016592D01*
X83496756Y-28000669D01*
X83503246Y-28000500D01*
X83565892Y-28000500D01*
X111434108Y-28000500D01*
X111496754Y-28000500D01*
X111503244Y-28000670D01*
G37*
%TD.AperFunction*%
%TD*%
M02*
