M48
; DRILL file {KiCad 9.0.3} date 2025-07-27T15:38:04-0400
; FORMAT={-:-/ absolute / metric / decimal}
; #@! TF.CreationDate,2025-07-27T15:38:04-04:00
; #@! TF.GenerationSoftware,Kicad,Pcbnew,9.0.3
; #@! TF.FileFunction,Plated,1,4,PTH
FMAT,2
METRIC
; #@! TA.AperFunction,Plated,PTH,ViaDrill
T1C0.300
; #@! TA.AperFunction,Plated,PTH,ComponentDrill
T2C3.264
%
G90
G05
T1
X82.0Y-34.5
X82.0Y-35.5
X82.0Y-44.5
X82.0Y-45.5
X83.0Y-35.5
X83.0Y-44.5
X84.0Y-35.5
X84.0Y-44.5
X85.0Y-37.0
X85.0Y-38.0
X85.0Y-39.0
X85.0Y-41.0
X85.0Y-42.0
X85.0Y-43.0
X86.0Y-39.0
X86.0Y-41.0
X87.0Y-39.0
X87.0Y-41.0
X87.5Y-29.0
X87.5Y-35.0
X87.5Y-45.0
X87.5Y-51.0
X88.0Y-39.0
X88.0Y-41.0
X89.0Y-39.0
X89.0Y-41.0
X89.5Y-29.0
X89.5Y-51.0
X90.0Y-32.5
X90.0Y-39.0
X90.0Y-41.0
X90.0Y-47.5
X91.0Y-39.0
X91.0Y-41.0
X91.5Y-29.0
X91.5Y-51.0
X92.0Y-39.0
X92.0Y-41.0
X92.5Y-35.0
X92.5Y-45.0
X93.0Y-38.5
X93.0Y-41.0
X93.5Y-29.0
X93.5Y-51.0
X94.0Y-38.5
X94.0Y-39.5
X94.0Y-40.5
X95.0Y-32.5
X95.0Y-38.5
X95.0Y-41.0
X95.0Y-47.5
X95.5Y-29.0
X95.5Y-51.0
X96.0Y-39.0
X96.0Y-41.0
X97.0Y-39.0
X97.0Y-42.0
X97.5Y-29.0
X97.5Y-35.0
X97.5Y-45.0
X97.5Y-51.0
X98.0Y-39.0
X98.0Y-41.0
X99.0Y-39.0
X99.0Y-41.0
X99.5Y-29.0
X99.5Y-51.0
X100.0Y-32.5
X100.0Y-39.0
X100.0Y-41.0
X100.0Y-47.5
X101.0Y-39.0
X101.0Y-41.0
X101.5Y-29.0
X101.5Y-51.0
X102.0Y-39.0
X102.0Y-41.0
X102.5Y-35.0
X102.5Y-45.0
X103.0Y-41.0
X103.5Y-29.0
X103.5Y-51.0
X104.0Y-40.0
X104.0Y-41.0
X105.0Y-32.5
X105.0Y-41.0
X105.0Y-47.5
X105.5Y-29.0
X105.5Y-51.0
X106.0Y-39.0
X106.0Y-41.0
X107.0Y-39.0
X107.0Y-41.0
X107.5Y-29.0
X107.5Y-35.0
X107.5Y-45.0
X107.5Y-51.0
X108.0Y-39.0
X108.0Y-41.0
X109.0Y-37.0
X109.0Y-38.0
X109.0Y-39.0
X109.0Y-41.0
X109.0Y-42.0
X109.0Y-43.0
X110.0Y-35.5
X110.0Y-44.5
X111.0Y-35.5
X111.0Y-44.5
X112.0Y-35.5
X112.0Y-44.5
X113.0Y-34.5
X113.0Y-35.5
X113.0Y-44.5
X113.0Y-45.5
T2
X83.5Y-31.0
X83.5Y-49.0
X111.5Y-31.0
X111.5Y-49.0
M30
