%TF.GenerationSoftware,KiCad,Pcbnew,8.0.0*%
%TF.CreationDate,2024-05-05T15:44:05-04:00*%
%TF.ProjectId,S-Band Driver Amplifier,532d4261-6e64-4204-9472-697665722041,v1.0*%
%TF.SameCoordinates,Original*%
%TF.FileFunction,Copper,L1,Top*%
%TF.FilePolarity,Positive*%
%FSLAX46Y46*%
G04 Gerber Fmt 4.6, Leading zero omitted, Abs format (unit mm)*
G04 Created by KiCad (PCBNEW 8.0.0) date 2024-05-05 15:44:05*
%MOMM*%
%LPD*%
G01*
G04 APERTURE LIST*
G04 Aperture macros list*
%AMRoundRect*
0 Rectangle with rounded corners*
0 $1 Rounding radius*
0 $2 $3 $4 $5 $6 $7 $8 $9 X,Y pos of 4 corners*
0 Add a 4 corners polygon primitive as box body*
4,1,4,$2,$3,$4,$5,$6,$7,$8,$9,$2,$3,0*
0 Add four circle primitives for the rounded corners*
1,1,$1+$1,$2,$3*
1,1,$1+$1,$4,$5*
1,1,$1+$1,$6,$7*
1,1,$1+$1,$8,$9*
0 Add four rect primitives between the rounded corners*
20,1,$1+$1,$2,$3,$4,$5,0*
20,1,$1+$1,$4,$5,$6,$7,0*
20,1,$1+$1,$6,$7,$8,$9,0*
20,1,$1+$1,$8,$9,$2,$3,0*%
%AMFreePoly0*
4,1,9,3.862500,-0.866500,0.737500,-0.866500,0.737500,-0.450000,-0.737500,-0.450000,-0.737500,0.450000,0.737500,0.450000,0.737500,0.866500,3.862500,0.866500,3.862500,-0.866500,3.862500,-0.866500,$1*%
G04 Aperture macros list end*
%TA.AperFunction,SMDPad,CuDef*%
%ADD10RoundRect,0.135000X-0.185000X0.135000X-0.185000X-0.135000X0.185000X-0.135000X0.185000X0.135000X0*%
%TD*%
%TA.AperFunction,SMDPad,CuDef*%
%ADD11RoundRect,0.140000X-0.140000X-0.170000X0.140000X-0.170000X0.140000X0.170000X-0.140000X0.170000X0*%
%TD*%
%TA.AperFunction,SMDPad,CuDef*%
%ADD12RoundRect,0.140000X0.170000X-0.140000X0.170000X0.140000X-0.170000X0.140000X-0.170000X-0.140000X0*%
%TD*%
%TA.AperFunction,ComponentPad*%
%ADD13C,5.562600*%
%TD*%
%TA.AperFunction,SMDPad,CuDef*%
%ADD14RoundRect,0.225000X0.225000X-0.425000X0.225000X0.425000X-0.225000X0.425000X-0.225000X-0.425000X0*%
%TD*%
%TA.AperFunction,SMDPad,CuDef*%
%ADD15FreePoly0,90.000000*%
%TD*%
%TA.AperFunction,SMDPad,CuDef*%
%ADD16RoundRect,0.147500X-0.172500X0.147500X-0.172500X-0.147500X0.172500X-0.147500X0.172500X0.147500X0*%
%TD*%
%TA.AperFunction,SMDPad,CuDef*%
%ADD17R,3.600000X1.270000*%
%TD*%
%TA.AperFunction,SMDPad,CuDef*%
%ADD18R,4.200000X1.350000*%
%TD*%
%TA.AperFunction,ViaPad*%
%ADD19C,0.600000*%
%TD*%
%TA.AperFunction,Conductor*%
%ADD20C,0.500000*%
%TD*%
G04 APERTURE END LIST*
D10*
%TO.P,R1,1*%
%TO.N,VCC*%
X123140000Y-48640000D03*
%TO.P,R1,2*%
%TO.N,Net-(C5-Pad1)*%
X123140000Y-49660000D03*
%TD*%
D11*
%TO.P,C11,1*%
%TO.N,Net-(C10-Pad2)*%
X130170000Y-57150000D03*
%TO.P,C11,2*%
%TO.N,Net-(J2-In)*%
X131130000Y-57150000D03*
%TD*%
D12*
%TO.P,C10,2*%
%TO.N,Net-(C10-Pad2)*%
X128900000Y-57920000D03*
%TO.P,C10,1*%
%TO.N,GND*%
X128900000Y-58880000D03*
%TD*%
%TO.P,C9,1*%
%TO.N,GND*%
X110650000Y-58880000D03*
%TO.P,C9,2*%
%TO.N,Net-(J1-In)*%
X110650000Y-57920000D03*
%TD*%
D11*
%TO.P,C8,1*%
%TO.N,Net-(C1-Pad2)*%
X115670000Y-57150000D03*
%TO.P,C8,2*%
%TO.N,Net-(C8-Pad2)*%
X116630000Y-57150000D03*
%TD*%
D13*
%TO.P,H4,1,1*%
%TO.N,GND*%
X133350000Y-47625000D03*
%TD*%
%TO.P,H3,1,1*%
%TO.N,GND*%
X107950000Y-47625000D03*
%TD*%
%TO.P,H2,1,1*%
%TO.N,GND*%
X133350000Y-66675000D03*
%TD*%
%TO.P,H1,1,1*%
%TO.N,GND*%
X107950000Y-66675000D03*
%TD*%
D14*
%TO.P,U1,1*%
%TO.N,Net-(C8-Pad2)*%
X119150000Y-57083500D03*
D15*
%TO.P,U1,2,GND*%
%TO.N,GND*%
X120650000Y-56996000D03*
D14*
%TO.P,U1,3*%
%TO.N,Net-(C2-Pad1)*%
X122150000Y-57083500D03*
%TD*%
D16*
%TO.P,L1,1*%
%TO.N,Net-(C5-Pad1)*%
X124100000Y-55415000D03*
%TO.P,L1,2*%
%TO.N,Net-(C2-Pad1)*%
X124100000Y-56385000D03*
%TD*%
D17*
%TO.P,J2,1,In*%
%TO.N,Net-(J2-In)*%
X134602500Y-57150000D03*
D18*
%TO.P,J2,2,Ext*%
%TO.N,GND*%
X134402500Y-59975000D03*
X134402500Y-54325000D03*
%TD*%
D17*
%TO.P,J1,1,In*%
%TO.N,Net-(J1-In)*%
X106697500Y-57150000D03*
D18*
%TO.P,J1,2,Ext*%
%TO.N,GND*%
X106897500Y-54325000D03*
X106897500Y-59975000D03*
%TD*%
D11*
%TO.P,C7,1*%
%TO.N,Net-(C5-Pad1)*%
X124670000Y-52979000D03*
%TO.P,C7,2*%
%TO.N,GND*%
X125630000Y-52979000D03*
%TD*%
%TO.P,C6,1*%
%TO.N,Net-(C5-Pad1)*%
X124670000Y-51836000D03*
%TO.P,C6,2*%
%TO.N,GND*%
X125630000Y-51836000D03*
%TD*%
%TO.P,C5,1*%
%TO.N,Net-(C5-Pad1)*%
X124670000Y-54122000D03*
%TO.P,C5,2*%
%TO.N,GND*%
X125630000Y-54122000D03*
%TD*%
D12*
%TO.P,C4,1*%
%TO.N,GND*%
X124900000Y-58880000D03*
%TO.P,C4,2*%
%TO.N,Net-(C2-Pad1)*%
X124900000Y-57920000D03*
%TD*%
%TO.P,C3,1*%
%TO.N,GND*%
X114400000Y-58880000D03*
%TO.P,C3,2*%
%TO.N,Net-(C1-Pad2)*%
X114400000Y-57920000D03*
%TD*%
D11*
%TO.P,C2,1*%
%TO.N,Net-(C2-Pad1)*%
X126670000Y-57150000D03*
%TO.P,C2,2*%
%TO.N,Net-(C10-Pad2)*%
X127630000Y-57150000D03*
%TD*%
%TO.P,C1,2*%
%TO.N,Net-(C1-Pad2)*%
X113130000Y-57150000D03*
%TO.P,C1,1*%
%TO.N,Net-(J1-In)*%
X112170000Y-57150000D03*
%TD*%
D19*
%TO.N,GND*%
X133150000Y-52150000D03*
X128150000Y-52150000D03*
X130650000Y-49650000D03*
X128150000Y-47150000D03*
X125650000Y-49650000D03*
X120650000Y-49650000D03*
X115650000Y-49650000D03*
X113150000Y-47150000D03*
X110650000Y-49650000D03*
X113150000Y-52150000D03*
X108150000Y-52150000D03*
X133150000Y-62150000D03*
X128150000Y-62150000D03*
X130650000Y-64650000D03*
X128150000Y-67150000D03*
X125650000Y-64650000D03*
X123150000Y-62150000D03*
X123150000Y-67150000D03*
X120650000Y-64650000D03*
X118150000Y-62150000D03*
X118150000Y-67150000D03*
X113150000Y-67150000D03*
X115650000Y-64650000D03*
X113150000Y-62150000D03*
X110650000Y-64650000D03*
X108150000Y-62150000D03*
X126150000Y-54150000D03*
X126650000Y-54650000D03*
X127150000Y-54150000D03*
X122900000Y-51900000D03*
X122150000Y-51900000D03*
X121400000Y-51900000D03*
X120650000Y-51900000D03*
X119900000Y-51900000D03*
X119150000Y-51900000D03*
X118400000Y-51900000D03*
X122900000Y-52650000D03*
X122900000Y-53400000D03*
X122900000Y-54150000D03*
X122900000Y-54900000D03*
X118400000Y-54900000D03*
X118400000Y-54150000D03*
X118400000Y-53400000D03*
X118400000Y-52650000D03*
X122150000Y-52650000D03*
X121400000Y-52650000D03*
X120650000Y-52650000D03*
X119900000Y-52650000D03*
X119150000Y-52650000D03*
X122150000Y-53400000D03*
X122150000Y-54150000D03*
X122150000Y-54900000D03*
X119150000Y-54900000D03*
X119150000Y-54150000D03*
X119150000Y-53400000D03*
X119900000Y-53400000D03*
X120650000Y-53400000D03*
X121400000Y-53400000D03*
X121400000Y-54150000D03*
X120650000Y-54150000D03*
X119900000Y-54150000D03*
X119900000Y-54900000D03*
X120650000Y-54900000D03*
X121400000Y-54900000D03*
X121400000Y-55650000D03*
X119900000Y-55650000D03*
X120650000Y-55650000D03*
X120650000Y-56400000D03*
X120650000Y-57150000D03*
X135650000Y-54650000D03*
X134650000Y-54650000D03*
X133650000Y-54650000D03*
X132650000Y-54650000D03*
X135650000Y-59650000D03*
X134650000Y-59650000D03*
X133650000Y-59650000D03*
X132650000Y-59650000D03*
X108650000Y-54650000D03*
X107650000Y-54650000D03*
X106650000Y-54650000D03*
X105650000Y-54650000D03*
X105650000Y-59650000D03*
X106650000Y-59650000D03*
X107650000Y-59650000D03*
X108650000Y-59650000D03*
X128150000Y-54150000D03*
X129150000Y-54150000D03*
X130150000Y-54150000D03*
X131150000Y-54150000D03*
X117150000Y-54150000D03*
X116150000Y-54150000D03*
X115150000Y-54150000D03*
X114150000Y-54150000D03*
X113150000Y-54150000D03*
X112150000Y-54150000D03*
X111150000Y-54150000D03*
X110150000Y-54150000D03*
X131150000Y-60150000D03*
X130150000Y-60150000D03*
X129150000Y-60150000D03*
X128150000Y-60150000D03*
X127150000Y-60150000D03*
X126150000Y-60150000D03*
X125150000Y-60150000D03*
X124150000Y-60150000D03*
X123150000Y-60150000D03*
X122150000Y-60150000D03*
X121150000Y-60150000D03*
X120150000Y-60150000D03*
X119150000Y-60150000D03*
X118150000Y-60150000D03*
X117150000Y-60150000D03*
X116150000Y-60150000D03*
X115150000Y-60150000D03*
X114150000Y-60150000D03*
X113150000Y-60150000D03*
X112150000Y-60150000D03*
X111150000Y-60150000D03*
X110150000Y-60150000D03*
X127650000Y-54650000D03*
X128650000Y-54650000D03*
X129650000Y-54650000D03*
X130650000Y-54650000D03*
X131650000Y-54650000D03*
X117650000Y-54650000D03*
X116650000Y-54650000D03*
X115650000Y-54650000D03*
X114650000Y-54650000D03*
X113650000Y-54650000D03*
X112650000Y-54650000D03*
X111650000Y-54650000D03*
X110650000Y-54650000D03*
X109650000Y-54650000D03*
X131650000Y-59650000D03*
X130650000Y-59650000D03*
X129650000Y-59650000D03*
X128650000Y-59650000D03*
X127650000Y-59650000D03*
X126650000Y-59650000D03*
X125650000Y-59650000D03*
X124650000Y-59650000D03*
X123650000Y-59650000D03*
X122650000Y-59650000D03*
X121650000Y-59650000D03*
X120650000Y-59650000D03*
X119650000Y-59650000D03*
X118650000Y-59650000D03*
X117650000Y-59650000D03*
X116650000Y-59650000D03*
X115650000Y-59650000D03*
X114650000Y-59650000D03*
X113650000Y-59650000D03*
X112650000Y-59650000D03*
X111650000Y-59650000D03*
X110650000Y-59650000D03*
X109650000Y-59650000D03*
%TD*%
D20*
%TO.N,Net-(C5-Pad1)*%
X124670000Y-51190000D02*
X123140000Y-49660000D01*
X124670000Y-51836000D02*
X124670000Y-51190000D01*
X124100000Y-54692000D02*
X124670000Y-54122000D01*
X124100000Y-55415000D02*
X124100000Y-54692000D01*
X124670000Y-51836000D02*
X124670000Y-52979000D01*
X124670000Y-54122000D02*
X124670000Y-52979000D01*
%TD*%
%TA.AperFunction,Conductor*%
%TO.N,Net-(J1-In)*%
G36*
X112343039Y-56419685D02*
G01*
X112388794Y-56472489D01*
X112400000Y-56524000D01*
X112400000Y-57776000D01*
X112380315Y-57843039D01*
X112327511Y-57888794D01*
X112276000Y-57900000D01*
X108679272Y-57900000D01*
X108623818Y-57886909D01*
X108218546Y-57684273D01*
X108167387Y-57636686D01*
X108150000Y-57573364D01*
X108150000Y-56726636D01*
X108169685Y-56659597D01*
X108218546Y-56615727D01*
X108623818Y-56413091D01*
X108679272Y-56400000D01*
X112276000Y-56400000D01*
X112343039Y-56419685D01*
G37*
%TD.AperFunction*%
%TD*%
%TA.AperFunction,Conductor*%
%TO.N,Net-(C8-Pad2)*%
G36*
X118843039Y-56419685D02*
G01*
X118888794Y-56472489D01*
X118900000Y-56524000D01*
X118900000Y-57598638D01*
X118880315Y-57665677D01*
X118863681Y-57686319D01*
X118686319Y-57863681D01*
X118624996Y-57897166D01*
X118598638Y-57900000D01*
X116524000Y-57900000D01*
X116456961Y-57880315D01*
X116411206Y-57827511D01*
X116400000Y-57776000D01*
X116400000Y-56524000D01*
X116419685Y-56456961D01*
X116472489Y-56411206D01*
X116524000Y-56400000D01*
X118776000Y-56400000D01*
X118843039Y-56419685D01*
G37*
%TD.AperFunction*%
%TD*%
%TA.AperFunction,Conductor*%
%TO.N,GND*%
G36*
X131915677Y-58919685D02*
G01*
X131936319Y-58936319D01*
X132400000Y-59400000D01*
X135900500Y-59400000D01*
X135967539Y-59419685D01*
X136013294Y-59472489D01*
X136024500Y-59524000D01*
X136024500Y-66671519D01*
X136024305Y-66678472D01*
X136008073Y-66967497D01*
X136006516Y-66981315D01*
X135958611Y-67263264D01*
X135955517Y-67276821D01*
X135876342Y-67551642D01*
X135871749Y-67564767D01*
X135762306Y-67828987D01*
X135756273Y-67841515D01*
X135617929Y-68091830D01*
X135610530Y-68103604D01*
X135445042Y-68336837D01*
X135436373Y-68347709D01*
X135245797Y-68560964D01*
X135235964Y-68570797D01*
X135022709Y-68761373D01*
X135011837Y-68770042D01*
X134778604Y-68935530D01*
X134766830Y-68942929D01*
X134516515Y-69081273D01*
X134503987Y-69087306D01*
X134239767Y-69196749D01*
X134226642Y-69201342D01*
X133951821Y-69280517D01*
X133938264Y-69283611D01*
X133656315Y-69331516D01*
X133642497Y-69333073D01*
X133353472Y-69349305D01*
X133346519Y-69349500D01*
X107953481Y-69349500D01*
X107946528Y-69349305D01*
X107657502Y-69333073D01*
X107643684Y-69331516D01*
X107361735Y-69283611D01*
X107348178Y-69280517D01*
X107073357Y-69201342D01*
X107060232Y-69196749D01*
X106796012Y-69087306D01*
X106783484Y-69081273D01*
X106533169Y-68942929D01*
X106521395Y-68935530D01*
X106288162Y-68770042D01*
X106277290Y-68761373D01*
X106064035Y-68570797D01*
X106054202Y-68560964D01*
X105863626Y-68347709D01*
X105854961Y-68336843D01*
X105689468Y-68103603D01*
X105682070Y-68091830D01*
X105543726Y-67841515D01*
X105537696Y-67828994D01*
X105428250Y-67564767D01*
X105423657Y-67551642D01*
X105344482Y-67276821D01*
X105341388Y-67263264D01*
X105293481Y-66981305D01*
X105291927Y-66967507D01*
X105275695Y-66678472D01*
X105275500Y-66671519D01*
X105275500Y-59524000D01*
X105295185Y-59456961D01*
X105347989Y-59411206D01*
X105399500Y-59400000D01*
X108900000Y-59400000D01*
X109363681Y-58936319D01*
X109425004Y-58902834D01*
X109451362Y-58900000D01*
X131848638Y-58900000D01*
X131915677Y-58919685D01*
G37*
%TD.AperFunction*%
%TD*%
%TA.AperFunction,Conductor*%
%TO.N,Net-(J2-In)*%
G36*
X132676182Y-56413091D02*
G01*
X133081454Y-56615727D01*
X133132613Y-56663314D01*
X133150000Y-56726636D01*
X133150000Y-57573364D01*
X133130315Y-57640403D01*
X133081454Y-57684273D01*
X132676182Y-57886909D01*
X132620728Y-57900000D01*
X131024000Y-57900000D01*
X130956961Y-57880315D01*
X130911206Y-57827511D01*
X130900000Y-57776000D01*
X130900000Y-56524000D01*
X130919685Y-56456961D01*
X130972489Y-56411206D01*
X131024000Y-56400000D01*
X132620728Y-56400000D01*
X132676182Y-56413091D01*
G37*
%TD.AperFunction*%
%TD*%
%TA.AperFunction,Conductor*%
%TO.N,Net-(C2-Pad1)*%
G36*
X126843039Y-56419685D02*
G01*
X126888794Y-56472489D01*
X126900000Y-56524000D01*
X126900000Y-57776000D01*
X126880315Y-57843039D01*
X126827511Y-57888794D01*
X126776000Y-57900000D01*
X122701362Y-57900000D01*
X122634323Y-57880315D01*
X122613681Y-57863681D01*
X122436319Y-57686319D01*
X122402834Y-57624996D01*
X122400000Y-57598638D01*
X122400000Y-56524000D01*
X122419685Y-56456961D01*
X122472489Y-56411206D01*
X122524000Y-56400000D01*
X126776000Y-56400000D01*
X126843039Y-56419685D01*
G37*
%TD.AperFunction*%
%TD*%
%TA.AperFunction,Conductor*%
%TO.N,GND*%
G36*
X123822000Y-53806928D02*
G01*
X123802315Y-53873967D01*
X123797481Y-53880952D01*
X123444000Y-54355999D01*
X123444000Y-54356000D01*
X123405006Y-55281221D01*
X123382516Y-55347373D01*
X123327832Y-55390863D01*
X123281116Y-55400000D01*
X122650000Y-55400000D01*
X121429452Y-56132329D01*
X121365655Y-56150000D01*
X119934345Y-56150000D01*
X119870548Y-56132329D01*
X118650000Y-55400000D01*
X109451362Y-55400000D01*
X109384323Y-55380315D01*
X109363681Y-55363681D01*
X108900000Y-54900000D01*
X105399500Y-54900000D01*
X105332461Y-54880315D01*
X105286706Y-54827511D01*
X105275500Y-54776000D01*
X105275500Y-51400000D01*
X123822000Y-51400000D01*
X123822000Y-53806928D01*
G37*
%TD.AperFunction*%
%TD*%
%TA.AperFunction,Conductor*%
%TO.N,GND*%
G36*
X136024500Y-54776000D02*
G01*
X136004815Y-54843039D01*
X135952011Y-54888794D01*
X135900500Y-54900000D01*
X132399999Y-54900000D01*
X131936319Y-55363681D01*
X131874996Y-55397166D01*
X131848638Y-55400000D01*
X125524000Y-55400000D01*
X125456961Y-55380315D01*
X125411206Y-55327511D01*
X125400000Y-55276000D01*
X125400000Y-52650000D01*
X136024500Y-52650000D01*
X136024500Y-54776000D01*
G37*
%TD.AperFunction*%
%TD*%
%TA.AperFunction,Conductor*%
%TO.N,GND*%
G36*
X133353472Y-44950695D02*
G01*
X133642507Y-44966927D01*
X133656305Y-44968481D01*
X133938265Y-45016388D01*
X133951821Y-45019482D01*
X134226642Y-45098657D01*
X134239768Y-45103250D01*
X134503994Y-45212696D01*
X134516508Y-45218722D01*
X134766830Y-45357070D01*
X134778603Y-45364468D01*
X135011843Y-45529961D01*
X135022704Y-45538622D01*
X135235964Y-45729202D01*
X135245797Y-45739035D01*
X135436373Y-45952290D01*
X135445042Y-45963162D01*
X135610530Y-46196395D01*
X135617929Y-46208169D01*
X135756273Y-46458484D01*
X135762306Y-46471012D01*
X135871749Y-46735232D01*
X135876342Y-46748357D01*
X135955517Y-47023178D01*
X135958611Y-47036735D01*
X136006516Y-47318684D01*
X136008073Y-47332502D01*
X136024305Y-47621527D01*
X136024500Y-47628480D01*
X136024500Y-52650000D01*
X125430790Y-52650000D01*
X125425423Y-52631528D01*
X125420500Y-52596934D01*
X125420500Y-52218065D01*
X125425424Y-52183469D01*
X125447643Y-52106993D01*
X125450500Y-52070690D01*
X125450500Y-51601310D01*
X125447643Y-51565007D01*
X125425423Y-51488528D01*
X125420500Y-51453934D01*
X125420500Y-51116079D01*
X125402482Y-51025501D01*
X125402482Y-51025500D01*
X125391659Y-50971088D01*
X125337408Y-50840117D01*
X125335765Y-50835525D01*
X125335084Y-50834505D01*
X125302186Y-50785270D01*
X125302185Y-50785268D01*
X125252956Y-50711589D01*
X125252952Y-50711584D01*
X124153549Y-49612181D01*
X124120064Y-49550858D01*
X124125048Y-49481166D01*
X124166920Y-49425233D01*
X124232384Y-49400816D01*
X124241230Y-49400500D01*
X124970990Y-49400500D01*
X124971000Y-49400500D01*
X125078456Y-49388947D01*
X125129967Y-49377741D01*
X125164197Y-49366347D01*
X125232497Y-49343616D01*
X125232501Y-49343613D01*
X125232504Y-49343613D01*
X125353543Y-49265825D01*
X125406347Y-49220070D01*
X125500567Y-49111336D01*
X125560338Y-48980459D01*
X125580023Y-48913420D01*
X125580024Y-48913416D01*
X125600500Y-48771000D01*
X125600500Y-45209000D01*
X125588947Y-45101544D01*
X125588798Y-45100859D01*
X125588809Y-45100697D01*
X125588414Y-45098255D01*
X125588990Y-45098161D01*
X125593781Y-45031169D01*
X125635652Y-44975234D01*
X125701116Y-44950816D01*
X125709964Y-44950500D01*
X133284108Y-44950500D01*
X133346519Y-44950500D01*
X133353472Y-44950695D01*
G37*
%TD.AperFunction*%
%TA.AperFunction,Conductor*%
G36*
X120740602Y-44970185D02*
G01*
X120786357Y-45022989D01*
X120796300Y-45092145D01*
X120779500Y-45209000D01*
X120779500Y-48771000D01*
X120779501Y-48771009D01*
X120791052Y-48878450D01*
X120791054Y-48878462D01*
X120802260Y-48929972D01*
X120836383Y-49032497D01*
X120836386Y-49032503D01*
X120914171Y-49153537D01*
X120914179Y-49153548D01*
X120959923Y-49206340D01*
X120959926Y-49206343D01*
X120959930Y-49206347D01*
X121068664Y-49300567D01*
X121068667Y-49300568D01*
X121068668Y-49300569D01*
X121162925Y-49343616D01*
X121199541Y-49360338D01*
X121266580Y-49380023D01*
X121266584Y-49380024D01*
X121409000Y-49400500D01*
X122195500Y-49400500D01*
X122262539Y-49420185D01*
X122308294Y-49472989D01*
X122319500Y-49524500D01*
X122319500Y-49859169D01*
X122319501Y-49859191D01*
X122322335Y-49895205D01*
X122367129Y-50049388D01*
X122367131Y-50049393D01*
X122448863Y-50187595D01*
X122448869Y-50187603D01*
X122562396Y-50301130D01*
X122562400Y-50301133D01*
X122562402Y-50301135D01*
X122700607Y-50382869D01*
X122812243Y-50415302D01*
X122865329Y-50446697D01*
X123785681Y-51367049D01*
X123803674Y-51400000D01*
X105275500Y-51400000D01*
X105275500Y-47628480D01*
X105275695Y-47621527D01*
X105279200Y-47559108D01*
X105291927Y-47332490D01*
X105293481Y-47318696D01*
X105341389Y-47036730D01*
X105344482Y-47023178D01*
X105423657Y-46748357D01*
X105428250Y-46735232D01*
X105537699Y-46470997D01*
X105543719Y-46458498D01*
X105682076Y-46208159D01*
X105689463Y-46196404D01*
X105854968Y-45963147D01*
X105863614Y-45952304D01*
X106054212Y-45739024D01*
X106064024Y-45729212D01*
X106277304Y-45538614D01*
X106288147Y-45529968D01*
X106521404Y-45364463D01*
X106533159Y-45357076D01*
X106783498Y-45218719D01*
X106795997Y-45212699D01*
X107060236Y-45103248D01*
X107073353Y-45098658D01*
X107348184Y-45019480D01*
X107361730Y-45016389D01*
X107643696Y-44968481D01*
X107657490Y-44966927D01*
X107946528Y-44950695D01*
X107953481Y-44950500D01*
X108015892Y-44950500D01*
X120673563Y-44950500D01*
X120740602Y-44970185D01*
G37*
%TD.AperFunction*%
%TD*%
%TA.AperFunction,Conductor*%
%TO.N,VCC*%
G36*
X125038039Y-45104685D02*
G01*
X125083794Y-45157489D01*
X125095000Y-45209000D01*
X125095000Y-48771000D01*
X125075315Y-48838039D01*
X125022511Y-48883794D01*
X124971000Y-48895000D01*
X123451027Y-48895000D01*
X123428746Y-48892982D01*
X123425202Y-48892334D01*
X123389181Y-48889500D01*
X122890830Y-48889500D01*
X122890808Y-48889501D01*
X122854794Y-48892335D01*
X122851253Y-48892982D01*
X122828975Y-48895000D01*
X121409000Y-48895000D01*
X121341961Y-48875315D01*
X121296206Y-48822511D01*
X121285000Y-48771000D01*
X121285000Y-45209000D01*
X121304685Y-45141961D01*
X121357489Y-45096206D01*
X121409000Y-45085000D01*
X124971000Y-45085000D01*
X125038039Y-45104685D01*
G37*
%TD.AperFunction*%
%TD*%
%TA.AperFunction,Conductor*%
%TO.N,Net-(C1-Pad2)*%
G36*
X115843039Y-56419685D02*
G01*
X115888794Y-56472489D01*
X115900000Y-56524000D01*
X115900000Y-57776000D01*
X115880315Y-57843039D01*
X115827511Y-57888794D01*
X115776000Y-57900000D01*
X113024000Y-57900000D01*
X112956961Y-57880315D01*
X112911206Y-57827511D01*
X112900000Y-57776000D01*
X112900000Y-56524000D01*
X112919685Y-56456961D01*
X112972489Y-56411206D01*
X113024000Y-56400000D01*
X115776000Y-56400000D01*
X115843039Y-56419685D01*
G37*
%TD.AperFunction*%
%TD*%
%TA.AperFunction,Conductor*%
%TO.N,Net-(C10-Pad2)*%
G36*
X130343039Y-56419685D02*
G01*
X130388794Y-56472489D01*
X130400000Y-56524000D01*
X130400000Y-57776000D01*
X130380315Y-57843039D01*
X130327511Y-57888794D01*
X130276000Y-57900000D01*
X127524000Y-57900000D01*
X127456961Y-57880315D01*
X127411206Y-57827511D01*
X127400000Y-57776000D01*
X127400000Y-56524000D01*
X127419685Y-56456961D01*
X127472489Y-56411206D01*
X127524000Y-56400000D01*
X130276000Y-56400000D01*
X130343039Y-56419685D01*
G37*
%TD.AperFunction*%
%TD*%
M02*
