%TF.GenerationSoftware,KiCad,Pcbnew,8.0.0*%
%TF.CreationDate,2024-05-05T15:44:05-04:00*%
%TF.ProjectId,S-Band Driver Amplifier,532d4261-6e64-4204-9472-697665722041,v1.0*%
%TF.SameCoordinates,Original*%
%TF.FileFunction,Copper,L2,Bot*%
%TF.FilePolarity,Positive*%
%FSLAX46Y46*%
G04 Gerber Fmt 4.6, Leading zero omitted, Abs format (unit mm)*
G04 Created by KiCad (PCBNEW 8.0.0) date 2024-05-05 15:44:05*
%MOMM*%
%LPD*%
G01*
G04 APERTURE LIST*
%TA.AperFunction,ComponentPad*%
%ADD10C,5.562600*%
%TD*%
%TA.AperFunction,SMDPad,CuDef*%
%ADD11R,4.200000X1.350000*%
%TD*%
%TA.AperFunction,ViaPad*%
%ADD12C,0.600000*%
%TD*%
G04 APERTURE END LIST*
D10*
%TO.P,H4,1,1*%
%TO.N,GND*%
X133350000Y-47625000D03*
%TD*%
%TO.P,H3,1,1*%
%TO.N,GND*%
X107950000Y-47625000D03*
%TD*%
%TO.P,H2,1,1*%
%TO.N,GND*%
X133350000Y-66675000D03*
%TD*%
%TO.P,H1,1,1*%
%TO.N,GND*%
X107950000Y-66675000D03*
%TD*%
D11*
%TO.P,J2,2,Ext*%
%TO.N,GND*%
X134402500Y-59975000D03*
X134402500Y-54325000D03*
%TD*%
%TO.P,J1,2,Ext*%
%TO.N,GND*%
X106897500Y-54325000D03*
X106897500Y-59975000D03*
%TD*%
D12*
%TO.N,GND*%
X133150000Y-52150000D03*
X128150000Y-52150000D03*
X130650000Y-49650000D03*
X128150000Y-47150000D03*
X125650000Y-49650000D03*
X120650000Y-49650000D03*
X115650000Y-49650000D03*
X113150000Y-47150000D03*
X110650000Y-49650000D03*
X113150000Y-52150000D03*
X108150000Y-52150000D03*
X133150000Y-62150000D03*
X128150000Y-62150000D03*
X130650000Y-64650000D03*
X128150000Y-67150000D03*
X125650000Y-64650000D03*
X123150000Y-62150000D03*
X123150000Y-67150000D03*
X120650000Y-64650000D03*
X118150000Y-62150000D03*
X118150000Y-67150000D03*
X113150000Y-67150000D03*
X115650000Y-64650000D03*
X113150000Y-62150000D03*
X110650000Y-64650000D03*
X108150000Y-62150000D03*
X126150000Y-54150000D03*
X126650000Y-54650000D03*
X127150000Y-54150000D03*
X122900000Y-51900000D03*
X122150000Y-51900000D03*
X121400000Y-51900000D03*
X120650000Y-51900000D03*
X119900000Y-51900000D03*
X119150000Y-51900000D03*
X118400000Y-51900000D03*
X122900000Y-52650000D03*
X122900000Y-53400000D03*
X122900000Y-54150000D03*
X122900000Y-54900000D03*
X118400000Y-54900000D03*
X118400000Y-54150000D03*
X118400000Y-53400000D03*
X118400000Y-52650000D03*
X122150000Y-52650000D03*
X121400000Y-52650000D03*
X120650000Y-52650000D03*
X119900000Y-52650000D03*
X119150000Y-52650000D03*
X122150000Y-53400000D03*
X122150000Y-54150000D03*
X122150000Y-54900000D03*
X119150000Y-54900000D03*
X119150000Y-54150000D03*
X119150000Y-53400000D03*
X119900000Y-53400000D03*
X120650000Y-53400000D03*
X121400000Y-53400000D03*
X121400000Y-54150000D03*
X120650000Y-54150000D03*
X119900000Y-54150000D03*
X119900000Y-54900000D03*
X120650000Y-54900000D03*
X121400000Y-54900000D03*
X121400000Y-55650000D03*
X119900000Y-55650000D03*
X120650000Y-55650000D03*
X120650000Y-56400000D03*
X120650000Y-57150000D03*
X135650000Y-54650000D03*
X134650000Y-54650000D03*
X133650000Y-54650000D03*
X132650000Y-54650000D03*
X135650000Y-59650000D03*
X134650000Y-59650000D03*
X133650000Y-59650000D03*
X132650000Y-59650000D03*
X108650000Y-54650000D03*
X107650000Y-54650000D03*
X106650000Y-54650000D03*
X105650000Y-54650000D03*
X105650000Y-59650000D03*
X106650000Y-59650000D03*
X107650000Y-59650000D03*
X108650000Y-59650000D03*
X128150000Y-54150000D03*
X129150000Y-54150000D03*
X130150000Y-54150000D03*
X131150000Y-54150000D03*
X117150000Y-54150000D03*
X116150000Y-54150000D03*
X115150000Y-54150000D03*
X114150000Y-54150000D03*
X113150000Y-54150000D03*
X112150000Y-54150000D03*
X111150000Y-54150000D03*
X110150000Y-54150000D03*
X131150000Y-60150000D03*
X130150000Y-60150000D03*
X129150000Y-60150000D03*
X128150000Y-60150000D03*
X127150000Y-60150000D03*
X126150000Y-60150000D03*
X125150000Y-60150000D03*
X124150000Y-60150000D03*
X123150000Y-60150000D03*
X122150000Y-60150000D03*
X121150000Y-60150000D03*
X120150000Y-60150000D03*
X119150000Y-60150000D03*
X118150000Y-60150000D03*
X117150000Y-60150000D03*
X116150000Y-60150000D03*
X115150000Y-60150000D03*
X114150000Y-60150000D03*
X113150000Y-60150000D03*
X112150000Y-60150000D03*
X111150000Y-60150000D03*
X110150000Y-60150000D03*
X127650000Y-54650000D03*
X128650000Y-54650000D03*
X129650000Y-54650000D03*
X130650000Y-54650000D03*
X131650000Y-54650000D03*
X117650000Y-54650000D03*
X116650000Y-54650000D03*
X115650000Y-54650000D03*
X114650000Y-54650000D03*
X113650000Y-54650000D03*
X112650000Y-54650000D03*
X111650000Y-54650000D03*
X110650000Y-54650000D03*
X109650000Y-54650000D03*
X131650000Y-59650000D03*
X130650000Y-59650000D03*
X129650000Y-59650000D03*
X128650000Y-59650000D03*
X127650000Y-59650000D03*
X126650000Y-59650000D03*
X125650000Y-59650000D03*
X124650000Y-59650000D03*
X123650000Y-59650000D03*
X122650000Y-59650000D03*
X121650000Y-59650000D03*
X120650000Y-59650000D03*
X119650000Y-59650000D03*
X118650000Y-59650000D03*
X117650000Y-59650000D03*
X116650000Y-59650000D03*
X115650000Y-59650000D03*
X114650000Y-59650000D03*
X113650000Y-59650000D03*
X112650000Y-59650000D03*
X111650000Y-59650000D03*
X110650000Y-59650000D03*
X109650000Y-59650000D03*
%TD*%
%TA.AperFunction,Conductor*%
%TO.N,GND*%
G36*
X133353472Y-44950695D02*
G01*
X133642507Y-44966927D01*
X133656305Y-44968481D01*
X133938265Y-45016388D01*
X133951821Y-45019482D01*
X134226642Y-45098657D01*
X134239768Y-45103250D01*
X134503994Y-45212696D01*
X134516508Y-45218722D01*
X134766830Y-45357070D01*
X134778603Y-45364468D01*
X135011843Y-45529961D01*
X135022704Y-45538622D01*
X135235964Y-45729202D01*
X135245797Y-45739035D01*
X135436373Y-45952290D01*
X135445042Y-45963162D01*
X135610530Y-46196395D01*
X135617929Y-46208169D01*
X135756273Y-46458484D01*
X135762306Y-46471012D01*
X135871749Y-46735232D01*
X135876342Y-46748357D01*
X135955517Y-47023178D01*
X135958611Y-47036735D01*
X136006516Y-47318684D01*
X136008073Y-47332502D01*
X136024305Y-47621527D01*
X136024500Y-47628480D01*
X136024500Y-66671519D01*
X136024305Y-66678472D01*
X136008073Y-66967497D01*
X136006516Y-66981315D01*
X135958611Y-67263264D01*
X135955517Y-67276821D01*
X135876342Y-67551642D01*
X135871749Y-67564767D01*
X135762306Y-67828987D01*
X135756273Y-67841515D01*
X135617929Y-68091830D01*
X135610530Y-68103604D01*
X135445042Y-68336837D01*
X135436373Y-68347709D01*
X135245797Y-68560964D01*
X135235964Y-68570797D01*
X135022709Y-68761373D01*
X135011837Y-68770042D01*
X134778604Y-68935530D01*
X134766830Y-68942929D01*
X134516515Y-69081273D01*
X134503987Y-69087306D01*
X134239767Y-69196749D01*
X134226642Y-69201342D01*
X133951821Y-69280517D01*
X133938264Y-69283611D01*
X133656315Y-69331516D01*
X133642497Y-69333073D01*
X133353472Y-69349305D01*
X133346519Y-69349500D01*
X107953481Y-69349500D01*
X107946528Y-69349305D01*
X107657502Y-69333073D01*
X107643684Y-69331516D01*
X107361735Y-69283611D01*
X107348178Y-69280517D01*
X107073357Y-69201342D01*
X107060232Y-69196749D01*
X106796012Y-69087306D01*
X106783484Y-69081273D01*
X106533169Y-68942929D01*
X106521395Y-68935530D01*
X106288162Y-68770042D01*
X106277290Y-68761373D01*
X106064035Y-68570797D01*
X106054202Y-68560964D01*
X105863626Y-68347709D01*
X105854961Y-68336843D01*
X105689468Y-68103603D01*
X105682070Y-68091830D01*
X105543726Y-67841515D01*
X105537696Y-67828994D01*
X105428250Y-67564767D01*
X105423657Y-67551642D01*
X105344482Y-67276821D01*
X105341388Y-67263264D01*
X105293481Y-66981305D01*
X105291927Y-66967507D01*
X105275695Y-66678472D01*
X105275500Y-66671519D01*
X105275500Y-47628480D01*
X105275695Y-47621527D01*
X105279200Y-47559108D01*
X105291927Y-47332490D01*
X105293481Y-47318696D01*
X105341389Y-47036730D01*
X105344482Y-47023178D01*
X105423657Y-46748357D01*
X105428250Y-46735232D01*
X105537699Y-46470997D01*
X105543719Y-46458498D01*
X105682076Y-46208159D01*
X105689463Y-46196404D01*
X105854968Y-45963147D01*
X105863614Y-45952304D01*
X106054212Y-45739024D01*
X106064024Y-45729212D01*
X106277304Y-45538614D01*
X106288147Y-45529968D01*
X106521404Y-45364463D01*
X106533159Y-45357076D01*
X106783498Y-45218719D01*
X106795997Y-45212699D01*
X107060236Y-45103248D01*
X107073353Y-45098658D01*
X107348184Y-45019480D01*
X107361730Y-45016389D01*
X107643696Y-44968481D01*
X107657490Y-44966927D01*
X107946528Y-44950695D01*
X107953481Y-44950500D01*
X108015892Y-44950500D01*
X133284108Y-44950500D01*
X133346519Y-44950500D01*
X133353472Y-44950695D01*
G37*
%TD.AperFunction*%
%TD*%
M02*
