M48
; DRILL file {KiCad 8.0.0} date 2024-05-05T15:44:15-0400
; FORMAT={-:-/ absolute / inch / decimal}
; #@! TF.CreationDate,2024-05-05T15:44:15-04:00
; #@! TF.GenerationSoftware,Kicad,Pcbnew,8.0.0
; #@! TF.FileFunction,Plated,1,2,PTH
FMAT,2
INCH
; #@! TA.AperFunction,Plated,PTH,ViaDrill
T1C0.0118
; #@! TA.AperFunction,Plated,PTH,ComponentDrill
T2C0.1285
%
G90
G05
T1
X4.1594Y-2.1516
X4.1594Y-2.3484
X4.1988Y-2.1516
X4.1988Y-2.3484
X4.2382Y-2.1516
X4.2382Y-2.3484
X4.2579Y-2.0531
X4.2579Y-2.4469
X4.2776Y-2.1516
X4.2776Y-2.3484
X4.3169Y-2.1516
X4.3169Y-2.3484
X4.3366Y-2.1319
X4.3366Y-2.3681
X4.3563Y-1.9547
X4.3563Y-2.1516
X4.3563Y-2.3484
X4.3563Y-2.5453
X4.376Y-2.1319
X4.376Y-2.3681
X4.3957Y-2.1516
X4.3957Y-2.3484
X4.4154Y-2.1319
X4.4154Y-2.3681
X4.435Y-2.1516
X4.435Y-2.3484
X4.4547Y-1.8563
X4.4547Y-2.0531
X4.4547Y-2.1319
X4.4547Y-2.3681
X4.4547Y-2.4469
X4.4547Y-2.6437
X4.4744Y-2.1516
X4.4744Y-2.3484
X4.4941Y-2.1319
X4.4941Y-2.3681
X4.5138Y-2.1516
X4.5138Y-2.3484
X4.5335Y-2.1319
X4.5335Y-2.3681
X4.5531Y-1.9547
X4.5531Y-2.1516
X4.5531Y-2.3484
X4.5531Y-2.5453
X4.5728Y-2.1319
X4.5728Y-2.3681
X4.5925Y-2.1516
X4.5925Y-2.3484
X4.6122Y-2.1319
X4.6122Y-2.3681
X4.6319Y-2.1516
X4.6319Y-2.3484
X4.6516Y-2.3681
X4.6516Y-2.4469
X4.6516Y-2.6437
X4.6614Y-2.0433
X4.6614Y-2.0728
X4.6614Y-2.1024
X4.6614Y-2.1319
X4.6614Y-2.1614
X4.6713Y-2.3484
X4.6909Y-2.0433
X4.6909Y-2.0728
X4.6909Y-2.1024
X4.6909Y-2.1319
X4.6909Y-2.1614
X4.6909Y-2.3681
X4.7106Y-2.3484
X4.7205Y-2.0433
X4.7205Y-2.0728
X4.7205Y-2.1024
X4.7205Y-2.1319
X4.7205Y-2.1614
X4.7205Y-2.1909
X4.7303Y-2.3681
X4.75Y-1.9547
X4.75Y-2.0433
X4.75Y-2.0728
X4.75Y-2.1024
X4.75Y-2.1319
X4.75Y-2.1614
X4.75Y-2.1909
X4.75Y-2.2205
X4.75Y-2.25
X4.75Y-2.3484
X4.75Y-2.5453
X4.7697Y-2.3681
X4.7795Y-2.0433
X4.7795Y-2.0728
X4.7795Y-2.1024
X4.7795Y-2.1319
X4.7795Y-2.1614
X4.7795Y-2.1909
X4.7894Y-2.3484
X4.8091Y-2.0433
X4.8091Y-2.0728
X4.8091Y-2.1024
X4.8091Y-2.1319
X4.8091Y-2.1614
X4.8091Y-2.3681
X4.8287Y-2.3484
X4.8386Y-2.0433
X4.8386Y-2.0728
X4.8386Y-2.1024
X4.8386Y-2.1319
X4.8386Y-2.1614
X4.8484Y-2.3681
X4.8484Y-2.4469
X4.8484Y-2.6437
X4.8681Y-2.3484
X4.8878Y-2.3681
X4.9075Y-2.3484
X4.9272Y-2.3681
X4.9469Y-1.9547
X4.9469Y-2.3484
X4.9469Y-2.5453
X4.9665Y-2.1319
X4.9665Y-2.3681
X4.9862Y-2.1516
X4.9862Y-2.3484
X5.0059Y-2.1319
X5.0059Y-2.3681
X5.0256Y-2.1516
X5.0256Y-2.3484
X5.0453Y-1.8563
X5.0453Y-2.0531
X5.0453Y-2.1319
X5.0453Y-2.3681
X5.0453Y-2.4469
X5.0453Y-2.6437
X5.065Y-2.1516
X5.065Y-2.3484
X5.0846Y-2.1319
X5.0846Y-2.3681
X5.1043Y-2.1516
X5.1043Y-2.3484
X5.124Y-2.1319
X5.124Y-2.3681
X5.1437Y-1.9547
X5.1437Y-2.1516
X5.1437Y-2.3484
X5.1437Y-2.5453
X5.1634Y-2.1319
X5.1634Y-2.3681
X5.1831Y-2.1516
X5.1831Y-2.3484
X5.2224Y-2.1516
X5.2224Y-2.3484
X5.2421Y-2.0531
X5.2421Y-2.4469
X5.2618Y-2.1516
X5.2618Y-2.3484
X5.3012Y-2.1516
X5.3012Y-2.3484
X5.3406Y-2.1516
X5.3406Y-2.3484
T2
X4.25Y-1.875
X4.25Y-2.625
X5.25Y-1.875
X5.25Y-2.625
M30
