%TF.GenerationSoftware,KiCad,Pcbnew,8.0.0*%
%TF.CreationDate,2024-05-05T15:44:05-04:00*%
%TF.ProjectId,S-Band Driver Amplifier,532d4261-6e64-4204-9472-697665722041,v1.0*%
%TF.SameCoordinates,Original*%
%TF.FileFunction,Legend,Top*%
%TF.FilePolarity,Positive*%
%FSLAX46Y46*%
G04 Gerber Fmt 4.6, Leading zero omitted, Abs format (unit mm)*
G04 Created by KiCad (PCBNEW 8.0.0) date 2024-05-05 15:44:05*
%MOMM*%
%LPD*%
G01*
G04 APERTURE LIST*
%ADD10C,0.100000*%
%ADD11C,0.120000*%
G04 APERTURE END LIST*
D10*
X114216668Y-67455839D02*
X114316668Y-67489172D01*
X114316668Y-67489172D02*
X114483335Y-67489172D01*
X114483335Y-67489172D02*
X114550001Y-67455839D01*
X114550001Y-67455839D02*
X114583335Y-67422505D01*
X114583335Y-67422505D02*
X114616668Y-67355839D01*
X114616668Y-67355839D02*
X114616668Y-67289172D01*
X114616668Y-67289172D02*
X114583335Y-67222505D01*
X114583335Y-67222505D02*
X114550001Y-67189172D01*
X114550001Y-67189172D02*
X114483335Y-67155839D01*
X114483335Y-67155839D02*
X114350001Y-67122505D01*
X114350001Y-67122505D02*
X114283335Y-67089172D01*
X114283335Y-67089172D02*
X114250001Y-67055839D01*
X114250001Y-67055839D02*
X114216668Y-66989172D01*
X114216668Y-66989172D02*
X114216668Y-66922505D01*
X114216668Y-66922505D02*
X114250001Y-66855839D01*
X114250001Y-66855839D02*
X114283335Y-66822505D01*
X114283335Y-66822505D02*
X114350001Y-66789172D01*
X114350001Y-66789172D02*
X114516668Y-66789172D01*
X114516668Y-66789172D02*
X114616668Y-66822505D01*
X114916668Y-67222505D02*
X115450002Y-67222505D01*
X116016669Y-67122505D02*
X116116669Y-67155839D01*
X116116669Y-67155839D02*
X116150002Y-67189172D01*
X116150002Y-67189172D02*
X116183335Y-67255839D01*
X116183335Y-67255839D02*
X116183335Y-67355839D01*
X116183335Y-67355839D02*
X116150002Y-67422505D01*
X116150002Y-67422505D02*
X116116669Y-67455839D01*
X116116669Y-67455839D02*
X116050002Y-67489172D01*
X116050002Y-67489172D02*
X115783335Y-67489172D01*
X115783335Y-67489172D02*
X115783335Y-66789172D01*
X115783335Y-66789172D02*
X116016669Y-66789172D01*
X116016669Y-66789172D02*
X116083335Y-66822505D01*
X116083335Y-66822505D02*
X116116669Y-66855839D01*
X116116669Y-66855839D02*
X116150002Y-66922505D01*
X116150002Y-66922505D02*
X116150002Y-66989172D01*
X116150002Y-66989172D02*
X116116669Y-67055839D01*
X116116669Y-67055839D02*
X116083335Y-67089172D01*
X116083335Y-67089172D02*
X116016669Y-67122505D01*
X116016669Y-67122505D02*
X115783335Y-67122505D01*
X116783335Y-67489172D02*
X116783335Y-67122505D01*
X116783335Y-67122505D02*
X116750002Y-67055839D01*
X116750002Y-67055839D02*
X116683335Y-67022505D01*
X116683335Y-67022505D02*
X116550002Y-67022505D01*
X116550002Y-67022505D02*
X116483335Y-67055839D01*
X116783335Y-67455839D02*
X116716669Y-67489172D01*
X116716669Y-67489172D02*
X116550002Y-67489172D01*
X116550002Y-67489172D02*
X116483335Y-67455839D01*
X116483335Y-67455839D02*
X116450002Y-67389172D01*
X116450002Y-67389172D02*
X116450002Y-67322505D01*
X116450002Y-67322505D02*
X116483335Y-67255839D01*
X116483335Y-67255839D02*
X116550002Y-67222505D01*
X116550002Y-67222505D02*
X116716669Y-67222505D01*
X116716669Y-67222505D02*
X116783335Y-67189172D01*
X117116668Y-67022505D02*
X117116668Y-67489172D01*
X117116668Y-67089172D02*
X117150002Y-67055839D01*
X117150002Y-67055839D02*
X117216668Y-67022505D01*
X117216668Y-67022505D02*
X117316668Y-67022505D01*
X117316668Y-67022505D02*
X117383335Y-67055839D01*
X117383335Y-67055839D02*
X117416668Y-67122505D01*
X117416668Y-67122505D02*
X117416668Y-67489172D01*
X118050001Y-67489172D02*
X118050001Y-66789172D01*
X118050001Y-67455839D02*
X117983335Y-67489172D01*
X117983335Y-67489172D02*
X117850001Y-67489172D01*
X117850001Y-67489172D02*
X117783335Y-67455839D01*
X117783335Y-67455839D02*
X117750001Y-67422505D01*
X117750001Y-67422505D02*
X117716668Y-67355839D01*
X117716668Y-67355839D02*
X117716668Y-67155839D01*
X117716668Y-67155839D02*
X117750001Y-67089172D01*
X117750001Y-67089172D02*
X117783335Y-67055839D01*
X117783335Y-67055839D02*
X117850001Y-67022505D01*
X117850001Y-67022505D02*
X117983335Y-67022505D01*
X117983335Y-67022505D02*
X118050001Y-67055839D01*
X118916667Y-67489172D02*
X118916667Y-66789172D01*
X118916667Y-66789172D02*
X119083334Y-66789172D01*
X119083334Y-66789172D02*
X119183334Y-66822505D01*
X119183334Y-66822505D02*
X119250001Y-66889172D01*
X119250001Y-66889172D02*
X119283334Y-66955839D01*
X119283334Y-66955839D02*
X119316667Y-67089172D01*
X119316667Y-67089172D02*
X119316667Y-67189172D01*
X119316667Y-67189172D02*
X119283334Y-67322505D01*
X119283334Y-67322505D02*
X119250001Y-67389172D01*
X119250001Y-67389172D02*
X119183334Y-67455839D01*
X119183334Y-67455839D02*
X119083334Y-67489172D01*
X119083334Y-67489172D02*
X118916667Y-67489172D01*
X119616667Y-67489172D02*
X119616667Y-67022505D01*
X119616667Y-67155839D02*
X119650001Y-67089172D01*
X119650001Y-67089172D02*
X119683334Y-67055839D01*
X119683334Y-67055839D02*
X119750001Y-67022505D01*
X119750001Y-67022505D02*
X119816667Y-67022505D01*
X120050000Y-67489172D02*
X120050000Y-67022505D01*
X120050000Y-66789172D02*
X120016667Y-66822505D01*
X120016667Y-66822505D02*
X120050000Y-66855839D01*
X120050000Y-66855839D02*
X120083334Y-66822505D01*
X120083334Y-66822505D02*
X120050000Y-66789172D01*
X120050000Y-66789172D02*
X120050000Y-66855839D01*
X120316667Y-67022505D02*
X120483333Y-67489172D01*
X120483333Y-67489172D02*
X120650000Y-67022505D01*
X121183333Y-67455839D02*
X121116666Y-67489172D01*
X121116666Y-67489172D02*
X120983333Y-67489172D01*
X120983333Y-67489172D02*
X120916666Y-67455839D01*
X120916666Y-67455839D02*
X120883333Y-67389172D01*
X120883333Y-67389172D02*
X120883333Y-67122505D01*
X120883333Y-67122505D02*
X120916666Y-67055839D01*
X120916666Y-67055839D02*
X120983333Y-67022505D01*
X120983333Y-67022505D02*
X121116666Y-67022505D01*
X121116666Y-67022505D02*
X121183333Y-67055839D01*
X121183333Y-67055839D02*
X121216666Y-67122505D01*
X121216666Y-67122505D02*
X121216666Y-67189172D01*
X121216666Y-67189172D02*
X120883333Y-67255839D01*
X121516666Y-67489172D02*
X121516666Y-67022505D01*
X121516666Y-67155839D02*
X121550000Y-67089172D01*
X121550000Y-67089172D02*
X121583333Y-67055839D01*
X121583333Y-67055839D02*
X121650000Y-67022505D01*
X121650000Y-67022505D02*
X121716666Y-67022505D01*
X122449999Y-67289172D02*
X122783332Y-67289172D01*
X122383332Y-67489172D02*
X122616666Y-66789172D01*
X122616666Y-66789172D02*
X122849999Y-67489172D01*
X123083332Y-67489172D02*
X123083332Y-67022505D01*
X123083332Y-67089172D02*
X123116666Y-67055839D01*
X123116666Y-67055839D02*
X123183332Y-67022505D01*
X123183332Y-67022505D02*
X123283332Y-67022505D01*
X123283332Y-67022505D02*
X123349999Y-67055839D01*
X123349999Y-67055839D02*
X123383332Y-67122505D01*
X123383332Y-67122505D02*
X123383332Y-67489172D01*
X123383332Y-67122505D02*
X123416666Y-67055839D01*
X123416666Y-67055839D02*
X123483332Y-67022505D01*
X123483332Y-67022505D02*
X123583332Y-67022505D01*
X123583332Y-67022505D02*
X123649999Y-67055839D01*
X123649999Y-67055839D02*
X123683332Y-67122505D01*
X123683332Y-67122505D02*
X123683332Y-67489172D01*
X124016665Y-67022505D02*
X124016665Y-67722505D01*
X124016665Y-67055839D02*
X124083332Y-67022505D01*
X124083332Y-67022505D02*
X124216665Y-67022505D01*
X124216665Y-67022505D02*
X124283332Y-67055839D01*
X124283332Y-67055839D02*
X124316665Y-67089172D01*
X124316665Y-67089172D02*
X124349999Y-67155839D01*
X124349999Y-67155839D02*
X124349999Y-67355839D01*
X124349999Y-67355839D02*
X124316665Y-67422505D01*
X124316665Y-67422505D02*
X124283332Y-67455839D01*
X124283332Y-67455839D02*
X124216665Y-67489172D01*
X124216665Y-67489172D02*
X124083332Y-67489172D01*
X124083332Y-67489172D02*
X124016665Y-67455839D01*
X125116665Y-67022505D02*
X125283331Y-67489172D01*
X125283331Y-67489172D02*
X125449998Y-67022505D01*
X126083331Y-67489172D02*
X125683331Y-67489172D01*
X125883331Y-67489172D02*
X125883331Y-66789172D01*
X125883331Y-66789172D02*
X125816664Y-66889172D01*
X125816664Y-66889172D02*
X125749998Y-66955839D01*
X125749998Y-66955839D02*
X125683331Y-66989172D01*
X126383331Y-67422505D02*
X126416665Y-67455839D01*
X126416665Y-67455839D02*
X126383331Y-67489172D01*
X126383331Y-67489172D02*
X126349998Y-67455839D01*
X126349998Y-67455839D02*
X126383331Y-67422505D01*
X126383331Y-67422505D02*
X126383331Y-67489172D01*
X126849998Y-66789172D02*
X126916664Y-66789172D01*
X126916664Y-66789172D02*
X126983331Y-66822505D01*
X126983331Y-66822505D02*
X127016664Y-66855839D01*
X127016664Y-66855839D02*
X127049998Y-66922505D01*
X127049998Y-66922505D02*
X127083331Y-67055839D01*
X127083331Y-67055839D02*
X127083331Y-67222505D01*
X127083331Y-67222505D02*
X127049998Y-67355839D01*
X127049998Y-67355839D02*
X127016664Y-67422505D01*
X127016664Y-67422505D02*
X126983331Y-67455839D01*
X126983331Y-67455839D02*
X126916664Y-67489172D01*
X126916664Y-67489172D02*
X126849998Y-67489172D01*
X126849998Y-67489172D02*
X126783331Y-67455839D01*
X126783331Y-67455839D02*
X126749998Y-67422505D01*
X126749998Y-67422505D02*
X126716664Y-67355839D01*
X126716664Y-67355839D02*
X126683331Y-67222505D01*
X126683331Y-67222505D02*
X126683331Y-67055839D01*
X126683331Y-67055839D02*
X126716664Y-66922505D01*
X126716664Y-66922505D02*
X126749998Y-66855839D01*
X126749998Y-66855839D02*
X126783331Y-66822505D01*
X126783331Y-66822505D02*
X126849998Y-66789172D01*
X116916667Y-67916133D02*
X117316667Y-67916133D01*
X117116667Y-68616133D02*
X117116667Y-67916133D01*
X117550000Y-68616133D02*
X117550000Y-68149466D01*
X117550000Y-67916133D02*
X117516667Y-67949466D01*
X117516667Y-67949466D02*
X117550000Y-67982800D01*
X117550000Y-67982800D02*
X117583334Y-67949466D01*
X117583334Y-67949466D02*
X117550000Y-67916133D01*
X117550000Y-67916133D02*
X117550000Y-67982800D01*
X117883333Y-68616133D02*
X117883333Y-68149466D01*
X117883333Y-68216133D02*
X117916667Y-68182800D01*
X117916667Y-68182800D02*
X117983333Y-68149466D01*
X117983333Y-68149466D02*
X118083333Y-68149466D01*
X118083333Y-68149466D02*
X118150000Y-68182800D01*
X118150000Y-68182800D02*
X118183333Y-68249466D01*
X118183333Y-68249466D02*
X118183333Y-68616133D01*
X118183333Y-68249466D02*
X118216667Y-68182800D01*
X118216667Y-68182800D02*
X118283333Y-68149466D01*
X118283333Y-68149466D02*
X118383333Y-68149466D01*
X118383333Y-68149466D02*
X118450000Y-68182800D01*
X118450000Y-68182800D02*
X118483333Y-68249466D01*
X118483333Y-68249466D02*
X118483333Y-68616133D01*
X118916666Y-68616133D02*
X118850000Y-68582800D01*
X118850000Y-68582800D02*
X118816666Y-68549466D01*
X118816666Y-68549466D02*
X118783333Y-68482800D01*
X118783333Y-68482800D02*
X118783333Y-68282800D01*
X118783333Y-68282800D02*
X118816666Y-68216133D01*
X118816666Y-68216133D02*
X118850000Y-68182800D01*
X118850000Y-68182800D02*
X118916666Y-68149466D01*
X118916666Y-68149466D02*
X119016666Y-68149466D01*
X119016666Y-68149466D02*
X119083333Y-68182800D01*
X119083333Y-68182800D02*
X119116666Y-68216133D01*
X119116666Y-68216133D02*
X119150000Y-68282800D01*
X119150000Y-68282800D02*
X119150000Y-68482800D01*
X119150000Y-68482800D02*
X119116666Y-68549466D01*
X119116666Y-68549466D02*
X119083333Y-68582800D01*
X119083333Y-68582800D02*
X119016666Y-68616133D01*
X119016666Y-68616133D02*
X118916666Y-68616133D01*
X119349999Y-68149466D02*
X119616666Y-68149466D01*
X119449999Y-67916133D02*
X119449999Y-68516133D01*
X119449999Y-68516133D02*
X119483333Y-68582800D01*
X119483333Y-68582800D02*
X119549999Y-68616133D01*
X119549999Y-68616133D02*
X119616666Y-68616133D01*
X119849999Y-68616133D02*
X119849999Y-67916133D01*
X120149999Y-68616133D02*
X120149999Y-68249466D01*
X120149999Y-68249466D02*
X120116666Y-68182800D01*
X120116666Y-68182800D02*
X120049999Y-68149466D01*
X120049999Y-68149466D02*
X119949999Y-68149466D01*
X119949999Y-68149466D02*
X119883333Y-68182800D01*
X119883333Y-68182800D02*
X119849999Y-68216133D01*
X120416666Y-68149466D02*
X120583332Y-68616133D01*
X120749999Y-68149466D02*
X120583332Y-68616133D01*
X120583332Y-68616133D02*
X120516666Y-68782800D01*
X120516666Y-68782800D02*
X120483332Y-68816133D01*
X120483332Y-68816133D02*
X120416666Y-68849466D01*
X121549998Y-68616133D02*
X121549998Y-67916133D01*
X121949998Y-68616133D02*
X121649998Y-68216133D01*
X121949998Y-67916133D02*
X121549998Y-68316133D01*
X122516665Y-68582800D02*
X122449998Y-68616133D01*
X122449998Y-68616133D02*
X122316665Y-68616133D01*
X122316665Y-68616133D02*
X122249998Y-68582800D01*
X122249998Y-68582800D02*
X122216665Y-68516133D01*
X122216665Y-68516133D02*
X122216665Y-68249466D01*
X122216665Y-68249466D02*
X122249998Y-68182800D01*
X122249998Y-68182800D02*
X122316665Y-68149466D01*
X122316665Y-68149466D02*
X122449998Y-68149466D01*
X122449998Y-68149466D02*
X122516665Y-68182800D01*
X122516665Y-68182800D02*
X122549998Y-68249466D01*
X122549998Y-68249466D02*
X122549998Y-68316133D01*
X122549998Y-68316133D02*
X122216665Y-68382800D01*
X122949998Y-68616133D02*
X122883332Y-68582800D01*
X122883332Y-68582800D02*
X122849998Y-68516133D01*
X122849998Y-68516133D02*
X122849998Y-67916133D01*
X123316665Y-68616133D02*
X123249999Y-68582800D01*
X123249999Y-68582800D02*
X123216665Y-68516133D01*
X123216665Y-68516133D02*
X123216665Y-67916133D01*
X123849999Y-68582800D02*
X123783332Y-68616133D01*
X123783332Y-68616133D02*
X123649999Y-68616133D01*
X123649999Y-68616133D02*
X123583332Y-68582800D01*
X123583332Y-68582800D02*
X123549999Y-68516133D01*
X123549999Y-68516133D02*
X123549999Y-68249466D01*
X123549999Y-68249466D02*
X123583332Y-68182800D01*
X123583332Y-68182800D02*
X123649999Y-68149466D01*
X123649999Y-68149466D02*
X123783332Y-68149466D01*
X123783332Y-68149466D02*
X123849999Y-68182800D01*
X123849999Y-68182800D02*
X123883332Y-68249466D01*
X123883332Y-68249466D02*
X123883332Y-68316133D01*
X123883332Y-68316133D02*
X123549999Y-68382800D01*
X124183332Y-68616133D02*
X124183332Y-68149466D01*
X124183332Y-68282800D02*
X124216666Y-68216133D01*
X124216666Y-68216133D02*
X124249999Y-68182800D01*
X124249999Y-68182800D02*
X124316666Y-68149466D01*
X124316666Y-68149466D02*
X124383332Y-68149466D01*
X113512667Y-45801966D02*
X113446000Y-45768633D01*
X113446000Y-45768633D02*
X113346000Y-45768633D01*
X113346000Y-45768633D02*
X113246000Y-45801966D01*
X113246000Y-45801966D02*
X113179334Y-45868633D01*
X113179334Y-45868633D02*
X113146000Y-45935300D01*
X113146000Y-45935300D02*
X113112667Y-46068633D01*
X113112667Y-46068633D02*
X113112667Y-46168633D01*
X113112667Y-46168633D02*
X113146000Y-46301966D01*
X113146000Y-46301966D02*
X113179334Y-46368633D01*
X113179334Y-46368633D02*
X113246000Y-46435300D01*
X113246000Y-46435300D02*
X113346000Y-46468633D01*
X113346000Y-46468633D02*
X113412667Y-46468633D01*
X113412667Y-46468633D02*
X113512667Y-46435300D01*
X113512667Y-46435300D02*
X113546000Y-46401966D01*
X113546000Y-46401966D02*
X113546000Y-46168633D01*
X113546000Y-46168633D02*
X113412667Y-46168633D01*
X113846000Y-46468633D02*
X113846000Y-45768633D01*
X113846000Y-45768633D02*
X114246000Y-46468633D01*
X114246000Y-46468633D02*
X114246000Y-45768633D01*
X114579333Y-46468633D02*
X114579333Y-45768633D01*
X114579333Y-45768633D02*
X114746000Y-45768633D01*
X114746000Y-45768633D02*
X114846000Y-45801966D01*
X114846000Y-45801966D02*
X114912667Y-45868633D01*
X114912667Y-45868633D02*
X114946000Y-45935300D01*
X114946000Y-45935300D02*
X114979333Y-46068633D01*
X114979333Y-46068633D02*
X114979333Y-46168633D01*
X114979333Y-46168633D02*
X114946000Y-46301966D01*
X114946000Y-46301966D02*
X114912667Y-46368633D01*
X114912667Y-46368633D02*
X114846000Y-46435300D01*
X114846000Y-46435300D02*
X114746000Y-46468633D01*
X114746000Y-46468633D02*
X114579333Y-46468633D01*
X125658666Y-45768633D02*
X125892000Y-46468633D01*
X125892000Y-46468633D02*
X126125333Y-45768633D01*
X126658666Y-46435300D02*
X126592000Y-46468633D01*
X126592000Y-46468633D02*
X126458666Y-46468633D01*
X126458666Y-46468633D02*
X126392000Y-46435300D01*
X126392000Y-46435300D02*
X126358666Y-46401966D01*
X126358666Y-46401966D02*
X126325333Y-46335300D01*
X126325333Y-46335300D02*
X126325333Y-46135300D01*
X126325333Y-46135300D02*
X126358666Y-46068633D01*
X126358666Y-46068633D02*
X126392000Y-46035300D01*
X126392000Y-46035300D02*
X126458666Y-46001966D01*
X126458666Y-46001966D02*
X126592000Y-46001966D01*
X126592000Y-46001966D02*
X126658666Y-46035300D01*
X127258666Y-46435300D02*
X127192000Y-46468633D01*
X127192000Y-46468633D02*
X127058666Y-46468633D01*
X127058666Y-46468633D02*
X126992000Y-46435300D01*
X126992000Y-46435300D02*
X126958666Y-46401966D01*
X126958666Y-46401966D02*
X126925333Y-46335300D01*
X126925333Y-46335300D02*
X126925333Y-46135300D01*
X126925333Y-46135300D02*
X126958666Y-46068633D01*
X126958666Y-46068633D02*
X126992000Y-46035300D01*
X126992000Y-46035300D02*
X127058666Y-46001966D01*
X127058666Y-46001966D02*
X127192000Y-46001966D01*
X127192000Y-46001966D02*
X127258666Y-46035300D01*
D11*
%TO.C,R1*%
X123520000Y-48996359D02*
X123520000Y-49303641D01*
X122760000Y-48996359D02*
X122760000Y-49303641D01*
%TO.C,C11*%
X130542164Y-56790000D02*
X130757836Y-56790000D01*
X130542164Y-57510000D02*
X130757836Y-57510000D01*
%TO.C,C10*%
X129260000Y-58507836D02*
X129260000Y-58292164D01*
X128540000Y-58507836D02*
X128540000Y-58292164D01*
%TO.C,C9*%
X110290000Y-58507836D02*
X110290000Y-58292164D01*
X111010000Y-58507836D02*
X111010000Y-58292164D01*
%TO.C,C8*%
X116042164Y-56790000D02*
X116257836Y-56790000D01*
X116042164Y-57510000D02*
X116257836Y-57510000D01*
%TO.C,U1*%
X118290000Y-56353500D02*
X118290000Y-53773500D01*
X119270000Y-53773500D02*
X118290000Y-53773500D01*
X122030000Y-53773500D02*
X123010000Y-53773500D01*
X123010000Y-53773500D02*
X123010000Y-56493500D01*
X118440000Y-56903500D02*
X118110000Y-57143500D01*
X118110000Y-56663500D01*
X118440000Y-56903500D01*
G36*
X118440000Y-56903500D02*
G01*
X118110000Y-57143500D01*
X118110000Y-56663500D01*
X118440000Y-56903500D01*
G37*
%TO.C,J2*%
X132692500Y-59100000D02*
X132692500Y-57990000D01*
X136402500Y-59100000D02*
X136402500Y-57990000D01*
X131642500Y-57400000D02*
X132142500Y-57150000D01*
X132142500Y-57150000D02*
X131642500Y-56900000D01*
X131642500Y-56900000D02*
X131642500Y-57400000D01*
X132692500Y-56310000D02*
X132692500Y-55200000D01*
X136402500Y-56310000D02*
X136402500Y-55200000D01*
%TO.C,J1*%
X108607500Y-55200000D02*
X108607500Y-56310000D01*
X104897500Y-55200000D02*
X104897500Y-56310000D01*
X109657500Y-56900000D02*
X109157500Y-57150000D01*
X109157500Y-57150000D02*
X109657500Y-57400000D01*
X109657500Y-57400000D02*
X109657500Y-56900000D01*
X108607500Y-57990000D02*
X108607500Y-59100000D01*
X104897500Y-57990000D02*
X104897500Y-59100000D01*
%TO.C,C7*%
X125042164Y-52619000D02*
X125257836Y-52619000D01*
X125042164Y-53339000D02*
X125257836Y-53339000D01*
%TO.C,C6*%
X125042164Y-51476000D02*
X125257836Y-51476000D01*
X125042164Y-52196000D02*
X125257836Y-52196000D01*
%TO.C,C5*%
X125042164Y-53762000D02*
X125257836Y-53762000D01*
X125042164Y-54482000D02*
X125257836Y-54482000D01*
%TO.C,C4*%
X124540000Y-58507836D02*
X124540000Y-58292164D01*
X125260000Y-58507836D02*
X125260000Y-58292164D01*
%TO.C,C3*%
X114040000Y-58507836D02*
X114040000Y-58292164D01*
X114760000Y-58507836D02*
X114760000Y-58292164D01*
%TO.C,C2*%
X127042164Y-56790000D02*
X127257836Y-56790000D01*
X127042164Y-57510000D02*
X127257836Y-57510000D01*
%TO.C,C1*%
X112542164Y-57510000D02*
X112757836Y-57510000D01*
X112542164Y-56790000D02*
X112757836Y-56790000D01*
%TD*%
M02*
