%TF.GenerationSoftware,KiCad,Pcbnew,8.0.0*%
%TF.CreationDate,2024-05-05T15:44:05-04:00*%
%TF.ProjectId,S-Band Driver Amplifier,532d4261-6e64-4204-9472-697665722041,v1.0*%
%TF.SameCoordinates,Original*%
%TF.FileFunction,Soldermask,Top*%
%TF.FilePolarity,Negative*%
%FSLAX46Y46*%
G04 Gerber Fmt 4.6, Leading zero omitted, Abs format (unit mm)*
G04 Created by KiCad (PCBNEW 8.0.0) date 2024-05-05 15:44:05*
%MOMM*%
%LPD*%
G01*
G04 APERTURE LIST*
G04 Aperture macros list*
%AMRoundRect*
0 Rectangle with rounded corners*
0 $1 Rounding radius*
0 $2 $3 $4 $5 $6 $7 $8 $9 X,Y pos of 4 corners*
0 Add a 4 corners polygon primitive as box body*
4,1,4,$2,$3,$4,$5,$6,$7,$8,$9,$2,$3,0*
0 Add four circle primitives for the rounded corners*
1,1,$1+$1,$2,$3*
1,1,$1+$1,$4,$5*
1,1,$1+$1,$6,$7*
1,1,$1+$1,$8,$9*
0 Add four rect primitives between the rounded corners*
20,1,$1+$1,$2,$3,$4,$5,0*
20,1,$1+$1,$4,$5,$6,$7,0*
20,1,$1+$1,$6,$7,$8,$9,0*
20,1,$1+$1,$8,$9,$2,$3,0*%
%AMFreePoly0*
4,1,9,3.862500,-0.866500,0.737500,-0.866500,0.737500,-0.450000,-0.737500,-0.450000,-0.737500,0.450000,0.737500,0.450000,0.737500,0.866500,3.862500,0.866500,3.862500,-0.866500,3.862500,-0.866500,$1*%
G04 Aperture macros list end*
%ADD10RoundRect,0.135000X-0.185000X0.135000X-0.185000X-0.135000X0.185000X-0.135000X0.185000X0.135000X0*%
%ADD11RoundRect,0.140000X-0.140000X-0.170000X0.140000X-0.170000X0.140000X0.170000X-0.140000X0.170000X0*%
%ADD12RoundRect,0.140000X0.170000X-0.140000X0.170000X0.140000X-0.170000X0.140000X-0.170000X-0.140000X0*%
%ADD13C,5.562600*%
%ADD14RoundRect,0.225000X0.225000X-0.425000X0.225000X0.425000X-0.225000X0.425000X-0.225000X-0.425000X0*%
%ADD15FreePoly0,90.000000*%
%ADD16RoundRect,0.147500X-0.172500X0.147500X-0.172500X-0.147500X0.172500X-0.147500X0.172500X0.147500X0*%
%ADD17R,3.600000X1.270000*%
%ADD18R,4.200000X1.350000*%
G04 APERTURE END LIST*
D10*
%TO.C,R1*%
X123140000Y-48640000D03*
X123140000Y-49660000D03*
%TD*%
D11*
%TO.C,C11*%
X130170000Y-57150000D03*
X131130000Y-57150000D03*
%TD*%
D12*
%TO.C,C10*%
X128900000Y-57920000D03*
X128900000Y-58880000D03*
%TD*%
%TO.C,C9*%
X110650000Y-58880000D03*
X110650000Y-57920000D03*
%TD*%
D11*
%TO.C,C8*%
X115670000Y-57150000D03*
X116630000Y-57150000D03*
%TD*%
D13*
%TO.C,H4*%
X133350000Y-47625000D03*
%TD*%
%TO.C,H3*%
X107950000Y-47625000D03*
%TD*%
%TO.C,H2*%
X133350000Y-66675000D03*
%TD*%
%TO.C,H1*%
X107950000Y-66675000D03*
%TD*%
D14*
%TO.C,U1*%
X119150000Y-57083500D03*
D15*
X120650000Y-56996000D03*
D14*
X122150000Y-57083500D03*
%TD*%
D16*
%TO.C,L1*%
X124100000Y-55415000D03*
X124100000Y-56385000D03*
%TD*%
D17*
%TO.C,J2*%
X134602500Y-57150000D03*
D18*
X134402500Y-59975000D03*
X134402500Y-54325000D03*
%TD*%
D17*
%TO.C,J1*%
X106697500Y-57150000D03*
D18*
X106897500Y-54325000D03*
X106897500Y-59975000D03*
%TD*%
D11*
%TO.C,C7*%
X124670000Y-52979000D03*
X125630000Y-52979000D03*
%TD*%
%TO.C,C6*%
X124670000Y-51836000D03*
X125630000Y-51836000D03*
%TD*%
%TO.C,C5*%
X124670000Y-54122000D03*
X125630000Y-54122000D03*
%TD*%
D12*
%TO.C,C4*%
X124900000Y-58880000D03*
X124900000Y-57920000D03*
%TD*%
%TO.C,C3*%
X114400000Y-58880000D03*
X114400000Y-57920000D03*
%TD*%
D11*
%TO.C,C2*%
X126670000Y-57150000D03*
X127630000Y-57150000D03*
%TD*%
%TO.C,C1*%
X113130000Y-57150000D03*
X112170000Y-57150000D03*
%TD*%
G36*
X125038039Y-45104685D02*
G01*
X125083794Y-45157489D01*
X125095000Y-45209000D01*
X125095000Y-48771000D01*
X125075315Y-48838039D01*
X125022511Y-48883794D01*
X124971000Y-48895000D01*
X121409000Y-48895000D01*
X121341961Y-48875315D01*
X121296206Y-48822511D01*
X121285000Y-48771000D01*
X121285000Y-45209000D01*
X121304685Y-45141961D01*
X121357489Y-45096206D01*
X121409000Y-45085000D01*
X124971000Y-45085000D01*
X125038039Y-45104685D01*
G37*
G36*
X119323039Y-45104685D02*
G01*
X119368794Y-45157489D01*
X119380000Y-45209000D01*
X119380000Y-48771000D01*
X119360315Y-48838039D01*
X119307511Y-48883794D01*
X119256000Y-48895000D01*
X115694000Y-48895000D01*
X115626961Y-48875315D01*
X115581206Y-48822511D01*
X115570000Y-48771000D01*
X115570000Y-45209000D01*
X115589685Y-45141961D01*
X115642489Y-45096206D01*
X115694000Y-45085000D01*
X119256000Y-45085000D01*
X119323039Y-45104685D01*
G37*
G36*
X118593039Y-54919685D02*
G01*
X118638794Y-54972489D01*
X118650000Y-55024000D01*
X118650000Y-57900000D01*
X122900000Y-57900000D01*
X122900000Y-57490000D01*
X124440000Y-57490000D01*
X124440000Y-59310000D01*
X125360000Y-59310000D01*
X125360000Y-57490000D01*
X124440000Y-57490000D01*
X122900000Y-57490000D01*
X122900000Y-55024000D01*
X122919685Y-54956961D01*
X122972489Y-54911206D01*
X123024000Y-54900000D01*
X123506000Y-54900000D01*
X123573039Y-54919685D01*
X123618794Y-54972489D01*
X123630000Y-55024000D01*
X123630000Y-56830000D01*
X124570000Y-56830000D01*
X124570000Y-56690000D01*
X126240000Y-56690000D01*
X126240000Y-57610000D01*
X128060000Y-57610000D01*
X128060000Y-57490000D01*
X128440000Y-57490000D01*
X128440000Y-59310000D01*
X129360000Y-59310000D01*
X129360000Y-57490000D01*
X128440000Y-57490000D01*
X128060000Y-57490000D01*
X128060000Y-56690000D01*
X129740000Y-56690000D01*
X129740000Y-57610000D01*
X131560000Y-57610000D01*
X131560000Y-56690000D01*
X129740000Y-56690000D01*
X128060000Y-56690000D01*
X126240000Y-56690000D01*
X124570000Y-56690000D01*
X124570000Y-55024000D01*
X124589685Y-54956961D01*
X124642489Y-54911206D01*
X124694000Y-54900000D01*
X136401000Y-54900000D01*
X136468039Y-54919685D01*
X136513794Y-54972489D01*
X136525000Y-55024000D01*
X136525000Y-61026000D01*
X136505315Y-61093039D01*
X136452511Y-61138794D01*
X136401000Y-61150000D01*
X104899000Y-61150000D01*
X104831961Y-61130315D01*
X104786206Y-61077511D01*
X104775000Y-61026000D01*
X104775000Y-57490000D01*
X110190000Y-57490000D01*
X110190000Y-59310000D01*
X111110000Y-59310000D01*
X111110000Y-57490000D01*
X110190000Y-57490000D01*
X104775000Y-57490000D01*
X104775000Y-56690000D01*
X111740000Y-56690000D01*
X111740000Y-57610000D01*
X113560000Y-57610000D01*
X113560000Y-57490000D01*
X113940000Y-57490000D01*
X113940000Y-59310000D01*
X114860000Y-59310000D01*
X114860000Y-57490000D01*
X113940000Y-57490000D01*
X113560000Y-57490000D01*
X113560000Y-56690000D01*
X115240000Y-56690000D01*
X115240000Y-57610000D01*
X117060000Y-57610000D01*
X117060000Y-56690000D01*
X115240000Y-56690000D01*
X113560000Y-56690000D01*
X111740000Y-56690000D01*
X104775000Y-56690000D01*
X104775000Y-55024000D01*
X104794685Y-54956961D01*
X104847489Y-54911206D01*
X104899000Y-54900000D01*
X118526000Y-54900000D01*
X118593039Y-54919685D01*
G37*
M02*
