M48
; DRILL file {KiCad 8.0.0} date 2024-06-16T14:01:46-0400
; FORMAT={-:-/ absolute / inch / decimal}
; #@! TF.CreationDate,2024-06-16T14:01:46-04:00
; #@! TF.GenerationSoftware,Kicad,Pcbnew,8.0.0
; #@! TF.FileFunction,Plated,1,4,PTH
FMAT,2
INCH
; #@! TA.AperFunction,Plated,PTH,ComponentDrill
T1C0.0079
; #@! TA.AperFunction,Plated,PTH,ViaDrill
T2C0.0118
; #@! TA.AperFunction,Plated,PTH,ComponentDrill
T3C0.0960
; #@! TA.AperFunction,Plated,PTH,ComponentDrill
T4C0.1285
%
G90
G05
T1
X5.4606Y-2.4606
X5.4606Y-2.5394
X5.5394Y-2.4606
X5.5394Y-2.5394
T2
X5.02Y-2.46
X5.02Y-2.54
X5.03Y-2.435
X5.03Y-2.565
X5.045Y-2.46
X5.045Y-2.54
X5.055Y-2.435
X5.055Y-2.565
X5.07Y-2.46
X5.07Y-2.54
X5.08Y-2.435
X5.08Y-2.565
X5.095Y-2.46
X5.095Y-2.54
X5.105Y-2.435
X5.105Y-2.565
X5.12Y-2.46
X5.12Y-2.54
X5.13Y-2.435
X5.13Y-2.565
X5.145Y-2.46
X5.145Y-2.54
X5.155Y-2.435
X5.155Y-2.565
X5.17Y-2.46
X5.17Y-2.54
X5.18Y-2.435
X5.18Y-2.565
X5.195Y-2.46
X5.195Y-2.54
X5.205Y-2.435
X5.205Y-2.565
X5.22Y-2.46
X5.22Y-2.54
X5.23Y-2.435
X5.23Y-2.565
X5.245Y-2.46
X5.245Y-2.54
X5.255Y-2.435
X5.255Y-2.565
X5.27Y-2.46
X5.27Y-2.54
X5.28Y-2.435
X5.28Y-2.565
X5.295Y-2.46
X5.295Y-2.54
X5.305Y-2.435
X5.305Y-2.565
X5.32Y-2.46
X5.32Y-2.54
X5.33Y-2.435
X5.33Y-2.565
X5.345Y-2.46
X5.345Y-2.54
X5.355Y-2.435
X5.355Y-2.565
X5.36Y-2.4
X5.37Y-2.46
X5.37Y-2.54
X5.38Y-2.435
X5.38Y-2.565
X5.385Y-2.59
X5.395Y-2.46
X5.395Y-2.54
X5.4Y-2.615
X5.425Y-2.025
X5.425Y-2.05
X5.425Y-2.075
X5.425Y-2.1
X5.425Y-2.125
X5.425Y-2.15
X5.425Y-2.175
X5.425Y-2.2
X5.425Y-2.225
X5.425Y-2.615
X5.45Y-2.615
X5.47Y-2.5
X5.475Y-2.615
X5.5Y-2.47
X5.5Y-2.5
X5.5Y-2.53
X5.5Y-2.615
X5.525Y-2.615
X5.53Y-2.5
X5.55Y-2.615
X5.575Y-2.025
X5.575Y-2.05
X5.575Y-2.075
X5.575Y-2.1
X5.575Y-2.125
X5.575Y-2.15
X5.575Y-2.175
X5.575Y-2.2
X5.575Y-2.225
X5.575Y-2.615
X5.6Y-2.615
X5.605Y-2.46
X5.605Y-2.54
X5.615Y-2.435
X5.615Y-2.565
X5.615Y-2.595
X5.63Y-2.46
X5.63Y-2.54
X5.64Y-2.435
X5.64Y-2.565
X5.652Y-2.359
X5.655Y-2.46
X5.655Y-2.54
X5.665Y-2.435
X5.665Y-2.565
X5.68Y-2.46
X5.68Y-2.54
X5.69Y-2.435
X5.69Y-2.565
X5.705Y-2.46
X5.705Y-2.54
X5.715Y-2.435
X5.715Y-2.565
X5.73Y-2.46
X5.73Y-2.54
X5.74Y-2.435
X5.74Y-2.565
X5.755Y-2.46
X5.755Y-2.54
X5.765Y-2.435
X5.765Y-2.565
X5.78Y-2.46
X5.78Y-2.54
X5.79Y-2.435
X5.79Y-2.565
X5.805Y-2.46
X5.805Y-2.54
X5.815Y-2.435
X5.815Y-2.565
X5.83Y-2.46
X5.83Y-2.54
X5.84Y-2.435
X5.84Y-2.565
X5.855Y-2.46
X5.855Y-2.54
X5.865Y-2.435
X5.865Y-2.565
X5.88Y-2.46
X5.88Y-2.54
X5.89Y-2.435
X5.89Y-2.565
X5.905Y-2.46
X5.905Y-2.54
X5.915Y-2.435
X5.915Y-2.565
X5.93Y-2.46
X5.93Y-2.54
X5.94Y-2.435
X5.94Y-2.565
X5.955Y-2.46
X5.955Y-2.54
X5.965Y-2.435
X5.965Y-2.565
X5.98Y-2.46
X5.98Y-2.54
T3
X5.4Y-2.75
X5.6Y-2.75
T4
X5.125Y-2.125
X5.125Y-2.875
X5.875Y-2.125
X5.875Y-2.875
M30
