%TF.GenerationSoftware,KiCad,Pcbnew,8.0.1*%
%TF.CreationDate,2024-06-29T11:44:41-04:00*%
%TF.ProjectId,X-Band Amplifier QPA2598,582d4261-6e64-4204-916d-706c69666965,v1.0*%
%TF.SameCoordinates,Original*%
%TF.FileFunction,Copper,L1,Top*%
%TF.FilePolarity,Positive*%
%FSLAX46Y46*%
G04 Gerber Fmt 4.6, Leading zero omitted, Abs format (unit mm)*
G04 Created by KiCad (PCBNEW 8.0.1) date 2024-06-29 11:44:41*
%MOMM*%
%LPD*%
G01*
G04 APERTURE LIST*
G04 Aperture macros list*
%AMRoundRect*
0 Rectangle with rounded corners*
0 $1 Rounding radius*
0 $2 $3 $4 $5 $6 $7 $8 $9 X,Y pos of 4 corners*
0 Add a 4 corners polygon primitive as box body*
4,1,4,$2,$3,$4,$5,$6,$7,$8,$9,$2,$3,0*
0 Add four circle primitives for the rounded corners*
1,1,$1+$1,$2,$3*
1,1,$1+$1,$4,$5*
1,1,$1+$1,$6,$7*
1,1,$1+$1,$8,$9*
0 Add four rect primitives between the rounded corners*
20,1,$1+$1,$2,$3,$4,$5,0*
20,1,$1+$1,$4,$5,$6,$7,0*
20,1,$1+$1,$6,$7,$8,$9,0*
20,1,$1+$1,$8,$9,$2,$3,0*%
G04 Aperture macros list end*
%TA.AperFunction,SMDPad,CuDef*%
%ADD10RoundRect,0.135000X0.135000X0.185000X-0.135000X0.185000X-0.135000X-0.185000X0.135000X-0.185000X0*%
%TD*%
%TA.AperFunction,SMDPad,CuDef*%
%ADD11RoundRect,0.135000X-0.135000X-0.185000X0.135000X-0.185000X0.135000X0.185000X-0.135000X0.185000X0*%
%TD*%
%TA.AperFunction,SMDPad,CuDef*%
%ADD12RoundRect,0.250000X-0.325000X-0.650000X0.325000X-0.650000X0.325000X0.650000X-0.325000X0.650000X0*%
%TD*%
%TA.AperFunction,SMDPad,CuDef*%
%ADD13RoundRect,0.250000X0.250000X0.475000X-0.250000X0.475000X-0.250000X-0.475000X0.250000X-0.475000X0*%
%TD*%
%TA.AperFunction,SMDPad,CuDef*%
%ADD14RoundRect,0.250000X-0.250000X-0.475000X0.250000X-0.475000X0.250000X0.475000X-0.250000X0.475000X0*%
%TD*%
%TA.AperFunction,SMDPad,CuDef*%
%ADD15RoundRect,0.250000X0.325000X0.650000X-0.325000X0.650000X-0.325000X-0.650000X0.325000X-0.650000X0*%
%TD*%
%TA.AperFunction,SMDPad,CuDef*%
%ADD16RoundRect,0.087500X0.412500X-0.087500X0.412500X0.087500X-0.412500X0.087500X-0.412500X-0.087500X0*%
%TD*%
%TA.AperFunction,SMDPad,CuDef*%
%ADD17R,5.500000X4.000000*%
%TD*%
%TA.AperFunction,SMDPad,CuDef*%
%ADD18RoundRect,0.062500X-0.350000X-0.062500X0.350000X-0.062500X0.350000X0.062500X-0.350000X0.062500X0*%
%TD*%
%TA.AperFunction,SMDPad,CuDef*%
%ADD19RoundRect,0.062500X-0.062500X-0.350000X0.062500X-0.350000X0.062500X0.350000X-0.062500X0.350000X0*%
%TD*%
%TA.AperFunction,HeatsinkPad*%
%ADD20C,0.500000*%
%TD*%
%TA.AperFunction,HeatsinkPad*%
%ADD21R,2.500000X2.500000*%
%TD*%
%TA.AperFunction,SMDPad,CuDef*%
%ADD22RoundRect,0.087500X-0.412500X0.087500X-0.412500X-0.087500X0.412500X-0.087500X0.412500X0.087500X0*%
%TD*%
%TA.AperFunction,ComponentPad*%
%ADD23C,5.562600*%
%TD*%
%TA.AperFunction,SMDPad,CuDef*%
%ADD24RoundRect,0.140000X0.140000X0.170000X-0.140000X0.170000X-0.140000X-0.170000X0.140000X-0.170000X0*%
%TD*%
%TA.AperFunction,SMDPad,CuDef*%
%ADD25RoundRect,0.140000X-0.140000X-0.170000X0.140000X-0.170000X0.140000X0.170000X-0.140000X0.170000X0*%
%TD*%
%TA.AperFunction,ViaPad*%
%ADD26C,0.600000*%
%TD*%
%TA.AperFunction,ViaPad*%
%ADD27C,0.500000*%
%TD*%
%TA.AperFunction,Conductor*%
%ADD28C,1.270000*%
%TD*%
%TA.AperFunction,Conductor*%
%ADD29C,0.250000*%
%TD*%
%TA.AperFunction,Conductor*%
%ADD30C,0.400000*%
%TD*%
G04 APERTURE END LIST*
D10*
%TO.P,R4,1*%
%TO.N,VD*%
X140210000Y-60325000D03*
%TO.P,R4,2*%
%TO.N,Net-(C6-Pad1)*%
X139190000Y-60325000D03*
%TD*%
D11*
%TO.P,R3,1*%
%TO.N,VD*%
X140206000Y-59309000D03*
%TO.P,R3,2*%
%TO.N,Net-(C5-Pad1)*%
X141226000Y-59309000D03*
%TD*%
%TO.P,R2,1*%
%TO.N,Net-(C2-Pad2)*%
X138682000Y-66675000D03*
%TO.P,R2,2*%
%TO.N,VG*%
X139702000Y-66675000D03*
%TD*%
D10*
%TO.P,R1,1*%
%TO.N,Net-(C1-Pad2)*%
X140718000Y-67691000D03*
%TO.P,R1,2*%
%TO.N,VG*%
X139698000Y-67691000D03*
%TD*%
D12*
%TO.P,C5,1*%
%TO.N,Net-(C5-Pad1)*%
X142543000Y-59309000D03*
%TO.P,C5,2*%
%TO.N,GND*%
X145493000Y-59309000D03*
%TD*%
D13*
%TO.P,C4,2*%
%TO.N,GND*%
X138496000Y-57785000D03*
%TO.P,C4,1*%
%TO.N,VD*%
X140396000Y-57785000D03*
%TD*%
D14*
%TO.P,C3,1*%
%TO.N,GND*%
X137861000Y-69215000D03*
%TO.P,C3,2*%
%TO.N,VG*%
X139761000Y-69215000D03*
%TD*%
D15*
%TO.P,C1,1*%
%TO.N,GND*%
X144985000Y-67691000D03*
%TO.P,C1,2*%
%TO.N,Net-(C1-Pad2)*%
X142035000Y-67691000D03*
%TD*%
D16*
%TO.P,J2,1,In*%
%TO.N,Net-(J2-In)*%
X151850000Y-63500000D03*
D17*
%TO.P,J2,2,Ext*%
%TO.N,GND*%
X149600000Y-66135000D03*
X149600000Y-60865000D03*
%TD*%
D18*
%TO.P,U1,1,NC*%
%TO.N,GND*%
X137762500Y-62500000D03*
%TO.P,U1,2,NC*%
X137762500Y-63000000D03*
%TO.P,U1,3,RF_IN*%
%TO.N,Net-(J1-In)*%
X137762500Y-63500000D03*
%TO.P,U1,4,NC*%
%TO.N,GND*%
X137762500Y-64000000D03*
%TO.P,U1,5,NC*%
X137762500Y-64500000D03*
D19*
%TO.P,U1,6,NC*%
X138700000Y-65437500D03*
%TO.P,U1,7,NC*%
X139200000Y-65437500D03*
%TO.P,U1,8,VG*%
%TO.N,VG*%
X139700000Y-65437500D03*
%TO.P,U1,9,NC*%
%TO.N,GND*%
X140200000Y-65437500D03*
%TO.P,U1,10,NC*%
X140700000Y-65437500D03*
D18*
%TO.P,U1,11,NC*%
X141637500Y-64500000D03*
%TO.P,U1,12,NC*%
X141637500Y-64000000D03*
%TO.P,U1,13,RF_OUT*%
%TO.N,Net-(J2-In)*%
X141637500Y-63500000D03*
%TO.P,U1,14,NC*%
%TO.N,GND*%
X141637500Y-63000000D03*
%TO.P,U1,15,NC*%
X141637500Y-62500000D03*
D19*
%TO.P,U1,16,NC*%
X140700000Y-61562500D03*
%TO.P,U1,17,VD*%
%TO.N,VD*%
X140200000Y-61562500D03*
%TO.P,U1,18,NC*%
%TO.N,GND*%
X139700000Y-61562500D03*
%TO.P,U1,19,NC*%
X139200000Y-61562500D03*
%TO.P,U1,20,NC*%
X138700000Y-61562500D03*
D20*
%TO.P,U1,21,GND*%
X138700000Y-62500000D03*
X138700000Y-64500000D03*
D21*
X139700000Y-63500000D03*
D20*
X140700000Y-62500000D03*
X140700000Y-64500000D03*
%TD*%
D22*
%TO.P,J1,1,In*%
%TO.N,Net-(J1-In)*%
X127550000Y-63500000D03*
D17*
%TO.P,J1,2,Ext*%
%TO.N,GND*%
X129800000Y-60865000D03*
X129800000Y-66135000D03*
%TD*%
D23*
%TO.P,H2,1,1*%
%TO.N,GND*%
X149225000Y-53975000D03*
%TD*%
%TO.P,H3,1,1*%
%TO.N,GND*%
X130175000Y-73025000D03*
%TD*%
D24*
%TO.P,C6,1*%
%TO.N,Net-(C6-Pad1)*%
X139192000Y-59309000D03*
%TO.P,C6,2*%
%TO.N,GND*%
X138232000Y-59309000D03*
%TD*%
D23*
%TO.P,H4,1,1*%
%TO.N,GND*%
X149225000Y-73025000D03*
%TD*%
%TO.P,H1,1,1*%
%TO.N,GND*%
X130175000Y-53975000D03*
%TD*%
D25*
%TO.P,C2,1*%
%TO.N,GND*%
X137696000Y-67691000D03*
%TO.P,C2,2*%
%TO.N,Net-(C2-Pad2)*%
X138656000Y-67691000D03*
%TD*%
D26*
%TO.N,GND*%
X139446000Y-55245000D03*
X133350000Y-60960000D03*
X134874000Y-60960000D03*
X136906000Y-60579000D03*
X141351000Y-60960000D03*
X141986000Y-60960000D03*
X142748000Y-60960000D03*
X130048000Y-69215000D03*
X143129000Y-57404000D03*
X147066000Y-57785000D03*
X145161000Y-55372000D03*
X145161000Y-52070000D03*
X134493000Y-52324000D03*
X139446000Y-52197000D03*
X139446000Y-53848000D03*
X134239000Y-56261000D03*
X132207000Y-57658000D03*
X134112000Y-58420000D03*
X134239000Y-60071000D03*
X146939000Y-69596000D03*
X136017000Y-70231000D03*
X132334000Y-70104000D03*
X134747000Y-68072000D03*
X145161000Y-71501000D03*
X145288000Y-74930000D03*
X139573000Y-72390000D03*
X139573000Y-73914000D03*
X139573000Y-75184000D03*
X134239000Y-71755000D03*
X134239000Y-74549000D03*
X135890000Y-59309000D03*
X143764000Y-67691000D03*
X133477000Y-66421000D03*
X134747000Y-66421000D03*
X136017000Y-66421000D03*
X137287000Y-57785000D03*
X144272000Y-59309000D03*
X145542000Y-57658000D03*
X145669000Y-60960000D03*
X144653000Y-60960000D03*
X143637000Y-60960000D03*
X145923000Y-66040000D03*
X143764000Y-66040000D03*
X146177000Y-67691000D03*
X144907000Y-66040000D03*
X144907000Y-69342000D03*
X137922000Y-70358000D03*
X136779000Y-69215000D03*
X136906000Y-67691000D03*
X137541000Y-66675000D03*
X135890000Y-57658000D03*
X137414000Y-59182000D03*
X138049000Y-60198000D03*
X141351000Y-61920000D03*
X138100000Y-61870000D03*
D27*
X140200000Y-64500000D03*
X139200000Y-64500000D03*
X139700000Y-64500000D03*
X138700000Y-64000000D03*
X140200000Y-64000000D03*
X139700000Y-64000000D03*
X140700000Y-64000000D03*
X139200000Y-64000000D03*
X140200000Y-63500000D03*
X139700000Y-63500000D03*
X138700000Y-63500000D03*
X140700000Y-63500000D03*
X139200000Y-63500000D03*
X140690000Y-63000000D03*
X140190000Y-63000000D03*
X139690000Y-63000000D03*
X139190000Y-63000000D03*
X138690000Y-63000000D03*
X140200000Y-62500000D03*
X139700000Y-62500000D03*
X139200000Y-62500000D03*
D26*
X148082000Y-62484000D03*
X132588000Y-62484000D03*
X143256000Y-61849000D03*
X133858000Y-62484000D03*
X131953000Y-64516000D03*
X132842000Y-61849000D03*
X130048000Y-64516000D03*
X147447000Y-62484000D03*
X148717000Y-62484000D03*
X133477000Y-61849000D03*
X146177000Y-64516000D03*
X148971000Y-61849000D03*
X148717000Y-64516000D03*
X141250000Y-65060000D03*
X136017000Y-61849000D03*
X142367000Y-62484000D03*
X138140000Y-65040000D03*
X149606000Y-65151000D03*
X134493000Y-62484000D03*
X149987000Y-64516000D03*
X142621000Y-61849000D03*
X132842000Y-65151000D03*
X135763000Y-62484000D03*
X147066000Y-61849000D03*
X149606000Y-61849000D03*
X135128000Y-62484000D03*
X145796000Y-65151000D03*
X143891000Y-65151000D03*
X150241000Y-65151000D03*
X149352000Y-62484000D03*
X144272000Y-62484000D03*
X133223000Y-62484000D03*
X132588000Y-64516000D03*
X148336000Y-61849000D03*
X131953000Y-62484000D03*
X143891000Y-61849000D03*
X150622000Y-62484000D03*
X128397000Y-61849000D03*
X135382000Y-61849000D03*
X135382000Y-65151000D03*
X129032000Y-65151000D03*
X150241000Y-61849000D03*
X132207000Y-65151000D03*
X145542000Y-64516000D03*
X146812000Y-62484000D03*
X145161000Y-65151000D03*
X136652000Y-65151000D03*
X135128000Y-64516000D03*
X140690600Y-66210000D03*
X143002000Y-64516000D03*
X151511000Y-61849000D03*
X142748000Y-66040000D03*
X145161000Y-61849000D03*
X136398000Y-62484000D03*
X150876000Y-61849000D03*
X129032000Y-61849000D03*
X148971000Y-65151000D03*
X127508000Y-64516000D03*
X151257000Y-62484000D03*
X143002000Y-62484000D03*
X147701000Y-65151000D03*
X137033000Y-62484000D03*
X128143000Y-62484000D03*
X130937000Y-61849000D03*
X144526000Y-61849000D03*
X129667000Y-61849000D03*
X134493000Y-64516000D03*
X127762000Y-61849000D03*
X136017000Y-65151000D03*
X128778000Y-64516000D03*
X137795000Y-66040000D03*
X129667000Y-65151000D03*
X131318000Y-62484000D03*
X148336000Y-65151000D03*
X128143000Y-64516000D03*
X131318000Y-64516000D03*
X147066000Y-65151000D03*
X133223000Y-64516000D03*
X149352000Y-64516000D03*
X145542000Y-62484000D03*
X147447000Y-64516000D03*
X130302000Y-65151000D03*
X151892000Y-64516000D03*
X143637000Y-64516000D03*
X128397000Y-65151000D03*
X141986000Y-66040000D03*
X150622000Y-64516000D03*
X127508000Y-62484000D03*
X130683000Y-62484000D03*
X131572000Y-65151000D03*
X127762000Y-65151000D03*
X144907000Y-62484000D03*
X136398000Y-64516000D03*
X134112000Y-61849000D03*
X144272000Y-64516000D03*
X128778000Y-62484000D03*
X149987000Y-62484000D03*
X142367000Y-64516000D03*
X151257000Y-64516000D03*
X143256000Y-65151000D03*
X150876000Y-65151000D03*
X137160000Y-65786000D03*
X130683000Y-64516000D03*
X146177000Y-62484000D03*
X151892000Y-62484000D03*
X143637000Y-62484000D03*
X130048000Y-62484000D03*
X129413000Y-64516000D03*
X144526000Y-65151000D03*
X129413000Y-62484000D03*
X130937000Y-65151000D03*
X135763000Y-64516000D03*
X133477000Y-65151000D03*
X134112000Y-65151000D03*
X137033000Y-64516000D03*
X147701000Y-61849000D03*
X131572000Y-61849000D03*
X142621000Y-65151000D03*
X133858000Y-64516000D03*
X136652000Y-61849000D03*
X146431000Y-65151000D03*
X145796000Y-61849000D03*
X134747000Y-65151000D03*
X148082000Y-64516000D03*
X144907000Y-64516000D03*
X132207000Y-61849000D03*
X146812000Y-64516000D03*
X141376400Y-66014600D03*
X130302000Y-61849000D03*
X146431000Y-61849000D03*
X151511000Y-65151000D03*
X136144000Y-60960000D03*
X134747000Y-61849000D03*
%TD*%
D28*
%TO.N,VD*%
X142316200Y-55245000D02*
X142367000Y-55245000D01*
X140396000Y-57165200D02*
X142316200Y-55245000D01*
X140396000Y-57785000D02*
X140396000Y-57165200D01*
D29*
%TO.N,Net-(C2-Pad2)*%
X138656000Y-66701000D02*
X138682000Y-66675000D01*
X138656000Y-67691000D02*
X138656000Y-66701000D01*
D28*
%TO.N,VG*%
X142240000Y-71694000D02*
X142240000Y-71755000D01*
X139761000Y-69215000D02*
X142240000Y-71694000D01*
D30*
X139698000Y-69152000D02*
X139698000Y-67691000D01*
X139761000Y-69215000D02*
X139698000Y-69152000D01*
%TO.N,Net-(C1-Pad2)*%
X140718000Y-67691000D02*
X142035000Y-67691000D01*
%TO.N,VG*%
X139702000Y-67687000D02*
X139698000Y-67691000D01*
X139702000Y-66675000D02*
X139702000Y-67687000D01*
D29*
X139700000Y-66673000D02*
X139702000Y-66675000D01*
X139700000Y-65437500D02*
X139700000Y-66673000D01*
%TO.N,GND*%
X140224740Y-62500000D02*
X140200000Y-62500000D01*
X140700000Y-62024740D02*
X140224740Y-62500000D01*
X140700000Y-61562500D02*
X140700000Y-62024740D01*
X140700000Y-61562500D02*
X140700000Y-62500000D01*
X140175260Y-62500000D02*
X140200000Y-62500000D01*
X139700000Y-62024740D02*
X140175260Y-62500000D01*
X139700000Y-61562500D02*
X139700000Y-62024740D01*
X140200000Y-64500000D02*
X140200000Y-65437500D01*
X139724740Y-64500000D02*
X140200000Y-64975260D01*
X139700000Y-64500000D02*
X139724740Y-64500000D01*
X140200000Y-64975260D02*
X140200000Y-65437500D01*
X139675260Y-64500000D02*
X139200000Y-64975260D01*
X139200000Y-64975260D02*
X139200000Y-65437500D01*
X139700000Y-64500000D02*
X139675260Y-64500000D01*
X139200000Y-65437500D02*
X139200000Y-64500000D01*
D30*
%TO.N,VD*%
X140206000Y-59309000D02*
X140206000Y-57975000D01*
X140206000Y-57975000D02*
X140396000Y-57785000D01*
%TO.N,Net-(C5-Pad1)*%
X141226000Y-59309000D02*
X142543000Y-59309000D01*
%TO.N,VD*%
X140206000Y-59309000D02*
X140206000Y-60321000D01*
X140206000Y-60321000D02*
X140210000Y-60325000D01*
D29*
%TO.N,Net-(C6-Pad1)*%
X139192000Y-59186000D02*
X139192000Y-59309000D01*
X139190000Y-59184000D02*
X139192000Y-59186000D01*
D30*
X139190000Y-60325000D02*
X139190000Y-59184000D01*
D29*
%TO.N,VD*%
X140200000Y-61562500D02*
X140200000Y-60335000D01*
X140200000Y-60335000D02*
X140210000Y-60325000D01*
%TO.N,GND*%
X137762500Y-64000000D02*
X138438000Y-64000000D01*
X140700000Y-62500000D02*
X141637500Y-62500000D01*
X137762500Y-62500000D02*
X138700000Y-62500000D01*
X140200000Y-65437500D02*
X140200000Y-65000000D01*
X141200000Y-63000000D02*
X140700000Y-62500000D01*
X137762500Y-64500000D02*
X138700000Y-64500000D01*
X138438000Y-63000000D02*
X138938000Y-63500000D01*
X139700000Y-62738000D02*
X139700000Y-63500000D01*
X141637500Y-63000000D02*
X141851000Y-63000000D01*
X141200000Y-64000000D02*
X140700000Y-64500000D01*
X139200000Y-65000000D02*
X138700000Y-64500000D01*
X137549000Y-63000000D02*
X137033000Y-62484000D01*
X140200000Y-65000000D02*
X140700000Y-64500000D01*
X141637500Y-63000000D02*
X140962000Y-63000000D01*
X141637500Y-63000000D02*
X141200000Y-63000000D01*
X138200000Y-64000000D02*
X138700000Y-64500000D01*
X137762500Y-64000000D02*
X138200000Y-64000000D01*
X138438000Y-64000000D02*
X138938000Y-63500000D01*
X141637500Y-64000000D02*
X141851000Y-64000000D01*
X138700000Y-61562500D02*
X138700000Y-62500000D01*
X141637500Y-64000000D02*
X141200000Y-64000000D01*
X139700000Y-61562500D02*
X139700000Y-62738000D01*
X140962000Y-63000000D02*
X140462000Y-63500000D01*
X138200000Y-63000000D02*
X138700000Y-62500000D01*
X137762500Y-63000000D02*
X138438000Y-63000000D01*
X137549000Y-64000000D02*
X137033000Y-64516000D01*
X141851000Y-64000000D02*
X142367000Y-64516000D01*
X140962000Y-64000000D02*
X140462000Y-63500000D01*
X141851000Y-63000000D02*
X142367000Y-62484000D01*
X137762500Y-63000000D02*
X138200000Y-63000000D01*
X141637500Y-64500000D02*
X140700000Y-64500000D01*
X141637500Y-64000000D02*
X140962000Y-64000000D01*
X137762500Y-63000000D02*
X137549000Y-63000000D01*
X138700000Y-65437500D02*
X138700000Y-64500000D01*
X137762500Y-64000000D02*
X137549000Y-64000000D01*
X140700000Y-65437500D02*
X140700000Y-64500000D01*
X139200000Y-65437500D02*
X139200000Y-65000000D01*
D30*
%TO.N,Net-(J1-In)*%
X127550000Y-63500000D02*
X137240000Y-63500000D01*
D29*
X137762500Y-63500000D02*
X137240000Y-63500000D01*
%TO.N,Net-(J2-In)*%
X141637500Y-63500000D02*
X142140000Y-63500000D01*
D30*
X151850000Y-63500000D02*
X142140000Y-63500000D01*
%TD*%
%TA.AperFunction,Conductor*%
%TO.N,VD*%
G36*
X143453039Y-51074185D02*
G01*
X143498794Y-51126989D01*
X143510000Y-51178500D01*
X143510000Y-56010000D01*
X143490315Y-56077039D01*
X143437511Y-56122794D01*
X143386000Y-56134000D01*
X141094000Y-56134000D01*
X141026961Y-56114315D01*
X140981206Y-56061511D01*
X140970000Y-56010000D01*
X140970000Y-51178500D01*
X140989685Y-51111461D01*
X141042489Y-51065706D01*
X141094000Y-51054500D01*
X143386000Y-51054500D01*
X143453039Y-51074185D01*
G37*
%TD.AperFunction*%
%TD*%
%TA.AperFunction,Conductor*%
%TO.N,VG*%
G36*
X143440039Y-70885685D02*
G01*
X143485794Y-70938489D01*
X143497000Y-70990000D01*
X143497000Y-75821500D01*
X143477315Y-75888539D01*
X143424511Y-75934294D01*
X143373000Y-75945500D01*
X141081000Y-75945500D01*
X141013961Y-75925815D01*
X140968206Y-75873011D01*
X140957000Y-75821500D01*
X140957000Y-70990000D01*
X140976685Y-70922961D01*
X141029489Y-70877206D01*
X141081000Y-70866000D01*
X143373000Y-70866000D01*
X143440039Y-70885685D01*
G37*
%TD.AperFunction*%
%TD*%
%TA.AperFunction,Conductor*%
%TO.N,GND*%
G36*
X140398621Y-51074502D02*
G01*
X140445114Y-51128158D01*
X140456500Y-51180500D01*
X140456500Y-55588090D01*
X140436498Y-55656211D01*
X140419596Y-55677185D01*
X139735907Y-56360875D01*
X139591673Y-56505109D01*
X139591672Y-56505111D01*
X139478352Y-56674706D01*
X139400295Y-56863152D01*
X139400294Y-56863155D01*
X139360500Y-57063208D01*
X139360500Y-57886991D01*
X139400294Y-58087044D01*
X139400295Y-58087047D01*
X139478352Y-58275494D01*
X139481268Y-58280948D01*
X139479111Y-58282100D01*
X139495889Y-58330656D01*
X139498400Y-58362558D01*
X139498402Y-58362571D01*
X139520751Y-58439497D01*
X139520548Y-58510493D01*
X139481994Y-58570109D01*
X139417329Y-58599417D01*
X139384733Y-58599750D01*
X139374327Y-58598500D01*
X139374320Y-58598500D01*
X139341627Y-58598500D01*
X139309017Y-58594207D01*
X139269057Y-58583500D01*
X139110943Y-58583500D01*
X139110942Y-58583500D01*
X139070983Y-58594207D01*
X139038373Y-58598500D01*
X139009676Y-58598500D01*
X138922825Y-58608929D01*
X138784605Y-58663437D01*
X138666214Y-58753214D01*
X138576437Y-58871605D01*
X138521929Y-59009825D01*
X138511500Y-59096676D01*
X138511500Y-59521323D01*
X138521929Y-59608174D01*
X138579600Y-59754413D01*
X138577126Y-59755388D01*
X138589500Y-59802619D01*
X138589500Y-59836769D01*
X138580715Y-59882992D01*
X138529835Y-60012015D01*
X138529833Y-60012024D01*
X138519500Y-60098070D01*
X138519500Y-60551921D01*
X138519501Y-60551931D01*
X138529833Y-60637978D01*
X138583836Y-60774920D01*
X138583837Y-60774922D01*
X138672784Y-60892216D01*
X138790078Y-60981163D01*
X138927021Y-61035166D01*
X139013073Y-61045500D01*
X139366926Y-61045499D01*
X139452979Y-61035166D01*
X139502275Y-61015725D01*
X139572984Y-61009342D01*
X139635919Y-61042199D01*
X139671100Y-61103867D01*
X139674500Y-61132940D01*
X139674500Y-61968274D01*
X139677433Y-61999553D01*
X139723529Y-62131285D01*
X139723530Y-62131286D01*
X139723531Y-62131289D01*
X139806411Y-62243589D01*
X139918711Y-62326469D01*
X139918714Y-62326470D01*
X140050447Y-62372566D01*
X140050449Y-62372566D01*
X140050451Y-62372567D01*
X140081728Y-62375500D01*
X140081731Y-62375500D01*
X140318269Y-62375500D01*
X140318272Y-62375500D01*
X140349549Y-62372567D01*
X140349551Y-62372566D01*
X140349553Y-62372566D01*
X140415419Y-62349518D01*
X140481289Y-62326469D01*
X140593589Y-62243589D01*
X140676469Y-62131289D01*
X140722567Y-61999549D01*
X140725500Y-61968272D01*
X140725500Y-61156728D01*
X140725500Y-60936850D01*
X140745502Y-60868729D01*
X140751103Y-60860716D01*
X140816163Y-60774922D01*
X140870166Y-60637979D01*
X140880500Y-60551927D01*
X140880499Y-60151291D01*
X140900501Y-60083172D01*
X140954156Y-60036678D01*
X141021521Y-60026191D01*
X141049073Y-60029500D01*
X141402926Y-60029499D01*
X141449571Y-60023898D01*
X141519591Y-60035636D01*
X141572149Y-60083366D01*
X141585590Y-60113846D01*
X141616257Y-60219401D01*
X141699917Y-60360863D01*
X141699923Y-60360870D01*
X141816129Y-60477076D01*
X141816136Y-60477082D01*
X141957598Y-60560742D01*
X141957599Y-60560742D01*
X141957602Y-60560744D01*
X142115431Y-60606598D01*
X142152306Y-60609500D01*
X142152307Y-60609500D01*
X142933693Y-60609500D01*
X142933694Y-60609500D01*
X142970569Y-60606598D01*
X143128398Y-60560744D01*
X143269865Y-60477081D01*
X143386081Y-60360865D01*
X143469744Y-60219398D01*
X143515598Y-60061569D01*
X143518500Y-60024694D01*
X143518500Y-58593306D01*
X143515598Y-58556431D01*
X143469744Y-58398602D01*
X143469741Y-58398597D01*
X143386082Y-58257136D01*
X143386076Y-58257129D01*
X143269870Y-58140923D01*
X143269863Y-58140917D01*
X143128401Y-58057257D01*
X142970568Y-58011401D01*
X142936595Y-58008728D01*
X142933694Y-58008500D01*
X142152306Y-58008500D01*
X142149405Y-58008728D01*
X142115432Y-58011401D01*
X142115431Y-58011401D01*
X141957598Y-58057257D01*
X141816136Y-58140917D01*
X141816129Y-58140923D01*
X141699923Y-58257129D01*
X141699917Y-58257136D01*
X141616257Y-58398597D01*
X141585590Y-58504154D01*
X141547376Y-58563989D01*
X141482880Y-58593666D01*
X141449571Y-58594101D01*
X141402932Y-58588500D01*
X141402927Y-58588500D01*
X141395775Y-58588500D01*
X141327654Y-58568498D01*
X141281161Y-58514842D01*
X141271057Y-58444568D01*
X141274778Y-58427347D01*
X141283129Y-58398602D01*
X141293598Y-58362569D01*
X141296109Y-58330658D01*
X141312968Y-58282143D01*
X141310732Y-58280948D01*
X141313647Y-58275494D01*
X141313648Y-58275493D01*
X141391706Y-58087044D01*
X141431500Y-57886988D01*
X141431500Y-57646309D01*
X141451502Y-57578188D01*
X141468405Y-57557213D01*
X142341215Y-56684404D01*
X142403527Y-56650379D01*
X142430310Y-56647500D01*
X143385995Y-56647500D01*
X143386000Y-56647500D01*
X143495157Y-56635764D01*
X143546668Y-56624558D01*
X143650827Y-56589890D01*
X143773782Y-56510871D01*
X143773784Y-56510868D01*
X143773786Y-56510868D01*
X143800184Y-56487993D01*
X143826586Y-56465116D01*
X143922297Y-56354661D01*
X143983014Y-56221713D01*
X144002699Y-56154674D01*
X144002700Y-56154670D01*
X144023500Y-56010000D01*
X144023500Y-51180500D01*
X144043502Y-51112379D01*
X144097158Y-51065886D01*
X144149500Y-51054500D01*
X149180125Y-51054500D01*
X149221461Y-51054500D01*
X149228525Y-51054697D01*
X149544929Y-51072466D01*
X149558965Y-51074047D01*
X149867904Y-51126539D01*
X149881662Y-51129679D01*
X150182784Y-51216431D01*
X150196118Y-51221097D01*
X150485619Y-51341012D01*
X150498349Y-51347143D01*
X150772602Y-51498717D01*
X150784567Y-51506234D01*
X151040132Y-51687567D01*
X151051179Y-51696377D01*
X151284828Y-51905180D01*
X151294819Y-51915171D01*
X151503622Y-52148820D01*
X151512432Y-52159867D01*
X151693765Y-52415432D01*
X151701282Y-52427397D01*
X151852856Y-52701650D01*
X151858987Y-52714380D01*
X151978902Y-53003881D01*
X151983569Y-53017218D01*
X152070318Y-53318329D01*
X152073462Y-53332104D01*
X152125951Y-53641032D01*
X152127533Y-53655073D01*
X152145302Y-53971474D01*
X152145500Y-53978539D01*
X152145500Y-62793289D01*
X152125498Y-62861410D01*
X152071842Y-62907903D01*
X152001568Y-62918007D01*
X151986890Y-62914996D01*
X151929057Y-62899500D01*
X142060943Y-62899500D01*
X141908216Y-62940423D01*
X141908215Y-62940423D01*
X141908213Y-62940424D01*
X141878431Y-62957619D01*
X141815431Y-62974500D01*
X141231725Y-62974500D01*
X141200446Y-62977433D01*
X141068714Y-63023529D01*
X140956411Y-63106411D01*
X140873529Y-63218714D01*
X140827433Y-63350446D01*
X140824500Y-63381725D01*
X140824500Y-63618274D01*
X140827433Y-63649553D01*
X140873529Y-63781285D01*
X140873530Y-63781286D01*
X140873531Y-63781289D01*
X140956411Y-63893589D01*
X141068711Y-63976469D01*
X141068714Y-63976470D01*
X141200447Y-64022566D01*
X141200449Y-64022566D01*
X141200451Y-64022567D01*
X141231728Y-64025500D01*
X141568317Y-64025500D01*
X141815431Y-64025500D01*
X141878431Y-64042381D01*
X141908216Y-64059577D01*
X142060943Y-64100500D01*
X142060945Y-64100500D01*
X151929056Y-64100500D01*
X151929057Y-64100500D01*
X151986888Y-64085004D01*
X152057864Y-64086693D01*
X152116660Y-64126486D01*
X152144609Y-64191750D01*
X152145500Y-64206710D01*
X152145500Y-73021460D01*
X152145302Y-73028525D01*
X152127533Y-73344926D01*
X152125951Y-73358967D01*
X152073462Y-73667895D01*
X152070318Y-73681670D01*
X151983569Y-73982781D01*
X151978902Y-73996118D01*
X151858987Y-74285619D01*
X151852856Y-74298349D01*
X151701282Y-74572602D01*
X151693765Y-74584567D01*
X151512432Y-74840132D01*
X151503622Y-74851179D01*
X151294819Y-75084828D01*
X151284828Y-75094819D01*
X151051179Y-75303622D01*
X151040132Y-75312432D01*
X150784567Y-75493765D01*
X150772602Y-75501282D01*
X150498349Y-75652856D01*
X150485619Y-75658987D01*
X150196118Y-75778902D01*
X150182781Y-75783569D01*
X149881670Y-75870318D01*
X149867895Y-75873462D01*
X149558967Y-75925951D01*
X149544926Y-75927533D01*
X149228526Y-75945302D01*
X149221461Y-75945500D01*
X144136500Y-75945500D01*
X144068379Y-75925498D01*
X144021886Y-75871842D01*
X144010500Y-75819500D01*
X144010500Y-70990004D01*
X144010499Y-70989992D01*
X143998764Y-70880843D01*
X143987558Y-70829332D01*
X143952890Y-70725173D01*
X143873871Y-70602218D01*
X143873870Y-70602217D01*
X143873869Y-70602215D01*
X143873868Y-70602213D01*
X143828119Y-70549417D01*
X143717662Y-70453704D01*
X143717661Y-70453703D01*
X143584715Y-70392986D01*
X143517679Y-70373302D01*
X143517675Y-70373301D01*
X143517672Y-70373300D01*
X143517670Y-70373300D01*
X143373000Y-70352500D01*
X143372996Y-70352500D01*
X142415108Y-70352500D01*
X142346987Y-70332498D01*
X142326013Y-70315595D01*
X140685875Y-68675457D01*
X140653974Y-68621518D01*
X140639777Y-68572649D01*
X140639980Y-68501656D01*
X140678534Y-68442039D01*
X140743199Y-68412731D01*
X140760774Y-68411499D01*
X140894921Y-68411499D01*
X140894926Y-68411499D01*
X140941571Y-68405898D01*
X141011591Y-68417636D01*
X141064149Y-68465366D01*
X141077590Y-68495846D01*
X141099904Y-68572652D01*
X141108257Y-68601401D01*
X141191917Y-68742863D01*
X141191923Y-68742870D01*
X141308129Y-68859076D01*
X141308136Y-68859082D01*
X141449598Y-68942742D01*
X141449599Y-68942742D01*
X141449602Y-68942744D01*
X141607431Y-68988598D01*
X141644306Y-68991500D01*
X141644307Y-68991500D01*
X142425693Y-68991500D01*
X142425694Y-68991500D01*
X142462569Y-68988598D01*
X142620398Y-68942744D01*
X142761865Y-68859081D01*
X142878081Y-68742865D01*
X142961744Y-68601398D01*
X143007598Y-68443569D01*
X143010500Y-68406694D01*
X143010500Y-66975306D01*
X143007598Y-66938431D01*
X142961744Y-66780602D01*
X142878081Y-66639135D01*
X142878076Y-66639129D01*
X142761870Y-66522923D01*
X142761863Y-66522917D01*
X142620401Y-66439257D01*
X142462568Y-66393401D01*
X142428595Y-66390728D01*
X142425694Y-66390500D01*
X141644306Y-66390500D01*
X141641405Y-66390728D01*
X141607432Y-66393401D01*
X141607431Y-66393401D01*
X141449598Y-66439257D01*
X141308136Y-66522917D01*
X141308129Y-66522923D01*
X141191923Y-66639129D01*
X141191917Y-66639136D01*
X141108257Y-66780597D01*
X141077590Y-66886154D01*
X141039376Y-66945989D01*
X140974880Y-66975666D01*
X140941571Y-66976101D01*
X140894928Y-66970500D01*
X140541079Y-66970500D01*
X140524724Y-66972464D01*
X140513518Y-66973809D01*
X140443500Y-66962071D01*
X140390942Y-66914340D01*
X140372499Y-66848711D01*
X140372499Y-66448074D01*
X140362166Y-66362021D01*
X140308163Y-66225078D01*
X140308158Y-66225071D01*
X140251102Y-66149829D01*
X140225879Y-66083464D01*
X140225500Y-66073697D01*
X140225500Y-65031731D01*
X140225500Y-65031728D01*
X140222567Y-65000451D01*
X140222566Y-65000448D01*
X140222566Y-65000446D01*
X140176470Y-64868714D01*
X140176469Y-64868711D01*
X140093589Y-64756411D01*
X139981289Y-64673531D01*
X139981286Y-64673530D01*
X139981285Y-64673529D01*
X139849552Y-64627433D01*
X139849554Y-64627433D01*
X139818274Y-64624500D01*
X139818272Y-64624500D01*
X139581728Y-64624500D01*
X139581725Y-64624500D01*
X139550446Y-64627433D01*
X139418714Y-64673529D01*
X139306411Y-64756411D01*
X139223529Y-64868714D01*
X139177433Y-65000446D01*
X139174500Y-65031725D01*
X139174500Y-65870214D01*
X139154498Y-65938335D01*
X139100842Y-65984828D01*
X139030568Y-65994932D01*
X139002276Y-65987429D01*
X138944981Y-65964834D01*
X138944975Y-65964833D01*
X138858927Y-65954500D01*
X138505078Y-65954500D01*
X138505068Y-65954501D01*
X138419021Y-65964833D01*
X138282079Y-66018836D01*
X138164784Y-66107784D01*
X138075836Y-66225079D01*
X138021834Y-66362018D01*
X138021833Y-66362024D01*
X138011500Y-66448070D01*
X138011500Y-66901921D01*
X138011501Y-66901931D01*
X138021833Y-66987978D01*
X138071121Y-67112962D01*
X138077504Y-67183671D01*
X138054305Y-67235318D01*
X138040439Y-67253603D01*
X137985929Y-67391826D01*
X137975500Y-67478676D01*
X137975500Y-67903323D01*
X137985929Y-67990174D01*
X138040437Y-68128394D01*
X138130214Y-68246785D01*
X138189410Y-68291673D01*
X138248605Y-68336562D01*
X138386825Y-68391070D01*
X138386824Y-68391070D01*
X138414276Y-68394366D01*
X138473680Y-68401500D01*
X138473683Y-68401500D01*
X138764130Y-68401500D01*
X138832251Y-68421502D01*
X138878744Y-68475158D01*
X138888848Y-68545432D01*
X138885127Y-68562653D01*
X138863401Y-68637431D01*
X138863400Y-68637441D01*
X138860889Y-68669343D01*
X138844139Y-68717911D01*
X138846269Y-68719050D01*
X138843352Y-68724506D01*
X138765296Y-68912950D01*
X138765294Y-68912955D01*
X138725500Y-69113010D01*
X138725500Y-69316989D01*
X138765294Y-69517044D01*
X138765296Y-69517049D01*
X138843352Y-69705494D01*
X138846268Y-69710948D01*
X138844111Y-69712100D01*
X138860889Y-69760656D01*
X138863400Y-69792558D01*
X138863401Y-69792568D01*
X138909257Y-69950401D01*
X138992917Y-70091863D01*
X138992923Y-70091870D01*
X139109129Y-70208076D01*
X139109136Y-70208082D01*
X139250598Y-70291742D01*
X139250599Y-70291742D01*
X139250602Y-70291744D01*
X139392518Y-70332974D01*
X139446457Y-70364875D01*
X140406595Y-71325013D01*
X140440621Y-71387325D01*
X140443500Y-71414108D01*
X140443500Y-75819500D01*
X140423498Y-75887621D01*
X140369842Y-75934114D01*
X140317500Y-75945500D01*
X130178539Y-75945500D01*
X130171474Y-75945302D01*
X129855073Y-75927533D01*
X129841032Y-75925951D01*
X129532104Y-75873462D01*
X129518329Y-75870318D01*
X129217218Y-75783569D01*
X129203881Y-75778902D01*
X128914380Y-75658987D01*
X128901650Y-75652856D01*
X128627397Y-75501282D01*
X128615432Y-75493765D01*
X128359867Y-75312432D01*
X128348820Y-75303622D01*
X128115171Y-75094819D01*
X128105180Y-75084828D01*
X127896377Y-74851179D01*
X127887567Y-74840132D01*
X127706234Y-74584567D01*
X127698717Y-74572602D01*
X127547143Y-74298349D01*
X127541012Y-74285619D01*
X127421097Y-73996118D01*
X127416430Y-73982781D01*
X127329681Y-73681670D01*
X127326539Y-73667904D01*
X127274047Y-73358965D01*
X127272466Y-73344926D01*
X127254698Y-73028525D01*
X127254500Y-73021460D01*
X127254500Y-64206710D01*
X127274502Y-64138589D01*
X127328158Y-64092096D01*
X127398432Y-64081992D01*
X127413109Y-64085003D01*
X127470943Y-64100500D01*
X127470944Y-64100500D01*
X137319055Y-64100500D01*
X137319057Y-64100500D01*
X137471784Y-64059577D01*
X137501569Y-64042381D01*
X137564569Y-64025500D01*
X138168269Y-64025500D01*
X138168272Y-64025500D01*
X138199549Y-64022567D01*
X138199551Y-64022566D01*
X138199553Y-64022566D01*
X138265419Y-63999518D01*
X138331289Y-63976469D01*
X138443589Y-63893589D01*
X138526469Y-63781289D01*
X138572567Y-63649549D01*
X138575500Y-63618272D01*
X138575500Y-63381728D01*
X138572567Y-63350451D01*
X138572566Y-63350448D01*
X138572566Y-63350446D01*
X138526470Y-63218714D01*
X138526469Y-63218711D01*
X138443589Y-63106411D01*
X138331289Y-63023531D01*
X138331286Y-63023530D01*
X138331285Y-63023529D01*
X138199552Y-62977433D01*
X138199554Y-62977433D01*
X138168274Y-62974500D01*
X138168272Y-62974500D01*
X137831683Y-62974500D01*
X137564569Y-62974500D01*
X137501569Y-62957619D01*
X137471786Y-62940424D01*
X137471785Y-62940423D01*
X137471784Y-62940423D01*
X137319057Y-62899500D01*
X127470943Y-62899500D01*
X127470942Y-62899500D01*
X127413110Y-62914996D01*
X127342134Y-62913306D01*
X127283338Y-62873511D01*
X127255391Y-62808247D01*
X127254500Y-62793289D01*
X127254500Y-53978539D01*
X127254698Y-53971474D01*
X127272466Y-53655073D01*
X127274048Y-53641032D01*
X127302907Y-53471181D01*
X127326539Y-53332091D01*
X127329678Y-53318341D01*
X127416432Y-53017209D01*
X127421094Y-53003889D01*
X127541014Y-52714375D01*
X127547143Y-52701650D01*
X127698717Y-52427397D01*
X127706229Y-52415439D01*
X127887573Y-52159859D01*
X127896370Y-52148827D01*
X128105180Y-51915170D01*
X128115171Y-51905180D01*
X128348827Y-51696370D01*
X128359859Y-51687573D01*
X128615439Y-51506229D01*
X128627397Y-51498717D01*
X128901650Y-51347143D01*
X128914375Y-51341014D01*
X129203889Y-51221094D01*
X129217209Y-51216432D01*
X129518341Y-51129678D01*
X129532091Y-51126539D01*
X129841036Y-51074047D01*
X129855068Y-51072466D01*
X130171474Y-51054697D01*
X130178539Y-51054500D01*
X130219875Y-51054500D01*
X140330500Y-51054500D01*
X140398621Y-51074502D01*
G37*
%TD.AperFunction*%
%TD*%
M02*
