%TF.GenerationSoftware,KiCad,Pcbnew,8.0.1*%
%TF.CreationDate,2024-06-29T11:44:41-04:00*%
%TF.ProjectId,X-Band Amplifier QPA2598,582d4261-6e64-4204-916d-706c69666965,v1.0*%
%TF.SameCoordinates,Original*%
%TF.FileFunction,Paste,Top*%
%TF.FilePolarity,Positive*%
%FSLAX46Y46*%
G04 Gerber Fmt 4.6, Leading zero omitted, Abs format (unit mm)*
G04 Created by KiCad (PCBNEW 8.0.1) date 2024-06-29 11:44:41*
%MOMM*%
%LPD*%
G01*
G04 APERTURE LIST*
G04 Aperture macros list*
%AMRoundRect*
0 Rectangle with rounded corners*
0 $1 Rounding radius*
0 $2 $3 $4 $5 $6 $7 $8 $9 X,Y pos of 4 corners*
0 Add a 4 corners polygon primitive as box body*
4,1,4,$2,$3,$4,$5,$6,$7,$8,$9,$2,$3,0*
0 Add four circle primitives for the rounded corners*
1,1,$1+$1,$2,$3*
1,1,$1+$1,$4,$5*
1,1,$1+$1,$6,$7*
1,1,$1+$1,$8,$9*
0 Add four rect primitives between the rounded corners*
20,1,$1+$1,$2,$3,$4,$5,0*
20,1,$1+$1,$4,$5,$6,$7,0*
20,1,$1+$1,$6,$7,$8,$9,0*
20,1,$1+$1,$8,$9,$2,$3,0*%
G04 Aperture macros list end*
%ADD10RoundRect,0.135000X0.135000X0.185000X-0.135000X0.185000X-0.135000X-0.185000X0.135000X-0.185000X0*%
%ADD11RoundRect,0.135000X-0.135000X-0.185000X0.135000X-0.185000X0.135000X0.185000X-0.135000X0.185000X0*%
%ADD12RoundRect,0.250000X-0.325000X-0.650000X0.325000X-0.650000X0.325000X0.650000X-0.325000X0.650000X0*%
%ADD13RoundRect,0.250000X0.250000X0.475000X-0.250000X0.475000X-0.250000X-0.475000X0.250000X-0.475000X0*%
%ADD14RoundRect,0.250000X-0.250000X-0.475000X0.250000X-0.475000X0.250000X0.475000X-0.250000X0.475000X0*%
%ADD15RoundRect,0.250000X0.325000X0.650000X-0.325000X0.650000X-0.325000X-0.650000X0.325000X-0.650000X0*%
%ADD16RoundRect,0.087500X0.412500X-0.087500X0.412500X0.087500X-0.412500X0.087500X-0.412500X-0.087500X0*%
%ADD17R,5.500000X4.000000*%
%ADD18RoundRect,0.249999X-0.290001X-0.290001X0.290001X-0.290001X0.290001X0.290001X-0.290001X0.290001X0*%
%ADD19RoundRect,0.062500X-0.350000X-0.062500X0.350000X-0.062500X0.350000X0.062500X-0.350000X0.062500X0*%
%ADD20RoundRect,0.062500X-0.062500X-0.350000X0.062500X-0.350000X0.062500X0.350000X-0.062500X0.350000X0*%
%ADD21RoundRect,0.087500X-0.412500X0.087500X-0.412500X-0.087500X0.412500X-0.087500X0.412500X0.087500X0*%
%ADD22RoundRect,0.140000X0.140000X0.170000X-0.140000X0.170000X-0.140000X-0.170000X0.140000X-0.170000X0*%
%ADD23RoundRect,0.140000X-0.140000X-0.170000X0.140000X-0.170000X0.140000X0.170000X-0.140000X0.170000X0*%
G04 APERTURE END LIST*
D10*
%TO.C,R4*%
X140210000Y-60325000D03*
X139190000Y-60325000D03*
%TD*%
D11*
%TO.C,R3*%
X140206000Y-59309000D03*
X141226000Y-59309000D03*
%TD*%
%TO.C,R2*%
X138682000Y-66675000D03*
X139702000Y-66675000D03*
%TD*%
D10*
%TO.C,R1*%
X140718000Y-67691000D03*
X139698000Y-67691000D03*
%TD*%
D12*
%TO.C,C5*%
X142543000Y-59309000D03*
X145493000Y-59309000D03*
%TD*%
D13*
%TO.C,C4*%
X138496000Y-57785000D03*
X140396000Y-57785000D03*
%TD*%
D14*
%TO.C,C3*%
X137861000Y-69215000D03*
X139761000Y-69215000D03*
%TD*%
D15*
%TO.C,C1*%
X144985000Y-67691000D03*
X142035000Y-67691000D03*
%TD*%
D16*
%TO.C,J2*%
X151850000Y-63500000D03*
D17*
X149600000Y-66135000D03*
X149600000Y-60865000D03*
%TD*%
D18*
%TO.C,U1*%
X139075000Y-62875000D03*
X139075000Y-64125000D03*
X140325000Y-62875000D03*
X140325000Y-64125000D03*
D19*
X137762500Y-62500000D03*
X137762500Y-63000000D03*
X137762500Y-63500000D03*
X137762500Y-64000000D03*
X137762500Y-64500000D03*
D20*
X138700000Y-65437500D03*
X139200000Y-65437500D03*
X139700000Y-65437500D03*
X140200000Y-65437500D03*
X140700000Y-65437500D03*
D19*
X141637500Y-64500000D03*
X141637500Y-64000000D03*
X141637500Y-63500000D03*
X141637500Y-63000000D03*
X141637500Y-62500000D03*
D20*
X140700000Y-61562500D03*
X140200000Y-61562500D03*
X139700000Y-61562500D03*
X139200000Y-61562500D03*
X138700000Y-61562500D03*
%TD*%
D21*
%TO.C,J1*%
X127550000Y-63500000D03*
D17*
X129800000Y-60865000D03*
X129800000Y-66135000D03*
%TD*%
D22*
%TO.C,C6*%
X139192000Y-59309000D03*
X138232000Y-59309000D03*
%TD*%
D23*
%TO.C,C2*%
X137696000Y-67691000D03*
X138656000Y-67691000D03*
%TD*%
M02*
