%TF.GenerationSoftware,KiCad,Pcbnew,8.0.1*%
%TF.CreationDate,2024-06-29T11:44:41-04:00*%
%TF.ProjectId,X-Band Amplifier QPA2598,582d4261-6e64-4204-916d-706c69666965,v1.0*%
%TF.SameCoordinates,Original*%
%TF.FileFunction,Soldermask,Top*%
%TF.FilePolarity,Negative*%
%FSLAX46Y46*%
G04 Gerber Fmt 4.6, Leading zero omitted, Abs format (unit mm)*
G04 Created by KiCad (PCBNEW 8.0.1) date 2024-06-29 11:44:41*
%MOMM*%
%LPD*%
G01*
G04 APERTURE LIST*
G04 Aperture macros list*
%AMRoundRect*
0 Rectangle with rounded corners*
0 $1 Rounding radius*
0 $2 $3 $4 $5 $6 $7 $8 $9 X,Y pos of 4 corners*
0 Add a 4 corners polygon primitive as box body*
4,1,4,$2,$3,$4,$5,$6,$7,$8,$9,$2,$3,0*
0 Add four circle primitives for the rounded corners*
1,1,$1+$1,$2,$3*
1,1,$1+$1,$4,$5*
1,1,$1+$1,$6,$7*
1,1,$1+$1,$8,$9*
0 Add four rect primitives between the rounded corners*
20,1,$1+$1,$2,$3,$4,$5,0*
20,1,$1+$1,$4,$5,$6,$7,0*
20,1,$1+$1,$6,$7,$8,$9,0*
20,1,$1+$1,$8,$9,$2,$3,0*%
G04 Aperture macros list end*
%ADD10RoundRect,0.135000X0.135000X0.185000X-0.135000X0.185000X-0.135000X-0.185000X0.135000X-0.185000X0*%
%ADD11RoundRect,0.135000X-0.135000X-0.185000X0.135000X-0.185000X0.135000X0.185000X-0.135000X0.185000X0*%
%ADD12RoundRect,0.250000X-0.325000X-0.650000X0.325000X-0.650000X0.325000X0.650000X-0.325000X0.650000X0*%
%ADD13RoundRect,0.250000X0.250000X0.475000X-0.250000X0.475000X-0.250000X-0.475000X0.250000X-0.475000X0*%
%ADD14RoundRect,0.250000X-0.250000X-0.475000X0.250000X-0.475000X0.250000X0.475000X-0.250000X0.475000X0*%
%ADD15RoundRect,0.250000X0.325000X0.650000X-0.325000X0.650000X-0.325000X-0.650000X0.325000X-0.650000X0*%
%ADD16RoundRect,0.087500X0.412500X-0.087500X0.412500X0.087500X-0.412500X0.087500X-0.412500X-0.087500X0*%
%ADD17R,5.500000X4.000000*%
%ADD18RoundRect,0.062500X-0.350000X-0.062500X0.350000X-0.062500X0.350000X0.062500X-0.350000X0.062500X0*%
%ADD19RoundRect,0.062500X-0.062500X-0.350000X0.062500X-0.350000X0.062500X0.350000X-0.062500X0.350000X0*%
%ADD20R,2.500000X2.500000*%
%ADD21RoundRect,0.087500X-0.412500X0.087500X-0.412500X-0.087500X0.412500X-0.087500X0.412500X0.087500X0*%
%ADD22C,5.562600*%
%ADD23RoundRect,0.140000X0.140000X0.170000X-0.140000X0.170000X-0.140000X-0.170000X0.140000X-0.170000X0*%
%ADD24RoundRect,0.140000X-0.140000X-0.170000X0.140000X-0.170000X0.140000X0.170000X-0.140000X0.170000X0*%
G04 APERTURE END LIST*
D10*
%TO.C,R4*%
X140210000Y-60325000D03*
X139190000Y-60325000D03*
%TD*%
D11*
%TO.C,R3*%
X140206000Y-59309000D03*
X141226000Y-59309000D03*
%TD*%
%TO.C,R2*%
X138682000Y-66675000D03*
X139702000Y-66675000D03*
%TD*%
D10*
%TO.C,R1*%
X140718000Y-67691000D03*
X139698000Y-67691000D03*
%TD*%
D12*
%TO.C,C5*%
X142543000Y-59309000D03*
X145493000Y-59309000D03*
%TD*%
D13*
%TO.C,C4*%
X138496000Y-57785000D03*
X140396000Y-57785000D03*
%TD*%
D14*
%TO.C,C3*%
X137861000Y-69215000D03*
X139761000Y-69215000D03*
%TD*%
D15*
%TO.C,C1*%
X144985000Y-67691000D03*
X142035000Y-67691000D03*
%TD*%
D16*
%TO.C,J2*%
X151850000Y-63500000D03*
D17*
X149600000Y-66135000D03*
X149600000Y-60865000D03*
%TD*%
D18*
%TO.C,U1*%
X137762500Y-62500000D03*
X137762500Y-63000000D03*
X137762500Y-63500000D03*
X137762500Y-64000000D03*
X137762500Y-64500000D03*
D19*
X138700000Y-65437500D03*
X139200000Y-65437500D03*
X139700000Y-65437500D03*
X140200000Y-65437500D03*
X140700000Y-65437500D03*
D18*
X141637500Y-64500000D03*
X141637500Y-64000000D03*
X141637500Y-63500000D03*
X141637500Y-63000000D03*
X141637500Y-62500000D03*
D19*
X140700000Y-61562500D03*
X140200000Y-61562500D03*
X139700000Y-61562500D03*
X139200000Y-61562500D03*
X138700000Y-61562500D03*
D20*
X139700000Y-63500000D03*
%TD*%
D21*
%TO.C,J1*%
X127550000Y-63500000D03*
D17*
X129800000Y-60865000D03*
X129800000Y-66135000D03*
%TD*%
D22*
%TO.C,H2*%
X149225000Y-53975000D03*
%TD*%
%TO.C,H3*%
X130175000Y-73025000D03*
%TD*%
D23*
%TO.C,C6*%
X139192000Y-59309000D03*
X138232000Y-59309000D03*
%TD*%
D22*
%TO.C,H4*%
X149225000Y-73025000D03*
%TD*%
%TO.C,H1*%
X130175000Y-53975000D03*
%TD*%
D24*
%TO.C,C2*%
X137696000Y-67691000D03*
X138656000Y-67691000D03*
%TD*%
G36*
X143453039Y-51073685D02*
G01*
X143498794Y-51126489D01*
X143510000Y-51178000D01*
X143510000Y-56010000D01*
X143490315Y-56077039D01*
X143437511Y-56122794D01*
X143386000Y-56134000D01*
X141094000Y-56134000D01*
X141026961Y-56114315D01*
X140981206Y-56061511D01*
X140970000Y-56010000D01*
X140970000Y-51178000D01*
X140989685Y-51110961D01*
X141042489Y-51065206D01*
X141094000Y-51054000D01*
X143386000Y-51054000D01*
X143453039Y-51073685D01*
G37*
G36*
X136975121Y-61488002D02*
G01*
X137021614Y-61541658D01*
X137033000Y-61594000D01*
X137033000Y-65406000D01*
X137012998Y-65474121D01*
X136959342Y-65520614D01*
X136907000Y-65532000D01*
X133349000Y-65532000D01*
X133280879Y-65511998D01*
X133234386Y-65458342D01*
X133223000Y-65406000D01*
X133223000Y-64135000D01*
X128904000Y-64135000D01*
X128835879Y-64114998D01*
X128789386Y-64061342D01*
X128778000Y-64009000D01*
X128778000Y-62991000D01*
X128798002Y-62922879D01*
X128851658Y-62876386D01*
X128904000Y-62865000D01*
X133223000Y-62865000D01*
X133223000Y-61594000D01*
X133243002Y-61525879D01*
X133296658Y-61479386D01*
X133349000Y-61468000D01*
X136907000Y-61468000D01*
X136975121Y-61488002D01*
G37*
G36*
X146119121Y-61488002D02*
G01*
X146165614Y-61541658D01*
X146177000Y-61594000D01*
X146177000Y-62865000D01*
X150496000Y-62865000D01*
X150564121Y-62885002D01*
X150610614Y-62938658D01*
X150622000Y-62991000D01*
X150622000Y-64009000D01*
X150601998Y-64077121D01*
X150548342Y-64123614D01*
X150496000Y-64135000D01*
X146177000Y-64135000D01*
X146177000Y-65406000D01*
X146156998Y-65474121D01*
X146103342Y-65520614D01*
X146051000Y-65532000D01*
X142493000Y-65532000D01*
X142424879Y-65511998D01*
X142378386Y-65458342D01*
X142367000Y-65406000D01*
X142367000Y-61594000D01*
X142387002Y-61525879D01*
X142440658Y-61479386D01*
X142493000Y-61468000D01*
X146051000Y-61468000D01*
X146119121Y-61488002D01*
G37*
G36*
X143580039Y-70885685D02*
G01*
X143625794Y-70938489D01*
X143637000Y-70990000D01*
X143637000Y-75822000D01*
X143617315Y-75889039D01*
X143564511Y-75934794D01*
X143513000Y-75946000D01*
X141221000Y-75946000D01*
X141153961Y-75926315D01*
X141108206Y-75873511D01*
X141097000Y-75822000D01*
X141097000Y-70990000D01*
X141116685Y-70922961D01*
X141169489Y-70877206D01*
X141221000Y-70866000D01*
X143513000Y-70866000D01*
X143580039Y-70885685D01*
G37*
G36*
X138373039Y-51073685D02*
G01*
X138418794Y-51126489D01*
X138430000Y-51178000D01*
X138430000Y-56010000D01*
X138410315Y-56077039D01*
X138357511Y-56122794D01*
X138306000Y-56134000D01*
X136014000Y-56134000D01*
X135946961Y-56114315D01*
X135901206Y-56061511D01*
X135890000Y-56010000D01*
X135890000Y-51178000D01*
X135909685Y-51110961D01*
X135962489Y-51065206D01*
X136014000Y-51054000D01*
X138306000Y-51054000D01*
X138373039Y-51073685D01*
G37*
G36*
X138373039Y-70885685D02*
G01*
X138418794Y-70938489D01*
X138430000Y-70990000D01*
X138430000Y-75822000D01*
X138410315Y-75889039D01*
X138357511Y-75934794D01*
X138306000Y-75946000D01*
X136014000Y-75946000D01*
X135946961Y-75926315D01*
X135901206Y-75873511D01*
X135890000Y-75822000D01*
X135890000Y-70990000D01*
X135909685Y-70922961D01*
X135962489Y-70877206D01*
X136014000Y-70866000D01*
X138306000Y-70866000D01*
X138373039Y-70885685D01*
G37*
M02*
