M48
; DRILL file {KiCad 8.0.1} date 2024-06-29T11:44:44-0400
; FORMAT={-:-/ absolute / inch / decimal}
; #@! TF.CreationDate,2024-06-29T11:44:44-04:00
; #@! TF.GenerationSoftware,Kicad,Pcbnew,8.0.1
; #@! TF.FileFunction,Plated,1,4,PTH
FMAT,2
INCH
; #@! TA.AperFunction,Plated,PTH,ViaDrill
T1C0.0079
; #@! TA.AperFunction,Plated,PTH,ComponentDrill
T2C0.0079
; #@! TA.AperFunction,Plated,PTH,ViaDrill
T3C0.0118
; #@! TA.AperFunction,Plated,PTH,ComponentDrill
T4C0.1285
%
G90
G05
T1
X5.4602Y-2.4803
X5.4606Y-2.5
X5.4606Y-2.5197
X5.4799Y-2.4803
X5.4803Y-2.4606
X5.4803Y-2.5
X5.4803Y-2.5197
X5.4803Y-2.5394
X5.4996Y-2.4803
X5.5Y-2.4606
X5.5Y-2.5
X5.5Y-2.5197
X5.5Y-2.5394
X5.5193Y-2.4803
X5.5197Y-2.4606
X5.5197Y-2.5
X5.5197Y-2.5197
X5.5197Y-2.5394
X5.539Y-2.4803
X5.5394Y-2.5
X5.5394Y-2.5197
T2
X5.4606Y-2.4606
X5.4606Y-2.5394
X5.5394Y-2.4606
X5.5394Y-2.5394
T3
X5.02Y-2.46
X5.02Y-2.54
X5.03Y-2.435
X5.03Y-2.565
X5.045Y-2.46
X5.045Y-2.54
X5.055Y-2.435
X5.055Y-2.565
X5.07Y-2.46
X5.07Y-2.54
X5.08Y-2.435
X5.08Y-2.565
X5.095Y-2.46
X5.095Y-2.54
X5.105Y-2.435
X5.105Y-2.565
X5.12Y-2.46
X5.12Y-2.54
X5.12Y-2.725
X5.13Y-2.435
X5.13Y-2.565
X5.145Y-2.46
X5.145Y-2.54
X5.155Y-2.435
X5.155Y-2.565
X5.17Y-2.46
X5.17Y-2.54
X5.18Y-2.435
X5.18Y-2.565
X5.195Y-2.46
X5.195Y-2.54
X5.205Y-2.27
X5.205Y-2.435
X5.205Y-2.565
X5.21Y-2.76
X5.22Y-2.46
X5.22Y-2.54
X5.23Y-2.435
X5.23Y-2.565
X5.245Y-2.46
X5.245Y-2.54
X5.25Y-2.4
X5.255Y-2.435
X5.255Y-2.565
X5.255Y-2.615
X5.27Y-2.46
X5.27Y-2.54
X5.28Y-2.3
X5.28Y-2.435
X5.28Y-2.565
X5.285Y-2.215
X5.285Y-2.365
X5.285Y-2.825
X5.285Y-2.935
X5.295Y-2.06
X5.295Y-2.46
X5.295Y-2.54
X5.305Y-2.435
X5.305Y-2.565
X5.305Y-2.615
X5.305Y-2.68
X5.31Y-2.4
X5.32Y-2.46
X5.32Y-2.54
X5.33Y-2.435
X5.33Y-2.565
X5.345Y-2.46
X5.345Y-2.54
X5.35Y-2.27
X5.35Y-2.335
X5.355Y-2.435
X5.355Y-2.565
X5.355Y-2.615
X5.355Y-2.765
X5.36Y-2.4
X5.37Y-2.46
X5.37Y-2.54
X5.38Y-2.435
X5.38Y-2.565
X5.385Y-2.725
X5.39Y-2.385
X5.39Y-2.665
X5.395Y-2.46
X5.395Y-2.54
X5.4Y-2.59
X5.405Y-2.275
X5.41Y-2.33
X5.415Y-2.625
X5.425Y-2.6
X5.43Y-2.77
X5.435Y-2.37
X5.437Y-2.4358
X5.4386Y-2.5606
X5.49Y-2.055
X5.49Y-2.12
X5.49Y-2.175
X5.495Y-2.85
X5.495Y-2.91
X5.495Y-2.96
X5.539Y-2.6067
X5.561Y-2.5614
X5.565Y-2.4
X5.565Y-2.4378
X5.566Y-2.599
X5.59Y-2.4
X5.59Y-2.6
X5.605Y-2.46
X5.605Y-2.54
X5.615Y-2.435
X5.615Y-2.565
X5.62Y-2.4
X5.62Y-2.6
X5.63Y-2.46
X5.63Y-2.54
X5.635Y-2.26
X5.64Y-2.435
X5.64Y-2.565
X5.655Y-2.4
X5.655Y-2.46
X5.655Y-2.54
X5.66Y-2.6
X5.66Y-2.665
X5.665Y-2.435
X5.665Y-2.565
X5.68Y-2.335
X5.68Y-2.46
X5.68Y-2.54
X5.69Y-2.435
X5.69Y-2.565
X5.695Y-2.4
X5.705Y-2.46
X5.705Y-2.54
X5.705Y-2.6
X5.705Y-2.73
X5.715Y-2.05
X5.715Y-2.18
X5.715Y-2.435
X5.715Y-2.565
X5.715Y-2.815
X5.72Y-2.95
X5.73Y-2.27
X5.73Y-2.46
X5.73Y-2.54
X5.735Y-2.4
X5.74Y-2.435
X5.74Y-2.565
X5.745Y-2.6
X5.755Y-2.46
X5.755Y-2.54
X5.755Y-2.665
X5.765Y-2.435
X5.765Y-2.565
X5.78Y-2.46
X5.78Y-2.54
X5.785Y-2.74
X5.79Y-2.275
X5.79Y-2.435
X5.79Y-2.565
X5.805Y-2.46
X5.805Y-2.54
X5.815Y-2.435
X5.815Y-2.565
X5.83Y-2.46
X5.83Y-2.54
X5.84Y-2.435
X5.84Y-2.565
X5.855Y-2.46
X5.855Y-2.54
X5.865Y-2.435
X5.865Y-2.565
X5.88Y-2.46
X5.88Y-2.54
X5.89Y-2.435
X5.89Y-2.565
X5.905Y-2.46
X5.905Y-2.54
X5.915Y-2.435
X5.915Y-2.565
X5.93Y-2.46
X5.93Y-2.54
X5.94Y-2.435
X5.94Y-2.565
X5.955Y-2.46
X5.955Y-2.54
X5.965Y-2.435
X5.965Y-2.565
X5.98Y-2.46
X5.98Y-2.54
T4
X5.125Y-2.125
X5.125Y-2.875
X5.875Y-2.125
X5.875Y-2.875
M30
