%TF.GenerationSoftware,KiCad,Pcbnew,8.0.1*%
%TF.CreationDate,2024-06-29T11:44:41-04:00*%
%TF.ProjectId,X-Band Amplifier QPA2598,582d4261-6e64-4204-916d-706c69666965,v1.0*%
%TF.SameCoordinates,Original*%
%TF.FileFunction,Soldermask,Bot*%
%TF.FilePolarity,Negative*%
%FSLAX46Y46*%
G04 Gerber Fmt 4.6, Leading zero omitted, Abs format (unit mm)*
G04 Created by KiCad (PCBNEW 8.0.1) date 2024-06-29 11:44:41*
%MOMM*%
%LPD*%
G01*
G04 APERTURE LIST*
%ADD10R,3.000000X8.000000*%
%ADD11C,5.562600*%
G04 APERTURE END LIST*
D10*
%TO.C,J2*%
X150850000Y-63500000D03*
%TD*%
%TO.C,J1*%
X128550000Y-63500000D03*
%TD*%
D11*
%TO.C,H2*%
X149225000Y-53975000D03*
%TD*%
%TO.C,H3*%
X130175000Y-73025000D03*
%TD*%
%TO.C,H4*%
X149225000Y-73025000D03*
%TD*%
%TO.C,H1*%
X130175000Y-53975000D03*
%TD*%
G36*
X149225856Y-50800012D02*
G01*
X149396974Y-50802410D01*
X149409315Y-50803190D01*
X149750220Y-50841600D01*
X149764151Y-50843967D01*
X150097751Y-50920110D01*
X150111328Y-50924022D01*
X150434297Y-51037033D01*
X150447351Y-51042440D01*
X150755641Y-51190905D01*
X150768008Y-51197740D01*
X151057733Y-51379786D01*
X151069257Y-51387962D01*
X151336791Y-51601314D01*
X151347326Y-51610730D01*
X151589269Y-51852673D01*
X151598685Y-51863208D01*
X151812037Y-52130742D01*
X151820213Y-52142266D01*
X152002259Y-52431991D01*
X152009094Y-52444358D01*
X152157559Y-52752648D01*
X152162966Y-52765702D01*
X152275977Y-53088671D01*
X152279889Y-53102248D01*
X152356032Y-53435848D01*
X152358399Y-53449779D01*
X152396809Y-53790684D01*
X152397589Y-53803025D01*
X152399988Y-53974143D01*
X152400000Y-53975909D01*
X152400000Y-73024090D01*
X152399988Y-73025856D01*
X152397589Y-73196974D01*
X152396809Y-73209315D01*
X152358399Y-73550220D01*
X152356032Y-73564151D01*
X152279889Y-73897751D01*
X152275977Y-73911328D01*
X152162966Y-74234297D01*
X152157559Y-74247351D01*
X152009094Y-74555641D01*
X152002259Y-74568008D01*
X151820213Y-74857733D01*
X151812037Y-74869257D01*
X151598685Y-75136791D01*
X151589269Y-75147326D01*
X151347326Y-75389269D01*
X151336791Y-75398685D01*
X151069257Y-75612037D01*
X151057733Y-75620213D01*
X150768008Y-75802259D01*
X150755641Y-75809094D01*
X150447351Y-75957559D01*
X150434297Y-75962966D01*
X150111328Y-76075977D01*
X150097751Y-76079889D01*
X149764151Y-76156032D01*
X149750220Y-76158399D01*
X149409315Y-76196809D01*
X149396974Y-76197589D01*
X149225856Y-76199988D01*
X149224090Y-76200000D01*
X130175910Y-76200000D01*
X130174144Y-76199988D01*
X130003025Y-76197589D01*
X129990684Y-76196809D01*
X129649779Y-76158399D01*
X129635848Y-76156032D01*
X129302248Y-76079889D01*
X129288671Y-76075977D01*
X128965702Y-75962966D01*
X128952648Y-75957559D01*
X128644358Y-75809094D01*
X128631991Y-75802259D01*
X128342266Y-75620213D01*
X128330742Y-75612037D01*
X128063208Y-75398685D01*
X128052673Y-75389269D01*
X127810730Y-75147326D01*
X127801314Y-75136791D01*
X127587962Y-74869257D01*
X127579786Y-74857733D01*
X127397740Y-74568008D01*
X127390905Y-74555641D01*
X127242440Y-74247351D01*
X127237033Y-74234297D01*
X127124022Y-73911328D01*
X127120110Y-73897751D01*
X127043967Y-73564151D01*
X127041600Y-73550220D01*
X127003190Y-73209315D01*
X127002410Y-73196974D01*
X127000012Y-73025856D01*
X127000000Y-73024090D01*
X127000000Y-53975909D01*
X127000012Y-53974143D01*
X127002410Y-53803025D01*
X127003190Y-53790684D01*
X127041600Y-53449779D01*
X127043967Y-53435848D01*
X127120110Y-53102248D01*
X127124022Y-53088671D01*
X127237033Y-52765702D01*
X127242440Y-52752648D01*
X127390905Y-52444358D01*
X127397740Y-52431991D01*
X127579786Y-52142266D01*
X127587962Y-52130742D01*
X127801314Y-51863208D01*
X127810730Y-51852673D01*
X128052673Y-51610730D01*
X128063208Y-51601314D01*
X128330742Y-51387962D01*
X128342266Y-51379786D01*
X128631991Y-51197740D01*
X128644358Y-51190905D01*
X128952648Y-51042440D01*
X128965702Y-51037033D01*
X129288671Y-50924022D01*
X129302248Y-50920110D01*
X129635848Y-50843967D01*
X129649779Y-50841600D01*
X129990684Y-50803190D01*
X130003025Y-50802410D01*
X130174144Y-50800012D01*
X130175910Y-50800000D01*
X149224090Y-50800000D01*
X149225856Y-50800012D01*
G37*
M02*
