%TF.GenerationSoftware,KiCad,Pcbnew,8.0.1*%
%TF.CreationDate,2024-06-29T11:44:41-04:00*%
%TF.ProjectId,X-Band Amplifier QPA2598,582d4261-6e64-4204-916d-706c69666965,v1.0*%
%TF.SameCoordinates,Original*%
%TF.FileFunction,Legend,Top*%
%TF.FilePolarity,Positive*%
%FSLAX46Y46*%
G04 Gerber Fmt 4.6, Leading zero omitted, Abs format (unit mm)*
G04 Created by KiCad (PCBNEW 8.0.1) date 2024-06-29 11:44:41*
%MOMM*%
%LPD*%
G01*
G04 APERTURE LIST*
%ADD10C,0.080000*%
%ADD11C,0.100000*%
%ADD12C,0.120000*%
G04 APERTURE END LIST*
D10*
X145534297Y-70076173D02*
X145934297Y-70076173D01*
X145734297Y-70776173D02*
X145734297Y-70076173D01*
X146167630Y-70776173D02*
X146167630Y-70076173D01*
X146567630Y-70776173D02*
X146267630Y-70376173D01*
X146567630Y-70076173D02*
X146167630Y-70476173D01*
D11*
X140589000Y-68199000D02*
X140970000Y-68707000D01*
X141097000Y-58737500D02*
X141478000Y-58166000D01*
D10*
X132994631Y-70436506D02*
X133161297Y-70903173D01*
X133161297Y-70903173D02*
X133327964Y-70436506D01*
X133961297Y-70903173D02*
X133561297Y-70903173D01*
X133761297Y-70903173D02*
X133761297Y-70203173D01*
X133761297Y-70203173D02*
X133694630Y-70303173D01*
X133694630Y-70303173D02*
X133627964Y-70369840D01*
X133627964Y-70369840D02*
X133561297Y-70403173D01*
X134261297Y-70836506D02*
X134294631Y-70869840D01*
X134294631Y-70869840D02*
X134261297Y-70903173D01*
X134261297Y-70903173D02*
X134227964Y-70869840D01*
X134227964Y-70869840D02*
X134261297Y-70836506D01*
X134261297Y-70836506D02*
X134261297Y-70903173D01*
X134727964Y-70203173D02*
X134794630Y-70203173D01*
X134794630Y-70203173D02*
X134861297Y-70236506D01*
X134861297Y-70236506D02*
X134894630Y-70269840D01*
X134894630Y-70269840D02*
X134927964Y-70336506D01*
X134927964Y-70336506D02*
X134961297Y-70469840D01*
X134961297Y-70469840D02*
X134961297Y-70636506D01*
X134961297Y-70636506D02*
X134927964Y-70769840D01*
X134927964Y-70769840D02*
X134894630Y-70836506D01*
X134894630Y-70836506D02*
X134861297Y-70869840D01*
X134861297Y-70869840D02*
X134794630Y-70903173D01*
X134794630Y-70903173D02*
X134727964Y-70903173D01*
X134727964Y-70903173D02*
X134661297Y-70869840D01*
X134661297Y-70869840D02*
X134627964Y-70836506D01*
X134627964Y-70836506D02*
X134594630Y-70769840D01*
X134594630Y-70769840D02*
X134561297Y-70636506D01*
X134561297Y-70636506D02*
X134561297Y-70469840D01*
X134561297Y-70469840D02*
X134594630Y-70336506D01*
X134594630Y-70336506D02*
X134627964Y-70269840D01*
X134627964Y-70269840D02*
X134661297Y-70236506D01*
X134661297Y-70236506D02*
X134727964Y-70203173D01*
X147762333Y-69445840D02*
X147695666Y-69412506D01*
X147695666Y-69412506D02*
X147629000Y-69345840D01*
X147629000Y-69345840D02*
X147529000Y-69245840D01*
X147529000Y-69245840D02*
X147462333Y-69212506D01*
X147462333Y-69212506D02*
X147395666Y-69212506D01*
X147429000Y-69379173D02*
X147362333Y-69345840D01*
X147362333Y-69345840D02*
X147295666Y-69279173D01*
X147295666Y-69279173D02*
X147262333Y-69145840D01*
X147262333Y-69145840D02*
X147262333Y-68912506D01*
X147262333Y-68912506D02*
X147295666Y-68779173D01*
X147295666Y-68779173D02*
X147362333Y-68712506D01*
X147362333Y-68712506D02*
X147429000Y-68679173D01*
X147429000Y-68679173D02*
X147562333Y-68679173D01*
X147562333Y-68679173D02*
X147629000Y-68712506D01*
X147629000Y-68712506D02*
X147695666Y-68779173D01*
X147695666Y-68779173D02*
X147729000Y-68912506D01*
X147729000Y-68912506D02*
X147729000Y-69145840D01*
X147729000Y-69145840D02*
X147695666Y-69279173D01*
X147695666Y-69279173D02*
X147629000Y-69345840D01*
X147629000Y-69345840D02*
X147562333Y-69379173D01*
X147562333Y-69379173D02*
X147429000Y-69379173D01*
X148028999Y-69379173D02*
X148028999Y-68679173D01*
X148028999Y-68679173D02*
X148295666Y-68679173D01*
X148295666Y-68679173D02*
X148362333Y-68712506D01*
X148362333Y-68712506D02*
X148395666Y-68745840D01*
X148395666Y-68745840D02*
X148428999Y-68812506D01*
X148428999Y-68812506D02*
X148428999Y-68912506D01*
X148428999Y-68912506D02*
X148395666Y-68979173D01*
X148395666Y-68979173D02*
X148362333Y-69012506D01*
X148362333Y-69012506D02*
X148295666Y-69045840D01*
X148295666Y-69045840D02*
X148028999Y-69045840D01*
X148695666Y-69179173D02*
X149028999Y-69179173D01*
X148628999Y-69379173D02*
X148862333Y-68679173D01*
X148862333Y-68679173D02*
X149095666Y-69379173D01*
X149295666Y-68745840D02*
X149328999Y-68712506D01*
X149328999Y-68712506D02*
X149395666Y-68679173D01*
X149395666Y-68679173D02*
X149562333Y-68679173D01*
X149562333Y-68679173D02*
X149628999Y-68712506D01*
X149628999Y-68712506D02*
X149662333Y-68745840D01*
X149662333Y-68745840D02*
X149695666Y-68812506D01*
X149695666Y-68812506D02*
X149695666Y-68879173D01*
X149695666Y-68879173D02*
X149662333Y-68979173D01*
X149662333Y-68979173D02*
X149262333Y-69379173D01*
X149262333Y-69379173D02*
X149695666Y-69379173D01*
X150329000Y-68679173D02*
X149995666Y-68679173D01*
X149995666Y-68679173D02*
X149962333Y-69012506D01*
X149962333Y-69012506D02*
X149995666Y-68979173D01*
X149995666Y-68979173D02*
X150062333Y-68945840D01*
X150062333Y-68945840D02*
X150229000Y-68945840D01*
X150229000Y-68945840D02*
X150295666Y-68979173D01*
X150295666Y-68979173D02*
X150329000Y-69012506D01*
X150329000Y-69012506D02*
X150362333Y-69079173D01*
X150362333Y-69079173D02*
X150362333Y-69245840D01*
X150362333Y-69245840D02*
X150329000Y-69312506D01*
X150329000Y-69312506D02*
X150295666Y-69345840D01*
X150295666Y-69345840D02*
X150229000Y-69379173D01*
X150229000Y-69379173D02*
X150062333Y-69379173D01*
X150062333Y-69379173D02*
X149995666Y-69345840D01*
X149995666Y-69345840D02*
X149962333Y-69312506D01*
X150695667Y-69379173D02*
X150829000Y-69379173D01*
X150829000Y-69379173D02*
X150895667Y-69345840D01*
X150895667Y-69345840D02*
X150929000Y-69312506D01*
X150929000Y-69312506D02*
X150995667Y-69212506D01*
X150995667Y-69212506D02*
X151029000Y-69079173D01*
X151029000Y-69079173D02*
X151029000Y-68812506D01*
X151029000Y-68812506D02*
X150995667Y-68745840D01*
X150995667Y-68745840D02*
X150962333Y-68712506D01*
X150962333Y-68712506D02*
X150895667Y-68679173D01*
X150895667Y-68679173D02*
X150762333Y-68679173D01*
X150762333Y-68679173D02*
X150695667Y-68712506D01*
X150695667Y-68712506D02*
X150662333Y-68745840D01*
X150662333Y-68745840D02*
X150629000Y-68812506D01*
X150629000Y-68812506D02*
X150629000Y-68979173D01*
X150629000Y-68979173D02*
X150662333Y-69045840D01*
X150662333Y-69045840D02*
X150695667Y-69079173D01*
X150695667Y-69079173D02*
X150762333Y-69112506D01*
X150762333Y-69112506D02*
X150895667Y-69112506D01*
X150895667Y-69112506D02*
X150962333Y-69079173D01*
X150962333Y-69079173D02*
X150995667Y-69045840D01*
X150995667Y-69045840D02*
X151029000Y-68979173D01*
X151429000Y-68979173D02*
X151362334Y-68945840D01*
X151362334Y-68945840D02*
X151329000Y-68912506D01*
X151329000Y-68912506D02*
X151295667Y-68845840D01*
X151295667Y-68845840D02*
X151295667Y-68812506D01*
X151295667Y-68812506D02*
X151329000Y-68745840D01*
X151329000Y-68745840D02*
X151362334Y-68712506D01*
X151362334Y-68712506D02*
X151429000Y-68679173D01*
X151429000Y-68679173D02*
X151562334Y-68679173D01*
X151562334Y-68679173D02*
X151629000Y-68712506D01*
X151629000Y-68712506D02*
X151662334Y-68745840D01*
X151662334Y-68745840D02*
X151695667Y-68812506D01*
X151695667Y-68812506D02*
X151695667Y-68845840D01*
X151695667Y-68845840D02*
X151662334Y-68912506D01*
X151662334Y-68912506D02*
X151629000Y-68945840D01*
X151629000Y-68945840D02*
X151562334Y-68979173D01*
X151562334Y-68979173D02*
X151429000Y-68979173D01*
X151429000Y-68979173D02*
X151362334Y-69012506D01*
X151362334Y-69012506D02*
X151329000Y-69045840D01*
X151329000Y-69045840D02*
X151295667Y-69112506D01*
X151295667Y-69112506D02*
X151295667Y-69245840D01*
X151295667Y-69245840D02*
X151329000Y-69312506D01*
X151329000Y-69312506D02*
X151362334Y-69345840D01*
X151362334Y-69345840D02*
X151429000Y-69379173D01*
X151429000Y-69379173D02*
X151562334Y-69379173D01*
X151562334Y-69379173D02*
X151629000Y-69345840D01*
X151629000Y-69345840D02*
X151662334Y-69312506D01*
X151662334Y-69312506D02*
X151695667Y-69245840D01*
X151695667Y-69245840D02*
X151695667Y-69112506D01*
X151695667Y-69112506D02*
X151662334Y-69045840D01*
X151662334Y-69045840D02*
X151629000Y-69012506D01*
X151629000Y-69012506D02*
X151562334Y-68979173D01*
X133959667Y-72903506D02*
X133893000Y-72870173D01*
X133893000Y-72870173D02*
X133793000Y-72870173D01*
X133793000Y-72870173D02*
X133693000Y-72903506D01*
X133693000Y-72903506D02*
X133626334Y-72970173D01*
X133626334Y-72970173D02*
X133593000Y-73036840D01*
X133593000Y-73036840D02*
X133559667Y-73170173D01*
X133559667Y-73170173D02*
X133559667Y-73270173D01*
X133559667Y-73270173D02*
X133593000Y-73403506D01*
X133593000Y-73403506D02*
X133626334Y-73470173D01*
X133626334Y-73470173D02*
X133693000Y-73536840D01*
X133693000Y-73536840D02*
X133793000Y-73570173D01*
X133793000Y-73570173D02*
X133859667Y-73570173D01*
X133859667Y-73570173D02*
X133959667Y-73536840D01*
X133959667Y-73536840D02*
X133993000Y-73503506D01*
X133993000Y-73503506D02*
X133993000Y-73270173D01*
X133993000Y-73270173D02*
X133859667Y-73270173D01*
X134293000Y-73570173D02*
X134293000Y-72870173D01*
X134293000Y-72870173D02*
X134693000Y-73570173D01*
X134693000Y-73570173D02*
X134693000Y-72870173D01*
X135026333Y-73570173D02*
X135026333Y-72870173D01*
X135026333Y-72870173D02*
X135193000Y-72870173D01*
X135193000Y-72870173D02*
X135293000Y-72903506D01*
X135293000Y-72903506D02*
X135359667Y-72970173D01*
X135359667Y-72970173D02*
X135393000Y-73036840D01*
X135393000Y-73036840D02*
X135426333Y-73170173D01*
X135426333Y-73170173D02*
X135426333Y-73270173D01*
X135426333Y-73270173D02*
X135393000Y-73403506D01*
X135393000Y-73403506D02*
X135359667Y-73470173D01*
X135359667Y-73470173D02*
X135293000Y-73536840D01*
X135293000Y-73536840D02*
X135193000Y-73570173D01*
X135193000Y-73570173D02*
X135026333Y-73570173D01*
X147922668Y-57757173D02*
X148056001Y-57757173D01*
X148056001Y-57757173D02*
X148122668Y-57790506D01*
X148122668Y-57790506D02*
X148189334Y-57857173D01*
X148189334Y-57857173D02*
X148222668Y-57990506D01*
X148222668Y-57990506D02*
X148222668Y-58223840D01*
X148222668Y-58223840D02*
X148189334Y-58357173D01*
X148189334Y-58357173D02*
X148122668Y-58423840D01*
X148122668Y-58423840D02*
X148056001Y-58457173D01*
X148056001Y-58457173D02*
X147922668Y-58457173D01*
X147922668Y-58457173D02*
X147856001Y-58423840D01*
X147856001Y-58423840D02*
X147789334Y-58357173D01*
X147789334Y-58357173D02*
X147756001Y-58223840D01*
X147756001Y-58223840D02*
X147756001Y-57990506D01*
X147756001Y-57990506D02*
X147789334Y-57857173D01*
X147789334Y-57857173D02*
X147856001Y-57790506D01*
X147856001Y-57790506D02*
X147922668Y-57757173D01*
X148522667Y-57757173D02*
X148522667Y-58323840D01*
X148522667Y-58323840D02*
X148556001Y-58390506D01*
X148556001Y-58390506D02*
X148589334Y-58423840D01*
X148589334Y-58423840D02*
X148656001Y-58457173D01*
X148656001Y-58457173D02*
X148789334Y-58457173D01*
X148789334Y-58457173D02*
X148856001Y-58423840D01*
X148856001Y-58423840D02*
X148889334Y-58390506D01*
X148889334Y-58390506D02*
X148922667Y-58323840D01*
X148922667Y-58323840D02*
X148922667Y-57757173D01*
X149156000Y-57757173D02*
X149556000Y-57757173D01*
X149356000Y-58457173D02*
X149356000Y-57757173D01*
X149789333Y-58457173D02*
X149789333Y-57757173D01*
X149789333Y-57757173D02*
X150056000Y-57757173D01*
X150056000Y-57757173D02*
X150122667Y-57790506D01*
X150122667Y-57790506D02*
X150156000Y-57823840D01*
X150156000Y-57823840D02*
X150189333Y-57890506D01*
X150189333Y-57890506D02*
X150189333Y-57990506D01*
X150189333Y-57990506D02*
X150156000Y-58057173D01*
X150156000Y-58057173D02*
X150122667Y-58090506D01*
X150122667Y-58090506D02*
X150056000Y-58123840D01*
X150056000Y-58123840D02*
X149789333Y-58123840D01*
X150489333Y-57757173D02*
X150489333Y-58323840D01*
X150489333Y-58323840D02*
X150522667Y-58390506D01*
X150522667Y-58390506D02*
X150556000Y-58423840D01*
X150556000Y-58423840D02*
X150622667Y-58457173D01*
X150622667Y-58457173D02*
X150756000Y-58457173D01*
X150756000Y-58457173D02*
X150822667Y-58423840D01*
X150822667Y-58423840D02*
X150856000Y-58390506D01*
X150856000Y-58390506D02*
X150889333Y-58323840D01*
X150889333Y-58323840D02*
X150889333Y-57757173D01*
X151122666Y-57757173D02*
X151522666Y-57757173D01*
X151322666Y-58457173D02*
X151322666Y-57757173D01*
X127390333Y-68872840D02*
X127423666Y-68839506D01*
X127423666Y-68839506D02*
X127490333Y-68806173D01*
X127490333Y-68806173D02*
X127657000Y-68806173D01*
X127657000Y-68806173D02*
X127723666Y-68839506D01*
X127723666Y-68839506D02*
X127757000Y-68872840D01*
X127757000Y-68872840D02*
X127790333Y-68939506D01*
X127790333Y-68939506D02*
X127790333Y-69006173D01*
X127790333Y-69006173D02*
X127757000Y-69106173D01*
X127757000Y-69106173D02*
X127357000Y-69506173D01*
X127357000Y-69506173D02*
X127790333Y-69506173D01*
X128090333Y-69439506D02*
X128123667Y-69472840D01*
X128123667Y-69472840D02*
X128090333Y-69506173D01*
X128090333Y-69506173D02*
X128057000Y-69472840D01*
X128057000Y-69472840D02*
X128090333Y-69439506D01*
X128090333Y-69439506D02*
X128090333Y-69506173D01*
X128757000Y-68806173D02*
X128423666Y-68806173D01*
X128423666Y-68806173D02*
X128390333Y-69139506D01*
X128390333Y-69139506D02*
X128423666Y-69106173D01*
X128423666Y-69106173D02*
X128490333Y-69072840D01*
X128490333Y-69072840D02*
X128657000Y-69072840D01*
X128657000Y-69072840D02*
X128723666Y-69106173D01*
X128723666Y-69106173D02*
X128757000Y-69139506D01*
X128757000Y-69139506D02*
X128790333Y-69206173D01*
X128790333Y-69206173D02*
X128790333Y-69372840D01*
X128790333Y-69372840D02*
X128757000Y-69439506D01*
X128757000Y-69439506D02*
X128723666Y-69472840D01*
X128723666Y-69472840D02*
X128657000Y-69506173D01*
X128657000Y-69506173D02*
X128490333Y-69506173D01*
X128490333Y-69506173D02*
X128423666Y-69472840D01*
X128423666Y-69472840D02*
X128390333Y-69439506D01*
X129023667Y-68806173D02*
X129190333Y-69506173D01*
X129190333Y-69506173D02*
X129323667Y-69006173D01*
X129323667Y-69006173D02*
X129457000Y-69506173D01*
X129457000Y-69506173D02*
X129623667Y-68806173D01*
X130357000Y-68806173D02*
X130823666Y-69506173D01*
X130823666Y-68806173D02*
X130357000Y-69506173D01*
X131090333Y-69239506D02*
X131623667Y-69239506D01*
X132190334Y-69139506D02*
X132290334Y-69172840D01*
X132290334Y-69172840D02*
X132323667Y-69206173D01*
X132323667Y-69206173D02*
X132357000Y-69272840D01*
X132357000Y-69272840D02*
X132357000Y-69372840D01*
X132357000Y-69372840D02*
X132323667Y-69439506D01*
X132323667Y-69439506D02*
X132290334Y-69472840D01*
X132290334Y-69472840D02*
X132223667Y-69506173D01*
X132223667Y-69506173D02*
X131957000Y-69506173D01*
X131957000Y-69506173D02*
X131957000Y-68806173D01*
X131957000Y-68806173D02*
X132190334Y-68806173D01*
X132190334Y-68806173D02*
X132257000Y-68839506D01*
X132257000Y-68839506D02*
X132290334Y-68872840D01*
X132290334Y-68872840D02*
X132323667Y-68939506D01*
X132323667Y-68939506D02*
X132323667Y-69006173D01*
X132323667Y-69006173D02*
X132290334Y-69072840D01*
X132290334Y-69072840D02*
X132257000Y-69106173D01*
X132257000Y-69106173D02*
X132190334Y-69139506D01*
X132190334Y-69139506D02*
X131957000Y-69139506D01*
X132623667Y-69306173D02*
X132957000Y-69306173D01*
X132557000Y-69506173D02*
X132790334Y-68806173D01*
X132790334Y-68806173D02*
X133023667Y-69506173D01*
X133257000Y-69506173D02*
X133257000Y-68806173D01*
X133257000Y-68806173D02*
X133657000Y-69506173D01*
X133657000Y-69506173D02*
X133657000Y-68806173D01*
X133990333Y-69506173D02*
X133990333Y-68806173D01*
X133990333Y-68806173D02*
X134157000Y-68806173D01*
X134157000Y-68806173D02*
X134257000Y-68839506D01*
X134257000Y-68839506D02*
X134323667Y-68906173D01*
X134323667Y-68906173D02*
X134357000Y-68972840D01*
X134357000Y-68972840D02*
X134390333Y-69106173D01*
X134390333Y-69106173D02*
X134390333Y-69206173D01*
X134390333Y-69206173D02*
X134357000Y-69339506D01*
X134357000Y-69339506D02*
X134323667Y-69406173D01*
X134323667Y-69406173D02*
X134257000Y-69472840D01*
X134257000Y-69472840D02*
X134157000Y-69506173D01*
X134157000Y-69506173D02*
X133990333Y-69506173D01*
X135190333Y-69306173D02*
X135523666Y-69306173D01*
X135123666Y-69506173D02*
X135357000Y-68806173D01*
X135357000Y-68806173D02*
X135590333Y-69506173D01*
X135823666Y-69506173D02*
X135823666Y-68806173D01*
X135823666Y-68806173D02*
X136057000Y-69306173D01*
X136057000Y-69306173D02*
X136290333Y-68806173D01*
X136290333Y-68806173D02*
X136290333Y-69506173D01*
X136623666Y-69506173D02*
X136623666Y-68806173D01*
X136623666Y-68806173D02*
X136890333Y-68806173D01*
X136890333Y-68806173D02*
X136957000Y-68839506D01*
X136957000Y-68839506D02*
X136990333Y-68872840D01*
X136990333Y-68872840D02*
X137023666Y-68939506D01*
X137023666Y-68939506D02*
X137023666Y-69039506D01*
X137023666Y-69039506D02*
X136990333Y-69106173D01*
X136990333Y-69106173D02*
X136957000Y-69139506D01*
X136957000Y-69139506D02*
X136890333Y-69172840D01*
X136890333Y-69172840D02*
X136623666Y-69172840D01*
X144349066Y-53362973D02*
X144582400Y-54062973D01*
X144582400Y-54062973D02*
X144815733Y-53362973D01*
X145049066Y-54062973D02*
X145049066Y-53362973D01*
X145049066Y-53362973D02*
X145215733Y-53362973D01*
X145215733Y-53362973D02*
X145315733Y-53396306D01*
X145315733Y-53396306D02*
X145382400Y-53462973D01*
X145382400Y-53462973D02*
X145415733Y-53529640D01*
X145415733Y-53529640D02*
X145449066Y-53662973D01*
X145449066Y-53662973D02*
X145449066Y-53762973D01*
X145449066Y-53762973D02*
X145415733Y-53896306D01*
X145415733Y-53896306D02*
X145382400Y-53962973D01*
X145382400Y-53962973D02*
X145315733Y-54029640D01*
X145315733Y-54029640D02*
X145215733Y-54062973D01*
X145215733Y-54062973D02*
X145049066Y-54062973D01*
X144577666Y-72997173D02*
X144811000Y-73697173D01*
X144811000Y-73697173D02*
X145044333Y-72997173D01*
X145644333Y-73030506D02*
X145577666Y-72997173D01*
X145577666Y-72997173D02*
X145477666Y-72997173D01*
X145477666Y-72997173D02*
X145377666Y-73030506D01*
X145377666Y-73030506D02*
X145311000Y-73097173D01*
X145311000Y-73097173D02*
X145277666Y-73163840D01*
X145277666Y-73163840D02*
X145244333Y-73297173D01*
X145244333Y-73297173D02*
X145244333Y-73397173D01*
X145244333Y-73397173D02*
X145277666Y-73530506D01*
X145277666Y-73530506D02*
X145311000Y-73597173D01*
X145311000Y-73597173D02*
X145377666Y-73663840D01*
X145377666Y-73663840D02*
X145477666Y-73697173D01*
X145477666Y-73697173D02*
X145544333Y-73697173D01*
X145544333Y-73697173D02*
X145644333Y-73663840D01*
X145644333Y-73663840D02*
X145677666Y-73630506D01*
X145677666Y-73630506D02*
X145677666Y-73397173D01*
X145677666Y-73397173D02*
X145544333Y-73397173D01*
X133959667Y-53548706D02*
X133893000Y-53515373D01*
X133893000Y-53515373D02*
X133793000Y-53515373D01*
X133793000Y-53515373D02*
X133693000Y-53548706D01*
X133693000Y-53548706D02*
X133626334Y-53615373D01*
X133626334Y-53615373D02*
X133593000Y-53682040D01*
X133593000Y-53682040D02*
X133559667Y-53815373D01*
X133559667Y-53815373D02*
X133559667Y-53915373D01*
X133559667Y-53915373D02*
X133593000Y-54048706D01*
X133593000Y-54048706D02*
X133626334Y-54115373D01*
X133626334Y-54115373D02*
X133693000Y-54182040D01*
X133693000Y-54182040D02*
X133793000Y-54215373D01*
X133793000Y-54215373D02*
X133859667Y-54215373D01*
X133859667Y-54215373D02*
X133959667Y-54182040D01*
X133959667Y-54182040D02*
X133993000Y-54148706D01*
X133993000Y-54148706D02*
X133993000Y-53915373D01*
X133993000Y-53915373D02*
X133859667Y-53915373D01*
X134293000Y-54215373D02*
X134293000Y-53515373D01*
X134293000Y-53515373D02*
X134693000Y-54215373D01*
X134693000Y-54215373D02*
X134693000Y-53515373D01*
X135026333Y-54215373D02*
X135026333Y-53515373D01*
X135026333Y-53515373D02*
X135193000Y-53515373D01*
X135193000Y-53515373D02*
X135293000Y-53548706D01*
X135293000Y-53548706D02*
X135359667Y-53615373D01*
X135359667Y-53615373D02*
X135393000Y-53682040D01*
X135393000Y-53682040D02*
X135426333Y-53815373D01*
X135426333Y-53815373D02*
X135426333Y-53915373D01*
X135426333Y-53915373D02*
X135393000Y-54048706D01*
X135393000Y-54048706D02*
X135359667Y-54115373D01*
X135359667Y-54115373D02*
X135293000Y-54182040D01*
X135293000Y-54182040D02*
X135193000Y-54215373D01*
X135193000Y-54215373D02*
X135026333Y-54215373D01*
X128444000Y-58457173D02*
X128444000Y-57757173D01*
X128777333Y-58457173D02*
X128777333Y-57757173D01*
X128777333Y-57757173D02*
X129177333Y-58457173D01*
X129177333Y-58457173D02*
X129177333Y-57757173D01*
X129510666Y-58457173D02*
X129510666Y-57757173D01*
X129510666Y-57757173D02*
X129777333Y-57757173D01*
X129777333Y-57757173D02*
X129844000Y-57790506D01*
X129844000Y-57790506D02*
X129877333Y-57823840D01*
X129877333Y-57823840D02*
X129910666Y-57890506D01*
X129910666Y-57890506D02*
X129910666Y-57990506D01*
X129910666Y-57990506D02*
X129877333Y-58057173D01*
X129877333Y-58057173D02*
X129844000Y-58090506D01*
X129844000Y-58090506D02*
X129777333Y-58123840D01*
X129777333Y-58123840D02*
X129510666Y-58123840D01*
X130210666Y-57757173D02*
X130210666Y-58323840D01*
X130210666Y-58323840D02*
X130244000Y-58390506D01*
X130244000Y-58390506D02*
X130277333Y-58423840D01*
X130277333Y-58423840D02*
X130344000Y-58457173D01*
X130344000Y-58457173D02*
X130477333Y-58457173D01*
X130477333Y-58457173D02*
X130544000Y-58423840D01*
X130544000Y-58423840D02*
X130577333Y-58390506D01*
X130577333Y-58390506D02*
X130610666Y-58323840D01*
X130610666Y-58323840D02*
X130610666Y-57757173D01*
X130843999Y-57757173D02*
X131243999Y-57757173D01*
X131043999Y-58457173D02*
X131043999Y-57757173D01*
X137932333Y-60644673D02*
X137699000Y-60311340D01*
X137532333Y-60644673D02*
X137532333Y-59944673D01*
X137532333Y-59944673D02*
X137799000Y-59944673D01*
X137799000Y-59944673D02*
X137865667Y-59978006D01*
X137865667Y-59978006D02*
X137899000Y-60011340D01*
X137899000Y-60011340D02*
X137932333Y-60078006D01*
X137932333Y-60078006D02*
X137932333Y-60178006D01*
X137932333Y-60178006D02*
X137899000Y-60244673D01*
X137899000Y-60244673D02*
X137865667Y-60278006D01*
X137865667Y-60278006D02*
X137799000Y-60311340D01*
X137799000Y-60311340D02*
X137532333Y-60311340D01*
X138532333Y-60178006D02*
X138532333Y-60644673D01*
X138365667Y-59911340D02*
X138199000Y-60411340D01*
X138199000Y-60411340D02*
X138632333Y-60411340D01*
X141996333Y-57850673D02*
X141763000Y-57517340D01*
X141596333Y-57850673D02*
X141596333Y-57150673D01*
X141596333Y-57150673D02*
X141863000Y-57150673D01*
X141863000Y-57150673D02*
X141929667Y-57184006D01*
X141929667Y-57184006D02*
X141963000Y-57217340D01*
X141963000Y-57217340D02*
X141996333Y-57284006D01*
X141996333Y-57284006D02*
X141996333Y-57384006D01*
X141996333Y-57384006D02*
X141963000Y-57450673D01*
X141963000Y-57450673D02*
X141929667Y-57484006D01*
X141929667Y-57484006D02*
X141863000Y-57517340D01*
X141863000Y-57517340D02*
X141596333Y-57517340D01*
X142229667Y-57150673D02*
X142663000Y-57150673D01*
X142663000Y-57150673D02*
X142429667Y-57417340D01*
X142429667Y-57417340D02*
X142529667Y-57417340D01*
X142529667Y-57417340D02*
X142596333Y-57450673D01*
X142596333Y-57450673D02*
X142629667Y-57484006D01*
X142629667Y-57484006D02*
X142663000Y-57550673D01*
X142663000Y-57550673D02*
X142663000Y-57717340D01*
X142663000Y-57717340D02*
X142629667Y-57784006D01*
X142629667Y-57784006D02*
X142596333Y-57817340D01*
X142596333Y-57817340D02*
X142529667Y-57850673D01*
X142529667Y-57850673D02*
X142329667Y-57850673D01*
X142329667Y-57850673D02*
X142263000Y-57817340D01*
X142263000Y-57817340D02*
X142229667Y-57784006D01*
X137424333Y-66994673D02*
X137191000Y-66661340D01*
X137024333Y-66994673D02*
X137024333Y-66294673D01*
X137024333Y-66294673D02*
X137291000Y-66294673D01*
X137291000Y-66294673D02*
X137357667Y-66328006D01*
X137357667Y-66328006D02*
X137391000Y-66361340D01*
X137391000Y-66361340D02*
X137424333Y-66428006D01*
X137424333Y-66428006D02*
X137424333Y-66528006D01*
X137424333Y-66528006D02*
X137391000Y-66594673D01*
X137391000Y-66594673D02*
X137357667Y-66628006D01*
X137357667Y-66628006D02*
X137291000Y-66661340D01*
X137291000Y-66661340D02*
X137024333Y-66661340D01*
X137691000Y-66361340D02*
X137724333Y-66328006D01*
X137724333Y-66328006D02*
X137791000Y-66294673D01*
X137791000Y-66294673D02*
X137957667Y-66294673D01*
X137957667Y-66294673D02*
X138024333Y-66328006D01*
X138024333Y-66328006D02*
X138057667Y-66361340D01*
X138057667Y-66361340D02*
X138091000Y-66428006D01*
X138091000Y-66428006D02*
X138091000Y-66494673D01*
X138091000Y-66494673D02*
X138057667Y-66594673D01*
X138057667Y-66594673D02*
X137657667Y-66994673D01*
X137657667Y-66994673D02*
X138091000Y-66994673D01*
X141107333Y-69661673D02*
X140874000Y-69328340D01*
X140707333Y-69661673D02*
X140707333Y-68961673D01*
X140707333Y-68961673D02*
X140974000Y-68961673D01*
X140974000Y-68961673D02*
X141040667Y-68995006D01*
X141040667Y-68995006D02*
X141074000Y-69028340D01*
X141074000Y-69028340D02*
X141107333Y-69095006D01*
X141107333Y-69095006D02*
X141107333Y-69195006D01*
X141107333Y-69195006D02*
X141074000Y-69261673D01*
X141074000Y-69261673D02*
X141040667Y-69295006D01*
X141040667Y-69295006D02*
X140974000Y-69328340D01*
X140974000Y-69328340D02*
X140707333Y-69328340D01*
X141774000Y-69661673D02*
X141374000Y-69661673D01*
X141574000Y-69661673D02*
X141574000Y-68961673D01*
X141574000Y-68961673D02*
X141507333Y-69061673D01*
X141507333Y-69061673D02*
X141440667Y-69128340D01*
X141440667Y-69128340D02*
X141374000Y-69161673D01*
X143901333Y-57911006D02*
X143868000Y-57944340D01*
X143868000Y-57944340D02*
X143768000Y-57977673D01*
X143768000Y-57977673D02*
X143701333Y-57977673D01*
X143701333Y-57977673D02*
X143601333Y-57944340D01*
X143601333Y-57944340D02*
X143534667Y-57877673D01*
X143534667Y-57877673D02*
X143501333Y-57811006D01*
X143501333Y-57811006D02*
X143468000Y-57677673D01*
X143468000Y-57677673D02*
X143468000Y-57577673D01*
X143468000Y-57577673D02*
X143501333Y-57444340D01*
X143501333Y-57444340D02*
X143534667Y-57377673D01*
X143534667Y-57377673D02*
X143601333Y-57311006D01*
X143601333Y-57311006D02*
X143701333Y-57277673D01*
X143701333Y-57277673D02*
X143768000Y-57277673D01*
X143768000Y-57277673D02*
X143868000Y-57311006D01*
X143868000Y-57311006D02*
X143901333Y-57344340D01*
X144534667Y-57277673D02*
X144201333Y-57277673D01*
X144201333Y-57277673D02*
X144168000Y-57611006D01*
X144168000Y-57611006D02*
X144201333Y-57577673D01*
X144201333Y-57577673D02*
X144268000Y-57544340D01*
X144268000Y-57544340D02*
X144434667Y-57544340D01*
X144434667Y-57544340D02*
X144501333Y-57577673D01*
X144501333Y-57577673D02*
X144534667Y-57611006D01*
X144534667Y-57611006D02*
X144568000Y-57677673D01*
X144568000Y-57677673D02*
X144568000Y-57844340D01*
X144568000Y-57844340D02*
X144534667Y-57911006D01*
X144534667Y-57911006D02*
X144501333Y-57944340D01*
X144501333Y-57944340D02*
X144434667Y-57977673D01*
X144434667Y-57977673D02*
X144268000Y-57977673D01*
X144268000Y-57977673D02*
X144201333Y-57944340D01*
X144201333Y-57944340D02*
X144168000Y-57911006D01*
X136662333Y-57961806D02*
X136629000Y-57995140D01*
X136629000Y-57995140D02*
X136529000Y-58028473D01*
X136529000Y-58028473D02*
X136462333Y-58028473D01*
X136462333Y-58028473D02*
X136362333Y-57995140D01*
X136362333Y-57995140D02*
X136295667Y-57928473D01*
X136295667Y-57928473D02*
X136262333Y-57861806D01*
X136262333Y-57861806D02*
X136229000Y-57728473D01*
X136229000Y-57728473D02*
X136229000Y-57628473D01*
X136229000Y-57628473D02*
X136262333Y-57495140D01*
X136262333Y-57495140D02*
X136295667Y-57428473D01*
X136295667Y-57428473D02*
X136362333Y-57361806D01*
X136362333Y-57361806D02*
X136462333Y-57328473D01*
X136462333Y-57328473D02*
X136529000Y-57328473D01*
X136529000Y-57328473D02*
X136629000Y-57361806D01*
X136629000Y-57361806D02*
X136662333Y-57395140D01*
X137262333Y-57561806D02*
X137262333Y-58028473D01*
X137095667Y-57295140D02*
X136929000Y-57795140D01*
X136929000Y-57795140D02*
X137362333Y-57795140D01*
X139329333Y-70992006D02*
X139296000Y-71025340D01*
X139296000Y-71025340D02*
X139196000Y-71058673D01*
X139196000Y-71058673D02*
X139129333Y-71058673D01*
X139129333Y-71058673D02*
X139029333Y-71025340D01*
X139029333Y-71025340D02*
X138962667Y-70958673D01*
X138962667Y-70958673D02*
X138929333Y-70892006D01*
X138929333Y-70892006D02*
X138896000Y-70758673D01*
X138896000Y-70758673D02*
X138896000Y-70658673D01*
X138896000Y-70658673D02*
X138929333Y-70525340D01*
X138929333Y-70525340D02*
X138962667Y-70458673D01*
X138962667Y-70458673D02*
X139029333Y-70392006D01*
X139029333Y-70392006D02*
X139129333Y-70358673D01*
X139129333Y-70358673D02*
X139196000Y-70358673D01*
X139196000Y-70358673D02*
X139296000Y-70392006D01*
X139296000Y-70392006D02*
X139329333Y-70425340D01*
X139562667Y-70358673D02*
X139996000Y-70358673D01*
X139996000Y-70358673D02*
X139762667Y-70625340D01*
X139762667Y-70625340D02*
X139862667Y-70625340D01*
X139862667Y-70625340D02*
X139929333Y-70658673D01*
X139929333Y-70658673D02*
X139962667Y-70692006D01*
X139962667Y-70692006D02*
X139996000Y-70758673D01*
X139996000Y-70758673D02*
X139996000Y-70925340D01*
X139996000Y-70925340D02*
X139962667Y-70992006D01*
X139962667Y-70992006D02*
X139929333Y-71025340D01*
X139929333Y-71025340D02*
X139862667Y-71058673D01*
X139862667Y-71058673D02*
X139662667Y-71058673D01*
X139662667Y-71058673D02*
X139596000Y-71025340D01*
X139596000Y-71025340D02*
X139562667Y-70992006D01*
X143393333Y-69794006D02*
X143360000Y-69827340D01*
X143360000Y-69827340D02*
X143260000Y-69860673D01*
X143260000Y-69860673D02*
X143193333Y-69860673D01*
X143193333Y-69860673D02*
X143093333Y-69827340D01*
X143093333Y-69827340D02*
X143026667Y-69760673D01*
X143026667Y-69760673D02*
X142993333Y-69694006D01*
X142993333Y-69694006D02*
X142960000Y-69560673D01*
X142960000Y-69560673D02*
X142960000Y-69460673D01*
X142960000Y-69460673D02*
X142993333Y-69327340D01*
X142993333Y-69327340D02*
X143026667Y-69260673D01*
X143026667Y-69260673D02*
X143093333Y-69194006D01*
X143093333Y-69194006D02*
X143193333Y-69160673D01*
X143193333Y-69160673D02*
X143260000Y-69160673D01*
X143260000Y-69160673D02*
X143360000Y-69194006D01*
X143360000Y-69194006D02*
X143393333Y-69227340D01*
X144060000Y-69860673D02*
X143660000Y-69860673D01*
X143860000Y-69860673D02*
X143860000Y-69160673D01*
X143860000Y-69160673D02*
X143793333Y-69260673D01*
X143793333Y-69260673D02*
X143726667Y-69327340D01*
X143726667Y-69327340D02*
X143660000Y-69360673D01*
X136916333Y-59562006D02*
X136883000Y-59595340D01*
X136883000Y-59595340D02*
X136783000Y-59628673D01*
X136783000Y-59628673D02*
X136716333Y-59628673D01*
X136716333Y-59628673D02*
X136616333Y-59595340D01*
X136616333Y-59595340D02*
X136549667Y-59528673D01*
X136549667Y-59528673D02*
X136516333Y-59462006D01*
X136516333Y-59462006D02*
X136483000Y-59328673D01*
X136483000Y-59328673D02*
X136483000Y-59228673D01*
X136483000Y-59228673D02*
X136516333Y-59095340D01*
X136516333Y-59095340D02*
X136549667Y-59028673D01*
X136549667Y-59028673D02*
X136616333Y-58962006D01*
X136616333Y-58962006D02*
X136716333Y-58928673D01*
X136716333Y-58928673D02*
X136783000Y-58928673D01*
X136783000Y-58928673D02*
X136883000Y-58962006D01*
X136883000Y-58962006D02*
X136916333Y-58995340D01*
X137516333Y-58928673D02*
X137383000Y-58928673D01*
X137383000Y-58928673D02*
X137316333Y-58962006D01*
X137316333Y-58962006D02*
X137283000Y-58995340D01*
X137283000Y-58995340D02*
X137216333Y-59095340D01*
X137216333Y-59095340D02*
X137183000Y-59228673D01*
X137183000Y-59228673D02*
X137183000Y-59495340D01*
X137183000Y-59495340D02*
X137216333Y-59562006D01*
X137216333Y-59562006D02*
X137249667Y-59595340D01*
X137249667Y-59595340D02*
X137316333Y-59628673D01*
X137316333Y-59628673D02*
X137449667Y-59628673D01*
X137449667Y-59628673D02*
X137516333Y-59595340D01*
X137516333Y-59595340D02*
X137549667Y-59562006D01*
X137549667Y-59562006D02*
X137583000Y-59495340D01*
X137583000Y-59495340D02*
X137583000Y-59328673D01*
X137583000Y-59328673D02*
X137549667Y-59262006D01*
X137549667Y-59262006D02*
X137516333Y-59228673D01*
X137516333Y-59228673D02*
X137449667Y-59195340D01*
X137449667Y-59195340D02*
X137316333Y-59195340D01*
X137316333Y-59195340D02*
X137249667Y-59228673D01*
X137249667Y-59228673D02*
X137216333Y-59262006D01*
X137216333Y-59262006D02*
X137183000Y-59328673D01*
X136281333Y-67944006D02*
X136248000Y-67977340D01*
X136248000Y-67977340D02*
X136148000Y-68010673D01*
X136148000Y-68010673D02*
X136081333Y-68010673D01*
X136081333Y-68010673D02*
X135981333Y-67977340D01*
X135981333Y-67977340D02*
X135914667Y-67910673D01*
X135914667Y-67910673D02*
X135881333Y-67844006D01*
X135881333Y-67844006D02*
X135848000Y-67710673D01*
X135848000Y-67710673D02*
X135848000Y-67610673D01*
X135848000Y-67610673D02*
X135881333Y-67477340D01*
X135881333Y-67477340D02*
X135914667Y-67410673D01*
X135914667Y-67410673D02*
X135981333Y-67344006D01*
X135981333Y-67344006D02*
X136081333Y-67310673D01*
X136081333Y-67310673D02*
X136148000Y-67310673D01*
X136148000Y-67310673D02*
X136248000Y-67344006D01*
X136248000Y-67344006D02*
X136281333Y-67377340D01*
X136548000Y-67377340D02*
X136581333Y-67344006D01*
X136581333Y-67344006D02*
X136648000Y-67310673D01*
X136648000Y-67310673D02*
X136814667Y-67310673D01*
X136814667Y-67310673D02*
X136881333Y-67344006D01*
X136881333Y-67344006D02*
X136914667Y-67377340D01*
X136914667Y-67377340D02*
X136948000Y-67444006D01*
X136948000Y-67444006D02*
X136948000Y-67510673D01*
X136948000Y-67510673D02*
X136914667Y-67610673D01*
X136914667Y-67610673D02*
X136514667Y-68010673D01*
X136514667Y-68010673D02*
X136948000Y-68010673D01*
D12*
%TO.C,R4*%
X139853641Y-60705000D02*
X139546359Y-60705000D01*
X139853641Y-59945000D02*
X139546359Y-59945000D01*
%TO.C,R3*%
X140562359Y-58929000D02*
X140869641Y-58929000D01*
X140562359Y-59689000D02*
X140869641Y-59689000D01*
%TO.C,R2*%
X139038359Y-66295000D02*
X139345641Y-66295000D01*
X139038359Y-67055000D02*
X139345641Y-67055000D01*
%TO.C,R1*%
X140361641Y-68071000D02*
X140054359Y-68071000D01*
X140361641Y-67311000D02*
X140054359Y-67311000D01*
%TO.C,C5*%
X143306748Y-58399000D02*
X144729252Y-58399000D01*
X143306748Y-60219000D02*
X144729252Y-60219000D01*
%TO.C,C4*%
X139707252Y-57050000D02*
X139184748Y-57050000D01*
X139707252Y-58520000D02*
X139184748Y-58520000D01*
%TO.C,C3*%
X138549748Y-68480000D02*
X139072252Y-68480000D01*
X138549748Y-69950000D02*
X139072252Y-69950000D01*
%TO.C,C1*%
X144221252Y-68601000D02*
X142798748Y-68601000D01*
X144221252Y-66781000D02*
X142798748Y-66781000D01*
%TO.C,U1*%
X137590000Y-62115000D02*
X137590000Y-61630000D01*
X137590000Y-65610000D02*
X137590000Y-64885000D01*
X138315000Y-61390000D02*
X137890000Y-61390000D01*
X138315000Y-65610000D02*
X137590000Y-65610000D01*
X141085000Y-61390000D02*
X141810000Y-61390000D01*
X141085000Y-65610000D02*
X141810000Y-65610000D01*
X141810000Y-61390000D02*
X141810000Y-62115000D01*
X141810000Y-65610000D02*
X141810000Y-64885000D01*
X137590000Y-61390000D02*
X137350000Y-61060000D01*
X137830000Y-61060000D01*
X137590000Y-61390000D01*
G36*
X137590000Y-61390000D02*
G01*
X137350000Y-61060000D01*
X137830000Y-61060000D01*
X137590000Y-61390000D01*
G37*
%TO.C,C6*%
X138819836Y-58949000D02*
X138604164Y-58949000D01*
X138819836Y-59669000D02*
X138604164Y-59669000D01*
%TO.C,C2*%
X138068164Y-67331000D02*
X138283836Y-67331000D01*
X138068164Y-68051000D02*
X138283836Y-68051000D01*
%TD*%
M02*
